<?xml version="1.0" encoding="UTF-8"?>
<svg xmlns="http://www.w3.org/2000/svg" viewBox="0 0 640 420"
     font-family="Helvetica Neue, Helvetica, Arial, sans-serif">
  <defs>
    <marker id="arrow" markerWidth="8" markerHeight="6" refX="7" refY="3" orient="auto">
      <path d="M0,0 L8,3 L0,6 Z" fill="#333"/>
    </marker>
    <!-- ── Zone fills ── -->
    <linearGradient id="infantGrad" x1="0" y1="0" x2="0" y2="1">
      <stop offset="0%" stop-color="#f9d6d5" stop-opacity="0.55"/>
      <stop offset="100%" stop-color="#f9d6d5" stop-opacity="0.15"/>
    </linearGradient>
    <linearGradient id="usefulGrad" x1="0" y1="0" x2="0" y2="1">
      <stop offset="0%" stop-color="#d4edda" stop-opacity="0.50"/>
      <stop offset="100%" stop-color="#d4edda" stop-opacity="0.10"/>
    </linearGradient>
    <linearGradient id="wearGrad" x1="0" y1="0" x2="0" y2="1">
      <stop offset="0%" stop-color="#fdebd0" stop-opacity="0.55"/>
      <stop offset="100%" stop-color="#fdebd0" stop-opacity="0.15"/>
    </linearGradient>
  </defs>

  <!-- ── Background ── -->
  <rect width="640" height="420" fill="white"/>

  <!-- ── Grid lines ── -->
  <g stroke="#e8e8e8" stroke-width="0.8">
    <line x1="80" y1="60"  x2="600" y2="60"/>
    <line x1="80" y1="110" x2="600" y2="110"/>
    <line x1="80" y1="160" x2="600" y2="160"/>
    <line x1="80" y1="210" x2="600" y2="210"/>
    <line x1="80" y1="260" x2="600" y2="260"/>
    <line x1="80" y1="310" x2="600" y2="310"/>
  </g>

  <!-- ── Zone shading ── -->
  <rect x="80"  y="40" width="150" height="320" fill="url(#infantGrad)" rx="2"/>
  <rect x="230" y="40" width="230" height="320" fill="url(#usefulGrad)" rx="2"/>
  <rect x="460" y="40" width="140" height="320" fill="url(#wearGrad)" rx="2"/>

  <!-- ── Zone dividers ── -->
  <line x1="230" y1="40" x2="230" y2="360" stroke="#bbb" stroke-width="0.8" stroke-dasharray="5,4"/>
  <line x1="460" y1="40" x2="460" y2="360" stroke="#bbb" stroke-width="0.8" stroke-dasharray="5,4"/>

  <!-- ── Phase labels (top) ── -->
  <text x="155" y="30" text-anchor="middle" font-size="12" font-weight="700" fill="#c44">Infant Mortality</text>
  <text x="345" y="30" text-anchor="middle" font-size="12" font-weight="700" fill="#3d9e5a">Useful Life</text>
  <text x="530" y="30" text-anchor="middle" font-size="12" font-weight="700" fill="#c87b2a">Wear-out</text>

  <!-- ── Axes ── -->
  <line x1="80" y1="360" x2="605" y2="360" stroke="#333" stroke-width="1.2" marker-end="url(#arrow)"/>
  <line x1="80" y1="365" x2="80"  y2="38"  stroke="#333" stroke-width="1.2" marker-end="url(#arrow)"/>

  <!-- ── Axis titles ── -->
  <text x="345" y="395" text-anchor="middle" font-size="11" font-weight="600" fill="#333">Time (Product Lifecycle)</text>
  <text x="24" y="200" text-anchor="middle" font-size="11" font-weight="600" fill="#333"
        transform="rotate(-90, 24, 200)">Failure Rate (log scale)</text>

  <!-- ── Y-axis tick labels (log-scale representation) ── -->
  <text x="72" y="314" text-anchor="end" font-size="9" fill="#555">10&#x207B;&#x2074;</text>
  <text x="72" y="264" text-anchor="end" font-size="9" fill="#555">10&#x207B;&#x00B3;</text>
  <text x="72" y="214" text-anchor="end" font-size="9" fill="#555">10&#x207B;&#x00B2;</text>
  <text x="72" y="164" text-anchor="end" font-size="9" fill="#555">10&#x207B;&#x00B9;</text>
  <text x="72" y="114" text-anchor="end" font-size="9" fill="#555">10&#x2070;</text>
  <text x="72" y="64"  text-anchor="end" font-size="9" fill="#555">10&#x00B9;</text>

  <!-- ── Y-axis ticks ── -->
  <g stroke="#333" stroke-width="1">
    <line x1="76" y1="310" x2="80" y2="310"/>
    <line x1="76" y1="260" x2="80" y2="260"/>
    <line x1="76" y1="210" x2="80" y2="210"/>
    <line x1="76" y1="160" x2="80" y2="160"/>
    <line x1="76" y1="110" x2="80" y2="110"/>
    <line x1="76" y1="60"  x2="80" y2="60"/>
  </g>

  <!-- ── X-axis time labels ── -->
  <text x="120" y="376" text-anchor="middle" font-size="9" fill="#555">Days</text>
  <text x="200" y="376" text-anchor="middle" font-size="9" fill="#555">Weeks</text>
  <text x="300" y="376" text-anchor="middle" font-size="9" fill="#555">Months</text>
  <text x="420" y="376" text-anchor="middle" font-size="9" fill="#555">Years</text>
  <text x="540" y="376" text-anchor="middle" font-size="9" fill="#555">End of life</text>

  <!-- ── The bathtub curve (U-shape on log scale) ── -->
  <path d="M 82,72 C 100,90 120,160 150,220
           C 170,260 200,280 230,290
           L 460,290
           C 480,280 500,260 520,220
           C 540,170 560,110 598,72"
        fill="none" stroke="#a31f34" stroke-width="2.5" stroke-linecap="round"/>

  <!-- ── Sub-labels for each zone ── -->
  <!-- Infant Mortality -->
  <text x="155" y="195" text-anchor="middle" font-size="9.5" font-weight="700" fill="#555">Burn-in period</text>
  <text x="155" y="210" text-anchor="middle" font-size="9" fill="#555">Manufacturing defects,</text>
  <text x="155" y="222" text-anchor="middle" font-size="9" fill="#555">early-life wear-out</text>

  <!-- Useful Life -->
  <text x="345" y="265" text-anchor="middle" font-size="9.5" font-weight="700" fill="#555">CFR (Constant Failure Rate)</text>
  <text x="345" y="280" text-anchor="middle" font-size="9" fill="#555">Random failures only</text>

  <!-- Wear-out -->
  <text x="530" y="195" text-anchor="middle" font-size="9.5" font-weight="700" fill="#555">End-of-life</text>
  <text x="530" y="210" text-anchor="middle" font-size="9" fill="#555">Electromigration,</text>
  <text x="530" y="222" text-anchor="middle" font-size="9" fill="#555">thermal fatigue</text>

  <!-- ── MTBF annotation in useful-life zone ── -->
  <rect x="275" y="310" width="140" height="30" rx="4" fill="#f7f7f7" stroke="#bbb" stroke-width="1.2"/>
  <text x="345" y="322" text-anchor="middle" font-size="9" font-weight="700" fill="#a31f34">GPU MTBF at peak</text>
  <text x="345" y="334" text-anchor="middle" font-size="9" fill="#555">~50,000 hours</text>
  <line x1="345" y1="295" x2="345" y2="310" stroke="#bbb" stroke-width="0.8" stroke-dasharray="3,3"/>

  <!-- ── Decreasing/increasing arrows ── -->
  <path d="M 110,105 L 100,80" fill="none" stroke="#c44" stroke-width="1.2" marker-end="url(#arrow)"/>
  <text x="90" y="78" text-anchor="middle" font-size="8" fill="#c44">Decreasing</text>

  <path d="M 555,160 L 565,135" fill="none" stroke="#c87b2a" stroke-width="1.2" marker-end="url(#arrow)"/>
  <text x="578" y="132" text-anchor="middle" font-size="8" fill="#c87b2a">Rising</text>

  <!-- ── Footnote ── -->
  <text x="340" y="412" text-anchor="middle" font-size="9" fill="#999" font-style="italic">
    Hazard function h(t) over product lifetime; classic reliability engineering model
  </text>
</svg>
