<?xml version="1.0" encoding="UTF-8"?>
<!-- Option 2: Layered stack. Tiers as horizontal bands stacked bottom-up;
     the ML stack metaphor. Foundation at bottom, Capstone at top. -->
<svg xmlns="http://www.w3.org/2000/svg" viewBox="20 0 680 500"
     font-family="Helvetica Neue, Helvetica, Arial, sans-serif">

  <defs>
    <marker id="arrow-up" markerWidth="8" markerHeight="6" refX="8" refY="3" orient="auto">
      <path d="M0,0 L8,3 L0,6 Z" fill="#555"/>
    </marker>
  </defs>

  <!-- ===== Title ===== -->
  <text x="360" y="30" text-anchor="middle" font-size="13" font-weight="700" fill="#333">The TinyTorch Stack</text>
  <text x="360" y="48" text-anchor="middle" font-size="9" font-style="italic" fill="#999">four layers, bottom-up · each builds on the one below</text>

  <!-- ===== Layer 4 — Capstone (orange accent, top) ===== -->
  <rect x="40" y="70" width="640" height="80" rx="4" fill="#fdebd0" stroke="#c87b2a" stroke-width="1.5"/>
  <text x="60" y="95" font-size="11" font-weight="700" fill="#333">CAPSTONE</text>
  <text x="60" y="111" font-size="9" fill="#555">20 · everything below,</text>
  <text x="60" y="123" font-size="9" fill="#555">running end-to-end</text>
  <text x="60" y="140" font-size="8" fill="#555" font-style="italic">an MLPerf-style benchmark you submit: your framework, your trained model, your measured latency</text>

  <rect x="340" y="98" width="200" height="24" rx="12" fill="#fdebd0" stroke="#c87b2a" stroke-width="1.5"/>
  <text x="440" y="113" text-anchor="middle" font-size="11" font-weight="700" fill="#a31f34">20 Capstone</text>

  <!-- ===== Layer 3 — Optimization ===== -->
  <rect x="40" y="170" width="640" height="80" rx="4" fill="#f7f7f7" stroke="#bbb" stroke-width="1.5"/>
  <text x="60" y="195" font-size="11" font-weight="700" fill="#555">OPTIMIZATION</text>
  <text x="60" y="211" font-size="9" fill="#999">14–19 · make it fast,</text>
  <text x="60" y="223" font-size="9" fill="#999">small, and measurable</text>
  <text x="60" y="240" font-size="8" fill="#999" font-style="italic">profile to find bottlenecks, then apply the right technique and benchmark the gain</text>
  
  <g font-size="10" font-weight="700" fill="#333" text-anchor="middle">
    <rect x="210" y="198" width="70" height="24" rx="12" fill="#f7f7f7" stroke="#bbb" stroke-width="1.2"/>
    <text x="245" y="213">14 Prof</text>
    <rect x="288" y="198" width="70" height="24" rx="12" fill="#f7f7f7" stroke="#bbb" stroke-width="1.2"/>
    <text x="323" y="213">15 Quant</text>
    <rect x="366" y="198" width="70" height="24" rx="12" fill="#f7f7f7" stroke="#bbb" stroke-width="1.2"/>
    <text x="401" y="213">16 Compr</text>
    <rect x="444" y="198" width="70" height="24" rx="12" fill="#f7f7f7" stroke="#bbb" stroke-width="1.2"/>
    <text x="479" y="213">17 Accel</text>
    <rect x="522" y="198" width="70" height="24" rx="12" fill="#f7f7f7" stroke="#bbb" stroke-width="1.2"/>
    <text x="557" y="213">18 Memo</text>
    <rect x="600" y="198" width="70" height="24" rx="12" fill="#f7f7f7" stroke="#bbb" stroke-width="1.2"/>
    <text x="635" y="213">19 Bench</text>
  </g>

  <!-- ===== Layer 2 — Architecture ===== -->
  <rect x="40" y="270" width="640" height="80" rx="4" fill="#f7f7f7" stroke="#bbb" stroke-width="1.5"/>
  <text x="60" y="295" font-size="11" font-weight="700" fill="#555">ARCHITECTURE</text>
  <text x="60" y="311" font-size="9" fill="#999">09–13 · models for</text>
  <text x="60" y="323" font-size="9" fill="#999">images and language</text>
  
  <g font-size="10" font-weight="700" fill="#333" text-anchor="middle">
    <!-- Vision -->
    <rect x="210" y="298" width="74" height="24" rx="12" fill="#f7f7f7" stroke="#bbb" stroke-width="1.2"/>
    <text x="247" y="313">09 CNNs</text>
    <!-- Language -->
    <rect x="344" y="298" width="74" height="24" rx="12" fill="#f7f7f7" stroke="#bbb" stroke-width="1.2"/>
    <text x="381" y="313">10 Token</text>
    <rect x="428" y="298" width="74" height="24" rx="12" fill="#f7f7f7" stroke="#bbb" stroke-width="1.2"/>
    <text x="465" y="313">11 Embed</text>
    <rect x="512" y="298" width="74" height="24" rx="12" fill="#f7f7f7" stroke="#bbb" stroke-width="1.2"/>
    <text x="549" y="313">12 Atten</text>
    <rect x="596" y="298" width="74" height="24" rx="12" fill="#f7f7f7" stroke="#bbb" stroke-width="1.2"/>
    <text x="633" y="313">13 Trans</text>
  </g>
  <text x="247" y="338" text-anchor="middle" font-size="8" fill="#999" font-style="italic">vision</text>
  <text x="507" y="338" text-anchor="middle" font-size="8" fill="#999" font-style="italic">language chain</text>

  <!-- ===== Layer 1 — Foundation (bottom) ===== -->
  <rect x="40" y="370" width="640" height="80" rx="4" fill="#f7f7f7" stroke="#bbb" stroke-width="1.5"/>
  <text x="60" y="395" font-size="11" font-weight="700" fill="#555">FOUNDATION</text>
  <text x="60" y="411" font-size="9" fill="#999">01–08 · core</text>
  <text x="60" y="423" font-size="9" fill="#999">numerical machinery</text>
  <text x="60" y="440" font-size="8" fill="#999" font-style="italic">tensors, activations, layers, losses, dataloader, autograd, optimizers, training</text>
  
  <g font-size="10" font-weight="700" fill="#333" text-anchor="middle">
    <rect x="210" y="398" width="54" height="24" rx="12" fill="#f7f7f7" stroke="#bbb" stroke-width="1.2"/>
    <text x="237" y="413">01 Tensor</text>
    <rect x="268" y="398" width="54" height="24" rx="12" fill="#f7f7f7" stroke="#bbb" stroke-width="1.2"/>
    <text x="295" y="413">02 Activ</text>
    <rect x="326" y="398" width="54" height="24" rx="12" fill="#f7f7f7" stroke="#bbb" stroke-width="1.2"/>
    <text x="353" y="413">03 Layer</text>
    <rect x="384" y="398" width="54" height="24" rx="12" fill="#f7f7f7" stroke="#bbb" stroke-width="1.2"/>
    <text x="411" y="413">04 Loss</text>
    <rect x="442" y="398" width="54" height="24" rx="12" fill="#f7f7f7" stroke="#bbb" stroke-width="1.2"/>
    <text x="469" y="413">05 Data</text>
    <rect x="500" y="398" width="54" height="24" rx="12" fill="#f7f7f7" stroke="#bbb" stroke-width="1.2"/>
    <text x="527" y="413">06 Grad</text>
    <rect x="558" y="398" width="54" height="24" rx="12" fill="#f7f7f7" stroke="#bbb" stroke-width="1.2"/>
    <text x="585" y="413">07 Optim</text>
    <rect x="616" y="398" width="54" height="24" rx="12" fill="#f7f7f7" stroke="#bbb" stroke-width="1.2"/>
    <text x="643" y="413">08 Train</text>
  </g>

  <!-- ===== Upward-flow arrows between layers ===== -->
  <path d="M440,370 L440,350" stroke="#555" stroke-width="1.2" fill="none" marker-end="url(#arrow-up)"/>
  <path d="M440,270 L440,250" stroke="#555" stroke-width="1.2" fill="none" marker-end="url(#arrow-up)"/>
  <path d="M440,170 L440,150" stroke="#555" stroke-width="1.2" fill="none" marker-end="url(#arrow-up)"/>

  <!-- ===== Footnote ===== -->
  <text x="360" y="480" text-anchor="middle" font-size="9" fill="#999" font-style="italic">Data flows up the stack · each layer depends on everything below it</text>
</svg>
