<?xml version="1.0" encoding="UTF-8" standalone="no"?>
<!DOCTYPE svg PUBLIC "-//W3C//DTD SVG 1.1//EN"
 "http://www.w3.org/Graphics/SVG/1.1/DTD/svg11.dtd">
<!-- Title: G Pages: 1 -->
<svg width="204pt" height="188pt"
 viewBox="0.00 0.00 204.00 188.00" xmlns="http://www.w3.org/2000/svg" xmlns:xlink="http://www.w3.org/1999/xlink" font-family="Helvetica Neue, Helvetica, Arial, sans-serif">
<g id="graph0" class="graph" transform="scale(1 1) rotate(0) translate(4 184)">
<title>G</title>
<polygon fill="white" stroke="none" points="-4,4 -4,-184 200.04,-184 200.04,4 -4,4"/>
<!-- D1 -->
<g id="node1" class="node">
<title>D1</title>
<ellipse fill="#fdebd0" stroke="black" cx="44.52" cy="-18" rx="44.52" ry="18"/>
<text xml:space="preserve" text-anchor="middle" x="44.52" y="-12.2" font-family="Helvetica,sans-Serif" font-size="14.00">Device 1</text>
</g>
<!-- RegEdge -->
<g id="node3" class="node">
<title>RegEdge</title>
<ellipse fill="#cfe2f3" stroke="#4a90c4" cx="97.52" cy="-90" rx="84.01" ry="18"/>
<text xml:space="preserve" text-anchor="middle" x="97.52" y="-84.2" font-family="Helvetica,sans-Serif" font-size="14.00">Regional RegEdge</text>
</g>
<!-- D1&#45;&gt;RegEdge -->
<g id="edge1" class="edge">
<title>D1&#45;&gt;RegEdge</title>
<path fill="none" stroke="black" d="M57.08,-35.59C63.26,-43.75 70.85,-53.78 77.79,-62.93"/>
<polygon fill="black" stroke="black" points="74.94,-64.98 83.77,-70.84 80.52,-60.75 74.94,-64.98"/>
</g>
<!-- D2 -->
<g id="node2" class="node">
<title>D2</title>
<ellipse fill="#fdebd0" stroke="black" cx="151.52" cy="-18" rx="44.52" ry="18"/>
<text xml:space="preserve" text-anchor="middle" x="151.52" y="-12.2" font-family="Helvetica,sans-Serif" font-size="14.00">Device 2</text>
</g>
<!-- D2&#45;&gt;RegEdge -->
<g id="edge2" class="edge">
<title>D2&#45;&gt;RegEdge</title>
<path fill="none" stroke="black" d="M138.72,-35.59C132.43,-43.75 124.69,-53.78 117.63,-62.93"/>
<polygon fill="black" stroke="black" points="114.86,-60.79 111.53,-70.85 120.41,-65.07 114.86,-60.79"/>
</g>
<!-- Cloud -->
<g id="node4" class="node">
<title>Cloud</title>
<polygon fill="#d4edda" stroke="#3d9e5a" points="146.77,-180 48.27,-180 48.27,-144 146.77,-144 146.77,-180"/>
<text xml:space="preserve" text-anchor="middle" x="97.52" y="-156.2" font-family="Helvetica,sans-Serif" font-size="14.00">Central Cloud</text>
</g>
<!-- RegEdge&#45;&gt;Cloud -->
<g id="edge3" class="edge">
<title>RegEdge&#45;&gt;Cloud</title>
<path fill="none" stroke="black" d="M97.52,-108.3C97.52,-115.59 97.52,-124.27 97.52,-132.46"/>
<polygon fill="black" stroke="black" points="94.02,-132.38 97.52,-142.38 101.02,-132.38 94.02,-132.38"/>
</g>
</g>
</svg>
