<?xml version="1.0" encoding="UTF-8" standalone="no"?>
<!-- Created with Inkscape (http://www.inkscape.org/) -->

<svg
   version="1.1"
   id="svg1"
   width="320.89334"
   height="278.80399"
   viewBox="0 0 320.89334 278.80399"
   xmlns="http://www.w3.org/2000/svg"
   xmlns:svg="http://www.w3.org/2000/svg">
  <defs
     id="defs1" />
  <g
     id="g1">
    <path
       id="path1"
       d="M -35.4335,-28.3468 H 35.43352 V 28.34682 H -35.4335 Z"
       style="fill:none;stroke:#4c4c4c;stroke-width:0.99628;stroke-linecap:butt;stroke-linejoin:miter;stroke-miterlimit:10;stroke-dasharray:2.98883, 2.98883;stroke-dashoffset:0;stroke-opacity:1"
       transform="matrix(1.0666667,0,0,-1.0666667,83.773867,30.767733)" />
    <path
       id="path2"
       d="M 0,-15.5907 -17.09294,-7.17174 0,1.50223 17.09294,-7.17174 Z"
       style="fill:#9ed9f1;fill-opacity:1;fill-rule:nonzero;stroke:#000000;stroke-width:0.99628;stroke-linecap:butt;stroke-linejoin:miter;stroke-miterlimit:10;stroke-dasharray:none;stroke-opacity:1"
       transform="matrix(1.0666667,0,0,-1.0666667,83.773867,30.767733)" />
    <path
       id="path3"
       d="M 0,-7.93706 -17.09294,0.4819 0,9.15588 17.09294,0.4819 Z"
       style="fill:#ff8000;fill-opacity:1;fill-rule:nonzero;stroke:#000000;stroke-width:0.99628;stroke-linecap:butt;stroke-linejoin:miter;stroke-miterlimit:10;stroke-dasharray:none;stroke-opacity:1"
       transform="matrix(1.0666667,0,0,-1.0666667,83.773867,30.767733)" />
    <path
       id="path4"
       d="M 0,-0.2834 -17.09294,8.13557 0,16.80954 17.09294,8.13557 Z"
       style="fill:#9ed9f1;fill-opacity:1;fill-rule:nonzero;stroke:#000000;stroke-width:0.99628;stroke-linecap:butt;stroke-linejoin:miter;stroke-miterlimit:10;stroke-dasharray:none;stroke-opacity:1"
       transform="matrix(1.0666667,0,0,-1.0666667,83.773867,30.767733)" />
    <path
       id="path5"
       d="m -9.94963,22.93256 -12.15141,-7.01563 v -31.12457 l 12.15141,-7.01604"
       style="fill:none;stroke:#000000;stroke-width:0.99628;stroke-linecap:butt;stroke-linejoin:miter;stroke-miterlimit:10;stroke-dasharray:none;stroke-opacity:1"
       transform="matrix(1.0666667,0,0,-1.0666667,83.773867,30.767733)" />
    <path
       id="path6"
       d="m -7.2597,22.93256 c 0,1.48561 -1.20432,2.68992 -2.68993,2.68992 -1.48561,0 -2.68993,-1.20431 -2.68993,-2.68992 0,-1.48561 1.20432,-2.68993 2.68993,-2.68993 1.48561,0 2.68993,1.20432 2.68993,2.68993 z"
       style="fill:#cc4c33;fill-opacity:1;fill-rule:nonzero;stroke:#000000;stroke-width:0.99628;stroke-linecap:butt;stroke-linejoin:miter;stroke-miterlimit:10;stroke-dasharray:none;stroke-opacity:1"
       transform="matrix(1.0666667,0,0,-1.0666667,83.773867,30.767733)" />
    <path
       id="path7"
       d="m -7.2597,-22.22368 c 0,1.48561 -1.20432,2.68994 -2.68993,2.68994 -1.48561,0 -2.68993,-1.20433 -2.68993,-2.68994 0,-1.48561 1.20432,-2.68992 2.68993,-2.68992 1.48561,0 2.68993,1.20431 2.68993,2.68992 z"
       style="fill:#9ed9f1;fill-opacity:1;fill-rule:nonzero;stroke:#000000;stroke-width:0.99628;stroke-linecap:butt;stroke-linejoin:miter;stroke-miterlimit:10;stroke-dasharray:none;stroke-opacity:1"
       transform="matrix(1.0666667,0,0,-1.0666667,83.773867,30.767733)" />
    <path
       id="path8"
       d="M 9.94963,22.93256 22.10104,15.91693 V -15.20764 L 9.94963,-22.22368"
       style="fill:none;stroke:#000000;stroke-width:0.99628;stroke-linecap:butt;stroke-linejoin:miter;stroke-miterlimit:10;stroke-dasharray:none;stroke-opacity:1"
       transform="matrix(1.0666667,0,0,-1.0666667,83.773867,30.767733)" />
    <path
       id="path9"
       d="m 12.63956,22.93256 c 0,1.48561 -1.20432,2.68992 -2.68993,2.68992 -1.48561,0 -2.68993,-1.20431 -2.68993,-2.68992 0,-1.48561 1.20432,-2.68993 2.68993,-2.68993 1.48561,0 2.68993,1.20432 2.68993,2.68993 z"
       style="fill:#cc4c33;fill-opacity:1;fill-rule:nonzero;stroke:#000000;stroke-width:0.99628;stroke-linecap:butt;stroke-linejoin:miter;stroke-miterlimit:10;stroke-dasharray:none;stroke-opacity:1"
       transform="matrix(1.0666667,0,0,-1.0666667,83.773867,30.767733)" />
    <path
       id="path10"
       d="m 12.63956,-22.22368 c 0,1.48561 -1.20432,2.68994 -2.68993,2.68994 -1.48561,0 -2.68993,-1.20433 -2.68993,-2.68994 0,-1.48561 1.20432,-2.68992 2.68993,-2.68992 1.48561,0 2.68993,1.20431 2.68993,2.68992 z"
       style="fill:#9ed9f1;fill-opacity:1;fill-rule:nonzero;stroke:#000000;stroke-width:0.99628;stroke-linecap:butt;stroke-linejoin:miter;stroke-miterlimit:10;stroke-dasharray:none;stroke-opacity:1"
       transform="matrix(1.0666667,0,0,-1.0666667,83.773867,30.767733)" />
    <path
       id="path11"
       d="m -37.28912,-29.33896 -16.2462,-5.91289"
       style="fill:none;stroke:#4c4c4c;stroke-width:1.49442;stroke-linecap:butt;stroke-linejoin:miter;stroke-miterlimit:10;stroke-dasharray:none;stroke-opacity:1"
       transform="matrix(1.0666667,0,0,-1.0666667,83.773867,30.767733)" />
    <path
       id="path12"
       d="m 4.43343,0 c 0,1.07295 -0.86979,1.94273 -1.94274,1.94273 C 1.41772,1.94273 0.54794,1.07295 0.54794,0 c 0,-1.07295 0.86978,-1.94273 1.94275,-1.94273 1.07295,0 1.94274,0.86978 1.94274,1.94273 z"
       style="fill:#ffffff;fill-opacity:1;fill-rule:nonzero;stroke:#4c4c4c;stroke-width:1.0959;stroke-linecap:butt;stroke-linejoin:round;stroke-miterlimit:10;stroke-dasharray:none;stroke-opacity:1"
       transform="matrix(1.0023467,-0.36477867,-0.36477867,-1.0023467,43.449547,62.262507)" />
    <path
       id="path13"
       d="m -78.53941,-49.12437 h 61.24255 V -34.951 h -61.24255 z"
       style="fill:#4c4c4c;fill-opacity:1;fill-rule:nonzero;stroke:none"
       transform="matrix(1.0666667,0,0,-1.0666667,83.773867,30.767733)" />
    <path
       id="path14"
       d="m 4.0128594,-5.8168359 v 3.9404297 c 0,0.703125 -0.3515625,1.04003901 -1.0986328,1.04003901 -0.7617188,0 -1.1132813,-0.33691401 -1.1132813,-1.04003901 V -5.8168359 H 0.59977344 v 3.9404297 c 0,0.6591796 0.17578125,1.1132812 0.57128906,1.4648437 0.4248047,0.38085938 1.0400391,0.60058594 1.7431641,0.60058594 0.6884765,0 1.3037109,-0.21972656 1.7285156,-0.60058594 0.3955078,-0.3515625 0.571289,-0.8056641 0.571289,-1.4648437 v -3.9404297 z m 2.2412109,1.508789 v 4.30664065 H 7.3673516 V -2.5795312 c 0,-0.5126954 0.3662109,-0.8496094 0.9082031,-0.8496094 0.4833984,0 0.7177734,0.2636719 0.7177734,0.7763672 v 2.65136715 H 10.106609 V -2.8871484 c 0,-0.9521485 -0.5273434,-1.4941407 -1.4355465,-1.4941407 -0.5859375,0 -0.9814453,0.2197266 -1.3037109,0.703125 v -0.6298828 z m 6.0241697,-1.508789 h -1.127929 v 5.81542965 h 1.127929 z m 4.735108,5.68359371 C 16.80827,-0.32367187 16.764324,-0.44085937 16.764324,-0.66058594 V -3.0482812 c 0,-0.8789063 -0.600586,-1.3330079 -1.772461,-1.3330079 -1.157226,0 -1.757812,0.4980469 -1.831054,1.4941407 h 1.069336 c 0.05859,-0.4394532 0.249023,-0.5859375 0.791015,-0.5859375 0.424805,0 0.644531,0.1464843 0.644531,0.4248047 0,0.1464843 -0.07324,0.2783203 -0.190429,0.336914 -0.146485,0.073242 -0.146485,0.073242 -0.703125,0.1611328 l -0.439453,0.087891 c -0.84961,0.1464843 -1.274414,0.5859375 -1.274414,1.3476562 0,0.36621094 0.102539,0.67382813 0.307617,0.89355469 0.249023,0.24902344 0.615234,0.41015625 0.996093,0.41015625 0.483399,0 0.922852,-0.21972656 1.31836,-0.61523438 0,0.21972657 0.01465,0.29296875 0.117187,0.42480469 h 1.215821 z M 15.665691,-1.7299219 c 0,0.6445313 -0.322265,1.01074221 -0.878906,1.01074221 -0.380859,0 -0.615234,-0.20507812 -0.615234,-0.51269531 0,-0.3369141 0.175781,-0.4980469 0.644531,-0.6005859 l 0.380859,-0.058594 c 0.292969,-0.058594 0.336914,-0.073242 0.46875,-0.1464844 z m 2.072754,-4.086914 v 5.81542965 h 1.113282 v -0.43945312 c 0.27832,0.42480468 0.644531,0.62988281 1.186523,0.62988281 1.025391,0 1.816406,-0.98144531 1.816406,-2.28515624 0,-0.5859375 -0.175781,-1.171875 -0.46875,-1.5820313 -0.292969,-0.4248046 -0.820312,-0.703125 -1.347656,-0.703125 -0.527344,0 -0.908203,0.2050782 -1.186523,0.6298829 v -2.0654297 z m 2.050782,2.3730468 c 0.55664,0 0.952148,0.5566407 0.952148,1.3476563 0,0.7910156 -0.395508,1.34765624 -0.952148,1.34765624 -0.556641,0 -0.9375,-0.54199214 -0.9375,-1.36230464 0,-0.7763672 0.380859,-1.3330079 0.9375,-1.3330079 z m 6.525878,1.640625 c 0.01465,-0.087891 0.01465,-0.1318359 0.01465,-0.1904296 0,-0.4248047 -0.07324,-0.834961 -0.175781,-1.1279297 -0.278321,-0.7910157 -0.981446,-1.2597657 -1.845703,-1.2597657 -1.230469,0 -1.992188,0.8935547 -1.992188,2.34375 0,1.37695316 0.74707,2.22656254 1.962891,2.22656254 0.966797,0 1.743164,-0.55664063 1.992187,-1.40625004 h -1.098633 c -0.131836,0.35156254 -0.439453,0.54199223 -0.849609,0.54199223 -0.322266,0 -0.571289,-0.13183594 -0.732422,-0.36621093 -0.102539,-0.1611328 -0.146484,-0.3515625 -0.161133,-0.7617188 z m -2.871093,-0.7470703 c 0.07324,-0.6445312 0.351562,-0.9667968 0.849609,-0.9667968 0.27832,0 0.527344,0.1318359 0.688477,0.3515625 0.102539,0.1611328 0.161132,0.3222656 0.175781,0.6152343 z m 4.782715,-3.2666015 h -1.12793 v 5.81542965 h 1.12793 z m 4.735107,4.0136718 c 0.01465,-0.087891 0.01465,-0.1318359 0.01465,-0.1904296 0,-0.4248047 -0.07324,-0.834961 -0.175781,-1.1279297 -0.27832,-0.7910157 -0.981445,-1.2597657 -1.845703,-1.2597657 -1.230469,0 -1.992187,0.8935547 -1.992187,2.34375 0,1.37695316 0.74707,2.22656254 1.96289,2.22656254 0.966797,0 1.743164,-0.55664063 1.992188,-1.40625004 h -1.098633 c -0.131836,0.35156254 -0.439453,0.54199223 -0.84961,0.54199223 -0.322265,0 -0.571289,-0.13183594 -0.732421,-0.36621093 -0.102539,-0.1611328 -0.146485,-0.3515625 -0.161133,-0.7617188 z M 30.09074,-2.5502344 c 0.07324,-0.6445312 0.351563,-0.9667968 0.84961,-0.9667968 0.27832,0 0.527343,0.1318359 0.688476,0.3515625 0.102539,0.1611328 0.161133,0.3222656 0.175781,0.6152343 z m 6.350098,2.54882815 h 1.113281 V -5.8168359 h -1.113281 v 2.0654297 c -0.27832,-0.4248047 -0.644531,-0.6298829 -1.186524,-0.6298829 -1.02539,0 -1.801757,0.9960938 -1.801757,2.2851563 0,0.5859375 0.175781,1.17187499 0.454101,1.59667968 0.292969,0.41015625 0.820313,0.68847656 1.347656,0.68847656 0.541993,0 0.908204,-0.20507813 1.186524,-0.62988281 z m -0.9375,-3.44238285 c 0.571289,0 0.9375,0.5566407 0.9375,1.3769532 0,0.7763672 -0.380859,1.31835934 -0.9375,1.31835934 -0.556641,0 -0.9375,-0.55664064 -0.9375,-1.34765624 0,-0.7910156 0.380859,-1.3476563 0.9375,-1.3476563 z m 6.595459,1.3769532 h 1.49414 c 1.069336,0 1.743165,-0.7617188 1.743165,-1.9482422 0,-1.1572266 -0.65918,-1.8017578 -1.860352,-1.8017578 h -2.578125 v 5.81542965 h 1.201172 z m 0,-0.9960938 v -1.7578125 h 1.113281 c 0.644531,0 0.9375,0.2783203 0.9375,0.8789063 0,0.6005859 -0.292969,0.8789062 -0.9375,0.8789062 z m 5.606689,-1.3183594 c -1.318359,0 -2.124023,0.8789063 -2.124023,2.2851563 0,1.42089843 0.805664,2.28515624 2.124023,2.28515624 1.31836,0 2.138672,-0.87890625 2.138672,-2.25585934 0,-1.4501953 -0.791015,-2.3144532 -2.138672,-2.3144532 z m 0,0.9082032 c 0.615235,0 1.010743,0.5419922 1.010743,1.3916015 0,0.8056641 -0.410157,1.36230471 -1.010743,1.36230471 -0.600586,0 -1.010742,-0.55664061 -1.010742,-1.37695311 0,-0.8203125 0.410156,-1.3769531 1.010742,-1.3769531 z m 4.866944,-0.9082032 c -1.31836,0 -2.124024,0.8789063 -2.124024,2.2851563 0,1.42089843 0.805664,2.28515624 2.124024,2.28515624 1.318359,0 2.138672,-0.87890625 2.138672,-2.25585934 0,-1.4501953 -0.791016,-2.3144532 -2.138672,-2.3144532 z m 0,0.9082032 c 0.615234,0 1.010742,0.5419922 1.010742,1.3916015 0,0.8056641 -0.410156,1.36230471 -1.010742,1.36230471 -0.600586,0 -1.010743,-0.55664061 -1.010743,-1.37695311 0,-0.8203125 0.410157,-1.3769531 1.010743,-1.3769531 z m 4.123535,-2.34375 h -1.12793 v 5.81542965 h 1.12793 z m 0,0"
       style="fill:#ffffff;fill-opacity:1;fill-rule:nonzero;stroke:none"
       aria-label="UnlabeledPool"
       transform="matrix(1.0666667,0,0,1.0666667,2.1258667,78.564)" />
    <path
       id="path15"
       d="m 121.47021,-28.3468 h 70.86702 v 56.69362 h -70.86702 z"
       style="fill:none;stroke:#006395;stroke-width:0.99628;stroke-linecap:butt;stroke-linejoin:miter;stroke-miterlimit:10;stroke-dasharray:none;stroke-opacity:1"
       transform="matrix(1.0666667,0,0,-1.0666667,83.773867,30.767733)" />
    <path
       id="path16"
       d="m 178.73067,0 c 0,12.05482 -9.7721,21.82693 -21.82694,21.82693 -12.05484,0 -21.82693,-9.77211 -21.82693,-21.82693 0,-12.05482 9.77209,-21.82693 21.82693,-21.82693 12.05484,0 21.82694,9.77211 21.82694,21.82693 z"
       style="fill:#00e600;fill-opacity:1;fill-rule:nonzero;stroke:#3e647d;stroke-width:0.69739;stroke-linecap:butt;stroke-linejoin:miter;stroke-miterlimit:10;stroke-dasharray:none;stroke-opacity:1"
       transform="matrix(1.0666667,0,0,-1.0666667,83.773867,30.767733)" />
    <path
       id="path17"
       d="m 173.77,0 c 0,9.3151 -7.55116,16.86627 -16.86627,16.86627 -9.31511,0 -16.86627,-7.55117 -16.86627,-16.86627 0,-9.3151 7.55116,-16.86627 16.86627,-16.86627 9.31511,0 16.86627,7.55117 16.86627,16.86627 z"
       style="fill:#ccffcc;fill-opacity:1;fill-rule:nonzero;stroke:#3e647d;stroke-width:0.69739;stroke-linecap:butt;stroke-linejoin:miter;stroke-miterlimit:10;stroke-dasharray:none;stroke-opacity:1"
       transform="matrix(1.0666667,0,0,-1.0666667,83.773867,30.767733)" />
    <path
       id="path18"
       d="m 168.80933,0 c 0,6.57535 -5.33023,11.9056 -11.9056,11.9056 -6.57536,0 -11.90559,-5.33025 -11.90559,-11.9056 0,-6.57535 5.33023,-11.9056 11.90559,-11.9056 6.57537,0 11.9056,5.33025 11.9056,11.9056 z"
       style="fill:#00e600;fill-opacity:1;fill-rule:nonzero;stroke:#3e647d;stroke-width:0.69739;stroke-linecap:butt;stroke-linejoin:miter;stroke-miterlimit:10;stroke-dasharray:none;stroke-opacity:1"
       transform="matrix(1.0666667,0,0,-1.0666667,83.773867,30.767733)" />
    <path
       id="path19"
       d="m 163.84865,0 c 0,3.8356 -3.1093,6.94492 -6.94492,6.94492 -3.83561,0 -6.94491,-3.10932 -6.94491,-6.94492 0,-3.8356 3.1093,-6.94492 6.94491,-6.94492 3.83562,0 6.94492,3.10932 6.94492,6.94492 z"
       style="fill:#ccffcc;fill-opacity:1;fill-rule:nonzero;stroke:#3e647d;stroke-width:0.69739;stroke-linecap:butt;stroke-linejoin:miter;stroke-miterlimit:10;stroke-dasharray:none;stroke-opacity:1"
       transform="matrix(1.0666667,0,0,-1.0666667,83.773867,30.767733)" />
    <path
       id="path20"
       d="m 159.38405,0 c 0,1.36984 -1.11048,2.48032 -2.48032,2.48032 -1.36986,0 -2.48033,-1.11048 -2.48033,-2.48032 0,-1.36984 1.11047,-2.48032 2.48033,-2.48032 1.36984,0 2.48032,1.11048 2.48032,2.48032 z"
       style="fill:#00e600;fill-opacity:1;fill-rule:nonzero;stroke:#3e647d;stroke-width:0.69739;stroke-linecap:butt;stroke-linejoin:miter;stroke-miterlimit:10;stroke-dasharray:none;stroke-opacity:1"
       transform="matrix(1.0666667,0,0,-1.0666667,83.773867,30.767733)" />
    <path
       id="path21"
       d="M 156.90373,0 157.8281,2.40826 171.859,16.43915 173.26207,15.0361 159.23116,1.00519 Z"
       style="fill:#bf8040;fill-opacity:1;fill-rule:nonzero;stroke:#000000;stroke-width:0.79701;stroke-linecap:butt;stroke-linejoin:miter;stroke-miterlimit:10;stroke-dasharray:none;stroke-opacity:1"
       transform="matrix(1.0666667,0,0,-1.0666667,83.773867,30.767733)" />
    <path
       id="path22"
       d="m 168.83025,11.9265 -0.6888,3.90822 5.19107,5.19108 0.68881,-3.90823 3.90822,-0.6888 -5.19107,-5.19108 z"
       style="fill:#fff200;fill-opacity:1;fill-rule:nonzero;stroke:#000000;stroke-width:0.79701;stroke-linecap:butt;stroke-linejoin:miter;stroke-miterlimit:10;stroke-dasharray:none;stroke-opacity:1"
       transform="matrix(1.0666667,0,0,-1.0666667,83.773867,30.767733)" />
    <path
       id="path23"
       d="m 119.6146,-29.33896 -16.2462,-5.91289"
       style="fill:none;stroke:#006395;stroke-width:1.49442;stroke-linecap:butt;stroke-linejoin:miter;stroke-miterlimit:10;stroke-dasharray:none;stroke-opacity:1"
       transform="matrix(1.0666667,0,0,-1.0666667,83.773867,30.767733)" />
    <path
       id="path24"
       d="m 4.43343,0 c 0,1.07295 -0.86979,1.94273 -1.94274,1.94273 C 1.41772,1.94273 0.54794,1.07295 0.54794,0 c 0,-1.07295 0.86978,-1.94273 1.94275,-1.94273 1.07295,0 1.94274,0.86978 1.94274,1.94273 z"
       style="fill:#ffffff;fill-opacity:1;fill-rule:nonzero;stroke:#006395;stroke-width:1.0959;stroke-linecap:butt;stroke-linejoin:round;stroke-miterlimit:10;stroke-dasharray:none;stroke-opacity:1"
       transform="matrix(1.0023467,-0.36477867,-0.36477867,-1.0023467,210.81354,62.262507)" />
    <path
       id="path25"
       d="m 72.2234,-49.12437 h 73.52437 V -34.951 H 72.2234 Z"
       style="fill:#006395;fill-opacity:1;fill-rule:nonzero;stroke:none"
       transform="matrix(1.0666667,0,0,-1.0666667,83.773867,30.767733)" />
    <path
       id="path26"
       d="m 4.8348906,-4.0441074 c 0,-0.5273438 -0.1171875,-0.8789063 -0.4101562,-1.2011719 C 4.043875,-5.670084 3.3993438,-5.904459 2.5643828,-5.904459 c -1.40625,0 -2.21191405,0.6445313 -2.21191405,1.7871094 0,0.8935547 0.45410156,1.3330078 1.64062505,1.5527344 l 0.805664,0.1611328 c 0.8056641,0.1611328 1.0986328,0.3808594 1.0986328,0.8496094 0,0.4833984 -0.4394531,0.77636714 -1.171875,0.77636714 -0.805664,0 -1.2597656,-0.33691404 -1.3037109,-0.96679684 H 0.24992969 c 0.0732422,1.24511715 0.93750001,1.93359372 2.41699221,1.93359372 1.4941406,0 2.3730469,-0.703125 2.3730469,-1.88964842 0,-0.9082031 -0.4541016,-1.3916016 -1.538086,-1.5966797 L 2.5936797,-3.4728184 c -0.8496094,-0.1757812 -1.0986328,-0.336914 -1.0986328,-0.7617187 0,-0.4394531 0.3955078,-0.7177734 1.0107422,-0.7177734 0.7470703,0 1.171875,0.3222656 1.2158203,0.9082031 z m 4.654541,2.2412109 c 0.014648,-0.087891 0.014648,-0.1318359 0.014648,-0.1904297 0,-0.4248047 -0.073242,-0.8349609 -0.1757813,-1.1279297 C 9.049978,-3.9122715 8.346853,-4.3810215 7.4825952,-4.3810215 c -1.2304687,0 -1.9921875,0.8935547 -1.9921875,2.34375 0,1.37695314 0.7470703,2.22656252 1.9628906,2.22656252 0.9667969,0 1.7431641,-0.55664063 1.9921875,-1.40625002 H 8.3468535 c -0.1318359,0.35156252 -0.4394531,0.5419922 -0.8496094,0.5419922 -0.3222656,0 -0.571289,-0.13183593 -0.7324218,-0.3662109 C 6.6622832,-1.2023105 6.6183379,-1.3927402 6.6036895,-1.8028965 Z M 6.6183379,-2.5499668 c 0.073242,-0.6445312 0.3515625,-0.9667969 0.8496094,-0.9667969 0.2783203,0 0.5273437,0.131836 0.6884765,0.3515625 0.1025391,0.1611328 0.1611328,0.3222657 0.1757813,0.6152344 z m 4.7827151,-3.2666016 h -1.12793 v 5.81542973 h 1.12793 z m 4.735107,4.0136719 c 0.01465,-0.087891 0.01465,-0.1318359 0.01465,-0.1904297 0,-0.4248047 -0.07324,-0.8349609 -0.175782,-1.1279297 -0.27832,-0.7910156 -0.981445,-1.2597656 -1.845703,-1.2597656 -1.230469,0 -1.992187,0.8935547 -1.992187,2.34375 0,1.37695314 0.74707,2.22656252 1.96289,2.22656252 0.966797,0 1.743164,-0.55664063 1.992188,-1.40625002 h -1.098633 c -0.131836,0.35156252 -0.439453,0.5419922 -0.849609,0.5419922 -0.322266,0 -0.571289,-0.13183593 -0.732422,-0.3662109 -0.102539,-0.1611328 -0.146485,-0.3515625 -0.161133,-0.7617188 z m -2.871094,-0.7470703 c 0.07324,-0.6445312 0.351563,-0.9667969 0.84961,-0.9667969 0.27832,0 0.527344,0.131836 0.688476,0.3515625 0.102539,0.1611328 0.161133,0.3222657 0.175782,0.6152344 z m 7.29126,-0.1464844 c -0.07324,-1.0546875 -0.776367,-1.6845703 -1.860351,-1.6845703 -1.274414,0 -2.036133,0.8496094 -2.036133,2.3144531 0,1.42089848 0.74707,2.25585942 2.021484,2.25585942 1.040039,0 1.772461,-0.65917969 1.875,-1.68457032 H 19.48699 c -0.146484,0.55664063 -0.366211,0.77636719 -0.791015,0.77636719 -0.571289,0 -0.908204,-0.51269529 -0.908204,-1.34765629 0,-0.4101562 0.07324,-0.7910156 0.205079,-1.040039 0.131836,-0.234375 0.380859,-0.366211 0.703125,-0.366211 0.454101,0 0.659179,0.2197266 0.791015,0.7763672 z m 2.67334,-1.5234375 h -0.629883 v -1.1572265 h -1.113281 v 1.1572265 H 20.94451 v 0.7470703 h 0.541992 v 2.63671879 c 0,0.68847656 0.366211,1.02539063 1.098633,1.02539063 0.249023,0 0.439453,-0.0292969 0.644531,-0.0878906 V -0.6896152 c -0.117187,0.0146484 -0.175781,0.0292969 -0.263672,0.0292969 -0.292969,0 -0.366211,-0.0878906 -0.366211,-0.46875 v -2.34375 h 0.629883 z m 1.904297,-0.087891 h -1.12793 v 4.30664063 h 1.12793 z m 0,-1.5087891 h -1.12793 v 0.9960938 h 1.12793 z m 2.962646,1.4355469 c -1.318359,0 -2.124023,0.8789063 -2.124023,2.2851563 0,1.4208984 0.805664,2.28515622 2.124023,2.28515622 1.31836,0 2.138672,-0.87890625 2.138672,-2.25585942 0,-1.4501953 -0.791015,-2.3144531 -2.138672,-2.3144531 z m 0,0.9082031 c 0.615235,0 1.010743,0.5419922 1.010743,1.3916016 0,0.8056641 -0.410157,1.36230469 -1.010743,1.36230469 -0.600586,0 -1.010742,-0.55664059 -1.010742,-1.37695309 0,-0.8203125 0.410156,-1.3769532 1.010742,-1.3769532 z m 2.966309,-0.8349609 v 4.30664063 h 1.113281 V -2.5792637 c 0,-0.5126953 0.366211,-0.8496093 0.908203,-0.8496093 0.483399,0 0.717774,0.2636718 0.717774,0.7763671 v 2.65136723 h 1.113281 V -2.8868809 c 0,-0.9521484 -0.527344,-1.4941406 -1.435547,-1.4941406 -0.585937,0 -0.981445,0.2197266 -1.303711,0.703125 v -0.6298828 z m 11.422119,0.2636719 c 0,-0.5273438 -0.117187,-0.8789063 -0.410156,-1.2011719 -0.38086,-0.4248047 -1.025391,-0.6591797 -1.860352,-0.6591797 -1.40625,0 -2.211914,0.6445313 -2.211914,1.7871094 0,0.8935547 0.454102,1.3330078 1.640625,1.5527344 l 0.805664,0.1611328 c 0.805664,0.1611328 1.098633,0.3808594 1.098633,0.8496094 0,0.4833984 -0.439453,0.77636714 -1.171875,0.77636714 -0.805664,0 -1.259766,-0.33691404 -1.303711,-0.96679684 h -1.171875 c 0.07324,1.24511715 0.9375,1.93359372 2.416992,1.93359372 1.494141,0 2.373047,-0.703125 2.373047,-1.88964842 0,-0.9082031 -0.454101,-1.3916016 -1.538086,-1.5966797 l -0.908203,-0.1757813 c -0.849609,-0.1757812 -1.098633,-0.336914 -1.098633,-0.7617187 0,-0.4394531 0.395508,-0.7177734 1.010743,-0.7177734 0.74707,0 1.171875,0.3222656 1.21582,0.9082031 z m 2.885742,-0.1757813 h -0.629883 v -1.1572265 h -1.113281 v 1.1572265 h -0.541992 v 0.7470703 h 0.541992 v 2.63671879 c 0,0.68847656 0.366211,1.02539063 1.098633,1.02539063 0.249023,0 0.439453,-0.0292969 0.644531,-0.0878906 V -0.6896156 c -0.117187,0.0146484 -0.175781,0.0292969 -0.263672,0.0292969 -0.292968,0 -0.366211,-0.0878906 -0.366211,-0.46875 v -2.34375 h 0.629883 z m 0.747071,-0.087891 v 4.30664063 h 1.113281 V -2.2862949 c 0,-0.6591797 0.336914,-0.9814453 0.981445,-0.9814453 0.131836,0 0.205078,0.014648 0.351563,0.029297 V -4.366373 c -0.05859,-0.014648 -0.102539,-0.014648 -0.131836,-0.014648 -0.512696,0 -0.952149,0.3369141 -1.201172,0.9228516 v -0.8496094 z m 6.778564,4.17480469 C 52.691336,-0.3234043 52.647391,-0.4405918 52.647391,-0.66031836 V -3.0480137 c 0,-0.8789062 -0.600586,-1.3330078 -1.772461,-1.3330078 -1.157227,0 -1.757813,0.4980469 -1.831055,1.4941406 h 1.069336 c 0.05859,-0.4394531 0.249023,-0.5859375 0.791016,-0.5859375 0.424804,0 0.644531,0.1464844 0.644531,0.4248047 0,0.1464844 -0.07324,0.2783203 -0.19043,0.3369141 -0.146484,0.073242 -0.146484,0.073242 -0.703125,0.1611328 l -0.439453,0.087891 c -0.849609,0.1464844 -1.274414,0.5859375 -1.274414,1.3476563 0,0.36621092 0.102539,0.6738281 0.307617,0.89355467 0.249024,0.24902343 0.615235,0.41015625 0.996094,0.41015625 0.483398,0 0.922851,-0.21972657 1.318359,-0.61523438 0,0.21972656 0.01465,0.29296875 0.117188,0.42480469 h 1.21582 z M 51.548758,-1.7296543 c 0,0.6445313 -0.322266,1.01074219 -0.878906,1.01074219 -0.38086,0 -0.615235,-0.20507812 -0.615235,-0.51269529 0,-0.3369141 0.175781,-0.4980469 0.644531,-0.600586 l 0.38086,-0.058594 c 0.292969,-0.058594 0.336914,-0.073242 0.46875,-0.1464844 z m 4.006347,-2.4902344 h -0.629882 v -1.1572265 h -1.113282 v 1.1572265 h -0.541992 v 0.7470703 h 0.541992 v 2.63671879 c 0,0.68847656 0.366211,1.02539063 1.098633,1.02539063 0.249024,0 0.439453,-0.0292969 0.644531,-0.0878906 V -0.6896152 c -0.117187,0.0146484 -0.175781,0.0292969 -0.263671,0.0292969 -0.292969,0 -0.366211,-0.0878906 -0.366211,-0.46875 v -2.34375 h 0.629882 z m 4.427491,2.4169922 c 0.01465,-0.087891 0.01465,-0.1318359 0.01465,-0.1904297 0,-0.4248047 -0.07324,-0.8349609 -0.175781,-1.1279297 -0.27832,-0.7910156 -0.981445,-1.2597656 -1.845703,-1.2597656 -1.230469,0 -1.992188,0.8935547 -1.992188,2.34375 0,1.37695314 0.747071,2.22656252 1.962891,2.22656252 0.966797,0 1.743164,-0.55664063 1.992187,-1.40625002 H 58.84002 c -0.131836,0.35156252 -0.439454,0.5419922 -0.84961,0.5419922 -0.322265,0 -0.571289,-0.13183593 -0.732422,-0.3662109 -0.102539,-0.1611328 -0.146484,-0.3515625 -0.161132,-0.7617188 z m -2.871094,-0.7470703 c 0.07324,-0.6445312 0.351562,-0.9667969 0.849609,-0.9667969 0.278321,0 0.527344,0.131836 0.688477,0.3515625 0.102539,0.1611328 0.161133,0.3222657 0.175781,0.6152344 z m 6.379394,-1.7578125 v 0.6591797 c -0.336914,-0.4980469 -0.703125,-0.7324219 -1.201171,-0.7324219 -1.010743,0 -1.78711,0.9960938 -1.78711,2.3291016 0,1.34765623 0.703125,2.24121092 1.772461,2.24121092 0.498047,0 0.805664,-0.16113282 1.21582,-0.62988282 v 0.5859375 c 0,0.51269532 -0.395507,0.8789063 -0.952148,0.8789063 -0.424805,0 -0.703125,-0.1757813 -0.791016,-0.51269536 h -1.157226 c 0.01465,0.33691406 0.146484,0.57128906 0.424805,0.80566406 0.351562,0.2783203 0.820312,0.4248047 1.479492,0.4248047 1.303711,0 2.050781,-0.5859375 2.050781,-1.5966797 v -4.453125 z m -0.952148,0.8642578 c 0.556641,0 0.966797,0.5859375 0.966797,1.3769531 0,0.7763672 -0.410156,1.31835942 -0.981445,1.31835942 -0.527344,0 -0.893555,-0.54199222 -0.893555,-1.31835942 0,-0.805664 0.366211,-1.3769531 0.908203,-1.3769531 z m 5.705566,-0.8642578 -0.893554,3.1347656 -0.9375,-3.1347656 h -1.230469 l 1.59668,4.48242188 v 0.0292969 c 0,0.41015625 -0.292969,0.71777344 -0.688477,0.71777344 -0.08789,0 -0.146484,0 -0.292969,-0.0439453 V 1.7127285 c 0.161133,0.029297 0.263672,0.029297 0.395508,0.029297 0.278321,0 0.615235,-0.058594 0.805664,-0.1318359 0.307617,-0.131836 0.439453,-0.3076172 0.629883,-0.82031255 l 1.772461,-5.09765625 z m 0,0"
       style="fill:#ffffff;fill-opacity:1;fill-rule:nonzero;stroke:none"
       aria-label="SelectionStrategy"
       transform="matrix(1.0666667,0,0,1.0666667,162.93653,77.762933)" />
    <path
       id="path27"
       d="m 121.47021,-120.05287 h 70.86702 v 56.69362 h -70.86702 z"
       style="fill:none;stroke:#e67817;stroke-width:0.99628;stroke-linecap:butt;stroke-linejoin:miter;stroke-miterlimit:10;stroke-dasharray:none;stroke-opacity:1"
       transform="matrix(1.0666667,0,0,-1.0666667,83.773867,30.767733)" />
    <path
       id="path28"
       d="m 171.07715,-106.50333 1.4514,2.08648 -0.63504,3.7191 0.36293,0.81649 -1.17929,0.81638 -1.17929,-0.81638 0.36293,-0.81649 -0.63506,-3.7191 z"
       style="fill:#00ff00;fill-opacity:1;fill-rule:nonzero;stroke:#00ff00;stroke-width:0.3985;stroke-linecap:butt;stroke-linejoin:miter;stroke-miterlimit:10;stroke-dasharray:none;stroke-opacity:1"
       transform="matrix(1.0666667,0,0,-1.0666667,83.773867,30.767733)" />
    <path
       id="path29"
       d="m 177.78987,-87.90738 c 0.6407,0.2332 1.20688,-0.68916 1.08849,-1.36062 -0.31243,-0.8584 -1.11389,-1.81753 -1.905,-1.36075 0.37924,1.04195 0.62417,1.62965 0.81672,2.72165 z"
       style="fill:#000000;fill-opacity:1;fill-rule:nonzero;stroke:#000000;stroke-width:0.3985;stroke-linecap:butt;stroke-linejoin:miter;stroke-miterlimit:10;stroke-dasharray:none;stroke-opacity:1"
       transform="matrix(1.0666667,0,0,-1.0666667,83.773867,30.767733)" />
    <path
       id="path30"
       d="m 164.1831,-87.81657 c -0.64239,0.11326 -1.0396,-0.83849 -0.8165,-1.45143 0.30337,-0.83352 0.94083,-1.51479 1.81434,-1.36075 -0.39838,1.09449 -0.59967,1.71795 -0.99805,2.81245 z"
       style="fill:#000000;fill-opacity:1;fill-rule:nonzero;stroke:#000000;stroke-width:0.3985;stroke-linecap:butt;stroke-linejoin:miter;stroke-miterlimit:10;stroke-dasharray:none;stroke-opacity:1"
       transform="matrix(1.0666667,0,0,-1.0666667,83.773867,30.767733)" />
    <path
       id="path31"
       d="m 171.07715,-96.52496 c -3.91623,0 -5.19182,3.93968 -6.53127,7.61973 -1.02414,2.8138 -1.49746,7.00916 1.45143,7.52912 1.50614,4.13803 9.74202,3.32165 11.24817,-0.81638 2.01314,-1.68925 0.81925,-4.12463 0.36292,-6.71274 -1.33945,-3.68005 -2.61502,-7.61973 -6.53125,-7.61973 z"
       style="fill:#000000;fill-opacity:1;fill-rule:nonzero;stroke:#000000;stroke-width:0.3985;stroke-linecap:butt;stroke-linejoin:miter;stroke-miterlimit:10;stroke-dasharray:none;stroke-opacity:1"
       transform="matrix(1.0666667,0,0,-1.0666667,83.773867,30.767733)" />
    <path
       id="path32"
       d="m 171.07715,-95.52715 c -2.67243,0.23382 -3.89018,2.37749 -4.80771,4.8984 -0.69782,1.91715 -0.90355,3.1382 -0.72571,5.17062 0.15717,0.89145 0.47864,1.34486 0.99782,2.08633 3.33716,-1.21461 6.16211,-1.85546 9.07118,0.18148 1.27544,-1.51999 1.08011,-3.01252 0.90717,-4.98918 -0.62073,-3.52047 -1.8702,-7.22286 -5.44275,-7.34761 z"
       style="fill:#ffffff;fill-opacity:1;fill-rule:nonzero;stroke:#000000;stroke-width:0.3985;stroke-linecap:butt;stroke-linejoin:miter;stroke-miterlimit:10;stroke-dasharray:none;stroke-opacity:1"
       transform="matrix(1.0666667,0,0,-1.0666667,83.773867,30.767733)" />
    <path
       id="path33"
       d="m 166.54155,-83.3718 c 2.31427,-2.31425 5.00267,-2.66127 8.164,-1.81419 0.25342,-0.09224 -0.007,0.68187 -0.27211,0.63504 -2.7576,-0.48622 -5.18481,-0.60289 -6.98471,1.54208 z"
       style="fill:#000000;fill-opacity:1;fill-rule:nonzero;stroke:#000000;stroke-width:0.3985;stroke-linecap:butt;stroke-linejoin:miter;stroke-miterlimit:10;stroke-dasharray:none;stroke-opacity:1"
       transform="matrix(1.0666667,0,0,-1.0666667,83.773867,30.767733)" />
    <path
       id="path34"
       d="m 165.45306,-98.33917 c 1.43775,1.71341 1.85352,3.52223 1.08849,5.62408"
       style="fill:none;stroke:#000000;stroke-width:0.99628;stroke-linecap:butt;stroke-linejoin:miter;stroke-miterlimit:10;stroke-dasharray:none;stroke-opacity:1"
       transform="matrix(1.0666667,0,0,-1.0666667,83.773867,30.767733)" />
    <path
       id="path35"
       d="m 176.70122,-98.33917 c -1.43775,1.71341 -1.85352,3.52223 -1.08849,5.62408"
       style="fill:none;stroke:#000000;stroke-width:0.99628;stroke-linecap:butt;stroke-linejoin:miter;stroke-miterlimit:10;stroke-dasharray:none;stroke-opacity:1"
       transform="matrix(1.0666667,0,0,-1.0666667,83.773867,30.767733)" />
    <path
       id="path36"
       d="m 171.07715,-105.59615 c -3.0228,1.74521 -3.16031,4.52129 -4.35413,7.80125 -2.8477,-1.0365 -5.30903,-0.39997 -7.25699,-2.72141 -2.91064,-5.04141 -1.4384,-8.96234 -2.44925,-14.69529 h 28.12072 c -1.01084,5.73295 0.46139,9.65388 -2.44925,14.69529 -1.92359,2.29241 -4.35413,1.69786 -7.16619,2.72141 -1.48179,-3.17773 -1.40846,-6.04842 -4.44491,-7.80154 z"
       style="fill:#d9534f;fill-opacity:1;fill-rule:nonzero;stroke:#d9534f;stroke-width:0.49814;stroke-linecap:butt;stroke-linejoin:miter;stroke-miterlimit:10;stroke-dasharray:none;stroke-opacity:1"
       transform="matrix(1.0666667,0,0,-1.0666667,83.773867,30.767733)" />
    <path
       id="path37"
       d="m 178.3341,-99.4278 c 0.0679,-1.13427 0.0271,-1.78572 -0.18145,-2.90272 2.57362,-0.45377 2.26799,-3.86696 1.81421,-6.4406 -0.43698,-1.20062 -1.25197,-2.90661 -2.35846,-2.26779"
       style="fill:none;stroke:#d9534f;stroke-width:2.98883;stroke-linecap:butt;stroke-linejoin:miter;stroke-miterlimit:10;stroke-dasharray:none;stroke-opacity:1"
       transform="matrix(1.0666667,0,0,-1.0666667,83.773867,30.767733)" />
    <path
       id="path38"
       d="m 174.97768,-110.40385 c -1.42168,0 -1.89,2.21586 -1.17917,3.44708 1.23971,2.14725 1.91238,5.05679 4.35414,4.62625"
       style="fill:none;stroke:#d9534f;stroke-width:2.98883;stroke-linecap:butt;stroke-linejoin:miter;stroke-miterlimit:10;stroke-dasharray:none;stroke-opacity:1"
       transform="matrix(1.0666667,0,0,-1.0666667,83.773867,30.767733)" />
    <path
       id="path39"
       d="m 164.27376,-99.337 c -1.04703,-3.91068 -0.80451,-6.67238 0.90718,-10.34115"
       style="fill:none;stroke:#d9534f;stroke-width:2.98883;stroke-linecap:butt;stroke-linejoin:miter;stroke-miterlimit:10;stroke-dasharray:none;stroke-opacity:1"
       transform="matrix(1.0666667,0,0,-1.0666667,83.773867,30.767733)" />
    <path
       id="path40"
       d="m 166.68379,-109.67815 c 0,0.83002 -0.67285,1.50285 -1.50285,1.50285 -0.83002,0 -1.50285,-0.67283 -1.50285,-1.50285 0,-0.83001 0.67283,-1.50285 1.50285,-1.50285 0.83,0 1.50285,0.67284 1.50285,1.50285 z"
       style="fill:#d9534f;fill-opacity:1;fill-rule:nonzero;stroke:none"
       transform="matrix(1.0666667,0,0,-1.0666667,83.773867,30.767733)" />
    <path
       id="path41"
       d="m 174.51886,-87.99805 c 0,0.49805 -0.40375,0.9018 -0.90179,0.9018 -0.49805,0 -0.90181,-0.40375 -0.90181,-0.9018 0,-0.49805 0.40376,-0.90179 0.90181,-0.90179 0.49804,0 0.90179,0.40374 0.90179,0.90179 z"
       style="fill:#000000;fill-opacity:1;fill-rule:nonzero;stroke:none"
       transform="matrix(1.0666667,0,0,-1.0666667,83.773867,30.767733)" />
    <path
       id="path42"
       d="m 169.43903,-87.99805 c 0,0.49805 -0.40375,0.9018 -0.9018,0.9018 -0.49805,0 -0.90179,-0.40375 -0.90179,-0.9018 0,-0.49805 0.40374,-0.90179 0.90179,-0.90179 0.49805,0 0.9018,0.40374 0.9018,0.90179 z"
       style="fill:#000000;fill-opacity:1;fill-rule:nonzero;stroke:none"
       transform="matrix(1.0666667,0,0,-1.0666667,83.773867,30.767733)" />
    <path
       id="path43"
       d="m 168.80936,-91.98938 c 1.3549,-1.13693 3.18066,-1.13693 4.53556,0"
       style="fill:none;stroke:#000000;stroke-width:1.0959;stroke-linecap:butt;stroke-linejoin:miter;stroke-miterlimit:10;stroke-dasharray:none;stroke-opacity:1"
       transform="matrix(1.0666667,0,0,-1.0666667,83.773867,30.767733)" />
    <path
       id="path44"
       d="m 149.81703,-104.46185 1.8142,2.608 -0.79378,4.64867 0.45364,1.02059 -1.47406,1.02044 -1.47406,-1.02044 0.45363,-1.02059 -0.79378,-4.64867 z"
       style="fill:#ff8000;fill-opacity:1;fill-rule:nonzero;stroke:#ff8000;stroke-width:0.3985;stroke-linecap:butt;stroke-linejoin:miter;stroke-miterlimit:10;stroke-dasharray:none;stroke-opacity:1"
       transform="matrix(1.0666667,0,0,-1.0666667,83.773867,30.767733)" />
    <path
       id="path45"
       d="m 158.20761,-81.2178 c 0.80083,0.29147 1.50855,-0.86141 1.36057,-1.70072 -0.39054,-1.07297 -1.39234,-2.27178 -2.38117,-1.70088 0.47402,1.3024 0.7802,2.037 1.02088,3.40195 z"
       style="fill:#000000;fill-opacity:1;fill-rule:nonzero;stroke:#000000;stroke-width:0.3985;stroke-linecap:butt;stroke-linejoin:miter;stroke-miterlimit:10;stroke-dasharray:none;stroke-opacity:1"
       transform="matrix(1.0666667,0,0,-1.0666667,83.773867,30.767733)" />
    <path
       id="path46"
       d="m 141.1998,-81.10431 c -0.80295,0.14157 -1.29947,-1.04805 -1.0206,-1.81421 0.3792,-1.04184 1.176,-1.8934 2.26785,-1.70088 -0.49795,1.36807 -0.7496,2.14737 -1.24754,3.51544 z"
       style="fill:#000000;fill-opacity:1;fill-rule:nonzero;stroke:#000000;stroke-width:0.3985;stroke-linecap:butt;stroke-linejoin:miter;stroke-miterlimit:10;stroke-dasharray:none;stroke-opacity:1"
       transform="matrix(1.0666667,0,0,-1.0666667,83.773867,30.767733)" />
    <path
       id="path47"
       d="m 149.81703,-91.98938 c -4.89513,0 -6.48952,4.92441 -8.16377,9.52432 -1.28014,3.51712 -1.87176,8.7611 1.81422,9.41101 1.8826,5.17237 12.17707,4.15194 14.05967,-1.02041 2.51632,-2.11148 1.02403,-5.1556 0.45364,-8.3906 -1.67426,-4.59991 -3.26865,-9.52432 -8.16376,-9.52432 z"
       style="fill:#000000;fill-opacity:1;fill-rule:nonzero;stroke:#000000;stroke-width:0.3985;stroke-linecap:butt;stroke-linejoin:miter;stroke-miterlimit:10;stroke-dasharray:none;stroke-opacity:1"
       transform="matrix(1.0666667,0,0,-1.0666667,83.773867,30.767733)" />
    <path
       id="path48"
       d="m 149.81703,-90.74216 c -3.34041,0.29227 -4.86253,2.97176 -6.00941,6.12276 -0.87222,2.39638 -1.12938,3.9226 -0.90712,6.46306 0.19647,1.11424 0.5983,1.681 1.24727,2.6078 4.17126,-1.51823 7.70234,-2.31926 11.33851,0.22684 1.59427,-1.89993 1.3501,-3.7655 1.13393,-6.23625 -0.7759,-4.40041 -2.33766,-9.02825 -6.80318,-9.18418 z"
       style="fill:#ffffff;fill-opacity:1;fill-rule:nonzero;stroke:#000000;stroke-width:0.3985;stroke-linecap:butt;stroke-linejoin:miter;stroke-miterlimit:10;stroke-dasharray:none;stroke-opacity:1"
       transform="matrix(1.0666667,0,0,-1.0666667,83.773867,30.767733)" />
    <path
       id="path49"
       d="m 144.14777,-75.54854 c 2.89271,-2.8927 6.25309,-3.32646 10.2046,-2.26767 0.31674,-0.11528 -0.008,0.85231 -0.34015,0.79378 -3.44685,-0.60776 -6.48077,-0.75359 -8.73054,1.92753 z"
       style="fill:#000000;fill-opacity:1;fill-rule:nonzero;stroke:#000000;stroke-width:0.3985;stroke-linecap:butt;stroke-linejoin:miter;stroke-miterlimit:10;stroke-dasharray:none;stroke-opacity:1"
       transform="matrix(1.0666667,0,0,-1.0666667,83.773867,30.767733)" />
    <path
       id="path50"
       d="m 142.78719,-94.25705 c 1.79711,2.14169 2.3168,4.40262 1.36058,7.02982"
       style="fill:none;stroke:#000000;stroke-width:0.99628;stroke-linecap:butt;stroke-linejoin:miter;stroke-miterlimit:10;stroke-dasharray:none;stroke-opacity:1"
       transform="matrix(1.0666667,0,0,-1.0666667,83.773867,30.767733)" />
    <path
       id="path51"
       d="m 156.84686,-94.25705 c -1.79712,2.14169 -2.3168,4.40262 -1.36058,7.02982"
       style="fill:none;stroke:#000000;stroke-width:0.99628;stroke-linecap:butt;stroke-linejoin:miter;stroke-miterlimit:10;stroke-dasharray:none;stroke-opacity:1"
       transform="matrix(1.0666667,0,0,-1.0666667,83.773867,30.767733)" />
    <path
       id="path52"
       d="m 149.81703,-103.32793 c -3.77835,2.18142 -3.95024,5.65142 -5.44246,9.75118 -3.55947,-1.29556 -6.63603,-0.49994 -9.07086,-3.40161 -3.63818,-6.30153 -1.79797,-11.20252 -3.06146,-18.36841 h 35.14955 c -1.26349,7.16589 0.57672,12.06688 -3.06146,18.36841 -2.40438,2.86537 -5.44242,2.12225 -8.95737,3.40161 -1.85219,-3.972 -1.76051,-7.56026 -5.55594,-9.75156 z"
       style="fill:#006395;fill-opacity:1;fill-rule:nonzero;stroke:#006395;stroke-width:0.49814;stroke-linecap:butt;stroke-linejoin:miter;stroke-miterlimit:10;stroke-dasharray:none;stroke-opacity:1"
       transform="matrix(1.0666667,0,0,-1.0666667,83.773867,30.767733)" />
    <path
       id="path53"
       d="m 158.8879,-95.6178 c 0.0848,-1.41777 0.0338,-2.23204 -0.22683,-3.62823 3.21692,-0.56722 2.83489,-4.83354 2.26767,-8.05045 -0.54622,-1.50073 -1.56489,-3.63316 -2.94795,-2.83464"
       style="fill:none;stroke:#006395;stroke-width:2.98883;stroke-linecap:butt;stroke-linejoin:miter;stroke-miterlimit:10;stroke-dasharray:none;stroke-opacity:1"
       transform="matrix(1.0666667,0,0,-1.0666667,83.773867,30.767733)" />
    <path
       id="path54"
       d="m 154.6925,-109.33733 c -1.77703,0 -2.3624,2.76973 -1.47389,4.30869 1.54958,2.68394 2.39037,6.32074 5.44246,5.78261"
       style="fill:none;stroke:#006395;stroke-width:2.98883;stroke-linecap:butt;stroke-linejoin:miter;stroke-miterlimit:10;stroke-dasharray:none;stroke-opacity:1"
       transform="matrix(1.0666667,0,0,-1.0666667,83.773867,30.767733)" />
    <path
       id="path55"
       d="m 141.31311,-95.50429 c -1.30871,-4.88817 -1.00558,-8.34016 1.13394,-12.92595"
       style="fill:none;stroke:#006395;stroke-width:2.98883;stroke-linecap:butt;stroke-linejoin:miter;stroke-miterlimit:10;stroke-dasharray:none;stroke-opacity:1"
       transform="matrix(1.0666667,0,0,-1.0666667,83.773867,30.767733)" />
    <path
       id="path56"
       d="m 144.32553,-108.43024 c 0,1.03748 -0.84102,1.8785 -1.87848,1.8785 -1.03747,0 -1.87849,-0.84102 -1.87849,-1.8785 0,-1.03747 0.84102,-1.87849 1.87849,-1.87849 1.03746,0 1.87848,0.84102 1.87848,1.87849 z"
       style="fill:#006395;fill-opacity:1;fill-rule:nonzero;stroke:none"
       transform="matrix(1.0666667,0,0,-1.0666667,83.773867,30.767733)" />
    <path
       id="path57"
       d="m 154.119,-81.33113 c 0,0.62254 -0.50467,1.12721 -1.12721,1.12721 -0.62254,0 -1.12721,-0.50467 -1.12721,-1.12721 0,-0.62253 0.50467,-1.1272 1.12721,-1.1272 0.62254,0 1.12721,0.50467 1.12721,1.1272 z"
       style="fill:#000000;fill-opacity:1;fill-rule:nonzero;stroke:none"
       transform="matrix(1.0666667,0,0,-1.0666667,83.773867,30.767733)" />
    <path
       id="path58"
       d="m 147.76947,-81.33113 c 0,0.62254 -0.50467,1.12721 -1.12721,1.12721 -0.62253,0 -1.12721,-0.50467 -1.12721,-1.12721 0,-0.62253 0.50468,-1.1272 1.12721,-1.1272 0.62254,0 1.12721,0.50467 1.12721,1.1272 z"
       style="fill:#000000;fill-opacity:1;fill-rule:nonzero;stroke:none"
       transform="matrix(1.0666667,0,0,-1.0666667,83.773867,30.767733)" />
    <path
       id="path59"
       d="m 146.9824,-86.32013 c 1.69358,-1.4211 3.97567,-1.4211 5.66924,0"
       style="fill:none;stroke:#000000;stroke-width:1.0959;stroke-linecap:butt;stroke-linejoin:miter;stroke-miterlimit:10;stroke-dasharray:none;stroke-opacity:1"
       transform="matrix(1.0666667,0,0,-1.0666667,83.773867,30.767733)" />
    <path
       id="path60"
       d="m 119.6146,-121.04503 -16.2462,-5.91289"
       style="fill:none;stroke:#e67817;stroke-width:1.49442;stroke-linecap:butt;stroke-linejoin:miter;stroke-miterlimit:10;stroke-dasharray:none;stroke-opacity:1"
       transform="matrix(1.0666667,0,0,-1.0666667,83.773867,30.767733)" />
    <path
       id="path61"
       d="m 4.43343,0 c 0,1.07295 -0.86979,1.94273 -1.94274,1.94273 C 1.41772,1.94273 0.54794,1.07295 0.54794,0 c 0,-1.07295 0.86978,-1.94273 1.94275,-1.94273 1.07295,0 1.94274,0.86978 1.94274,1.94273 z"
       style="fill:#ffffff;fill-opacity:1;fill-rule:nonzero;stroke:#e67817;stroke-width:1.0959;stroke-linecap:butt;stroke-linejoin:round;stroke-miterlimit:10;stroke-dasharray:none;stroke-opacity:1"
       transform="matrix(1.0023467,-0.36477867,-0.36477867,-1.0023467,210.81354,160.08231)" />
    <path
       id="path62"
       d="m 77.39995,-140.83044 h 63.17126 v 14.17337 H 77.39995 Z"
       style="fill:#e67817;fill-opacity:1;fill-rule:nonzero;stroke:none"
       transform="matrix(1.0666667,0,0,-1.0666667,83.773867,30.767733)" />
    <path
       id="path63"
       d="m 3.1039355,-5.9026602 c -0.805664,0 -1.4794921,0.2636719 -1.977539,0.8056641 -0.51269533,0.5566406 -0.80566408,1.3623047 -0.80566408,2.2412109 0,0.8642579 0.29296875,1.6845704 0.80566408,2.24121098 0.5126953,0.54199219 1.1572265,0.80566406 1.9921875,0.80566406 0.8203125,0 1.4794922,-0.26367187 1.977539,-0.80566406 0.4980469,-0.54199218 0.8203125,-1.39160158 0.8203125,-2.21191408 0,-0.9082031 -0.2929687,-1.7138672 -0.8203125,-2.2705078 C 4.5834277,-5.6536367 3.9388965,-5.9026602 3.1039355,-5.9026602 Z m 0.014648,1.0253907 c 0.9814453,0 1.5966797,0.7910156 1.5966797,2.0507812 0,1.1865235 -0.6445313,1.99218752 -1.5966797,1.99218752 -0.9667969,0 -1.6113281,-0.80566402 -1.6113281,-2.02148442 0,-1.2304687 0.6445312,-2.0214843 1.6113281,-2.0214843 z m 3.581543,0.571289 V 6.6015625e-4 H 7.8134082 V -2.2844961 c 0,-0.6591797 0.3369141,-0.9814453 0.9814453,-0.9814453 0.131836,0 0.2050781,0.014648 0.3515625,0.029297 v -1.1279297 c -0.058594,-0.014648 -0.102539,-0.014648 -0.1318359,-0.014648 -0.5126953,0 -0.9521485,0.3369141 -1.2011719,0.9228516 v -0.8496094 z m 6.7749025,4.17480472 C 13.269951,-0.32160547 13.226006,-0.43879297 13.226006,-0.65851953 V -3.0462148 c 0,-0.8789063 -0.600586,-1.3330079 -1.772461,-1.3330079 -1.157227,0 -1.7578126,0.4980469 -1.8310548,1.4941407 h 1.0693358 c 0.05859,-0.4394532 0.249024,-0.5859375 0.791016,-0.5859375 0.424804,0 0.644531,0.1464843 0.644531,0.4248047 0,0.1464843 -0.07324,0.2783203 -0.19043,0.336914 -0.146484,0.073242 -0.146484,0.073242 -0.703125,0.1611328 l -0.439453,0.087891 c -0.8496091,0.1464843 -1.2744138,0.5859375 -1.2744138,1.3476562 0,0.36621094 0.102539,0.67382813 0.3076172,0.89355469 0.2490236,0.24902344 0.6152346,0.41015625 0.9960936,0.41015625 0.483399,0 0.922852,-0.21972656 1.318359,-0.61523437 0,0.21972656 0.01465,0.29296875 0.117188,0.42480468625 h 1.21582 z M 12.127373,-1.7278555 c 0,0.6445313 -0.322266,1.01074222 -0.878906,1.01074222 -0.38086,0 -0.615235,-0.20507813 -0.615235,-0.51269532 0,-0.3369141 0.175782,-0.4980469 0.644532,-0.6005859 l 0.380859,-0.058594 c 0.292969,-0.058594 0.336914,-0.073242 0.46875,-0.1464844 z m 5.76416,-0.9667968 c -0.07324,-1.0546875 -0.776367,-1.6845704 -1.860351,-1.6845704 -1.274414,0 -2.036133,0.8496094 -2.036133,2.3144532 0,1.42089841 0.74707,2.25585934 2.021484,2.25585934 1.040039,0 1.772461,-0.65917968 1.875,-1.68457034 h -1.069336 c -0.146484,0.55664066 -0.366211,0.77636722 -0.791015,0.77636722 -0.571289,0 -0.908203,-0.51269532 -0.908203,-1.34765622 0,-0.4101563 0.07324,-0.7910157 0.205078,-1.0400391 0.131836,-0.234375 0.380859,-0.3662109 0.703125,-0.3662109 0.454101,0 0.659179,0.2197265 0.791015,0.7763672 z m 1.768799,-3.1201172 h -1.12793 V 6.6015625e-4 h 1.12793 z m 4.735107,4.0136718 c 0.01465,-0.087891 0.01465,-0.1318359 0.01465,-0.1904296 0,-0.4248047 -0.07324,-0.834961 -0.175781,-1.1279297 -0.278321,-0.7910157 -0.981446,-1.2597657 -1.845703,-1.2597657 -1.230469,0 -1.992188,0.8935547 -1.992188,2.34375 0,1.37695317 0.74707,2.22656254 1.962891,2.22656254 0.966797,0 1.743164,-0.55664062 1.992187,-1.40625004 h -1.098633 c -0.131836,0.35156254 -0.439453,0.54199223 -0.849609,0.54199223 -0.322266,0 -0.571289,-0.13183594 -0.732422,-0.36621093 -0.102539,-0.1611328 -0.146484,-0.3515625 -0.161133,-0.7617188 z M 21.524346,-2.548168 c 0.07324,-0.6445312 0.351562,-0.9667968 0.849609,-0.9667968 0.27832,0 0.527344,0.1318359 0.688477,0.3515625 0.102539,0.1611328 0.161132,0.3222656 0.175781,0.6152343 z m 6.947021,-3.2666015 c -0.908203,1.3916015 -1.289062,2.4902343 -1.289062,3.7060547 0,1.23046871 0.380859,2.32910152 1.289062,3.7060546 h 0.805664 c -0.849609,-1.64062496 -1.113281,-2.53417964 -1.113281,-3.7060546 0,-1.171875 0.263672,-2.0800782 1.113281,-3.7060547 z m 5.08667,3.1787109 V 6.6015625e-4 h 1.186524 V -5.8147695 h -1.201172 v 2.1826172 H 31.258232 V -5.8147695 H 30.057061 V 6.6015625e-4 h 1.201171 V -2.6360586 Z M 39.574883,6.6015625e-4 V -4.3059805 h -1.113281 v 2.6953125 c 0,0.5126953 -0.351563,0.84960941 -0.893555,0.84960941 -0.483399,0 -0.717774,-0.26367191 -0.717774,-0.77636721 v -2.7685547 h -1.113281 v 3.0029297 c 0,0.95214846 0.512695,1.49414064 1.435547,1.49414064 0.585938,0 0.966797,-0.21972656 1.289063,-0.703125 V 6.6015625e-4 Z M 40.622246,-4.3059805 V 6.6015625e-4 h 1.113281 V -2.5774648 c 0,-0.5273438 0.278321,-0.8496094 0.761719,-0.8496094 0.380859,0 0.600586,0.2197265 0.600586,0.5566406 V 6.6015625e-4 h 1.12793 V -2.5774648 c 0,-0.5273438 0.27832,-0.8496094 0.761718,-0.8496094 0.366211,0 0.600586,0.2197265 0.600586,0.5566406 V 6.6015625e-4 h 1.113282 V -3.0462148 c 0,-0.834961 -0.512696,-1.3330079 -1.362305,-1.3330079 -0.541992,0 -0.922852,0.1904297 -1.259766,0.6445313 -0.205078,-0.4101563 -0.644531,-0.6445313 -1.171875,-0.6445313 -0.498047,0 -0.820312,0.1757813 -1.186523,0.6152344 v -0.5419922 z m 10.773926,4.17480472 C 51.191094,-0.32160547 51.147148,-0.43879297 51.147148,-0.65851953 V -3.0462148 c 0,-0.8789063 -0.600586,-1.3330079 -1.772461,-1.3330079 -1.157226,0 -1.757812,0.4980469 -1.831054,1.4941407 h 1.069336 c 0.05859,-0.4394532 0.249023,-0.5859375 0.791015,-0.5859375 0.424805,0 0.644532,0.1464843 0.644532,0.4248047 0,0.1464843 -0.07324,0.2783203 -0.19043,0.336914 -0.146484,0.073242 -0.146484,0.073242 -0.703125,0.1611328 l -0.439453,0.087891 c -0.84961,0.1464843 -1.274414,0.5859375 -1.274414,1.3476562 0,0.36621094 0.102539,0.67382813 0.307617,0.89355469 0.249023,0.24902344 0.615234,0.41015625 0.996094,0.41015625 0.483398,0 0.922851,-0.21972656 1.318359,-0.61523437 0,0.21972656 0.01465,0.29296875 0.117188,0.42480468625 h 1.21582 z M 50.048516,-1.7278555 c 0,0.6445313 -0.322266,1.01074222 -0.878907,1.01074222 -0.380859,0 -0.615234,-0.20507813 -0.615234,-0.51269532 0,-0.3369141 0.175781,-0.4980469 0.644531,-0.6005859 l 0.38086,-0.058594 c 0.292968,-0.058594 0.336914,-0.073242 0.46875,-0.1464844 z m 2.10205,-2.578125 V 6.6015625e-4 h 1.113282 V -2.5774648 c 0,-0.5126954 0.366211,-0.8496094 0.908203,-0.8496094 0.483398,0 0.717773,0.2636719 0.717773,0.7763672 V 6.6015625e-4 h 1.113281 V -2.885082 c 0,-0.9521485 -0.527343,-1.4941407 -1.435546,-1.4941407 -0.585938,0 -0.981446,0.2197266 -1.303711,0.703125 v -0.6298828 z m 5.339356,5.9033203 c 0.922851,-1.37695308 1.303711,-2.47558589 1.303711,-3.7060546 0,-1.2158204 -0.38086,-2.3144532 -1.303711,-3.7060547 h -0.791016 c 0.84961,1.640625 1.113281,2.5341797 1.113281,3.7060547 0,1.17187496 -0.263671,2.08007808 -1.113281,3.7060546 z m 0,0"
       style="fill:#ffffff;fill-opacity:1;fill-rule:nonzero;stroke:none"
       aria-label="Oracle(Human)"
       transform="matrix(1.0666667,0,0,1.0666667,168.45867,175.64773)" />
    <path
       id="path64"
       d="m 121.47021,-211.75894 h 70.86702 v 56.69362 h -70.86702 z"
       style="fill:none;stroke:#287528;stroke-width:0.99628;stroke-linecap:butt;stroke-linejoin:miter;stroke-miterlimit:10;stroke-dasharray:none;stroke-opacity:1"
       transform="matrix(1.0666667,0,0,-1.0666667,83.773867,30.767733)" />
    <path
       id="path65"
       d="m 130.54135,-204.67224 h 55.2764"
       style="fill:none;stroke:#666666;stroke-width:0.99628;stroke-linecap:butt;stroke-linejoin:round;stroke-miterlimit:10;stroke-dasharray:none;stroke-opacity:1"
       transform="matrix(1.0666667,0,0,-1.0666667,83.773867,30.767733)" />
    <path
       id="path66"
       d="m 130.54135,-204.67224 v 44.22101"
       style="fill:none;stroke:#666666;stroke-width:0.99628;stroke-linecap:butt;stroke-linejoin:round;stroke-miterlimit:10;stroke-dasharray:none;stroke-opacity:1"
       transform="matrix(1.0666667,0,0,-1.0666667,83.773867,30.767733)" />
    <path
       id="path67"
       d="m 137.91142,-180.71938 -2.83743,-2.83743 h 9.21271 l 2.83745,2.83743 z"
       style="fill:#ffe6e6;fill-opacity:1;fill-rule:nonzero;stroke:#000000;stroke-width:0.3985;stroke-linecap:butt;stroke-linejoin:round;stroke-miterlimit:10;stroke-dasharray:none;stroke-opacity:1"
       transform="matrix(1.0666667,0,0,-1.0666667,83.773867,30.767733)" />
    <path
       id="path68"
       d="m 147.12415,-199.14485 -2.83745,-2.83743 v 18.42547 l 2.83745,2.83743 z"
       style="fill:#ff8080;fill-opacity:1;fill-rule:nonzero;stroke:#000000;stroke-width:0.3985;stroke-linecap:butt;stroke-linejoin:round;stroke-miterlimit:10;stroke-dasharray:none;stroke-opacity:1"
       transform="matrix(1.0666667,0,0,-1.0666667,83.773867,30.767733)" />
    <path
       id="path69"
       d="m 135.07399,-201.98228 h 9.21271 v 18.42547 h -9.21271 z"
       style="fill:#ff6666;fill-opacity:1;fill-rule:nonzero;stroke:#000000;stroke-width:0.3985;stroke-linecap:butt;stroke-linejoin:round;stroke-miterlimit:10;stroke-dasharray:none;stroke-opacity:1"
       transform="matrix(1.0666667,0,0,-1.0666667,83.773867,30.767733)" />
    <path
       id="path70"
       d="m 150.07228,-162.2939 -2.83743,-2.83743 h 9.21271 l 2.83744,2.83743 z"
       style="fill:#f2e6f2;fill-opacity:1;fill-rule:nonzero;stroke:#000000;stroke-width:0.3985;stroke-linecap:butt;stroke-linejoin:round;stroke-miterlimit:10;stroke-dasharray:none;stroke-opacity:1"
       transform="matrix(1.0666667,0,0,-1.0666667,83.773867,30.767733)" />
    <path
       id="path71"
       d="m 159.285,-199.14485 -2.83744,-2.83743 v 36.85095 l 2.83744,2.83743 z"
       style="fill:#bf80bf;fill-opacity:1;fill-rule:nonzero;stroke:#000000;stroke-width:0.3985;stroke-linecap:butt;stroke-linejoin:round;stroke-miterlimit:10;stroke-dasharray:none;stroke-opacity:1"
       transform="matrix(1.0666667,0,0,-1.0666667,83.773867,30.767733)" />
    <path
       id="path72"
       d="m 147.23485,-201.98228 h 9.21271 v 36.85095 h -9.21271 z"
       style="fill:#b366b3;fill-opacity:1;fill-rule:nonzero;stroke:#000000;stroke-width:0.3985;stroke-linecap:butt;stroke-linejoin:round;stroke-miterlimit:10;stroke-dasharray:none;stroke-opacity:1"
       transform="matrix(1.0666667,0,0,-1.0666667,83.773867,30.767733)" />
    <path
       id="path73"
       d="m 162.23315,-189.9321 -2.83743,-2.83743 h 9.21269 l 2.83745,2.83743 z"
       style="fill:#e6f5e6;fill-opacity:1;fill-rule:nonzero;stroke:#000000;stroke-width:0.3985;stroke-linecap:butt;stroke-linejoin:round;stroke-miterlimit:10;stroke-dasharray:none;stroke-opacity:1"
       transform="matrix(1.0666667,0,0,-1.0666667,83.773867,30.767733)" />
    <path
       id="path74"
       d="m 171.44586,-199.14485 -2.83745,-2.83743 v 9.21275 l 2.83745,2.83743 z"
       style="fill:#80cc80;fill-opacity:1;fill-rule:nonzero;stroke:#000000;stroke-width:0.3985;stroke-linecap:butt;stroke-linejoin:round;stroke-miterlimit:10;stroke-dasharray:none;stroke-opacity:1"
       transform="matrix(1.0666667,0,0,-1.0666667,83.773867,30.767733)" />
    <path
       id="path75"
       d="m 159.39572,-201.98228 h 9.21269 v 9.21275 h -9.21269 z"
       style="fill:#66c266;fill-opacity:1;fill-rule:nonzero;stroke:#000000;stroke-width:0.3985;stroke-linecap:butt;stroke-linejoin:round;stroke-miterlimit:10;stroke-dasharray:none;stroke-opacity:1"
       transform="matrix(1.0666667,0,0,-1.0666667,83.773867,30.767733)" />
    <path
       id="path76"
       d="m 174.39404,-171.50664 -2.83743,-2.83745 h 9.21271 l 2.83745,2.83745 z"
       style="fill:#e6f7fd;fill-opacity:1;fill-rule:nonzero;stroke:#000000;stroke-width:0.3985;stroke-linecap:butt;stroke-linejoin:round;stroke-miterlimit:10;stroke-dasharray:none;stroke-opacity:1"
       transform="matrix(1.0666667,0,0,-1.0666667,83.773867,30.767733)" />
    <path
       id="path77"
       d="m 183.60677,-199.14485 -2.83745,-2.83743 v 27.63819 l 2.83745,2.83745 z"
       style="fill:#80d6f7;fill-opacity:1;fill-rule:nonzero;stroke:#000000;stroke-width:0.3985;stroke-linecap:butt;stroke-linejoin:round;stroke-miterlimit:10;stroke-dasharray:none;stroke-opacity:1"
       transform="matrix(1.0666667,0,0,-1.0666667,83.773867,30.767733)" />
    <path
       id="path78"
       d="m 171.55661,-201.98228 h 9.21271 v 27.63819 h -9.21271 z"
       style="fill:#66cef5;fill-opacity:1;fill-rule:nonzero;stroke:#000000;stroke-width:0.3985;stroke-linecap:butt;stroke-linejoin:round;stroke-miterlimit:10;stroke-dasharray:none;stroke-opacity:1"
       transform="matrix(1.0666667,0,0,-1.0666667,83.773867,30.767733)" />
    <path
       id="path79"
       d="m 119.6146,-212.7511 -16.2462,-5.91289"
       style="fill:none;stroke:#287528;stroke-width:1.49442;stroke-linecap:butt;stroke-linejoin:miter;stroke-miterlimit:10;stroke-dasharray:none;stroke-opacity:1"
       transform="matrix(1.0666667,0,0,-1.0666667,83.773867,30.767733)" />
    <path
       id="path80"
       d="m 4.43343,0 c 0,1.07295 -0.86979,1.94273 -1.94274,1.94273 C 1.41772,1.94273 0.54794,1.07295 0.54794,0 c 0,-1.07295 0.86978,-1.94273 1.94275,-1.94273 1.07295,0 1.94274,0.86978 1.94274,1.94273 z"
       style="fill:#ffffff;fill-opacity:1;fill-rule:nonzero;stroke:#287528;stroke-width:1.0959;stroke-linecap:butt;stroke-linejoin:round;stroke-miterlimit:10;stroke-dasharray:none;stroke-opacity:1"
       transform="matrix(1.0023467,-0.36477867,-0.36477867,-1.0023467,210.81354,257.90212)" />
    <path
       id="path81"
       d="m 80.63878,-232.53653 h 56.69362 v 14.17337 H 80.63878 Z"
       style="fill:#287528;fill-opacity:1;fill-rule:nonzero;stroke:none"
       transform="matrix(1.0666667,0,0,-1.0666667,83.773867,30.767733)" />
    <path
       id="path82"
       d="M 3.0627559,-4.8210508 H 4.7619746 V -5.8171445 H 0.11841992 v 0.9960937 H 1.8762324 v 4.81933596 h 1.1865235 z m 1.6662597,0.5126953 v 4.30664066 H 5.8422969 V -2.2868711 c 0,-0.6591797 0.336914,-0.9814453 0.9814453,-0.9814453 0.1318359,0 0.2050781,0.014648 0.3515625,0.029297 v -1.1279297 c -0.058594,-0.014649 -0.1025391,-0.014649 -0.1318359,-0.014649 -0.5126954,0 -0.9521485,0.3369141 -1.2011719,0.9228516 v -0.849609 z M 11.50758,-0.13355078 C 11.302502,-0.32398047 11.258557,-0.44116797 11.258557,-0.66089453 V -3.0485898 c 0,-0.8789063 -0.600586,-1.3330079 -1.7724613,-1.3330079 -1.1572266,0 -1.7578125,0.4980469 -1.8310547,1.4941407 h 1.069336 c 0.058594,-0.4394532 0.2490234,-0.5859375 0.7910156,-0.5859375 0.4248047,0 0.6445314,0.1464843 0.6445314,0.4248047 0,0.1464843 -0.07324,0.2783203 -0.1904299,0.336914 -0.1464843,0.073242 -0.1464843,0.073242 -0.703125,0.1611328 L 8.826916,-2.462652 c -0.8496094,0.1464843 -1.274414,0.5859375 -1.274414,1.3476562 0,0.36621094 0.102539,0.67382813 0.3076171,0.89355469 0.2490235,0.24902344 0.6152344,0.41015625 0.9960938,0.41015625 0.4833984,0 0.9228516,-0.21972656 1.3183591,-0.61523437 0,0.21972656 0.01465,0.29296875 0.117188,0.42480469 h 1.21582 z M 10.159924,-1.7302305 c 0,0.6445313 -0.3222658,1.01074222 -0.8789064,1.01074222 -0.3808594,0 -0.6152344,-0.20507813 -0.6152344,-0.51269532 0,-0.3369141 0.1757813,-0.4980469 0.6445313,-0.6005859 l 0.3808593,-0.058594 c 0.2929688,-0.058594 0.3369142,-0.073242 0.4687502,-0.1464844 z m 3.259277,-2.578125 h -1.12793 v 4.30664066 h 1.12793 z m 0,-1.508789 h -1.12793 v 0.9960937 h 1.12793 z m 1.05835,1.508789 v 4.30664066 h 1.113281 V -2.5798398 c 0,-0.5126954 0.366211,-0.8496094 0.908203,-0.8496094 0.483399,0 0.717774,0.2636719 0.717774,0.7763672 v 2.65136716 H 18.33009 V -2.887457 c 0,-0.9521485 -0.527344,-1.4941407 -1.435547,-1.4941407 -0.585938,0 -0.981445,0.2197266 -1.303711,0.703125 v -0.6298828 z m 6.027832,0 h -1.12793 v 4.30664066 h 1.12793 z m 0,-1.508789 h -1.12793 v 0.9960937 h 1.12793 z m 1.058349,1.508789 v 4.30664066 h 1.113282 V -2.5798398 c 0,-0.5126954 0.366211,-0.8496094 0.908203,-0.8496094 0.483398,0 0.717773,0.2636719 0.717773,0.7763672 v 2.65136716 h 1.113281 V -2.887457 c 0,-0.9521485 -0.527343,-1.4941407 -1.435546,-1.4941407 -0.585938,0 -0.981446,0.2197266 -1.303711,0.703125 v -0.6298828 z m 7.624512,0 v 0.6591797 c -0.336914,-0.4980469 -0.703125,-0.7324219 -1.201172,-0.7324219 -1.010742,0 -1.787109,0.9960938 -1.787109,2.3291016 0,1.34765626 0.703125,2.24121094 1.772461,2.24121094 0.498047,0 0.805664,-0.16113281 1.21582,-0.62988281 v 0.5859375 c 0,0.51269531 -0.395508,0.87890627 -0.952148,0.87890627 -0.424805,0 -0.703125,-0.17578127 -0.791016,-0.51269533 h -1.157226 c 0.01465,0.33691406 0.146484,0.57128903 0.424804,0.80566403 0.351563,0.2783203 0.820313,0.4248047 1.479492,0.4248047 1.303711,0 2.050782,-0.5859375 2.050782,-1.59667967 V -4.3083555 Z m -0.952148,0.8642578 c 0.55664,0 0.966797,0.5859375 0.966797,1.3769532 0,0.7763672 -0.410157,1.31835934 -0.981446,1.31835934 -0.527343,0 -0.893554,-0.54199214 -0.893554,-1.31835934 0,-0.8056641 0.366211,-1.3769532 0.908203,-1.3769532 z m 9.616699,-0.6005859 c 0,-0.5273437 -0.117188,-0.8789062 -0.410156,-1.2011719 -0.38086,-0.4248047 -1.025391,-0.6591797 -1.860352,-0.6591797 -1.40625,0 -2.211914,0.6445313 -2.211914,1.7871094 0,0.8935547 0.454102,1.3330078 1.640625,1.5527344 l 0.805664,0.1611328 c 0.805664,0.1611328 1.098633,0.3808594 1.098633,0.8496094 0,0.4833984 -0.439453,0.77636717 -1.171875,0.77636717 -0.805664,0 -1.259766,-0.33691407 -1.303711,-0.96679687 h -1.171875 c 0.07324,1.24511718 0.9375,1.93359374 2.416992,1.93359374 1.494141,0 2.373047,-0.703125 2.373047,-1.88964844 0,-0.9082031 -0.454102,-1.3916016 -1.538086,-1.5966797 l -0.908203,-0.1757812 c -0.849609,-0.1757813 -1.098633,-0.3369141 -1.098633,-0.7617188 0,-0.4394531 0.395508,-0.7177734 1.010742,-0.7177734 0.747071,0 1.171875,0.3222656 1.215821,0.9082031 z m 4.658203,2.2412109 c 0.01465,-0.087891 0.01465,-0.1318359 0.01465,-0.1904296 0,-0.4248047 -0.07324,-0.834961 -0.175781,-1.1279297 -0.27832,-0.7910157 -0.981445,-1.2597657 -1.845703,-1.2597657 -1.230469,0 -1.992187,0.8935547 -1.992187,2.34375 0,1.37695317 0.74707,2.22656254 1.96289,2.22656254 0.966797,0 1.743164,-0.55664062 1.992188,-1.40625004 H 41.36842 c -0.131836,0.35156254 -0.439453,0.54199223 -0.849609,0.54199223 -0.322266,0 -0.57129,-0.13183594 -0.732422,-0.36621093 -0.102539,-0.1611328 -0.146485,-0.3515625 -0.161133,-0.7617188 z M 39.639904,-2.550543 c 0.07324,-0.6445312 0.351563,-0.9667968 0.84961,-0.9667968 0.27832,0 0.527343,0.1318359 0.688476,0.3515625 0.102539,0.1611328 0.161133,0.3222656 0.175781,0.6152343 z m 5.529785,-1.6699218 h -0.629882 v -1.1572266 h -1.113282 v 1.1572266 h -0.541992 v 0.7470703 h 0.541992 v 2.63671872 c 0,0.68847656 0.366211,1.02539062 1.098633,1.02539062 0.249024,0 0.439453,-0.0292969 0.644531,-0.0878906 v -0.79101563 c -0.117187,0.0146484 -0.175781,0.0292969 -0.263671,0.0292969 -0.292969,0 -0.366211,-0.0878906 -0.366211,-0.46875001 v -2.34375 h 0.629882 z m 0,0"
       style="fill:#ffffff;fill-opacity:1;fill-rule:nonzero;stroke:none"
       aria-label="TrainingSet"
       transform="matrix(1.0666667,0,0,1.0666667,175.79947,273.40027)" />
    <path
       id="path83"
       d="m -35.4335,-211.75894 h 70.86702 v 56.69362 H -35.4335 Z"
       style="fill:none;stroke:#d9534f;stroke-width:0.99628;stroke-linecap:butt;stroke-linejoin:miter;stroke-miterlimit:10;stroke-dasharray:none;stroke-opacity:1"
       transform="matrix(1.0666667,0,0,-1.0666667,83.773867,30.767733)" />
    <path
       id="path84"
       d="m 13.6065,-183.41214 c 0,7.51477 -6.09174,13.60652 -13.6065,13.60652 -7.51476,0 -13.6065,-6.09175 -13.6065,-13.60652 0,-7.51476 6.09174,-13.60651 13.6065,-13.60651 7.51476,0 13.6065,6.09175 13.6065,13.60651 z"
       style="fill:#e1ece1;fill-opacity:1;fill-rule:nonzero;stroke:#287528;stroke-width:1.24535;stroke-linecap:butt;stroke-linejoin:miter;stroke-miterlimit:10;stroke-dasharray:none;stroke-opacity:1"
       transform="matrix(1.0666667,0,0,-1.0666667,83.773867,30.767733)" />
    <path
       id="path85"
       d="m 0,-169.30675 v 6.74317"
       style="fill:none;stroke:#000000;stroke-width:1.49442;stroke-linecap:butt;stroke-linejoin:miter;stroke-miterlimit:10;stroke-dasharray:none;stroke-opacity:1"
       transform="matrix(1.0666667,0,0,-1.0666667,83.773867,30.767733)" />
    <path
       id="path86"
       d="m 5.23045,0 c 0,1.37558 -1.11511,2.49069 -2.49069,2.49069 C 1.36417,2.49069 0.24907,1.37558 0.24907,0 c 0,-1.37558 1.1151,-2.49069 2.49069,-2.49069 1.37558,0 2.49069,1.11511 2.49069,2.49069 z"
       style="fill:#ff0000;fill-opacity:1;fill-rule:nonzero;stroke:#000000;stroke-width:0.49814;stroke-linecap:butt;stroke-linejoin:miter;stroke-miterlimit:10;stroke-dasharray:none;stroke-opacity:1"
       transform="matrix(0,-1.0666667,-1.0666667,0,83.773867,204.43456)" />
    <path
       id="path87"
       d="m 21.02065,-165.7732 c 0,1.8677 -1.51403,3.38172 -3.3817,3.38172 -1.86769,0 -3.38172,-1.51402 -3.38172,-3.38172 0,-1.86767 1.51403,-3.38169 3.38172,-3.38169 1.86767,0 3.3817,1.51402 3.3817,3.38169 z"
       style="fill:#ff8080;fill-opacity:1;fill-rule:nonzero;stroke:#000000;stroke-width:0.49814;stroke-linecap:butt;stroke-linejoin:miter;stroke-miterlimit:10;stroke-dasharray:none;stroke-opacity:1"
       transform="matrix(1.0666667,0,0,-1.0666667,83.773867,30.767733)" />
    <path
       id="path88"
       d="m 14.10538,-183.41214 h 6.74316"
       style="fill:none;stroke:#000000;stroke-width:1.49442;stroke-linecap:butt;stroke-linejoin:miter;stroke-miterlimit:10;stroke-dasharray:none;stroke-opacity:1"
       transform="matrix(1.0666667,0,0,-1.0666667,83.773867,30.767733)" />
    <path
       id="path89"
       d="m 5.23045,0 c 0,1.37558 -1.11511,2.49069 -2.49069,2.49069 C 1.36417,2.49069 0.24907,1.37558 0.24907,0 c 0,-1.37558 1.1151,-2.49069 2.49069,-2.49069 1.37558,0 2.49069,1.11511 2.49069,2.49069 z"
       style="fill:#ff0000;fill-opacity:1;fill-rule:nonzero;stroke:#000000;stroke-width:0.49814;stroke-linecap:butt;stroke-linejoin:miter;stroke-miterlimit:10;stroke-dasharray:none;stroke-opacity:1"
       transform="matrix(1.0666667,0,0,-1.0666667,105.74663,226.40735)" />
    <path
       id="path90"
       d="m 21.02065,-201.05109 c 0,1.86769 -1.51403,3.38172 -3.3817,3.38172 -1.86769,0 -3.38172,-1.51403 -3.38172,-3.38172 0,-1.86767 1.51403,-3.3817 3.38172,-3.3817 1.86767,0 3.3817,1.51403 3.3817,3.3817 z"
       style="fill:#ff8080;fill-opacity:1;fill-rule:nonzero;stroke:#000000;stroke-width:0.49814;stroke-linecap:butt;stroke-linejoin:miter;stroke-miterlimit:10;stroke-dasharray:none;stroke-opacity:1"
       transform="matrix(1.0666667,0,0,-1.0666667,83.773867,30.767733)" />
    <path
       id="path91"
       d="m 0,-197.51752 v -6.74318"
       style="fill:none;stroke:#000000;stroke-width:1.49442;stroke-linecap:butt;stroke-linejoin:miter;stroke-miterlimit:10;stroke-dasharray:none;stroke-opacity:1"
       transform="matrix(1.0666667,0,0,-1.0666667,83.773867,30.767733)" />
    <path
       id="path92"
       d="m 5.23045,0 c 0,1.37558 -1.11511,2.49069 -2.49069,2.49069 C 1.36417,2.49069 0.24907,1.37558 0.24907,0 c 0,-1.37558 1.1151,-2.49069 2.49069,-2.49069 1.37558,0 2.49069,1.11511 2.49069,2.49069 z"
       style="fill:#ff0000;fill-opacity:1;fill-rule:nonzero;stroke:#000000;stroke-width:0.49814;stroke-linecap:butt;stroke-linejoin:miter;stroke-miterlimit:10;stroke-dasharray:none;stroke-opacity:1"
       transform="matrix(0,1.0666667,1.0666667,0,83.773867,248.38014)" />
    <path
       id="path93"
       d="m -14.25723,-201.05109 c 0,1.86769 -1.51403,3.38172 -3.38172,3.38172 -1.86767,0 -3.3817,-1.51403 -3.3817,-3.38172 0,-1.86767 1.51403,-3.3817 3.3817,-3.3817 1.86769,0 3.38172,1.51403 3.38172,3.3817 z"
       style="fill:#ff8080;fill-opacity:1;fill-rule:nonzero;stroke:#000000;stroke-width:0.49814;stroke-linecap:butt;stroke-linejoin:miter;stroke-miterlimit:10;stroke-dasharray:none;stroke-opacity:1"
       transform="matrix(1.0666667,0,0,-1.0666667,83.773867,30.767733)" />
    <path
       id="path94"
       d="m -14.10538,-183.41214 h -6.74316"
       style="fill:none;stroke:#000000;stroke-width:1.49442;stroke-linecap:butt;stroke-linejoin:miter;stroke-miterlimit:10;stroke-dasharray:none;stroke-opacity:1"
       transform="matrix(1.0666667,0,0,-1.0666667,83.773867,30.767733)" />
    <path
       id="path95"
       d="m 5.23045,0 c 0,1.37558 -1.11511,2.49069 -2.49069,2.49069 C 1.36417,2.49069 0.24907,1.37558 0.24907,0 c 0,-1.37558 1.1151,-2.49069 2.49069,-2.49069 1.37558,0 2.49069,1.11511 2.49069,2.49069 z"
       style="fill:#ff0000;fill-opacity:1;fill-rule:nonzero;stroke:#000000;stroke-width:0.49814;stroke-linecap:butt;stroke-linejoin:miter;stroke-miterlimit:10;stroke-dasharray:none;stroke-opacity:1"
       transform="matrix(-1.0666667,0,0,1.0666667,61.801099,226.40735)" />
    <path
       id="path96"
       d="m -14.25723,-165.7732 c 0,1.8677 -1.51403,3.38172 -3.38172,3.38172 -1.86767,0 -3.3817,-1.51402 -3.3817,-3.38172 0,-1.86767 1.51403,-3.38169 3.3817,-3.38169 1.86769,0 3.38172,1.51402 3.38172,3.38169 z"
       style="fill:#ff8080;fill-opacity:1;fill-rule:nonzero;stroke:#000000;stroke-width:0.49814;stroke-linecap:butt;stroke-linejoin:miter;stroke-miterlimit:10;stroke-dasharray:none;stroke-opacity:1"
       transform="matrix(1.0666667,0,0,-1.0666667,83.773867,30.767733)" />
    <path
       id="path97"
       d="m 0,-169.30675 v 6.74317"
       style="fill:none;stroke:#000000;stroke-width:1.49442;stroke-linecap:butt;stroke-linejoin:miter;stroke-miterlimit:10;stroke-dasharray:none;stroke-opacity:1"
       transform="matrix(1.0666667,0,0,-1.0666667,83.773867,30.767733)" />
    <path
       id="path98"
       d="m 5.23045,0 c 0,1.37558 -1.11511,2.49069 -2.49069,2.49069 C 1.36417,2.49069 0.24907,1.37558 0.24907,0 c 0,-1.37558 1.1151,-2.49069 2.49069,-2.49069 1.37558,0 2.49069,1.11511 2.49069,2.49069 z"
       style="fill:#ff0000;fill-opacity:1;fill-rule:nonzero;stroke:#000000;stroke-width:0.49814;stroke-linecap:butt;stroke-linejoin:miter;stroke-miterlimit:10;stroke-dasharray:none;stroke-opacity:1"
       transform="matrix(0,-1.0666667,-1.0666667,0,83.773867,204.43456)" />
    <path
       id="path99"
       d="m 21.02065,-165.7732 c 0,1.8677 -1.51403,3.38172 -3.3817,3.38172 -1.86769,0 -3.38172,-1.51402 -3.38172,-3.38172 0,-1.86767 1.51403,-3.38169 3.38172,-3.38169 1.86767,0 3.3817,1.51402 3.3817,3.38169 z"
       style="fill:#ff8080;fill-opacity:1;fill-rule:nonzero;stroke:#000000;stroke-width:0.49814;stroke-linecap:butt;stroke-linejoin:miter;stroke-miterlimit:10;stroke-dasharray:none;stroke-opacity:1"
       transform="matrix(1.0666667,0,0,-1.0666667,83.773867,30.767733)" />
    <path
       id="path100"
       d="m 14.05876,-165.77202 -7.75767,-2.6e-4 v -35.27998 h 7.75767"
       style="fill:none;stroke:#000000;stroke-width:1.49442;stroke-linecap:butt;stroke-linejoin:miter;stroke-miterlimit:10;stroke-dasharray:none;stroke-opacity:1"
       transform="matrix(1.0666667,0,0,-1.0666667,83.773867,30.767733)" />
    <path
       id="path101"
       d="m -14.05876,-201.05226 7.75767,2.6e-4 v 35.27998 h -7.75767"
       style="fill:none;stroke:#000000;stroke-width:1.49442;stroke-linecap:butt;stroke-linejoin:miter;stroke-miterlimit:10;stroke-dasharray:none;stroke-opacity:1"
       transform="matrix(1.0666667,0,0,-1.0666667,83.773867,30.767733)" />
    <path
       id="path102"
       d="m 13.6065,-183.41214 c 0,7.51477 -6.09174,13.60652 -13.6065,13.60652 -7.51476,0 -13.6065,-6.09175 -13.6065,-13.60652 0,-7.51476 6.09174,-13.60651 13.6065,-13.60651 7.51476,0 13.6065,6.09175 13.6065,13.60651 z"
       style="fill:#e1ece1;fill-opacity:1;fill-rule:nonzero;stroke:#287528;stroke-width:0.49814;stroke-linecap:butt;stroke-linejoin:miter;stroke-miterlimit:10;stroke-dasharray:none;stroke-opacity:1"
       transform="matrix(1.0666667,0,0,-1.0666667,83.773867,30.767733)" />
    <path
       id="path103"
       d="m -3.48683,-190.81056 8.7252,16.07284 c 1.21047,2.09661 -2.57695,3.92095 -4.13311,2.06641 -1.59426,0.58026 -3.37888,-0.62541 -3.67346,-2.29623 -2.32444,0.40984 -4.59244,-1.54302 -4.59244,-3.90331 -1.66054,0.29279 -2.41329,-2.31883 -1.83657,-3.9033 -1.62846,-0.94019 -1.62846,-3.88173 0,-4.82193 -0.63417,-1.09839 -0.35631,-2.24289 0.45897,-3.21448 0.98494,-1.70601 4.06664,-1.70595 5.05159,6e-5 z"
       style="fill:#ffd9b3;fill-opacity:1;fill-rule:nonzero;stroke:#000000;stroke-width:0.74721;stroke-linecap:butt;stroke-linejoin:miter;stroke-miterlimit:10;stroke-dasharray:none;stroke-opacity:1"
       transform="matrix(1.0666667,0,0,-1.0666667,83.773867,30.767733)" />
    <path
       id="path104"
       d="m 2.4832,-173.81943 c -0.35048,0.60704 -0.67699,1.14812 -1.37794,1.14812 m -2.06638,-3.90331 c -0.44488,0.77057 -0.8365,1.16219 -1.60708,1.60708 m -3.2145,-5.9697 c -0.84198,0.48611 -1.20912,1.10893 -1.37794,2.06639 m 0.4593,-10.33228 c 0.82244,0.3713 1.56346,0.29711 2.29622,-0.22947 m 0.22949,2.75516 c -0.96809,0.59477 -1.33594,1.69853 -0.91829,2.75518 m 0,-1.83691 c -0.66462,-0.32365 -1.40274,-0.13904 -1.8369,0.45932 m 4.36262,1.37759 c 0.46854,-0.45344 0.61736,-0.97459 0.45896,-1.60707 m 1.83692,4.3626 c -0.94567,0.3385 -1.75974,0.19041 -2.52571,-0.45931 0.20343,0.71073 0.0548,1.30536 -0.45897,1.83692 m 3.67346,2.52569 c 0.61056,0.55988 1.27659,0.70781 2.06674,0.45899"
       style="fill:#ffd9b3;fill-opacity:1;fill-rule:nonzero;stroke:#000000;stroke-width:0.74721;stroke-linecap:butt;stroke-linejoin:miter;stroke-miterlimit:10;stroke-dasharray:none;stroke-opacity:1"
       transform="matrix(1.0666667,0,0,-1.0666667,83.773867,30.767733)" />
    <path
       id="path105"
       d="m -1.87941,-187.82556 1.19928,-0.89943 c 0.35216,-0.26407 0.54567,-0.82292 0.43227,-1.24823 l -0.50789,-1.90381 c -0.11342,-0.42529 0.09152,-0.968 0.45775,-1.21216 l 1.04048,-0.69371"
       style="fill:none;stroke:#800080;stroke-width:0.79701;stroke-linecap:butt;stroke-linejoin:miter;stroke-miterlimit:10;stroke-dasharray:none;stroke-opacity:1"
       transform="matrix(1.0666667,0,0,-1.0666667,83.773867,30.767733)" />
    <path
       id="path106"
       d="m 2.09218,0 c 0,0.46768 -0.37915,0.84683 -0.84683,0.84683 C 0.77765,0.84683 0.3985,0.46768 0.3985,0 c 0,-0.46768 0.37915,-0.84683 0.84685,-0.84683 0.46768,0 0.84683,0.37915 0.84683,0.84683 z"
       style="fill:#ffd9b3;fill-opacity:1;fill-rule:nonzero;stroke:#800080;stroke-width:0.79701;stroke-linecap:butt;stroke-linejoin:miter;stroke-miterlimit:10;stroke-dasharray:none;stroke-opacity:1"
       transform="matrix(0.887488,0.59163733,0.59163733,-0.887488,84.212181,237.23372)" />
    <path
       id="path107"
       d="m -0.50182,-185.52933 2.30629,-1.41923 c 0.37485,-0.23067 0.6149,-0.76874 0.53617,-1.2018 l -0.1742,-0.95746 c -0.07874,-0.43306 0.20362,-0.87067 0.63063,-0.9774 l 1.7892,-0.44739"
       style="fill:none;stroke:#800080;stroke-width:0.79701;stroke-linecap:butt;stroke-linejoin:miter;stroke-miterlimit:10;stroke-dasharray:none;stroke-opacity:1"
       transform="matrix(1.0666667,0,0,-1.0666667,83.773867,30.767733)" />
    <path
       id="path108"
       d="m 2.09218,0 c 0,0.46768 -0.37915,0.84683 -0.84683,0.84683 C 0.77765,0.84683 0.3985,0.46768 0.3985,0 c 0,-0.46768 0.37915,-0.84683 0.84685,-0.84683 0.46768,0 0.84683,0.37915 0.84683,0.84683 z"
       style="fill:#ffd9b3;fill-opacity:1;fill-rule:nonzero;stroke:#800080;stroke-width:0.79701;stroke-linecap:butt;stroke-linejoin:miter;stroke-miterlimit:10;stroke-dasharray:none;stroke-opacity:1"
       transform="matrix(1.0347947,0.25870933,0.25870933,-1.0347947,88.253525,233.8994)" />
    <path
       id="path109"
       d="M 0.64629,-183.23344 8.6745,-187.5276"
       style="fill:none;stroke:#800080;stroke-width:0.79701;stroke-linecap:butt;stroke-linejoin:miter;stroke-miterlimit:10;stroke-dasharray:none;stroke-opacity:1"
       transform="matrix(1.0666667,0,0,-1.0666667,83.773867,30.767733)" />
    <path
       id="path110"
       d="m 2.09218,0 c 0,0.46768 -0.37915,0.84683 -0.84683,0.84683 C 0.77765,0.84683 0.3985,0.46768 0.3985,0 c 0,-0.46768 0.37915,-0.84683 0.84685,-0.84683 0.46768,0 0.84683,0.37915 0.84683,0.84683 z"
       style="fill:#ffd9b3;fill-opacity:1;fill-rule:nonzero;stroke:#800080;stroke-width:0.79701;stroke-linecap:butt;stroke-linejoin:miter;stroke-miterlimit:10;stroke-dasharray:none;stroke-opacity:1"
       transform="matrix(0.94052267,0.503072,0.503072,-0.94052267,92.65184,230.5967)" />
    <path
       id="path111"
       d="m 1.79405,-181.16673 2.26139,-1.04392 c 0.39964,-0.18446 1.01594,-0.12938 1.37654,0.12303 l 0.99037,0.69333 c 0.36058,0.25241 0.94218,0.24813 1.29899,-0.01 l 1.79076,-1.29345"
       style="fill:none;stroke:#800080;stroke-width:0.79701;stroke-linecap:butt;stroke-linejoin:miter;stroke-miterlimit:10;stroke-dasharray:none;stroke-opacity:1"
       transform="matrix(1.0666667,0,0,-1.0666667,83.773867,30.767733)" />
    <path
       id="path112"
       d="m 2.09218,0 c 0,0.46768 -0.37915,0.84683 -0.84683,0.84683 C 0.77765,0.84683 0.3985,0.46768 0.3985,0 c 0,-0.46768 0.37915,-0.84683 0.84685,-0.84683 0.46768,0 0.84683,0.37915 0.84683,0.84683 z"
       style="fill:#ffd9b3;fill-opacity:1;fill-rule:nonzero;stroke:#800080;stroke-width:0.79701;stroke-linecap:butt;stroke-linejoin:miter;stroke-miterlimit:10;stroke-dasharray:none;stroke-opacity:1"
       transform="matrix(0.86466133,0.624512,0.624512,-0.86466133,93.575531,225.396)" />
    <path
       id="path113"
       d="m 3.172,-178.64136 0.91507,-0.5229 c 0.38217,-0.21837 0.94439,-0.14317 1.25575,0.16796 l 1.62764,1.62852 c 0.31135,0.31112 0.83617,0.33284 1.17216,0.0485 l 0.77956,-0.65956"
       style="fill:none;stroke:#800080;stroke-width:0.79701;stroke-linecap:butt;stroke-linejoin:miter;stroke-miterlimit:10;stroke-dasharray:none;stroke-opacity:1"
       transform="matrix(1.0666667,0,0,-1.0666667,83.773867,30.767733)" />
    <path
       id="path114"
       d="m 2.09218,0 c 0,0.46768 -0.37915,0.84683 -0.84683,0.84683 C 0.77765,0.84683 0.3985,0.46768 0.3985,0 c 0,-0.46768 0.37915,-0.84683 0.84685,-0.84683 0.46768,0 0.84683,0.37915 0.84683,0.84683 z"
       style="fill:#ffd9b3;fill-opacity:1;fill-rule:nonzero;stroke:#800080;stroke-width:0.79701;stroke-linecap:butt;stroke-linejoin:miter;stroke-miterlimit:10;stroke-dasharray:none;stroke-opacity:1"
       transform="matrix(0.81424,0.68896,0.68896,-0.81424,92.9664,220.33723)" />
    <path
       id="path115"
       d="m -37.28912,-212.7511 -16.2462,-5.91289"
       style="fill:none;stroke:#d9534f;stroke-width:1.49442;stroke-linecap:butt;stroke-linejoin:miter;stroke-miterlimit:10;stroke-dasharray:none;stroke-opacity:1"
       transform="matrix(1.0666667,0,0,-1.0666667,83.773867,30.767733)" />
    <path
       id="path116"
       d="m 4.43343,0 c 0,1.07295 -0.86979,1.94273 -1.94274,1.94273 C 1.41772,1.94273 0.54794,1.07295 0.54794,0 c 0,-1.07295 0.86978,-1.94273 1.94275,-1.94273 1.07295,0 1.94274,0.86978 1.94274,1.94273 z"
       style="fill:#ffffff;fill-opacity:1;fill-rule:nonzero;stroke:#d9534f;stroke-width:1.0959;stroke-linecap:butt;stroke-linejoin:round;stroke-miterlimit:10;stroke-dasharray:none;stroke-opacity:1"
       transform="matrix(1.0023467,-0.36477867,-0.36477867,-1.0023467,43.449547,257.90212)" />
    <path
       id="path117"
       d="m -76.26494,-232.53653 h 56.69362 v 14.17337 h -56.69362 z"
       style="fill:#d9534f;fill-opacity:1;fill-rule:nonzero;stroke:none"
       transform="matrix(1.0666667,0,0,-1.0666667,83.773867,30.767733)" />
    <path
       id="path118"
       d="M 1.7294023,-4.5246875 2.7694414,0.00167969 H 3.9559648 L 4.9960039,-4.5246875 V 0.00167969 H 6.1825273 V -5.81375 H 4.3807695 L 3.3700273,-1.1848437 2.3153398,-5.81375 H 0.52823047 V 0.00167969 H 1.7294023 Z m 7.3132325,0.1464844 c -1.3183594,0 -2.1240235,0.8789062 -2.1240235,2.2851562 0,1.42089846 0.8056641,2.28515628 2.1240235,2.28515628 1.3183592,0 2.1386722,-0.87890625 2.1386722,-2.25585938 0,-1.4501953 -0.791016,-2.3144531 -2.1386722,-2.3144531 z m 0,0.9082031 c 0.6152343,0 1.0107422,0.5419922 1.0107422,1.3916016 0,0.805664 -0.4101563,1.36230465 -1.0107422,1.36230465 -0.600586,0 -1.0107422,-0.55664065 -1.0107422,-1.37695315 0,-0.8203125 0.4101562,-1.3769531 1.0107422,-1.3769531 z m 5.6872562,3.47167969 h 1.113281 V -5.81375 h -1.113281 v 2.0654297 c -0.278321,-0.4248047 -0.644532,-0.6298828 -1.186524,-0.6298828 -1.02539,0 -1.801758,0.9960937 -1.801758,2.2851562 0,0.5859375 0.175782,1.17187503 0.454102,1.59667971 0.292969,0.41015625 0.820312,0.68847657 1.347656,0.68847657 0.541992,0 0.908203,-0.20507813 1.186524,-0.62988282 z m -0.9375,-3.44238279 c 0.571289,0 0.9375,0.5566406 0.9375,1.3769531 0,0.7763672 -0.38086,1.31835938 -0.9375,1.31835938 -0.556641,0 -0.9375,-0.55664058 -0.9375,-1.34765628 0,-0.7910156 0.380859,-1.3476562 0.9375,-1.3476562 z m 6.760254,1.640625 c 0.01465,-0.087891 0.01465,-0.131836 0.01465,-0.1904297 0,-0.4248047 -0.07324,-0.8349609 -0.175781,-1.1279297 -0.278321,-0.7910156 -0.981446,-1.2597656 -1.845703,-1.2597656 -1.230469,0 -1.992188,0.8935547 -1.992188,2.34375 0,1.3769531 0.74707,2.22656248 1.962891,2.22656248 0.966797,0 1.743164,-0.55664063 1.992187,-1.40624998 h -1.098633 c -0.131836,0.35156248 -0.439453,0.54199216 -0.849609,0.54199216 -0.322266,0 -0.571289,-0.13183593 -0.732422,-0.36621096 -0.102539,-0.1611328 -0.146484,-0.3515625 -0.161133,-0.7617187 z m -2.871094,-0.7470703 c 0.07324,-0.6445313 0.351562,-0.9667969 0.849609,-0.9667969 0.27832,0 0.527344,0.1318359 0.688477,0.3515625 0.102539,0.1611328 0.161133,0.3222656 0.175781,0.6152344 z M 22.464266,-5.81375 h -1.12793 v 5.81542969 h 1.12793 z m 0,0"
       style="fill:#ffffff;fill-opacity:1;fill-rule:nonzero;stroke:none"
       aria-label="Model"
       transform="matrix(1.0666667,0,0,1.0666667,20.381867,274.20133)" />
    <path
       id="path119"
       d="m 40.91302,0 h 69.72269"
       style="fill:none;stroke:#9d908d;stroke-width:3.9851;stroke-linecap:butt;stroke-linejoin:miter;stroke-miterlimit:10;stroke-dasharray:none;stroke-opacity:1"
       transform="matrix(1.0666667,0,0,-1.0666667,83.773867,30.767733)" />
    <path
       id="path120"
       d="M 6.9281,0 1.24535,2.86575 V 0 -2.86575 Z"
       style="fill:#9d908d;fill-opacity:1;fill-rule:nonzero;stroke:#9d908d;stroke-width:2.49069;stroke-linecap:butt;stroke-linejoin:miter;stroke-miterlimit:10;stroke-dasharray:none;stroke-opacity:1"
       transform="matrix(1.0666667,0,0,-1.0666667,201.1211,30.767733)" />
    <path
       id="path121"
       d="M 5.8450137,0.01536719 5.0979434,-0.59986719 C 5.6399355,-1.2151016 5.9182559,-1.9621719 5.9182559,-2.870375 c 0,-1.8017578 -1.1425782,-3.0322266 -2.8125,-3.0322266 -1.6699219,0 -2.7978516,1.2304688 -2.7978516,3.046875 0,1.8164063 1.1279297,3.04687504 2.7978516,3.04687504 0.571289,0 1.0546875,-0.13183594 1.5234375,-0.41015625 l 0.8349609,0.68847656 z m -2.006836,-1.65527339 -0.3662109,0.4541015 0.5859375,0.49804689 c -0.3369141,0.16113281 -0.6005859,0.21972656 -0.9521484,0.21972656 -1.2451172,0 -2.0654297,-0.95214845 -2.0654297,-2.38769535 0,-1.4355468 0.8349609,-2.4023437 2.0654297,-2.4023437 1.2304687,0 2.0654296,0.9667969 2.0654296,2.3876953 0,0.7470703 -0.2050781,1.3330078 -0.6298828,1.8164063 z M 10.038129,7.1875e-4 V -4.1740859 H 9.3789492 v 2.3730468 c 0,0.84960941 -0.4394531,1.40625004 -1.1425781,1.40625004 -0.5273438,0 -0.8496094,-0.32226563 -0.8496094,-0.82031254 V -4.1740859 H 6.7129336 v 3.22265621 c 0,0.68847657 0.5273437,1.14257813 1.3330078,1.14257813 0.6152344,0 1.0107422,-0.21972656 1.3916016,-0.77636719 v 0.5859375 z m 4.680176,-1.86035155 c 0,-0.6445313 -0.04395,-1.0253906 -0.161133,-1.3330078 -0.27832,-0.6884766 -0.908203,-1.0986328 -1.699219,-1.0986328 -1.157226,0 -1.904297,0.8935547 -1.904297,2.2558593 0,1.37695316 0.717774,2.22656254 1.889649,2.22656254 0.966797,0 1.625976,-0.54199219 1.787109,-1.45019534 h -0.673828 c -0.175781,0.54199221 -0.556641,0.83496096 -1.083984,0.83496096 -0.424805,0 -0.776368,-0.19042968 -1.010743,-0.54199218 C 11.700727,-1.2151016 11.656781,-1.4494766 11.642133,-1.8596328 Z M 11.656781,-2.401625 c 0.05859,-0.7763672 0.527344,-1.2744141 1.201172,-1.2744141 0.644531,0 1.157227,0.5419922 1.157227,1.2158204 0,0.029297 0,0.043945 -0.01465,0.058594 z m 3.962403,-1.7724609 V 7.1875e-4 h 0.659179 V -2.16725 c 0,-0.6005859 0.161133,-0.9814453 0.46875,-1.2158203 0.205078,-0.1611328 0.410157,-0.2050781 0.878907,-0.2050781 V -4.276625 c -0.117188,-0.014648 -0.175782,-0.014648 -0.263672,-0.014648 -0.424805,0 -0.747071,0.2490234 -1.142578,0.8789062 v -0.7617187 z m 5.419921,0 -1.157226,3.25195309 -1.069336,-3.25195309 h -0.703125 l 1.40625,4.18945309 -0.249023,0.65917969 c -0.10254,0.29296875 -0.263672,0.41015622 -0.541993,0.41015622 -0.08789,0 -0.205078,-0.014648 -0.351562,-0.043945 v 0.600586 c 0.146484,0.058594 0.27832,0.102539 0.454101,0.102539 0.219727,0 0.439454,-0.073242 0.615235,-0.2050781 0.205078,-0.1464844 0.336914,-0.3222656 0.454101,-0.6591797 l 1.860352,-5.0537109 z m 0,0"
       style="fill:#4c4c4c;fill-opacity:1;fill-rule:nonzero;stroke:none"
       aria-label="Query"
       transform="matrix(1.0666667,0,0,1.0666667,155.7536,23.311733)" />
    <path
       id="path122"
       d="M 156.90373,-33.82632 V -52.52475"
       style="fill:none;stroke:#c7bfbe;stroke-width:3.9851;stroke-linecap:butt;stroke-linejoin:miter;stroke-miterlimit:10;stroke-dasharray:none;stroke-opacity:1"
       transform="matrix(1.0666667,0,0,-1.0666667,83.773867,30.767733)" />
    <path
       id="path123"
       d="M 6.9281,0 1.24535,2.86575 V 0 -2.86575 Z"
       style="fill:#c7bfbe;fill-opacity:1;fill-rule:nonzero;stroke:#c7bfbe;stroke-width:2.49069;stroke-linecap:butt;stroke-linejoin:miter;stroke-miterlimit:10;stroke-dasharray:none;stroke-opacity:1"
       transform="matrix(0,1.0666667,1.0666667,0,251.13785,86.129941)" />
    <path
       id="path124"
       d="m 4.3959258,-5.8139609 v 4.086914 c 0,0.77636721 -0.5566406,1.25976565 -1.4941406,1.25976565 -0.4248047,0 -0.7763672,-0.10253906 -1.0546875,-0.30761719 C 1.5541289,-0.994625 1.422293,-1.2875937 1.422293,-1.7270469 v -4.086914 H 0.67522266 v 4.086914 c 0,1.17187503 0.84960934,1.91894534 2.22656254,1.91894534 1.3623046,0 2.2412109,-0.76171875 2.2412109,-1.91894534 v -4.086914 z m 1.9152832,1.640625 V 0.00146875 H 6.9850371 V -2.2983359 c 0,-0.8496094 0.4394531,-1.4208985 1.1279297,-1.4208985 0.5273437,0 0.8642578,0.3222657 0.8642578,0.834961 V 0.00146875 H 9.6364043 V -3.1479453 c 0,-0.703125 -0.5126953,-1.1425781 -1.3183594,-1.1425781 -0.6298828,0 -1.0253906,0.234375 -1.3916015,0.8203125 v -0.703125 z m 7.624512,1.40625 c -0.0293,-0.4101563 -0.117188,-0.6738282 -0.278321,-0.9082032 -0.27832,-0.3808593 -0.791015,-0.6152343 -1.362304,-0.6152343 -1.12793,0 -1.860352,0.8935547 -1.860352,2.2705078 0,1.34765623 0.717774,2.21191404 1.845703,2.21191404 0.996094,0 1.625977,-0.60058594 1.699219,-1.62597654 h -0.65918 c -0.117187,0.6738281 -0.454101,1.01074216 -1.02539,1.01074216 -0.732422,0 -1.171875,-0.60058596 -1.171875,-1.59667966 0,-1.0400391 0.439453,-1.6552735 1.157226,-1.6552735 0.556641,0 0.908203,0.3222657 0.996094,0.9082032 z m 4.321289,0.9082031 c 0,-0.6445313 -0.04395,-1.0253906 -0.161133,-1.3330078 -0.27832,-0.6884766 -0.908203,-1.0986328 -1.699219,-1.0986328 -1.157226,0 -1.904297,0.8935547 -1.904297,2.2558593 0,1.37695316 0.717774,2.22656254 1.889649,2.22656254 0.966797,0 1.625976,-0.54199219 1.787109,-1.45019534 h -0.673828 c -0.175781,0.54199221 -0.556641,0.83496096 -1.083984,0.83496096 -0.424805,0 -0.776368,-0.19042968 -1.010743,-0.54199218 C 15.239432,-1.2143516 15.195486,-1.4487266 15.180838,-1.8588828 Z M 15.195486,-2.400875 c 0.05859,-0.7763672 0.527344,-1.2744141 1.201172,-1.2744141 0.644531,0 1.157227,0.5419922 1.157227,1.2158204 0,0.029297 0,0.043945 -0.01465,0.058594 z m 3.962403,-1.7724609 v 4.17480465 h 0.659179 V -2.1665 c 0,-0.6005859 0.161133,-0.9814453 0.46875,-1.2158203 0.205078,-0.1611328 0.410157,-0.2050781 0.878907,-0.2050781 V -4.275875 c -0.117188,-0.014648 -0.175782,-0.014648 -0.263672,-0.014648 -0.424805,0 -0.747071,0.2490234 -1.142578,0.8789062 v -0.7617187 z m 4.438476,0 h -0.688476 v -1.1425782 h -0.65918 v 1.1425782 h -0.556641 v 0.5419922 h 0.556641 v 3.14941401 c 0,0.42480469 0.292969,0.67382813 0.805664,0.67382813 0.161133,0 0.322266,-0.0292969 0.541992,-0.0585938 v -0.55664063 c -0.08789,0.0146484 -0.190429,0.0292969 -0.322265,0.0292969 -0.278321,0 -0.366211,-0.0878906 -0.366211,-0.38085938 V -3.6313437 h 0.688476 z m 4.456787,3.77929684 c -0.07324,0.0146484 -0.102539,0.0146484 -0.146484,0.0146484 -0.234375,0 -0.351563,-0.1171875 -0.351563,-0.32226563 V -3.1479453 c 0,-0.7470703 -0.541992,-1.1425781 -1.567382,-1.1425781 -0.615235,0 -1.113282,0.1757812 -1.391602,0.4833984 -0.19043,0.2197266 -0.27832,0.4541016 -0.292969,0.8642578 h 0.673828 c 0.05859,-0.5126953 0.366211,-0.7324219 0.981446,-0.7324219 0.600586,0 0.9375,0.2197266 0.9375,0.6152344 v 0.1757813 c 0,0.2783203 -0.175781,0.3955078 -0.703125,0.46875 -0.9375,0.1171875 -1.083985,0.1464843 -1.333008,0.2490234 -0.483398,0.2050781 -0.732422,0.5712891 -0.732422,1.1132813 0,0.7617187 0.527344,1.24511714 1.362305,1.24511714 0.527344,0 0.952148,-0.19042969 1.420898,-0.61523438 0.05859,0.41015625 0.263672,0.61523438 0.688477,0.61523438 0.131836,0 0.234375,-0.0292969 0.454101,-0.0732422 z M 26.895926,-1.3168906 c 0,0.2197265 -0.07324,0.36621091 -0.263672,0.54199216 -0.27832,0.24902344 -0.600586,0.38085938 -0.996094,0.38085938 -0.512695,0 -0.820312,-0.24902344 -0.820312,-0.67382814 0,-0.4394531 0.292968,-0.6591797 1.010742,-0.7617187 0.703125,-0.1025391 0.834961,-0.131836 1.069336,-0.234375 z m 2.526855,-2.8564453 h -0.673828 v 4.17480465 h 0.673828 z m 0,-1.640625 h -0.673828 v 0.8496093 h 0.673828 z m 1.124268,1.640625 v 4.17480465 h 0.673828 V -2.2983359 c 0,-0.8496094 0.439453,-1.4208985 1.12793,-1.4208985 0.527343,0 0.864257,0.3222657 0.864257,0.834961 v 2.88574215 h 0.65918 V -3.1479453 c 0,-0.703125 -0.512695,-1.1425781 -1.318359,-1.1425781 -0.629883,0 -1.025391,0.234375 -1.391602,0.8203125 v -0.703125 z m 5.895996,0 h -0.688477 v -1.1425782 h -0.659179 v 1.1425782 h -0.556641 v 0.5419922 h 0.556641 v 3.14941401 c 0,0.42480469 0.292968,0.67382813 0.805664,0.67382813 0.161133,0 0.322265,-0.0292969 0.541992,-0.0585938 v -0.55664063 c -0.08789,0.0146484 -0.19043,0.0292969 -0.322266,0.0292969 -0.27832,0 -0.366211,-0.0878906 -0.366211,-0.38085938 V -3.6313437 h 0.688477 z m 3.284912,0 -1.157227,3.25195309 -1.069335,-3.25195309 H 36.79827 l 1.40625,4.18945309 -0.249024,0.65917969 c -0.102539,0.29296875 -0.263672,0.41015622 -0.541992,0.41015622 -0.08789,0 -0.205078,-0.014648 -0.351563,-0.043945 v 0.600586 c 0.146485,0.058594 0.278321,0.102539 0.454102,0.102539 0.219727,0 0.439453,-0.073242 0.615234,-0.2050781 0.205078,-0.1464844 0.336914,-0.3222656 0.454102,-0.6591797 l 1.860351,-5.0537109 z m 0,0"
       style="fill:#4c4c4c;fill-opacity:1;fill-rule:nonzero;stroke:none"
       aria-label="Uncertainty"
       transform="matrix(1.0666667,0,0,1.0666667,256.8032,81.810933)" />
    <path
       id="path125"
       d="m 156.90373,-125.5324 v -18.69842"
       style="fill:none;stroke:#c7bfbe;stroke-width:3.9851;stroke-linecap:butt;stroke-linejoin:miter;stroke-miterlimit:10;stroke-dasharray:none;stroke-opacity:1"
       transform="matrix(1.0666667,0,0,-1.0666667,83.773867,30.767733)" />
    <path
       id="path126"
       d="M 6.9281,0 1.24535,2.86575 V 0 -2.86575 Z"
       style="fill:#c7bfbe;fill-opacity:1;fill-rule:nonzero;stroke:#c7bfbe;stroke-width:2.49069;stroke-linecap:butt;stroke-linejoin:miter;stroke-miterlimit:10;stroke-dasharray:none;stroke-opacity:1"
       transform="matrix(0,1.0666667,1.0666667,0,251.13785,183.94975)" />
    <path
       id="path127"
       d="M 1.3783477,-5.8144023 H 0.64592578 V 0.00102734 H 4.2494414 V -0.65815234 H 1.3783477 Z m 7.3168945,5.41992183 c -0.073242,0.0146484 -0.1025391,0.0146484 -0.1464844,0.0146484 -0.234375,0 -0.3515625,-0.1171875 -0.3515625,-0.32226563 v -2.446289 c 0,-0.7470703 -0.5419922,-1.1425781 -1.5673828,-1.1425781 -0.6152344,0 -1.1132812,0.1757812 -1.3916016,0.4833984 -0.1904296,0.2197266 -0.2783203,0.4541016 -0.2929687,0.8642578 h 0.6738281 c 0.058594,-0.5126953 0.366211,-0.7324219 0.9814453,-0.7324219 0.600586,0 0.9375,0.2197266 0.9375,0.6152344 v 0.1757813 c 0,0.2783203 -0.1757812,0.3955078 -0.703125,0.46875 -0.9375,0.1171875 -1.0839843,0.1464843 -1.3330078,0.2490234 -0.4833984,0.2050781 -0.7324219,0.5712891 -0.7324219,1.1132812 0,0.76171879 0.5273438,1.24511723 1.3623047,1.24511723 0.5273438,0 0.9521485,-0.19042969 1.4208985,-0.61523437 0.058594,0.41015625 0.2636718,0.61523437 0.6884765,0.61523437 0.131836,0 0.234375,-0.0292969 0.4541016,-0.0732422 z M 7.5380156,-1.317332 c 0,0.2197265 -0.073242,0.36621091 -0.2636718,0.54199216 -0.2783204,0.24902343 -0.600586,0.38085937 -0.9960938,0.38085937 -0.5126953,0 -0.8203125,-0.24902344 -0.8203125,-0.67382813 0,-0.4394531 0.2929688,-0.6591797 1.0107422,-0.7617187 0.703125,-0.1025391 0.8349609,-0.131836 1.0693359,-0.234375 z m 1.7504883,-4.4970703 v 5.81542964 h 0.6005859 v -0.52734375 c 0.3222652,0.48339844 0.7470702,0.71777344 1.3183592,0.71777344 1.113281,0 1.831055,-0.90820312 1.831055,-2.29980473 0,-1.3476562 -0.688477,-2.1826171 -1.787109,-2.1826171 -0.585938,0 -0.981446,0.2050781 -1.289063,0.6884765 v -2.211914 z m 1.8310551,2.1386718 c 0.74707,0 1.21582,0.6445313 1.21582,1.640625 0,0.9521485 -0.498047,1.59667972 -1.21582,1.59667972 -0.703125,0 -1.157227,-0.62988282 -1.157227,-1.61132812 0,-0.9814453 0.454102,-1.6259766 1.157227,-1.6259766 z m 6.262207,1.8164063 c 0,-0.6445313 -0.04395,-1.0253906 -0.161133,-1.3330078 -0.27832,-0.6884766 -0.908203,-1.0986328 -1.699219,-1.0986328 -1.157226,0 -1.904297,0.8935546 -1.904297,2.2558593 0,1.37695316 0.717774,2.22656253 1.889649,2.22656253 0.966797,0 1.625976,-0.54199219 1.787109,-1.45019533 h -0.673828 c -0.175781,0.54199221 -0.556641,0.83496096 -1.083984,0.83496096 -0.424805,0 -0.776368,-0.19042969 -1.010743,-0.54199219 C 14.364188,-1.214793 14.320242,-1.449168 14.305594,-1.8593242 Z m -3.061524,-0.5419922 c 0.05859,-0.7763672 0.527344,-1.2744141 1.201172,-1.2744141 0.644531,0 1.157227,0.5419922 1.157227,1.2158203 0,0.029297 0,0.043945 -0.01465,0.058594 z m 4.621582,-3.4130859 h -0.673828 v 5.81542964 h 0.673828 z m 4.039307,2.7978515 c 0,-0.8203125 -0.541992,-1.274414 -1.508789,-1.274414 -0.966797,0 -1.59668,0.4980468 -1.59668,1.274414 0,0.6445313 0.322266,0.9667969 1.318359,1.2011719 l 0.615235,0.1464844 c 0.46875,0.1171875 0.644531,0.2783203 0.644531,0.5859375 0,0.39550778 -0.380859,0.65917966 -0.966797,0.65917966 -0.351562,0 -0.659179,-0.10253907 -0.834961,-0.27832032 C 20.54949,-0.83393359 20.505545,-0.95112109 20.4616,-1.2440898 h -0.703125 c 0.04395,0.96679683 0.585937,1.43554683 1.669921,1.43554683 1.054688,0 1.728516,-0.52734375 1.728516,-1.33300783 0,-0.6152344 -0.351562,-0.9667969 -1.186523,-1.1572265 l -0.629883,-0.1611329 c -0.541992,-0.1171875 -0.776367,-0.2929687 -0.776367,-0.5859375 0,-0.3808593 0.336914,-0.6298828 0.878906,-0.6298828 0.541992,0 0.820312,0.2197266 0.834961,0.6591797 z m 0,0"
       style="fill:#4c4c4c;fill-opacity:1;fill-rule:nonzero;stroke:none"
       aria-label="Labels"
       transform="matrix(1.0666667,0,0,1.0666667,256.8032,180.47547)" />
    <path
       id="path128"
       d="M 115.99069,-183.41214 H 46.26802"
       style="fill:none;stroke:#c7bfbe;stroke-width:3.9851;stroke-linecap:butt;stroke-linejoin:miter;stroke-miterlimit:10;stroke-dasharray:none;stroke-opacity:1"
       transform="matrix(1.0666667,0,0,-1.0666667,83.773867,30.767733)" />
    <path
       id="path129"
       d="M 6.9281,0 1.24535,2.86575 V 0 -2.86575 Z"
       style="fill:#c7bfbe;fill-opacity:1;fill-rule:nonzero;stroke:#c7bfbe;stroke-width:2.49069;stroke-linecap:butt;stroke-linejoin:miter;stroke-miterlimit:10;stroke-dasharray:none;stroke-opacity:1"
       transform="matrix(-1.0666667,0,0,1.0666667,133.7906,226.40735)" />
    <path
       id="path130"
       d="M 2.8271035,-5.1564141 H 4.7314004 V -5.8155937 H 0.16108789 v 0.6591796 H 2.0800332 v 5.1562500375 h 0.7470703 z m 1.6516113,0.9814454 V -1.640625e-4 H 5.1378945 V -2.1681328 c 0,-0.6005859 0.1611328,-0.9814453 0.46875,-1.2158203 0.2050782,-0.1611328 0.4101563,-0.2050781 0.8789063,-0.2050781 v -0.6884766 c -0.1171875,-0.014648 -0.1757813,-0.014648 -0.2636719,-0.014648 -0.4248047,0 -0.7470703,0.2490234 -1.1425781,0.8789062 v -0.7617187 z m 6.2805172,3.77929683 c -0.07324,0.0146484 -0.102539,0.0146484 -0.146484,0.0146484 -0.234375,0 -0.351562,-0.1171875 -0.351562,-0.32226562 V -3.1495781 c 0,-0.7470703 -0.5419926,-1.1425781 -1.5673833,-1.1425781 -0.6152343,0 -1.1132812,0.1757812 -1.3916015,0.4833984 C 7.1117715,-3.5890312 7.0238809,-3.3546562 7.0092324,-2.9445 h 0.6738281 c 0.058594,-0.5126953 0.366211,-0.7324219 0.9814454,-0.7324219 0.6005859,0 0.9375,0.2197266 0.9375,0.6152344 v 0.1757813 c 0,0.2783203 -0.1757813,0.3955078 -0.703125,0.46875 -0.9375,0.1171875 -1.0839844,0.1464843 -1.3330079,0.2490234 -0.4833984,0.2050781 -0.7324218,0.5712891 -0.7324218,1.1132812 0,0.76171879 0.5273437,1.24511723 1.3623047,1.24511723 0.5273437,0 0.9521484,-0.1904296925 1.4208984,-0.61523438 0.058594,0.41015625 0.2636719,0.61523438 0.6884767,0.61523438 0.131836,0 0.234375,-0.0292969 0.454101,-0.0732422 z M 9.6020059,-1.3185234 c 0,0.2197265 -0.073242,0.3662109 -0.2636719,0.54199215 -0.2783203,0.24902344 -0.600586,0.38085938 -0.9960938,0.38085938 -0.5126953,0 -0.8203125,-0.24902344 -0.8203125,-0.67382813 0,-0.4394531 0.2929688,-0.6591797 1.0107422,-0.7617187 0.703125,-0.1025391 0.834961,-0.131836 1.069336,-0.234375 z m 2.5195311,-2.8564453 h -0.673828 v 4.1748046375 h 0.673828 z m 0,-1.640625 h -0.673828 v 0.8496093 h 0.673828 z m 1.124268,1.640625 v 4.1748046375 h 0.673828 V -2.2999687 c 0,-0.8496094 0.439453,-1.4208985 1.127929,-1.4208985 0.527344,0 0.864258,0.3222656 0.864258,0.834961 V -1.640625e-4 H 16.571 V -3.1495781 c 0,-0.703125 -0.512695,-1.1425781 -1.318359,-1.1425781 -0.629883,0 -1.025391,0.234375 -1.391602,0.8203125 v -0.703125 z m 0,0"
       style="fill:#4c4c4c;fill-opacity:1;fill-rule:nonzero;stroke:none"
       aria-label="Train"
       transform="matrix(1.0666667,0,0,1.0666667,158.32427,220.6408)" />
    <path
       id="path131"
       d="M 0,-149.5858 V -39.18132"
       style="fill:none;stroke:#dddada;stroke-width:3.9851;stroke-linecap:butt;stroke-linejoin:miter;stroke-miterlimit:10;stroke-dasharray:4.98138, 1.99255;stroke-dashoffset:0;stroke-opacity:1"
       transform="matrix(1.0666667,0,0,-1.0666667,83.773867,30.767733)" />
    <path
       id="path132"
       d="M 6.9281,0 1.24535,2.86575 V 0 -2.86575 Z"
       style="fill:#dddada;fill-opacity:1;fill-rule:nonzero;stroke:#dddada;stroke-width:2.49069;stroke-linecap:butt;stroke-linejoin:miter;stroke-miterlimit:10;stroke-dasharray:none;stroke-opacity:1"
       transform="matrix(0,-1.0666667,-1.0666667,0,83.773867,73.225323)" />
    <path
       id="path133"
       d="m 4.3950488,-5.8136895 v 4.0869141 c 0,0.7763672 -0.5566406,1.25976563 -1.4941406,1.25976563 -0.4248047,0 -0.7763672,-0.10253906 -1.0546875,-0.30761718 C 1.553252,-0.99435352 1.421416,-1.2873223 1.421416,-1.7267754 V -5.8136895 H 0.6743457 v 4.0869141 c 0,1.17187501 0.8496094,1.91894532 2.2265625,1.91894532 1.3623047,0 2.2412109,-0.76171875 2.2412109,-1.91894532 v -4.0869141 z m 1.7834473,7.5585938 h 0.6738281 v -2.18261719 c 0.3515625,0.42480469 0.7470703,0.62988281 1.2890625,0.62988281 1.069336,0 1.7871094,-0.87890625 1.7871094,-2.21191402 0,-1.3916016 -0.6884766,-2.2705079 -1.8017578,-2.2705079 -0.5712891,0 -1.0253906,0.2490235 -1.3330078,0.7470704 V -4.1730645 H 6.1784961 Z m 1.8310547,-5.4199219 c 0.7470703,0 1.2158203,0.6445313 1.2158203,1.640625 0,0.9521485 -0.4833984,1.59667971 -1.2158203,1.59667971 -0.6884766,0 -1.1572266,-0.62988281 -1.1572266,-1.61132811 0,-0.9814453 0.46875,-1.6259766 1.1572266,-1.6259766 z m 6.1157222,-2.1386719 h -0.659179 v 2.1679688 C 13.187773,-4.0705254 12.74832,-4.290252 12.19168,-4.290252 c -1.083985,0 -1.801758,0.8642579 -1.801758,2.1972657 0,1.40624997 0.688476,2.28515622 1.816406,2.28515622 0.571289,0 0.981445,-0.21972656 1.333008,-0.74707031 v 0.55664062 h 0.585937 z m -1.831054,2.1386719 c 0.717773,0 1.171875,0.6445313 1.171875,1.640625 0,0.9667969 -0.454102,1.59667971 -1.157227,1.59667971 -0.732422,0 -1.230469,-0.64453121 -1.230469,-1.61132811 0,-0.9814453 0.498047,-1.6259766 1.215821,-1.6259766 z m 6.584472,3.28125002 c -0.07324,0.0146484 -0.102539,0.0146484 -0.146484,0.0146484 -0.234375,0 -0.351562,-0.1171875 -0.351562,-0.32226563 V -3.1476738 c 0,-0.7470703 -0.541993,-1.1425782 -1.567383,-1.1425782 -0.615235,0 -1.113282,0.1757813 -1.391602,0.4833985 -0.19043,0.2197265 -0.27832,0.4541015 -0.292969,0.8642578 h 0.673829 c 0.05859,-0.5126953 0.36621,-0.7324219 0.981445,-0.7324219 0.600586,0 0.9375,0.2197266 0.9375,0.6152344 v 0.1757812 c 0,0.2783204 -0.175781,0.3955079 -0.703125,0.46875 -0.9375,0.1171875 -1.083985,0.1464844 -1.333008,0.2490235 -0.483398,0.2050781 -0.732422,0.571289 -0.732422,1.1132812 0,0.76171878 0.527344,1.24511722 1.362305,1.24511722 0.527344,0 0.952148,-0.19042969 1.420898,-0.61523437 0.05859,0.41015625 0.263672,0.61523437 0.688477,0.61523437 0.131836,0 0.234375,-0.0292969 0.454101,-0.0732422 z M 17.721465,-1.3166191 c 0,0.2197265 -0.07324,0.3662109 -0.263672,0.54199215 -0.27832,0.24902343 -0.600586,0.38085937 -0.996094,0.38085937 -0.512695,0 -0.820312,-0.24902344 -0.820312,-0.67382812 0,-0.4394531 0.292968,-0.6591797 1.010742,-0.7617188 0.703125,-0.102539 0.834961,-0.1318359 1.069336,-0.234375 z m 3.347168,-2.8564454 h -0.688477 v -1.1425781 h -0.659179 v 1.1425781 h -0.556641 v 0.5419922 h 0.556641 v 3.1494141 c 0,0.42480468 0.292968,0.67382812 0.805664,0.67382812 0.161132,0 0.322265,-0.0292969 0.541992,-0.0585938 V -0.4230645 c -0.08789,0.0146484 -0.19043,0.0292969 -0.322266,0.0292969 -0.27832,0 -0.366211,-0.0878906 -0.366211,-0.38085937 V -3.6310723 h 0.688477 z m 4.281006,2.3144532 c 0,-0.6445313 -0.04395,-1.0253907 -0.161133,-1.3330078 -0.27832,-0.6884766 -0.908203,-1.0986329 -1.699219,-1.0986329 -1.157226,0 -1.904297,0.8935547 -1.904297,2.2558594 0,1.37695315 0.717774,2.22656252 1.889649,2.22656252 0.966797,0 1.625976,-0.54199219 1.787109,-1.45019532 H 24.58792 c -0.175781,0.5419922 -0.556641,0.83496095 -1.083984,0.83496095 -0.424805,0 -0.776368,-0.19042969 -1.010743,-0.54199219 C 22.332061,-1.2140801 22.288115,-1.4484551 22.273467,-1.8586113 Z m -3.061524,-0.5419922 c 0.05859,-0.7763672 0.527344,-1.2744141 1.201172,-1.2744141 0.644531,0 1.157227,0.5419922 1.157227,1.2158203 0,0.029297 0,0.043945 -0.01465,0.058594 z m 0,0"
       style="fill:#4c4c4c;fill-opacity:1;fill-rule:nonzero;stroke:none"
       aria-label="Update"
       transform="matrix(1.0666667,0,0,1.0666667,50.698667,130.7208)" />
  </g>
</svg>
