<?xml version="1.0" encoding="UTF-8"?>
<svg xmlns="http://www.w3.org/2000/svg" viewBox="0 0 800 460" font-family="Helvetica Neue, Helvetica, Arial, sans-serif">
  <rect width="800" height="460" fill="#ffffff"/>
  <defs>
    <marker id="arrow" markerWidth="8" markerHeight="6" refX="7" refY="3" orient="auto">
      <path d="M0,0 L8,3 L0,6 Z" fill="#555"/>
    </marker>
  </defs>
  <g transform="translate(0,-30)">

    <rect x="20" y="50" width="240" height="320" fill="#f7f7f7" stroke="#bbb" stroke-width="1.2" rx="4"/>
    <text x="30" y="70" font-size="12" font-weight="700" fill="#333">Foundation (01-08)</text>

    <rect x="60" y="86" width="160" height="30" fill="#f7f7f7" stroke="#555" stroke-width="1.2" rx="4"/>
    <text x="140" y="105" text-anchor="middle" font-size="10" font-weight="700" fill="#333">01 - Tensor</text>

    <rect x="60" y="126" width="160" height="30" fill="#f7f7f7" stroke="#555" stroke-width="1.2" rx="4"/>
    <text x="140" y="145" text-anchor="middle" font-size="10" font-weight="700" fill="#333">02 - Activations</text>

    <rect x="60" y="166" width="160" height="30" fill="#f7f7f7" stroke="#555" stroke-width="1.2" rx="4"/>
    <text x="140" y="185" text-anchor="middle" font-size="10" font-weight="700" fill="#333">03 - Layers</text>

    <rect x="60" y="206" width="160" height="30" fill="#f7f7f7" stroke="#555" stroke-width="1.2" rx="4"/>
    <text x="140" y="225" text-anchor="middle" font-size="10" font-weight="700" fill="#333">04 - Losses</text>

    <rect x="60" y="246" width="160" height="30" fill="#f7f7f7" stroke="#555" stroke-width="1.2" rx="4"/>
    <text x="140" y="265" text-anchor="middle" font-size="10" font-weight="700" fill="#333">05 - DataLoader</text>

    <rect x="60" y="286" width="160" height="30" fill="#f7f7f7" stroke="#555" stroke-width="1.2" rx="4"/>
    <text x="140" y="305" text-anchor="middle" font-size="10" font-weight="700" fill="#333">06 - Autograd</text>

    <rect x="60" y="326" width="160" height="30" fill="#f7f7f7" stroke="#555" stroke-width="1.2" rx="4"/>
    <text x="140" y="345" text-anchor="middle" font-size="10" font-weight="700" fill="#333">07 - Optimizers + 08 - Training</text>

    <path d="M140 116 V126" stroke="#555" stroke-width="1.2" fill="none" marker-end="url(#arrow)"/>
    <path d="M140 156 V166" stroke="#555" stroke-width="1.2" fill="none" marker-end="url(#arrow)"/>
    <path d="M140 196 V206" stroke="#555" stroke-width="1.2" fill="none" marker-end="url(#arrow)"/>
    <path d="M140 236 V246" stroke="#555" stroke-width="1.2" fill="none" marker-end="url(#arrow)"/>
    <path d="M140 276 V286" stroke="#555" stroke-width="1.2" fill="none" marker-end="url(#arrow)"/>
    <path d="M140 316 V326" stroke="#555" stroke-width="1.2" fill="none" marker-end="url(#arrow)"/>

    <rect x="280" y="50" width="240" height="320" fill="#f7f7f7" stroke="#bbb" stroke-width="1.2" rx="4"/>
    <text x="290" y="70" font-size="12" font-weight="700" fill="#333">Architecture (09-13)</text>

    <rect x="295" y="166" width="100" height="30" fill="#f7f7f7" stroke="#555" stroke-width="1.2" rx="4"/>
    <text x="345" y="185" text-anchor="middle" font-size="10" font-weight="700" fill="#333">09 - CNNs</text>

    <rect x="405" y="166" width="100" height="30" fill="#f7f7f7" stroke="#555" stroke-width="1.2" rx="4"/>
    <text x="455" y="185" text-anchor="middle" font-size="10" font-weight="700" fill="#333">10 - Tokenization</text>

    <rect x="405" y="206" width="100" height="30" fill="#f7f7f7" stroke="#555" stroke-width="1.2" rx="4"/>
    <text x="455" y="225" text-anchor="middle" font-size="10" font-weight="700" fill="#333">11 - Embeddings</text>

    <rect x="405" y="246" width="100" height="30" fill="#f7f7f7" stroke="#555" stroke-width="1.2" rx="4"/>
    <text x="455" y="265" text-anchor="middle" font-size="10" font-weight="700" fill="#333">12 - Attention</text>

    <rect x="405" y="286" width="100" height="30" fill="#f7f7f7" stroke="#555" stroke-width="1.2" rx="4"/>
    <text x="455" y="305" text-anchor="middle" font-size="10" font-weight="700" fill="#333">13 - Transformers</text>

    <text x="400" y="103" text-anchor="middle" font-size="9" font-weight="400" fill="#999" font-style="italic">vision branch</text>
    <text x="400" y="115" text-anchor="middle" font-size="9" font-weight="400" fill="#999" font-style="italic">vs language chain</text>

    <path d="M400 130 V145" stroke="#555" stroke-width="1.2" fill="none"/>
    <path d="M345 145 H455" stroke="#555" stroke-width="1.2" fill="none"/>
    <path d="M345 145 V166" stroke="#555" stroke-width="1.2" fill="none" marker-end="url(#arrow)"/>
    <path d="M455 145 V166" stroke="#555" stroke-width="1.2" fill="none" marker-end="url(#arrow)"/>
    <path d="M455 196 V206" stroke="#555" stroke-width="1.2" fill="none" marker-end="url(#arrow)"/>
    <path d="M455 236 V246" stroke="#555" stroke-width="1.2" fill="none" marker-end="url(#arrow)"/>
    <path d="M455 276 V286" stroke="#555" stroke-width="1.2" fill="none" marker-end="url(#arrow)"/>

    <rect x="540" y="50" width="240" height="320" fill="#f7f7f7" stroke="#bbb" stroke-width="1.2" rx="4"/>
    <text x="550" y="70" font-size="12" font-weight="700" fill="#333">Optimization (14-19)</text>

    <rect x="580" y="86" width="160" height="30" fill="#f7f7f7" stroke="#555" stroke-width="1.2" rx="4"/>
    <text x="660" y="105" text-anchor="middle" font-size="10" font-weight="700" fill="#333">14 - Profiling</text>

    <rect x="560" y="170" width="42" height="30" fill="#f7f7f7" stroke="#555" stroke-width="1.2" rx="4"/>
    <text x="581" y="189" text-anchor="middle" font-size="9" font-weight="700" fill="#333">15 - Quant</text>

    <rect x="610" y="170" width="50" height="30" fill="#f7f7f7" stroke="#555" stroke-width="1.2" rx="4"/>
    <text x="635" y="189" text-anchor="middle" font-size="9" font-weight="700" fill="#333">16 - Compress</text>

    <rect x="668" y="170" width="50" height="30" fill="#f7f7f7" stroke="#555" stroke-width="1.2" rx="4"/>
    <text x="693" y="189" text-anchor="middle" font-size="9" font-weight="700" fill="#333">17 - Accel</text>

    <rect x="726" y="170" width="50" height="30" fill="#f7f7f7" stroke="#555" stroke-width="1.2" rx="4"/>
    <text x="751" y="189" text-anchor="middle" font-size="9" font-weight="700" fill="#333">18 - Memo</text>

    <rect x="580" y="290" width="160" height="30" fill="#f7f7f7" stroke="#555" stroke-width="1.2" rx="4"/>
    <text x="660" y="309" text-anchor="middle" font-size="10" font-weight="700" fill="#333">19 - Benchmarking</text>

    <path d="M660 116 V140" stroke="#555" stroke-width="1.2" fill="none"/>
    <path d="M581 140 H751" stroke="#555" stroke-width="1.2" fill="none"/>
    <path d="M581 140 V170" stroke="#555" stroke-width="1.2" fill="none" marker-end="url(#arrow)"/>
    <path d="M635 140 V170" stroke="#555" stroke-width="1.2" fill="none" marker-end="url(#arrow)"/>
    <path d="M693 140 V170" stroke="#555" stroke-width="1.2" fill="none" marker-end="url(#arrow)"/>
    <path d="M751 140 V170" stroke="#555" stroke-width="1.2" fill="none" marker-end="url(#arrow)"/>

    <path d="M581 200 V250" stroke="#555" stroke-width="1.2" fill="none"/>
    <path d="M635 200 V250" stroke="#555" stroke-width="1.2" fill="none"/>
    <path d="M693 200 V250" stroke="#555" stroke-width="1.2" fill="none"/>
    <path d="M751 200 V250" stroke="#555" stroke-width="1.2" fill="none"/>
    <path d="M581 250 H751" stroke="#555" stroke-width="1.2" fill="none"/>
    <path d="M660 250 V290" stroke="#555" stroke-width="1.2" fill="none" marker-end="url(#arrow)"/>

    <path d="M260 261 H280" stroke="#555" stroke-width="1.2" fill="none" marker-end="url(#arrow)"/>
    <text x="270" y="256" text-anchor="middle" font-size="9" font-weight="400" fill="#999" font-style="italic">apply</text>

    <path d="M520 181 H540" stroke="#555" stroke-width="1.2" fill="none" marker-end="url(#arrow)"/>
    <path d="M520 301 H530 V181 H540" stroke="#555" stroke-width="1.2" fill="none" marker-end="url(#arrow)"/>
    <text x="530" y="170" text-anchor="middle" font-size="9" font-weight="400" fill="#999" font-style="italic">optimize</text>

    <rect x="320" y="400" width="160" height="36" fill="#fdebd0" stroke="#c87b2a" stroke-width="1.2" rx="4"/>
    <text x="400" y="418" text-anchor="middle" font-size="10" font-weight="700" fill="#333">20 - Capstone</text>
    <text x="400" y="431" text-anchor="middle" font-size="9" font-weight="400" fill="#999">end-to-end submission</text>

    <path d="M660 320 V418 H480" stroke="#555" stroke-width="1.2" fill="none" marker-end="url(#arrow)"/>
    <text x="566" y="412" text-anchor="middle" font-size="9" font-weight="400" fill="#999" font-style="italic">submit</text>
  </g>
</svg>
