<?xml version="1.0" encoding="UTF-8"?>
<svg xmlns="http://www.w3.org/2000/svg" viewBox="0 0 680 200" font-family="Helvetica Neue, Helvetica, Arial, sans-serif">
  <rect width="680" height="200" fill="#ffffff"/>
  <defs>
    <marker id="arrow" markerWidth="8" markerHeight="6" refX="7" refY="3" orient="auto">
      <path d="M0,0 L8,3 L0,6 Z" fill="#9ca3af"/>
    </marker>
  </defs>
  <g transform="translate(0,-50)">
    <rect x="40" y="60" width="600" height="160" fill="#f8f9fa" stroke="#e5e7eb" stroke-width="1" rx="2"/>
    <text x="50" y="80" font-size="11" font-weight="700" fill="#1f2937">Your TinyTorch Journey</text>

    <rect x="60" y="100" width="100" height="60" fill="#f4f5f7" stroke="#9ca3af" stroke-width="1" rx="2"/>
    <text x="110.0" y="127.0" text-anchor="middle" font-size="10" font-weight="700" fill="#1f2937">Install</text>
    <text x="110.0" y="142.0" text-anchor="middle" font-size="9" font-weight="400" fill="#6b7280">install.sh</text>

    <rect x="175" y="100" width="100" height="60" fill="#f4f5f7" stroke="#9ca3af" stroke-width="1" rx="2"/>
    <text x="225.0" y="127.0" text-anchor="middle" font-size="10" font-weight="700" fill="#1f2937">Setup</text>
    <text x="225.0" y="142.0" text-anchor="middle" font-size="9" font-weight="400" fill="#6b7280">tito setup</text>

    <rect x="290" y="100" width="100" height="60" fill="#f4f5f7" stroke="#9ca3af" stroke-width="1" rx="2"/>
    <text x="340.0" y="127.0" text-anchor="middle" font-size="10" font-weight="700" fill="#1f2937">Start</text>
    <text x="340.0" y="142.0" text-anchor="middle" font-size="9" font-weight="400" fill="#6b7280">begin module</text>

    <rect x="405" y="100" width="100" height="60" fill="#f4f5f7" stroke="#9ca3af" stroke-width="1" rx="2"/>
    <text x="455.0" y="127.0" text-anchor="middle" font-size="10" font-weight="700" fill="#1f2937">Complete</text>
    <text x="455.0" y="142.0" text-anchor="middle" font-size="9" font-weight="400" fill="#6b7280">export code</text>

    <rect x="520" y="100" width="100" height="60" fill="#fff1e8" stroke="#ff8246" stroke-width="1" rx="2"/>
    <text x="570.0" y="127.0" text-anchor="middle" font-size="10" font-weight="700" fill="#1f2937">Milestone</text>
    <text x="570.0" y="142.0" text-anchor="middle" font-size="9" font-weight="400" fill="#6b7280">run YOUR code</text>

    <path d="M160 130 H175" stroke="#9ca3af" stroke-width="1" fill="none" marker-end="url(#arrow)"/>
    <path d="M275 130 H290" stroke="#9ca3af" stroke-width="1" fill="none" marker-end="url(#arrow)"/>
    <path d="M390 130 H405" stroke="#9ca3af" stroke-width="1" fill="none" marker-end="url(#arrow)"/>
    <path d="M505 130 H520" stroke="#9ca3af" stroke-width="1" fill="none" marker-end="url(#arrow)"/>

    <path d="M570 160 V200 H340 V160" stroke="#9ca3af" stroke-width="1" fill="none" marker-end="url(#arrow)"/>
    <text x="455" y="195" text-anchor="middle" font-size="9" font-weight="400" fill="#6b7280" font-style="italic">next module</text>
  </g>
</svg>
