<?xml version="1.0" encoding="UTF-8"?>
<svg xmlns="http://www.w3.org/2000/svg" viewBox="0 0 680 300" font-family="Helvetica Neue, Helvetica, Arial, sans-serif">
  <rect width="680" height="300" fill="#ffffff"/>
  <defs>
    <marker id="arrow" markerWidth="8" markerHeight="6" refX="7" refY="3" orient="auto">
      <path d="M0,0 L8,3 L0,6 Z" fill="#9ca3af"/>
    </marker>
  </defs>
  <g transform="translate(0,-50)">
<rect x="40" y="60" width="600" height="260" fill="#f8f9fa" stroke="#e5e7eb" stroke-width="1" rx="2"/>
  <text x="50" y="80" font-size="11" font-weight="700" fill="#1f2937">Your Optimizer Classes</text>
  <rect x="250" y="100" width="180" height="60" fill="#f4f5f7" stroke="#9ca3af" stroke-width="1" rx="2"/>
  <text x="340.0" y="127.0" text-anchor="middle" font-size="10" font-weight="700" fill="#1f2937">Optimizer Base</text>
  <text x="340.0" y="142.0" text-anchor="middle" font-size="9" font-weight="400" fill="#6b7280">zero_grad(), step()</text>
  <rect x="70" y="240" width="160" height="60" fill="#f4f5f7" stroke="#9ca3af" stroke-width="1" rx="2"/>
  <text x="150.0" y="267.0" text-anchor="middle" font-size="10" font-weight="700" fill="#1f2937">SGD</text>
  <text x="150.0" y="282.0" text-anchor="middle" font-size="9" font-weight="400" fill="#6b7280">momentum buffers</text>
  <rect x="260" y="240" width="160" height="60" fill="#fff1e8" stroke="#ff8246" stroke-width="1" rx="2"/>
  <text x="340.0" y="267.0" text-anchor="middle" font-size="10" font-weight="700" fill="#1f2937">Adam</text>
  <text x="340.0" y="282.0" text-anchor="middle" font-size="9" font-weight="400" fill="#6b7280">m, v buffers</text>
  <rect x="450" y="240" width="160" height="60" fill="#f4f5f7" stroke="#9ca3af" stroke-width="1" rx="2"/>
  <text x="530.0" y="267.0" text-anchor="middle" font-size="10" font-weight="700" fill="#1f2937">AdamW</text>
  <text x="530.0" y="282.0" text-anchor="middle" font-size="9" font-weight="400" fill="#6b7280">decoupled decay</text>
  <path d="M250 130 H150 V240" stroke="#9ca3af" stroke-width="1" fill="none" marker-end="url(#arrow)"/>
  <path d="M340 160 V240" stroke="#9ca3af" stroke-width="1" fill="none" marker-end="url(#arrow)"/>
  <path d="M430 130 H530 V240" stroke="#9ca3af" stroke-width="1" fill="none" marker-end="url(#arrow)"/>
  </g>
</svg>
