<?xml version="1.0" encoding="UTF-8"?>
<svg xmlns="http://www.w3.org/2000/svg" viewBox="0 0 680 370" font-family="Helvetica Neue, Helvetica, Arial, sans-serif">
  <rect width="680" height="370" fill="#ffffff"/>
  <defs>
    <marker id="arrow" markerWidth="8" markerHeight="6" refX="7" refY="3" orient="auto">
      <path d="M0,0 L8,3 L0,6 Z" fill="#555"/>
    </marker>
  </defs>
  <g transform="translate(0,-50)">
<rect x="40" y="60" width="600" height="330" fill="#f7f7f7" stroke="#bbb" stroke-width="1.2" rx="4"/>
  <text x="50" y="80" font-size="12" font-weight="700" fill="#333">Your Tokenization System</text>
  <rect x="260" y="100" width="160" height="60" fill="#f7f7f7" stroke="#bbb" stroke-width="1.2" rx="4"/>
  <text x="340.0" y="127.0" text-anchor="middle" font-size="10" font-weight="700" fill="#333">Base Tokenizer</text>
  <text x="340.0" y="142.0" text-anchor="middle" font-size="9" font-weight="400" fill="#999">encode(), decode()</text>
  <rect x="80" y="210" width="160" height="60" fill="#f7f7f7" stroke="#bbb" stroke-width="1.2" rx="4"/>
  <text x="160.0" y="237.0" text-anchor="middle" font-size="10" font-weight="700" fill="#333">CharTokenizer</text>
  <text x="160.0" y="252.0" text-anchor="middle" font-size="9" font-weight="400" fill="#999">character-level</text>
  <rect x="440" y="210" width="160" height="60" fill="#fdebd0" stroke="#c87b2a" stroke-width="1.2" rx="4"/>
  <text x="520.0" y="237.0" text-anchor="middle" font-size="10" font-weight="700" fill="#333">BPETokenizer</text>
  <text x="520.0" y="252.0" text-anchor="middle" font-size="9" font-weight="400" fill="#999">subword units</text>
  <rect x="260" y="320" width="160" height="60" fill="#f7f7f7" stroke="#bbb" stroke-width="1.2" rx="4"/>
  <text x="340.0" y="347.0" text-anchor="middle" font-size="10" font-weight="700" fill="#333">Vocabulary Manager</text>
  <text x="340.0" y="362.0" text-anchor="middle" font-size="9" font-weight="400" fill="#999">mappings &amp; special tokens</text>
  <path d="M295 160 L195 210" stroke="#555" stroke-width="1.2" fill="none" marker-end="url(#arrow)"/>
  <path d="M385 160 L485 210" stroke="#555" stroke-width="1.2" fill="none" marker-end="url(#arrow)"/>
  <path d="M195 270 L295 320" stroke="#555" stroke-width="1.2" fill="none" marker-end="url(#arrow)"/>
  <path d="M485 270 L385 320" stroke="#555" stroke-width="1.2" fill="none" marker-end="url(#arrow)"/>
  </g>
</svg>
