<?xml version="1.0" encoding="UTF-8"?>
<svg xmlns="http://www.w3.org/2000/svg" viewBox="0 0 680 320" font-family="Helvetica Neue, Helvetica, Arial, sans-serif">
  <rect width="680" height="320" fill="#ffffff"/>
  <defs>
    <marker id="arrow" markerWidth="8" markerHeight="6" refX="7" refY="3" orient="auto">
      <path d="M0,0 L8,3 L0,6 Z" fill="#9ca3af"/>
    </marker>
  </defs>
  <g transform="translate(0,-50)">
<rect x="40" y="60" width="600" height="280" fill="#f8f9fa" stroke="#e5e7eb" stroke-width="1" rx="2"/>
  <text x="50" y="80" font-size="11" font-weight="700" fill="#1f2937">Your Embedding System</text>
  <rect x="70" y="100" width="130" height="60" fill="#f4f5f7" stroke="#9ca3af" stroke-width="1" rx="2"/>
  <text x="135.0" y="127.0" text-anchor="middle" font-size="10" font-weight="700" fill="#1f2937">Embedding</text>
  <text x="135.0" y="142.0" text-anchor="middle" font-size="9" font-weight="400" fill="#6b7280">Token → Vector</text>
  <rect x="230" y="100" width="130" height="60" fill="#f4f5f7" stroke="#9ca3af" stroke-width="1" rx="2"/>
  <text x="295.0" y="127.0" text-anchor="middle" font-size="10" font-weight="700" fill="#1f2937">PositionalEncoding</text>
  <text x="295.0" y="142.0" text-anchor="middle" font-size="9" font-weight="400" fill="#6b7280">Learned Positions</text>
  <rect x="390" y="100" width="130" height="60" fill="#f4f5f7" stroke="#9ca3af" stroke-width="1" rx="2"/>
  <text x="455.0" y="127.0" text-anchor="middle" font-size="10" font-weight="700" fill="#1f2937">Sinusoidal PE</text>
  <text x="455.0" y="142.0" text-anchor="middle" font-size="9" font-weight="400" fill="#6b7280">Math Patterns</text>
  <rect x="70" y="240" width="450" height="80" fill="#fff1e8" stroke="#ff8246" stroke-width="1" rx="2"/>
  <text x="295.0" y="277.0" text-anchor="middle" font-size="10" font-weight="700" fill="#1f2937">EmbeddingLayer</text>
  <text x="295.0" y="292.0" text-anchor="middle" font-size="9" font-weight="400" fill="#6b7280">Complete Token + Position System</text>
  <path d="M135 160 V240" stroke="#9ca3af" stroke-width="1" fill="none" marker-end="url(#arrow)"/>
  <path d="M295 160 V240" stroke="#9ca3af" stroke-width="1" fill="none" marker-end="url(#arrow)"/>
  <path d="M455 160 V240" stroke="#9ca3af" stroke-width="1" fill="none" marker-end="url(#arrow)"/>
  </g>
</svg>
