<?xml version="1.0" encoding="UTF-8"?>
<svg xmlns="http://www.w3.org/2000/svg" viewBox="0 0 680 320" font-family="Helvetica Neue, Helvetica, Arial, sans-serif">
  <defs>
    <marker id="arrow" markerWidth="8" markerHeight="6" refX="7" refY="3" orient="auto">
      <path d="M0,0 L8,3 L0,6 Z" fill="#bbb"/>
    </marker>
  </defs>
  <g transform="translate(0,-50)">
<rect x="40" y="60" width="600" height="280" fill="#f7f7f7" stroke="#bbb" stroke-width="1.2" rx="4"/>
  <text x="50" y="80" font-size="12" font-weight="700" fill="#333">Your Quantization System</text>
  <rect x="55" y="100" width="120" height="60" fill="#cfe2f3" stroke="#4a90c4" stroke-width="1.5" rx="4"/>
  <text x="115.0" y="134.0" text-anchor="middle" font-size="10" font-weight="700" fill="#333">MinMaxObserver</text>
  <rect x="205" y="100" width="120" height="60" fill="#cfe2f3" stroke="#4a90c4" stroke-width="1.5" rx="4"/>
  <text x="265.0" y="134.0" text-anchor="middle" font-size="10" font-weight="700" fill="#333">MovingAverage</text>
  <rect x="355" y="100" width="120" height="60" fill="#cfe2f3" stroke="#4a90c4" stroke-width="1.5" rx="4"/>
  <text x="415.0" y="134.0" text-anchor="middle" font-size="10" font-weight="700" fill="#333">WeightQuant</text>
  <rect x="505" y="100" width="120" height="60" fill="#cfe2f3" stroke="#4a90c4" stroke-width="1.5" rx="4"/>
  <text x="565.0" y="134.0" text-anchor="middle" font-size="10" font-weight="700" fill="#333">ActivationQuant</text>
  <rect x="55" y="240" width="570" height="80" fill="#fdebd0" stroke="#c87b2a" stroke-width="1.5" rx="4"/>
  <text x="340.0" y="284.0" text-anchor="middle" font-size="10" font-weight="700" fill="#333">QuantizedModel (INT8)</text>
  <path d="M115 160 V240" stroke="#bbb" stroke-width="1.5" fill="none" marker-end="url(#arrow)"/>
  <path d="M265 160 V240" stroke="#bbb" stroke-width="1.5" fill="none" marker-end="url(#arrow)"/>
  <path d="M415 160 V240" stroke="#bbb" stroke-width="1.5" fill="none" marker-end="url(#arrow)"/>
  <path d="M565 160 V240" stroke="#bbb" stroke-width="1.5" fill="none" marker-end="url(#arrow)"/>
  </g>
</svg>
