<?xml version="1.0" encoding="UTF-8"?>
<svg xmlns="http://www.w3.org/2000/svg" viewBox="0 0 640 430" font-family="Helvetica Neue, Helvetica, Arial, sans-serif">
  <defs>
    <style>
      .axis       { stroke: #333; stroke-width: 1.2; fill: none; }
      .grid       { stroke: #e8e8e8; stroke-width: 0.8; }
      .tick-label { font-size: 10px; fill: #555; text-anchor: middle; }
      .y-label    { font-size: 10px; fill: #555; text-anchor: end; }
      .axis-title { font-size: 11px; fill: #333; font-weight: 600; }
      .data-line  { fill: none; stroke: #a31f34; stroke-width: 2.5; stroke-linejoin: round; }
      .data-dot   { fill: #a31f34; stroke: white; stroke-width: 2; }
      .gpu-label  { font-size: 9.5px; fill: #333; font-weight: 600; text-anchor: middle; }
      .gpu-value  { font-size: 8.5px; fill: #777; text-anchor: middle; }
      .title      { font-size: 14px; font-weight: 700; fill: #333; text-anchor: middle; }
      .subtitle   { font-size: 10.5px; fill: #777; text-anchor: middle; }
      .annotation { font-size: 9px; fill: #a31f34; }
      .era-bg     { fill: rgba(163,31,52,0.04); }
      .era-label  { font-size: 8.5px; fill: #a31f34; text-anchor: middle; font-weight: 600; letter-spacing: 0.5px; }
    </style>
    <marker id="arrow" viewBox="0 0 10 10" refX="10" refY="5" markerWidth="8" markerHeight="8" orient="auto-start-reverse">
      <path d="M 0 1 L 10 5 L 0 9 z" fill="#a31f34" />
    </marker>
  </defs>

  <!-- Title -->
  <text x="340" y="28" class="title">NVIDIA GPU Inference Performance</text>
  <text x="340" y="44" class="subtitle">Peak Throughput (TOPS/TFLOPS), logarithmic scale</text>

  <!-- Horizontal grid lines -->
  <line x1="80" y1="340" x2="600" y2="340" class="grid" />
  <line x1="80" y1="270" x2="600" y2="270" class="grid" />
  <line x1="80" y1="200" x2="600" y2="200" class="grid" />
  <line x1="80" y1="130" x2="600" y2="130" class="grid" />
  <line x1="80" y1="60"  x2="600" y2="60"  class="grid" />

  <!-- Y-axis labels -->
  <text x="72" y="344" class="y-label">1</text>
  <text x="72" y="274" class="y-label">10</text>
  <text x="72" y="204" class="y-label">100</text>
  <text x="72" y="134" class="y-label">1,000</text>
  <text x="72" y="64"  class="y-label">10,000</text>

  <!-- Y-axis title -->
  <text x="20" y="200" class="axis-title" text-anchor="middle" transform="rotate(-90,20,200)">PEAK PERFORMANCE (TOPS/TFLOPS)</text>

  <!-- Era backgrounds -->
  <rect x="80" y="60" width="220" height="280" class="era-bg" opacity="0.5" />
  <text x="190" y="52" class="era-label">SCALAR / VECTOR</text>
  <rect x="300" y="60" width="300" height="280" fill="rgba(163,31,52,0.07)" />
  <text x="450" y="52" class="era-label">TENSOR CORES (SPARSE)</text>
  
  <!-- Era divider -->
  <line x1="300" y1="60" x2="300" y2="340" stroke="#a31f34" stroke-width="1.2" />

  <!-- Axes -->
  <line x1="80" y1="340" x2="600" y2="340" class="axis" />
  <line x1="80" y1="60"  x2="80"  y2="340" class="axis" />

  <!-- Data line connecting points -->
  <polyline points="120,298.6 200,281.7 280,223.0 320,193.2 440,123.3 520,87.9" class="data-line" />

  <!-- Data dots and labels -->
  <!-- K20X (2012) -->
  <circle cx="120" cy="298.6" r="5" class="data-dot" />
  <text x="120" y="322" class="gpu-label">K20X</text>
  <text x="120" y="332" class="gpu-value">3.9 TFLOPS</text>
  <text x="120" y="355" class="tick-label">2012</text>

  <!-- M40 (2014) -->
  <circle cx="200" cy="281.7" r="5" class="data-dot" />
  <text x="190" y="271" class="gpu-label" text-anchor="end">M40</text>
  <text x="190" y="261" class="gpu-value" text-anchor="end">6.8 TOPS</text>
  <text x="200" y="355" class="tick-label">2014</text>

  <!-- P40 (2016) -->
  <circle cx="280" cy="223.0" r="5" class="data-dot" />
  <text x="270" y="213" class="gpu-label" text-anchor="end">P40</text>
  <text x="270" y="203" class="gpu-value" text-anchor="end">47 TOPS</text>
  <text x="280" y="355" class="tick-label">2016</text>

  <!-- V100 (2017) -->
  <circle cx="320" cy="193.2" r="5" class="data-dot" />
  <text x="330" y="183" class="gpu-label" text-anchor="start">V100</text>
  <text x="330" y="173" class="gpu-value" text-anchor="start">125 TOPS</text>
  <text x="320" y="355" class="tick-label">2017</text>

  <!-- A100 (2020) -->
  <circle cx="440" cy="123.3" r="5" class="data-dot" />
  <text x="430" y="113" class="gpu-label" text-anchor="end">A100</text>
  <text x="430" y="103" class="gpu-value" text-anchor="end">1,248 TOPS</text>
  <text x="440" y="355" class="tick-label">2020</text>

  <!-- H100 (2022) -->
  <circle cx="520" cy="87.9" r="5" class="data-dot" />
  <text x="520" y="77" class="gpu-label">H100</text>
  <text x="520" y="67" class="gpu-value">4,000 TOPS</text>
  <text x="520" y="355" class="tick-label">2022</text>

  <!-- 1000x annotation -->
  <line x1="560" y1="298.6" x2="560" y2="87.9" stroke="#a31f34" stroke-width="1.2" marker-start="url(#arrow)" marker-end="url(#arrow)" />
  <text x="570" y="196" class="annotation" text-anchor="start" font-weight="700" font-size="13">1,000x</text>

  <!-- X-axis title -->
  <text x="340" y="380" class="axis-title" text-anchor="middle">Year</text>

  <!-- Bottom note -->
  <text x="340" y="405" font-size="9" fill="#999" text-anchor="middle">Architectural shift from general-purpose floating-point to dedicated tensor core acceleration</text>

</svg>