<?xml version="1.0" encoding="UTF-8" standalone="no"?>
<!-- Created with Inkscape (http://www.inkscape.org/) -->

<svg
   version="1.1"
   id="svg1"
   width="477.41599"
   height="295.78799"
   viewBox="0 0 477.41599 295.78799"
   xmlns="http://www.w3.org/2000/svg"
   xmlns:svg="http://www.w3.org/2000/svg">
  <defs
     id="defs1" />
  <g
     id="g1">
    <path
       id="path1"
       d="M 18.42567,-26.92937 V 12.75597 L 6.42091,0.75122 v -39.68535 z"
       style="fill:#64b4d1;fill-opacity:1;fill-rule:nonzero;stroke:#000000;stroke-width:0.69739;stroke-linecap:round;stroke-linejoin:round;stroke-miterlimit:10;stroke-dasharray:none;stroke-opacity:1"
       transform="matrix(1.3333333,0,0,-1.3333333,194.84,100.62133)" />
    <path
       id="path2"
       d="M -38.93413,-38.93413 V 0.75122 H 6.42091 v -39.68535 h -45.35504"
       style="fill:#a7d4e5;fill-opacity:1;fill-rule:nonzero;stroke:#000000;stroke-width:0.69739;stroke-linecap:round;stroke-linejoin:round;stroke-miterlimit:10;stroke-dasharray:none;stroke-opacity:1"
       transform="matrix(1.3333333,0,0,-1.3333333,194.84,100.62133)" />
    <path
       id="path3"
       d="M -26.92937,12.75597 -38.93413,0.75122 H 6.42091 l 12.00476,12.00475 z"
       style="fill:#d3eaf2;fill-opacity:1;fill-rule:nonzero;stroke:#000000;stroke-width:0.69739;stroke-linecap:round;stroke-linejoin:round;stroke-miterlimit:10;stroke-dasharray:none;stroke-opacity:1"
       transform="matrix(1.3333333,0,0,-1.3333333,194.84,100.62133)" />
    <path
       id="path4"
       d="m -8.5037,-53.85875 v 39.68536 l -12.00475,-12.00476 v -39.68536 z"
       style="fill:#64b4d1;fill-opacity:1;fill-rule:nonzero;stroke:#000000;stroke-width:0.69739;stroke-linecap:round;stroke-linejoin:round;stroke-miterlimit:10;stroke-dasharray:none;stroke-opacity:1"
       transform="matrix(1.3333333,0,0,-1.3333333,194.84,100.62133)" />
    <path
       id="path5"
       d="m -65.86351,-65.86351 v 39.68536 h 45.35506 v -39.68536 h -45.35506"
       style="fill:#a7d4e5;fill-opacity:1;fill-rule:nonzero;stroke:#000000;stroke-width:0.69739;stroke-linecap:round;stroke-linejoin:round;stroke-miterlimit:10;stroke-dasharray:none;stroke-opacity:1"
       transform="matrix(1.3333333,0,0,-1.3333333,194.84,100.62133)" />
    <path
       id="path6"
       d="m -53.85875,-14.17339 -12.00476,-12.00476 h 45.35506 l 12.00475,12.00476 z"
       style="fill:#d3eaf2;fill-opacity:1;fill-rule:nonzero;stroke:#000000;stroke-width:0.69739;stroke-linecap:round;stroke-linejoin:round;stroke-miterlimit:10;stroke-dasharray:none;stroke-opacity:1"
       transform="matrix(1.3333333,0,0,-1.3333333,194.84,100.62133)" />
    <path
       id="path7"
       d="m -35.43309,-80.78815 v 39.68537 L -47.43784,-53.10754 V -92.7929 Z"
       style="fill:#64b4d1;fill-opacity:1;fill-rule:nonzero;stroke:#000000;stroke-width:0.69739;stroke-linecap:round;stroke-linejoin:round;stroke-miterlimit:10;stroke-dasharray:none;stroke-opacity:1"
       transform="matrix(1.3333333,0,0,-1.3333333,194.84,100.62133)" />
    <path
       id="path8"
       d="m -92.7929,-92.7929 v 39.68536 h 45.35506 V -92.7929 H -92.7929"
       style="fill:#a7d4e5;fill-opacity:1;fill-rule:nonzero;stroke:#000000;stroke-width:0.69739;stroke-linecap:round;stroke-linejoin:round;stroke-miterlimit:10;stroke-dasharray:none;stroke-opacity:1"
       transform="matrix(1.3333333,0,0,-1.3333333,194.84,100.62133)" />
    <path
       id="path9"
       d="M -80.78815,-41.10278 -92.7929,-53.10754 h 45.35506 l 12.00475,12.00476 z"
       style="fill:#d3eaf2;fill-opacity:1;fill-rule:nonzero;stroke:#000000;stroke-width:0.69739;stroke-linecap:round;stroke-linejoin:round;stroke-miterlimit:10;stroke-dasharray:none;stroke-opacity:1"
       transform="matrix(1.3333333,0,0,-1.3333333,194.84,100.62133)" />
    <path
       id="path10"
       d="m -62.36246,-107.71751 v 39.68534 l -12.00476,-12.00476 v -39.68534 z"
       style="fill:#64b4d1;fill-opacity:1;fill-rule:nonzero;stroke:#000000;stroke-width:0.69739;stroke-linecap:round;stroke-linejoin:round;stroke-miterlimit:10;stroke-dasharray:none;stroke-opacity:1"
       transform="matrix(1.3333333,0,0,-1.3333333,194.84,100.62133)" />
    <path
       id="path11"
       d="m -119.72227,-119.72227 v 39.68534 h 45.35505 v -39.68534 h -45.35505"
       style="fill:#a7d4e5;fill-opacity:1;fill-rule:nonzero;stroke:#000000;stroke-width:0.69739;stroke-linecap:round;stroke-linejoin:round;stroke-miterlimit:10;stroke-dasharray:none;stroke-opacity:1"
       transform="matrix(1.3333333,0,0,-1.3333333,194.84,100.62133)" />
    <path
       id="path12"
       d="m -107.71751,-68.03217 -12.00476,-12.00476 h 45.35505 l 12.00476,12.00476 z"
       style="fill:#d3eaf2;fill-opacity:1;fill-rule:nonzero;stroke:#000000;stroke-width:0.69739;stroke-linecap:round;stroke-linejoin:round;stroke-miterlimit:10;stroke-dasharray:none;stroke-opacity:1"
       transform="matrix(1.3333333,0,0,-1.3333333,194.84,100.62133)" />
    <path
       id="path13"
       d="M 80.78856,-26.92937 V 12.75597 L 68.78381,0.75122 v -39.68535 z"
       style="fill:#d95a9a;fill-opacity:1;fill-rule:nonzero;stroke:#000000;stroke-width:0.69739;stroke-linecap:round;stroke-linejoin:round;stroke-miterlimit:10;stroke-dasharray:none;stroke-opacity:1"
       transform="matrix(1.3333333,0,0,-1.3333333,194.84,100.62133)" />
    <path
       id="path14"
       d="M 23.42876,-38.93413 V 0.75122 H 68.78381 V -38.93413 H 23.42876"
       style="fill:#e9a1c5;fill-opacity:1;fill-rule:nonzero;stroke:#000000;stroke-width:0.69739;stroke-linecap:round;stroke-linejoin:round;stroke-miterlimit:10;stroke-dasharray:none;stroke-opacity:1"
       transform="matrix(1.3333333,0,0,-1.3333333,194.84,100.62133)" />
    <path
       id="path15"
       d="M 35.4335,12.75597 23.42876,0.75122 h 45.35505 l 12.00475,12.00475 z"
       style="fill:#f4d0e2;fill-opacity:1;fill-rule:nonzero;stroke:#000000;stroke-width:0.69739;stroke-linecap:round;stroke-linejoin:round;stroke-miterlimit:10;stroke-dasharray:none;stroke-opacity:1"
       transform="matrix(1.3333333,0,0,-1.3333333,194.84,100.62133)" />
    <path
       id="path16"
       d="m 53.85919,-53.85875 v 39.68536 L 41.85443,-26.17815 v -39.68536 z"
       style="fill:#d95a9a;fill-opacity:1;fill-rule:nonzero;stroke:#000000;stroke-width:0.69739;stroke-linecap:round;stroke-linejoin:round;stroke-miterlimit:10;stroke-dasharray:none;stroke-opacity:1"
       transform="matrix(1.3333333,0,0,-1.3333333,194.84,100.62133)" />
    <path
       id="path17"
       d="m -3.50061,-65.86351 v 39.68536 H 41.85443 V -65.86351 H -3.50061"
       style="fill:#e9a1c5;fill-opacity:1;fill-rule:nonzero;stroke:#000000;stroke-width:0.69739;stroke-linecap:round;stroke-linejoin:round;stroke-miterlimit:10;stroke-dasharray:none;stroke-opacity:1"
       transform="matrix(1.3333333,0,0,-1.3333333,194.84,100.62133)" />
    <path
       id="path18"
       d="M 8.50414,-14.17339 -3.50061,-26.17815 h 45.35504 l 12.00476,12.00476 z"
       style="fill:#f4d0e2;fill-opacity:1;fill-rule:nonzero;stroke:#000000;stroke-width:0.69739;stroke-linecap:round;stroke-linejoin:round;stroke-miterlimit:10;stroke-dasharray:none;stroke-opacity:1"
       transform="matrix(1.3333333,0,0,-1.3333333,194.84,100.62133)" />
    <path
       id="path19"
       d="m 26.9298,-80.78815 v 39.68537 L 14.92503,-53.10754 V -92.7929 Z"
       style="fill:#d95a9a;fill-opacity:1;fill-rule:nonzero;stroke:#000000;stroke-width:0.69739;stroke-linecap:round;stroke-linejoin:round;stroke-miterlimit:10;stroke-dasharray:none;stroke-opacity:1"
       transform="matrix(1.3333333,0,0,-1.3333333,194.84,100.62133)" />
    <path
       id="path20"
       d="m -30.43001,-92.7929 v 39.68536 H 14.92503 V -92.7929 h -45.35504"
       style="fill:#e9a1c5;fill-opacity:1;fill-rule:nonzero;stroke:#000000;stroke-width:0.69739;stroke-linecap:round;stroke-linejoin:round;stroke-miterlimit:10;stroke-dasharray:none;stroke-opacity:1"
       transform="matrix(1.3333333,0,0,-1.3333333,194.84,100.62133)" />
    <path
       id="path21"
       d="M -18.42525,-41.10278 -30.43001,-53.10754 H 14.92503 L 26.9298,-41.10278 Z"
       style="fill:#f4d0e2;fill-opacity:1;fill-rule:nonzero;stroke:#000000;stroke-width:0.69739;stroke-linecap:round;stroke-linejoin:round;stroke-miterlimit:10;stroke-dasharray:none;stroke-opacity:1"
       transform="matrix(1.3333333,0,0,-1.3333333,194.84,100.62133)" />
    <path
       id="path22"
       d="m 4.1e-4,-107.71751 v 39.68534 l -12.00473,-12.00476 v -39.68534 z"
       style="fill:#d95a9a;fill-opacity:1;fill-rule:nonzero;stroke:#000000;stroke-width:0.69739;stroke-linecap:round;stroke-linejoin:round;stroke-miterlimit:10;stroke-dasharray:none;stroke-opacity:1"
       transform="matrix(1.3333333,0,0,-1.3333333,194.84,100.62133)" />
    <path
       id="path23"
       d="m -57.35939,-119.72227 v 39.68534 h 45.35507 v -39.68534 h -45.35507"
       style="fill:#e9a1c5;fill-opacity:1;fill-rule:nonzero;stroke:#000000;stroke-width:0.69739;stroke-linecap:round;stroke-linejoin:round;stroke-miterlimit:10;stroke-dasharray:none;stroke-opacity:1"
       transform="matrix(1.3333333,0,0,-1.3333333,194.84,100.62133)" />
    <path
       id="path24"
       d="m -45.35463,-68.03217 -12.00476,-12.00476 h 45.35507 L 4.1e-4,-68.03217 Z"
       style="fill:#f4d0e2;fill-opacity:1;fill-rule:nonzero;stroke:#000000;stroke-width:0.69739;stroke-linecap:round;stroke-linejoin:round;stroke-miterlimit:10;stroke-dasharray:none;stroke-opacity:1"
       transform="matrix(1.3333333,0,0,-1.3333333,194.84,100.62133)" />
    <path
       id="path25"
       d="M 143.15146,-26.92937 V 12.75597 L 131.1467,0.75122 v -39.68535 z"
       style="fill:#808b74;fill-opacity:1;fill-rule:nonzero;stroke:#000000;stroke-width:0.69739;stroke-linecap:round;stroke-linejoin:round;stroke-miterlimit:10;stroke-dasharray:none;stroke-opacity:1"
       transform="matrix(1.3333333,0,0,-1.3333333,194.84,100.62133)" />
    <path
       id="path26"
       d="M 85.79164,-38.93413 V 0.75122 H 131.1467 V -38.93413 H 85.79164"
       style="fill:#b6bdaf;fill-opacity:1;fill-rule:nonzero;stroke:#000000;stroke-width:0.69739;stroke-linecap:round;stroke-linejoin:round;stroke-miterlimit:10;stroke-dasharray:none;stroke-opacity:1"
       transform="matrix(1.3333333,0,0,-1.3333333,194.84,100.62133)" />
    <path
       id="path27"
       d="M 97.7964,12.75597 85.79164,0.75122 h 45.35506 l 12.00476,12.00475 z"
       style="fill:#dbded7;fill-opacity:1;fill-rule:nonzero;stroke:#000000;stroke-width:0.69739;stroke-linecap:round;stroke-linejoin:round;stroke-miterlimit:10;stroke-dasharray:none;stroke-opacity:1"
       transform="matrix(1.3333333,0,0,-1.3333333,194.84,100.62133)" />
    <path
       id="path28"
       d="m 116.22208,-53.85875 v 39.68536 l -12.00476,-12.00476 v -39.68536 z"
       style="fill:#808b74;fill-opacity:1;fill-rule:nonzero;stroke:#000000;stroke-width:0.69739;stroke-linecap:round;stroke-linejoin:round;stroke-miterlimit:10;stroke-dasharray:none;stroke-opacity:1"
       transform="matrix(1.3333333,0,0,-1.3333333,194.84,100.62133)" />
    <path
       id="path29"
       d="m 58.86226,-65.86351 v 39.68536 h 45.35506 V -65.86351 H 58.86226"
       style="fill:#b6bdaf;fill-opacity:1;fill-rule:nonzero;stroke:#000000;stroke-width:0.69739;stroke-linecap:round;stroke-linejoin:round;stroke-miterlimit:10;stroke-dasharray:none;stroke-opacity:1"
       transform="matrix(1.3333333,0,0,-1.3333333,194.84,100.62133)" />
    <path
       id="path30"
       d="M 70.86702,-14.17339 58.86226,-26.17815 h 45.35506 l 12.00476,12.00476 z"
       style="fill:#dbded7;fill-opacity:1;fill-rule:nonzero;stroke:#000000;stroke-width:0.69739;stroke-linecap:round;stroke-linejoin:round;stroke-miterlimit:10;stroke-dasharray:none;stroke-opacity:1"
       transform="matrix(1.3333333,0,0,-1.3333333,194.84,100.62133)" />
    <path
       id="path31"
       d="m 89.2927,-80.78815 v 39.68537 L 77.28793,-53.10754 V -92.7929 Z"
       style="fill:#808b74;fill-opacity:1;fill-rule:nonzero;stroke:#000000;stroke-width:0.69739;stroke-linecap:round;stroke-linejoin:round;stroke-miterlimit:10;stroke-dasharray:none;stroke-opacity:1"
       transform="matrix(1.3333333,0,0,-1.3333333,194.84,100.62133)" />
    <path
       id="path32"
       d="m 31.93288,-92.7929 v 39.68536 H 77.28793 V -92.7929 H 31.93288"
       style="fill:#b6bdaf;fill-opacity:1;fill-rule:nonzero;stroke:#000000;stroke-width:0.69739;stroke-linecap:round;stroke-linejoin:round;stroke-miterlimit:10;stroke-dasharray:none;stroke-opacity:1"
       transform="matrix(1.3333333,0,0,-1.3333333,194.84,100.62133)" />
    <path
       id="path33"
       d="M 43.93764,-41.10278 31.93288,-53.10754 h 45.35505 l 12.00477,12.00476 z"
       style="fill:#dbded7;fill-opacity:1;fill-rule:nonzero;stroke:#000000;stroke-width:0.69739;stroke-linecap:round;stroke-linejoin:round;stroke-miterlimit:10;stroke-dasharray:none;stroke-opacity:1"
       transform="matrix(1.3333333,0,0,-1.3333333,194.84,100.62133)" />
    <path
       id="path34"
       d="m 62.36331,-107.71751 v 39.68534 L 50.35855,-80.03693 v -39.68534 z"
       style="fill:#808b74;fill-opacity:1;fill-rule:nonzero;stroke:#000000;stroke-width:0.69739;stroke-linecap:round;stroke-linejoin:round;stroke-miterlimit:10;stroke-dasharray:none;stroke-opacity:1"
       transform="matrix(1.3333333,0,0,-1.3333333,194.84,100.62133)" />
    <path
       id="path35"
       d="m 5.0035,-119.72227 v 39.68534 h 45.35505 v -39.68534 H 5.0035"
       style="fill:#b6bdaf;fill-opacity:1;fill-rule:nonzero;stroke:#000000;stroke-width:0.69739;stroke-linecap:round;stroke-linejoin:round;stroke-miterlimit:10;stroke-dasharray:none;stroke-opacity:1"
       transform="matrix(1.3333333,0,0,-1.3333333,194.84,100.62133)" />
    <path
       id="path36"
       d="M 17.00826,-68.03217 5.0035,-80.03693 h 45.35505 l 12.00476,12.00476 z"
       style="fill:#dbded7;fill-opacity:1;fill-rule:nonzero;stroke:#000000;stroke-width:0.69739;stroke-linecap:round;stroke-linejoin:round;stroke-miterlimit:10;stroke-dasharray:none;stroke-opacity:1"
       transform="matrix(1.3333333,0,0,-1.3333333,194.84,100.62133)" />
    <path
       id="path37"
       d="M 205.51436,-26.92937 V 12.75597 L 193.5096,0.75122 v -39.68535 z"
       style="fill:#ffa582;fill-opacity:1;fill-rule:nonzero;stroke:#000000;stroke-width:0.69739;stroke-linecap:round;stroke-linejoin:round;stroke-miterlimit:10;stroke-dasharray:none;stroke-opacity:1"
       transform="matrix(1.3333333,0,0,-1.3333333,194.84,100.62133)" />
    <path
       id="path38"
       d="M 148.15454,-38.93413 V 0.75122 h 45.35506 v -39.68535 h -45.35506"
       style="fill:#ffccb7;fill-opacity:1;fill-rule:nonzero;stroke:#000000;stroke-width:0.69739;stroke-linecap:round;stroke-linejoin:round;stroke-miterlimit:10;stroke-dasharray:none;stroke-opacity:1"
       transform="matrix(1.3333333,0,0,-1.3333333,194.84,100.62133)" />
    <path
       id="path39"
       d="M 160.1593,12.75597 148.15454,0.75122 h 45.35506 l 12.00476,12.00475 z"
       style="fill:#ffe5db;fill-opacity:1;fill-rule:nonzero;stroke:#000000;stroke-width:0.69739;stroke-linecap:round;stroke-linejoin:round;stroke-miterlimit:10;stroke-dasharray:none;stroke-opacity:1"
       transform="matrix(1.3333333,0,0,-1.3333333,194.84,100.62133)" />
    <path
       id="path40"
       d="m 178.58498,-53.85875 v 39.68536 l -12.00476,-12.00476 v -39.68536 z"
       style="fill:#ffa582;fill-opacity:1;fill-rule:nonzero;stroke:#000000;stroke-width:0.69739;stroke-linecap:round;stroke-linejoin:round;stroke-miterlimit:10;stroke-dasharray:none;stroke-opacity:1"
       transform="matrix(1.3333333,0,0,-1.3333333,194.84,100.62133)" />
    <path
       id="path41"
       d="m 121.22516,-65.86351 v 39.68536 h 45.35506 v -39.68536 h -45.35506"
       style="fill:#ffccb7;fill-opacity:1;fill-rule:nonzero;stroke:#000000;stroke-width:0.69739;stroke-linecap:round;stroke-linejoin:round;stroke-miterlimit:10;stroke-dasharray:none;stroke-opacity:1"
       transform="matrix(1.3333333,0,0,-1.3333333,194.84,100.62133)" />
    <path
       id="path42"
       d="m 133.22992,-14.17339 -12.00476,-12.00476 h 45.35506 l 12.00476,12.00476 z"
       style="fill:#ffe5db;fill-opacity:1;fill-rule:nonzero;stroke:#000000;stroke-width:0.69739;stroke-linecap:round;stroke-linejoin:round;stroke-miterlimit:10;stroke-dasharray:none;stroke-opacity:1"
       transform="matrix(1.3333333,0,0,-1.3333333,194.84,100.62133)" />
    <path
       id="path43"
       d="m 151.65558,-80.78815 v 39.68537 L 139.65082,-53.10754 V -92.7929 Z"
       style="fill:#ffa582;fill-opacity:1;fill-rule:nonzero;stroke:#000000;stroke-width:0.69739;stroke-linecap:round;stroke-linejoin:round;stroke-miterlimit:10;stroke-dasharray:none;stroke-opacity:1"
       transform="matrix(1.3333333,0,0,-1.3333333,194.84,100.62133)" />
    <path
       id="path44"
       d="m 94.29576,-92.7929 v 39.68536 h 45.35506 V -92.7929 H 94.29576"
       style="fill:#ffccb7;fill-opacity:1;fill-rule:nonzero;stroke:#000000;stroke-width:0.69739;stroke-linecap:round;stroke-linejoin:round;stroke-miterlimit:10;stroke-dasharray:none;stroke-opacity:1"
       transform="matrix(1.3333333,0,0,-1.3333333,194.84,100.62133)" />
    <path
       id="path45"
       d="M 106.30052,-41.10278 94.29576,-53.10754 h 45.35506 l 12.00476,12.00476 z"
       style="fill:#ffe5db;fill-opacity:1;fill-rule:nonzero;stroke:#000000;stroke-width:0.69739;stroke-linecap:round;stroke-linejoin:round;stroke-miterlimit:10;stroke-dasharray:none;stroke-opacity:1"
       transform="matrix(1.3333333,0,0,-1.3333333,194.84,100.62133)" />
    <path
       id="path46"
       d="m 124.72621,-107.71751 v 39.68534 l -12.00476,-12.00476 v -39.68534 z"
       style="fill:#ffa582;fill-opacity:1;fill-rule:nonzero;stroke:#000000;stroke-width:0.69739;stroke-linecap:round;stroke-linejoin:round;stroke-miterlimit:10;stroke-dasharray:none;stroke-opacity:1"
       transform="matrix(1.3333333,0,0,-1.3333333,194.84,100.62133)" />
    <path
       id="path47"
       d="m 67.3664,-119.72227 v 39.68534 h 45.35505 v -39.68534 H 67.3664"
       style="fill:#ffccb7;fill-opacity:1;fill-rule:nonzero;stroke:#000000;stroke-width:0.69739;stroke-linecap:round;stroke-linejoin:round;stroke-miterlimit:10;stroke-dasharray:none;stroke-opacity:1"
       transform="matrix(1.3333333,0,0,-1.3333333,194.84,100.62133)" />
    <path
       id="path48"
       d="M 79.37115,-68.03217 67.3664,-80.03693 h 45.35505 l 12.00476,12.00476 z"
       style="fill:#ffe5db;fill-opacity:1;fill-rule:nonzero;stroke:#000000;stroke-width:0.69739;stroke-linecap:round;stroke-linejoin:round;stroke-miterlimit:10;stroke-dasharray:none;stroke-opacity:1"
       transform="matrix(1.3333333,0,0,-1.3333333,194.84,100.62133)" />
    <path
       id="path49"
       d="M 18.42567,35.4335 V 75.11887 L 6.42091,63.1141 V 23.42876 Z"
       style="fill:#c6c153;fill-opacity:1;fill-rule:nonzero;stroke:#000000;stroke-width:0.69739;stroke-linecap:round;stroke-linejoin:round;stroke-miterlimit:10;stroke-dasharray:none;stroke-opacity:1"
       transform="matrix(1.3333333,0,0,-1.3333333,194.84,100.62133)" />
    <path
       id="path50"
       d="M -38.93413,23.42876 V 63.1141 H 6.42091 V 23.42876 h -45.35504"
       style="fill:#dedb9d;fill-opacity:1;fill-rule:nonzero;stroke:#000000;stroke-width:0.69739;stroke-linecap:round;stroke-linejoin:round;stroke-miterlimit:10;stroke-dasharray:none;stroke-opacity:1"
       transform="matrix(1.3333333,0,0,-1.3333333,194.84,100.62133)" />
    <path
       id="path51"
       d="M -26.92937,75.11887 -38.93413,63.1141 H 6.42091 l 12.00476,12.00477 z"
       style="fill:#efedce;fill-opacity:1;fill-rule:nonzero;stroke:#000000;stroke-width:0.69739;stroke-linecap:round;stroke-linejoin:round;stroke-miterlimit:10;stroke-dasharray:none;stroke-opacity:1"
       transform="matrix(1.3333333,0,0,-1.3333333,194.84,100.62133)" />
    <path
       id="path52"
       d="M -8.5037,8.50414 V 48.18948 L -20.50845,36.18472 V -3.50061 Z"
       style="fill:#c6c153;fill-opacity:1;fill-rule:nonzero;stroke:#000000;stroke-width:0.69739;stroke-linecap:round;stroke-linejoin:round;stroke-miterlimit:10;stroke-dasharray:none;stroke-opacity:1"
       transform="matrix(1.3333333,0,0,-1.3333333,194.84,100.62133)" />
    <path
       id="path53"
       d="m -65.86351,-3.50061 v 39.68533 h 45.35506 V -3.50061 h -45.35506"
       style="fill:#dedb9d;fill-opacity:1;fill-rule:nonzero;stroke:#000000;stroke-width:0.69739;stroke-linecap:round;stroke-linejoin:round;stroke-miterlimit:10;stroke-dasharray:none;stroke-opacity:1"
       transform="matrix(1.3333333,0,0,-1.3333333,194.84,100.62133)" />
    <path
       id="path54"
       d="M -53.85875,48.18948 -65.86351,36.18472 h 45.35506 L -8.5037,48.18948 Z"
       style="fill:#efedce;fill-opacity:1;fill-rule:nonzero;stroke:#000000;stroke-width:0.69739;stroke-linecap:round;stroke-linejoin:round;stroke-miterlimit:10;stroke-dasharray:none;stroke-opacity:1"
       transform="matrix(1.3333333,0,0,-1.3333333,194.84,100.62133)" />
    <path
       id="path55"
       d="M -35.43309,-18.42525 V 21.2601 L -47.43784,9.25534 v -39.68535 z"
       style="fill:#c6c153;fill-opacity:1;fill-rule:nonzero;stroke:#000000;stroke-width:0.69739;stroke-linecap:round;stroke-linejoin:round;stroke-miterlimit:10;stroke-dasharray:none;stroke-opacity:1"
       transform="matrix(1.3333333,0,0,-1.3333333,194.84,100.62133)" />
    <path
       id="path56"
       d="M -92.7929,-30.43001 V 9.25534 h 45.35506 V -30.43001 H -92.7929"
       style="fill:#dedb9d;fill-opacity:1;fill-rule:nonzero;stroke:#000000;stroke-width:0.69739;stroke-linecap:round;stroke-linejoin:round;stroke-miterlimit:10;stroke-dasharray:none;stroke-opacity:1"
       transform="matrix(1.3333333,0,0,-1.3333333,194.84,100.62133)" />
    <path
       id="path57"
       d="M -80.78815,21.2601 -92.7929,9.25534 h 45.35506 l 12.00475,12.00476 z"
       style="fill:#efedce;fill-opacity:1;fill-rule:nonzero;stroke:#000000;stroke-width:0.69739;stroke-linecap:round;stroke-linejoin:round;stroke-miterlimit:10;stroke-dasharray:none;stroke-opacity:1"
       transform="matrix(1.3333333,0,0,-1.3333333,194.84,100.62133)" />
    <path
       id="path58"
       d="M -62.36246,-45.35463 V -5.66927 L -74.36722,-17.67403 V -57.35939 Z"
       style="fill:#c6c153;fill-opacity:1;fill-rule:nonzero;stroke:#000000;stroke-width:0.69739;stroke-linecap:round;stroke-linejoin:round;stroke-miterlimit:10;stroke-dasharray:none;stroke-opacity:1"
       transform="matrix(1.3333333,0,0,-1.3333333,194.84,100.62133)" />
    <path
       id="path59"
       d="m -119.72227,-57.35939 v 39.68536 h 45.35505 v -39.68536 h -45.35505"
       style="fill:#dedb9d;fill-opacity:1;fill-rule:nonzero;stroke:#000000;stroke-width:0.69739;stroke-linecap:round;stroke-linejoin:round;stroke-miterlimit:10;stroke-dasharray:none;stroke-opacity:1"
       transform="matrix(1.3333333,0,0,-1.3333333,194.84,100.62133)" />
    <path
       id="path60"
       d="m -107.71751,-5.66927 -12.00476,-12.00476 h 45.35505 l 12.00476,12.00476 z"
       style="fill:#efedce;fill-opacity:1;fill-rule:nonzero;stroke:#000000;stroke-width:0.69739;stroke-linecap:round;stroke-linejoin:round;stroke-miterlimit:10;stroke-dasharray:none;stroke-opacity:1"
       transform="matrix(1.3333333,0,0,-1.3333333,194.84,100.62133)" />
    <path
       id="path61"
       d="M 80.78856,35.4335 V 75.11887 L 68.78381,63.1141 V 23.42876 Z"
       style="fill:#ffd2d2;fill-opacity:1;fill-rule:nonzero;stroke:#000000;stroke-width:0.69739;stroke-linecap:round;stroke-linejoin:round;stroke-miterlimit:10;stroke-dasharray:none;stroke-opacity:1"
       transform="matrix(1.3333333,0,0,-1.3333333,194.84,100.62133)" />
    <path
       id="path62"
       d="M 23.42876,23.42876 V 63.1141 H 68.78381 V 23.42876 H 23.42876"
       style="fill:#ffe6e6;fill-opacity:1;fill-rule:nonzero;stroke:#000000;stroke-width:0.69739;stroke-linecap:round;stroke-linejoin:round;stroke-miterlimit:10;stroke-dasharray:none;stroke-opacity:1"
       transform="matrix(1.3333333,0,0,-1.3333333,194.84,100.62133)" />
    <path
       id="path63"
       d="M 35.4335,75.11887 23.42876,63.1141 h 45.35505 l 12.00475,12.00477 z"
       style="fill:#fff2f2;fill-opacity:1;fill-rule:nonzero;stroke:#000000;stroke-width:0.69739;stroke-linecap:round;stroke-linejoin:round;stroke-miterlimit:10;stroke-dasharray:none;stroke-opacity:1"
       transform="matrix(1.3333333,0,0,-1.3333333,194.84,100.62133)" />
    <path
       id="path64"
       d="M 53.85919,8.50414 V 48.18948 L 41.85443,36.18472 V -3.50061 Z"
       style="fill:#ffd2d2;fill-opacity:1;fill-rule:nonzero;stroke:#000000;stroke-width:0.69739;stroke-linecap:round;stroke-linejoin:round;stroke-miterlimit:10;stroke-dasharray:none;stroke-opacity:1"
       transform="matrix(1.3333333,0,0,-1.3333333,194.84,100.62133)" />
    <path
       id="path65"
       d="M -3.50061,-3.50061 V 36.18472 H 41.85443 V -3.50061 H -3.50061"
       style="fill:#ffe6e6;fill-opacity:1;fill-rule:nonzero;stroke:#000000;stroke-width:0.69739;stroke-linecap:round;stroke-linejoin:round;stroke-miterlimit:10;stroke-dasharray:none;stroke-opacity:1"
       transform="matrix(1.3333333,0,0,-1.3333333,194.84,100.62133)" />
    <path
       id="path66"
       d="M 8.50414,48.18948 -3.50061,36.18472 h 45.35504 l 12.00476,12.00476 z"
       style="fill:#fff2f2;fill-opacity:1;fill-rule:nonzero;stroke:#000000;stroke-width:0.69739;stroke-linecap:round;stroke-linejoin:round;stroke-miterlimit:10;stroke-dasharray:none;stroke-opacity:1"
       transform="matrix(1.3333333,0,0,-1.3333333,194.84,100.62133)" />
    <path
       id="path67"
       d="M 26.9298,-18.42525 V 21.2601 L 14.92503,9.25534 v -39.68535 z"
       style="fill:#ffd2d2;fill-opacity:1;fill-rule:nonzero;stroke:#000000;stroke-width:0.69739;stroke-linecap:round;stroke-linejoin:round;stroke-miterlimit:10;stroke-dasharray:none;stroke-opacity:1"
       transform="matrix(1.3333333,0,0,-1.3333333,194.84,100.62133)" />
    <path
       id="path68"
       d="M -30.43001,-30.43001 V 9.25534 h 45.35504 v -39.68535 h -45.35504"
       style="fill:#ffe6e6;fill-opacity:1;fill-rule:nonzero;stroke:#000000;stroke-width:0.69739;stroke-linecap:round;stroke-linejoin:round;stroke-miterlimit:10;stroke-dasharray:none;stroke-opacity:1"
       transform="matrix(1.3333333,0,0,-1.3333333,194.84,100.62133)" />
    <path
       id="path69"
       d="M -18.42525,21.2601 -30.43001,9.25534 H 14.92503 L 26.9298,21.2601 Z"
       style="fill:#fff2f2;fill-opacity:1;fill-rule:nonzero;stroke:#000000;stroke-width:0.69739;stroke-linecap:round;stroke-linejoin:round;stroke-miterlimit:10;stroke-dasharray:none;stroke-opacity:1"
       transform="matrix(1.3333333,0,0,-1.3333333,194.84,100.62133)" />
    <path
       id="path70"
       d="M 4.1e-4,-45.35463 V -5.66927 L -12.00432,-17.67403 V -57.35939 Z"
       style="fill:#ffd2d2;fill-opacity:1;fill-rule:nonzero;stroke:#000000;stroke-width:0.69739;stroke-linecap:round;stroke-linejoin:round;stroke-miterlimit:10;stroke-dasharray:none;stroke-opacity:1"
       transform="matrix(1.3333333,0,0,-1.3333333,194.84,100.62133)" />
    <path
       id="path71"
       d="m -57.35939,-57.35939 v 39.68536 h 45.35507 v -39.68536 h -45.35507"
       style="fill:#ffe6e6;fill-opacity:1;fill-rule:nonzero;stroke:#000000;stroke-width:0.69739;stroke-linecap:round;stroke-linejoin:round;stroke-miterlimit:10;stroke-dasharray:none;stroke-opacity:1"
       transform="matrix(1.3333333,0,0,-1.3333333,194.84,100.62133)" />
    <path
       id="path72"
       d="m -45.35463,-5.66927 -12.00476,-12.00476 h 45.35507 L 4.1e-4,-5.66927 Z"
       style="fill:#fff2f2;fill-opacity:1;fill-rule:nonzero;stroke:#000000;stroke-width:0.69739;stroke-linecap:round;stroke-linejoin:round;stroke-miterlimit:10;stroke-dasharray:none;stroke-opacity:1"
       transform="matrix(1.3333333,0,0,-1.3333333,194.84,100.62133)" />
    <path
       id="path73"
       d="M 143.15146,35.4335 V 75.11887 L 131.1467,63.1141 V 23.42876 Z"
       style="fill:#82ff82;fill-opacity:1;fill-rule:nonzero;stroke:#000000;stroke-width:0.69739;stroke-linecap:round;stroke-linejoin:round;stroke-miterlimit:10;stroke-dasharray:none;stroke-opacity:1"
       transform="matrix(1.3333333,0,0,-1.3333333,194.84,100.62133)" />
    <path
       id="path74"
       d="M 85.79164,23.42876 V 63.1141 H 131.1467 V 23.42876 H 85.79164"
       style="fill:#b8ffb8;fill-opacity:1;fill-rule:nonzero;stroke:#000000;stroke-width:0.69739;stroke-linecap:round;stroke-linejoin:round;stroke-miterlimit:10;stroke-dasharray:none;stroke-opacity:1"
       transform="matrix(1.3333333,0,0,-1.3333333,194.84,100.62133)" />
    <path
       id="path75"
       d="M 97.7964,75.11887 85.79164,63.1141 h 45.35506 l 12.00476,12.00477 z"
       style="fill:#dbffdb;fill-opacity:1;fill-rule:nonzero;stroke:#000000;stroke-width:0.69739;stroke-linecap:round;stroke-linejoin:round;stroke-miterlimit:10;stroke-dasharray:none;stroke-opacity:1"
       transform="matrix(1.3333333,0,0,-1.3333333,194.84,100.62133)" />
    <path
       id="path76"
       d="M 116.22208,8.50414 V 48.18948 L 104.21732,36.18472 V -3.50061 Z"
       style="fill:#82ff82;fill-opacity:1;fill-rule:nonzero;stroke:#000000;stroke-width:0.69739;stroke-linecap:round;stroke-linejoin:round;stroke-miterlimit:10;stroke-dasharray:none;stroke-opacity:1"
       transform="matrix(1.3333333,0,0,-1.3333333,194.84,100.62133)" />
    <path
       id="path77"
       d="m 58.86226,-3.50061 v 39.68533 h 45.35506 V -3.50061 H 58.86226"
       style="fill:#b8ffb8;fill-opacity:1;fill-rule:nonzero;stroke:#000000;stroke-width:0.69739;stroke-linecap:round;stroke-linejoin:round;stroke-miterlimit:10;stroke-dasharray:none;stroke-opacity:1"
       transform="matrix(1.3333333,0,0,-1.3333333,194.84,100.62133)" />
    <path
       id="path78"
       d="M 70.86702,48.18948 58.86226,36.18472 h 45.35506 l 12.00476,12.00476 z"
       style="fill:#dbffdb;fill-opacity:1;fill-rule:nonzero;stroke:#000000;stroke-width:0.69739;stroke-linecap:round;stroke-linejoin:round;stroke-miterlimit:10;stroke-dasharray:none;stroke-opacity:1"
       transform="matrix(1.3333333,0,0,-1.3333333,194.84,100.62133)" />
    <path
       id="path79"
       d="M 89.2927,-18.42525 V 21.2601 L 77.28793,9.25534 v -39.68535 z"
       style="fill:#82ff82;fill-opacity:1;fill-rule:nonzero;stroke:#000000;stroke-width:0.69739;stroke-linecap:round;stroke-linejoin:round;stroke-miterlimit:10;stroke-dasharray:none;stroke-opacity:1"
       transform="matrix(1.3333333,0,0,-1.3333333,194.84,100.62133)" />
    <path
       id="path80"
       d="M 31.93288,-30.43001 V 9.25534 H 77.28793 V -30.43001 H 31.93288"
       style="fill:#b8ffb8;fill-opacity:1;fill-rule:nonzero;stroke:#000000;stroke-width:0.69739;stroke-linecap:round;stroke-linejoin:round;stroke-miterlimit:10;stroke-dasharray:none;stroke-opacity:1"
       transform="matrix(1.3333333,0,0,-1.3333333,194.84,100.62133)" />
    <path
       id="path81"
       d="M 43.93764,21.2601 31.93288,9.25534 H 77.28793 L 89.2927,21.2601 Z"
       style="fill:#dbffdb;fill-opacity:1;fill-rule:nonzero;stroke:#000000;stroke-width:0.69739;stroke-linecap:round;stroke-linejoin:round;stroke-miterlimit:10;stroke-dasharray:none;stroke-opacity:1"
       transform="matrix(1.3333333,0,0,-1.3333333,194.84,100.62133)" />
    <path
       id="path82"
       d="M 62.36331,-45.35463 V -5.66927 L 50.35855,-17.67403 v -39.68536 z"
       style="fill:#82ff82;fill-opacity:1;fill-rule:nonzero;stroke:#000000;stroke-width:0.69739;stroke-linecap:round;stroke-linejoin:round;stroke-miterlimit:10;stroke-dasharray:none;stroke-opacity:1"
       transform="matrix(1.3333333,0,0,-1.3333333,194.84,100.62133)" />
    <path
       id="path83"
       d="m 5.0035,-57.35939 v 39.68536 H 50.35855 V -57.35939 H 5.0035"
       style="fill:#b8ffb8;fill-opacity:1;fill-rule:nonzero;stroke:#000000;stroke-width:0.69739;stroke-linecap:round;stroke-linejoin:round;stroke-miterlimit:10;stroke-dasharray:none;stroke-opacity:1"
       transform="matrix(1.3333333,0,0,-1.3333333,194.84,100.62133)" />
    <path
       id="path84"
       d="M 17.00826,-5.66927 5.0035,-17.67403 h 45.35505 l 12.00476,12.00476 z"
       style="fill:#dbffdb;fill-opacity:1;fill-rule:nonzero;stroke:#000000;stroke-width:0.69739;stroke-linecap:round;stroke-linejoin:round;stroke-miterlimit:10;stroke-dasharray:none;stroke-opacity:1"
       transform="matrix(1.3333333,0,0,-1.3333333,194.84,100.62133)" />
    <path
       id="path85"
       d="M 205.51436,35.4335 V 75.11887 L 193.5096,63.1141 V 23.42876 Z"
       style="fill:#ff4c4c;fill-opacity:1;fill-rule:nonzero;stroke:#000000;stroke-width:0.69739;stroke-linecap:round;stroke-linejoin:round;stroke-miterlimit:10;stroke-dasharray:none;stroke-opacity:1"
       transform="matrix(1.3333333,0,0,-1.3333333,194.84,100.62133)" />
    <path
       id="path86"
       d="M 148.15454,23.42876 V 63.1141 H 193.5096 V 23.42876 h -45.35506"
       style="fill:#ff9999;fill-opacity:1;fill-rule:nonzero;stroke:#000000;stroke-width:0.69739;stroke-linecap:round;stroke-linejoin:round;stroke-miterlimit:10;stroke-dasharray:none;stroke-opacity:1"
       transform="matrix(1.3333333,0,0,-1.3333333,194.84,100.62133)" />
    <path
       id="path87"
       d="M 160.1593,75.11887 148.15454,63.1141 h 45.35506 l 12.00476,12.00477 z"
       style="fill:#ffcccc;fill-opacity:1;fill-rule:nonzero;stroke:#000000;stroke-width:0.69739;stroke-linecap:round;stroke-linejoin:round;stroke-miterlimit:10;stroke-dasharray:none;stroke-opacity:1"
       transform="matrix(1.3333333,0,0,-1.3333333,194.84,100.62133)" />
    <path
       id="path88"
       d="M 178.58498,8.50414 V 48.18948 L 166.58022,36.18472 V -3.50061 Z"
       style="fill:#ff4c4c;fill-opacity:1;fill-rule:nonzero;stroke:#000000;stroke-width:0.69739;stroke-linecap:round;stroke-linejoin:round;stroke-miterlimit:10;stroke-dasharray:none;stroke-opacity:1"
       transform="matrix(1.3333333,0,0,-1.3333333,194.84,100.62133)" />
    <path
       id="path89"
       d="m 121.22516,-3.50061 v 39.68533 h 45.35506 V -3.50061 h -45.35506"
       style="fill:#ff9999;fill-opacity:1;fill-rule:nonzero;stroke:#000000;stroke-width:0.69739;stroke-linecap:round;stroke-linejoin:round;stroke-miterlimit:10;stroke-dasharray:none;stroke-opacity:1"
       transform="matrix(1.3333333,0,0,-1.3333333,194.84,100.62133)" />
    <path
       id="path90"
       d="M 133.22992,48.18948 121.22516,36.18472 h 45.35506 l 12.00476,12.00476 z"
       style="fill:#ffcccc;fill-opacity:1;fill-rule:nonzero;stroke:#000000;stroke-width:0.69739;stroke-linecap:round;stroke-linejoin:round;stroke-miterlimit:10;stroke-dasharray:none;stroke-opacity:1"
       transform="matrix(1.3333333,0,0,-1.3333333,194.84,100.62133)" />
    <path
       id="path91"
       d="M 151.65558,-18.42525 V 21.2601 L 139.65082,9.25534 v -39.68535 z"
       style="fill:#ff4c4c;fill-opacity:1;fill-rule:nonzero;stroke:#000000;stroke-width:0.69739;stroke-linecap:round;stroke-linejoin:round;stroke-miterlimit:10;stroke-dasharray:none;stroke-opacity:1"
       transform="matrix(1.3333333,0,0,-1.3333333,194.84,100.62133)" />
    <path
       id="path92"
       d="M 94.29576,-30.43001 V 9.25534 h 45.35506 V -30.43001 H 94.29576"
       style="fill:#ff9999;fill-opacity:1;fill-rule:nonzero;stroke:#000000;stroke-width:0.69739;stroke-linecap:round;stroke-linejoin:round;stroke-miterlimit:10;stroke-dasharray:none;stroke-opacity:1"
       transform="matrix(1.3333333,0,0,-1.3333333,194.84,100.62133)" />
    <path
       id="path93"
       d="M 106.30052,21.2601 94.29576,9.25534 h 45.35506 l 12.00476,12.00476 z"
       style="fill:#ffcccc;fill-opacity:1;fill-rule:nonzero;stroke:#000000;stroke-width:0.69739;stroke-linecap:round;stroke-linejoin:round;stroke-miterlimit:10;stroke-dasharray:none;stroke-opacity:1"
       transform="matrix(1.3333333,0,0,-1.3333333,194.84,100.62133)" />
    <path
       id="path94"
       d="M 124.72621,-45.35463 V -5.66927 L 112.72145,-17.67403 V -57.35939 Z"
       style="fill:#ff4c4c;fill-opacity:1;fill-rule:nonzero;stroke:#000000;stroke-width:0.69739;stroke-linecap:round;stroke-linejoin:round;stroke-miterlimit:10;stroke-dasharray:none;stroke-opacity:1"
       transform="matrix(1.3333333,0,0,-1.3333333,194.84,100.62133)" />
    <path
       id="path95"
       d="m 67.3664,-57.35939 v 39.68536 h 45.35505 V -57.35939 H 67.3664"
       style="fill:#ff9999;fill-opacity:1;fill-rule:nonzero;stroke:#000000;stroke-width:0.69739;stroke-linecap:round;stroke-linejoin:round;stroke-miterlimit:10;stroke-dasharray:none;stroke-opacity:1"
       transform="matrix(1.3333333,0,0,-1.3333333,194.84,100.62133)" />
    <path
       id="path96"
       d="M 79.37115,-5.66927 67.3664,-17.67403 h 45.35505 l 12.00476,12.00476 z"
       style="fill:#ffcccc;fill-opacity:1;fill-rule:nonzero;stroke:#000000;stroke-width:0.69739;stroke-linecap:round;stroke-linejoin:round;stroke-miterlimit:10;stroke-dasharray:none;stroke-opacity:1"
       transform="matrix(1.3333333,0,0,-1.3333333,194.84,100.62133)" />
    <path
       id="path97"
       d="m 6.3501719,-3.4572266 h -2.71875 v 0.7382813 h 1.9921875 v 0.1875 c 0,1.1601562 -0.8671875,2.00390624 -2.0625,2.00390624 -0.65625,0 -1.2539063,-0.24609375 -1.640625,-0.66796874 -0.4335938,-0.46875 -0.6914063,-1.2421875 -0.6914063,-2.0507813 0,-1.6054687 0.9140625,-2.6601562 2.296875,-2.6601562 0.9960938,0 1.7109375,0.5039062 1.8867188,1.3476562 h 0.8554687 c -0.234375,-1.3242187 -1.2421875,-2.0859375 -2.7421875,-2.0859375 -0.796875,0 -1.4414062,0.2109375 -1.9453125,0.6328125 -0.76171872,0.6210938 -1.18359372,1.640625 -1.18359372,2.8125 0,2.0039063 1.21875002,3.41015629 2.98828122,3.41015629 0.890625,0 1.59375,-0.33984375 2.2382813,-1.04296875 l 0.1992187,0.8671875 h 0.5273438 z m 2.2792969,0.6914063 H 10.68025 c 0.515625,0 0.914063,-0.1523438 1.265625,-0.46875 0.386719,-0.3632813 0.5625,-0.7851563 0.5625,-1.3828125 0,-1.2304688 -0.726562,-1.921875 -2.015625,-1.921875 H 7.7974375 v 6.5390624875 h 0.8320313 z m 0,-0.7382813 v -2.296875 h 1.7343752 c 0.796875,0 1.277344,0.4335938 1.277344,1.1484375 0,0.7148438 -0.480469,1.1484375 -1.277344,1.1484375 z M 17.90193,-6.5392578 v 4.59375 c 0,0.8789062 -0.632813,1.41796874 -1.6875,1.41796874 -0.480469,0 -0.878907,-0.1171875 -1.183594,-0.33984375 C 14.702711,-1.1251953 14.550367,-1.4533203 14.550367,-1.9455078 v -4.59375 h -0.832031 v 4.59375 c 0,1.32421874 0.949219,2.15624999 2.496094,2.15624999 1.535156,0 2.519531,-0.84375 2.519531,-2.15624999 v -4.59375 z m 8.545898,5.75390624 h -3.339844 c 0.08203,-0.51562504 0.363282,-0.84375004 1.148438,-1.30078124 l 0.890625,-0.4921875 c 0.890625,-0.4804688 1.347656,-1.1367188 1.347656,-1.9101563 0,-0.5273437 -0.210937,-1.0195312 -0.597656,-1.3710937 -0.375,-0.3398438 -0.832031,-0.4921875 -1.441406,-0.4921875 -0.808594,0 -1.40625,0.28125 -1.757813,0.8203125 -0.222656,0.3398437 -0.316406,0.7382812 -0.339844,1.3828125 h 0.796875 c 0.02344,-0.4335938 0.07031,-0.6914063 0.1875,-0.9023438 0.199219,-0.3867187 0.609375,-0.609375 1.089844,-0.609375 0.714844,0 1.253906,0.5039063 1.253906,1.1835938 0,0.5039062 -0.292968,0.9375 -0.855468,1.2539062 l -0.832032,0.46875 c -1.324218,0.75 -1.710937,1.359375 -1.78125,2.7539062875 h 4.230469 z m 3.955078,-2.55468754 c 0.65625,-0.3984375 0.867188,-0.7265625 0.867188,-1.3242187 0,-0.9960938 -0.773438,-1.6875 -1.910157,-1.6875 -1.113281,0 -1.910156,0.6914062 -1.910156,1.6875 0,0.5976562 0.222656,0.9140625 0.867188,1.3242187 -0.726563,0.3398438 -1.089844,0.8789063 -1.089844,1.5703125 0,1.17187504 0.878906,1.98046879 2.132812,1.98046879 1.253907,0 2.132813,-0.80859375 2.132813,-1.96874999 0,-0.703125 -0.351563,-1.2421875 -1.089844,-1.5820313 z m -1.042969,-2.3203125 c 0.679688,0 1.101563,0.3984375 1.101563,1.0195313 0,0.5859375 -0.433594,0.984375 -1.101563,0.984375 -0.65625,0 -1.101562,-0.3984375 -1.101562,-0.9960938 0,-0.609375 0.445312,-1.0078125 1.101562,-1.0078125 z m 0,2.6601563 c 0.796875,0 1.335938,0.5039062 1.335938,1.2539062 0,0.75000004 -0.539063,1.25390629 -1.347656,1.25390629 -0.773438,0 -1.3125,-0.51562499 -1.3125,-1.25390629 0,-0.75 0.539062,-1.2539062 1.324218,-1.2539062 z m 0,0"
       style="fill:#000000;fill-opacity:1;fill-rule:nonzero;stroke:none"
       aria-label="GPU28"
       transform="matrix(1.3333333,0,0,1.3333333,293.63467,238.06667)" />
    <path
       id="path98"
       d="m 6.3504219,-3.4565547 h -2.71875 v 0.7382813 h 1.9921875 v 0.1875 c 0,1.1601562 -0.8671875,2.00390621 -2.0625,2.00390621 -0.65625,0 -1.2539063,-0.24609375 -1.640625,-0.66796871 -0.4335938,-0.46875 -0.6914063,-1.2421875 -0.6914063,-2.0507813 0,-1.6054687 0.9140625,-2.6601562 2.296875,-2.6601562 0.9960938,0 1.7109375,0.5039062 1.8867188,1.3476562 h 0.8554687 c -0.234375,-1.3242187 -1.2421875,-2.0859375 -2.7421875,-2.0859375 -0.796875,0 -1.4414062,0.2109375 -1.9453125,0.6328125 -0.76171872,0.6210938 -1.18359372,1.640625 -1.18359372,2.8125 0,2.0039063 1.21875002,3.41015626 2.98828122,3.41015626 0.890625,0 1.59375,-0.33984375 2.2382813,-1.04296875 l 0.1992187,0.8671875 h 0.5273438 z m 2.2763672,0.6914063 H 10.67757 c 0.515625,0 0.914063,-0.1523438 1.265625,-0.46875 0.386719,-0.3632813 0.5625,-0.7851563 0.5625,-1.3828125 0,-1.2304688 -0.726562,-1.921875 -2.015625,-1.921875 H 7.7947578 V 4.765625e-4 h 0.8320313 z m 0,-0.7382813 v -2.296875 h 1.7343749 c 0.796875,0 1.277344,0.4335938 1.277344,1.1484375 0,0.7148438 -0.480469,1.1484375 -1.277344,1.1484375 z M 17.90218,-6.5385859 v 4.59375 c 0,0.8789062 -0.632813,1.41796871 -1.6875,1.41796871 -0.480469,0 -0.878907,-0.1171875 -1.183594,-0.33984375 C 14.702961,-1.1245234 14.550617,-1.4526484 14.550617,-1.9448359 v -4.59375 h -0.832031 v 4.59375 c 0,1.32421871 0.949219,2.15624996 2.496094,2.15624996 1.535156,0 2.519531,-0.84375 2.519531,-2.15624996 v -4.59375 z m 6.480468,0.1875 c -0.585937,0 -1.125,0.2578125 -1.453125,0.6914062 -0.421875,0.5625 -0.621093,1.40625 -0.621093,2.5898438 0,2.13281246 0.714843,3.28124996 2.074218,3.28124996 1.347657,0 2.085938,-1.1484375 2.085938,-3.23437496 0,-1.2304688 -0.199219,-2.0625 -0.621094,-2.6367188 -0.328125,-0.4453125 -0.855469,-0.6914062 -1.464844,-0.6914062 z m 0,0.6914062 c 0.855469,0 1.277344,0.8671875 1.277344,2.5664063 0,1.8046875 -0.410156,2.64843746 -1.289062,2.64843746 -0.832032,0 -1.253907,-0.87890626 -1.253907,-2.62499996 0,-1.734375 0.421875,-2.5898438 1.265625,-2.5898438 z m 0,0"
       style="fill:#000000;fill-opacity:1;fill-rule:nonzero;stroke:none"
       aria-label="GPU0"
       transform="matrix(1.3333333,0,0,1.3333333,47.509333,154.91733)" />
    <path
       id="path99"
       d="m 6.3526797,-3.4565547 h -2.71875 v 0.7382813 h 1.9921875 v 0.1875 c 0,1.1601562 -0.8671875,2.00390621 -2.0625,2.00390621 -0.65625,0 -1.2539063,-0.24609375 -1.640625,-0.66796871 -0.4335938,-0.46875 -0.6914063,-1.2421875 -0.6914063,-2.0507813 0,-1.6054687 0.9140625,-2.6601562 2.296875,-2.6601562 0.9960938,0 1.7109375,0.5039062 1.8867188,1.3476562 h 0.8554687 c -0.234375,-1.3242187 -1.2421875,-2.0859375 -2.7421875,-2.0859375 -0.796875,0 -1.4414062,0.2109375 -1.9453125,0.6328125 -0.76171871,0.6210938 -1.18359371,1.640625 -1.18359371,2.8125 0,2.0039063 1.21875001,3.41015626 2.98828121,3.41015626 0.890625,0 1.59375,-0.33984375 2.2382813,-1.04296875 l 0.1992187,0.8671875 h 0.5273438 z m 2.2763672,0.6914063 h 2.0507811 c 0.515625,0 0.914063,-0.1523438 1.265625,-0.46875 0.386719,-0.3632813 0.5625,-0.7851563 0.5625,-1.3828125 0,-1.2304688 -0.726562,-1.921875 -2.015625,-1.921875 H 7.7970156 V 4.765625e-4 h 0.8320313 z m 0,-0.7382813 v -2.296875 h 1.7343751 c 0.796875,0 1.277344,0.4335938 1.277344,1.1484375 0,0.7148438 -0.480469,1.1484375 -1.277344,1.1484375 z m 9.2724611,-3.0351562 v 4.59375 c 0,0.8789062 -0.632813,1.41796871 -1.6875,1.41796871 -0.480469,0 -0.878906,-0.1171875 -1.183594,-0.33984375 C 14.702289,-1.1245234 14.549945,-1.4526484 14.549945,-1.9448359 v -4.59375 h -0.832031 v 4.59375 c 0,1.32421871 0.949219,2.15624996 2.496094,2.15624996 1.535156,0 2.519531,-0.84375 2.519531,-2.15624996 v -4.59375 z m 7.526367,3.1992187 c 0.65625,-0.3984375 0.867188,-0.7265625 0.867188,-1.3242187 0,-0.9960938 -0.773438,-1.6875 -1.910157,-1.6875 -1.113281,0 -1.910156,0.6914062 -1.910156,1.6875 0,0.5976562 0.222656,0.9140625 0.867188,1.3242187 -0.726563,0.3398438 -1.089844,0.8789063 -1.089844,1.5703125 0,1.17187501 0.878906,1.98046876 2.132812,1.98046876 1.253907,0 2.132813,-0.80859375 2.132813,-1.96874996 0,-0.703125 -0.351563,-1.2421875 -1.089844,-1.5820313 z m -1.042969,-2.3203125 c 0.679688,0 1.101563,0.3984375 1.101563,1.0195313 0,0.5859375 -0.433594,0.984375 -1.101563,0.984375 -0.65625,0 -1.101562,-0.3984375 -1.101562,-0.9960938 0,-0.609375 0.445312,-1.0078125 1.101562,-1.0078125 z m 0,2.6601563 c 0.796875,0 1.335938,0.5039062 1.335938,1.2539062 0,0.75000001 -0.539063,1.25390626 -1.347656,1.25390626 -0.773438,0 -1.3125,-0.51562496 -1.3125,-1.25390626 0,-0.75 0.539062,-1.2539062 1.324218,-1.2539062 z m 0,0"
       style="fill:#000000;fill-opacity:1;fill-rule:nonzero;stroke:none"
       aria-label="GPU8"
       transform="matrix(1.3333333,0,0,1.3333333,130.65867,154.91733)" />
    <path
       id="path100"
       d="m 6.3508438,-3.4565547 h -2.71875 v 0.7382813 h 1.9921875 v 0.1875 c 0,1.1601562 -0.8671875,2.00390621 -2.0625,2.00390621 -0.65625,0 -1.2539063,-0.24609375 -1.640625,-0.66796871 C 1.4875625,-1.6635859 1.22975,-2.4370234 1.22975,-3.2456172 c 0,-1.6054687 0.9140625,-2.6601562 2.296875,-2.6601562 0.9960938,0 1.7109375,0.5039062 1.8867188,1.3476562 H 6.2688125 C 6.0344375,-5.8823359 5.026625,-6.6440547 3.526625,-6.6440547 c -0.796875,0 -1.4414062,0.2109375 -1.9453125,0.6328125 -0.76171875,0.6210938 -1.18359375,1.640625 -1.18359375,2.8125 0,2.0039063 1.21875005,3.41015626 2.98828125,3.41015626 0.890625,0 1.59375,-0.33984375 2.2382813,-1.04296875 L 5.8235,0.03563281 h 0.5273438 z m 2.2763671,0.6914063 h 2.0507811 c 0.515625,0 0.914063,-0.1523438 1.265625,-0.46875 0.386719,-0.3632813 0.5625,-0.7851563 0.5625,-1.3828125 0,-1.2304688 -0.726562,-1.921875 -2.015625,-1.921875 H 7.7951797 V 4.765625e-4 h 0.8320312 z m 0,-0.7382813 v -2.296875 h 1.7343751 c 0.796875,0 1.277344,0.4335938 1.277344,1.1484375 0,0.7148438 -0.480469,1.1484375 -1.277344,1.1484375 z m 9.2753911,-3.0351562 v 4.59375 c 0,0.8789062 -0.632813,1.41796871 -1.6875,1.41796871 -0.480469,0 -0.878907,-0.1171875 -1.183594,-0.33984375 C 14.703383,-1.1245234 14.551039,-1.4526484 14.551039,-1.9448359 v -4.59375 h -0.832031 v 4.59375 c 0,1.32421871 0.949219,2.15624996 2.496094,2.15624996 1.535156,0 2.519531,-0.84375 2.519531,-2.15624996 v -4.59375 z m 6.331054,2.015625 V 4.765625e-4 h 0.785157 V -6.3510859 h -0.515625 c -0.28125,0.9726562 -0.457032,1.1015625 -1.675782,1.2539062 v 0.5742188 z m 7.13086,-0.1757813 c -0.152344,-1.0429687 -0.832032,-1.6523437 -1.804688,-1.6523437 -0.691406,0 -1.324219,0.3398437 -1.699219,0.9023437 -0.398437,0.6210938 -0.574218,1.3945313 -0.574218,2.5546875 0,1.0664063 0.164062,1.7460938 0.539062,2.30859376 0.339844,0.515625 0.890625,0.796875 1.59375,0.796875 1.207031,0 2.074219,-0.90234375 2.074219,-2.14453126 0,-1.1835937 -0.796875,-2.015625 -1.945313,-2.015625 -0.621093,0 -1.113281,0.234375 -1.453125,0.703125 0.01172,-1.546875 0.503907,-2.4140625 1.417969,-2.4140625 0.550781,0 0.9375,0.3515625 1.066406,0.9609375 z m -1.910157,1.4414063 c 0.761719,0 1.242188,0.5273437 1.242188,1.3828125 0,0.796875 -0.539063,1.38281246 -1.265625,1.38281246 -0.738281,0 -1.289063,-0.60937496 -1.289063,-1.42968746 0,-0.7851563 0.527344,-1.3359375 1.3125,-1.3359375 z m 0,0"
       style="fill:#000000;fill-opacity:1;fill-rule:nonzero;stroke:none"
       aria-label="GPU16"
       transform="matrix(1.3333333,0,0,1.3333333,210.48533,154.91733)" />
    <path
       id="path101"
       d="m 6.3501719,-3.4565547 h -2.71875 v 0.7382813 h 1.9921875 v 0.1875 c 0,1.1601562 -0.8671875,2.00390621 -2.0625,2.00390621 -0.65625,0 -1.2539063,-0.24609375 -1.640625,-0.66796871 -0.4335938,-0.46875 -0.6914063,-1.2421875 -0.6914063,-2.0507813 0,-1.6054687 0.9140625,-2.6601562 2.296875,-2.6601562 0.9960938,0 1.7109375,0.5039062 1.8867188,1.3476562 h 0.8554687 c -0.234375,-1.3242187 -1.2421875,-2.0859375 -2.7421875,-2.0859375 -0.796875,0 -1.4414062,0.2109375 -1.9453125,0.6328125 -0.76171872,0.6210938 -1.18359372,1.640625 -1.18359372,2.8125 0,2.0039063 1.21875002,3.41015626 2.98828122,3.41015626 0.890625,0 1.59375,-0.33984375 2.2382813,-1.04296875 l 0.1992187,0.8671875 h 0.5273438 z m 2.2792969,0.6914063 H 10.68025 c 0.515625,0 0.914063,-0.1523438 1.265625,-0.46875 0.386719,-0.3632813 0.5625,-0.7851563 0.5625,-1.3828125 0,-1.2304688 -0.726562,-1.921875 -2.015625,-1.921875 H 7.7974375 V 4.765625e-4 h 0.8320313 z m 0,-0.7382813 v -2.296875 h 1.7343752 c 0.796875,0 1.277344,0.4335938 1.277344,1.1484375 0,0.7148438 -0.480469,1.1484375 -1.277344,1.1484375 z M 17.90193,-6.5385859 v 4.59375 c 0,0.8789062 -0.632813,1.41796871 -1.6875,1.41796871 -0.480469,0 -0.878907,-0.1171875 -1.183594,-0.33984375 C 14.702711,-1.1245234 14.550367,-1.4526484 14.550367,-1.9448359 v -4.59375 h -0.832031 v 4.59375 c 0,1.32421871 0.949219,2.15624996 2.496094,2.15624996 1.535156,0 2.519531,-0.84375 2.519531,-2.15624996 v -4.59375 z m 8.545898,5.75390621 h -3.339844 c 0.08203,-0.51562501 0.363282,-0.84375001 1.148438,-1.30078121 l 0.890625,-0.4921875 c 0.890625,-0.4804688 1.347656,-1.1367188 1.347656,-1.9101563 0,-0.5273437 -0.210937,-1.0195312 -0.597656,-1.3710937 -0.375,-0.3398438 -0.832031,-0.4921875 -1.441406,-0.4921875 -0.808594,0 -1.40625,0.28125 -1.757813,0.8203125 -0.222656,0.3398437 -0.316406,0.7382812 -0.339844,1.3828125 h 0.796875 c 0.02344,-0.4335938 0.07031,-0.6914063 0.1875,-0.9023438 0.199219,-0.3867187 0.609375,-0.609375 1.089844,-0.609375 0.714844,0 1.253906,0.5039063 1.253906,1.1835938 0,0.5039062 -0.292968,0.9375 -0.855468,1.2539062 l -0.832032,0.46875 c -1.324218,0.75 -1.710937,1.359375 -1.78125,2.7539062625 h 4.230469 z M 29.828687,-1.5229609 V 4.765625e-4 h 0.785157 V -1.5229609 h 0.949218 v -0.703125 h -0.949218 v -4.125 h -0.574219 l -2.894531,3.9960937 v 0.8320313 z m 0,-0.703125 H 27.8365 l 1.992187,-2.7890625 z m 0,0"
       style="fill:#000000;fill-opacity:1;fill-rule:nonzero;stroke:none"
       aria-label="GPU24"
       transform="matrix(1.3333333,0,0,1.3333333,293.63467,154.91733)" />
    <path
       id="path102"
       d="m 6.3504219,-3.4572266 h -2.71875 v 0.7382813 h 1.9921875 v 0.1875 c 0,1.1601562 -0.8671875,2.00390624 -2.0625,2.00390624 -0.65625,0 -1.2539063,-0.24609375 -1.640625,-0.66796874 -0.4335938,-0.46875 -0.6914063,-1.2421875 -0.6914063,-2.0507813 0,-1.6054687 0.9140625,-2.6601562 2.296875,-2.6601562 0.9960938,0 1.7109375,0.5039062 1.8867188,1.3476562 h 0.8554687 c -0.234375,-1.3242187 -1.2421875,-2.0859375 -2.7421875,-2.0859375 -0.796875,0 -1.4414062,0.2109375 -1.9453125,0.6328125 -0.76171872,0.6210938 -1.18359372,1.640625 -1.18359372,2.8125 0,2.0039063 1.21875002,3.41015629 2.98828122,3.41015629 0.890625,0 1.59375,-0.33984375 2.2382813,-1.04296875 l 0.1992187,0.8671875 h 0.5273438 z m 2.2763672,0.6914063 H 10.67757 c 0.515625,0 0.914063,-0.1523438 1.265625,-0.46875 0.386719,-0.3632813 0.5625,-0.7851563 0.5625,-1.3828125 0,-1.2304688 -0.726562,-1.921875 -2.015625,-1.921875 H 7.7947578 v 6.5390624875 h 0.8320313 z m 0,-0.7382813 v -2.296875 h 1.7343749 c 0.796875,0 1.277344,0.4335938 1.277344,1.1484375 0,0.7148438 -0.480469,1.1484375 -1.277344,1.1484375 z M 17.90218,-6.5392578 v 4.59375 c 0,0.8789062 -0.632813,1.41796874 -1.6875,1.41796874 -0.480469,0 -0.878907,-0.1171875 -1.183594,-0.33984375 C 14.702961,-1.1251953 14.550617,-1.4533203 14.550617,-1.9455078 v -4.59375 h -0.832031 v 4.59375 c 0,1.32421874 0.949219,2.15624999 2.496094,2.15624999 1.535156,0 2.519531,-0.84375 2.519531,-2.15624999 v -4.59375 z m 6.949218,5.015625 v 1.5234374875 h 0.785157 V -1.5236328 h 0.949218 v -0.703125 h -0.949218 v -4.125 h -0.574219 l -2.894531,3.9960937 v 0.8320313 z m 0,-0.703125 h -1.992187 l 1.992187,-2.7890625 z m 0,0"
       style="fill:#000000;fill-opacity:1;fill-rule:nonzero;stroke:none"
       aria-label="GPU4"
       transform="matrix(1.3333333,0,0,1.3333333,47.509333,238.06667)" />
    <path
       id="path103"
       d="m 6.3515156,-3.4572266 h -2.71875 v 0.7382813 h 1.9921875 v 0.1875 c 0,1.1601562 -0.8671875,2.00390624 -2.0625,2.00390624 -0.65625,0 -1.2539062,-0.24609375 -1.640625,-0.66796874 -0.4335937,-0.46875 -0.6914062,-1.2421875 -0.6914062,-2.0507813 0,-1.6054687 0.9140625,-2.6601562 2.296875,-2.6601562 0.9960937,0 1.7109375,0.5039062 1.8867187,1.3476562 h 0.8554688 c -0.234375,-1.3242187 -1.2421875,-2.0859375 -2.7421875,-2.0859375 -0.796875,0 -1.4414063,0.2109375 -1.9453125,0.6328125 -0.76171877,0.6210938 -1.18359377,1.640625 -1.18359377,2.8125 0,2.0039063 1.21874997,3.41015629 2.98828127,3.41015629 0.890625,0 1.59375,-0.33984375 2.2382812,-1.04296875 l 0.1992188,0.8671875 h 0.5273437 z m 2.2763672,0.6914063 h 2.0507812 c 0.515625,0 0.914063,-0.1523438 1.265625,-0.46875 0.386719,-0.3632813 0.5625,-0.7851563 0.5625,-1.3828125 0,-1.2304688 -0.726562,-1.921875 -2.015625,-1.921875 H 7.7958516 v 6.5390624875 h 0.8320312 z m 0,-0.7382813 v -2.296875 h 1.7343752 c 0.796875,0 1.277344,0.4335938 1.277344,1.1484375 0,0.7148438 -0.480469,1.1484375 -1.277344,1.1484375 z m 9.2724612,-3.0351562 v 4.59375 c 0,0.8789062 -0.632813,1.41796874 -1.6875,1.41796874 -0.480469,0 -0.878906,-0.1171875 -1.183594,-0.33984375 C 14.701125,-1.1251953 14.548781,-1.4533203 14.548781,-1.9455078 v -4.59375 H 13.71675 v 4.59375 c 0,1.32421874 0.949219,2.15624999 2.496094,2.15624999 1.535156,0 2.519531,-0.84375 2.519531,-2.15624999 v -4.59375 z m 6.333984,2.015625 v 4.5234374875 h 0.785156 V -6.3517578 h -0.515625 c -0.28125,0.9726562 -0.457031,1.1015625 -1.675781,1.2539062 v 0.5742188 z m 7.201172,3.73828124 h -3.339844 c 0.08203,-0.51562504 0.363282,-0.84375004 1.148438,-1.30078124 l 0.890625,-0.4921875 c 0.890625,-0.4804688 1.347656,-1.1367188 1.347656,-1.9101563 0,-0.5273437 -0.210937,-1.0195312 -0.597656,-1.3710937 -0.375,-0.3398438 -0.832031,-0.4921875 -1.441406,-0.4921875 -0.808594,0 -1.40625,0.28125 -1.757813,0.8203125 -0.222656,0.3398437 -0.316406,0.7382812 -0.339844,1.3828125 h 0.796875 c 0.02344,-0.4335938 0.07031,-0.6914063 0.1875,-0.9023438 0.199219,-0.3867187 0.609375,-0.609375 1.089844,-0.609375 0.714844,0 1.253906,0.5039063 1.253906,1.1835938 0,0.5039062 -0.292968,0.9375 -0.855468,1.2539062 l -0.832032,0.46875 c -1.324218,0.75 -1.710937,1.359375 -1.78125,2.7539062875 H 31.4355 Z m 0,0"
       style="fill:#000000;fill-opacity:1;fill-rule:nonzero;stroke:none"
       aria-label="GPU12"
       transform="matrix(1.3333333,0,0,1.3333333,127.336,238.06667)" />
    <path
       id="path104"
       d="m 6.3508438,-3.4572266 h -2.71875 v 0.7382813 h 1.9921875 v 0.1875 c 0,1.1601562 -0.8671875,2.00390624 -2.0625,2.00390624 -0.65625,0 -1.2539063,-0.24609375 -1.640625,-0.66796874 C 1.4875625,-1.6642578 1.22975,-2.4376953 1.22975,-3.2462891 c 0,-1.6054687 0.9140625,-2.6601562 2.296875,-2.6601562 0.9960938,0 1.7109375,0.5039062 1.8867188,1.3476562 H 6.2688125 C 6.0344375,-5.8830078 5.026625,-6.6447266 3.526625,-6.6447266 c -0.796875,0 -1.4414062,0.2109375 -1.9453125,0.6328125 -0.76171875,0.6210938 -1.18359375,1.640625 -1.18359375,2.8125 0,2.0039063 1.21875005,3.41015629 2.98828125,3.41015629 0.890625,0 1.59375,-0.33984375 2.2382813,-1.04296875 L 5.8235,0.03496094 h 0.5273438 z m 2.2763671,0.6914063 h 2.0507811 c 0.515625,0 0.914063,-0.1523438 1.265625,-0.46875 0.386719,-0.3632813 0.5625,-0.7851563 0.5625,-1.3828125 0,-1.2304688 -0.726562,-1.921875 -2.015625,-1.921875 H 7.7951797 v 6.5390624875 h 0.8320312 z m 0,-0.7382813 v -2.296875 h 1.7343751 c 0.796875,0 1.277344,0.4335938 1.277344,1.1484375 0,0.7148438 -0.480469,1.1484375 -1.277344,1.1484375 z m 9.2753911,-3.0351562 v 4.59375 c 0,0.8789062 -0.632813,1.41796874 -1.6875,1.41796874 -0.480469,0 -0.878907,-0.1171875 -1.183594,-0.33984375 C 14.703383,-1.1251953 14.551039,-1.4533203 14.551039,-1.9455078 v -4.59375 h -0.832031 v 4.59375 c 0,1.32421874 0.949219,2.15624999 2.496094,2.15624999 1.535156,0 2.519531,-0.84375 2.519531,-2.15624999 v -4.59375 z m 8.545898,5.75390624 h -3.339844 c 0.08203,-0.51562504 0.363282,-0.84375004 1.148438,-1.30078124 l 0.890625,-0.4921875 c 0.890625,-0.4804688 1.347656,-1.1367188 1.347656,-1.9101563 0,-0.5273437 -0.210937,-1.0195312 -0.597656,-1.3710937 -0.375,-0.3398438 -0.832031,-0.4921875 -1.441406,-0.4921875 -0.808594,0 -1.40625,0.28125 -1.757813,0.8203125 -0.222656,0.3398437 -0.316406,0.7382812 -0.339844,1.3828125 h 0.796875 c 0.02344,-0.4335938 0.07031,-0.6914063 0.1875,-0.9023438 0.199219,-0.3867187 0.609375,-0.609375 1.089844,-0.609375 0.714844,0 1.253906,0.5039063 1.253906,1.1835938 0,0.5039062 -0.292968,0.9375 -0.855468,1.2539062 l -0.832032,0.46875 c -1.324218,0.75 -1.710937,1.359375 -1.78125,2.7539062875 H 26.4485 Z m 2.912109,-5.56640624 c -0.585937,0 -1.125,0.2578125 -1.453125,0.6914062 -0.421875,0.5625 -0.621093,1.40625 -0.621093,2.5898438 0,2.13281249 0.714843,3.28124999 2.074218,3.28124999 1.347657,0 2.085938,-1.1484375 2.085938,-3.23437499 0,-1.2304688 -0.199219,-2.0625 -0.621094,-2.6367188 -0.328125,-0.4453125 -0.855469,-0.6914062 -1.464844,-0.6914062 z m 0,0.6914062 c 0.855469,0 1.277344,0.8671875 1.277344,2.5664063 0,1.8046875 -0.410156,2.64843749 -1.289062,2.64843749 -0.832032,0 -1.253907,-0.87890629 -1.253907,-2.62499999 0,-1.734375 0.421875,-2.5898438 1.265625,-2.5898438 z m 0,0"
       style="fill:#000000;fill-opacity:1;fill-rule:nonzero;stroke:none"
       aria-label="GPU20"
       transform="matrix(1.3333333,0,0,1.3333333,210.48533,238.06667)" />
    <path
       id="path105"
       d="m -119.72227,-125.39163 c 0.74717,-1.49443 2.49069,-2.49069 4.98138,-2.49069 H -8.4818 c 2.4907,0 4.23421,-0.99627 4.98139,-2.4907 0.74718,1.49443 2.49069,2.4907 4.98137,2.4907 h 106.25911 c 2.49069,0 4.2342,0.99626 4.98138,2.49069"
       style="fill:none;stroke:#000000;stroke-width:0.79701;stroke-linecap:round;stroke-linejoin:round;stroke-miterlimit:10;stroke-dasharray:none;stroke-opacity:1"
       transform="matrix(1.3333333,0,0,-1.3333333,194.84,100.62133)" />
    <path
       id="path106"
       d="m 1.6512344,-2.7658125 h 2.0507812 c 0.515625,0 0.9140625,-0.1523438 1.265625,-0.46875 0.3867188,-0.3632813 0.5625,-0.7851563 0.5625,-1.3828125 0,-1.2304688 -0.7265625,-1.921875 -2.015625,-1.921875 H 0.81920313 V -1.875e-4 H 1.6512344 Z m 0,-0.7382813 v -2.296875 h 1.734375 c 0.796875,0 1.2773437,0.4335938 1.2773437,1.1484375 0,0.7148438 -0.4804687,1.1484375 -1.2773437,1.1484375 z m 5.6777344,-1.1953125 h -0.75 v 4.6992188 h 0.75 z m 0,-1.8398437 H 6.56725 v 0.9492187 H 7.3289688 Z M 8.4510391,1.9568437 H 9.2127578 V -0.492375 c 0.3867188,0.48046875 0.8320312,0.703125 1.4414062,0.703125 1.207031,0 2.003906,-0.984375 2.003906,-2.484375 0,-1.5703125 -0.773437,-2.5546875 -2.015625,-2.5546875 -0.632812,0 -1.1484372,0.28125 -1.4999997,0.84375 V -4.6994063 H 8.4510391 Z m 2.0624999,-6.09375 c 0.832031,0 1.371094,0.7265625 1.371094,1.8515625 0,1.0664063 -0.550781,1.7929688 -1.371094,1.7929688 -0.7851562,0 -1.3007812,-0.7148438 -1.3007812,-1.8164063 0,-1.1015625 0.515625,-1.828125 1.3007812,-1.828125 z m 7.037109,2.0390625 c 0,-0.7148437 -0.04687,-1.1484375 -0.1875,-1.5 -0.304687,-0.7734375 -1.019531,-1.2304687 -1.898437,-1.2304687 -1.300781,0 -2.144531,0.9960937 -2.144531,2.5429687 0,1.54687505 0.808593,2.4960938 2.132812,2.4960938 1.066406,0 1.816406,-0.609375 2.003906,-1.640625 h -0.75 c -0.210937,0.62109375 -0.632812,0.94921875 -1.230468,0.94921875 -0.480469,0 -0.878907,-0.22265625 -1.125,-0.60937505 -0.1875,-0.2695312 -0.246094,-0.5390625 -0.257813,-1.0078125 z m -3.433593,-0.609375 c 0.05859,-0.8671875 0.585937,-1.4296875 1.335937,-1.4296875 0.738281,0 1.300781,0.609375 1.300781,1.3710938 0,0.023437 0,0.035156 0,0.058594 z M 19.299672,-6.53925 h -0.75 v 6.5390625 h 0.75 z m 1.980469,1.8398437 h -0.75 v 4.6992188 h 0.75 z m 0,-1.8398437 h -0.761719 v 0.9492187 h 0.761719 z m 1.274414,1.8398437 v 4.6992188 h 0.75 v -2.5898438 c 0,-0.9609375 0.503906,-1.5820312 1.265625,-1.5820312 0.597656,0 0.972656,0.3515625 0.972656,0.9140625 v 3.2578125 h 0.75 v -3.5507813 c 0,-0.7734375 -0.585938,-1.2773437 -1.488281,-1.2773437 -0.703125,0 -1.148438,0.2695312 -1.570313,0.9140625 v -0.7851563 z m 8.947265,2.6015625 c 0,-0.7148437 -0.04687,-1.1484375 -0.1875,-1.5 -0.304687,-0.7734375 -1.019531,-1.2304687 -1.898437,-1.2304687 -1.300781,0 -2.144531,0.9960937 -2.144531,2.5429687 0,1.54687505 0.808593,2.4960938 2.132812,2.4960938 1.066406,0 1.816406,-0.609375 2.003906,-1.640625 h -0.75 c -0.210937,0.62109375 -0.632812,0.94921875 -1.230468,0.94921875 -0.480469,0 -0.878907,-0.22265625 -1.125,-0.60937505 -0.1875,-0.2695312 -0.246094,-0.5390625 -0.257813,-1.0078125 z m -3.433593,-0.609375 c 0.05859,-0.8671875 0.585937,-1.4296875 1.335937,-1.4296875 0.738281,0 1.300781,0.609375 1.300781,1.3710938 0,0.023437 0,0.035156 0,0.058594 z m 7.959961,-0.058594 h 2.050781 c 0.515625,0 0.914062,-0.1523438 1.265625,-0.46875 0.386719,-0.3632813 0.5625,-0.7851563 0.5625,-1.3828125 0,-1.2304688 -0.726563,-1.921875 -2.015625,-1.921875 h -2.695313 v 6.5390625 h 0.832032 z m 0,-0.7382813 v -2.296875 h 1.734375 c 0.796875,0 1.277343,0.4335938 1.277343,1.1484375 0,0.7148438 -0.480468,1.1484375 -1.277343,1.1484375 z m 8.771484,3.07031255 c -0.08203,0.0117188 -0.117188,0.0117188 -0.152344,0.0117188 -0.269531,0 -0.410156,-0.12890625 -0.410156,-0.36328125 v -2.7656248 c 0,-0.8320312 -0.609375,-1.2773437 -1.769531,-1.2773437 -0.679688,0 -1.242188,0.1875 -1.558594,0.5390625 -0.210938,0.2460937 -0.304688,0.515625 -0.316406,0.984375 h 0.75 c 0.05859,-0.5742188 0.398437,-0.8320313 1.101562,-0.8320313 0.667969,0 1.054688,0.2460938 1.054688,0.6914063 v 0.1992187 c 0,0.3164063 -0.1875,0.4453125 -0.785157,0.515625 -1.054687,0.140625 -1.21875,0.1757813 -1.5,0.2929688 -0.550781,0.2226562 -0.832031,0.6445312 -0.832031,1.2539062 0,0.8554688 0.597656,1.3945313 1.546875,1.3945313 0.585938,0 1.066406,-0.2109375 1.59375,-0.69140625 0.04687,0.46875 0.28125,0.69140625 0.773438,0.69140625 0.152343,0 0.269531,-0.0234375 0.503906,-0.0820313 z M 43.498891,-1.47675 c 0,0.2460937 -0.08203,0.3984375 -0.304688,0.609375 -0.304687,0.28125 -0.667969,0.421875 -1.113281,0.421875 -0.574219,0 -0.914063,-0.28125 -0.914063,-0.7617188 0,-0.4921875 0.328125,-0.7382812 1.125,-0.8554687 0.785157,-0.1054688 0.949219,-0.140625 1.207032,-0.2578125 z m 2.115234,-3.2226563 v 4.6992188 h 0.75 v -2.4375 c 0,-0.6679688 0.175781,-1.1132813 0.527344,-1.3710938 0.234375,-0.1757812 0.457031,-0.2226562 0.984375,-0.234375 V -4.804875 c -0.128906,-0.023437 -0.199219,-0.023437 -0.292969,-0.023437 -0.480469,0 -0.855469,0.28125 -1.277344,0.984375 v -0.8554688 z m 7.069336,4.26562505 c -0.08203,0.0117188 -0.117188,0.0117188 -0.152344,0.0117188 -0.269531,0 -0.410156,-0.12890625 -0.410156,-0.36328125 v -2.7656251 c 0,-0.8320312 -0.609375,-1.2773437 -1.769531,-1.2773437 -0.679688,0 -1.242188,0.1875 -1.558594,0.5390625 -0.210938,0.2460937 -0.304688,0.515625 -0.316406,0.984375 h 0.75 c 0.05859,-0.5742188 0.398437,-0.8320313 1.101562,-0.8320313 0.667969,0 1.054688,0.2460938 1.054688,0.6914063 v 0.1992187 c 0,0.3164063 -0.1875,0.4453125 -0.785157,0.515625 -1.054687,0.140625 -1.21875,0.1757813 -1.5,0.2929688 -0.550781,0.2226562 -0.832031,0.6445312 -0.832031,1.2539062 0,0.8554688 0.597656,1.3945313 1.546875,1.3945313 0.585938,0 1.066406,-0.2109375 1.59375,-0.69140625 0.04687,0.46875 0.28125,0.69140625 0.773438,0.69140625 0.152343,0 0.269531,-0.0234375 0.503906,-0.0820313 z M 51.38268,-1.47675 c 0,0.2460937 -0.08203,0.3984375 -0.304688,0.609375 -0.304687,0.28125 -0.667969,0.421875 -1.113281,0.421875 -0.574219,0 -0.914063,-0.28125 -0.914063,-0.7617188 0,-0.4921875 0.328125,-0.7382812 1.125,-0.8554687 0.785157,-0.1054688 0.949219,-0.140625 1.207032,-0.2578125 z m 2.850586,-5.0625 h -0.75 v 6.5390625 h 0.75 z m 1.992187,0 h -0.75 v 6.5390625 h 0.75 z m 5.223633,4.4414062 c 0,-0.7148437 -0.04687,-1.1484375 -0.1875,-1.5 -0.304688,-0.7734375 -1.019531,-1.2304687 -1.898438,-1.2304687 -1.300781,0 -2.144531,0.9960937 -2.144531,2.5429687 0,1.54687505 0.808594,2.4960938 2.132813,2.4960938 1.066406,0 1.816406,-0.609375 2.003906,-1.640625 h -0.75 c -0.210938,0.62109375 -0.632813,0.94921875 -1.230469,0.94921875 -0.480469,0 -0.878906,-0.22265625 -1.125,-0.60937505 -0.1875,-0.2695312 -0.246094,-0.5390625 -0.257812,-1.0078125 z m -3.433594,-0.609375 c 0.05859,-0.8671875 0.585938,-1.4296875 1.335938,-1.4296875 0.738281,0 1.300781,0.609375 1.300781,1.3710938 0,0.023437 0,0.035156 0,0.058594 z M 63.201039,-6.53925 h -0.75 v 6.5390625 h 0.75 z m 0,0"
       style="fill:#000000;fill-opacity:1;fill-rule:nonzero;stroke:none"
       aria-label="PipelineParallel"
       transform="matrix(1.3333333,0,0,1.3333333,147.61867,288.844)" />
    <path
       id="path107"
       d="m -125.39163,-119.72227 c -1.49443,0.74717 -2.49069,2.49069 -2.49069,4.98138 v 41.06134 c 0,2.49069 -0.99627,4.23421 -2.4907,4.98138 1.49443,0.7472 2.4907,2.4907 2.4907,4.98139 v 41.06137 c 0,2.49069 0.99626,4.23421 2.49069,4.98138"
       style="fill:none;stroke:#000000;stroke-width:0.79701;stroke-linecap:round;stroke-linejoin:round;stroke-miterlimit:10;stroke-dasharray:none;stroke-opacity:1"
       transform="matrix(1.3333333,0,0,-1.3333333,194.84,100.62133)" />
    <path
       id="path108"
       d="M 5.2029141,-6.5390781 H 0.50369531 v 0.7382812 H 4.1716641 L 0.24588281,-0.73829687 V -1.5625e-5 H 5.2263516 V -0.73829687 H 1.3005703 L 5.2029141,-5.7773594 Z m 4.8691409,4.4414062 c 0,-0.7148437 -0.04687,-1.1484375 -0.1875003,-1.5 -0.3046875,-0.7734375 -1.0195313,-1.2304687 -1.8984375,-1.2304687 -1.3007813,0 -2.1445313,0.9960937 -2.1445313,2.5429687 0,1.54687503 0.8085938,2.49609378 2.1328125,2.49609378 1.0664063,0 1.8164063,-0.609375 2.0039063,-1.64062498 h -0.75 c -0.2109375,0.62109373 -0.6328125,0.94921873 -1.2304688,0.94921873 -0.4804687,0 -0.8789062,-0.22265625 -1.125,-0.60937503 -0.1875,-0.2695312 -0.2460937,-0.5390625 -0.2578125,-1.0078125 z m -3.4335941,-0.609375 c 0.058594,-0.8671875 0.5859375,-1.4296875 1.3359375,-1.4296875 0.7382813,0 1.3007813,0.609375 1.3007813,1.3710938 0,0.023437 0,0.035156 0,0.058594 z M 11.085727,-4.6992344 V -1.5625e-5 h 0.75 V -2.4375156 c 0,-0.6679688 0.175781,-1.1132813 0.527343,-1.3710938 0.234375,-0.1757812 0.457032,-0.2226562 0.984375,-0.234375 v -0.7617187 c -0.128906,-0.023437 -0.199218,-0.023437 -0.292968,-0.023437 -0.480469,0 -0.855469,0.28125 -1.277344,0.984375 v -0.8554688 z m 4.801757,-0.1289062 c -1.3125,0 -2.109375,0.9375 -2.109375,2.5195312 0,1.57031253 0.785157,2.51953128 2.121094,2.51953128 1.3125,0 2.121094,-0.94921875 2.121094,-2.48437498 0,-1.6289063 -0.773438,-2.5546875 -2.132813,-2.5546875 z m 0.01172,0.6914062 c 0.84375,0 1.347656,0.6796875 1.347656,1.8515625 0,1.1015625 -0.527343,1.80468753 -1.347656,1.80468753 -0.832031,0 -1.347656,-0.69140623 -1.347656,-1.82812503 0,-1.1367187 0.515625,-1.828125 1.347656,-1.828125 z m 5.824219,4.136718775 h 2.519531 c 1.652344,0 2.660156,-1.242187475 2.660156,-3.269531275 0,-2.0273437 -0.996093,-3.2695312 -2.660156,-3.2695312 h -2.519532 z m 0.83203,-0.738281245 V -5.8007969 h 1.546875 c 1.289063,0 1.96875,0.8671875 1.96875,2.5429688 0,1.640625 -0.679687,2.51953123 -1.96875,2.51953123 z m 9.638672,0.3046875 c -0.08203,0.0117188 -0.117187,0.0117188 -0.152344,0.0117188 -0.269531,0 -0.410156,-0.12890625 -0.410156,-0.36328125 V -3.5507969 c 0,-0.8320312 -0.609375,-1.2773437 -1.769531,-1.2773437 -0.679688,0 -1.242188,0.1875 -1.558594,0.5390625 -0.210937,0.2460937 -0.304687,0.515625 -0.316406,0.984375 h 0.75 c 0.05859,-0.5742188 0.398437,-0.8320313 1.101562,-0.8320313 0.667969,0 1.054688,0.2460938 1.054688,0.6914063 v 0.1992187 c 0,0.3164063 -0.1875,0.4453125 -0.785156,0.515625 -1.054688,0.140625 -1.21875,0.1757813 -1.5,0.2929688 -0.550782,0.2226562 -0.832032,0.6445312 -0.832032,1.2539062 0,0.85546878 0.597657,1.39453128 1.546875,1.39453128 0.585938,0 1.066407,-0.210937505 1.59375,-0.69140625 0.04687,0.46875 0.28125,0.69140625 0.773438,0.69140625 0.152344,0 0.269531,-0.0234375 0.503906,-0.0820313 z M 30.893344,-1.4765781 c 0,0.2460937 -0.08203,0.3984375 -0.304688,0.60937498 -0.304687,0.28125 -0.667968,0.421875 -1.113281,0.421875 -0.574219,0 -0.914062,-0.28125 -0.914062,-0.76171878 0,-0.4921875 0.328125,-0.7382812 1.125,-0.8554687 0.785156,-0.1054688 0.949218,-0.140625 1.207031,-0.2578125 z m 3.767578,-3.2226563 h -0.761719 v -1.2890625 h -0.75 v 1.2890625 h -0.632812 v 0.609375 h 0.632812 v 3.55078128 c 0,0.48046875 0.328125,0.75 0.902344,0.75 0.1875,0 0.363281,-0.0234375 0.609375,-0.0703125 v -0.62109375 c -0.09375,0.0234375 -0.210938,0.0351563 -0.351563,0.0351563 -0.328125,0 -0.410156,-0.09375 -0.410156,-0.421875 V -4.0898594 h 0.761719 z m 5.012695,4.26562503 c -0.08203,0.0117188 -0.117187,0.0117188 -0.152344,0.0117188 -0.269531,0 -0.410156,-0.12890625 -0.410156,-0.36328125 V -3.5507969 c 0,-0.8320312 -0.609375,-1.2773437 -1.769531,-1.2773437 -0.679688,0 -1.242188,0.1875 -1.558594,0.5390625 -0.210937,0.2460937 -0.304687,0.515625 -0.316406,0.984375 h 0.75 c 0.05859,-0.5742188 0.398437,-0.8320313 1.101562,-0.8320313 0.667969,0 1.054688,0.2460938 1.054688,0.6914063 v 0.1992187 c 0,0.3164063 -0.1875,0.4453125 -0.785156,0.515625 -1.054688,0.140625 -1.21875,0.1757813 -1.5,0.2929688 -0.550782,0.2226562 -0.832032,0.6445312 -0.832032,1.2539062 0,0.85546878 0.597657,1.39453128 1.546875,1.39453128 0.585938,0 1.066407,-0.210937505 1.59375,-0.69140625 0.04687,0.46875 0.28125,0.69140625 0.773438,0.69140625 0.152344,0 0.269531,-0.0234375 0.503906,-0.0820313 z M 38.372836,-1.4765781 c 0,0.2460937 -0.08203,0.3984375 -0.304688,0.60937498 -0.304687,0.28125 -0.667968,0.421875 -1.113281,0.421875 -0.574219,0 -0.914062,-0.28125 -0.914062,-0.76171878 0,-0.4921875 0.328125,-0.7382812 1.125,-0.8554687 0.785156,-0.1054688 0.949218,-0.140625 1.207031,-0.2578125 z m 5.62793,-1.2890625 h 2.050781 c 0.515625,0 0.914062,-0.1523438 1.265625,-0.46875 0.386719,-0.3632813 0.5625,-0.7851563 0.5625,-1.3828125 0,-1.2304688 -0.726563,-1.921875 -2.015625,-1.921875 H 43.168734 V -1.5625e-5 h 0.832032 z m 0,-0.7382813 v -2.296875 h 1.734375 c 0.796875,0 1.277343,0.4335938 1.277343,1.1484375 0,0.7148438 -0.480468,1.1484375 -1.277343,1.1484375 z m 8.771484,3.07031253 c -0.08203,0.0117188 -0.117187,0.0117188 -0.152344,0.0117188 -0.269531,0 -0.410156,-0.12890625 -0.410156,-0.36328125 V -3.5507969 c 0,-0.8320312 -0.609375,-1.2773437 -1.769531,-1.2773437 -0.679688,0 -1.242188,0.1875 -1.558594,0.5390625 -0.210937,0.2460937 -0.304687,0.515625 -0.316406,0.984375 h 0.75 c 0.05859,-0.5742188 0.398437,-0.8320313 1.101562,-0.8320313 0.667969,0 1.054688,0.2460938 1.054688,0.6914063 v 0.1992187 c 0,0.3164063 -0.1875,0.4453125 -0.785156,0.515625 -1.054688,0.140625 -1.21875,0.1757813 -1.5,0.2929688 -0.550782,0.2226562 -0.832032,0.6445312 -0.832032,1.2539062 0,0.85546878 0.597657,1.39453128 1.546875,1.39453128 0.585938,0 1.066407,-0.210937505 1.59375,-0.69140625 0.04687,0.46875 0.28125,0.69140625 0.773438,0.69140625 0.152344,0 0.269531,-0.0234375 0.503906,-0.0820313 z M 51.471469,-1.4765781 c 0,0.2460937 -0.08203,0.3984375 -0.304688,0.60937498 -0.304687,0.28125 -0.667968,0.421875 -1.113281,0.421875 -0.574219,0 -0.914062,-0.28125 -0.914062,-0.76171878 0,-0.4921875 0.328125,-0.7382812 1.125,-0.8554687 0.785156,-0.1054688 0.949218,-0.140625 1.207031,-0.2578125 z m 2.115234,-3.2226563 V -1.5625e-5 h 0.75 V -2.4375156 c 0,-0.6679688 0.175781,-1.1132813 0.527344,-1.3710938 0.234375,-0.1757812 0.457031,-0.2226562 0.984375,-0.234375 v -0.7617187 c -0.128906,-0.023437 -0.199219,-0.023437 -0.292969,-0.023437 -0.480469,0 -0.855469,0.28125 -1.277344,0.984375 v -0.8554688 z m 7.066406,4.26562503 c -0.08203,0.0117188 -0.117187,0.0117188 -0.152343,0.0117188 -0.269532,0 -0.410157,-0.12890625 -0.410157,-0.36328125 V -3.5507969 c 0,-0.8320312 -0.609375,-1.2773437 -1.769531,-1.2773437 -0.679687,0 -1.242187,0.1875 -1.558594,0.5390625 -0.210937,0.2460937 -0.304687,0.515625 -0.316406,0.984375 h 0.75 c 0.05859,-0.5742188 0.398438,-0.8320313 1.101563,-0.8320313 0.667968,0 1.054687,0.2460938 1.054687,0.6914063 v 0.1992187 c 0,0.3164063 -0.1875,0.4453125 -0.785156,0.515625 -1.054688,0.140625 -1.21875,0.1757813 -1.5,0.2929688 -0.550781,0.2226562 -0.832031,0.6445312 -0.832031,1.2539062 0,0.85546878 0.597656,1.39453128 1.546875,1.39453128 0.585937,0 1.066406,-0.210937505 1.59375,-0.69140625 0.04687,0.46875 0.28125,0.69140625 0.773437,0.69140625 0.152344,0 0.269531,-0.0234375 0.503906,-0.0820313 z M 59.352328,-1.4765781 c 0,0.2460937 -0.08203,0.3984375 -0.304687,0.60937498 -0.304688,0.28125 -0.667969,0.421875 -1.113282,0.421875 -0.574218,0 -0.914062,-0.28125 -0.914062,-0.76171878 0,-0.4921875 0.328125,-0.7382812 1.125,-0.8554687 0.785156,-0.1054688 0.949219,-0.140625 1.207031,-0.2578125 z m 2.853516,-5.0625 h -0.75 V -1.5625e-5 h 0.75 z m 1.989258,0 h -0.75 V -1.5625e-5 h 0.75 z m 5.226562,4.4414062 c 0,-0.7148437 -0.04687,-1.1484375 -0.1875,-1.5 -0.304687,-0.7734375 -1.019531,-1.2304687 -1.898437,-1.2304687 -1.300782,0 -2.144532,0.9960937 -2.144532,2.5429687 0,1.54687503 0.808594,2.49609378 2.132813,2.49609378 1.066406,0 1.816406,-0.609375 2.003906,-1.64062498 h -0.75 c -0.210937,0.62109373 -0.632812,0.94921873 -1.230469,0.94921873 -0.480468,0 -0.878906,-0.22265625 -1.125,-0.60937503 -0.1875,-0.2695312 -0.246093,-0.5390625 -0.257812,-1.0078125 z m -3.433594,-0.609375 c 0.05859,-0.8671875 0.585938,-1.4296875 1.335938,-1.4296875 0.738281,0 1.300781,0.609375 1.300781,1.3710938 0,0.023437 0,0.035156 0,0.058594 z m 5.182618,-3.8320312 h -0.75 V -1.5625e-5 h 0.75 z m 0,0"
       style="fill:#000000;fill-opacity:1;fill-rule:nonzero;stroke:none"
       aria-label="ZeroDataParallel"
       transform="matrix(0,-1.3333333,1.3333333,0,12.945333,238.488)" />
    <path
       id="path109"
       d="m 118.3908,-119.72227 c 1.58505,-0.5284 3.52236,0 5.28355,1.7612 l 39.26419,39.26417 c 1.7612,1.7612 3.6985,2.2896 5.28356,1.76119 -0.5284,1.58506 -1e-5,3.52236 1.76119,5.28356 l 39.26419,39.26421 c 1.7612,1.76119 2.2896,3.6985 1.7612,5.28355"
       style="fill:none;stroke:#000000;stroke-width:0.79701;stroke-linecap:round;stroke-linejoin:round;stroke-miterlimit:10;stroke-dasharray:none;stroke-opacity:1"
       transform="matrix(1.3333333,0,0,-1.3333333,194.84,100.62133)" />
    <path
       id="path110"
       d="M 4.1931779,-3.0383786e-4 6.032778,-5.4693853 V -3.0383786e-4 H 6.8282808 V -6.5466286 H 5.6681726 L 3.7622806,-0.84552552 1.8232426,-6.5466286 H 0.66313441 V -3.0383786e-4 H 1.4586372 V -5.4693853 L 3.3148103,-3.0383786e-4 Z M 9.9067107,-4.8230393 c -1.3092649,0 -2.1047677,0.9280865 -2.1047677,2.5190921 0,1.55785953 0.7789298,2.51909203 2.1213407,2.51909203 1.3092653,0 2.1213403,-0.9612325 2.1213403,-2.48594613 0,-1.6241515 -0.778929,-2.552238 -2.1379133,-2.552238 z m 0.016573,0.6794919 c 0.8452213,0 1.3424113,0.679492 1.3424113,1.8561731 0,1.1103893 -0.530336,1.80645421 -1.3424113,1.80645421 -0.8286487,0 -1.3589839,-0.69606491 -1.3589839,-1.82302711 0,-1.1435353 0.5303352,-1.8396002 1.3589839,-1.8396002 z m 6.9730793,-2.4030812 h -0.745784 v 2.4528002 c -0.314887,-0.4806163 -0.812076,-0.7292109 -1.441849,-0.7292109 -1.2264,0 -2.021903,0.9612325 -2.021903,2.4693731 0,1.57443258 0.77893,2.56881103 2.038476,2.56881103 0.646346,0 1.110389,-0.24859462 1.508141,-0.82864871 v 0.61320004214 h 0.662919 z m -2.055049,2.4030812 c 0.795503,0 1.309265,0.7292109 1.309265,1.8396002 0,1.0938163 -0.513762,1.80645414 -1.309265,1.80645414 -0.828649,0 -1.375557,-0.72921084 -1.375557,-1.80645414 0,-1.1103893 0.546908,-1.8396002 1.375557,-1.8396002 z m 7.188527,2.0384758 c 0,-0.7126378 -0.04972,-1.1435352 -0.182302,-1.4915676 -0.314887,-0.7789298 -1.027525,-1.2264001 -1.905892,-1.2264001 -1.292692,0 -2.137914,0.9943784 -2.137914,2.535665 0,1.54128663 0.812076,2.50251913 2.137914,2.50251913 1.06067,0 1.806454,-0.61320005 2.005329,-1.64072443 H 21.18462 c -0.198876,0.61320003 -0.629773,0.94465951 -1.2264,0.94465951 -0.480617,0 -0.878368,-0.21544866 -1.126963,-0.61320001 -0.182302,-0.2651676 -0.248594,-0.5303352 -0.248594,-1.0109515 z m -3.430605,-0.596627 c 0.06629,-0.8783676 0.580054,-1.4418488 1.342411,-1.4418488 0.72921,0 1.292692,0.6132001 1.292692,1.3755569 0,0.033146 0,0.033146 0,0.066292 z m 5.183197,-3.84493 h -0.745784 v 6.54632476214 h 0.745784 z m 4.781303,3.7786381 h 2.038476 c 0.530335,0 0.928087,-0.1491568 1.276119,-0.4640433 0.381179,-0.3646054 0.563481,-0.7955027 0.563481,-1.3921298 0,-1.2264001 -0.729211,-1.922465 -2.021903,-1.922465 h -2.701394 v 6.54632476214 h 0.845221 z m 0,-0.7292109 v -2.3036434 h 1.72359 c 0.795502,0 1.276119,0.4308973 1.276119,1.1435352 0,0.7126379 -0.480617,1.1601082 -1.276119,1.1601082 z m 8.754674,3.06600024 c -0.08286,0.016573 -0.116011,0.016573 -0.149157,0.016573 -0.265167,0 -0.414324,-0.13258379 -0.414324,-0.36460543 V -3.5469203 c 0,-0.8286487 -0.6132,-1.276119 -1.773308,-1.276119 -0.679492,0 -1.226401,0.1823027 -1.55786,0.5303352 -0.198876,0.2485946 -0.298314,0.5137622 -0.314887,0.9943784 h 0.762357 c 0.04972,-0.5800541 0.397752,-0.8452217 1.093817,-0.8452217 0.662919,0 1.06067,0.2485946 1.06067,0.6960649 v 0.1988757 c 0,0.3148865 -0.198876,0.4474703 -0.795503,0.5137622 -1.044097,0.1491568 -1.209827,0.1823027 -1.491567,0.2983136 -0.546909,0.2154486 -0.828649,0.646346 -0.828649,1.259546 0,0.84522171 0.596627,1.39212986 1.541286,1.39212986 0.580054,0 1.060671,-0.21544866786 1.591006,-0.69606492 0.04972,0.46404328 0.28174,0.69606492 0.77893,0.69606492 0.149156,0 0.265167,-0.033146 0.497189,-0.0828649 z M 36.025718,-1.4752985 c 0,0.2485946 -0.08286,0.3977513 -0.314887,0.61320001 -0.298313,0.28174056 -0.662919,0.41432435 -1.110389,0.41432435 -0.563481,0 -0.911513,-0.28174056 -0.911513,-0.76235676 0,-0.4971893 0.331459,-0.7292109 1.126962,-0.8452217 0.77893,-0.1160108 0.944659,-0.1491568 1.209827,-0.2651676 z m 2.102696,-3.2296584 v 4.70672468 h 0.762357 V -2.4344594 c 0,-0.662919 0.16573,-1.1103893 0.530335,-1.3755569 0.232022,-0.1657297 0.44747,-0.2154486 0.977805,-0.2320216 v -0.7623568 c -0.132583,-0.016573 -0.198875,-0.016573 -0.298313,-0.016573 -0.480616,0 -0.845222,0.2817406 -1.276119,0.9778055 v -0.8617947 z m 7.072517,4.27582736 c -0.08286,0.016573 -0.116011,0.016573 -0.149157,0.016573 -0.265168,0 -0.414324,-0.13258379 -0.414324,-0.36460543 V -3.5448487 c 0,-0.8286487 -0.6132,-1.276119 -1.773309,-1.276119 -0.679492,0 -1.2264,0.1823027 -1.557859,0.5303352 -0.198876,0.2485946 -0.298314,0.5137622 -0.314887,0.9943784 h 0.762357 c 0.04972,-0.5800541 0.397752,-0.8452216 1.093816,-0.8452216 0.662919,0 1.060671,0.2485946 1.060671,0.6960649 v 0.1988757 c 0,0.3148865 -0.198876,0.4474703 -0.795503,0.5137622 -1.044097,0.1491567 -1.209827,0.1823027 -1.491568,0.2983135 -0.546908,0.2154487 -0.828648,0.646346 -0.828648,1.259546 0,0.84522173 0.596627,1.39212988 1.541286,1.39212988 0.580054,0 1.060671,-0.21544867 1.591006,-0.69606492 0.04972,0.46404328 0.28174,0.69606492 0.77893,0.69606492 0.149156,0 0.265167,-0.033146 0.497189,-0.0828649 z M 43.908239,-1.4732269 c 0,0.2485946 -0.08287,0.3977514 -0.314887,0.61320003 -0.298313,0.28174056 -0.662919,0.41432435 -1.110389,0.41432435 -0.563481,0 -0.911514,-0.28174056 -0.911514,-0.76235678 0,-0.4971893 0.33146,-0.7292109 1.126963,-0.8452217 0.778929,-0.1160108 0.944659,-0.1491568 1.209827,-0.2651676 z m 2.84848,-5.0734017 h -0.745784 v 6.54632476214 h 0.745784 z m 1.988757,0 h -0.745784 v 6.54632476214 h 0.745784 z m 5.22463,4.441557 c 0,-0.7126378 -0.04972,-1.1435352 -0.182303,-1.4915676 -0.314887,-0.7789298 -1.027524,-1.2264001 -1.905892,-1.2264001 -1.292692,0 -2.137914,0.9943784 -2.137914,2.535665 0,1.54128663 0.812076,2.50251913 2.137914,2.50251913 1.06067,0 1.806454,-0.61320005 2.00533,-1.64072443 h -0.762357 c -0.198876,0.61320003 -0.629773,0.94465951 -1.2264,0.94465951 -0.480616,0 -0.878368,-0.21544866 -1.126962,-0.61320001 -0.182303,-0.2651676 -0.248595,-0.5303352 -0.248595,-1.0109515 z M 50.5395,-2.7016986 c 0.06629,-0.8783676 0.580054,-1.4418488 1.342411,-1.4418488 0.729211,0 1.292692,0.6132001 1.292692,1.3755569 0,0.033146 0,0.033146 0,0.066292 z m 5.183198,-3.84493 h -0.745784 v 6.54632476214 h 0.745784 z m 0,0"
       style="fill:#000000;fill-opacity:1;fill-rule:nonzero;stroke:none"
       aria-label="ModelParallel"
       transform="matrix(0.9428,-0.9428,0.9428,0.9428,400.78133,239.46533)" />
  </g>
</svg>
