<?xml version="1.0" encoding="UTF-8" standalone="no"?>
<!DOCTYPE svg PUBLIC "-//W3C//DTD SVG 1.1//EN"
 "http://www.w3.org/Graphics/SVG/1.1/DTD/svg11.dtd">
<!-- Title: G Pages: 1 -->
<svg width="145pt" height="133pt"
 viewBox="0.00 0.00 145.00 133.00" xmlns="http://www.w3.org/2000/svg" xmlns:xlink="http://www.w3.org/1999/xlink" font-family="Helvetica Neue, Helvetica, Arial, sans-serif">
<g id="graph0" class="graph" transform="scale(1 1) rotate(0) translate(4 128.5)">
<title>G</title>
<polygon fill="white" stroke="none" points="-4,4 -4,-128.5 141.38,-128.5 141.38,4 -4,4"/>
<!-- Orin -->
<g id="node1" class="node">
<title>Orin</title>
<polygon fill="#cfe2f3" stroke="#4a90c4" points="105.25,-124.5 0,-124.5 0,-88.5 105.25,-88.5 105.25,-124.5"/>
<text xml:space="preserve" text-anchor="middle" x="52.62" y="-100.7" font-family="Helvetica,sans-Serif" font-size="14.00">AGX Orin SoC</text>
</g>
<!-- NVMe -->
<g id="node2" class="node">
<title>NVMe</title>
<polygon fill="#d4edda" stroke="#3d9e5a" points="95.5,-36 9.75,-36 9.75,0 95.5,0 95.5,-36"/>
<text xml:space="preserve" text-anchor="middle" x="52.62" y="-12.2" font-family="Helvetica,sans-Serif" font-size="14.00">NVMe SSD</text>
</g>
<!-- Orin&#45;&gt;NVMe -->
<g id="edge1" class="edge">
<title>Orin&#45;&gt;NVMe</title>
<path fill="none" stroke="black" d="M52.62,-77.28C52.62,-67.79 52.62,-57.2 52.62,-47.68"/>
<polygon fill="black" stroke="black" points="49.13,-76.9 52.63,-86.9 56.13,-76.9 49.13,-76.9"/>
<polygon fill="black" stroke="black" points="56.13,-47.86 52.63,-37.86 49.13,-47.86 56.13,-47.86"/>
<text xml:space="preserve" text-anchor="middle" x="95" y="-57.2" font-family="Times,serif" font-size="14.00"> PCIe Gen4 x4 </text>
</g>
</g>
</svg>
