<?xml version="1.0" encoding="UTF-8" standalone="no"?>
<!-- Created with Inkscape (http://www.inkscape.org/) -->

<svg
   version="1.1"
   id="svg1"
   width="403.42932"
   height="131.15067"
   viewBox="0 0 403.42932 131.15067"
   xmlns="http://www.w3.org/2000/svg"
   xmlns:svg="http://www.w3.org/2000/svg">
  <defs
     id="defs1" />
  <g
     id="g1">
    <path
       id="path1"
       d="m 28.30516,17.85829 h -56.61031 c -5.50236,0 -9.96276,-4.46042 -9.96276,-9.96277 V -7.89551 c 0,-5.50235 4.4604,-9.96277 9.96276,-9.96277 h 56.61031 c 5.50237,0 9.96277,4.46042 9.96277,9.96277 V 7.89552 c 0,5.50235 -4.4604,9.96277 -9.96277,9.96277 z"
       style="fill:#e9dedc;fill-opacity:1;fill-rule:nonzero;stroke:#8f7874;stroke-width:0.74721;stroke-linecap:butt;stroke-linejoin:miter;stroke-miterlimit:10;stroke-dasharray:none;stroke-opacity:1"
       transform="matrix(1.3333333,0,0,-1.3333333,209.688,24.308)" />
    <path
       id="path2"
       d="m 6.7974913,-4.8038194 c -0.052083,-0.625 -0.1822916,-1.0286459 -0.4947916,-1.4322917 -0.5598959,-0.7291667 -1.4453125,-1.1458333 -2.5390625,-1.1458333 -2.0442709,0 -3.32031255,1.4713541 -3.32031255,3.8151041 0,2.3307292 1.26302085,3.80208336 3.28125005,3.80208336 1.8098958,0 3.0078125,-1.0546875 3.0989583,-2.70833336 H 5.3651997 c -0.091146,0.9244792 -0.6770834,1.4453125 -1.6015625,1.4453125 -1.1588542,0 -1.8359375,-0.9375 -1.8359375,-2.5130208 0,-1.6145833 0.7161458,-2.5651042 1.8880208,-2.5651042 0.5208333,0 0.9505208,0.1822917 1.2239583,0.5338542 0.15625,0.1953125 0.234375,0.3776042 0.3255209,0.7682292 z m 3.3919267,-0.6640625 c -1.6406246,0 -2.6432288,1.0807291 -2.6432288,2.8515625 0,1.77083329 1.0026042,2.85156246 2.6562498,2.85156246 1.627604,0 2.65625,-1.09375 2.65625,-2.81249996 0,-1.8229167 -0.976562,-2.890625 -2.669271,-2.890625 z m 0.01302,1.1197916 c 0.768229,0 1.263021,0.6901042 1.263021,1.7447917 0,1.015625 -0.520833,1.70572916 -1.263021,1.70572916 -0.7552081,0 -1.2630206,-0.69010416 -1.2630206,-1.71874996 0,-1.0286459 0.5078125,-1.7317709 1.2630206,-1.7317709 z m 3.67513,-1.0286458 V 8.6805556e-4 h 1.39323 V -3.2282986 c 0,-0.6510417 0.364583,-1.0546875 0.95052,-1.0546875 0.46875,0 0.76823,0.2734375 0.76823,0.703125 V 8.6805556e-4 h 1.393229 V -3.2282986 c 0,-0.6510417 0.351562,-1.0546875 0.950521,-1.0546875 0.46875,0 0.755208,0.2734375 0.755208,0.703125 V 8.6805556e-4 h 1.393229 V -3.8012153 c 0,-1.0546875 -0.638021,-1.6666666 -1.705729,-1.6666666 -0.677083,0 -1.158854,0.234375 -1.575521,0.7942708 -0.260417,-0.5078125 -0.794271,-0.7942708 -1.471354,-0.7942708 -0.611979,0 -1.015625,0.2083333 -1.471354,0.7552083 v -0.6640625 z m 10.22461,0 H 22.70895 v 7.5520833 h 1.393229 v -2.81249998 c 0.338541,0.59895834 0.820312,0.87239584 1.497396,0.87239584 1.302083,0 2.252604,-1.2109375 2.252604,-2.83854166 0,-0.7682292 -0.221354,-1.5234375 -0.572917,-2.0182292 -0.364583,-0.5078125 -1.028646,-0.8463541 -1.679687,-0.8463541 -0.677084,0 -1.158855,0.2864583 -1.497396,0.8854166 z m 1.184896,1.0807292 c 0.703125,0 1.171875,0.6770833 1.171875,1.7057291 0,0.9765625 -0.481771,1.66666669 -1.171875,1.66666669 -0.703125,0 -1.184896,-0.67708329 -1.184896,-1.67968749 0,-1.015625 0.481771,-1.6927083 1.184896,-1.6927083 z M 33.613898,8.6805556e-4 V -5.3767361 h -1.39323 v 3.359375 c 0,0.6380208 -0.455729,1.06770832 -1.132812,1.06770832 -0.598958,0 -0.898438,-0.32552082 -0.898438,-0.97656252 v -3.4505208 h -1.393229 v 3.75 c 0,1.18489582 0.664063,1.86197916 1.809896,1.86197916 0.729167,0 1.210938,-0.2734375 1.614583,-0.87239584 V 8.6805556e-4 Z M 37.305304,-5.2725694 h -0.768229 v -1.4453125 h -1.40625 v 1.4453125 h -0.677084 v 0.9244791 h 0.677084 v 3.3072917 c 0,0.84635416 0.455729,1.27604166 1.367187,1.27604166 0.3125,0 0.559896,-0.0390625 0.807292,-0.1171875 v -0.9765625 c -0.130209,0.0260417 -0.221354,0.0390625 -0.3125,0.0390625 -0.377604,0 -0.455729,-0.1171875 -0.455729,-0.59895836 v -2.9296875 h 0.768229 z m 5.54362,3.0208333 c 0.01302,-0.1171875 0.01302,-0.1692708 0.01302,-0.234375 0,-0.546875 -0.07813,-1.0416667 -0.208333,-1.4192708 -0.364583,-0.9765625 -1.236979,-1.5625 -2.317708,-1.5625 -1.536459,0 -2.486979,1.1197916 -2.486979,2.9166666 0,1.73177086 0.9375,2.78645836 2.460937,2.78645836 1.197917,0 2.174479,-0.69010417 2.486979,-1.74479166 h -1.380208 c -0.169271,0.4296875 -0.546875,0.67708332 -1.054688,0.67708332 -0.403645,0 -0.716145,-0.16927082 -0.924479,-0.46875002 -0.130208,-0.2083333 -0.182291,-0.4427083 -0.195312,-0.9505208 z m -3.59375,-0.9244792 c 0.09115,-0.8203125 0.442708,-1.2239583 1.067708,-1.2239583 0.338542,0 0.664062,0.1692708 0.859375,0.4427083 0.130208,0.2083334 0.195312,0.4166667 0.221354,0.78125 z m 0,0"
       style="fill:#000000;fill-opacity:1;fill-rule:nonzero;stroke:none"
       aria-label="Compute"
       transform="matrix(1.2,0,0,1.2,171.19067,21.483333)" />
    <path
       id="path3"
       d="m 2.3568872,-7.2647569 c -1.0026042,1.3151041 -1.62760421,3.125 -1.62760421,4.6875 0,1.5755208 0.62500001,3.38541662 1.62760421,4.6875 h 0.546875 c -0.8854167,-1.41927088 -1.3671875,-3.09895838 -1.3671875,-4.6875 0,-1.5885417 0.4817708,-3.2682292 1.3671875,-4.6875 z m 0,0"
       style="fill:#000000;fill-opacity:1;fill-rule:nonzero;stroke:none"
       aria-label="("
       transform="matrix(1.2,0,0,1.2,226.31627,21.483333)" />
    <path
       id="path4"
       d="m 7.5652778,-6.9262153 c 0,-0.026042 -0.013021,-0.091146 -0.1041667,-0.091146 -0.026042,0 -0.039063,0 -0.1432292,0.1171875 l -0.703125,0.7682292 c -0.091146,-0.1432292 -0.546875,-0.8854167 -1.6536458,-0.8854167 -2.2265625,0 -4.46614582,2.2005208 -4.46614582,4.5052083 0,1.64062502 1.18489582,2.73437502 2.70833332,2.73437502 0.859375,0 1.6145833,-0.40364583 2.1484375,-0.859375 0.9244792,-0.82031252 1.09375,-1.71875002 1.09375,-1.75781252 0,-0.091146 -0.1041667,-0.091146 -0.1171875,-0.091146 -0.065104,0 -0.1171875,0.013021 -0.1302083,0.091146 -0.091146,0.2994792 -0.3255209,1.0026042 -1.0026042,1.57552086 -0.6901042,0.55989583 -1.3151042,0.72916666 -1.8359375,0.72916666 -0.8984375,0 -1.953125,-0.52083333 -1.953125,-2.07031252 0,-0.5729166 0.2083333,-2.1875 1.1979167,-3.3463541 0.6119791,-0.703125 1.5494791,-1.2109375 2.4348958,-1.2109375 1.015625,0 1.6015625,0.7682291 1.6015625,1.9270833 0,0.4036458 -0.026042,0.4036458 -0.026042,0.5078125 0,0.1041667 0.1041667,0.1041667 0.1432292,0.1041667 0.1302083,0 0.1302083,-0.026042 0.1822917,-0.2083334 z m 0,0"
       style="fill:#000000;fill-opacity:1;fill-rule:nonzero;stroke:none"
       aria-label="C"
       transform="matrix(1.2,0,0,1.2,230.29667,21.483333)" />
    <path
       id="path5"
       d="m 2.3453194,-4.4400955 c 0,-0.1822917 -0.026042,-0.1953125 -0.2213541,-0.1953125 -0.4427084,0.4427083 -1.0807292,0.4427083 -1.36718752,0.4427083 v 0.2604167 c 0.16927083,0 0.63802082,0 1.01562502,-0.1953125 v 3.55468751 c 0,0.234375 0,0.32552084 -0.6901042,0.32552084 H 0.80886111 V 8.6805555e-6 C 0.93906944,-0.01301215 1.7984444,-0.02603299 2.0588611,-0.02603299 c 0.2083333,0 1.09375,0.01302084 1.25,0.026041670555 V -0.24738715 H 3.0354236 c -0.6901042,0 -0.6901042,-0.0911458 -0.6901042,-0.32552084 z m 0,0"
       style="fill:#000000;fill-opacity:1;fill-rule:nonzero;stroke:none"
       aria-label="1"
       transform="matrix(1.2,0,0,1.2,238.84187,23.277333)" />
    <path
       id="path6"
       d="M 0.92319444,2.1102431 C 1.9257986,0.80815972 2.5507986,-1.0017361 2.5507986,-2.5642361 c 0,-1.5755208 -0.625,-3.3854167 -1.62760416,-4.7005208 h -0.546875 c 0.87239586,1.4322916 1.36718746,3.0989583 1.36718746,4.7005208 0,1.57552082 -0.4947916,3.26822916 -1.36718746,4.6744792 z m 0,0"
       style="fill:#000000;fill-opacity:1;fill-rule:nonzero;stroke:none"
       aria-label=")"
       transform="matrix(1.2,0,0,1.2,244.20467,21.483333)" />
    <path
       id="path7"
       d="M 2.4750903,-4.5192361 H 4.1417569 V -5.0921528 H 0.14436111 v 0.5729167 H 1.8240486 v 4.51822916 h 0.6510417 z m 2.281901,-0.5729167 v 5.09114586 H 5.329908 V -2.0192361 c 0,-0.7421875 0.390625,-1.2369792 0.9895833,-1.2369792 0.1953125,0 0.3776042,0.065104 0.5208334,0.1692709 0.1692708,0.1171875 0.234375,0.2994791 0.234375,0.546875 v 2.53906246 H 7.6476163 V -2.7614236 c 0,-0.6119792 -0.4296875,-1.0026042 -1.1458333,-1.0026042 -0.5208333,0 -0.8333333,0.15625 -1.171875,0.6119792 v -1.9401042 z m 6.9628907,3.4635417 c 0,-0.5598958 -0.03906,-0.8984375 -0.143229,-1.171875 -0.247396,-0.5989583 -0.794271,-0.9635417 -1.484375,-0.9635417 -1.0156252,0 -1.6796877,0.78125 -1.6796877,1.9791667 0,1.21093749 0.6380208,1.94010416 1.6666667,1.94010416 0.833333,0 1.419271,-0.46875 1.5625,-1.26302086 h -0.585938 c -0.15625,0.48177086 -0.48177,0.72916669 -0.95052,0.72916669 -0.3776046,0 -0.6901046,-0.16927083 -0.8854171,-0.46875 C 9.0766528,-1.0556944 9.0375903,-1.2770486 9.0245694,-1.6286111 Z M 9.0375903,-2.1103819 c 0.052083,-0.6770834 0.46875,-1.1197917 1.0546877,-1.1197917 0.559896,0 1.002604,0.4817708 1.002604,1.0807292 0,0.013021 0,0.026042 0,0.039063 z m 8.1868487,2.10937496 1.432292,-4.25781246 v 4.25781246 H 19.26871 V -5.0921528 h -0.898437 l -1.484375,4.44010419 -1.510417,-4.44010419 h -0.898438 v 5.09114586 h 0.61198 V -4.2588194 l 1.445312,4.25781246 z m 6.276042,-0.33854167 c -0.0651,0.0130208 -0.09115,0.0130208 -0.130208,0.0130208 -0.195313,0 -0.3125,-0.10416666 -0.3125,-0.28645833 V -2.7614236 c 0,-0.6510417 -0.46875,-1.0026042 -1.380209,-1.0026042 -0.520833,0 -0.963541,0.15625 -1.210937,0.4296875 -0.169271,0.1822917 -0.234375,0.390625 -0.247396,0.7552084 h 0.585937 c 0.05208,-0.4427084 0.3125,-0.6510417 0.859375,-0.6510417 0.520834,0 0.820313,0.1953125 0.820313,0.546875 v 0.15625 c 0,0.2473958 -0.15625,0.3515625 -0.611979,0.4036458 -0.820313,0.1041667 -0.950521,0.1302084 -1.171875,0.2213542 -0.429688,0.1822917 -0.638021,0.5078125 -0.638021,0.97656249 0,0.6640625 0.455729,1.08072917 1.197917,1.08072917 0.455729,0 0.820312,-0.15625 1.236979,-0.53385417 0.03906,0.36458333 0.221354,0.53385417 0.598958,0.53385417 0.117188,0 0.208333,-0.0130208 0.403646,-0.0520833 z M 22.484856,-1.1468403 c 0,0.19531252 -0.0651,0.31250002 -0.234375,0.46875002 -0.234375,0.22135417 -0.520833,0.32552084 -0.872396,0.32552084 -0.442708,0 -0.716146,-0.20833334 -0.716146,-0.5859375 0,-0.37760416 0.260417,-0.57291666 0.885417,-0.66406246 0.611979,-0.091146 0.729167,-0.1171875 0.9375,-0.2083334 z m 2.926432,-2.5130208 H 24.81233 v -1.0026042 h -0.572917 v 1.0026042 h -0.494791 v 0.4817708 h 0.494791 v 2.76041669 c 0,0.36458333 0.247396,0.57291667 0.703125,0.57291667 0.130209,0 0.273438,-0.0130208 0.46875,-0.0390625 v -0.49479167 c -0.07813,0.0260417 -0.169271,0.0260417 -0.273437,0.0260417 -0.260417,0 -0.325521,-0.0651042 -0.325521,-0.32552084 V -3.1780903 h 0.598958 z m 0.664063,-1.4322917 v 5.09114586 h 0.572916 V -2.0192361 c 0,-0.7421875 0.390625,-1.2369792 0.989584,-1.2369792 0.195312,0 0.377604,0.065104 0.520833,0.1692709 0.169271,0.1171875 0.234375,0.2994791 0.234375,0.546875 v 2.53906246 h 0.572917 V -2.7614236 c 0,-0.6119792 -0.429688,-1.0026042 -1.145834,-1.0026042 -0.520833,0 -0.833333,0.15625 -1.171875,0.6119792 v -1.9401042 z m 0,0"
       style="fill:#000000;fill-opacity:1;fill-rule:nonzero;stroke:none"
       aria-label="TheMath"
       transform="matrix(1.2,0,0,1.2,192.01427,35.829333)" />
    <path
       id="path8"
       d="m -74.41495,-44.0426 h -72.51697 c -5.50236,0 -9.96276,-4.46042 -9.96276,-9.96277 v -15.79105 c 0,-5.50235 4.4604,-9.96277 9.96276,-9.96277 h 72.51697 c 5.50235,0 9.96277,4.46042 9.96277,9.96277 v 15.79105 c 0,5.50235 -4.46042,9.96277 -9.96277,9.96277 z"
       style="fill:#d1f3ff;fill-opacity:1;fill-rule:nonzero;stroke:#006395;stroke-width:0.74721;stroke-linecap:butt;stroke-linejoin:miter;stroke-miterlimit:10;stroke-dasharray:none;stroke-opacity:1"
       transform="matrix(1.3333333,0,0,-1.3333333,209.688,24.308)" />
    <path
       id="path9"
       d="m 6.7982986,-4.8055556 c -0.052083,-0.625 -0.1822917,-1.0286458 -0.4947917,-1.4322916 -0.5598958,-0.7291667 -1.4453125,-1.1458334 -2.5390625,-1.1458334 -2.0442708,0 -3.32031246,1.4713542 -3.32031246,3.8151042 0,2.3307292 1.26302086,3.80208334 3.28124996,3.80208334 1.8098959,0 3.0078125,-1.0546875 3.0989584,-2.70833334 H 5.3660069 c -0.091146,0.9244792 -0.6770833,1.4453125 -1.6015625,1.4453125 -1.1588541,0 -1.8359375,-0.9375 -1.8359375,-2.5130208 0,-1.6145834 0.7161459,-2.5651042 1.8880209,-2.5651042 0.5208333,0 0.9505208,0.1822917 1.2239583,0.5338542 0.15625,0.1953125 0.234375,0.3776041 0.3255208,0.7682291 z M 10.18697,-5.4696181 c -1.6406245,0 -2.6432287,1.0807292 -2.6432287,2.8515625 0,1.77083338 1.0026042,2.85156254 2.6562497,2.85156254 1.627604,0 2.65625,-1.09375 2.65625,-2.81250004 0,-1.8229166 -0.976562,-2.890625 -2.669271,-2.890625 z m 0.01302,1.1197917 c 0.768229,0 1.263021,0.6901042 1.263021,1.7447917 0,1.015625 -0.520833,1.70572914 -1.263021,1.70572914 -0.755208,0 -1.2630205,-0.69010414 -1.2630205,-1.71875004 0,-1.0286458 0.5078125,-1.7317708 1.2630205,-1.7317708 z m 3.678386,-1.0286458 v 5.37760414444 h 1.393229 V -3.2300347 c 0,-0.6510417 0.364583,-1.0546875 0.950521,-1.0546875 0.46875,0 0.768229,0.2734375 0.768229,0.703125 v 3.58072914444 h 1.393229 V -3.2300347 c 0,-0.6510417 0.351563,-1.0546875 0.950521,-1.0546875 0.46875,0 0.755208,0.2734375 0.755208,0.703125 v 3.58072914444 h 1.393229 V -3.8029514 c 0,-1.0546875 -0.63802,-1.6666667 -1.705729,-1.6666667 -0.677083,0 -1.158854,0.234375 -1.575521,0.7942709 -0.260416,-0.5078125 -0.79427,-0.7942709 -1.471354,-0.7942709 -0.611979,0 -1.015625,0.2083334 -1.471354,0.7552084 v -0.6640625 z m 8.857422,0 v 5.37760414444 h 1.393229 V -3.2300347 c 0,-0.6510417 0.364583,-1.0546875 0.950521,-1.0546875 0.46875,0 0.768229,0.2734375 0.768229,0.703125 v 3.58072914444 h 1.393229 V -3.2300347 c 0,-0.6510417 0.351562,-1.0546875 0.950521,-1.0546875 0.46875,0 0.755208,0.2734375 0.755208,0.703125 v 3.58072914444 h 1.393229 V -3.8029514 c 0,-1.0546875 -0.638021,-1.6666667 -1.705729,-1.6666667 -0.677083,0 -1.158854,0.234375 -1.575521,0.7942709 -0.260416,-0.5078125 -0.794271,-0.7942709 -1.471354,-0.7942709 -0.611979,0 -1.015625,0.2083334 -1.471354,0.7552084 v -0.6640625 z m 13.45052,5.37760414444 V -5.3784722 H 34.79309 v 3.359375 c 0,0.6380208 -0.455729,1.06770831 -1.132812,1.06770831 -0.598959,0 -0.898438,-0.32552081 -0.898438,-0.97656251 v -3.4505208 h -1.393229 v 3.75 c 0,1.18489581 0.664063,1.86197914 1.809896,1.86197914 0.729167,0 1.210937,-0.2734375 1.614583,-0.87239583 V -8.6805556e-4 Z M 37.507934,-5.3784722 v 5.37760414444 h 1.393229 V -3.2300347 c 0,-0.6380209 0.455729,-1.0546875 1.132813,-1.0546875 0.598958,0 0.898437,0.3255208 0.898437,0.9635416 v 3.32031254444 h 1.393229 V -3.6076389 c 0,-1.1848958 -0.664062,-1.8619792 -1.809895,-1.8619792 -0.729167,0 -1.210938,0.2734375 -1.614584,0.8723959 v -0.78125 z m 7.519531,0 h -1.393229 v 5.37760414444 h 1.393229 z m 0,-1.8880209 h -1.393229 v 1.25 h 1.393229 z m 5.904948,3.8932292 c -0.09115,-1.3151042 -0.976562,-2.0963542 -2.317708,-2.0963542 -1.601563,0 -2.539063,1.0546875 -2.539063,2.890625 0,1.77083338 0.92448,2.81250004 2.526042,2.81250004 1.302083,0 2.200521,-0.80729166 2.330729,-2.09635414 h -1.328125 c -0.182291,0.6901041 -0.455729,0.96354164 -1.002604,0.96354164 -0.703125,0 -1.132812,-0.63802084 -1.132812,-1.67968754 0,-0.5078125 0.104166,-0.9895833 0.273437,-1.3020833 0.15625,-0.2994792 0.46875,-0.46875 0.859375,-0.46875 0.572917,0 0.846354,0.2734375 1.002604,0.9765625 z m 5.566406,3.20312501 c -0.247395,-0.234375 -0.32552,-0.37760417 -0.32552,-0.65104167 V -3.8159722 c 0,-1.09375 -0.742188,-1.6536459 -2.200521,-1.6536459 -1.445313,0 -2.213542,0.6119792 -2.291667,1.8619792 h 1.341146 c 0.0651,-0.5598958 0.299479,-0.7421875 0.989583,-0.7421875 0.533854,0 0.807292,0.1822917 0.807292,0.546875 0,0.1822917 -0.09115,0.3385417 -0.247396,0.4166667 -0.182292,0.1041666 -0.182292,0.1041666 -0.872396,0.2083333 l -0.559896,0.1041667 c -1.067708,0.1692708 -1.588541,0.7161458 -1.588541,1.6927083 0,0.45572918 0.130208,0.83333334 0.377604,1.10677084 0.3125,0.3125 0.78125,0.5078125 1.263021,0.5078125 0.598958,0 1.145833,-0.26041666 1.627604,-0.76822916 0,0.2734375 0.03906,0.37760416 0.169271,0.53385416444 h 1.510416 z M 54.819132,-2.1623264 c 0,0.8072917 -0.403646,1.26302084 -1.106771,1.26302084 -0.46875,0 -0.755208,-0.24739584 -0.755208,-0.65104164 0,-0.4166667 0.208333,-0.6119792 0.794271,-0.7291667 l 0.46875,-0.091146 c 0.377604,-0.065104 0.429687,-0.091146 0.598958,-0.1692709 z m 4.99349,-3.1119792 h -0.76823 v -1.4453125 h -1.40625 v 1.4453125 h -0.677083 v 0.9244792 h 0.677083 v 3.3072917 c 0,0.84635414 0.45573,1.27604164 1.367188,1.27604164 0.3125,0 0.559896,-0.0390625 0.807292,-0.1171875 v -0.9765625 c -0.130209,0.0260417 -0.221355,0.0390625 -0.3125,0.0390625 -0.377605,0 -0.45573,-0.1171875 -0.45573,-0.59895834 v -2.9296875 h 0.76823 z m 2.379557,-0.1041666 H 60.79895 v 5.37760414444 h 1.393229 z m 0,-1.8880209 H 60.79895 v 1.25 h 1.393229 z m 3.707682,1.796875 c -1.640625,0 -2.643229,1.0807292 -2.643229,2.8515625 0,1.77083338 1.002604,2.85156254 2.65625,2.85156254 1.627604,0 2.65625,-1.09375 2.65625,-2.81250004 0,-1.8229166 -0.976563,-2.890625 -2.669271,-2.890625 z m 0.01302,1.1197917 c 0.768229,0 1.263021,0.6901042 1.263021,1.7447917 0,1.015625 -0.520834,1.70572914 -1.263021,1.70572914 -0.755208,0 -1.263021,-0.69010414 -1.263021,-1.71875004 0,-1.0286458 0.507813,-1.7317708 1.263021,-1.7317708 z m 3.704427,-1.0286458 v 5.37760414444 h 1.393229 V -3.2300347 c 0,-0.6380209 0.455729,-1.0546875 1.132813,-1.0546875 0.598958,0 0.898437,0.3255208 0.898437,0.9635416 v 3.32031254444 h 1.393229 V -3.6076389 c 0,-1.1848958 -0.664062,-1.8619792 -1.809895,-1.8619792 -0.729167,0 -1.210938,0.2734375 -1.614584,0.8723959 v -0.78125 z m 0,0"
       style="fill:#000000;fill-opacity:1;fill-rule:nonzero;stroke:none"
       aria-label="Communication"
       transform="matrix(1.2,0,0,1.2,4.4826667,104.01667)" />
    <path
       id="path10"
       d="m 2.3562465,-7.2664931 c -1.0026041,1.3151042 -1.62760414,3.125 -1.62760414,4.6875 0,1.5755209 0.62500004,3.38541671 1.62760414,4.6875 h 0.546875 C 2.0177049,0.68923611 1.535934,-0.99045139 1.535934,-2.5789931 c 0,-1.5885416 0.4817709,-3.2682291 1.3671875,-4.6875 z m 0,0"
       style="fill:#000000;fill-opacity:1;fill-rule:nonzero;stroke:none"
       aria-label="("
       transform="matrix(1.2,0,0,1.2,97.899067,104.01667)" />
    <path
       id="path11"
       d="m 7.5636372,-6.9279514 c 0,-0.026042 -0.013021,-0.091146 -0.1041667,-0.091146 -0.026042,0 -0.039063,0 -0.1432292,0.1171875 l -0.703125,0.7682291 c -0.091146,-0.1432291 -0.546875,-0.8854166 -1.6536458,-0.8854166 -2.2265625,0 -4.46614585,2.2005208 -4.46614585,4.5052083 0,1.64062501 1.18489585,2.73437501 2.70833335,2.73437501 0.859375,0 1.6145833,-0.40364583 2.1484375,-0.859375 0.9244792,-0.82031251 1.09375,-1.71875001 1.09375,-1.75781251 0,-0.091146 -0.1041667,-0.091146 -0.1171875,-0.091146 -0.065104,0 -0.1171875,0.013021 -0.1302083,0.091146 -0.091146,0.2994792 -0.3255209,1.0026042 -1.0026042,1.57552084 -0.6901042,0.55989584 -1.3151042,0.72916667 -1.8359375,0.72916667 -0.8984375,0 -1.953125,-0.52083333 -1.953125,-2.07031251 0,-0.5729167 0.2083333,-2.1875 1.1979167,-3.3463542 0.6119791,-0.703125 1.5494791,-1.2109375 2.4348958,-1.2109375 1.015625,0 1.6015625,0.7682292 1.6015625,1.9270834 0,0.4036458 -0.026042,0.4036458 -0.026042,0.5078125 0,0.1041666 0.1041667,0.1041666 0.1432292,0.1041666 0.1302083,0 0.1302083,-0.026042 0.1822917,-0.2083333 z m 0,0"
       style="fill:#000000;fill-opacity:1;fill-rule:nonzero;stroke:none"
       aria-label="C"
       transform="matrix(1.2,0,0,1.2,101.88067,104.01667)" />
    <path
       id="path12"
       d="M 3.5295747,-1.2745139 H 3.2821788 c -0.013021,0.15625 -0.091146,0.57291668 -0.1692708,0.63802084 -0.065104,0.0390625 -0.5989583,0.0390625 -0.703125,0.0390625 H 1.1337413 C 1.862908,-1.2354514 2.1103038,-1.4307639 2.5269705,-1.7693056 c 0.5208333,-0.4036458 1.0026042,-0.8333333 1.0026042,-1.4973958 0,-0.8463542 -0.7421875,-1.3671875 -1.640625,-1.3671875 -0.859375,0 -1.44531255,0.6119792 -1.44531255,1.25 0,0.3515625 0.29947917,0.390625 0.36458334,0.390625 0.16927083,0 0.37760421,-0.1171875 0.37760421,-0.3645833 0,-0.1302084 -0.052083,-0.3776042 -0.41666671,-0.3776042 0.22135416,-0.4947917 0.69010421,-0.6510417 1.01562501,-0.6510417 0.703125,0 1.0677083,0.546875 1.0677083,1.1197917 0,0.5989583 -0.4427083,1.0807292 -0.6640625,1.3411458 l -1.67968748,1.65364588 c -0.0651042,0.0651042 -0.0651042,0.078125 -0.0651042,0.2734375 H 3.3212413 Z m 0,0"
       style="fill:#000000;fill-opacity:1;fill-rule:nonzero;stroke:none"
       aria-label="2"
       transform="matrix(1.2,0,0,1.2,110.42467,105.81067)" />
    <path
       id="path13"
       d="M 0.92480903,2.1085069 C 1.9274132,0.80642361 2.5524132,-1.0034722 2.5524132,-2.5659722 c 0,-1.5755209 -0.625,-3.3854167 -1.62760417,-4.7005209 h -0.546875 c 0.87239587,1.4322917 1.36718747,3.0989584 1.36718747,4.7005209 0,1.57552081 -0.4947916,3.26822914 -1.36718747,4.6744791 z m 0,0"
       style="fill:#000000;fill-opacity:1;fill-rule:nonzero;stroke:none"
       aria-label=")"
       transform="matrix(1.2,0,0,1.2,115.78867,104.01667)" />
    <path
       id="path14"
       d="M 2.4723559,-4.517717 H 4.1390226 V -5.0906337 H 0.14162674 V -4.517717 H 1.8213142 V 5.1215278e-4 h 0.6510417 z m 2.281901,-0.5729167 V 5.1215278e-4 H 5.3271736 V -2.017717 c 0,-0.7421875 0.390625,-1.2369792 0.9895833,-1.2369792 0.1953125,0 0.3776042,0.065104 0.5208334,0.1692709 0.1692708,0.1171875 0.234375,0.2994791 0.234375,0.546875 V 5.1215278e-4 H 7.6448819 V -2.7599045 c 0,-0.6119792 -0.4296875,-1.0026042 -1.1458333,-1.0026042 -0.5208333,0 -0.8333333,0.15625 -1.171875,0.6119792 v -1.9401042 z m 6.9661461,3.4635417 c 0,-0.5598958 -0.03906,-0.8984375 -0.143229,-1.171875 -0.247396,-0.5989583 -0.794271,-0.9635417 -1.484375,-0.9635417 -1.0156254,0 -1.6796879,0.78125 -1.6796879,1.9791667 0,1.21093749 0.6380208,1.94010415 1.6666669,1.94010415 0.833333,0 1.419271,-0.46875 1.5625,-1.26302085 H 11.05634 c -0.15625,0.48177085 -0.481771,0.72916669 -0.950521,0.72916669 -0.3776037,0 -0.6901037,-0.16927084 -0.8854162,-0.46875 C 9.0771736,-1.0541753 9.0381111,-1.2755295 9.0250903,-1.627092 Z M 9.0381111,-2.1088628 c 0.052083,-0.6770834 0.46875,-1.1197917 1.0546879,-1.1197917 0.559895,0 1.002604,0.4817708 1.002604,1.0807292 0,0.013021 0,0.026042 0,0.039063 z M 19.148788,5.1215278e-4 20.437851,-5.0906337 h -0.729167 l -0.9375,4.14062502 -1.158854,-4.14062502 h -0.690104 l -1.132813,4.14062502 -0.950521,-4.14062502 h -0.729166 l 1.302083,5.09114585278 h 0.716146 L 17.260767,-4.1791753 18.432642,5.1215278e-4 Z M 21.580429,-3.658342 H 21.007512 V 5.1215278e-4 h 0.572917 z m 0,-1.4322917 h -0.585938 v 0.7421875 h 0.585938 z m 0.986328,1.4322917 V 5.1215278e-4 h 0.585937 V -1.9005295 c 0,-0.5208333 0.130209,-0.859375 0.416667,-1.0677083 0.182292,-0.1302084 0.351563,-0.1692709 0.755208,-0.1822917 V -3.736467 c -0.09115,-0.013021 -0.143229,-0.026042 -0.221354,-0.026042 -0.377604,0 -0.664062,0.2213542 -1.002604,0.7682292 V -3.658342 Z m 5.423177,2.03125 c 0,-0.5598958 -0.03906,-0.8984375 -0.143229,-1.171875 -0.247396,-0.5989583 -0.794271,-0.9635417 -1.484375,-0.9635417 -1.015625,0 -1.679688,0.78125 -1.679688,1.9791667 0,1.21093749 0.638021,1.94010415 1.666667,1.94010415 0.833333,0 1.419271,-0.46875 1.5625,-1.26302085 h -0.585937 c -0.15625,0.48177085 -0.481771,0.72916669 -0.950521,0.72916669 -0.377604,0 -0.690104,-0.16927084 -0.885417,-0.46875 C 25.346705,-1.0541753 25.307642,-1.2755295 25.294622,-1.627092 Z m -2.682292,-0.4817708 c 0.05208,-0.6770834 0.46875,-1.1197917 1.054688,-1.1197917 0.559896,0 1.002604,0.4817708 1.002604,1.0807292 0,0.013021 0,0.026042 0,0.039063 z m 0,0"
       style="fill:#000000;fill-opacity:1;fill-rule:nonzero;stroke:none"
       aria-label="TheWire"
       transform="matrix(1.2,0,0,1.2,45.154267,118.36267)" />
    <path
       id="path15"
       d="M 134.97087,-44.0426 H 74.41498 c -5.50235,0 -9.96277,-4.46042 -9.96277,-9.96277 v -15.79105 c 0,-5.50235 4.46042,-9.96277 9.96277,-9.96277 h 60.55589 c 5.50235,0 9.96277,4.46042 9.96277,9.96277 v 15.79105 c 0,5.50235 -4.46042,9.96277 -9.96277,9.96277 z"
       style="fill:#dbfda6;fill-opacity:1;fill-rule:nonzero;stroke:#008f45;stroke-width:0.74721;stroke-linecap:butt;stroke-linejoin:miter;stroke-miterlimit:10;stroke-dasharray:none;stroke-opacity:1"
       transform="matrix(1.3333333,0,0,-1.3333333,209.688,24.308)" />
    <path
       id="path16"
       d="m 6.7980208,-4.8056771 c -0.052083,-0.625 -0.1822916,-1.0286458 -0.4947916,-1.4322917 -0.5598959,-0.7291666 -1.4453125,-1.1458333 -2.5390625,-1.1458333 -2.0442709,0 -3.32031253,1.4713542 -3.32031253,3.8151042 0,2.3307291 1.26302083,3.80208332 3.28125003,3.80208332 1.8098958,0 3.0078125,-1.0546875 3.0989583,-2.70833332 H 5.3657292 c -0.091146,0.9244791 -0.6770834,1.4453125 -1.6015625,1.4453125 -1.1588542,0 -1.8359375,-0.9375 -1.8359375,-2.5130209 0,-1.6145833 0.7161458,-2.5651041 1.8880208,-2.5651041 0.5208333,0 0.9505208,0.1822916 1.2239583,0.5338541 0.15625,0.1953125 0.234375,0.3776042 0.3255209,0.7682292 z m 3.3886722,-0.6640625 c -1.6406253,0 -2.6432295,1.0807292 -2.6432295,2.8515625 0,1.77083335 1.0026042,2.85156252 2.6562505,2.85156252 1.627604,0 2.65625,-1.09375 2.65625,-2.81250002 0,-1.8229167 -0.976563,-2.890625 -2.669271,-2.890625 z m 0.01302,1.1197917 c 0.768229,0 1.26302,0.6901041 1.26302,1.7447916 0,1.015625 -0.520833,1.70572922 -1.26302,1.70572922 -0.7552088,0 -1.2630213,-0.69010422 -1.2630213,-1.71875002 0,-1.0286458 0.5078125,-1.7317708 1.2630213,-1.7317708 z m 6.074218,-1.1197917 c -1.640625,0 -2.643229,1.0807292 -2.643229,2.8515625 0,1.77083335 1.002604,2.85156252 2.65625,2.85156252 1.627604,0 2.65625,-1.09375 2.65625,-2.81250002 0,-1.8229167 -0.976562,-2.890625 -2.669271,-2.890625 z m 0.01302,1.1197917 c 0.768229,0 1.263021,0.6901041 1.263021,1.7447916 0,1.015625 -0.520833,1.70572922 -1.263021,1.70572922 -0.755208,0 -1.263021,-0.69010422 -1.263021,-1.71875002 0,-1.0286458 0.507813,-1.7317708 1.263021,-1.7317708 z m 3.704427,-1.0286459 v 5.37760421667 h 1.393229 V -2.8655729 c 0,-0.8072917 0.416667,-1.2239584 1.223959,-1.2239584 0.15625,0 0.260416,0.013021 0.442708,0.039063 v -1.40625 c -0.07813,-0.013021 -0.130208,-0.013021 -0.169271,-0.013021 -0.638021,0 -1.197916,0.4166667 -1.497396,1.1458333 v -1.0546875 z m 7.089844,5.37760421667 h 1.393229 V -7.2666146 h -1.393229 v 2.578125 c -0.351563,-0.5338542 -0.820313,-0.78125 -1.484375,-0.78125 -1.289063,0 -2.265625,1.2369792 -2.265625,2.8645833 0,0.7161459 0.221354,1.4583334 0.585937,1.97916672 0.364584,0.52083333 1.015625,0.859375 1.679688,0.859375 0.664062,0 1.132812,-0.26041667 1.484375,-0.78125 z M 25.909349,-4.2978646 c 0.703125,0 1.171875,0.6770833 1.171875,1.7057292 0,0.9765625 -0.481771,1.65364582 -1.171875,1.65364582 -0.703125,0 -1.184896,-0.69010422 -1.184896,-1.66666672 0,-1.0026041 0.481771,-1.6927083 1.184896,-1.6927083 z m 5.279948,-1.0807292 h -1.393229 v 5.37760421667 h 1.393229 z m 0,-1.8880208 h -1.393229 v 1.25 h 1.393229 z m 1.334635,1.8880208 v 5.37760421667 h 1.393229 V -3.2301563 c 0,-0.6380208 0.45573,-1.0546875 1.132813,-1.0546875 0.598958,0 0.898437,0.3255209 0.898437,0.9635417 v 3.32031251667 h 1.39323 V -3.6077604 c 0,-1.1848959 -0.664063,-1.8619792 -1.809896,-1.8619792 -0.729167,0 -1.210938,0.2734375 -1.614584,0.8723958 v -0.78125 z m 10.683594,5.20833338 c -0.247396,-0.234375 -0.325521,-0.37760416 -0.325521,-0.65104166 V -3.8160938 c 0,-1.09375 -0.742187,-1.6536458 -2.200521,-1.6536458 -1.445312,0 -2.213541,0.6119792 -2.291666,1.8619792 h 1.341146 c 0.0651,-0.5598959 0.299479,-0.7421875 0.989583,-0.7421875 0.533854,0 0.807292,0.1822916 0.807292,0.546875 0,0.1822916 -0.09115,0.3385416 -0.247396,0.4166666 -0.182292,0.1041667 -0.182292,0.1041667 -0.872396,0.2083334 l -0.559896,0.1041666 c -1.067708,0.1692709 -1.588542,0.7161459 -1.588542,1.6927084 0,0.45572915 0.130209,0.83333332 0.377605,1.10677082 0.3125,0.3125 0.78125,0.5078125 1.26302,0.5078125 0.598959,0 1.145834,-0.26041667 1.627605,-0.76822917 0,0.2734375 0.03906,0.37760417 0.16927,0.53385416667 h 1.510417 z M 41.527839,-2.1624479 c 0,0.8072916 -0.403646,1.26302082 -1.106771,1.26302082 -0.46875,0 -0.755209,-0.24739582 -0.755209,-0.65104172 0,-0.4166666 0.208334,-0.6119791 0.794271,-0.7291666 l 0.46875,-0.091146 c 0.377604,-0.065104 0.429688,-0.091146 0.598959,-0.1692708 z m 4.993489,-3.1119792 h -0.768229 v -1.4453125 h -1.40625 v 1.4453125 h -0.677083 v 0.9244792 h 0.677083 v 3.3072916 c 0,0.84635422 0.455729,1.27604172 1.367187,1.27604172 0.3125,0 0.559896,-0.0390625 0.807292,-0.1171875 v -0.9765625 c -0.130208,0.0260417 -0.221354,0.0390625 -0.3125,0.0390625 -0.377604,0 -0.455729,-0.1171875 -0.455729,-0.59895832 v -2.9296875 h 0.768229 z m 2.379557,-0.1041667 h -1.393229 v 5.37760421667 h 1.393229 z m 0,-1.8880208 h -1.393229 v 1.25 h 1.393229 z m 3.707683,1.796875 c -1.640625,0 -2.643229,1.0807292 -2.643229,2.8515625 0,1.77083335 1.002604,2.85156252 2.65625,2.85156252 1.627604,0 2.65625,-1.09375 2.65625,-2.81250002 0,-1.8229167 -0.976563,-2.890625 -2.669271,-2.890625 z m 0.01302,1.1197917 c 0.768229,0 1.26302,0.6901041 1.26302,1.7447916 0,1.015625 -0.520833,1.70572922 -1.26302,1.70572922 -0.755209,0 -1.263021,-0.69010422 -1.263021,-1.71875002 0,-1.0286458 0.507812,-1.7317708 1.263021,-1.7317708 z m 3.704427,-1.0286459 v 5.37760421667 h 1.393229 V -3.2301563 c 0,-0.6380208 0.455729,-1.0546875 1.132812,-1.0546875 0.598959,0 0.898438,0.3255209 0.898438,0.9635417 v 3.32031251667 h 1.393229 V -3.6077604 c 0,-1.1848959 -0.664063,-1.8619792 -1.809896,-1.8619792 -0.729167,0 -1.210937,0.2734375 -1.614583,0.8723958 v -0.78125 z m 0,0"
       style="fill:#000000;fill-opacity:1;fill-rule:nonzero;stroke:none"
       aria-label="Coordination"
       transform="matrix(1.2,0,0,1.2,299.608,103.134)" />
    <path
       id="path17"
       d="m 2.3582083,-7.2666146 c -1.0026041,1.3151042 -1.62760413,3.125 -1.62760413,4.6875 0,1.5755208 0.62500003,3.38541668 1.62760413,4.6875 h 0.546875 c -0.8854166,-1.41927082 -1.3671875,-3.09895832 -1.3671875,-4.6875 0,-1.5885417 0.4817709,-3.2682292 1.3671875,-4.6875 z m 0,0"
       style="fill:#000000;fill-opacity:1;fill-rule:nonzero;stroke:none"
       aria-label="("
       transform="matrix(1.2,0,0,1.2,377.0764,103.134)" />
    <path
       id="path18"
       d="m 7.565599,-6.9280729 c 0,-0.026042 -0.013021,-0.091146 -0.1041667,-0.091146 -0.026042,0 -0.039063,0 -0.1432292,0.1171875 l -0.703125,0.7682292 c -0.091146,-0.1432292 -0.546875,-0.8854167 -1.6536458,-0.8854167 -2.2265625,0 -4.46614584,2.2005209 -4.46614584,4.5052084 0,1.64062498 1.18489584,2.73437498 2.70833334,2.73437498 0.859375,0 1.6145833,-0.40364583 2.1484375,-0.859375 0.9244792,-0.82031248 1.09375,-1.71874998 1.09375,-1.75781248 0,-0.091146 -0.1041667,-0.091146 -0.1171875,-0.091146 -0.065104,0 -0.1171875,0.013021 -0.1302083,0.091146 -0.091146,0.2994791 -0.3255209,1.0026041 -1.0026042,1.57552082 -0.6901042,0.55989583 -1.3151042,0.72916666 -1.8359375,0.72916666 -0.8984375,0 -1.953125,-0.52083333 -1.953125,-2.07031248 0,-0.5729167 0.2083333,-2.1875 1.1979167,-3.3463542 0.6119791,-0.703125 1.5494791,-1.2109375 2.4348958,-1.2109375 1.015625,0 1.6015625,0.7682292 1.6015625,1.9270833 0,0.4036459 -0.026042,0.4036459 -0.026042,0.5078125 0,0.1041667 0.1041667,0.1041667 0.1432292,0.1041667 0.1302083,0 0.1302083,-0.026042 0.1822917,-0.2083333 z m 0,0"
       style="fill:#000000;fill-opacity:1;fill-rule:nonzero;stroke:none"
       aria-label="C"
       transform="matrix(1.2,0,0,1.2,381.058,103.134)" />
    <path
       id="path19"
       d="m 1.9006771,-2.3315781 c 0.546875,0 0.9375,0.3776041 0.9375,1.1197916 0,0.87239587 -0.4947917,1.13281254 -0.9114583,1.13281254 -0.2734375,0 -0.8854167,-0.078125 -1.18489588,-0.49479167 0.33854168,-0.0130208 0.40364588,-0.24739583 0.40364588,-0.390625 0,-0.22135417 -0.15625005,-0.37760417 -0.37760422,-0.37760417 -0.1953125,0 -0.390625,0.1171875 -0.390625,0.40364584 0,0.65104167 0.72916672,1.08072917 1.57552082,1.08072917 0.9635417,0 1.640625,-0.65104167 1.640625,-1.35416671 0,-0.546875 -0.4557291,-1.0807291 -1.2239583,-1.25 0.7421875,-0.2604166 1.0026042,-0.78125 1.0026042,-1.2109375 0,-0.546875 -0.6380209,-0.9635416 -1.40625,-0.9635416 -0.78125,0 -1.36718755,0.3776041 -1.36718755,0.9375 0,0.234375 0.14322917,0.3645833 0.3515625,0.3645833 0.22135415,0 0.36458335,-0.15625 0.36458335,-0.3515625 0,-0.2083333 -0.1432292,-0.3515625 -0.36458335,-0.3645833 0.24739585,-0.2994792 0.72916665,-0.3776042 0.98958335,-0.3776042 0.3125,0 0.7552083,0.1432292 0.7552083,0.7552083 0,0.2994792 -0.1041666,0.6119792 -0.2864583,0.8333334 -0.2213542,0.2604166 -0.4166667,0.2734375 -0.7682292,0.2994791 -0.1692708,0.013021 -0.1953125,0.013021 -0.2213541,0.026042 -0.013021,0 -0.078125,0.013021 -0.078125,0.078125 0,0.1041667 0.065104,0.1041667 0.1822916,0.1041667 z m 0,0"
       style="fill:#000000;fill-opacity:1;fill-rule:nonzero;stroke:none"
       aria-label="3"
       transform="matrix(1.2,0,0,1.2,389.602,104.9268)" />
    <path
       id="path20"
       d="M 0.92351562,2.1083854 C 1.9261198,0.80630208 2.5511198,-1.0035938 2.5511198,-2.5660938 c 0,-1.5755208 -0.625,-3.3854166 -1.62760418,-4.7005208 h -0.546875 c 0.87239588,1.4322917 1.36718748,3.0989583 1.36718748,4.7005208 0,1.57552088 -0.4947916,3.26822922 -1.36718748,4.6744792 z m 0,0"
       style="fill:#000000;fill-opacity:1;fill-rule:nonzero;stroke:none"
       aria-label=")"
       transform="matrix(1.2,0,0,1.2,394.966,103.134)" />
    <path
       id="path21"
       d="M 2.4725781,-4.5178385 H 4.1392448 V -5.0907552 H 0.14184896 v 0.5729167 H 1.8215365 V 3.90625e-4 H 2.4725781 Z M 4.7544792,-5.0907552 V 3.90625e-4 H 5.3273958 V -2.0178385 c 0,-0.7421875 0.390625,-1.2369792 0.9895834,-1.2369792 0.1953125,0 0.3776041,0.065104 0.5208333,0.1692708 0.1692708,0.1171875 0.234375,0.2994792 0.234375,0.546875 V 3.90625e-4 H 7.6451042 V -2.760026 c 0,-0.6119792 -0.4296875,-1.0026042 -1.1458334,-1.0026042 -0.5208333,0 -0.8333333,0.15625 -1.171875,0.6119792 v -1.9401042 z m 6.9661458,3.4635417 c 0,-0.5598959 -0.03906,-0.8984375 -0.143229,-1.171875 -0.247396,-0.5989584 -0.794271,-0.9635417 -1.484375,-0.9635417 -1.0156252,0 -1.6796877,0.78125 -1.6796877,1.9791667 0,1.21093746 0.6380209,1.94010412 1.6666667,1.94010412 0.833333,0 1.419271,-0.46875 1.5625,-1.26302082 h -0.585937 c -0.15625,0.48177082 -0.481771,0.72916666 -0.950521,0.72916666 -0.3776045,0 -0.6901045,-0.16927084 -0.885417,-0.46875 C 9.0773958,-1.0542969 9.0383333,-1.275651 9.0253125,-1.6272135 Z M 9.0383333,-2.1089844 c 0.052083,-0.6770833 0.46875,-1.1197916 1.0546877,-1.1197916 0.559896,0 1.002604,0.4817708 1.002604,1.0807291 0,0.013021 0,0.026042 0,0.039063 z M 15.164635,-5.0907552 H 14.513594 V 3.90625e-4 h 3.164062 V -0.57252604 h -2.513021 z m 4.567058,1.328125 c -1.028646,0 -1.653646,0.7291667 -1.653646,1.9661458 0,1.22395836 0.611979,1.95312502 1.653646,1.95312502 1.028646,0 1.653646,-0.72916666 1.653646,-1.92708332 0,-1.2630208 -0.598959,-1.9921875 -1.653646,-1.9921875 z m 0,0.5338542 c 0.664062,0 1.054687,0.546875 1.054687,1.4453125 0,0.85937496 -0.403646,1.40624996 -1.054687,1.40624996 -0.651042,0 -1.041667,-0.53385417 -1.041667,-1.41927086 0,-0.8854166 0.390625,-1.4322916 1.041667,-1.4322916 z m 4.856771,-0.4296875 v 0.5338541 c -0.29948,-0.4296875 -0.651042,-0.6380208 -1.119792,-0.6380208 -0.924479,0 -1.549479,0.8072917 -1.549479,1.9921875 0,0.5989583 0.15625,1.09374999 0.455729,1.44531249 0.273437,0.29947917 0.664062,0.48177083 1.041667,0.48177083 0.46875,0 0.78125,-0.1953125 1.119791,-0.65104166 v 0.18229166 c 0,0.49479167 -0.0651,0.80729167 -0.221354,1.00260417 -0.143229,0.22135417 -0.442708,0.33854171 -0.807292,0.33854171 -0.260416,0 -0.494791,-0.0651042 -0.664062,-0.19531254 C 22.713464,0.72955729 22.66138,0.63841146 22.622318,0.41705729 H 22.03638 c 0.05208,0.69010421 0.598959,1.10677081 1.458334,1.10677081 0.533854,0 1.002604,-0.1822916 1.25,-0.46875 0.273437,-0.33854164 0.377604,-0.79427081 0.377604,-1.65364581 V -3.6584635 Z m -1.054688,0.4296875 c 0.625,0 1.002604,0.5338541 1.002604,1.4453125 0,0.87239579 -0.377604,1.40624996 -1.002604,1.40624996 -0.625,0 -1.015625,-0.53385417 -1.015625,-1.41927086 0,-0.8854166 0.390625,-1.4322916 1.015625,-1.4322916 z m 3.095703,-0.4296875 H 26.056563 V 3.90625e-4 h 0.572916 z m 0,-1.4322917 h -0.585937 v 0.7421875 h 0.585937 z m 3.785807,2.65625 c -0.02604,-0.3515625 -0.104166,-0.5859375 -0.234375,-0.78125 -0.260416,-0.3385417 -0.690104,-0.546875 -1.197916,-0.546875 -0.989584,0 -1.627604,0.78125 -1.627604,1.9921875 0,1.18489582 0.625,1.92708332 1.614583,1.92708332 0.872396,0 1.419271,-0.52083333 1.497396,-1.40625002 h -0.585938 c -0.104166,0.58593752 -0.403646,0.87239586 -0.898437,0.87239586 -0.638021,0 -1.028646,-0.52083334 -1.028646,-1.39322916 0,-0.9114583 0.377604,-1.4583333 1.015625,-1.4583333 0.481771,0 0.794271,0.2864583 0.859375,0.7942708 z m 0,0"
       style="fill:#000000;fill-opacity:1;fill-rule:nonzero;stroke:none"
       aria-label="TheLogic"
       transform="matrix(1.2,0,0,1.2,330.904,117.48)" />
    <path
       id="path22"
       d="m 34.17107,-41.26646 c 0,19.97336 -16.19117,36.16452 -36.16451,36.16452 -19.97337,0 -36.16452,-16.19116 -36.16452,-36.16452 0,-19.97336 16.19115,-36.16452 36.16452,-36.16452 19.97334,0 36.16451,16.19116 36.16451,36.16452 z"
       style="fill:#f3f3ff;fill-opacity:1;fill-rule:nonzero;stroke:#7e317b;stroke-width:0.74721;stroke-linecap:butt;stroke-linejoin:miter;stroke-miterlimit:10;stroke-dasharray:2.98883, 2.98883;stroke-dashoffset:0;stroke-opacity:1"
       transform="matrix(1.3333333,0,0,-1.3333333,209.688,24.308)" />
    <path
       id="path23"
       d="M 6.1189844,-4.3217378 C 6.066901,-4.8946545 5.9497135,-5.246217 5.676276,-5.6108003 5.1814844,-6.2748628 4.3741927,-6.652467 3.3846094,-6.652467 c -1.8359375,0 -2.99479169,1.328125 -2.99479169,3.4375 0,2.109375 1.14583329,3.42447915 2.96874999,3.42447915 1.6145833,0 2.7083333,-0.9375 2.7864583,-2.44791665 H 4.8299219 c -0.078125,0.8463542 -0.5989584,1.31510415 -1.4453125,1.31510415 -1.0286459,0 -1.640625,-0.84635415 -1.640625,-2.26562495 0,-1.4453125 0.6380208,-2.3046875 1.6927083,-2.3046875 0.46875,0 0.8463542,0.15625 1.1067708,0.46875 0.1432292,0.1822916 0.2083334,0.3515625 0.2864584,0.703125 z m 3.0501302,-0.5989584 c -1.4713542,0 -2.3828125,0.9765625 -2.3828125,2.5651042 0,1.58854165 0.9114583,2.56510415 2.3958333,2.56510415 1.4713546,0 2.3958336,-0.9765625 2.3958336,-2.52604165 0,-1.6536458 -0.885417,-2.6041667 -2.4088544,-2.6041667 z m 0.013021,1.015625 c 0.6901042,0 1.1458334,0.6119792 1.1458334,1.5625 0,0.9114584 -0.4687501,1.53645835 -1.1458334,1.53645835 -0.6770833,0 -1.1328125,-0.62499995 -1.1328125,-1.54947915 0,-0.9244792 0.4557292,-1.5494792 1.1328125,-1.5494792 z m 3.3300784,-0.9375 v 4.84375002 h 1.26302 V -2.902467 c 0,-0.5729167 0.403646,-0.9505208 1.015625,-0.9505208 0.533855,0 0.807292,0.2864583 0.807292,0.8723958 v 2.98177082 h 1.25 V -3.2410087 c 0,-1.0677083 -0.585937,-1.6796875 -1.627604,-1.6796875 -0.651042,0 -1.09375,0.234375 -1.445313,0.78125 v -0.703125 z m 9.449869,1.5625 c -0.01302,-1.0286458 -0.807291,-1.640625 -2.109375,-1.640625 -1.223958,0 -1.992187,0.6119792 -1.992187,1.6145834 0,0.3255208 0.104166,0.5989583 0.273437,0.78125 0.169271,0.1692708 0.325521,0.2604166 0.78125,0.4036458 l 1.497396,0.46875 c 0.325521,0.1041667 0.429688,0.1953125 0.429688,0.4036458 0,0.28645835 -0.351563,0.46875002 -0.9375,0.46875002 -0.325521,0 -0.585938,-0.0651042 -0.742188,-0.16927083 C 19.032396,-1.0535087 18.980312,-1.1446545 18.915208,-1.4050712 H 17.69125 c 0.03906,1.05468752 0.820312,1.61458335 2.291667,1.61458335 0.664062,0 1.184895,-0.14322916 1.536458,-0.4296875 0.364583,-0.28645833 0.572917,-0.7421875 0.572917,-1.21093745 0,-0.625 -0.3125,-1.0286459 -0.950521,-1.2239584 l -1.588542,-0.4557291 c -0.351562,-0.1041667 -0.429687,-0.1822917 -0.429687,-0.3776042 0,-0.2734375 0.286458,-0.4427083 0.716145,-0.4427083 0.61198,0 0.898438,0.2083333 0.911459,0.6510416 z m 5.152995,1.25 c 0.01302,-0.1041666 0.01302,-0.1432291 0.01302,-0.2083333 0,-0.4817708 -0.07813,-0.9375 -0.195313,-1.2760417 -0.32552,-0.8854166 -1.09375,-1.40625 -2.083333,-1.40625 -1.380208,0 -2.239583,1.0026042 -2.239583,2.6302084 0,1.54947912 0.846354,2.49999995 2.213541,2.49999995 1.09375,0 1.966146,-0.625 2.252605,-1.57552085 h -1.23698 c -0.15625,0.39062502 -0.507812,0.61197919 -0.963541,0.61197919 -0.364584,0 -0.651042,-0.15625 -0.833334,-0.41666669 -0.117187,-0.1822916 -0.15625,-0.4036458 -0.16927,-0.859375 z m -3.229167,-0.8333333 c 0.07813,-0.7291667 0.390625,-1.1067708 0.950521,-1.1067708 0.3125,0 0.598959,0.15625 0.78125,0.4036458 0.117188,0.1822917 0.169271,0.3776042 0.195313,0.703125 z m 4.075521,-1.9791667 v 4.84375002 h 1.263021 V -2.5769462 c 0,-0.7291666 0.364583,-1.09375 1.106771,-1.09375 0.130208,0 0.221354,0 0.390625,0.026042 v -1.2760417 c -0.07813,0 -0.117188,0 -0.15625,0 -0.572917,0 -1.067708,0.3776042 -1.341146,1.0286459 v -0.9505209 z m 6.145834,4.84375002 1.666666,-4.84375002 h -1.328125 l -0.976562,3.5416667 -1.041667,-3.5416667 h -1.328125 l 1.692708,4.84375002 z m 6.376953,-0.15625 C 40.262865,-0.36340451 40.19776,-0.49361285 40.19776,-0.74100868 V -3.4363212 c 0,-0.9895833 -0.677083,-1.484375 -1.979166,-1.484375 -1.315104,0 -1.992188,0.546875 -2.070313,1.6796875 h 1.210938 c 0.05208,-0.5078125 0.260416,-0.6640625 0.885416,-0.6640625 0.481771,0 0.729167,0.15625 0.729167,0.4817709 0,0.15625 -0.09115,0.2994791 -0.221354,0.3776041 -0.169271,0.091146 -0.169271,0.091146 -0.794271,0.1822917 l -0.494792,0.091146 c -0.963541,0.1692709 -1.432291,0.6510417 -1.432291,1.5234375 0,0.41666669 0.117187,0.75520835 0.338541,1.00260419 0.286459,0.28645833 0.703125,0.45572916 1.132813,0.45572916 0.546875,0 1.041667,-0.234375 1.471354,-0.69010416 0,0.24739583 0.02604,0.33854166 0.143229,0.48177083 h 1.367188 z M 38.973802,-1.9519462 c 0,0.7291667 -0.364583,1.14583335 -1.002604,1.14583335 -0.416667,0 -0.677083,-0.22135415 -0.677083,-0.58593745 0,-0.3776042 0.195312,-0.5598959 0.716145,-0.6640625 l 0.429688,-0.078125 c 0.325521,-0.065104 0.390625,-0.078125 0.533854,-0.15625 z m 4.492188,-2.7864583 h -0.690105 v -1.3020833 h -1.26302 v 1.3020833 h -0.61198 v 0.8333333 h 0.61198 v 2.96875002 c 0,0.76822917 0.403645,1.14583333 1.236979,1.14583333 0.273437,0 0.494791,-0.0260417 0.716146,-0.10416666 v -0.87239584 c -0.117188,0.0130208 -0.195313,0.0260417 -0.286459,0.0260417 -0.325521,0 -0.403646,-0.10416667 -0.403646,-0.53385415 v -2.6302084 h 0.690105 z m 2.151692,-0.1041667 h -1.263021 v 4.84375002 h 1.263021 z m 0,-1.6927083 h -1.263021 v 1.1197917 h 1.263021 z m 3.326823,1.6145833 c -1.471354,0 -2.382812,0.9765625 -2.382812,2.5651042 0,1.58854165 0.911458,2.56510415 2.395833,2.56510415 1.471354,0 2.395833,-0.9765625 2.395833,-2.52604165 0,-1.6536458 -0.885416,-2.6041667 -2.408854,-2.6041667 z m 0.01302,1.015625 c 0.690104,0 1.145833,0.6119792 1.145833,1.5625 0,0.9114584 -0.46875,1.53645835 -1.145833,1.53645835 -0.677083,0 -1.132812,-0.62499995 -1.132812,-1.54947915 0,-0.9244792 0.455729,-1.5494792 1.132812,-1.5494792 z m 3.330078,-0.9375 v 4.84375002 h 1.263021 V -2.902467 c 0,-0.5729167 0.403646,-0.9505208 1.015625,-0.9505208 0.533854,0 0.807292,0.2864583 0.807292,0.8723958 v 2.98177082 h 1.25 V -3.2410087 c 0,-1.0677083 -0.585938,-1.6796875 -1.627605,-1.6796875 -0.651041,0 -1.09375,0.234375 -1.445312,0.78125 v -0.703125 z m 0,0"
       style="fill:#000000;fill-opacity:1;fill-rule:nonzero;stroke:none"
       aria-label="Conservation"
       transform="matrix(1.2,0,0,1.2,172.708,76.611867)" />
    <path
       id="path24"
       d="m 2.6961667,-4.9226649 c -1.4713542,0 -2.38281253,0.9765625 -2.38281253,2.5651041 0,1.5885417 0.91145833,2.5651042 2.39583333,2.5651042 1.4713542,0 2.3958333,-0.9765625 2.3958333,-2.5260417 0,-1.6536458 -0.8854166,-2.6041666 -2.4088541,-2.6041666 z m 0.013021,1.015625 c 0.6901042,0 1.1458333,0.6119791 1.1458333,1.5625 0,0.9114583 -0.46875,1.5364583 -1.1458333,1.5364583 -0.6770833,0 -1.1328125,-0.625 -1.1328125,-1.5494792 0,-0.9244791 0.4557292,-1.5494791 1.1328125,-1.5494791 z M 8.2918698,-4.7403733 H 7.5366615 v -0.4817708 c 0,-0.2473958 0.1171875,-0.3776042 0.3515625,-0.3776042 0.1041666,0 0.2473958,0.013021 0.3515625,0.026042 v -0.9375 c -0.234375,-0.026042 -0.546875,-0.026042 -0.7161459,-0.026042 -0.8333333,0 -1.2369791,0.390625 -1.2369791,1.2109375 v 0.5859375 H 5.6095781 v 0.8333334 h 0.6770834 v 3.90624996944 h 1.25 V -3.9070399 H 8.2918698 Z M 14.46049,-6.6544358 c -0.92448,0 -1.666667,0.3125 -2.226563,0.9114584 -0.585937,0.625 -0.911458,1.5494791 -0.911458,2.5260416 0,0.9765625 0.325521,1.9010417 0.911458,2.51302087 0.559896,0.61197917 1.302083,0.91145833 2.226563,0.91145833 0.9375,0 1.679687,-0.29947916 2.239583,-0.91145833 0.559896,-0.59895837 0.911458,-1.54947917 0.911458,-2.47395837 0,-1.015625 -0.325521,-1.9401041 -0.911458,-2.5651041 -0.572917,-0.6119792 -1.302083,-0.9114584 -2.239583,-0.9114584 z m 0,1.1588542 c 1.10677,0 1.809895,0.8984375 1.809895,2.3046875 0,1.3411458 -0.729166,2.25260417 -1.809895,2.25260417 -1.08073,0 -1.796875,-0.91145837 -1.796875,-2.27864587 0,-1.3802083 0.716145,-2.2786458 1.796875,-2.2786458 z M 21.071818,-7.8993056e-4 22.738484,-4.8445399 h -1.328125 l -0.976562,3.5416666 -1.041667,-3.5416666 h -1.328125 l 1.692709,4.84374996944 z M 27.618042,-2.0320399 c 0.01302,-0.1041667 0.01302,-0.1432292 0.01302,-0.2083334 0,-0.4817708 -0.07813,-0.9375 -0.195313,-1.2760416 -0.325521,-0.8854167 -1.09375,-1.40625 -2.083333,-1.40625 -1.380209,0 -2.239584,1.0026041 -2.239584,2.6302083 0,1.54947917 0.846355,2.5 2.213542,2.5 1.09375,0 1.966146,-0.625 2.252604,-1.5755208 H 26.342 c -0.15625,0.39062497 -0.507812,0.61197914 -0.963542,0.61197914 -0.364583,0 -0.651041,-0.15625 -0.833333,-0.41666664 -0.117187,-0.1822917 -0.15625,-0.4036459 -0.169271,-0.859375 z m -3.229167,-0.8333334 c 0.07813,-0.7291666 0.390625,-1.1067708 0.950521,-1.1067708 0.3125,0 0.598958,0.15625 0.78125,0.4036458 0.117187,0.1822917 0.169271,0.3776042 0.195312,0.703125 z m 4.075521,-1.9791666 v 4.84374996944 h 1.263021 V -2.5789149 c 0,-0.7291667 0.364583,-1.09375 1.106771,-1.09375 0.130208,0 0.221354,0 0.390625,0.026042 v -1.2760416 c -0.07813,0 -0.117188,0 -0.15625,0 -0.572917,0 -1.067709,0.3776041 -1.341146,1.0286458 v -0.9505208 z m 3.52539,-1.6927084 v 6.53645836944 h 1.263021 V -2.9044358 c 0,-0.5598958 0.403646,-0.9505208 0.963542,-0.9505208 0.273437,0 0.481771,0.091146 0.625,0.2864583 0.117187,0.1692709 0.143229,0.2994792 0.143229,0.6119792 v 2.95572916944 h 1.263021 V -3.2429774 c 0,-0.6119792 -0.169271,-1.0416667 -0.494792,-1.3151042 -0.286458,-0.234375 -0.690104,-0.3645833 -1.09375,-0.3645833 -0.611979,0 -1.067708,0.2473958 -1.40625,0.78125 v -2.3958334 z m 9.580079,4.5052084 c 0.01302,-0.1041667 0.01302,-0.1432292 0.01302,-0.2083334 0,-0.4817708 -0.07813,-0.9375 -0.195312,-1.2760416 -0.325521,-0.8854167 -1.09375,-1.40625 -2.083333,-1.40625 -1.380209,0 -2.239584,1.0026041 -2.239584,2.6302083 0,1.54947917 0.846354,2.5 2.213542,2.5 1.09375,0 1.966146,-0.625 2.252604,-1.5755208 h -1.236979 c -0.15625,0.39062497 -0.507813,0.61197914 -0.963542,0.61197914 -0.364583,0 -0.651041,-0.15625 -0.833333,-0.41666664 -0.117188,-0.1822917 -0.15625,-0.4036459 -0.169271,-0.859375 z m -3.229167,-0.8333334 c 0.07813,-0.7291666 0.390625,-1.1067708 0.950521,-1.1067708 0.3125,0 0.598958,0.15625 0.78125,0.4036458 0.117187,0.1822917 0.169271,0.3776042 0.195312,0.703125 z m 8.216146,2.70833337 C 46.33549,-0.36537326 46.270385,-0.4955816 46.270385,-0.74297743 V -3.4382899 c 0,-0.9895834 -0.677083,-1.484375 -1.979166,-1.484375 -1.315104,0 -1.992188,0.546875 -2.070313,1.6796875 h 1.210938 c 0.05208,-0.5078125 0.260416,-0.6640625 0.885416,-0.6640625 0.481771,0 0.729167,0.15625 0.729167,0.4817708 0,0.15625 -0.09115,0.2994792 -0.221354,0.3776042 -0.169271,0.091146 -0.169271,0.091146 -0.794271,0.1822916 l -0.494792,0.091146 c -0.963541,0.1692708 -1.432291,0.6510416 -1.432291,1.5234375 0,0.41666664 0.117187,0.7552083 0.338541,1.00260414 0.286459,0.28645833 0.703125,0.45572916 1.132813,0.45572916 0.546875,0 1.041667,-0.234375 1.471354,-0.69010416 0,0.24739583 0.02604,0.33854166 0.143229,0.48177082944 h 1.367188 z M 45.046427,-1.9539149 c 0,0.7291666 -0.364583,1.1458333 -1.002604,1.1458333 -0.416667,0 -0.677083,-0.2213542 -0.677083,-0.5859375 0,-0.3776042 0.195312,-0.5598958 0.716145,-0.6640625 l 0.429688,-0.078125 c 0.325521,-0.065104 0.390625,-0.078125 0.533854,-0.15625 z m 5.426432,1.95312496944 H 51.73588 V -6.5372483 h -1.263021 v 2.3177084 c -0.3125,-0.4817709 -0.729166,-0.703125 -1.341145,-0.703125 -1.145834,0 -2.03125,1.1067708 -2.03125,2.5651041 0,0.6640625 0.195312,1.328125 0.520833,1.79687504 0.325521,0.45572916 0.924479,0.76822916 1.510417,0.76822916 0.611979,0 1.028645,-0.22135416 1.341145,-0.703125 z M 49.418172,-3.8809983 c 0.638021,0 1.054687,0.625 1.054687,1.5494792 0,0.8723958 -0.429687,1.484375 -1.054687,1.484375 -0.625,0 -1.067708,-0.6119792 -1.067708,-1.5104167 0,-0.8854166 0.442708,-1.5234375 1.067708,-1.5234375 z m 0,0"
       style="fill:#000000;fill-opacity:1;fill-rule:nonzero;stroke:none"
       aria-label="ofOverhead"
       transform="matrix(1.2,0,0,1.2,175.6396,89.762667)" />
    <path
       id="path25"
       d="M -33.39194,-18.68059 -77.28381,-43.22003"
       style="fill:none;stroke:#8f7874;stroke-width:0.99628;stroke-linecap:butt;stroke-linejoin:miter;stroke-miterlimit:10;stroke-dasharray:none;stroke-opacity:1"
       transform="matrix(1.3333333,0,0,-1.3333333,209.688,24.308)" />
    <path
       id="path26"
       d="M -2.78957,3.47087 C -2.27992,1.38832 -1.14423,0.40492 0,0 -1.14423,-0.40492 -2.27992,-1.38832 -2.78957,-3.47087"
       style="fill:none;stroke:#8f7874;stroke-width:0.99628;stroke-linecap:round;stroke-linejoin:round;stroke-miterlimit:10;stroke-dasharray:none;stroke-opacity:1"
       transform="matrix(1.1637333,-0.65065333,-0.65065333,-1.1637333,165.74511,48.891333)" />
    <path
       id="path27"
       d="M -2.78957,3.47087 C -2.27992,1.38832 -1.14423,0.40492 0,0 -1.14423,-0.40492 -2.27992,-1.38832 -2.78957,-3.47087"
       style="fill:none;stroke:#8f7874;stroke-width:0.99628;stroke-linecap:round;stroke-linejoin:round;stroke-miterlimit:10;stroke-dasharray:none;stroke-opacity:1"
       transform="matrix(-1.1637333,0.65064,0.65064,1.1637333,106.06323,82.258827)" />
    <path
       id="path28"
       d="m -34.32892,-21.19537 h -32.89116 v -14.40717 h 32.89116 z"
       style="fill:#ffffff;fill-opacity:0.9;fill-rule:nonzero;stroke:none"
       transform="matrix(1.3333333,0,0,-1.3333333,209.688,24.308)" />
    <path
       id="path29"
       d="M 0.54670139,6.9444444e-6 H 2.8513889 c 0.4817708,0 0.8333333,-0.1302083344444 1.1067708,-0.4296875044444 0.2473959,-0.26041666 0.390625,-0.62500004 0.390625,-1.01562504 0,-0.625 -0.2864583,-0.9895833 -0.9244791,-1.2369791 0.4557291,-0.2213542 0.703125,-0.5989584 0.703125,-1.1197917 0,-0.3645833 -0.1432292,-0.6901042 -0.4036459,-0.9244792 C 3.4503472,-4.9739514 3.1118056,-5.0911389 2.6170139,-5.0911389 H 0.54670139 Z M 1.1977431,-2.8906181 v -1.6276041 h 1.2630208 c 0.3645833,0 0.5598958,0.052083 0.7291667,0.1822916 0.1822916,0.1432292 0.2864583,0.3515625 0.2864583,0.625 0,0.2734375 -0.1041667,0.4947917 -0.2864583,0.6380209 -0.1692709,0.1302083 -0.3645834,0.1822916 -0.7291667,0.1822916 z m 0,2.31770838 V -2.3177014 h 1.5885416 c 0.3125,0 0.5208334,0.065104 0.6770834,0.234375 0.15625,0.1692708 0.234375,0.390625 0.234375,0.6380208 0,0.2473959 -0.078125,0.46875004 -0.234375,0.62500004 -0.15625,0.16927084 -0.3645834,0.24739584 -0.6770834,0.24739584 z m 7.1907552,0.234375 c -0.065104,0.0130208 -0.091146,0.0130208 -0.1302084,0.0130208 -0.1953125,0 -0.3125,-0.10416667 -0.3125,-0.28645833 V -2.7604097 c 0,-0.6510417 -0.46875,-1.0026042 -1.3802083,-1.0026042 -0.5208333,0 -0.9635417,0.15625 -1.2109375,0.4296875 -0.1692708,0.1822917 -0.234375,0.390625 -0.2473958,0.7552083 h 0.5859375 c 0.052083,-0.4427083 0.3125,-0.6510416 0.859375,-0.6510416 0.5208333,0 0.8203125,0.1953125 0.8203125,0.546875 v 0.15625 c 0,0.2473958 -0.15625,0.3515625 -0.6119792,0.4036458 -0.8203125,0.1041667 -0.9505208,0.1302083 -1.171875,0.2213542 -0.4296875,0.1822916 -0.6380208,0.5078125 -0.6380208,0.97656248 0,0.6640625 0.4557291,1.08072916 1.1979166,1.08072916 0.4557292,0 0.8203125,-0.1562499955556 1.2369792,-0.53385416 0.039063,0.36458333 0.2213542,0.53385416 0.5989583,0.53385416 0.1171875,0 0.2083334,-0.0130208 0.4036459,-0.0520833 z M 7.3728733,-1.1458264 c 0,0.19531251 -0.065104,0.31250001 -0.234375,0.46875001 -0.234375,0.22135417 -0.5208334,0.32552083 -0.8723959,0.32552083 -0.4427083,0 -0.7161458,-0.20833333 -0.7161458,-0.5859375 0,-0.37760414 0.2604167,-0.57291664 0.8854167,-0.66406254 0.6119791,-0.091146 0.7291666,-0.1171875 0.9375,-0.2083333 z M 9.0232639,-3.6588472 V 6.9444444e-6 H 9.6092014 V -2.0182222 c 0,-0.7421875 0.390625,-1.2369792 0.9895836,-1.2369792 0.455729,0 0.755208,0.2864583 0.755208,0.7161458 V 6.9444444e-6 H 11.92691 V -2.7604097 c 0,-0.6119792 -0.455729,-1.0026042 -1.158854,-1.0026042 -0.546875,0 -0.8984379,0.2083333 -1.2109379,0.7161458 V -3.6588472 Z M 15.855946,-5.0911389 H 15.28303 v 1.9010417 c -0.247396,-0.3776042 -0.638021,-0.5729167 -1.119792,-0.5729167 -0.950521,0 -1.575521,0.7682292 -1.575521,1.9270833 0,1.23697921 0.611979,1.99218754 1.588542,1.99218754 0.507812,0 0.859375,-0.18229166 1.171875,-0.63802083 V 6.9444444e-6 h 0.507812 z m -1.601562,1.875 c 0.625,0 1.028646,0.5598958 1.028646,1.4322917 0,0.84635414 -0.403646,1.40624998 -1.015625,1.40624998 -0.651042,0 -1.067709,-0.57291667 -1.067709,-1.41927088 0,-0.859375 0.416667,-1.4192708 1.054688,-1.4192708 z M 20.149566,6.9444444e-6 21.217274,-3.6588472 H 20.566233 L 19.837066,-0.80728472 19.12092,-3.6588472 H 18.404774 L 17.71467,-0.80728472 16.972483,-3.6588472 H 16.321441 L 17.389149,6.9444444e-6 h 0.651042 L 18.743316,-2.8645764 19.485503,6.9444444e-6 Z M 22.359852,-3.6588472 H 21.786936 V 6.9444444e-6 h 0.572916 z m 0,-1.4322917 h -0.585937 v 0.7421875 h 0.585937 z m 3.958334,0 h -0.572917 v 1.9010417 c -0.247396,-0.3776042 -0.638021,-0.5729167 -1.119792,-0.5729167 -0.95052,0 -1.57552,0.7682292 -1.57552,1.9270833 0,1.23697921 0.611979,1.99218754 1.588541,1.99218754 0.507813,0 0.859375,-0.18229166 1.171875,-0.63802083 V 6.9444444e-6 h 0.507813 z m -1.601563,1.875 c 0.625,0 1.028646,0.5598958 1.028646,1.4322917 0,0.84635414 -0.403646,1.40624998 -1.015625,1.40624998 -0.651042,0 -1.067708,-0.57291667 -1.067708,-1.41927088 0,-0.859375 0.416666,-1.4192708 1.054687,-1.4192708 z m 3.798828,-0.4427083 h -0.598958 v -1.0026042 h -0.572917 v 1.0026042 h -0.494791 v 0.4817708 h 0.494791 v 2.76041668 c 0,0.36458333 0.247396,0.57291666 0.703125,0.57291666 0.130209,0 0.273438,-0.0130208 0.46875,-0.0390625 v -0.49479166 c -0.07813,0.0260417 -0.16927,0.0260417 -0.273437,0.0260417 -0.260417,0 -0.325521,-0.0651042 -0.325521,-0.32552083 V -3.1770764 h 0.598958 z m 0.664063,-1.4322917 V 6.9444444e-6 h 0.572917 V -2.0182222 c 0,-0.7421875 0.390625,-1.2369792 0.989583,-1.2369792 0.195312,0 0.377604,0.065104 0.520833,0.1692708 0.169271,0.1171875 0.234375,0.2994792 0.234375,0.546875 V 6.9444444e-6 h 0.572917 V -2.7604097 c 0,-0.6119792 -0.429688,-1.0026042 -1.145833,-1.0026042 -0.520834,0 -0.833334,0.15625 -1.171875,0.6119792 v -1.9401042 z m 0,0"
       style="fill:#8f7874;fill-opacity:1;fill-rule:nonzero;stroke:none"
       aria-label="Bandwidth"
       transform="matrix(1.2,0,0,1.2,122.45333,60.921867)" />
    <path
       id="path30"
       d="M 0.54787326,-0.00133681 H 2.8525608 c 0.4817708,0 0.8333333,-0.13020833 1.1067708,-0.4296875 0.2473958,-0.26041666 0.390625,-0.62499999 0.390625,-1.01562499 0,-0.625 -0.2864583,-0.9895833 -0.9244792,-1.2369792 0.4557292,-0.2213541 0.703125,-0.5989583 0.703125,-1.1197916 0,-0.3645834 -0.1432291,-0.6901042 -0.4036458,-0.9244792 C 3.4515191,-4.9752951 3.1129774,-5.0924826 2.6181858,-5.0924826 H 0.54787326 Z M 1.1989149,-2.8919618 V -4.519566 h 1.2630209 c 0.3645833,0 0.5598958,0.052083 0.7291666,0.1822917 0.1822917,0.1432292 0.2864584,0.3515625 0.2864584,0.625 0,0.2734375 -0.1041667,0.4947917 -0.2864584,0.6380208 -0.1692708,0.1302084 -0.3645833,0.1822917 -0.7291666,0.1822917 z m 0,2.31770833 V -2.3190451 h 1.5885417 c 0.3125,0 0.5208333,0.065104 0.6770833,0.234375 0.15625,0.1692708 0.234375,0.390625 0.234375,0.6380208 0,0.2473958 -0.078125,0.46874999 -0.234375,0.62499999 -0.15625,0.16927084 -0.3645833,0.24739584 -0.6770833,0.24739584 z M 6.5537326,-3.7643576 c -1.0286458,0 -1.6536458,0.7291666 -1.6536458,1.9661458 0,1.22395833 0.6119792,1.95312499 1.6536458,1.95312499 1.0286459,0 1.6536459,-0.72916666 1.6536459,-1.92708329 0,-1.2630209 -0.5989584,-1.9921875 -1.6536459,-1.9921875 z m 0,0.5338541 c 0.6640625,0 1.0546875,0.546875 1.0546875,1.4453125 0,0.85937503 -0.4036458,1.40625003 -1.0546875,1.40625003 -0.6510416,0 -1.0416666,-0.53385417 -1.0416666,-1.41927083 0,-0.8854167 0.390625,-1.4322917 1.0416666,-1.4322917 z m 5.3352864,3.22916669 V -3.660191 h -0.572917 v 2.0703125 c 0,0.75520836 -0.390625,1.23697919 -1.002604,1.23697919 -0.4557289,0 -0.7552081,-0.2734375 -0.7552081,-0.71614579 V -3.660191 H 8.9853733 v 2.82552086 c 0,0.59895833 0.4557291,0.98958333 1.1588537,0.98958333 0.546875,0 0.885417,-0.18229166 1.223959,-0.6640625 v 0.5078125 z m 1.01237,-3.65885419 v 3.65885419 h 0.585937 V -2.019566 c 0,-0.7421875 0.390625,-1.2369791 0.989584,-1.2369791 0.455729,0 0.755208,0.2864583 0.755208,0.7161458 v 2.53906249 h 0.572917 V -2.7617535 c 0,-0.6119791 -0.455729,-1.0026041 -1.158854,-1.0026041 -0.546875,0 -0.898438,0.2083333 -1.210938,0.7161458 V -3.660191 Z m 6.832682,-1.4322916 h -0.572916 v 1.9010416 c -0.247396,-0.3776041 -0.638021,-0.5729166 -1.119792,-0.5729166 -0.950521,0 -1.575521,0.7682291 -1.575521,1.9270833 0,1.23697916 0.611979,1.99218749 1.588542,1.99218749 0.507812,0 0.859375,-0.18229166 1.171875,-0.63802083 v 0.48177083 h 0.507812 z m -1.601562,1.875 c 0.625,0 1.028646,0.5598958 1.028646,1.4322916 0,0.84635419 -0.403646,1.40625003 -1.015625,1.40625003 -0.651042,0 -1.067709,-0.57291667 -1.067709,-1.41927083 0,-0.859375 0.416667,-1.4192708 1.054688,-1.4192708 z m 0,0"
       style="fill:#8f7874;fill-opacity:1;fill-rule:nonzero;stroke:none"
       aria-label="Bound"
       transform="matrix(1.2,0,0,1.2,129.89333,69.290667)" />
    <path
       id="path31"
       d="M -63.11943,-61.90063 H 63.11945"
       style="fill:none;stroke:#006395;stroke-width:0.99628;stroke-linecap:butt;stroke-linejoin:miter;stroke-miterlimit:10;stroke-dasharray:none;stroke-opacity:1"
       transform="matrix(1.3333333,0,0,-1.3333333,209.688,24.308)" />
    <path
       id="path32"
       d="M -2.78957,3.47087 C -2.27992,1.38832 -1.14423,0.40492 0,0 -1.14423,-0.40492 -2.27992,-1.38832 -2.78957,-3.47087"
       style="fill:none;stroke:#006395;stroke-width:0.99628;stroke-linecap:round;stroke-linejoin:round;stroke-miterlimit:10;stroke-dasharray:none;stroke-opacity:1"
       transform="matrix(-1.3333333,0,0,1.3333333,124.86457,106.84217)" />
    <path
       id="path33"
       d="M -2.78957,3.47087 C -2.27992,1.38832 -1.14423,0.40492 0,0 -1.14423,-0.40492 -2.27992,-1.38832 -2.78957,-3.47087"
       style="fill:none;stroke:#006395;stroke-width:0.99628;stroke-linecap:round;stroke-linejoin:round;stroke-miterlimit:10;stroke-dasharray:none;stroke-opacity:1"
       transform="matrix(1.3333333,0,0,-1.3333333,294.51144,106.84217)" />
    <path
       id="path34"
       d="M 24.11855,-64.14224 H -24.11853 V -78.75027 H 24.11855 Z"
       style="fill:#ffffff;fill-opacity:0.9;fill-rule:nonzero;stroke:none"
       transform="matrix(1.3333333,0,0,-1.3333333,209.688,24.308)" />
    <path
       id="path35"
       d="m 4.1540972,-3.5950278 c 0,-1.0026041 -0.6901041,-1.5755208 -1.8619791,-1.5755208 -1.1067709,0 -1.79687504,0.5729167 -1.79687504,1.4973958 0,0.6119792 0.32552083,1.0026042 0.98958334,1.1848959 l 1.2630208,0.3255208 c 0.6380209,0.1692708 0.9375,0.4296875 0.9375,0.8333333 0,0.2734375 -0.1432291,0.54687502 -0.3645833,0.70312502 -0.1953125,0.13020834 -0.5208333,0.20833334 -0.9375,0.20833334 -0.546875,0 -0.9244792,-0.13020834 -1.171875,-0.41666667 C 1.0290972,-1.0559653 0.93795139,-1.3033611 0.95097222,-1.6158611 H 0.33899306 c 0,0.46875 0.0911458,0.76822916 0.29947916,1.05468749 0.3515625,0.46875 0.93749998,0.71614583 1.70572918,0.71614583 0.6119792,0 1.1067708,-0.13020833 1.4322917,-0.390625 0.3385416,-0.2734375 0.5598958,-0.71614583 0.5598958,-1.15885412 0,-0.625 -0.390625,-1.09375 -1.0807292,-1.2760417 L 1.9796181,-3.0221111 c -0.6119792,-0.15625 -0.8463542,-0.3515625 -0.8463542,-0.7421875 0,-0.5208333 0.4557292,-0.859375 1.1458333,-0.859375 0.8072917,0 1.2630209,0.3645833 1.2630209,1.0286458 z m 3.2063802,-0.065104 -1.015625,2.85156246 -0.9375,-2.85156246 H 4.7953733 l 1.2369791,3.67187496 -0.234375,0.5859375 c -0.091146,0.24739583 -0.2213541,0.3515625 -0.4557291,0.3515625 -0.091146,0 -0.1822917,-0.0130208 -0.3125,-0.0390625 V 1.4310139 c 0.1171875,0.065104 0.234375,0.091146 0.390625,0.091146 0.1822916,0 0.390625,-0.065104 0.546875,-0.1822916 C 6.1495399,1.2096597 6.2537066,1.0534097 6.3578733,0.76695139 L 7.9854774,-3.6601319 Z m 1.2727865,0 v 3.65885412 H 9.2192014 V -2.0195069 c 0,-0.7421875 0.390625,-1.2369792 0.9895836,-1.2369792 0.455729,0 0.755208,0.2864583 0.755208,0.7161458 v 2.53906252 H 11.53691 V -2.7616944 c 0,-0.6119792 -0.455729,-1.0026042 -1.158854,-1.0026042 -0.5468754,0 -0.8984379,0.2083333 -1.2109379,0.7161458 v -0.6119791 z m 6.6634111,1.2239583 c -0.02604,-0.3515625 -0.104166,-0.5859375 -0.234375,-0.78125 -0.260416,-0.3385417 -0.690104,-0.546875 -1.197916,-0.546875 -0.989584,0 -1.627604,0.78125 -1.627604,1.9921875 0,1.18489582 0.625,1.92708332 1.614583,1.92708332 0.872396,0 1.419271,-0.52083333 1.497396,-1.40625002 h -0.585938 c -0.104166,0.58593752 -0.403646,0.87239586 -0.898437,0.87239586 -0.638021,0 -1.028646,-0.52083334 -1.028646,-1.39322916 0,-0.9114583 0.377604,-1.4583333 1.015625,-1.4583333 0.481771,0 0.794271,0.2864583 0.859375,0.7942708 z m 0.69987,-2.65625 v 5.09114582 h 0.572917 V -2.0195069 c 0,-0.7421875 0.390625,-1.2369792 0.989583,-1.2369792 0.195313,0 0.377604,0.065104 0.520833,0.1692708 0.169271,0.1171875 0.234375,0.2994792 0.234375,0.546875 v 2.53906252 H 18.88717 V -2.7616944 c 0,-0.6119792 -0.429687,-1.0026042 -1.145833,-1.0026042 -0.520834,0 -0.833334,0.15625 -1.171875,0.6119792 v -1.9401042 z m 3.863932,1.4322917 v 3.65885412 h 0.585938 V -1.9023194 c 0,-0.5208334 0.130208,-0.859375 0.416667,-1.0677084 0.182291,-0.1302083 0.351562,-0.1692708 0.755208,-0.1822916 v -0.5859375 c -0.09115,-0.013021 -0.143229,-0.026042 -0.221354,-0.026042 -0.377604,0 -0.664063,0.2213542 -1.002604,0.7682292 v -0.6640625 z m 3.74349,-0.1041667 c -1.028646,0 -1.653646,0.7291667 -1.653646,1.9661458 0,1.22395836 0.611979,1.95312502 1.653646,1.95312502 1.028646,0 1.653646,-0.72916666 1.653646,-1.92708332 0,-1.2630208 -0.598958,-1.9921875 -1.653646,-1.9921875 z m 0,0.5338542 c 0.664063,0 1.054688,0.546875 1.054688,1.4453125 0,0.85937496 -0.403646,1.40624996 -1.054688,1.40624996 -0.651042,0 -1.041667,-0.53385417 -1.041667,-1.41927086 0,-0.8854166 0.390625,-1.4322916 1.041667,-1.4322916 z m 2.470703,-0.4296875 v 3.65885412 h 0.585938 V -2.0195069 c 0,-0.7421875 0.390625,-1.2369792 0.989583,-1.2369792 0.455729,0 0.755208,0.2864583 0.755208,0.7161458 v 2.53906252 h 0.572917 V -2.7616944 c 0,-0.6119792 -0.455729,-1.0026042 -1.158854,-1.0026042 -0.546875,0 -0.898438,0.2083333 -1.210938,0.7161458 v -0.6119791 z m 4.423828,0 h -0.572916 v 3.65885412 h 0.572916 z m 0,-1.4322917 h -0.585937 v 0.7421875 h 0.585937 z m 3.59375,1.4322917 h -2.721354 v 0.5078125 h 2.03125 l -2.174479,2.63020829 v 0.52083333 h 2.96875 v -0.5078125 H 31.93079 l 2.161458,-2.63020832 z m 4.13737,3.32031246 c -0.0651,0.0130208 -0.09115,0.0130208 -0.130208,0.0130208 -0.195313,0 -0.3125,-0.10416667 -0.3125,-0.28645833 V -2.7616944 c 0,-0.6510417 -0.46875,-1.0026042 -1.380209,-1.0026042 -0.520833,0 -0.963541,0.15625 -1.210937,0.4296875 -0.169271,0.1822917 -0.234375,0.390625 -0.247396,0.7552083 h 0.585938 c 0.05208,-0.4427083 0.3125,-0.6510416 0.859375,-0.6510416 0.520833,0 0.820312,0.1953125 0.820312,0.546875 v 0.15625 c 0,0.2473958 -0.15625,0.3515625 -0.611979,0.4036458 -0.820313,0.1041667 -0.950521,0.1302083 -1.171875,0.2213542 -0.429688,0.1822916 -0.638021,0.5078125 -0.638021,0.97656246 0,0.6640625 0.455729,1.08072916 1.197917,1.08072916 0.455729,0 0.820312,-0.15625 1.236979,-0.53385416 0.03906,0.36458333 0.221354,0.53385416 0.598958,0.53385416 0.117188,0 0.208334,-0.0130208 0.403646,-0.0520833 z M 37.213993,-1.1471111 c 0,0.19531249 -0.0651,0.31249999 -0.234375,0.46874999 -0.234375,0.22135417 -0.520833,0.32552083 -0.872396,0.32552083 -0.442708,0 -0.716146,-0.20833333 -0.716146,-0.5859375 0,-0.37760412 0.260417,-0.57291662 0.885417,-0.66406252 0.611979,-0.091146 0.729167,-0.1171875 0.9375,-0.2083333 z m 2.926432,-2.5130208 H 39.541467 V -4.6627361 H 38.96855 v 1.0026042 h -0.494791 v 0.4817708 h 0.494791 v 2.76041666 c 0,0.36458333 0.247396,0.57291666 0.703125,0.57291666 0.130209,0 0.273438,-0.0130208 0.46875,-0.0390625 v -0.49479166 c -0.07813,0.0260417 -0.16927,0.0260417 -0.273437,0.0260417 -0.260417,0 -0.325521,-0.0651042 -0.325521,-0.32552083 V -3.1783611 h 0.598958 z m 1.210938,0 h -0.572917 v 3.65885412 h 0.572917 z m 0,-1.4322917 h -0.585938 v 0.7421875 h 0.585938 z m 2.405599,1.328125 c -1.028646,0 -1.653646,0.7291667 -1.653646,1.9661458 0,1.22395836 0.611979,1.95312502 1.653646,1.95312502 1.028646,0 1.653646,-0.72916666 1.653646,-1.92708332 0,-1.2630208 -0.598959,-1.9921875 -1.653646,-1.9921875 z m 0,0.5338542 c 0.664062,0 1.054687,0.546875 1.054687,1.4453125 0,0.85937496 -0.403646,1.40624996 -1.054687,1.40624996 -0.651042,0 -1.041667,-0.53385417 -1.041667,-1.41927086 0,-0.8854166 0.390625,-1.4322916 1.041667,-1.4322916 z m 2.473958,-0.4296875 v 3.65885412 h 0.585938 V -2.0195069 c 0,-0.7421875 0.390625,-1.2369792 0.989583,-1.2369792 0.455729,0 0.755208,0.2864583 0.755208,0.7161458 v 2.53906252 h 0.572917 V -2.7616944 c 0,-0.6119792 -0.455729,-1.0026042 -1.158854,-1.0026042 -0.546875,0 -0.898438,0.2083333 -1.210938,0.7161458 v -0.6119791 z m 0,0"
       style="fill:#006395;fill-opacity:1;fill-rule:nonzero;stroke:none"
       aria-label="Synchronization"
       transform="matrix(1.2,0,0,1.2,179.92133,118.37653)" />
    <path
       id="path36"
       d="M 4.622566,-3.5149913 C 4.4142326,-4.6217622 3.7762118,-5.1686372 2.6564201,-5.1686372 c -0.6770833,0 -1.2369791,0.2083334 -1.6145833,0.6380209 -0.45572916,0.4947916 -0.70312499,1.2239583 -0.70312499,2.0442708 0,0.8463542 0.26041666,1.56250001 0.74218749,2.05729168 0.390625,0.40364583 0.8854167,0.5859375 1.5494792,0.5859375 1.2369791,0 1.9401041,-0.6640625 2.0963541,-2.01822918 H 4.0496493 c -0.052083,0.3515625 -0.1171875,0.5859375 -0.2213542,0.7942708 -0.2083333,0.41666671 -0.6510416,0.65104171 -1.1848958,0.65104171 -1.015625,0 -1.65364583,-0.80729171 -1.65364583,-2.07031251 0,-1.3151042 0.61197913,-2.109375 1.58854163,-2.109375 0.4166667,0 0.7942709,0.1171875 1.015625,0.3125 0.1822917,0.1822917 0.2864584,0.390625 0.3645834,0.7682292 z m 2.3144531,-0.2473959 c -1.0286458,0 -1.6536458,0.7291667 -1.6536458,1.9661459 0,1.22395831 0.6119791,1.95312498 1.6536458,1.95312498 1.0286458,0 1.6536458,-0.72916667 1.6536458,-1.92708338 0,-1.2630208 -0.5989583,-1.9921875 -1.6536458,-1.9921875 z m 0,0.5338542 c 0.6640625,0 1.0546875,0.546875 1.0546875,1.4453125 0,0.85937501 -0.4036458,1.40625001 -1.0546875,1.40625001 -0.6510417,0 -1.0416667,-0.53385416 -1.0416667,-1.41927081 0,-0.8854167 0.390625,-1.4322917 1.0416667,-1.4322917 z m 5.0358069,0.5859375 c -0.01302,-0.7161458 -0.48177,-1.1197917 -1.328125,-1.1197917 -0.8463538,0 -1.4062496,0.4427084 -1.4062496,1.1197917 0,0.5729167 0.2994792,0.8463542 1.1588546,1.0546875 l 0.546875,0.1302083 c 0.403645,0.091146 0.559895,0.2473959 0.559895,0.50781255 0,0.33854166 -0.338541,0.57291666 -0.846354,0.57291666 -0.3125,0 -0.572916,-0.0911458 -0.7291664,-0.24739583 C 9.8374097,-0.72853299 9.7983472,-0.83269965 9.7592847,-1.0931163 H 9.1473056 c 0.026042,0.84635415 0.5078125,1.24999998 1.4583334,1.24999998 0.924479,0 1.510417,-0.45572917 1.510417,-1.15885418 0,-0.5338542 -0.3125,-0.8463542 -1.028646,-1.015625 l -0.559896,-0.1302083 c -0.481771,-0.1171875 -0.6770834,-0.2604167 -0.6770834,-0.5208334 0,-0.3385416 0.2994794,-0.5598958 0.7682294,-0.5598958 0.46875,0 0.729166,0.2083333 0.742187,0.5859375 z m 2.197266,-1.015625 h -0.598958 v -1.0026042 h -0.572917 v 1.0026042 h -0.494792 v 0.4817708 h 0.494792 v 2.76041671 c 0,0.36458334 0.247396,0.57291667 0.703125,0.57291667 0.130208,0 0.273438,-0.0130208 0.46875,-0.0390625 v -0.49479167 c -0.07813,0.0260417 -0.169271,0.0260417 -0.273437,0.0260417 -0.260417,0 -0.325521,-0.0651042 -0.325521,-0.32552083 V -3.1764497 h 0.598958 z m 0,0"
       style="fill:#006395;fill-opacity:1;fill-rule:nonzero;stroke:none"
       aria-label="Cost"
       transform="matrix(1.2,0,0,1.2,201.08573,126.74533)" />
    <path
       id="path37"
       d="M 73.06955,-43.1993 31.6199,-18.70131"
       style="fill:none;stroke:#008f45;stroke-width:0.99628;stroke-linecap:butt;stroke-linejoin:miter;stroke-miterlimit:10;stroke-dasharray:none;stroke-opacity:1"
       transform="matrix(1.3333333,0,0,-1.3333333,209.688,24.308)" />
    <path
       id="path38"
       d="M -2.78957,3.47087 C -2.27992,1.38832 -1.14423,0.40492 0,0 -1.14423,-0.40492 -2.27992,-1.38832 -2.78957,-3.47087"
       style="fill:none;stroke:#008f45;stroke-width:0.99628;stroke-linecap:round;stroke-linejoin:round;stroke-miterlimit:10;stroke-dasharray:none;stroke-opacity:1"
       transform="matrix(1.14776,0.67838667,0.67838667,-1.14776,307.6858,82.244987)" />
    <path
       id="path39"
       d="M -2.78957,3.47087 C -2.27992,1.38832 -1.14423,0.40492 0,0 -1.14423,-0.40492 -2.27992,-1.38832 -2.78957,-3.47087"
       style="fill:none;stroke:#008f45;stroke-width:0.99628;stroke-linecap:round;stroke-linejoin:round;stroke-miterlimit:10;stroke-dasharray:none;stroke-opacity:1"
       transform="matrix(-1.14776,-0.67838667,-0.67838667,1.14776,251.27613,48.905147)" />
    <path
       id="path40"
       d="M 61.0655,-21.19537 H 34.99046 V -35.60254 H 61.0655 Z"
       style="fill:#ffffff;fill-opacity:0.9;fill-rule:nonzero;stroke:none"
       transform="matrix(1.3333333,0,0,-1.3333333,209.688,24.308)" />
    <path
       id="path41"
       d="m 1.2878212,-2.1614514 h 1.5885416 c 0.4036459,0 0.7161459,-0.1171875 0.9895834,-0.3515625 0.3125,-0.2864583 0.4427083,-0.6119792 0.4427083,-1.0807292 0,-0.9505208 -0.5729167,-1.4973958 -1.5755208,-1.4973958 H 0.63677951 V 6.9444444e-6 H 1.2878212 Z m 0,-0.5729167 v -1.7838541 h 1.3541666 c 0.6119792,0 0.9895834,0.3385416 0.9895834,0.8984375 0,0.5598958 -0.3776042,0.8854166 -0.9895834,0.8854166 z M 5.6921181,-3.6588472 H 5.1192014 V 6.9444444e-6 h 0.5729167 z m 0,-1.4322917 H 5.1061806 v 0.7421875 h 0.5859375 z m 0.8854166,6.6145833 h 0.5859375 v -1.90104162 c 0.3125,0.36458333 0.6510417,0.53385416 1.1197917,0.53385416 0.9505208,0 1.5625,-0.75520833 1.5625,-1.92708334 0,-1.2239583 -0.5989583,-1.9921875 -1.5625,-1.9921875 -0.4947917,0 -0.8984375,0.2213542 -1.171875,0.6510417 v -0.546875 H 6.5775347 Z m 1.6015625,-4.7395833 c 0.6510417,0 1.0677084,0.5598958 1.0677084,1.4322917 0,0.83333331 -0.4296875,1.40624998 -1.0677084,1.40624998 -0.6119791,0 -1.015625,-0.55989584 -1.015625,-1.41927088 0,-0.859375 0.4036459,-1.4192708 1.015625,-1.4192708 z m 5.4785158,1.5885417 c 0,-0.5598959 -0.03906,-0.8984375 -0.143229,-1.171875 -0.247396,-0.5989584 -0.794271,-0.9635417 -1.484375,-0.9635417 -1.015625,0 -1.679688,0.78125 -1.679688,1.9791667 0,1.21093748 0.638021,1.94010414 1.666667,1.94010414 0.833333,0 1.419271,-0.46875 1.5625,-1.26302084 H 12.99355 c -0.15625,0.48177084 -0.48177,0.72916668 -0.95052,0.72916668 -0.377605,0 -0.690105,-0.16927084 -0.885417,-0.46875 C 11.014384,-1.0546806 10.975321,-1.2760347 10.9623,-1.6275972 Z m -2.682292,-0.4817709 c 0.05208,-0.6770833 0.46875,-1.1197916 1.054688,-1.1197916 0.559896,0 1.002604,0.4817708 1.002604,1.0807291 0,0.013021 0,0.026042 0,0.039063 z m 4.033203,-2.9817708 H 14.422587 V 6.9444444e-6 h 0.585937 z m 1.536459,1.4322917 H 15.972066 V 6.9444444e-6 h 0.572917 z m 0,-1.4322917 h -0.585938 v 0.7421875 h 0.585938 z m 0.999349,1.4322917 V 6.9444444e-6 h 0.585937 V -2.0182222 c 0,-0.7421875 0.390625,-1.2369792 0.989583,-1.2369792 0.45573,0 0.755209,0.2864583 0.755209,0.7161458 V 6.9444444e-6 h 0.572916 V -2.7604097 c 0,-0.6119792 -0.455729,-1.0026042 -1.158854,-1.0026042 -0.546875,0 -0.898437,0.2083333 -1.210937,0.7161458 v -0.6119791 z m 6.966145,2.03125 c 0,-0.5598959 -0.03906,-0.8984375 -0.143229,-1.171875 -0.247396,-0.5989584 -0.794271,-0.9635417 -1.484375,-0.9635417 -1.015625,0 -1.679687,0.78125 -1.679687,1.9791667 0,1.21093748 0.638021,1.94010414 1.666666,1.94010414 0.833334,0 1.419271,-0.46875 1.5625,-1.26302084 h -0.585937 c -0.15625,0.48177084 -0.481771,0.72916668 -0.950521,0.72916668 -0.377604,0 -0.690104,-0.16927084 -0.885417,-0.46875 C 21.867248,-1.0546806 21.828186,-1.2760347 21.815165,-1.6275972 Z m -2.682291,-0.4817709 c 0.05208,-0.6770833 0.46875,-1.1197916 1.054687,-1.1197916 0.559896,0 1.002604,0.4817708 1.002604,1.0807291 0,0.013021 0,0.026042 0,0.039063 z m 0,0"
       style="fill:#008f45;fill-opacity:1;fill-rule:nonzero;stroke:none"
       aria-label="Pipeline"
       transform="matrix(1.2,0,0,1.2,258.84133,60.921867)" />
    <path
       id="path42"
       d="M 0.54774306,-0.00133681 H 2.8524306 c 0.4817708,0 0.8333333,-0.13020833 1.1067708,-0.4296875 0.2473958,-0.26041666 0.390625,-0.62499999 0.390625,-1.01562499 0,-0.625 -0.2864583,-0.9895833 -0.9244792,-1.2369792 0.4557292,-0.2213541 0.703125,-0.5989583 0.703125,-1.1197916 0,-0.3645834 -0.1432291,-0.6901042 -0.4036458,-0.9244792 C 3.4513889,-4.9752951 3.1128472,-5.0924826 2.6180556,-5.0924826 H 0.54774306 Z M 1.1987847,-2.8919618 V -4.519566 h 1.2630209 c 0.3645833,0 0.5598958,0.052083 0.7291666,0.1822917 0.1822917,0.1432292 0.2864584,0.3515625 0.2864584,0.625 0,0.2734375 -0.1041667,0.4947917 -0.2864584,0.6380208 -0.1692708,0.1302084 -0.3645833,0.1822917 -0.7291666,0.1822917 z m 0,2.31770833 V -2.3190451 h 1.5885417 c 0.3125,0 0.5208333,0.065104 0.6770833,0.234375 0.15625,0.1692708 0.234375,0.390625 0.234375,0.6380208 0,0.2473958 -0.078125,0.46874999 -0.234375,0.62499999 -0.15625,0.16927084 -0.3645833,0.24739584 -0.6770833,0.24739584 z m 6.8131511,0.57291666 V -3.660191 H 7.4390191 v 2.0703125 c 0,0.75520836 -0.390625,1.23697919 -1.0026042,1.23697919 -0.4557291,0 -0.7552083,-0.2734375 -0.7552083,-0.71614579 V -3.660191 H 5.1082899 v 2.82552086 c 0,0.59895833 0.4557292,0.98958333 1.1588542,0.98958333 0.546875,0 0.8854167,-0.18229166 1.2239583,-0.6640625 v 0.5078125 z M 8.9071181,-5.0924826 v 5.09114579 h 0.5208333 v -0.46875 c 0.2864583,0.4296875 0.6510416,0.625 1.1588546,0.625 0.963541,0 1.588541,-0.78125 1.588541,-2.00520829 0,-1.1848959 -0.598958,-1.9140625 -1.5625,-1.9140625 -0.494791,0 -0.8593748,0.1953125 -1.1328123,0.5989583 v -1.9270833 z m 1.6015629,1.875 c 0.651041,0 1.067708,0.5598958 1.067708,1.4322916 0,0.83333336 -0.442708,1.40625003 -1.067708,1.40625003 -0.6119796,0 -1.0286463,-0.55989584 -1.0286463,-1.41927083 0,-0.859375 0.4166667,-1.4192708 1.0286463,-1.4192708 z m 2.207031,-1.875 v 5.09114579 h 0.520833 v -0.46875 c 0.286458,0.4296875 0.651042,0.625 1.158854,0.625 0.963542,0 1.588542,-0.78125 1.588542,-2.00520829 0,-1.1848959 -0.598958,-1.9140625 -1.5625,-1.9140625 -0.494792,0 -0.859375,0.1953125 -1.132813,0.5989583 v -1.9270833 z m 1.601562,1.875 c 0.651042,0 1.067709,0.5598958 1.067709,1.4322916 0,0.83333336 -0.442709,1.40625003 -1.067709,1.40625003 -0.611979,0 -1.028646,-0.55989584 -1.028646,-1.41927083 0,-0.859375 0.416667,-1.4192708 1.028646,-1.4192708 z m 2.8125,-1.875 h -0.585937 v 5.09114579 h 0.585937 z m 4.072266,3.4635416 c 0,-0.5598958 -0.03906,-0.8984375 -0.143229,-1.171875 -0.247396,-0.5989583 -0.794271,-0.9635416 -1.484375,-0.9635416 -1.015625,0 -1.679688,0.78125 -1.679688,1.9791666 0,1.21093753 0.638021,1.94010419 1.666667,1.94010419 0.833333,0 1.419271,-0.46875 1.5625,-1.26302079 h -0.585938 c -0.15625,0.48177079 -0.48177,0.72916663 -0.95052,0.72916663 -0.377605,0 -0.690105,-0.16927084 -0.885417,-0.46875 C 18.558811,-1.0560243 18.519748,-1.2773785 18.506727,-1.628941 Z m -2.682292,-0.4817708 c 0.05208,-0.6770833 0.46875,-1.1197917 1.054688,-1.1197917 0.559896,0 1.002604,0.4817709 1.002604,1.0807292 0,0.013021 0,0.026042 0,0.039063 z m 6.041667,-0.5338542 c -0.01302,-0.7161458 -0.481771,-1.1197916 -1.328125,-1.1197916 -0.846354,0 -1.40625,0.4427083 -1.40625,1.1197916 0,0.5729167 0.299479,0.8463542 1.158854,1.0546875 l 0.546875,0.1302084 c 0.403646,0.091146 0.559896,0.2473958 0.559896,0.50781246 0,0.33854167 -0.338542,0.57291667 -0.846354,0.57291667 -0.3125,0 -0.572917,-0.0911458 -0.729167,-0.24739584 -0.09115,-0.10416666 -0.130208,-0.20833333 -0.169271,-0.46874999 h -0.611979 c 0.02604,0.84635416 0.507813,1.24999999 1.458333,1.24999999 0.92448,0 1.510417,-0.45572916 1.510417,-1.15885419 0,-0.5338541 -0.3125,-0.8463541 -1.028646,-1.015625 l -0.559896,-0.1302083 c -0.48177,-0.1171875 -0.677083,-0.2604167 -0.677083,-0.5208333 0,-0.3385417 0.299479,-0.5598959 0.768229,-0.5598959 0.46875,0 0.729167,0.2083334 0.742188,0.5859375 z m 0,0"
       style="fill:#008f45;fill-opacity:1;fill-rule:nonzero;stroke:none"
       aria-label="Bubbles"
       transform="matrix(1.2,0,0,1.2,258.73333,69.290667)" />
  </g>
</svg>
