<?xml version="1.0" encoding="UTF-8" standalone="no"?>
<!-- Created with Inkscape (http://www.inkscape.org/) -->

<svg
   version="1.1"
   id="svg1"
   width="206.23334"
   height="152.604"
   viewBox="0 0 206.23334 152.604"
   xmlns="http://www.w3.org/2000/svg"
   xmlns:svg="http://www.w3.org/2000/svg">
  <defs
     id="defs1" />
  <g
     id="g1">
    <path
       id="path1"
       d="M 9.72809,14.547 H 166.78601 V 40.0591 H 9.72809 Z"
       style="fill:#ffb3b3;fill-opacity:1;fill-rule:nonzero;stroke:#191919;stroke-width:0.74721;stroke-linecap:butt;stroke-linejoin:miter;stroke-miterlimit:10;stroke-dasharray:none;stroke-opacity:1"
       transform="matrix(1.08964,0,0,-1.08964,24.09194,150.21115)" />
    <path
       id="path2"
       d="m 1.6349452,-2.9811483 h 3.57056 v -0.7313195 h -3.57056 V -5.7917096 H 5.3345616 V -6.5373687 H 0.80324853 V 0.00148815 H 5.4922972 V -0.72983137 H 1.6349452 Z M 8.2885189,-4.7019001 H 7.5141806 v -0.7313195 c 0,-0.3154712 0.1720752,-0.4732068 0.5162255,-0.4732068 0.071698,0 0.086038,0 0.2581128,0.01434 v -0.6166027 c -0.1720752,-0.043019 -0.2581128,-0.057358 -0.4158484,-0.057358 -0.6883007,0 -1.104149,0.4015087 -1.104149,1.0754699 v 0.7886779 H 6.1375791 v 0.6166027 H 6.7685215 V 0.00148815 H 7.5141806 V -4.0852974 h 0.7743383 z m 2.4520711,0 H 9.9519123 v -0.7313195 c 0,-0.3154712 0.1864147,-0.4732068 0.5162257,-0.4732068 0.0717,0 0.100377,0 0.272452,0.01434 v -0.6166027 c -0.172075,-0.043019 -0.272452,-0.057358 -0.430188,-0.057358 -0.6883005,0 -1.1041488,0.4015087 -1.1041488,1.0754699 v 0.7886779 H 8.5896505 v 0.6166027 H 9.2062532 V 0.00148815 H 9.9519123 V -4.0852974 H 10.74059 Z m 1.649054,0 h -0.745659 v 4.70338825 h 0.745659 z m 0,-1.8354686 h -0.745659 v 0.9464135 h 0.745659 z m 4.782256,3.4128244 c -0.02868,-0.4445275 -0.129056,-0.7456591 -0.301131,-1.0037719 -0.329811,-0.4445275 -0.889056,-0.7026403 -1.548677,-0.7026403 -1.261885,0 -2.093581,1.0037719 -2.093581,2.5667881 0,1.50565784 0.817357,2.46641093 2.079241,2.46641093 1.132829,0 1.835469,-0.67396113 1.921506,-1.82112903 h -0.745659 c -0.129056,0.75999875 -0.516225,1.13282831 -1.147167,1.13282831 -0.831697,0 -1.319244,-0.67396111 -1.319244,-1.77811021 0,-1.1758471 0.487547,-1.8784874 1.290564,-1.8784874 0.630943,0 1.032451,0.3728296 1.118489,1.0181115 z m 1.61679,-1.5773558 h -0.745659 v 4.70338825 h 0.745659 z m 0,-1.8354686 h -0.759999 v 0.9464135 h 0.759999 z m 5.244708,4.4452755 c 0,-0.7169799 -0.05736,-1.1471679 -0.186415,-1.5056578 -0.315471,-0.7599988 -1.032451,-1.2332055 -1.907166,-1.2332055 -1.304904,0 -2.15094,1.0037719 -2.15094,2.5524485 0,1.53433704 0.817357,2.48075053 2.1366,2.48075053 1.07547,0 1.821129,-0.60226313 2.007544,-1.62037463 h -0.759999 c -0.200754,0.61660274 -0.616603,0.93207391 -1.218866,0.93207391 -0.473207,0 -0.889055,-0.21509398 -1.132828,-0.60226311 -0.186415,-0.2724524 -0.243773,-0.5449048 -0.258113,-1.0037719 z m -3.441504,-0.6166027 c 0.05736,-0.8603759 0.587924,-1.4339599 1.333583,-1.4339599 0.745659,0 1.304903,0.6166027 1.304903,1.3766015 0,0.028679 0,0.043019 -0.01434,0.057358 z m 4.456031,-1.9932042 v 4.70338825 h 0.745659 V -2.5939792 c 0,-0.9607531 0.501886,-1.5773558 1.276224,-1.5773558 0.587923,0 0.975093,0.35849 0.975093,0.9177343 V 0.00148815 H 28.77622 V -3.5547323 c 0,-0.7743383 -0.573584,-1.2762242 -1.476979,-1.2762242 -0.70264,0 -1.147167,0.2724524 -1.563016,0.9177343 v -0.7886779 z m 6.632064,0 H 30.90565 V -5.992464 h -0.745659 v 1.2905639 h -0.630942 v 0.6166027 h 0.630942 v 3.54188081 c 0,0.48754635 0.329811,0.74565912 0.903395,0.74565912 0.186415,0 0.35849,-0.0143396 0.616603,-0.0573584 V -0.4860582 c -0.100377,0.0286792 -0.215094,0.0430188 -0.35849,0.0430188 -0.329811,0 -0.415849,-0.10037719 -0.415849,-0.43018795 V -4.0852974 h 0.774339 z m 7.628666,1.7207518 v 2.98263645 h 0.846036 V -6.5373687 h -0.846036 v 2.8249009 h -3.355466 v -2.8249009 h -0.831697 v 6.53885685 h 0.846037 V -2.9811483 Z m 6.330933,2.5381089 c -0.0717,0.0286792 -0.114717,0.0286792 -0.157736,0.0286792 -0.258113,0 -0.401509,-0.14339599 -0.401509,-0.37282956 V -3.5547323 c 0,-0.8316967 -0.602263,-1.2762242 -1.76377,-1.2762242 -0.688301,0 -1.247545,0.2007544 -1.563016,0.5449047 -0.215094,0.2437732 -0.301132,0.5162256 -0.315472,0.9750927 h 0.74566 c 0.0717,-0.5735839 0.401508,-0.8316967 1.104149,-0.8316967 0.673961,0 1.04679,0.2581128 1.04679,0.7026403 v 0.2007544 c 0,0.3154712 -0.186414,0.4445276 -0.774338,0.5162256 -1.06113,0.1290563 -1.218866,0.1720751 -1.505658,0.2867919 -0.544905,0.2294336 -0.831696,0.645282 -0.831696,1.2475451 0,0.86037589 0.602263,1.39094103 1.548676,1.39094103 0.587924,0 1.06113,-0.20075438 1.591696,-0.68830072 0.05736,0.47320674 0.286792,0.68830072 0.774338,0.68830072 0.143396,0 0.272452,-0.0143396 0.501886,-0.071698 z m -1.304904,-1.0324511 c 0,0.2437732 -0.0717,0.4015088 -0.286792,0.60226315 -0.315471,0.28679197 -0.673961,0.43018795 -1.118488,0.43018795 -0.587924,0 -0.917735,-0.28679197 -0.917735,-0.7599987 0,-0.4875464 0.329811,-0.7456591 1.118489,-0.8603759 0.788678,-0.1003772 0.960753,-0.143396 1.204526,-0.2581128 z m 2.118676,-3.2264096 v 4.70338825 h 0.759999 V -2.4362436 c 0,-0.6739611 0.172075,-1.1184887 0.530565,-1.3766014 0.229433,-0.1720752 0.444527,-0.215094 0.975093,-0.2294336 v -0.7599987 c -0.129057,-0.01434 -0.186415,-0.028679 -0.286792,-0.028679 -0.487547,0 -0.860376,0.286792 -1.290564,0.9894323 v -0.8603759 z m 6.800555,-1.8354686 h -0.73132 v 2.4377317 c -0.315471,-0.4732067 -0.817357,-0.7313195 -1.448299,-0.7313195 -1.218866,0 -2.021884,0.9750927 -2.021884,2.4807505 0,1.57735584 0.788678,2.55244853 2.050563,2.55244853 0.645282,0 1.089809,-0.24377317 1.491318,-0.81735711 v 0.61660273 h 0.659622 z m -2.050563,2.4090525 c 0.803018,0 1.319243,0.7169799 1.319243,1.8354686 0,1.0898095 -0.530565,1.80678941 -1.319243,1.80678941 -0.817357,0 -1.362262,-0.73131951 -1.362262,-1.82112901 0,-1.1041491 0.544905,-1.821129 1.362262,-1.821129 z m 7.564138,4.12980435 1.390941,-4.70338825 h -0.846036 l -0.932074,3.6565976 -0.932074,-3.6565976 h -0.903395 l -0.903394,3.6565976 -0.960753,-3.6565976 h -0.817357 l 1.362261,4.70338825 h 0.846037 l 0.903394,-3.68527675 0.946414,3.68527675 z m 6.176782,-0.44452755 c -0.0717,0.0286792 -0.114717,0.0286792 -0.157735,0.0286792 -0.258113,0 -0.401509,-0.14339599 -0.401509,-0.37282956 V -3.5547323 c 0,-0.8316967 -0.602263,-1.2762242 -1.763771,-1.2762242 -0.6883,0 -1.247545,0.2007544 -1.563016,0.5449047 -0.215094,0.2437732 -0.301132,0.5162256 -0.315471,0.9750927 h 0.745659 c 0.0717,-0.5735839 0.401509,-0.8316967 1.104149,-0.8316967 0.673961,0 1.046791,0.2581128 1.046791,0.7026403 v 0.2007544 c 0,0.3154712 -0.186415,0.4445276 -0.774339,0.5162256 -1.06113,0.1290563 -1.218865,0.1720751 -1.505657,0.2867919 -0.544905,0.2294336 -0.831697,0.645282 -0.831697,1.2475451 0,0.86037589 0.602263,1.39094103 1.548676,1.39094103 0.587924,0 1.061131,-0.20075438 1.591696,-0.68830072 0.05736,0.47320674 0.286792,0.68830072 0.774338,0.68830072 0.143396,0 0.272453,-0.0143396 0.501886,-0.071698 z m -1.304903,-1.0324511 c 0,0.2437732 -0.0717,0.4015088 -0.286792,0.60226315 -0.315471,0.28679197 -0.673961,0.43018795 -1.118489,0.43018795 -0.587923,0 -0.917734,-0.28679197 -0.917734,-0.7599987 0,-0.4875464 0.329811,-0.7456591 1.118488,-0.8603759 0.788678,-0.1003772 0.960754,-0.143396 1.204527,-0.2581128 z m 2.118675,-3.2264096 v 4.70338825 h 0.759999 V -2.4362436 c 0,-0.6739611 0.172075,-1.1184887 0.530565,-1.3766014 0.229434,-0.1720752 0.444528,-0.215094 0.975093,-0.2294336 v -0.7599987 c -0.129056,-0.01434 -0.186415,-0.028679 -0.286792,-0.028679 -0.487546,0 -0.860376,0.286792 -1.290564,0.9894323 v -0.8603759 z m 6.97263,2.6098069 c 0,-0.7169799 -0.05736,-1.1471679 -0.186415,-1.5056578 -0.315471,-0.7599988 -1.032451,-1.2332055 -1.907166,-1.2332055 -1.304904,0 -2.15094,1.0037719 -2.15094,2.5524485 0,1.53433704 0.817357,2.48075053 2.1366,2.48075053 1.07547,0 1.821129,-0.60226313 2.007544,-1.62037463 h -0.759999 c -0.200754,0.61660274 -0.616603,0.93207391 -1.218866,0.93207391 -0.473206,0 -0.889055,-0.21509398 -1.132828,-0.60226311 -0.186415,-0.2724524 -0.243773,-0.5449048 -0.258113,-1.0037719 z M 69.28917,-2.7086959 c 0.05736,-0.8603759 0.587924,-1.4339599 1.333583,-1.4339599 0.745659,0 1.304904,0.6166027 1.304904,1.3766015 0,0.028679 0,0.043019 -0.01434,0.057358 z M 77.3301,-6.5373687 H 76.498404 V 0.00148815 H 77.3301 Z m 1.387356,1.8354686 v 4.70338825 h 0.74566 V -2.9524691 c 0,-0.6739611 0.501885,-1.2188659 1.104149,-1.2188659 0.559244,0 0.874715,0.3298108 0.874715,0.9320739 v 3.24074925 h 0.745659 V -2.9524691 c 0,-0.6739611 0.501886,-1.2188659 1.104149,-1.2188659 0.544905,0 0.874716,0.3441504 0.874716,0.9320739 v 3.24074925 h 0.745659 V -3.5260531 c 0,-0.8316967 -0.473207,-1.3049034 -1.362262,-1.3049034 -0.616603,0 -1.003772,0.1864148 -1.43396,0.7169799 -0.286792,-0.5018859 -0.659621,-0.7169799 -1.261884,-0.7169799 -0.630943,0 -1.046791,0.2294336 -1.4483,0.8030175 v -0.6739611 z m 7.327535,6.6535736 h 0.745659 v -2.43773169 c 0.401509,0.47320674 0.831697,0.68830072 1.4483,0.68830072 1.204526,0 2.007544,-0.97509269 2.007544,-2.46641093 0,-1.5773558 -0.774339,-2.5667881 -2.021884,-2.5667881 -0.630942,0 -1.147168,0.286792 -1.491318,0.8460363 v -0.7169799 h -0.688301 z m 2.064902,-6.0799897 c 0.817357,0 1.362262,0.7169799 1.362262,1.8498082 0,1.0611303 -0.559244,1.79244981 -1.362262,1.79244981 -0.788678,0 -1.319243,-0.71697991 -1.319243,-1.82112901 0,-1.1041491 0.530565,-1.821129 1.319243,-1.821129 z m 3.796409,-2.4090525 h -0.745659 v 6.53885685 h 0.745659 z m 5.230369,4.4452755 c 0,-0.7169799 -0.05736,-1.1471679 -0.186415,-1.5056578 -0.315471,-0.7599988 -1.032451,-1.2332055 -1.907167,-1.2332055 -1.304903,0 -2.15094,1.0037719 -2.15094,2.5524485 0,1.53433704 0.817358,2.48075053 2.136601,2.48075053 1.075469,0 1.821129,-0.60226313 2.007543,-1.62037463 h -0.759998 c -0.200755,0.61660274 -0.616603,0.93207391 -1.218866,0.93207391 -0.473207,0 -0.889055,-0.21509398 -1.132828,-0.60226311 -0.186415,-0.2724524 -0.243774,-0.5449048 -0.258113,-1.0037719 z m -3.441504,-0.6166027 c 0.05736,-0.8603759 0.587923,-1.4339599 1.333583,-1.4339599 0.745659,0 1.304903,0.6166027 1.304903,1.3766015 0,0.028679 0,0.043019 -0.01434,0.057358 z m 4.452445,-1.9932042 v 4.70338825 h 0.745659 V -2.9524691 c 0,-0.6739611 0.501886,-1.2188659 1.104149,-1.2188659 0.55924,0 0.87472,0.3298108 0.87472,0.9320739 v 3.24074925 h 0.74566 V -2.9524691 c 0,-0.6739611 0.50188,-1.2188659 1.10414,-1.2188659 0.54491,0 0.87472,0.3441504 0.87472,0.9320739 v 3.24074925 h 0.74566 V -3.5260531 c 0,-0.8316967 -0.47321,-1.3049034 -1.36226,-1.3049034 -0.61661,0 -1.00377,0.1864148 -1.43396,0.7169799 -0.28679,-0.5018859 -0.65962,-0.7169799 -1.26189,-0.7169799 -0.63094,0 -1.046788,0.2294336 -1.448297,0.8030175 v -0.6739611 z m 11.442998,2.6098069 c 0,-0.7169799 -0.0574,-1.1471679 -0.18641,-1.5056578 -0.31547,-0.7599988 -1.03245,-1.2332055 -1.90717,-1.2332055 -1.3049,0 -2.15094,1.0037719 -2.15094,2.5524485 0,1.53433704 0.81736,2.48075053 2.1366,2.48075053 1.07547,0 1.82113,-0.60226313 2.00754,-1.62037463 h -0.75999 c -0.20076,0.61660274 -0.61661,0.93207391 -1.21887,0.93207391 -0.47321,0 -0.88906,-0.21509398 -1.13283,-0.60226311 -0.18641,-0.2724524 -0.24377,-0.5449048 -0.25811,-1.0037719 z m -3.4415,-0.6166027 c 0.0574,-0.8603759 0.58792,-1.4339599 1.33358,-1.4339599 0.74566,0 1.3049,0.6166027 1.3049,1.3766015 0,0.028679 0,0.043019 -0.0143,0.057358 z m 4.45603,-1.9932042 v 4.70338825 h 0.74566 V -2.5939792 c 0,-0.9607531 0.50188,-1.5773558 1.27622,-1.5773558 0.58793,0 0.97509,0.35849 0.97509,0.9177343 v 3.25508885 h 0.73132 V -3.5547323 c 0,-0.7743383 -0.57358,-1.2762242 -1.47697,-1.2762242 -0.70264,0 -1.14717,0.2724524 -1.56302,0.9177343 v -0.7886779 z m 6.63206,0 h -0.77434 V -5.992464 h -0.74565 v 1.2905639 h -0.63095 v 0.6166027 h 0.63095 v 3.54188081 c 0,0.48754635 0.32981,0.74565912 0.90339,0.74565912 0.18641,0 0.35849,-0.0143396 0.6166,-0.0573584 V -0.4860582 c -0.10037,0.0286792 -0.21509,0.0430188 -0.35849,0.0430188 -0.32981,0 -0.41585,-0.10037719 -0.41585,-0.43018795 V -4.0852974 h 0.77434 z m 5.00452,4.2588607 c -0.0717,0.0286792 -0.11471,0.0286792 -0.15773,0.0286792 -0.25812,0 -0.40151,-0.14339599 -0.40151,-0.37282956 V -3.5547323 c 0,-0.8316967 -0.60226,-1.2762242 -1.76377,-1.2762242 -0.6883,0 -1.24755,0.2007544 -1.56302,0.5449047 -0.21509,0.2437732 -0.30113,0.5162256 -0.31547,0.9750927 h 0.74566 c 0.0717,-0.5735839 0.40151,-0.8316967 1.10415,-0.8316967 0.67396,0 1.04679,0.2581128 1.04679,0.7026403 v 0.2007544 c 0,0.3154712 -0.18642,0.4445276 -0.77434,0.5162256 -1.06113,0.1290563 -1.21887,0.1720751 -1.50566,0.2867919 -0.5449,0.2294336 -0.83169,0.645282 -0.83169,1.2475451 0,0.86037589 0.60226,1.39094103 1.54867,1.39094103 0.58793,0 1.06113,-0.20075438 1.5917,-0.68830072 0.0574,0.47320674 0.28679,0.68830072 0.77434,0.68830072 0.14339,0 0.27245,-0.0143396 0.50188,-0.071698 z m -1.3049,-1.0324511 c 0,0.2437732 -0.0717,0.4015088 -0.28679,0.60226315 -0.31547,0.28679197 -0.67396,0.43018795 -1.11849,0.43018795 -0.58793,0 -0.91774,-0.28679197 -0.91774,-0.7599987 0,-0.4875464 0.32981,-0.7456591 1.11849,-0.8603759 0.78868,-0.1003772 0.96076,-0.143396 1.20453,-0.2581128 z m 3.77848,-3.2264096 h -0.77434 V -5.992464 h -0.74565 v 1.2905639 h -0.63095 v 0.6166027 h 0.63095 v 3.54188081 c 0,0.48754635 0.32981,0.74565912 0.90339,0.74565912 0.18642,0 0.35849,-0.0143396 0.6166,-0.0573584 V -0.4860582 c -0.10037,0.0286792 -0.21509,0.0430188 -0.35849,0.0430188 -0.32981,0 -0.41585,-0.10037719 -0.41585,-0.43018795 V -4.0852974 h 0.77434 z m 1.55943,0 h -0.74565 v 4.70338825 h 0.74565 z m 0,-1.8354686 h -0.75999 v 0.9464135 h 0.75999 z m 3.08302,1.7064122 c -1.31924,0 -2.10792,0.9464135 -2.10792,2.5237693 0,1.57735583 0.78868,2.50942973 2.12226,2.50942973 1.31924,0 2.12226,-0.9320739 2.12226,-2.48075053 0,-1.6203746 -0.78868,-2.5524485 -2.1366,-2.5524485 z m 0.0143,0.6883007 c 0.83169,0 1.33358,0.6883007 1.33358,1.8641478 0,1.0898095 -0.51623,1.79244981 -1.33358,1.79244981 -0.8317,0 -1.34792,-0.68830071 -1.34792,-1.82112901 0,-1.1328283 0.51622,-1.8354686 1.34792,-1.8354686 z m 3.16188,-0.5592443 v 4.70338825 h 0.74566 V -2.5939792 c 0,-0.9607531 0.50188,-1.5773558 1.27622,-1.5773558 0.58793,0 0.9751,0.35849 0.9751,0.9177343 v 3.25508885 h 0.73131 V -3.5547323 c 0,-0.7743383 -0.57358,-1.2762242 -1.47697,-1.2762242 -0.70264,0 -1.14717,0.2724524 -1.56302,0.9177343 v -0.7886779 z m 0,0"
       style="fill:#000000;fill-opacity:1;fill-rule:nonzero;stroke:none"
       aria-label="EffcientHardwareImplementation"
       transform="matrix(1.08964,0,0,1.08964,45.67553,123.02572)" />
    <path
       id="path3"
       d="m 9.72809,52.14487 h 157.05792 v 25.5121 H 9.72809 Z"
       style="fill:#ffcccc;fill-opacity:1;fill-rule:nonzero;stroke:#191919;stroke-width:0.74721;stroke-linecap:butt;stroke-linejoin:miter;stroke-miterlimit:10;stroke-dasharray:none;stroke-opacity:1"
       transform="matrix(1.08964,0,0,-1.08964,24.09194,150.21115)" />
    <path
       id="path4"
       d="m 1.6339631,-2.9825753 h 3.57056 v -0.7313195 h -3.57056 V -5.7931366 H 5.3335795 V -6.5387957 H 0.80226636 V 6.1148636e-5 H 5.491315 V -0.73125837 H 1.6339631 Z M 8.2875367,-4.7033271 H 7.5131984 v -0.7313195 c 0,-0.3154712 0.1720752,-0.4732068 0.5162256,-0.4732068 0.071698,0 0.086037,0 0.2581127,0.01434 v -0.6166027 c -0.1720752,-0.043019 -0.2581127,-0.057358 -0.4158483,-0.057358 -0.6883007,0 -1.1041491,0.4015087 -1.1041491,1.0754699 v 0.7886779 H 6.136597 v 0.6166027 H 6.7675393 V 6.1148636e-5 H 7.5131984 V -4.0867244 h 0.7743383 z m 2.4520713,0 H 9.9509301 v -0.7313195 c 0,-0.3154712 0.1864149,-0.4732068 0.5162259,-0.4732068 0.0717,0 0.100377,0 0.272452,0.01434 v -0.6166027 c -0.172075,-0.043019 -0.272452,-0.057358 -0.430188,-0.057358 -0.6883006,0 -1.104149,0.4015087 -1.104149,1.0754699 v 0.7886779 H 8.5886683 v 0.6166027 H 9.205271 V 6.1148636e-5 H 9.9509301 V -4.0867244 h 0.7886779 z m 1.649054,0 H 11.643003 V 6.1148636e-5 h 0.745659 z m 0,-1.8354686 h -0.745659 v 0.9464135 h 0.745659 z m 4.782256,3.4128244 c -0.02868,-0.4445276 -0.129056,-0.7456591 -0.301132,-1.0037719 -0.32981,-0.4445275 -0.889055,-0.7026403 -1.548676,-0.7026403 -1.261885,0 -2.093582,1.0037719 -2.093582,2.5667881 0,1.50565783 0.817357,2.46641093 2.079242,2.46641093 1.132828,0 1.835469,-0.67396113 1.921506,-1.82112903 h -0.745659 c -0.129056,0.75999874 -0.516225,1.1328283 -1.147168,1.1328283 -0.831696,0 -1.319243,-0.6739611 -1.319243,-1.7781102 0,-1.1758471 0.487547,-1.8784874 1.290564,-1.8784874 0.630942,0 1.032451,0.3728296 1.118489,1.0181115 z m 1.61679,-1.5773558 H 18.042049 V 6.1148636e-5 h 0.745659 z m 0,-1.8354686 h -0.759999 v 0.9464135 h 0.759999 z m 5.244708,4.4452755 c 0,-0.7169799 -0.05736,-1.1471679 -0.186415,-1.5056578 -0.315471,-0.7599988 -1.032451,-1.2332055 -1.907167,-1.2332055 -1.304903,0 -2.150939,1.0037719 -2.150939,2.5524485 0,1.53433703 0.817357,2.48075053 2.1366,2.48075053 1.07547,0 1.821129,-0.60226314 2.007544,-1.62037463 H 23.17204 c -0.200755,0.61660274 -0.616603,0.9320739 -1.218866,0.9320739 -0.473207,0 -0.889055,-0.21509397 -1.132828,-0.6022631 -0.186415,-0.2724524 -0.243773,-0.5449048 -0.258113,-1.0037719 z m -3.441504,-0.6166027 c 0.05736,-0.860376 0.587924,-1.4339599 1.333583,-1.4339599 0.745659,0 1.304903,0.6166027 1.304903,1.3766015 0,0.028679 0,0.043019 -0.01434,0.057358 z m 4.45603,-1.9932042 V 6.1148636e-5 h 0.745659 V -2.5954062 c 0,-0.9607531 0.501886,-1.5773558 1.276225,-1.5773558 0.587923,0 0.975092,0.35849 0.975092,0.9177343 V 6.1148636e-5 h 0.73132 V -3.5561593 c 0,-0.7743383 -0.573584,-1.2762242 -1.476979,-1.2762242 -0.70264,0 -1.147168,0.2724524 -1.563016,0.9177343 v -0.7886779 z m 6.632065,0 H 30.904668 V -5.993891 h -0.745659 v 1.2905639 h -0.630942 v 0.6166027 h 0.630942 v 3.54188081 c 0,0.48754635 0.329811,0.74565912 0.903395,0.74565912 0.186415,0 0.35849,-0.0143396 0.616603,-0.0573584 V -0.4874852 c -0.100378,0.0286792 -0.215094,0.0430188 -0.35849,0.0430188 -0.329811,0 -0.415849,-0.10037719 -0.415849,-0.43018795 V -4.0867244 h 0.774339 z m 8.492627,-1.8354686 h -0.788678 v 5.3486702 L 35.970131,-6.5387957 H 35.066737 V 6.1148636e-5 h 0.788678 V -5.2912507 L 39.22522,6.1148636e-5 h 0.946414 z M 45.165399,6.1148636e-5 V -4.7033271 H 44.41974 v 2.6671653 c 0,0.9607531 -0.501886,1.5916954 -1.276224,1.5916954 -0.587924,0 -0.960754,-0.35848996 -0.960754,-0.9320739 v -3.3267868 h -0.745659 v 3.6279184 c 0,0.77433828 0.573584,1.27622423 1.491319,1.27622423 0.6883,0 1.132828,-0.24377318 1.563016,-0.86037591 V 6.1148636e-5 Z M 46.466717,-4.7033271 V 6.1148636e-5 h 0.74566 V -2.9538961 c 0,-0.6739611 0.501886,-1.2188659 1.104149,-1.2188659 0.559244,0 0.874715,0.3298108 0.874715,0.9320739 V 6.1148636e-5 H 49.9369 V -2.9538961 c 0,-0.6739611 0.501886,-1.2188659 1.104149,-1.2188659 0.544905,0 0.874716,0.3441504 0.874716,0.9320739 V 6.1148636e-5 h 0.745659 V -3.5274801 c 0,-0.8316967 -0.473207,-1.3049034 -1.362262,-1.3049034 -0.616603,0 -1.003772,0.1864148 -1.43396,0.7169799 -0.286792,-0.5018859 -0.659621,-0.7169799 -1.261884,-0.7169799 -0.630943,0 -1.046791,0.2294336 -1.4483,0.8030175 v -0.6739611 z m 11.443,2.6098069 c 0,-0.7169799 -0.05736,-1.1471679 -0.186415,-1.5056578 -0.315471,-0.7599988 -1.032451,-1.2332055 -1.907166,-1.2332055 -1.304904,0 -2.15094,1.0037719 -2.15094,2.5524485 0,1.53433703 0.817357,2.48075053 2.1366,2.48075053 1.07547,0 1.821129,-0.60226314 2.007544,-1.62037463 h -0.759999 c -0.200754,0.61660274 -0.616603,0.9320739 -1.218866,0.9320739 -0.473207,0 -0.889055,-0.21509397 -1.132828,-0.6022631 -0.186415,-0.2724524 -0.243773,-0.5449048 -0.258113,-1.0037719 z m -3.441504,-0.6166027 c 0.05736,-0.860376 0.587924,-1.4339599 1.333583,-1.4339599 0.745659,0 1.304903,0.6166027 1.304903,1.3766015 0,0.028679 0,0.043019 -0.01434,0.057358 z m 4.438106,-1.9932042 V 6.1148636e-5 h 0.759999 V -2.4376706 c 0,-0.6739611 0.172075,-1.1184887 0.530565,-1.3766014 0.229434,-0.1720752 0.444527,-0.215094 0.975093,-0.2294336 v -0.7599987 c -0.129057,-0.01434 -0.186415,-0.028679 -0.286792,-0.028679 -0.487547,0 -0.860376,0.286792 -1.290564,0.9894323 v -0.8603759 z m 3.853767,0 H 62.014427 V 6.1148636e-5 h 0.745659 z m 0,-1.8354686 h -0.759999 v 0.9464135 h 0.759999 z m 4.857539,3.4128244 c -0.02868,-0.4445276 -0.129056,-0.7456591 -0.301131,-1.0037719 -0.329811,-0.4445275 -0.889056,-0.7026403 -1.548677,-0.7026403 -1.261885,0 -2.093581,1.0037719 -2.093581,2.5667881 0,1.50565783 0.817357,2.46641093 2.079241,2.46641093 1.132829,0 1.835469,-0.67396113 1.921506,-1.82112903 h -0.745659 c -0.129056,0.75999874 -0.516225,1.1328283 -1.147167,1.1328283 -0.831697,0 -1.319244,-0.6739611 -1.319244,-1.7781102 0,-1.1758471 0.487547,-1.8784874 1.290564,-1.8784874 0.630943,0 1.032451,0.3728296 1.118489,1.0181115 z m 4.194333,-0.2581128 c -0.01434,-0.9320739 -0.616603,-1.4482994 -1.706413,-1.4482994 -1.089809,0 -1.806789,0.5592443 -1.806789,1.4339598 0,0.7313195 0.387169,1.0898095 1.491318,1.3479223 l 0.702641,0.1720752 c 0.516225,0.1290563 0.731319,0.3154711 0.731319,0.6596215 0,0.44452754 -0.444527,0.7313195 -1.104149,0.7313195 -0.401509,0 -0.745659,-0.11471678 -0.932074,-0.31547116 -0.114717,-0.12905639 -0.172075,-0.25811274 -0.215094,-0.60226314 h -0.788678 c 0.04302,1.08980948 0.645282,1.60603503 1.878488,1.60603503 1.175847,0 1.935845,-0.57358394 1.935845,-1.47697863 0,-0.7026403 -0.401508,-1.0898095 -1.333582,-1.3192431 l -0.71698,-0.1720751 c -0.602263,-0.143396 -0.860376,-0.3298108 -0.860376,-0.6596216 0,-0.4301879 0.387169,-0.7169799 0.989432,-0.7169799 0.602263,0 0.932074,0.2581128 0.946414,0.7599987 z m 4.710558,0.573584 h 2.150939 c 0.74566,0 1.07547,0.3584899 1.07547,1.1615074 v 0.5879236 c 0,0.40150872 0.0717,0.78867788 0.186415,1.061130248636 h 1.003772 V -0.20069323 c -0.301132,-0.21509397 -0.37283,-0.45886715 -0.387169,-1.31924307 -0.01434,-1.0754699 -0.186415,-1.4052806 -0.889055,-1.7064122 0.731319,-0.35849 1.032451,-0.8173571 1.032451,-1.5630162 0,-1.1328283 -0.70264,-1.749431 -1.993204,-1.749431 H 75.690819 V 6.1148636e-5 h 0.831697 z m 0,-0.7456592 v -2.2369773 h 2.021883 c 0.458867,0 0.73132,0.071698 0.946414,0.2437732 0.215094,0.1864147 0.32981,0.4875463 0.32981,0.8747155 0,0.7743383 -0.387169,1.1184886 -1.276224,1.1184886 z m 9.413946,1.4626391 c 0,-0.7169799 -0.05736,-1.1471679 -0.186415,-1.5056578 -0.315471,-0.7599988 -1.032451,-1.2332055 -1.907166,-1.2332055 -1.304904,0 -2.15094,1.0037719 -2.15094,2.5524485 0,1.53433703 0.817357,2.48075053 2.1366,2.48075053 1.07547,0 1.821129,-0.60226314 2.007544,-1.62037463 h -0.759999 c -0.200754,0.61660274 -0.616603,0.9320739 -1.218866,0.9320739 -0.473206,0 -0.889055,-0.21509397 -1.132828,-0.6022631 -0.186415,-0.2724524 -0.243773,-0.5449048 -0.258113,-1.0037719 z m -3.441504,-0.6166027 c 0.05736,-0.860376 0.587924,-1.4339599 1.333583,-1.4339599 0.745659,0 1.304904,0.6166027 1.304904,1.3766015 0,0.028679 0,0.043019 -0.01434,0.057358 z m 4.312635,4.6603694 h 0.745659 v -2.4377317 c 0.401509,0.47320675 0.831696,0.68830073 1.448299,0.68830073 1.204526,0 2.007544,-0.97509269 2.007544,-2.46641093 0,-1.5773558 -0.774338,-2.5667881 -2.021883,-2.5667881 -0.630943,0 -1.147168,0.286792 -1.491319,0.8460363 v -0.7169799 h -0.6883 z m 2.064902,-6.0799897 c 0.817357,0 1.362262,0.7169799 1.362262,1.8498082 0,1.0611303 -0.559245,1.7924498 -1.362262,1.7924498 -0.788678,0 -1.319243,-0.7169799 -1.319243,-1.821129 0,-1.1041491 0.530565,-1.821129 1.319243,-1.821129 z m 3.047164,-0.5735839 V 6.1148636e-5 h 0.759999 V -2.4376706 c 0,-0.6739611 0.172075,-1.1184887 0.530565,-1.3766014 0.229434,-0.1720752 0.444528,-0.215094 0.975093,-0.2294336 v -0.7599987 c -0.129056,-0.01434 -0.186415,-0.028679 -0.286792,-0.028679 -0.487546,0 -0.860376,0.286792 -1.290564,0.9894323 v -0.8603759 z m 6.97263,2.6098069 c 0,-0.7169799 -0.05736,-1.1471679 -0.186415,-1.5056578 -0.315471,-0.7599988 -1.032451,-1.2332055 -1.907166,-1.2332055 -1.304904,0 -2.15094,1.0037719 -2.15094,2.5524485 0,1.53433703 0.817357,2.48075053 2.1366,2.48075053 1.07547,0 1.821129,-0.60226314 2.007544,-1.62037463 h -0.759999 c -0.200754,0.61660274 -0.616602,0.9320739 -1.218866,0.9320739 -0.473206,0 -0.889055,-0.21509397 -1.132828,-0.6022631 -0.186415,-0.2724524 -0.243773,-0.5449048 -0.258113,-1.0037719 z m -3.441503,-0.6166027 c 0.05736,-0.860376 0.587923,-1.4339599 1.333582,-1.4339599 0.745659,0 1.304904,0.6166027 1.304904,1.3766015 0,0.028679 0,0.043019 -0.01434,0.057358 z m 7.754134,-0.6739612 c -0.0143,-0.9320739 -0.6166,-1.4482994 -1.70641,-1.4482994 -1.08981,0 -1.806788,0.5592443 -1.806788,1.4339598 0,0.7313195 0.387168,1.0898095 1.491318,1.3479223 l 0.70264,0.1720752 c 0.51623,0.1290563 0.73132,0.3154711 0.73132,0.6596215 0,0.44452754 -0.44453,0.7313195 -1.10415,0.7313195 -0.40151,0 -0.74566,-0.11471678 -0.93207,-0.31547116 -0.11472,-0.12905639 -0.17208,-0.25811274 -0.2151,-0.60226314 h -0.788675 c 0.04302,1.08980948 0.645285,1.60603503 1.878485,1.60603503 1.17585,0 1.93585,-0.57358394 1.93585,-1.47697863 0,-0.7026403 -0.40151,-1.0898095 -1.33358,-1.3192431 l -0.71698,-0.1720751 c -0.60227,-0.143396 -0.86038,-0.3298108 -0.86038,-0.6596216 0,-0.4301879 0.38717,-0.7169799 0.98943,-0.7169799 0.60227,0 0.93208,0.2581128 0.94642,0.7599987 z m 5.15867,1.2905639 c 0,-0.7169799 -0.0573,-1.1471679 -0.18641,-1.5056578 -0.31547,-0.7599988 -1.03245,-1.2332055 -1.90717,-1.2332055 -1.3049,0 -2.15094,1.0037719 -2.15094,2.5524485 0,1.53433703 0.81736,2.48075053 2.1366,2.48075053 1.07547,0 1.82113,-0.60226314 2.00755,-1.62037463 h -0.76 c -0.20076,0.61660274 -0.6166,0.9320739 -1.21887,0.9320739 -0.4732,0 -0.88905,-0.21509397 -1.13283,-0.6022631 -0.18641,-0.2724524 -0.24377,-0.5449048 -0.25811,-1.0037719 z m -3.4415,-0.6166027 c 0.0574,-0.860376 0.58792,-1.4339599 1.33358,-1.4339599 0.74566,0 1.30491,0.6166027 1.30491,1.3766015 0,0.028679 0,0.043019 -0.0143,0.057358 z m 4.45245,-1.9932042 V 6.1148636e-5 h 0.74565 V -2.5954062 c 0,-0.9607531 0.50189,-1.5773558 1.27623,-1.5773558 0.58792,0 0.97509,0.35849 0.97509,0.9177343 V 6.1148636e-5 h 0.73132 V -3.5561593 c 0,-0.7743383 -0.57358,-1.2762242 -1.47698,-1.2762242 -0.70264,0 -1.14717,0.2724524 -1.56301,0.9177343 v -0.7886779 z m 6.63564,0 h -0.77433 V -5.993891 h -0.74566 v 1.2905639 h -0.63094 v 0.6166027 h 0.63094 v 3.54188081 c 0,0.48754635 0.32981,0.74565912 0.90339,0.74565912 0.18642,0 0.35849,-0.0143396 0.6166,-0.0573584 V -0.4874852 c -0.10037,0.0286792 -0.21509,0.0430188 -0.35849,0.0430188 -0.32981,0 -0.41584,-0.10037719 -0.41584,-0.43018795 V -4.0867244 h 0.77433 z m 5.00094,4.2588607 c -0.0717,0.0286792 -0.11472,0.0286792 -0.15774,0.0286792 -0.25811,0 -0.4015,-0.14339599 -0.4015,-0.37282956 V -3.5561593 c 0,-0.8316967 -0.60227,-1.2762242 -1.76378,-1.2762242 -0.6883,0 -1.24754,0.2007544 -1.56301,0.5449047 -0.2151,0.2437732 -0.30113,0.5162256 -0.31547,0.9750927 h 0.74566 c 0.0717,-0.5735839 0.40151,-0.8316967 1.10415,-0.8316967 0.67396,0 1.04679,0.2581128 1.04679,0.7026403 v 0.2007544 c 0,0.3154712 -0.18642,0.4445276 -0.77434,0.5162256 -1.06113,0.1290563 -1.21887,0.1720751 -1.50566,0.2867919 -0.5449,0.2294336 -0.8317,0.6452819 -0.8317,1.2475451 0,0.86037589 0.60227,1.39094103 1.54868,1.39094103 0.58792,0 1.06113,-0.200754381364 1.5917,-0.68830073 0.0573,0.47320675 0.28679,0.68830073 0.77433,0.68830073 0.1434,0 0.27246,-0.0143396 0.50189,-0.071698 z m -1.3049,-1.0324511 c 0,0.2437732 -0.0717,0.4015088 -0.2868,0.60226315 -0.31547,0.28679196 -0.67396,0.43018795 -1.11848,0.43018795 -0.58793,0 -0.91774,-0.28679197 -0.91774,-0.7599987 0,-0.4875464 0.32981,-0.7456591 1.11849,-0.8603759 0.78868,-0.1003772 0.96075,-0.143396 1.20453,-0.2581128 z m 3.78207,-3.2264096 h -0.77434 V -5.993891 h -0.74566 v 1.2905639 h -0.63094 v 0.6166027 h 0.63094 v 3.54188081 c 0,0.48754635 0.32981,0.74565912 0.90339,0.74565912 0.18642,0 0.35849,-0.0143396 0.61661,-0.0573584 V -0.4874852 c -0.10038,0.0286792 -0.2151,0.0430188 -0.35849,0.0430188 -0.32982,0 -0.41585,-0.10037719 -0.41585,-0.43018795 V -4.0867244 h 0.77434 z m 1.55943,0 h -0.74566 V 6.1148636e-5 h 0.74566 z m 0,-1.8354686 h -0.76 v 0.9464135 h 0.76 z m 3.07943,1.7064122 c -1.31925,0 -2.10793,0.9464135 -2.10793,2.5237693 0,1.57735583 0.78868,2.50942973 2.12227,2.50942973 1.31924,0 2.12226,-0.9320739 2.12226,-2.48075053 0,-1.6203746 -0.78868,-2.5524485 -2.1366,-2.5524485 z m 0.0143,0.6883007 c 0.83169,0 1.33358,0.6883007 1.33358,1.8641478 0,1.0898095 -0.51623,1.7924498 -1.33358,1.7924498 -0.8317,0 -1.34793,-0.6883007 -1.34793,-1.821129 0,-1.1328283 0.51623,-1.8354686 1.34793,-1.8354686 z m 3.16546,-0.5592443 V 6.1148636e-5 h 0.74566 V -2.5954062 c 0,-0.9607531 0.50189,-1.5773558 1.27622,-1.5773558 0.58793,0 0.9751,0.35849 0.9751,0.9177343 V 6.1148636e-5 h 0.73132 V -3.5561593 c 0,-0.7743383 -0.57359,-1.2762242 -1.47698,-1.2762242 -0.70264,0 -1.14717,0.2724524 -1.56302,0.9177343 v -0.7886779 z m 0,0"
       style="fill:#000000;fill-opacity:1;fill-rule:nonzero;stroke:none"
       aria-label="EffcientNumericsRepresentation"
       transform="matrix(1.08964,0,0,1.08964,46.344568,82.058527)" />
    <path
       id="path5"
       d="m 9.72809,89.74272 h 157.05792 v 25.5121 H 9.72809 Z"
       style="fill:#ffe6e6;fill-opacity:1;fill-rule:nonzero;stroke:#191919;stroke-width:0.74721;stroke-linecap:butt;stroke-linejoin:miter;stroke-miterlimit:10;stroke-dasharray:none;stroke-opacity:1"
       transform="matrix(1.08964,0,0,-1.08964,24.09194,150.21115)" />
    <path
       id="path6"
       d="m 1.6357629,-2.9840023 h 3.57056 v -0.7313195 h -3.57056 V -5.7945636 H 5.3353793 V -6.5402227 H 0.80406621 v 6.53885685 H 5.4931149 V -0.73268537 H 1.6357629 Z M 8.2893366,-4.7047541 H 7.5149983 v -0.7313195 c 0,-0.3154712 0.1720751,-0.4732068 0.5162255,-0.4732068 0.071698,0 0.086038,0 0.2581128,0.01434 v -0.6166027 c -0.1720752,-0.043019 -0.2581128,-0.057358 -0.4158484,-0.057358 -0.6883007,0 -1.1041491,0.4015087 -1.1041491,1.0754699 v 0.7886779 H 6.1383968 v 0.6166027 h 0.6309423 v 4.08678555 H 7.5149983 V -4.0881514 h 0.7743383 z m 2.4484864,0 H 9.9491451 v -0.7313195 c 0,-0.3154712 0.1864149,-0.4732068 0.5162259,-0.4732068 0.0717,0 0.100377,0 0.272452,0.01434 v -0.6166027 c -0.172075,-0.043019 -0.272452,-0.057358 -0.430188,-0.057358 -0.6883007,0 -1.104149,0.4015087 -1.104149,1.0754699 v 0.7886779 H 8.5868832 v 0.6166027 H 9.203486 v 4.08678555 H 9.9491451 V -4.0881514 h 0.7886779 z m 1.649054,0 h -0.745659 v 4.70338825 h 0.745659 z m 0,-1.8354686 h -0.745659 v 0.9464135 h 0.745659 z m 4.785841,3.4128244 c -0.02868,-0.4445276 -0.129057,-0.7456591 -0.301132,-1.0037719 -0.329811,-0.4445275 -0.889055,-0.7026403 -1.548676,-0.7026403 -1.261885,0 -2.093582,1.0037719 -2.093582,2.5667881 0,1.50565783 0.817357,2.46641092 2.079242,2.46641092 1.132828,0 1.835469,-0.67396112 1.921506,-1.82112902 h -0.745659 c -0.129056,0.75999874 -0.516225,1.1328283 -1.147168,1.1328283 -0.831697,0 -1.319243,-0.6739611 -1.319243,-1.7781102 0,-1.1758471 0.487546,-1.8784874 1.290564,-1.8784874 0.630942,0 1.032451,0.3728296 1.118489,1.0181115 z m 1.613205,-1.5773558 h -0.74566 v 4.70338825 h 0.74566 z m 0,-1.8354686 h -0.759999 v 0.9464135 h 0.759999 z m 5.248293,4.4452755 c 0,-0.7169799 -0.05736,-1.1471679 -0.186415,-1.5056579 -0.315471,-0.7599987 -1.032451,-1.2332054 -1.907167,-1.2332054 -1.304903,0 -2.15094,1.0037719 -2.15094,2.5524485 0,1.53433703 0.817358,2.48075052 2.136601,2.48075052 1.07547,0 1.821129,-0.60226313 2.007543,-1.62037462 H 23.17384 c -0.200755,0.61660273 -0.616603,0.9320739 -1.218866,0.9320739 -0.473207,0 -0.889055,-0.21509398 -1.132828,-0.6022631 -0.186415,-0.2724524 -0.243774,-0.5449048 -0.258113,-1.0037719 z M 20.592712,-2.71155 c 0.05736,-0.8603759 0.587924,-1.4339598 1.333583,-1.4339598 0.745659,0 1.304903,0.6166027 1.304903,1.3766015 0,0.028679 0,0.043019 -0.01434,0.057358 z m 4.452445,-1.9932041 v 4.70338825 h 0.745659 V -2.5968332 c 0,-0.9607531 0.501886,-1.5773558 1.276225,-1.5773558 0.587923,0 0.975092,0.35849 0.975092,0.9177343 v 3.25508885 h 0.73132 V -3.5575863 c 0,-0.7743383 -0.573584,-1.2762242 -1.476979,-1.2762242 -0.70264,0 -1.147168,0.2724524 -1.563016,0.9177343 v -0.7886779 z m 6.635649,0 H 30.906468 V -5.995318 h -0.745659 v 1.2905639 h -0.630942 v 0.6166027 h 0.630942 v 3.54188081 c 0,0.48754634 0.329811,0.74565911 0.903395,0.74565911 0.186415,0 0.35849,-0.0143396 0.616602,-0.0573584 V -0.4889122 c -0.100377,0.0286792 -0.215094,0.0430188 -0.35849,0.0430188 -0.32981,0 -0.415848,-0.10037718 -0.415848,-0.43018795 V -4.0881514 h 0.774338 z m 6.897347,4.70338825 1.835469,-5.47772655 v 5.47772655 H 41.2023 V -6.5402227 H 40.040792 L 38.147965,-0.84740216 36.21212,-6.5402227 h -1.161508 v 6.53885685 H 35.83929 V -5.4790924 l 1.849808,5.47772655 z m 5.70716,-4.83244465 c -1.319243,0 -2.107921,0.9464135 -2.107921,2.5237693 0,1.57735583 0.788678,2.50942972 2.122261,2.50942972 1.319243,0 2.122261,-0.93207389 2.122261,-2.48075052 0,-1.6203746 -0.788678,-2.5524485 -2.136601,-2.5524485 z m 0.01434,0.6883007 c 0.831697,0 1.333583,0.6883007 1.333583,1.8641478 0,1.0898095 -0.516226,1.7924498 -1.333583,1.7924498 -0.831697,0 -1.347922,-0.6883007 -1.347922,-1.821129 0,-1.1328283 0.516225,-1.8354686 1.347922,-1.8354686 z m 6.961875,-2.3947129 h -0.731319 v 2.4377317 c -0.315472,-0.4732067 -0.817358,-0.7313195 -1.4483,-0.7313195 -1.218866,0 -2.021883,0.9750927 -2.021883,2.4807505 0,1.57735583 0.788678,2.55244852 2.050562,2.55244852 0.645282,0 1.08981,-0.24377317 1.491319,-0.81735711 v 0.61660274 h 0.659621 z m -2.050562,2.4090525 c 0.803017,0 1.319243,0.7169799 1.319243,1.8354686 0,1.0898095 -0.530566,1.8067894 -1.319243,1.8067894 -0.817358,0 -1.362262,-0.7313195 -1.362262,-1.821129 0,-1.1041491 0.544904,-1.821129 1.362262,-1.821129 z m 7.209233,2.036223 c 0,-0.7169799 -0.05736,-1.1471679 -0.186415,-1.5056579 -0.315471,-0.7599987 -1.032451,-1.2332054 -1.907167,-1.2332054 -1.304903,0 -2.15094,1.0037719 -2.15094,2.5524485 0,1.53433703 0.817358,2.48075052 2.136601,2.48075052 1.07547,0 1.821129,-0.60226313 2.007543,-1.62037462 h -0.759998 c -0.200755,0.61660273 -0.616603,0.9320739 -1.218866,0.9320739 -0.473207,0 -0.889055,-0.21509398 -1.132828,-0.6022631 -0.186415,-0.2724524 -0.243774,-0.5449048 -0.258113,-1.0037719 z M 52.978695,-2.71155 c 0.05736,-0.8603759 0.587924,-1.4339598 1.333583,-1.4339598 0.745659,0 1.304903,0.6166027 1.304903,1.3766015 0,0.028679 0,0.043019 -0.01434,0.057358 z m 5.18735,-3.8286727 h -0.745659 v 6.53885685 h 0.745659 z m 4.782256,3.7282956 h 2.15094 c 0.745659,0 1.075469,0.3584899 1.075469,1.1615074 v 0.5879236 c 0,0.40150872 0.0717,0.78867788 0.186415,1.06113025 h 1.003772 v -0.20075438 c -0.301131,-0.21509398 -0.372829,-0.45886715 -0.387169,-1.31924307 -0.01434,-1.0754699 -0.186415,-1.4052806 -0.889055,-1.7064122 0.731319,-0.35849 1.032451,-0.8173571 1.032451,-1.5630162 0,-1.1328283 -0.70264,-1.749431 -1.993204,-1.749431 h -3.011316 v 6.53885685 h 0.831697 z m 0,-0.7456592 v -2.2369773 h 2.021883 c 0.458867,0 0.73132,0.071698 0.946414,0.2437732 0.215094,0.1864147 0.32981,0.4875463 0.32981,0.8747155 0,0.7743383 -0.387169,1.1184886 -1.276224,1.1184886 z m 9.413946,1.4626391 c 0,-0.7169799 -0.05736,-1.1471679 -0.186415,-1.5056579 -0.315471,-0.7599987 -1.032451,-1.2332054 -1.907166,-1.2332054 -1.304904,0 -2.15094,1.0037719 -2.15094,2.5524485 0,1.53433703 0.817357,2.48075052 2.1366,2.48075052 1.07547,0 1.821129,-0.60226313 2.007544,-1.62037462 h -0.759999 c -0.200754,0.61660273 -0.616603,0.9320739 -1.218866,0.9320739 -0.473206,0 -0.889055,-0.21509398 -1.132828,-0.6022631 -0.186415,-0.2724524 -0.243773,-0.5449048 -0.258113,-1.0037719 z M 68.920744,-2.71155 c 0.05736,-0.8603759 0.587923,-1.4339598 1.333582,-1.4339598 0.745659,0 1.304904,0.6166027 1.304904,1.3766015 0,0.028679 0,0.043019 -0.01434,0.057358 z m 4.312634,4.6603695 h 0.745659 v -2.4377317 c 0.401509,0.47320675 0.831697,0.68830072 1.448299,0.68830072 1.204527,0 2.007544,-0.97509269 2.007544,-2.46641092 0,-1.5773558 -0.774338,-2.5667881 -2.021883,-2.5667881 -0.630943,0 -1.147168,0.286792 -1.491319,0.8460363 v -0.7169799 h -0.6883 z m 2.064902,-6.0799897 c 0.817357,0 1.362262,0.7169799 1.362262,1.8498082 0,1.0611303 -0.559245,1.7924498 -1.362262,1.7924498 -0.788678,0 -1.319243,-0.7169799 -1.319243,-1.821129 0,-1.1041491 0.530565,-1.821129 1.319243,-1.821129 z m 3.047165,-0.5735839 v 4.70338825 h 0.759998 V -2.4390976 c 0,-0.6739611 0.172075,-1.1184887 0.530565,-1.3766014 0.229434,-0.1720752 0.444528,-0.215094 0.975093,-0.2294336 v -0.7599987 c -0.129056,-0.01434 -0.186415,-0.028679 -0.286792,-0.028679 -0.487546,0 -0.860376,0.286792 -1.290564,0.9894323 v -0.8603759 z m 6.972629,2.6098069 c 0,-0.7169799 -0.05736,-1.1471679 -0.186415,-1.5056579 -0.315471,-0.7599987 -1.032451,-1.2332054 -1.907166,-1.2332054 -1.304904,0 -2.15094,1.0037719 -2.15094,2.5524485 0,1.53433703 0.817357,2.48075052 2.1366,2.48075052 1.07547,0 1.821129,-0.60226313 2.007544,-1.62037462 h -0.759999 c -0.200754,0.61660273 -0.616602,0.9320739 -1.218865,0.9320739 -0.473207,0 -0.889056,-0.21509398 -1.132829,-0.6022631 -0.186415,-0.2724524 -0.243773,-0.5449048 -0.258113,-1.0037719 z M 81.876571,-2.71155 c 0.05736,-0.8603759 0.587923,-1.4339598 1.333582,-1.4339598 0.745659,0 1.304904,0.6166027 1.304904,1.3766015 0,0.028679 0,0.043019 -0.01434,0.057358 z m 7.754137,-0.6739611 c -0.01434,-0.9320739 -0.616602,-1.4482994 -1.706412,-1.4482994 -1.089809,0 -1.806789,0.5592443 -1.806789,1.4339598 0,0.7313195 0.387169,1.0898095 1.491318,1.3479223 l 0.70264,0.1720752 c 0.516226,0.1290563 0.73132,0.3154711 0.73132,0.6596215 0,0.44452753 -0.444528,0.7313195 -1.104149,0.7313195 -0.401509,0 -0.745659,-0.11471679 -0.932074,-0.31547117 C 86.891845,-0.93343975 86.834487,-1.0624961 86.791468,-1.4066465 H 86.00279 c 0.04302,1.08980948 0.645282,1.60603502 1.878487,1.60603502 1.175848,0 1.935846,-0.57358393 1.935846,-1.47697862 0,-0.7026403 -0.401508,-1.0898095 -1.333582,-1.3192431 l -0.71698,-0.1720751 c -0.602263,-0.143396 -0.860376,-0.3298108 -0.860376,-0.6596216 0,-0.4301879 0.387169,-0.7169799 0.989432,-0.7169799 0.602263,0 0.932074,0.2581128 0.946414,0.7599987 z m 5.155086,1.2905639 c 0,-0.7169799 -0.05736,-1.1471679 -0.186415,-1.5056579 -0.315471,-0.7599987 -1.032451,-1.2332054 -1.907166,-1.2332054 -1.304904,0 -2.15094,1.0037719 -2.15094,2.5524485 0,1.53433703 0.817357,2.48075052 2.1366,2.48075052 1.07547,0 1.821129,-0.60226313 2.007544,-1.62037462 h -0.759999 c -0.200754,0.61660273 -0.616603,0.9320739 -1.218866,0.9320739 -0.473206,0 -0.889055,-0.21509398 -1.132828,-0.6022631 -0.186415,-0.2724524 -0.243773,-0.5449048 -0.258113,-1.0037719 z M 91.34429,-2.71155 c 0.05736,-0.8603759 0.587924,-1.4339598 1.333583,-1.4339598 0.745659,0 1.304904,0.6166027 1.304904,1.3766015 0,0.028679 0,0.043019 -0.01434,0.057358 z m 4.456031,-1.9932041 v 4.70338825 H 96.54598 V -2.5968332 c 0,-0.9607531 0.501886,-1.5773558 1.276224,-1.5773558 0.587924,0 0.975093,0.35849 0.975093,0.9177343 v 3.25508885 h 0.731319 V -3.5575863 c 0,-0.7743383 -0.573584,-1.2762242 -1.476978,-1.2762242 -0.702641,0 -1.147168,0.2724524 -1.563017,0.9177343 v -0.7886779 z m 6.635649,0 h -0.77434 V -5.995318 h -0.74566 v 1.2905639 h -0.63094 v 0.6166027 h 0.63094 v 3.54188081 c 0,0.48754634 0.32981,0.74565911 0.9034,0.74565911 0.18641,0 0.35849,-0.0143396 0.6166,-0.0573584 V -0.4889122 c -0.10038,0.0286792 -0.21509,0.0430188 -0.35849,0.0430188 -0.32981,0 -0.41585,-0.10037718 -0.41585,-0.43018795 V -4.0881514 h 0.77434 z m 5.00093,4.25886069 c -0.0717,0.0286792 -0.11471,0.0286792 -0.15773,0.0286792 -0.25811,0 -0.40151,-0.14339598 -0.40151,-0.37282956 V -3.5575863 c 0,-0.8316967 -0.60226,-1.2762242 -1.76377,-1.2762242 -0.6883,0 -1.24755,0.2007544 -1.56302,0.5449047 -0.21509,0.2437732 -0.30113,0.5162256 -0.31547,0.9750927 h 0.74566 c 0.0717,-0.5735839 0.40151,-0.8316967 1.10415,-0.8316967 0.67396,0 1.04679,0.2581128 1.04679,0.7026403 v 0.2007544 c 0,0.3154712 -0.18641,0.4445276 -0.77434,0.5162255 -1.06113,0.1290564 -1.21886,0.1720752 -1.50565,0.286792 -0.54491,0.2294336 -0.8317,0.6452819 -0.8317,1.2475451 0,0.86037588 0.60226,1.39094102 1.54868,1.39094102 0.58792,0 1.06113,-0.20075437 1.59169,-0.68830072 0.0574,0.47320675 0.28679,0.68830072 0.77434,0.68830072 0.14339,0 0.27245,-0.0143396 0.50188,-0.071698 z M 106.132,-1.4783445 c 0,0.2437732 -0.0717,0.4015088 -0.28679,0.60226314 -0.31547,0.28679197 -0.67396,0.43018795 -1.11849,0.43018795 -0.58792,0 -0.91773,-0.28679196 -0.91773,-0.75999869 0,-0.4875464 0.32981,-0.7456591 1.11849,-0.8603759 0.78867,-0.1003772 0.96075,-0.143396 1.20452,-0.2581128 z m 3.78207,-3.2264096 h -0.77434 V -5.995318 h -0.74566 v 1.2905639 h -0.63094 v 0.6166027 h 0.63094 v 3.54188081 c 0,0.48754634 0.32981,0.74565911 0.9034,0.74565911 0.18641,0 0.35849,-0.0143396 0.6166,-0.0573584 V -0.4889122 c -0.10038,0.0286792 -0.21509,0.0430188 -0.35849,0.0430188 -0.32981,0 -0.41585,-0.10037718 -0.41585,-0.43018795 V -4.0881514 h 0.77434 z m 1.55943,0 h -0.74566 v 4.70338825 h 0.74566 z m 0,-1.8354686 h -0.76 v 0.9464135 h 0.76 z m 3.07943,1.7064122 c -1.31924,0 -2.10792,0.9464135 -2.10792,2.5237693 0,1.57735583 0.78868,2.50942972 2.12226,2.50942972 1.31924,0 2.12226,-0.93207389 2.12226,-2.48075052 0,-1.6203746 -0.78868,-2.5524485 -2.1366,-2.5524485 z m 0.0143,0.6883007 c 0.8317,0 1.33358,0.6883007 1.33358,1.8641478 0,1.0898095 -0.51622,1.7924498 -1.33358,1.7924498 -0.8317,0 -1.34792,-0.6883007 -1.34792,-1.821129 0,-1.1328283 0.51622,-1.8354686 1.34792,-1.8354686 z m 3.16547,-0.5592443 v 4.70338825 h 0.74566 V -2.5968332 c 0,-0.9607531 0.50188,-1.5773558 1.27622,-1.5773558 0.58792,0 0.97509,0.35849 0.97509,0.9177343 v 3.25508885 h 0.73132 V -3.5575863 c 0,-0.7743383 -0.57358,-1.2762242 -1.47698,-1.2762242 -0.70264,0 -1.14716,0.2724524 -1.56301,0.9177343 v -0.7886779 z m 0,0"
       style="fill:#000000;fill-opacity:1;fill-rule:nonzero;stroke:none"
       aria-label="EffcientModelRepresentation"
       transform="matrix(1.08964,0,0,1.08964,53.741045,41.091332)" />
    <path
       id="path7"
       d="M 0,4.52798 V 132.9542"
       style="fill:none;stroke:#000000;stroke-width:0.74721;stroke-linecap:butt;stroke-linejoin:miter;stroke-miterlimit:10;stroke-dasharray:none;stroke-opacity:1"
       transform="matrix(1.08964,0,0,-1.08964,24.09194,150.21115)" />
    <path
       id="path8"
       d="M 4.52798,0 C 3.18633,0.25154 1.00621,1.00621 -0.5031,1.88664 V -1.88664 C 1.00621,-1.00621 3.18633,-0.25154 4.52798,0"
       style="fill:#000000;fill-opacity:1;fill-rule:nonzero;stroke:none"
       transform="matrix(0,1.08964,1.08964,0,24.09194,145.27728)" />
    <path
       id="path9"
       d="M 4.52798,0 C 3.18633,0.25154 1.00621,1.00621 -0.5031,1.88664 V -1.88664 C 1.00621,-1.00621 3.18633,-0.25154 4.52798,0"
       style="fill:#000000;fill-opacity:1;fill-rule:nonzero;stroke:none"
       transform="matrix(0,-1.08964,-1.08964,0,24.09194,5.3389361)" />
    <path
       id="path10"
       d="M 6.5397109,0.00173414 V -5.5333508 H 5.5646182 L 4.4461295,-2.7658083 C 4.3457523,-2.5220352 3.7721684,-1.1167545 3.6861308,-0.78694377 3.6287724,-1.0163773 3.2559428,-1.9341116 3.1842449,-2.1492056 L 1.8076434,-5.5333508 H 0.83255071 V 0.00173414 H 1.5065118 V -4.8880689 h 0.01434 c 0.057358,0.2724524 0.4732068,1.319243 0.5162256,1.4196202 L 3.37066,-0.17034104 H 4.001602 L 5.177449,-3.0956191 c 0,0 0.5592444,-1.3622619 0.6883008,-1.8067894 h 0.01434 V 0.00173414 Z M 11.37574,-1.7476969 c 0,-1.0467906 -0.831696,-1.9071666 -1.878487,-1.9071666 -1.032451,0 -1.8641477,0.860376 -1.8641477,1.9071666 0,1.01811152 0.8460363,1.83546863 1.8641477,1.83546863 1.046791,0 1.878487,-0.81735711 1.878487,-1.83546863 z m -0.6883,-0.086038 c 0,0.91773434 -0.573584,1.36226189 -1.190187,1.36226189 -0.6309423,0 -1.175847,-0.45886714 -1.175847,-1.36226189 0,-0.9033947 0.5879235,-1.3049034 1.175847,-1.3049034 0.602263,0 1.190187,0.4158483 1.190187,1.3049034 z m 3.463013,-1.1901866 v -0.5879236 c -0.673961,0 -1.161508,0.3298108 -1.476979,0.7456592 v -0.7313196 h -0.616603 v 3.59923924 h 0.673961 V -1.6903385 c 0,-0.8603759 0.71698,-1.3335826 1.419621,-1.333583 z m 3.638673,1.2762242 c 0,-0.3584899 -0.04302,-0.9033947 -0.35849,-1.3479222 -0.286792,-0.4158484 -0.759999,-0.5592444 -1.147168,-0.5592444 -0.975093,0 -1.735091,0.8460364 -1.735091,1.8641478 0,1.01811153 0.803017,1.87848743 1.849808,1.87848743 0.473207,0 0.946413,-0.14339598 1.347922,-0.38716915 l -0.04302,-0.57358394 c -0.444527,0.32981076 -0.946413,0.43018795 -1.290564,0.43018795 -0.6883,0 -1.218865,-0.57358389 -1.247545,-1.30490349 z M 17.301579,-2.220904 h -2.079241 c 0.186414,-0.6452819 0.659621,-0.9177343 1.06113,-0.9177343 0.34415,0 0.860376,0.1720752 1.018111,0.9177343 z m 7.270177,2.22263774 V -2.3642996 c 0,-0.6166027 -0.186415,-1.2475451 -1.175847,-1.2475451 -0.673961,0 -1.046791,0.3871692 -1.204526,0.5592444 v -2.4807505 h -0.673962 v 5.53508494 h 0.702641 V -1.9341116 c 0,-0.5305652 0.215094,-1.1615075 0.831696,-1.1615075 0.817358,0 0.817358,0.5592443 0.817358,0.7886779 v 2.30867534 z m 4.133389,0 V -2.2926016 c 0,-0.8173571 -0.616603,-1.3622619 -1.405281,-1.3622619 -0.501885,0 -0.889055,0.1003772 -1.333582,0.3441504 l 0.04302,0.5735839 c 0.272452,-0.1720751 0.659621,-0.4158483 1.290563,-0.4158483 0.344151,0 0.71698,0.2724524 0.71698,0.8603759 v 0.3298108 c -1.175847,0.028679 -2.337354,0.2867919 -2.337354,1.01811145 0,0.40150875 0.258113,1.03245108 0.960753,1.03245108 0.34415,0 0.975093,-0.07169799 1.405281,-0.38716915 V 0.00173414 Z M 28.016844,-1.1310941 c 0,0.15773555 0,0.37282953 -0.272452,0.53056511 -0.258113,0.14339598 -0.573584,0.15773558 -0.659622,0.15773558 -0.444527,0 -0.774338,-0.20075438 -0.774338,-0.50188594 0,-0.51622555 1.347922,-0.55924435 1.706412,-0.57358395 z m 3.810749,-1.892827 v -0.5879236 c -0.673961,0 -1.161508,0.3298108 -1.476979,0.7456592 v -0.7313196 h -0.616603 v 3.59923924 h 0.673961 V -1.6903385 c 0,-0.8603759 0.71698,-1.3335826 1.419621,-1.3335826 z m 3.810748,3.02565524 V -5.5333508 h -0.659622 v 2.3373545 c -0.516225,-0.3728296 -1.032451,-0.4158484 -1.261884,-0.4158484 -0.846037,0 -1.476979,0.8316968 -1.476979,1.8498082 0,1.00377193 0.630942,1.84980823 1.4483,1.84980823 0.501885,0 0.960753,-0.22943357 1.261884,-0.50188594 V 0.00173414 Z M 34.95004,-0.98769815 c -0.200754,0.32981077 -0.501886,0.54490474 -0.889055,0.54490474 -0.559244,0 -1.132828,-0.38716916 -1.132828,-1.31924309 0,-0.9894323 0.688301,-1.3335826 1.218866,-1.3335826 0.32981,0 0.602263,0.143396 0.803017,0.4158483 z m 7.040743,-2.55244855 h -0.630942 l -0.759999,2.394713 c -0.05736,0.24377314 -0.143396,0.48754632 -0.172075,0.67396109 -0.05736,-0.32981076 -0.329811,-1.19018669 -0.344151,-1.24754509 l -0.587923,-1.821129 H 38.87909 c -0.229433,0.6883008 -0.817357,2.466411 -0.889055,3.0543345 -0.0717,-0.5592443 -0.659621,-2.3230149 -0.788678,-2.7101841 -0.05736,-0.1864148 -0.05736,-0.2007544 -0.100377,-0.3441504 h -0.659622 l 1.175848,3.54188084 h 0.659621 l 0.501886,-1.54867664 c 0.129056,-0.3871691 0.35849,-1.1471679 0.401509,-1.5056578 l 0.01434,-0.01434 c 0.01434,0.1720752 0.05736,0.3441503 0.114717,0.5449047 l 0.172075,0.6022632 0.602263,1.92150614 h 0.74566 z m 3.355466,3.54188084 V -2.2926016 c 0,-0.8173571 -0.616603,-1.3622619 -1.405281,-1.3622619 -0.501886,0 -0.889055,0.1003772 -1.333582,0.3441504 l 0.04302,0.5735839 c 0.272452,-0.1720751 0.659621,-0.4158483 1.290563,-0.4158483 0.344151,0 0.71698,0.2724524 0.71698,0.8603759 v 0.3298108 c -1.175847,0.028679 -2.337354,0.2867919 -2.337354,1.01811145 0,0.40150875 0.258113,1.03245108 0.960753,1.03245108 0.34415,0 0.975093,-0.07169799 1.405281,-0.38716915 V 0.00173414 Z M 44.657948,-1.1310941 c 0,0.15773555 0,0.37282953 -0.272452,0.53056511 -0.258113,0.14339598 -0.573584,0.15773558 -0.659622,0.15773558 -0.444527,0 -0.774338,-0.20075438 -0.774338,-0.50188594 0,-0.51622555 1.347922,-0.55924435 1.706412,-0.57358395 z m 3.810749,-1.892827 v -0.5879236 c -0.673962,0 -1.161508,0.3298108 -1.476979,0.7456592 v -0.7313196 h -0.616603 v 3.59923924 h 0.673961 V -1.6903385 c 0,-0.8603759 0.71698,-1.3335826 1.419621,-1.3335826 z m 3.638673,1.2762242 c 0,-0.3584899 -0.04302,-0.9033947 -0.35849,-1.3479222 -0.286792,-0.4158484 -0.759999,-0.5592444 -1.147168,-0.5592444 -0.975093,0 -1.735092,0.8460364 -1.735092,1.8641478 0,1.01811153 0.803018,1.87848743 1.849809,1.87848743 0.473206,0 0.946413,-0.14339598 1.347922,-0.38716915 l -0.04302,-0.57358394 c -0.444527,0.32981076 -0.946413,0.43018795 -1.290564,0.43018795 -0.6883,0 -1.218866,-0.57358389 -1.247545,-1.30490349 z m -0.487547,-0.4732067 h -2.079241 c 0.186414,-0.6452819 0.659621,-0.9177343 1.06113,-0.9177343 0.34415,0 0.860376,0.1720752 1.018111,0.9177343 z m 0,0"
       style="fill:#000000;fill-opacity:1;fill-rule:nonzero;stroke:none"
       aria-label="Morehardware"
       transform="matrix(0,-1.08964,1.08964,0,13.259829,148.98531)" />
    <path
       id="path11"
       d="M 6.5385438,6.0193275e-4 V -5.534483 H 5.5634511 L 4.4449625,-2.7669406 C 4.3445853,-2.5231674 3.7710013,-1.1178867 3.6849638,-0.78807598 3.6276054,-1.0175096 3.2547758,-1.9352439 3.1830778,-2.1503378 L 1.8064764,-5.534483 H 0.83138368 V 6.0193275e-4 H 1.5053448 V -4.8892011 h 0.01434 c 0.057358,0.2724523 0.4732067,1.319243 0.5162255,1.4196202 L 3.369493,-0.17147325 H 4.0004349 L 5.176282,-3.0967513 c 0,0 0.5592443,-1.3622619 0.6883007,-1.8067894 h 0.01434 V 6.0193275e-4 Z M 11.374573,-1.7488291 c 0,-1.0467907 -0.831696,-1.9071666 -1.878487,-1.9071666 -1.0324511,0 -1.8641478,0.8603759 -1.8641478,1.9071666 0,1.01811151 0.8460363,1.83546862 1.8641478,1.83546862 1.046791,0 1.878487,-0.81735711 1.878487,-1.83546862 z m -0.6883,-0.086038 c 0,0.91773434 -0.573584,1.36226189 -1.190187,1.36226189 -0.6309423,0 -1.1758471,-0.45886715 -1.1758471,-1.36226189 0,-0.9033947 0.5879236,-1.3049034 1.1758471,-1.3049034 0.602263,0 1.190187,0.4158483 1.190187,1.3049034 z m 3.463013,-1.1901866 v -0.5879236 c -0.673961,0 -1.161508,0.3298108 -1.476979,0.7456592 V -3.5986373 H 12.055704 V 6.0193275e-4 h 0.673961 V -1.6914707 c 0,-0.8603759 0.71698,-1.3335826 1.419621,-1.333583 z m 3.638673,1.2762242 c 0,-0.3584899 -0.04302,-0.9033947 -0.35849,-1.3479222 -0.286792,-0.4158484 -0.759999,-0.5592444 -1.147168,-0.5592444 -0.975093,0 -1.735091,0.8460363 -1.735091,1.8641478 0,1.01811152 0.803017,1.87848742 1.849808,1.87848742 0.473206,0 0.946413,-0.14339598 1.347922,-0.38716915 l -0.04302,-0.57358394 c -0.444527,0.32981076 -0.946413,0.43018795 -1.290564,0.43018795 -0.6883,0 -1.218866,-0.57358398 -1.247545,-1.30490348 z m -0.487547,-0.4732067 h -2.079241 c 0.186414,-0.6452819 0.659621,-0.9177343 1.06113,-0.9177343 0.34415,0 0.860376,0.1720752 1.018111,0.9177343 z m 6.610555,1.1901866 c 0,-0.1433959 -0.01434,-0.4588671 -0.35849,-0.7599987 -0.286792,-0.2581127 -0.573584,-0.3154711 -0.960753,-0.3871691 -0.473206,-0.086038 -0.831696,-0.1577356 -0.831696,-0.5162256 0,-0.4588671 0.573583,-0.4588671 0.70264,-0.4588671 0.444527,0 0.803017,0.1003772 1.204526,0.3154711 l 0.100377,-0.5735839 c -0.544904,-0.2294336 -0.946413,-0.2437732 -1.233205,-0.2437732 -0.200755,0 -1.405281,0 -1.405281,1.0611303 0,0.3728296 0.215094,0.573584 0.315471,0.6739611 0.286792,0.2724524 0.616603,0.3441504 1.032451,0.4158484 0.38717,0.071698 0.817358,0.1577356 0.817358,0.54490474 0,0.50188594 -0.673962,0.50188594 -0.774339,0.50188594 -0.516225,0 -0.989432,-0.18641478 -1.319243,-0.41584835 l -0.100377,0.60226313 c 0.272452,0.14339599 0.745659,0.35848996 1.41962,0.35848996 0.35849,0 0.702641,-0.05735839 1.003772,-0.27245237 0.286792,-0.22943357 0.387169,-0.57358393 0.387169,-0.84603635 z m 4.176408,-0.7169799 c 0,-1.0467907 -0.831696,-1.9071666 -1.878487,-1.9071666 -1.032451,0 -1.864148,0.8603759 -1.864148,1.9071666 0,1.01811151 0.846036,1.83546862 1.864148,1.83546862 1.046791,0 1.878487,-0.81735711 1.878487,-1.83546862 z m -0.6883,-0.086038 c 0,0.91773434 -0.573584,1.36226189 -1.190187,1.36226189 -0.630942,0 -1.175847,-0.45886715 -1.175847,-1.36226189 0,-0.9033947 0.587923,-1.3049034 1.175847,-1.3049034 0.602263,0 1.190187,0.4158483 1.190187,1.3049034 z m 3.875276,-3.1116928 V -5.534483 c -0.215094,-0.043019 -0.458867,-0.071698 -0.673961,-0.071698 -0.817357,0 -1.41962,0.5879235 -1.41962,1.3766014 v 0.6883007 h -0.616603 v 0.501886 H 29.18077 V 6.0193275e-4 h 0.673961 V -3.0393929 h 0.903395 v -0.501886 h -0.932074 v -0.9177343 c 0,-0.5449047 0.501886,-0.6309423 0.759998,-0.6309423 0.172076,0 0.38717,0.028679 0.688301,0.1433952 z m 2.473581,4.73206746 -0.143396,-0.51622555 c -0.258113,0.20075438 -0.530565,0.25811278 -0.759999,0.25811278 -0.329811,0 -0.415848,-0.32981077 -0.415848,-0.68830069 v -1.8784874 h 1.175847 v -0.501886 h -1.175847 v -1.0037719 h -0.616603 v 1.0037719 h -0.731319 v 0.501886 h 0.70264 v 2.0218833 c 0,0.53056519 0.129056,1.10414912 0.71698,1.10414912 0.573584,0 1.003772,-0.18641478 1.247545,-0.30113156 z m 5.660556,-3.32678686 h -0.630942 l -0.759999,2.394713 c -0.05736,0.24377313 -0.143396,0.48754631 -0.172075,0.67396109 -0.05736,-0.32981077 -0.329811,-1.19018669 -0.34415,-1.24754509 l -0.587924,-1.821129 h -0.616603 c -0.229433,0.6883008 -0.817357,2.466411 -0.889055,3.05433449 -0.0717,-0.55924439 -0.659621,-2.32301499 -0.788678,-2.71018409 -0.05736,-0.1864148 -0.05736,-0.2007544 -0.100377,-0.3441504 h -0.659621 l 1.175847,3.54188083275 h 0.659621 L 36.196418,-1.5480747 c 0.129057,-0.3871692 0.35849,-1.1471679 0.401509,-1.5056578 l 0.01434,-0.01434 c 0.01434,0.1720752 0.05736,0.3441503 0.114716,0.5449047 l 0.172076,0.6022631 0.602263,1.92150623275 h 0.745659 z M 42.763954,6.0193275e-4 V -2.2937338 c 0,-0.8173571 -0.616602,-1.3622619 -1.40528,-1.3622619 -0.501886,0 -0.889055,0.1003772 -1.333583,0.3441504 l 0.04302,0.5735839 c 0.272452,-0.1720751 0.659621,-0.4158483 1.290564,-0.4158483 0.34415,0 0.71698,0.2724524 0.71698,0.8603759 v 0.3298108 c -1.175847,0.028679 -2.337355,0.2867919 -2.337355,1.01811144 0,0.40150875 0.258113,1.03245108 0.960753,1.03245108 0.34415,0 0.975093,-0.07169799 1.405281,-0.38716915 V 6.0193275e-4 Z M 42.075654,-1.1322263 c 0,0.15773554 0,0.37282952 -0.272453,0.5305651 -0.258113,0.14339598 -0.573584,0.15773558 -0.659621,0.15773558 -0.444528,0 -0.774339,-0.20075438 -0.774339,-0.50188594 0,-0.51622554 1.347923,-0.55924434 1.706413,-0.57358394 z m 3.810748,-1.892827 v -0.5879236 c -0.673961,0 -1.161508,0.3298108 -1.476979,0.7456592 V -3.5986373 H 43.79282 V 6.0193275e-4 h 0.673962 V -1.6914707 c 0,-0.8603759 0.71698,-1.3335826 1.41962,-1.3335826 z m 3.638673,1.2762242 c 0,-0.3584899 -0.04302,-0.9033947 -0.35849,-1.3479222 -0.286792,-0.4158484 -0.759999,-0.5592444 -1.147168,-0.5592444 -0.975093,0 -1.735091,0.8460363 -1.735091,1.8641478 0,1.01811152 0.803017,1.87848742 1.849808,1.87848742 0.473207,0 0.946413,-0.14339598 1.347922,-0.38716915 l -0.04302,-0.57358394 c -0.444527,0.32981076 -0.946413,0.43018795 -1.290564,0.43018795 -0.6883,0 -1.218865,-0.57358398 -1.247545,-1.30490348 z m -0.487546,-0.4732067 h -2.079242 c 0.186415,-0.6452819 0.659621,-0.9177343 1.06113,-0.9177343 0.34415,0 0.860376,0.1720752 1.018112,0.9177343 z m 0,0"
       style="fill:#000000;fill-opacity:1;fill-rule:nonzero;stroke:none"
       aria-label="Moresoftware"
       transform="matrix(0,-1.08964,1.08964,0,13.347,65.64419)" />
  </g>
</svg>
