<?xml version="1.0" encoding="UTF-8" standalone="no"?>
<!-- Created with Inkscape (http://www.inkscape.org/) -->

<svg
   version="1.1"
   id="svg1"
   width="376.70932"
   height="132.664"
   viewBox="0 0 376.70932 132.664"
   xmlns="http://www.w3.org/2000/svg"
   xmlns:svg="http://www.w3.org/2000/svg">
  <defs
     id="defs1" />
  <g
     id="g1">
    <path
       id="path1"
       d="M 0,0 H 233.40556"
       style="fill:none;stroke:#000000;stroke-width:0.3985;stroke-linecap:butt;stroke-linejoin:miter;stroke-miterlimit:10;stroke-dasharray:none;stroke-opacity:1"
       transform="matrix(1.3333333,0,0,-1.3333333,9.3373333,113.704)" />
    <path
       id="path2"
       d="M -2.07224,2.39104 C -1.69365,0.95639 -0.84999,0.27895 0,0 -0.84999,-0.27895 -1.69365,-0.95639 -2.07224,-2.39104"
       style="fill:none;stroke:#000000;stroke-width:0.3985;stroke-linecap:round;stroke-linejoin:round;stroke-miterlimit:10;stroke-dasharray:none;stroke-opacity:1"
       transform="matrix(1.3333333,0,0,-1.3333333,320.81041,113.704)" />
    <path
       id="path3"
       d="m 5.3439687,-4.6158359 c -0.011719,-1.2773438 -0.890625,-2.0273438 -2.390625,-2.0273438 -1.4414062,0 -2.32031245,0.7382813 -2.32031245,1.921875 0,0.796875 0.42187495,1.3007813 1.27734375,1.5234375 l 1.6171875,0.4335938 c 0.8320312,0.2109375 1.2070312,0.5390625 1.2070312,1.0546875 0,0.3515625 -0.1875,0.703125 -0.46875,0.90234371 -0.2578125,0.17578125 -0.6679687,0.28125 -1.1953125,0.28125 -0.7148437,0 -1.1953125,-0.17578125 -1.5117187,-0.55078121 C 1.3127187,-1.3580234 1.20725,-1.6744297 1.2189687,-2.0728672 H 0.4338125 c 0,0.5976563 0.1171875,0.984375 0.38671875,1.34765626 0.44531245,0.609375 1.19531245,0.9375 2.19140625,0.9375 0.7851562,0 1.4179687,-0.1875 1.8398437,-0.50390625 0.4335938,-0.3515625 0.7148438,-0.93750001 0.7148438,-1.50000001 0,-0.8085937 -0.5039063,-1.3945312 -1.3945313,-1.640625 l -1.640625,-0.4335937 c -0.7851562,-0.2226563 -1.0664062,-0.46875 -1.0664062,-0.9726563 0,-0.6679687 0.5742187,-1.1015625 1.453125,-1.1015625 1.0429687,0 1.6289062,0.46875 1.640625,1.3242188 z m 5.2294923,2.5195312 c 0,-0.7148437 -0.04687,-1.1484375 -0.1875,-1.5 -0.304688,-0.7734375 -1.0195313,-1.2304687 -1.8984376,-1.2304687 -1.3007812,0 -2.1445312,0.9960937 -2.1445312,2.5429687 0,1.54687501 0.8085937,2.49609376 2.1328125,2.49609376 1.0664062,0 1.8164063,-0.609375 2.0039063,-1.64062496 H 9.7297109 c -0.2109375,0.62109371 -0.6328125,0.94921871 -1.2304687,0.94921871 -0.4804688,0 -0.8789063,-0.22265625 -1.125,-0.60937501 -0.1875,-0.2695312 -0.2460938,-0.5390625 -0.2578125,-1.0078125 z m -3.4335938,-0.609375 c 0.058594,-0.8671875 0.5859375,-1.4296875 1.3359375,-1.4296875 0.7382812,0 1.3007812,0.609375 1.3007812,1.3710938 0,0.023437 0,0.035156 0,0.058594 z m 8.0449218,-0.4101562 c -0.03516,-0.4570313 -0.128906,-0.75 -0.304687,-1.0195313 -0.328125,-0.4335937 -0.890625,-0.6914062 -1.546875,-0.6914062 -1.265625,0 -2.085938,0.9960937 -2.085938,2.5546875 0,1.52343746 0.808594,2.48437496 2.074219,2.48437496 1.125,0 1.828125,-0.6796875 1.921875,-1.82812496 h -0.75 c -0.128906,0.76171871 -0.515625,1.13671871 -1.148438,1.13671871 -0.832031,0 -1.324218,-0.67968751 -1.324218,-1.79296871 0,-1.171875 0.492187,-1.8632813 1.300781,-1.8632813 0.632812,0 1.019531,0.3632813 1.113281,1.0195313 z m 2.701172,-1.7109375 c -1.3125,0 -2.109375,0.9375 -2.109375,2.5195312 0,1.57031251 0.785156,2.51953126 2.121094,2.51953126 1.3125,0 2.121093,-0.94921875 2.121093,-2.48437496 0,-1.6289063 -0.773437,-2.5546875 -2.132812,-2.5546875 z m 0.01172,0.6914062 c 0.84375,0 1.347656,0.6796875 1.347656,1.8515625 0,1.1015625 -0.527344,1.80468751 -1.347656,1.80468751 -0.832032,0 -1.347657,-0.69140621 -1.347657,-1.82812501 0,-1.1367187 0.515625,-1.828125 1.347657,-1.828125 z m 3.169922,-0.5625 v 4.69921876 h 0.75 V -2.5884922 c 0,-0.9609375 0.503906,-1.5820312 1.265625,-1.5820312 0.597656,0 0.972656,0.3515625 0.972656,0.9140625 v 3.25781246 h 0.75 V -3.5494297 c 0,-0.7734375 -0.585938,-1.2773437 -1.488281,-1.2773437 -0.703125,0 -1.148438,0.2695312 -1.570313,0.9140625 v -0.7851563 z m 8.794921,-1.8398437 h -0.75 v 2.4375 c -0.316406,-0.4804688 -0.808593,-0.7265625 -1.441406,-0.7265625 -1.21875,0 -2.015625,0.9726562 -2.015625,2.4726562 0,1.58203126 0.773438,2.56640626 2.039063,2.56640626 0.644531,0 1.101562,-0.24609375 1.5,-0.83203125 v 0.62109375 h 0.667968 z m -2.0625,2.4023437 c 0.808594,0 1.3125,0.7265625 1.3125,1.8398438 0,1.0898437 -0.515625,1.80468746 -1.3125,1.80468746 -0.820312,0 -1.371093,-0.72656246 -1.371093,-1.81640626 0,-1.1015625 0.550781,-1.828125 1.371093,-1.828125 z m 6.530274,0.75 c -0.01172,-0.9257812 -0.621094,-1.4414062 -1.699219,-1.4414062 -1.101562,0 -1.804687,0.5625 -1.804687,1.4296875 0,0.7382812 0.375,1.0898437 1.488281,1.359375 l 0.703125,0.1640625 c 0.515625,0.1289062 0.726562,0.3164062 0.726562,0.65625 0,0.43359371 -0.445312,0.73828121 -1.101562,0.73828121 -0.398438,0 -0.738281,-0.1171875 -0.925781,-0.31640625 -0.117188,-0.140625 -0.175782,-0.26953126 -0.222657,-0.59765626 h -0.785156 c 0.03516,1.07812501 0.644531,1.60546876 1.875,1.60546876 1.183594,0 1.933594,-0.5859375 1.933594,-1.48828126 0,-0.703125 -0.398438,-1.0898437 -1.324219,-1.3125 l -0.714844,-0.1757812 c -0.609375,-0.140625 -0.867187,-0.3398438 -0.867187,-0.6679688 0,-0.4335937 0.375,-0.703125 0.984375,-0.703125 0.609375,0 0.925781,0.2578125 0.949219,0.75 z m 0,0"
       style="fill:#000000;fill-opacity:1;fill-rule:nonzero;stroke:none"
       aria-label="Seconds"
       transform="matrix(1.3333333,0,0,1.3333333,325.76533,117.97867)" />
    <path
       id="path4"
       d="M 0,2.26787 V -2.26787"
       style="fill:none;stroke:#000000;stroke-width:0.3985;stroke-linecap:butt;stroke-linejoin:miter;stroke-miterlimit:10;stroke-dasharray:none;stroke-opacity:1"
       transform="matrix(1.3333333,0,0,-1.3333333,9.3373333,113.704)" />
    <path
       id="path5"
       d="m 1.9231406,-4.9451562 c -0.46875,0 -0.8789062,0.1992187 -1.13671873,0.5507812 -0.328125,0.421875 -0.48046875,1.0898438 -0.48046875,2.0039063 0,1.66406245 0.55078125,2.55468745 1.61718748,2.55468745 1.0429688,0 1.6171875,-0.890625 1.6171875,-2.51953125 0,-0.9609375 -0.1523437,-1.59375 -0.4804687,-2.0390625 C 2.8020469,-4.7459375 2.3801719,-4.9451562 1.9231406,-4.9451562 Z m 0,0.5507812 c 0.65625,0 0.984375,0.6679688 0.984375,1.9921875 0,1.3945313 -0.3164062,2.05078125 -1.0078125,2.05078125 -0.6445312,0 -0.97265623,-0.67968745 -0.97265623,-2.02734375 0,-1.359375 0.32812503,-2.015625 0.99609373,-2.015625 z m 5.0126953,1.7578125 c -0.011719,-0.7148437 -0.4804687,-1.125 -1.3242187,-1.125 -0.8554688,0 -1.40625,0.4453125 -1.40625,1.1132813 0,0.5742187 0.2929687,0.84375 1.1601562,1.0546875 l 0.5390625,0.140625 c 0.4101563,0.09375 0.5625,0.234375 0.5625,0.5039062 0,0.33984375 -0.3398437,0.57421875 -0.84375,0.57421875 -0.3164062,0 -0.5859375,-0.09375 -0.7265625,-0.24609375 -0.09375,-0.10546875 -0.1289062,-0.2109375 -0.1640625,-0.46875 H 4.1116172 c 0.035156,0.84375 0.5039062,1.25390625 1.4648437,1.25390625 0.9140625,0 1.5,-0.45703125 1.5,-1.16015625 0,-0.5390625 -0.3046875,-0.84375 -1.03125,-1.0195312 l -0.5625,-0.1289063 c -0.46875,-0.1171875 -0.6679687,-0.2695312 -0.6679687,-0.5273437 0,-0.328125 0.2929687,-0.5507813 0.7734375,-0.5507813 0.46875,0 0.7148437,0.1992188 0.7265625,0.5859375 z m 0,0"
       style="fill:#000000;fill-opacity:1;fill-rule:nonzero;stroke:none"
       aria-label="0s"
       transform="matrix(1.3333333,0,0,1.3333333,4.428,128.04667)" />
    <path
       id="path6"
       d="M 42.50981,2.26787 V -2.26787"
       style="fill:none;stroke:#000000;stroke-width:0.3985;stroke-linecap:butt;stroke-linejoin:miter;stroke-miterlimit:10;stroke-dasharray:none;stroke-opacity:1"
       transform="matrix(1.3333333,0,0,-1.3333333,9.3373333,113.704)" />
    <path
       id="path7"
       d="M 1.8046328,-3.5154687 V 1.5625e-4 h 0.609375 V -4.9451562 H 2.0155703 c -0.2109375,0.7617187 -0.3515625,0.8671875 -1.30078124,0.984375 v 0.4453125 z m 2.5664063,-0.140625 V 1.5625e-4 H 4.9569766 V -2.2967187 c 0,-0.5273438 0.375,-0.9492188 0.8554687,-0.9492188 0.4335938,0 0.6796875,0.2578125 0.6796875,0.7265625 V 1.5625e-4 H 7.0780703 V -2.2967187 c 0,-0.5273438 0.375,-0.9492188 0.8554688,-0.9492188 0.421875,0 0.6679687,0.2695313 0.6679687,0.7265625 V 1.5625e-4 H 9.1874453 V -2.7420312 c 0,-0.65625 -0.375,-1.0195313 -1.0546875,-1.0195313 -0.4921875,0 -0.7851562,0.1523438 -1.125,0.5625 -0.2109375,-0.3867187 -0.5039062,-0.5625 -0.984375,-0.5625 -0.4804687,0 -0.8085937,0.1875 -1.125,0.6210938 v -0.515625 z m 0,0"
       style="fill:#000000;fill-opacity:1;fill-rule:nonzero;stroke:none"
       aria-label="1m"
       transform="matrix(1.3333333,0,0,1.3333333,59.558667,128.04667)" />
    <path
       id="path8"
       d="M 85.01965,2.26787 V -2.26787"
       style="fill:none;stroke:#000000;stroke-width:0.3985;stroke-linecap:butt;stroke-linejoin:miter;stroke-miterlimit:10;stroke-dasharray:none;stroke-opacity:1"
       transform="matrix(1.3333333,0,0,-1.3333333,9.3373333,113.704)" />
    <path
       id="path9"
       d="M 3.5280547,-0.60921875 H 0.92649219 C 0.98508594,-1.0076562 1.2194609,-1.2654687 1.8171172,-1.62875 l 0.703125,-0.375 c 0.6914062,-0.375 1.0429687,-0.8789062 1.0429687,-1.4882812 0,-0.4101563 -0.1640625,-0.796875 -0.4570312,-1.0664063 -0.2929688,-0.2578125 -0.65625,-0.3867187 -1.125,-0.3867187 -0.6328125,0 -1.08984376,0.2226562 -1.37109376,0.6445312 -0.17578125,0.2578125 -0.24609375,0.5742188 -0.2578125,1.078125 h 0.609375 c 0.0234375,-0.3398437 0.0585938,-0.5390625 0.15234376,-0.703125 0.1523437,-0.3046875 0.4804687,-0.4804687 0.84375,-0.4804687 0.5625,0 0.9726562,0.3984375 0.9726562,0.9257812 0,0.3867188 -0.2226562,0.7265625 -0.6679687,0.9726563 L 1.6296172,-2.144375 C 0.59836719,-1.5584375 0.29367969,-1.0896875 0.23508594,1.5625e-4 H 3.5280547 Z M 4.368875,-3.6560937 V 1.5625e-4 H 4.9548125 V -2.2967187 c 0,-0.5273438 0.375,-0.9492188 0.8554688,-0.9492188 0.4335937,0 0.6796875,0.2578125 0.6796875,0.7265625 V 1.5625e-4 H 7.0759063 V -2.2967187 c 0,-0.5273438 0.375,-0.9492188 0.8554687,-0.9492188 0.421875,0 0.6679688,0.2695313 0.6679688,0.7265625 V 1.5625e-4 H 9.1852813 V -2.7420312 c 0,-0.65625 -0.375,-1.0195313 -1.0546875,-1.0195313 -0.4921875,0 -0.7851563,0.1523438 -1.125,0.5625 -0.2109375,-0.3867187 -0.5039063,-0.5625 -0.984375,-0.5625 -0.4804688,0 -0.8085938,0.1875 -1.125,0.6210938 v -0.515625 z m 0,0"
       style="fill:#000000;fill-opacity:1;fill-rule:nonzero;stroke:none"
       aria-label="2m"
       transform="matrix(1.3333333,0,0,1.3333333,116.23733,128.04667)" />
    <path
       id="path10"
       d="M 127.52948,2.26787 V -2.26787"
       style="fill:none;stroke:#000000;stroke-width:0.3985;stroke-linecap:butt;stroke-linejoin:miter;stroke-miterlimit:10;stroke-dasharray:none;stroke-opacity:1"
       transform="matrix(1.3333333,0,0,-1.3333333,9.3373333,113.704)" />
    <path
       id="path11"
       d="m 1.5337031,-2.2615625 h 0.082031 l 0.2578125,-0.011719 c 0.6796875,0 1.03125,0.3046875 1.03125,0.9023437 0,0.62109375 -0.3867188,0.984375 -1.03125,0.984375 -0.6679688,0 -0.99609378,-0.328125 -1.04296878,-1.0546875 h -0.609375 c 0.0234375,0.3984375 0.09375,0.65625 0.2109375,0.87890625 0.2578125,0.48046875 0.74999998,0.7265625 1.41796878,0.7265625 1.0195312,0 1.6757812,-0.609375 1.6757812,-1.54687495 0,-0.6210938 -0.2460937,-0.9726563 -0.8320312,-1.171875 0.4570312,-0.1875 0.6914062,-0.5390625 0.6914062,-1.03125 0,-0.84375 -0.5742187,-1.359375 -1.5117187,-1.359375 -0.99609378,0 -1.52343753,0.5507812 -1.54687503,1.59375 h 0.609375 c 0.011719,-0.2929685 0.0351565,-0.457031 0.11718783,-0.6210935 0.140625,-0.2695312 0.4453125,-0.4335937 0.8320312,-0.4335937 0.5390625,0 0.8671875,0.3164062 0.8671875,0.84375 0,0.3515625 -0.1289062,0.5625 -0.3984375,0.6679687 -0.1640625,0.070312 -0.3867187,0.09375 -0.8203125,0.1054688 z M 4.3696406,-3.6560937 V 1.5625e-4 H 4.9555781 V -2.2967187 c 0,-0.5273438 0.375,-0.9492188 0.8554688,-0.9492188 0.4335937,0 0.6796875,0.2578125 0.6796875,0.7265625 V 1.5625e-4 H 7.0766719 V -2.2967187 c 0,-0.5273438 0.375,-0.9492188 0.8554687,-0.9492188 0.421875,0 0.6679688,0.2695313 0.6679688,0.7265625 V 1.5625e-4 H 9.1860469 V -2.7420312 c 0,-0.65625 -0.375,-1.0195313 -1.0546875,-1.0195313 -0.4921875,0 -0.7851563,0.1523438 -1.125,0.5625 -0.2109375,-0.3867187 -0.5039063,-0.5625 -0.984375,-0.5625 -0.4804688,0 -0.8085938,0.1875 -1.125,0.6210938 v -0.515625 z m 0,0"
       style="fill:#000000;fill-opacity:1;fill-rule:nonzero;stroke:none"
       aria-label="3m"
       transform="matrix(1.3333333,0,0,1.3333333,172.916,128.04667)" />
    <path
       id="path12"
       d="M 170.03932,2.26787 V -2.26787"
       style="fill:none;stroke:#000000;stroke-width:0.3985;stroke-linecap:butt;stroke-linejoin:miter;stroke-miterlimit:10;stroke-dasharray:none;stroke-opacity:1"
       transform="matrix(1.3333333,0,0,-1.3333333,9.3373333,113.704)" />
    <path
       id="path13"
       d="M 2.2863984,-1.1834375 V 1.5625e-4 h 0.609375 V -1.1834375 H 3.6223359 V -1.7342187 H 2.8957734 V -4.9451562 H 2.4387422 l -2.23828126,3.1171875 v 0.6445312 z m 0,-0.5507812 H 0.72780469 L 2.2863984,-3.9021875 Z m 2.0830079,-1.921875 V 1.5625e-4 H 4.9553438 V -2.2967187 c 0,-0.5273438 0.375,-0.9492188 0.8554687,-0.9492188 0.4335938,0 0.6796875,0.2578125 0.6796875,0.7265625 V 1.5625e-4 H 7.0764375 V -2.2967187 c 0,-0.5273438 0.375,-0.9492188 0.8554688,-0.9492188 0.421875,0 0.6679687,0.2695313 0.6679687,0.7265625 V 1.5625e-4 H 9.1858125 V -2.7420312 c 0,-0.65625 -0.375,-1.0195313 -1.0546875,-1.0195313 -0.4921875,0 -0.7851562,0.1523438 -1.125,0.5625 -0.2109375,-0.3867187 -0.5039062,-0.5625 -0.984375,-0.5625 -0.4804687,0 -0.8085937,0.1875 -1.125,0.6210938 v -0.515625 z m 0,0"
       style="fill:#000000;fill-opacity:1;fill-rule:nonzero;stroke:none"
       aria-label="4m"
       transform="matrix(1.3333333,0,0,1.3333333,229.596,128.04667)" />
    <path
       id="path14"
       d="M 212.54916,2.26787 V -2.26787"
       style="fill:none;stroke:#000000;stroke-width:0.3985;stroke-linecap:butt;stroke-linejoin:miter;stroke-miterlimit:10;stroke-dasharray:none;stroke-opacity:1"
       transform="matrix(1.3333333,0,0,-1.3333333,9.3373333,113.704)" />
    <path
       id="path15"
       d="M 3.3154844,-4.9444609 H 0.76079688 l -0.36328125,2.6953125 h 0.5625 C 1.2529844,-2.5889922 1.4873594,-2.7061797 1.8623594,-2.7061797 c 0.6679687,0 1.0898437,0.4453125 1.0898437,1.1835938 0,0.70312496 -0.4101562,1.13671871 -1.0898437,1.13671871 -0.5273438,0 -0.8554688,-0.26953125 -1.00781252,-0.83203121 h -0.609375 c 0.0820313,0.41015621 0.15234375,0.60937496 0.29296875,0.78515621 0.28125,0.375 0.78515627,0.59765625 1.34765627,0.59765625 0.9960937,0 1.6875,-0.7265625 1.6875,-1.76953126 0,-0.984375 -0.6445313,-1.6523437 -1.59375,-1.6523437 -0.3515625,0 -0.6328125,0.09375 -0.9140625,0.3046875 l 0.1992187,-1.3828125 h 2.0507813 z m 1.0546875,1.2890625 V 8.515625e-4 H 4.9561094 V -2.2960234 c 0,-0.5273438 0.375,-0.9492188 0.8554687,-0.9492188 0.4335938,0 0.6796875,0.2578125 0.6796875,0.7265625 V 8.515625e-4 H 7.0772031 V -2.2960234 c 0,-0.5273438 0.375,-0.9492188 0.8554688,-0.9492188 0.421875,0 0.6679687,0.2695313 0.6679687,0.7265625 V 8.515625e-4 H 9.1865781 V -2.7413359 c 0,-0.65625 -0.375,-1.0195313 -1.0546875,-1.0195313 -0.4921875,0 -0.7851562,0.1523438 -1.125,0.5625 -0.2109375,-0.3867187 -0.5039062,-0.5625 -0.984375,-0.5625 -0.4804687,0 -0.8085937,0.1875 -1.125,0.6210938 v -0.515625 z m 0,0"
       style="fill:#000000;fill-opacity:1;fill-rule:nonzero;stroke:none"
       aria-label="5m"
       transform="matrix(1.3333333,0,0,1.3333333,286.27467,127.72933)" />
    <path
       id="path16"
       d="M 0.19925,22.67752 H 46.26282 V 45.35504 H 0.19925 Z"
       style="fill:#fce4cc;fill-opacity:1;fill-rule:nonzero;stroke:#4c4c4c;stroke-width:0.3985;stroke-linecap:butt;stroke-linejoin:miter;stroke-miterlimit:10;stroke-dasharray:none;stroke-opacity:1"
       transform="matrix(1.3333333,0,0,-1.3333333,9.3373333,113.704)" />
    <path
       id="path17"
       d="M 0.91533594,-1.5363203 H 2.0637734 c 0.28125,0 0.5039063,-0.09375 0.6914063,-0.2578125 0.2226562,-0.1992188 0.3164062,-0.4335938 0.3164062,-0.7734375 0,-0.6796875 -0.3984375,-1.0664063 -1.1132812,-1.0664063 H 0.45830469 v 3.63281254 h 0.45703125 z m 0,-0.4101563 V -3.2238203 H 1.8879922 c 0.4335937,0 0.703125,0.234375 0.703125,0.6328125 0,0.3984375 -0.2695313,0.6445312 -0.703125,0.6445312 z M 3.6633828,-2.6144453 v 2.61328124 h 0.421875 V -1.3605391 c 0,-0.3632812 0.09375,-0.609375 0.2929688,-0.7617187 0.1289062,-0.09375 0.2578125,-0.1171875 0.5390625,-0.1289063 v -0.421875 c -0.070312,-0.011719 -0.09375,-0.011719 -0.1523438,-0.011719 -0.2695312,0 -0.4804687,0.1640625 -0.7148437,0.5507812 v -0.4804687 z m 2.6777344,-0.070312 c -0.7382813,0 -1.1835938,0.5273437 -1.1835938,1.3945312 0,0.87890629 0.4453125,1.40625004 1.1835938,1.40625004 0.7382812,0 1.1835937,-0.52734375 1.1835937,-1.38281254 0,-0.9023437 -0.4335937,-1.4179687 -1.1835937,-1.4179687 z m 0,0.3867187 c 0.46875,0 0.75,0.375 0.75,1.03125 0,0.60937504 -0.2929688,0.99609379 -0.75,0.99609379 -0.4570313,0 -0.75,-0.38671875 -0.75,-1.01953129 0,-0.6210937 0.2929687,-1.0078125 0.75,-1.0078125 z M 9.0950234,-0.00116406 10.102836,-2.6144453 H 9.6340859 L 8.8958047,-0.49335156 8.1926797,-2.6144453 h -0.46875 l 0.9140625,2.61328124 z M 10.917289,-2.6144453 h -0.421875 v 2.61328124 h 0.421875 z m 0,-1.0195313 h -0.421875 v 0.5273438 h 0.421875 z m 2.53418,1.7460938 c 0,-0.5039063 -0.339844,-0.796875 -0.949219,-0.796875 -0.597656,0 -0.996094,0.3164062 -0.996094,0.796875 0,0.4101562 0.210938,0.5976562 0.832032,0.75 l 0.386718,0.09375 c 0.28125,0.0703125 0.398438,0.17578124 0.398438,0.36328124 0,0.24609375 -0.246094,0.41015625 -0.609375,0.41015625 -0.222656,0 -0.410156,-0.0585938 -0.515625,-0.17578125 -0.05859,-0.0703125 -0.09375,-0.15234375 -0.117188,-0.328125 h -0.445312 c 0.02344,0.59765625 0.363281,0.890625 1.042969,0.890625 0.65625,0 1.078125,-0.328125 1.078125,-0.83203125 0,-0.38671879 -0.222657,-0.59765629 -0.738282,-0.72656249 l -0.398437,-0.09375 c -0.339844,-0.082031 -0.480469,-0.1875 -0.480469,-0.375 0,-0.234375 0.210938,-0.3867188 0.550781,-0.3867188 0.339844,0 0.515625,0.140625 0.527344,0.4101563 z m 1.060547,-0.7265625 h -0.421875 v 2.61328124 h 0.421875 z m 0,-1.0195313 h -0.421875 v 0.5273438 h 0.421875 z m 1.716796,0.9492188 c -0.738281,0 -1.183593,0.5273437 -1.183593,1.3945312 0,0.87890629 0.445312,1.40625004 1.183593,1.40625004 0.738282,0 1.183594,-0.52734375 1.183594,-1.38281254 0,-0.9023437 -0.433594,-1.4179687 -1.183594,-1.4179687 z m 0,0.3867187 c 0.46875,0 0.75,0.375 0.75,1.03125 0,0.60937504 -0.292968,0.99609379 -0.75,0.99609379 -0.457031,0 -0.749999,-0.38671875 -0.749999,-1.01953129 0,-0.6210937 0.292968,-1.0078125 0.749999,-1.0078125 z m 1.760743,-0.3164062 v 2.61328124 h 0.410156 V -1.4425703 c 0,-0.5273438 0.28125,-0.8789063 0.714844,-0.8789063 0.328125,0 0.539062,0.1992188 0.539062,0.515625 v 1.80468754 h 0.410156 V -1.9699141 c 0,-0.4335937 -0.328125,-0.7148437 -0.832031,-0.7148437 -0.386719,0 -0.632812,0.1523437 -0.867187,0.515625 v -0.4453125 z m 0,0"
       style="fill:#000000;fill-opacity:1;fill-rule:nonzero;stroke:none"
       aria-label="Provision"
       transform="matrix(1.3333333,0,0,1.3333333,26.705333,70.677333)" />
    <path
       id="path18"
       d="M 46.64996,22.67929 H 174.21063 V 45.35681 H 46.64996 Z"
       style="fill:#d1e6f3;fill-opacity:1;fill-rule:nonzero;stroke:#4c4c4c;stroke-width:0.3985;stroke-linecap:butt;stroke-linejoin:miter;stroke-miterlimit:10;stroke-dasharray:none;stroke-opacity:1"
       transform="matrix(1.3333333,0,0,-1.3333333,9.3373333,113.704)" />
    <path
       id="path19"
       d="M 2.3323281,8.59375e-5 3.3518594,-3.0467891 V 8.59375e-5 H 3.7854531 V -3.6327266 H 3.1526406 L 2.0979531,-0.46866406 1.0198281,-3.6327266 H 0.37529688 V 8.59375e-5 H 0.80889063 V -3.0467891 L 1.8401406,8.59375e-5 Z M 5.5081094,-2.6835078 c -0.7382813,0 -1.1835938,0.5273437 -1.1835938,1.3945312 0,0.87890629 0.4453125,1.40625004 1.1835938,1.40625004 0.7382812,0 1.1835937,-0.52734375 1.1835937,-1.38281254 0,-0.9023437 -0.4335937,-1.4179687 -1.1835937,-1.4179687 z m 0,0.3867187 c 0.46875,0 0.75,0.375 0.75,1.03125 0,0.60937504 -0.2929688,0.99609379 -0.75,0.99609379 -0.4570313,0 -0.75,-0.38671875 -0.75,-1.01953129 0,-0.6210937 0.2929687,-1.0078125 0.75,-1.0078125 z M 9.3811563,-3.6327266 H 8.971 v 1.3476563 C 8.7952188,-2.5428828 8.5139688,-2.6835078 8.174125,-2.6835078 c -0.6796875,0 -1.125,0.5390625 -1.125,1.3710937 0,0.87890629 0.4335938,1.42968754 1.1367188,1.42968754 0.3632812,0 0.609375,-0.140625 0.8320312,-0.45703125 V 8.59375e-5 h 0.3632813 z m -1.1367188,1.3359375 c 0.4453125,0 0.7265625,0.3984375 0.7265625,1.0195313 0,0.60937499 -0.2929687,1.00781249 -0.7265625,1.00781249 -0.4570312,0 -0.7617187,-0.41015625 -0.7617187,-1.01953129 0,-0.609375 0.3046875,-1.0078125 0.7617187,-1.0078125 z m 3.9990235,1.1367188 c 0,-0.3984375 -0.03516,-0.6445313 -0.105469,-0.8320313 -0.164062,-0.4335937 -0.5625,-0.6914062 -1.054687,-0.6914062 -0.726563,0 -1.1953128,0.5625 -1.1953128,1.4179687 0,0.85546879 0.4570308,1.38281254 1.1835938,1.38281254 0.597656,0 1.007812,-0.33984375 1.113281,-0.9140625 h -0.410156 c -0.117188,0.3515625 -0.351563,0.52734375 -0.691406,0.52734375 -0.257813,0 -0.480469,-0.1171875 -0.621094,-0.33984375 -0.105469,-0.15234375 -0.140625,-0.29296875 -0.140625,-0.55078124 z m -1.910156,-0.3398438 c 0.03516,-0.4921875 0.328125,-0.796875 0.75,-0.796875 0.398437,0 0.714843,0.3398438 0.714843,0.7617188 0,0.011719 0,0.023437 0,0.035156 z m 2.885742,-2.1328125 H 12.797172 V 8.59375e-5 h 0.421875 z M 15.389945,8.59375e-5 h 1.394532 c 0.914062,0 1.476562,-0.6914062475 1.476562,-1.8164062375 0,-1.125 -0.550781,-1.8164063 -1.476562,-1.8164063 H 15.389945 Z M 15.846977,-0.41007031 V -3.2225703 h 0.855468 c 0.726563,0 1.101563,0.4804687 1.101563,1.40625 0,0.91406249 -0.375,1.40624999 -1.101563,1.40624999 z m 4.051757,-2.27343749 c -0.738281,0 -1.183593,0.5273437 -1.183593,1.3945312 0,0.87890629 0.445312,1.40625004 1.183593,1.40625004 0.738282,0 1.183594,-0.52734375 1.183594,-1.38281254 0,-0.9023437 -0.433594,-1.4179687 -1.183594,-1.4179687 z m 0,0.3867187 c 0.46875,0 0.75,0.375 0.75,1.03125 0,0.60937504 -0.292968,0.99609379 -0.75,0.99609379 -0.457031,0 -0.75,-0.38671875 -0.75,-1.01953129 0,-0.6210937 0.292969,-1.0078125 0.75,-1.0078125 z M 23.994438,8.59375e-5 24.767875,-2.6131953 h -0.46875 L 23.7835,-0.57413281 23.267875,-2.6131953 h -0.503906 l -0.503906,2.03906249 -0.527344,-2.03906249 h -0.457031 l 0.75,2.6132812375 h 0.46875 L 22.998344,-2.0506953 23.525688,8.59375e-5 Z M 25.18975,-2.6131953 V 8.59375e-5 h 0.410156 V -1.4413203 c 0,-0.5273438 0.28125,-0.8789063 0.714844,-0.8789063 0.328125,0 0.539063,0.1992188 0.539063,0.515625 V 8.59375e-5 h 0.410156 V -1.9686641 c 0,-0.4335937 -0.328125,-0.7148437 -0.832031,-0.7148437 -0.386719,0 -0.632813,0.1523437 -0.867188,0.515625 v -0.4453125 z m 3.178711,-1.0195313 H 27.946586 V 8.59375e-5 h 0.421875 z m 1.702148,0.9492188 c -0.738281,0 -1.183593,0.5273437 -1.183593,1.3945312 0,0.87890629 0.445312,1.40625004 1.183593,1.40625004 0.738282,0 1.183594,-0.52734375 1.183594,-1.38281254 0,-0.9023437 -0.433594,-1.4179687 -1.183594,-1.4179687 z m 0,0.3867187 c 0.46875,0 0.75,0.375 0.75,1.03125 0,0.60937504 -0.292968,0.99609379 -0.75,0.99609379 -0.457031,0 -0.75,-0.38671875 -0.75,-1.01953129 0,-0.6210937 0.292969,-1.0078125 0.75,-1.0078125 z m 4.072266,2.05078129 c -0.03516,0.0117188 -0.05859,0.0117188 -0.08203,0.0117188 -0.152344,0 -0.222656,-0.0703125 -0.222656,-0.19921875 V -1.9686641 c 0,-0.46875 -0.339844,-0.7148437 -0.984375,-0.7148437 -0.375,0 -0.691407,0.1054687 -0.867188,0.3046875 -0.117187,0.1289062 -0.175781,0.28125 -0.175781,0.5390625 H 32.221 c 0.03516,-0.3164063 0.222656,-0.4570313 0.621094,-0.4570313 0.363281,0 0.574219,0.140625 0.574219,0.3867188 v 0.1054687 c 0,0.1757813 -0.105469,0.2460938 -0.433594,0.2929688 -0.585938,0.070312 -0.667969,0.09375 -0.832031,0.1523437 -0.304688,0.1289063 -0.457032,0.36328129 -0.457032,0.70312504 0,0.46875 0.328125,0.7734375 0.855469,0.7734375 0.328125,0 0.597656,-0.1171875025 0.890625,-0.38671875 0.02344,0.2695312475 0.152344,0.38671875 0.421875,0.38671875 0.08203,0 0.152344,-0.0117188 0.28125,-0.046875 z m -0.726562,-0.57421875 c 0,0.140625 -0.03516,0.22265625 -0.164063,0.33984375 -0.164062,0.15234375 -0.375,0.234375 -0.609375,0.234375 -0.328125,0 -0.515625,-0.15234375 -0.515625,-0.421875 0,-0.26953125 0.1875,-0.41015629 0.621094,-0.48046879 0.445312,-0.058594 0.527344,-0.082031 0.667969,-0.140625 z m 3.295898,-2.81250004 h -0.410156 v 1.3476563 c -0.175782,-0.2578125 -0.457032,-0.3984375 -0.796875,-0.3984375 -0.679688,0 -1.125,0.5390625 -1.125,1.3710937 0,0.87890629 0.433593,1.42968754 1.136718,1.42968754 0.363282,0 0.609375,-0.140625 0.832032,-0.45703125 V 8.59375e-5 h 0.363281 z m -1.136719,1.3359375 c 0.445313,0 0.726563,0.3984375 0.726563,1.0195313 0,0.60937499 -0.292969,1.00781249 -0.726563,1.00781249 -0.457031,0 -0.761719,-0.41015625 -0.761719,-1.01953129 0,-0.609375 0.304688,-1.0078125 0.761719,-1.0078125 z m 3.996094,-1.3359375 c -0.492188,0.65625 -0.808594,1.5585938 -0.808594,2.34375 0,0.78515629 0.316406,1.68750004 0.808594,2.34375 h 0.28125 c -0.445313,-0.71484371 -0.691406,-1.54687496 -0.691406,-2.34375 0,-0.796875 0.246093,-1.6289062 0.691406,-2.34375 z M 40.459281,8.59375e-5 h 1.628907 c 0.351562,0 0.597656,-0.0937499975 0.796875,-0.3046874975 0.175781,-0.1875 0.28125,-0.4453125 0.28125,-0.72656254 0,-0.4453125 -0.199219,-0.703125 -0.667969,-0.890625 0.328125,-0.1523437 0.503906,-0.421875 0.503906,-0.7851562 0,-0.2695313 -0.09375,-0.5039063 -0.28125,-0.6679688 -0.199219,-0.1757812 -0.445312,-0.2578125 -0.796875,-0.2578125 H 40.459281 Z M 40.916313,-2.0624141 v -1.1601562 h 0.902343 c 0.257813,0 0.398438,0.035156 0.527344,0.1289062 0.128906,0.1054688 0.199219,0.2460938 0.199219,0.4453125 0,0.1992188 -0.07031,0.3515625 -0.199219,0.4570313 -0.128906,0.09375 -0.269531,0.1289062 -0.527344,0.1289062 z m 0,1.65234379 V -1.6639766 h 1.136718 c 0.222657,0 0.363282,0.058594 0.480469,0.1757813 0.105469,0.1171875 0.164063,0.28125 0.164063,0.4570312 0,0.17578129 -0.05859,0.32812504 -0.164063,0.44531254 -0.117187,0.1171875 -0.257812,0.17578125 -0.480469,0.17578125 z M 44.133109,-2.6131953 H 43.711234 V 8.59375e-5 h 0.421875 z m 0,-1.0195313 h -0.421875 v 0.5273438 h 0.421875 z m 2.405274,1.0195313 v 0.3867187 c -0.210938,-0.3164062 -0.457031,-0.4570312 -0.796875,-0.4570312 -0.65625,0 -1.113281,0.5742187 -1.113281,1.4179687 0,0.43359379 0.117187,0.78515629 0.328125,1.03125004 0.199218,0.22265625 0.480468,0.3515625 0.75,0.3515625 0.328125,0 0.5625,-0.140625 0.796875,-0.46875 v 0.12890625 c 0,0.3515625 -0.04687,0.57421875 -0.152344,0.71484375 -0.105469,0.15234375 -0.328125,0.24609375 -0.574219,0.24609375 -0.1875,0 -0.363281,-0.046875 -0.480469,-0.140625 -0.09375,-0.0703125 -0.128906,-0.140625 -0.152343,-0.29296875 h -0.421875 c 0.03516,0.4921875 0.421875,0.78515626 1.03125,0.78515626 0.398437,0 0.726562,-0.12890626 0.890625,-0.33984376 0.199218,-0.234375 0.28125,-0.5625 0.28125,-1.18359375 V -2.6131953 Z m -0.75,0.3164062 c 0.445312,0 0.714844,0.375 0.714844,1.03125 0,0.62109379 -0.269532,0.99609379 -0.714844,0.99609379 -0.445313,0 -0.726563,-0.38671875 -0.726563,-1.01953129 0,-0.6210937 0.28125,-1.0078125 0.726563,-1.0078125 z m 2.501953,-1.3359375 H 47.88018 v 1.6875 l 0.105468,1.11328129 h 0.199219 l 0.105469,-1.11328129 z m 0,3.11718754 H 47.88018 V 8.59375e-5 h 0.410156 z m 0.820312,1.57031246 c 0.492188,-0.65624996 0.808594,-1.55859371 0.808594,-2.34375 0,-0.7851562 -0.316406,-1.6875 -0.808594,-2.34375 h -0.28125 c 0.445313,0.7148438 0.679688,1.546875 0.679688,2.34375 0,0.79687504 -0.234375,1.64062504 -0.679688,2.34375 z m 0,0"
       style="fill:#000000;fill-opacity:1;fill-rule:nonzero;stroke:none"
       aria-label="ModelDownload(Big!)"
       transform="matrix(1.3333333,0,0,1.3333333,123.03867,70.050667)" />
    <path
       id="path20"
       d="m 174.56657,22.68108 h 31.89015 V 45.3586 h -31.89015 z"
       style="fill:#d4efdf;fill-opacity:1;fill-rule:nonzero;stroke:#4c4c4c;stroke-width:0.3985;stroke-linecap:butt;stroke-linejoin:miter;stroke-miterlimit:10;stroke-dasharray:none;stroke-opacity:1"
       transform="matrix(1.3333333,0,0,-1.3333333,9.3373333,113.704)" />
    <path
       id="path21"
       d="m 0.86782031,-3.6339062 h -0.46875 v 3.63281245 H 2.6607891 V -0.41125 H 0.86782031 Z m 3.26074219,0.9492187 c -0.7382813,0 -1.1835938,0.5273438 -1.1835938,1.3945313 0,0.8789062 0.4453125,1.40624995 1.1835938,1.40624995 0.7382812,0 1.1835937,-0.52734375 1.1835937,-1.38281245 0,-0.9023438 -0.4335937,-1.4179688 -1.1835937,-1.4179688 z m 0,0.3867188 c 0.46875,0 0.75,0.375 0.75,1.03125 0,0.60937495 -0.2929688,0.9960937 -0.75,0.9960937 -0.4570313,0 -0.75,-0.38671875 -0.75,-1.0195312 0,-0.6210938 0.2929687,-1.0078125 0.75,-1.0078125 z m 4.0722656,2.0507812 c -0.035156,0.0117188 -0.058594,0.0117188 -0.082031,0.0117188 -0.1523438,0 -0.2226563,-0.0703125 -0.2226563,-0.19921875 V -1.9698437 c 0,-0.46875 -0.3398437,-0.7148438 -0.984375,-0.7148438 -0.375,0 -0.6914062,0.1054688 -0.8671875,0.3046875 -0.1171875,0.1289063 -0.1757812,0.28125 -0.1757812,0.5390625 h 0.4101562 c 0.035156,-0.3164062 0.2226563,-0.4570312 0.6210938,-0.4570312 0.3632812,0 0.5742187,0.140625 0.5742187,0.3867187 v 0.1054688 c 0,0.1757812 -0.1054687,0.2460937 -0.4335937,0.2929687 -0.5859375,0.070312 -0.6679688,0.09375 -0.8320313,0.1523438 -0.3046875,0.1289062 -0.4570312,0.36328125 -0.4570312,0.703125 0,0.46875 0.328125,0.7734375 0.8554687,0.7734375 0.328125,0 0.5976563,-0.1171875 0.890625,-0.38671875 0.023437,0.26953125 0.1523438,0.38671875 0.421875,0.38671875 0.082031,0 0.1523438,-0.0117188 0.28125,-0.046875 z M 7.4742656,-0.82140625 c 0,0.140625 -0.035156,0.22265625 -0.1640625,0.33984375 -0.1640625,0.15234375 -0.375,0.234375 -0.609375,0.234375 -0.328125,0 -0.515625,-0.15234375 -0.515625,-0.421875 0,-0.26953125 0.1875,-0.4101562 0.6210938,-0.4804687 0.4453125,-0.058594 0.5273437,-0.082031 0.6679687,-0.140625 z M 10.770164,-3.6339062 H 10.360008 V -2.28625 c -0.175781,-0.2578125 -0.4570314,-0.3984375 -0.7968752,-0.3984375 -0.6796875,0 -1.125,0.5390625 -1.125,1.3710938 0,0.8789062 0.4335938,1.42968745 1.1367188,1.42968745 0.3632812,0 0.6093754,-0.140625 0.8320314,-0.45703125 v 0.33984375 h 0.363281 z m -1.1367187,1.3359375 c 0.4453127,0 0.7265627,0.3984375 0.7265627,1.0195312 0,0.609375 -0.292969,1.0078125 -0.7265627,1.0078125 -0.4570312,0 -0.7617187,-0.41015625 -0.7617187,-1.0195312 0,-0.609375 0.3046875,-1.0078125 0.7617187,-1.0078125 z m 0,0"
       style="fill:#000000;fill-opacity:1;fill-rule:nonzero;stroke:none"
       aria-label="Load"
       transform="matrix(1.3333333,0,0,1.3333333,255.964,70.673333)" />
    <path
       id="path22"
       d="m 206.8048,22.68285 h 17.71674 V 45.36037 H 206.8048 Z"
       style="fill:#f5d2d5;fill-opacity:1;fill-rule:nonzero;stroke:#4c4c4c;stroke-width:0.3985;stroke-linecap:butt;stroke-linejoin:miter;stroke-miterlimit:10;stroke-dasharray:none;stroke-opacity:1"
       transform="matrix(1.3333333,0,0,-1.3333333,9.3373333,113.704)" />
    <path
       id="path23"
       d="M 3.7017187,9.0625e-4 4.6275,-3.6319062 H 4.111875 L 3.4439062,-0.67878125 2.611875,-3.6319062 H 2.1196875 L 1.3110937,-0.67878125 0.63140625,-3.6319062 H 0.1040625 l 0.9375,3.63281245 H 1.5454687 L 2.3540625,-2.987375 3.1978125,9.0625e-4 Z M 7.1675391,-0.2451875 c -0.035156,0.0117188 -0.058594,0.0117188 -0.082031,0.0117188 -0.1523437,0 -0.2226562,-0.0703125 -0.2226562,-0.19921875 V -1.9678436 c 0,-0.46875 -0.3398438,-0.7148439 -0.984375,-0.7148439 -0.375,0 -0.6914063,0.1054689 -0.8671875,0.3046875 -0.1171875,0.1289064 -0.1757813,0.28125 -0.1757813,0.5390626 h 0.4101563 c 0.035156,-0.3164062 0.2226562,-0.4570312 0.6210937,-0.4570312 0.3632813,0 0.5742188,0.140625 0.5742188,0.3867187 v 0.1054688 c 0,0.1757812 -0.1054688,0.2460937 -0.4335938,0.2929687 -0.5859375,0.070312 -0.6679687,0.09375 -0.8320312,0.1523438 -0.3046875,0.1289062 -0.4570313,0.36328115 -0.4570313,0.7031249 0,0.46875 0.328125,0.7734375 0.8554688,0.7734375 0.328125,0 0.5976562,-0.1171875 0.890625,-0.38671875 0.023437,0.26953125 0.1523437,0.38671875 0.421875,0.38671875 0.082031,0 0.1523437,-0.0117188 0.28125,-0.046875 z M 6.4409766,-0.81940625 c 0,0.140625 -0.035156,0.22265625 -0.1640625,0.33984375 -0.1640625,0.15234375 -0.375,0.234375 -0.609375,0.234375 -0.328125,0 -0.515625,-0.15234375 -0.515625,-0.421875 0,-0.26953125 0.1875,-0.4101562 0.6210937,-0.4804687 0.4453125,-0.058594 0.5273438,-0.082031 0.6679688,-0.140625 z M 7.6187109,-2.612375 V 9.0625e-4 h 0.421875 V -1.3584687 c 0,-0.3632813 0.09375,-0.609375 0.2929688,-0.7617188 0.1289062,-0.09375 0.2578125,-0.1171875 0.5390625,-0.1289062 v -0.421875 c -0.070312,-0.011719 -0.09375,-0.011719 -0.1523438,-0.011719 -0.2695312,0 -0.4804687,0.1640625 -0.7148437,0.5507813 V -2.612375 Z m 1.7900391,0 V 9.0625e-4 H 9.8189062 V -1.6397187 c 0,-0.375 0.2812498,-0.6796875 0.6210938,-0.6796875 0.304687,0 0.480469,0.1875 0.480469,0.5273437 V 9.0625e-4 h 0.421875 V -1.6397187 c 0,-0.375 0.269531,-0.6796875 0.609375,-0.6796875 0.304687,0 0.480468,0.1992187 0.480468,0.5273437 V 9.0625e-4 h 0.421875 V -1.956125 c 0,-0.46875 -0.269531,-0.7265625 -0.761718,-0.7265625 -0.339844,0 -0.550782,0.1054688 -0.796875,0.3984375 -0.152344,-0.28125 -0.363282,-0.3984375 -0.703125,-0.3984375 -0.351563,0 -0.574219,0.1289063 -0.808594,0.4453125 v -0.375 z m 0,0"
       style="fill:#000000;fill-opacity:1;fill-rule:nonzero;stroke:none"
       aria-label="Warm"
       transform="matrix(1.3333333,0,0,1.3333333,288.08,70.670667)" />
    <path
       id="path24"
       d="m 0,50.33644 c 0.74718,1.49443 2.49069,2.49069 4.98138,2.49069 h 102.3702 c 2.49069,0 4.2342,0.99627 4.98138,2.4907 0.74718,-1.49443 2.49069,-2.4907 4.98139,-2.4907 h 102.37019 c 2.49069,0 4.23421,-0.99626 4.98138,-2.49069"
       style="fill:none;stroke:#000000;stroke-width:0.3985;stroke-linecap:butt;stroke-linejoin:miter;stroke-miterlimit:10;stroke-dasharray:none;stroke-opacity:1"
       transform="matrix(1.3333333,0,0,-1.3333333,9.3373333,113.704)" />
    <path
       id="path25"
       d="M 3.8320391,-6.0113359 H 5.9531328 V -7.2652422 H 0.14063281 v 1.2539063 H 2.3437578 V 3.828125e-4 h 1.4882813 z m 4.4589843,0.5390625 c -1.640625,0 -2.6484375,1.0898437 -2.6484375,2.8476562 0,1.78125001 1.0078125,2.85937501 2.6601563,2.85937501 1.6289062,0 2.6601558,-1.08984375 2.6601558,-2.81250001 0,-1.828125 -0.9843746,-2.8945312 -2.6718746,-2.8945312 z m 0.011719,1.125 c 0.7617187,0 1.265625,0.6914062 1.265625,1.7460937 0,1.0078125 -0.5273438,1.69921876 -1.265625,1.69921876 -0.7617188,0 -1.265625,-0.69140626 -1.265625,-1.72265626 0,-1.0195312 0.5039062,-1.7226562 1.265625,-1.7226562 z m 6.0732416,-0.9257813 h -0.773437 v -1.4414062 h -1.394531 v 1.4414062 h -0.691407 v 0.9257813 h 0.691407 v 3.3164062 c 0,0.84375001 0.445312,1.26562501 1.359375,1.26562501 0.304687,0 0.5625,-0.0351563 0.808593,-0.1171875 v -0.97265625 c -0.140625,0.0234375 -0.222656,0.0234375 -0.316406,0.0234375 -0.375,0 -0.457031,-0.10546875 -0.457031,-0.58593746 v -2.9296875 h 0.773437 z m 5.53418,5.10937501 c -0.246094,-0.234375 -0.316406,-0.38671875 -0.316406,-0.66796875 V -3.8199297 c 0,-1.0898437 -0.75,-1.6523437 -2.203125,-1.6523437 -1.453125,0 -2.203125,0.6210937 -2.296875,1.8632812 h 1.347656 c 0.07031,-0.5507812 0.292969,-0.7382812 0.984375,-0.7382812 0.539063,0 0.808594,0.1875 0.808594,0.5390625 0,0.1875 -0.09375,0.3398437 -0.246094,0.421875 -0.1875,0.09375 -0.1875,0.09375 -0.867187,0.2109375 l -0.5625,0.09375 c -1.066407,0.1875 -1.582032,0.7265625 -1.582032,1.6992187 0,0.45703126 0.128907,0.83203126 0.375,1.10156251 0.304688,0.31640625 0.773438,0.515625 1.253907,0.515625 0.597656,0 1.148437,-0.26953125 1.640625,-0.7734375 0,0.28125 0.02344,0.375 0.152343,0.5390625025 h 1.511719 z M 18.234383,-2.1558672 c 0,0.796875 -0.398438,1.25390626 -1.113281,1.25390626 -0.46875,0 -0.75,-0.24609376 -0.75,-0.64453126 0,-0.4101562 0.222656,-0.609375 0.796875,-0.7382812 l 0.480468,-0.082031 c 0.363282,-0.070312 0.421875,-0.09375 0.585938,-0.1757812 z m 4.063476,-5.109375 H 20.903328 V 3.828125e-4 h 1.394531 z m 10.262696,2.4609375 c -0.05859,-0.6210937 -0.1875,-1.0195312 -0.492188,-1.4296875 -0.5625,-0.7382812 -1.453125,-1.1484375 -2.542969,-1.1484375 -2.050781,0 -3.328125,1.4648438 -3.328125,3.8203125 0,2.3320313 1.265625,3.79687501 3.292969,3.79687501 1.804688,0 3.011719,-1.0546875 3.09375,-2.71875001 h -1.453125 c -0.08203,0.9257813 -0.679687,1.453125 -1.605469,1.453125 -1.148437,0 -1.828125,-0.9257812 -1.828125,-2.5195312 0,-1.59375 0.703125,-2.5546875 1.886719,-2.5546875 0.515625,0 0.9375,0.1757812 1.21875,0.5273437 0.164063,0.1992188 0.246094,0.3867188 0.328125,0.7734375 z m 3.395508,-0.6679687 c -1.640625,0 -2.648438,1.0898437 -2.648438,2.8476562 0,1.78125001 1.007813,2.85937501 2.660156,2.85937501 1.628907,0 2.660157,-1.08984375 2.660157,-2.81250001 0,-1.828125 -0.984375,-2.8945312 -2.671875,-2.8945312 z m 0.01172,1.125 c 0.761719,0 1.265625,0.6914062 1.265625,1.7460937 0,1.0078125 -0.527343,1.69921876 -1.265625,1.69921876 -0.761718,0 -1.265625,-0.69140626 -1.265625,-1.72265626 0,-1.0195312 0.503907,-1.7226562 1.265625,-1.7226562 z m 5.138672,-2.9179688 H 39.711922 V 3.828125e-4 h 1.394531 z M 45.84376,3.828125e-4 h 1.394531 V -7.2652422 H 45.84376 v 2.578125 c -0.339844,-0.5273437 -0.808594,-0.7851562 -1.476563,-0.7851562 -1.289062,0 -2.261718,1.2421875 -2.261718,2.859375 0,0.7265625 0.210937,1.4648437 0.574218,1.98046871 0.363282,0.52734375 1.03125,0.8671875 1.6875,0.8671875 0.667969,0 1.136719,-0.2578125 1.476563,-0.78515625 z M 44.671883,-4.3003984 c 0.703125,0 1.171875,0.6796875 1.171875,1.7109375 0,0.9726562 -0.480469,1.65234371 -1.171875,1.65234371 -0.703125,0 -1.171875,-0.69140621 -1.171875,-1.67578121 0,-0.9960938 0.46875,-1.6875 1.171875,-1.6875 z m 12.043945,-0.75 c 0,-0.6679688 -0.152344,-1.1015625 -0.503906,-1.5 -0.492188,-0.5390625 -1.300781,-0.8320313 -2.34375,-0.8320313 -1.746094,0 -2.753906,0.8203125 -2.753906,2.2382813 0,1.125 0.574218,1.6640625 2.050781,1.9453125 l 1.007812,0.1992187 c 0.996094,0.1875 1.371094,0.46875 1.371094,1.0546875 0,0.609375 -0.5625,0.98437501 -1.464844,0.98437501 -1.019531,0 -1.582031,-0.43359371 -1.640625,-1.20703121 h -1.453125 c 0.09375,1.54687496 1.160157,2.40234371 3.011719,2.40234371 1.875,0 2.976563,-0.87890625 2.976563,-2.35546871 0,-1.1484375 -0.574219,-1.7460938 -1.921875,-2.0039063 l -1.136719,-0.2226562 c -1.066406,-0.1992188 -1.371094,-0.4101563 -1.371094,-0.9375 0,-0.5507813 0.480469,-0.9023438 1.253906,-0.9023438 0.949219,0 1.476563,0.3984375 1.523438,1.1367188 z m 3.600586,-0.2226563 h -0.773437 v -1.4414062 h -1.394532 v 1.4414062 h -0.691406 v 0.9257813 h 0.691406 v 3.3164062 c 0,0.84375001 0.445313,1.26562501 1.359375,1.26562501 0.304688,0 0.5625,-0.0351563 0.808594,-0.1171875 v -0.97265625 c -0.140625,0.0234375 -0.222656,0.0234375 -0.316406,0.0234375 -0.375,0 -0.457031,-0.10546875 -0.457031,-0.58593746 v -2.9296875 h 0.773437 z m 5.53125,5.10937501 c -0.246094,-0.234375 -0.316406,-0.38671875 -0.316406,-0.66796875 V -3.8199297 c 0,-1.0898437 -0.75,-1.6523437 -2.203125,-1.6523437 -1.453125,0 -2.203125,0.6210937 -2.296875,1.8632812 h 1.347656 c 0.07031,-0.5507812 0.292969,-0.7382812 0.984375,-0.7382812 0.539063,0 0.808594,0.1875 0.808594,0.5390625 0,0.1875 -0.09375,0.3398437 -0.246094,0.421875 -0.1875,0.09375 -0.1875,0.09375 -0.867187,0.2109375 l -0.5625,0.09375 c -1.066407,0.1875 -1.582032,0.7265625 -1.582032,1.6992187 0,0.45703126 0.128907,0.83203126 0.375,1.10156251 0.304688,0.31640625 0.773438,0.515625 1.253907,0.515625 0.597656,0 1.148437,-0.26953125 1.640625,-0.7734375 0,0.28125 0.02344,0.375 0.152343,0.5390625025 h 1.511719 z M 64.171883,-2.1558672 c 0,0.796875 -0.398438,1.25390626 -1.113281,1.25390626 -0.46875,0 -0.75,-0.24609376 -0.75,-0.64453126 0,-0.4101562 0.222656,-0.609375 0.796875,-0.7382812 l 0.480468,-0.082031 c 0.363282,-0.070312 0.421875,-0.09375 0.585938,-0.1757812 z m 2.633789,-3.2226562 V 3.828125e-4 h 1.394531 V -2.8589922 c 0,-0.8203125 0.398438,-1.2304687 1.21875,-1.2304687 0.152344,0 0.246094,0.011719 0.445313,0.046875 v -1.4179688 c -0.08203,-0.011719 -0.140625,-0.011719 -0.175782,-0.011719 -0.632812,0 -1.195312,0.421875 -1.488281,1.1484375 v -1.0546875 z m 6.439453,0.1054687 h -0.773437 v -1.4414062 h -1.394532 v 1.4414062 H 70.38575 v 0.9257813 h 0.691406 v 3.3164062 c 0,0.84375001 0.445313,1.26562501 1.359375,1.26562501 0.304688,0 0.5625,-0.0351563 0.808594,-0.1171875 v -0.97265625 c -0.140625,0.0234375 -0.222656,0.0234375 -0.316406,0.0234375 -0.375,0 -0.457031,-0.10546875 -0.457031,-0.58593746 v -2.9296875 h 0.773437 z m 2.944336,3.8203125 h -1.5 V 3.828125e-4 h 1.5 z m 0,-3.7265625 h -1.5 v 1.453125 h 1.5 z m 4.517578,5.28515626 4.875,-1.80468746 v -1.2070313 l -4.875,-1.8164062 v 1.1015625 l 3.808594,1.3125 -3.808594,1.32421871 z M 93.770516,-7.0660234 h -3.773438 l -0.632812,3.9375 h 1.253906 c 0.152344,-0.3515625 0.46875,-0.5390625 0.902344,-0.5390625 0.703125,0 1.125,0.515625 1.125,1.3710937 0,0.8203125 -0.433594,1.33593751 -1.125,1.33593751 -0.609375,0 -0.949219,-0.31640621 -0.984375,-0.87890621 h -1.371094 c 0.02344,1.23046871 0.960937,2.07421871 2.332031,2.07421871 1.511719,0 2.542969,-1.04296875 2.542969,-2.56640621 0,-1.4414063 -0.890625,-2.4375 -2.191406,-2.4375 -0.46875,0 -0.820313,0.1171875 -1.230469,0.421875 l 0.234375,-1.4648438 h 2.917969 z m 5.589843,1.40625 1.300781,5.6601562125 h 1.48828 L 103.43848,-5.6597734 V 3.828125e-4 h 1.5 V -7.2652422 h -2.25 l -1.27734,5.7773438 -1.3125,-5.7773438 H 97.860359 V 3.828125e-4 h 1.5 z m 8.206051,0.28125 h -1.39453 V 3.828125e-4 h 1.39453 z m 0,-1.8867188 h -1.39453 v 1.2539063 h 1.39453 z m 1.3418,1.8867188 V 3.828125e-4 h 1.39453 V -3.2222734 c 0,-0.6445313 0.44531,-1.0664063 1.125,-1.0664063 0.59766,0 0.89063,0.3398438 0.89063,0.9726563 V 3.828125e-4 h 1.39453 V -3.6089922 c 0,-1.1835937 -0.65625,-1.8632812 -1.80469,-1.8632812 -0.72656,0 -1.20703,0.2695312 -1.60547,0.8671875 V -5.3785234 Z M 119.66309,3.828125e-4 V -5.3785234 h -1.39453 v 3.3632812 c 0,0.6445313 -0.44531,1.05468751 -1.125,1.05468751 -0.59765,0 -0.90234,-0.31640621 -0.90234,-0.96093751 v -3.4570312 h -1.39453 v 3.75 c 0,1.18359371 0.65625,1.86328121 1.80469,1.86328121 0.72656,0 1.21875,-0.26953125 1.61718,-0.8671875 V 3.828125e-4 Z M 123.35743,-5.2730547 h -0.77344 v -1.4414062 h -1.39453 v 1.4414062 h -0.69141 v 0.9257813 h 0.69141 v 3.3164062 c 0,0.84375001 0.44531,1.26562501 1.35938,1.26562501 0.30468,0 0.5625,-0.0351563 0.80859,-0.1171875 v -0.97265625 c -0.14063,0.0234375 -0.22266,0.0234375 -0.31641,0.0234375 -0.375,0 -0.45703,-0.10546875 -0.45703,-0.58593746 v -2.9296875 h 0.77344 z m 5.53418,3.0234375 c 0.0117,-0.1171875 0.0117,-0.1757812 0.0117,-0.2460937 0,-0.5273438 -0.082,-1.03125 -0.21094,-1.40625 -0.35156,-0.984375 -1.21875,-1.5703125 -2.30859,-1.5703125 -1.54688,0 -2.48438,1.125 -2.48438,2.9179687 0,1.72265626 0.9375,2.78906251 2.46094,2.78906251 1.20703,0 2.17969,-0.69140625 2.48437,-1.74609371 h -1.37109 c -0.17578,0.421875 -0.5625,0.67968746 -1.06641,0.67968746 -0.39843,0 -0.71484,-0.17578126 -0.91406,-0.46874996 -0.1289,-0.1992188 -0.1875,-0.4453125 -0.19922,-0.9492188 z m -3.58594,-0.9257812 c 0.0937,-0.8203125 0.44531,-1.2304688 1.06641,-1.2304688 0.33984,0 0.65625,0.1757813 0.85547,0.4570313 0.14062,0.1992187 0.19922,0.3984375 0.22265,0.7734375 z m 8.93848,-0.46875 c -0.0117,-1.1367188 -0.89063,-1.828125 -2.33203,-1.828125 -1.3711,0 -2.21485,0.6914062 -2.21485,1.7929687 0,0.3632813 0.10547,0.6679688 0.29297,0.8789063 0.1875,0.1875 0.36328,0.28125 0.87891,0.4453125 l 1.66406,0.5273437 c 0.35156,0.1054688 0.46875,0.2109375 0.46875,0.4335938 0,0.328125 -0.38672,0.52734371 -1.03125,0.52734371 -0.36328,0 -0.65625,-0.0703125 -0.83203,-0.18750001 -0.15234,-0.1054687 -0.21094,-0.2226562 -0.26953,-0.5039062 h -1.35938 c 0.0352,1.17187496 0.90235,1.79296871 2.53125,1.79296871 0.75,0 1.32422,-0.1640625 1.72266,-0.48046875 0.39844,-0.31640625 0.63281,-0.82031246 0.63281,-1.34765626 0,-0.703125 -0.35156,-1.1484375 -1.05469,-1.359375 l -1.76953,-0.5039062 c -0.38672,-0.1171875 -0.48047,-0.1992188 -0.48047,-0.421875 0,-0.2929688 0.31641,-0.4921875 0.8086,-0.4921875 0.66797,0 0.99609,0.234375 1.00781,0.7265625 z m 0,0"
       style="fill:#000000;fill-opacity:1;fill-rule:nonzero;stroke:none"
       aria-label="TotalColdStart:&gt;5Minutes"
       transform="matrix(1.3333333,0,0,1.3333333,69.277333,35.089333)" />
    <path
       id="path26"
       d="M 0.57565625,2.03125e-4 H 2.8608125 c 0.5859375,0 0.9726562,-0.117187505 1.2773437,-0.375000005 0.3164063,-0.2578125 0.5039063,-0.67968752 0.5039063,-1.08984372 0,-0.5039063 -0.2695313,-0.9023438 -0.84375,-1.2304688 0.5039062,-0.328125 0.703125,-0.6210937 0.703125,-1.0546875 0,-0.3398437 -0.1757813,-0.7148437 -0.4570313,-0.9609375 -0.3046875,-0.2578125 -0.65625,-0.375 -1.2070312,-0.375 H 0.57565625 Z M 1.618625,-4.2068281 h 1.1367187 c 0.4804688,0 0.7382813,0.1992187 0.7382813,0.5742187 0,0.375 -0.2578125,0.5742188 -0.7382813,0.5742188 H 1.618625 Z m 0,2.015625 h 1.2539062 c 0.5039063,0 0.7734375,0.234375 0.7734375,0.6679687 0,0.421875 -0.2695312,0.65625002 -0.7734375,0.65625002 H 1.618625 Z M 5.4682344,-3.7615156 V 2.03125e-4 h 0.984375 V -2.0037031 c 0,-0.5742188 0.28125,-0.8554688 0.8554687,-0.8554688 0.1054688,0 0.1757813,0.011719 0.3046875,0.023437 v -0.984375 c -0.058594,-0.011719 -0.09375,-0.011719 -0.1171875,-0.011719 -0.4453125,0 -0.8320312,0.2929687 -1.0429687,0.8085937 v -0.7382812 z m 5.9355466,2.1914062 c 0,-0.09375 0,-0.1289062 0,-0.1757812 0,-0.375 -0.04687,-0.7265625 -0.140625,-0.984375 -0.257812,-0.6914063 -0.855468,-1.1015625 -1.6171872,-1.1015625 -1.078125,0 -1.7460938,0.7851562 -1.7460938,2.0507812 0,1.20703127 0.65625,1.94531252 1.7226563,1.94531252 0.8437497,0 1.5234377,-0.48046875 1.7460937,-1.21875002 h -0.960937 c -0.117188,0.29296877 -0.398438,0.46875002 -0.7500005,0.46875002 -0.28125,0 -0.5039062,-0.1171875 -0.6445312,-0.328125 C 8.931125,-1.0544844 8.8959688,-1.2185469 8.8725313,-1.5701094 Z m -2.5078122,-0.65625 c 0.058594,-0.5742187 0.3046875,-0.8554687 0.7382812,-0.8554687 0.234375,0 0.46875,0.1171875 0.597656,0.3164062 0.09375,0.140625 0.140625,0.28125 0.164063,0.5390625 z m 6.3867192,2.10937502 c -0.175782,-0.1640625 -0.222657,-0.26953125 -0.222657,-0.45703125 V -2.6716719 c 0,-0.7617187 -0.527343,-1.1601562 -1.546875,-1.1601562 -1.019531,0 -1.546875,0.4335937 -1.605468,1.3125 h 0.9375 c 0.04687,-0.3984375 0.210937,-0.515625 0.691406,-0.515625 0.375,0 0.5625,0.1171875 0.5625,0.375 0,0.1171875 -0.05859,0.234375 -0.164063,0.2929687 -0.128906,0.070312 -0.128906,0.070312 -0.609375,0.140625 l -0.398437,0.070312 c -0.738281,0.1289063 -1.101563,0.515625 -1.101563,1.18359377 0,0.328125 0.08203,0.5859375 0.257813,0.7734375 0.222656,0.22265625 0.550781,0.36328125 0.878906,0.36328125 0.421875,0 0.808594,-0.1875 1.148438,-0.5390625 0,0.19921875 0.02344,0.2578125 0.105468,0.375000005 h 1.066407 z M 14.099094,-1.5115156 c 0,0.56249997 -0.28125,0.87890622 -0.773438,0.87890622 -0.328125,0 -0.527343,-0.1640625 -0.527343,-0.44531252 0,-0.2929687 0.152343,-0.4335937 0.5625,-0.515625 l 0.328125,-0.070312 c 0.257812,-0.046875 0.304687,-0.058594 0.410156,-0.1171875 z m 2.786133,-0.7851563 V -5.0857344 H 15.91257 V 2.03125e-4 h 0.972657 V -1.2302656 l 0.398437,-0.4335938 0.890625,1.664062525 h 1.148438 L 17.951633,-2.3435469 19.228977,-3.7615156 h -1.101563 z m 5.320312,2.296875025 h 0.972656 V -5.0857344 h -0.972656 v 1.8046875 c -0.246094,-0.375 -0.574219,-0.5507812 -1.042969,-0.5507812 -0.890625,0 -1.582031,0.8671875 -1.582031,2.0039062 0,0.515625 0.152344,1.03125002 0.410156,1.39453127 0.257813,0.3515625 0.714844,0.59765625 1.171875,0.59765625 0.46875,0 0.796875,-0.17578125 1.042969,-0.55078125 z M 21.385227,-3.0115156 c 0.492187,0 0.820312,0.4804687 0.820312,1.1953125 0,0.6914062 -0.339844,1.16015622 -0.820312,1.16015622 -0.492188,0 -0.820313,-0.48046872 -0.820313,-1.17187502 0,-0.6914062 0.328125,-1.1835937 0.820313,-1.1835937 z m 4.353515,-0.8203125 c -1.148437,0 -1.851562,0.7617187 -1.851562,2.0039062 0,1.23046877 0.703125,1.99218752 1.863281,1.99218752 1.136719,0 1.863281,-0.76171875 1.863281,-1.96875002 0,-1.2773437 -0.691406,-2.0273437 -1.875,-2.0273437 z m 0.01172,0.796875 c 0.539062,0 0.878906,0.4804687 0.878906,1.21875 0,0.703125 -0.363281,1.18359372 -0.878906,1.18359372 -0.539063,0 -0.890625,-0.48046872 -0.890625,-1.19531252 0,-0.7265625 0.351562,-1.2070312 0.890625,-1.2070312 z M 32.075656,2.03125e-4 33.142063,-3.7615156 h -1.019532 l -0.5625,2.6367187 -0.5625,-2.6367187 h -0.984375 l -0.574218,2.6367187 -0.597657,-2.6367187 h -1.007812 l 1.054687,3.761718725 h 1.007813 l 0.597656,-2.660156225 0.5625,2.660156225 z M 33.657688,-3.7615156 V 2.03125e-4 h 0.984375 V -2.2615156 c 0,-0.4453125 0.316406,-0.7382813 0.785156,-0.7382813 0.421875,0 0.632812,0.234375 0.632812,0.6796875 V 2.03125e-4 h 0.972657 V -2.5193281 c 0,-0.8320313 -0.457032,-1.3125 -1.265625,-1.3125 -0.503907,0 -0.84375,0.1875 -1.125,0.609375 v -0.5390625 z m 7.945312,0.070312 h -0.574219 v -0.3632813 c 0,-0.1992187 0.08203,-0.2929687 0.257813,-0.2929687 0.09375,0 0.199219,0 0.28125,0.023437 v -0.7382813 c -0.175781,-0.011719 -0.421875,-0.023437 -0.550781,-0.023437 -0.65625,0 -0.960938,0.3046875 -0.960938,0.9492188 v 0.4453125 h -0.539062 v 0.65625 h 0.539062 V 2.03125e-4 h 0.972656 V -3.0349531 H 41.603 Z m 2.100586,-0.140625 c -1.148438,0 -1.851563,0.7617187 -1.851563,2.0039062 0,1.23046877 0.703125,1.99218752 1.863282,1.99218752 1.136718,0 1.863281,-0.76171875 1.863281,-1.96875002 0,-1.2773437 -0.691406,-2.0273437 -1.875,-2.0273437 z m 0.01172,0.796875 c 0.539062,0 0.878906,0.4804687 0.878906,1.21875 0,0.703125 -0.363281,1.18359372 -0.878906,1.18359372 -0.539063,0 -0.890625,-0.48046872 -0.890625,-1.19531252 0,-0.7265625 0.351562,-1.2070312 0.890625,-1.2070312 z M 46.29929,-3.7615161 V 2.03125e-4 h 0.984375 V -2.0037031 c 0,-0.5742188 0.28125,-0.8554688 0.855469,-0.8554688 0.105469,0 0.175781,0.011719 0.304687,0.023437 v -0.984375 c -0.05859,-0.011719 -0.09375,-0.011719 -0.117187,-0.011719 -0.445313,0 -0.832031,0.2929687 -1.042969,0.8085937 v -0.7382812 z m 7.898438,-1.1835938 h -3.480469 v 0.8789063 h 2.460937 c -0.292968,0.3164062 -0.890625,1.21875 -1.089843,1.6523437 -0.339844,0.7148438 -0.515625,1.359375 -0.644532,2.414062525 h 0.984375 C 52.521945,-1.5583906 53.025852,-2.7654219 54.197727,-4.1716719 Z m 2.097656,-0.1054687 c -0.527344,0 -0.972656,0.2226562 -1.277344,0.6328125 -0.28125,0.3867187 -0.421875,1.0195312 -0.421875,1.9804687 0,0.8671875 0.117188,1.48828127 0.351563,1.86328127 0.292968,0.46875 0.773437,0.73828125 1.347656,0.73828125 0.539062,0 0.984375,-0.22265625 1.289062,-0.6328125 0.28125,-0.38671875 0.421875,-1.01953122 0.421875,-1.94531252 0,-0.9023437 -0.117187,-1.5234375 -0.351562,-1.8984375 -0.292969,-0.4804687 -0.773438,-0.7382812 -1.359375,-0.7382812 z m 0,0.7851562 c 0.257812,0 0.457031,0.140625 0.574219,0.3984375 0.105468,0.2109375 0.152343,0.7617188 0.152343,1.4296875 0,0.5507813 -0.04687,1.1132813 -0.117187,1.3125 -0.117188,0.29296877 -0.328125,0.44531252 -0.609375,0.44531252 -0.257813,0 -0.445313,-0.12890625 -0.5625,-0.37500002 -0.105469,-0.2109375 -0.152344,-0.7382812 -0.152344,-1.3945312 0,-0.5742188 0.04687,-1.1367188 0.117188,-1.3476563 0.117187,-0.2929687 0.328125,-0.46875 0.597656,-0.46875 z m 2.551758,4.265625025 h 2.285156 c 0.585937,0 0.972656,-0.117187505 1.277344,-0.375000005 0.316406,-0.2578125 0.503906,-0.67968752 0.503906,-1.08984372 0,-0.5039063 -0.269531,-0.9023438 -0.84375,-1.2304688 0.503906,-0.328125 0.703125,-0.6210937 0.703125,-1.0546875 0,-0.3398437 -0.175781,-0.7148437 -0.457031,-0.9609375 -0.304688,-0.2578125 -0.65625,-0.375 -1.207032,-0.375 H 58.847141 Z M 59.890109,-4.2068281 h 1.136719 c 0.480469,0 0.738281,0.1992187 0.738281,0.5742187 0,0.375 -0.257812,0.5742188 -0.738281,0.5742188 h -1.136719 z m 0,2.015625 h 1.253907 c 0.503906,0 0.773437,0.234375 0.773437,0.6679687 0,0.421875 -0.269531,0.65625002 -0.773437,0.65625002 h -1.253907 z m 6.870118,-1.7695313 0.902343,3.960937525 h 1.054688 L 69.607883,-3.9607344 V 2.03125e-4 H 70.66257 V -5.0857344 h -1.582031 l -0.890625,4.0429688 -0.914062,-4.0429688 H 65.705539 V 2.03125e-4 h 1.054688 z m 6.392578,0.1289063 c -1.148438,0 -1.851563,0.7617187 -1.851563,2.0039062 0,1.23046877 0.703125,1.99218752 1.863281,1.99218752 1.136719,0 1.863282,-0.76171875 1.863282,-1.96875002 0,-1.2773437 -0.691407,-2.0273437 -1.875,-2.0273437 z m 0.01172,0.796875 c 0.539063,0 0.878907,0.4804687 0.878907,1.21875 0,0.703125 -0.363282,1.18359372 -0.878907,1.18359372 -0.539062,0 -0.890625,-0.48046872 -0.890625,-1.19531252 0,-0.7265625 0.351563,-1.2070312 0.890625,-1.2070312 z m 4.977539,3.035156225 h 0.972657 V -5.0857344 h -0.972657 v 1.8046875 c -0.246093,-0.375 -0.574218,-0.5507812 -1.042968,-0.5507812 -0.890625,0 -1.582032,0.8671875 -1.582032,2.0039062 0,0.515625 0.152344,1.03125002 0.410157,1.39453127 0.257812,0.3515625 0.714843,0.59765625 1.171875,0.59765625 0.46875,0 0.796875,-0.17578125 1.042968,-0.55078125 z M 77.32175,-3.0115156 c 0.492187,0 0.820312,0.4804687 0.820312,1.1953125 0,0.6914062 -0.339843,1.16015622 -0.820312,1.16015622 -0.492188,0 -0.820313,-0.48046872 -0.820313,-1.17187502 0,-0.6914062 0.328125,-1.1835937 0.820313,-1.1835937 z m 5.912109,1.4414062 c 0,-0.09375 0,-0.1289062 0,-0.1757812 0,-0.375 -0.04687,-0.7265625 -0.140625,-0.984375 -0.257812,-0.6914063 -0.855468,-1.1015625 -1.617187,-1.1015625 -1.078125,0 -1.746094,0.7851562 -1.746094,2.0507812 0,1.20703127 0.65625,1.94531252 1.722656,1.94531252 0.84375,0 1.523438,-0.48046875 1.746094,-1.21875002 h -0.960937 c -0.117188,0.29296877 -0.398438,0.46875002 -0.75,0.46875002 -0.28125,0 -0.503907,-0.1171875 -0.644532,-0.328125 -0.08203,-0.14062502 -0.117187,-0.30468752 -0.140625,-0.65625002 z m -2.507812,-0.65625 c 0.05859,-0.5742187 0.304687,-0.8554687 0.738281,-0.8554687 0.234375,0 0.46875,0.1171875 0.597656,0.3164062 0.09375,0.140625 0.140625,0.28125 0.164063,0.5390625 z m 4.171875,-2.859375 H 83.925266 V 2.03125e-4 h 0.972656 z m 0,0"
       style="fill:#000000;fill-opacity:1;fill-rule:nonzero;stroke:none"
       aria-label="Breakdownfor70BModel"
       transform="matrix(1.3333333,0,0,1.3333333,14.029333,11.210667)" />
  </g>
</svg>
