<?xml version="1.0" encoding="UTF-8" standalone="no"?>
<!-- Created with Inkscape (http://www.inkscape.org/) -->

<svg
   version="1.1"
   id="svg1"
   width="376.55066"
   height="132.06934"
   viewBox="0 0 376.55066 132.06934"
   xmlns="http://www.w3.org/2000/svg"
   xmlns:svg="http://www.w3.org/2000/svg">
  <defs
     id="defs1" />
  <g
     id="g1">
    <path
       id="path1"
       d="M 0,0 H 233.40556"
       style="fill:none;stroke:#000000;stroke-width:0.3985;stroke-linecap:butt;stroke-linejoin:miter;stroke-miterlimit:10;stroke-dasharray:none;stroke-opacity:1"
       transform="matrix(1.3333333,0,0,-1.3333333,9.1786667,113.56533)" />
    <path
       id="path2"
       d="M -2.07224,2.39104 C -1.69365,0.95639 -0.84999,0.27895 0,0 -0.84999,-0.27895 -1.69365,-0.95639 -2.07224,-2.39104"
       style="fill:none;stroke:#000000;stroke-width:0.3985;stroke-linecap:round;stroke-linejoin:round;stroke-miterlimit:10;stroke-dasharray:none;stroke-opacity:1"
       transform="matrix(1.3333333,0,0,-1.3333333,320.65175,113.56533)" />
    <path
       id="path3"
       d="m 5.3428516,-4.6163047 c -0.011719,-1.2773437 -0.890625,-2.0273437 -2.390625,-2.0273437 -1.4414063,0 -2.32031254,0.7382812 -2.32031254,1.921875 0,0.796875 0.42187504,1.3007812 1.27734374,1.5234375 l 1.6171875,0.4335937 c 0.8320313,0.2109375 1.2070313,0.5390625 1.2070313,1.0546875 0,0.3515625 -0.1875,0.703125 -0.46875,0.90234376 -0.2578125,0.17578125 -0.6679688,0.28125 -1.1953125,0.28125 -0.7148438,0 -1.1953125,-0.17578125 -1.5117188,-0.55078126 -0.2460937,-0.28125 -0.3515625,-0.5976562 -0.3398437,-0.9960937 H 0.43269531 c 0,0.5976562 0.1171875,0.984375 0.38671875,1.34765621 0.44531254,0.609375 1.19531254,0.9375 2.19140624,0.9375 0.7851563,0 1.4179688,-0.1875 1.8398438,-0.50390625 0.4335937,-0.3515625 0.7148437,-0.93749996 0.7148437,-1.49999996 0,-0.8085938 -0.5039062,-1.3945313 -1.3945312,-1.640625 l -1.640625,-0.4335938 c -0.7851563,-0.2226562 -1.0664063,-0.46875 -1.0664063,-0.9726562 0,-0.6679688 0.5742188,-1.1015625 1.453125,-1.1015625 1.0429688,0 1.6289063,0.46875 1.640625,1.3242187 z m 5.2324214,2.5195313 c 0,-0.7148438 -0.04687,-1.1484375 -0.1875,-1.5 -0.304687,-0.7734375 -1.0195308,-1.2304688 -1.8984371,-1.2304688 -1.3007812,0 -2.1445312,0.9960938 -2.1445312,2.5429688 0,1.54687496 0.8085937,2.49609371 2.1328125,2.49609371 1.0664062,0 1.8164058,-0.609375 2.0039058,-1.64062501 H 9.7315234 c -0.2109375,0.62109376 -0.6328125,0.94921876 -1.2304687,0.94921876 -0.4804688,0 -0.8789063,-0.22265625 -1.125,-0.60937496 -0.1875,-0.2695313 -0.2460938,-0.5390625 -0.2578125,-1.0078125 z m -3.4335933,-0.609375 c 0.058594,-0.8671875 0.5859375,-1.4296875 1.3359375,-1.4296875 0.7382812,0 1.3007812,0.609375 1.3007812,1.3710937 0,0.023437 0,0.035156 0,0.058594 z m 8.0419923,-0.4101563 c -0.03516,-0.4570312 -0.128906,-0.75 -0.304688,-1.0195312 -0.328125,-0.4335938 -0.890625,-0.6914063 -1.546875,-0.6914063 -1.265625,0 -2.085937,0.9960938 -2.085937,2.5546875 0,1.52343751 0.808594,2.48437501 2.074219,2.48437501 1.125,0 1.828125,-0.6796875 1.921875,-1.82812501 h -0.75 c -0.128907,0.76171876 -0.515625,1.13671876 -1.148438,1.13671876 -0.832031,0 -1.324219,-0.67968746 -1.324219,-1.79296876 0,-1.171875 0.492188,-1.8632812 1.300782,-1.8632812 0.632812,0 1.019531,0.3632812 1.113281,1.0195312 z m 2.704101,-1.7109375 c -1.3125,0 -2.109375,0.9375 -2.109375,2.5195313 0,1.57031246 0.785157,2.51953121 2.121094,2.51953121 1.3125,0 2.121094,-0.94921875 2.121094,-2.48437501 0,-1.6289062 -0.773438,-2.5546875 -2.132813,-2.5546875 z m 0.01172,0.6914063 c 0.84375,0 1.347656,0.6796875 1.347656,1.8515625 0,1.1015625 -0.527343,1.80468746 -1.347656,1.80468746 -0.832031,0 -1.347656,-0.69140626 -1.347656,-1.82812496 0,-1.1367188 0.515625,-1.828125 1.347656,-1.828125 z m 3.166992,-0.5625 V 8.828125e-4 h 0.75 V -2.5889609 c 0,-0.9609375 0.503907,-1.5820313 1.265625,-1.5820313 0.597657,0 0.972657,0.3515625 0.972657,0.9140625 V 8.828125e-4 h 0.75 V -3.5498984 c 0,-0.7734375 -0.585938,-1.2773438 -1.488282,-1.2773438 -0.703125,0 -1.148437,0.2695313 -1.570312,0.9140625 v -0.7851562 z m 8.794922,-1.8398438 h -0.75 v 2.4375 C 28.795,-4.5811484 28.302812,-4.8272422 27.67,-4.8272422 c -1.21875,0 -2.015625,0.9726563 -2.015625,2.4726563 0,1.58203121 0.773437,2.56640621 2.039062,2.56640621 0.644532,0 1.101563,-0.24609375 1.5,-0.83203125 V 8.828125e-4 h 0.667969 z m -2.0625,2.4023438 c 0.808594,0 1.3125,0.7265625 1.3125,1.8398437 0,1.0898438 -0.515625,1.80468751 -1.3125,1.80468751 -0.820312,0 -1.371094,-0.72656251 -1.371094,-1.81640621 0,-1.1015625 0.550782,-1.828125 1.371094,-1.828125 z m 6.533203,0.75 c -0.01172,-0.9257813 -0.621093,-1.4414063 -1.699218,-1.4414063 -1.101563,0 -1.804688,0.5625 -1.804688,1.4296875 0,0.7382813 0.375,1.0898438 1.488281,1.359375 l 0.703125,0.1640625 c 0.515625,0.1289063 0.726563,0.3164063 0.726563,0.65625 0,0.43359376 -0.445313,0.73828126 -1.101563,0.73828126 -0.398437,0 -0.738281,-0.1171875 -0.925781,-0.31640625 -0.117187,-0.140625 -0.175781,-0.26953121 -0.222656,-0.59765621 h -0.785156 c 0.03516,1.07812496 0.644531,1.60546871 1.875,1.60546871 1.183593,0 1.933593,-0.5859375 1.933593,-1.48828121 0,-0.703125 -0.398437,-1.0898438 -1.324218,-1.3125 l -0.714844,-0.1757813 c -0.609375,-0.140625 -0.867188,-0.3398437 -0.867188,-0.6679687 0,-0.4335938 0.375,-0.703125 0.984375,-0.703125 0.609375,0 0.925782,0.2578125 0.949219,0.75 z m 0,0"
       style="fill:#000000;fill-opacity:1;fill-rule:nonzero;stroke:none"
       aria-label="Seconds"
       transform="matrix(1.3333333,0,0,1.3333333,325.60667,117.83867)" />
    <path
       id="path4"
       d="M 0,2.26787 V -2.26787"
       style="fill:none;stroke:#000000;stroke-width:0.3985;stroke-linecap:butt;stroke-linejoin:miter;stroke-miterlimit:10;stroke-dasharray:none;stroke-opacity:1"
       transform="matrix(1.3333333,0,0,-1.3333333,9.1786667,113.56533)" />
    <path
       id="path5"
       d="m 3.5989219,-2.2257891 c 0,-0.7617187 -0.09375,-1.3125 -0.4101563,-1.8046875 -0.2226562,-0.3164062 -0.6445312,-0.5976562 -1.2070312,-0.5976562 -1.61718752,0 -1.61718752,1.8984375 -1.61718752,2.4023437 0,0.5039063 0,2.36718754 1.61718752,2.36718754 1.6171875,0 1.6171875,-1.86328124 1.6171875,-2.36718754 z m -0.6328125,-0.09375 c 0,0.515625 0,1.0429688 -0.09375,1.47656254 -0.140625,0.6328125 -0.609375,0.78515625 -0.890625,0.78515625 -0.3164063,0 -0.75,-0.1875 -0.890625,-0.76171875 -0.09375,-0.41015624 -0.09375,-0.98437504 -0.09375,-1.50000004 0,-0.5039062 0,-1.03125 0.1054687,-1.4179687 0.1523438,-0.5507813 0.5976563,-0.6914063 0.8789063,-0.6914063 0.375,0 0.7382812,0.2226563 0.8671875,0.6328125 0.1054687,0.375 0.1171875,0.8789063 0.1171875,1.4765625 z M 6.804,-0.91328906 C 6.804,-1.1828203 6.6868125,-1.3820391 6.5110313,-1.5578203 6.2415,-1.8039141 5.9250938,-1.8507891 5.679,-1.8976641 5.1165,-1.9914141 4.6711875,-2.0734453 4.6711875,-2.4484453 c 0,-0.2226563 0.1875,-0.4921875 0.84375,-0.4921875 0.8085938,0 0.84375,0.5625 0.8554688,0.7617187 0.011719,0.082031 0.09375,0.082031 0.1171875,0.082031 0.1289062,0 0.1289062,-0.046875 0.1289062,-0.1875 v -0.6445313 c 0,-0.1171875 0,-0.1757812 -0.1054687,-0.1757812 -0.035156,0 -0.046875,0 -0.140625,0.082031 -0.011719,0 -0.082031,0.070312 -0.1171875,0.1054688 -0.2109375,-0.1523438 -0.4804688,-0.1875 -0.7382813,-0.1875 -0.9960937,0 -1.2304687,0.515625 -1.2304687,0.8671875 0,0.2226562 0.09375,0.4101562 0.2578125,0.5390625 0.2695312,0.234375 0.5390625,0.28125 0.9609375,0.3515625 0.3515625,0.070312 0.9140625,0.1640625 0.9140625,0.63281249 0,0.26953125 -0.1875,0.5859375 -0.8554688,0.5859375 -0.6679687,0 -0.9140625,-0.43359375 -1.03125,-0.91406249 -0.023437,-0.082031 -0.035156,-0.1171875 -0.1289062,-0.1171875 -0.1171875,0 -0.1171875,0.046875 -0.1171875,0.18749999 v 0.85546875 c 0,0.12890625 0,0.1875 0.09375,0.1875 0.058594,0 0.1992187,-0.15234375 0.3398437,-0.3046875 0.3046875,0.29296875 0.6796875,0.3046875 0.84375,0.3046875 0.9140625,0 1.2421875,-0.4921875 1.2421875,-0.9843745 z m 0,0"
       style="fill:#000000;fill-opacity:1;fill-rule:nonzero;stroke:none"
       aria-label="0s"
       transform="matrix(1.3333333,0,0,1.3333333,4.428,127.456)" />
    <path
       id="path6"
       d="M 42.50981,2.26787 V -2.26787"
       style="fill:none;stroke:#000000;stroke-width:0.3985;stroke-linecap:butt;stroke-linejoin:miter;stroke-miterlimit:10;stroke-dasharray:none;stroke-opacity:1"
       transform="matrix(1.3333333,0,0,-1.3333333,9.1786667,113.56533)" />
    <path
       id="path7"
       d="M 3.2937109,7.734375e-4 V -0.24532031 H 3.0358984 c -0.703125,0 -0.703125,-0.09375 -0.703125,-0.328125 V -4.4289141 c 0,-0.1875 -0.011719,-0.1992187 -0.2109375,-0.1992187 -0.4453125,0.4335937 -1.078125,0.4453125 -1.35937496,0.4453125 v 0.2460937 c 0.1640625,0 0.62109376,0 1.00781246,-0.1875 v 3.55078129 c 0,0.234375 0,0.328125 -0.6914062,0.328125 H 0.80933594 V 7.734375e-4 L 2.0515234,-0.02266406 Z m 6.9316411,0 V -0.24532031 c -0.4570317,0 -0.5273442,0 -0.5273442,-0.3046875 V -2.1086016 c 0,-0.609375 -0.2929687,-0.9609375 -1.0429687,-0.9609375 -0.5507813,0 -0.9257813,0.2929688 -1.1132813,0.6445313 -0.140625,-0.4921875 -0.515625,-0.6445313 -1.03125,-0.6445313 -0.5742187,0 -0.9375,0.3046875 -1.1367187,0.6679688 v -0.6679688 l -1.03125,0.070312 v 0.2578125 c 0.46875,0 0.5273437,0.046875 0.5273437,0.3867188 v 1.80468749 c 0,0.3046875 -0.070312,0.3046875 -0.5273437,0.3046875 V 7.734375e-4 c 0,0 0.5039062,-0.0234374975 0.796875,-0.0234374975 0.2578125,0 0.7382812,0.01171875 0.796875,0.0234374975 V -0.24532031 c -0.4453125,0 -0.515625,0 -0.515625,-0.3046875 V -1.8039141 c 0,-0.7382812 0.5742187,-1.078125 1.03125,-1.078125 0.4921875,0 0.5507812,0.3867188 0.5507812,0.7382813 v 1.59374999 c 0,0.3046875 -0.070312,0.3046875 -0.515625,0.3046875 V 7.734375e-4 c 0,0 0.5039063,-0.0234374975 0.796875,-0.0234374975 0.2578125,0 0.7382813,0.01171875 0.796875,0.0234374975 V -0.24532031 c -0.4570312,0 -0.5273437,0 -0.5273437,-0.3046875 V -1.8039141 c 0,-0.7382812 0.5859375,-1.078125 1.0429687,-1.078125 0.4921875,0 0.5507813,0.3867188 0.5507813,0.7382813 v 1.59374999 c 0,0.3046875 -0.070312,0.3046875 -0.5273438,0.3046875 V 7.734375e-4 c 0,0 0.5039063,-0.0234374975 0.796875,-0.0234374975 0.2578125,0 0.7382812,0.01171875 0.8085942,0.0234374975 z m 0,0"
       style="fill:#000000;fill-opacity:1;fill-rule:nonzero;stroke:none"
       aria-label="1m"
       transform="matrix(1.3333333,0,0,1.3333333,58.846667,127.456)" />
    <path
       id="path8"
       d="M 85.01965,2.26787 V -2.26787"
       style="fill:none;stroke:#000000;stroke-width:0.3985;stroke-linecap:butt;stroke-linejoin:miter;stroke-miterlimit:10;stroke-dasharray:none;stroke-opacity:1"
       transform="matrix(1.3333333,0,0,-1.3333333,9.1786667,113.56533)" />
    <path
       id="path9"
       d="m 3.5142031,-1.2648516 h -0.234375 c -0.023437,0.1523438 -0.082031,0.56250004 -0.1757812,0.63281254 -0.058594,0.0351563 -0.5976563,0.0351563 -0.6914063,0.0351563 H 1.1235781 C 1.8618594,-1.241414 2.1079531,-1.4406327 2.5181094,-1.7687578 c 0.515625,-0.4101563 0.9960937,-0.84375 0.9960937,-1.5 0,-0.84375 -0.7382812,-1.359375 -1.6289062,-1.359375 -0.8671875,0 -1.45312502,0.609375 -1.45312502,1.2421875 0,0.3632812 0.3046875,0.3984375 0.375,0.3984375 0.1640625,0 0.37500002,-0.1171875 0.37500002,-0.375 0,-0.1289063 -0.058594,-0.3632813 -0.42187502,-0.3632813 0.22265625,-0.5039062 0.69140622,-0.65625 1.01953122,-0.65625 0.703125,0 1.0664063,0.5507813 1.0664063,1.1132813 0,0.609375 -0.4335938,1.0898437 -0.65625,1.3359375 l -1.68750002,1.66406254 c -0.0703125,0.0585937 -0.0703125,0.0703125 -0.0703125,0.2695312475 H 3.3149844 Z M 10.226117,7.734375e-4 V -0.24532031 c -0.4570311,0 -0.5273436,0 -0.5273436,-0.3046875 V -2.1086016 c 0,-0.609375 -0.2929687,-0.9609375 -1.0429687,-0.9609375 -0.5507813,0 -0.9257813,0.2929688 -1.1132813,0.6445313 -0.140625,-0.4921875 -0.515625,-0.6445313 -1.03125,-0.6445313 -0.5742187,0 -0.9375,0.3046875 -1.1367187,0.6679688 v -0.6679688 l -1.03125,0.070312 v 0.2578125 c 0.46875,0 0.5273437,0.046875 0.5273437,0.3867188 v 1.80468749 c 0,0.3046875 -0.070312,0.3046875 -0.5273437,0.3046875 V 7.734375e-4 c 0,0 0.5039062,-0.0234374975 0.796875,-0.0234374975 0.2578125,0 0.7382812,0.01171875 0.796875,0.0234374975 V -0.24532031 c -0.4453125,0 -0.515625,0 -0.515625,-0.3046875 V -1.8039141 c 0,-0.7382812 0.5742187,-1.078125 1.03125,-1.078125 0.4921875,0 0.5507812,0.3867188 0.5507812,0.7382813 v 1.59374999 c 0,0.3046875 -0.070312,0.3046875 -0.515625,0.3046875 V 7.734375e-4 c 0,0 0.5039063,-0.0234374975 0.796875,-0.0234374975 0.2578125,0 0.7382813,0.01171875 0.796875,0.0234374975 V -0.24532031 c -0.4570312,0 -0.5273437,0 -0.5273437,-0.3046875 V -1.8039141 c 0,-0.7382812 0.5859375,-1.078125 1.0429687,-1.078125 0.4921875,0 0.5507813,0.3867188 0.5507813,0.7382813 v 1.59374999 c 0,0.3046875 -0.070312,0.3046875 -0.5273438,0.3046875 V 7.734375e-4 c 0,0 0.5039063,-0.0234374975 0.796875,-0.0234374975 0.2578125,0 0.7382816,0.01171875 0.8085936,0.0234374975 z m 0,0"
       style="fill:#000000;fill-opacity:1;fill-rule:nonzero;stroke:none"
       aria-label="2m"
       transform="matrix(1.3333333,0,0,1.3333333,115.52533,127.456)" />
    <path
       id="path10"
       d="M 127.52948,2.26787 V -2.26787"
       style="fill:none;stroke:#000000;stroke-width:0.3985;stroke-linecap:butt;stroke-linejoin:miter;stroke-miterlimit:10;stroke-dasharray:none;stroke-opacity:1"
       transform="matrix(1.3333333,0,0,-1.3333333,9.1786667,113.56533)" />
    <path
       id="path11"
       d="m 3.5872109,-1.2062578 c 0,-0.5390625 -0.4453125,-1.0898438 -1.21875,-1.2421875 0.7382813,-0.2695313 0.9960938,-0.796875 0.9960938,-1.21875 0,-0.5507813 -0.6328125,-0.9609375 -1.40625,-0.9609375 -0.7734375,0 -1.35937501,0.375 -1.35937501,0.9375 0,0.234375 0.15234375,0.3632812 0.36328125,0.3632812 0.21093746,0 0.35156246,-0.1640625 0.35156246,-0.3515625 0,-0.1992187 -0.140625,-0.3515625 -0.35156246,-0.3632812 0.23437496,-0.3046875 0.71484376,-0.3867188 0.97265626,-0.3867188 0.3164062,0 0.7617187,0.1523438 0.7617187,0.7617188 0,0.2929687 -0.1054687,0.609375 -0.28125,0.8320312 -0.234375,0.2578125 -0.421875,0.28125 -0.7734375,0.2929688 -0.1757812,0.023437 -0.1875,0.023437 -0.2226562,0.023437 0,0 -0.070312,0.011719 -0.070312,0.09375 0,0.09375 0.058594,0.09375 0.1757812,0.09375 h 0.375 c 0.5507813,0 0.9375,0.375 0.9375,1.125 0,0.86718749 -0.5039062,1.12499999 -0.9023437,1.12499999 -0.28125,0 -0.890625,-0.08203125 -1.18359376,-0.4921875 0.32812496,-0.0117188 0.39843746,-0.24609375 0.39843746,-0.38671875 0,-0.22265624 -0.16406246,-0.38671874 -0.38671871,-0.38671874 -0.1875,0 -0.38671875,0.1171875 -0.38671875,0.41015624 0,0.65625 0.72656246,1.078125 1.57031246,1.078125 0.9726563,0 1.640625,-0.64453125 1.6406245,-1.34765574 z M 10.225883,7.734375e-4 V -0.24532031 c -0.4570314,0 -0.5273439,0 -0.5273439,-0.3046875 V -2.1086016 c 0,-0.609375 -0.2929688,-0.9609375 -1.0429688,-0.9609375 -0.5507812,0 -0.9257812,0.2929688 -1.1132812,0.6445313 -0.140625,-0.4921875 -0.515625,-0.6445313 -1.03125,-0.6445313 -0.5742188,0 -0.9375,0.3046875 -1.1367188,0.6679688 v -0.6679688 l -1.03125,0.070312 v 0.2578125 c 0.46875,0 0.5273438,0.046875 0.5273438,0.3867188 v 1.80468749 c 0,0.3046875 -0.070312,0.3046875 -0.5273438,0.3046875 V 7.734375e-4 c 0,0 0.5039063,-0.0234374975 0.796875,-0.0234374975 0.2578125,0 0.7382813,0.01171875 0.796875,0.0234374975 V -0.24532031 c -0.4453125,0 -0.515625,0 -0.515625,-0.3046875 V -1.8039141 c 0,-0.7382812 0.5742188,-1.078125 1.03125,-1.078125 0.4921875,0 0.5507813,0.3867188 0.5507813,0.7382813 v 1.59374999 c 0,0.3046875 -0.070312,0.3046875 -0.515625,0.3046875 V 7.734375e-4 c 0,0 0.5039062,-0.0234374975 0.796875,-0.0234374975 0.2578125,0 0.7382812,0.01171875 0.796875,0.0234374975 V -0.24532031 c -0.4570313,0 -0.5273438,0 -0.5273438,-0.3046875 V -1.8039141 c 0,-0.7382812 0.5859375,-1.078125 1.0429688,-1.078125 0.4921875,0 0.5507812,0.3867188 0.5507812,0.7382813 v 1.59374999 c 0,0.3046875 -0.070312,0.3046875 -0.5273437,0.3046875 V 7.734375e-4 c 0,0 0.5039062,-0.0234374975 0.796875,-0.0234374975 0.2578125,0 0.7382809,0.01171875 0.8085939,0.0234374975 z m 0,0"
       style="fill:#000000;fill-opacity:1;fill-rule:nonzero;stroke:none"
       aria-label="3m"
       transform="matrix(1.3333333,0,0,1.3333333,172.20533,127.456)" />
    <path
       id="path12"
       d="M 170.03932,2.26787 V -2.26787"
       style="fill:none;stroke:#000000;stroke-width:0.3985;stroke-linecap:butt;stroke-linejoin:miter;stroke-miterlimit:10;stroke-dasharray:none;stroke-opacity:1"
       transform="matrix(1.3333333,0,0,-1.3333333,9.1786667,113.56533)" />
    <path
       id="path13"
       d="M 3.6905156,-1.1473516 V -1.3934453 H 2.9170781 v -3.1054688 c 0,-0.1523437 0,-0.1992187 -0.1523437,-0.1992187 -0.09375,0 -0.1171875,0 -0.1875,0.09375 l -2.30859377,3.2109375 v 0.2460937 H 2.3194219 v 0.57421879 c 0,0.234375 0,0.328125 -0.5625,0.328125 h -0.1875 v 0.24609375 l 1.0429687,-0.0234375 1.0546875,0.0234375 v -0.24609375 h -0.1875 c -0.5625,0 -0.5625,-0.09375 -0.5625,-0.328125 V -1.1473516 Z M 2.3662969,-1.3934453 H 0.52645313 L 2.3662969,-3.9481328 Z m 7.8603511,1.39453124 v -0.24609375 c -0.4570308,0 -0.5273433,0 -0.5273433,-0.3046875 V -2.1082891 c 0,-0.609375 -0.2929688,-0.9609375 -1.0429688,-0.9609375 -0.5507812,0 -0.9257812,0.2929688 -1.1132812,0.6445313 -0.140625,-0.4921875 -0.515625,-0.6445313 -1.03125,-0.6445313 -0.5742188,0 -0.9375,0.3046875 -1.1367188,0.6679688 v -0.6679688 l -1.03125,0.070312 v 0.2578125 c 0.46875,0 0.5273438,0.046875 0.5273438,0.3867188 v 1.80468749 c 0,0.3046875 -0.070312,0.3046875 -0.5273438,0.3046875 v 0.24609375 c 0,0 0.5039063,-0.0234375 0.796875,-0.0234375 0.2578125,0 0.7382813,0.01171875 0.796875,0.0234375 v -0.24609375 c -0.4453125,0 -0.515625,0 -0.515625,-0.3046875 V -1.8036016 c 0,-0.7382812 0.5742188,-1.078125 1.03125,-1.078125 0.4921875,0 0.5507813,0.3867188 0.5507813,0.7382813 v 1.59374999 c 0,0.3046875 -0.070312,0.3046875 -0.515625,0.3046875 v 0.24609375 c 0,0 0.5039062,-0.0234375 0.796875,-0.0234375 0.2578125,0 0.7382812,0.01171875 0.796875,0.0234375 v -0.24609375 c -0.4570313,0 -0.5273438,0 -0.5273438,-0.3046875 V -1.8036016 c 0,-0.7382812 0.5859375,-1.078125 1.0429688,-1.078125 0.4921875,0 0.5507812,0.3867188 0.5507812,0.7382813 v 1.59374999 c 0,0.3046875 -0.070312,0.3046875 -0.5273437,0.3046875 v 0.24609375 c 0,0 0.5039062,-0.0234375 0.796875,-0.0234375 0.2578125,0 0.7382813,0.01171875 0.8085933,0.0234375 z m 0,0"
       style="fill:#000000;fill-opacity:1;fill-rule:nonzero;stroke:none"
       aria-label="4m"
       transform="matrix(1.3333333,0,0,1.3333333,228.884,127.54933)" />
    <path
       id="path14"
       d="M 212.54916,2.26787 V -2.26787"
       style="fill:none;stroke:#000000;stroke-width:0.3985;stroke-linecap:butt;stroke-linejoin:miter;stroke-miterlimit:10;stroke-dasharray:none;stroke-opacity:1"
       transform="matrix(1.3333333,0,0,-1.3333333,9.1786667,113.56533)" />
    <path
       id="path15"
       d="m 3.5155,-1.4054766 c 0,-0.7851562 -0.5976563,-1.5117187 -1.453125,-1.5117187 -0.3164063,0 -0.6796875,0.082031 -0.984375,0.3398437 v -1.3125 c 0.3632812,0.09375 0.5625,0.09375 0.6796875,0.09375 0.9140625,0 1.4648437,-0.6328125 1.4648437,-0.7382812 0,-0.070312 -0.046875,-0.09375 -0.082031,-0.09375 0,0 -0.035156,0 -0.058594,0.023437 -0.1640625,0.058594 -0.5390625,0.1992187 -1.0546875,0.1992187 -0.1992187,0 -0.5625,-0.011719 -1.0195312,-0.1875 -0.0703125,-0.035156 -0.0820313,-0.035156 -0.0820313,-0.035156 -0.09375,0 -0.09375,0.070312 -0.09375,0.1875 v 2.0625 c 0,0.1171875 0,0.1992187 0.10546875,0.1992187 0.0703124,0 0.0703124,-0.011719 0.14062495,-0.1054687 0.3046875,-0.375 0.7265625,-0.4335938 0.9726562,-0.4335938 0.421875,0 0.609375,0.3398438 0.6445313,0.3867188 0.1171875,0.234375 0.1640625,0.5039062 0.1640625,0.9023437 0,0.2109375 0,0.62109379 -0.2109375,0.92578129 -0.1757813,0.2578125 -0.46875,0.421875 -0.8203125,0.421875 -0.4453125,0 -0.91406245,-0.2578125 -1.0898437,-0.71484375 0.2695312,0.0234375 0.3984374,-0.15234375 0.3984374,-0.33984374 0,-0.3046875 -0.2578124,-0.3515625 -0.3515624,-0.3515625 0,0 -0.3515625,0 -0.3515625,0.375 0,0.62109374 0.5742187,1.25390624 1.4179687,1.25390624 0.890625,0 1.6640625,-0.66796875 1.6640626,-1.54687474 z M 10.224484,7.734375e-4 V -0.24532031 c -0.4570309,0 -0.5273434,0 -0.5273434,-0.3046875 V -2.1086016 c 0,-0.609375 -0.2929687,-0.9609375 -1.0429687,-0.9609375 -0.5507813,0 -0.9257813,0.2929688 -1.1132813,0.6445313 -0.140625,-0.4921875 -0.515625,-0.6445313 -1.03125,-0.6445313 -0.5742187,0 -0.9375,0.3046875 -1.1367187,0.6679688 v -0.6679688 l -1.03125,0.070312 v 0.2578125 c 0.46875,0 0.5273437,0.046875 0.5273437,0.3867188 v 1.80468749 c 0,0.3046875 -0.070312,0.3046875 -0.5273437,0.3046875 V 7.734375e-4 c 0,0 0.5039062,-0.0234374975 0.796875,-0.0234374975 0.2578125,0 0.7382812,0.01171875 0.796875,0.0234374975 V -0.24532031 c -0.4453125,0 -0.515625,0 -0.515625,-0.3046875 V -1.8039141 c 0,-0.7382812 0.5742187,-1.078125 1.03125,-1.078125 0.4921875,0 0.5507812,0.3867188 0.5507812,0.7382813 v 1.59374999 c 0,0.3046875 -0.070312,0.3046875 -0.515625,0.3046875 V 7.734375e-4 c 0,0 0.5039063,-0.0234374975 0.796875,-0.0234374975 0.2578125,0 0.7382813,0.01171875 0.796875,0.0234374975 V -0.24532031 c -0.4570312,0 -0.5273437,0 -0.5273437,-0.3046875 V -1.8039141 c 0,-0.7382812 0.5859375,-1.078125 1.0429687,-1.078125 0.4921875,0 0.5507813,0.3867188 0.5507813,0.7382813 v 1.59374999 c 0,0.3046875 -0.070312,0.3046875 -0.5273438,0.3046875 V 7.734375e-4 c 0,0 0.5039063,-0.0234374975 0.796875,-0.0234374975 0.2578125,0 0.7382814,0.01171875 0.8085934,0.0234374975 z m 0,0"
       style="fill:#000000;fill-opacity:1;fill-rule:nonzero;stroke:none"
       aria-label="5m"
       transform="matrix(1.3333333,0,0,1.3333333,285.56267,127.456)" />
    <path
       id="path16"
       d="M 0.19925,22.67752 H 46.26282 V 45.35504 H 0.19925 Z"
       style="fill:#fce4cc;fill-opacity:1;fill-rule:nonzero;stroke:#4c4c4c;stroke-width:0.3985;stroke-linecap:butt;stroke-linejoin:miter;stroke-miterlimit:10;stroke-dasharray:none;stroke-opacity:1"
       transform="matrix(1.3333333,0,0,-1.3333333,9.1786667,113.56533)" />
    <path
       id="path17"
       d="m 3.9964063,-2.4501641 c 0,-0.515625 -0.65625,-0.9492187 -1.453125,-0.9492187 H 0.4221875 v 0.2109375 h 0.15234375 c 0.3984375,0 0.3984375,0.058594 0.3984375,0.2109375 v 2.55468749 c 0,0.15234375 0,0.19921875 -0.3984375,0.19921875 H 0.4221875 V -9.453125e-4 L 1.2425,-0.02438281 2.0628125,-9.453125e-4 V -0.22360156 H 1.9104688 c -0.4101563,0 -0.4101563,-0.046875 -0.4101563,-0.19921875 V -1.5126641 h 1.0898438 c 0.6679687,0 1.40625,-0.3867187 1.40625,-0.9375 z m -0.5859375,0 c 0,0.4101563 -0.1875,0.75 -0.984375,0.75 h -0.9375 v -1.2890625 c 0,-0.1640625 0,-0.1992187 0.234375,-0.1992187 h 0.703125 c 0.8085937,0 0.984375,0.3515625 0.984375,0.7382812 z m 3.4628906,0.5859375 c 0,-0.1875 -0.1875,-0.3398437 -0.4453125,-0.3398437 -0.2460938,0 -0.5742188,0.1289062 -0.7617188,0.5507812 h -0.011719 v -0.5507812 l -0.796875,0.058594 V -1.92282 c 0.375,0 0.421875,0.023437 0.421875,0.2695312 v 1.23046879 c 0,0.15234375 0,0.19921875 -0.328125,0.19921875 h -0.09375 V -9.453125e-4 C 5.0686719,-0.01266406 5.2913281,-0.02438281 5.5022656,-0.02438281 L 6.2171094,-9.453125e-4 V -0.22360156 h -0.140625 c -0.375,0 -0.375,-0.046875 -0.375,-0.19921875 V -1.1142266 c 0,-0.46875 0.2578125,-0.9140625 0.7382812,-0.9257812 0,0 -0.070312,0.070313 -0.070312,0.1757812 0,0.1875 0.140625,0.2578125 0.2460938,0.2578125 0.1289062,0 0.2578125,-0.082031 0.257812,-0.2578125 z m 3.3691406,0.796875 c 0,-0.6210937 -0.5859375,-1.1601562 -1.359375,-1.1601562 -0.7851562,0 -1.3710937,0.5390625 -1.3710937,1.1601562 0,0.59765629 0.5859375,1.12500004 1.3710937,1.12500004 0.7734375,0 1.359375,-0.52734375 1.359375,-1.12500004 z m -0.4921875,-0.046875 c 0,0.24609379 0,0.98437504 -0.8671875,0.98437504 -0.8789062,0 -0.8789062,-0.73828125 -0.8789062,-0.98437504 0,-0.2226562 0,-0.9492187 0.8789062,-0.9492187 0.8671875,0 0.8671875,0.7265625 0.8671875,0.9492187 z m 3.9316405,-0.8085937 v -0.2226563 c -0.128906,0.011719 -0.257812,0.023437 -0.433594,0.023437 0,0 -0.328125,-0.011719 -0.515625,-0.023437 v 0.2226563 c 0.140625,0 0.222657,0.058594 0.222657,0.1757812 0,0.046875 -0.02344,0.09375 -0.02344,0.09375 l -0.632812,1.24218754 -0.679688,-1.33593754 c -0.01172,-0.011719 -0.02344,-0.046875 -0.02344,-0.082031 0,-0.09375 0.164062,-0.09375 0.269531,-0.09375 v -0.2226563 c -0.234375,0.011719 -0.597656,0.023437 -0.632813,0.023437 -0.199218,0 -0.339843,0 -0.550781,-0.023437 v 0.2226563 c 0.292969,0 0.363281,0 0.445313,0.140625 l 0.878906,1.72265624 c 0.03516,0.0703125 0.05859,0.1171875 0.175781,0.1171875 0.117188,0 0.140625,-0.0585937525 0.175781,-0.1171875 l 0.796875,-1.57031254 c 0.08203,-0.1640625 0.210938,-0.2929687 0.527344,-0.2929687 z m 1.910156,1.9218749875 V -0.22360156 c -0.339843,0 -0.375,0 -0.375,-0.19921875 V -2.2040703 l -0.820312,0.058594 V -1.92282 c 0.351562,0 0.398437,0.023437 0.398437,0.2695312 v 1.23046879 c 0,0.15234375 0,0.19921875 -0.328125,0.19921875 h -0.09375 V -9.453125e-4 C 14.584297,-0.01266406 14.795234,-0.02438281 14.994453,-0.02438281 c 0.1875,0 0.410156,0.01171875 0.597656,0.0234374975 z M 15.263984,-2.9892266 c 0,-0.1640625 -0.128906,-0.3046875 -0.304687,-0.3046875 -0.164063,0 -0.292969,0.140625 -0.292969,0.3046875 0,0.1640625 0.128906,0.3046875 0.292969,0.3046875 0.164062,0 0.304687,-0.140625 0.304687,-0.3046875 z m 3.084961,2.35546879 c 0,-0.22265625 -0.117187,-0.38671879 -0.316406,-0.50390629 -0.199219,-0.1289062 -0.339844,-0.140625 -0.761719,-0.2109375 -0.316406,-0.046875 -0.703125,-0.1054687 -0.703125,-0.375 0,-0.1757812 0.199219,-0.3632812 0.738282,-0.3632812 0.410156,0 0.65625,0.1640625 0.679687,0.515625 0.01172,0.070312 0.01172,0.1054687 0.105469,0.1054687 0.105469,0 0.105469,-0.035156 0.105469,-0.140625 v -0.4921875 c 0,-0.082031 0,-0.1289062 -0.08203,-0.1289062 -0.02344,0 -0.04687,0 -0.08203,0.035156 -0.02344,0.011719 -0.105469,0.09375 -0.128906,0.09375 0,0 -0.01172,0 -0.04687,-0.023437 -0.117188,-0.058594 -0.292969,-0.1054687 -0.550781,-0.1054687 -0.820313,0 -0.984375,0.375 -0.984375,0.5976562 0,0.46875 0.574218,0.5625 1.03125,0.63281254 0.292968,0.046875 0.75,0.1171875 0.75,0.45703125 0,0.17578125 -0.140625,0.43359375 -0.75,0.43359375 -0.339844,0 -0.667969,-0.12890625 -0.820313,-0.65625 -0.02344,-0.09375 -0.02344,-0.10546875 -0.105469,-0.10546875 -0.105468,0 -0.105468,0.0351563 -0.105468,0.140625 v 0.64453125 c 0,0.0820312475 0,0.140625 0.08203,0.140625 0.03516,0 0.03516,-0.01171875 0.128906,-0.10546875 l 0.140625,-0.1171875 c 0.246094,0.2109375 0.5625,0.22265625 0.679688,0.22265625 0.832031,0 0.996093,-0.43359375 0.996093,-0.69140625 z m 1.983399,0.6328124975 V -0.22360156 c -0.339844,0 -0.375,0 -0.375,-0.19921875 V -2.2040703 l -0.820313,0.058594 V -1.92282 c 0.351563,0 0.398438,0.023437 0.398438,0.2695312 v 1.23046879 c 0,0.15234375 0,0.19921875 -0.328125,0.19921875 h -0.09375 V -9.453125e-4 C 19.324531,-0.01266406 19.535469,-0.02438281 19.734688,-0.02438281 c 0.1875,0 0.410156,0.01171875 0.597656,0.0234374975 z M 20.004219,-2.9892266 c 0,-0.1640625 -0.128906,-0.3046875 -0.304688,-0.3046875 -0.164062,0 -0.292968,0.140625 -0.292968,0.3046875 0,0.1640625 0.128906,0.3046875 0.292968,0.3046875 0.164063,0 0.304688,-0.140625 0.304688,-0.3046875 z m 3.767578,1.921875 c 0,-0.6210937 -0.585938,-1.1601562 -1.359375,-1.1601562 -0.785156,0 -1.371094,0.5390625 -1.371094,1.1601562 0,0.59765629 0.585938,1.12500004 1.371094,1.12500004 0.773437,0 1.359375,-0.52734375 1.359375,-1.12500004 z m -0.492188,-0.046875 c 0,0.24609379 0,0.98437504 -0.867187,0.98437504 -0.878906,0 -0.878906,-0.73828125 -0.878906,-0.98437504 0,-0.2226562 0,-0.9492187 0.878906,-0.9492187 0.867187,0 0.867187,0.7265625 0.867187,0.9492187 z m 4.22461,1.1132812875 V -0.22360156 h -0.08203 c -0.328125,0 -0.328125,-0.046875 -0.328125,-0.19921875 V -1.5009453 c 0,-0.5507813 -0.375,-0.703125 -0.832032,-0.703125 -0.539062,0 -0.820312,0.2929687 -0.925781,0.4921875 v -0.4921875 l -0.820312,0.058594 V -1.92282 c 0.363281,0 0.410156,0.023437 0.410156,0.2695312 v 1.23046879 c 0,0.15234375 0,0.19921875 -0.316406,0.19921875 h -0.09375 V -9.453125e-4 C 24.726875,-0.01266406 24.937813,-0.02438281 25.14875,-0.02438281 c 0.210938,0 0.421875,0.01171875 0.632813,0.0234374975 V -0.22360156 h -0.08203 c -0.328125,0 -0.328125,-0.046875 -0.328125,-0.19921875 V -1.2900078 c 0,-0.5625 0.515625,-0.75 0.832032,-0.75 0.363281,0 0.445312,0.2109375 0.445312,0.5273437 v 1.08984379 c 0,0.15234375 0,0.19921875 -0.316406,0.19921875 h -0.09375 v 0.2226562475 c 0.210935,-0.0117187475 0.421873,-0.0234374975 0.63281,-0.0234374975 0.210938,0 0.421875,0.01171875 0.632813,0.0234374975 z m 0,0"
       style="fill:#000000;fill-opacity:1;fill-rule:nonzero;stroke:none"
       aria-label="Provision"
       transform="matrix(1.3333333,0,0,1.3333333,21.593333,70.442667)" />
    <path
       id="path18"
       d="M 46.64996,22.67929 H 174.21063 V 45.35681 H 46.64996 Z"
       style="fill:#d1e6f3;fill-opacity:1;fill-rule:nonzero;stroke:#4c4c4c;stroke-width:0.3985;stroke-linecap:butt;stroke-linejoin:miter;stroke-miterlimit:10;stroke-dasharray:none;stroke-opacity:1"
       transform="matrix(1.3333333,0,0,-1.3333333,9.1786667,113.56533)" />
    <path
       id="path19"
       d="M 5.4735,-6.09375e-4 V -0.22326562 H 5.3211563 c -0.3984375,0 -0.3984375,-0.046875 -0.3984375,-0.19921875 V -2.9771719 c 0,-0.1523437 0,-0.2109375 0.3984375,-0.2109375 H 5.4735 V -3.3990469 H 4.5125625 c -0.1054687,0 -0.1523437,0 -0.2109375,0.1054688 L 2.9539688,-0.46935937 1.6180313,-3.2818594 C 1.5594375,-3.3990469 1.5125625,-3.3990469 1.4070938,-3.3990469 H 0.44615625 v 0.2109375 H 0.5985 c 0.3984375,0 0.3984375,0.058594 0.3984375,0.2109375 v 2.42578128 c 0,0.12890625 0,0.328125 -0.55078125,0.328125 V -6.09375e-4 C 0.6688125,-0.01232812 0.89146875,-0.02404687 1.114125,-0.02404687 c 0.140625,0 0.4570313,0.01171875 0.6679688,0.023437495 V -0.22326562 c -0.5507813,0 -0.5507813,-0.19921875 -0.5507813,-0.328125 V -3.1529531 l 1.4414063,3.03515623 c 0.046875,0.08203125 0.082031,0.117187495 0.1523437,0.117187495 0.09375,0 0.1289063,-0.070312495 0.1523438,-0.117187495 L 4.4539688,-3.1881094 v 2.76562503 c 0,0.15234375 0,0.19921875 -0.3984375,0.19921875 H 3.9031875 V -6.09375e-4 L 4.6883438,-0.02404687 Z M 8.9803359,-1.0670156 c 0,-0.6210938 -0.5859375,-1.1601563 -1.359375,-1.1601563 -0.7851562,0 -1.3710937,0.5390625 -1.3710937,1.1601563 0,0.59765623 0.5859375,1.12499998 1.3710937,1.12499998 0.7734375,0 1.359375,-0.52734375 1.359375,-1.12499998 z m -0.4921875,-0.046875 c 0,0.24609373 0,0.98437498 -0.8671875,0.98437498 -0.8789062,0 -0.8789062,-0.73828125 -0.8789062,-0.98437498 0,-0.2226563 0,-0.9492188 0.8789062,-0.9492188 0.8671875,0 0.8671875,0.7265625 0.8671875,0.9492188 z M 12.835805,-6.09375e-4 V -0.22326562 c -0.363282,0 -0.410157,-0.0351563 -0.410157,-0.28125 V -3.4576406 l -0.84375,0.058594 v 0.2109375 c 0.375,0 0.421875,0.035156 0.421875,0.28125 v 0.9726563 c -0.117187,-0.09375 -0.386718,-0.2695313 -0.796875,-0.2695313 -0.75,0 -1.3593746,0.5039063 -1.3593746,1.1367188 0,0.59765623 0.5624996,1.12499998 1.3007816,1.12499998 0.410156,0 0.691406,-0.1875 0.832031,-0.3046875 v 0.3046875 z M 11.980336,-0.53967187 c -0.234375,0.36328125 -0.609375,0.43359375 -0.796875,0.43359375 -0.257813,0 -0.503906,-0.10546875 -0.667969,-0.328125 -0.164062,-0.19921875 -0.175781,-0.48046875 -0.175781,-0.63281248 0,-0.140625 0.01172,-0.46875 0.222656,-0.6914063 0.175781,-0.1875 0.433594,-0.28125 0.679688,-0.28125 0.140625,0 0.503906,0.035156 0.738281,0.375 z m 3.958008,-0.0585938 c 0,-0.0820313 -0.07031,-0.0820313 -0.09375,-0.0820313 -0.08203,0 -0.09375,0.0234375 -0.117188,0.09375 -0.140625,0.33984375 -0.515625,0.45703125 -0.785156,0.45703125 -0.410156,0 -0.632812,-0.22265625 -0.703125,-0.3046875 -0.199219,-0.234375 -0.199219,-0.55078125 -0.199219,-0.69140628 h 1.757813 c 0.105469,0 0.140625,0 0.140625,-0.1171875 0,-0.328125 -0.175781,-0.984375 -1.101563,-0.984375 -0.761718,0 -1.289062,0.5390625 -1.289062,1.125 0,0.63281253 0.597656,1.16015628 1.359375,1.16015628 0.796875,0 1.03125,-0.5625 1.03125,-0.65624995 z m -0.375,-0.67968753 h -1.511719 c 0.05859,-0.6562499 0.539063,-0.7851563 0.773438,-0.7851563 0.691406,0 0.726562,0.6445314 0.738281,0.7851563 z m 2.364258,1.277343775 V -0.22326562 h -0.09375 c -0.316407,0 -0.316407,-0.046875 -0.316407,-0.19921875 V -3.4576406 l -0.84375,0.058594 v 0.2109375 c 0.375,0 0.421875,0.035156 0.421875,0.28125 v 2.48437503 c 0,0.15234375 0,0.19921875 -0.328125,0.19921875 h -0.09375 v 0.222656245 c 0.210938,-0.011718745 0.421875,-0.023437495 0.621094,-0.023437495 0.210938,0 0.421875,0.01171875 0.632813,0.023437145 z M 25.134633,-1.6763906 c 0,-0.9257813 -0.832031,-1.7226563 -1.898438,-1.7226563 h -2.191406 v 0.2109375 c 0.117188,0 0.269531,0 0.375,0.011719 0.175781,0.023437 0.175781,0.082031 0.175781,0.2109375 v 2.53124998 c 0,0.12890625 0,0.1875 -0.175781,0.19921875 -0.105469,0.0117188 -0.269531,0.0117188 -0.375,0.0117188 v 0.222656245 h 2.191406 c 1.054688,0 1.898438,-0.749999995 1.898438,-1.675781475 z m -0.5625,0 c 0,0.4453125 -0.09375,0.80859373 -0.386719,1.07812498 -0.164062,0.1640625 -0.515625,0.375 -1.089844,0.375 h -0.738281 c -0.246094,0 -0.246094,-0.0234375 -0.246094,-0.19921875 V -2.9888906 c 0,-0.1640625 0,-0.1992188 0.246094,-0.1992188 h 0.738281 c 0.585938,0 0.949219,0.2578125 1.078125,0.3867188 0.1875,0.1757812 0.398438,0.4804687 0.398438,1.125 z m 4.110351,0.609375 c 0,-0.6210938 -0.585937,-1.1601563 -1.359375,-1.1601563 -0.785156,0 -1.371093,0.5390625 -1.371093,1.1601563 0,0.59765623 0.585937,1.12499998 1.371093,1.12499998 0.773438,0 1.359375,-0.52734375 1.359375,-1.12499998 z m -0.492187,-0.046875 c 0,0.24609373 0,0.98437498 -0.867188,0.98437498 -0.878906,0 -0.878906,-0.73828125 -0.878906,-0.98437498 0,-0.2226563 0,-0.9492188 0.878906,-0.9492188 0.867188,0 0.867188,0.7265625 0.867188,0.9492188 z m 5.15625,-0.8085938 v -0.2226562 c -0.140625,0.011719 -0.269531,0.023437 -0.433594,0.023437 -0.164062,0 -0.363281,-0.011719 -0.527344,-0.023437 v 0.2226562 c 0.210938,0 0.28125,0.1054688 0.28125,0.1992188 0,0.023437 -0.01172,0.058594 -0.02344,0.082031 L 32.104356,-0.39904707 31.5067,-1.7467033 c -0.02344,-0.058594 -0.02344,-0.070312 -0.02344,-0.070312 0,-0.1054688 0.1875,-0.1054688 0.292968,-0.1054688 v -0.2226562 c -0.1875,0.011719 -0.398437,0.023437 -0.585937,0.023437 -0.1875,0 -0.328125,-0.011719 -0.503906,-0.023437 v 0.2226562 c 0.09375,0 0.234375,0 0.292968,0.023437 0.05859,0.023437 0.128907,0.1171875 0.128907,0.1757813 0,0 -0.01172,0.046875 -0.02344,0.058594 l -0.515625,1.19531253 -0.5625,-1.27734373 c -0.01172,-0.011719 -0.03516,-0.046875 -0.03516,-0.070312 0,-0.1054688 0.199219,-0.1054688 0.304687,-0.1054688 V -2.14514 c -0.210937,0.011719 -0.421875,0.023437 -0.621093,0.023437 -0.175782,0 -0.375,-0.011719 -0.539063,-0.023437 v 0.2226562 c 0.257813,0 0.339844,0 0.410156,0.140625 l 0.75,1.71093753 c 0.04687,0.1171875 0.09375,0.12890625 0.164063,0.12890625 0.09375,0 0.128906,-0.0234375 0.164062,-0.1171875 l 0.621094,-1.40624998 0.621094,1.40624998 c 0.04687,0.09375 0.08203,0.1171875 0.164062,0.1171875 0.07031,0 0.128907,-0.01171875 0.175782,-0.12890625 L 32.866066,-1.629515 c 0.117188,-0.2695313 0.339844,-0.2929688 0.480469,-0.2929688 z m 3.670898,1.921875025 V -0.22326562 h -0.08203 c -0.328125,0 -0.328125,-0.046875 -0.328125,-0.19921875 V -1.5006094 c 0,-0.5507812 -0.375,-0.703125 -0.832031,-0.703125 -0.539063,0 -0.820313,0.2929688 -0.925781,0.4921875 v -0.4921875 l -0.820313,0.058594 v 0.2226562 c 0.363281,0 0.410156,0.023437 0.410156,0.2695313 v 1.23046873 c 0,0.15234375 0,0.19921875 -0.316406,0.19921875 h -0.09375 v 0.222656245 c 0.210938,-0.011718745 0.421875,-0.023437495 0.632813,-0.023437495 0.210937,0 0.421875,0.01171875 0.632812,0.023437495 V -0.22326562 h -0.08203 c -0.328125,0 -0.328125,-0.046875 -0.328125,-0.19921875 V -1.2896719 c 0,-0.5625 0.515625,-0.75 0.832031,-0.75 0.363281,0 0.445313,0.2109375 0.445313,0.5273438 v 1.08984373 c 0,0.15234375 0,0.19921875 -0.316407,0.19921875 h -0.09375 v 0.222656245 c 0.210938,-0.011718745 0.421875,-0.023437495 0.632813,-0.023437495 0.210937,0 0.421875,0.01171875 0.632812,0.023437495 z m 2.000977,0 V -0.22326562 h -0.09375 c -0.316406,0 -0.316406,-0.046875 -0.316406,-0.19921875 V -3.4576406 l -0.84375,0.058594 v 0.2109375 c 0.375,0 0.421875,0.035156 0.421875,0.28125 v 2.48437503 c 0,0.15234375 0,0.19921875 -0.328125,0.19921875 h -0.09375 v 0.222656245 c 0.210937,-0.011718745 0.421875,-0.023437495 0.621093,-0.023437495 0.210938,0 0.421875,0.01171875 0.632813,0.023437195 z M 42.419789,-1.0670156 c 0,-0.6210938 -0.585937,-1.1601563 -1.359375,-1.1601563 -0.785156,0 -1.371094,0.5390625 -1.371094,1.1601563 0,0.59765623 0.585938,1.12499998 1.371094,1.12499998 0.773438,0 1.359375,-0.52734375 1.359375,-1.12499998 z m -0.492187,-0.046875 c 0,0.24609373 0,0.98437498 -0.867188,0.98437498 -0.878906,0 -0.878906,-0.73828125 -0.878906,-0.98437498 0,-0.2226563 0,-0.9492188 0.878906,-0.9492188 0.867188,0 0.867188,0.7265625 0.867188,0.9492188 z m 3.990234,0.66796873 v -0.28125 h -0.210938 v 0.26953125 c 0,0.046875 0,0.26953125 -0.199218,0.26953125 -0.199219,0 -0.199219,-0.22265625 -0.199219,-0.26953125 V -1.4771719 c 0,-0.4804687 -0.503906,-0.75 -1.125,-0.75 -0.304688,0 -0.878906,0.011719 -0.878906,0.4335938 0,0.1875 0.140625,0.2695312 0.269531,0.2695312 0.128906,0 0.257812,-0.09375 0.257812,-0.2695312 0,-0.1171875 -0.07031,-0.1875 -0.117187,-0.2226563 0.164062,-0.046875 0.410156,-0.046875 0.46875,-0.046875 0.421875,0 0.679687,0.234375 0.679687,0.5859375 v 0.1289063 c -0.480468,0.023437 -0.75,0.046875 -1.136718,0.1757812 -0.328125,0.1171875 -0.609375,0.32812503 -0.609375,0.64453128 0,0.46875 0.574218,0.5859375 0.972656,0.5859375 0.386719,0 0.679687,-0.1640625 0.832031,-0.41015625 0.02344,0.17578125 0.140625,0.38671875 0.386719,0.38671875 0.03516,0 0.609375,0 0.609375,-0.48046875 z m -1.054688,-0.2578125 c 0,0.5390625 -0.597656,0.59765625 -0.714843,0.59765625 -0.292969,0 -0.574219,-0.1640625 -0.574219,-0.421875 0,-0.1640625 0.105469,-0.62109378 1.289062,-0.66796878 z m 4.634766,0.703124995 V -0.22326562 c -0.363281,0 -0.410156,-0.0351563 -0.410156,-0.28125 V -3.4576406 l -0.84375,0.058594 v 0.2109375 c 0.375,0 0.421875,0.035156 0.421875,0.28125 v 0.9726563 c -0.117188,-0.09375 -0.386719,-0.2695313 -0.796875,-0.2695313 -0.75,0 -1.359375,0.5039063 -1.359375,1.1367188 0,0.59765623 0.5625,1.12499998 1.300781,1.12499998 0.410156,0 0.691406,-0.1875 0.832031,-0.3046875 v 0.3046875 z M 48.642445,-0.53967187 c -0.234375,0.36328125 -0.609375,0.43359375 -0.796875,0.43359375 -0.257812,0 -0.503906,-0.10546875 -0.667968,-0.328125 -0.164063,-0.19921875 -0.175782,-0.48046875 -0.175782,-0.63281248 0,-0.140625 0.01172,-0.46875 0.222657,-0.6914063 0.175781,-0.1875 0.433593,-0.28125 0.679687,-0.28125 0.140625,0 0.503906,0.035156 0.738281,0.375 z m 5.800782,1.71093747 c 0,-0.035156 -0.02344,-0.046875 -0.04687,-0.058594 -0.878907,-0.70312502 -1.042969,-1.71093752 -1.042969,-2.3554688 0,-1.21875 0.574219,-2.0273437 1.066406,-2.3789062 0,0 0.02344,-0.023437 0.02344,-0.046875 0,-0.023437 -0.01172,-0.070312 -0.09375,-0.070312 -0.09375,0 -1.371094,0.796875 -1.371094,2.4960937 0,1.68750003 1.277344,2.484375 1.371094,2.484375 0.08203,0 0.09375,-0.046875 0.09375,-0.070312 z m 4.658203,-2.09765622 c 0,-0.35156248 -0.363282,-0.74999998 -1.171875,-0.85546878 0.503906,-0.082031 0.996093,-0.375 0.996093,-0.7734375 0,-0.4570312 -0.621093,-0.84375 -1.359375,-0.84375 h -2.203125 v 0.2109375 h 0.152344 c 0.398438,0 0.398438,0.058594 0.398438,0.2109375 v 2.55468753 c 0,0.15234375 0,0.19921875 -0.398438,0.19921875 h -0.152344 v 0.222656245 h 2.367188 c 0.761719,0 1.371094,-0.433593745 1.371094,-0.925781245 z M 58.386586,-2.5435781 c 0,0.3632812 -0.445313,0.6914062 -0.996094,0.6914062 h -0.984375 v -1.1367187 c 0,-0.1640625 0,-0.1992188 0.246094,-0.1992188 h 0.878906 c 0.527344,0 0.855469,0.328125 0.855469,0.6445313 z m 0.152344,1.61718748 c 0,0.375 -0.421875,0.703125 -0.996094,0.703125 h -0.890625 c -0.246094,0 -0.246094,-0.0351563 -0.246094,-0.1875 V -1.6881094 h 1.171875 c 0.667969,0 0.960938,0.4335938 0.960938,0.76171878 z m 2.677734,0.925781245 V -0.22326562 c -0.339844,0 -0.375,0 -0.375,-0.19921875 V -2.2037344 l -0.820312,0.058594 v 0.2226562 c 0.351562,0 0.398437,0.023437 0.398437,0.2695313 v 1.23046873 c 0,0.15234375 0,0.19921875 -0.328125,0.19921875 h -0.09375 v 0.222656245 c 0.210938,-0.011718745 0.421875,-0.023437495 0.621094,-0.023437495 0.1875,0 0.410156,0.01171875 0.597656,0.023437295 z M 60.888539,-2.9888906 c 0,-0.1640625 -0.128906,-0.3046875 -0.304687,-0.3046875 -0.164063,0 -0.292969,0.140625 -0.292969,0.3046875 0,0.1640625 0.128906,0.3046875 0.292969,0.3046875 0.164062,0 0.304687,-0.140625 0.304687,-0.3046875 z m 3.870117,1.0195312 c 0,-0.1289062 -0.105468,-0.2929687 -0.339843,-0.2929687 -0.128907,0 -0.386719,0.035156 -0.65625,0.234375 -0.105469,-0.070312 -0.339844,-0.1757813 -0.644532,-0.1757813 -0.585937,0 -0.996093,0.3515625 -0.996093,0.7382813 0,0.2460937 0.1875,0.4335937 0.257812,0.49218748 -0.117187,0.140625 -0.152344,0.29296875 -0.152344,0.41015625 0,0.2578125 0.175782,0.421875 0.222657,0.45703125 -0.257813,0.0703125 -0.539063,0.22265625 -0.539063,0.4921875 0,0.38671875 0.65625,0.64453122 1.382813,0.64453122 0.65625,0 1.371093,-0.22265622 1.371093,-0.65624997 0,-0.22265625 -0.128906,-0.46875 -0.375,-0.5859375 -0.328125,-0.15234375 -0.644531,-0.15234375 -1.183593,-0.15234375 -0.117188,0 -0.339844,0 -0.363282,-0.0117188 -0.246093,-0.0351563 -0.292968,-0.234375 -0.292968,-0.328125 0,-0.09375 0.04687,-0.17578125 0.05859,-0.17578125 0,0 0.02344,0 0.03516,0.0117188 0.199218,0.10546875 0.398437,0.12890625 0.574218,0.12890625 0.585938,0 0.996094,-0.35156248 0.996094,-0.72656248 0,-0.2460938 -0.164062,-0.421875 -0.222656,-0.46875 0.234375,-0.1523438 0.457031,-0.1523438 0.539062,-0.1640625 -0.01172,0.023437 -0.04687,0.058594 -0.04687,0.1289062 0,0.09375 0.07031,0.1757813 0.1875,0.1757813 0.117188,0 0.1875,-0.082031 0.1875,-0.1757813 z m -1.089843,0.5039063 c 0,0.2695312 -0.117188,0.56249998 -0.550782,0.56249998 -0.433593,0 -0.5625,-0.29296878 -0.5625,-0.56249998 0,-0.28125 0.128907,-0.5742188 0.5625,-0.5742188 0.433594,0 0.550782,0.2929688 0.550782,0.5742188 z m 0.65625,1.85156248 c 0,0.24609375 -0.445313,0.48046875 -1.03125,0.48046875 -0.574219,0 -1.042969,-0.22265625 -1.042969,-0.4921875 0,-0.15234375 0.175781,-0.36328125 0.550781,-0.36328125 h 0.316406 c 0.503907,0 1.207032,0 1.207032,0.375 z m 1.96289,-3.66796878 c 0,-0.1757812 -0.152344,-0.28125 -0.304687,-0.28125 -0.140625,0 -0.292969,0.1054688 -0.292969,0.28125 0,0.023437 0,0.09375 0,0.1289063 l 0.1875,2.0507812 c 0.01172,0.070312 0.01172,0.11718753 0.105469,0.11718753 0.105468,0 0.105468,-0.046875 0.117187,-0.11718753 z m 0,2.97656253 c 0,-0.1640625 -0.128906,-0.3046875 -0.304687,-0.3046875 -0.164063,0 -0.292969,0.140625 -0.292969,0.3046875 0,0.17578125 0.128906,0.304687495 0.292969,0.304687495 0.164062,0 0.304687,-0.128906245 0.304687,-0.304687495 z M 68.93932,-1.2427969 c 0,-1.6875 -1.277343,-2.4960937 -1.382812,-2.4960937 -0.07031,0 -0.07031,0.070312 -0.07031,0.070312 0,0 0,0.035156 0.02344,0.070312 0.75,0.5859375 1.042969,1.453125 1.042969,2.3554687 0,0.44531253 -0.08203,0.91406253 -0.246094,1.32421878 -0.246094,0.5625 -0.550781,0.84375 -0.796875,1.04296872 -0.01172,0 -0.02344,0.035156 -0.02344,0.046875 0,0 0,0.070312 0.07031,0.070312 0.105469,0 1.382812,-0.79687497 1.382812,-2.484375 z m 0,0"
       style="fill:#000000;fill-opacity:1;fill-rule:nonzero;stroke:none"
       aria-label="ModelDownload(Big!)"
       transform="matrix(1.3333333,0,0,1.3333333,109.952,69.868)" />
    <path
       id="path20"
       d="m 174.56657,22.68108 h 31.89015 V 45.3586 h -31.89015 z"
       style="fill:#d4efdf;fill-opacity:1;fill-rule:nonzero;stroke:#4c4c4c;stroke-width:0.3985;stroke-linecap:butt;stroke-linejoin:miter;stroke-miterlimit:10;stroke-dasharray:none;stroke-opacity:1"
       transform="matrix(1.3333333,0,0,-1.3333333,9.1786667,113.56533)" />
    <path
       id="path21"
       d="M 3.7387578,-1.3481641 H 3.5278203 c -0.070312,0.57421879 -0.2109375,1.12500004 -1.171875,1.12500004 H 1.7348516 c -0.234375,0 -0.234375,-0.0351563 -0.234375,-0.1875 V -2.9770703 c 0,-0.1523438 0,-0.2109375 0.46875,-0.2109375 h 0.2226562 v -0.2109375 c -0.28125,0.011719 -0.65625,0.011719 -0.9375,0.011719 l -0.84374999,-0.011719 v 0.2109375 h 0.15234375 c 0.3984375,0 0.3984375,0.058594 0.3984375,0.2109375 v 2.55468749 c 0,0.15234375 0,0.19921875 -0.3984375,0.19921875 H 0.41063281 V -5.078125e-4 H 3.5746953 Z m 3.459961,0.28125 c 0,-0.6210937 -0.5859375,-1.1601562 -1.359375,-1.1601562 -0.7851563,0 -1.3710938,0.5390625 -1.3710938,1.1601562 0,0.59765629 0.5859375,1.12500004 1.3710938,1.12500004 0.7734375,0 1.359375,-0.52734375 1.359375,-1.12500004 z m -0.4921875,-0.046875 c 0,0.24609379 0,0.98437504 -0.8671875,0.98437504 -0.8789063,0 -0.8789063,-0.73828125 -0.8789063,-0.98437504 0,-0.2226562 0,-0.9492187 0.8789063,-0.9492187 0.8671875,0 0.8671875,0.7265625 0.8671875,0.9492187 z m 3.9902347,0.66796879 v -0.28125 h -0.210938 v 0.26953125 c 0,0.046875 0,0.26953125 -0.199219,0.26953125 -0.199218,0 -0.199218,-0.22265625 -0.199218,-0.26953125 V -1.4770703 c 0,-0.4804688 -0.5039066,-0.75 -1.1250004,-0.75 -0.3046875,0 -0.8789062,0.011719 -0.8789062,0.4335937 0,0.1875 0.140625,0.2695313 0.2695312,0.2695313 0.1289063,0 0.2578125,-0.09375 0.2578125,-0.2695313 0,-0.1171875 -0.070312,-0.1875 -0.1171875,-0.2226562 0.1640625,-0.046875 0.4101563,-0.046875 0.46875,-0.046875 0.421875,0 0.6796875,0.234375 0.6796875,0.5859375 v 0.1289062 c -0.4804687,0.023437 -0.75,0.046875 -1.1367187,0.1757813 -0.328125,0.1171875 -0.609375,0.32812499 -0.609375,0.64453124 0,0.46875 0.5742187,0.5859375 0.9726562,0.5859375 0.3867188,0 0.6796875,-0.1640625 0.8320313,-0.41015625 0.023437,0.17578125 0.140625,0.38671875 0.3867191,0.38671875 0.03516,0 0.609375,0 0.609375,-0.48046875 z m -1.0546879,-0.2578125 c 0,0.5390625 -0.5976562,0.59765625 -0.7148437,0.59765625 -0.2929688,0 -0.5742188,-0.1640625 -0.5742188,-0.421875 0,-0.1640625 0.1054688,-0.62109374 1.2890625,-0.66796874 z M 14.276844,-5.078125e-4 V -0.22316406 c -0.363281,0 -0.410156,-0.0351563 -0.410156,-0.28125 V -3.4575391 l -0.84375,0.058594 v 0.2109375 c 0.375,0 0.421875,0.035156 0.421875,0.28125 v 0.9726562 c -0.117188,-0.09375 -0.386719,-0.2695312 -0.796875,-0.2695312 -0.75,0 -1.359375,0.5039062 -1.359375,1.1367187 0,0.59765629 0.5625,1.12500004 1.300781,1.12500004 0.410156,0 0.691406,-0.1875 0.832031,-0.3046875 v 0.3046875 z M 13.421375,-0.53957031 C 13.187,-0.17628906 12.812,-0.10597656 12.6245,-0.10597656 c -0.257812,0 -0.503906,-0.10546875 -0.667969,-0.328125 -0.164062,-0.19921875 -0.175781,-0.48046875 -0.175781,-0.63281254 0,-0.140625 0.01172,-0.46875 0.222656,-0.6914062 0.175782,-0.1875 0.433594,-0.28125 0.679688,-0.28125 0.140625,0 0.503906,0.035156 0.738281,0.375 z m 0,0"
       style="fill:#000000;fill-opacity:1;fill-rule:nonzero;stroke:none"
       aria-label="Load"
       transform="matrix(1.3333333,0,0,1.3333333,253.41733,70.473333)" />
    <path
       id="path22"
       d="m 206.8048,22.68285 h 17.71674 V 45.36037 H 206.8048 Z"
       style="fill:#f5d2d5;fill-opacity:1;fill-rule:nonzero;stroke:#4c4c4c;stroke-width:0.3985;stroke-linecap:butt;stroke-linejoin:miter;stroke-miterlimit:10;stroke-dasharray:none;stroke-opacity:1"
       transform="matrix(1.3333333,0,0,-1.3333333,9.1786667,113.56533)" />
    <path
       id="path23"
       d="m 6.3396172,-3.1876719 v -0.2109375 c -0.234375,0.011719 -0.515625,0.011719 -0.5273438,0.011719 -0.2226562,0 -0.5273437,0 -0.6796875,-0.011719 v 0.2109375 c 0.2578125,0 0.4453125,0.09375 0.4453125,0.234375 0,0.035156 -0.023437,0.09375 -0.023437,0.09375 L 4.6403984,-0.57439062 3.6794609,-2.9767344 c -0.023437,-0.058594 -0.023437,-0.070312 -0.023437,-0.082031 0,-0.1289063 0.2929688,-0.1289063 0.4335938,-0.1289063 v -0.2109375 l -0.796875,0.011719 c -0.2226563,0 -0.4453125,0 -0.6796875,-0.011719 v 0.2109375 h 0.1054687 c 0.2695313,0 0.3046875,0.035156 0.3398438,0.070312 0.035156,0.023437 0.09375,0.1992188 0.1289062,0.2929688 l -0.023437,0.070312 -0.8671875,2.17968748 -0.9726562,-2.41406248 c -0.011719,-0.046875 -0.023437,-0.058594 -0.023437,-0.070312 0,-0.1289063 0.3046875,-0.1289063 0.4453125,-0.1289063 v -0.2109375 l -0.79687501,0.011719 c -0.234375,0 -0.45703125,0 -0.6796875,-0.011719 v 0.2109375 h 0.09375 c 0.33984375,0 0.36328125,0.058594 0.41015625,0.1875 l 1.19531246,2.97656253 c 0.035156,0.08203125 0.046875,0.12890625 0.1640625,0.12890625 0.1054688,0 0.1289063,-0.03515625 0.1640625,-0.1171875 l 1.0078125,-2.53124998 1.0078125,2.53124998 c 0.035156,0.08203125 0.058594,0.1171875 0.1640625,0.1171875 0.1171875,0 0.1289063,-0.046875 0.1640625,-0.12890625 l 1.148436,-2.84765593 c 0.046875,-0.1171875 0.1171875,-0.3164063 0.5507813,-0.3164063 z m 2.9208984,2.74218753 v -0.28125 H 9.0495781 v 0.26953125 c 0,0.046875 0,0.26953125 -0.1992187,0.26953125 -0.1992188,0 -0.1992188,-0.22265625 -0.1992188,-0.26953125 V -1.4767344 c 0,-0.4804687 -0.5039062,-0.75 -1.125,-0.75 -0.3046875,0 -0.8789062,0.011719 -0.8789062,0.4335938 0,0.1875 0.140625,0.2695312 0.2695312,0.2695312 0.1289063,0 0.2578125,-0.09375 0.2578125,-0.2695312 0,-0.1171875 -0.070312,-0.1875 -0.1171875,-0.2226563 0.1640625,-0.046875 0.4101563,-0.046875 0.46875,-0.046875 0.421875,0 0.6796875,0.234375 0.6796875,0.5859375 v 0.1289063 c -0.4804687,0.023437 -0.75,0.046875 -1.1367187,0.1757812 -0.328125,0.1171875 -0.609375,0.32812503 -0.609375,0.64453128 0,0.46875 0.5742187,0.5859375 0.9726562,0.5859375 0.3867188,0 0.6796875,-0.1640625 0.8320313,-0.41015625 0.023437,0.17578125 0.140625,0.38671875 0.3867187,0.38671875 0.035156,0 0.609375,0 0.609375,-0.48046875 z m -1.0546875,-0.2578125 c 0,0.5390625 -0.5976562,0.59765625 -0.7148437,0.59765625 -0.2929688,0 -0.5742188,-0.1640625 -0.5742188,-0.421875 0,-0.1640625 0.1054688,-0.62109378 1.2890625,-0.66796878 z M 11.879656,-1.8634531 c 0,-0.1875 -0.1875,-0.3398438 -0.445312,-0.3398438 -0.246094,0 -0.574219,0.1289063 -0.761719,0.5507813 h -0.01172 v -0.5507813 l -0.7968748,0.058594 v 0.2226562 c 0.3749998,0 0.4218748,0.023437 0.4218748,0.2695313 v 1.23046873 c 0,0.15234375 0,0.19921875 -0.3281248,0.19921875 h -0.09375 V -1.71875e-4 C 10.074969,-0.01189062 10.297625,-0.02360937 10.508562,-0.02360937 l 0.714844,0.023437495 V -0.22282812 h -0.140625 c -0.375,0 -0.375,-0.046875 -0.375,-0.19921875 V -1.1134531 c 0,-0.46875 0.257813,-0.9140625 0.738281,-0.9257813 0,0 -0.07031,0.070312 -0.07031,0.1757813 0,0.1875 0.140625,0.2578125 0.246094,0.2578125 0.128906,0 0.257812,-0.082031 0.257812,-0.2578125 z m 5.44336,1.863281225 V -0.22282812 h -0.08203 c -0.328125,0 -0.328125,-0.046875 -0.328125,-0.19921875 V -1.5001719 c 0,-0.6210937 -0.46875,-0.703125 -0.84375,-0.703125 -0.492187,0 -0.773437,0.2460938 -0.914062,0.46875 -0.117188,-0.4570312 -0.632813,-0.46875 -0.808594,-0.46875 -0.515625,0 -0.808594,0.28125 -0.925781,0.4921875 v -0.4921875 l -0.820313,0.058594 v 0.2226562 c 0.363282,0 0.410157,0.023437 0.410157,0.2695313 v 1.23046873 c 0,0.15234375 0,0.19921875 -0.316407,0.19921875 h -0.09375 v 0.222656245 c 0.210938,-0.011718745 0.421875,-0.023437495 0.632813,-0.023437495 0.210937,0 0.421875,0.01171875 0.632812,0.023437495 V -0.22282812 h -0.08203 c -0.328125,0 -0.328125,-0.046875 -0.328125,-0.19921875 V -1.2892344 c 0,-0.5507812 0.503906,-0.75 0.832031,-0.75 0.363282,0 0.457032,0.2109375 0.457032,0.5273438 v 1.08984373 c 0,0.15234375 0,0.19921875 -0.328125,0.19921875 h -0.09375 v 0.222656245 c 0.222656,-0.011718745 0.421875,-0.023437495 0.644531,-0.023437495 0.210937,0 0.421875,0.01171875 0.632812,0.023437495 V -0.22282812 h -0.09375 c -0.328125,0 -0.328125,-0.046875 -0.328125,-0.19921875 V -1.2892344 c 0,-0.5507812 0.515625,-0.75 0.832032,-0.75 0.363281,0 0.457031,0.2109375 0.457031,0.5273438 v 1.08984373 c 0,0.15234375 0,0.19921875 -0.328125,0.19921875 h -0.08203 v 0.222656245 c 0.210937,-0.011718745 0.421875,-0.023437495 0.632812,-0.023437495 0.210938,0 0.421875,0.01171875 0.632813,0.023437495 z m 0,0"
       style="fill:#000000;fill-opacity:1;fill-rule:nonzero;stroke:none"
       aria-label="Warm"
       transform="matrix(1.3333333,0,0,1.3333333,284.95733,70.398667)" />
    <path
       id="path24"
       d="m 0,50.33644 c 0.74718,1.49443 2.49069,2.49069 4.98138,2.49069 h 102.3702 c 2.49069,0 4.2342,0.99627 4.98138,2.4907 0.74718,-1.49443 2.49069,-2.4907 4.98139,-2.4907 h 102.37019 c 2.49069,0 4.23421,-0.99626 4.98138,-2.49069"
       style="fill:none;stroke:#000000;stroke-width:0.3985;stroke-linecap:butt;stroke-linejoin:miter;stroke-miterlimit:10;stroke-dasharray:none;stroke-opacity:1"
       transform="matrix(1.3333333,0,0,-1.3333333,9.1786667,113.56533)" />
    <path
       id="path25"
       d="M 7.5340391,-4.3247266 7.3348203,-6.7270703 H 0.63169531 l -0.2109375,2.4023437 h 0.46875 c 0.0820313,-1.125 0.18749999,-1.9335937 1.61718749,-1.9335937 h 0.7734375 v 5.78906249 H 1.7566953 V -5.078125e-4 C 2.2957578,-0.03566406 3.3973203,-0.03566406 3.9832578,-0.03566406 c 0.5859375,0 1.6992188,0 2.2265625,0.0351562475 V -0.46925781 H 4.6863828 V -6.2583203 h 0.7617188 c 1.4296875,0 1.5234375,0.796875 1.6289062,1.9335937 z m 4.8808589,2.15625 c 0,-1.3359375 -0.914062,-2.34375 -2.5429683,-2.34375 -1.6289063,0 -2.5429688,1.0195313 -2.5429688,2.34375 0,1.23046879 0.8789063,2.22656254 2.5429688,2.22656254 1.6757813,0 2.5429683,-1.0078125 2.5429683,-2.22656254 z m -1.277343,-0.1171875 c 0,0.8671875 0,1.94531254 -1.2656253,1.94531254 -1.265625,0 -1.265625,-1.07812504 -1.265625,-1.94531254 0,-0.4453125 0,-0.9492187 0.1640625,-1.2890625 0.1992187,-0.375 0.609375,-0.5742187 1.1015625,-0.5742187 0.4218753,0 0.8320313,0.1523437 1.0546873,0.5039062 0.210938,0.3398438 0.210938,0.890625 0.210938,1.359375 z m 5.414062,1.0546875 v -0.5273437 h -0.46875 v 0.5039062 c 0,0.67968754 -0.316406,0.91406254 -0.597656,0.91406254 -0.585938,0 -0.585938,-0.6328125 -0.585938,-0.86718754 v -2.7421875 h 1.464844 v -0.46875 h -1.464844 v -1.9101562 h -0.457031 c -0.01172,0.9960937 -0.503906,1.9804687 -1.488281,2.015625 v 0.3632812 h 0.820312 v 2.71875 c 0,1.06640629 0.867188,1.28906254 1.570313,1.28906254 0.75,0 1.207031,-0.5625 1.207031,-1.28906254 z m 6.152344,0.99609379 c 0,-0.234375 -0.128906,-0.234375 -0.257813,-0.234375 -0.609375,-0.0117188 -0.609375,-0.140625 -0.609375,-0.36328125 V -2.9770703 c 0,-0.890625 -0.703125,-1.5351563 -2.191406,-1.5351563 -0.5625,0 -1.78125,0.035156 -1.78125,0.9140625 0,0.4453125 0.351563,0.6328125 0.621094,0.6328125 0.304687,0 0.621094,-0.2109375 0.621094,-0.6328125 0,-0.2929687 -0.1875,-0.46875 -0.210938,-0.4921875 0.269531,-0.058594 0.597656,-0.058594 0.714844,-0.058594 0.738281,0 1.089844,0.4101562 1.089844,1.171875 v 0.3398437 c -0.703125,0.023437 -3.234375,0.1171875 -3.234375,1.5585938 0,0.96093749 1.230468,1.13671874 1.921875,1.13671874 0.796875,0 1.265625,-0.41015625 1.488281,-0.8203125 0,0.3046875 0,0.7617187475 1.03125,0.7617187475 h 0.480469 c 0.199218,0 0.316406,0 0.316406,-0.2343746975 z M 20.700055,-1.3833203 c 0,0.94921874 -0.914063,1.07812499 -1.160157,1.07812499 -0.515625,0 -0.914062,-0.33984375 -0.914062,-0.78515629 0,-1.0664062 1.582031,-1.2070312 2.074219,-1.2421875 z m 4.983398,1.3828124875 V -0.46925781 H 24.992047 V -6.9145703 l -1.757813,0.082031 v 0.46875 c 0.621094,0 0.691407,0 0.691407,0.3867188 v 5.50781249 H 23.234234 V -5.078125e-4 L 24.464703,-0.03566406 Z M 37.387555,-2.2622266 c 0,-0.1992187 -0.07031,-0.2109375 -0.234375,-0.2109375 -0.128907,0 -0.222657,0 -0.234375,0.1757813 -0.07031,1.33593749 -1.277344,1.93359374 -2.273438,1.93359374 -0.785156,0 -1.617187,-0.234375 -2.132812,-0.84375004 -0.46875,-0.5625 -0.597657,-1.3125 -0.597657,-2.2148437 0,-0.5507813 0.03516,-1.6289063 0.667969,-2.2851563 0.644531,-0.65625 1.511719,-0.7734375 2.027344,-0.7734375 1.078125,0 2.027344,0.7617188 2.238281,2.0273438 0.03516,0.1875 0.04687,0.2109375 0.269531,0.2109375 0.257813,0 0.269532,-0.023437 0.269532,-0.28125 v -2.1445313 c 0,-0.1875 0,-0.2695312 -0.175782,-0.2695312 -0.09375,0 -0.117187,0.011719 -0.1875,0.082031 l -0.65625,0.5859375 c -0.621093,-0.4921875 -1.289062,-0.6679687 -1.96875,-0.6679687 -2.484375,0 -4.007812,1.4765625 -4.007812,3.515625 0,2.0507812 1.523437,3.52734374 4.007812,3.52734374 1.863282,0 2.988282,-1.21875004 2.988282,-2.36718734 z m 6.052734,0.09375 c 0,-1.3359375 -0.914062,-2.34375 -2.542969,-2.34375 -1.628906,0 -2.542968,1.0195313 -2.542968,2.34375 0,1.23046879 0.878906,2.22656254 2.542968,2.22656254 1.675782,0 2.542969,-1.0078125 2.542969,-2.22656254 z m -1.277344,-0.1171875 c 0,0.8671875 0,1.94531254 -1.265625,1.94531254 -1.265625,0 -1.265625,-1.07812504 -1.265625,-1.94531254 0,-0.4453125 0,-0.9492187 0.164063,-1.2890625 0.199219,-0.375 0.609375,-0.5742187 1.101562,-0.5742187 0.421875,0 0.832032,0.1523437 1.054688,0.5039062 0.210937,0.3398438 0.210937,0.890625 0.210937,1.359375 z m 4.520508,2.2851562875 V -0.46925781 H 45.992047 V -6.9145703 l -1.757813,0.082031 v 0.46875 c 0.621094,0 0.691407,0 0.691407,0.3867188 v 5.50781249 H 44.234234 V -5.078125e-4 L 45.464703,-0.03566406 Z m 6.249024,0 V -0.46925781 c -0.621094,0 -0.691407,0 -0.691407,-0.38671875 V -6.9145703 l -1.757812,0.082031 v 0.46875 c 0.609375,0 0.679687,0 0.679687,0.3867188 v 1.9453125 c -0.492187,-0.3867188 -1.007812,-0.4570313 -1.335937,-0.4570313 -1.453125,0 -2.507813,0.8789063 -2.507813,2.2851563 0,1.31249999 0.925782,2.26171874 2.390625,2.26171874 0.609375,0 1.089844,-0.234375 1.394532,-0.4921875 v 0.4921875 z M 51.104352,-1.0317578 c -0.128907,0.18749999 -0.539063,0.72656249 -1.289063,0.72656249 -1.21875,0 -1.21875,-1.19531249 -1.21875,-1.89843749 0,-0.4804688 0,-1.0195313 0.257813,-1.40625 0.292968,-0.4101563 0.761718,-0.515625 1.066406,-0.515625 0.574219,0 0.972656,0.3164062 1.183594,0.609375 z m 11.739257,-0.9960938 c 0,-1.1015625 -0.808593,-1.9101562 -1.710937,-2.0976562 l -1.453125,-0.3046875 c -0.398438,-0.09375 -0.949219,-0.4335938 -0.949219,-1.0429688 0,-0.421875 0.28125,-1.0429687 1.277344,-1.0429687 0.796875,0 1.804687,0.3398437 2.027344,1.6992187 0.03516,0.234375 0.03516,0.2578125 0.246093,0.2578125 0.246094,0 0.246094,-0.058594 0.246094,-0.28125 v -1.828125 c 0,-0.1875 0,-0.2695312 -0.1875,-0.2695312 -0.07031,0 -0.08203,0 -0.199219,0.1054687 l -0.445312,0.4335938 c -0.574219,-0.4570313 -1.21875,-0.5390625 -1.699219,-0.5390625 -1.511719,0 -2.238281,0.9492187 -2.238281,1.9921875 0,0.65625 0.328125,1.1132812 0.539062,1.3242187 0.492188,0.4921875 0.832032,0.5625 1.921875,0.796875 0.867188,0.1992188 1.042969,0.2226563 1.253907,0.4335938 0.152343,0.1523437 0.398437,0.4101562 0.398437,0.8671875 0,0.4804687 -0.257812,1.16015624 -1.289062,1.16015624 -0.761719,0 -2.273438,-0.19921875 -2.355469,-1.67578124 0,-0.1875 0,-0.234375 -0.222656,-0.234375 -0.246094,0 -0.246094,0.058594 -0.246094,0.2929687 v 1.81640629 c 0,0.1875 0,0.26953125 0.1875,0.26953125 0.08203,0 0.105469,-0.01171875 0.1875,-0.08203125 l 0.457031,-0.45703125 c 0.65625,0.48046875 1.582031,0.5390625 1.992188,0.5390625 1.640625,0 2.261718,-1.12500004 2.261718,-2.13281254 z m 4.456055,0.796875 v -0.5273437 h -0.46875 v 0.5039062 c 0,0.67968754 -0.316406,0.91406254 -0.597656,0.91406254 -0.585938,0 -0.585938,-0.6328125 -0.585938,-0.86718754 v -2.7421875 h 1.464844 v -0.46875 H 65.64732 v -1.9101562 h -0.457031 c -0.01172,0.9960937 -0.503906,1.9804687 -1.488281,2.015625 v 0.3632812 h 0.820312 v 2.71875 c 0,1.06640629 0.867188,1.28906254 1.570313,1.28906254 0.75,0 1.207031,-0.5625 1.207031,-1.28906254 z m 6.152344,0.99609379 c 0,-0.234375 -0.128906,-0.234375 -0.257813,-0.234375 -0.609375,-0.0117188 -0.609375,-0.140625 -0.609375,-0.36328125 V -2.9770703 c 0,-0.890625 -0.703125,-1.5351563 -2.191406,-1.5351563 -0.5625,0 -1.78125,0.035156 -1.78125,0.9140625 0,0.4453125 0.351563,0.6328125 0.621094,0.6328125 0.304687,0 0.621094,-0.2109375 0.621094,-0.6328125 0,-0.2929687 -0.1875,-0.46875 -0.210938,-0.4921875 0.269531,-0.058594 0.597656,-0.058594 0.714844,-0.058594 0.738281,0 1.089844,0.4101562 1.089844,1.171875 v 0.3398437 c -0.703125,0.023437 -3.234375,0.1171875 -3.234375,1.5585938 0,0.96093749 1.230468,1.13671874 1.921875,1.13671874 0.796875,0 1.265625,-0.41015625 1.488281,-0.8203125 0,0.3046875 0,0.7617187475 1.03125,0.7617187475 h 0.480469 c 0.199218,0 0.316406,0 0.316406,-0.2343746975 z M 71.448102,-1.3833203 c 0,0.94921874 -0.914063,1.07812499 -1.160157,1.07812499 -0.515625,0 -0.914062,-0.33984375 -0.914062,-0.78515629 0,-1.0664062 1.582031,-1.2070312 2.074219,-1.2421875 z m 6.471679,-2.2851563 c 0,-0.5273437 -0.539062,-0.8203125 -1.054687,-0.8203125 -0.703125,0 -1.101563,0.5039063 -1.324219,1.1367188 v -1.1367188 l -1.664063,0.082031 v 0.46875 c 0.621094,0 0.691407,0 0.691407,0.3867187 v 3.08203129 H 73.876812 V -5.078125e-4 L 75.142437,-0.03566406 c 0.375,0 1.007813,0 1.371094,0.0351562475 V -0.46925781 H 75.646344 V -2.2153516 c 0,-0.6914062 0.246093,-1.9101562 1.242187,-1.9101562 0,0 -0.1875,0.1757812 -0.1875,0.4570312 0,0.4101563 0.316406,0.609375 0.609375,0.609375 0.292969,0 0.609375,-0.2109375 0.609375,-0.609375 z m 4.125,2.4375 v -0.5273437 h -0.46875 v 0.5039062 c 0,0.67968754 -0.316406,0.91406254 -0.597656,0.91406254 -0.585938,0 -0.585938,-0.6328125 -0.585938,-0.86718754 v -2.7421875 h 1.464844 v -0.46875 h -1.464844 v -1.9101562 h -0.457031 c -0.01172,0.9960937 -0.503906,1.9804687 -1.488281,2.015625 v 0.3632812 h 0.820312 v 2.71875 c 0,1.06640629 0.867188,1.28906254 1.570313,1.28906254 0.75,0 1.207031,-0.5625 1.207031,-1.28906254 z m 3,-2.4140625 c 0,-0.4335937 -0.339844,-0.7734375 -0.773437,-0.7734375 -0.421875,0 -0.773438,0.3398438 -0.773438,0.7734375 0,0.421875 0.351563,0.7734375 0.773438,0.7734375 0.433593,0 0.773437,-0.3515625 0.773437,-0.7734375 z m 0,2.87109379 c 0,-0.43359379 -0.339844,-0.78515629 -0.773437,-0.78515629 -0.421875,0 -0.773438,0.3515625 -0.773438,0.78515629 0,0.421875 0.351563,0.7734374975 0.773438,0.7734374975 0.433593,0 0.773437,-0.3515624975 0.773437,-0.7734374975 z M 98.881695,-2.4966016 c 0,-0.1875 -0.128906,-0.2578125 -0.246093,-0.3164062 l -6.199219,-2.9648438 c -0.140625,-0.070312 -0.199219,-0.070312 -0.234375,-0.070312 -0.152344,0 -0.292969,0.140625 -0.292969,0.3046875 0,0.1523438 0.08203,0.234375 0.246094,0.3164063 l 5.730469,2.7304687 -5.730469,2.73046879 c -0.175781,0.0820313 -0.246094,0.17578125 -0.246094,0.328125 0,0.140625 0.117188,0.29296875 0.304688,0.29296875 0.07031,0 0.117187,-0.0234375 0.1875,-0.0585938 l 6.234375,-2.97656254 c 0.140625,-0.058594 0.246093,-0.140625 0.246093,-0.3164067 z m 9.934575,0.4921875 c 0,-1.1484375 -0.78516,-2.0742187 -2.25,-2.0742187 -0.29297,0 -0.82032,0.035156 -1.28907,0.3515625 v -1.3125 c 0.28125,0.046875 0.38672,0.070312 0.72657,0.070312 1.45312,0 2.36718,-1.125 2.36718,-1.3710938 0,-0.070312 -0.0117,-0.1875 -0.14062,-0.1875 -0.0234,0 -0.0352,0 -0.14063,0.046875 -0.57422,0.2109375 -1.10156,0.2695313 -1.52343,0.2695313 -0.76172,0 -1.28907,-0.1875 -1.54688,-0.2695313 -0.0937,-0.035156 -0.10547,-0.046875 -0.12891,-0.046875 -0.14062,0 -0.14062,0.1171875 -0.14062,0.2695313 v 2.90625 c 0,0.1875 0,0.3164062 0.22266,0.3164062 0.1289,0 0.14062,-0.046875 0.21093,-0.1171875 0.38672,-0.46875 0.92578,-0.5625 1.33594,-0.5625 0.89063,0 0.89063,0.8789063 0.89063,1.6757813 0,0.7265625 0,1.72265624 -1.19532,1.72265624 -0.24609,0 -0.86718,-0.046875 -1.28906,-0.62109375 0.36328,-0.0234375 0.64453,-0.25781249 0.64453,-0.66796879 0,-0.5273437 -0.42187,-0.6796875 -0.66797,-0.6796875 -0.14062,0 -0.66797,0.09375 -0.66797,0.703125 0,0.84375004 0.78516,1.68750004 2.01563,1.68750004 1.59375,0 2.56641,-0.890625 2.56641,-2.10937454 z M 123.6815,-5.078125e-4 V -0.46925781 h -1.06641 V -6.3637891 h 1.06641 v -0.46875 h -2.19141 c -0.22265,0 -0.33984,0 -0.44531,0.2460938 l -2.39062,5.2734375 -2.39063,-5.2734375 c -0.10547,-0.2460938 -0.22265,-0.2460938 -0.43359,-0.2460938 h -2.21485 v 0.46875 h 1.07813 v 5.60156254 c 0,0.22265625 -0.0117,0.234375 -0.29297,0.2578125 -0.23437,0.0351563 -0.25781,0.0351563 -0.53906,0.0351563 h -0.2461 v 0.4687499975 c 0.375,-0.0351562475 0.94922,-0.0351562475 1.33594,-0.0351562475 0.42188,0 0.9375,0 1.34766,0.0351562475 V -0.46925781 h -0.25781 c -0.17579,0 -0.33985,-0.0117188 -0.52735,-0.0351563 -0.28125,-0.0234375 -0.29297,-0.0351563 -0.29297,-0.2578125 V -6.2348828 h 0.0117 l 2.70703,5.98828124 c 0.0937,0.19921875 0.21094,0.2460937475 0.31641,0.2460937475 0.19922,0 0.28125,-0.1523437475 0.31641,-0.2343749975 l 2.77734,-6.12890629 h 0.0117 v 5.89453129 h -1.06641 v 0.4687499975 c 0.35156,-0.0351562475 1.27735,-0.0351562475 1.6875,-0.0351562475 0.41016,0 1.34766,0 1.69922,0.0351562475 z m 3.26074,0 V -0.46925781 h -0.62109 V -4.4887891 l -1.72266,0.082031 v 0.46875 c 0.58594,0 0.65625,0 0.65625,0.3867187 v 3.08203129 h -0.6914 V -5.078125e-4 L 125.78209,-0.03566406 Z M 126.46177,-6.0473828 c 0,-0.4335938 -0.33984,-0.7734375 -0.77343,-0.7734375 -0.4336,0 -0.77344,0.3398437 -0.77344,0.7734375 0,0.4335937 0.33984,0.7734375 0.77344,0.7734375 0.43359,0 0.77343,-0.3398438 0.77343,-0.7734375 z m 6.94043,6.0468749875 V -0.46925781 h -0.6914 V -3.0473828 c 0,-1.0429688 -0.53907,-1.4414063 -1.53516,-1.4414063 -0.94922,0 -1.47656,0.5742188 -1.74609,1.078125 v -1.078125 l -1.71094,0.082031 v 0.46875 c 0.62109,0 0.69141,0 0.69141,0.3867187 v 3.08203129 h -0.69141 v 0.4687499975 l 1.25391,-0.0351562475 1.2539,0.0351562475 V -0.46925781 h -0.67969 V -2.5551953 c 0,-1.078125 0.85547,-1.5703125 1.47657,-1.5703125 0.33984,0 0.55078,0.2109375 0.55078,0.9726562 v 2.68359379 h -0.67969 V -5.078125e-4 L 132.1483,-0.03566406 Z m 6.05567,0 V -0.46925781 c -0.6211,0 -0.69141,0 -0.69141,-0.38671875 V -4.4887891 l -1.81641,0.082031 v 0.46875 c 0.60938,0 0.67969,0 0.67969,0.3867187 v 1.9101563 c 0,0.80859374 -0.5039,1.33593749 -1.23047,1.33593749 -0.77343,0 -0.79687,-0.24609375 -0.79687,-0.78515629 v -3.3984375 l -1.82813,0.082031 v 0.46875 c 0.6211,0 0.69141,0 0.69141,0.3867187 v 2.3203125 c 0,1.06640629 0.80859,1.28906254 1.79297,1.28906254 0.25781,0 0.97265,0 1.42969,-0.7734375 v 0.7734375 z m 4.0459,-1.2304687875 v -0.5273437 h -0.46875 v 0.5039062 c 0,0.67968754 -0.31641,0.91406254 -0.59766,0.91406254 -0.58594,0 -0.58594,-0.6328125 -0.58594,-0.86718754 v -2.7421875 h 1.46485 v -0.46875 h -1.46485 v -1.9101562 h -0.45703 c -0.0117,0.9960937 -0.50391,1.9804687 -1.48828,2.015625 v 0.3632812 h 0.82031 v 2.71875 c 0,1.06640629 0.86719,1.28906254 1.57031,1.28906254 0.75,0 1.20704,-0.5625 1.20704,-1.28906254 z m 5.5664,0.070312 c 0,-0.1875 -0.1875,-0.1875 -0.23437,-0.1875 -0.17578,0 -0.19922,0.046875 -0.25782,0.2109375 -0.21093,0.48046879 -0.77343,0.79687504 -1.41796,0.79687504 -1.40625,0 -1.41797,-1.32421874 -1.41797,-1.82812504 h 3.01172 c 0.21093,0 0.3164,0 0.3164,-0.2695312 0,-0.3164063 -0.0586,-1.0429688 -0.5625,-1.5351563 -0.36328,-0.3632812 -0.89062,-0.5390625 -1.58203,-0.5390625 -1.59375,0 -2.46094,1.0195313 -2.46094,2.2734375 0,1.33593754 0.9961,2.29687504 2.60157,2.29687504 1.57031,0 2.0039,-1.0546875 2.0039,-1.21875004 z m -0.94922,-1.3359375 h -2.3789 c 0.0234,-0.3984375 0.0351,-0.8085937 0.23437,-1.1367187 0.26953,-0.3984375 0.66797,-0.515625 0.94922,-0.515625 1.17188,0 1.18359,1.3007812 1.19531,1.6523437 z m 5.41407,1.1015625 c 0,-0.4335937 -0.19922,-0.7734375 -0.55079,-1.0546875 -0.38671,-0.2929687 -0.70312,-0.3515625 -1.48828,-0.4804687 -0.36328,-0.070312 -1.00781,-0.1757813 -1.00781,-0.6445313 0,-0.6210937 0.92578,-0.6210937 1.11328,-0.6210937 0.75,0 1.125,0.2929687 1.17188,0.84375 0.0117,0.140625 0.0234,0.1992187 0.23437,0.1992187 0.23438,0 0.23438,-0.058594 0.23438,-0.28125 v -0.796875 c 0,-0.1875 0,-0.28125 -0.17578,-0.28125 -0.0469,0 -0.0586,0 -0.44532,0.1875 -0.26953,-0.1289062 -0.60937,-0.1875 -1.00781,-0.1875 -0.30469,0 -1.83984,0 -1.83984,1.3007813 0,0.3984375 0.19922,0.6679687 0.39843,0.84375 0.39844,0.3398437 0.78516,0.4101562 1.54688,0.5390625 0.36328,0.070312 1.10156,0.1992187 1.10156,0.7851562 0,0.73828129 -0.91406,0.73828129 -1.125,0.73828129 -1.0664,0 -1.32422,-0.72656249 -1.4414,-1.14843749 -0.0469,-0.140625 -0.0937,-0.140625 -0.23438,-0.140625 -0.24609,0 -0.24609,0.058594 -0.24609,0.2929687 v 1.07812504 c 0,0.1875 0,0.28125 0.1875,0.28125 0.0703,0 0.082,0 0.29297,-0.15234375 l 0.25781,-0.1640625 c 0.45703,0.31640625 0.98437,0.31640625 1.18359,0.31640625 0.30469,0 1.83985,0 1.83985,-1.45312504 z m 0,0"
       style="fill:#000000;fill-opacity:1;fill-rule:nonzero;stroke:none"
       aria-label="TotalColdStart:&gt;5Minutes"
       transform="matrix(1.3333333,0,0,1.3333333,56.341333,33.973333)" />
    <path
       id="path26"
       d="m 5.8469766,-1.2996562 c 0,-0.5273438 -0.4335938,-1.0664063 -1.5234375,-1.2070313 0.8671875,-0.1523437 1.265625,-0.5976562 1.265625,-1.0664062 0,-0.6796875 -0.7265625,-1.2070313 -1.9101563,-1.2070313 H 0.40947656 v 0.3867188 H 1.1594766 v 4.00781245 H 0.40947656 V 0.001125 H 3.9133828 c 1.2539063,0 1.9335938,-0.609375 1.9335938,-1.3007812 z M 4.5461953,-3.5730937 c 0,0.5742187 -0.46875,0.9257812 -1.1484375,0.9257812 H 2.1204141 v -1.7460937 h 1.4648437 c 0.6914063,0 0.9609375,0.3984375 0.9609375,0.8203125 z m 0.2109375,2.2617187 c 0,0.45703125 -0.3398437,0.92578125 -1.1484375,0.92578125 H 2.1204141 V -2.3309062 h 1.5585937 c 0.984375,0 1.078125,0.7617187 1.078125,1.0195312 z m 5.0742188,-1.2070312 c 0,-0.3867188 -0.3984375,-0.6210938 -0.8320313,-0.6210938 -0.5039062,0 -0.8320312,0.3398438 -1.0195312,0.7734375 H 7.9680703 V -3.1395 l -1.2070312,0.058594 v 0.3867187 c 0.4101562,0 0.46875,0 0.46875,0.28125 v 2.02734375 h -0.46875 V 0.001125 c 0.023437,0 0.5625,-0.0234375 0.890625,-0.0234375 L 8.6477578,0.001125 V -0.38559375 H 8.0618203 V -1.4637187 c 0,-0.6328125 0.28125,-1.3125 0.9140625,-1.3476563 0,0 -0.09375,0.1171875 -0.09375,0.2929688 0,0.2695312 0.1875,0.4804687 0.46875,0.4804687 0.28125,0 0.4804688,-0.2109375 0.4804688,-0.4804687 z M 13.947563,-0.79575 c 0,-0.15234375 -0.152344,-0.15234375 -0.222657,-0.15234375 -0.128906,0 -0.164062,0.0117188 -0.222656,0.1171875 -0.246094,0.515625 -0.878906,0.515625 -0.996094,0.515625 -1.101562,0 -1.136718,-0.80859375 -1.148437,-1.13671875 h 2.34375 c 0.152344,0 0.246094,0 0.246094,-0.2109375 0,-0.1992187 -0.04687,-0.7148437 -0.386719,-1.0664062 -0.375,-0.375 -0.890625,-0.4335938 -1.277344,-0.4335938 -1.289062,0 -1.898437,0.7734375 -1.898437,1.59375 0,0.83203125 0.644531,1.6171875 2.015625,1.6171875 0.257812,0 0.65625,-0.03515625 1.007812,-0.22265625 0.410156,-0.2109375 0.539063,-0.55078125 0.539063,-0.62109375 z m -0.691407,-0.9492187 h -1.898437 c 0,-0.2695313 0.03516,-1.0898438 0.9375,-1.0898438 0.902344,0 0.949219,0.796875 0.960937,1.0898438 z m 5.291016,1.54687495 c 0,-0.1875 -0.105469,-0.1875 -0.246094,-0.1875 -0.421875,0 -0.421875,-0.0585938 -0.421875,-0.22265625 v -1.453125 c 0,-0.5625 -0.457031,-1.1015625 -1.710937,-1.1015625 -0.410157,0 -1.382813,0 -1.382813,0.6914063 0,0.3164062 0.222656,0.4921875 0.480469,0.4921875 0.304687,0 0.492187,-0.2109375 0.492187,-0.4804688 0,-0.1523437 -0.07031,-0.2578125 -0.08203,-0.28125 -0.02344,-0.023437 -0.02344,-0.046875 -0.02344,-0.046875 0,-0.035156 0.445312,-0.046875 0.492187,-0.046875 0.492188,0 0.855469,0.1875 0.855469,0.7851563 v 0.1875 c -0.351563,0 -2.519531,0.035156 -2.519531,1.0664062 0,0.64453125 0.773437,0.84375 1.464843,0.84375 0.738282,0 1.066407,-0.33984375 1.195313,-0.515625 0,0.29296875 0.1875,0.46875 0.75,0.46875 h 0.410156 c 0.140625,0 0.246094,0 0.246094,-0.19921875 z M 17.000297,-0.9598125 c 0,0.15234375 0,0.3515625 -0.28125,0.52734375 -0.257813,0.15234375 -0.585938,0.15234375 -0.632813,0.15234375 -0.386718,0 -0.726562,-0.2109375 -0.726562,-0.52734375 0,-0.57421875 0.9375,-0.76171875 1.640625,-0.78515625 z m 6.19043,0.9609375 v -0.38671875 c -0.210938,0 -0.351563,0 -0.410157,-0.0234375 C 22.721977,-0.42075 22.710258,-0.43246875 22.628227,-0.5145 l -1.265625,-1.3828125 0.996093,-0.7148437 c 0.09375,-0.058594 0.140625,-0.09375 0.644532,-0.09375 V -3.092625 c -0.1875,0.011719 -0.386719,0.023437 -0.574219,0.023437 -0.304688,0 -0.867188,-0.023437 -0.902344,-0.023437 v 0.3867188 c 0.09375,0 0.117188,0.023437 0.140625,0.046875 -0.01172,0.011719 -0.05859,0.046875 -0.08203,0.058594 l -1.277344,0.9140625 v -3.1523437 l -1.300781,0.058594 v 0.3867188 c 0.421875,0 0.46875,0 0.46875,0.2929687 v 3.71484375 h -0.46875 V 0.001125 c 0.03516,0 0.5625,-0.0234375 0.867187,-0.0234375 0.328125,0 0.855469,0.0234375 0.855469,0.0234375 V -0.38559375 H 20.26104 V -1.123875 l 0.480469,-0.3398437 0.878906,0.96093745 c 0.05859,0.0585937 0.07031,0.0703125 0.07031,0.0703125 0,0.046875 -0.09375,0.046875 -0.152344,0.046875 V 0.001125 l 0.914062,-0.0234375 c 0.246094,0 0.492188,0 0.738282,0.0234375 z m 4.810546,0 v -0.38671875 c -0.410156,0 -0.46875,0 -0.46875,-0.28125 V -4.8387187 l -1.300781,0.058594 v 0.3867188 c 0.410156,0 0.46875,0 0.46875,0.2695312 v 1.2773438 C 26.266898,-3.1043437 25.868461,-3.1395 25.645805,-3.1395 c -1.253907,0 -1.933594,0.7148438 -1.933594,1.6054688 0,0.8554687 0.644531,1.5820312 1.839844,1.5820312 0.445312,0 0.820312,-0.140625 1.089843,-0.33984375 V 0.048 Z m -1.359375,-0.80859375 c -0.152343,0.234375 -0.492187,0.52734375 -1.007812,0.52734375 -0.949219,0 -0.949219,-0.8320312 -0.949219,-1.2421875 0,-0.4335937 0,-1.2890625 1.042969,-1.2890625 0.585937,0 0.902344,0.3867188 0.914062,0.4101563 z m 5.979493,-0.71484375 c 0,-0.8320312 -0.609375,-1.640625 -1.980469,-1.640625 -1.382813,0 -1.96875,0.8203125 -1.96875,1.640625 0,0.8203125 0.621094,1.5703125 1.96875,1.5703125 1.359375,0 1.980469,-0.76171875 1.980469,-1.5703125 z m -0.972657,-0.082031 c 0,0.5976562 0,1.28906245 -1.007812,1.28906245 -0.996094,0 -0.996094,-0.69140625 -0.996094,-1.28906245 0,-0.5507813 0,-1.2304688 0.996094,-1.2304688 1.007812,0 1.007812,0.6796875 1.007812,1.2304688 z M 38.9085,-2.7059062 V -3.092625 c -0.1875,0.011719 -0.386719,0.023437 -0.574219,0.023437 -0.246093,0 -0.480468,0 -0.726562,-0.023437 v 0.3867188 c 0.210937,0 0.269531,0.011719 0.375,0.046875 l -0.808594,1.8867187 -0.84375,-1.9335937 h 0.351563 V -3.092625 c -0.02344,0 -0.527344,0.023437 -0.820313,0.023437 -0.210937,0 -0.503906,0 -0.703125,-0.023437 v 0.3867188 h 0.410156 c 0.08203,0.1640625 0.08203,0.1757812 0.08203,0.1992187 0,0.023437 -0.02344,0.070312 -0.03516,0.082031 l -0.632812,1.47656245 -0.773438,-1.75781245 h 0.363282 V -3.092625 l -0.914063,0.023437 c -0.257812,0 -0.738281,-0.023437 -0.773437,-0.023437 v 0.3867188 h 0.410156 L 34.4085,-0.1395 c 0.08203,0.1875 0.1875,0.1875 0.351563,0.1875 0.152343,0 0.269531,0 0.351562,-0.1875 l 0.785156,-1.8164062 0.773438,1.80468745 C 36.75225,0.048 36.857719,0.048 37.0335,0.048 c 0.152344,0 0.257813,0 0.339844,-0.1875 l 1.054687,-2.4375 c 0.04687,-0.09375 0.05859,-0.09375 0.175782,-0.1171875 0.105468,-0.011719 0.164062,-0.011719 0.304687,-0.011719 z M 43.87725,0.001125 V -0.38559375 H 43.4085 V -2.0965312 C 43.4085,-2.952 42.857719,-3.1395 42.213188,-3.1395 c -0.84375,0 -1.230469,0.5039063 -1.359375,0.7265625 V -3.1395 l -1.265625,0.058594 v 0.3867187 c 0.410156,0 0.46875,0 0.46875,0.28125 v 2.02734375 h -0.46875 V 0.001125 c 0,0 0.574218,-0.0234375 0.902343,-0.0234375 0.351563,0 0.914063,0.0234375 0.914063,0.0234375 V -0.38559375 H 40.947563 V -1.73325 c 0,-0.8085937 0.714843,-1.078125 1.136718,-1.078125 0.304688,0 0.445313,0.1523438 0.445313,0.65625 v 1.76953125 h -0.46875 V 0.001125 c 0,0 0.574219,-0.0234375 0.902344,-0.0234375 0.339843,0 0.914062,0.0234375 0.914062,0.0234375 z m 6.723633,-4.2304687 c 0,-0.3164063 -0.28125,-0.65625 -0.878906,-0.65625 -0.808594,0 -1.605469,0.328125 -1.605469,1.125 v 0.6679687 h -0.574219 v 0.3867188 h 0.574219 v 2.32031245 h -0.46875 V 0.001125 c 0.03516,0 0.574219,-0.0234375 0.902344,-0.0234375 L 49.546195,0.001125 V -0.38559375 H 48.960258 V -2.7059062 h 0.890625 V -3.092625 h -0.9375 v -0.65625 c 0,-0.1171875 0,-0.8085937 0.761719,-0.8085937 0.08203,0 0.08203,0.011719 0.08203,0.011719 0,0 -0.01172,0.023437 -0.02344,0.035156 -0.03516,0.046875 -0.08203,0.1523437 -0.08203,0.28125 0,0.3398437 0.269531,0.4804687 0.46875,0.4804687 0.234375,0 0.480469,-0.1523437 0.480469,-0.4804687 z m 3.588867,2.7070312 c 0,-0.8320312 -0.609375,-1.640625 -1.980469,-1.640625 -1.382812,0 -1.96875,0.8203125 -1.96875,1.640625 0,0.8203125 0.621094,1.5703125 1.96875,1.5703125 1.359375,0 1.980469,-0.76171875 1.980469,-1.5703125 z m -0.972656,-0.082031 c 0,0.5976562 0,1.28906245 -1.007813,1.28906245 -0.996093,0 -0.996093,-0.69140625 -0.996093,-1.28906245 0,-0.5507813 0,-1.2304688 0.996093,-1.2304688 1.007813,0 1.007813,0.6796875 1.007813,1.2304688 z m 4.713867,-0.9140625 c 0,-0.3867188 -0.398438,-0.6210938 -0.832031,-0.6210938 -0.503907,0 -0.832032,0.3398438 -1.019532,0.7734375 H 56.06768 V -3.1395 l -1.207032,0.058594 v 0.3867187 c 0.410157,0 0.46875,0 0.46875,0.28125 v 2.02734375 h -0.46875 V 0.001125 c 0.02344,0 0.5625,-0.0234375 0.890625,-0.0234375 L 56.747367,0.001125 V -0.38559375 H 56.16143 V -1.4637187 c 0,-0.6328125 0.28125,-1.3125 0.914062,-1.3476563 0,0 -0.09375,0.1171875 -0.09375,0.2929688 0,0.2695312 0.1875,0.4804687 0.46875,0.4804687 0.28125,0 0.480469,-0.2109375 0.480469,-0.4804685 z m 7.646484,-1.96875 h -1.746093 l -0.492188,-0.035156 -0.480469,-0.011719 c -0.05859,0 -0.07031,0 -0.105468,0 -0.269532,0 -0.28125,-0.082031 -0.292969,-0.1640625 h -0.445313 l -0.257812,1.7929687 h 0.433594 c 0.05859,-0.3867187 0.152343,-0.5859375 0.222656,-0.5976562 0.01172,0 0.292969,-0.035156 0.785156,-0.035156 h 1.136719 c -0.1875,0.2109375 -0.28125,0.2929688 -0.515625,0.5390625 -0.480469,0.515625 -1.066406,1.4765625 -1.066406,2.54296875 0,0.5390625 0.445312,0.5390625 0.480468,0.5390625 0.222657,0 0.351563,-0.12890625 0.375,-0.1640625 0.117188,-0.12890625 0.117188,-0.19921875 0.117188,-0.66796875 0,-1.1132812 0.199219,-1.734375 0.621094,-2.1679687 l 1.183593,-1.21875 c 0.01172,-0.023437 0.02344,-0.035156 0.03516,-0.058594 0.01172,-0.023437 0.01172,-0.035156 0.01172,-0.2929687 z m 4.289063,2.2734375 c 0,-0.8554688 -0.08203,-2.3554688 -1.875,-2.3554688 -1.78125,0 -1.875,1.5 -1.875,2.3554688 0,0.8789062 0.117187,2.29687495 1.875,2.29687495 1.769531,0 1.875,-1.41796875 1.875,-2.29687495 z m -0.960938,-0.09375 c 0,0.4921875 0,0.9960937 -0.07031,1.38281245 -0.105469,0.57421875 -0.585938,0.69140625 -0.84375,0.69140625 -0.222656,0 -0.433594,-0.0820313 -0.597656,-0.22265625 -0.1875,-0.1640625 -0.304688,-0.26953125 -0.304688,-1.85156245 0,-0.4804688 0,-1.03125 0.07031,-1.3710938 0.117187,-0.4453125 0.550781,-0.5742187 0.832031,-0.5742187 0.269531,0 0.714844,0.1171875 0.832031,0.5976562 0.08203,0.328125 0.08203,0.9023438 0.08203,1.3476563 z m 7.195313,1.0078125 c 0,-0.5273438 -0.433594,-1.0664063 -1.523438,-1.2070313 0.867188,-0.1523437 1.265625,-0.5976562 1.265625,-1.0664062 0,-0.6796875 -0.726562,-1.2070313 -1.910156,-1.2070313 h -3.269531 v 0.3867188 h 0.75 v 4.00781245 h -0.75 V 0.001125 h 3.503906 c 1.253906,0 1.933594,-0.609375 1.933594,-1.300781 z m -1.300781,-2.2734375 c 0,0.5742187 -0.46875,0.9257812 -1.148438,0.9257812 H 72.37432 V -4.393406 h 1.464844 c 0.691406,0 0.960938,0.3984375 0.960938,0.8203125 z m 0.210937,2.2617187 c 0,0.45703125 -0.339844,0.92578125 -1.148437,0.92578125 H 72.37432 V -2.3309062 h 1.558594 c 0.984375,0 1.078125,0.7617187 1.078125,1.0195314 z m 12.670899,1.3125 v -0.38671875 h -0.75 V -4.3934062 h 0.75 V -4.780125 h -1.605469 c -0.128906,0 -0.257813,0 -0.351563,0.1875 l -1.839843,3.7265625 -1.839844,-3.7265625 c -0.09375,-0.1875 -0.199219,-0.1875 -0.351563,-0.1875 h -1.605468 v 0.3867188 h 0.75 v 3.8320312 c 0,0.10546875 0,0.1171875 -0.02344,0.12890625 -0.05859,0.046875 -0.410156,0.046875 -0.492187,0.046875 H 80.088188 V 0.001125 l 0.996093,-0.0234375 0.984375,0.0234375 V -0.38559375 H 81.846 c -0.105469,0 -0.246094,-0.0117188 -0.351562,-0.0234375 C 81.330375,-0.42075 81.330375,-0.42075 81.330375,-0.561375 v -3.7148437 l 2.027344,4.07812495 c 0.04687,0.10546875 0.105469,0.19921875 0.292969,0.19921875 0.05859,0 0.199218,0 0.292968,-0.1875 l 2.074219,-4.1835937 v 3.98437495 H 85.279594 V 0.001125 l 1.207031,-0.0234375 z m 4.675781,-1.5234375 c 0,-0.8320312 -0.609375,-1.640625 -1.980469,-1.640625 -1.382812,0 -1.96875,0.8203125 -1.96875,1.640625 0,0.8203125 0.621094,1.5703125 1.96875,1.5703125 1.359375,0 1.980469,-0.76171875 1.980469,-1.5703125 z m -0.972656,-0.082031 c 0,0.5976562 0,1.28906245 -1.007813,1.28906245 -0.996094,0 -0.996094,-0.69140625 -0.996094,-1.28906245 0,-0.5507813 0,-1.2304688 0.996094,-1.2304688 1.007813,0 1.007813,0.6796875 1.007813,1.2304688 z m 6.123046,1.6054687 v -0.38671875 c -0.410156,0 -0.46875,0 -0.46875,-0.28125 V -4.8387187 l -1.300781,0.058594 v 0.3867188 c 0.410156,0 0.46875,0 0.46875,0.2695312 v 1.2773438 C 95.773734,-3.1043437 95.375297,-3.1395 95.152641,-3.1395 c -1.253907,0 -1.933594,0.7148438 -1.933594,1.6054688 0,0.8554687 0.644531,1.5820312 1.839844,1.5820312 0.445312,0 0.820312,-0.140625 1.089843,-0.33984375 V 0.048 Z m -1.359375,-0.80859375 c -0.152343,0.234375 -0.492187,0.52734375 -1.007812,0.52734375 -0.949219,0 -0.949219,-0.8320312 -0.949219,-1.2421875 0,-0.4335937 0,-1.2890625 1.042969,-1.2890625 0.585937,0 0.902344,0.3867188 0.914062,0.4101563 z m 5.592776,0.0117188 c 0,-0.15234375 -0.15235,-0.15234375 -0.22266,-0.15234375 -0.1289,0 -0.16406,0.0117188 -0.22265,0.1171875 -0.2461,0.515625 -0.87891,0.515625 -0.9961,0.515625 -1.101561,0 -1.136717,-0.8085938 -1.148436,-1.1367188 h 2.343746 c 0.15235,0 0.2461,0 0.2461,-0.2109375 0,-0.1992187 -0.0469,-0.7148437 -0.38672,-1.0664062 -0.375,-0.375 -0.89063,-0.4335938 -1.27734,-0.4335938 -1.289067,0 -1.898442,0.7734375 -1.898442,1.59375 0,0.8320313 0.644531,1.61718755 2.015622,1.61718755 0.25782,0 0.65625,-0.03515625 1.00782,-0.22265625 0.41015,-0.2109375 0.53906,-0.55078125 0.53906,-0.62109375 z M 101.0501,-1.7449683 h -1.898436 c 0,-0.2695313 0.03516,-1.0898438 0.937496,-1.0898438 0.90235,0 0.94922,0.796875 0.96094,1.0898438 z m 3.2168,1.74609375 V -0.3855933 h -0.46875 v -4.4531254 l -1.30078,0.058594 v 0.3867188 c 0.41015,0 0.46875,0 0.46875,0.2695312 v 3.73828125 h -0.46875 V 0.001125 c 0.0234,0 0.5625,-0.0234375 0.8789,-0.0234375 0.35157,0 0.86719,0.0234375 0.89063,0.02343795 z m 0,0"
       style="fill:#000000;fill-opacity:1;fill-rule:nonzero;stroke:none"
       aria-label="Breakdownfor70BModel"
       transform="matrix(1.3333333,0,0,1.3333333,13.872,10.936)" />
  </g>
</svg>
