<?xml version="1.0" encoding="UTF-8" standalone="no"?>
<!-- Created with Inkscape (http://www.inkscape.org/) -->

<svg
   version="1.1"
   id="svg1"
   width="349.36801"
   height="221.98534"
   viewBox="0 0 349.36801 221.98534"
   xmlns="http://www.w3.org/2000/svg"
   xmlns:svg="http://www.w3.org/2000/svg">
  <defs
     id="defs1" />
  <g
     id="g1">
    <path
       id="path1"
       d="M 0,0 V 137.07156"
       style="fill:none;stroke:#000000;stroke-width:0.79701;stroke-linecap:butt;stroke-linejoin:miter;stroke-miterlimit:10;stroke-dasharray:none;stroke-opacity:1"
       transform="matrix(1.3333333,0,0,-1.3333333,42.148,189.508)" />
    <path
       id="path2"
       d="M 4.66248,0 C 3.28098,0.25902 1.0361,1.0361 -0.51805,1.94269 V -1.94269 C 1.0361,-1.0361 3.28098,-0.25902 4.66248,0"
       style="fill:#000000;fill-opacity:1;fill-rule:nonzero;stroke:none"
       transform="matrix(0,-1.3333333,-1.3333333,0,42.148,6.74592)" />
    <path
       id="path3"
       d="M 1.5480391,-5.8138594 H 0.79803906 v 5.81250003 H 1.5480391 Z m 4.1601562,2.8007813 c -0.011719,-0.8203125 -0.5507812,-1.2890625 -1.5117187,-1.2890625 -0.9726563,0 -1.6054688,0.5039062 -1.6054688,1.2773437 0,0.65625 0.3398438,0.9726563 1.3242188,1.2070313 l 0.6210937,0.1523437 c 0.4570313,0.1054688 0.6445313,0.28125 0.6445313,0.5859375 0,0.38671878 -0.3867188,0.64453128 -0.9726563,0.64453128 -0.3632812,0 -0.65625,-0.10546875 -0.8320312,-0.28125 -0.1054688,-0.1171875 -0.1523438,-0.234375 -0.1875,-0.52734378 h -0.703125 c 0.035156,0.96093753 0.5742187,1.42968753 1.6640625,1.42968753 1.0546875,0 1.7226562,-0.52734375 1.7226562,-1.32421873 0,-0.6210938 -0.3515625,-0.9726563 -1.1835937,-1.171875 L 4.0558516,-2.4505781 C 3.5167891,-2.5794844 3.2824141,-2.7552656 3.2824141,-3.0482344 c 0,-0.3867187 0.3398437,-0.6328125 0.890625,-0.6328125 0.5273437,0 0.8203125,0.234375 0.8320312,0.6679688 z m 2.6601563,-1.2890625 c -1.171875,0 -1.8867188,0.84375 -1.8867188,2.25 0,1.39453123 0.703125,2.23828123 1.8984375,2.23828123 1.171875,0 1.8867187,-0.84375 1.8867187,-2.21484373 0,-1.4414063 -0.6914062,-2.2734375 -1.8984374,-2.2734375 z m 0.011719,0.6210937 c 0.75,0 1.1953125,0.609375 1.1953125,1.6523438 0,0.9726562 -0.46875,1.59374998 -1.1953125,1.59374998 -0.75,0 -1.1953125,-0.60937498 -1.1953125,-1.61718748 0,-1.0078125 0.4453125,-1.6289063 1.1953125,-1.6289063 z m 3.4599604,-2.1328125 h -0.667969 v 5.81250003 h 0.667969 z m 4.828125,5.42578128 c -0.07031,0.0117188 -0.105469,0.0117188 -0.140625,0.0117188 -0.234375,0 -0.363281,-0.1171875 -0.363281,-0.328125 V -3.1537031 c 0,-0.75 -0.539063,-1.1484375 -1.570313,-1.1484375 -0.609375,0 -1.113281,0.1757812 -1.382812,0.4921875 -0.199219,0.2109375 -0.269531,0.4570312 -0.292969,0.8671875 h 0.667969 c 0.05859,-0.5039063 0.363281,-0.7382813 0.984375,-0.7382813 0.597656,0 0.9375,0.2226563 0.9375,0.6210938 v 0.1757812 c 0,0.28125 -0.175781,0.3984375 -0.703125,0.4570313 -0.9375,0.1171875 -1.078125,0.1523437 -1.335938,0.2578125 -0.480468,0.1992187 -0.726562,0.5742187 -0.726562,1.1132812 0,0.76171878 0.515625,1.24218753 1.371094,1.24218753 0.515625,0 0.9375,-0.1875 1.417968,-0.62109375 0.04687,0.421875 0.246094,0.62109375 0.679688,0.62109375 0.140625,0 0.234375,-0.0234375 0.457031,-0.0703125 z M 15.508,-1.3138594 c 0,0.2226563 -0.07031,0.35156253 -0.269531,0.53906253 -0.269532,0.24609375 -0.597657,0.375 -0.984375,0.375 -0.515625,0 -0.820313,-0.24609375 -0.820313,-0.66796873 0,-0.4453125 0.292969,-0.6679688 0.996094,-0.7617188 0.703125,-0.1054687 0.84375,-0.1289062 1.078125,-0.234375 z m 3.351562,-2.859375 h -0.691406 v -1.1484375 h -0.65625 v 1.1484375 h -0.5625 v 0.5390625 h 0.5625 v 3.15234378 c 0,0.421875 0.28125,0.66796875 0.796875,0.66796875 0.164063,0 0.328125,-0.0234375 0.550781,-0.0585938 v -0.5625 c -0.09375,0.0234375 -0.199218,0.0351563 -0.316406,0.0351563 -0.292969,0 -0.375,-0.0820313 -0.375,-0.375 V -3.6341719 h 0.691406 z m 1.385743,0 h -0.65625 v 4.17187503 h 0.65625 z m 0,-1.640625 h -0.667969 v 0.84375 h 0.667969 z m 2.739257,1.5117188 c -1.171875,0 -1.886718,0.84375 -1.886718,2.25 0,1.39453123 0.703125,2.23828123 1.898437,2.23828123 1.171875,0 1.886719,-0.84375 1.886719,-2.21484373 0,-1.4414063 -0.691406,-2.2734375 -1.898438,-2.2734375 z m 0.01172,0.6210937 c 0.75,0 1.195313,0.609375 1.195313,1.6523438 0,0.9726562 -0.46875,1.59374998 -1.195313,1.59374998 -0.75,0 -1.195312,-0.60937498 -1.195312,-1.61718748 0,-1.0078125 0.445312,-1.6289063 1.195312,-1.6289063 z m 2.81543,-0.4921875 v 4.17187503 H 26.47968 V -2.3099531 c 0,-0.84375 0.445312,-1.40625 1.125,-1.40625 0.527343,0 0.867187,0.3164062 0.867187,0.8203125 v 2.89453123 h 0.65625 V -3.1537031 c 0,-0.6914063 -0.515625,-1.1484375 -1.324219,-1.1484375 -0.621093,0 -1.019531,0.2460937 -1.382812,0.8320312 v -0.703125 z m 7.904297,-1.640625 -1.886719,5.97656253 h 0.433594 l 1.886719,-5.97656253 z m 3.319336,5.81250003 h 2.238281 c 1.464844,0 2.367187,-1.10156253 2.367187,-2.90625003 0,-1.8046875 -0.902343,-2.90625 -2.367187,-2.90625 h -2.238281 z m 0.738281,-0.65625 V -5.1576094 h 1.371094 c 1.148437,0 1.746093,0.7734375 1.746093,2.25 0,1.4765625 -0.597656,2.25000003 -1.746093,2.25000003 z M 43.26972,-4.1732344 h -0.65625 v 4.17187503 h 0.65625 z m 0,-1.640625 h -0.66797 v 0.84375 h 0.667969 z m 4.839843,5.42578128 c -0.07031,0.0117188 -0.105468,0.0117188 -0.140625,0.0117188 -0.234375,0 -0.363281,-0.1171875 -0.363281,-0.328125 V -3.1537031 c 0,-0.75 -0.539062,-1.1484375 -1.570312,-1.1484375 -0.609375,0 -1.113282,0.1757812 -1.382813,0.4921875 -0.199219,0.2109375 -0.269531,0.4570312 -0.292969,0.8671875 h 0.667969 c 0.05859,-0.5039063 0.363281,-0.7382813 0.984375,-0.7382813 0.597656,0 0.9375,0.2226563 0.9375,0.6210938 v 0.1757812 c 0,0.28125 -0.175781,0.3984375 -0.703125,0.4570313 -0.9375,0.1171875 -1.078125,0.1523437 -1.335937,0.2578125 -0.480469,0.1992187 -0.726563,0.5742187 -0.726563,1.1132812 0,0.76171878 0.515625,1.24218753 1.371094,1.24218753 0.515625,0 0.9375,-0.1875 1.417969,-0.62109375 0.04687,0.421875 0.246093,0.62109375 0.679687,0.62109375 0.140625,0 0.234375,-0.0234375 0.457031,-0.0703125 z M 46.949406,-1.3138594 c 0,0.2226563 -0.07031,0.35156253 -0.269531,0.53906253 -0.269531,0.24609375 -0.597656,0.375 -0.984375,0.375 -0.515625,0 -0.820313,-0.24609375 -0.820313,-0.66796873 0,-0.4453125 0.292969,-0.6679688 0.996094,-0.7617188 0.703125,-0.1054687 0.84375,-0.1289062 1.078125,-0.234375 z m 4.605469,-2.859375 v 0.5976563 c -0.328125,-0.4921875 -0.738281,-0.7265625 -1.277344,-0.7265625 -1.054687,0 -1.769531,0.9257812 -1.769531,2.2851562 0,0.6796875 0.175781,1.24218753 0.527344,1.64062503 0.304687,0.3515625 0.75,0.5625 1.195312,0.5625 0.515625,0 0.890625,-0.22265625 1.265625,-0.75 v 0.2109375 c 0,0.5625 -0.07031,0.9140625 -0.246094,1.13671875 -0.175781,0.24609372 -0.515625,0.39843752 -0.925781,0.39843752 -0.292969,0 -0.574219,-0.082031 -0.75,-0.22265627 -0.152344,-0.12890625 -0.222656,-0.234375 -0.257812,-0.48046875 h -0.679688 c 0.07031,0.78515622 0.691406,1.25390622 1.664063,1.25390622 0.621093,0 1.160156,-0.1992187 1.429687,-0.5273437 0.316406,-0.38671877 0.445313,-0.91406252 0.445313,-1.88671877 V -4.1732344 Z m -1.207031,0.4921875 c 0.726562,0 1.148437,0.609375 1.148437,1.6523438 0,0.9960937 -0.433594,1.59374998 -1.136719,1.59374998 -0.726562,0 -1.160156,-0.60937498 -1.160156,-1.61718748 0,-1.0078125 0.445313,-1.6289063 1.148438,-1.6289063 z m 2.920898,-0.4921875 v 4.17187503 h 0.667969 V -2.3099531 c 0,-0.84375 0.445312,-1.40625 1.125,-1.40625 0.527344,0 0.867187,0.3164062 0.867187,0.8203125 v 2.89453123 h 0.65625 V -3.1537031 c 0,-0.6914063 -0.515625,-1.1484375 -1.324218,-1.1484375 -0.621094,0 -1.019532,0.2460937 -1.382813,0.8320312 v -0.703125 z m 6.038086,-0.1289062 c -1.171875,0 -1.886719,0.84375 -1.886719,2.25 0,1.39453123 0.703125,2.23828123 1.898438,2.23828123 1.171875,0 1.886719,-0.84375 1.886719,-2.21484373 0,-1.4414063 -0.691407,-2.2734375 -1.898438,-2.2734375 z m 0.01172,0.6210937 c 0.75,0 1.195312,0.609375 1.195312,1.6523438 0,0.9726562 -0.46875,1.59374998 -1.195312,1.59374998 -0.75,0 -1.195313,-0.60937498 -1.195313,-1.61718748 0,-1.0078125 0.445313,-1.6289063 1.195313,-1.6289063 z m 5.742187,0.6679688 c -0.01172,-0.8203125 -0.550781,-1.2890625 -1.511718,-1.2890625 -0.972657,0 -1.605469,0.5039062 -1.605469,1.2773437 0,0.65625 0.339844,0.9726563 1.324219,1.2070313 l 0.621093,0.1523437 c 0.457032,0.1054688 0.644532,0.28125 0.644532,0.5859375 0,0.38671878 -0.386719,0.64453128 -0.972657,0.64453128 -0.363281,0 -0.65625,-0.10546875 -0.832031,-0.28125 -0.105469,-0.1171875 -0.152344,-0.234375 -0.1875,-0.52734378 h -0.703125 c 0.03516,0.96093753 0.574219,1.42968753 1.664063,1.42968753 1.054687,0 1.722656,-0.52734375 1.722656,-1.32421873 0,-0.6210938 -0.351563,-0.9726563 -1.183594,-1.171875 l -0.632812,-0.140625 c -0.539063,-0.1289063 -0.773438,-0.3046875 -0.773438,-0.5976563 0,-0.3867187 0.339844,-0.6328125 0.890625,-0.6328125 0.527344,0 0.820313,0.234375 0.832031,0.6679688 z m 2.519532,-1.1601563 H 66.88886 v -1.1484375 h -0.65625 v 1.1484375 h -0.5625 v 0.5390625 h 0.5625 v 3.15234378 c 0,0.421875 0.28125,0.66796875 0.796875,0.66796875 0.164063,0 0.328125,-0.0234375 0.550782,-0.0585938 v -0.5625 c -0.09375,0.0234375 -0.199219,0.0351563 -0.316407,0.0351563 -0.292968,0 -0.375,-0.0820313 -0.375,-0.375 V -3.6341719 h 0.691407 z m 1.385742,0 h -0.65625 v 4.17187503 h 0.65625 z m 0,-1.640625 H 68.29804 v 0.84375 h 0.667969 z m 4.324219,3.0351563 c -0.02344,-0.3984375 -0.117188,-0.6679688 -0.28125,-0.890625 -0.28125,-0.3984375 -0.785157,-0.6328125 -1.359375,-0.6328125 -1.125,0 -1.863282,0.9023437 -1.863282,2.2851562 0,1.34765628 0.714844,2.20312503 1.851563,2.20312503 0.996094,0 1.628906,-0.59765625 1.699219,-1.61718753 h -0.667969 c -0.105469,0.66796878 -0.457031,0.99609378 -1.019531,0.99609378 -0.726563,0 -1.171875,-0.59765628 -1.171875,-1.58203128 0,-1.0429687 0.433593,-1.6640625 1.160156,-1.6640625 0.550781,0 0.902344,0.328125 0.984375,0.9023438 z m 3.914062,0.3164062 h 1.828125 c 0.457031,0 0.808594,-0.140625 1.125,-0.4101562 0.351563,-0.328125 0.503906,-0.703125 0.503906,-1.2304688 0,-1.0898437 -0.65625,-1.7109375 -1.792968,-1.7109375 h -2.402344 v 5.81250003 h 0.738281 z m 0,-0.65625 v -2.0390625 h 1.546875 c 0.714844,0 1.136719,0.3867188 1.136719,1.0195313 0,0.6328125 -0.421875,1.0195312 -1.136719,1.0195312 z m 5.62793,-1.1835937 c -1.171875,0 -1.886719,0.84375 -1.886719,2.25 0,1.39453123 0.703125,2.23828123 1.898437,2.23828123 1.171875,0 1.886719,-0.84375 1.886719,-2.21484373 0,-1.4414063 -0.691406,-2.2734375 -1.898437,-2.2734375 z m 0.01172,0.6210937 c 0.75,0 1.195313,0.609375 1.195313,1.6523438 0,0.9726562 -0.46875,1.59374998 -1.195313,1.59374998 -0.75,0 -1.195312,-0.60937498 -1.195312,-1.61718748 0,-1.0078125 0.445312,-1.6289063 1.195312,-1.6289063 z m 6.550782,3.67968753 1.21875,-4.17187503 H 89.87519 l -0.832031,3.24609378 -0.820312,-3.24609378 h -0.820313 l -0.796875,3.24609378 -0.84375,-3.24609378 h -0.738281 l 1.207031,4.17187503 h 0.75 L 87.78925,-3.2708906 88.633,-0.00135937 Z m 5.346679,-1.86328123 c 0,-0.6445313 -0.04687,-1.0195313 -0.164062,-1.3359375 -0.28125,-0.6796875 -0.914063,-1.1015625 -1.699219,-1.1015625 -1.160156,0 -1.910156,0.9023437 -1.910156,2.2734375 0,1.37109373 0.726562,2.21484373 1.898437,2.21484373 0.960938,0 1.617188,-0.55078125 1.78125,-1.45312503 H 93.97968 c -0.175782,0.55078128 -0.550782,0.83203128 -1.089844,0.83203128 -0.421875,0 -0.785156,-0.1875 -1.007813,-0.5390625 C 91.72968,-1.2083906 91.671086,-1.4544844 91.659367,-1.8646406 Z m -3.058593,-0.5390625 c 0.04687,-0.7734375 0.527343,-1.2773438 1.195312,-1.2773438 0.644531,0 1.148438,0.5390625 1.148438,1.2304688 0,0.011719 0,0.023437 0,0.046875 z m 3.952148,-1.7695313 v 4.17187503 h 0.667969 V -2.1693281 c 0,-0.5976563 0.152344,-0.984375 0.46875,-1.21875 0.210937,-0.1523438 0.410156,-0.1992188 0.867187,-0.2109375 v -0.6679688 c -0.105468,-0.023437 -0.164062,-0.035156 -0.246093,-0.035156 -0.433594,0 -0.761719,0.2578125 -1.148438,0.8789062 v -0.75 z m 0,0"
       style="fill:#000000;fill-opacity:1;fill-rule:nonzero;stroke:none"
       aria-label="Isolation/DiagnosticPower"
       transform="matrix(0,-1.3333333,1.3333333,0,12.244,160.17733)" />
    <path
       id="path4"
       d="M 0,0 H 222.112"
       style="fill:none;stroke:#000000;stroke-width:0.79701;stroke-linecap:butt;stroke-linejoin:miter;stroke-miterlimit:10;stroke-dasharray:none;stroke-opacity:1"
       transform="matrix(1.3333333,0,0,-1.3333333,42.148,189.508)" />
    <path
       id="path5"
       d="M 4.66248,0 C 3.28098,0.25902 1.0361,1.0361 -0.51805,1.94269 V -1.94269 C 1.0361,-1.0361 3.28098,-0.25902 4.66248,0"
       style="fill:#000000;fill-opacity:1;fill-rule:nonzero;stroke:none"
       transform="matrix(1.3333333,0,0,-1.3333333,338.29733,189.508)" />
    <path
       id="path6"
       d="m 1.4757891,-2.5085781 h 1.921875 c 0.65625,0 0.9492187,0.328125 0.9492187,1.0429687 v 0.51562503 c 0,0.36328125 0.058594,0.71484375 0.1640625,0.949218745 H 5.4132891 V -0.18826562 c -0.28125,-0.1875 -0.3398438,-0.3984375 -0.3515625,-1.17187498 -0.011719,-0.9492188 -0.1640625,-1.2421875 -0.796875,-1.5117188 0.65625,-0.3164062 0.9257812,-0.7265625 0.9257812,-1.3828125 0,-1.0078125 -0.6328125,-1.5585937 -1.7695312,-1.5585937 H 0.73750781 V -7.65625e-4 H 1.4757891 Z m 0,-0.6445313 v -2.0039062 h 1.7929687 c 0.421875,0 0.65625,0.058594 0.84375,0.2226562 0.1992188,0.1640625 0.3046875,0.4335938 0.3046875,0.7851563 0,0.6796875 -0.3515625,0.9960937 -1.1484375,0.9960937 z m 8.3671875,1.2890625 c 0,-0.6445312 -0.046875,-1.0195312 -0.1640625,-1.3359375 -0.28125,-0.6796875 -0.9140625,-1.1015625 -1.6992188,-1.1015625 -1.1601562,0 -1.9101562,0.9023438 -1.9101562,2.2734375 0,1.37109378 0.7265625,2.21484378 1.8984375,2.21484378 0.9609375,0 1.6171875,-0.55078125 1.78125,-1.45312498 H 9.0812578 c -0.1757812,0.55078123 -0.5507812,0.83203123 -1.0898437,0.83203123 -0.421875,0 -0.7851563,-0.1875 -1.0078125,-0.5390625 C 6.8312578,-1.2077969 6.7726641,-1.4538906 6.7609453,-1.8640469 Z M 6.7843828,-2.4031094 c 0.046875,-0.7734375 0.5273438,-1.2773437 1.1953125,-1.2773437 0.6445313,0 1.1484375,0.5390625 1.1484375,1.2304687 0,0.011719 0,0.023437 0,0.046875 z m 7.6669922,2.01562503 c -0.07031,0.0117188 -0.105469,0.0117188 -0.140625,0.0117188 -0.234375,0 -0.363281,-0.1171875 -0.363281,-0.328125 V -3.1531094 c 0,-0.75 -0.539063,-1.1484375 -1.570313,-1.1484375 -0.609375,0 -1.113281,0.1757813 -1.382812,0.4921875 -0.199219,0.2109375 -0.269532,0.4570313 -0.292969,0.8671875 h 0.667969 c 0.05859,-0.5039062 0.363281,-0.7382812 0.984375,-0.7382812 0.597656,0 0.9375,0.2226562 0.9375,0.6210937 v 0.1757813 c 0,0.28125 -0.175782,0.3984375 -0.703125,0.4570312 -0.9375,0.1171875 -1.078125,0.1523438 -1.335938,0.2578125 -0.480469,0.1992188 -0.726562,0.5742188 -0.726562,1.1132813 0,0.76171873 0.515625,1.24218748 1.371093,1.24218748 0.515625,0 0.9375,-0.187500005 1.417969,-0.62109375 0.04687,0.421875 0.246094,0.62109375 0.679688,0.62109375 0.140625,0 0.234375,-0.0234375 0.457031,-0.0703125 z M 13.291219,-1.3132656 c 0,0.2226562 -0.07031,0.35156248 -0.269532,0.53906248 -0.269531,0.24609375 -0.597656,0.375 -0.984375,0.375 -0.515625,0 -0.820312,-0.24609375 -0.820312,-0.66796878 0,-0.4453125 0.292969,-0.6679687 0.996094,-0.7617187 0.703125,-0.1054688 0.84375,-0.1289063 1.078125,-0.234375 z m 2.534179,-4.5 H 15.15743 v 5.812499975 h 0.667968 z m 2.824219,3.328125 H 16.75118 v 0.5742187 h 1.898437 z m 6.319336,2.484374975 1.476563,-5.812499975 h -0.832032 l -1.066406,4.7226562 -1.324219,-4.7226562 h -0.796875 l -1.289062,4.7226562 -1.089844,-4.7226562 h -0.832031 l 1.488281,5.812499975 h 0.808594 L 22.812703,-4.7702969 24.160359,-7.65625e-4 Z M 28.493367,-4.3015469 c -1.171875,0 -1.886719,0.84375 -1.886719,2.25 0,1.39453128 0.703125,2.23828128 1.898438,2.23828128 1.171875,0 1.886719,-0.84375 1.886719,-2.21484378 0,-1.4414062 -0.691407,-2.2734375 -1.898438,-2.2734375 z m 0.01172,0.6210938 c 0.75,0 1.195312,0.609375 1.195312,1.6523437 0,0.9726563 -0.46875,1.59375003 -1.195312,1.59375003 -0.75,0 -1.195313,-0.60937503 -1.195313,-1.61718753 0,-1.0078125 0.445313,-1.6289062 1.195313,-1.6289062 z m 2.803711,-0.4921875 v 4.171874975 h 0.667969 V -2.1687344 c 0,-0.5976562 0.152343,-0.984375 0.46875,-1.21875 0.210937,-0.1523437 0.410156,-0.1992187 0.867187,-0.2109375 v -0.6679687 c -0.105469,-0.023437 -0.164062,-0.035156 -0.246094,-0.035156 -0.433593,0 -0.761718,0.2578125 -1.148437,0.8789063 v -0.75 z m 3.427734,-1.640625 h -0.667969 v 5.812499975 h 0.667969 z m 4.511719,0 h -0.667969 v 2.1679687 c -0.28125,-0.421875 -0.726562,-0.65625 -1.277344,-0.65625 -1.089843,0 -1.792968,0.8789063 -1.792968,2.203125 0,1.41796878 0.691406,2.28515628 1.816406,2.28515628 0.574219,0 0.972656,-0.22265625 1.324219,-0.73828125 v 0.550781245 h 0.597656 z m -1.839844,2.1445312 c 0.714844,0 1.171875,0.6328125 1.171875,1.6289063 0,0.9609375 -0.457031,1.60546873 -1.160156,1.60546873 -0.738281,0 -1.21875,-0.64453123 -1.21875,-1.61718753 0,-0.9726562 0.480469,-1.6171875 1.207031,-1.6171875 z m 6.00586,1.1601563 h 1.921875 c 0.65625,0 0.949218,0.328125 0.949218,1.0429687 v 0.51562503 c 0,0.36328125 0.05859,0.71484375 0.164063,0.949218745 h 0.902344 V -0.18826562 c -0.28125,-0.1875 -0.339844,-0.3984375 -0.351563,-1.17187498 -0.01172,-0.9492188 -0.164062,-1.2421875 -0.796875,-1.5117188 0.65625,-0.3164062 0.925781,-0.7265625 0.925781,-1.3828125 0,-1.0078125 -0.632812,-1.5585937 -1.769531,-1.5585937 h -2.683594 v 5.812499975 h 0.738282 z m 0,-0.6445313 v -2.0039062 h 1.792968 c 0.421875,0 0.65625,0.058594 0.84375,0.2226562 0.199219,0.1640625 0.304688,0.4335938 0.304688,0.7851563 0,0.6796875 -0.351563,0.9960937 -1.148438,0.9960937 z m 8.370117,1.2890625 c 0,-0.6445312 -0.04687,-1.0195312 -0.164063,-1.3359375 -0.28125,-0.6796875 -0.914062,-1.1015625 -1.699218,-1.1015625 -1.160157,0 -1.910157,0.9023438 -1.910157,2.2734375 0,1.37109378 0.726563,2.21484378 1.898438,2.21484378 0.960937,0 1.617187,-0.55078125 1.78125,-1.45312498 h -0.667969 c -0.175781,0.55078123 -0.550781,0.83203123 -1.089844,0.83203123 -0.421875,0 -0.785156,-0.1875 -1.007812,-0.5390625 C 48.772664,-1.2077969 48.71407,-1.4538906 48.702352,-1.8640469 Z M 48.72579,-2.4031094 c 0.04687,-0.7734375 0.527344,-1.2773437 1.195313,-1.2773437 0.644531,0 1.148437,0.5390625 1.148437,1.2304687 0,0.011719 0,0.023437 0,0.046875 z m 3.832031,4.1367188 h 0.667969 v -2.16796877 c 0.351563,0.421875 0.738281,0.62109375 1.277344,0.62109375 1.078125,0 1.792969,-0.8671875 1.792969,-2.20312498 0,-1.40625 -0.691407,-2.2851563 -1.792969,-2.2851563 -0.574219,0 -1.019531,0.2578125 -1.335938,0.75 V -4.1726406 H 52.55782 Z m 1.828125,-5.4023438 c 0.738282,0 1.207032,0.6445313 1.207032,1.640625 0,0.9492188 -0.480469,1.59375003 -1.207032,1.59375003 -0.703125,0 -1.160156,-0.64453123 -1.160156,-1.61718753 0,-0.984375 0.457031,-1.6171875 1.160156,-1.6171875 z m 2.72168,-0.5039062 v 4.171874975 h 0.667969 V -2.1687344 c 0,-0.5976562 0.152343,-0.984375 0.46875,-1.21875 0.210937,-0.1523437 0.410156,-0.1992187 0.867187,-0.2109375 v -0.6679687 c -0.105469,-0.023437 -0.164062,-0.035156 -0.246094,-0.035156 -0.433593,0 -0.761718,0.2578125 -1.148437,0.8789063 v -0.75 z m 6.193359,2.3085937 c 0,-0.6445312 -0.04687,-1.0195312 -0.164062,-1.3359375 -0.28125,-0.6796875 -0.914063,-1.1015625 -1.699219,-1.1015625 -1.160156,0 -1.910156,0.9023438 -1.910156,2.2734375 0,1.37109378 0.726562,2.21484378 1.898437,2.21484378 0.960938,0 1.617188,-0.55078125 1.78125,-1.45312498 h -0.667968 c -0.175782,0.55078123 -0.550782,0.83203123 -1.089844,0.83203123 -0.421875,0 -0.785156,-0.1875 -1.007813,-0.5390625 C 60.289266,-1.2077969 60.230672,-1.4538906 60.218953,-1.8640469 Z m -3.058593,-0.5390625 c 0.04687,-0.7734375 0.527343,-1.2773437 1.195312,-1.2773437 0.644531,0 1.148438,0.5390625 1.148438,1.2304687 0,0.011719 0,0.023437 0,0.046875 z m 6.890625,-0.609375 c -0.01172,-0.8203125 -0.550782,-1.2890625 -1.511719,-1.2890625 -0.972656,0 -1.605469,0.5039063 -1.605469,1.2773438 0,0.65625 0.339844,0.9726562 1.324219,1.2070312 l 0.621094,0.1523438 c 0.457031,0.1054687 0.644531,0.28125 0.644531,0.5859375 0,0.38671873 -0.386719,0.64453123 -0.972656,0.64453123 -0.363282,0 -0.65625,-0.10546875 -0.832032,-0.28125 -0.105468,-0.1171875 -0.152343,-0.234375 -0.1875,-0.52734373 H 63.91036 c 0.03516,0.96093748 0.574219,1.42968748 1.664063,1.42968748 1.054687,0 1.722656,-0.52734375 1.722656,-1.32421878 0,-0.6210937 -0.351562,-0.9726562 -1.183594,-1.171875 l -0.632812,-0.140625 c -0.539063,-0.1289062 -0.773438,-0.3046875 -0.773438,-0.5976562 0,-0.3867188 0.339844,-0.6328125 0.890625,-0.6328125 0.527344,0 0.820313,0.234375 0.832032,0.6679687 z m 4.582031,1.1484375 c 0,-0.6445312 -0.04687,-1.0195312 -0.164063,-1.3359375 -0.28125,-0.6796875 -0.914062,-1.1015625 -1.699218,-1.1015625 -1.160157,0 -1.910157,0.9023438 -1.910157,2.2734375 0,1.37109378 0.726563,2.21484378 1.898438,2.21484378 0.960937,0 1.617187,-0.55078125 1.78125,-1.45312498 h -0.667969 c -0.175781,0.55078123 -0.550781,0.83203123 -1.089844,0.83203123 -0.421875,0 -0.785156,-0.1875 -1.007812,-0.5390625 C 68.703328,-1.2077969 68.644734,-1.4538906 68.633016,-1.8640469 Z m -3.058594,-0.5390625 c 0.04687,-0.7734375 0.527344,-1.2773437 1.195313,-1.2773437 0.644531,0 1.148437,0.5390625 1.148437,1.2304687 0,0.011719 0,0.023437 0,0.046875 z m 3.963867,-1.7695312 V -7.65625e-4 H 73.28829 V -2.3093594 c 0,-0.84375 0.445313,-1.40625 1.125,-1.40625 0.527344,0 0.867188,0.3164063 0.867188,0.8203125 v 2.894531275 h 0.65625 V -3.1531094 c 0,-0.6914062 -0.515625,-1.1484375 -1.324219,-1.1484375 -0.621094,0 -1.019531,0.2460938 -1.382813,0.8320313 v -0.703125 z m 5.897461,0 h -0.691406 v -1.1484375 h -0.65625 v 1.1484375 h -0.5625 v 0.5390625 h 0.5625 v 3.15234373 c 0,0.421875 0.28125,0.66796875 0.796875,0.66796875 0.164062,0 0.328125,-0.0234375 0.550781,-0.0585938 v -0.5625 c -0.09375,0.0234375 -0.199219,0.0351563 -0.316406,0.0351563 -0.292969,0 -0.375,-0.0820313 -0.375,-0.375 V -3.6335781 h 0.691406 z m 4.453125,3.78515623 c -0.07031,0.0117188 -0.105469,0.0117188 -0.140625,0.0117188 -0.234375,0 -0.363281,-0.1171875 -0.363281,-0.328125 V -3.1531094 c 0,-0.75 -0.539063,-1.1484375 -1.570313,-1.1484375 -0.609375,0 -1.113281,0.1757813 -1.382812,0.4921875 -0.199219,0.2109375 -0.269531,0.4570313 -0.292969,0.8671875 h 0.667969 c 0.05859,-0.5039062 0.363281,-0.7382812 0.984375,-0.7382812 0.597656,0 0.9375,0.2226562 0.9375,0.6210937 v 0.1757813 c 0,0.28125 -0.175781,0.3984375 -0.703125,0.4570312 -0.9375,0.1171875 -1.078125,0.1523438 -1.335938,0.2578125 -0.480468,0.1992188 -0.726562,0.5742188 -0.726562,1.1132813 0,0.76171873 0.515625,1.24218748 1.371094,1.24218748 0.515625,0 0.9375,-0.187500005 1.417968,-0.62109375 0.04687,0.421875 0.246094,0.62109375 0.679688,0.62109375 0.140625,0 0.234375,-0.0234375 0.457031,-0.0703125 z M 81.81075,-1.3132656 c 0,0.2226562 -0.07031,0.35156248 -0.269531,0.53906248 -0.269532,0.24609375 -0.597657,0.375 -0.984375,0.375 -0.515625,0 -0.820313,-0.24609375 -0.820313,-0.66796878 0,-0.4453125 0.292969,-0.6679687 0.996094,-0.7617187 0.703125,-0.1054688 0.84375,-0.1289063 1.078125,-0.234375 z m 3.351562,-2.859375 h -0.691406 v -1.1484375 h -0.65625 v 1.1484375 h -0.5625 v 0.5390625 h 0.5625 v 3.15234373 c 0,0.421875 0.28125,0.66796875 0.796875,0.66796875 0.164063,0 0.328125,-0.0234375 0.550781,-0.0585938 v -0.5625 c -0.09375,0.0234375 -0.199218,0.0351563 -0.316406,0.0351563 -0.292969,0 -0.375,-0.0820313 -0.375,-0.375 V -3.6335781 h 0.691406 z m 1.385743,0 h -0.65625 v 4.171874975 h 0.65625 z m 0,-1.640625 h -0.667969 v 0.84375 h 0.667969 z m 2.847656,5.812499975 1.59375,-4.171874975 H 90.25118 l -1.183594,3.38671873 -1.113281,-3.38671873 h -0.75 l 1.464843,4.171874975 z M 95.006062,-1.8640469 c 0,-0.6445312 -0.04687,-1.0195312 -0.164062,-1.3359375 -0.28125,-0.6796875 -0.914063,-1.1015625 -1.699219,-1.1015625 -1.160156,0 -1.910156,0.9023438 -1.910156,2.2734375 0,1.37109378 0.726562,2.21484378 1.898437,2.21484378 0.960938,0 1.617188,-0.55078125 1.78125,-1.45312498 h -0.667968 c -0.175782,0.55078123 -0.550782,0.83203123 -1.089844,0.83203123 -0.421875,0 -0.785156,-0.1875 -1.007813,-0.5390625 C 91.994344,-1.2077969 91.93575,-1.4538906 91.924031,-1.8640469 Z m -3.058593,-0.5390625 c 0.04687,-0.7734375 0.527343,-1.2773437 1.195312,-1.2773437 0.644531,0 1.148438,0.5390625 1.148438,1.2304687 0,0.011719 0,0.023437 0,0.046875 z m 3.960937,-1.7695312 v 4.171874975 h 0.667969 V -2.3093594 c 0,-0.84375 0.445312,-1.40625 1.125,-1.40625 0.527344,0 0.867187,0.3164063 0.867187,0.8203125 v 2.894531275 h 0.65625 V -3.1531094 c 0,-0.6914062 -0.515625,-1.1484375 -1.324218,-1.1484375 -0.621094,0 -1.019532,0.2460938 -1.382813,0.8320313 v -0.703125 z m 7.959964,2.3085937 c 0,-0.6445312 -0.0469,-1.0195312 -0.16407,-1.3359375 -0.28125,-0.6796875 -0.91406,-1.1015625 -1.69921,-1.1015625 -1.16016,0 -1.91016,0.9023438 -1.91016,2.2734375 0,1.37109378 0.72656,2.21484378 1.89844,2.21484378 0.96093,0 1.61718,-0.55078125 1.78125,-1.45312498 h -0.66797 c -0.17578,0.55078123 -0.55078,0.83203123 -1.08985,0.83203123 -0.42187,0 -0.78515,-0.1875 -1.00781,-0.5390625 -0.15234,-0.23437503 -0.21094,-0.48046873 -0.22265,-0.89062503 z m -3.0586,-0.5390625 c 0.0469,-0.7734375 0.52735,-1.2773437 1.19532,-1.2773437 0.64453,0 1.14843,0.5390625 1.14843,1.2304687 0,0.011719 0,0.023437 0,0.046875 z m 6.89063,-0.609375 c -0.0117,-0.8203125 -0.55078,-1.2890625 -1.51172,-1.2890625 -0.97266,0 -1.60547,0.5039063 -1.60547,1.2773438 0,0.65625 0.33984,0.9726562 1.32422,1.2070312 l 0.62109,0.1523438 c 0.45703,0.1054687 0.64453,0.28125 0.64453,0.5859375 0,0.38671873 -0.38671,0.64453123 -0.97265,0.64453123 -0.36328,0 -0.65625,-0.10546875 -0.83203,-0.28125 -0.10547,-0.1171875 -0.15235,-0.234375 -0.1875,-0.52734373 h -0.70313 c 0.0352,0.96093748 0.57422,1.42968748 1.66406,1.42968748 1.05469,0 1.72266,-0.52734375 1.72266,-1.32421878 0,-0.6210937 -0.35156,-0.9726562 -1.18359,-1.171875 l -0.63282,-0.140625 c -0.53906,-0.1289062 -0.77343,-0.3046875 -0.77343,-0.5976562 0,-0.3867188 0.33984,-0.6328125 0.89062,-0.6328125 0.52735,0 0.82031,0.234375 0.83203,0.6679687 z m 3.9873,0 c -0.0117,-0.8203125 -0.55078,-1.2890625 -1.51172,-1.2890625 -0.97265,0 -1.60546,0.5039063 -1.60546,1.2773438 0,0.65625 0.33984,0.9726562 1.32421,1.2070312 l 0.6211,0.1523438 c 0.45703,0.1054687 0.64453,0.28125 0.64453,0.5859375 0,0.38671873 -0.38672,0.64453123 -0.97266,0.64453123 -0.36328,0 -0.65625,-0.10546875 -0.83203,-0.28125 -0.10547,-0.1171875 -0.15234,-0.234375 -0.1875,-0.52734373 h -0.70312 c 0.0352,0.96093748 0.57422,1.42968748 1.66406,1.42968748 1.05469,0 1.72266,-0.52734375 1.72266,-1.32421878 0,-0.6210937 -0.35157,-0.9726562 -1.1836,-1.171875 l -0.63281,-0.140625 c -0.53906,-0.1289062 -0.77344,-0.3046875 -0.77344,-0.5976562 0,-0.3867188 0.33985,-0.6328125 0.89063,-0.6328125 0.52734,0 0.82031,0.234375 0.83203,0.6679687 z m 0,0"
       style="fill:#000000;fill-opacity:1;fill-rule:nonzero;stroke:none"
       aria-label="Real-WorldRepresentativeness"
       transform="matrix(1.3333333,0,0,1.3333333,118.544,215.32133)" />
    <path
       id="path7"
       d="M 28.3468,0 V 134.64734"
       style="fill:none;stroke:#cccccc;stroke-width:0.19925;stroke-linecap:butt;stroke-linejoin:miter;stroke-miterlimit:10;stroke-dasharray:none;stroke-opacity:1"
       transform="matrix(1.3333333,0,0,-1.3333333,42.148,189.508)" />
    <path
       id="path8"
       d="M 56.69362,0 V 134.64734"
       style="fill:none;stroke:#cccccc;stroke-width:0.19925;stroke-linecap:butt;stroke-linejoin:miter;stroke-miterlimit:10;stroke-dasharray:none;stroke-opacity:1"
       transform="matrix(1.3333333,0,0,-1.3333333,42.148,189.508)" />
    <path
       id="path9"
       d="M 85.04042,0 V 134.64734"
       style="fill:none;stroke:#cccccc;stroke-width:0.19925;stroke-linecap:butt;stroke-linejoin:miter;stroke-miterlimit:10;stroke-dasharray:none;stroke-opacity:1"
       transform="matrix(1.3333333,0,0,-1.3333333,42.148,189.508)" />
    <path
       id="path10"
       d="M 113.38724,0 V 134.64734"
       style="fill:none;stroke:#cccccc;stroke-width:0.19925;stroke-linecap:butt;stroke-linejoin:miter;stroke-miterlimit:10;stroke-dasharray:none;stroke-opacity:1"
       transform="matrix(1.3333333,0,0,-1.3333333,42.148,189.508)" />
    <path
       id="path11"
       d="M 141.73404,0 V 134.64734"
       style="fill:none;stroke:#cccccc;stroke-width:0.19925;stroke-linecap:butt;stroke-linejoin:miter;stroke-miterlimit:10;stroke-dasharray:none;stroke-opacity:1"
       transform="matrix(1.3333333,0,0,-1.3333333,42.148,189.508)" />
    <path
       id="path12"
       d="M 170.08086,0 V 134.64734"
       style="fill:none;stroke:#cccccc;stroke-width:0.19925;stroke-linecap:butt;stroke-linejoin:miter;stroke-miterlimit:10;stroke-dasharray:none;stroke-opacity:1"
       transform="matrix(1.3333333,0,0,-1.3333333,42.148,189.508)" />
    <path
       id="path13"
       d="M 198.42766,0 V 134.64734"
       style="fill:none;stroke:#cccccc;stroke-width:0.19925;stroke-linecap:butt;stroke-linejoin:miter;stroke-miterlimit:10;stroke-dasharray:none;stroke-opacity:1"
       transform="matrix(1.3333333,0,0,-1.3333333,42.148,189.508)" />
    <path
       id="path14"
       d="M 0,28.3468 H 205.51436"
       style="fill:none;stroke:#cccccc;stroke-width:0.19925;stroke-linecap:butt;stroke-linejoin:miter;stroke-miterlimit:10;stroke-dasharray:none;stroke-opacity:1"
       transform="matrix(1.3333333,0,0,-1.3333333,42.148,189.508)" />
    <path
       id="path15"
       d="M 0,56.69362 H 205.51436"
       style="fill:none;stroke:#cccccc;stroke-width:0.19925;stroke-linecap:butt;stroke-linejoin:miter;stroke-miterlimit:10;stroke-dasharray:none;stroke-opacity:1"
       transform="matrix(1.3333333,0,0,-1.3333333,42.148,189.508)" />
    <path
       id="path16"
       d="M 0,85.04042 H 205.51436"
       style="fill:none;stroke:#cccccc;stroke-width:0.19925;stroke-linecap:butt;stroke-linejoin:miter;stroke-miterlimit:10;stroke-dasharray:none;stroke-opacity:1"
       transform="matrix(1.3333333,0,0,-1.3333333,42.148,189.508)" />
    <path
       id="path17"
       d="M 0,113.38724 H 205.51436"
       style="fill:none;stroke:#cccccc;stroke-width:0.19925;stroke-linecap:butt;stroke-linejoin:miter;stroke-miterlimit:10;stroke-dasharray:none;stroke-opacity:1"
       transform="matrix(1.3333333,0,0,-1.3333333,42.148,189.508)" />
    <path
       id="path18"
       d="M 42.5202,113.38724 127.56062,28.3468"
       style="fill:none;stroke:#b3b3b3;stroke-width:0.79701;stroke-linecap:butt;stroke-linejoin:miter;stroke-miterlimit:10;stroke-dasharray:2.98883, 2.98883;stroke-dashoffset:0;stroke-opacity:1"
       transform="matrix(1.3333333,0,0,-1.3333333,42.148,189.508)" />
    <path
       id="path19"
       d="m 44.98608,113.38724 c 0,1.36187 -1.104,2.46588 -2.46588,2.46588 -1.36189,0 -2.46588,-1.10401 -2.46588,-2.46588 0,-1.3619 1.10399,-2.46588 2.46588,-2.46588 1.36188,0 2.46588,1.10398 2.46588,2.46588 z"
       style="fill:#c9146e;fill-opacity:1;fill-rule:nonzero;stroke:none"
       transform="matrix(1.3333333,0,0,-1.3333333,42.148,189.508)" />
    <path
       id="path20"
       d="m 87.5063,70.867 c 0,1.3619 -1.10399,2.46589 -2.46588,2.46589 -1.36188,0 -2.46588,-1.10399 -2.46588,-2.46589 0,-1.36187 1.104,-2.46588 2.46588,-2.46588 1.36189,0 2.46588,1.10401 2.46588,2.46588 z"
       style="fill:#2294bd;fill-opacity:1;fill-rule:nonzero;stroke:none"
       transform="matrix(1.3333333,0,0,-1.3333333,42.148,189.508)" />
    <path
       id="path21"
       d="m 130.0265,28.3468 c 0,1.36188 -1.10398,2.46588 -2.46588,2.46588 -1.36187,0 -2.46588,-1.104 -2.46588,-2.46588 0,-1.36188 1.10401,-2.46588 2.46588,-2.46588 1.3619,0 2.46588,1.104 2.46588,2.46588 z"
       style="fill:#287528;fill-opacity:1;fill-rule:nonzero;stroke:none"
       transform="matrix(1.3333333,0,0,-1.3333333,42.148,189.508)" />
    <path
       id="path22"
       d="M 1.7223984,-4.5228984 2.7653672,5.390625e-4 H 3.9606797 L 4.9919297,-4.5228984 V 5.390625e-4 H 6.1872422 V -5.8119609 H 4.3825547 L 3.3630234,-1.1830547 2.3083359,-5.8119609 H 0.52708594 V 5.390625e-4 H 1.7223984 Z m 6.5683594,0.2226562 H 7.1774766 V 5.390625e-4 h 1.1132812 z m 0,-1.5117187 H 7.1774766 v 0.9960937 h 1.1132812 z m 4.7255862,3.1171875 c -0.08203,-1.0546875 -0.785157,-1.6757813 -1.851563,-1.6757813 -1.2890623,0 -2.0390623,0.84375 -2.0390623,2.3085938 0,1.41796871 0.7382813,2.24999996 2.0156253,2.24999996 1.042968,0 1.769531,-0.64453125 1.875,-1.67578126 h -1.066407 c -0.140625,0.55078126 -0.363281,0.77343751 -0.796875,0.77343751 -0.5625,0 -0.914062,-0.51562501 -0.914062,-1.34765621 0,-0.4101563 0.08203,-0.7851563 0.222656,-1.0429688 0.128906,-0.2460937 0.375,-0.3632812 0.691406,-0.3632812 0.457032,0 0.667969,0.2109375 0.796875,0.7734375 z m 0.773437,-1.6054688 V 5.390625e-4 h 1.113281 V -2.2846172 c 0,-0.65625 0.328125,-0.984375 0.984375,-0.984375 0.117188,0 0.199219,0.011719 0.351563,0.035156 V -4.370555 c -0.07031,0 -0.105469,0 -0.140625,0 -0.503906,0 -0.960938,0.328125 -1.195313,0.9140625 v -0.84375 z m 4.839844,-0.070312 c -1.324219,0 -2.121094,0.8671875 -2.121094,2.2734375 0,1.41796876 0.796875,2.28515626 2.121094,2.28515626 1.3125,0 2.132812,-0.8671875 2.132812,-2.24999996 0,-1.4648438 -0.785156,-2.3085938 -2.132812,-2.3085938 z m 0,0.9023438 c 0.621094,0 1.019531,0.5390625 1.019531,1.3945312 0,0.796875 -0.421875,1.35937501 -1.019531,1.35937501 -0.597656,0 -1.007813,-0.56250001 -1.007813,-1.38281251 0,-0.8203125 0.410157,-1.3710937 1.007813,-1.3710937 z m 4.845703,0.7382812 h -2.167969 v 1.078125 h 2.167969 z m 0.744141,-3.0820312 V 5.390625e-4 H 25.33275 V -0.43305469 c 0.269531,0.421875 0.644531,0.62109375 1.195312,0.62109375 1.019532,0 1.804688,-0.984375 1.804688,-2.28515626 0,-0.5742187 -0.175781,-1.171875 -0.457031,-1.5820312 -0.304688,-0.421875 -0.820313,-0.6914063 -1.347657,-0.6914063 -0.539062,0 -0.925781,0.1992188 -1.195312,0.6210938 v -2.0625 z m 2.0625,2.3671875 c 0.539062,0 0.9375,0.5625 0.9375,1.359375 0,0.7734375 -0.398438,1.33593746 -0.9375,1.33593746 -0.574219,0 -0.949219,-0.53906246 -0.949219,-1.35937496 0,-0.7851563 0.386719,-1.3359375 0.949219,-1.3359375 z m 6.509765,1.640625 c 0.01172,-0.09375 0.01172,-0.1289063 0.01172,-0.1875 0,-0.4335938 -0.05859,-0.8320313 -0.164062,-1.1367188 -0.292969,-0.7734375 -0.984375,-1.2421875 -1.851563,-1.2421875 -1.230469,0 -1.992187,0.890625 -1.992187,2.3320313 0,1.38281246 0.75,2.22656246 1.96875,2.22656246 0.960937,0 1.746093,-0.55078125 1.992187,-1.39453126 h -1.101562 c -0.128907,0.33984376 -0.445313,0.53906251 -0.855469,0.53906251 -0.316406,0 -0.574219,-0.140625 -0.726563,-0.37500001 -0.105468,-0.1640625 -0.140625,-0.3515625 -0.164062,-0.7617187 z m -2.859375,-0.7382813 c 0.07031,-0.65625 0.339844,-0.984375 0.84375,-0.984375 0.269532,0 0.527344,0.140625 0.691407,0.3632813 0.105468,0.1640625 0.152343,0.328125 0.175781,0.6210937 z m 3.624024,-1.7578125 V 5.390625e-4 h 1.113281 V -2.5775859 c 0,-0.515625 0.363281,-0.84375 0.902344,-0.84375 0.480469,0 0.714844,0.2578125 0.714844,0.7734375 V 5.390625e-4 h 1.113281 V -2.8822734 c 0,-0.9492188 -0.527344,-1.4882813 -1.441406,-1.4882813 -0.574219,0 -0.972657,0.2109375 -1.289063,0.6914063 v -0.6210938 z m 8.52539,1.6054688 c -0.08203,-1.0546875 -0.785156,-1.6757813 -1.851562,-1.6757813 -1.289063,0 -2.039063,0.84375 -2.039063,2.3085938 0,1.41796871 0.738282,2.24999996 2.015625,2.24999996 1.042969,0 1.769532,-0.64453125 1.875,-1.67578126 h -1.066406 c -0.140625,0.55078126 -0.363281,0.77343751 -0.796875,0.77343751 -0.5625,0 -0.914062,-0.51562501 -0.914062,-1.34765621 0,-0.4101563 0.08203,-0.7851563 0.222656,-1.0429688 0.128906,-0.2460937 0.375,-0.3632812 0.691406,-0.3632812 0.457031,0 0.667969,0.2109375 0.796875,0.7734375 z m 0.729493,-3.1171875 V 5.390625e-4 h 1.113281 V -2.5775859 c 0,-0.4921875 0.351562,-0.84375 0.855469,-0.84375 0.246093,0 0.433593,0.082031 0.5625,0.2578125 0.09375,0.140625 0.128906,0.2578125 0.128906,0.5390625 V 5.390625e-4 h 1.113281 V -2.8822734 c 0,-0.5390625 -0.140625,-0.9140625 -0.445312,-1.1601563 -0.246094,-0.2109375 -0.597657,-0.328125 -0.960938,-0.328125 -0.550781,0 -0.949219,0.2226563 -1.253906,0.6914063 v -2.1328125 z m 4.813476,1.5117187 V 5.390625e-4 h 1.113281 V -2.5775859 c 0,-0.5273438 0.28125,-0.84375 0.761719,-0.84375 0.375,0 0.609375,0.2109375 0.609375,0.5507812 V 5.390625e-4 h 1.113281 V -2.5775859 c 0,-0.5273438 0.292969,-0.84375 0.761719,-0.84375 0.375,0 0.609375,0.2109375 0.609375,0.5507812 V 5.390625e-4 h 1.113281 V -3.0463359 c 0,-0.8320313 -0.503906,-1.3242188 -1.371093,-1.3242188 -0.539063,0 -0.925782,0.1875 -1.253907,0.6328125 -0.210937,-0.4101562 -0.632812,-0.6328125 -1.171875,-0.6328125 -0.492187,0 -0.808593,0.1640625 -1.183593,0.5976563 v -0.5273438 z m 10.775391,4.16015626 c -0.199219,-0.17578125 -0.246094,-0.29296875 -0.246094,-0.515625 V -3.0463359 c 0,-0.8789063 -0.597656,-1.3242188 -1.769531,-1.3242188 -1.160156,0 -1.769531,0.4921875 -1.839844,1.4882813 h 1.078125 c 0.05859,-0.4453125 0.234375,-0.5859375 0.785156,-0.5859375 0.433594,0 0.644532,0.140625 0.644532,0.421875 0,0.140625 -0.07031,0.2695312 -0.1875,0.3398437 -0.152344,0.082031 -0.152344,0.082031 -0.703125,0.1640625 l -0.445313,0.082031 c -0.855469,0.140625 -1.265625,0.5859375 -1.265625,1.3476562 0,0.37500001 0.105469,0.67968751 0.304688,0.89062501 0.246093,0.2578125 0.621093,0.41015625 1.007812,0.41015625 0.46875,0 0.914063,-0.2109375 1.300781,-0.62109375 0,0.22265625 0.02344,0.3046875 0.128907,0.4335937525 h 1.207031 z M 57.052477,-1.7338359 c 0,0.65625 -0.316407,1.01953121 -0.878907,1.01953121 -0.375,0 -0.609375,-0.19921875 -0.609375,-0.51562501 0,-0.3398437 0.175782,-0.5039062 0.644532,-0.5976562 l 0.375,-0.070312 c 0.292968,-0.058594 0.351562,-0.070312 0.46875,-0.1289063 z m 2.112304,-2.5664063 V 5.390625e-4 h 1.113281 V -2.2846172 c 0,-0.65625 0.328125,-0.984375 0.984375,-0.984375 0.117188,0 0.199219,0.011719 0.351563,0.035156 V -4.370555 c -0.07031,0 -0.105469,0 -0.140625,0 -0.503906,0 -0.960938,0.328125 -1.195313,0.9140625 v -0.84375 z m 4.177735,1.6757813 v -3.1875 H 62.229234 V 5.390625e-4 h 1.113282 V -1.4057109 l 0.445312,-0.4921875 1.03125,1.8984374625 h 1.3125 L 64.561266,-2.6713359 66.026109,-4.3002422 h -1.265625 z m 6.870117,-0.2929688 c -0.01172,-0.9023437 -0.714844,-1.453125 -1.863281,-1.453125 -1.101563,0 -1.769532,0.5507813 -1.769532,1.4296875 0,0.2929688 0.08203,0.5390625 0.234375,0.703125 0.152344,0.1523438 0.292969,0.2226563 0.703125,0.3632813 l 1.324219,0.4101562 c 0.28125,0.082031 0.375,0.1757813 0.375,0.3515625 0,0.25781251 -0.304687,0.42187501 -0.820312,0.42187501 -0.292969,0 -0.527344,-0.0585938 -0.667969,-0.15234375 -0.117188,-0.09375 -0.164063,-0.17578126 -0.210938,-0.41015626 h -1.089843 c 0.02344,0.93750001 0.726562,1.44140626 2.027343,1.44140626 0.597657,0 1.054688,-0.12890625 1.371094,-0.38671875 0.316406,-0.2578125 0.515625,-0.65625 0.515625,-1.07812501 0,-0.5507812 -0.28125,-0.9140625 -0.84375,-1.078125 L 68.07982,-2.7650859 c -0.304687,-0.09375 -0.386718,-0.1640625 -0.386718,-0.3398438 0,-0.234375 0.257812,-0.3984375 0.644531,-0.3984375 0.527344,0 0.796875,0.1992188 0.808594,0.5859375 z m 0,0"
       style="fill:#c9146e;fill-opacity:1;fill-rule:nonzero;stroke:none"
       aria-label="Micro-benchmarks"
       transform="matrix(1.3333333,0,0,1.3333333,108.848,42.136)" />
    <path
       id="path23"
       d="M 1.7238828,-4.5233047 2.7668516,1.328125e-4 H 3.9621641 L 4.9934141,-4.5233047 V 1.328125e-4 H 6.1887266 V -5.8123672 H 4.3840391 L 3.3645078,-1.1834609 2.3098203,-5.8123672 H 0.52857031 V 1.328125e-4 H 1.7238828 Z m 9.0878902,4.38281251 C 10.612555,-0.31627344 10.56568,-0.43346094 10.56568,-0.65611719 V -3.0467422 c 0,-0.8789062 -0.5976566,-1.3242187 -1.7695316,-1.3242187 -1.1601562,0 -1.7695312,0.4921875 -1.8398437,1.4882812 h 1.078125 c 0.058594,-0.4453125 0.234375,-0.5859375 0.7851562,-0.5859375 0.4335938,0 0.6445313,0.140625 0.6445313,0.421875 0,0.140625 -0.070312,0.2695313 -0.1875,0.3398438 -0.1523438,0.082031 -0.1523438,0.082031 -0.703125,0.1640625 l -0.4453125,0.082031 c -0.8554688,0.140625 -1.265625,0.5859375 -1.265625,1.3476563 0,0.37499996 0.1054687,0.67968746 0.3046875,0.89062496 0.2460937,0.2578125 0.6210937,0.41015625 1.0078125,0.41015625 0.46875,0 0.9140625,-0.2109375 1.3007812,-0.62109375 0,0.22265625 0.023437,0.3046875 0.1289063,0.4335937525 H 10.811773 Z M 9.4641172,-1.7342422 c 0,0.65625 -0.3164063,1.01953126 -0.8789063,1.01953126 -0.375,0 -0.609375,-0.19921875 -0.609375,-0.51562496 0,-0.3398438 0.1757813,-0.5039063 0.6445313,-0.5976563 l 0.375,-0.070312 c 0.2929687,-0.058594 0.3515625,-0.070312 0.46875,-0.1289062 z m 5.7656248,-0.9609375 c -0.08203,-1.0546875 -0.785156,-1.6757812 -1.851562,-1.6757812 -1.289063,0 -2.039063,0.84375 -2.039063,2.3085937 0,1.41796876 0.738281,2.25000001 2.015625,2.25000001 1.042969,0 1.769531,-0.64453125 1.875,-1.67578121 h -1.066406 c -0.140625,0.55078121 -0.363281,0.77343746 -0.796875,0.77343746 -0.5625,0 -0.914063,-0.51562496 -0.914063,-1.34765626 0,-0.4101562 0.08203,-0.7851562 0.222657,-1.0429687 0.128906,-0.2460938 0.375,-0.3632813 0.691406,-0.3632813 0.457031,0 0.667969,0.2109375 0.796875,0.7734375 z m 0.776367,-1.6054687 V 1.328125e-4 h 1.113282 V -2.2850234 c 0,-0.65625 0.328125,-0.984375 0.984375,-0.984375 0.117187,0 0.199218,0.011719 0.351562,0.035156 v -1.1367187 c -0.07031,0 -0.105469,0 -0.140625,0 -0.503906,0 -0.960937,0.328125 -1.195312,0.9140625 v -0.84375 z m 4.839844,-0.070312 c -1.324219,0 -2.121094,0.8671875 -2.121094,2.2734375 0,1.41796871 0.796875,2.28515621 2.121094,2.28515621 1.3125,0 2.132813,-0.8671875 2.132813,-2.25000001 0,-1.4648437 -0.785157,-2.3085937 -2.132813,-2.3085937 z m 0,0.9023437 c 0.621094,0 1.019531,0.5390625 1.019531,1.3945313 0,0.796875 -0.421875,1.35937496 -1.019531,1.35937496 -0.597656,0 -1.007812,-0.56249996 -1.007812,-1.38281246 0,-0.8203125 0.410156,-1.3710938 1.007812,-1.3710938 z m 4.845703,0.7382813 h -2.167969 v 1.078125 h 2.167969 z m 0.744141,-3.0820313 V 1.328125e-4 h 1.113281 V -0.43346094 c 0.269531,0.421875 0.644531,0.62109375 1.195313,0.62109375 1.019531,0 1.804687,-0.984375 1.804687,-2.28515621 0,-0.5742188 -0.175781,-1.171875 -0.457031,-1.5820313 -0.304688,-0.421875 -0.820313,-0.6914062 -1.347656,-0.6914062 -0.539063,0 -0.925782,0.1992187 -1.195313,0.6210937 v -2.0625 z m 2.0625,2.3671875 c 0.539062,0 0.9375,0.5625 0.9375,1.359375 0,0.7734375 -0.398438,1.33593751 -0.9375,1.33593751 -0.574219,0 -0.949219,-0.53906251 -0.949219,-1.35937501 0,-0.7851562 0.386719,-1.3359375 0.949219,-1.3359375 z m 6.509765,1.640625 c 0.01172,-0.09375 0.01172,-0.1289062 0.01172,-0.1875 0,-0.4335937 -0.05859,-0.8320312 -0.164062,-1.1367187 -0.292969,-0.7734375 -0.984375,-1.2421875 -1.851563,-1.2421875 -1.230469,0 -1.992187,0.890625 -1.992187,2.3320312 0,1.38281251 0.75,2.22656251 1.96875,2.22656251 0.960937,0 1.746093,-0.55078125 1.992187,-1.39453121 h -1.101562 c -0.128907,0.33984371 -0.445313,0.53906246 -0.855469,0.53906246 -0.316406,0 -0.574219,-0.140625 -0.726563,-0.37499996 -0.105468,-0.1640625 -0.140625,-0.3515625 -0.164062,-0.7617188 z m -2.859375,-0.7382812 c 0.07031,-0.65625 0.339844,-0.984375 0.84375,-0.984375 0.269532,0 0.527344,0.140625 0.691407,0.3632812 0.105468,0.1640625 0.152343,0.328125 0.175781,0.6210938 z m 3.624024,-1.7578125 V 1.328125e-4 h 1.113281 V -2.5779922 c 0,-0.515625 0.363281,-0.84375 0.902344,-0.84375 0.480469,0 0.714844,0.2578125 0.714844,0.7734375 V 1.328125e-4 h 1.113281 V -2.8826797 c 0,-0.9492187 -0.527344,-1.4882812 -1.441406,-1.4882812 -0.574219,0 -0.972657,0.2109375 -1.289063,0.6914062 v -0.6210937 z m 8.525391,1.6054687 c -0.08203,-1.0546875 -0.785157,-1.6757812 -1.851563,-1.6757812 -1.289062,0 -2.039062,0.84375 -2.039062,2.3085937 0,1.41796876 0.738281,2.25000001 2.015625,2.25000001 1.042968,0 1.769531,-0.64453125 1.875,-1.67578121 h -1.066407 c -0.140625,0.55078121 -0.363281,0.77343746 -0.796875,0.77343746 -0.5625,0 -0.914062,-0.51562496 -0.914062,-1.34765626 0,-0.4101562 0.08203,-0.7851562 0.222656,-1.0429687 0.128906,-0.2460938 0.375,-0.3632813 0.691406,-0.3632813 0.457032,0 0.667969,0.2109375 0.796875,0.7734375 z m 0.729492,-3.1171875 V 1.328125e-4 h 1.113281 V -2.5779922 c 0,-0.4921875 0.351562,-0.84375 0.855469,-0.84375 0.246093,0 0.433593,0.082031 0.5625,0.2578125 0.09375,0.140625 0.128906,0.2578125 0.128906,0.5390625 V 1.328125e-4 h 1.113281 V -2.8826797 c 0,-0.5390625 -0.140625,-0.9140625 -0.445312,-1.1601562 -0.246094,-0.2109375 -0.597657,-0.328125 -0.960938,-0.328125 -0.550781,0 -0.949219,0.2226562 -1.253906,0.6914062 v -2.1328125 z m 4.810547,1.5117188 V 1.328125e-4 h 1.113281 V -2.5779922 c 0,-0.5273437 0.28125,-0.84375 0.761719,-0.84375 0.375,0 0.609375,0.2109375 0.609375,0.5507813 V 1.328125e-4 h 1.113281 V -2.5779922 c 0,-0.5273437 0.292969,-0.84375 0.761719,-0.84375 0.375,0 0.609375,0.2109375 0.609375,0.5507813 V 1.328125e-4 h 1.113281 V -3.0467422 c 0,-0.8320312 -0.503906,-1.3242187 -1.371094,-1.3242187 -0.539062,0 -0.925781,0.1875 -1.253906,0.6328125 -0.210938,-0.4101563 -0.632813,-0.6328125 -1.171875,-0.6328125 -0.492188,0 -0.808594,0.1640625 -1.183594,0.5976562 v -0.5273437 z m 10.77832,4.16015621 c -0.199219,-0.17578125 -0.246094,-0.29296875 -0.246094,-0.515625 V -3.0467422 c 0,-0.8789062 -0.597656,-1.3242187 -1.769531,-1.3242187 -1.160156,0 -1.769531,0.4921875 -1.839844,1.4882812 h 1.078125 c 0.05859,-0.4453125 0.234375,-0.5859375 0.785156,-0.5859375 0.433594,0 0.644532,0.140625 0.644532,0.421875 0,0.140625 -0.07031,0.2695313 -0.1875,0.3398438 -0.152344,0.082031 -0.152344,0.082031 -0.703125,0.1640625 l -0.445313,0.082031 c -0.855469,0.140625 -1.265625,0.5859375 -1.265625,1.3476563 0,0.37499996 0.105469,0.67968746 0.304688,0.89062496 0.246093,0.2578125 0.621093,0.41015625 1.007812,0.41015625 0.46875,0 0.914063,-0.2109375 1.300781,-0.62109375 0,0.22265625 0.02344,0.3046875 0.128907,0.4335937525 h 1.207031 z M 59.268805,-1.7342422 c 0,0.65625 -0.316407,1.01953126 -0.878907,1.01953126 -0.375,0 -0.609375,-0.19921875 -0.609375,-0.51562496 0,-0.3398438 0.175782,-0.5039063 0.644532,-0.5976563 l 0.375,-0.070312 c 0.292968,-0.058594 0.351562,-0.070312 0.46875,-0.1289062 z M 61.37818,-4.3006484 V 1.328125e-4 h 1.113281 V -2.2850234 c 0,-0.65625 0.328125,-0.984375 0.984375,-0.984375 0.117187,0 0.199219,0.011719 0.351562,0.035156 v -1.1367187 c -0.07031,0 -0.105468,0 -0.140625,0 -0.503906,0 -0.960937,0.328125 -1.195312,0.9140625 v -0.84375 z m 4.180664,1.6757812 v -3.1875 H 64.445562 V 1.328125e-4 h 1.113282 V -1.4061172 l 0.445312,-0.4921875 1.03125,1.8984375125 h 1.3125 L 66.777594,-2.6717422 68.242437,-4.3006484 h -1.265625 z m 6.867187,-0.2929687 c -0.01172,-0.9023438 -0.714844,-1.453125 -1.863281,-1.453125 -1.101563,0 -1.769531,0.5507812 -1.769531,1.4296875 0,0.2929687 0.08203,0.5390625 0.234375,0.703125 0.152343,0.1523437 0.292968,0.2226562 0.703125,0.3632812 l 1.324218,0.4101563 c 0.28125,0.082031 0.375,0.1757812 0.375,0.3515625 0,0.25781246 -0.304687,0.42187496 -0.820312,0.42187496 -0.292969,0 -0.527344,-0.0585938 -0.667969,-0.15234375 -0.117187,-0.09375 -0.164062,-0.17578121 -0.210937,-0.41015621 h -1.089844 c 0.02344,0.93749996 0.726562,1.44140621 2.027344,1.44140621 0.597656,0 1.054687,-0.12890625 1.371093,-0.38671875 0.316407,-0.2578125 0.515625,-0.65625 0.515625,-1.07812496 0,-0.5507813 -0.28125,-0.9140625 -0.84375,-1.078125 l -1.417968,-0.4101563 c -0.304688,-0.09375 -0.386719,-0.1640625 -0.386719,-0.3398437 0,-0.234375 0.257812,-0.3984375 0.644531,-0.3984375 0.527344,0 0.796875,0.1992187 0.808594,0.5859375 z m 0,0"
       style="fill:#2294bd;fill-opacity:1;fill-rule:nonzero;stroke:none"
       aria-label="Macro-benchmarks"
       transform="matrix(1.3333333,0,0,1.3333333,165.54133,98.714667)" />
    <path
       id="path24"
       d="M 1.8289063,-2.509125 H 4.60625 V -3.5052187 H 1.8289063 v -1.3125 h 3 V -5.8138125 H 0.63359375 v 5.8125 H 4.9695313 v -0.99609375 h -3.140625 z m 3.9902343,-1.7929687 v 4.3007812 h 1.1132813 v -2.578125 c 0,-0.515625 0.3632812,-0.84375 0.9023437,-0.84375 0.4804688,0 0.7148438,0.2578125 0.7148438,0.7734375 v 2.6484375 H 9.6628906 V -2.884125 c 0,-0.9492187 -0.5273437,-1.4882812 -1.4414062,-1.4882812 -0.5742188,0 -0.9726563,0.2109375 -1.2890625,0.6914062 v -0.6210937 z m 7.5878904,4.3007812 h 1.125 v -5.8125 h -1.125 v 2.0625 C 13.1375,-4.1731875 12.7625,-4.3724062 12.223438,-4.3724062 c -1.03125,0 -1.804688,0.984375 -1.804688,2.2851562 0,0.5742188 0.175781,1.171875 0.457031,1.58203125 0.292969,0.421875 0.820313,0.69140625 1.347657,0.69140625 0.539062,0 0.914062,-0.19921875 1.183593,-0.62109375 z m -0.9375,-3.4453125 c 0.5625,0 0.9375,0.5507813 0.9375,1.3710938 0,0.7851562 -0.375,1.3242187 -0.9375,1.3242187 -0.550781,0 -0.9375,-0.5507812 -0.9375,-1.3359375 0,-0.796875 0.386719,-1.359375 0.9375,-1.359375 z m 4.965821,0.7148438 h -2.167969 v 1.078125 h 2.167969 z m 2.677734,-1.4882813 H 19.491992 V -5.3685 h -1.125 v 1.1484375 H 17.82793 v 0.75 h 0.539062 v 2.63671875 c 0,0.6796875 0.363281,1.01953125 1.101563,1.01953125 0.246093,0 0.445312,-0.0234375 0.644531,-0.09375 V -0.681 c -0.117188,0.0117188 -0.175781,0.0234375 -0.257813,0.0234375 -0.292968,0 -0.363281,-0.09375 -0.363281,-0.4804687 v -2.3320313 h 0.621094 z m 2.654297,-0.1523437 c -1.324219,0 -2.121094,0.8671875 -2.121094,2.2734375 0,1.4179687 0.796875,2.2851562 2.121094,2.2851562 1.3125,0 2.132812,-0.8671875 2.132812,-2.25 0,-1.4648437 -0.785156,-2.3085937 -2.132812,-2.3085937 z m 0,0.9023437 c 0.621094,0 1.019531,0.5390625 1.019531,1.3945313 0,0.796875 -0.421875,1.35937495 -1.019531,1.35937495 -0.597656,0 -1.007813,-0.56249995 -1.007813,-1.38281245 0,-0.8203125 0.410157,-1.3710938 1.007813,-1.3710938 z m 4.845703,0.7382813 h -2.167969 v 1.078125 h 2.167969 z m 2.103516,0.2226562 h 2.777343 v -0.9960937 h -2.777343 v -1.3125 h 3 v -0.9960938 h -4.195313 v 5.8125 h 4.335938 v -0.99609375 h -3.140625 z m 3.990234,-1.7929687 v 4.3007812 h 1.113281 v -2.578125 c 0,-0.515625 0.363281,-0.84375 0.902344,-0.84375 0.480469,0 0.714844,0.2578125 0.714844,0.7734375 v 2.6484375 h 1.113281 V -2.884125 c 0,-0.9492187 -0.527344,-1.4882812 -1.441406,-1.4882812 -0.574219,0 -0.972657,0.2109375 -1.289063,0.6914062 v -0.6210937 z m 7.587891,4.3007812 h 1.125 v -5.8125 h -1.125 v 2.0625 c -0.269532,-0.421875 -0.644532,-0.6210937 -1.183594,-0.6210937 -1.03125,0 -1.804688,0.984375 -1.804688,2.2851562 0,0.5742188 0.175782,1.171875 0.457032,1.58203125 0.292968,0.421875 0.820312,0.69140625 1.347656,0.69140625 0.539062,0 0.914062,-0.19921875 1.183594,-0.62109375 z m -0.9375,-3.4453125 c 0.5625,0 0.9375,0.5507813 0.9375,1.3710938 0,0.7851562 -0.375,1.3242187 -0.9375,1.3242187 -0.550782,0 -0.9375,-0.5507812 -0.9375,-1.3359375 0,-0.796875 0.386718,-1.359375 0.9375,-1.359375 z m 5.270507,-2.3671875 v 5.8125 h 1.113282 v -0.43359375 c 0.269531,0.421875 0.644531,0.62109375 1.195312,0.62109375 1.019531,0 1.804688,-0.984375 1.804688,-2.2851562 0,-0.5742188 -0.175782,-1.171875 -0.457032,-1.5820313 -0.304687,-0.421875 -0.820312,-0.6914062 -1.347656,-0.6914062 -0.539062,0 -0.925781,0.1992187 -1.195312,0.6210937 v -2.0625 z m 2.0625,2.3671875 c 0.539063,0 0.9375,0.5625 0.9375,1.359375 0,0.7734375 -0.398437,1.3359375 -0.9375,1.3359375 -0.574218,0 -0.949218,-0.5390625 -0.949218,-1.359375 0,-0.7851562 0.386718,-1.3359375 0.949218,-1.3359375 z M 54.2,-1.806 c 0.01172,-0.09375 0.01172,-0.1289062 0.01172,-0.1875 0,-0.4335937 -0.05859,-0.8320312 -0.164063,-1.1367187 -0.292968,-0.7734375 -0.984375,-1.2421875 -1.851562,-1.2421875 -1.230469,0 -1.992188,0.890625 -1.992188,2.3320312 0,1.3828125 0.75,2.2265625 1.96875,2.2265625 0.960938,0 1.746094,-0.55078125 1.992188,-1.3945312 h -1.101563 c -0.128906,0.3398437 -0.445312,0.53906245 -0.855468,0.53906245 -0.316407,0 -0.574219,-0.140625 -0.726563,-0.37499995 C 51.375781,-1.2083437 51.340625,-1.3958437 51.317188,-1.806 Z m -2.859375,-0.7382812 c 0.07031,-0.65625 0.339844,-0.984375 0.84375,-0.984375 0.269531,0 0.527344,0.140625 0.691406,0.3632812 0.105469,0.1640625 0.152344,0.328125 0.175782,0.6210938 z m 3.624023,-1.7578125 v 4.3007812 h 1.113282 v -2.578125 c 0,-0.515625 0.363281,-0.84375 0.902343,-0.84375 0.480469,0 0.714844,0.2578125 0.714844,0.7734375 v 2.6484375 h 1.113281 V -2.884125 c 0,-0.9492187 -0.527343,-1.4882812 -1.441406,-1.4882812 -0.574219,0 -0.972656,0.2109375 -1.289062,0.6914062 v -0.6210937 z m 8.525391,1.6054687 c -0.08203,-1.0546875 -0.785156,-1.6757812 -1.851562,-1.6757812 -1.289063,0 -2.039063,0.84375 -2.039063,2.3085937 0,1.41796875 0.738281,2.25 2.015625,2.25 1.042969,0 1.769531,-0.64453125 1.875,-1.6757812 h -1.066406 c -0.140625,0.5507812 -0.363281,0.77343745 -0.796875,0.77343745 -0.5625,0 -0.914063,-0.51562495 -0.914063,-1.34765625 0,-0.4101562 0.08203,-0.7851562 0.222657,-1.0429687 0.128906,-0.2460938 0.375,-0.3632813 0.691406,-0.3632813 0.457031,0 0.667969,0.2109375 0.796875,0.7734375 z m 0.729492,-3.1171875 v 5.8125 h 1.113282 v -2.578125 c 0,-0.4921875 0.351562,-0.84375 0.855468,-0.84375 0.246094,0 0.433594,0.082031 0.5625,0.2578125 0.09375,0.140625 0.128907,0.2578125 0.128907,0.5390625 v 2.625 h 1.113281 V -2.884125 c 0,-0.5390625 -0.140625,-0.9140625 -0.445313,-1.1601562 -0.246093,-0.2109375 -0.597656,-0.328125 -0.960937,-0.328125 -0.550781,0 -0.949219,0.2226562 -1.253906,0.6914062 v -2.1328125 z m 4.810547,1.5117188 v 4.3007812 h 1.113281 v -2.578125 c 0,-0.5273437 0.28125,-0.84375 0.761719,-0.84375 0.375,0 0.609375,0.2109375 0.609375,0.5507813 v 2.8710937 h 1.113281 v -2.578125 c 0,-0.5273437 0.292969,-0.84375 0.761719,-0.84375 0.375,0 0.609375,0.2109375 0.609375,0.5507813 v 2.8710937 h 1.113281 v -3.046875 c 0,-0.8320312 -0.503906,-1.3242187 -1.371093,-1.3242187 -0.539063,0 -0.925782,0.1875 -1.253907,0.6328125 -0.210937,-0.4101563 -0.632812,-0.6328125 -1.171875,-0.6328125 -0.492187,0 -0.808593,0.1640625 -1.183593,0.5976562 v -0.5273437 z m 10.77832,4.1601562 c -0.199218,-0.17578125 -0.246093,-0.29296875 -0.246093,-0.515625 v -2.390625 c 0,-0.8789062 -0.597657,-1.3242187 -1.769532,-1.3242187 -1.160156,0 -1.769531,0.4921875 -1.839843,1.4882812 h 1.078125 c 0.05859,-0.4453125 0.234375,-0.5859375 0.785156,-0.5859375 0.433594,0 0.644531,0.140625 0.644531,0.421875 0,0.140625 -0.07031,0.2695313 -0.1875,0.3398438 -0.152344,0.082031 -0.152344,0.082031 -0.703125,0.1640625 l -0.445312,0.082031 c -0.855469,0.140625 -1.265625,0.5859375 -1.265625,1.3476563 0,0.37499995 0.105468,0.67968745 0.304687,0.89062495 0.246094,0.2578125 0.621094,0.41015625 1.007813,0.41015625 0.46875,0 0.914062,-0.2109375 1.300781,-0.62109375 0,0.22265625 0.02344,0.3046875 0.128906,0.43359375 h 1.207031 z m -1.347656,-1.59375 c 0,0.65625 -0.316406,1.01953125 -0.878906,1.01953125 -0.375,0 -0.609375,-0.19921875 -0.609375,-0.51562495 0,-0.3398438 0.175781,-0.5039063 0.644531,-0.5976563 l 0.375,-0.070312 c 0.292969,-0.058594 0.351563,-0.070312 0.46875,-0.1289062 z m 2.112305,-2.5664062 v 4.3007812 h 1.113281 v -2.2851562 c 0,-0.65625 0.328125,-0.984375 0.984375,-0.984375 0.117188,0 0.199219,0.011719 0.351563,0.035156 v -1.1367187 c -0.07031,0 -0.105469,0 -0.140625,0 -0.503907,0 -0.960938,0.328125 -1.195313,0.9140625 v -0.84375 z m 4.177734,1.6757812 v -3.1875 H 83.6375 v 5.8125 h 1.113281 v -1.40625 l 0.445313,-0.4921875 1.03125,1.8984375 h 1.3125 l -1.570313,-2.671875 1.464844,-1.6289062 H 86.16875 Z m 6.867188,-0.2929687 c -0.01172,-0.9023438 -0.714844,-1.453125 -1.863281,-1.453125 -1.101563,0 -1.769532,0.5507812 -1.769532,1.4296875 0,0.2929687 0.08203,0.5390625 0.234375,0.703125 0.152344,0.1523437 0.292969,0.2226562 0.703125,0.3632812 l 1.324219,0.4101563 c 0.28125,0.082031 0.375,0.1757812 0.375,0.3515625 0,0.25781245 -0.304687,0.42187495 -0.820312,0.42187495 -0.292969,0 -0.527344,-0.0585938 -0.667969,-0.15234375 -0.117188,-0.09375 -0.164063,-0.1757812 -0.210938,-0.4101562 h -1.089843 c 0.02344,0.93749995 0.726562,1.4414062 2.027343,1.4414062 0.597657,0 1.054688,-0.12890625 1.371094,-0.38671875 0.316406,-0.2578125 0.515625,-0.65625 0.515625,-1.07812495 0,-0.5507813 -0.28125,-0.9140625 -0.84375,-1.078125 l -1.417969,-0.4101563 c -0.304687,-0.09375 -0.386718,-0.1640625 -0.386718,-0.3398437 0,-0.234375 0.257812,-0.3984375 0.644531,-0.3984375 0.527344,0 0.796875,0.1992187 0.808594,0.5859375 z m 0,0"
       style="fill:#287528;fill-opacity:1;fill-rule:nonzero;stroke:none"
       aria-label="End-to-Endbenchmarks"
       transform="matrix(1.3333333,0,0,1.3333333,222.23333,155.408)" />
    <path
       id="path25"
       d="M 4.3958594,-2.6478906 V 5.46875e-4 H 5.1341406 V -5.8119531 H 4.3958594 v 2.5078125 H 1.4075781 V -5.8119531 H 0.65757812 V 5.46875e-4 H 1.4075781 V -2.6478906 Z m 2.5546875,-1.5234375 h -0.65625 V 5.46875e-4 h 0.65625 z m 0,-1.640625 H 6.2825781 v 0.84375 h 0.6679688 z m 3.8554691,1.640625 v 0.5976562 c -0.328125,-0.4921875 -0.738282,-0.7265625 -1.2773441,-0.7265625 -1.0546875,0 -1.7695313,0.9257813 -1.7695313,2.2851563 0,0.6796875 0.1757813,1.24218748 0.5273438,1.64062498 0.3046875,0.3515625 0.75,0.5625 1.1953125,0.5625 0.515625,0 0.8906251,-0.22265625 1.2656251,-0.75 v 0.2109375 c 0,0.5625 -0.07031,0.9140625 -0.246094,1.13671875 C 10.325547,1.0317969 9.9857031,1.1841406 9.5755469,1.1841406 c -0.2929688,0 -0.5742188,-0.082031 -0.75,-0.22265622 C 8.6732031,0.83257813 8.6028906,0.72710938 8.5677344,0.48101563 H 7.8880469 c 0.070312,0.78515627 0.6914062,1.25390627 1.6640625,1.25390627 0.6210936,0 1.1601566,-0.1992188 1.4296876,-0.5273438 0.316406,-0.38671872 0.445312,-0.91406247 0.445312,-1.88671872 V -4.1713281 Z m -1.2070316,0.4921875 c 0.7265626,0 1.1484376,0.609375 1.1484376,1.6523437 0,0.9960938 -0.433594,1.59375003 -1.1367189,1.59375003 -0.7265625,0 -1.1601562,-0.60937503 -1.1601562,-1.61718753 0,-1.0078125 0.4453125,-1.6289062 1.1484375,-1.6289062 z M 12.516953,-5.8119531 V 5.46875e-4 h 0.65625 V -2.3080469 c 0,-0.84375 0.445313,-1.40625 1.136719,-1.40625 0.210937,0 0.421875,0.070312 0.585937,0.1875 0.1875,0.140625 0.269532,0.3398438 0.269532,0.6328125 V 5.46875e-4 h 0.65625 V -3.1517969 c 0,-0.703125 -0.492188,-1.1484375 -1.3125,-1.1484375 -0.585938,0 -0.949219,0.1875 -1.335938,0.703125 v -2.2148437 z m 0,0"
       style="fill:#000000;fill-opacity:1;fill-rule:nonzero;stroke:none"
       aria-label="High"
       transform="matrix(0,-1.3333333,1.3333333,0,33.413333,30.353333)" />
    <path
       id="path26"
       d="M 1.3827656,-5.8121328 H 0.63276562 V 3.671875e-4 H 4.2421406 V -0.65588281 h -2.859375 z m 5.2177735,1.5117187 c -1.171875,0 -1.8867188,0.84375 -1.8867188,2.25 0,1.39453129 0.703125,2.23828129 1.8984375,2.23828129 1.171875,0 1.8867188,-0.84375 1.8867188,-2.21484379 0,-1.4414062 -0.6914063,-2.2734375 -1.8984375,-2.2734375 z m 0.011719,0.6210938 c 0.75,0 1.1953125,0.609375 1.1953125,1.6523437 0,0.9726563 -0.46875,1.59375004 -1.1953125,1.59375004 -0.75,0 -1.1953125,-0.60937504 -1.1953125,-1.61718754 0,-1.0078125 0.4453125,-1.6289062 1.1953125,-1.6289062 z M 13.160109,3.671875e-4 14.378859,-4.1715078 H 13.640578 L 12.808547,-0.92541406 11.988234,-4.1715078 H 11.167922 L 10.371047,-0.92541406 9.5272969,-4.1715078 H 8.7890156 L 9.9960469,3.671875e-4 H 10.746047 L 11.554641,-3.2691641 12.398391,3.671875e-4 Z m 0,0"
       style="fill:#000000;fill-opacity:1;fill-rule:nonzero;stroke:none"
       aria-label="Low"
       transform="matrix(0,-1.3333333,1.3333333,0,34.534667,182.164)" />
    <path
       id="path27"
       d="M 1.3839219,-5.8114219 H 0.63392187 V 0.00107812 H 4.2432969 v -0.65625 h -2.859375 z m 5.2148437,1.5117188 c -1.171875,0 -1.8867187,0.84375 -1.8867187,2.25 0,1.39453122 0.703125,2.23828122 1.8984375,2.23828122 1.171875,0 1.8867187,-0.84375 1.8867187,-2.21484372 0,-1.4414063 -0.6914062,-2.2734375 -1.8984375,-2.2734375 z m 0.011719,0.6210937 c 0.75,0 1.1953125,0.609375 1.1953125,1.6523438 0,0.9726562 -0.46875,1.59374997 -1.1953125,1.59374997 -0.75,0 -1.1953125,-0.60937497 -1.1953125,-1.61718747 0,-1.0078125 0.4453125,-1.6289063 1.1953125,-1.6289063 z m 6.5507814,3.67968752 1.21875,-4.17187502 H 13.641734 L 12.809703,-0.92470313 11.989391,-4.1707969 H 11.169078 L 10.372203,-0.92470313 9.5284531,-4.1707969 H 8.7901719 l 1.2070312,4.17187502 h 0.7499999 l 0.808594,-3.26953122 0.84375,3.26953122 z m 0,0"
       style="fill:#000000;fill-opacity:1;fill-rule:nonzero;stroke:none"
       aria-label="Low"
       transform="matrix(1.3333333,0,0,1.3333333,51.381333,201.772)" />
    <path
       id="path28"
       d="M 4.3941563,-2.6473594 V 0.00107812 H 5.1324375 V -5.8114219 H 4.3941563 v 2.5078125 H 1.405875 v -2.5078125 h -0.75 v 5.81250002 h 0.75 V -2.6473594 Z m 2.5546875,-1.5234375 h -0.65625 v 4.17187502 h 0.65625 z m 0,-1.640625 H 6.280875 v 0.84375 h 0.6679688 z m 3.8554692,1.640625 v 0.5976563 c -0.328125,-0.4921875 -0.738282,-0.7265625 -1.2773442,-0.7265625 -1.0546875,0 -1.7695313,0.9257812 -1.7695313,2.2851562 0,0.6796875 0.1757813,1.24218752 0.5273438,1.64062502 0.3046875,0.3515625 0.75,0.5625 1.1953125,0.5625 0.515625,0 0.8906252,-0.22265625 1.2656252,-0.75 v 0.2109375 c 0,0.5625 -0.07031,0.9140625 -0.246094,1.13671875 C 10.323844,1.0323281 9.984,1.1846719 9.5738438,1.1846719 c -0.2929688,0 -0.5742188,-0.082031 -0.75,-0.22265628 C 8.6715,0.83310937 8.6011875,0.72764062 8.5660313,0.48154687 H 7.8863438 C 7.9566563,1.2667031 8.57775,1.7354531 9.5504063,1.7354531 c 0.6210937,0 1.1601567,-0.1992187 1.4296877,-0.5273437 0.316406,-0.38671878 0.445312,-0.91406253 0.445312,-1.88671878 V -4.1707969 Z m -1.2070317,0.4921875 c 0.7265627,0 1.1484377,0.609375 1.1484377,1.6523438 0,0.9960937 -0.433594,1.59374997 -1.136719,1.59374997 -0.7265625,0 -1.1601562,-0.60937497 -1.1601562,-1.61718747 0,-1.0078125 0.4453125,-1.6289063 1.1484375,-1.6289063 z M 12.51818,-5.8114219 v 5.81250002 h 0.65625 V -2.3075156 c 0,-0.84375 0.445312,-1.40625 1.136718,-1.40625 0.210938,0 0.421875,0.070312 0.585938,0.1875 0.1875,0.140625 0.269531,0.3398437 0.269531,0.6328125 v 2.89453122 h 0.65625 V -3.1512656 c 0,-0.703125 -0.492187,-1.1484375 -1.3125,-1.1484375 -0.585937,0 -0.949219,0.1875 -1.335937,0.703125 v -2.2148438 z m 0,0"
       style="fill:#000000;fill-opacity:1;fill-rule:nonzero;stroke:none"
       aria-label="High"
       transform="matrix(1.3333333,0,0,1.3333333,314.688,201.772)" />
  </g>
</svg>
