<?xml version="1.0" encoding="UTF-8"?>
<svg xmlns="http://www.w3.org/2000/svg" viewBox="0 0 680 460"
     font-family="Helvetica Neue, Helvetica, Arial, sans-serif">
  <defs>
    <marker id="arrow" markerWidth="8" markerHeight="6" refX="7" refY="3" orient="auto">
      <path d="M0,0 L8,3 L0,6 Z" fill="#555"/>
    </marker>
    <marker id="arrow-green" markerWidth="8" markerHeight="6" refX="7" refY="3" orient="auto">
      <path d="M0,0 L8,3 L0,6 Z" fill="#3d9e5a"/>
    </marker>
  </defs>

  <rect width="680" height="460" fill="#fff" rx="4"/>

  <!-- ── Title ── -->
  <text x="340" y="26" text-anchor="middle" font-size="13" font-weight="700" fill="#333">Horizontal Scaling: Load Balancer → Shard Groups</text>

  <!-- ── Incoming Requests ── -->
  <text x="340" y="60" text-anchor="middle" font-size="10" fill="#555">Concurrent client requests</text>

  <rect x="136" y="68" width="60" height="28" rx="4" fill="#fdebd0" stroke="#c87b2a" stroke-width="1.2"/>
  <text x="166" y="86" text-anchor="middle" font-size="8.5" fill="#333">Req A</text>
  <rect x="204" y="68" width="60" height="28" rx="4" fill="#fdebd0" stroke="#c87b2a" stroke-width="1.2"/>
  <text x="234" y="86" text-anchor="middle" font-size="8.5" fill="#333">Req B</text>
  <rect x="272" y="68" width="60" height="28" rx="4" fill="#fdebd0" stroke="#c87b2a" stroke-width="1.2"/>
  <text x="302" y="86" text-anchor="middle" font-size="8.5" fill="#333">Req C</text>
  <text x="356" y="86" font-size="12" fill="#bbb">···</text>
  <rect x="376" y="68" width="60" height="28" rx="4" fill="#fdebd0" stroke="#c87b2a" stroke-width="1.2"/>
  <text x="406" y="86" text-anchor="middle" font-size="8.5" fill="#333">Req N</text>

  <!-- Arrows converging to LB -->
  <line x1="166" y1="96" x2="290" y2="128" stroke="#555" stroke-width="1" marker-end="url(#arrow)"/>
  <line x1="234" y1="96" x2="310" y2="128" stroke="#555" stroke-width="1" marker-end="url(#arrow)"/>
  <line x1="302" y1="96" x2="330" y2="128" stroke="#555" stroke-width="1" marker-end="url(#arrow)"/>
  <line x1="406" y1="96" x2="360" y2="128" stroke="#555" stroke-width="1" marker-end="url(#arrow)"/>

  <!-- ── Load Balancer ── -->
  <rect x="230" y="130" width="220" height="52" rx="5" fill="#fdebd0" stroke="#c87b2a" stroke-width="2"/>
  <text x="340" y="152" text-anchor="middle" font-size="11" font-weight="700" fill="#333">Load Balancer</text>
  <text x="340" y="170" text-anchor="middle" font-size="9" fill="#555">round-robin · two-choices · consistent hash</text>

  <!-- Fan-out arrows to shard groups -->
  <line x1="260" y1="182" x2="134" y2="222" stroke="#555" stroke-width="1.2" marker-end="url(#arrow)"/>
  <line x1="340" y1="182" x2="340" y2="222" stroke="#555" stroke-width="1.2" marker-end="url(#arrow)"/>
  <line x1="420" y1="182" x2="546" y2="222" stroke="#555" stroke-width="1.2" marker-end="url(#arrow)"/>

  <!-- ── Shard Group 0 ── -->
  <rect x="20" y="224" width="228" height="140" rx="6" fill="#f7f7f7" stroke="#bbb" stroke-width="1.2"/>
  <text x="134" y="244" text-anchor="middle" font-size="10" font-weight="700" fill="#555">Shard Group 0</text>

  <!-- GPU grid: 2×4 -->
  <rect x="30"  y="252" width="46" height="26" rx="3" fill="#cfe2f3" stroke="#4a90c4" stroke-width="1"/>
  <text x="53"  y="269" text-anchor="middle" font-size="8" fill="#333">GPU 0</text>
  <rect x="80"  y="252" width="46" height="26" rx="3" fill="#cfe2f3" stroke="#4a90c4" stroke-width="1"/>
  <text x="103" y="269" text-anchor="middle" font-size="8" fill="#333">GPU 1</text>
  <rect x="130" y="252" width="46" height="26" rx="3" fill="#cfe2f3" stroke="#4a90c4" stroke-width="1"/>
  <text x="153" y="269" text-anchor="middle" font-size="8" fill="#333">GPU 2</text>
  <rect x="180" y="252" width="46" height="26" rx="3" fill="#cfe2f3" stroke="#4a90c4" stroke-width="1"/>
  <text x="203" y="269" text-anchor="middle" font-size="8" fill="#333">GPU 3</text>
  <rect x="30"  y="284" width="46" height="26" rx="3" fill="#cfe2f3" stroke="#4a90c4" stroke-width="1"/>
  <text x="53"  y="301" text-anchor="middle" font-size="8" fill="#333">GPU 4</text>
  <rect x="80"  y="284" width="46" height="26" rx="3" fill="#cfe2f3" stroke="#4a90c4" stroke-width="1"/>
  <text x="103" y="301" text-anchor="middle" font-size="8" fill="#333">GPU 5</text>
  <rect x="130" y="284" width="46" height="26" rx="3" fill="#cfe2f3" stroke="#4a90c4" stroke-width="1"/>
  <text x="153" y="301" text-anchor="middle" font-size="8" fill="#333">GPU 6</text>
  <rect x="180" y="284" width="46" height="26" rx="3" fill="#cfe2f3" stroke="#4a90c4" stroke-width="1"/>
  <text x="203" y="301" text-anchor="middle" font-size="8" fill="#333">GPU 7</text>

  <rect x="30" y="320" width="196" height="36" rx="3" fill="#e8f5e9" stroke="#3d9e5a" stroke-width="1"/>
  <text x="128" y="335" text-anchor="middle" font-size="8.5" font-weight="600" fill="#2d7a2d">8 GPUs · tensor parallel</text>
  <text x="128" y="350" text-anchor="middle" font-size="8" fill="#555">one logical inference server</text>

  <!-- ── Shard Group 1 ── -->
  <rect x="226" y="224" width="228" height="140" rx="6" fill="#f7f7f7" stroke="#bbb" stroke-width="1.2"/>
  <text x="340" y="244" text-anchor="middle" font-size="10" font-weight="700" fill="#555">Shard Group 1</text>

  <rect x="236" y="252" width="46" height="26" rx="3" fill="#cfe2f3" stroke="#4a90c4" stroke-width="1"/>
  <text x="259" y="269" text-anchor="middle" font-size="8" fill="#333">GPU 0</text>
  <rect x="286" y="252" width="46" height="26" rx="3" fill="#cfe2f3" stroke="#4a90c4" stroke-width="1"/>
  <text x="309" y="269" text-anchor="middle" font-size="8" fill="#333">GPU 1</text>
  <rect x="336" y="252" width="46" height="26" rx="3" fill="#cfe2f3" stroke="#4a90c4" stroke-width="1"/>
  <text x="359" y="269" text-anchor="middle" font-size="8" fill="#333">GPU 2</text>
  <rect x="386" y="252" width="46" height="26" rx="3" fill="#cfe2f3" stroke="#4a90c4" stroke-width="1"/>
  <text x="409" y="269" text-anchor="middle" font-size="8" fill="#333">GPU 3</text>
  <rect x="236" y="284" width="46" height="26" rx="3" fill="#cfe2f3" stroke="#4a90c4" stroke-width="1"/>
  <text x="259" y="301" text-anchor="middle" font-size="8" fill="#333">GPU 4</text>
  <rect x="286" y="284" width="46" height="26" rx="3" fill="#cfe2f3" stroke="#4a90c4" stroke-width="1"/>
  <text x="309" y="301" text-anchor="middle" font-size="8" fill="#333">GPU 5</text>
  <rect x="336" y="284" width="46" height="26" rx="3" fill="#cfe2f3" stroke="#4a90c4" stroke-width="1"/>
  <text x="359" y="301" text-anchor="middle" font-size="8" fill="#333">GPU 6</text>
  <rect x="386" y="284" width="46" height="26" rx="3" fill="#cfe2f3" stroke="#4a90c4" stroke-width="1"/>
  <text x="409" y="301" text-anchor="middle" font-size="8" fill="#333">GPU 7</text>

  <rect x="236" y="320" width="196" height="36" rx="3" fill="#e8f5e9" stroke="#3d9e5a" stroke-width="1"/>
  <text x="334" y="335" text-anchor="middle" font-size="8.5" font-weight="600" fill="#2d7a2d">8 GPUs · tensor parallel</text>
  <text x="334" y="350" text-anchor="middle" font-size="8" fill="#555">one logical inference server</text>

  <!-- ── Shard Group 2 ── -->
  <rect x="432" y="224" width="228" height="140" rx="6" fill="#f7f7f7" stroke="#bbb" stroke-width="1.2"/>
  <text x="546" y="244" text-anchor="middle" font-size="10" font-weight="700" fill="#555">Shard Group 2</text>

  <rect x="442" y="252" width="46" height="26" rx="3" fill="#cfe2f3" stroke="#4a90c4" stroke-width="1"/>
  <text x="465" y="269" text-anchor="middle" font-size="8" fill="#333">GPU 0</text>
  <rect x="492" y="252" width="46" height="26" rx="3" fill="#cfe2f3" stroke="#4a90c4" stroke-width="1"/>
  <text x="515" y="269" text-anchor="middle" font-size="8" fill="#333">GPU 1</text>
  <rect x="542" y="252" width="46" height="26" rx="3" fill="#cfe2f3" stroke="#4a90c4" stroke-width="1"/>
  <text x="565" y="269" text-anchor="middle" font-size="8" fill="#333">GPU 2</text>
  <rect x="592" y="252" width="46" height="26" rx="3" fill="#cfe2f3" stroke="#4a90c4" stroke-width="1"/>
  <text x="615" y="269" text-anchor="middle" font-size="8" fill="#333">GPU 3</text>
  <rect x="442" y="284" width="46" height="26" rx="3" fill="#cfe2f3" stroke="#4a90c4" stroke-width="1"/>
  <text x="465" y="301" text-anchor="middle" font-size="8" fill="#333">GPU 4</text>
  <rect x="492" y="284" width="46" height="26" rx="3" fill="#cfe2f3" stroke="#4a90c4" stroke-width="1"/>
  <text x="515" y="301" text-anchor="middle" font-size="8" fill="#333">GPU 5</text>
  <rect x="542" y="284" width="46" height="26" rx="3" fill="#cfe2f3" stroke="#4a90c4" stroke-width="1"/>
  <text x="565" y="301" text-anchor="middle" font-size="8" fill="#333">GPU 6</text>
  <rect x="592" y="284" width="46" height="26" rx="3" fill="#cfe2f3" stroke="#4a90c4" stroke-width="1"/>
  <text x="615" y="301" text-anchor="middle" font-size="8" fill="#333">GPU 7</text>

  <rect x="442" y="320" width="196" height="36" rx="3" fill="#e8f5e9" stroke="#3d9e5a" stroke-width="1"/>
  <text x="540" y="335" text-anchor="middle" font-size="8.5" font-weight="600" fill="#2d7a2d">8 GPUs · tensor parallel</text>
  <text x="540" y="350" text-anchor="middle" font-size="8" fill="#555">one logical inference server</text>

  <!-- ── Key insight box ── -->
  <rect x="20" y="378" width="640" height="48" rx="4" fill="#d4edda" stroke="#3d9e5a" stroke-width="1"/>
  <text x="340" y="398" text-anchor="middle" font-size="9.5" font-weight="700" fill="#2d7a2d">LB treats each shard group as a single logical server.</text>
  <text x="340" y="416" text-anchor="middle" font-size="9" fill="#555">Throughput scales linearly with shard groups; each group's internal AllReduce stays local.</text>

  <!-- ── Bottom footnote ── -->
  <text x="340" y="445" text-anchor="middle" font-size="9" font-style="italic" fill="#999">Horizontal scaling (more shard groups) increases throughput; vertical scaling (more GPUs per group) reduces per-request latency.</text>

</svg>
