<?xml version="1.0" encoding="UTF-8" standalone="no"?>
<!-- Created with Inkscape (http://www.inkscape.org/) -->

<svg
   version="1.1"
   id="svg1"
   width="430.71466"
   height="152.67599"
   viewBox="0 0 430.71466 152.67599"
   xmlns="http://www.w3.org/2000/svg"
   xmlns:svg="http://www.w3.org/2000/svg">
  <defs
     id="defs1" />
  <g
     id="g1">
    <path
       id="path1"
       d="m 37.20247,14.17339 h -74.40494 c -1.10048,0 -1.99255,-0.89208 -1.99255,-1.99256 v -24.36166 c 0,-1.10048 0.89207,-1.99256 1.99255,-1.99256 h 74.40494 c 1.10048,0 1.99255,0.89208 1.99255,1.99256 v 24.36166 c 0,1.10048 -0.89207,1.99256 -1.99255,1.99256 z"
       style="fill:#e6e6e6;fill-opacity:1;fill-rule:nonzero;stroke:#808080;stroke-width:0.74721;stroke-linecap:butt;stroke-linejoin:miter;stroke-miterlimit:10;stroke-dasharray:none;stroke-opacity:1"
       transform="matrix(1.3333333,0,0,-1.3333333,215.59867,19.396)" />
    <path
       id="path2"
       d="m 4.9445313,-6.5401406 v 4.59375 c 0,0.8789062 -0.6328125,1.41796873 -1.6875,1.41796873 -0.4804688,0 -0.8789063,-0.1171875 -1.1835938,-0.33984375 C 1.7453125,-1.1260781 1.5929688,-1.4542031 1.5929688,-1.9463906 v -4.59375 H 0.7609375 v 4.59375 c 0,1.32421873 0.9492188,2.15624998 2.4960938,2.15624998 1.5351562,0 2.5195312,-0.84375 2.5195312,-2.15624998 v -4.59375 z m 5.4550777,3.1523437 c -0.01172,-0.9257812 -0.6210934,-1.4414062 -1.6992184,-1.4414062 -1.1015625,0 -1.8046875,0.5625 -1.8046875,1.4296875 0,0.7382812 0.375,1.0898437 1.4882813,1.359375 l 0.703125,0.1640625 c 0.515625,0.1289062 0.7265625,0.3164062 0.7265625,0.65625 0,0.43359373 -0.4453125,0.73828123 -1.1015625,0.73828123 -0.3984375,0 -0.7382813,-0.1171875 -0.9257813,-0.31640625 C 7.6691406,-0.93857812 7.6105469,-1.0674844 7.5636719,-1.3956094 H 6.7785156 c 0.035156,1.07812503 0.6445313,1.60546878 1.875,1.60546878 1.1835938,0 1.9335934,-0.5859375 1.9335934,-1.48828128 0,-0.703125 -0.398437,-1.0898437 -1.3242184,-1.3125 L 8.5480469,-2.7667031 c -0.609375,-0.140625 -0.8671875,-0.3398438 -0.8671875,-0.6679688 0,-0.4335937 0.375,-0.703125 0.984375,-0.703125 0.609375,0 0.9257812,0.2578125 0.9492187,0.75 z M 15.55,-2.0987344 c 0,-0.7148437 -0.04687,-1.1484375 -0.1875,-1.5 -0.304687,-0.7734375 -1.019531,-1.2304687 -1.898437,-1.2304687 -1.300782,0 -2.144532,0.9960937 -2.144532,2.5429687 0,1.54687503 0.808594,2.49609378 2.132813,2.49609378 1.066406,0 1.816406,-0.609375 2.003906,-1.64062498 h -0.75 c -0.210937,0.62109373 -0.632812,0.94921873 -1.230469,0.94921873 -0.480468,0 -0.878906,-0.22265625 -1.125,-0.60937503 -0.1875,-0.2695312 -0.246093,-0.5390625 -0.257812,-1.0078125 z m -3.433594,-0.609375 c 0.05859,-0.8671875 0.585938,-1.4296875 1.335938,-1.4296875 0.738281,0 1.300781,0.609375 1.300781,1.3710938 0,0.023437 0,0.035156 0,0.058594 z m 4.447266,-1.9921875 v 4.69921878 h 0.75 V -2.4385781 c 0,-0.6679688 0.175781,-1.1132813 0.527344,-1.3710938 0.234375,-0.1757812 0.457031,-0.2226562 0.984375,-0.234375 v -0.7617187 c -0.128907,-0.023437 -0.199219,-0.023437 -0.292969,-0.023437 -0.480469,0 -0.855469,0.28125 -1.277344,0.984375 v -0.8554688 z m 5.645508,4.69921878 h 2.519531 c 1.652344,0 2.660156,-1.24218748 2.660156,-3.26953128 0,-2.0273437 -0.996094,-3.2695312 -2.660156,-3.2695312 H 22.20918 Z m 0.832031,-0.73828125 V -5.8018594 h 1.546875 c 1.289062,0 1.96875,0.8671875 1.96875,2.5429688 0,1.640625 -0.679688,2.51953123 -1.96875,2.51953123 z m 9.635742,0.3046875 c -0.08203,0.0117188 -0.117187,0.0117188 -0.152344,0.0117188 -0.269531,0 -0.410156,-0.12890625 -0.410156,-0.36328125 V -3.5518594 c 0,-0.8320312 -0.609375,-1.2773437 -1.769531,-1.2773437 -0.679688,0 -1.242188,0.1875 -1.558594,0.5390625 -0.210937,0.2460937 -0.304687,0.515625 -0.316406,0.984375 h 0.75 c 0.05859,-0.5742188 0.398437,-0.8320313 1.101562,-0.8320313 0.667969,0 1.054688,0.2460938 1.054688,0.6914063 v 0.1992187 c 0,0.3164063 -0.1875,0.4453125 -0.785156,0.515625 -1.054688,0.140625 -1.21875,0.1757813 -1.5,0.2929688 -0.550782,0.2226562 -0.832032,0.6445312 -0.832032,1.2539062 0,0.85546878 0.597657,1.39453128 1.546875,1.39453128 0.585938,0 1.066407,-0.2109375 1.59375,-0.69140625 0.04687,0.46875 0.28125,0.69140625 0.773438,0.69140625 0.152344,0 0.269531,-0.0234375 0.503906,-0.0820313 z M 31.376172,-1.4776406 c 0,0.2460937 -0.08203,0.3984375 -0.304688,0.60937498 -0.304687,0.28125 -0.667968,0.421875 -1.113281,0.421875 -0.574219,0 -0.914062,-0.28125 -0.914062,-0.76171878 0,-0.4921875 0.328125,-0.7382812 1.125,-0.8554687 0.785156,-0.1054688 0.949218,-0.140625 1.207031,-0.2578125 z m 3.767578,-3.2226563 h -0.761719 v -1.2890625 h -0.75 v 1.2890625 h -0.632812 v 0.609375 h 0.632812 v 3.55078128 c 0,0.48046875 0.328125,0.75 0.902344,0.75 0.1875,0 0.363281,-0.0234375 0.609375,-0.0703125 v -0.62109375 c -0.09375,0.0234375 -0.210937,0.0351563 -0.351562,0.0351563 -0.328125,0 -0.410157,-0.09375 -0.410157,-0.421875 V -4.0909219 h 0.761719 z m 5.012695,4.26562503 c -0.08203,0.0117188 -0.117187,0.0117188 -0.152343,0.0117188 -0.269532,0 -0.410157,-0.12890625 -0.410157,-0.36328125 V -3.5518594 c 0,-0.8320312 -0.609375,-1.2773437 -1.769531,-1.2773437 -0.679687,0 -1.242187,0.1875 -1.558594,0.5390625 -0.210937,0.2460937 -0.304687,0.515625 -0.316406,0.984375 h 0.75 c 0.05859,-0.5742188 0.398438,-0.8320313 1.101563,-0.8320313 0.667968,0 1.054687,0.2460938 1.054687,0.6914063 v 0.1992187 c 0,0.3164063 -0.1875,0.4453125 -0.785156,0.515625 -1.054688,0.140625 -1.21875,0.1757813 -1.5,0.2929688 -0.550781,0.2226562 -0.832031,0.6445312 -0.832031,1.2539062 0,0.85546878 0.597656,1.39453128 1.546875,1.39453128 0.585937,0 1.066406,-0.2109375 1.59375,-0.69140625 0.04687,0.46875 0.28125,0.69140625 0.773437,0.69140625 0.152344,0 0.269531,-0.0234375 0.503906,-0.0820313 z M 38.855664,-1.4776406 c 0,0.2460937 -0.08203,0.3984375 -0.304687,0.60937498 -0.304688,0.28125 -0.667969,0.421875 -1.113282,0.421875 -0.574218,0 -0.914062,-0.28125 -0.914062,-0.76171878 0,-0.4921875 0.328125,-0.7382812 1.125,-0.8554687 0.785156,-0.1054688 0.949219,-0.140625 1.207031,-0.2578125 z m 9.328125,-3.140625 c -0.01172,-1.2773438 -0.890625,-2.0273438 -2.390625,-2.0273438 -1.441406,0 -2.320312,0.7382813 -2.320312,1.921875 0,0.796875 0.421875,1.3007813 1.277343,1.5234375 l 1.617188,0.4335938 c 0.832031,0.2109375 1.207031,0.5390625 1.207031,1.0546875 0,0.3515625 -0.1875,0.703125 -0.46875,0.90234373 -0.257812,0.17578125 -0.667969,0.28125 -1.195312,0.28125 -0.714844,0 -1.195313,-0.17578125 -1.511719,-0.55078123 -0.246094,-0.28125 -0.351563,-0.5976563 -0.339844,-0.9960938 h -0.785156 c 0,0.5976563 0.117187,0.984375 0.386719,1.34765628 0.445312,0.609375 1.195312,0.9375 2.191406,0.9375 0.785156,0 1.417969,-0.1875 1.839844,-0.50390625 0.433593,-0.3515625 0.714843,-0.93750003 0.714843,-1.50000003 0,-0.8085937 -0.503906,-1.3945312 -1.394531,-1.640625 l -1.640625,-0.4335937 c -0.785156,-0.2226563 -1.066406,-0.46875 -1.066406,-0.9726563 0,-0.6679687 0.574219,-1.1015625 1.453125,-1.1015625 1.042969,0 1.628906,0.46875 1.640625,1.3242188 z m 2.912109,-0.082031 H 50.33418 v -1.2890625 h -0.75 v 1.2890625 h -0.632813 v 0.609375 h 0.632813 v 3.55078128 c 0,0.48046875 0.328125,0.75 0.902343,0.75 0.1875,0 0.363282,-0.0234375 0.609375,-0.0703125 v -0.62109375 c -0.09375,0.0234375 -0.210937,0.0351563 -0.351562,0.0351563 -0.328125,0 -0.410156,-0.09375 -0.410156,-0.421875 V -4.0909219 h 0.761718 z m 0.840821,0 v 4.69921878 h 0.75 V -2.4385781 c 0,-0.6679688 0.175781,-1.1132813 0.527344,-1.3710938 0.234375,-0.1757812 0.457031,-0.2226562 0.984375,-0.234375 v -0.7617187 c -0.128907,-0.023437 -0.199219,-0.023437 -0.292969,-0.023437 -0.480469,0 -0.855469,0.28125 -1.277344,0.984375 v -0.8554688 z m 6.958008,2.6015625 c 0,-0.7148437 -0.04687,-1.1484375 -0.1875,-1.5 -0.304688,-0.7734375 -1.019532,-1.2304687 -1.898438,-1.2304687 -1.300781,0 -2.144531,0.9960937 -2.144531,2.5429687 0,1.54687503 0.808594,2.49609378 2.132812,2.49609378 1.066407,0 1.816407,-0.609375 2.003907,-1.64062498 h -0.75 c -0.210938,0.62109373 -0.632813,0.94921873 -1.230469,0.94921873 -0.480469,0 -0.878906,-0.22265625 -1.125,-0.60937503 -0.1875,-0.2695312 -0.246094,-0.5390625 -0.257813,-1.0078125 z m -3.433594,-0.609375 c 0.05859,-0.8671875 0.585937,-1.4296875 1.335937,-1.4296875 0.738282,0 1.300782,0.609375 1.300782,1.3710938 0,0.023437 0,0.035156 0,0.058594 z m 8.616211,2.27343753 c -0.08203,0.0117188 -0.117188,0.0117188 -0.152344,0.0117188 -0.269531,0 -0.410156,-0.12890625 -0.410156,-0.36328125 V -3.5518594 c 0,-0.8320312 -0.609375,-1.2773437 -1.769531,-1.2773437 -0.679688,0 -1.242188,0.1875 -1.558594,0.5390625 -0.210938,0.2460937 -0.304688,0.515625 -0.316406,0.984375 h 0.75 c 0.05859,-0.5742188 0.398437,-0.8320313 1.101562,-0.8320313 0.667969,0 1.054688,0.2460938 1.054688,0.6914063 v 0.1992187 c 0,0.3164063 -0.1875,0.4453125 -0.785157,0.515625 -1.054687,0.140625 -1.21875,0.1757813 -1.5,0.2929688 -0.550781,0.2226562 -0.832031,0.6445312 -0.832031,1.2539062 0,0.85546878 0.597656,1.39453128 1.546875,1.39453128 0.585938,0 1.066406,-0.2109375 1.59375,-0.69140625 0.04687,0.46875 0.28125,0.69140625 0.773438,0.69140625 0.152343,0 0.269531,-0.0234375 0.503906,-0.0820313 z M 62.776563,-1.4776406 c 0,0.2460937 -0.08203,0.3984375 -0.304688,0.60937498 -0.304687,0.28125 -0.667969,0.421875 -1.113281,0.421875 -0.574219,0 -0.914063,-0.28125 -0.914063,-0.76171878 0,-0.4921875 0.328125,-0.7382812 1.125,-0.8554687 0.785157,-0.1054688 0.949219,-0.140625 1.207032,-0.2578125 z m 2.126953,-3.2226563 v 4.69921878 h 0.75 V -2.9542031 c 0,-0.6796875 0.492187,-1.21875 1.101562,-1.21875 0.550781,0 0.867188,0.3398437 0.867188,0.9375 v 3.23437498 h 0.75 V -2.9542031 c 0,-0.6796875 0.492187,-1.21875 1.101562,-1.21875 0.550781,0 0.878906,0.3398437 0.878906,0.9375 v 3.23437498 h 0.75 V -3.5284219 c 0,-0.84375 -0.480468,-1.3007812 -1.359375,-1.3007812 -0.632812,0 -1.007812,0.1875 -1.453125,0.7148437 -0.269531,-0.5039062 -0.644531,-0.7148437 -1.253906,-0.7148437 -0.632812,0 -1.042969,0.234375 -1.453125,0.796875 v -0.6679688 z m 0,0"
       style="fill:#000000;fill-opacity:1;fill-rule:nonzero;stroke:none"
       aria-label="UserDataStream"
       transform="matrix(1.3333333,0,0,1.3333333,167.76667,15.228)" />
    <path
       id="path3"
       d="m 2.1220156,-6.5391797 c -0.9023437,1.1835938 -1.46484372,2.8125 -1.46484372,4.21875 0,1.41796876 0.56250002,3.04687501 1.46484372,4.21875 h 0.4921875 c -0.796875,-1.27734374 -1.2304687,-2.78906249 -1.2304687,-4.21875 0,-1.4296875 0.4335937,-2.9414062 1.2304687,-4.21875 z m 6.2080078,1.921875 c -0.011719,-1.2773437 -0.890625,-2.0273437 -2.390625,-2.0273437 -1.4414062,0 -2.3203125,0.7382812 -2.3203125,1.921875 0,0.796875 0.421875,1.3007812 1.2773438,1.5234375 l 1.6171875,0.4335937 c 0.8320312,0.2109375 1.2070312,0.5390625 1.2070312,1.0546875 0,0.3515625 -0.1875,0.703125 -0.46875,0.90234376 -0.2578125,0.17578125 -0.6679687,0.28125 -1.1953125,0.28125 -0.7148437,0 -1.1953125,-0.17578125 -1.5117187,-0.55078126 -0.2460938,-0.28125 -0.3515625,-0.5976562 -0.3398438,-0.9960937 H 3.4198672 c 0,0.5976562 0.1171875,0.984375 0.3867187,1.34765621 0.4453125,0.609375 1.1953125,0.9375 2.1914063,0.9375 0.7851562,0 1.4179687,-0.1875 1.8398437,-0.50390625 0.4335938,-0.3515625 0.7148438,-0.93749996 0.7148438,-1.49999996 0,-0.8085938 -0.5039063,-1.3945313 -1.3945313,-1.640625 l -1.640625,-0.4335938 c -0.7851562,-0.2226562 -1.0664062,-0.46875 -1.0664062,-0.9726562 0,-0.6679688 0.5742187,-1.1015625 1.453125,-1.1015625 1.0429687,0 1.6289062,0.46875 1.640625,1.3242187 z m 5.2294926,2.5195313 c 0,-0.7148438 -0.04687,-1.1484375 -0.1875,-1.5 -0.304688,-0.7734375 -1.019532,-1.2304688 -1.898438,-1.2304688 -1.300781,0 -2.1445311,0.9960938 -2.1445311,2.5429688 0,1.54687496 0.8085941,2.49609371 2.1328121,2.49609371 1.066407,0 1.816407,-0.609375 2.003907,-1.64062501 h -0.75 c -0.210938,0.62109376 -0.632813,0.94921876 -1.230469,0.94921876 -0.480469,0 -0.878906,-0.22265625 -1.125,-0.60937496 -0.1875,-0.2695313 -0.246094,-0.5390625 -0.257813,-1.0078125 z m -3.433594,-0.609375 c 0.05859,-0.8671875 0.585937,-1.4296875 1.335937,-1.4296875 0.738282,0 1.300782,0.609375 1.300782,1.3710937 0,0.023437 0,0.035156 0,0.058594 z m 4.458984,-1.9921875 v 4.6992187125 h 0.75 V -2.5899609 c 0,-0.9609375 0.503907,-1.5820313 1.265625,-1.5820313 0.597657,0 0.972657,0.3515625 0.972657,0.9140625 v 3.2578125125 h 0.75 V -3.5508984 c 0,-0.7734375 -0.585938,-1.2773438 -1.488282,-1.2773438 -0.703125,0 -1.148437,0.2695313 -1.570312,0.9140625 v -0.7851562 z m 8.279297,1.3125 c -0.01172,-0.9257813 -0.621094,-1.4414063 -1.699219,-1.4414063 -1.101562,0 -1.804687,0.5625 -1.804687,1.4296875 0,0.7382813 0.375,1.0898438 1.488281,1.359375 l 0.703125,0.1640625 c 0.515625,0.1289063 0.726563,0.3164063 0.726563,0.65625 0,0.43359376 -0.445313,0.73828126 -1.101563,0.73828126 -0.398437,0 -0.738281,-0.1171875 -0.925781,-0.31640625 -0.117188,-0.140625 -0.175781,-0.26953121 -0.222656,-0.59765621 h -0.785157 c 0.03516,1.07812496 0.644532,1.60546871 1.875,1.60546871 1.183594,0 1.933594,-0.5859375 1.933594,-1.48828121 0,-0.703125 -0.398437,-1.0898438 -1.324219,-1.3125 l -0.714843,-0.1757813 c -0.609375,-0.140625 -0.867188,-0.3398437 -0.867188,-0.6679687 0,-0.4335938 0.375,-0.703125 0.984375,-0.703125 0.609375,0 0.925781,0.2578125 0.949219,0.75 z m 2.994141,-1.4414063 c -1.3125,0 -2.109375,0.9375 -2.109375,2.5195313 0,1.57031246 0.785156,2.51953121 2.121094,2.51953121 1.3125,0 2.121093,-0.94921875 2.121093,-2.48437501 0,-1.6289062 -0.773437,-2.5546875 -2.132812,-2.5546875 z m 0.01172,0.6914063 c 0.84375,0 1.347656,0.6796875 1.347656,1.8515625 0,1.1015625 -0.527344,1.80468746 -1.347656,1.80468746 -0.832032,0 -1.347657,-0.69140626 -1.347657,-1.82812496 0,-1.1367188 0.515625,-1.828125 1.347657,-1.828125 z m 3.155273,-0.5625 v 4.6992187125 h 0.75 V -2.4376172 c 0,-0.6679687 0.175781,-1.1132812 0.527344,-1.3710937 0.234375,-0.1757813 0.457031,-0.2226563 0.984375,-0.234375 v -0.7617188 c -0.128907,-0.023437 -0.199219,-0.023437 -0.292969,-0.023437 -0.480469,0 -0.855469,0.28125 -1.277344,0.984375 v -0.8554687 z m 4.417969,-1.8398438 -2.121094,6.71484376 h 0.492187 l 2.121094,-6.71484376 z m 2.173828,0 h -0.84375 v 6.5390625125 h 0.84375 z m 1.391601,1.8398438 v 4.6992187125 h 0.75 V -2.5899609 c 0,-0.9609375 0.503907,-1.5820313 1.265625,-1.5820313 0.597657,0 0.972657,0.3515625 0.972657,0.9140625 v 3.2578125125 h 0.75 V -3.5508984 c 0,-0.7734375 -0.585938,-1.2773438 -1.488282,-1.2773438 -0.703125,0 -1.148437,0.2695313 -1.570312,0.9140625 v -0.7851562 z m 4.833985,6.65625 h 0.761719 v -2.44921879 c 0.386718,0.48046875 0.832031,0.703125 1.441406,0.703125 1.207031,0 2.003906,-0.984375 2.003906,-2.48437501 0,-1.5703125 -0.773437,-2.5546875 -2.015625,-2.5546875 -0.632812,0 -1.148437,0.28125 -1.5,0.84375 V -4.6993359 H 41.84272 Z m 2.0625,-6.09375 c 0.832031,0 1.371094,0.7265625 1.371094,1.8515625 0,1.0664062 -0.550782,1.79296871 -1.371094,1.79296871 -0.785156,0 -1.300781,-0.71484371 -1.300781,-1.81640621 0,-1.1015625 0.515625,-1.828125 1.300781,-1.828125 z m 6.767578,4.1367187125 V -4.6993359 h -0.75 v 2.6601562 c 0,0.9609375 -0.503906,1.59375001 -1.277344,1.59375001 -0.597656,0 -0.972656,-0.36328125 -0.972656,-0.92578121 v -3.328125 h -0.738281 v 3.6210937 c 0,0.78515626 0.574218,1.28906251 1.488281,1.28906251 0.691406,0 1.136719,-0.24609375 1.570312,-0.8671875 V -1.171875e-4 Z M 53.605414,-4.6993359 h -0.761719 v -1.2890625 h -0.75 v 1.2890625 h -0.632812 v 0.609375 h 0.632812 v 3.55078121 c 0,0.48046875 0.328125,0.75 0.902344,0.75 0.1875,0 0.363281,-0.0234375 0.609375,-0.0703125 v -0.62109375 c -0.09375,0.0234375 -0.210937,0.0351563 -0.351562,0.0351563 -0.328125,0 -0.410157,-0.09375 -0.410157,-0.421875 V -4.0899609 h 0.761719 z m 1.051758,6.5976562 c 0.902344,-1.17187499 1.464844,-2.80078124 1.464844,-4.2070312 0,-1.4179688 -0.5625,-3.046875 -1.464844,-4.2304688 h -0.492188 c 0.785157,1.2890625 1.230469,2.7890625 1.230469,4.2304688 0,1.41796871 -0.445312,2.94140621 -1.230469,4.2070312 z m 0,0"
       style="fill:#000000;fill-opacity:1;fill-rule:nonzero;stroke:none"
       aria-label="(Sensor/Input)"
       transform="matrix(1.3333333,0,0,1.3333333,177.72533,29.84)" />
    <path
       id="path4"
       d="m -65.98781,-38.97362 h -84.83309 c -1.10047,0 -1.99256,-0.89208 -1.99256,-1.99255 v -24.3617 c 0,-1.10046 0.89209,-1.99255 1.99256,-1.99255 h 84.83309 c 1.10047,0 1.99256,0.89209 1.99256,1.99255 v 24.3617 c 0,1.10047 -0.89209,1.99255 -1.99256,1.99255 z"
       style="fill:#d1f3ff;fill-opacity:1;fill-rule:nonzero;stroke:#006395;stroke-width:0.74721;stroke-linecap:butt;stroke-linejoin:miter;stroke-miterlimit:10;stroke-dasharray:none;stroke-opacity:1"
       transform="matrix(1.3333333,0,0,-1.3333333,215.59867,19.396)" />
    <path
       id="path5"
       d="m 5.4370859,-4.5468594 c 0,-0.5976562 -0.1289062,-0.9960937 -0.4570312,-1.3476562 -0.4335938,-0.4921875 -1.1601563,-0.75 -2.0976563,-0.75 -1.5703125,0 -2.48437496,0.7382812 -2.48437496,2.0039062 0,1.0195313 0.515625,1.5117188 1.83984376,1.7578125 l 0.9140625,0.1875 c 0.9023437,0.1640625 1.2304687,0.421875 1.2304687,0.9492188 0,0.5390625 -0.5039062,0.87890623 -1.3125,0.87890623 -0.9140625,0 -1.4296875,-0.38671873 -1.4765625,-1.08984373 H 0.28083594 c 0.0820313,1.40624998 1.04296876,2.16796873 2.71874996,2.16796873 1.6757813,0 2.671875,-0.796875 2.671875,-2.12109373 0,-1.03125 -0.515625,-1.5703125 -1.7226562,-1.8046875 l -1.03125,-0.1992188 c -0.9492188,-0.1875 -1.2304688,-0.375 -1.2304688,-0.84375 0,-0.4921875 0.4335938,-0.8085937 1.125,-0.8085937 0.8554688,0 1.3242188,0.3632812 1.3710938,1.0195312 z M 6.5796641,-6.5390469 V 1.5625e-5 H 7.8335703 V -2.9062344 c 0,-0.5507812 0.4101563,-0.9492187 0.9726563,-0.9492187 0.2695312,0 0.4804687,0.09375 0.6328125,0.2929687 0.1054687,0.1640625 0.140625,0.2929688 0.140625,0.609375 V 1.5625e-5 H 10.83357 V -3.2460781 c 0,-0.5976563 -0.164062,-1.03125 -0.492187,-1.3125 -0.28125,-0.234375 -0.6796877,-0.3632813 -1.0898439,-0.3632813 -0.6210938,0 -1.0664063,0.2460938 -1.4179688,0.7851563 v -2.4023438 z m 9.5771489,6.38671878 c -0.222657,-0.2109375 -0.292969,-0.33984375 -0.292969,-0.5859375 V -3.4335781 c 0,-0.984375 -0.667969,-1.4882813 -1.980469,-1.4882813 -1.300781,0 -1.992187,0.5507813 -2.0625,1.6757813 h 1.207031 c 0.05859,-0.5039063 0.269532,-0.6679688 0.890625,-0.6679688 0.480469,0 0.726563,0.1640625 0.726563,0.4921875 0,0.1640625 -0.08203,0.3046875 -0.222656,0.375 -0.164063,0.09375 -0.164063,0.09375 -0.785157,0.1875 l -0.503906,0.09375 c -0.960937,0.1523438 -1.429687,0.6445313 -1.429687,1.5234375 0,0.41015628 0.117187,0.75000003 0.339843,0.99609378 0.28125,0.28125 0.703125,0.45703125 1.136719,0.45703125 0.539063,0 1.03125,-0.234375 1.464844,-0.69140625 0,0.24609375 0.03516,0.33984375 0.152344,0.480468745 h 1.359375 z M 14.645094,-1.9452969 c 0,0.7265625 -0.363281,1.13671878 -0.996094,1.13671878 -0.421875,0 -0.679687,-0.22265628 -0.679687,-0.58593748 0,-0.375 0.1875,-0.5507813 0.714843,-0.65625 l 0.421875,-0.082031 c 0.339844,-0.058594 0.386719,-0.082031 0.539063,-0.1523437 z m 5.43164,1.945312525 h 1.253907 V -6.5390469 h -1.253907 v 2.3203125 c -0.316406,-0.4804687 -0.738281,-0.703125 -1.335937,-0.703125 -1.160156,0 -2.039063,1.1132813 -2.039063,2.578125 0,0.6445313 0.199219,1.3125 0.527344,1.78125003 0.328125,0.46875 0.914063,0.7734375 1.511719,0.7734375 0.597656,0 1.019531,-0.234375 1.335937,-0.703125 z M 19.022047,-3.8671719 c 0.632812,0 1.054687,0.609375 1.054687,1.5351563 0,0.8789062 -0.433593,1.48828123 -1.054687,1.48828123 -0.632813,0 -1.066406,-0.62109373 -1.066406,-1.50000003 0,-0.9023437 0.433593,-1.5234375 1.066406,-1.5234375 z m 5.595703,-1.0546875 c -1.476562,0 -2.378906,0.9726563 -2.378906,2.5664063 0,1.59374998 0.902344,2.56640623 2.390625,2.56640623 1.464844,0 2.390625,-0.984375 2.390625,-2.53125003 0,-1.640625 -0.878906,-2.6015625 -2.402344,-2.6015625 z m 0.01172,1.0078125 c 0.691406,0 1.136719,0.6210938 1.136719,1.5703125 0,0.9140625 -0.46875,1.53515628 -1.136719,1.53515628 -0.679688,0 -1.136719,-0.62109378 -1.136719,-1.54687498 0,-0.9257813 0.457031,-1.5585938 1.136719,-1.5585938 z M 32.762281,1.5625e-5 34.133375,-4.8398281 h -1.300781 l -0.738281,3.3867187 -0.726563,-3.3867187 h -1.253906 l -0.726563,3.3867187 -0.773437,-3.3867187 H 27.313063 L 28.672438,1.5625e-5 H 29.9615 L 30.734938,-3.4101406 31.4615,1.5625e-5 Z M 38.668531,-5.0976406 39.840406,1.5625e-5 h 1.347657 L 42.348219,-5.0976406 V 1.5625e-5 h 1.347656 V -6.5390469 h -2.027344 l -1.148437,5.203125 -1.183594,-5.203125 H 37.320875 V 1.5625e-5 h 1.347656 z m 8.232422,0.1757812 c -1.476562,0 -2.378906,0.9726563 -2.378906,2.5664063 0,1.59374998 0.902344,2.56640623 2.390625,2.56640623 1.464844,0 2.390625,-0.984375 2.390625,-2.53125003 0,-1.640625 -0.878906,-2.6015625 -2.402344,-2.6015625 z m 0.01172,1.0078125 c 0.691406,0 1.136719,0.6210938 1.136719,1.5703125 0,0.9140625 -0.46875,1.53515628 -1.136719,1.53515628 -0.679688,0 -1.136719,-0.62109378 -1.136719,-1.54687498 0,-0.9257813 0.457031,-1.5585938 1.136719,-1.5585938 z M 53.316969,1.5625e-5 h 1.253906 V -6.5390469 h -1.253906 v 2.3203125 c -0.316406,-0.4804687 -0.738281,-0.703125 -1.335938,-0.703125 -1.160156,0 -2.039062,1.1132813 -2.039062,2.578125 0,0.6445313 0.199219,1.3125 0.527344,1.78125003 0.328125,0.46875 0.914062,0.7734375 1.511718,0.7734375 0.597657,0 1.019532,-0.234375 1.335938,-0.703125 z M 52.262281,-3.8671719 c 0.632813,0 1.054688,0.609375 1.054688,1.5351563 0,0.8789062 -0.433594,1.48828123 -1.054688,1.48828123 -0.632812,0 -1.066406,-0.62109373 -1.066406,-1.50000003 0,-0.9023437 0.433594,-1.5234375 1.066406,-1.5234375 z m 7.59668,1.8398438 c 0.01172,-0.1054688 0.01172,-0.1523438 0.01172,-0.2109375 0,-0.4921875 -0.07031,-0.9375 -0.1875,-1.2773438 -0.328125,-0.8789062 -1.113282,-1.40625 -2.085938,-1.40625 -1.382812,0 -2.238281,1.0078125 -2.238281,2.625 0,1.55859378 0.84375,2.50781253 2.214844,2.50781253 1.078125,0 1.957031,-0.62109375 2.238281,-1.57031253 h -1.242188 c -0.152343,0.38671878 -0.492187,0.60937503 -0.949218,0.60937503 -0.363282,0 -0.644532,-0.15234375 -0.832032,-0.42187503 -0.117187,-0.1875 -0.164062,-0.3984375 -0.175781,-0.8554687 z m -3.234375,-0.8320313 c 0.08203,-0.7382812 0.398437,-1.1015625 0.960937,-1.1015625 0.304688,0 0.597657,0.1523438 0.773438,0.3984375 0.117187,0.1875 0.175781,0.375 0.199219,0.703125 z m 5.373047,-3.6796875 H 60.743727 V 1.5625e-5 h 1.253906 z m 0,0"
       style="fill:#000000;fill-opacity:1;fill-rule:nonzero;stroke:none"
       aria-label="ShadowModel"
       transform="matrix(1.3333333,0,0,1.3333333,29.301333,86.054667)" />
    <path
       id="path6"
       d="M 1.6406328,-2.9755859 H 4.7578203 V -3.7138672 H 1.6406328 V -5.7998047 H 5.1914141 V -6.5380859 H 0.80860156 V 9.765625e-4 H 1.6406328 Z M 5.6953203,-4.6982422 V 9.765625e-4 h 0.75 V -2.4365234 c 0,-0.6679688 0.1757813,-1.1132813 0.5273438,-1.3710938 0.234375,-0.1757812 0.4570312,-0.2226562 0.984375,-0.234375 v -0.7617187 c -0.1289063,-0.023437 -0.1992188,-0.023437 -0.2929688,-0.023437 -0.4804687,0 -0.8554687,0.28125 -1.2773437,0.984375 v -0.8554688 z m 4.8017577,-0.1289062 c -1.3124999,0 -2.1093749,0.9375 -2.1093749,2.5195312 0,1.57031251 0.7851563,2.51953126 2.1210939,2.51953126 1.3125,0 2.121094,-0.94921875 2.121094,-2.48437496 0,-1.6289063 -0.773438,-2.5546875 -2.132813,-2.5546875 z m 0.01172,0.6914062 c 0.84375,0 1.347656,0.6796875 1.347656,1.8515625 0,1.1015625 -0.527344,1.80468751 -1.347656,1.80468751 -0.8320314,0 -1.3476564,-0.69140621 -1.3476564,-1.82812501 0,-1.1367187 0.515625,-1.828125 1.3476564,-1.828125 z m 6.509766,-0.5625 h -3.503907 v 0.65625 h 2.613282 l -2.800782,3.37500001 V 9.765625e-4 H 17.14747 V -0.65527344 H 14.2295 l 2.789063,-3.37499996 z m 4.96875,2.6015625 c 0,-0.7148437 -0.04687,-1.1484375 -0.1875,-1.5 -0.304688,-0.7734375 -1.019532,-1.2304687 -1.898438,-1.2304687 -1.300781,0 -2.144531,0.9960937 -2.144531,2.5429687 0,1.54687501 0.808594,2.49609376 2.132812,2.49609376 1.066407,0 1.816407,-0.609375 2.003907,-1.64062496 h -0.75 c -0.210938,0.62109371 -0.632813,0.94921871 -1.230469,0.94921871 -0.480469,0 -0.878906,-0.22265625 -1.125,-0.60937501 -0.1875,-0.2695312 -0.246094,-0.5390625 -0.257813,-1.0078125 z m -3.433594,-0.609375 c 0.05859,-0.8671875 0.585937,-1.4296875 1.335937,-1.4296875 0.738282,0 1.300782,0.609375 1.300782,1.3710938 0,0.023437 0,0.035156 0,0.058594 z m 4.458984,-1.9921875 V 9.765625e-4 h 0.75 V -2.5888672 c 0,-0.9609375 0.503906,-1.5820312 1.265625,-1.5820312 0.597656,0 0.972656,0.3515625 0.972656,0.9140625 V 9.765625e-4 h 0.75 V -3.5498047 c 0,-0.7734375 -0.585937,-1.2773437 -1.488281,-1.2773437 -0.703125,0 -1.148437,0.2695312 -1.570312,0.9140625 V -4.6982422 Z M 30.55079,9.765625e-4 h 2.953125 c 0.621094,0 1.078125,-0.1757812525 1.429688,-0.5507812525 0.316406,-0.33984375 0.503906,-0.80859371 0.503906,-1.31250001 0,-0.7851562 -0.363281,-1.265625 -1.195313,-1.59375 0.585938,-0.2695312 0.902344,-0.7617187 0.902344,-1.4179687 0,-0.4804688 -0.175781,-0.9023438 -0.515625,-1.2070313 -0.339844,-0.3046875 -0.796875,-0.4570312 -1.417969,-0.4570312 H 30.550789 Z M 31.394539,-3.7138672 v -2.0859375 h 1.605469 c 0.46875,0 0.726562,0.058594 0.949219,0.234375 0.234375,0.1757813 0.363281,0.4453125 0.363281,0.8085938 0,0.3515625 -0.128906,0.6210937 -0.363281,0.8085937 -0.222657,0.1640625 -0.480469,0.234375 -0.949219,0.234375 z m 0,2.97656251 V -2.9873047 h 2.027344 c 0.410156,0 0.679687,0.1054688 0.867187,0.3164063 0.199219,0.2109375 0.304688,0.4921875 0.304688,0.8203125 0,0.3046875 -0.105469,0.5976562 -0.304688,0.796875 -0.1875,0.22265621 -0.457031,0.31640621 -0.867187,0.31640621 z m 9.228516,0.3046875 c -0.08203,0.0117188 -0.117188,0.0117188 -0.152344,0.0117188 -0.269531,0 -0.410156,-0.12890625 -0.410156,-0.36328125 V -3.5498047 c 0,-0.8320312 -0.609375,-1.2773437 -1.769532,-1.2773437 -0.679687,0 -1.242187,0.1875 -1.558593,0.5390625 -0.210938,0.2460937 -0.304688,0.515625 -0.316407,0.984375 h 0.75 c 0.05859,-0.5742188 0.398438,-0.8320313 1.101563,-0.8320313 0.667969,0 1.054687,0.2460938 1.054687,0.6914063 v 0.1992187 c 0,0.3164063 -0.1875,0.4453125 -0.785156,0.515625 -1.054687,0.140625 -1.21875,0.1757813 -1.5,0.2929688 -0.550781,0.2226562 -0.832031,0.6445312 -0.832031,1.2539062 0,0.85546876 0.597656,1.39453126 1.546875,1.39453126 0.585937,0 1.066406,-0.2109374975 1.59375,-0.69140625 0.04687,0.46875 0.28125,0.69140625 0.773437,0.69140625 0.152344,0 0.269532,-0.0234375 0.503907,-0.0820313 z M 39.322273,-1.4755859 c 0,0.2460937 -0.08203,0.3984375 -0.304687,0.60937496 -0.304688,0.28125 -0.667969,0.421875 -1.113281,0.421875 -0.574219,0 -0.914063,-0.28125 -0.914063,-0.76171876 0,-0.4921875 0.328125,-0.7382812 1.125,-0.8554687 0.785156,-0.1054688 0.949219,-0.140625 1.207031,-0.2578125 z m 5.419922,-1.9101563 c -0.01172,-0.9257812 -0.621093,-1.4414062 -1.699218,-1.4414062 -1.101563,0 -1.804688,0.5625 -1.804688,1.4296875 0,0.7382812 0.375,1.0898437 1.488281,1.359375 l 0.703125,0.1640625 c 0.515625,0.1289062 0.726563,0.3164062 0.726563,0.65625 0,0.43359371 -0.445313,0.73828121 -1.101563,0.73828121 -0.398437,0 -0.738281,-0.1171875 -0.925781,-0.31640625 -0.117187,-0.140625 -0.175781,-0.26953126 -0.222656,-0.59765626 h -0.785156 c 0.03516,1.07812501 0.644531,1.60546876 1.875,1.60546876 1.183593,0 1.933593,-0.5859375 1.933593,-1.48828126 0,-0.703125 -0.398437,-1.0898437 -1.324218,-1.3125 l -0.714844,-0.1757812 c -0.609375,-0.140625 -0.867188,-0.3398438 -0.867188,-0.6679688 0,-0.4335937 0.375,-0.703125 0.984375,-0.703125 0.609375,0 0.925782,0.2578125 0.949219,0.75 z m 5.150391,1.2890625 c 0,-0.7148437 -0.04687,-1.1484375 -0.1875,-1.5 -0.304688,-0.7734375 -1.019531,-1.2304687 -1.898438,-1.2304687 -1.300781,0 -2.144531,0.9960937 -2.144531,2.5429687 0,1.54687501 0.808594,2.49609376 2.132813,2.49609376 1.066406,0 1.816406,-0.609375 2.003906,-1.64062496 h -0.75 c -0.210938,0.62109371 -0.632813,0.94921871 -1.230469,0.94921871 -0.480469,0 -0.878906,-0.22265625 -1.125,-0.60937501 -0.1875,-0.2695312 -0.246094,-0.5390625 -0.257812,-1.0078125 z m -3.433594,-0.609375 c 0.05859,-0.8671875 0.585938,-1.4296875 1.335938,-1.4296875 0.738281,0 1.300781,0.609375 1.300781,1.3710938 0,0.023437 0,0.035156 0,0.058594 z m 5.182617,-3.8320312 h -0.75 V 9.765625e-4 h 0.75 z m 1.980469,1.8398437 h -0.75 V 9.765625e-4 h 0.75 z m 0,-1.8398437 h -0.761719 v 0.9492187 h 0.761719 z m 1.274414,1.8398437 V 9.765625e-4 h 0.75 V -2.5888672 c 0,-0.9609375 0.503906,-1.5820312 1.265625,-1.5820312 0.597656,0 0.972656,0.3515625 0.972656,0.9140625 V 9.765625e-4 h 0.75 V -3.5498047 c 0,-0.7734375 -0.585937,-1.2773437 -1.488281,-1.2773437 -0.703125,0 -1.148437,0.2695312 -1.570312,0.9140625 v -0.7851563 z m 8.947266,2.6015625 c 0,-0.7148437 -0.04687,-1.1484375 -0.1875,-1.5 -0.304688,-0.7734375 -1.019531,-1.2304687 -1.898438,-1.2304687 -1.300781,0 -2.144531,0.9960937 -2.144531,2.5429687 0,1.54687501 0.808594,2.49609376 2.132813,2.49609376 1.066406,0 1.816406,-0.609375 2.003906,-1.64062496 h -0.75 c -0.210938,0.62109371 -0.632813,0.94921871 -1.230469,0.94921871 -0.480469,0 -0.878906,-0.22265625 -1.125,-0.60937501 -0.1875,-0.2695312 -0.246094,-0.5390625 -0.257812,-1.0078125 z m -3.433594,-0.609375 c 0.05859,-0.8671875 0.585938,-1.4296875 1.335938,-1.4296875 0.738281,0 1.300781,0.609375 1.300781,1.3710938 0,0.023437 0,0.035156 0,0.058594 z m 8.4375,-3.8320312 c -0.902344,1.1835937 -1.464844,2.8125 -1.464844,4.21875 0,1.41796871 0.5625,3.04687496 1.464844,4.21875 h 0.492188 c -0.796875,-1.27734379 -1.230469,-2.78906254 -1.230469,-4.21875 0,-1.4296875 0.433594,-2.9414063 1.230469,-4.21875 z M 72.269539,9.765625e-4 74.074227,-4.6982422 h -0.84375 l -1.324219,3.80859376 -1.253906,-3.80859376 h -0.84375 L 71.449227,9.765625e-4 Z M 76.517586,-4.5224609 V 9.765625e-4 h 0.785156 V -6.3505859 h -0.515625 c -0.28125,0.9726562 -0.457031,1.1015625 -1.675781,1.2539062 v 0.5742188 z m 3.495117,6.421875 c 0.902344,-1.17187504 1.464844,-2.80078129 1.464844,-4.2070313 0,-1.4179687 -0.5625,-3.046875 -1.464844,-4.2304687 h -0.492187 c 0.785156,1.2890625 1.230468,2.7890625 1.230468,4.2304687 0,1.41796876 -0.445312,2.94140626 -1.230468,4.2070313 z m 0,0"
       style="fill:#000000;fill-opacity:1;fill-rule:nonzero;stroke:none"
       aria-label="FrozenBaseline(v1)"
       transform="matrix(1.3333333,0,0,1.3333333,16.277333,100.66667)" />
    <path
       id="path7"
       d="M 157.85027,-38.97362 H 65.98781 c -1.10047,0 -1.99256,-0.89208 -1.99256,-1.99255 v -24.3617 c 0,-1.10046 0.89209,-1.99255 1.99256,-1.99255 h 91.86246 c 1.10047,0 1.99255,0.89209 1.99255,1.99255 v 24.3617 c 0,1.10047 -0.89208,1.99255 -1.99255,1.99255 z"
       style="fill:#fad4af;fill-opacity:1;fill-rule:nonzero;stroke:#e67817;stroke-width:0.74721;stroke-linecap:butt;stroke-linejoin:miter;stroke-miterlimit:10;stroke-dasharray:none;stroke-opacity:1"
       transform="matrix(1.3333333,0,0,-1.3333333,215.59867,19.396)" />
    <path
       id="path8"
       d="M 4.489125,-1.3124844 4.9227188,1.5625e-5 H 6.3055313 L 4.0438125,-6.5390469 H 2.5555313 L 0.23521875,1.5625e-5 H 1.6063125 L 2.0399063,-1.3124844 Z m -0.3632812,-1.125 H 2.426625 l 0.84375,-2.5546875 z m 7.0224612,-0.5976562 c -0.08203,-1.1835938 -0.878907,-1.8867188 -2.0859378,-1.8867188 -1.4414063,0 -2.2851563,0.9492188 -2.2851563,2.6015625 0,1.59375003 0.8320313,2.53125003 2.2734375,2.53125003 1.1718746,0 1.9804686,-0.7265625 2.0976566,-1.88671873 H 9.9529922 c -0.1640625,0.6210937 -0.4101563,0.86718748 -0.9023438,0.86718748 -0.6328125,0 -1.0195312,-0.57421878 -1.0195312,-1.51171878 0,-0.4570312 0.09375,-0.890625 0.2460937,-1.171875 0.140625,-0.2695312 0.421875,-0.421875 0.7734375,-0.421875 0.515625,0 0.7617188,0.2460938 0.9023438,0.8789063 z m 3.005859,-1.7109375 h -0.691406 v -1.3007813 h -1.265625 v 1.3007813 h -0.609375 v 0.8320312 h 0.609375 v 2.97656253 c 0,0.76171875 0.410156,1.1484375 1.230469,1.1484375 0.28125,0 0.503906,-0.0351563 0.726562,-0.10546875 v -0.87890625 c -0.117187,0.0234375 -0.199219,0.0351563 -0.28125,0.0351563 -0.339844,0 -0.410156,-0.10546875 -0.410156,-0.53906253 v -2.6367188 h 0.691406 z m 2.141602,-0.09375 H 15.041859 V 1.5625e-5 h 1.253907 z m 0,-1.6992188 h -1.253907 v 1.125 h 1.253907 z M 20.077992,1.5625e-5 21.742055,-4.8398281 h -1.324219 l -0.984375,3.5390625 -1.042969,-3.5390625 h -1.324219 l 1.6875,4.839843725 z M 26.622914,-2.0273281 c 0.01172,-0.1054688 0.01172,-0.1523438 0.01172,-0.2109375 0,-0.4921875 -0.07031,-0.9375 -0.1875,-1.2773438 -0.328125,-0.8789062 -1.113281,-1.40625 -2.085938,-1.40625 -1.382812,0 -2.238281,1.0078125 -2.238281,2.625 0,1.55859378 0.84375,2.50781253 2.214844,2.50781253 1.078125,0 1.957031,-0.62109375 2.238281,-1.57031253 h -1.242187 c -0.152344,0.38671878 -0.492188,0.60937503 -0.949219,0.60937503 -0.363281,0 -0.644531,-0.15234375 -0.832031,-0.42187503 -0.117188,-0.1875 -0.164063,-0.3984375 -0.175782,-0.8554687 z m -3.234375,-0.8320313 c 0.08203,-0.7382812 0.398438,-1.1015625 0.960938,-1.1015625 0.304687,0 0.597656,0.1523438 0.773437,0.3984375 0.117188,0.1875 0.175781,0.375 0.199219,0.703125 z m 7.945313,-2.2382812 1.171875,5.097656225 h 1.347656 L 35.013539,-5.0976406 V 1.5625e-5 h 1.347656 V -6.5390469 h -2.027343 l -1.148438,5.203125 -1.183594,-5.203125 H 29.986195 V 1.5625e-5 h 1.347657 z m 8.232421,0.1757812 c -1.476562,0 -2.378906,0.9726563 -2.378906,2.5664063 0,1.59374998 0.902344,2.56640623 2.390625,2.56640623 1.464844,0 2.390625,-0.984375 2.390625,-2.53125003 0,-1.640625 -0.878906,-2.6015625 -2.402344,-2.6015625 z m 0.01172,1.0078125 c 0.691406,0 1.136719,0.6210938 1.136719,1.5703125 0,0.9140625 -0.46875,1.53515628 -1.136719,1.53515628 -0.679687,0 -1.136719,-0.62109378 -1.136719,-1.54687498 0,-0.9257813 0.457032,-1.5585938 1.136719,-1.5585938 z M 45.982289,1.5625e-5 h 1.253906 V -6.5390469 h -1.253906 v 2.3203125 c -0.316406,-0.4804687 -0.738281,-0.703125 -1.335937,-0.703125 -1.160157,0 -2.039063,1.1132813 -2.039063,2.578125 0,0.6445313 0.199219,1.3125 0.527344,1.78125003 0.328125,0.46875 0.914062,0.7734375 1.511719,0.7734375 0.597656,0 1.019531,-0.234375 1.335937,-0.703125 z M 44.927602,-3.8671719 c 0.632812,0 1.054687,0.609375 1.054687,1.5351563 0,0.8789062 -0.433594,1.48828123 -1.054687,1.48828123 -0.632813,0 -1.066407,-0.62109373 -1.066407,-1.50000003 0,-0.9023437 0.433594,-1.5234375 1.066407,-1.5234375 z m 7.599609,1.8398438 c 0.01172,-0.1054688 0.01172,-0.1523438 0.01172,-0.2109375 0,-0.4921875 -0.07031,-0.9375 -0.1875,-1.2773438 -0.328125,-0.8789062 -1.113282,-1.40625 -2.085938,-1.40625 -1.382812,0 -2.238281,1.0078125 -2.238281,2.625 0,1.55859378 0.84375,2.50781253 2.214844,2.50781253 1.078125,0 1.957031,-0.62109375 2.238281,-1.57031253 h -1.242188 c -0.152343,0.38671878 -0.492187,0.60937503 -0.949218,0.60937503 -0.363282,0 -0.644532,-0.15234375 -0.832032,-0.42187503 -0.117187,-0.1875 -0.164062,-0.3984375 -0.175781,-0.8554687 z m -3.234375,-0.8320313 c 0.08203,-0.7382812 0.398437,-1.1015625 0.960937,-1.1015625 0.304688,0 0.597657,0.1523438 0.773438,0.3984375 0.117187,0.1875 0.175781,0.375 0.199219,0.703125 z m 5.370117,-3.6796875 H 53.409047 V 1.5625e-5 h 1.253906 z m 0,0"
       style="fill:#000000;fill-opacity:1;fill-rule:nonzero;stroke:none"
       aria-label="ActiveModel"
       transform="matrix(1.3333333,0,0,1.3333333,327.952,86.054667)" />
    <path
       id="path9"
       d="M 1.5465469,-6.5380859 H 0.71451563 V 9.765625e-4 H 4.7809219 V -0.73730469 H 1.5465469 Z M 7.4235,-4.8271484 c -1.3125,0 -2.109375,0.9375 -2.109375,2.5195312 0,1.57031251 0.7851563,2.51953126 2.1210938,2.51953126 1.3125,0 2.1210937,-0.94921875 2.1210937,-2.48437496 0,-1.6289063 -0.7734375,-2.5546875 -2.1328125,-2.5546875 z m 0.011719,0.6914062 c 0.84375,0 1.3476562,0.6796875 1.3476562,1.8515625 0,1.1015625 -0.5273437,1.80468751 -1.3476562,1.80468751 -0.8320313,0 -1.3476563,-0.69140621 -1.3476563,-1.82812501 0,-1.1367187 0.515625,-1.828125 1.3476563,-1.828125 z m 6.752929,1.0195313 c -0.03516,-0.4570313 -0.128906,-0.75 -0.304687,-1.0195313 -0.328125,-0.4335937 -0.890625,-0.6914062 -1.546875,-0.6914062 -1.265625,0 -2.085938,0.9960937 -2.085938,2.5546875 0,1.52343746 0.808594,2.48437496 2.074219,2.48437496 1.125,0 1.828125,-0.6796875 1.921875,-1.82812496 h -0.75 c -0.128906,0.76171871 -0.515625,1.13671871 -1.148437,1.13671871 -0.832032,0 -1.324219,-0.67968751 -1.324219,-1.79296871 0,-1.171875 0.492187,-1.8632813 1.300781,-1.8632813 0.632813,0 1.019531,0.3632813 1.113281,1.0195313 z m 5.059571,2.68359371 c -0.08203,0.0117188 -0.117188,0.0117188 -0.152344,0.0117188 -0.269531,0 -0.410156,-0.12890625 -0.410156,-0.36328125 V -3.5498047 c 0,-0.8320312 -0.609375,-1.2773437 -1.769531,-1.2773437 -0.679688,0 -1.242188,0.1875 -1.558594,0.5390625 -0.210938,0.2460937 -0.304688,0.515625 -0.316406,0.984375 h 0.75 c 0.05859,-0.5742188 0.398437,-0.8320313 1.101562,-0.8320313 0.667969,0 1.054688,0.2460938 1.054688,0.6914063 v 0.1992187 c 0,0.3164063 -0.1875,0.4453125 -0.785157,0.515625 -1.054687,0.140625 -1.21875,0.1757813 -1.5,0.2929688 -0.550781,0.2226562 -0.832031,0.6445312 -0.832031,1.2539062 0,0.85546876 0.597656,1.39453126 1.546875,1.39453126 0.585938,0 1.066406,-0.2109374975 1.59375,-0.69140625 0.04687,0.46875 0.28125,0.69140625 0.773438,0.69140625 0.152343,0 0.269531,-0.0234375 0.503906,-0.0820313 z M 17.946938,-1.4755859 c 0,0.2460937 -0.08203,0.3984375 -0.304688,0.60937496 -0.304687,0.28125 -0.667969,0.421875 -1.113281,0.421875 -0.574219,0 -0.914063,-0.28125 -0.914063,-0.76171876 0,-0.4921875 0.328125,-0.7382812 1.125,-0.8554687 0.785157,-0.1054688 0.949219,-0.140625 1.207032,-0.2578125 z m 2.850585,-5.0625 h -0.75 V 9.765625e-4 h 0.75 z m 1.992188,0 h -0.75 V 9.765625e-4 h 0.75 z m 4.110352,1.8398437 -1.300782,3.65625 -1.207031,-3.65625 h -0.796875 l 1.59375,4.72265626 -0.292969,0.73828125 C 24.778969,1.0908203 24.614906,1.2197266 24.2985,1.2197266 c -0.105469,0 -0.234375,-0.011719 -0.398437,-0.058594 v 0.6796875 c 0.152343,0.082031 0.304687,0.1171875 0.503906,0.1171875 0.246094,0 0.503906,-0.082031 0.703125,-0.2226562 0.234375,-0.1757813 0.363281,-0.375 0.503906,-0.75000004 l 2.097656,-5.68359376 z m 7.740234,2.7304688 0.667969,1.9687499625 h 0.9375 L 33.948891,-6.5380859 H 32.870766 L 30.538734,9.765625e-4 h 0.890625 L 32.120766,-1.9677734 Z m -0.234375,-0.6914063 h -2.085938 l 1.078125,-2.9765625 z m 6.404297,-3.8789062 h -0.75 v 2.4375 c -0.316406,-0.4804688 -0.808594,-0.7265625 -1.441406,-0.7265625 -1.21875,0 -2.015625,0.9726562 -2.015625,2.4726562 0,1.58203126 0.773437,2.56640626 2.039062,2.56640626 0.644531,0 1.101563,-0.24609375 1.5,-0.83203125 V 9.765625e-4 h 0.667969 z m -2.0625,2.4023437 c 0.808594,0 1.3125,0.7265625 1.3125,1.8398438 0,1.0898437 -0.515625,1.80468746 -1.3125,1.80468746 -0.820313,0 -1.371094,-0.72656246 -1.371094,-1.81640626 0,-1.1015625 0.550781,-1.828125 1.371094,-1.828125 z m 7.397461,3.70312501 c -0.08203,0.0117188 -0.117188,0.0117188 -0.152344,0.0117188 -0.269531,0 -0.410156,-0.12890625 -0.410156,-0.36328125 V -3.5498047 c 0,-0.8320312 -0.609375,-1.2773437 -1.769532,-1.2773437 -0.679687,0 -1.242187,0.1875 -1.558593,0.5390625 -0.210938,0.2460937 -0.304688,0.515625 -0.316407,0.984375 h 0.75 c 0.05859,-0.5742188 0.398438,-0.8320313 1.101563,-0.8320313 0.667969,0 1.054687,0.2460938 1.054687,0.6914063 v 0.1992187 c 0,0.3164063 -0.1875,0.4453125 -0.785156,0.515625 -1.054687,0.140625 -1.21875,0.1757813 -1.5,0.2929688 -0.550781,0.2226562 -0.832031,0.6445312 -0.832031,1.2539062 0,0.85546876 0.597656,1.39453126 1.546875,1.39453126 0.585937,0 1.066406,-0.2109374975 1.59375,-0.69140625 0.04687,0.46875 0.28125,0.69140625 0.773437,0.69140625 0.152344,0 0.269532,-0.0234375 0.503907,-0.0820313 z M 44.844398,-1.4755859 c 0,0.2460937 -0.08203,0.3984375 -0.304687,0.60937496 -0.304688,0.28125 -0.667969,0.421875 -1.113281,0.421875 -0.574219,0 -0.914063,-0.28125 -0.914063,-0.76171876 0,-0.4921875 0.328125,-0.7382812 1.125,-0.8554687 0.785156,-0.1054688 0.949219,-0.140625 1.207031,-0.2578125 z m 1.97461,3.4335937 h 0.761719 v -2.44921874 c 0.386718,0.48046875 0.832031,0.703125 1.441406,0.703125 1.207031,0 2.003906,-0.984375 2.003906,-2.48437496 0,-1.5703125 -0.773437,-2.5546875 -2.015625,-2.5546875 -0.632812,0 -1.148437,0.28125 -1.5,0.84375 v -0.7148438 h -0.691406 z m 2.0625,-6.09375 c 0.832031,0 1.371094,0.7265625 1.371094,1.8515625 0,1.0664063 -0.550782,1.79296876 -1.371094,1.79296876 -0.785156,0 -1.300781,-0.71484376 -1.300781,-1.81640626 0,-1.1015625 0.515625,-1.828125 1.300781,-1.828125 z m 4.716797,-0.5625 h -0.761719 v -1.2890625 h -0.75 v 1.2890625 h -0.632813 v 0.609375 h 0.632813 v 3.55078126 c 0,0.48046875 0.328125,0.75 0.902344,0.75 0.1875,0 0.363281,-0.0234375 0.609375,-0.0703125 v -0.62109375 c -0.09375,0.0234375 -0.210938,0.0351563 -0.351563,0.0351563 -0.328125,0 -0.410156,-0.09375 -0.410156,-0.421875 V -4.0888672 h 0.761719 z m 4.810547,2.6015625 c 0,-0.7148437 -0.04687,-1.1484375 -0.1875,-1.5 -0.304688,-0.7734375 -1.019532,-1.2304687 -1.898438,-1.2304687 -1.300781,0 -2.144531,0.9960937 -2.144531,2.5429687 0,1.54687501 0.808594,2.49609376 2.132812,2.49609376 1.066407,0 1.816407,-0.609375 2.003907,-1.64062496 h -0.75 c -0.210938,0.62109371 -0.632813,0.94921871 -1.230469,0.94921871 -0.480469,0 -0.878906,-0.22265625 -1.125,-0.60937501 -0.1875,-0.2695312 -0.246094,-0.5390625 -0.257813,-1.0078125 z m -3.433594,-0.609375 c 0.05859,-0.8671875 0.585937,-1.4296875 1.335937,-1.4296875 0.738282,0 1.300782,0.609375 1.300782,1.3710938 0,0.023437 0,0.035156 0,0.058594 z m 8.267578,-3.8320312 h -0.75 v 2.4375 c -0.316406,-0.4804688 -0.808594,-0.7265625 -1.441406,-0.7265625 -1.21875,0 -2.015625,0.9726562 -2.015625,2.4726562 0,1.58203126 0.773437,2.56640626 2.039062,2.56640626 0.644531,0 1.101563,-0.24609375 1.5,-0.83203125 V 9.765625e-4 h 0.667969 z m -2.0625,2.4023437 c 0.808594,0 1.3125,0.7265625 1.3125,1.8398438 0,1.0898437 -0.515625,1.80468746 -1.3125,1.80468746 -0.820313,0 -1.371094,-0.72656246 -1.371094,-1.81640626 0,-1.1015625 0.550781,-1.828125 1.371094,-1.828125 z m 7.22168,-2.4023437 c -0.902344,1.1835937 -1.464844,2.8125 -1.464844,4.21875 0,1.41796871 0.5625,3.04687496 1.464844,4.21875 h 0.492187 c -0.796875,-1.27734379 -1.230469,-2.78906254 -1.230469,-4.21875 0,-1.4296875 0.433594,-2.9414063 1.230469,-4.21875 z M 71.820961,9.765625e-4 73.625648,-4.6982422 h -0.84375 L 71.45768,-0.88964844 70.203773,-4.6982422 h -0.84375 L 71.000648,9.765625e-4 Z M 76.069008,-4.5224609 V 9.765625e-4 h 0.785156 V -6.3505859 h -0.515625 c -0.28125,0.9726562 -0.457031,1.1015625 -1.675781,1.2539062 v 0.5742188 z m 4.376953,3.58593746 H 79.52018 V 9.765625e-4 h 0.925781 z M 83.54557,-4.5224609 V 9.765625e-4 h 0.785157 V -6.3505859 h -0.515625 c -0.28125,0.9726562 -0.457032,1.1015625 -1.675782,1.2539062 v 0.5742188 z m 3.498047,6.421875 c 0.902344,-1.17187504 1.464844,-2.80078129 1.464844,-4.2070313 0,-1.4179687 -0.5625,-3.046875 -1.464844,-4.2304687 H 86.55143 c 0.785156,1.2890625 1.230468,2.7890625 1.230468,4.2304687 0,1.41796876 -0.445312,2.94140626 -1.230468,4.2070313 z m 0,0"
       style="fill:#000000;fill-opacity:1;fill-rule:nonzero;stroke:none"
       aria-label="LocallyAdapted(v1.1)"
       transform="matrix(1.3333333,0,0,1.3333333,305.352,100.66667)" />
    <path
       id="path10"
       d="m 42.67644,-71.24065 h -85.35288 c -1.10046,0 -1.99255,-0.89207 -1.99255,-1.99255 v -24.36168 c 0,-1.10048 0.89209,-1.99255 1.99255,-1.99255 h 85.35288 c 1.10046,0 1.99255,0.89207 1.99255,1.99255 v 24.36168 c 0,1.10048 -0.89209,1.99255 -1.99255,1.99255 z"
       style="fill:#dbfda6;fill-opacity:1;fill-rule:nonzero;stroke:#008f45;stroke-width:0.74721;stroke-linecap:butt;stroke-linejoin:miter;stroke-miterlimit:10;stroke-dasharray:none;stroke-opacity:1"
       transform="matrix(1.3333333,0,0,-1.3333333,215.59867,19.396)" />
    <path
       id="path11"
       d="M 4.4888438,-1.3132812 4.9224375,-7.8125e-4 H 6.30525 L 4.0435313,-6.5398437 H 2.55525 L 0.2349375,-7.8125e-4 H 1.6060313 L 2.039625,-1.3132812 Z m -0.3632813,-1.125 H 2.4263438 l 0.84375,-2.5546875 z M 7.0376719,-4.840625 V -7.8125e-4 H 8.2915781 V -2.5789062 c 0,-0.7265625 0.375,-1.1015625 1.1015625,-1.1015625 0.140625,0 0.234375,0.011719 0.3984375,0.035156 v -1.265625 c -0.070312,-0.011719 -0.1171875,-0.011719 -0.1523437,-0.011719 -0.5742188,0 -1.078125,0.375 -1.3476563,1.03125 V -4.840625 Z m 3.4511721,-1.6992187 v 6.53906245 h 1.253906 v -0.4921875 c 0.304688,0.46875 0.726563,0.703125 1.335938,0.703125 1.160156,0 2.039062,-1.1015625 2.039062,-2.56640625 0,-0.65625 -0.199219,-1.3242187 -0.515625,-1.78125 -0.339844,-0.4804687 -0.925781,-0.7851562 -1.523437,-0.7851562 -0.597657,0 -1.03125,0.2226562 -1.335938,0.703125 v -2.3203125 z m 2.320312,2.671875 c 0.609375,0 1.054688,0.6210937 1.054688,1.5234375 0,0.8789062 -0.445313,1.49999995 -1.054688,1.49999995 -0.644531,0 -1.066406,-0.60937495 -1.066406,-1.53515625 0,-0.8789062 0.433594,-1.4882812 1.066406,-1.4882812 z m 4.482422,-0.9726563 h -1.253906 v 4.83984375 h 1.253906 z m 0,-1.6992187 h -1.253906 v 1.125 h 1.253906 z m 3.336914,1.7929687 h -0.691406 v -1.3007812 h -1.265625 v 1.3007812 h -0.609375 v 0.8320313 h 0.609375 v 2.97656245 c 0,0.76171875 0.410156,1.1484375 1.230469,1.1484375 0.28125,0 0.503906,-0.0351563 0.726562,-0.10546875 v -0.87890625 c -0.117187,0.0234375 -0.199219,0.0351563 -0.28125,0.0351563 -0.339844,0 -0.410156,-0.10546875 -0.410156,-0.53906245 v -2.6367188 h 0.691406 z m 4.989258,2.71875 c 0.01172,-0.1054687 0.01172,-0.1523437 0.01172,-0.2109375 0,-0.4921875 -0.07031,-0.9375 -0.1875,-1.2773437 -0.328125,-0.8789063 -1.113282,-1.40625 -2.085938,-1.40625 -1.382812,0 -2.238281,1.0078125 -2.238281,2.625 0,1.5585937 0.84375,2.50781245 2.214844,2.50781245 1.078125,0 1.957031,-0.62109375 2.238281,-1.57031245 h -1.242188 c -0.152343,0.3867187 -0.492187,0.60937495 -0.949218,0.60937495 -0.363282,0 -0.644532,-0.15234375 -0.832032,-0.42187495 -0.117187,-0.1875 -0.164062,-0.3984375 -0.175781,-0.8554688 z m -3.234375,-0.8320312 c 0.08203,-0.7382813 0.398437,-1.1015625 0.960937,-1.1015625 0.304688,0 0.597657,0.1523437 0.773438,0.3984375 0.117187,0.1875 0.175781,0.375 0.199219,0.703125 z m 4.083984,-1.9804688 v 4.83984375 h 1.253907 V -2.5789062 c 0,-0.7265625 0.375,-1.1015625 1.101562,-1.1015625 0.140625,0 0.234375,0.011719 0.398438,0.035156 v -1.265625 c -0.07031,-0.011719 -0.117188,-0.011719 -0.152344,-0.011719 -0.574219,0 -1.078125,0.375 -1.347656,1.03125 V -4.840625 Z m 4.78711,-1.5585937 -1.839844,6.5273437 h 0.597656 l 1.839844,-6.5273437 z M 38.001539,-4.325 c -0.04687,-0.5625 -0.164062,-0.9257812 -0.445312,-1.2890625 -0.503907,-0.65625 -1.300782,-1.03125 -2.285157,-1.03125 -1.839843,0 -2.988281,1.3242188 -2.988281,3.4335938 0,2.0976562 1.136719,3.42187495 2.953125,3.42187495 1.628906,0 2.707031,-0.94921875 2.789063,-2.43749995 h -1.3125 c -0.08203,0.8320312 -0.609375,1.3007812 -1.441407,1.3007812 -1.042968,0 -1.652343,-0.84375 -1.652343,-2.2617187 0,-1.453125 0.644531,-2.3085938 1.699218,-2.3085938 0.46875,0 0.855469,0.1640625 1.101563,0.4804688 0.140625,0.1757812 0.210937,0.3398437 0.292969,0.6914062 z m 3.052734,-0.5976562 c -1.476562,0 -2.378906,0.9726562 -2.378906,2.5664062 0,1.59375 0.902344,2.56640625 2.390625,2.56640625 1.464844,0 2.390625,-0.984375 2.390625,-2.53124995 0,-1.640625 -0.878906,-2.6015625 -2.402344,-2.6015625 z m 0.01172,1.0078125 c 0.691406,0 1.136719,0.6210937 1.136719,1.5703125 0,0.9140625 -0.46875,1.5351562 -1.136719,1.5351562 -0.679687,0 -1.136719,-0.6210937 -1.136719,-1.546875 0,-0.9257812 0.457032,-1.5585937 1.136719,-1.5585937 z M 44.37654,-4.840625 v 4.83984375 h 1.253906 V -2.9070312 c 0,-0.5859375 0.328125,-0.9492188 0.855469,-0.9492188 0.421875,0 0.691406,0.2460938 0.691406,0.6328125 v 3.22265625 h 1.253907 V -2.9070312 c 0,-0.5859375 0.316406,-0.9492188 0.855468,-0.9492188 0.421875,0 0.679688,0.2460938 0.679688,0.6328125 V -7.8125e-4 H 51.22029 V -3.4226562 c 0,-0.9492188 -0.574219,-1.5 -1.535156,-1.5 -0.609375,0 -1.042969,0.2109375 -1.417969,0.7148437 -0.234375,-0.4570312 -0.714844,-0.7148437 -1.324219,-0.7148437 -0.550781,0 -0.914062,0.1875 -1.324218,0.6796875 V -4.840625 Z m 9.202148,0 H 52.324781 V 1.95625 h 1.253906 V -0.575 c 0.304688,0.5390625 0.738282,0.78515625 1.347657,0.78515625 1.171875,0 2.027343,-1.08984375 2.027343,-2.55468745 0,-0.6914063 -0.199218,-1.3710938 -0.515625,-1.8164063 -0.328125,-0.4570312 -0.925781,-0.7617187 -1.511718,-0.7617187 -0.609375,0 -1.042969,0.2578125 -1.347657,0.796875 z m 1.066407,0.9726563 c 0.632812,0 1.054687,0.609375 1.054687,1.5351562 0,0.8789063 -0.433594,1.5 -1.054687,1.5 -0.632813,0 -1.066407,-0.609375 -1.066407,-1.5117187 0,-0.9140625 0.433594,-1.5234375 1.066407,-1.5234375 z m 7.338867,3.7148437 c -0.222657,-0.2109375 -0.29297,-0.33984375 -0.29297,-0.5859375 V -3.434375 c 0,-0.984375 -0.667969,-1.4882812 -1.980469,-1.4882812 -1.300781,0 -1.992187,0.5507812 -2.0625,1.6757812 h 1.207032 c 0.05859,-0.5039062 0.269531,-0.6679687 0.890625,-0.6679687 0.480468,0 0.726562,0.1640625 0.726562,0.4921875 0,0.1640625 -0.08203,0.3046875 -0.222656,0.375 -0.164063,0.09375 -0.164063,0.09375 -0.785156,0.1875 l -0.503907,0.09375 c -0.960937,0.1523437 -1.429687,0.6445312 -1.429687,1.5234375 0,0.4101562 0.117187,0.74999995 0.339844,0.9960937 0.28125,0.28125 0.703125,0.45703125 1.136718,0.45703125 0.539063,0 1.03125,-0.234375 1.464844,-0.69140625 0,0.24609375 0.03516,0.33984375 0.152344,0.48046875 h 1.359375 z m -1.511719,-1.7929687 c 0,0.7265625 -0.363281,1.1367187 -0.996094,1.1367187 -0.421875,0 -0.679687,-0.2226562 -0.679687,-0.5859375 0,-0.375 0.1875,-0.5507812 0.714844,-0.65625 l 0.421875,-0.082031 c 0.339843,-0.058594 0.386718,-0.082031 0.539062,-0.1523438 z M 62.83357,-4.840625 v 4.83984375 h 1.253907 V -2.5789062 c 0,-0.7265625 0.375,-1.1015625 1.101562,-1.1015625 0.140625,0 0.234375,0.011719 0.398438,0.035156 v -1.265625 c -0.07031,-0.011719 -0.117188,-0.011719 -0.152344,-0.011719 -0.574219,0 -1.078125,0.375 -1.347656,1.03125 V -4.840625 Z m 7.625977,4.6875 C 70.236891,-0.3640625 70.166578,-0.49296875 70.166578,-0.7390625 V -3.434375 c 0,-0.984375 -0.667969,-1.4882812 -1.980469,-1.4882812 -1.300781,0 -1.992187,0.5507812 -2.0625,1.6757812 h 1.207032 c 0.05859,-0.5039062 0.269531,-0.6679687 0.890625,-0.6679687 0.480468,0 0.726562,0.1640625 0.726562,0.4921875 0,0.1640625 -0.08203,0.3046875 -0.222656,0.375 -0.164063,0.09375 -0.164063,0.09375 -0.785156,0.1875 l -0.503907,0.09375 c -0.960937,0.1523437 -1.429687,0.6445312 -1.429687,1.5234375 0,0.4101562 0.117187,0.74999995 0.339844,0.9960937 0.28125,0.28125 0.703125,0.45703125 1.136718,0.45703125 0.539063,0 1.03125,-0.234375 1.464844,-0.69140625 0,0.24609375 0.03516,0.33984375 0.152344,0.48046875 h 1.359375 z m -1.511719,-1.7929687 c 0,0.7265625 -0.363281,1.1367187 -0.996094,1.1367187 -0.421875,0 -0.679687,-0.2226562 -0.679687,-0.5859375 0,-0.375 0.1875,-0.5507812 0.714844,-0.65625 l 0.421875,-0.082031 c 0.339843,-0.058594 0.386718,-0.082031 0.539062,-0.1523438 z m 4.491211,-2.8007813 h -0.691406 v -1.3007812 h -1.265625 v 1.3007812 h -0.609375 v 0.8320313 h 0.609375 v 2.97656245 c 0,0.76171875 0.410156,1.1484375 1.230469,1.1484375 0.28125,0 0.503906,-0.0351563 0.726562,-0.10546875 v -0.87890625 c -0.117187,0.0234375 -0.199219,0.0351563 -0.28125,0.0351563 -0.339844,0 -0.410156,-0.10546875 -0.410156,-0.53906245 v -2.6367188 h 0.691406 z m 2.985352,-0.1757812 c -1.476563,0 -2.378907,0.9726562 -2.378907,2.5664062 0,1.59375 0.902344,2.56640625 2.390625,2.56640625 1.464844,0 2.390625,-0.984375 2.390625,-2.53124995 0,-1.640625 -0.878906,-2.6015625 -2.402343,-2.6015625 z m 0.01172,1.0078125 c 0.691407,0 1.136719,0.6210937 1.136719,1.5703125 0,0.9140625 -0.46875,1.5351562 -1.136719,1.5351562 -0.679687,0 -1.136718,-0.6210937 -1.136718,-1.546875 0,-0.9257812 0.457031,-1.5585937 1.136718,-1.5585937 z M 79.770094,-4.840625 V -7.8125e-4 H 81.024 V -2.5789062 c 0,-0.7265625 0.375,-1.1015625 1.101562,-1.1015625 0.140625,0 0.234375,0.011719 0.398438,0.035156 v -1.265625 c -0.07031,-0.011719 -0.117188,-0.011719 -0.152344,-0.011719 -0.574219,0 -1.078125,0.375 -1.347656,1.03125 V -4.840625 Z m 0,0"
       style="fill:#000000;fill-opacity:1;fill-rule:nonzero;stroke:none"
       aria-label="Arbiter/Comparator"
       transform="matrix(1.3333333,0,0,1.3333333,160.468,130.26667)" />
    <path
       id="path12"
       d="M 0.79634375,1.796875e-4 H 3.315875 c 1.6523438,0 2.6601563,-1.2421874875 2.6601563,-3.2695312875 0,-2.0273437 -0.9960938,-3.2695312 -2.6601563,-3.2695312 H 0.79634375 Z M 1.628375,-0.73810156 V -5.8006016 H 3.17525 c 1.2890625,0 1.96875,0.8671875 1.96875,2.5429688 0,1.640625 -0.6796875,2.51953124 -1.96875,2.51953124 z M 7.0951719,-4.6990391 V 1.796875e-4 h 0.75 V -2.4373203 c 0,-0.6679688 0.1757812,-1.1132813 0.5273437,-1.3710938 0.234375,-0.1757812 0.4570313,-0.2226562 0.984375,-0.234375 v -0.7617187 c -0.1289062,-0.023437 -0.1992187,-0.023437 -0.2929687,-0.023437 -0.4804688,0 -0.8554688,0.28125 -1.2773438,0.984375 v -0.8554688 z m 3.8466801,0 h -0.75 V 1.796875e-4 h 0.75 z m 0,-1.8398437 h -0.761719 v 0.9492187 h 0.761719 z m 2.950195,1.8398437 h -0.773438 v -0.7382812 c 0,-0.3046875 0.175782,-0.46875 0.515625,-0.46875 0.07031,0 0.09375,0 0.257813,0.011719 V -6.515445 c -0.164063,-0.035156 -0.269531,-0.046875 -0.421875,-0.046875 -0.679688,0 -1.101563,0.3984375 -1.101563,1.0664062 v 0.796875 h -0.621093 v 0.609375 h 0.621093 V 1.796875e-4 h 0.75 V -4.0896641 h 0.773438 z m 2.458008,0 h -0.761719 v -1.2890625 h -0.75 v 1.2890625 h -0.632813 v 0.609375 h 0.632813 v 3.55078129 c 0,0.48046875 0.328125,0.75 0.902344,0.75 0.1875,0 0.363281,-0.0234375 0.609375,-0.0703125 v -0.62109375 c -0.09375,0.0234375 -0.210938,0.0351563 -0.351563,0.0351563 -0.328125,0 -0.410156,-0.09375 -0.410156,-0.421875 V -4.0896641 h 0.761719 z m 3.500976,4.6992187875 h 2.519532 c 1.652343,0 2.660156,-1.2421874875 2.660156,-3.2695312875 0,-2.0273437 -0.996094,-3.2695312 -2.660156,-3.2695312 H 19.851031 Z M 20.683063,-0.73810156 V -5.8006016 h 1.546875 c 1.289062,0 1.96875,0.8671875 1.96875,2.5429688 0,1.640625 -0.679688,2.51953124 -1.96875,2.51953124 z m 9.436523,-1.35937504 c 0,-0.7148437 -0.04687,-1.1484375 -0.1875,-1.5 -0.304688,-0.7734375 -1.019531,-1.2304687 -1.898438,-1.2304687 -1.300781,0 -2.144531,0.9960937 -2.144531,2.5429687 0,1.54687504 0.808594,2.49609379 2.132813,2.49609379 1.066406,0 1.816406,-0.609375 2.003906,-1.64062499 h -0.75 c -0.210938,0.62109374 -0.632813,0.94921874 -1.230469,0.94921874 -0.480469,0 -0.878906,-0.22265625 -1.125,-0.60937504 -0.1875,-0.2695312 -0.246094,-0.5390625 -0.257812,-1.0078125 z m -3.433594,-0.609375 c 0.05859,-0.8671875 0.585938,-1.4296875 1.335938,-1.4296875 0.738281,0 1.300781,0.609375 1.300781,1.3710938 0,0.023437 0,0.035156 0,0.058594 z m 6.09961,-1.9921875 h -0.761719 v -1.2890625 h -0.75 v 1.2890625 H 30.64107 v 0.609375 h 0.632813 v 3.55078129 c 0,0.48046875 0.328125,0.75 0.902344,0.75 0.1875,0 0.363281,-0.0234375 0.609375,-0.0703125 v -0.62109375 c -0.09375,0.0234375 -0.210938,0.0351563 -0.351563,0.0351563 -0.328125,0 -0.410156,-0.09375 -0.410156,-0.421875 V -4.0896641 h 0.761719 z m 4.813476,2.6015625 c 0,-0.7148437 -0.04687,-1.1484375 -0.1875,-1.5 -0.304687,-0.7734375 -1.019531,-1.2304687 -1.898437,-1.2304687 -1.300782,0 -2.144532,0.9960937 -2.144532,2.5429687 0,1.54687504 0.808594,2.49609379 2.132813,2.49609379 1.066406,0 1.816406,-0.609375 2.003906,-1.64062499 h -0.75 c -0.210937,0.62109374 -0.632812,0.94921874 -1.230469,0.94921874 -0.480468,0 -0.878906,-0.22265625 -1.125,-0.60937504 -0.1875,-0.2695312 -0.246093,-0.5390625 -0.257812,-1.0078125 z m -3.433594,-0.609375 c 0.05859,-0.8671875 0.585938,-1.4296875 1.335938,-1.4296875 0.738281,0 1.300781,0.609375 1.300781,1.3710938 0,0.023437 0,0.035156 0,0.058594 z m 8.044922,-0.4101562 c -0.03516,-0.4570313 -0.128906,-0.75 -0.304687,-1.0195313 -0.328125,-0.4335937 -0.890625,-0.6914062 -1.546875,-0.6914062 -1.265625,0 -2.085938,0.9960937 -2.085938,2.5546875 0,1.52343749 0.808594,2.48437499 2.074219,2.48437499 1.125,0 1.828125,-0.6796875 1.921875,-1.82812499 h -0.75 c -0.128906,0.76171874 -0.515625,1.13671874 -1.148437,1.13671874 -0.832032,0 -1.324219,-0.67968754 -1.324219,-1.79296874 0,-1.171875 0.492187,-1.8632813 1.300781,-1.8632813 0.632813,0 1.019531,0.3632813 1.113281,1.0195313 z m 2.53711,-1.5820313 h -0.761719 v -1.2890625 h -0.75 v 1.2890625 h -0.632813 v 0.609375 h 0.632813 v 3.55078129 c 0,0.48046875 0.328125,0.75 0.902344,0.75 0.1875,0 0.363281,-0.0234375 0.609375,-0.0703125 v -0.62109375 c -0.09375,0.0234375 -0.210938,0.0351563 -0.351563,0.0351563 -0.328125,0 -0.410156,-0.09375 -0.410156,-0.421875 V -4.0896641 h 0.761719 z m 1.567382,0 h -0.75 V 1.796875e-4 h 0.75 z m 0,-1.8398437 H 45.55318 v 0.9492187 h 0.761718 z M 49.394,-4.8279453 c -1.3125,0 -2.109375,0.9375 -2.109375,2.5195312 0,1.57031254 0.785156,2.51953129 2.121094,2.51953129 1.3125,0 2.121094,-0.94921875 2.121094,-2.48437499 0,-1.6289063 -0.773438,-2.5546875 -2.132813,-2.5546875 z m 0.01172,0.6914062 c 0.84375,0 1.347656,0.6796875 1.347656,1.8515625 0,1.1015625 -0.527344,1.80468754 -1.347656,1.80468754 -0.832031,0 -1.347656,-0.69140624 -1.347656,-1.82812504 0,-1.1367187 0.515625,-1.828125 1.347656,-1.828125 z m 3.169922,-0.5625 V 1.796875e-4 h 0.75 V -2.5896641 c 0,-0.9609375 0.503906,-1.5820312 1.265625,-1.5820312 0.597656,0 0.972656,0.3515625 0.972656,0.9140625 V 1.796875e-4 h 0.75 V -3.5506016 c 0,-0.7734375 -0.585938,-1.2773437 -1.488281,-1.2773437 -0.703125,0 -1.148438,0.2695312 -1.570313,0.9140625 v -0.7851563 z m 0,0"
       style="fill:#000000;fill-opacity:1;fill-rule:nonzero;stroke:none"
       aria-label="DriftDetection"
       transform="matrix(1.3333333,0,0,1.3333333,177.64133,144.87867)" />
    <path
       id="path13"
       d="m -39.56863,0 h -68.83573 v -37.60374"
       style="fill:none;stroke:#4c4c4c;stroke-width:0.99628;stroke-linecap:butt;stroke-linejoin:miter;stroke-miterlimit:10;stroke-dasharray:none;stroke-opacity:1"
       transform="matrix(1.3333333,0,0,-1.3333333,215.59867,19.396)" />
    <path
       id="path14"
       d="M -2.78957,3.47087 C -2.27992,1.38832 -1.14423,0.40492 0,0 -1.14423,-0.40492 -2.27992,-1.38832 -2.78957,-3.47087"
       style="fill:none;stroke:#4c4c4c;stroke-width:0.99628;stroke-linecap:round;stroke-linejoin:round;stroke-miterlimit:10;stroke-dasharray:none;stroke-opacity:1"
       transform="matrix(0,1.3333333,1.3333333,0,71.05952,70.198507)" />
    <path
       id="path15"
       d="m 39.56863,0 h 72.35041 v -37.60374"
       style="fill:none;stroke:#4c4c4c;stroke-width:0.99628;stroke-linecap:butt;stroke-linejoin:miter;stroke-miterlimit:10;stroke-dasharray:none;stroke-opacity:1"
       transform="matrix(1.3333333,0,0,-1.3333333,215.59867,19.396)" />
    <path
       id="path16"
       d="M -2.78957,3.47087 C -2.27992,1.38832 -1.14423,0.40492 0,0 -1.14423,-0.40492 -2.27992,-1.38832 -2.78957,-3.47087"
       style="fill:none;stroke:#4c4c4c;stroke-width:0.99628;stroke-linecap:round;stroke-linejoin:round;stroke-miterlimit:10;stroke-dasharray:none;stroke-opacity:1"
       transform="matrix(0,1.3333333,1.3333333,0,364.82405,70.198507)" />
    <path
       id="path17"
       d="m -108.40436,-67.69402 v -17.72003 h 62.3655"
       style="fill:none;stroke:#4c4c4c;stroke-width:0.99628;stroke-linecap:butt;stroke-linejoin:miter;stroke-miterlimit:10;stroke-dasharray:none;stroke-opacity:1"
       transform="matrix(1.3333333,0,0,-1.3333333,215.59867,19.396)" />
    <path
       id="path18"
       d="M -2.78957,3.47087 C -2.27992,1.38832 -1.14423,0.40492 0,0 -1.14423,-0.40492 -2.27992,-1.38832 -2.78957,-3.47087"
       style="fill:none;stroke:#4c4c4c;stroke-width:0.99628;stroke-linecap:round;stroke-linejoin:round;stroke-miterlimit:10;stroke-dasharray:none;stroke-opacity:1"
       transform="matrix(1.3333333,0,0,-1.3333333,154.87769,133.2814)" />
    <path
       id="path19"
       d="m 3.2936406,-2.5080234 c -0.140625,-0.796875 -0.5976562,-1.1835938 -1.3945312,-1.1835938 -0.4921875,0 -0.8789063,0.1523438 -1.14843752,0.4570313 -0.328125,0.3515625 -0.515625,0.8789062 -0.515625,1.4648437 0,0.5976563 0.1875,1.10156251 0.52734375,1.46484376 0.28124997,0.28125 0.64453127,0.421875 1.11328127,0.421875 0.890625,0 1.3828125,-0.48046875 1.5,-1.44140626 H 2.8952031 c -0.035156,0.2460938 -0.09375,0.42187501 -0.1640625,0.56250001 -0.1523437,0.29296875 -0.4570312,0.46875 -0.84375,0.46875 -0.7265625,0 -1.18359372,-0.57421875 -1.18359372,-1.48828121 0,-0.9257813 0.43359372,-1.5 1.13671872,-1.5 0.2929688,0 0.5742188,0.09375 0.7148438,0.2226562 0.140625,0.1289063 0.2109375,0.28125 0.2695312,0.5507813 z m 1.6611328,-0.1757813 c -0.7382812,0 -1.1835937,0.5273438 -1.1835937,1.3945313 0,0.87890621 0.4453125,1.40624996 1.1835937,1.40624996 0.7382813,0 1.1835938,-0.52734375 1.1835938,-1.38281246 0,-0.9023438 -0.4335938,-1.4179688 -1.1835938,-1.4179688 z m 0,0.3867188 c 0.46875,0 0.75,0.375 0.75,1.03125 0,0.60937496 -0.2929687,0.99609371 -0.75,0.99609371 -0.4570312,0 -0.75,-0.38671875 -0.75,-1.01953121 0,-0.6210938 0.2929688,-1.0078125 0.75,-1.0078125 z M 6.7184453,-2.6134922 V -2.109375e-4 H 7.1286016 V -1.4416172 c 0,-0.5273437 0.28125,-0.8789062 0.7148437,-0.8789062 0.328125,0 0.5390625,0.1992187 0.5390625,0.515625 V -2.109375e-4 H 8.7926641 V -1.9689609 c 0,-0.4335938 -0.328125,-0.7148438 -0.8320313,-0.7148438 -0.3867187,0 -0.6328125,0.1523438 -0.8671875,0.515625 v -0.4453125 z m 3.6708987,0 H 9.95575 v -0.4101562 c 0,-0.1640625 0.105469,-0.2578125 0.292969,-0.2578125 0.03516,0 0.04687,0 0.140625,0 v -0.3398438 c -0.09375,-0.023437 -0.152344,-0.023437 -0.234375,-0.023437 -0.386719,0 -0.6093752,0.2226563 -0.6093752,0.5859375 v 0.4453125 H 9.1940313 v 0.3398438 H 9.5455938 V -2.109375e-4 H 9.95575 V -2.2736484 h 0.433594 z m 0.914062,0 H 10.89325 v 2.6132812625 h 0.410156 z m 0,-1.0195312 H 10.89325 v 0.5273437 h 0.410156 z m 2.783203,0 h -0.410156 v 1.3476562 c -0.175781,-0.2578125 -0.457031,-0.3984375 -0.796875,-0.3984375 -0.679687,0 -1.125,0.5390625 -1.125,1.3710938 0,0.87890621 0.433594,1.42968746 1.136719,1.42968746 0.363281,0 0.609375,-0.140625 0.832031,-0.45703125 v 0.3398437525 h 0.363281 z m -1.136718,1.3359375 c 0.445312,0 0.726562,0.3984375 0.726562,1.0195312 0,0.60937501 -0.292969,1.00781251 -0.726562,1.00781251 -0.457032,0 -0.761719,-0.41015625 -0.761719,-1.01953121 0,-0.609375 0.304687,-1.0078125 0.761719,-1.0078125 z m 4.001953,1.1367187 c 0,-0.3984375 -0.03516,-0.6445312 -0.105469,-0.8320312 -0.164062,-0.4335938 -0.5625,-0.6914063 -1.054687,-0.6914063 -0.726563,0 -1.195313,0.5625 -1.195313,1.4179688 0,0.85546871 0.457031,1.38281246 1.183594,1.38281246 0.597656,0 1.007812,-0.33984375 1.113281,-0.9140625 h -0.410156 c -0.117188,0.3515625 -0.351563,0.52734375 -0.691406,0.52734375 -0.257813,0 -0.480469,-0.1171875 -0.621094,-0.33984375 -0.105469,-0.15234375 -0.140625,-0.29296875 -0.140625,-0.55078126 z m -1.910156,-0.3398437 c 0.03516,-0.4921875 0.328125,-0.796875 0.75,-0.796875 0.398437,0 0.714843,0.3398437 0.714843,0.7617187 0,0.011719 0,0.023437 0,0.035156 z m 2.475585,-1.1132813 V -2.109375e-4 H 17.92743 V -1.4416172 c 0,-0.5273437 0.28125,-0.8789062 0.714843,-0.8789062 0.328125,0 0.539063,0.1992187 0.539063,0.515625 v 1.8046874625 h 0.410156 V -1.9689609 c 0,-0.4335938 -0.328125,-0.7148438 -0.832031,-0.7148438 -0.386719,0 -0.632813,0.1523438 -0.867188,0.515625 v -0.4453125 z m 4.760743,0.8789063 c -0.02344,-0.2578125 -0.07031,-0.421875 -0.175782,-0.5625 -0.175781,-0.2460938 -0.492187,-0.3867188 -0.855468,-0.3867188 -0.703125,0 -1.160157,0.5625 -1.160157,1.4179688 0,0.84374996 0.445313,1.38281246 1.160157,1.38281246 0.621093,0 1.007812,-0.375 1.066406,-1.01953125 h -0.421875 c -0.07031,0.421875 -0.28125,0.6328125 -0.632813,0.6328125 -0.457031,0 -0.738281,-0.375 -0.738281,-0.99609371 0,-0.6445313 0.269531,-1.03125 0.726563,-1.03125 0.351562,0 0.5625,0.1992187 0.609375,0.5625 z m 2.701172,0.5742187 c 0,-0.3984375 -0.03516,-0.6445312 -0.105469,-0.8320312 -0.164063,-0.4335938 -0.5625,-0.6914063 -1.054688,-0.6914063 -0.726562,0 -1.195312,0.5625 -1.195312,1.4179688 0,0.85546871 0.457031,1.38281246 1.183594,1.38281246 0.597656,0 1.007812,-0.33984375 1.113281,-0.9140625 h -0.410156 c -0.117188,0.3515625 -0.351563,0.52734375 -0.691407,0.52734375 -0.257812,0 -0.480468,-0.1171875 -0.621093,-0.33984375 -0.105469,-0.15234375 -0.140625,-0.29296875 -0.140625,-0.55078126 z m -1.910157,-0.3398437 c 0.03516,-0.4921875 0.328125,-0.796875 0.75,-0.796875 0.398438,0 0.714844,0.3398437 0.714844,0.7617187 0,0.011719 0,0.023437 0,0.035156 z m 0,0"
       style="fill:#000000;fill-opacity:1;fill-rule:nonzero;stroke:none"
       aria-label="Confdence"
       transform="matrix(1.3333333,0,0,1.3333333,8.8506667,125.012)" />
    <path
       id="path20"
       d="m 4.8503594,-3.4455234 c 0,0 0,-0.070312 -0.070312,-0.070312 -0.035156,0 -0.035156,0.011719 -0.09375,0.058594 l -0.3515625,0.3515625 c -0.011719,0.011719 -0.046875,0.046875 -0.046875,0.046875 -0.011719,0 -0.023437,-0.023437 -0.035156,-0.023437 -0.09375,-0.1054687 -0.3984375,-0.4335937 -1.0546875,-0.4335937 -1.3710937,0 -2.62499997,1.078125 -2.62499997,2.1679687 0,0.80859376 0.69140627,1.45312501 1.75781247,1.45312501 0.5039063,0 0.9492188,-0.1640625 1.2539063,-0.36328125 0.6328125,-0.41015625 0.7148437,-0.93749996 0.7148437,-0.94921876 0,-0.070312 -0.070312,-0.070312 -0.1054687,-0.070312 -0.058594,0 -0.082031,0.011719 -0.1054688,0.070312 -0.234375,0.78515626 -1.0664062,1.08984376 -1.6289062,1.08984376 -0.5859375,0 -1.3359375,-0.24609375 -1.3359375,-1.11328126 0,-0.5625 0.2929687,-1.1367187 0.609375,-1.4414062 0.5742187,-0.5507813 1.2304687,-0.6210938 1.546875,-0.6210938 0.6328125,0 1.03125,0.421875 1.03125,0.9960938 0,0.1054687 0,0.1289062 0,0.1640625 0,0.070312 0.070312,0.070312 0.1054687,0.070312 0.09375,0 0.09375,-0.011719 0.1289063,-0.1054688 z m 0,0"
       style="fill:#000000;fill-opacity:1;fill-rule:nonzero;stroke:none"
       aria-label="C"
       transform="matrix(1.3333333,0,0,1.3333333,44.290667,125.012)" />
    <path
       id="path21"
       d="M 0.27021875,-3.6320391 V 7.734375e-4 h 0.375 V -0.32735156 c 0.19921875,0.29296875 0.45703125,0.4453125 0.82031255,0.4453125 0.6914062,0 1.1367187,-0.5625 1.1367187,-1.42968754 0,-0.84375 -0.421875,-1.3710937 -1.1132812,-1.3710937 -0.3632813,0 -0.60937505,0.1289062 -0.8085938,0.421875 v -1.3710938 z m 1.13671875,1.3359375 c 0.46875,0 0.7617188,0.3984375 0.7617188,1.03125 0,0.58593754 -0.3046875,0.99609379 -0.7617188,0.99609379 -0.43359375,0 -0.7265625,-0.3984375 -0.7265625,-1.01953129 0,-0.609375 0.29296875,-1.0078125 0.7265625,-1.0078125 z m 4.0224609,2.05078129 c -0.035156,0.0117188 -0.058594,0.0117188 -0.082031,0.0117188 -0.1523438,0 -0.2226563,-0.0703125 -0.2226563,-0.19921875 V -1.9679766 c 0,-0.46875 -0.3398437,-0.7148437 -0.984375,-0.7148437 -0.375,0 -0.6914062,0.1054687 -0.8671875,0.3046875 -0.1171875,0.1289062 -0.1757812,0.28125 -0.1757812,0.5390625 h 0.4101562 c 0.035156,-0.3164063 0.2226563,-0.4570313 0.6210938,-0.4570313 0.3632812,0 0.5742187,0.140625 0.5742187,0.3867188 v 0.1054687 c 0,0.1757813 -0.1054687,0.2460938 -0.4335937,0.2929688 -0.5859375,0.070312 -0.6679688,0.09375 -0.8320313,0.1523437 -0.3046875,0.1289063 -0.4570312,0.36328129 -0.4570312,0.70312504 0,0.46875 0.328125,0.7734375 0.8554687,0.7734375 0.328125,0 0.5976563,-0.1171875025 0.890625,-0.38671875 0.023437,0.2695312475 0.1523438,0.38671875 0.421875,0.38671875 0.082031,0 0.1523438,-0.0117188 0.28125,-0.046875 z M 4.7028359,-0.81953906 c 0,0.140625 -0.035156,0.22265625 -0.1640625,0.33984375 -0.1640625,0.15234375 -0.375,0.234375 -0.609375,0.234375 -0.328125,0 -0.515625,-0.15234375 -0.515625,-0.421875 0,-0.26953125 0.1875,-0.41015629 0.6210938,-0.48046879 0.4453125,-0.058594 0.5273437,-0.082031 0.6679687,-0.140625 z M 7.7174844,-1.8859453 c 0,-0.5039063 -0.3398438,-0.796875 -0.9492188,-0.796875 -0.5976562,0 -0.9960937,0.3164062 -0.9960937,0.796875 0,0.4101562 0.2109375,0.5976562 0.8320312,0.75 l 0.3867188,0.09375 c 0.28125,0.0703125 0.3984375,0.17578124 0.3984375,0.36328124 0,0.24609375 -0.2460938,0.41015625 -0.609375,0.41015625 -0.2226563,0 -0.4101563,-0.0585938 -0.515625,-0.17578125 -0.058594,-0.0703125 -0.09375,-0.15234375 -0.1171875,-0.328125 H 5.7018594 c 0.023437,0.59765625 0.3632812,0.890625 1.0429687,0.890625 0.65625,0 1.078125,-0.328125 1.078125,-0.83203125 0,-0.38671879 -0.2226562,-0.59765629 -0.7382812,-0.72656249 l -0.3984375,-0.09375 c -0.3398438,-0.082031 -0.4804688,-0.1875 -0.4804688,-0.375 0,-0.234375 0.2109375,-0.3867188 0.5507813,-0.3867188 0.3398437,0 0.515625,0.140625 0.5273437,0.4101563 z m 2.8681636,0.7265625 c 0,-0.3984375 -0.03516,-0.6445313 -0.105468,-0.8320313 -0.164063,-0.4335937 -0.5625003,-0.6914062 -1.0546878,-0.6914062 -0.7265625,0 -1.1953125,0.5625 -1.1953125,1.4179687 0,0.85546879 0.4570312,1.38281254 1.1835937,1.38281254 0.5976566,0 1.0078126,-0.33984375 1.1132816,-0.9140625 h -0.410157 c -0.1171871,0.3515625 -0.3515621,0.52734375 -0.6914058,0.52734375 -0.2578125,0 -0.4804688,-0.1171875 -0.6210938,-0.33984375 C 8.6989297,-0.76094531 8.6637734,-0.90157031 8.6637734,-1.1593828 Z M 8.6754922,-1.4992266 c 0.035156,-0.4921875 0.328125,-0.796875 0.75,-0.796875 0.3984375,0 0.7148438,0.3398438 0.7148438,0.7617188 0,0.011719 0,0.023437 0,0.035156 z m 0,0"
       style="fill:#000000;fill-opacity:1;fill-rule:nonzero;stroke:none"
       aria-label="base"
       transform="matrix(1.3333333,0,0,1.3333333,50.905333,127.456)" />
    <path
       id="path22"
       d="M 111.91904,-67.69402 V -85.41405 H 46.03886"
       style="fill:none;stroke:#4c4c4c;stroke-width:0.99628;stroke-linecap:butt;stroke-linejoin:miter;stroke-miterlimit:10;stroke-dasharray:none;stroke-opacity:1"
       transform="matrix(1.3333333,0,0,-1.3333333,215.59867,19.396)" />
    <path
       id="path23"
       d="M -2.78957,3.47087 C -2.27992,1.38832 -1.14423,0.40492 0,0 -1.14423,-0.40492 -2.27992,-1.38832 -2.78957,-3.47087"
       style="fill:none;stroke:#4c4c4c;stroke-width:0.99628;stroke-linecap:round;stroke-linejoin:round;stroke-miterlimit:10;stroke-dasharray:none;stroke-opacity:1"
       transform="matrix(-1.3333333,0,0,1.3333333,276.31964,133.2814)" />
    <path
       id="path24"
       d="m 3.2935156,-2.5080234 c -0.140625,-0.796875 -0.5976562,-1.1835938 -1.3945312,-1.1835938 -0.4921875,0 -0.8789063,0.1523438 -1.14843752,0.4570313 -0.328125,0.3515625 -0.515625,0.8789062 -0.515625,1.4648437 0,0.5976563 0.1875,1.10156251 0.52734375,1.46484376 0.28124997,0.28125 0.64453127,0.421875 1.11328127,0.421875 0.890625,0 1.3828125,-0.48046875 1.5,-1.44140626 H 2.8950781 c -0.035156,0.2460938 -0.09375,0.42187501 -0.1640625,0.56250001 -0.1523437,0.29296875 -0.4570312,0.46875 -0.84375,0.46875 -0.7265625,0 -1.18359372,-0.57421875 -1.18359372,-1.48828121 0,-0.9257813 0.43359372,-1.5 1.13671872,-1.5 0.2929688,0 0.5742188,0.09375 0.7148438,0.2226562 0.140625,0.1289063 0.2109375,0.28125 0.2695312,0.5507813 z m 1.6611328,-0.1757813 c -0.7382812,0 -1.1835937,0.5273438 -1.1835937,1.3945313 0,0.87890621 0.4453125,1.40624996 1.1835937,1.40624996 0.7382813,0 1.1835938,-0.52734375 1.1835938,-1.38281246 0,-0.9023438 -0.4335938,-1.4179688 -1.1835938,-1.4179688 z m 0,0.3867188 c 0.46875,0 0.75,0.375 0.75,1.03125 0,0.60937496 -0.2929687,0.99609371 -0.75,0.99609371 -0.4570312,0 -0.75,-0.38671875 -0.75,-1.01953121 0,-0.6210938 0.2929688,-1.0078125 0.75,-1.0078125 z M 6.7183203,-2.6134922 V -2.109375e-4 H 7.1284766 V -1.4416172 c 0,-0.5273437 0.28125,-0.8789062 0.7148437,-0.8789062 0.328125,0 0.5390625,0.1992187 0.5390625,0.515625 V -2.109375e-4 H 8.7925391 V -1.9689609 c 0,-0.4335938 -0.328125,-0.7148438 -0.8320313,-0.7148438 -0.3867187,0 -0.6328125,0.1523438 -0.8671875,0.515625 v -0.4453125 z m 3.6708987,0 H 9.955625 v -0.4101562 c 0,-0.1640625 0.105469,-0.2578125 0.292969,-0.2578125 0.03516,0 0.04687,0 0.140625,0 v -0.3398438 c -0.09375,-0.023437 -0.152344,-0.023437 -0.234375,-0.023437 -0.386719,0 -0.6093752,0.2226563 -0.6093752,0.5859375 v 0.4453125 H 9.1939063 v 0.3398438 H 9.5454688 V -2.109375e-4 H 9.955625 V -2.2736484 h 0.433594 z m 0.914062,0 h -0.410156 v 2.6132812625 h 0.410156 z m 0,-1.0195312 h -0.410156 v 0.5273437 h 0.410156 z m 2.783203,0 h -0.410156 v 1.3476562 c -0.175781,-0.2578125 -0.457031,-0.3984375 -0.796875,-0.3984375 -0.679687,0 -1.125,0.5390625 -1.125,1.3710938 0,0.87890621 0.433594,1.42968746 1.136719,1.42968746 0.363281,0 0.609375,-0.140625 0.832031,-0.45703125 v 0.3398437525 h 0.363281 z m -1.136718,1.3359375 c 0.445312,0 0.726562,0.3984375 0.726562,1.0195312 0,0.60937501 -0.292969,1.00781251 -0.726562,1.00781251 -0.457032,0 -0.761719,-0.41015625 -0.761719,-1.01953121 0,-0.609375 0.304687,-1.0078125 0.761719,-1.0078125 z m 4.001953,1.1367187 c 0,-0.3984375 -0.03516,-0.6445312 -0.105469,-0.8320312 -0.164062,-0.4335938 -0.5625,-0.6914063 -1.054687,-0.6914063 -0.726563,0 -1.195313,0.5625 -1.195313,1.4179688 0,0.85546871 0.457031,1.38281246 1.183594,1.38281246 0.597656,0 1.007812,-0.33984375 1.113281,-0.9140625 h -0.410156 c -0.117188,0.3515625 -0.351563,0.52734375 -0.691406,0.52734375 -0.257813,0 -0.480469,-0.1171875 -0.621094,-0.33984375 C 15.065,-0.76192969 15.029844,-0.90255469 15.029844,-1.1603672 Z m -1.910156,-0.3398437 c 0.03516,-0.4921875 0.328125,-0.796875 0.75,-0.796875 0.398437,0 0.714843,0.3398437 0.714843,0.7617187 0,0.011719 0,0.023437 0,0.035156 z m 2.475585,-1.1132813 v 2.6132812625 h 0.410157 V -1.4416172 c 0,-0.5273437 0.28125,-0.8789062 0.714843,-0.8789062 0.328125,0 0.539063,0.1992187 0.539063,0.515625 v 1.8046874625 h 0.410156 V -1.9689609 c 0,-0.4335938 -0.328125,-0.7148438 -0.832031,-0.7148438 -0.386719,0 -0.632813,0.1523438 -0.867188,0.515625 v -0.4453125 z m 4.760743,0.8789063 c -0.02344,-0.2578125 -0.07031,-0.421875 -0.175782,-0.5625 -0.175781,-0.2460938 -0.492187,-0.3867188 -0.855468,-0.3867188 -0.703125,0 -1.160157,0.5625 -1.160157,1.4179688 0,0.84374996 0.445313,1.38281246 1.160157,1.38281246 0.621093,0 1.007812,-0.375 1.066406,-1.01953125 h -0.421875 c -0.07031,0.421875 -0.28125,0.6328125 -0.632813,0.6328125 -0.457031,0 -0.738281,-0.375 -0.738281,-0.99609371 0,-0.6445313 0.269531,-1.03125 0.726563,-1.03125 0.351562,0 0.5625,0.1992187 0.609375,0.5625 z m 2.704101,0.5742187 c 0,-0.3984375 -0.03516,-0.6445312 -0.105469,-0.8320312 -0.164062,-0.4335938 -0.5625,-0.6914063 -1.054687,-0.6914063 -0.726563,0 -1.195313,0.5625 -1.195313,1.4179688 0,0.85546871 0.457032,1.38281246 1.183594,1.38281246 0.597656,0 1.007813,-0.33984375 1.113281,-0.9140625 h -0.410156 c -0.117187,0.3515625 -0.351562,0.52734375 -0.691406,0.52734375 -0.257813,0 -0.480469,-0.1171875 -0.621094,-0.33984375 -0.105469,-0.15234375 -0.140625,-0.29296875 -0.140625,-0.55078126 z m -1.910156,-0.3398437 c 0.03516,-0.4921875 0.328125,-0.796875 0.75,-0.796875 0.398437,0 0.714844,0.3398437 0.714844,0.7617187 0,0.011719 0,0.023437 0,0.035156 z m 0,0"
       style="fill:#000000;fill-opacity:1;fill-rule:nonzero;stroke:none"
       aria-label="Confdence"
       transform="matrix(1.3333333,0,0,1.3333333,369.91333,125.012)" />
    <path
       id="path25"
       d="m 4.8502344,-3.4455234 c 0,0 0,-0.070312 -0.070312,-0.070312 -0.035156,0 -0.035156,0.011719 -0.09375,0.058594 l -0.3515625,0.3515625 c -0.011719,0.011719 -0.046875,0.046875 -0.046875,0.046875 -0.011719,0 -0.023437,-0.023437 -0.035156,-0.023437 -0.09375,-0.1054687 -0.3984375,-0.4335937 -1.0546875,-0.4335937 -1.3710937,0 -2.62499997,1.078125 -2.62499997,2.1679687 0,0.80859376 0.69140627,1.45312501 1.75781247,1.45312501 0.5039063,0 0.9492188,-0.1640625 1.2539063,-0.36328125 0.6328125,-0.41015625 0.7148437,-0.93749996 0.7148437,-0.94921876 0,-0.070312 -0.070312,-0.070312 -0.1054687,-0.070312 -0.058594,0 -0.082031,0.011719 -0.1054688,0.070312 -0.234375,0.78515626 -1.0664062,1.08984376 -1.6289062,1.08984376 -0.5859375,0 -1.3359375,-0.24609375 -1.3359375,-1.11328126 0,-0.5625 0.2929687,-1.1367187 0.609375,-1.4414062 0.5742187,-0.5507813 1.2304687,-0.6210938 1.546875,-0.6210938 0.6328125,0 1.03125,0.421875 1.03125,0.9960938 0,0.1054687 0,0.1289062 0,0.1640625 0,0.070312 0.070312,0.070312 0.1054687,0.070312 0.09375,0 0.09375,-0.011719 0.1289063,-0.1054688 z m 0,0"
       style="fill:#000000;fill-opacity:1;fill-rule:nonzero;stroke:none"
       aria-label="C"
       transform="matrix(1.3333333,0,0,1.3333333,405.35333,125.012)" />
    <path
       id="path26"
       d="m 0.76228125,-3.6320391 h -0.421875 V 7.734375e-4 h 0.421875 z m 1.70214845,0.9492188 c -0.7382813,0 -1.1835938,0.5273437 -1.1835938,1.3945312 0,0.87890629 0.4453125,1.40625004 1.1835938,1.40625004 0.7382812,0 1.1835937,-0.52734375 1.1835937,-1.38281254 0,-0.9023437 -0.4335937,-1.4179687 -1.1835937,-1.4179687 z m 0,0.3867187 c 0.46875,0 0.75,0.375 0.75,1.03125 0,0.60937504 -0.2929688,0.99609379 -0.75,0.99609379 -0.4570313,0 -0.75,-0.38671875 -0.75,-1.01953129 0,-0.6210937 0.2929687,-1.0078125 0.75,-1.0078125 z m 3.7558594,0.5625 c -0.023437,-0.2578125 -0.070312,-0.421875 -0.1757813,-0.5625 -0.1757812,-0.2460937 -0.4921875,-0.3867187 -0.8554687,-0.3867187 -0.703125,0 -1.1601563,0.5625 -1.1601563,1.4179687 0,0.84375004 0.4453125,1.38281254 1.1601563,1.38281254 0.6210937,0 1.0078125,-0.375 1.0664062,-1.01953125 h -0.421875 c -0.070312,0.421875 -0.28125,0.6328125 -0.6328125,0.6328125 -0.4570312,0 -0.7382812,-0.375 -0.7382812,-0.99609379 0,-0.6445312 0.2695312,-1.03125 0.7265625,-1.03125 0.3515625,0 0.5625,0.1992188 0.609375,0.5625 z m 2.8066406,1.48828129 c -0.035156,0.0117188 -0.058594,0.0117188 -0.082031,0.0117188 -0.1523437,0 -0.2226562,-0.0703125 -0.2226562,-0.19921875 V -1.9679766 c 0,-0.46875 -0.3398438,-0.7148437 -0.984375,-0.7148437 -0.375,0 -0.6914063,0.1054687 -0.8671875,0.3046875 -0.1171875,0.1289062 -0.1757813,0.28125 -0.1757813,0.5390625 H 7.105055 c 0.035156,-0.3164063 0.2226562,-0.4570313 0.6210937,-0.4570313 0.3632813,0 0.5742188,0.140625 0.5742188,0.3867188 v 0.1054687 c 0,0.1757813 -0.1054688,0.2460938 -0.4335938,0.2929688 -0.5859375,0.070312 -0.6679687,0.09375 -0.8320312,0.1523437 -0.3046875,0.1289063 -0.4570313,0.36328129 -0.4570313,0.70312504 0,0.46875 0.328125,0.7734375 0.8554688,0.7734375 0.328125,0 0.5976562,-0.1171875025 0.890625,-0.38671875 0.023437,0.2695312475 0.1523437,0.38671875 0.421875,0.38671875 0.082031,0 0.1523437,-0.0117188 0.28125,-0.046875 z M 8.3003672,-0.81953906 c 0,0.140625 -0.035156,0.22265625 -0.1640625,0.33984375 -0.1640625,0.15234375 -0.375,0.234375 -0.609375,0.234375 -0.328125,0 -0.515625,-0.15234375 -0.515625,-0.421875 0,-0.26953125 0.1875,-0.41015629 0.6210937,-0.48046879 0.4453125,-0.058594 0.5273438,-0.082031 0.6679688,-0.140625 z M 9.8970469,-3.6320391 H 9.4751719 V 7.734375e-4 h 0.421875 z m 0,0"
       style="fill:#000000;fill-opacity:1;fill-rule:nonzero;stroke:none"
       aria-label="local"
       transform="matrix(1.3333333,0,0,1.3333333,411.968,127.456)" />
    <path
       id="path27"
       d="M 0.96228125,-3.6338359 H 0.50525 v 3.63281246 H 0.96228125 Z M 2.6732188,-2.6143047 H 2.239625 v -0.4101562 c 0,-0.1640625 0.09375,-0.2578125 0.28125,-0.2578125 0.035156,0 0.058594,0 0.1523438,0 v -0.3398438 c -0.09375,-0.023437 -0.1523438,-0.023437 -0.234375,-0.023437 -0.3867188,0 -0.6210938,0.2226563 -0.6210938,0.5859375 v 0.4453125 H 1.4779063 v 0.3398438 H 1.81775 v 2.27343746 H 2.239625 V -2.2744609 h 0.4335938 z m 0,0"
       style="fill:#000000;fill-opacity:1;fill-rule:nonzero;stroke:none"
       aria-label="If"
       transform="matrix(1.3333333,0,0,1.3333333,325.70133,131.66933)" />
    <path
       id="path28"
       d="m 4.8502734,-3.4463359 c 0,0 0,-0.070312 -0.070312,-0.070312 -0.035156,0 -0.035156,0.011719 -0.09375,0.058594 l -0.3515625,0.3515625 c -0.011719,0.011719 -0.046875,0.046875 -0.046875,0.046875 -0.011719,0 -0.023437,-0.023437 -0.035156,-0.023437 -0.09375,-0.1054687 -0.3984375,-0.4335937 -1.0546875,-0.4335937 -1.3710938,0 -2.62500001,1.078125 -2.62500001,2.1679687 0,0.80859376 0.69140621,1.45312501 1.75781251,1.45312501 0.5039062,0 0.9492187,-0.1640625 1.2539062,-0.36328125 0.6328125,-0.41015625 0.7148438,-0.93749996 0.7148438,-0.94921876 0,-0.070312 -0.070312,-0.070312 -0.1054688,-0.070312 -0.058594,0 -0.082031,0.011719 -0.1054687,0.070312 -0.234375,0.78515626 -1.0664063,1.08984376 -1.6289063,1.08984376 -0.5859375,0 -1.3359375,-0.24609375 -1.3359375,-1.11328126 0,-0.5625 0.2929688,-1.1367187 0.609375,-1.4414062 0.5742188,-0.5507813 1.2304688,-0.6210938 1.546875,-0.6210938 0.6328125,0 1.03125,0.421875 1.03125,0.9960938 0,0.1054687 0,0.1289062 0,0.1640625 0,0.070312 0.070312,0.070312 0.1054688,0.070312 0.09375,0 0.09375,-0.011719 0.1289062,-0.1054688 z m 0,0"
       style="fill:#000000;fill-opacity:1;fill-rule:nonzero;stroke:none"
       aria-label="C"
       transform="matrix(1.3333333,0,0,1.3333333,331.24,131.66933)" />
    <path
       id="path29"
       d="m 0.76132031,-3.6338516 h -0.421875 v 3.63281254 h 0.421875 z m 1.70507809,0.9492188 c -0.7382812,0 -1.1835937,0.5273437 -1.1835937,1.3945312 0,0.87890629 0.4453125,1.40625004 1.1835937,1.40625004 0.7382813,0 1.1835938,-0.52734375 1.1835938,-1.38281254 0,-0.9023437 -0.4335938,-1.4179687 -1.1835938,-1.4179687 z m 0,0.3867187 c 0.46875,0 0.75,0.375 0.75,1.03125 0,0.60937504 -0.2929687,0.99609379 -0.75,0.99609379 -0.4570312,0 -0.75,-0.38671875 -0.75,-1.01953129 0,-0.6210937 0.2929688,-1.0078125 0.75,-1.0078125 z m 3.7529297,0.5625 c -0.023437,-0.2578125 -0.070312,-0.421875 -0.1757812,-0.5625 -0.1757813,-0.2460937 -0.4921875,-0.3867187 -0.8554688,-0.3867187 -0.703125,0 -1.1601562,0.5625 -1.1601562,1.4179687 0,0.84375004 0.4453125,1.38281254 1.1601562,1.38281254 0.6210938,0 1.0078125,-0.375 1.0664063,-1.01953125 h -0.421875 c -0.070312,0.421875 -0.28125,0.6328125 -0.6328125,0.6328125 -0.4570313,0 -0.7382813,-0.375 -0.7382813,-0.99609379 0,-0.6445312 0.2695313,-1.03125 0.7265625,-1.03125 0.3515625,0 0.5625,0.1992188 0.609375,0.5625 z m 2.8066407,1.48828129 c -0.035156,0.0117188 -0.058594,0.0117188 -0.082031,0.0117188 -0.1523437,0 -0.2226562,-0.0703125 -0.2226562,-0.19921875 V -1.9697891 c 0,-0.46875 -0.3398438,-0.7148437 -0.984375,-0.7148437 -0.375,0 -0.6914063,0.1054687 -0.8671875,0.3046875 -0.1171875,0.1289062 -0.1757813,0.28125 -0.1757813,0.5390625 h 0.410156 C 7.13925,-2.1572891 7.32675,-2.2979141 7.7251875,-2.2979141 c 0.3632813,0 0.5742188,0.140625 0.5742188,0.3867188 v 0.1054687 c 0,0.1757813 -0.1054688,0.2460938 -0.4335938,0.2929688 -0.5859375,0.070312 -0.6679687,0.09375 -0.8320312,0.1523437 -0.3046875,0.1289063 -0.4570313,0.36328129 -0.4570313,0.70312504 0,0.46875 0.328125,0.7734375 0.8554688,0.7734375 0.328125,0 0.5976562,-0.1171875 0.890625,-0.38671875 0.023437,0.26953125 0.1523437,0.38671875 0.421875,0.38671875 0.082031,0 0.1523437,-0.0117188 0.28125,-0.046875 z M 8.2994063,-0.82135156 c 0,0.140625 -0.035156,0.22265625 -0.1640625,0.33984375 -0.1640625,0.15234375 -0.375,0.234375 -0.609375,0.234375 -0.328125,0 -0.515625,-0.15234375 -0.515625,-0.421875 0,-0.26953125 0.1875,-0.41015629 0.6210937,-0.48046879 0.4453125,-0.058594 0.5273438,-0.082031 0.6679688,-0.140625 z M 9.8960859,-3.6338516 h -0.421875 v 3.63281254 h 0.421875 z m 0,0"
       style="fill:#000000;fill-opacity:1;fill-rule:nonzero;stroke:none"
       aria-label="local"
       transform="matrix(1.3333333,0,0,1.3333333,337.856,134.11467)" />
    <path
       id="path30"
       d="m 4.48825,-2.7080547 c 0.058594,-0.035156 0.1054687,-0.070312 0.1054687,-0.1523437 0,-0.070312 -0.058594,-0.1289063 -0.140625,-0.1289063 -0.023437,0 -0.046875,0 -0.09375,0.023437 l -3.44531245,1.5703125 c -0.0703125,0.035156 -0.1171875,0.070312 -0.1171875,0.1523438 0,0.070312 0.046875,0.1171875 0.1171875,0.140625 L 4.347625,0.46772656 c 0.070312,0.0351563 0.09375,0.0351563 0.1054687,0.0351563 0.082031,0 0.140625,-0.0703125 0.140625,-0.140625 0,-0.0703125 -0.046875,-0.1171875 -0.1054687,-0.140625 L 1.2655937,-1.2432109 Z m 7.795898,-0.7382812 c 0,0 0,-0.070312 -0.07031,-0.070312 -0.03516,0 -0.03516,0.011719 -0.09375,0.058594 l -0.351563,0.3515625 c -0.01172,0.011719 -0.04687,0.046875 -0.04687,0.046875 -0.01172,0 -0.02344,-0.023437 -0.03516,-0.023437 -0.09375,-0.1054687 -0.398437,-0.4335937 -1.054687,-0.4335937 -1.3710941,0 -2.6250003,1.078125 -2.6250003,2.1679687 0,0.80859376 0.6914062,1.45312501 1.7578125,1.45312501 0.5039058,0 0.9492188,-0.1640625 1.2539058,-0.36328125 0.632813,-0.41015625 0.714844,-0.93749996 0.714844,-0.94921876 0,-0.070312 -0.07031,-0.070312 -0.105469,-0.070312 -0.05859,0 -0.08203,0.011719 -0.105468,0.070312 -0.234375,0.78515626 -1.066407,1.08984376 -1.6289066,1.08984376 -0.5859375,0 -1.3359375,-0.24609375 -1.3359375,-1.11328126 0,-0.5625 0.2929688,-1.1367187 0.609375,-1.4414062 0.5742188,-0.5507813 1.2304691,-0.6210938 1.5468751,-0.6210938 0.632812,0 1.03125,0.421875 1.03125,0.9960938 0,0.1054687 0,0.1289062 0,0.1640625 0,0.070312 0.07031,0.070312 0.105469,0.070312 0.09375,0 0.09375,-0.011719 0.128906,-0.1054688 z m 0,0"
       style="fill:#000000;fill-opacity:1;fill-rule:nonzero;stroke:none"
       aria-label="&lt;C"
       transform="matrix(1.3333333,0,0,1.3333333,354.89067,131.66933)" />
    <path
       id="path31"
       d="m 0.27000781,-3.6338516 v 3.63281254 h 0.375 v -0.328125 c 0.19921875,0.29296875 0.45703129,0.4453125 0.82031249,0.4453125 0.6914063,0 1.1367188,-0.5625 1.1367188,-1.42968754 0,-0.84375 -0.421875,-1.3710937 -1.1132813,-1.3710937 -0.3632812,0 -0.60937499,0.1289062 -0.80859374,0.421875 v -1.3710938 z m 1.13671879,1.3359375 c 0.46875,0 0.7617187,0.3984375 0.7617187,1.03125 0,0.58593754 -0.3046875,0.99609379 -0.7617187,0.99609379 -0.43359379,0 -0.72656254,-0.3984375 -0.72656254,-1.01953129 0,-0.609375 0.29296875,-1.0078125 0.72656254,-1.0078125 z m 4.0224609,2.05078129 c -0.035156,0.0117188 -0.058594,0.0117188 -0.082031,0.0117188 -0.1523438,0 -0.2226563,-0.0703125 -0.2226563,-0.19921875 V -1.9697891 c 0,-0.46875 -0.3398437,-0.7148437 -0.984375,-0.7148437 -0.375,0 -0.6914062,0.1054687 -0.8671875,0.3046875 -0.1171875,0.1289062 -0.1757812,0.28125 -0.1757812,0.5390625 h 0.4101562 c 0.035156,-0.3164063 0.2226563,-0.4570313 0.6210938,-0.4570313 0.3632812,0 0.5742187,0.140625 0.5742187,0.3867188 v 0.1054687 c 0,0.1757813 -0.1054687,0.2460938 -0.4335937,0.2929688 -0.5859375,0.070312 -0.6679688,0.09375 -0.8320313,0.1523437 -0.3046875,0.1289063 -0.4570312,0.36328129 -0.4570312,0.70312504 0,0.46875 0.328125,0.7734375 0.8554687,0.7734375 0.328125,0 0.5976563,-0.1171875 0.890625,-0.38671875 0.023437,0.26953125 0.1523438,0.38671875 0.421875,0.38671875 0.082031,0 0.1523438,-0.0117188 0.28125,-0.046875 z M 4.702625,-0.82135156 c 0,0.140625 -0.035156,0.22265625 -0.1640625,0.33984375 -0.1640625,0.15234375 -0.375,0.234375 -0.609375,0.234375 -0.328125,0 -0.515625,-0.15234375 -0.515625,-0.421875 0,-0.26953125 0.1875,-0.41015629 0.6210938,-0.48046879 C 4.4799688,-1.2080703 4.562,-1.2315078 4.702625,-1.2901016 Z M 7.7202031,-1.8877578 c 0,-0.5039063 -0.3398437,-0.796875 -0.9492187,-0.796875 -0.5976563,0 -0.9960938,0.3164062 -0.9960938,0.796875 0,0.4101562 0.2109375,0.5976562 0.8320313,0.75 l 0.3867187,0.09375 c 0.28125,0.0703125 0.3984375,0.17578124 0.3984375,0.36328124 0,0.24609375 -0.2460937,0.41015625 -0.609375,0.41015625 -0.2226562,0 -0.4101562,-0.0585938 -0.515625,-0.17578125 -0.058594,-0.0703125 -0.09375,-0.15234375 -0.1171875,-0.328125 H 5.7045781 c 0.023437,0.59765625 0.3632813,0.890625 1.0429688,0.890625 0.65625,0 1.078125,-0.328125 1.078125,-0.83203125 0,-0.38671879 -0.2226563,-0.59765629 -0.7382813,-0.72656249 l -0.3984375,-0.09375 c -0.3398437,-0.082031 -0.4804687,-0.1875 -0.4804687,-0.375 0,-0.234375 0.2109375,-0.3867188 0.5507812,-0.3867188 0.3398438,0 0.515625,0.140625 0.5273438,0.4101563 z m 2.8652349,0.7265625 c 0,-0.3984375 -0.03516,-0.6445313 -0.105469,-0.8320313 -0.164063,-0.4335937 -0.5625002,-0.6914062 -1.0546877,-0.6914062 -0.7265625,0 -1.1953125,0.5625 -1.1953125,1.4179687 0,0.85546879 0.4570312,1.38281254 1.1835937,1.38281254 0.5976565,0 1.0078125,-0.33984375 1.1132815,-0.9140625 h -0.410156 c -0.117188,0.3515625 -0.351563,0.52734375 -0.6914067,0.52734375 -0.2578125,0 -0.4804688,-0.1171875 -0.6210938,-0.33984375 C 8.6987188,-0.76275781 8.6635625,-0.90338281 8.6635625,-1.1611953 Z M 8.6752813,-1.5010391 c 0.035156,-0.4921875 0.328125,-0.796875 0.75,-0.796875 0.3984375,0 0.7148437,0.3398438 0.7148437,0.7617188 0,0.011719 0,0.023437 0,0.035156 z m 0,0"
       style="fill:#000000;fill-opacity:1;fill-rule:nonzero;stroke:none"
       aria-label="base"
       transform="matrix(1.3333333,0,0,1.3333333,371.41733,134.11467)" />
    <path
       id="path32"
       d="m 4.384,-1.1025859 c 0.082031,0 0.2109375,0 0.2109375,-0.140625 0,-0.140625 -0.1289062,-0.140625 -0.2109375,-0.140625 H 1.009 c -0.0820312,0 -0.2109375,0 -0.2109375,0.140625 0,0.140625 0.12890625,0.140625 0.2109375,0.140625 z m 0,0"
       style="fill:#000000;fill-opacity:1;fill-rule:nonzero;stroke:none"
       aria-label="−"
       transform="matrix(1.3333333,0,0,1.3333333,388.65467,131.66933)" />
    <path
       id="path33"
       d="m 4.4418828,-1.69875 c 0.070312,0 0.1875,0 0.1875,-0.140625 C 4.6293828,-1.98 4.4887578,-1.98 4.4184453,-1.98 H 0.70360156 c -0.0703125,0 -0.22265625,0 -0.22265625,0.140625 0,0.140625 0.12890625,0.140625 0.19921875,0.140625 z m -0.023437,1.18359375 c 0.070312,0 0.2109375,0 0.2109375,-0.140625 0,-0.140625 -0.1171875,-0.140625 -0.1875,-0.140625 H 0.68016406 c -0.0703125,0 -0.19921875,0 -0.19921875,0.140625 0,0.140625 0.15234375,0.140625 0.22265625,0.140625 z m 0,0"
       style="fill:#000000;fill-opacity:1;fill-rule:nonzero;stroke:none"
       aria-label="="
       transform="matrix(1.3333333,0,0,1.3333333,328.41733,139.64)" />
    <path
       id="path34"
       d="m 4.6630234,-1.69875 c 0.2460938,0.1992188 0.5390625,0.3515625 0.796875,0.4570313 -0.2460937,0.09375 -0.5273437,0.234375 -0.796875,0.44531245 H 0.83099219 c -0.0820313,0 -0.2109375,0 -0.2109375,0.140625 0,0.140625 0.15234375,0.140625 0.234375,0.140625 H 4.3466172 C 4.0770859,-0.2221875 3.8544297,0.129375 3.8544297,0.17625 c 0,0.0820313 0.09375,0.0820313 0.140625,0.0820313 0.070312,0 0.1054687,0 0.140625,-0.0585938 0.09375,-0.15234375 0.2578125,-0.43359375 0.5742187,-0.703125 0.5625,-0.4921875 1.078125,-0.5976562 1.3828125,-0.6679687 0.035156,0 0.058594,-0.046875 0.058594,-0.070312 0,-0.070312 -0.046875,-0.082031 -0.070312,-0.082031 -0.7617188,-0.1523437 -1.4296875,-0.5039062 -1.9453125,-1.3710937 -0.035156,-0.058594 -0.082031,-0.058594 -0.140625,-0.058594 -0.046875,0 -0.140625,0 -0.140625,0.09375 0,0.035156 0.1523437,0.3046875 0.4921875,0.6796875 H 0.85442969 c -0.0820313,0 -0.234375,0 -0.234375,0.140625 0,0.140625 0.12890625,0.140625 0.2109375,0.140625 z m 0,0"
       style="fill:#000000;fill-opacity:1;fill-rule:nonzero;stroke:none"
       aria-label="⇒"
       transform="matrix(1.3333333,0,0,1.3333333,333.61467,139.64)" />
    <path
       id="path35"
       d="M 0.92684375,-1.558125 H 2.1221563 c 0.4101562,0 0.5976562,0.1992188 0.5976562,0.64453125 v 0.31640625 c 0,0.234375 0.035156,0.4453125 0.1054688,0.59765625 h 0.5625 v -0.1171875 C 3.212,-0.23390625 3.1768438,-0.3628125 3.165125,-0.84328125 3.1534063,-1.4409375 3.0596563,-1.6284375 2.6729375,-1.7925 3.0830938,-1.9917187 3.2471563,-2.2495312 3.2471563,-2.6596875 3.2471563,-3.2925 2.8487188,-3.6323437 2.133875,-3.6323437 H 0.4698125 V 4.6875e-4 h 0.45703125 z m 0,-0.4101562 V -3.2221875 H 2.0518438 c 0.2578125,0 0.4101562,0.035156 0.515625,0.140625 0.1289062,0.1054688 0.1875,0.2695313 0.1875,0.4921875 0,0.421875 -0.2109375,0.6210938 -0.703125,0.6210938 z M 5.4297734,-3.6909375 c -1.03125,0 -1.7460937,0.7734375 -1.7460937,1.8984375 0,1.13671875 0.7148437,1.91015625 1.7578125,1.91015625 0.4335937,0 0.8320312,-0.140625 1.125,-0.38671875 0.3867187,-0.328125 0.6210937,-0.890625 0.6210937,-1.4882812 0,-1.171875 -0.6914062,-1.9335938 -1.7578125,-1.9335938 z m 0,0.4101563 c 0.7851563,0 1.3007813,0.5976562 1.3007813,1.5117187 0,0.87890625 -0.5273438,1.4765625 -1.2890625,1.4765625 -0.7734375,0 -1.2890625,-0.59765625 -1.2890625,-1.5 0,-0.890625 0.515625,-1.4882812 1.2773437,-1.4882812 z m 2.8095704,-0.3515625 h -0.46875 V 4.6875e-4 H 10.032313 V -0.4096875 H 8.2393438 Z m 2.7685542,0 h -0.46875 V 4.6875e-4 h 2.261719 V -0.4096875 h -1.792969 z m 2.302735,3.63281245 h 1.628906 c 0.351563,0 0.597656,-0.09375 0.796875,-0.3046875 0.175781,-0.1875 0.28125,-0.4453125 0.28125,-0.72656245 0,-0.4453125 -0.199219,-0.703125 -0.667969,-0.890625 0.328125,-0.1523438 0.503907,-0.421875 0.503907,-0.7851563 0,-0.2695312 -0.09375,-0.5039062 -0.28125,-0.6679687 -0.199219,-0.1757813 -0.445313,-0.2578125 -0.796875,-0.2578125 h -1.464844 z m 0.457031,-2.06249995 v -1.1601563 h 0.902344 c 0.257812,0 0.398437,0.035156 0.527344,0.1289063 0.128906,0.1054687 0.199218,0.2460937 0.199218,0.4453125 0,0.1992187 -0.07031,0.3515625 -0.199218,0.4570312 -0.128907,0.09375 -0.269532,0.1289063 -0.527344,0.1289063 z m 0,1.6523437 v -1.2539062 h 1.136719 c 0.222656,0 0.363281,0.058594 0.480469,0.1757812 0.105468,0.1171875 0.164062,0.28125 0.164062,0.4570313 0,0.1757812 -0.05859,0.32812495 -0.164062,0.44531245 -0.117188,0.1171875 -0.257813,0.17578125 -0.480469,0.17578125 z m 4.822266,-0.6796875 0.375,1.08984375 h 0.527343 L 18.21493,-3.6323437 H 17.617273 L 16.316492,4.6875e-4 H 16.80868 L 17.195398,-1.089375 Z m -0.128907,-0.3867187 h -1.148437 l 0.597656,-1.6523438 z m 4.239258,-1.03125 c -0.140625,-0.796875 -0.597656,-1.1835938 -1.394531,-1.1835938 -0.492187,0 -0.878906,0.1523438 -1.148437,0.4570313 -0.328125,0.3515625 -0.515625,0.8789062 -0.515625,1.4648437 0,0.5976563 0.1875,1.1015625 0.527343,1.46484375 0.28125,0.28125 0.644532,0.421875 1.113282,0.421875 0.890625,0 1.382812,-0.48046875 1.5,-1.44140625 h -0.480469 c -0.03516,0.2460938 -0.09375,0.421875 -0.164063,0.5625 -0.152343,0.29296875 -0.457031,0.46875 -0.84375,0.46875 -0.726562,0 -1.183593,-0.57421875 -1.183593,-1.4882812 0,-0.9257813 0.433593,-1.5 1.136718,-1.5 0.292969,0 0.574219,0.09375 0.714844,0.2226562 0.140625,0.1289063 0.210938,0.28125 0.269531,0.5507813 z m 1.160157,1.2421875 0.597656,-0.5976563 1.277344,1.86328125 h 0.550781 l -1.5,-2.15624995 1.476562,-1.4765625 H 25.665125 L 23.860438,-1.7925 V -3.6323437 H 23.403406 V 4.6875e-4 h 0.457032 z m 0,0"
       style="fill:#000000;fill-opacity:1;fill-rule:nonzero;stroke:none"
       aria-label="ROLLBACK"
       transform="matrix(1.3333333,0,0,1.3333333,347.21733,139.64)" />
    <path
       id="path36"
       d="M 45.04259,-85.41405 H 78.06241"
       style="fill:none;stroke:#d9534f;stroke-width:0.99628;stroke-linecap:butt;stroke-linejoin:miter;stroke-miterlimit:10;stroke-dasharray:2.98883, 2.98883;stroke-dashoffset:0;stroke-opacity:1"
       transform="matrix(1.3333333,0,0,-1.3333333,215.59867,19.396)" />
    <path
       id="path37"
       d="M -2.78957,3.47087 C -2.27992,1.38832 -1.14423,0.40492 0,0 -1.14423,-0.40492 -2.27992,-1.38832 -2.78957,-3.47087"
       style="fill:none;stroke:#d9534f;stroke-width:0.99628;stroke-linecap:round;stroke-linejoin:round;stroke-miterlimit:10;stroke-dasharray:none;stroke-opacity:1"
       transform="matrix(1.3333333,0,0,-1.3333333,320.34607,133.2814)" />
  </g>
</svg>
