<?xml version="1.0" encoding="UTF-8" standalone="no"?>
<!-- Created with Inkscape (http://www.inkscape.org/) -->

<svg
   version="1.1"
   id="svg1"
   width="249.84666"
   height="191.04266"
   viewBox="0 0 249.84666 191.04266"
   xmlns="http://www.w3.org/2000/svg"
   xmlns:svg="http://www.w3.org/2000/svg">
  <defs
     id="defs1">
    <clipPath
       clipPathUnits="userSpaceOnUse"
       id="clipPath2">
      <path
         d="M -27.75261,-141.73445 H 166.51778 V 303.1302 H -27.75261"
         id="path2" />
    </clipPath>
    <clipPath
       clipPathUnits="userSpaceOnUse"
       id="clipPath4">
      <path
         d="M -169.48325,0 V 161.39575 H 308.24843 V 0"
         id="path4" />
    </clipPath>
    <clipPath
       clipPathUnits="userSpaceOnUse"
       id="clipPath27">
      <path
         d="M -27.75261,0 H 166.51778 V 161.39575 H -27.75261 Z"
         id="path27" />
    </clipPath>
  </defs>
  <g
     id="g1">
    <path
       id="path1"
       d="M 0,-2.83466 V 0 M 46.25505,-2.83466 V 0 M 92.51012,-2.83466 V 0 m 46.25505,-2.83466 V 0"
       style="fill:none;stroke:#000000;stroke-width:0.3985;stroke-linecap:butt;stroke-linejoin:miter;stroke-miterlimit:10;stroke-dasharray:none;stroke-opacity:1"
       transform="matrix(1.0666667,0,0,-1.0666667,71.8048,172.57867)"
       clip-path="url(#clipPath2)" />
    <path
       id="path3"
       d="m -30.58719,2.44539 h 2.83458 m -2.83458,12.22694 h 2.83458 m -2.83458,12.22696 h 2.83458 m -2.83458,12.22695 h 2.83458 m -2.83458,12.22694 h 2.83458 m -2.83458,12.22696 h 2.83458 m -2.83458,12.22694 h 2.83458 m -2.83458,12.22696 h 2.83458 m -2.83458,12.22695 h 2.83458 m -2.83458,12.22696 h 2.83458 m -2.83458,12.22694 h 2.83458 m -2.83458,12.22696 h 2.83458 m -2.83458,12.22695 h 2.83458"
       style="fill:none;stroke:#000000;stroke-width:0.3985;stroke-linecap:butt;stroke-linejoin:miter;stroke-miterlimit:10;stroke-dasharray:none;stroke-opacity:1"
       transform="matrix(1.0666667,0,0,-1.0666667,71.8048,172.57867)"
       clip-path="url(#clipPath4)" />
    <path
       id="path5"
       d="M -27.75261,0 H 161.8553"
       style="fill:none;stroke:#000000;stroke-width:0.79701;stroke-linecap:butt;stroke-linejoin:miter;stroke-miterlimit:10;stroke-dasharray:none;stroke-opacity:1"
       transform="matrix(1.0666667,0,0,-1.0666667,71.8048,172.57867)" />
    <path
       id="path6"
       d="M 4.66248,0 C 3.28098,0.25902 1.0361,1.0361 -0.51805,1.94269 V -1.94269 C 1.0361,-1.0361 3.28098,-0.25902 4.66248,0"
       style="fill:#000000;fill-opacity:1;fill-rule:nonzero;stroke:none"
       transform="matrix(1.0666667,0,0,-1.0666667,244.45045,172.57867)" />
    <path
       id="path7"
       d="M -27.75261,0 V 156.73328"
       style="fill:none;stroke:#000000;stroke-width:0.79701;stroke-linecap:butt;stroke-linejoin:miter;stroke-miterlimit:10;stroke-dasharray:none;stroke-opacity:1"
       transform="matrix(1.0666667,0,0,-1.0666667,71.8048,172.57867)" />
    <path
       id="path8"
       d="M 4.66248,0 C 3.28098,0.25902 1.0361,1.0361 -0.51805,1.94269 V -1.94269 C 1.0361,-1.0361 3.28098,-0.25902 4.66248,0"
       style="fill:#000000;fill-opacity:1;fill-rule:nonzero;stroke:none"
       transform="matrix(0,-1.0666667,-1.0666667,0,42.202016,5.3965013)" />
    <path
       id="path9"
       d="m 4.7478984,-4.1012734 c 0,-1.1425782 -0.7910156,-1.8017578 -2.1240234,-1.8017578 -1.2744141,0 -2.06542969,0.6445312 -2.06542969,1.6992187 0,0.7177734 0.38085938,1.1572266 1.14257809,1.3623047 l 1.4355469,0.3808594 c 0.7324219,0.1904297 1.0693359,0.4833984 1.0693359,0.9375 0,0.3076172 -0.1611328,0.62988278 -0.4101562,0.80566403 -0.234375,0.16113281 -0.6005859,0.24902343 -1.0693359,0.24902343 -0.6298829,0 -1.0546875,-0.14648437 -1.3330079,-0.48339843 C 1.1736797,-1.2155312 1.0711406,-1.4938516 1.0857891,-1.8454141 H 0.38266406 c 0.0146484,0.5273438 0.1171875,0.87890629 0.3515625,1.20117191 C 1.1297344,-0.10225 1.7889141,0.19071875 2.6824687,0.19071875 c 0.6884766,0 1.2597657,-0.16113281 1.6259766,-0.45410156 C 4.7039531,-0.571 4.9529766,-1.0983437 4.9529766,-1.5963906 c 0,-0.7177735 -0.4541016,-1.2451172 -1.2304688,-1.4501953 L 2.2576641,-3.4420937 C 1.5545391,-3.6325234 1.3055156,-3.85225 1.3055156,-4.3063516 c 0,-0.5859375 0.5126953,-0.9814453 1.2890625,-0.9814453 0.9228516,0 1.4501953,0.4248047 1.4501953,1.1865235 z m 1.7687989,-0.073242 H 5.8428691 V 2.890625e-4 h 0.6738282 z m 0,-1.640625 H 5.8428691 v 0.8496094 h 0.6738282 z m 3.8488767,1.640625 v 0.6005859 C 10.02866,-4.0573281 9.6331523,-4.2917031 9.0911602,-4.2917031 c -1.0546875,0 -1.772461,0.9228515 -1.772461,2.2705078 0,0.6884766 0.1757813,1.24511718 0.5273438,1.64062499 0.3076172,0.3515625 0.7470703,0.57128906 1.1865234,0.57128906 0.5273438,0 0.8935547,-0.234375 1.2744136,-0.76171875 v 0.21972656 c 0,0.57128907 -0.07324,0.90820313 -0.249023,1.14257813 C 9.8821758,1.0403281 9.5452617,1.1868125 9.1351055,1.1868125 c -0.2929688,0 -0.5712891,-0.087891 -0.7470703,-0.234375 C 8.2269023,0.83525 8.1683086,0.73271094 8.1243633,0.4836875 H 7.4505352 c 0.073242,0.7763672 0.6884765,1.2597656 1.6699218,1.2597656 0.6152344,0 1.157227,-0.2050781 1.420898,-0.5419922 0.322266,-0.38085934 0.439454,-0.90820309 0.439454,-1.8896484 v -3.4863281 z m -1.2011717,0.4980469 c 0.7177735,0 1.1425777,0.6005859 1.1425777,1.640625 0,0.9960937 -0.4394527,1.61132808 -1.1279292,1.61132808 -0.7324219,0 -1.171875,-0.61523438 -1.171875,-1.62597658 0,-1.0107422 0.4541015,-1.6259765 1.1572265,-1.6259765 z M 12.072117,-4.1745156 V 2.890625e-4 h 0.673828 V -2.6217812 c 0,-0.600586 0.439453,-1.0986329 0.981446,-1.0986329 0.483398,0 0.761718,0.3076172 0.761718,0.8496094 V 2.890625e-4 h 0.673828 V -2.6217812 c 0,-0.600586 0.439454,-1.0986329 0.981446,-1.0986329 0.483398,0 0.776367,0.3222657 0.776367,0.8496094 V 2.890625e-4 h 0.673828 V -3.1344766 c 0,-0.7470703 -0.439453,-1.1572265 -1.21582,-1.1572265 -0.556641,0 -0.893555,0.1611328 -1.289063,0.6298828 -0.249023,-0.4394531 -0.571289,-0.6298828 -1.113281,-0.6298828 -0.571289,0 -0.9375,0.2050781 -1.289062,0.703125 v -0.5859375 z m 8.250733,-0.1171875 c -1.171875,0 -1.875,0.8349609 -1.875,2.2412109 0,1.39160158 0.688476,2.24121095 1.889648,2.24121095 1.157227,0 1.875,-0.84960937 1.875,-2.21191405 0,-1.4501953 -0.688477,-2.2705078 -1.889648,-2.2705078 z m 0.01465,0.6152344 c 0.74707,0 1.186523,0.6152343 1.186523,1.640625 0,0.9814453 -0.454101,1.61132808 -1.186523,1.61132808 -0.74707,0 -1.201172,-0.61523438 -1.201172,-1.62597658 0,-1.0107422 0.454102,-1.6259765 1.201172,-1.6259765 z m 3.449707,-0.4980469 h -0.67383 V 2.890625e-4 h 0.673828 z m 0,-1.640625 h -0.673828 v 0.8496094 h 0.673828 z m 4.508057,0 h -0.65918 v 2.1679687 c -0.27832,-0.4248047 -0.717773,-0.6445312 -1.274414,-0.6445312 -1.083984,0 -1.801758,0.8642578 -1.801758,2.1972656 0,1.40625 0.688477,2.28515625 1.816406,2.28515625 0.571289,0 0.981446,-0.21972656 1.333008,-0.74707031 V 2.890625e-4 h 0.585938 z m -1.831055,2.1386719 c 0.717773,0 1.171875,0.6445312 1.171875,1.640625 0,0.9667968 -0.454102,1.59667964 -1.157227,1.59667964 -0.732421,0 -1.230468,-0.64453124 -1.230468,-1.61132814 0,-0.9814453 0.498047,-1.6259765 1.21582,-1.6259765 z m 0,0"
       style="fill:#000000;fill-opacity:1;fill-rule:nonzero;stroke:none"
       aria-label="Sigmoid"
       transform="matrix(1.0666667,0,0,1.0666667,56.4512,185.60907)" />
    <path
       id="path10"
       d="M 2.8261895,-5.1560664 H 4.7304863 V -5.8152461 H 0.16017383 v 0.6591797 H 2.0791191 V 1.8359375e-4 h 0.7470704 z m 5.3503417,4.76074218 c -0.073242,0.0146484 -0.102539,0.0146484 -0.1464843,0.0146484 -0.234375,0 -0.3515625,-0.1171875 -0.3515625,-0.32226563 V -3.1492305 c 0,-0.7470703 -0.5419922,-1.1425781 -1.5673828,-1.1425781 -0.6152344,0 -1.1132813,0.1757813 -1.3916016,0.4833984 -0.1904297,0.2197266 -0.2783203,0.4541016 -0.2929688,0.8642579 h 0.6738282 c 0.058594,-0.5126954 0.3662109,-0.7324219 0.9814453,-0.7324219 0.6005859,0 0.9375,0.2197265 0.9375,0.6152344 v 0.1757812 c 0,0.2783203 -0.1757813,0.3955078 -0.703125,0.46875 -0.9375,0.1171875 -1.0839844,0.1464844 -1.3330078,0.2490234 C 4.4997734,-1.962707 4.25075,-1.5964961 4.25075,-1.0545039 c 0,0.76171874 0.5273437,1.24511718 1.3623047,1.24511718 0.5273437,0 0.9521484,-0.19042968625 1.4208984,-0.61523437 0.058594,0.41015625 0.2636719,0.61523437 0.6884766,0.61523437 0.1318359,0 0.234375,-0.0292969 0.4541015,-0.0732422 z M 7.0193047,-1.3181758 c 0,0.2197266 -0.073242,0.36621096 -0.2636719,0.54199221 -0.2783203,0.24902343 -0.6005859,0.38085937 -0.9960937,0.38085937 -0.5126954,0 -0.8203125,-0.24902344 -0.8203125,-0.67382808 0,-0.4394532 0.2929687,-0.6591797 1.0107421,-0.7617188 0.703125,-0.1025391 0.834961,-0.1318359 1.069336,-0.234375 z M 8.9016289,-4.1746211 V 1.8359375e-4 H 9.575457 V -2.2996211 c 0,-0.8496094 0.439453,-1.4208984 1.12793,-1.4208984 0.527343,0 0.864258,0.3222656 0.864258,0.8349609 V 1.8359375e-4 h 0.659179 V -3.1492305 c 0,-0.703125 -0.512695,-1.1425781 -1.318359,-1.1425781 -0.629883,0 -1.0253908,0.234375 -1.3916017,0.8203125 v -0.703125 z m 4.4311521,-1.640625 V 1.8359375e-4 h 0.65918 V -2.2996211 c 0,-0.8496094 0.454101,-1.4208984 1.12793,-1.4208984 0.219726,0 0.439453,0.073242 0.600586,0.2050781 0.190429,0.1318359 0.263671,0.3222656 0.263671,0.6298828 V 1.8359375e-4 h 0.65918 V -3.1492305 c 0,-0.703125 -0.498047,-1.1425781 -1.303711,-1.1425781 -0.600586,0 -0.952148,0.1757813 -1.347656,0.6884766 v -2.2119141 z m 0,0"
       style="fill:#000000;fill-opacity:1;fill-rule:nonzero;stroke:none"
       aria-label="Tanh"
       transform="matrix(1.0666667,0,0,1.0666667,111.96587,185.41387)" />
    <path
       id="path11"
       d="m 1.4806055,-2.5046992 h 1.9189453 c 0.6591797,0 0.9521484,0.3222656 0.9521484,1.040039 l -0.014648,0.51269536 c 0,0.36621093 0.073242,0.71777343 0.1757812,0.95214843375 H 5.4063867 V -0.19024609 C 5.1280664,-0.38067578 5.0841211,-0.58575391 5.0548242,-1.3474727 c 0,-0.9667968 -0.1464844,-1.2451171 -0.7763672,-1.5234375 0.6445313,-0.3222656 0.9082032,-0.7177734 0.9082032,-1.3769531 0,-1.0107422 -0.6298829,-1.5673828 -1.772461,-1.5673828 H 0.74818359 V 1.8359375e-4 H 1.4806055 Z m 0,-0.6445313 v -2.0068359 h 1.8017578 c 0.4101562,0 0.6445312,0.058594 0.8349609,0.2197266 0.1904297,0.1757812 0.2929688,0.4394531 0.2929688,0.7910156 0,0.6738281 -0.3515625,0.9960937 -1.1279297,0.9960937 z m 8.3605957,1.2890625 c 0,-0.6445312 -0.043945,-1.0253906 -0.1611328,-1.3330078 -0.2783204,-0.6884765 -0.9082032,-1.0986328 -1.6992188,-1.0986328 -1.1572266,0 -1.9042969,0.8935547 -1.9042969,2.2558594 0,1.37695311 0.7177735,2.22656248 1.8896485,2.22656248 0.9667968,0 1.6259765,-0.54199219 1.7871093,-1.45019528 H 9.0794824 c -0.1757812,0.54199216 -0.5566406,0.83496091 -1.0839844,0.83496091 -0.4248046,0 -0.7763671,-0.19042969 -1.0107421,-0.54199219 C 6.823623,-1.2156367 6.7796777,-1.4500117 6.7650293,-1.860168 Z M 6.7796777,-2.4021602 c 0.058594,-0.7763671 0.5273438,-1.274414 1.2011719,-1.274414 0.6445313,0 1.1572266,0.5419922 1.1572266,1.2158203 0,0.029297 0,0.043945 -0.014648,0.058594 z M 11.562393,-5.8152461 H 10.829971 V 1.8359375e-4 h 3.603515 V -0.65899609 h -2.871093 z m 7.44873,0 v 4.0869141 c 0,0.77636716 -0.556641,1.25976559 -1.494141,1.25976559 -0.424804,0 -0.776367,-0.10253906 -1.054687,-0.30761718 C 16.169326,-0.99591016 16.03749,-1.2888789 16.03749,-1.728332 v -4.0869141 h -0.74707 v 4.0869141 c 0,1.17187497 0.849609,1.91894528 2.226562,1.91894528 1.362305,0 2.241211,-0.76171875 2.241211,-1.91894528 v -4.0869141 z m 0,0"
       style="fill:#000000;fill-opacity:1;fill-rule:nonzero;stroke:none"
       aria-label="ReLU"
       transform="matrix(1.0666667,0,0,1.0666667,159.616,185.41387)" />
    <path
       id="path12"
       d="m 4.7454961,-4.1012734 c 0,-1.1425782 -0.7910156,-1.8017578 -2.1240234,-1.8017578 -1.2744141,0 -2.06542973,0.6445312 -2.06542973,1.6992187 0,0.7177734 0.38085937,1.1572266 1.14257813,1.3623047 l 1.4355469,0.3808594 c 0.7324218,0.1904297 1.0693359,0.4833984 1.0693359,0.9375 0,0.3076172 -0.1611328,0.62988278 -0.4101562,0.80566403 -0.234375,0.16113281 -0.600586,0.24902343 -1.069336,0.24902343 -0.6298828,0 -1.0546875,-0.14648437 -1.3330078,-0.48339843 C 1.1712773,-1.2155312 1.0687383,-1.4938516 1.0833867,-1.8454141 H 0.38026172 c 0.0146484,0.5273438 0.1171875,0.87890629 0.3515625,1.20117191 C 1.127332,-0.10225 1.7865117,0.19071875 2.6800664,0.19071875 c 0.6884766,0 1.2597656,-0.16113281 1.6259766,-0.45410156 C 4.7015508,-0.571 4.9505742,-1.0983437 4.9505742,-1.5963906 c 0,-0.7177735 -0.4541015,-1.2451172 -1.2304687,-1.4501953 L 2.2552617,-3.4420937 C 1.5521367,-3.6325234 1.3031133,-3.85225 1.3031133,-4.3063516 c 0,-0.5859375 0.5126953,-0.9814453 1.2890625,-0.9814453 0.9228515,0 1.4501953,0.4248047 1.4501953,1.1865235 z m 2.7392578,-0.1904297 c -1.171875,0 -1.875,0.8349609 -1.875,2.2412109 0,1.39160158 0.6884766,2.24121095 1.8896484,2.24121095 1.1572266,0 1.875,-0.84960937 1.875,-2.21191405 0,-1.4501953 -0.6884765,-2.2705078 -1.8896484,-2.2705078 z m 0.014648,0.6152344 c 0.7470704,0 1.1865235,0.6152343 1.1865235,1.640625 0,0.9814453 -0.4541016,1.61132808 -1.1865235,1.61132808 -0.7470703,0 -1.2011718,-0.61523438 -1.2011718,-1.62597658 0,-1.0107422 0.4541015,-1.6259765 1.2011718,-1.6259765 z m 4.2993171,-0.4980469 h -0.688477 v -0.6591797 c 0,-0.2783203 0.161133,-0.4248047 0.46875,-0.4248047 0.04395,0 0.07324,0 0.219727,0.014648 v -0.5419921 c -0.146485,-0.043945 -0.234375,-0.043945 -0.366211,-0.043945 -0.615235,0 -0.981446,0.3515625 -0.981446,0.9521485 v 0.703125 H 9.8944219 v 0.5419922 H 10.451062 V 2.890625e-4 h 0.65918 V -3.6325234 h 0.688477 z m 2.186279,0 h -0.688477 v -1.1425781 h -0.659179 v 1.1425781 h -0.556641 v 0.5419922 h 0.556641 v 3.14941403 c 0,0.42480468 0.292969,0.67382812 0.805664,0.67382812 0.161133,0 0.322265,-0.0292969 0.541992,-0.0585938 v -0.55664062 c -0.08789,0.0146484 -0.19043,0.0292969 -0.322266,0.0292969 -0.27832,0 -0.366211,-0.0878906 -0.366211,-0.38085937 V -3.6325234 h 0.688477 z m 0.750732,0 V 2.890625e-4 h 0.673829 V -2.6217812 c 0,-0.600586 0.439453,-1.0986329 0.981445,-1.0986329 0.483398,0 0.761719,0.3076172 0.761719,0.8496094 V 2.890625e-4 h 0.673828 V -2.6217812 c 0,-0.600586 0.439453,-1.0986329 0.981445,-1.0986329 0.483399,0 0.776367,0.3222657 0.776367,0.8496094 V 2.890625e-4 h 0.673828 V -3.1344766 c 0,-0.7470703 -0.439453,-1.1572265 -1.21582,-1.1572265 -0.556641,0 -0.893555,0.1611328 -1.289062,0.6298828 -0.249024,-0.4394531 -0.571289,-0.6298828 -1.113282,-0.6298828 -0.571289,0 -0.9375,0.2050781 -1.289062,0.703125 v -0.5859375 z m 10.345459,3.77929685 c -0.07324,0.0146484 -0.102539,0.0146484 -0.146484,0.0146484 -0.234375,0 -0.351562,-0.1171875 -0.351562,-0.32226563 V -3.149125 c 0,-0.7470703 -0.541993,-1.1425781 -1.567383,-1.1425781 -0.615235,0 -1.113281,0.1757812 -1.391602,0.4833984 -0.190429,0.2197266 -0.27832,0.4541016 -0.292969,0.8642578 h 0.673829 c 0.05859,-0.5126953 0.366211,-0.7324218 0.981445,-0.7324218 0.600586,0 0.9375,0.2197265 0.9375,0.6152343 v 0.1757813 c 0,0.2783203 -0.175781,0.3955078 -0.703125,0.46875 -0.9375,0.1171875 -1.083984,0.1464844 -1.333008,0.2490234 -0.483398,0.2050781 -0.732422,0.5712891 -0.732422,1.1132813 0,0.76171871 0.527344,1.24511715 1.362305,1.24511715 0.527344,0 0.952148,-0.1904296875 1.420898,-0.61523437 0.05859,0.41015625 0.263672,0.61523437 0.688477,0.61523437 0.131836,0 0.234375,-0.0292969 0.454101,-0.0732422 z M 23.923963,-1.3180703 c 0,0.2197266 -0.07324,0.36621093 -0.263672,0.54199218 -0.27832,0.24902343 -0.600586,0.38085937 -0.996094,0.38085937 -0.512695,0 -0.820312,-0.24902344 -0.820312,-0.67382815 0,-0.4394531 0.292969,-0.6591797 1.010742,-0.7617187 0.703125,-0.1025391 0.834961,-0.131836 1.069336,-0.234375 z m 3.654785,-0.8349609 1.40625,-2.0214844 h -0.761719 l -0.996093,1.508789 -1.010743,-1.508789 h -0.74707 l 1.391602,2.0507812 -1.479493,2.1240234625 h 0.761719 L 27.197889,-1.5963906 28.252576,2.890625e-4 h 0.761719 z m 0,0"
       style="fill:#000000;fill-opacity:1;fill-rule:nonzero;stroke:none"
       aria-label="Softmax"
       transform="matrix(1.0666667,0,0,1.0666667,204.2272,185.60907)" />
    <path
       id="path13"
       d="m 2.1989023,-5.6555254 c -0.5273437,0 -1.0107421,0.234375 -1.30371089,0.6298828 -0.36621094,0.4833985 -0.55664063,1.2451172 -0.55664063,2.2851563 0,1.90429685 0.64453125,2.92968747 1.86035152,2.92968747 1.1865235,0 1.8457032,-1.02539062 1.8457032,-2.87109377 0,-1.0986328 -0.1757813,-1.8310547 -0.5566407,-2.34375 C 3.1949961,-5.4211504 2.7262461,-5.6555254 2.1989023,-5.6555254 Z m 0,0.6298828 c 0.7470704,0 1.1279297,0.7617188 1.1279297,2.2705078 0,1.6113282 -0.3662109,2.35839847 -1.1425781,2.35839847 -0.7470703,0 -1.1279297,-0.79101567 -1.1279297,-2.32910157 0,-1.5527344 0.3808594,-2.2998047 1.1425781,-2.2998047 z m 3.7573243,4.18945315 h -0.834961 v 0.83496093 h 0.834961 z M 10.442311,-5.6555254 H 7.5272715 L 7.1024668,-2.5793535 H 7.746998 c 0.3222657,-0.3808594 0.600586,-0.5273438 1.0400391,-0.5273438 0.7470703,0 1.2304689,0.5273438 1.2304689,1.3623047 0,0.80566408 -0.4687501,1.30371096 -1.2304689,1.30371096 -0.6152344,0 -0.9960937,-0.30761719 -1.1572266,-0.95214846 h -0.703125 c 0.1025391,0.46875002 0.1757813,0.68847658 0.3369141,0.89355471 0.3222656,0.43945312 0.8935547,0.68847656 1.5380859,0.68847656 1.1425782,0 1.9335935,-0.83496094 1.9335935,-2.03613277 0,-1.1132813 -0.74707,-1.875 -1.8310544,-1.875 -0.3955078,0 -0.703125,0.102539 -1.0400391,0.336914 l 0.2197266,-1.5673828 h 2.3583989 z m 2.834472,0 c -0.527344,0 -1.010742,0.234375 -1.303711,0.6298828 -0.366211,0.4833985 -0.55664,1.2451172 -0.55664,2.2851563 0,1.90429685 0.644531,2.92968747 1.860351,2.92968747 1.186524,0 1.845703,-1.02539062 1.845703,-2.87109377 0,-1.0986328 -0.175781,-1.8310547 -0.55664,-2.34375 -0.292969,-0.3955078 -0.761719,-0.6298828 -1.289063,-0.6298828 z m 0,0.6298828 c 0.747071,0 1.12793,0.7617188 1.12793,2.2705078 0,1.6113282 -0.366211,2.35839847 -1.142578,2.35839847 -0.747071,0 -1.12793,-0.79101567 -1.12793,-2.32910157 0,-1.5527344 0.380859,-2.2998047 1.142578,-2.2998047 z m 0,0"
       style="fill:#000000;fill-opacity:1;fill-rule:nonzero;stroke:none"
       aria-label="0.50"
       transform="matrix(1.0666667,0,0,1.0666667,18.881067,172.91147)" />
    <path
       id="path14"
       d="m 2.1989023,-5.6526465 c -0.5273437,0 -1.0107421,0.234375 -1.30371089,0.6298828 -0.36621094,0.4833985 -0.55664063,1.2451172 -0.55664063,2.2851563 0,1.90429685 0.64453125,2.92968748 1.86035152,2.92968748 1.1865235,0 1.8457032,-1.02539063 1.8457032,-2.87109378 0,-1.0986328 -0.1757813,-1.8310547 -0.5566407,-2.34375 C 3.1949961,-5.4182715 2.7262461,-5.6526465 2.1989023,-5.6526465 Z m 0,0.6298828 c 0.7470704,0 1.1279297,0.7617188 1.1279297,2.2705078 0,1.6113282 -0.3662109,2.35839848 -1.1425781,2.35839848 -0.7470703,0 -1.1279297,-0.79101558 -1.1279297,-2.32910158 0,-1.5527344 0.3808594,-2.2998047 1.1425781,-2.2998047 z m 3.7573243,4.18945315 h -0.834961 v 0.83496094 h 0.834961 z M 10.442311,-5.6526465 H 7.5272715 L 7.1024668,-2.5764746 H 7.746998 c 0.3222657,-0.3808594 0.600586,-0.5273438 1.0400391,-0.5273438 0.7470703,0 1.2304689,0.5273438 1.2304689,1.3623047 0,0.80566409 -0.4687501,1.30371097 -1.2304689,1.30371097 -0.6152344,0 -0.9960937,-0.30761719 -1.1572266,-0.95214847 h -0.703125 c 0.1025391,0.46875003 0.1757813,0.68847659 0.3369141,0.89355472 0.3222656,0.43945312 0.8935547,0.68847656 1.5380859,0.68847656 1.1425782,0 1.9335935,-0.83496094 1.9335935,-2.03613278 0,-1.1132813 -0.74707,-1.875 -1.8310544,-1.875 -0.3955078,0 -0.703125,0.102539 -1.0400391,0.336914 l 0.2197266,-1.5673828 h 2.3583989 z m 4.431152,0 h -2.915039 l -0.424805,3.0761719 h 0.644531 c 0.322266,-0.3808594 0.600586,-0.5273438 1.040039,-0.5273438 0.747071,0 1.230469,0.5273438 1.230469,1.3623047 0,0.80566409 -0.46875,1.30371097 -1.230469,1.30371097 -0.615234,0 -0.996093,-0.30761719 -1.157226,-0.95214847 h -0.703125 c 0.102539,0.46875003 0.175781,0.68847659 0.336914,0.89355472 0.322266,0.43945312 0.893555,0.68847656 1.538086,0.68847656 1.142578,0 1.933594,-0.83496094 1.933594,-2.03613278 0,-1.1132813 -0.747071,-1.875 -1.831055,-1.875 -0.395508,0 -0.703125,0.102539 -1.040039,0.336914 l 0.219726,-1.5673828 h 2.358399 z m 0,0"
       style="fill:#000000;fill-opacity:1;fill-rule:nonzero;stroke:none"
       aria-label="0.55"
       transform="matrix(1.0666667,0,0,1.0666667,18.881067,159.86933)" />
    <path
       id="path15"
       d="m 2.1989023,-5.6534297 c -0.5273437,0 -1.0107421,0.234375 -1.30371089,0.6298828 -0.36621094,0.4833985 -0.55664063,1.2451172 -0.55664063,2.2851563 0,1.90429685 0.64453125,2.92968748 1.86035152,2.92968748 1.1865235,0 1.8457032,-1.02539063 1.8457032,-2.87109378 0,-1.0986328 -0.1757813,-1.8310547 -0.5566407,-2.34375 C 3.1949961,-5.4190547 2.7262461,-5.6534297 2.1989023,-5.6534297 Z m 0,0.6298828 c 0.7470704,0 1.1279297,0.7617188 1.1279297,2.2705078 0,1.6113282 -0.3662109,2.35839848 -1.1425781,2.35839848 -0.7470703,0 -1.1279297,-0.79101558 -1.1279297,-2.32910158 0,-1.5527344 0.3808594,-2.2998047 1.1425781,-2.2998047 z m 3.7573243,4.18945315 H 5.1212656 V 8.671875e-4 h 0.834961 z M 10.618092,-4.1739375 c -0.131836,-0.9228516 -0.7470705,-1.4794922 -1.5966799,-1.4794922 -0.6298828,0 -1.1865234,0.3076172 -1.5234375,0.8056641 -0.3515625,0.5566406 -0.5126953,1.2451172 -0.5126953,2.2705078 0,0.9521484 0.1464844,1.5527344 0.4833984,2.06542968 0.3076172,0.45410156 0.7910157,0.703125 1.4208985,0.703125 1.0693359,0 1.8457028,-0.80566407 1.8457028,-1.91894528 0,-1.0400391 -0.717773,-1.7871094 -1.7285153,-1.7871094 -0.5566407,0 -0.9960938,0.2197266 -1.303711,0.6298828 0.014648,-1.3769531 0.4541016,-2.1386719 1.2597657,-2.1386719 0.4980468,0 0.8349609,0.3076172 0.9521484,0.8496094 z M 8.918873,-2.884875 c 0.6738282,0 1.098633,0.46875 1.098633,1.2158203 0,0.71777345 -0.4833986,1.23046876 -1.1279298,1.23046876 -0.6445313,0 -1.1425782,-0.54199218 -1.1425782,-1.25976566 0,-0.703125 0.4833985,-1.1865234 1.171875,-1.1865234 z m 4.35791,-2.7685547 c -0.527344,0 -1.010742,0.234375 -1.303711,0.6298828 -0.366211,0.4833985 -0.55664,1.2451172 -0.55664,2.2851563 0,1.90429685 0.644531,2.92968748 1.860351,2.92968748 1.186524,0 1.845703,-1.02539063 1.845703,-2.87109378 0,-1.0986328 -0.175781,-1.8310547 -0.55664,-2.34375 -0.292969,-0.3955078 -0.761719,-0.6298828 -1.289063,-0.6298828 z m 0,0.6298828 c 0.747071,0 1.12793,0.7617188 1.12793,2.2705078 0,1.6113282 -0.366211,2.35839848 -1.142578,2.35839848 -0.747071,0 -1.12793,-0.79101558 -1.12793,-2.32910158 0,-1.5527344 0.380859,-2.2998047 1.142578,-2.2998047 z m 0,0"
       style="fill:#000000;fill-opacity:1;fill-rule:nonzero;stroke:none"
       aria-label="0.60"
       transform="matrix(1.0666667,0,0,1.0666667,18.881067,146.8272)" />
    <path
       id="path16"
       d="m 2.1989023,-5.6552129 c -0.5273437,0 -1.0107421,0.234375 -1.30371089,0.6298828 -0.36621094,0.4833985 -0.55664063,1.2451172 -0.55664063,2.2851563 0,1.90429685 0.64453125,2.92968747 1.86035152,2.92968747 1.1865235,0 1.8457032,-1.02539062 1.8457032,-2.87109377 0,-1.0986328 -0.1757813,-1.8310547 -0.5566407,-2.34375 C 3.1949961,-5.4208379 2.7262461,-5.6552129 2.1989023,-5.6552129 Z m 0,0.6298828 c 0.7470704,0 1.1279297,0.7617188 1.1279297,2.2705078 0,1.6113282 -0.3662109,2.35839847 -1.1425781,2.35839847 -0.7470703,0 -1.1279297,-0.79101567 -1.1279297,-2.32910157 0,-1.5527344 0.3808594,-2.2998047 1.1425781,-2.2998047 z m 3.7573243,4.18945315 h -0.834961 v 0.83496093437 h 0.834961 z M 10.618092,-4.1757207 c -0.131836,-0.9228516 -0.7470705,-1.4794922 -1.5966799,-1.4794922 -0.6298828,0 -1.1865234,0.3076172 -1.5234375,0.8056641 -0.3515625,0.5566406 -0.5126953,1.2451172 -0.5126953,2.2705078 0,0.9521484 0.1464844,1.5527344 0.4833984,2.06542967 0.3076172,0.45410156 0.7910157,0.703125 1.4208985,0.703125 1.0693359,0 1.8457028,-0.80566406 1.8457028,-1.91894527 0,-1.0400391 -0.717773,-1.7871094 -1.7285153,-1.7871094 -0.5566407,0 -0.9960938,0.2197265 -1.303711,0.6298828 0.014648,-1.3769531 0.4541016,-2.1386719 1.2597657,-2.1386719 0.4980468,0 0.8349609,0.3076172 0.9521484,0.8496094 z m -1.699219,1.2890625 c 0.6738282,0 1.098633,0.46875 1.098633,1.2158203 0,0.71777345 -0.4833986,1.23046876 -1.1279298,1.23046876 -0.6445313,0 -1.1425782,-0.54199219 -1.1425782,-1.25976566 0,-0.703125 0.4833985,-1.1865234 1.171875,-1.1865234 z m 5.95459,-2.7685547 h -2.915039 l -0.424805,3.0761719 h 0.644531 c 0.322266,-0.3808594 0.600586,-0.5273438 1.040039,-0.5273438 0.747071,0 1.230469,0.5273438 1.230469,1.3623047 0,0.80566408 -0.46875,1.30371096 -1.230469,1.30371096 -0.615234,0 -0.996093,-0.30761719 -1.157226,-0.95214846 h -0.703125 c 0.102539,0.46875002 0.175781,0.68847658 0.336914,0.89355471 0.322266,0.43945312 0.893555,0.68847656 1.538086,0.68847656 1.142578,0 1.933594,-0.83496094 1.933594,-2.03613277 0,-1.1132813 -0.747071,-1.875 -1.831055,-1.875 -0.395508,0 -0.703125,0.102539 -1.040039,0.336914 l 0.219726,-1.5673828 h 2.358399 z m 0,0"
       style="fill:#000000;fill-opacity:1;fill-rule:nonzero;stroke:none"
       aria-label="0.65"
       transform="matrix(1.0666667,0,0,1.0666667,18.881067,133.78613)" />
    <path
       id="path17"
       d="m 2.1989023,-5.6559961 c -0.5273437,0 -1.0107421,0.234375 -1.30371089,0.6298828 -0.36621094,0.4833985 -0.55664063,1.2451172 -0.55664063,2.2851563 0,1.90429684 0.64453125,2.92968747 1.86035152,2.92968747 1.1865235,0 1.8457032,-1.02539063 1.8457032,-2.87109377 0,-1.0986328 -0.1757813,-1.8310547 -0.5566407,-2.34375 C 3.1949961,-5.4216211 2.7262461,-5.6559961 2.1989023,-5.6559961 Z m 0,0.6298828 c 0.7470704,0 1.1279297,0.7617188 1.1279297,2.2705078 0,1.6113282 -0.3662109,2.35839847 -1.1425781,2.35839847 -0.7470703,0 -1.1279297,-0.79101567 -1.1279297,-2.32910157 0,-1.5527344 0.3808594,-2.2998047 1.1425781,-2.2998047 z m 3.7573243,4.18945314 h -0.834961 v 0.83496094 h 0.834961 z M 10.793873,-5.6559961 H 7.0145762 v 0.703125 H 10.061451 C 8.7137949,-3.0339258 8.1718027,-1.8620508 7.746998,-0.00169922 H 8.4940684 C 8.8016855,-1.803457 9.519459,-3.3708398 10.793873,-5.0554102 Z m 2.48291,0 c -0.527344,0 -1.010742,0.234375 -1.303711,0.6298828 -0.366211,0.4833985 -0.55664,1.2451172 -0.55664,2.2851563 0,1.90429684 0.644531,2.92968747 1.860351,2.92968747 1.186524,0 1.845703,-1.02539063 1.845703,-2.87109377 0,-1.0986328 -0.175781,-1.8310547 -0.55664,-2.34375 -0.292969,-0.3955078 -0.761719,-0.6298828 -1.289063,-0.6298828 z m 0,0.6298828 c 0.747071,0 1.12793,0.7617188 1.12793,2.2705078 0,1.6113282 -0.366211,2.35839847 -1.142578,2.35839847 -0.747071,0 -1.12793,-0.79101567 -1.12793,-2.32910157 0,-1.5527344 0.380859,-2.2998047 1.142578,-2.2998047 z m 0,0"
       style="fill:#000000;fill-opacity:1;fill-rule:nonzero;stroke:none"
       aria-label="0.70"
       transform="matrix(1.0666667,0,0,1.0666667,18.881067,120.744)" />
    <path
       id="path18"
       d="m 2.1989023,-5.6531172 c -0.5273437,0 -1.0107421,0.234375 -1.30371089,0.6298828 -0.36621094,0.4833985 -0.55664063,1.2451172 -0.55664063,2.2851563 0,1.90429685 0.64453125,2.92968747 1.86035152,2.92968747 1.1865235,0 1.8457032,-1.02539062 1.8457032,-2.87109377 0,-1.0986328 -0.1757813,-1.8310547 -0.5566407,-2.34375 C 3.1949961,-5.4187422 2.7262461,-5.6531172 2.1989023,-5.6531172 Z m 0,0.6298828 c 0.7470704,0 1.1279297,0.7617188 1.1279297,2.2705078 0,1.6113282 -0.3662109,2.35839847 -1.1425781,2.35839847 -0.7470703,0 -1.1279297,-0.79101567 -1.1279297,-2.32910157 0,-1.5527344 0.3808594,-2.2998047 1.1425781,-2.2998047 z m 3.7573243,4.18945315 h -0.834961 v 0.83496094 h 0.834961 z M 10.793873,-5.6531172 H 7.0145762 v 0.703125 H 10.061451 C 8.7137949,-3.0310469 8.1718027,-1.8591719 7.746998,0.00117969 H 8.4940684 C 8.8016855,-1.8005781 9.519459,-3.3679609 10.793873,-5.0525313 Z m 4.07959,0 h -2.915039 l -0.424805,3.0761719 h 0.644531 c 0.322266,-0.3808594 0.600586,-0.5273438 1.040039,-0.5273438 0.747071,0 1.230469,0.5273438 1.230469,1.3623047 0,0.80566409 -0.46875,1.30371096 -1.230469,1.30371096 -0.615234,0 -0.996093,-0.30761719 -1.157226,-0.95214846 h -0.703125 c 0.102539,0.46875002 0.175781,0.68847659 0.336914,0.89355471 0.322266,0.43945313 0.893555,0.68847656 1.538086,0.68847656 1.142578,0 1.933594,-0.83496093 1.933594,-2.03613277 0,-1.1132813 -0.747071,-1.875 -1.831055,-1.875 -0.395508,0 -0.703125,0.102539 -1.040039,0.336914 l 0.219726,-1.5673828 h 2.358399 z m 0,0"
       style="fill:#000000;fill-opacity:1;fill-rule:nonzero;stroke:none"
       aria-label="0.75"
       transform="matrix(1.0666667,0,0,1.0666667,18.881067,107.70187)" />
    <path
       id="path19"
       d="m 2.1989023,-5.6539004 c -0.5273437,0 -1.0107421,0.234375 -1.30371089,0.6298828 -0.36621094,0.4833985 -0.55664063,1.2451172 -0.55664063,2.2851563 0,1.90429685 0.64453125,2.92968747 1.86035152,2.92968747 1.1865235,0 1.8457032,-1.02539062 1.8457032,-2.87109377 0,-1.0986328 -0.1757813,-1.8310547 -0.5566407,-2.34375 C 3.1949961,-5.4195254 2.7262461,-5.6539004 2.1989023,-5.6539004 Z m 0,0.6298828 c 0.7470704,0 1.1279297,0.7617188 1.1279297,2.2705078 0,1.6113282 -0.3662109,2.35839847 -1.1425781,2.35839847 -0.7470703,0 -1.1279297,-0.79101567 -1.1279297,-2.32910157 0,-1.5527344 0.3808594,-2.2998047 1.1425781,-2.2998047 z m 3.7573243,4.18945315 H 5.1212656 V 3.9648438e-4 h 0.834961 z M 9.7684824,-2.9732363 c 0.5712886,-0.3515625 0.7617186,-0.6298828 0.7617186,-1.171875 0,-0.8789063 -0.6884764,-1.5087891 -1.6845701,-1.5087891 -0.9960938,0 -1.6992188,0.6298828 -1.6992188,1.5087891 0,0.5273437 0.1904297,0.8203125 0.7617188,1.171875 -0.6445313,0.3076172 -0.9667969,0.7763672 -0.9667969,1.40625 0,1.04003903 0.7763672,1.75781247 1.9042969,1.75781247 1.1132812,0 1.8896481,-0.71777344 1.8896481,-1.75781247 0,-0.6298828 -0.322265,-1.0986328 -0.9667966,-1.40625 z M 8.8456309,-5.0240176 c 0.5859375,0 0.9814453,0.3515625 0.9814453,0.8935547 0,0.5273438 -0.3955078,0.8789063 -0.9814453,0.8789063 -0.600586,0 -0.9814454,-0.3515625 -0.9814454,-0.8789063 0,-0.5419922 0.3808594,-0.8935547 0.9814454,-0.8935547 z m 0,2.3583985 c 0.6884765,0 1.1718751,0.4541015 1.1718751,1.1132812 0,0.67382813 -0.4833986,1.11328126 -1.1865236,1.11328126 -0.6884765,0 -1.171875,-0.45410156 -1.171875,-1.11328126 0,-0.6591797 0.4833985,-1.1132812 1.1865235,-1.1132812 z m 4.4311521,-2.9882813 c -0.527344,0 -1.010742,0.234375 -1.303711,0.6298828 -0.366211,0.4833985 -0.55664,1.2451172 -0.55664,2.2851563 0,1.90429685 0.644531,2.92968747 1.860351,2.92968747 1.186524,0 1.845703,-1.02539062 1.845703,-2.87109377 0,-1.0986328 -0.175781,-1.8310547 -0.55664,-2.34375 -0.292969,-0.3955078 -0.761719,-0.6298828 -1.289063,-0.6298828 z m 0,0.6298828 c 0.747071,0 1.12793,0.7617188 1.12793,2.2705078 0,1.6113282 -0.366211,2.35839847 -1.142578,2.35839847 -0.747071,0 -1.12793,-0.79101567 -1.12793,-2.32910157 0,-1.5527344 0.380859,-2.2998047 1.142578,-2.2998047 z m 0,0"
       style="fill:#000000;fill-opacity:1;fill-rule:nonzero;stroke:none"
       aria-label="0.80"
       transform="matrix(1.0666667,0,0,1.0666667,18.881067,94.659733)" />
    <path
       id="path20"
       d="m 2.1989023,-5.6546836 c -0.5273437,0 -1.0107421,0.234375 -1.30371089,0.6298828 -0.36621094,0.4833985 -0.55664063,1.2451172 -0.55664063,2.2851563 0,1.90429684 0.64453125,2.92968747 1.86035152,2.92968747 1.1865235,0 1.8457032,-1.02539063 1.8457032,-2.87109377 0,-1.0986328 -0.1757813,-1.8310547 -0.5566407,-2.34375 C 3.1949961,-5.4203086 2.7262461,-5.6546836 2.1989023,-5.6546836 Z m 0,0.6298828 c 0.7470704,0 1.1279297,0.7617188 1.1279297,2.2705078 0,1.6113282 -0.3662109,2.35839847 -1.1425781,2.35839847 -0.7470703,0 -1.1279297,-0.79101567 -1.1279297,-2.32910157 0,-1.5527344 0.3808594,-2.2998047 1.1425781,-2.2998047 z m 3.7573243,4.18945314 h -0.834961 v 0.83496094125 h 0.834961 z M 9.7684824,-2.9740195 c 0.5712886,-0.3515625 0.7617186,-0.6298828 0.7617186,-1.171875 0,-0.8789063 -0.6884764,-1.5087891 -1.6845701,-1.5087891 -0.9960938,0 -1.6992188,0.6298828 -1.6992188,1.5087891 0,0.5273437 0.1904297,0.8203125 0.7617188,1.171875 -0.6445313,0.3076172 -0.9667969,0.7763672 -0.9667969,1.40625 0,1.04003903 0.7763672,1.75781247 1.9042969,1.75781247 1.1132812,0 1.8896481,-0.71777344 1.8896481,-1.75781247 0,-0.6298828 -0.322265,-1.0986328 -0.9667966,-1.40625 z M 8.8456309,-5.0248008 c 0.5859375,0 0.9814453,0.3515625 0.9814453,0.8935547 0,0.5273438 -0.3955078,0.8789063 -0.9814453,0.8789063 -0.600586,0 -0.9814454,-0.3515625 -0.9814454,-0.8789063 0,-0.5419922 0.3808594,-0.8935547 0.9814454,-0.8935547 z m 0,2.3583985 c 0.6884765,0 1.1718751,0.4541015 1.1718751,1.1132812 0,0.67382813 -0.4833986,1.11328126 -1.1865236,1.11328126 -0.6884765,0 -1.171875,-0.45410157 -1.171875,-1.11328126 0,-0.6591797 0.4833985,-1.1132812 1.1865235,-1.1132812 z m 6.0278321,-2.9882813 h -2.915039 l -0.424805,3.0761719 h 0.644531 c 0.322266,-0.3808594 0.600586,-0.5273438 1.040039,-0.5273438 0.747071,0 1.230469,0.5273438 1.230469,1.3623047 0,0.80566408 -0.46875,1.30371096 -1.230469,1.30371096 -0.615234,0 -0.996093,-0.30761719 -1.157226,-0.95214846 h -0.703125 c 0.102539,0.46875002 0.175781,0.68847658 0.336914,0.89355471 0.322266,0.43945312 0.893555,0.68847656 1.538086,0.68847656 1.142578,0 1.933594,-0.83496094 1.933594,-2.03613277 0,-1.1132813 -0.747071,-1.875 -1.831055,-1.875 -0.395508,0 -0.703125,0.102539 -1.040039,0.336914 l 0.219726,-1.5673828 h 2.358399 z m 0,0"
       style="fill:#000000;fill-opacity:1;fill-rule:nonzero;stroke:none"
       aria-label="0.85"
       transform="matrix(1.0666667,0,0,1.0666667,18.881067,81.6176)" />
    <path
       id="path21"
       d="m 2.1989023,-5.6528047 c -0.5273437,0 -1.0107421,0.234375 -1.30371089,0.6298828 -0.36621094,0.4833985 -0.55664063,1.2451172 -0.55664063,2.2851563 0,1.90429685 0.64453125,2.92968748 1.86035152,2.92968748 1.1865235,0 1.8457032,-1.02539063 1.8457032,-2.87109378 0,-1.0986328 -0.1757813,-1.8310547 -0.5566407,-2.34375 C 3.1949961,-5.4184297 2.7262461,-5.6528047 2.1989023,-5.6528047 Z m 0,0.6298828 c 0.7470704,0 1.1279297,0.7617188 1.1279297,2.2705078 0,1.6113282 -0.3662109,2.35839848 -1.1425781,2.35839848 -0.7470703,0 -1.1279297,-0.79101558 -1.1279297,-2.32910158 0,-1.5527344 0.3808594,-2.2998047 1.1425781,-2.2998047 z m 3.7573243,4.18945315 h -0.834961 v 0.83496094 h 0.834961 z M 7.0731699,-1.2875703 c 0.131836,0.92285155 0.7324219,1.47949218 1.5966797,1.47949218 0.6298828,0 1.1865234,-0.30761719 1.5234374,-0.80566407 0.351563,-0.55664061 0.512695,-1.24511721 0.512695,-2.27050781 0,-0.9521484 -0.146484,-1.5673828 -0.483398,-2.0654297 -0.3076172,-0.4541015 -0.8056641,-0.703125 -1.4208985,-0.703125 -1.0839843,0 -1.8457031,0.8056641 -1.8457031,1.9042969 0,1.0546875 0.7177735,1.8017578 1.7285156,1.8017578 0.5419922,0 0.9228516,-0.1904297 1.2890625,-0.6298828 0,1.3769531 -0.4541015,2.13867186 -1.2597656,2.13867186 -0.4833984,0 -0.8349609,-0.30761718 -0.9375,-0.84960936 z m 1.7138672,-3.75 c 0.6591797,0 1.1572266,0.5419922 1.1572266,1.2744141 0,0.703125 -0.4980469,1.1865234 -1.171875,1.1865234 -0.6884766,0 -1.0986328,-0.46875 -1.0986328,-1.2158203 0,-0.7177735 0.46875,-1.2451172 1.1132812,-1.2451172 z m 4.4897459,-0.6152344 c -0.527344,0 -1.010742,0.234375 -1.303711,0.6298828 -0.366211,0.4833985 -0.55664,1.2451172 -0.55664,2.2851563 0,1.90429685 0.644531,2.92968748 1.860351,2.92968748 1.186524,0 1.845703,-1.02539063 1.845703,-2.87109378 0,-1.0986328 -0.175781,-1.8310547 -0.55664,-2.34375 -0.292969,-0.3955078 -0.761719,-0.6298828 -1.289063,-0.6298828 z m 0,0.6298828 c 0.747071,0 1.12793,0.7617188 1.12793,2.2705078 0,1.6113282 -0.366211,2.35839848 -1.142578,2.35839848 -0.747071,0 -1.12793,-0.79101558 -1.12793,-2.32910158 0,-1.5527344 0.380859,-2.2998047 1.142578,-2.2998047 z m 0,0"
       style="fill:#000000;fill-opacity:1;fill-rule:nonzero;stroke:none"
       aria-label="0.90"
       transform="matrix(1.0666667,0,0,1.0666667,18.881067,68.576533)" />
    <path
       id="path22"
       d="m 2.1989023,-5.6535879 c -0.5273437,0 -1.0107421,0.234375 -1.30371089,0.6298828 -0.36621094,0.4833985 -0.55664063,1.2451172 -0.55664063,2.2851563 0,1.90429685 0.64453125,2.92968747 1.86035152,2.92968747 1.1865235,0 1.8457032,-1.02539062 1.8457032,-2.87109377 0,-1.0986328 -0.1757813,-1.8310547 -0.5566407,-2.34375 C 3.1949961,-5.4192129 2.7262461,-5.6535879 2.1989023,-5.6535879 Z m 0,0.6298828 c 0.7470704,0 1.1279297,0.7617188 1.1279297,2.2705078 0,1.6113282 -0.3662109,2.35839847 -1.1425781,2.35839847 -0.7470703,0 -1.1279297,-0.79101567 -1.1279297,-2.32910157 0,-1.5527344 0.3808594,-2.2998047 1.1425781,-2.2998047 z m 3.7573243,4.18945315 H 5.1212656 V 7.0898437e-4 h 0.834961 z M 7.0731699,-1.2883535 c 0.131836,0.92285155 0.7324219,1.47949217 1.5966797,1.47949217 0.6298828,0 1.1865234,-0.30761719 1.5234374,-0.80566406 0.351563,-0.55664061 0.512695,-1.24511721 0.512695,-2.27050781 0,-0.9521484 -0.146484,-1.5673828 -0.483398,-2.0654297 -0.3076172,-0.4541016 -0.8056641,-0.703125 -1.4208985,-0.703125 -1.0839843,0 -1.8457031,0.8056641 -1.8457031,1.9042969 0,1.0546875 0.7177735,1.8017578 1.7285156,1.8017578 0.5419922,0 0.9228516,-0.1904297 1.2890625,-0.6298828 0,1.3769531 -0.4541015,2.13867186 -1.2597656,2.13867186 -0.4833984,0 -0.8349609,-0.30761719 -0.9375,-0.84960936 z m 1.7138672,-3.75 c 0.6591797,0 1.1572266,0.5419922 1.1572266,1.274414 0,0.703125 -0.4980469,1.1865235 -1.171875,1.1865235 -0.6884766,0 -1.0986328,-0.46875 -1.0986328,-1.2158203 0,-0.7177735 0.46875,-1.2451172 1.1132812,-1.2451172 z m 6.0864259,-0.6152344 h -2.915039 l -0.424805,3.0761719 h 0.644531 c 0.322266,-0.3808594 0.600586,-0.5273438 1.040039,-0.5273438 0.747071,0 1.230469,0.5273438 1.230469,1.3623047 0,0.80566408 -0.46875,1.30371096 -1.230469,1.30371096 -0.615234,0 -0.996093,-0.30761719 -1.157226,-0.95214846 h -0.703125 c 0.102539,0.46875002 0.175781,0.68847658 0.336914,0.89355471 0.322266,0.43945312 0.893555,0.68847656 1.538086,0.68847656 1.142578,0 1.933594,-0.83496094 1.933594,-2.03613277 0,-1.1132813 -0.747071,-1.875 -1.831055,-1.875 -0.395508,0 -0.703125,0.102539 -1.040039,0.336914 l 0.219726,-1.5673828 h 2.358399 z m 0,0"
       style="fill:#000000;fill-opacity:1;fill-rule:nonzero;stroke:none"
       aria-label="0.95"
       transform="matrix(1.0666667,0,0,1.0666667,18.881067,55.5344)" />
    <path
       id="path23"
       d="M 2.0670664,-4.0283945 V -7.421875e-5 h 0.703125 V -5.6543711 h -0.46875 C 2.052418,-4.7754648 1.8912852,-4.6582773 0.80730078,-4.5264414 v 0.4980469 z m 3.8891602,3.19335934 H 5.1212656 V -7.421875e-5 h 0.834961 z M 8.8456309,-5.6543711 c -0.5273438,0 -1.0107422,0.234375 -1.303711,0.6298828 -0.3662109,0.4833985 -0.5566406,1.2451172 -0.5566406,2.2851563 0,1.90429684 0.6445312,2.92968747 1.8603516,2.92968747 1.1865231,0 1.8457031,-1.02539063 1.8457031,-2.87109377 0,-1.0986328 -0.175781,-1.8310547 -0.556641,-2.34375 C 9.8417246,-5.4199961 9.3729746,-5.6543711 8.8456309,-5.6543711 Z m 0,0.6298828 c 0.7470703,0 1.1279296,0.7617188 1.1279296,2.2705078 0,1.6113282 -0.3662109,2.35839847 -1.1425781,2.35839847 -0.7470703,0 -1.1279297,-0.79101567 -1.1279297,-2.32910157 0,-1.5527344 0.3808594,-2.2998047 1.1425782,-2.2998047 z m 4.4311521,-0.6298828 c -0.527344,0 -1.010742,0.234375 -1.303711,0.6298828 -0.366211,0.4833985 -0.55664,1.2451172 -0.55664,2.2851563 0,1.90429684 0.644531,2.92968747 1.860351,2.92968747 1.186524,0 1.845703,-1.02539063 1.845703,-2.87109377 0,-1.0986328 -0.175781,-1.8310547 -0.55664,-2.34375 -0.292969,-0.3955078 -0.761719,-0.6298828 -1.289063,-0.6298828 z m 0,0.6298828 c 0.747071,0 1.12793,0.7617188 1.12793,2.2705078 0,1.6113282 -0.366211,2.35839847 -1.142578,2.35839847 -0.747071,0 -1.12793,-0.79101567 -1.12793,-2.32910157 0,-1.5527344 0.380859,-2.2998047 1.142578,-2.2998047 z m 0,0"
       style="fill:#000000;fill-opacity:1;fill-rule:nonzero;stroke:none"
       aria-label="1.00"
       transform="matrix(1.0666667,0,0,1.0666667,18.881067,42.492267)" />
    <path
       id="path24"
       d="m 2.0670664,-4.0291777 v 4.02832027813 h 0.703125 V -5.6551543 h -0.46875 C 2.052418,-4.776248 1.8912852,-4.6590605 0.80730078,-4.5272246 v 0.4980469 z m 3.8891602,3.19335934 h -0.834961 v 0.83496093813 h 0.834961 z M 8.8456309,-5.6551543 c -0.5273438,0 -1.0107422,0.234375 -1.303711,0.6298828 -0.3662109,0.4833985 -0.5566406,1.2451172 -0.5566406,2.2851563 0,1.90429684 0.6445312,2.92968747 1.8603516,2.92968747 1.1865231,0 1.8457031,-1.02539063 1.8457031,-2.87109377 0,-1.0986328 -0.175781,-1.8310547 -0.556641,-2.34375 C 9.8417246,-5.4207793 9.3729746,-5.6551543 8.8456309,-5.6551543 Z m 0,0.6298828 c 0.7470703,0 1.1279296,0.7617188 1.1279296,2.2705078 0,1.6113282 -0.3662109,2.35839847 -1.1425781,2.35839847 -0.7470703,0 -1.1279297,-0.79101567 -1.1279297,-2.32910157 0,-1.5527344 0.3808594,-2.2998047 1.1425782,-2.2998047 z m 6.0278321,-0.6298828 h -2.915039 l -0.424805,3.0761719 h 0.644531 c 0.322266,-0.3808594 0.600586,-0.5273438 1.040039,-0.5273438 0.747071,0 1.230469,0.5273438 1.230469,1.3623047 0,0.80566408 -0.46875,1.30371095 -1.230469,1.30371095 -0.615234,0 -0.996093,-0.30761718 -1.157226,-0.95214845 h -0.703125 c 0.102539,0.46875002 0.175781,0.68847658 0.336914,0.8935547 0.322266,0.43945313 0.893555,0.68847657 1.538086,0.68847657 1.142578,0 1.933594,-0.83496094 1.933594,-2.03613277 0,-1.1132813 -0.747071,-1.875 -1.831055,-1.875 -0.395508,0 -0.703125,0.102539 -1.040039,0.336914 l 0.219726,-1.5673828 h 2.358399 z m 0,0"
       style="fill:#000000;fill-opacity:1;fill-rule:nonzero;stroke:none"
       aria-label="1.05"
       transform="matrix(1.0666667,0,0,1.0666667,18.881067,29.450133)" />
    <path
       id="path25"
       d="m 2.0670664,-4.0299609 v 4.02832027 h 0.703125 V -5.6559375 h -0.46875 C 2.052418,-4.7770313 1.8912852,-4.6598438 0.80730078,-4.5280078 v 0.4980469 z m 3.8891602,3.19335934 h -0.834961 v 0.83496093 h 0.834961 z M 8.7137949,-4.0299609 v 4.02832027 h 0.703125 V -5.6559375 h -0.46875 c -0.2490234,0.8789062 -0.4101562,0.9960937 -1.4941406,1.1279297 v 0.4980469 z m 4.5629881,-1.6259766 c -0.527344,0 -1.010742,0.234375 -1.303711,0.6298828 -0.366211,0.4833984 -0.55664,1.2451172 -0.55664,2.2851563 0,1.90429684 0.644531,2.92968746 1.860351,2.92968746 1.186524,0 1.845703,-1.02539062 1.845703,-2.87109376 0,-1.0986328 -0.175781,-1.8310547 -0.55664,-2.34375 -0.292969,-0.3955078 -0.761719,-0.6298828 -1.289063,-0.6298828 z m 0,0.6298828 c 0.747071,0 1.12793,0.7617188 1.12793,2.2705078 0,1.6113281 -0.366211,2.35839846 -1.142578,2.35839846 -0.747071,0 -1.12793,-0.79101566 -1.12793,-2.32910156 0,-1.5527344 0.380859,-2.2998047 1.142578,-2.2998047 z m 0,0"
       style="fill:#000000;fill-opacity:1;fill-rule:nonzero;stroke:none"
       aria-label="1.10"
       transform="matrix(1.0666667,0,0,1.0666667,18.881067,16.408)" />
    <path
       id="path26"
       d="m -14.94415,0 h 29.8883 v 149.1688 h -29.8883 z M 31.3109,0 H 61.1992 V 29.34468 H 31.3109 Z m 46.25506,0 h 29.8883 v 70.9163 h -29.8883 z m 46.25505,0 h 29.8883 v 102.70638 h -29.8883 z"
       style="fill:#dbfda6;fill-opacity:1;fill-rule:nonzero;stroke:#495938;stroke-width:0.99628;stroke-linecap:butt;stroke-linejoin:miter;stroke-miterlimit:10;stroke-dasharray:none;stroke-opacity:1"
       transform="matrix(1.0666667,0,0,-1.0666667,71.8048,172.57867)"
       clip-path="url(#clipPath27)" />
    <path
       id="path28"
       d="M 1.4647695,-2.652459 H 4.628832 V -3.2969902 H 1.4647695 v -1.8603516 h 3.28125 V -5.8165215 H 0.71769922 v 5.8154297 H 4.8778555 v -0.65917968 h -3.413086 z m 6.1816407,0.4980469 1.40625,-2.0214844 H 8.2909414 L 7.2948477,-2.6671074 6.2841055,-4.1758965 H 5.5370352 l 1.3916015,2.0507813 -1.4794922,2.1240234 h 0.7617188 l 1.0546875,-1.5966797 1.0546875,1.5966797 H 9.081957 Z m 5.5114748,0.2929687 c 0,-0.6445312 -0.04395,-1.0253906 -0.161133,-1.3330078 -0.27832,-0.6884765 -0.908203,-1.0986328 -1.699219,-1.0986328 -1.157226,0 -1.9042967,0.8935547 -1.9042967,2.2558594 0,1.37695312 0.7177737,2.22656249 1.8896487,2.22656249 0.966797,0 1.625976,-0.54199219 1.787109,-1.45019529 h -0.673828 c -0.175781,0.54199217 -0.556641,0.83496092 -1.083984,0.83496092 -0.424805,0 -0.776368,-0.19042969 -1.010743,-0.54199219 C 10.140307,-1.2169121 10.096361,-1.4512871 10.081713,-1.8614434 Z m -3.061524,-0.5419921 c 0.05859,-0.7763672 0.527344,-1.2744141 1.201172,-1.2744141 0.644531,0 1.157227,0.5419922 1.157227,1.2158203 0,0.029297 0,0.043945 -0.01465,0.058594 z m 7.155762,-0.366211 c -0.0293,-0.4101562 -0.117187,-0.6738281 -0.27832,-0.9082031 -0.278321,-0.3808594 -0.791016,-0.6152344 -1.362305,-0.6152344 -1.12793,0 -1.860352,0.8935547 -1.860352,2.2705078 0,1.34765628 0.717774,2.21191409 1.845704,2.21191409 0.996093,0 1.625976,-0.60058594 1.699218,-1.62597659 h -0.659179 c -0.117188,0.67382815 -0.454102,1.01074222 -1.025391,1.01074222 -0.732422,0 -1.171875,-0.60058592 -1.171875,-1.59667972 0,-1.040039 0.439453,-1.6552734 1.157227,-1.6552734 0.55664,0 0.908203,0.3222656 0.996093,0.9082031 z m 4.072266,2.7685547 v -4.1748047 h -0.65918 v 2.3730469 c 0,0.84960937 -0.439453,1.40624999 -1.142578,1.40624999 -0.527344,0 -0.84961,-0.32226562 -0.84961,-0.82031249 v -2.9589844 h -0.673828 v 3.22265627 c 0,0.68847656 0.527344,1.14257812 1.333008,1.14257812 0.615235,0 1.010742,-0.21972656 1.391602,-0.77636719 v 0.5859375 z m 2.614746,-4.1748047 h -0.688477 v -1.1425781 h -0.659179 v 1.1425781 h -0.556641 v 0.5419922 h 0.556641 v 3.14941407 c 0,0.42480468 0.292968,0.67382812 0.805664,0.67382812 0.161132,0 0.322265,-0.0292969 0.541992,-0.0585938 v -0.55664062 c -0.08789,0.0146484 -0.19043,0.0292969 -0.322266,0.0292969 -0.27832,0 -0.366211,-0.0878906 -0.366211,-0.38085937 v -2.8564453 h 0.688477 z m 1.387939,0 h -0.673828 v 4.1748047 h 0.673828 z m 0,-1.640625 h -0.673828 v 0.8496094 h 0.673828 z m 2.735596,1.5234375 c -1.171875,0 -1.875,0.834961 -1.875,2.241211 0,1.39160152 0.688476,2.24121089 1.889648,2.24121089 1.157227,0 1.875,-0.84960937 1.875,-2.21191409 0,-1.4501953 -0.688476,-2.2705078 -1.889648,-2.2705078 z m 0.01465,0.6152344 c 0.747071,0 1.186524,0.6152344 1.186524,1.640625 0,0.9814453 -0.454102,1.61132812 -1.186524,1.61132812 -0.74707,0 -1.201172,-0.61523442 -1.201172,-1.62597652 0,-1.0107422 0.454102,-1.6259766 1.201172,-1.6259766 z m 2.805176,-0.4980469 v 4.1748047 h 0.673828 v -2.2998047 c 0,-0.8496094 0.439453,-1.4208984 1.12793,-1.4208984 0.527344,0 0.864258,0.3222656 0.864258,0.8349609 v 2.8857422 h 0.659179 v -3.1494141 c 0,-0.703125 -0.512695,-1.1425781 -1.318359,-1.1425781 -0.629883,0 -1.025391,0.234375 -1.391601,0.8203125 v -0.703125 z m 8.917236,-0.9814453 h 1.904297 v -0.6591797 h -4.570312 v 0.6591797 h 1.918945 v 5.15625 h 0.74707 z m 3.244629,0.9814453 h -0.673828 v 4.1748047 h 0.673828 z m 0,-1.640625 h -0.673828 v 0.8496094 h 0.673828 z m 1.124268,1.640625 v 4.1748047 h 0.673828 v -2.6220703 c 0,-0.6005859 0.439453,-1.0986328 0.981445,-1.0986328 0.483399,0 0.761719,0.3076172 0.761719,0.8496094 v 2.8710937 h 0.673828 v -2.6220703 c 0,-0.6005859 0.439453,-1.0986328 0.981446,-1.0986328 0.483398,0 0.776367,0.3222656 0.776367,0.8496094 v 2.8710937 h 0.673828 v -3.1347656 c 0,-0.7470703 -0.439453,-1.1572266 -1.21582,-1.1572266 -0.556641,0 -0.893555,0.1611328 -1.289063,0.6298828 -0.249023,-0.4394531 -0.571289,-0.6298828 -1.113281,-0.6298828 -0.571289,0 -0.9375,0.2050781 -1.289063,0.703125 v -0.5859375 z m 10.169678,2.3144531 c 0,-0.6445312 -0.04395,-1.0253906 -0.161133,-1.3330078 -0.27832,-0.6884765 -0.908203,-1.0986328 -1.699219,-1.0986328 -1.157226,0 -1.904297,0.8935547 -1.904297,2.2558594 0,1.37695312 0.717774,2.22656249 1.889649,2.22656249 0.966797,0 1.625976,-0.54199219 1.787109,-1.45019529 h -0.673828 c -0.175781,0.54199217 -0.556641,0.83496092 -1.083984,0.83496092 -0.424805,0 -0.776368,-0.19042969 -1.010743,-0.54199219 -0.161134,-0.24902343 -0.20508,-0.48339843 -0.219728,-0.89355473 z m -3.061524,-0.5419921 c 0.05859,-0.7763672 0.527344,-1.2744141 1.201172,-1.2744141 0.644531,0 1.157227,0.5419922 1.157227,1.2158203 0,0.029297 0,0.043945 -0.01465,0.058594 z m 7.496338,-3.413086 c -0.791015,1.0546875 -1.289062,2.5048828 -1.289062,3.75 0,1.25976564 0.498047,2.70996095 1.289062,3.75 h 0.439453 c -0.703125,-1.12792967 -1.083984,-2.47558592 -1.083984,-3.75 0,-1.2597656 0.380859,-2.6074219 1.083984,-3.75 z m 4.266358,2.7978516 c 0,-0.8203125 -0.541993,-1.2744141 -1.50879,-1.2744141 -0.966796,0 -1.596679,0.4980469 -1.596679,1.2744141 0,0.6445312 0.322265,0.9667969 1.318359,1.2011719 l 0.615235,0.1464843 c 0.46875,0.1171875 0.644531,0.2783203 0.644531,0.5859375 0,0.39550784 -0.38086,0.65917972 -0.966797,0.65917972 -0.351563,0 -0.65918,-0.10253907 -0.834961,-0.27832032 -0.102539,-0.13183593 -0.146484,-0.24902343 -0.19043,-0.5419922 H 59.81682 c 0.04395,0.96679689 0.585938,1.43554689 1.669922,1.43554689 1.054688,0 1.728516,-0.52734375 1.728516,-1.33300779 0,-0.6152344 -0.351563,-0.9667969 -1.186524,-1.1572266 l -0.629882,-0.1611328 c -0.541993,-0.1171875 -0.776368,-0.2929687 -0.776368,-0.5859375 0,-0.3808594 0.336914,-0.6298828 0.878907,-0.6298828 0.541992,0 0.820312,0.2197266 0.834961,0.6591797 z m 4.58496,1.1572265 c 0,-0.6445312 -0.04394,-1.0253906 -0.161132,-1.3330078 -0.278321,-0.6884765 -0.908203,-1.0986328 -1.699219,-1.0986328 -1.157227,0 -1.904297,0.8935547 -1.904297,2.2558594 0,1.37695312 0.717773,2.22656249 1.889648,2.22656249 0.966797,0 1.625977,-0.54199219 1.78711,-1.45019529 h -0.673828 c -0.175782,0.54199217 -0.556641,0.83496092 -1.083985,0.83496092 -0.424804,0 -0.776367,-0.19042969 -1.010742,-0.54199219 -0.161135,-0.24902343 -0.20508,-0.48339843 -0.219728,-0.89355473 z m -3.061523,-0.5419921 c 0.05859,-0.7763672 0.527344,-1.2744141 1.201172,-1.2744141 0.644531,0 1.157226,0.5419922 1.157226,1.2158203 0,0.029297 0,0.043945 -0.01465,0.058594 z m 7.155762,-0.366211 c -0.0293,-0.4101562 -0.117188,-0.6738281 -0.278321,-0.9082031 -0.27832,-0.3808594 -0.791015,-0.6152344 -1.362304,-0.6152344 -1.12793,0 -1.860352,0.8935547 -1.860352,2.2705078 0,1.34765628 0.717774,2.21191409 1.845703,2.21191409 0.996094,0 1.625977,-0.60058594 1.699219,-1.62597659 h -0.65918 c -0.117187,0.67382815 -0.454101,1.01074222 -1.02539,1.01074222 -0.732422,0 -1.171875,-0.60058592 -1.171875,-1.59667972 0,-1.040039 0.439453,-1.6552734 1.157226,-1.6552734 0.556641,0 0.908203,0.3222656 0.996094,0.9082031 z M 74.12102,-4.293084 c -1.171875,0 -1.875,0.834961 -1.875,2.241211 0,1.39160152 0.688476,2.24121089 1.889648,2.24121089 1.157227,0 1.875,-0.84960937 1.875,-2.21191409 0,-1.4501953 -0.688477,-2.2705078 -1.889648,-2.2705078 z m 0.01465,0.6152344 c 0.74707,0 1.186523,0.6152344 1.186523,1.640625 0,0.9814453 -0.454101,1.61132812 -1.186523,1.61132812 -0.74707,0 -1.201172,-0.61523442 -1.201172,-1.62597652 0,-1.0107422 0.454102,-1.6259766 1.201172,-1.6259766 z m 2.805176,-0.4980469 v 4.1748047 h 0.673828 v -2.2998047 c 0,-0.8496094 0.439453,-1.4208984 1.12793,-1.4208984 0.527343,0 0.864257,0.3222656 0.864257,0.8349609 v 2.8857422 h 0.65918 v -3.1494141 c 0,-0.703125 -0.512695,-1.1425781 -1.318359,-1.1425781 -0.629883,0 -1.025391,0.234375 -1.391602,0.8203125 v -0.703125 z m 7.814941,-1.640625 h -0.65918 v 2.1679688 c -0.27832,-0.4248047 -0.717773,-0.6445313 -1.274414,-0.6445313 -1.083984,0 -1.801757,0.8642578 -1.801757,2.1972656 0,1.40625004 0.688476,2.28515629 1.816406,2.28515629 0.571289,0 0.981445,-0.21972656 1.333008,-0.74707031 v 0.55664062 h 0.585937 z m -1.831055,2.1386719 c 0.717774,0 1.171875,0.6445312 1.171875,1.640625 0,0.9667969 -0.454101,1.59667968 -1.157226,1.59667968 -0.732422,0 -1.230469,-0.64453128 -1.230469,-1.61132808 0,-0.9814454 0.498047,-1.6259766 1.21582,-1.6259766 z m 5.808106,0.6591797 c 0,-0.8203125 -0.541992,-1.2744141 -1.508789,-1.2744141 -0.966797,0 -1.59668,0.4980469 -1.59668,1.2744141 0,0.6445312 0.322266,0.9667969 1.31836,1.2011719 l 0.615234,0.1464843 c 0.46875,0.1171875 0.644531,0.2783203 0.644531,0.5859375 0,0.39550784 -0.380859,0.65917972 -0.966797,0.65917972 -0.351562,0 -0.659179,-0.10253907 -0.834961,-0.27832032 C 86.301195,-0.83605273 86.25725,-0.95324023 86.213305,-1.246209 H 85.51018 c 0.04394,0.96679689 0.585937,1.43554689 1.669922,1.43554689 1.054687,0 1.728515,-0.52734375 1.728515,-1.33300779 0,-0.6152344 -0.351562,-0.9667969 -1.186523,-1.1572266 l -0.629883,-0.1611328 c -0.541992,-0.1171875 -0.776367,-0.2929687 -0.776367,-0.5859375 0,-0.3808594 0.336914,-0.6298828 0.878906,-0.6298828 0.541992,0 0.820312,0.2197266 0.834961,0.6591797 z m 1.248779,4.7021484 c 0.791016,-1.04003905 1.289063,-2.49023436 1.289063,-3.7353515 0,-1.2597657 -0.498047,-2.709961 -1.289063,-3.7646485 h -0.439453 c 0.703125,1.1425781 1.083984,2.4902344 1.083984,3.7646485 0,1.25976558 -0.380859,2.60742183 -1.083984,3.7353515 z m 0,0"
       style="fill:#000000;fill-opacity:1;fill-rule:nonzero;stroke:none"
       aria-label="ExecutionTime(seconds)"
       transform="matrix(0,-1.0666667,1.0666667,0,9.7941333,135.50773)" />
  </g>
</svg>
