<?xml version="1.0" encoding="UTF-8" standalone="no"?>
<!-- Created with Inkscape (http://www.inkscape.org/) -->

<svg
   version="1.1"
   id="svg1"
   width="585.8573"
   height="76.58667"
   viewBox="0 0 585.8573 76.58667"
   xmlns="http://www.w3.org/2000/svg"
   xmlns:svg="http://www.w3.org/2000/svg">
  <defs
     id="defs1" />
  <g
     id="g1">
    <path
       id="path1"
       d="M -44.51277,-28.3468 H 44.51277 V 28.34682 H -44.51277 Z"
       style="fill:#d1f3ff;fill-opacity:1;fill-rule:nonzero;stroke:#2294bd;stroke-width:0.74721;stroke-linecap:butt;stroke-linejoin:miter;stroke-miterlimit:10;stroke-dasharray:none;stroke-opacity:1"
       transform="matrix(1.3333333,0,0,-1.3333333,59.848,38.293333)" />
    <path
       id="path2"
       d="M 0.69085156,-3.125e-4 H 3.2455391 c 0.9960937,0 1.6171875,-0.234375 2.0625,-0.76171875 0.515625,-0.60937495 0.796875,-1.49999995 0.796875,-2.50781245 0,-1.0078125 -0.28125,-1.8984375 -0.796875,-2.5078125 C 4.8627266,-6.3167187 4.2533516,-6.539375 3.2455391,-6.539375 H 0.69085156 Z m 1.34765624,-1.125 V -5.414375 h 1.2070313 c 1.0078125,0 1.5117187,0.703125 1.5117187,2.15625 0,1.4296875 -0.5039062,2.1328125 -1.5117187,2.1328125 z m 9.1347652,0.97265625 C 10.950617,-0.36359375 10.880305,-0.4925 10.880305,-0.73859375 V -3.4339062 c 0,-0.984375 -0.667969,-1.4882813 -1.9804691,-1.4882813 -1.3007812,0 -1.9921875,0.5507813 -2.0625,1.6757813 h 1.2070313 c 0.058594,-0.5039063 0.2695312,-0.6679688 0.890625,-0.6679688 0.4804687,0 0.7265625,0.1640625 0.7265625,0.4921875 0,0.1640625 -0.082031,0.3046875 -0.2226563,0.375 -0.1640625,0.09375 -0.1640625,0.09375 -0.7851562,0.1875 l -0.5039063,0.09375 C 7.1888984,-2.6135937 6.7201484,-2.1214062 6.7201484,-1.2425 c 0,0.41015625 0.1171875,0.75 0.3398438,0.99609375 0.28125,0.28125 0.703125,0.45703125 1.1367187,0.45703125 0.5390625,0 1.03125,-0.234375 1.4648438,-0.69140625 0,0.24609375 0.035156,0.33984375 0.1523437,0.48046875 H 11.173273 Z M 9.6615547,-1.945625 c 0,0.7265625 -0.3632813,1.13671875 -0.9960938,1.13671875 -0.421875,0 -0.6796875,-0.22265625 -0.6796875,-0.58593745 0,-0.375 0.1875,-0.5507813 0.7148438,-0.65625 l 0.421875,-0.082031 c 0.3398437,-0.058594 0.3867187,-0.082031 0.5390625,-0.1523437 z m 4.4941403,-2.8007812 h -0.691406 v -1.3007813 h -1.265625 v 1.3007813 h -0.609375 v 0.8320312 h 0.609375 v 2.9765625 c 0,0.76171875 0.410156,1.1484375 1.230469,1.1484375 0.28125,0 0.503906,-0.0351563 0.726562,-0.10546875 V -0.77375 c -0.117187,0.0234375 -0.199218,0.0351563 -0.28125,0.0351563 -0.339843,0 -0.410156,-0.10546875 -0.410156,-0.5390624 V -3.914375 h 0.691406 z m 4.989258,4.59374995 C 18.922297,-0.36359375 18.851984,-0.4925 18.851984,-0.73859375 V -3.4339062 c 0,-0.984375 -0.667968,-1.4882813 -1.980468,-1.4882813 -1.300782,0 -1.992188,0.5507813 -2.0625,1.6757813 h 1.207031 c 0.05859,-0.5039063 0.269531,-0.6679688 0.890625,-0.6679688 0.480469,0 0.726562,0.1640625 0.726562,0.4921875 0,0.1640625 -0.08203,0.3046875 -0.222656,0.375 -0.164062,0.09375 -0.164062,0.09375 -0.785156,0.1875 l -0.503906,0.09375 c -0.960938,0.1523438 -1.429688,0.6445313 -1.429688,1.5234375 0,0.41015625 0.117188,0.75 0.339844,0.99609375 0.28125,0.28125 0.703125,0.45703125 1.136719,0.45703125 0.539062,0 1.03125,-0.234375 1.464843,-0.69140625 0,0.24609375 0.03516,0.33984375 0.152344,0.48046875 h 1.359375 z M 17.633234,-1.945625 c 0,0.7265625 -0.363281,1.13671875 -0.996093,1.13671875 -0.421875,0 -0.679688,-0.22265625 -0.679688,-0.58593745 0,-0.375 0.1875,-0.5507813 0.714844,-0.65625 l 0.421875,-0.082031 c 0.339844,-0.058594 0.386719,-0.082031 0.539062,-0.1523437 z m 6.307618,-0.3867187 h 1.675781 c 1.195312,0 1.96875,-0.8554688 1.96875,-2.1796875 0,-1.3007813 -0.738281,-2.0273438 -2.109375,-2.0273438 h -2.882813 v 6.5390625 h 1.347657 z m 0,-1.125 V -5.414375 h 1.253906 c 0.714844,0 1.042969,0.3164063 1.042969,0.984375 0,0.6679688 -0.328125,0.9726563 -1.042969,0.9726563 z m 5.803711,-1.3828125 h -1.253907 v 4.8398437 h 1.253907 z m 0,-1.6992188 h -1.253907 v 1.125 h 1.253907 z m 2.411132,1.6992188 h -1.253906 v 6.796875 h 1.253906 v -2.53125005 c 0.304688,0.5390625 0.738282,0.78515625 1.347657,0.78515625 1.171875,0 2.027343,-1.08984375 2.027343,-2.5546875 0,-0.6914062 -0.199218,-1.3710937 -0.515625,-1.8164062 -0.328125,-0.4570313 -0.925781,-0.7617188 -1.511718,-0.7617188 -0.609375,0 -1.042969,0.2578125 -1.347657,0.796875 z M 33.222102,-3.8675 c 0.632812,0 1.054687,0.609375 1.054687,1.5351563 0,0.8789062 -0.433594,1.49999995 -1.054687,1.49999995 -0.632813,0 -1.066407,-0.60937495 -1.066407,-1.51171875 0,-0.9140625 0.433594,-1.5234375 1.066407,-1.5234375 z m 7.341796,1.8398438 c 0.01172,-0.1054688 0.01172,-0.1523438 0.01172,-0.2109375 0,-0.4921875 -0.07031,-0.9375 -0.1875,-1.2773438 -0.328125,-0.8789062 -1.113281,-1.40625 -2.085937,-1.40625 -1.382813,0 -2.238282,1.0078125 -2.238282,2.625 0,1.55859375 0.84375,2.5078125 2.214844,2.5078125 1.078125,0 1.957031,-0.62109375 2.238281,-1.5703125 h -1.242187 c -0.152344,0.38671875 -0.492188,0.609375 -0.949219,0.609375 -0.363281,0 -0.644531,-0.15234375 -0.832031,-0.421875 -0.117188,-0.1875 -0.164063,-0.3984375 -0.175781,-0.8554687 z m -3.234375,-0.8320313 c 0.08203,-0.7382812 0.398438,-1.1015625 0.960938,-1.1015625 0.304687,0 0.597656,0.1523438 0.773437,0.3984375 0.117188,0.1875 0.175782,0.375 0.199219,0.703125 z M 42.70257,-6.539375 h -1.253906 v 6.5390625 h 1.253906 z m 2.493164,1.6992188 h -1.253906 v 4.8398437 h 1.253906 z m 0,-1.6992188 h -1.253906 v 1.125 h 1.253906 z m 1.204102,1.6992188 v 4.8398437 h 1.253906 v -2.90625 c 0,-0.5742187 0.410156,-0.9492187 1.019531,-0.9492187 0.539063,0 0.808594,0.2929687 0.808594,0.8671875 v 2.9882812 h 1.253906 v -3.2460937 c 0,-1.0664063 -0.597656,-1.6757813 -1.628906,-1.6757813 -0.65625,0 -1.089844,0.2460938 -1.453125,0.7851563 v -0.703125 z m 9.615234,2.8125 C 56.02679,-2.133125 56.02679,-2.18 56.02679,-2.2385937 c 0,-0.4921875 -0.07031,-0.9375 -0.1875,-1.2773438 -0.328125,-0.8789062 -1.113281,-1.40625 -2.085937,-1.40625 -1.382813,0 -2.238282,1.0078125 -2.238282,2.625 0,1.55859375 0.84375,2.5078125 2.214844,2.5078125 1.078125,0 1.957031,-0.62109375 2.238281,-1.5703125 h -1.242187 c -0.152344,0.38671875 -0.492188,0.609375 -0.949219,0.609375 -0.363281,0 -0.644531,-0.15234375 -0.832031,-0.421875 -0.117188,-0.1875 -0.164063,-0.3984375 -0.175781,-0.8554687 z m -3.234375,-0.8320313 c 0.08203,-0.7382812 0.398438,-1.1015625 0.960938,-1.1015625 0.304687,0 0.597656,0.1523438 0.773437,0.3984375 0.117188,0.1875 0.175782,0.375 0.199219,0.703125 z m 0,0"
       style="fill:#000000;fill-opacity:1;fill-rule:nonzero;stroke:none"
       aria-label="DataPipeline"
       transform="matrix(1.3333333,0,0,1.3333333,22.309333,19.406667)" />
    <path
       id="path3"
       d="M 1.7346406,-6.5403437 H 0.89089063 v 6.53906245 H 1.7346406 Z M 3.1262422,-4.7005 v 4.69921875 h 0.75 V -2.591125 c 0,-0.9609375 0.5039062,-1.5820312 1.265625,-1.5820312 0.5976562,0 0.9726562,0.3515625 0.9726562,0.9140625 v 3.25781245 h 0.75 V -3.5520625 c 0,-0.7734375 -0.5859375,-1.2773437 -1.4882812,-1.2773437 -0.703125,0 -1.1484375,0.2695312 -1.5703125,0.9140625 V -4.7005 Z m 8.0419918,0 v 0.6796875 c -0.375,-0.5507812 -0.832031,-0.8085937 -1.4296871,-0.8085937 -1.1953125,0 -2.0039063,1.03125 -2.0039063,2.5546875 0,0.7734375 0.2109375,1.40624995 0.5976563,1.85156245 0.3515625,0.3984375 0.84375,0.6328125 1.3359375,0.6328125 0.5976566,0 1.0078126,-0.2578125 1.4296876,-0.84375 v 0.234375 c 0,0.64453125 -0.08203,1.03125 -0.269531,1.2890625 C 10.629172,1.158875 10.242453,1.3229375 9.7854219,1.3229375 c -0.3398438,0 -0.6445313,-0.082031 -0.84375,-0.2460937 C 8.7658906,0.93621875 8.6955781,0.81903125 8.6487031,0.53778125 H 7.8869844 C 7.9690156,1.4284063 8.6604219,1.95575 9.7619844,1.95575 10.465109,1.95575 11.062766,1.7330938 11.367453,1.3580938 11.730734,0.9245 11.859641,0.32684375 11.859641,-0.77471875 V -4.7005 Z M 9.8205781,-4.138 c 0.8085939,0 1.2773439,0.6796875 1.2773439,1.8515625 0,1.125 -0.480469,1.8046875 -1.2773439,1.8046875 -0.8085937,0 -1.3007812,-0.6914062 -1.3007812,-1.828125 0,-1.1367187 0.5039062,-1.828125 1.3007812,-1.828125 z m 7.2363279,2.0390625 c 0,-0.7148437 -0.04687,-1.1484375 -0.1875,-1.5 -0.304687,-0.7734375 -1.019531,-1.2304687 -1.898437,-1.2304687 -1.300781,0 -2.144531,0.9960937 -2.144531,2.5429687 0,1.546875 0.808593,2.49609375 2.132812,2.49609375 1.066406,0 1.816406,-0.609375 2.003906,-1.64062495 h -0.75 c -0.210937,0.6210937 -0.632812,0.9492187 -1.230468,0.9492187 -0.480469,0 -0.878907,-0.22265625 -1.125,-0.609375 -0.1875,-0.2695312 -0.246094,-0.5390625 -0.257813,-1.0078125 z m -3.433593,-0.609375 C 13.681906,-3.5755 14.20925,-4.138 14.95925,-4.138 c 0.738281,0 1.300781,0.609375 1.300781,1.3710938 0,0.023437 0,0.035156 0,0.058594 z M 21.375266,-3.388 c -0.01172,-0.9257812 -0.621094,-1.4414062 -1.699219,-1.4414062 -1.101563,0 -1.804688,0.5625 -1.804688,1.4296875 0,0.7382812 0.375,1.0898437 1.488282,1.359375 l 0.703125,0.1640625 c 0.515625,0.1289062 0.726562,0.3164062 0.726562,0.65625 0,0.4335937 -0.445312,0.7382812 -1.101562,0.7382812 -0.398438,0 -0.738282,-0.1171875 -0.925782,-0.31640625 -0.117187,-0.140625 -0.175781,-0.26953125 -0.222656,-0.59765625 h -0.785156 c 0.03516,1.078125 0.644531,1.60546875 1.875,1.60546875 1.183594,0 1.933594,-0.5859375 1.933594,-1.48828125 0,-0.703125 -0.398438,-1.0898437 -1.324219,-1.3125 l -0.714844,-0.1757812 c -0.609375,-0.140625 -0.867187,-0.3398438 -0.867187,-0.6679688 0,-0.4335937 0.375,-0.703125 0.984375,-0.703125 0.609375,0 0.925781,0.2578125 0.949218,0.75 z m 2.830078,-1.3125 h -0.761719 v -1.2890625 h -0.75 V -4.7005 h -0.632812 v 0.609375 h 0.632812 v 3.55078125 c 0,0.48046875 0.328125,0.75 0.902344,0.75 0.1875,0 0.363281,-0.0234375 0.609375,-0.0703125 V -0.48175 c -0.09375,0.0234375 -0.210938,0.0351563 -0.351563,0.0351563 -0.328125,0 -0.410156,-0.09375 -0.410156,-0.421875 V -4.091125 h 0.761719 z m 1.567383,0 h -0.75 v 4.69921875 h 0.75 z m 0,-1.8398437 h -0.761719 v 0.9492187 h 0.761719 z m 3.079101,1.7109375 c -1.3125,0 -2.109375,0.9375 -2.109375,2.5195312 0,1.5703125 0.785156,2.51953125 2.121094,2.51953125 1.3125,0 2.121094,-0.94921875 2.121094,-2.48437495 0,-1.6289063 -0.773438,-2.5546875 -2.132813,-2.5546875 z M 28.863547,-4.138 c 0.84375,0 1.347656,0.6796875 1.347656,1.8515625 0,1.1015625 -0.527344,1.8046875 -1.347656,1.8046875 -0.832031,0 -1.347656,-0.6914062 -1.347656,-1.828125 0,-1.1367187 0.515625,-1.828125 1.347656,-1.828125 z m 3.169922,-0.5625 v 4.69921875 h 0.75 V -2.591125 c 0,-0.9609375 0.503906,-1.5820312 1.265625,-1.5820312 0.597656,0 0.972656,0.3515625 0.972656,0.9140625 v 3.25781245 h 0.75 V -3.5520625 c 0,-0.7734375 -0.585937,-1.2773437 -1.488281,-1.2773437 -0.703125,0 -1.148438,0.2695312 -1.570313,0.9140625 V -4.7005 Z m 5.138672,3.76171875 v 0.9375 h 0.527343 v 0.1640625 c 0,0.62109375 -0.105468,0.796875 -0.527343,0.80859375 v 0.3398438 c 0.621093,0 0.9375,-0.39843755 0.9375,-1.17187505 v -1.078125 z m 0,0"
       style="fill:#000000;fill-opacity:1;fill-rule:nonzero;stroke:none"
       aria-label="Ingestion,"
       transform="matrix(1.3333333,0,0,1.3333333,33.929333,34.017333)" />
    <path
       id="path4"
       d="m 1.652625,-2.7659453 h 2.0507813 c 0.515625,0 0.9140625,-0.1523438 1.265625,-0.46875 0.3867187,-0.3632813 0.5625,-0.7851563 0.5625,-1.3828125 0,-1.2304688 -0.7265625,-1.921875 -2.015625,-1.921875 H 0.82059375 V -3.203125e-4 H 1.652625 Z m 0,-0.7382813 v -2.296875 H 3.387 c 0.796875,0 1.2773438,0.4335938 1.2773438,1.1484375 0,0.7148438 -0.4804688,1.1484375 -1.2773438,1.1484375 z m 4.9482422,-1.1953125 v 4.6992187875 h 0.75 V -2.4378203 c 0,-0.6679688 0.1757812,-1.1132813 0.5273437,-1.3710938 0.234375,-0.1757812 0.4570313,-0.2226562 0.984375,-0.234375 v -0.7617187 c -0.1289062,-0.023437 -0.1992187,-0.023437 -0.2929687,-0.023437 -0.4804688,0 -0.8554688,0.28125 -1.2773438,0.984375 v -0.8554688 z m 6.9580078,2.6015625 c 0,-0.7148437 -0.04687,-1.1484375 -0.1875,-1.5 -0.304687,-0.7734375 -1.019531,-1.2304687 -1.898437,-1.2304687 -1.300782,0 -2.1445317,0.9960937 -2.1445317,2.5429687 0,1.54687504 0.8085937,2.49609379 2.1328127,2.49609379 1.066406,0 1.816406,-0.609375 2.003906,-1.64062499 h -0.75 c -0.210937,0.62109374 -0.632812,0.94921874 -1.230469,0.94921874 -0.480468,0 -0.878906,-0.22265625 -1.125,-0.60937504 -0.1875,-0.2695312 -0.246093,-0.5390625 -0.257812,-1.0078125 z m -3.433594,-0.609375 c 0.05859,-0.8671875 0.585938,-1.4296875 1.335938,-1.4296875 0.738281,0 1.300781,0.609375 1.300781,1.3710938 0,0.023437 0,0.035156 0,0.058594 z m 4.306641,4.6640625 h 0.761719 v -2.44921871 c 0.386718,0.48046875 0.832031,0.703125 1.441406,0.703125 1.207031,0 2.003906,-0.984375 2.003906,-2.48437499 0,-1.5703125 -0.773437,-2.5546875 -2.015625,-2.5546875 -0.632812,0 -1.148437,0.28125 -1.5,0.84375 v -0.7148438 h -0.691406 z m 2.0625,-6.09375 c 0.832031,0 1.371094,0.7265625 1.371094,1.8515625 0,1.0664063 -0.550782,1.79296879 -1.371094,1.79296879 -0.785156,0 -1.300781,-0.71484379 -1.300781,-1.81640629 0,-1.1015625 0.515625,-1.828125 1.300781,-1.828125 z m 3.064453,-0.5625 v 4.6992187875 h 0.75 V -2.4378203 c 0,-0.6679688 0.175781,-1.1132813 0.527344,-1.3710938 0.234375,-0.1757812 0.457031,-0.2226562 0.984375,-0.234375 v -0.7617187 c -0.128906,-0.023437 -0.199219,-0.023437 -0.292969,-0.023437 -0.480469,0 -0.855469,0.28125 -1.277344,0.984375 v -0.8554688 z m 4.801758,-0.1289062 c -1.3125,0 -2.109375,0.9375 -2.109375,2.5195312 0,1.57031254 0.785156,2.51953129 2.121094,2.51953129 1.3125,0 2.121093,-0.94921875 2.121093,-2.48437499 0,-1.6289063 -0.773437,-2.5546875 -2.132812,-2.5546875 z m 0.01172,0.6914062 c 0.84375,0 1.347656,0.6796875 1.347656,1.8515625 0,1.1015625 -0.527344,1.80468754 -1.347656,1.80468754 -0.832032,0 -1.347657,-0.69140624 -1.347657,-1.82812504 0,-1.1367187 0.515625,-1.828125 1.347657,-1.828125 z m 6.755859,1.0195313 c -0.03516,-0.4570313 -0.128906,-0.75 -0.304688,-1.0195313 -0.328125,-0.4335937 -0.890625,-0.6914062 -1.546875,-0.6914062 -1.265625,0 -2.085937,0.9960937 -2.085937,2.5546875 0,1.52343749 0.808594,2.48437499 2.074219,2.48437499 1.125,0 1.828125,-0.6796875 1.921875,-1.82812499 h -0.75 c -0.128907,0.76171874 -0.515625,1.13671874 -1.148438,1.13671874 -0.832031,0 -1.324219,-0.67968754 -1.324219,-1.79296874 0,-1.171875 0.492188,-1.8632813 1.300782,-1.8632813 0.632812,0 1.019531,0.3632813 1.113281,1.0195313 z m 4.857422,1.0195312 c 0,-0.7148437 -0.04687,-1.1484375 -0.1875,-1.5 -0.304688,-0.7734375 -1.019531,-1.2304687 -1.898438,-1.2304687 -1.300781,0 -2.144531,0.9960937 -2.144531,2.5429687 0,1.54687504 0.808594,2.49609379 2.132813,2.49609379 1.066406,0 1.816406,-0.609375 2.003906,-1.64062499 h -0.75 c -0.210938,0.62109374 -0.632813,0.94921874 -1.230469,0.94921874 -0.480469,0 -0.878906,-0.22265625 -1.125,-0.60937504 -0.1875,-0.2695312 -0.246094,-0.5390625 -0.257812,-1.0078125 z m -3.433594,-0.609375 c 0.05859,-0.8671875 0.585938,-1.4296875 1.335938,-1.4296875 0.738281,0 1.300781,0.609375 1.300781,1.3710938 0,0.023437 0,0.035156 0,0.058594 z m 7.749024,-0.6796875 c -0.01172,-0.9257812 -0.621094,-1.4414062 -1.699219,-1.4414062 -1.101563,0 -1.804688,0.5625 -1.804688,1.4296875 0,0.7382812 0.375,1.0898437 1.488282,1.359375 l 0.703125,0.1640625 c 0.515625,0.1289062 0.726562,0.3164062 0.726562,0.65625 0,0.43359374 -0.445312,0.73828124 -1.101562,0.73828124 -0.398438,0 -0.738282,-0.1171875 -0.925782,-0.31640625 C 37.570594,-0.93782031 37.512,-1.0667266 37.465125,-1.3948516 h -0.785156 c 0.03516,1.07812504 0.644531,1.60546879 1.875,1.60546879 1.183594,0 1.933594,-0.5859375 1.933594,-1.48828129 0,-0.703125 -0.398438,-1.0898437 -1.324219,-1.3125 L 38.4495,-2.7659453 c -0.609375,-0.140625 -0.867187,-0.3398438 -0.867187,-0.6679688 0,-0.4335937 0.375,-0.703125 0.984375,-0.703125 0.609375,0 0.925781,0.2578125 0.949218,0.75 z m 4.485351,0 c -0.01172,-0.9257812 -0.621094,-1.4414062 -1.699219,-1.4414062 -1.101562,0 -1.804687,0.5625 -1.804687,1.4296875 0,0.7382812 0.375,1.0898437 1.488281,1.359375 l 0.703125,0.1640625 c 0.515625,0.1289062 0.726563,0.3164062 0.726563,0.65625 0,0.43359374 -0.445313,0.73828124 -1.101563,0.73828124 -0.398437,0 -0.738281,-0.1171875 -0.925781,-0.31640625 -0.117188,-0.140625 -0.175781,-0.26953129 -0.222656,-0.59765629 H 41.16532 c 0.03516,1.07812504 0.644532,1.60546879 1.875,1.60546879 1.183594,0 1.933594,-0.5859375 1.933594,-1.48828129 0,-0.703125 -0.398437,-1.0898437 -1.324219,-1.3125 l -0.714843,-0.1757812 c -0.609375,-0.140625 -0.867188,-0.3398438 -0.867188,-0.6679688 0,-0.4335937 0.375,-0.703125 0.984375,-0.703125 0.609375,0 0.925781,0.2578125 0.949219,0.75 z m 1.904297,-1.3125 h -0.75 v 4.6992187875 h 0.75 z m 0,-1.8398437 h -0.761719 v 0.9492187 h 0.761719 z m 1.274414,1.8398437 v 4.6992187875 h 0.75 V -2.5901641 c 0,-0.9609375 0.503906,-1.5820312 1.265625,-1.5820312 0.597656,0 0.972656,0.3515625 0.972656,0.9140625 v 3.2578124875 h 0.75 V -3.5511016 c 0,-0.7734375 -0.585937,-1.2773437 -1.488281,-1.2773437 -0.703125,0 -1.148437,0.2695312 -1.570312,0.9140625 v -0.7851563 z m 8.044922,0 v 0.6796875 c -0.375,-0.5507812 -0.832031,-0.8085937 -1.429688,-0.8085937 -1.195312,0 -2.003906,1.03125 -2.003906,2.5546875 0,0.7734375 0.210938,1.40624999 0.597656,1.85156249 0.351563,0.3984375 0.84375,0.6328125 1.335938,0.6328125 0.597656,0 1.007812,-0.2578125 1.429687,-0.84375 v 0.234375 c 0,0.64453125 -0.08203,1.03125 -0.269531,1.2890625 -0.199219,0.26953121 -0.585937,0.43359371 -1.042969,0.43359371 -0.339843,0 -0.644531,-0.082031 -0.84375,-0.2460937 C 53.607703,0.93717969 53.537391,0.81999219 53.490516,0.53874219 h -0.761719 c 0.08203,0.89062501 0.773437,1.41796871 1.875,1.41796871 0.703125,0 1.300781,-0.2226562 1.605469,-0.5976562 0.363281,-0.43359376 0.492187,-1.03125001 0.492187,-2.13281251 V -4.6995391 Z m -1.347656,0.5625 c 0.808593,0 1.277343,0.6796875 1.277343,1.8515625 0,1.125 -0.480468,1.80468754 -1.277343,1.80468754 -0.808594,0 -1.300782,-0.69140624 -1.300782,-1.82812504 0,-1.1367187 0.503907,-1.828125 1.300782,-1.828125 z m 3.427734,3.19921879 V -3.203125e-4 H 58.61747 V 0.16374219 c 0,0.62109375 -0.105469,0.796875 -0.527344,0.80859375 V 1.3121797 c 0.621094,0 0.9375,-0.39843751 0.9375,-1.17187501 v -1.078125 z m 0,0"
       style="fill:#000000;fill-opacity:1;fill-rule:nonzero;stroke:none"
       aria-label="Preprocessing,"
       transform="matrix(1.3333333,0,0,1.3333333,19.984,48.629333)" />
    <path
       id="path5"
       d="M 0.70350781,6.40625e-4 H 3.6566328 c 0.6210938,0 1.078125,-0.175781245 1.4296875,-0.550781245 0.3164063,-0.33984375 0.5039063,-0.80859378 0.5039063,-1.31249998 0,-0.7851563 -0.3632813,-1.265625 -1.1953125,-1.59375 0.5859375,-0.2695313 0.9023437,-0.7617188 0.9023437,-1.4179688 0,-0.4804687 -0.1757812,-0.9023437 -0.515625,-1.2070312 C 4.4417891,-6.3860781 3.9847578,-6.5384219 3.3636641,-6.5384219 H 0.70350781 Z M 1.5472578,-3.7142031 v -2.0859375 h 1.6054688 c 0.46875,0 0.7265625,0.058594 0.9492187,0.234375 0.234375,0.1757812 0.3632813,0.4453125 0.3632813,0.8085937 0,0.3515625 -0.1289063,0.6210938 -0.3632813,0.8085938 -0.2226562,0.1640625 -0.4804687,0.234375 -0.9492187,0.234375 z m 0,2.97656248 V -2.9876406 h 2.0273438 c 0.4101562,0 0.6796875,0.1054687 0.8671875,0.3164062 0.1992187,0.2109375 0.3046875,0.4921875 0.3046875,0.8203125 0,0.3046875 -0.1054688,0.5976563 -0.3046875,0.796875 -0.1875,0.22265628 -0.4570313,0.31640628 -0.8671875,0.31640628 z m 9.2255862,0.3046875 c -0.08203,0.0117188 -0.117188,0.0117188 -0.152344,0.0117188 -0.269531,0 -0.410156,-0.12890625 -0.410156,-0.36328125 V -3.5501406 c 0,-0.8320313 -0.6093752,-1.2773438 -1.7695315,-1.2773438 -0.6796875,0 -1.2421875,0.1875 -1.5585937,0.5390625 -0.2109375,0.2460938 -0.3046875,0.515625 -0.3164063,0.984375 h 0.75 c 0.058594,-0.5742187 0.3984375,-0.8320312 1.1015625,-0.8320312 0.6679688,0 1.0546875,0.2460937 1.0546875,0.6914062 v 0.1992188 c 0,0.3164062 -0.1875,0.4453125 -0.7851562,0.515625 -1.0546875,0.140625 -1.21875,0.1757812 -1.5,0.2929687 -0.5507813,0.2226563 -0.8320313,0.6445313 -0.8320313,1.2539063 0,0.85546873 0.5976563,1.39453123 1.546875,1.39453123 0.5859375,0 1.0664063,-0.210937505 1.59375,-0.69140625 0.046875,0.46875 0.28125,0.69140625 0.773438,0.69140625 0.152343,0 0.269531,-0.0234375 0.503906,-0.0820313 z M 9.4720625,-1.4759219 c 0,0.2460938 -0.082031,0.3984375 -0.3046875,0.60937503 -0.3046875,0.28125 -0.6679687,0.421875 -1.1132812,0.421875 -0.5742188,0 -0.9140625,-0.28125 -0.9140625,-0.76171873 0,-0.4921875 0.328125,-0.7382813 1.125,-0.8554688 0.7851562,-0.1054687 0.9492187,-0.140625 1.2070312,-0.2578125 z m 3.7675785,-3.2226562 h -0.761719 v -1.2890625 h -0.75 v 1.2890625 h -0.632813 v 0.609375 h 0.632813 v 3.55078123 c 0,0.48046875 0.328125,0.75 0.902344,0.75 0.1875,0 0.363281,-0.0234375 0.609375,-0.0703125 v -0.62109375 c -0.09375,0.0234375 -0.210938,0.0351563 -0.351563,0.0351563 -0.328125,0 -0.410156,-0.09375 -0.410156,-0.421875 V -4.0892031 h 0.761719 z m 4.438476,1.5820312 c -0.03516,-0.4570312 -0.128906,-0.75 -0.304687,-1.0195312 -0.328125,-0.4335938 -0.890625,-0.6914063 -1.546875,-0.6914063 -1.265625,0 -2.085938,0.9960938 -2.085938,2.5546875 0,1.52343753 0.808594,2.48437503 2.074219,2.48437503 1.125,0 1.828125,-0.6796875 1.921875,-1.82812503 h -0.75 c -0.128906,0.76171878 -0.515625,1.13671878 -1.148438,1.13671878 -0.832031,0 -1.324218,-0.67968748 -1.324218,-1.79296878 0,-1.171875 0.492187,-1.8632812 1.300781,-1.8632812 0.632812,0 1.019531,0.3632812 1.113281,1.0195312 z m 0.896485,-3.421875 V 6.40625e-4 h 0.738281 V -2.5892031 c 0,-0.9609375 0.503906,-1.5820313 1.277344,-1.5820313 0.234375,0 0.480468,0.070312 0.65625,0.2109375 0.222656,0.1523438 0.304687,0.375 0.304687,0.703125 V 6.40625e-4 h 0.75 V -3.5501406 c 0,-0.7851563 -0.5625,-1.2773438 -1.476562,-1.2773438 -0.667969,0 -1.066407,0.1992188 -1.511719,0.7734375 v -2.484375 z m 5.701171,1.8398438 h -0.75 V 6.40625e-4 h 0.75 z m 0,-1.8398438 h -0.761718 v 0.9492188 h 0.761718 z m 1.274415,1.8398438 V 6.40625e-4 h 0.75 V -2.5892031 c 0,-0.9609375 0.503906,-1.5820313 1.265625,-1.5820313 0.597656,0 0.972656,0.3515625 0.972656,0.9140625 V 6.40625e-4 h 0.75 V -3.5501406 c 0,-0.7734375 -0.585938,-1.2773438 -1.488281,-1.2773438 -0.703125,0 -1.148438,0.2695313 -1.570313,0.9140625 v -0.7851562 z m 8.044921,0 v 0.6796875 c -0.375,-0.5507813 -0.832031,-0.8085938 -1.429687,-0.8085938 -1.195313,0 -2.003906,1.03125 -2.003906,2.5546875 0,0.7734375 0.210937,1.40625003 0.597656,1.85156253 0.351562,0.3984375 0.84375,0.6328125 1.335937,0.6328125 0.597657,0 1.007813,-0.2578125 1.429688,-0.84375 v 0.234375 c 0,0.64453125 -0.08203,1.03125 -0.269531,1.2890625 -0.199219,0.26953127 -0.585938,0.43359377 -1.042969,0.43359377 -0.339844,0 -0.644531,-0.082031 -0.84375,-0.2460938 C 31.192766,0.93814063 31.122453,0.82095313 31.075578,0.53970313 h -0.761719 c 0.08203,0.89062497 0.773438,1.41796877 1.875,1.41796877 0.703125,0 1.300782,-0.2226563 1.605469,-0.5976563 0.363281,-0.43359372 0.492188,-1.03124997 0.492188,-2.13281247 V -4.6985781 Z m -1.347656,0.5625 c 0.808594,0 1.277344,0.6796875 1.277344,1.8515625 0,1.125 -0.480469,1.80468748 -1.277344,1.80468748 -0.808594,0 -1.300781,-0.69140628 -1.300781,-1.82812498 0,-1.1367188 0.503906,-1.828125 1.300781,-1.828125 z m 0,0"
       style="fill:#000000;fill-opacity:1;fill-rule:nonzero;stroke:none"
       aria-label="Batching"
       transform="matrix(1.3333333,0,0,1.3333333,36.589333,63.241333)" />
    <path
       id="path6"
       d="m 130.3004,-28.3468 h 89.02554 V 28.34682 H 130.3004 Z"
       style="fill:#d1f3ff;fill-opacity:1;fill-rule:nonzero;stroke:#2294bd;stroke-width:0.74721;stroke-linecap:butt;stroke-linejoin:miter;stroke-miterlimit:10;stroke-dasharray:none;stroke-opacity:1"
       transform="matrix(1.3333333,0,0,-1.3333333,59.848,38.293333)" />
    <path
       id="path7"
       d="m 3.4570469,-5.4140859 h 1.8984375 v -1.125 H 0.12892188 v 1.125 H 2.1093906 V -2.34375e-5 h 1.3476563 z m 1.8662109,0.5742187 V -2.34375e-5 H 6.5771641 V -2.5781484 c 0,-0.7265625 0.375,-1.1015625 1.1015625,-1.1015625 0.140625,0 0.234375,0.011719 0.3984375,0.035156 v -1.265625 c -0.070312,-0.011719 -0.1171875,-0.011719 -0.1523438,-0.011719 -0.5742187,0 -1.078125,0.375 -1.3476562,1.03125 v -0.9492188 z m 7.6259762,4.68750001 c -0.222656,-0.2109375 -0.292968,-0.33984375 -0.292968,-0.5859375 V -3.4336172 c 0,-0.984375 -0.667969,-1.4882812 -1.980469,-1.4882812 -1.3007814,0 -1.9921876,0.5507812 -2.0625001,1.6757812 h 1.2070312 c 0.058594,-0.5039062 0.2695309,-0.6679687 0.8906249,-0.6679687 0.480469,0 0.726563,0.1640625 0.726563,0.4921875 0,0.1640625 -0.08203,0.3046875 -0.222657,0.375 -0.164062,0.09375 -0.164062,0.09375 -0.785156,0.1875 l -0.5039061,0.09375 c -0.9609375,0.1523437 -1.4296875,0.6445312 -1.4296875,1.5234375 0,0.41015621 0.1171875,0.74999996 0.3398437,0.99609371 0.28125,0.28125 0.703125,0.45703125 1.1367188,0.45703125 0.5390621,0 1.0312501,-0.234375 1.4648441,-0.69140625 0,0.24609375 0.03516,0.33984375 0.152343,0.4804687525 h 1.359375 z M 11.437516,-1.9453359 c 0,0.7265625 -0.363282,1.13671871 -0.996094,1.13671871 -0.421875,0 -0.6796876,-0.22265621 -0.6796876,-0.58593751 0,-0.375 0.1875,-0.5507812 0.7148436,-0.65625 l 0.421875,-0.082031 c 0.339844,-0.058594 0.386719,-0.082031 0.539063,-0.1523438 z m 3.647461,-2.8945313 H 13.83107 V -2.34375e-5 h 1.253907 z m 0,-1.6992187 H 13.83107 v 1.125 h 1.253907 z m 1.204101,1.6992187 V -2.34375e-5 h 1.253906 V -2.9062734 c 0,-0.5742188 0.410157,-0.9492188 1.019532,-0.9492188 0.539062,0 0.808593,0.2929688 0.808593,0.8671875 V -2.34375e-5 h 1.253907 V -3.2461172 c 0,-1.0664062 -0.597657,-1.6757812 -1.628907,-1.6757812 -0.65625,0 -1.089843,0.2460937 -1.453125,0.7851562 v -0.703125 z m 6.767578,0 H 21.80275 V -2.34375e-5 h 1.253906 z m 0,-1.6992187 H 21.80275 v 1.125 h 1.253906 z m 1.204102,1.6992187 V -2.34375e-5 h 1.253906 V -2.9062734 c 0,-0.5742188 0.410156,-0.9492188 1.019531,-0.9492188 0.539063,0 0.808594,0.2929688 0.808594,0.8671875 V -2.34375e-5 h 1.253906 V -3.2461172 c 0,-1.0664062 -0.597656,-1.6757812 -1.628906,-1.6757812 -0.65625,0 -1.089844,0.2460937 -1.453125,0.7851562 v -0.703125 z m 8.572265,0 v 0.7382813 c -0.375,-0.5742188 -0.785156,-0.8203125 -1.347656,-0.8203125 -1.148437,0 -2.003906,1.125 -2.003906,2.6132812 0,1.51171876 0.785156,2.51953126 1.980469,2.51953126 0.5625,0 0.902343,-0.17578125 1.371093,-0.703125 v 0.65625 c 0,0.57421875 -0.433593,0.98437504 -1.066406,0.98437504 -0.46875,0 -0.785156,-0.19921879 -0.890625,-0.56250004 h -1.300781 c 0.01172,0.375 0.152344,0.63281254 0.480469,0.90234374 0.386718,0.3164063 0.925781,0.46875 1.664062,0.46875 1.464844,0 2.308594,-0.65625 2.308594,-1.79296874 V -4.8398672 Z m -1.078125,0.9726563 c 0.632813,0 1.101563,0.6445312 1.101563,1.546875 0,0.8789062 -0.457031,1.47656246 -1.113281,1.47656246 -0.597657,0 -1.007813,-0.59765626 -1.007813,-1.47656246 0,-0.9140625 0.410156,-1.546875 1.019531,-1.546875 z m 7.456055,-2.671875 H 37.863297 V -2.34375e-5 h 4.476562 V -1.1250234 h -3.128906 z m 6.111328,1.6171875 c -1.476562,0 -2.378906,0.9726562 -2.378906,2.5664062 0,1.59375001 0.902344,2.56640626 2.390625,2.56640626 1.464844,0 2.390625,-0.984375 2.390625,-2.53124996 0,-1.640625 -0.878906,-2.6015625 -2.402344,-2.6015625 z m 0.01172,1.0078125 c 0.691406,0 1.136719,0.6210937 1.136719,1.5703125 0,0.9140625 -0.46875,1.53515621 -1.136719,1.53515621 -0.679687,0 -1.136719,-0.62109371 -1.136719,-1.54687501 0,-0.9257812 0.457032,-1.5585937 1.136719,-1.5585937 z m 5.466797,-1.0078125 c -1.476563,0 -2.378906,0.9726562 -2.378906,2.5664062 0,1.59375001 0.902343,2.56640626 2.390625,2.56640626 1.464843,0 2.390625,-0.984375 2.390625,-2.53124996 0,-1.640625 -0.878907,-2.6015625 -2.402344,-2.6015625 z m 0.01172,1.0078125 c 0.691406,0 1.136718,0.6210937 1.136718,1.5703125 0,0.9140625 -0.46875,1.53515621 -1.136718,1.53515621 -0.679688,0 -1.136719,-0.62109371 -1.136719,-1.54687501 0,-0.9257812 0.457031,-1.5585937 1.136719,-1.5585937 z m 4.541015,-0.9257813 h -1.253906 v 6.796875 h 1.253906 v -2.53124999 c 0.304688,0.5390625 0.738282,0.78515625 1.347657,0.78515625 1.171875,0 2.027343,-1.08984375 2.027343,-2.55468746 0,-0.6914063 -0.199218,-1.3710938 -0.515625,-1.8164063 -0.328125,-0.4570312 -0.925781,-0.7617187 -1.511718,-0.7617187 -0.609375,0 -1.042969,0.2578125 -1.347657,0.796875 z m 1.066407,0.9726563 c 0.632812,0 1.054687,0.609375 1.054687,1.5351562 0,0.8789063 -0.433594,1.50000001 -1.054687,1.50000001 -0.632813,0 -1.066407,-0.60937501 -1.066407,-1.51171871 0,-0.9140625 0.433594,-1.5234375 1.066407,-1.5234375 z m 0,0"
       style="fill:#000000;fill-opacity:1;fill-rule:nonzero;stroke:none"
       aria-label="TrainingLoop"
       transform="matrix(1.3333333,0,0,1.3333333,253.55467,20.668)" />
    <path
       id="path8"
       d="M 1.6418281,-2.9775547 H 4.7590156 V -3.7158359 H 1.6418281 V -5.8017734 H 5.1926094 V -6.5400547 H 0.80979688 V -9.921875e-4 H 1.6418281 Z m 6.0058594,-1.8515625 c -1.3125,0 -2.109375,0.9375 -2.109375,2.5195313 0,1.57031246 0.7851563,2.51953121 2.1210938,2.51953121 1.3125,0 2.1210937,-0.94921875 2.1210937,-2.48437501 0,-1.6289062 -0.7734375,-2.5546875 -2.1328125,-2.5546875 z m 0.011719,0.6914063 c 0.84375,0 1.3476562,0.6796875 1.3476562,1.8515625 0,1.1015625 -0.5273437,1.80468746 -1.3476562,1.80468746 -0.8320313,0 -1.3476563,-0.69140626 -1.3476563,-1.82812496 0,-1.1367188 0.515625,-1.828125 1.3476563,-1.828125 z m 3.1552735,-0.5625 v 4.6992187125 h 0.75 V -2.4384922 c 0,-0.6679687 0.175781,-1.1132812 0.527343,-1.3710937 0.234375,-0.1757813 0.457032,-0.2226563 0.984375,-0.234375 v -0.7617188 c -0.128906,-0.023437 -0.199218,-0.023437 -0.292968,-0.023437 -0.480469,0 -0.855469,0.28125 -1.277344,0.984375 V -4.7002109 Z M 18.150617,-9.921875e-4 19.53343,-4.7002109 h -0.84375 l -0.9375,3.65625 -0.925782,-3.65625 h -0.914062 l -0.890625,3.65625 -0.960938,-3.65625 h -0.820312 l 1.359375,4.6992187125 h 0.84375 L 16.34593,-3.6806797 17.295148,-9.921875e-4 Z M 24.31175,-0.43458594 c -0.08203,0.0117188 -0.117187,0.0117188 -0.152344,0.0117188 -0.269531,0 -0.410156,-0.12890625 -0.410156,-0.36328125 V -3.5517734 c 0,-0.8320313 -0.609375,-1.2773438 -1.769531,-1.2773438 -0.679688,0 -1.242188,0.1875 -1.558594,0.5390625 -0.210937,0.2460938 -0.304687,0.515625 -0.316406,0.984375 h 0.75 c 0.05859,-0.5742187 0.398437,-0.8320312 1.101562,-0.8320312 0.667969,0 1.054688,0.2460937 1.054688,0.6914062 v 0.1992188 c 0,0.3164062 -0.1875,0.4453125 -0.785156,0.515625 -1.054688,0.140625 -1.21875,0.1757812 -1.5,0.2929687 -0.550782,0.2226563 -0.832032,0.6445313 -0.832032,1.2539063 0,0.85546871 0.597657,1.39453121 1.546875,1.39453121 0.585938,0 1.066407,-0.2109374975 1.59375,-0.69140625 0.04687,0.46875 0.28125,0.69140625 0.773438,0.69140625 0.152344,0 0.269531,-0.0234375 0.503906,-0.0820313 z M 23.010969,-1.4775547 c 0,0.2460938 -0.08203,0.3984375 -0.304688,0.60937501 -0.304687,0.28125 -0.667968,0.421875 -1.113281,0.421875 -0.574219,0 -0.914062,-0.28125 -0.914062,-0.76171871 0,-0.4921875 0.328125,-0.7382813 1.125,-0.8554688 0.785156,-0.1054687 0.949218,-0.140625 1.207031,-0.2578125 z m 2.115234,-3.2226562 v 4.6992187125 h 0.75 V -2.4384922 c 0,-0.6679687 0.175781,-1.1132812 0.527344,-1.3710937 0.234375,-0.1757813 0.457031,-0.2226563 0.984375,-0.234375 v -0.7617188 c -0.128906,-0.023437 -0.199219,-0.023437 -0.292969,-0.023437 -0.480469,0 -0.855469,0.28125 -1.277344,0.984375 v -0.8554687 z m 6.805664,-1.8398438 h -0.75 v 2.4375 c -0.316406,-0.4804687 -0.808594,-0.7265625 -1.441406,-0.7265625 -1.21875,0 -2.015625,0.9726563 -2.015625,2.4726563 0,1.58203121 0.773437,2.56640621 2.039062,2.56640621 0.644532,0 1.101563,-0.24609375 1.5,-0.83203125 v 0.6210937525 h 0.667969 z m -2.0625,2.4023438 c 0.808594,0 1.3125,0.7265625 1.3125,1.8398437 0,1.0898438 -0.515625,1.80468751 -1.3125,1.80468751 -0.820312,0 -1.371094,-0.72656251 -1.371094,-1.81640621 0,-1.1015625 0.550782,-1.828125 1.371094,-1.828125 z m 6.75293,1.3710937 h 2.050781 c 0.515625,0 0.914063,-0.1523437 1.265625,-0.46875 0.386719,-0.3632812 0.5625,-0.7851562 0.5625,-1.3828125 0,-1.2304687 -0.726562,-1.921875 -2.015625,-1.921875 h -2.695312 v 6.5390625125 h 0.832031 z m 0,-0.7382812 v -2.296875 h 1.734375 c 0.796875,0 1.277344,0.4335937 1.277344,1.1484375 0,0.7148437 -0.480469,1.1484375 -1.277344,1.1484375 z m 8.762695,3.07031246 c -0.08203,0.0117188 -0.117187,0.0117188 -0.152344,0.0117188 -0.269531,0 -0.410156,-0.12890625 -0.410156,-0.36328125 V -3.5517734 c 0,-0.8320313 -0.609375,-1.2773438 -1.769531,-1.2773438 -0.679688,0 -1.242188,0.1875 -1.558594,0.5390625 -0.210937,0.2460938 -0.304687,0.515625 -0.316406,0.984375 h 0.75 c 0.05859,-0.5742187 0.398437,-0.8320312 1.101562,-0.8320312 0.667969,0 1.054688,0.2460937 1.054688,0.6914062 v 0.1992188 c 0,0.3164062 -0.1875,0.4453125 -0.785156,0.515625 -1.054688,0.140625 -1.21875,0.1757812 -1.5,0.2929687 -0.550782,0.2226563 -0.832032,0.6445313 -0.832032,1.2539063 0,0.85546871 0.597657,1.39453121 1.546875,1.39453121 0.585938,0 1.066407,-0.2109374975 1.59375,-0.69140625 0.04687,0.46875 0.28125,0.69140625 0.773438,0.69140625 0.152344,0 0.269531,-0.0234375 0.503906,-0.0820313 z M 44.084211,-1.4775547 c 0,0.2460938 -0.08203,0.3984375 -0.304688,0.60937501 -0.304687,0.28125 -0.667968,0.421875 -1.113281,0.421875 -0.574219,0 -0.914062,-0.28125 -0.914062,-0.76171871 0,-0.4921875 0.328125,-0.7382813 1.125,-0.8554688 0.785156,-0.1054687 0.949218,-0.140625 1.207031,-0.2578125 z m 5.416992,-1.9101562 c -0.01172,-0.9257813 -0.621094,-1.4414063 -1.699219,-1.4414063 -1.101562,0 -1.804687,0.5625 -1.804687,1.4296875 0,0.7382813 0.375,1.0898438 1.488281,1.359375 l 0.703125,0.1640625 c 0.515625,0.1289063 0.726563,0.3164063 0.726563,0.65625 0,0.43359376 -0.445313,0.73828126 -1.101563,0.73828126 -0.398437,0 -0.738281,-0.1171875 -0.925781,-0.31640625 -0.117188,-0.140625 -0.175781,-0.26953121 -0.222656,-0.59765621 h -0.785157 c 0.03516,1.07812496 0.644532,1.60546871 1.875,1.60546871 1.183594,0 1.933594,-0.5859375 1.933594,-1.48828121 0,-0.703125 -0.398437,-1.0898438 -1.324219,-1.3125 l -0.714843,-0.1757813 c -0.609375,-0.140625 -0.867188,-0.3398437 -0.867188,-0.6679687 0,-0.4335938 0.375,-0.703125 0.984375,-0.703125 0.609375,0 0.925781,0.2578125 0.949219,0.75 z m 4.482422,0 c -0.01172,-0.9257813 -0.621094,-1.4414063 -1.699219,-1.4414063 -1.101562,0 -1.804687,0.5625 -1.804687,1.4296875 0,0.7382813 0.375,1.0898438 1.488281,1.359375 l 0.703125,0.1640625 c 0.515625,0.1289063 0.726563,0.3164063 0.726563,0.65625 0,0.43359376 -0.445313,0.73828126 -1.101563,0.73828126 -0.398437,0 -0.738281,-0.1171875 -0.925781,-0.31640625 -0.117188,-0.140625 -0.175781,-0.26953121 -0.222656,-0.59765621 h -0.785157 c 0.03516,1.07812496 0.644532,1.60546871 1.875,1.60546871 1.183594,0 1.933594,-0.5859375 1.933594,-1.48828121 0,-0.703125 -0.398437,-1.0898438 -1.324219,-1.3125 l -0.714843,-0.1757813 c -0.609375,-0.140625 -0.867188,-0.3398437 -0.867188,-0.6679687 0,-0.4335938 0.375,-0.703125 0.984375,-0.703125 0.609375,0 0.925781,0.2578125 0.949219,0.75 z m 1.209961,2.44921871 V -9.921875e-4 H 55.72093 V 0.16307031 c 0,0.62109375 -0.105469,0.796875 -0.527344,0.80859375 V 1.3115078 c 0.621094,0 0.9375,-0.39843749 0.9375,-1.17187499 v -1.078125 z m 5.736328,-5.60156251 h -0.832031 v 6.5390625125 h 4.066406 V -0.73927344 h -3.234375 z m 5.876953,1.7109375 c -1.3125,0 -2.109375,0.9375 -2.109375,2.5195313 0,1.57031246 0.785156,2.51953121 2.121094,2.51953121 1.3125,0 2.121094,-0.94921875 2.121094,-2.48437501 0,-1.6289062 -0.773438,-2.5546875 -2.132813,-2.5546875 z m 0.01172,0.6914063 c 0.84375,0 1.347656,0.6796875 1.347656,1.8515625 0,1.1015625 -0.527344,1.80468746 -1.347656,1.80468746 -0.832031,0 -1.347656,-0.69140626 -1.347656,-1.82812496 0,-1.1367188 0.515625,-1.828125 1.347656,-1.828125 z m 6.462891,0.75 c -0.01172,-0.9257813 -0.621094,-1.4414063 -1.699219,-1.4414063 -1.101563,0 -1.804688,0.5625 -1.804688,1.4296875 0,0.7382813 0.375,1.0898438 1.488282,1.359375 l 0.703125,0.1640625 c 0.515625,0.1289063 0.726562,0.3164063 0.726562,0.65625 0,0.43359376 -0.445312,0.73828126 -1.101562,0.73828126 -0.398438,0 -0.738282,-0.1171875 -0.925782,-0.31640625 -0.117187,-0.140625 -0.175781,-0.26953121 -0.222656,-0.59765621 h -0.785156 c 0.03516,1.07812496 0.644531,1.60546871 1.875,1.60546871 1.183594,0 1.933594,-0.5859375 1.933594,-1.48828121 0,-0.703125 -0.398438,-1.0898438 -1.324219,-1.3125 l -0.714844,-0.1757813 c -0.609375,-0.140625 -0.867187,-0.3398437 -0.867187,-0.6679687 0,-0.4335938 0.375,-0.703125 0.984375,-0.703125 0.609375,0 0.925781,0.2578125 0.949218,0.75 z m 4.482421,0 c -0.01172,-0.9257813 -0.621093,-1.4414063 -1.699218,-1.4414063 -1.101563,0 -1.804688,0.5625 -1.804688,1.4296875 0,0.7382813 0.375,1.0898438 1.488281,1.359375 l 0.703125,0.1640625 c 0.515625,0.1289063 0.726563,0.3164063 0.726563,0.65625 0,0.43359376 -0.445313,0.73828126 -1.101563,0.73828126 -0.398437,0 -0.738281,-0.1171875 -0.925781,-0.31640625 -0.117187,-0.140625 -0.175781,-0.26953121 -0.222656,-0.59765621 h -0.785156 c 0.03516,1.07812496 0.644531,1.60546871 1.875,1.60546871 1.183593,0 1.933593,-0.5859375 1.933593,-1.48828121 0,-0.703125 -0.398437,-1.0898438 -1.324218,-1.3125 l -0.714844,-0.1757813 c -0.609375,-0.140625 -0.867188,-0.3398437 -0.867188,-0.6679687 0,-0.4335938 0.375,-0.703125 0.984375,-0.703125 0.609375,0 0.925782,0.2578125 0.949219,0.75 z m 0,0"
       style="fill:#000000;fill-opacity:1;fill-rule:nonzero;stroke:none"
       aria-label="ForwardPass,Loss"
       transform="matrix(1.3333333,0,0,1.3333333,240.70933,35.278667)" />
    <path
       id="path9"
       d="M 5.9300313,-4.51175 C 5.6722188,-5.9414375 4.8519063,-6.6445625 3.4105,-6.6445625 c -0.8789062,0 -1.5820312,0.28125 -2.0625,0.8203125 -0.59765625,0.6445312 -0.9140625,1.5703125 -0.9140625,2.6367187 0,1.0664063 0.328125,1.9921875 0.9492188,2.6367188 0.5039062,0.515625 1.1484375,0.76171875 1.9921875,0.76171875 1.6054687,0 2.4960937,-0.8671875 2.6953125,-2.58984375 H 5.2034688 c -0.070312,0.4453125 -0.1523438,0.75 -0.2929688,1.0078125 -0.2695312,0.5390625 -0.8203125,0.84375 -1.5234375,0.84375 -1.3007812,0 -2.1210937,-1.0429688 -2.1210937,-2.671875 0,-1.6757813 0.7851562,-2.7070313 2.0507812,-2.7070313 0.5273438,0 1.0195313,0.1640625 1.2890625,0.4101563 0.2460938,0.2226562 0.375,0.5039062 0.4804688,0.984375 z m 5.3378907,4.078125 c -0.08203,0.0117188 -0.117188,0.0117188 -0.152344,0.0117188 -0.269531,0 -0.410156,-0.12890625 -0.410156,-0.36328125 V -3.5508125 c 0,-0.8320312 -0.609375,-1.2773437 -1.7695314,-1.2773437 -0.6796875,0 -1.2421875,0.1875 -1.5585937,0.5390625 C 7.1663594,-4.043 7.0726094,-3.7734688 7.0608906,-3.3047188 h 0.75 C 7.8694844,-3.8789375 8.2093281,-4.13675 8.9124531,-4.13675 c 0.6679688,0 1.0546875,0.2460937 1.0546875,0.6914062 v 0.1992188 c 0,0.3164062 -0.1875,0.4453125 -0.7851562,0.515625 -1.0546875,0.140625 -1.21875,0.1757812 -1.5,0.2929687 C 7.1312031,-2.214875 6.8499531,-1.793 6.8499531,-1.183625 c 0,0.85546875 0.5976563,1.39453125 1.546875,1.39453125 0.5859375,0 1.0664063,-0.2109375 1.59375,-0.69140625 0.046875,0.46875 0.2812499,0.69140625 0.7734379,0.69140625 0.152343,0 0.269531,-0.0234375 0.503906,-0.0820313 z M 9.9671406,-1.4765938 c 0,0.2460938 -0.082031,0.3984375 -0.3046875,0.60937505 -0.3046875,0.28125 -0.6679687,0.421875 -1.1132812,0.421875 -0.5742188,0 -0.9140625,-0.28125 -0.9140625,-0.76171875 0,-0.4921875 0.328125,-0.7382813 1.125,-0.8554688 C 9.5452656,-2.168 9.7093281,-2.2031563 9.9671406,-2.3203438 Z m 2.8505864,-5.0625 h -0.75 V -3.125e-5 h 0.75 z m 4.851562,3.421875 c -0.03516,-0.4570312 -0.128906,-0.75 -0.304687,-1.0195312 -0.328125,-0.4335938 -0.890625,-0.6914063 -1.546875,-0.6914063 -1.265625,0 -2.085938,0.9960938 -2.085938,2.5546875 0,1.52343755 0.808594,2.48437505 2.074219,2.48437505 1.125,0 1.828125,-0.6796875 1.921875,-1.82812505 h -0.75 C 16.848977,-0.8555 16.462258,-0.4805 15.829445,-0.4805 c -0.832031,0 -1.324218,-0.6796875 -1.324218,-1.7929688 0,-1.171875 0.492187,-1.8632812 1.300781,-1.8632812 0.632812,0 1.019531,0.3632812 1.113281,1.0195312 z M 22.25718,-3.125e-5 V -4.69925 h -0.75 v 2.6601562 c 0,0.9609375 -0.503907,1.59375005 -1.277344,1.59375005 -0.597656,0 -0.972656,-0.36328125 -0.972656,-0.92578125 V -4.69925 h -0.738282 v 3.6210937 c 0,0.7851563 0.574219,1.28906255 1.488282,1.28906255 0.691406,0 1.136718,-0.24609375 1.570312,-0.8671875 v 0.65625 z m 2.021484,-6.53906255 h -0.75 V -3.125e-5 h 0.75 z m 5.422852,6.1054688 c -0.08203,0.0117188 -0.117188,0.0117188 -0.152344,0.0117188 -0.269531,0 -0.410156,-0.12890625 -0.410156,-0.36328125 V -3.5508125 c 0,-0.8320312 -0.609375,-1.2773437 -1.769532,-1.2773437 -0.679687,0 -1.242187,0.1875 -1.558593,0.5390625 -0.210938,0.2460937 -0.304688,0.5156249 -0.316407,0.9843749 h 0.75 c 0.05859,-0.5742187 0.398438,-0.8320312 1.101563,-0.8320312 0.667969,0 1.054687,0.2460937 1.054687,0.6914062 v 0.1992188 c 0,0.3164062 -0.1875,0.4453125 -0.785156,0.515625 -1.054687,0.140625 -1.21875,0.1757812 -1.5,0.2929687 -0.550781,0.2226563 -0.832031,0.6445313 -0.832031,1.2539063 0,0.8554688 0.597656,1.3945313 1.546875,1.3945313 0.585937,0 1.066406,-0.2109375 1.59375,-0.69140625 0.04687,0.46875 0.28125,0.69140625 0.773437,0.69140625 0.152344,0 0.269532,-0.0234375 0.503907,-0.0820313 z m -1.300782,-1.0429688 c 0,0.2460938 -0.08203,0.3984375 -0.304687,0.60937505 -0.304688,0.28125 -0.667969,0.421875 -1.113281,0.421875 -0.574219,0 -0.914063,-0.28125 -0.914063,-0.76171875 0,-0.4921875 0.328125,-0.7382813 1.125,-0.8554688 0.785156,-0.1054687 0.949219,-0.140625 1.207031,-0.2578125 z M 32.168313,-4.69925 h -0.761719 v -1.2890625 h -0.75 V -4.69925 h -0.632813 v 0.609375 h 0.632813 v 3.55078125 c 0,0.48046875 0.328125,0.75 0.902344,0.75 0.1875,0 0.363281,-0.0234375 0.609375,-0.0703125 V -0.4805 c -0.09375,0.0234375 -0.210938,0.0351563 -0.351563,0.0351563 -0.328125,0 -0.410156,-0.09375 -0.410156,-0.421875 V -4.089875 h 0.761719 z m 1.564453,0 h -0.75 V -3.125e-5 h 0.75 z m 0,-1.8398438 h -0.761719 v 0.9492188 h 0.761719 z m 3.082031,1.7109375 c -1.3125,0 -2.109375,0.9375 -2.109375,2.5195313 0,1.5703125 0.785156,2.51953125 2.121094,2.51953125 1.3125,0 2.121093,-0.94921875 2.121093,-2.48437505 0,-1.6289062 -0.773437,-2.5546875 -2.132812,-2.5546875 z m 0.01172,0.6914063 c 0.84375,0 1.347656,0.6796875 1.347656,1.8515625 0,1.1015625 -0.527344,1.8046875 -1.347656,1.8046875 -0.832032,0 -1.347657,-0.6914063 -1.347657,-1.828125 0,-1.1367188 0.515625,-1.828125 1.347657,-1.828125 z m 3.169922,-0.5625 V -3.125e-5 h 0.75 V -2.589875 c 0,-0.9609375 0.503906,-1.5820313 1.265625,-1.5820313 0.597656,0 0.972656,0.3515625 0.972656,0.9140625 V -3.125e-5 h 0.75 V -3.5508125 c 0,-0.7734375 -0.585938,-1.2773438 -1.488281,-1.2773438 -0.703125,0 -1.148438,0.2695313 -1.570313,0.9140625 V -4.69925 Z m 5.135742,3.76171875 v 0.9375 h 0.527343 v 0.1640625 c 0,0.62109375 -0.105468,0.796875 -0.527343,0.80859375 v 0.3398437 c 0.621093,0 0.9375,-0.39843745 0.9375,-1.17187495 v -1.078125 z m 0,0"
       style="fill:#000000;fill-opacity:1;fill-rule:nonzero;stroke:none"
       aria-label="Calculation,"
       transform="matrix(1.3333333,0,0,1.3333333,261.70267,49.890667)" />
    <path
       id="path10"
       d="M 0.70182031,9.296875e-4 H 3.6549453 c 0.6210938,0 1.078125,-0.1757812475 1.4296875,-0.5507812475 0.3164063,-0.33984375 0.5039063,-0.80859374 0.5039063,-1.31250004 0,-0.7851562 -0.3632813,-1.265625 -1.1953125,-1.59375 0.5859375,-0.2695312 0.9023437,-0.7617187 0.9023437,-1.4179687 0,-0.4804688 -0.1757812,-0.9023438 -0.515625,-1.2070313 C 4.4401016,-6.3857891 3.9830703,-6.5381328 3.3619766,-6.5381328 H 0.70182031 Z M 1.5455703,-3.7139141 v -2.0859375 h 1.6054688 c 0.46875,0 0.7265625,0.058594 0.9492187,0.234375 0.234375,0.1757813 0.3632813,0.4453125 0.3632813,0.8085938 0,0.3515625 -0.1289063,0.6210937 -0.3632813,0.8085937 -0.2226562,0.1640625 -0.4804687,0.234375 -0.9492187,0.234375 z m 0,2.97656254 V -2.9873516 h 2.0273438 c 0.4101562,0 0.6796875,0.1054688 0.8671875,0.3164063 0.1992187,0.2109375 0.3046875,0.4921875 0.3046875,0.8203125 0,0.3046875 -0.1054688,0.5976562 -0.3046875,0.796875 -0.1875,0.22265624 -0.4570313,0.31640624 -0.8671875,0.31640624 z m 9.2285157,0.3046875 c -0.08203,0.0117188 -0.117188,0.0117188 -0.152344,0.0117188 -0.269531,0 -0.410156,-0.12890625 -0.410156,-0.36328125 V -3.5498516 c 0,-0.8320312 -0.6093751,-1.2773437 -1.7695313,-1.2773437 -0.6796875,0 -1.2421875,0.1875 -1.5585938,0.5390625 -0.2109375,0.2460937 -0.3046875,0.515625 -0.3164062,0.984375 h 0.75 c 0.058594,-0.5742188 0.3984375,-0.8320313 1.1015625,-0.8320313 0.6679687,0 1.0546875,0.2460938 1.0546875,0.6914063 v 0.1992187 c 0,0.3164063 -0.1875,0.4453125 -0.7851563,0.515625 -1.0546875,0.140625 -1.21875,0.1757813 -1.5,0.2929688 -0.5507812,0.2226562 -0.8320312,0.6445312 -0.8320312,1.2539062 0,0.85546879 0.5976562,1.39453129 1.546875,1.39453129 0.5859375,0 1.0664062,-0.2109375025 1.59375,-0.69140625 0.046875,0.46875 0.28125,0.69140625 0.7734378,0.69140625 0.152343,0 0.269531,-0.0234375 0.503906,-0.0820313 z M 9.4733047,-1.4756328 c 0,0.2460937 -0.082031,0.3984375 -0.3046875,0.60937499 -0.3046875,0.28125 -0.6679688,0.421875 -1.1132813,0.421875 -0.5742187,0 -0.9140625,-0.28125 -0.9140625,-0.76171879 0,-0.4921875 0.328125,-0.7382812 1.125,-0.8554687 0.7851563,-0.1054688 0.9492188,-0.140625 1.2070313,-0.2578125 z m 5.7099613,-1.640625 c -0.03516,-0.4570313 -0.128907,-0.75 -0.304688,-1.0195313 -0.328125,-0.4335937 -0.890625,-0.6914062 -1.546875,-0.6914062 -1.265625,0 -2.085937,0.9960937 -2.085937,2.5546875 0,1.52343749 0.808593,2.48437499 2.074218,2.48437499 1.125,0 1.828125,-0.6796875 1.921875,-1.82812499 h -0.75 c -0.128906,0.76171874 -0.515625,1.13671874 -1.148437,1.13671874 -0.832031,0 -1.324219,-0.67968754 -1.324219,-1.79296874 0,-1.171875 0.492188,-1.8632813 1.300781,-1.8632813 0.632813,0 1.019532,0.3632813 1.113282,1.0195313 z m 1.353515,-3.421875 h -0.75 V 9.296875e-4 h 0.75 V -1.8271953 l 0.726563,-0.7148438 1.582031,2.5429687875 h 0.925781 L 17.849281,-3.0693828 19.489906,-4.6982891 h -0.960937 l -1.992188,1.9921875 z M 24.722328,9.296875e-4 26.105141,-4.6982891 h -0.84375 l -0.9375,3.65625 -0.925782,-3.65625 h -0.914062 l -0.890625,3.65625 -0.960938,-3.65625 h -0.820312 l 1.359375,4.6992187875 h 0.84375 L 22.917641,-3.6787578 23.866859,9.296875e-4 Z M 30.886391,-0.43266406 c -0.08203,0.0117188 -0.117188,0.0117188 -0.152344,0.0117188 -0.269531,0 -0.410156,-0.12890625 -0.410156,-0.36328125 V -3.5498516 c 0,-0.8320312 -0.609375,-1.2773437 -1.769532,-1.2773437 -0.679687,0 -1.242187,0.1875 -1.558593,0.5390625 -0.210938,0.2460937 -0.304688,0.515625 -0.316407,0.984375 h 0.75 c 0.05859,-0.5742188 0.398438,-0.8320313 1.101563,-0.8320313 0.667969,0 1.054687,0.2460938 1.054687,0.6914063 v 0.1992187 c 0,0.3164063 -0.1875,0.4453125 -0.785156,0.515625 -1.054687,0.140625 -1.21875,0.1757813 -1.5,0.2929688 -0.550781,0.2226562 -0.832031,0.6445312 -0.832031,1.2539062 0,0.85546879 0.597656,1.39453129 1.546875,1.39453129 0.585937,0 1.066406,-0.2109375025 1.59375,-0.69140625 0.04687,0.46875 0.28125,0.69140625 0.773437,0.69140625 0.152344,0 0.269532,-0.0234375 0.503907,-0.0820313 z M 29.585609,-1.4756328 c 0,0.2460937 -0.08203,0.3984375 -0.304687,0.60937499 -0.304688,0.28125 -0.667969,0.421875 -1.113281,0.421875 -0.574219,0 -0.914063,-0.28125 -0.914063,-0.76171879 0,-0.4921875 0.328125,-0.7382812 1.125,-0.8554687 0.785156,-0.1054688 0.949219,-0.140625 1.207031,-0.2578125 z m 2.112305,-3.2226563 V 9.296875e-4 h 0.75 V -2.4365703 c 0,-0.6679688 0.175781,-1.1132813 0.527344,-1.3710938 0.234375,-0.1757812 0.457031,-0.2226562 0.984375,-0.234375 v -0.7617187 c -0.128906,-0.023437 -0.199219,-0.023437 -0.292969,-0.023437 -0.480469,0 -0.855469,0.28125 -1.277344,0.984375 v -0.8554688 z m 6.805664,-1.8398437 h -0.75 v 2.4375 c -0.316406,-0.4804688 -0.808594,-0.7265625 -1.441406,-0.7265625 -1.21875,0 -2.015625,0.9726562 -2.015625,2.4726562 0,1.58203129 0.773437,2.56640629 2.039062,2.56640629 0.644532,0 1.101563,-0.24609375 1.5,-0.83203125 V 9.296875e-4 h 0.667969 z m -2.0625,2.4023437 c 0.808594,0 1.3125,0.7265625 1.3125,1.8398438 0,1.0898437 -0.515625,1.80468749 -1.3125,1.80468749 -0.820312,0 -1.371094,-0.72656249 -1.371094,-1.81640629 0,-1.1015625 0.550782,-1.828125 1.371094,-1.828125 z m 6.75293,1.3710938 h 2.050781 c 0.515625,0 0.914063,-0.1523438 1.265625,-0.46875 0.386719,-0.3632813 0.5625,-0.7851563 0.5625,-1.3828125 0,-1.2304688 -0.726562,-1.921875 -2.015625,-1.921875 H 42.361977 V 9.296875e-4 h 0.832031 z m 0,-0.7382813 v -2.296875 h 1.734375 c 0.796875,0 1.277344,0.4335938 1.277344,1.1484375 0,0.7148438 -0.480469,1.1484375 -1.277344,1.1484375 z m 8.762695,3.07031254 c -0.08203,0.0117188 -0.117187,0.0117188 -0.152344,0.0117188 -0.269531,0 -0.410156,-0.12890625 -0.410156,-0.36328125 V -3.5498516 c 0,-0.8320312 -0.609375,-1.2773437 -1.769531,-1.2773437 -0.679688,0 -1.242188,0.1875 -1.558594,0.5390625 -0.210937,0.2460937 -0.304687,0.515625 -0.316406,0.984375 h 0.75 c 0.05859,-0.5742188 0.398437,-0.8320313 1.101562,-0.8320313 0.667969,0 1.054688,0.2460938 1.054688,0.6914063 v 0.1992187 c 0,0.3164063 -0.1875,0.4453125 -0.785156,0.515625 -1.054688,0.140625 -1.21875,0.1757813 -1.5,0.2929688 -0.550782,0.2226562 -0.832032,0.6445312 -0.832032,1.2539062 0,0.85546879 0.597657,1.39453129 1.546875,1.39453129 0.585938,0 1.066407,-0.2109375025 1.59375,-0.69140625 0.04687,0.46875 0.28125,0.69140625 0.773438,0.69140625 0.152344,0 0.269531,-0.0234375 0.503906,-0.0820313 z M 50.655922,-1.4756328 c 0,0.2460937 -0.08203,0.3984375 -0.304688,0.60937499 -0.304687,0.28125 -0.667968,0.421875 -1.113281,0.421875 -0.574219,0 -0.914062,-0.28125 -0.914062,-0.76171879 0,-0.4921875 0.328125,-0.7382812 1.125,-0.8554687 0.785156,-0.1054688 0.949218,-0.140625 1.207031,-0.2578125 z m 5.416992,-1.9101563 c -0.01172,-0.9257812 -0.621094,-1.4414062 -1.699219,-1.4414062 -1.101562,0 -1.804687,0.5625 -1.804687,1.4296875 0,0.7382812 0.375,1.0898437 1.488281,1.359375 l 0.703125,0.1640625 c 0.515625,0.1289062 0.726563,0.3164062 0.726563,0.65625 0,0.43359374 -0.445313,0.73828124 -1.101563,0.73828124 -0.398437,0 -0.738281,-0.1171875 -0.925781,-0.31640625 -0.117188,-0.140625 -0.175781,-0.26953129 -0.222656,-0.59765629 H 52.45182 c 0.03516,1.07812504 0.644532,1.60546879 1.875,1.60546879 1.183594,0 1.933594,-0.5859375 1.933594,-1.48828129 0,-0.703125 -0.398437,-1.0898437 -1.324219,-1.3125 l -0.714843,-0.1757812 c -0.609375,-0.140625 -0.867188,-0.3398438 -0.867188,-0.6679688 0,-0.4335937 0.375,-0.703125 0.984375,-0.703125 0.609375,0 0.925781,0.2578125 0.949219,0.75 z m 4.485352,0 c -0.01172,-0.9257812 -0.621094,-1.4414062 -1.699219,-1.4414062 -1.101563,0 -1.804688,0.5625 -1.804688,1.4296875 0,0.7382812 0.375,1.0898437 1.488282,1.359375 l 0.703125,0.1640625 c 0.515625,0.1289062 0.726562,0.3164062 0.726562,0.65625 0,0.43359374 -0.445312,0.73828124 -1.101562,0.73828124 -0.398438,0 -0.738282,-0.1171875 -0.925782,-0.31640625 -0.117187,-0.140625 -0.175781,-0.26953129 -0.222656,-0.59765629 h -0.785156 c 0.03516,1.07812504 0.644531,1.60546879 1.875,1.60546879 1.183594,0 1.933594,-0.5859375 1.933594,-1.48828129 0,-0.703125 -0.398438,-1.0898437 -1.324219,-1.3125 l -0.714844,-0.1757812 c -0.609375,-0.140625 -0.867187,-0.3398438 -0.867187,-0.6679688 0,-0.4335937 0.375,-0.703125 0.984375,-0.703125 0.609375,0 0.925781,0.2578125 0.949218,0.75 z m 0,0"
       style="fill:#000000;fill-opacity:1;fill-rule:nonzero;stroke:none"
       aria-label="BackwardPass"
       transform="matrix(1.3333333,0,0,1.3333333,252.18533,64.502667)" />
    <path
       id="path11"
       d="m 305.1136,-28.3468 h 89.02554 V 28.34682 H 305.1136 Z"
       style="fill:#d1f3ff;fill-opacity:1;fill-rule:nonzero;stroke:#2294bd;stroke-width:0.74721;stroke-linecap:butt;stroke-linejoin:miter;stroke-miterlimit:10;stroke-dasharray:none;stroke-opacity:1"
       transform="matrix(1.3333333,0,0,-1.3333333,59.848,38.293333)" />
    <path
       id="path12"
       d="m 2.0510859,-2.8116328 h 3.1289063 v -1.125 H 2.0510859 v -1.4765625 h 3.3867188 v -1.125 H 0.70342969 V 8.671875e-4 H 5.5901484 V -1.1241328 H 2.0510859 Z M 9.1204219,8.671875e-4 10.784484,-4.8389766 H 9.4602656 L 8.4758906,-1.2999141 7.4329219,-4.8389766 H 6.1087031 l 1.6875,4.8398437875 z M 15.486633,-0.15147656 c -0.222656,-0.2109375 -0.292969,-0.33984375 -0.292969,-0.5859375 V -3.4327266 c 0,-0.984375 -0.667969,-1.4882812 -1.980469,-1.4882812 -1.300781,0 -1.992187,0.5507812 -2.0625,1.6757812 h 1.207032 c 0.05859,-0.5039062 0.269531,-0.6679687 0.890625,-0.6679687 0.480468,0 0.726562,0.1640625 0.726562,0.4921875 0,0.1640625 -0.08203,0.3046875 -0.222656,0.375 -0.164063,0.09375 -0.164063,0.09375 -0.785156,0.1875 l -0.503907,0.09375 c -0.960937,0.1523437 -1.429687,0.6445312 -1.429687,1.5234375 0,0.41015624 0.117187,0.74999999 0.339844,0.99609374 0.28125,0.28125 0.703125,0.45703125 1.136718,0.45703125 0.539063,0 1.03125,-0.234375 1.464844,-0.69140625 0,0.24609375 0.03516,0.33984375 0.152344,0.4804687475 h 1.359375 z M 13.974914,-1.9444453 c 0,0.7265625 -0.363281,1.13671874 -0.996094,1.13671874 -0.421875,0 -0.679687,-0.22265624 -0.679687,-0.58593754 0,-0.375 0.1875,-0.5507812 0.714844,-0.65625 l 0.421875,-0.082031 c 0.339843,-0.058594 0.386718,-0.082031 0.539062,-0.1523438 z m 3.647461,-4.59375 H 16.368469 V 8.671875e-4 h 1.253906 z M 23.115539,8.671875e-4 V -4.8389766 h -1.253906 v 3.0234375 c 0,0.5742188 -0.410156,0.96093754 -1.019531,0.96093754 -0.539063,0 -0.808594,-0.29296874 -0.808594,-0.87890624 v -3.1054688 h -1.253906 v 3.375 c 0,1.06640629 0.597656,1.67578129 1.628906,1.67578129 0.65625,0 1.089844,-0.24609375 1.453125,-0.78515625 V 8.671875e-4 Z M 28.441711,-0.15147656 c -0.222656,-0.2109375 -0.292969,-0.33984375 -0.292969,-0.5859375 V -3.4327266 c 0,-0.984375 -0.667969,-1.4882812 -1.980469,-1.4882812 -1.300781,0 -1.992187,0.5507812 -2.0625,1.6757812 h 1.207032 c 0.05859,-0.5039062 0.269531,-0.6679687 0.890625,-0.6679687 0.480468,0 0.726562,0.1640625 0.726562,0.4921875 0,0.1640625 -0.08203,0.3046875 -0.222656,0.375 -0.164063,0.09375 -0.164063,0.09375 -0.785156,0.1875 l -0.503907,0.09375 c -0.960937,0.1523437 -1.429687,0.6445312 -1.429687,1.5234375 0,0.41015624 0.117187,0.74999999 0.339844,0.99609374 0.28125,0.28125 0.703125,0.45703125 1.136718,0.45703125 0.539063,0 1.03125,-0.234375 1.464844,-0.69140625 0,0.24609375 0.03516,0.33984375 0.152344,0.4804687475 h 1.359375 z M 26.929992,-1.9444453 c 0,0.7265625 -0.363281,1.13671874 -0.996094,1.13671874 -0.421875,0 -0.679687,-0.22265624 -0.679687,-0.58593754 0,-0.375 0.1875,-0.5507812 0.714844,-0.65625 l 0.421875,-0.082031 c 0.339843,-0.058594 0.386718,-0.082031 0.539062,-0.1523438 z m 4.494141,-2.8007813 h -0.691406 v -1.3007812 h -1.265625 v 1.3007812 h -0.609375 v 0.8320313 h 0.609375 v 2.97656249 c 0,0.76171875 0.410156,1.1484375 1.230468,1.1484375 0.28125,0 0.503907,-0.0351563 0.726563,-0.10546875 v -0.87890625 c -0.117188,0.0234375 -0.199219,0.0351563 -0.28125,0.0351563 -0.339844,0 -0.410156,-0.10546875 -0.410156,-0.53906259 v -2.6367187 h 0.691406 z m 2.141601,-0.09375 H 32.311828 V 8.671875e-4 h 1.253906 z m 0,-1.6992187 h -1.253906 v 1.125 h 1.253906 z m 3.336914,1.6171875 c -1.476562,0 -2.378906,0.9726562 -2.378906,2.5664062 0,1.59375004 0.902344,2.56640629 2.390625,2.56640629 1.464844,0 2.390625,-0.984375 2.390625,-2.53124999 0,-1.640625 -0.878906,-2.6015625 -2.402344,-2.6015625 z m 0.01172,1.0078125 c 0.691406,0 1.136719,0.6210937 1.136719,1.5703125 0,0.9140625 -0.46875,1.53515624 -1.136719,1.53515624 -0.679687,0 -1.136719,-0.62109374 -1.136719,-1.54687504 0,-0.9257812 0.457032,-1.5585937 1.136719,-1.5585937 z m 3.333985,-0.9257813 V 8.671875e-4 h 1.253906 V -2.9053828 c 0,-0.5742188 0.410156,-0.9492188 1.019531,-0.9492188 0.539063,0 0.808594,0.2929688 0.808594,0.8671875 V 8.671875e-4 H 44.58429 V -3.2452266 c 0,-1.0664062 -0.597656,-1.6757812 -1.628906,-1.6757812 -0.65625,0 -1.089844,0.2460937 -1.453125,0.7851562 v -0.703125 z m 9.427734,2.5078125 h 1.675781 c 1.195313,0 1.96875,-0.8554687 1.96875,-2.1796875 0,-1.3007812 -0.738281,-2.0273437 -2.109375,-2.0273437 H 48.32843 V 8.671875e-4 h 1.347656 z m 0,-1.125 v -1.9570312 h 1.253906 c 0.714844,0 1.042969,0.3164062 1.042969,0.984375 0,0.6679687 -0.328125,0.9726562 -1.042969,0.9726562 z m 5.803711,-1.3828125 H 54.225891 V 8.671875e-4 h 1.253906 z m 0,-1.6992187 h -1.253906 v 1.125 h 1.253906 z m 2.411133,1.6992187 h -1.253907 v 6.796875 h 1.253907 v -2.53124996 c 0.304687,0.5390625 0.738281,0.78515625 1.347656,0.78515625 1.171875,0 2.027344,-1.08984375 2.027344,-2.55468749 0,-0.6914063 -0.199219,-1.3710938 -0.515625,-1.8164063 -0.328125,-0.4570312 -0.925782,-0.7617187 -1.511719,-0.7617187 -0.609375,0 -1.042969,0.2578125 -1.347656,0.796875 z m 1.066406,0.9726563 c 0.632812,0 1.054687,0.609375 1.054687,1.5351562 0,0.8789063 -0.433593,1.50000004 -1.054687,1.50000004 -0.632813,0 -1.066406,-0.60937504 -1.066406,-1.51171874 0,-0.9140625 0.433593,-1.5234375 1.066406,-1.5234375 z m 7.341797,1.8398437 c 0.01172,-0.1054687 0.01172,-0.1523437 0.01172,-0.2109375 0,-0.4921875 -0.07031,-0.9375 -0.1875,-1.2773437 -0.328125,-0.8789063 -1.113282,-1.40625 -2.085938,-1.40625 -1.382812,0 -2.238281,1.0078125 -2.238281,2.625 0,1.55859374 0.84375,2.50781249 2.214844,2.50781249 1.078125,0 1.957031,-0.62109375 2.238281,-1.57031249 h -1.24219 c -0.152343,0.38671874 -0.492187,0.60937499 -0.949218,0.60937499 -0.363282,0 -0.644532,-0.15234375 -0.832032,-0.42187499 -0.117187,-0.1875 -0.164062,-0.3984375 -0.175781,-0.8554688 z m -3.234375,-0.8320312 c 0.08203,-0.7382813 0.398437,-1.1015625 0.960937,-1.1015625 0.304688,0 0.597657,0.1523437 0.773438,0.3984375 0.117187,0.1875 0.175781,0.375 0.199219,0.703125 z m 5.370117,-3.6796875 H 67.180969 V 8.671875e-4 h 1.253906 z m 2.493164,1.6992187 H 69.674133 V 8.671875e-4 h 1.253906 z m 0,-1.6992187 h -1.253906 v 1.125 h 1.253906 z m 1.204102,1.6992187 V 8.671875e-4 h 1.253906 V -2.9053828 c 0,-0.5742188 0.410156,-0.9492188 1.019531,-0.9492188 0.539063,0 0.808594,0.2929688 0.808594,0.8671875 V 8.671875e-4 h 1.253906 V -3.2452266 c 0,-1.0664062 -0.597656,-1.6757812 -1.628906,-1.6757812 -0.65625,0 -1.089844,0.2460937 -1.453125,0.7851562 v -0.703125 z m 9.615234,2.8125 c 0.01172,-0.1054687 0.01172,-0.1523437 0.01172,-0.2109375 0,-0.4921875 -0.07031,-0.9375 -0.1875,-1.2773437 -0.328125,-0.8789063 -1.113282,-1.40625 -2.085938,-1.40625 -1.382812,0 -2.238281,1.0078125 -2.238281,2.625 0,1.55859374 0.84375,2.50781249 2.214844,2.50781249 1.078125,0 1.957031,-0.62109375 2.238281,-1.57031249 h -1.242188 c -0.152343,0.38671874 -0.492187,0.60937499 -0.949218,0.60937499 -0.363282,0 -0.644532,-0.15234375 -0.832032,-0.42187499 -0.117187,-0.1875 -0.164062,-0.3984375 -0.175781,-0.8554688 z M 78.513,-2.8585078 c 0.08203,-0.7382813 0.398437,-1.1015625 0.960937,-1.1015625 0.304688,0 0.597657,0.1523437 0.773438,0.3984375 0.117187,0.1875 0.175781,0.375 0.199219,0.703125 z m 0,0"
       style="fill:#000000;fill-opacity:1;fill-rule:nonzero;stroke:none"
       aria-label="EvaluationPipeline"
       transform="matrix(1.3333333,0,0,1.3333333,471.316,26.784)" />
    <path
       id="path13"
       d="M 3.5167109,-0.00110156 5.7784297,-6.5401641 H 4.8995234 l -1.8164062,5.53125 -1.921875,-5.53125 H 0.27061719 l 2.34375001,6.53906254 z m 6.6298831,-0.43359375 c -0.08203,0.0117188 -0.117188,0.0117188 -0.152344,0.0117188 -0.2695313,0 -0.4101563,-0.12890625 -0.4101563,-0.36328125 V -3.5518828 c 0,-0.8320313 -0.609375,-1.2773438 -1.7695312,-1.2773438 -0.6796875,0 -1.2421875,0.1875 -1.5585938,0.5390625 -0.2109375,0.2460938 -0.3046875,0.515625 -0.3164062,0.984375 h 0.75 C 6.7481562,-3.8800078 7.088,-4.1378203 7.791125,-4.1378203 c 0.6679687,0 1.0546875,0.2460937 1.0546875,0.6914062 v 0.1992188 c 0,0.3164062 -0.1875,0.4453125 -0.7851563,0.515625 -1.0546875,0.140625 -1.21875,0.1757812 -1.5,0.2929687 -0.5507812,0.2226563 -0.8320312,0.6445313 -0.8320312,1.2539063 0,0.85546874 0.5976562,1.39453124 1.546875,1.39453124 0.5859375,0 1.0664062,-0.2109375 1.59375,-0.69140625 0.046875,0.46875 0.28125,0.69140625 0.7734375,0.69140625 0.1523437,0 0.2695312,-0.0234375 0.5039065,-0.0820313 z M 8.8458125,-1.4776641 c 0,0.2460938 -0.082031,0.3984375 -0.3046875,0.60937504 -0.3046875,0.28125 -0.6679688,0.421875 -1.1132813,0.421875 -0.5742187,0 -0.9140625,-0.28125 -0.9140625,-0.76171874 0,-0.4921875 0.328125,-0.7382813 1.125,-0.8554688 C 8.4239375,-2.1690703 8.588,-2.2042266 8.8458125,-2.3214141 Z m 2.8505855,-5.0625 h -0.75 v 6.53906254 h 0.75 z m 1.980469,1.8398438 h -0.75 v 4.69921874 h 0.75 z m 0,-1.8398438 h -0.761719 v 0.9492188 h 0.761719 z m 5.083008,0 h -0.75 v 2.4375 c -0.316406,-0.4804687 -0.808594,-0.7265625 -1.441406,-0.7265625 -1.21875,0 -2.015625,0.9726563 -2.015625,2.4726563 0,1.58203124 0.773437,2.56640624 2.039062,2.56640624 0.644531,0 1.101563,-0.24609375 1.5,-0.83203125 v 0.62109375 h 0.667969 z m -2.0625,2.4023438 c 0.808594,0 1.3125,0.7265625 1.3125,1.8398437 0,1.0898438 -0.515625,1.80468754 -1.3125,1.80468754 -0.820313,0 -1.371094,-0.72656254 -1.371094,-1.81640624 0,-1.1015625 0.550781,-1.828125 1.371094,-1.828125 z m 7.400391,3.70312499 c -0.08203,0.0117188 -0.117188,0.0117188 -0.152344,0.0117188 -0.269531,0 -0.410156,-0.12890625 -0.410156,-0.36328125 V -3.5518828 c 0,-0.8320313 -0.609375,-1.2773438 -1.769532,-1.2773438 -0.679687,0 -1.242187,0.1875 -1.558593,0.5390625 -0.210938,0.2460938 -0.304688,0.515625 -0.316407,0.984375 h 0.75 c 0.05859,-0.5742187 0.398438,-0.8320312 1.101563,-0.8320312 0.667969,0 1.054687,0.2460937 1.054687,0.6914062 v 0.1992188 c 0,0.3164062 -0.1875,0.4453125 -0.785156,0.515625 -1.054687,0.140625 -1.21875,0.1757812 -1.5,0.2929687 -0.550781,0.2226563 -0.832031,0.6445313 -0.832031,1.2539063 0,0.85546874 0.597656,1.39453124 1.546875,1.39453124 0.585937,0 1.066406,-0.2109375 1.59375,-0.69140625 0.04687,0.46875 0.28125,0.69140625 0.773437,0.69140625 0.152344,0 0.269532,-0.0234375 0.503907,-0.0820313 z M 22.796984,-1.4776641 c 0,0.2460938 -0.08203,0.3984375 -0.304687,0.60937504 -0.304688,0.28125 -0.667969,0.421875 -1.113281,0.421875 -0.574219,0 -0.914063,-0.28125 -0.914063,-0.76171874 0,-0.4921875 0.328125,-0.7382813 1.125,-0.8554688 0.785156,-0.1054687 0.949219,-0.140625 1.207031,-0.2578125 z m 3.767578,-3.2226562 h -0.761718 v -1.2890625 h -0.75 v 1.2890625 h -0.632813 v 0.609375 h 0.632813 v 3.55078124 c 0,0.48046875 0.328125,0.75 0.902343,0.75 0.1875,0 0.363282,-0.0234375 0.609375,-0.0703125 v -0.62109375 c -0.09375,0.0234375 -0.210937,0.0351563 -0.351562,0.0351563 -0.328125,0 -0.410156,-0.09375 -0.410156,-0.421875 V -4.0909453 h 0.761718 z m 1.564454,0 h -0.75 v 4.69921874 h 0.75 z m 0,-1.8398438 h -0.761719 v 0.9492188 h 0.761719 z m 3.082031,1.7109375 c -1.3125,0 -2.109375,0.9375 -2.109375,2.5195313 0,1.57031249 0.785156,2.51953124 2.121094,2.51953124 1.3125,0 2.121093,-0.94921875 2.121093,-2.48437504 0,-1.6289062 -0.773437,-2.5546875 -2.132812,-2.5546875 z m 0.01172,0.6914063 c 0.84375,0 1.347656,0.6796875 1.347656,1.8515625 0,1.1015625 -0.527344,1.80468749 -1.347656,1.80468749 -0.832032,0 -1.347657,-0.69140629 -1.347657,-1.82812499 0,-1.1367188 0.515625,-1.828125 1.347657,-1.828125 z m 3.169921,-0.5625 v 4.69921874 h 0.75 V -2.5909453 c 0,-0.9609375 0.503907,-1.5820313 1.265625,-1.5820313 0.597657,0 0.972657,0.3515625 0.972657,0.9140625 v 3.25781254 h 0.75 V -3.5518828 c 0,-0.7734375 -0.585938,-1.2773438 -1.488282,-1.2773438 -0.703125,0 -1.148437,0.2695313 -1.570312,0.9140625 v -0.7851562 z m 11.62793,4.26562499 c -0.08203,0.0117188 -0.117187,0.0117188 -0.152344,0.0117188 -0.269531,0 -0.410156,-0.12890625 -0.410156,-0.36328125 V -3.5518828 c 0,-0.8320313 -0.609375,-1.2773438 -1.769531,-1.2773438 -0.679688,0 -1.242188,0.1875 -1.558594,0.5390625 -0.210937,0.2460938 -0.304687,0.515625 -0.316406,0.984375 h 0.75 c 0.05859,-0.5742187 0.398437,-0.8320312 1.101562,-0.8320312 0.667969,0 1.054688,0.2460937 1.054688,0.6914062 v 0.1992188 c 0,0.3164062 -0.1875,0.4453125 -0.785156,0.515625 -1.054688,0.140625 -1.21875,0.1757812 -1.5,0.2929687 -0.550782,0.2226563 -0.832032,0.6445313 -0.832032,1.2539063 0,0.85546874 0.597657,1.39453124 1.546875,1.39453124 0.585938,0 1.066407,-0.2109375 1.59375,-0.69140625 0.04687,0.46875 0.28125,0.69140625 0.773438,0.69140625 0.152344,0 0.269531,-0.0234375 0.503906,-0.0820313 z M 44.719836,-1.4776641 c 0,0.2460938 -0.08203,0.3984375 -0.304688,0.60937504 -0.304687,0.28125 -0.667968,0.421875 -1.113281,0.421875 -0.574219,0 -0.914062,-0.28125 -0.914062,-0.76171874 0,-0.4921875 0.328125,-0.7382813 1.125,-0.8554688 0.785156,-0.1054687 0.949218,-0.140625 1.207031,-0.2578125 z m 2.126953,-3.2226562 v 4.69921874 h 0.75 V -2.5909453 c 0,-0.9609375 0.503906,-1.5820313 1.265625,-1.5820313 0.597656,0 0.972656,0.3515625 0.972656,0.9140625 v 3.25781254 h 0.75 V -3.5518828 c 0,-0.7734375 -0.585937,-1.2773438 -1.488281,-1.2773438 -0.703125,0 -1.148437,0.2695313 -1.570312,0.9140625 v -0.7851562 z m 8.791992,-1.8398438 h -0.75 v 2.4375 c -0.316406,-0.4804687 -0.808594,-0.7265625 -1.441406,-0.7265625 -1.21875,0 -2.015625,0.9726563 -2.015625,2.4726563 0,1.58203124 0.773437,2.56640624 2.039062,2.56640624 0.644532,0 1.101563,-0.24609375 1.5,-0.83203125 v 0.62109375 h 0.667969 z m -2.0625,2.4023438 c 0.808594,0 1.3125,0.7265625 1.3125,1.8398437 0,1.0898438 -0.515625,1.80468754 -1.3125,1.80468754 -0.820312,0 -1.371094,-0.72656254 -1.371094,-1.81640624 0,-1.1015625 0.550782,-1.828125 1.371094,-1.828125 z m 0,0"
       style="fill:#000000;fill-opacity:1;fill-rule:nonzero;stroke:none"
       aria-label="Validationand"
       transform="matrix(1.3333333,0,0,1.3333333,488.54933,41.396)" />
    <path
       id="path14"
       d="M 4.1952734,-1.40625e-4 6.0351172,-5.4727969 V -1.40625e-4 H 6.8202734 V -6.5392031 H 5.6601172 L 3.7616797,-0.84389063 1.8280859,-6.5392031 H 0.66792969 V -1.40625e-4 H 1.4648047 V -5.4727969 L 3.3163672,-1.40625e-4 Z M 12.061484,-2.0977969 c 0,-0.7148437 -0.04687,-1.1484375 -0.1875,-1.5 -0.304687,-0.7734375 -1.019531,-1.2304687 -1.8984371,-1.2304687 -1.3007813,0 -2.1445313,0.9960937 -2.1445313,2.5429687 0,1.54687502 0.8085938,2.49609377 2.1328125,2.49609377 1.0664059,0 1.8164059,-0.609375 2.0039059,-1.64062497 h -0.75 c -0.210937,0.62109372 -0.632812,0.94921872 -1.2304684,0.94921872 -0.4804687,0 -0.8789062,-0.22265625 -1.125,-0.60937502 -0.1875,-0.2695312 -0.2460937,-0.5390625 -0.2578125,-1.0078125 z m -3.4335934,-0.609375 c 0.058594,-0.8671875 0.5859375,-1.4296875 1.3359375,-1.4296875 0.7382809,0 1.3007809,0.609375 1.3007809,1.3710938 0,0.023437 0,0.035156 0,0.058594 z M 14.7275,-4.6993594 h -0.761719 v -1.2890625 h -0.75 v 1.2890625 h -0.632812 v 0.609375 h 0.632812 v 3.55078127 c 0,0.48046875 0.328125,0.75 0.902344,0.75 0.1875,0 0.363281,-0.0234375 0.609375,-0.0703125 v -0.62109375 c -0.09375,0.0234375 -0.210938,0.0351563 -0.351563,0.0351563 -0.328125,0 -0.410156,-0.09375 -0.410156,-0.421875 V -4.0899844 H 14.7275 Z m 0.84082,0 v 4.699218775 h 0.75 V -2.4376406 c 0,-0.6679688 0.175782,-1.1132813 0.527344,-1.3710938 0.234375,-0.1757812 0.457031,-0.2226562 0.984375,-0.234375 v -0.7617187 c -0.128906,-0.023437 -0.199219,-0.023437 -0.292969,-0.023437 -0.480468,0 -0.855468,0.28125 -1.277343,0.984375 v -0.8554688 z m 3.837891,0 h -0.75 v 4.699218775 h 0.75 z m 0,-1.8398437 h -0.761719 v 0.9492187 h 0.761719 z m 4.860351,3.421875 c -0.03516,-0.4570313 -0.128906,-0.75 -0.304687,-1.0195313 C 23.63375,-4.5704531 23.07125,-4.8282656 22.415,-4.8282656 c -1.265625,0 -2.085938,0.9960937 -2.085938,2.5546875 0,1.52343747 0.808594,2.48437497 2.074219,2.48437497 1.125,0 1.828125,-0.6796875 1.921875,-1.82812497 h -0.75 c -0.128906,0.76171872 -0.515625,1.13671872 -1.148437,1.13671872 -0.832032,0 -1.324219,-0.67968752 -1.324219,-1.79296872 0,-1.171875 0.492187,-1.8632813 1.300781,-1.8632813 0.632813,0 1.019531,0.3632813 1.113281,1.0195313 z m 4.192383,-0.2695313 c -0.01172,-0.9257812 -0.621093,-1.4414062 -1.699218,-1.4414062 -1.101563,0 -1.804688,0.5625 -1.804688,1.4296875 0,0.7382812 0.375,1.0898437 1.488281,1.359375 l 0.703125,0.1640625 c 0.515625,0.1289062 0.726563,0.3164062 0.726563,0.65625 0,0.43359372 -0.445313,0.73828122 -1.101563,0.73828122 -0.398437,0 -0.738281,-0.1171875 -0.925781,-0.31640625 -0.117187,-0.140625 -0.175781,-0.26953127 -0.222656,-0.59765627 h -0.785156 c 0.03516,1.07812502 0.644531,1.60546877 1.875,1.60546877 1.183593,0 1.933593,-0.5859375 1.933593,-1.48828127 0,-0.703125 -0.398437,-1.0898437 -1.324218,-1.3125 l -0.714844,-0.1757812 c -0.609375,-0.140625 -0.867188,-0.3398438 -0.867188,-0.6679688 0,-0.4335937 0.375,-0.703125 0.984375,-0.703125 0.609375,0 0.925782,0.2578125 0.949219,0.75 z m 8.979492,-1.125 c -0.257812,-1.4296875 -1.078125,-2.1328125 -2.519531,-2.1328125 -0.878906,0 -1.582031,0.28125 -2.0625,0.8203125 -0.597656,0.6445313 -0.914062,1.5703125 -0.914062,2.6367188 0,1.0664062 0.328125,1.9921875 0.949218,2.63671872 0.503907,0.515625 1.148438,0.76171875 1.992188,0.76171875 1.605469,0 2.496094,-0.8671875 2.695312,-2.58984377 h -0.867187 c -0.07031,0.4453125 -0.152344,0.75 -0.292969,1.0078125 -0.269531,0.53906252 -0.820312,0.84375002 -1.523437,0.84375002 -1.300782,0 -2.121094,-1.04296872 -2.121094,-2.67187502 0,-1.6757812 0.785156,-2.7070312 2.050781,-2.7070312 0.527344,0 1.019531,0.1640625 1.289063,0.4101562 0.246093,0.2226563 0.375,0.5039063 0.480468,0.984375 z m 2.979493,-0.3164062 c -1.3125,0 -2.109375,0.9375 -2.109375,2.5195312 0,1.57031252 0.785156,2.51953127 2.121093,2.51953127 1.3125,0 2.121094,-0.94921875 2.121094,-2.48437497 0,-1.6289063 -0.773437,-2.5546875 -2.132812,-2.5546875 z m 0.01172,0.6914062 c 0.84375,0 1.347657,0.6796875 1.347657,1.8515625 0,1.1015625 -0.527344,1.80468752 -1.347657,1.80468752 -0.832031,0 -1.347656,-0.69140622 -1.347656,-1.82812502 0,-1.1367187 0.515625,-1.828125 1.347656,-1.828125 z m 3.169922,-0.5625 v 4.699218775 h 0.75 V -2.9532656 c 0,-0.6796875 0.492188,-1.21875 1.101563,-1.21875 0.550781,0 0.867187,0.3398437 0.867187,0.9375 v 3.234374975 h 0.75 V -2.9532656 c 0,-0.6796875 0.492188,-1.21875 1.101563,-1.21875 0.550781,0 0.878906,0.3398437 0.878906,0.9375 v 3.234374975 h 0.75 V -3.5274844 c 0,-0.84375 -0.480469,-1.3007812 -1.359375,-1.3007812 -0.632812,0 -1.007812,0.1875 -1.453125,0.7148437 -0.269531,-0.5039062 -0.644531,-0.7148437 -1.253906,-0.7148437 -0.632813,0 -1.042969,0.234375 -1.453125,0.796875 v -0.6679688 z m 7.31543,6.65625 h 0.761719 v -2.44921873 c 0.386718,0.48046875 0.832031,0.703125 1.441406,0.703125 1.207031,0 2.003906,-0.984375 2.003906,-2.48437497 0,-1.5703125 -0.773437,-2.5546875 -2.015625,-2.5546875 -0.632812,0 -1.148437,0.28125 -1.5,0.84375 V -4.6993594 H 50.915 Z m 2.0625,-6.09375 c 0.832031,0 1.371094,0.7265625 1.371094,1.8515625 0,1.0664063 -0.550782,1.79296877 -1.371094,1.79296877 -0.785156,0 -1.300781,-0.71484377 -1.300781,-1.81640627 0,-1.1015625 0.515625,-1.828125 1.300781,-1.828125 z M 59.74508,-1.40625e-4 V -4.6993594 h -0.75 v 2.6601563 c 0,0.9609375 -0.503906,1.59374997 -1.277344,1.59374997 -0.597656,0 -0.972656,-0.36328125 -0.972656,-0.92578127 v -3.328125 h -0.738281 v 3.6210938 c 0,0.78515622 0.574219,1.28906247 1.488281,1.28906247 0.691406,0 1.136719,-0.24609375 1.570313,-0.8671875 V -1.40625e-4 Z M 62.680625,-4.6993594 h -0.761719 v -1.2890625 h -0.75 v 1.2890625 h -0.632812 v 0.609375 h 0.632812 v 3.55078127 c 0,0.48046875 0.328125,0.75 0.902344,0.75 0.1875,0 0.363281,-0.0234375 0.609375,-0.0703125 v -0.62109375 c -0.09375,0.0234375 -0.210938,0.0351563 -0.351563,0.0351563 -0.328125,0 -0.410156,-0.09375 -0.410156,-0.421875 V -4.0899844 h 0.761719 z m 5.012695,4.26562502 c -0.08203,0.0117188 -0.117187,0.0117188 -0.152343,0.0117188 -0.269532,0 -0.410157,-0.12890625 -0.410157,-0.36328125 V -3.5509219 c 0,-0.8320312 -0.609375,-1.2773437 -1.769531,-1.2773437 -0.679687,0 -1.242187,0.1875 -1.558594,0.5390625 -0.210937,0.2460937 -0.304687,0.515625 -0.316406,0.984375 h 0.75 c 0.05859,-0.5742188 0.398438,-0.8320313 1.101563,-0.8320313 0.667968,0 1.054687,0.2460938 1.054687,0.6914063 v 0.1992187 c 0,0.3164063 -0.1875,0.4453125 -0.785156,0.515625 -1.054688,0.140625 -1.21875,0.1757813 -1.5,0.2929688 -0.550781,0.2226562 -0.832031,0.6445312 -0.832031,1.2539062 0,0.85546877 0.597656,1.39453127 1.546875,1.39453127 0.585937,0 1.066406,-0.210937495 1.59375,-0.69140625 0.04687,0.46875 0.28125,0.69140625 0.773437,0.69140625 0.152344,0 0.269531,-0.0234375 0.503906,-0.0820313 z M 66.392539,-1.4767031 c 0,0.2460937 -0.08203,0.3984375 -0.304687,0.60937497 -0.304688,0.28125 -0.667969,0.421875 -1.113282,0.421875 -0.574218,0 -0.914062,-0.28125 -0.914062,-0.76171877 0,-0.4921875 0.328125,-0.7382812 1.125,-0.8554687 0.785156,-0.1054688 0.949219,-0.140625 1.207031,-0.2578125 z m 3.764648,-3.2226563 h -0.761718 v -1.2890625 h -0.75 v 1.2890625 h -0.632813 v 0.609375 h 0.632813 v 3.55078127 c 0,0.48046875 0.328125,0.75 0.902343,0.75 0.1875,0 0.363282,-0.0234375 0.609375,-0.0703125 v -0.62109375 c -0.09375,0.0234375 -0.210937,0.0351563 -0.351562,0.0351563 -0.328125,0 -0.410156,-0.09375 -0.410156,-0.421875 V -4.0899844 h 0.761718 z m 1.567383,0 h -0.75 v 4.699218775 h 0.75 z m 0,-1.8398437 h -0.761718 v 0.9492187 h 0.761718 z m 3.082032,1.7109375 c -1.3125,0 -2.109375,0.9375 -2.109375,2.5195312 0,1.57031252 0.785156,2.51953127 2.121093,2.51953127 1.3125,0 2.121094,-0.94921875 2.121094,-2.48437497 0,-1.6289063 -0.773437,-2.5546875 -2.132812,-2.5546875 z m 0.01172,0.6914062 c 0.84375,0 1.347657,0.6796875 1.347657,1.8515625 0,1.1015625 -0.527344,1.80468752 -1.347657,1.80468752 -0.832031,0 -1.347656,-0.69140622 -1.347656,-1.82812502 0,-1.1367187 0.515625,-1.828125 1.347656,-1.828125 z m 3.166992,-0.5625 v 4.699218775 h 0.75 V -2.5899844 c 0,-0.9609375 0.503907,-1.5820312 1.265625,-1.5820312 0.597657,0 0.972657,0.3515625 0.972657,0.9140625 v 3.257812475 h 0.75 V -3.5509219 c 0,-0.7734375 -0.585938,-1.2773437 -1.488282,-1.2773437 -0.703125,0 -1.148437,0.2695312 -1.570312,0.9140625 v -0.7851563 z m 0,0"
       style="fill:#000000;fill-opacity:1;fill-rule:nonzero;stroke:none"
       aria-label="MetricsComputation"
       transform="matrix(1.3333333,0,0,1.3333333,471.11333,56.008)" />
    <path
       id="path15"
       d="m 44.88637,0 h 79.83986"
       style="fill:none;stroke:#808080;stroke-width:0.99628;stroke-linecap:butt;stroke-linejoin:miter;stroke-miterlimit:10;stroke-dasharray:none;stroke-opacity:1"
       transform="matrix(1.3333333,0,0,-1.3333333,59.848,38.293333)" />
    <path
       id="path16"
       d="M 5.20058,0 C 3.65962,0.28891 1.15567,1.15567 -0.57784,2.1669 V -2.1669 C 1.15567,-1.15567 3.65962,-0.28891 5.20058,0"
       style="fill:#808080;fill-opacity:1;fill-rule:nonzero;stroke:none"
       transform="matrix(1.3333333,0,0,-1.3333333,226.14964,38.293333)" />
    <path
       id="path17"
       d="m 64.59596,-11.60257 h 45.62122 V 11.60257 H 64.59596 Z"
       style="fill:#e0e0e0;fill-opacity:1;fill-rule:nonzero;stroke:none"
       transform="matrix(1.3333333,0,0,-1.3333333,59.848,38.293333)" />
    <path
       id="path18"
       d="m 1.4656406,-2.4616641 h 1.828125 c 0.4570313,0 0.8085938,-0.140625 1.125,-0.4101562 0.3515625,-0.328125 0.5039063,-0.703125 0.5039063,-1.2304688 0,-1.0898437 -0.65625,-1.7109375 -1.7929688,-1.7109375 H 0.72735938 V -7.265625e-4 H 1.4656406 Z m 0,-0.65625 v -2.0390625 h 1.546875 c 0.7148438,0 1.1367188,0.3867188 1.1367188,1.0195313 0,0.6328125 -0.421875,1.0195312 -1.1367188,1.0195312 z M 5.8660313,-4.1726016 V -7.265625e-4 H 6.534 V -2.1686953 c 0,-0.5976563 0.1523438,-0.984375 0.46875,-1.21875 0.2109375,-0.1523438 0.4101563,-0.1992188 0.8671875,-0.2109375 v -0.6679688 c -0.1054687,-0.023437 -0.1640625,-0.035156 -0.2460937,-0.035156 -0.4335938,0 -0.7617188,0.2578125 -1.1484375,0.8789062 v -0.75 z m 4.2714847,-0.1289062 c -1.1718754,0 -1.8867191,0.84375 -1.8867191,2.25 0,1.39453124 0.703125,2.23828124 1.8984371,2.23828124 1.171875,0 1.886719,-0.84375 1.886719,-2.21484374 0,-1.4414063 -0.691406,-2.2734375 -1.898437,-2.2734375 z m 0.01172,0.6210937 c 0.75,0 1.195313,0.609375 1.195313,1.6523438 0,0.9726562 -0.46875,1.59374999 -1.195313,1.59374999 -0.7499996,0 -1.1953121,-0.60937499 -1.1953121,-1.61718749 0,-1.0078125 0.4453125,-1.6289063 1.1953121,-1.6289063 z m 6.00293,0.9023438 c -0.02344,-0.3984375 -0.117187,-0.6679688 -0.28125,-0.890625 -0.28125,-0.3984375 -0.785156,-0.6328125 -1.359375,-0.6328125 -1.125,0 -1.863281,0.9023437 -1.863281,2.2851562 0,1.34765629 0.714844,2.20312504 1.851562,2.20312504 0.996094,0 1.628907,-0.59765625 1.699219,-1.61718754 H 15.53107 c -0.105468,0.66796879 -0.457031,0.99609379 -1.019531,0.99609379 -0.726562,0 -1.171875,-0.59765629 -1.171875,-1.58203129 0,-1.0429687 0.433594,-1.6640625 1.160156,-1.6640625 0.550782,0 0.902344,0.328125 0.984375,0.9023438 z m 4.324219,0.9140625 c 0,-0.6445313 -0.04687,-1.0195313 -0.164063,-1.3359375 -0.28125,-0.6796875 -0.914062,-1.1015625 -1.699218,-1.1015625 -1.160157,0 -1.910157,0.9023437 -1.910157,2.2734375 0,1.37109374 0.726563,2.21484374 1.898438,2.21484374 0.960937,0 1.617187,-0.55078125 1.78125,-1.45312504 h -0.667969 c -0.175781,0.55078129 -0.550781,0.83203129 -1.089844,0.83203129 -0.421875,0 -0.785156,-0.1875 -1.007812,-0.5390625 C 17.464664,-1.2077578 17.40607,-1.4538516 17.394352,-1.8640078 Z m -3.058594,-0.5390625 c 0.04687,-0.7734375 0.527344,-1.2773438 1.195313,-1.2773438 0.644531,0 1.148437,0.5390625 1.148437,1.2304688 0,0.011719 0,0.023437 0,0.046875 z m 6.893555,-0.609375 c -0.01172,-0.8203125 -0.550781,-1.2890625 -1.511719,-1.2890625 -0.972656,0 -1.605469,0.5039062 -1.605469,1.2773437 0,0.65625 0.339844,0.9726563 1.324219,1.2070313 l 0.621094,0.1523437 c 0.457031,0.1054688 0.644531,0.28125 0.644531,0.5859375 0,0.38671879 -0.386719,0.64453129 -0.972656,0.64453129 -0.363281,0 -0.65625,-0.10546875 -0.832031,-0.28125 -0.105469,-0.1171875 -0.152344,-0.234375 -0.1875,-0.52734379 H 21.08869 c 0.03516,0.96093754 0.574218,1.42968754 1.664062,1.42968754 1.054688,0 1.722656,-0.52734375 1.722656,-1.32421874 0,-0.6210938 -0.351562,-0.9726563 -1.183593,-1.171875 L 22.659,-2.4499453 c -0.539062,-0.1289063 -0.773437,-0.3046875 -0.773437,-0.5976563 0,-0.3867187 0.339843,-0.6328125 0.890625,-0.6328125 0.527343,0 0.820312,0.234375 0.832031,0.6679688 z m 3.984375,0 C 28.284,-3.8327578 27.744938,-4.3015078 26.784,-4.3015078 c -0.972656,0 -1.605469,0.5039062 -1.605469,1.2773437 0,0.65625 0.339844,0.9726563 1.324219,1.2070313 l 0.621094,0.1523437 c 0.457031,0.1054688 0.644531,0.28125 0.644531,0.5859375 0,0.38671879 -0.386719,0.64453129 -0.972656,0.64453129 -0.363281,0 -0.65625,-0.10546875 -0.832031,-0.28125 -0.105469,-0.1171875 -0.152344,-0.234375 -0.1875,-0.52734379 h -0.703125 c 0.03516,0.96093754 0.574218,1.42968754 1.664062,1.42968754 1.054688,0 1.722656,-0.52734375 1.722656,-1.32421874 0,-0.6210938 -0.351562,-0.9726563 -1.183593,-1.171875 l -0.632813,-0.140625 c -0.539062,-0.1289063 -0.773437,-0.3046875 -0.773437,-0.5976563 0,-0.3867187 0.339843,-0.6328125 0.890625,-0.6328125 0.527343,0 0.820312,0.234375 0.832031,0.6679688 z m 4.582031,1.1484375 c 0,-0.6445313 -0.04687,-1.0195313 -0.164062,-1.3359375 -0.28125,-0.6796875 -0.914063,-1.1015625 -1.699219,-1.1015625 -1.160156,0 -1.910156,0.9023437 -1.910156,2.2734375 0,1.37109374 0.726562,2.21484374 1.898437,2.21484374 0.960938,0 1.617188,-0.55078125 1.78125,-1.45312504 h -0.667969 c -0.175781,0.55078129 -0.550781,0.83203129 -1.089843,0.83203129 -0.421875,0 -0.785157,-0.1875 -1.007813,-0.5390625 C 29.866031,-1.2077578 29.807438,-1.4538516 29.795719,-1.8640078 Z m -3.058594,-0.5390625 c 0.04687,-0.7734375 0.527344,-1.2773438 1.195313,-1.2773438 0.644531,0 1.148437,0.5390625 1.148437,1.2304688 0,0.011719 0,0.023437 0,0.046875 z m 7.350586,-3.4101563 h -0.667969 v 2.1679688 c -0.28125,-0.421875 -0.726562,-0.65625 -1.277343,-0.65625 -1.089844,0 -1.792969,0.8789062 -1.792969,2.203125 0,1.41796874 0.691406,2.28515624 1.816406,2.28515624 0.574219,0 0.972656,-0.22265625 1.324219,-0.73828125 v 0.5507812475 h 0.597656 z M 35.3299,-3.6686953 c 0.714844,0 1.171875,0.6328125 1.171875,1.6289062 0,0.9609375 -0.457031,1.60546879 -1.160156,1.60546879 -0.738281,0 -1.21875,-0.64453129 -1.21875,-1.61718749 0,-0.9726563 0.480469,-1.6171875 1.207031,-1.6171875 z m 0,0"
       style="fill:#000000;fill-opacity:1;fill-rule:nonzero;stroke:none"
       aria-label="Processed"
       transform="matrix(1.3333333,0,0,1.3333333,151.288,35.708)" />
    <path
       id="path19"
       d="M 0.63336719,9.375e-5 H 3.2466484 c 0.5507813,0 0.9609375,-0.15234375 1.2773438,-0.48046875 0.28125,-0.3046875 0.4453125,-0.7265625 0.4453125,-1.171875 0,-0.703125 -0.328125,-1.125 -1.0664063,-1.4179688 0.5273438,-0.2460937 0.8085938,-0.6796875 0.8085938,-1.265625 0,-0.421875 -0.1640625,-0.796875 -0.46875,-1.0664062 C 3.9497734,-5.6835 3.5513359,-5.8124063 2.9888359,-5.8124063 H 0.63336719 Z M 1.3716484,-3.3045938 v -1.8515625 h 1.4296875 c 0.421875,0 0.6445313,0.058594 0.84375,0.2109375 0.2109375,0.1523438 0.328125,0.3984375 0.328125,0.7148438 0,0.3046875 -0.1171875,0.5625 -0.328125,0.7148437 -0.1992187,0.1523438 -0.421875,0.2109375 -0.84375,0.2109375 z m 0,2.64843755 V -2.6483438 h 1.8046875 c 0.3632813,0 0.5976563,0.082031 0.7734375,0.2695313 0.1757813,0.1875 0.2695313,0.4453125 0.2695313,0.7265625 0,0.28125 -0.09375,0.5390625 -0.2695313,0.71484375 -0.1757812,0.19921875 -0.4101562,0.28125 -0.7734375,0.28125 z M 9.5806328,-0.386625 c -0.070312,0.0117188 -0.1054687,0.0117188 -0.140625,0.0117188 -0.234375,0 -0.3632812,-0.1171875 -0.3632812,-0.328125 V -3.15225 c 0,-0.75 -0.5390625,-1.1484375 -1.5703125,-1.1484375 -0.609375,0 -1.1132813,0.1757812 -1.3828125,0.4921875 -0.1992188,0.2109375 -0.2695313,0.4570312 -0.2929688,0.8671875 h 0.6679688 c 0.058594,-0.5039063 0.3632812,-0.7382813 0.984375,-0.7382813 0.5976562,0 0.9375,0.2226563 0.9375,0.6210938 v 0.1757812 c 0,0.28125 -0.1757813,0.3984375 -0.703125,0.4570313 -0.9375,0.1171875 -1.078125,0.1523437 -1.3359375,0.2578125 -0.4804688,0.1992187 -0.7265625,0.5742187 -0.7265625,1.1132812 0,0.7617188 0.515625,1.24218755 1.3710937,1.24218755 0.515625,0 0.9375,-0.1875 1.4179688,-0.62109375 0.046875,0.421875 0.2460937,0.62109375 0.6796875,0.62109375 0.140625,0 0.234375,-0.0234375 0.4570312,-0.0703125 z M 8.4204766,-1.3124063 c 0,0.2226563 -0.070312,0.35156255 -0.2695313,0.53906255 -0.2695312,0.24609375 -0.5976562,0.375 -0.984375,0.375 -0.515625,0 -0.8203125,-0.24609375 -0.8203125,-0.66796875 0,-0.4453125 0.2929688,-0.6679688 0.9960938,-0.7617188 0.703125,-0.1054687 0.84375,-0.1289062 1.078125,-0.234375 z m 3.3544924,-2.859375 h -0.691406 v -1.1484375 h -0.65625 v 1.1484375 H 9.8648125 v 0.5390625 h 0.5625005 v 3.1523438 c 0,0.421875 0.28125,0.66796875 0.796875,0.66796875 0.164062,0 0.328125,-0.0234375 0.550781,-0.0585938 v -0.5625 c -0.09375,0.0234375 -0.199219,0.0351563 -0.316406,0.0351563 -0.292969,0 -0.375,-0.0820313 -0.375,-0.375 V -3.6327188 h 0.691406 z m 3.9375,1.3945313 c -0.02344,-0.3984375 -0.117188,-0.6679688 -0.28125,-0.890625 -0.28125,-0.3984375 -0.785156,-0.6328125 -1.359375,-0.6328125 -1.125,0 -1.863281,0.9023437 -1.863281,2.2851562 0,1.3476563 0.714843,2.20312505 1.851562,2.20312505 0.996094,0 1.628906,-0.59765625 1.699219,-1.61718755 H 15.091375 C 14.985906,-0.761625 14.634344,-0.4335 14.071844,-0.4335 c -0.726563,0 -1.171875,-0.5976563 -1.171875,-1.5820313 0,-1.0429687 0.433594,-1.6640625 1.160156,-1.6640625 0.550781,0 0.902344,0.328125 0.984375,0.9023438 z m 0.796875,-3.0351563 V 9.375e-5 h 0.65625 V -2.3085 c 0,-0.84375 0.445312,-1.40625 1.136719,-1.40625 0.210937,0 0.421875,0.070312 0.585937,0.1875 0.1875,0.140625 0.269531,0.3398437 0.269531,0.6328125 V 9.375e-5 h 0.65625 V -3.15225 c 0,-0.703125 -0.492187,-1.1484375 -1.3125,-1.1484375 -0.585937,0 -0.949218,0.1875 -1.335937,0.703125 v -2.2148438 z m 7.959961,3.9492188 c 0,-0.6445313 -0.04687,-1.0195313 -0.164063,-1.3359375 -0.28125,-0.6796875 -0.914062,-1.1015625 -1.699219,-1.1015625 -1.160156,0 -1.910156,0.9023437 -1.910156,2.2734375 0,1.37109375 0.726563,2.21484375 1.898438,2.21484375 0.960937,0 1.617187,-0.55078125 1.78125,-1.45312505 H 23.707586 C 23.531805,-0.71475 23.156805,-0.4335 22.617742,-0.4335 c -0.421875,0 -0.785156,-0.1875 -1.007812,-0.5390625 -0.152344,-0.234375 -0.210938,-0.4804688 -0.222657,-0.890625 z M 21.410711,-2.40225 c 0.04687,-0.7734375 0.527344,-1.2773438 1.195312,-1.2773438 0.644532,0 1.148438,0.5390625 1.148438,1.2304688 0,0.011719 0,0.023437 0,0.046875 z m 6.893555,-0.609375 c -0.01172,-0.8203125 -0.550782,-1.2890625 -1.511719,-1.2890625 -0.972656,0 -1.605469,0.5039062 -1.605469,1.2773437 0,0.65625 0.339844,0.9726563 1.324219,1.2070313 l 0.621094,0.1523437 c 0.457031,0.1054688 0.644531,0.28125 0.644531,0.5859375 0,0.3867188 -0.386719,0.6445313 -0.972656,0.6445313 -0.363282,0 -0.65625,-0.10546875 -0.832032,-0.28125 -0.105468,-0.1171875 -0.152343,-0.234375 -0.1875,-0.5273438 h -0.703125 c 0.03516,0.96093755 0.574219,1.42968755 1.664063,1.42968755 1.054687,0 1.722656,-0.52734375 1.722656,-1.32421875 0,-0.6210938 -0.351562,-0.9726563 -1.183594,-1.171875 l -0.632812,-0.140625 c -0.539063,-0.1289063 -0.773438,-0.3046875 -0.773438,-0.5976563 0,-0.3867187 0.339844,-0.6328125 0.890625,-0.6328125 0.527344,0 0.820313,0.234375 0.832032,0.6679688 z m 0,0"
       style="fill:#000000;fill-opacity:1;fill-rule:nonzero;stroke:none"
       aria-label="Batches"
       transform="matrix(1.3333333,0,0,1.3333333,157.19067,48.328)" />
    <path
       id="path20"
       d="m 219.69955,16.33717 h 79.83986"
       style="fill:none;stroke:#808080;stroke-width:0.99628;stroke-linecap:butt;stroke-linejoin:miter;stroke-miterlimit:10;stroke-dasharray:none;stroke-opacity:1"
       transform="matrix(1.3333333,0,0,-1.3333333,59.848,38.293333)" />
    <path
       id="path21"
       d="M 5.20058,0 C 3.65962,0.28891 1.15567,1.15567 -0.57784,2.1669 V -2.1669 C 1.15567,-1.15567 3.65962,-0.28891 5.20058,0"
       style="fill:#808080;fill-opacity:1;fill-rule:nonzero;stroke:none"
       transform="matrix(1.3333333,0,0,-1.3333333,459.23388,16.51044)" />
    <path
       id="path22"
       d="m 239.72804,4.7346 h 44.98344 v 23.20514 h -44.98344 z"
       style="fill:#e0e0e0;fill-opacity:1;fill-rule:nonzero;stroke:none"
       transform="matrix(1.3333333,0,0,-1.3333333,59.848,38.293333)" />
    <path
       id="path23"
       d="m 1.4518516,-2.6481016 h 3.1640625 v -0.65625 H 1.4518516 v -1.8515625 h 3.2929687 v -0.65625 H 0.71357031 V 3.359375e-4 H 4.8854453 V -0.65591406 H 1.4518516 Z M 7.5895469,3.359375e-4 9.1832969,-4.1715391 H 8.4450156 L 7.2614219,-0.78482031 6.1481406,-4.1715391 h -0.75 L 6.8629844,3.359375e-4 Z M 13.366891,-0.38638281 c -0.07031,0.0117188 -0.105469,0.0117188 -0.140625,0.0117188 -0.234375,0 -0.363282,-0.1171875 -0.363282,-0.328125 V -3.1520078 c 0,-0.75 -0.539062,-1.1484375 -1.570312,-1.1484375 -0.609375,0 -1.113281,0.1757812 -1.3828126,0.4921875 -0.1992188,0.2109375 -0.2695313,0.4570312 -0.2929688,0.8671875 h 0.6679684 c 0.05859,-0.5039063 0.363282,-0.7382813 0.984375,-0.7382813 0.597657,0 0.9375,0.2226563 0.9375,0.6210938 v 0.1757812 c 0,0.28125 -0.175781,0.3984375 -0.703125,0.4570313 -0.9375,0.1171875 -1.078125,0.1523437 -1.335937,0.2578125 -0.4804689,0.1992187 -0.7265626,0.5742187 -0.7265626,1.1132812 0,0.76171879 0.515625,1.24218754 1.3710936,1.24218754 0.515625,0 0.9375,-0.1875000025 1.417969,-0.62109375 0.04687,0.421875 0.246094,0.62109375 0.679687,0.62109375 0.140625,0 0.234375,-0.0234375 0.457032,-0.0703125 z M 12.206734,-1.3121641 c 0,0.2226563 -0.07031,0.35156254 -0.269531,0.53906254 -0.269531,0.24609375 -0.597656,0.375 -0.984375,0.375 -0.515625,0 -0.820312,-0.24609375 -0.820312,-0.66796874 0,-0.4453125 0.292968,-0.6679688 0.996093,-0.7617188 0.703125,-0.1054687 0.84375,-0.1289062 1.078125,-0.234375 z m 2.53418,-4.5 H 14.072945 V 3.359375e-4 h 0.667969 z m 4.40625,5.8125000375 V -4.1715391 h -0.667969 v 2.3671875 c 0,0.84375004 -0.445312,1.40625004 -1.136718,1.40625004 -0.527344,0 -0.855469,-0.31640625 -0.855469,-0.82031254 v -2.953125 h -0.667969 v 3.21093754 c 0,0.703125 0.515625,1.1484375 1.335938,1.1484375 0.609375,0 0.996093,-0.22265625 1.394531,-0.7734375 V 3.359375e-4 Z M 23.998727,-0.38638281 c -0.07031,0.0117188 -0.105469,0.0117188 -0.140625,0.0117188 -0.234375,0 -0.363282,-0.1171875 -0.363282,-0.328125 V -3.1520078 c 0,-0.75 -0.539062,-1.1484375 -1.570312,-1.1484375 -0.609375,0 -1.113281,0.1757812 -1.382813,0.4921875 -0.199218,0.2109375 -0.269531,0.4570312 -0.292968,0.8671875 h 0.667968 c 0.05859,-0.5039063 0.363282,-0.7382813 0.984375,-0.7382813 0.597657,0 0.9375,0.2226563 0.9375,0.6210938 v 0.1757812 c 0,0.28125 -0.175781,0.3984375 -0.703125,0.4570313 -0.9375,0.1171875 -1.078125,0.1523437 -1.335937,0.2578125 -0.480469,0.1992187 -0.726563,0.5742187 -0.726563,1.1132812 0,0.76171879 0.515625,1.24218754 1.371094,1.24218754 0.515625,0 0.9375,-0.1875000025 1.417969,-0.62109375 0.04687,0.421875 0.246094,0.62109375 0.679687,0.62109375 0.140625,0 0.234375,-0.0234375 0.457032,-0.0703125 z M 22.83857,-1.3121641 c 0,0.2226563 -0.07031,0.35156254 -0.269531,0.53906254 -0.269531,0.24609375 -0.597656,0.375 -0.984375,0.375 -0.515625,0 -0.820312,-0.24609375 -0.820312,-0.66796874 0,-0.4453125 0.292968,-0.6679688 0.996093,-0.7617188 0.703125,-0.1054687 0.84375,-0.1289062 1.078125,-0.234375 z m 3.354493,-2.859375 h -0.691407 v -1.1484375 h -0.65625 v 1.1484375 h -0.5625 v 0.5390625 h 0.5625 v 3.15234379 c 0,0.421875 0.28125,0.66796875 0.796875,0.66796875 0.164063,0 0.328125,-0.0234375 0.550782,-0.0585938 v -0.5625 c -0.09375,0.0234375 -0.199219,0.0351563 -0.316407,0.0351563 -0.292968,0 -0.375,-0.0820313 -0.375,-0.375 V -3.6324766 h 0.691407 z m 1.382812,0 h -0.65625 V 3.359375e-4 h 0.65625 z m 0,-1.640625 h -0.667969 v 0.84375 h 0.667969 z m 2.742188,1.5117188 c -1.171875,0 -1.886719,0.84375 -1.886719,2.25 0,1.39453124 0.703125,2.23828124 1.898437,2.23828124 1.171875,0 1.886719,-0.84375 1.886719,-2.21484374 0,-1.4414063 -0.691406,-2.2734375 -1.898437,-2.2734375 z m 0.01172,0.6210937 c 0.75,0 1.195313,0.609375 1.195313,1.6523438 0,0.9726562 -0.46875,1.59374999 -1.195313,1.59374999 -0.75,0 -1.195312,-0.60937499 -1.195312,-1.61718749 0,-1.0078125 0.445312,-1.6289063 1.195312,-1.6289063 z m 2.81543,-0.4921875 V 3.359375e-4 H 33.81318 V -2.3082578 c 0,-0.84375 0.445312,-1.40625 1.125,-1.40625 0.527343,0 0.867187,0.3164062 0.867187,0.8203125 V 3.359375e-4 h 0.65625 V -3.1520078 c 0,-0.6914063 -0.515625,-1.1484375 -1.324219,-1.1484375 -0.621093,0 -1.019531,0.2460937 -1.382812,0.8320312 v -0.703125 z m 0,0"
       style="fill:#000000;fill-opacity:1;fill-rule:nonzero;stroke:none"
       aria-label="Evaluation"
       transform="matrix(1.3333333,0,0,1.3333333,384.79467,13.925333)" />
    <path
       id="path24"
       d="M 3.7257109,0.00115625 5.3663359,-4.862125 V 0.00115625 H 6.0577422 V -5.8113437 H 5.0382109 l -1.6875,5.06249995 L 1.6280547,-5.8113437 H 0.59680469 V 0.00115625 H 1.2999297 V -4.862125 L 2.9522734,0.00115625 Z M 10.727664,-1.862125 c 0,-0.6445312 -0.04687,-1.0195312 -0.164062,-1.3359375 C 10.282352,-3.87775 9.6495391,-4.299625 8.8643828,-4.299625 c -1.1601562,0 -1.9101562,0.9023438 -1.9101562,2.2734375 0,1.37109375 0.7265625,2.21484375 1.8984375,2.21484375 0.9609375,0 1.6171879,-0.55078125 1.7812499,-1.45312495 H 9.9659453 c -0.1757812,0.5507812 -0.5507812,0.8320312 -1.0898437,0.8320312 -0.421875,0 -0.7851563,-0.1875 -1.0078125,-0.5390625 C 7.7159453,-1.205875 7.6573516,-1.4519687 7.6456328,-1.862125 Z M 7.6690703,-2.4011875 c 0.046875,-0.7734375 0.5273438,-1.2773437 1.1953125,-1.2773437 0.6445313,0 1.1484372,0.5390625 1.1484372,1.2304687 0,0.011719 0,0.023437 0,0.046875 z m 5.4287107,-1.7695312 h -0.691406 v -1.1484375 h -0.65625 v 1.1484375 h -0.5625 v 0.5390625 h 0.5625 v 3.1523437 c 0,0.421875 0.28125,0.66796875 0.796875,0.66796875 0.164063,0 0.328125,-0.0234375 0.550781,-0.0585938 v -0.5625 c -0.09375,0.0234375 -0.199218,0.0351563 -0.316406,0.0351563 -0.292969,0 -0.375,-0.0820313 -0.375,-0.375 V -3.6316562 h 0.691406 z m 0.738282,0 v 4.17187495 h 0.667968 V -2.1668125 c 0,-0.5976562 0.152344,-0.984375 0.46875,-1.21875 0.210938,-0.1523437 0.410157,-0.1992187 0.867188,-0.2109375 v -0.6679687 c -0.105469,-0.023437 -0.164063,-0.035156 -0.246094,-0.035156 -0.433594,0 -0.761719,0.2578125 -1.148437,0.8789063 v -0.75 z m 3.410156,0 h -0.65625 v 4.17187495 h 0.65625 z m 0,-1.640625 H 16.57825 v 0.84375 h 0.667969 z m 4.324219,3.0351562 C 21.547,-3.174625 21.45325,-3.4441562 21.289188,-3.6668125 21.007938,-4.06525 20.504031,-4.299625 19.929813,-4.299625 c -1.125,0 -1.863282,0.9023438 -1.863282,2.2851563 0,1.3476562 0.714844,2.20312495 1.851563,2.20312495 0.996094,0 1.628906,-0.59765625 1.699219,-1.61718745 h -0.667969 c -0.105469,0.6679687 -0.457031,0.9960937 -1.019531,0.9960937 -0.726563,0 -1.171875,-0.5976562 -1.171875,-1.5820312 0,-1.0429688 0.433593,-1.6640625 1.160156,-1.6640625 0.550781,0 0.902344,0.328125 0.984375,0.9023437 z M 25.297,-3.0105625 C 25.28528,-3.830875 24.746219,-4.299625 23.785281,-4.299625 c -0.972656,0 -1.605468,0.5039063 -1.605468,1.2773438 0,0.65625 0.339843,0.9726562 1.324218,1.2070312 l 0.621094,0.1523438 c 0.457031,0.1054687 0.644531,0.28125 0.644531,0.5859375 0,0.3867187 -0.386718,0.6445312 -0.972656,0.6445312 -0.363281,0 -0.65625,-0.10546875 -0.832031,-0.28125 -0.105469,-0.1171875 -0.152344,-0.234375 -0.1875,-0.5273437 h -0.703125 c 0.03516,0.96093745 0.574219,1.42968745 1.664062,1.42968745 1.054688,0 1.722657,-0.52734375 1.722657,-1.32421875 0,-0.6210937 -0.351563,-0.9726562 -1.183594,-1.171875 l -0.632813,-0.140625 c -0.539062,-0.1289062 -0.773437,-0.3046875 -0.773437,-0.5976562 0,-0.3867188 0.339844,-0.6328125 0.890625,-0.6328125 0.527344,0 0.820312,0.234375 0.832031,0.6679687 z m 0,0"
       style="fill:#000000;fill-opacity:1;fill-rule:nonzero;stroke:none"
       aria-label="Metrics"
       transform="matrix(1.3333333,0,0,1.3333333,392.27067,26.545333)" />
    <path
       id="path25"
       d="m 224.90015,-16.33717 h 79.83984"
       style="fill:none;stroke:#808080;stroke-width:0.99628;stroke-linecap:butt;stroke-linejoin:miter;stroke-miterlimit:10;stroke-dasharray:none;stroke-opacity:1"
       transform="matrix(1.3333333,0,0,-1.3333333,59.848,38.293333)" />
    <path
       id="path26"
       d="M 5.20058,0 C 3.65962,0.28891 1.15567,1.15567 -0.57784,2.1669 V -2.1669 C 1.15567,-1.15567 3.65962,-0.28891 5.20058,0"
       style="fill:#808080;fill-opacity:1;fill-rule:nonzero;stroke:none"
       transform="matrix(-1.3333333,0,0,1.3333333,359.71487,60.076227)" />
    <path
       id="path27"
       d="m 240.9354,-23.42387 h 42.56876 V -9.2505 H 240.9354 Z"
       style="fill:#e0e0e0;fill-opacity:1;fill-rule:nonzero;stroke:none"
       transform="matrix(1.3333333,0,0,-1.3333333,59.848,38.293333)" />
    <path
       id="path28"
       d="m 1.4518828,-2.6478516 h 2.7773438 v -0.65625 H 1.4518828 v -1.8515625 h 3.1640625 v -0.65625 H 0.71360156 V 5.859375e-4 H 1.4518828 Z m 7.2685547,0.7851563 c 0,-0.6445313 -0.046875,-1.0195313 -0.1640625,-1.3359375 C 8.275125,-3.8783203 7.6423125,-4.3001953 6.8571563,-4.3001953 5.697,-4.3001953 4.947,-3.3978516 4.947,-2.0267578 c 0,1.37109374 0.7265625,2.21484374 1.8984375,2.21484374 0.9609375,0 1.6171875,-0.55078125 1.78125,-1.45312504 H 7.9587188 c -0.1757813,0.55078129 -0.5507813,0.83203129 -1.0898438,0.83203129 -0.421875,0 -0.7851562,-0.1875 -1.0078125,-0.5390625 C 5.7087188,-1.2064453 5.650125,-1.4525391 5.6384063,-1.8626953 Z M 5.6618438,-2.4017578 c 0.046875,-0.7734375 0.5273437,-1.2773438 1.1953125,-1.2773438 0.6445312,0 1.1484375,0.5390625 1.1484375,1.2304688 0,0.011719 0,0.023437 0,0.046875 z m 7.4912112,0.5390625 c 0,-0.6445313 -0.04687,-1.0195313 -0.164063,-1.3359375 -0.28125,-0.6796875 -0.914062,-1.1015625 -1.699219,-1.1015625 -1.160156,0 -1.9101558,0.9023437 -1.9101558,2.2734375 0,1.37109374 0.7265628,2.21484374 1.8984378,2.21484374 0.960937,0 1.617187,-0.55078125 1.78125,-1.45312504 h -0.667969 c -0.175781,0.55078129 -0.550781,0.83203129 -1.089844,0.83203129 -0.421875,0 -0.785156,-0.1875 -1.007812,-0.5390625 C 10.141336,-1.2064453 10.082742,-1.4525391 10.071023,-1.8626953 Z m -3.058594,-0.5390625 c 0.04687,-0.7734375 0.527344,-1.2773438 1.195312,-1.2773438 0.644532,0 1.148438,0.5390625 1.148438,1.2304688 0,0.011719 0,0.023437 0,0.046875 z m 7.347656,-3.4101563 h -0.667969 v 2.1679688 c -0.28125,-0.421875 -0.726562,-0.65625 -1.277343,-0.65625 -1.089844,0 -1.792969,0.8789062 -1.792969,2.203125 0,1.41796874 0.691406,2.28515624 1.816406,2.28515624 0.574219,0 0.972656,-0.22265625 1.324219,-0.73828125 V 5.859375e-4 h 0.597656 z m -1.839844,2.1445313 c 0.714844,0 1.171875,0.6328125 1.171875,1.6289062 0,0.9609375 -0.457031,1.60546879 -1.160156,1.60546879 -0.738281,0 -1.21875,-0.64453129 -1.21875,-1.61718749 0,-0.9726563 0.480469,-1.6171875 1.207031,-1.6171875 z m 2.756836,-2.1445313 V 5.859375e-4 h 0.597657 V -0.53847656 c 0.316406,0.4921875 0.738281,0.7265625 1.324218,0.7265625 1.089844,0 1.816407,-0.90234375 1.816407,-2.29687504 0,-1.3476562 -0.691407,-2.1914062 -1.792969,-2.1914062 -0.574219,0 -0.972656,0.2226562 -1.289063,0.6914062 v -2.203125 z m 1.816407,2.1445313 c 0.75,0 1.21875,0.6445312 1.21875,1.640625 0,0.9492187 -0.492188,1.59374999 -1.21875,1.59374999 -0.691407,0 -1.160157,-0.64453129 -1.160157,-1.61718749 0,-0.984375 0.46875,-1.6171875 1.160157,-1.6171875 z m 6.445312,3.28124999 c -0.07031,0.0117188 -0.105469,0.0117188 -0.140625,0.0117188 -0.234375,0 -0.363281,-0.1171875 -0.363281,-0.328125 V -3.1517578 c 0,-0.75 -0.539063,-1.1484375 -1.570313,-1.1484375 -0.609375,0 -1.113281,0.1757812 -1.382812,0.4921875 -0.199219,0.2109375 -0.269531,0.4570312 -0.292969,0.8671875 h 0.667969 c 0.05859,-0.5039063 0.363281,-0.7382813 0.984375,-0.7382813 0.597656,0 0.9375,0.2226563 0.9375,0.6210938 v 0.1757812 c 0,0.28125 -0.175781,0.3984375 -0.703125,0.4570313 -0.9375,0.1171875 -1.078125,0.1523437 -1.335938,0.2578125 -0.480468,0.1992187 -0.726562,0.5742187 -0.726562,1.1132812 0,0.76171879 0.515625,1.24218754 1.371094,1.24218754 0.515625,0 0.9375,-0.1875000025 1.417968,-0.62109375 0.04687,0.421875 0.246094,0.62109375 0.679688,0.62109375 0.140625,0 0.234375,-0.0234375 0.457031,-0.0703125 z M 25.460672,-1.3119141 c 0,0.2226563 -0.07031,0.35156254 -0.269531,0.53906254 -0.269532,0.24609375 -0.597657,0.375 -0.984375,0.375 -0.515625,0 -0.820313,-0.24609375 -0.820313,-0.66796874 0,-0.4453125 0.292969,-0.6679688 0.996094,-0.7617188 0.703125,-0.1054687 0.84375,-0.1289062 1.078125,-0.234375 z m 5.077148,-1.4648437 c -0.02344,-0.3984375 -0.117187,-0.6679688 -0.28125,-0.890625 -0.28125,-0.3984375 -0.785156,-0.6328125 -1.359375,-0.6328125 -1.125,0 -1.863281,0.9023437 -1.863281,2.2851562 0,1.34765629 0.714844,2.20312504 1.851563,2.20312504 0.996093,0 1.628906,-0.59765625 1.699218,-1.61718754 h -0.667968 c -0.105469,0.66796879 -0.457032,0.99609379 -1.019532,0.99609379 -0.726562,0 -1.171875,-0.59765629 -1.171875,-1.58203129 0,-1.0429687 0.433594,-1.6640625 1.160157,-1.6640625 0.550781,0 0.902343,0.328125 0.984375,0.9023438 z m 1.201172,-3.0351563 H 31.071023 V 5.859375e-4 h 0.667969 V -1.6283203 l 0.644531,-0.6328125 1.40625,2.2617187375 h 0.820313 L 32.910867,-2.7298828 34.363992,-4.1712891 h -0.855469 l -1.769531,1.7695313 z m 0,0"
       style="fill:#000000;fill-opacity:1;fill-rule:nonzero;stroke:none"
       aria-label="Feedback"
       transform="matrix(1.3333333,0,0,1.3333333,386.404,63.8)" />
  </g>
</svg>
