<?xml version="1.0" encoding="UTF-8" standalone="no"?>
<!-- Created with Inkscape (http://www.inkscape.org/) -->

<svg
   version="1.1"
   id="svg1"
   width="636.14532"
   height="223.41733"
   viewBox="0 0 636.14532 223.41733"
   xmlns="http://www.w3.org/2000/svg"
   xmlns:svg="http://www.w3.org/2000/svg">
  <defs
     id="defs1" />
  <g
     id="g1">
    <path
       id="path1"
       d="M -42.51413,-57.3869 H 42.51414 V 57.3869 h -85.02827 z"
       style="fill:#ffffe5;fill-opacity:1;fill-rule:nonzero;stroke:#b5b548;stroke-width:0.74721;stroke-linecap:butt;stroke-linejoin:miter;stroke-miterlimit:10;stroke-dasharray:none;stroke-opacity:1"
       transform="matrix(1.3333333,0,0,-1.3333333,57.182667,119.268)" />
    <path
       id="path2"
       d="m 57.44698,-57.3869 h 250.934 V 57.3869 h -250.934 z"
       style="fill:#ffffe5;fill-opacity:1;fill-rule:nonzero;stroke:#b5b548;stroke-width:0.74721;stroke-linecap:butt;stroke-linejoin:miter;stroke-miterlimit:10;stroke-dasharray:none;stroke-opacity:1"
       transform="matrix(1.3333333,0,0,-1.3333333,57.182667,119.268)" />
    <path
       id="path3"
       d="m 348.82579,-77.73985 h 85.02827 V 89.07857 h -85.02827 z"
       style="fill:#ffffe5;fill-opacity:1;fill-rule:nonzero;stroke:#b5b548;stroke-width:0.74721;stroke-linecap:butt;stroke-linejoin:miter;stroke-miterlimit:10;stroke-dasharray:none;stroke-opacity:1"
       transform="matrix(1.3333333,0,0,-1.3333333,57.182667,119.268)" />
    <path
       id="path4"
       d="M -31.18149,-14.17339 H 31.18149 V 14.1734 h -62.36298 z"
       style="fill:#fde2f0;fill-opacity:1;fill-rule:nonzero;stroke:#c9146e;stroke-width:0.74721;stroke-linecap:butt;stroke-linejoin:miter;stroke-miterlimit:10;stroke-dasharray:none;stroke-opacity:1"
       transform="matrix(1.3333333,0,0,-1.3333333,57.182667,119.268)" />
    <path
       id="path5"
       d="m 1.6649375,-2.8127266 h 2.15625 c 0.7382813,0 1.078125,0.3515625 1.078125,1.1601563 l -0.011719,0.5859375 c 0,0.39843749 0.070312,0.79687499 0.1875,1.0664062375 H 6.0829063 V -0.21116406 c -0.3046875,-0.2109375 -0.375,-0.4453125 -0.3867188,-1.31250004 -0.011719,-1.078125 -0.1875,-1.3945312 -0.890625,-1.6992187 0.7382813,-0.3632813 1.03125,-0.8203125 1.03125,-1.5703125 0,-1.125 -0.703125,-1.7460938 -1.9921875,-1.7460938 H 0.83290625 V -2.265625e-4 H 1.6649375 Z m 0,-0.7382812 v -2.25 h 2.015625 c 0.46875,0 0.7382813,0.070312 0.9492188,0.2460937 0.2226562,0.1992188 0.3398437,0.4921875 0.3398437,0.8789063 0,0.7734375 -0.3984375,1.125 -1.2890625,1.125 z m 9.6005855,3.11718749 c -0.08203,0.0117188 -0.117187,0.0117188 -0.152343,0.0117188 -0.269532,0 -0.410157,-0.12890625 -0.410157,-0.36328125 V -3.5510078 c 0,-0.8320313 -0.609375,-1.2773438 -1.7695308,-1.2773438 -0.6796875,0 -1.2421875,0.1875 -1.5585938,0.5390625 -0.2109375,0.2460938 -0.3046875,0.515625 -0.3164062,0.984375 h 0.75 c 0.058594,-0.5742187 0.3984375,-0.8320312 1.1015625,-0.8320312 0.6679687,0 1.0546875,0.2460937 1.0546875,0.6914062 v 0.1992188 c 0,0.3164062 -0.1875,0.4453125 -0.7851563,0.515625 -1.0546875,0.140625 -1.21875,0.1757812 -1.5,0.2929687 -0.5507812,0.2226563 -0.8320312,0.6445313 -0.8320312,1.2539063 0,0.85546874 0.5976562,1.39453124 1.546875,1.39453124 0.5859375,0 1.0664062,-0.2109375025 1.59375,-0.69140625 0.046875,0.46875 0.2812503,0.69140625 0.7734373,0.69140625 0.152344,0 0.269531,-0.0234375 0.503906,-0.0820313 z M 9.9647422,-1.4767891 c 0,0.2460938 -0.082031,0.3984375 -0.3046875,0.60937504 -0.3046875,0.28125 -0.6679688,0.421875 -1.1132813,0.421875 -0.5742187,0 -0.9140625,-0.28125 -0.9140625,-0.76171874 0,-0.4921875 0.328125,-0.7382813 1.125,-0.8554688 0.7851563,-0.1054687 0.9492188,-0.140625 1.2070313,-0.2578125 z M 16.248922,-2.265625e-4 17.631734,-4.6994453 h -0.84375 l -0.9375,3.65625 -0.925781,-3.65625 h -0.914062 l -0.890625,3.65625 -0.960938,-3.65625 h -0.820312 l 1.359375,4.6992187375 h 0.84375 L 14.444234,-3.6799141 15.393453,-2.265625e-4 Z m 4.792969,0 h 2.519531 c 1.652344,0 2.660156,-1.2421875375 2.660156,-3.2695312375 0,-2.0273438 -0.996094,-3.2695313 -2.660156,-3.2695313 H 21.041891 Z M 21.873922,-0.73850781 V -5.8010078 h 1.546875 c 1.289062,0 1.96875,0.8671875 1.96875,2.5429687 0,1.640625 -0.679688,2.51953129 -1.96875,2.51953129 z m 9.638672,0.3046875 c -0.08203,0.0117188 -0.117188,0.0117188 -0.152344,0.0117188 -0.269531,0 -0.410156,-0.12890625 -0.410156,-0.36328125 V -3.5510078 c 0,-0.8320313 -0.609375,-1.2773438 -1.769531,-1.2773438 -0.679688,0 -1.242188,0.1875 -1.558594,0.5390625 -0.210938,0.2460938 -0.304688,0.515625 -0.316406,0.984375 h 0.75 c 0.05859,-0.5742187 0.398437,-0.8320312 1.101562,-0.8320312 0.667969,0 1.054688,0.2460937 1.054688,0.6914062 v 0.1992188 c 0,0.3164062 -0.1875,0.4453125 -0.785157,0.515625 -1.054687,0.140625 -1.21875,0.1757812 -1.5,0.2929687 -0.550781,0.2226563 -0.832031,0.6445313 -0.832031,1.2539063 0,0.85546874 0.597656,1.39453124 1.546875,1.39453124 0.585938,0 1.066406,-0.2109375025 1.59375,-0.69140625 0.04687,0.46875 0.28125,0.69140625 0.773438,0.69140625 0.152343,0 0.269531,-0.0234375 0.503906,-0.0820313 z M 30.211813,-1.4767891 c 0,0.2460938 -0.08203,0.3984375 -0.304688,0.60937504 -0.304687,0.28125 -0.667969,0.421875 -1.113281,0.421875 -0.574219,0 -0.914063,-0.28125 -0.914063,-0.76171874 0,-0.4921875 0.328125,-0.7382813 1.125,-0.8554688 0.785157,-0.1054687 0.949219,-0.140625 1.207032,-0.2578125 z m 3.767578,-3.2226562 h -0.761719 v -1.2890625 h -0.75 v 1.2890625 h -0.632813 v 0.609375 h 0.632813 v 3.55078124 c 0,0.48046875 0.328125,0.75 0.902344,0.75 0.1875,0 0.363281,-0.0234375 0.609375,-0.0703125 v -0.62109375 c -0.09375,0.0234375 -0.210938,0.0351563 -0.351563,0.0351563 -0.328125,0 -0.410156,-0.09375 -0.410156,-0.421875 V -4.0900703 h 0.761719 z m 5.012695,4.26562499 c -0.08203,0.0117188 -0.117188,0.0117188 -0.152344,0.0117188 -0.269531,0 -0.410156,-0.12890625 -0.410156,-0.36328125 V -3.5510078 c 0,-0.8320313 -0.609375,-1.2773438 -1.769531,-1.2773438 -0.679688,0 -1.242188,0.1875 -1.558594,0.5390625 -0.210938,0.2460938 -0.304688,0.515625 -0.316406,0.984375 h 0.75 c 0.05859,-0.5742187 0.398437,-0.8320312 1.101562,-0.8320312 0.667969,0 1.054688,0.2460937 1.054688,0.6914062 v 0.1992188 c 0,0.3164062 -0.1875,0.4453125 -0.785157,0.515625 -1.054687,0.140625 -1.21875,0.1757812 -1.5,0.2929687 -0.550781,0.2226563 -0.832031,0.6445313 -0.832031,1.2539063 0,0.85546874 0.597656,1.39453124 1.546875,1.39453124 0.585938,0 1.066406,-0.2109375025 1.59375,-0.69140625 0.04687,0.46875 0.28125,0.69140625 0.773438,0.69140625 0.152343,0 0.269531,-0.0234375 0.503906,-0.0820313 z M 37.691305,-1.4767891 c 0,0.2460938 -0.08203,0.3984375 -0.304688,0.60937504 -0.304687,0.28125 -0.667969,0.421875 -1.113281,0.421875 -0.574219,0 -0.914063,-0.28125 -0.914063,-0.76171874 0,-0.4921875 0.328125,-0.7382813 1.125,-0.8554688 0.785157,-0.1054687 0.949219,-0.140625 1.207032,-0.2578125 z m 0,0"
       style="fill:#000000;fill-opacity:1;fill-rule:nonzero;stroke:none"
       aria-label="RawData"
       transform="matrix(1.3333333,0,0,1.3333333,31.061333,123.45733)" />
    <path
       id="path6"
       d="m 68.77963,-14.17339 h 62.36298 V 14.1734 H 68.77963 Z"
       style="fill:#d1f3ff;fill-opacity:1;fill-rule:nonzero;stroke:#2294bd;stroke-width:0.74721;stroke-linecap:butt;stroke-linejoin:miter;stroke-miterlimit:10;stroke-dasharray:none;stroke-opacity:1"
       transform="matrix(1.3333333,0,0,-1.3333333,57.182667,119.268)" />
    <path
       id="path7"
       d="M 1.6415,-2.9767891 H 4.7586875 V -3.7150703 H 1.6415 V -5.8010078 H 5.1922813 V -6.5392891 H 0.80946875 V -2.265625e-4 H 1.6415 Z m 6.0058594,-1.8515625 c -1.3125,0 -2.109375,0.9375 -2.109375,2.5195313 0,1.57031249 0.7851562,2.51953124 2.1210937,2.51953124 1.3125,0 2.1210938,-0.94921875 2.1210938,-2.48437504 0,-1.6289062 -0.7734375,-2.5546875 -2.1328125,-2.5546875 z m 0.011719,0.6914063 c 0.84375,0 1.3476563,0.6796875 1.3476563,1.8515625 0,1.1015625 -0.5273438,1.80468749 -1.3476563,1.80468749 -0.8320312,0 -1.3476562,-0.69140629 -1.3476562,-1.82812499 0,-1.1367188 0.515625,-1.828125 1.3476562,-1.828125 z m 3.1582026,-0.5625 v 4.6992187375 h 0.75 V -2.4377266 c 0,-0.6679687 0.175782,-1.1132812 0.527344,-1.3710937 0.234375,-0.1757813 0.457031,-0.2226563 0.984375,-0.234375 v -0.7617188 c -0.128906,-0.023437 -0.199219,-0.023437 -0.292969,-0.023437 -0.480468,0 -0.855468,0.28125 -1.277343,0.984375 v -0.8554687 z m 3.219727,0 v 4.6992187375 h 0.75 V -2.9533516 c 0,-0.6796875 0.492187,-1.21875 1.101562,-1.21875 0.550782,0 0.867188,0.3398438 0.867188,0.9375 v 3.2343750375 h 0.75 V -2.9533516 c 0,-0.6796875 0.492187,-1.21875 1.101562,-1.21875 0.550782,0 0.878907,0.3398438 0.878907,0.9375 v 3.2343750375 h 0.75 V -3.5275703 c 0,-0.84375 -0.480469,-1.3007813 -1.359375,-1.3007813 -0.632813,0 -1.007813,0.1875 -1.453125,0.7148438 -0.269532,-0.5039063 -0.644532,-0.7148438 -1.253907,-0.7148438 -0.632812,0 -1.042968,0.234375 -1.453125,0.796875 v -0.6679687 z m 11.630859,4.26562499 c -0.08203,0.0117188 -0.117187,0.0117188 -0.152344,0.0117188 -0.269531,0 -0.410156,-0.12890625 -0.410156,-0.36328125 V -3.5510078 c 0,-0.8320313 -0.609375,-1.2773438 -1.769531,-1.2773438 -0.679688,0 -1.242188,0.1875 -1.558594,0.5390625 -0.210937,0.2460938 -0.304687,0.515625 -0.316406,0.984375 h 0.75 c 0.05859,-0.5742187 0.398437,-0.8320312 1.101562,-0.8320312 0.667969,0 1.054688,0.2460937 1.054688,0.6914062 v 0.1992188 c 0,0.3164062 -0.1875,0.4453125 -0.785156,0.515625 -1.054688,0.140625 -1.21875,0.1757812 -1.5,0.2929687 -0.550782,0.2226563 -0.832032,0.6445313 -0.832032,1.2539063 0,0.85546874 0.597657,1.39453124 1.546875,1.39453124 0.585938,0 1.066407,-0.2109375025 1.59375,-0.69140625 0.04687,0.46875 0.28125,0.69140625 0.773438,0.69140625 0.152344,0 0.269531,-0.0234375 0.503906,-0.0820313 z M 24.367086,-1.4767891 c 0,0.2460938 -0.08203,0.3984375 -0.304688,0.60937504 -0.304687,0.28125 -0.667968,0.421875 -1.113281,0.421875 -0.574219,0 -0.914062,-0.28125 -0.914062,-0.76171874 0,-0.4921875 0.328125,-0.7382813 1.125,-0.8554688 0.785156,-0.1054687 0.949218,-0.140625 1.207031,-0.2578125 z m 3.764648,-3.2226562 h -0.761718 v -1.2890625 h -0.75 v 1.2890625 h -0.632813 v 0.609375 h 0.632813 v 3.55078124 c 0,0.48046875 0.328125,0.75 0.902343,0.75 0.1875,0 0.363282,-0.0234375 0.609375,-0.0703125 v -0.62109375 c -0.09375,0.0234375 -0.210937,0.0351563 -0.351562,0.0351563 -0.328125,0 -0.410156,-0.09375 -0.410156,-0.421875 V -4.0900703 h 0.761718 z m 0,0"
       style="fill:#000000;fill-opacity:1;fill-rule:nonzero;stroke:none"
       aria-label="Format"
       transform="matrix(1.3333333,0,0,1.3333333,171.56133,123.45733)" />
    <path
       id="path8"
       d="m 151.73248,-14.17339 h 62.36298 V 14.1734 h -62.36298 z"
       style="fill:#d1f3ff;fill-opacity:1;fill-rule:nonzero;stroke:#2294bd;stroke-width:0.74721;stroke-linecap:butt;stroke-linejoin:miter;stroke-miterlimit:10;stroke-dasharray:none;stroke-opacity:1"
       transform="matrix(1.3333333,0,0,-1.3333333,57.182667,119.268)" />
    <path
       id="path9"
       d="m 1.6537656,-2.7658516 h 2.0507813 c 0.515625,0 0.9140625,-0.1523437 1.265625,-0.46875 0.3867187,-0.3632812 0.5625,-0.7851562 0.5625,-1.3828125 0,-1.2304687 -0.7265625,-1.921875 -2.015625,-1.921875 H 0.82173438 V -2.265625e-4 H 1.6537656 Z m 0,-0.7382812 v -2.296875 h 1.734375 c 0.796875,0 1.2773438,0.4335937 1.2773438,1.1484375 0,0.7148437 -0.4804688,1.1484375 -1.2773438,1.1484375 z m 4.9482422,-1.1953125 v 4.6992187375 h 0.75 V -2.4377266 c 0,-0.6679687 0.1757813,-1.1132812 0.5273438,-1.3710937 0.234375,-0.1757813 0.4570312,-0.2226563 0.984375,-0.234375 v -0.7617188 c -0.1289063,-0.023437 -0.1992188,-0.023437 -0.2929688,-0.023437 -0.4804687,0 -0.8554687,0.28125 -1.2773437,0.984375 v -0.8554687 z m 4.8017582,-0.1289063 c -1.3125,0 -2.1093754,0.9375 -2.1093754,2.5195313 0,1.57031249 0.7851564,2.51953124 2.1210934,2.51953124 1.3125,0 2.121094,-0.94921875 2.121094,-2.48437504 0,-1.6289062 -0.773437,-2.5546875 -2.132812,-2.5546875 z m 0.01172,0.6914063 c 0.84375,0 1.347657,0.6796875 1.347657,1.8515625 0,1.1015625 -0.527344,1.80468749 -1.347657,1.80468749 -0.832031,0 -1.347656,-0.69140629 -1.347656,-1.82812499 0,-1.1367188 0.515625,-1.828125 1.347656,-1.828125 z m 6.75586,1.0195312 c -0.03516,-0.4570312 -0.128906,-0.75 -0.304688,-1.0195312 -0.328125,-0.4335938 -0.890625,-0.6914063 -1.546875,-0.6914063 -1.265625,0 -2.085937,0.9960938 -2.085937,2.5546875 0,1.52343754 0.808594,2.48437504 2.074219,2.48437504 1.125,0 1.828125,-0.6796875 1.921875,-1.82812504 h -0.75 c -0.128907,0.76171879 -0.515625,1.13671879 -1.148438,1.13671879 -0.832031,0 -1.324219,-0.67968749 -1.324219,-1.79296879 0,-1.171875 0.492188,-1.8632812 1.300782,-1.8632812 0.632812,0 1.019531,0.3632812 1.113281,1.0195312 z m 4.857422,1.0195313 c 0,-0.7148438 -0.04687,-1.1484375 -0.1875,-1.5 -0.304688,-0.7734375 -1.019532,-1.2304688 -1.898438,-1.2304688 -1.300781,0 -2.144531,0.9960938 -2.144531,2.5429688 0,1.54687499 0.808594,2.49609374 2.132812,2.49609374 1.066407,0 1.816407,-0.609375 2.003907,-1.64062504 h -0.75 c -0.210938,0.62109379 -0.632813,0.94921879 -1.230469,0.94921879 -0.480469,0 -0.878906,-0.22265625 -1.125,-0.60937499 -0.1875,-0.2695313 -0.246094,-0.5390625 -0.257813,-1.0078125 z m -3.433594,-0.609375 c 0.05859,-0.8671875 0.585937,-1.4296875 1.335937,-1.4296875 0.738282,0 1.300782,0.609375 1.300782,1.3710937 0,0.023437 0,0.035156 0,0.058594 z m 7.751953,-0.6796875 c -0.01172,-0.9257813 -0.621094,-1.4414063 -1.699219,-1.4414063 -1.101562,0 -1.804687,0.5625 -1.804687,1.4296875 0,0.7382813 0.375,1.0898438 1.488281,1.359375 l 0.703125,0.1640625 c 0.515625,0.1289063 0.726563,0.3164063 0.726563,0.65625 0,0.43359379 -0.445313,0.73828129 -1.101563,0.73828129 -0.398437,0 -0.738281,-0.1171875 -0.925781,-0.31640625 -0.117188,-0.140625 -0.175781,-0.26953124 -0.222656,-0.59765624 h -0.785157 c 0.03516,1.07812499 0.644532,1.60546874 1.875,1.60546874 1.183594,0 1.933594,-0.5859375 1.933594,-1.48828124 0,-0.703125 -0.398437,-1.0898438 -1.324219,-1.3125 l -0.714843,-0.1757813 c -0.609375,-0.140625 -0.867188,-0.3398437 -0.867188,-0.6679687 0,-0.4335938 0.375,-0.703125 0.984375,-0.703125 0.609375,0 0.925781,0.2578125 0.949219,0.75 z m 4.482422,0 c -0.01172,-0.9257813 -0.621094,-1.4414063 -1.699219,-1.4414063 -1.101562,0 -1.804687,0.5625 -1.804687,1.4296875 0,0.7382813 0.375,1.0898438 1.488281,1.359375 l 0.703125,0.1640625 c 0.515625,0.1289063 0.726562,0.3164063 0.726562,0.65625 0,0.43359379 -0.445312,0.73828129 -1.101562,0.73828129 -0.398438,0 -0.738281,-0.1171875 -0.925781,-0.31640625 -0.117188,-0.140625 -0.175782,-0.26953124 -0.222657,-0.59765624 h -0.785156 c 0.03516,1.07812499 0.644531,1.60546874 1.875,1.60546874 1.183594,0 1.933594,-0.5859375 1.933594,-1.48828124 0,-0.703125 -0.398438,-1.0898438 -1.324219,-1.3125 l -0.714844,-0.1757813 c -0.609375,-0.140625 -0.867187,-0.3398437 -0.867187,-0.6679687 0,-0.4335938 0.375,-0.703125 0.984375,-0.703125 0.609375,0 0.925781,0.2578125 0.949219,0.75 z m 0,0"
       style="fill:#000000;fill-opacity:1;fill-rule:nonzero;stroke:none"
       aria-label="Process"
       transform="matrix(1.3333333,0,0,1.3333333,279.47467,123.45733)" />
    <path
       id="path10"
       d="m 234.68535,-14.17339 h 62.36298 V 14.1734 h -62.36298 z"
       style="fill:#d1f3ff;fill-opacity:1;fill-rule:nonzero;stroke:#2294bd;stroke-width:0.74721;stroke-linecap:butt;stroke-linejoin:miter;stroke-miterlimit:10;stroke-dasharray:none;stroke-opacity:1"
       transform="matrix(1.3333333,0,0,-1.3333333,57.182667,119.268)" />
    <path
       id="path11"
       d="M 0.70323438,-2.265625e-4 H 3.6563594 c 0.6210937,0 1.078125,-0.1757812475 1.4296875,-0.5507812475 0.3164062,-0.33984375 0.5039062,-0.80859379 0.5039062,-1.31249999 0,-0.7851563 -0.3632812,-1.265625 -1.1953125,-1.59375 0.5859375,-0.2695313 0.9023438,-0.7617188 0.9023438,-1.4179688 0,-0.4804687 -0.1757813,-0.9023437 -0.515625,-1.2070312 C 4.4415156,-6.3869453 3.9844844,-6.5392891 3.3633906,-6.5392891 H 0.70323438 Z M 1.5469844,-3.7150703 v -2.0859375 h 1.6054687 c 0.46875,0 0.7265625,0.058594 0.9492188,0.234375 0.234375,0.1757812 0.3632812,0.4453125 0.3632812,0.8085937 0,0.3515625 -0.1289062,0.6210938 -0.3632812,0.8085938 -0.2226563,0.1640625 -0.4804688,0.234375 -0.9492188,0.234375 z m 0,2.97656249 V -2.9885078 h 2.0273437 c 0.4101563,0 0.6796875,0.1054687 0.8671875,0.3164062 0.1992188,0.2109375 0.3046875,0.4921875 0.3046875,0.8203125 0,0.3046875 -0.1054687,0.5976563 -0.3046875,0.796875 -0.1875,0.22265629 -0.4570312,0.31640629 -0.8671875,0.31640629 z m 9.2255856,0.3046875 c -0.08203,0.0117188 -0.117187,0.0117188 -0.152343,0.0117188 -0.269532,0 -0.410157,-0.12890625 -0.410157,-0.36328125 V -3.5510078 c 0,-0.8320313 -0.6093747,-1.2773438 -1.7695309,-1.2773438 -0.6796875,0 -1.2421875,0.1875 -1.5585938,0.5390625 -0.2109375,0.2460938 -0.3046875,0.515625 -0.3164062,0.984375 h 0.75 c 0.058594,-0.5742187 0.3984375,-0.8320312 1.1015625,-0.8320312 0.6679687,0 1.0546875,0.2460937 1.0546875,0.6914062 v 0.1992188 c 0,0.3164062 -0.1875,0.4453125 -0.7851563,0.515625 -1.0546875,0.140625 -1.21875,0.1757812 -1.5,0.2929687 -0.5507812,0.2226563 -0.8320312,0.6445313 -0.8320312,1.2539063 0,0.85546874 0.5976562,1.39453124 1.546875,1.39453124 0.5859375,0 1.0664062,-0.2109375025 1.59375,-0.69140625 0.046875,0.46875 0.28125,0.69140625 0.7734374,0.69140625 0.152344,0 0.269531,-0.0234375 0.503906,-0.0820313 z M 9.4717891,-1.4767891 c 0,0.2460938 -0.082031,0.3984375 -0.3046875,0.60937504 -0.3046875,0.28125 -0.6679688,0.421875 -1.1132813,0.421875 -0.5742187,0 -0.9140625,-0.28125 -0.9140625,-0.76171874 0,-0.4921875 0.328125,-0.7382813 1.125,-0.8554688 0.7851563,-0.1054687 0.9492188,-0.140625 1.2070313,-0.2578125 z m 3.7675779,-3.2226562 h -0.761719 v -1.2890625 h -0.75 v 1.2890625 h -0.632812 v 0.609375 h 0.632812 v 3.55078124 c 0,0.48046875 0.328125,0.75 0.902344,0.75 0.1875,0 0.363281,-0.0234375 0.609375,-0.0703125 v -0.62109375 c -0.09375,0.0234375 -0.210937,0.0351563 -0.351562,0.0351563 -0.328125,0 -0.410157,-0.09375 -0.410157,-0.421875 V -4.0900703 h 0.761719 z m 4.438477,1.5820312 c -0.03516,-0.4570312 -0.128906,-0.75 -0.304688,-1.0195312 -0.328125,-0.4335938 -0.890625,-0.6914063 -1.546875,-0.6914063 -1.265625,0 -2.085937,0.9960938 -2.085937,2.5546875 0,1.52343754 0.808594,2.48437504 2.074219,2.48437504 1.125,0 1.828125,-0.6796875 1.921875,-1.82812504 h -0.75 c -0.128907,0.76171879 -0.515625,1.13671879 -1.148438,1.13671879 -0.832031,0 -1.324219,-0.67968749 -1.324219,-1.79296879 0,-1.171875 0.492188,-1.8632812 1.300782,-1.8632812 0.632812,0 1.019531,0.3632812 1.113281,1.0195312 z m 0.896484,-3.421875 v 6.5390625375 h 0.738281 V -2.5900703 c 0,-0.9609375 0.503907,-1.5820313 1.277344,-1.5820313 0.234375,0 0.480469,0.070312 0.65625,0.2109375 0.222656,0.1523438 0.304688,0.375 0.304688,0.703125 v 3.2578125375 h 0.75 V -3.5510078 c 0,-0.7851563 -0.5625,-1.2773438 -1.476563,-1.2773438 -0.667969,0 -1.066406,0.1992188 -1.511719,0.7734375 v -2.484375 z m 0,0"
       style="fill:#000000;fill-opacity:1;fill-rule:nonzero;stroke:none"
       aria-label="Batch"
       transform="matrix(1.3333333,0,0,1.3333333,396.38267,123.45733)" />
    <path
       id="path12"
       d="m 360.15843,-14.17339 h 62.36298 V 14.1734 h -62.36298 z"
       style="fill:#dbfda6;fill-opacity:1;fill-rule:nonzero;stroke:#495938;stroke-width:0.74721;stroke-linecap:butt;stroke-linejoin:miter;stroke-miterlimit:10;stroke-dasharray:none;stroke-opacity:1"
       transform="matrix(1.3333333,0,0,-1.3333333,57.182667,119.268)" />
    <path
       id="path13"
       d="m 6.3511406,-3.4558047 h -2.71875 v 0.7382813 h 1.9921875 v 0.1875 c 0,1.1601562 -0.8671875,2.00390621 -2.0625,2.00390621 -0.65625,0 -1.2539062,-0.24609375 -1.640625,-0.66796871 -0.4335937,-0.46875 -0.6914062,-1.2421875 -0.6914062,-2.0507813 0,-1.6054687 0.9140625,-2.6601562 2.296875,-2.6601562 0.9960937,0 1.7109375,0.5039062 1.8867187,1.3476562 h 0.8554688 c -0.234375,-1.3242187 -1.2421875,-2.0859375 -2.7421875,-2.0859375 -0.796875,0 -1.4414063,0.2109375 -1.9453125,0.6328125 -0.76171878,0.6210938 -1.18359378,1.640625 -1.18359378,2.8125 0,2.0039063 1.21874998,3.41015626 2.98828128,3.41015626 0.890625,0 1.59375,-0.33984375 2.2382812,-1.04296875 l 0.1992188,0.8671875 h 0.5273437 z m 2.2763672,0.6914063 h 2.0507812 c 0.515625,0 0.914063,-0.1523438 1.265625,-0.46875 0.386719,-0.3632813 0.5625,-0.7851563 0.5625,-1.3828125 0,-1.2304688 -0.726562,-1.921875 -2.015625,-1.921875 H 7.7954766 v 6.53906246 h 0.8320312 z m 0,-0.7382813 v -2.296875 h 1.7343752 c 0.796875,0 1.277344,0.4335938 1.277344,1.1484375 0,0.7148438 -0.480469,1.1484375 -1.277344,1.1484375 z m 9.2753902,-3.0351562 v 4.59375 c 0,0.8789062 -0.632812,1.41796871 -1.6875,1.41796871 -0.480468,0 -0.878906,-0.1171875 -1.183593,-0.33984375 C 14.70368,-1.1237734 14.551336,-1.4518984 14.551336,-1.9440859 v -4.59375 h -0.832031 v 4.59375 c 0,1.32421871 0.949218,2.15624996 2.496093,2.15624996 1.535157,0 2.519532,-0.84375 2.519532,-2.15624996 v -4.59375 z m 8.554688,5.75390621 h -3.339844 c 0.08203,-0.51562501 0.363281,-0.84375001 1.148438,-1.30078121 l 0.890625,-0.4921875 c 0.890625,-0.4804688 1.347656,-1.1367188 1.347656,-1.9101563 0,-0.5273437 -0.210938,-1.0195312 -0.597656,-1.3710937 -0.375,-0.3398438 -0.832032,-0.4921875 -1.441407,-0.4921875 -0.808593,0 -1.40625,0.28125 -1.757812,0.8203125 -0.222656,0.3398437 -0.316406,0.7382812 -0.339844,1.3828125 h 0.796875 c 0.02344,-0.4335938 0.07031,-0.6914063 0.1875,-0.9023438 0.199219,-0.3867187 0.609375,-0.609375 1.089844,-0.609375 0.714844,0 1.253906,0.5039063 1.253906,1.1835938 0,0.5039062 -0.292969,0.9375 -0.855469,1.2539062 l -0.832031,0.46875 c -1.324219,0.75 -1.710937,1.359375 -1.78125,2.75390626 h 4.230469 z m 0,0"
       style="fill:#000000;fill-opacity:1;fill-rule:nonzero;stroke:none"
       aria-label="GPU2"
       transform="matrix(1.3333333,0,0,1.3333333,561.024,123.54133)" />
    <path
       id="path14"
       d="m 360.15843,34.76328 h 62.36298 v 28.34679 h -62.36298 z"
       style="fill:#dbfda6;fill-opacity:1;fill-rule:nonzero;stroke:#495938;stroke-width:0.74721;stroke-linecap:butt;stroke-linejoin:miter;stroke-miterlimit:10;stroke-dasharray:none;stroke-opacity:1"
       transform="matrix(1.3333333,0,0,-1.3333333,57.182667,119.268)" />
    <path
       id="path15"
       d="m 6.3511406,-3.4573047 h -2.71875 v 0.7382813 h 1.9921875 v 0.1875 c 0,1.1601562 -0.8671875,2.00390621 -2.0625,2.00390621 -0.65625,0 -1.2539062,-0.24609375 -1.640625,-0.66796871 -0.4335937,-0.46875 -0.6914062,-1.2421875 -0.6914062,-2.0507813 0,-1.6054687 0.9140625,-2.6601562 2.296875,-2.6601562 0.9960937,0 1.7109375,0.5039062 1.8867187,1.3476562 h 0.8554688 c -0.234375,-1.3242187 -1.2421875,-2.0859375 -2.7421875,-2.0859375 -0.796875,0 -1.4414063,0.2109375 -1.9453125,0.6328125 -0.76171878,0.6210938 -1.18359378,1.640625 -1.18359378,2.8125 0,2.0039063 1.21874998,3.41015626 2.98828128,3.41015626 0.890625,0 1.59375,-0.33984375 2.2382812,-1.04296875 l 0.1992188,0.8671875 h 0.5273437 z m 2.2763672,0.6914063 h 2.0507812 c 0.515625,0 0.914063,-0.1523438 1.265625,-0.46875 0.386719,-0.3632813 0.5625,-0.7851563 0.5625,-1.3828125 0,-1.2304688 -0.726562,-1.921875 -2.015625,-1.921875 H 7.7954766 v 6.5390624625 h 0.8320312 z m 0,-0.7382813 v -2.296875 h 1.7343752 c 0.796875,0 1.277344,0.4335938 1.277344,1.1484375 0,0.7148438 -0.480469,1.1484375 -1.277344,1.1484375 z m 9.2753902,-3.0351562 v 4.59375 c 0,0.8789062 -0.632812,1.41796871 -1.6875,1.41796871 -0.480468,0 -0.878906,-0.1171875 -1.183593,-0.33984375 C 14.70368,-1.1252734 14.551336,-1.4533984 14.551336,-1.9455859 v -4.59375 h -0.832031 v 4.59375 c 0,1.32421871 0.949218,2.15624996 2.496093,2.15624996 1.535157,0 2.519532,-0.84375 2.519532,-2.15624996 v -4.59375 z m 6.339844,2.015625 v 4.5234374625 h 0.785156 V -6.3518359 h -0.515625 c -0.28125,0.9726562 -0.457031,1.1015625 -1.675781,1.2539062 v 0.5742188 z m 0,0"
       style="fill:#000000;fill-opacity:1;fill-rule:nonzero;stroke:none"
       aria-label="GPU1"
       transform="matrix(1.3333333,0,0,1.3333333,561.024,58.293333)" />
    <path
       id="path16"
       d="m 360.15843,-63.11006 h 62.36298 v 28.34679 h -62.36298 z"
       style="fill:#dbfda6;fill-opacity:1;fill-rule:nonzero;stroke:#495938;stroke-width:0.74721;stroke-linecap:butt;stroke-linejoin:miter;stroke-miterlimit:10;stroke-dasharray:none;stroke-opacity:1"
       transform="matrix(1.3333333,0,0,-1.3333333,57.182667,119.268)" />
    <path
       id="path17"
       d="m 6.3511406,-3.4572344 h -2.71875 v 0.7382813 h 1.9921875 v 0.1875 c 0,1.1601562 -0.8671875,2.00390623 -2.0625,2.00390623 -0.65625,0 -1.2539062,-0.24609375 -1.640625,-0.66796873 -0.4335937,-0.46875 -0.6914062,-1.2421875 -0.6914062,-2.0507813 0,-1.6054687 0.9140625,-2.6601562 2.296875,-2.6601562 0.9960937,0 1.7109375,0.5039062 1.8867187,1.3476562 h 0.8554688 c -0.234375,-1.3242187 -1.2421875,-2.0859375 -2.7421875,-2.0859375 -0.796875,0 -1.4414063,0.2109375 -1.9453125,0.6328125 -0.76171878,0.6210938 -1.18359378,1.640625 -1.18359378,2.8125 0,2.0039063 1.21874998,3.41015628 2.98828128,3.41015628 0.890625,0 1.59375,-0.33984375 2.2382812,-1.04296875 l 0.1992188,0.8671875 h 0.5273437 z m 2.2763672,0.6914063 h 2.0507812 c 0.515625,0 0.914063,-0.1523438 1.265625,-0.46875 0.386719,-0.3632813 0.5625,-0.7851563 0.5625,-1.3828125 0,-1.2304688 -0.726562,-1.921875 -2.015625,-1.921875 H 7.7954766 v 6.539062475 h 0.8320312 z m 0,-0.7382813 v -2.296875 h 1.7343752 c 0.796875,0 1.277344,0.4335938 1.277344,1.1484375 0,0.7148438 -0.480469,1.1484375 -1.277344,1.1484375 z m 9.2753902,-3.0351562 v 4.59375 c 0,0.8789062 -0.632812,1.41796873 -1.6875,1.41796873 -0.480468,0 -0.878906,-0.1171875 -1.183593,-0.33984375 C 14.70368,-1.1252031 14.551336,-1.4533281 14.551336,-1.9455156 v -4.59375 h -0.832031 v 4.59375 c 0,1.32421873 0.949218,2.15624998 2.496093,2.15624998 1.535157,0 2.519532,-0.84375 2.519532,-2.15624998 v -4.59375 z m 6,3.6210937 h 0.433594 c 0.867188,0 1.3125,0.3867188 1.3125,1.1484375 0,0.79687503 -0.492187,1.27734378 -1.3125,1.27734378 -0.867187,0 -1.289062,-0.43359375 -1.335937,-1.35937498 H 22.20368 c 0.04687,0.515625 0.128906,0.84375 0.28125,1.13671873 0.328125,0.609375 0.949218,0.92578125 1.816406,0.92578125 1.3125,0 2.15625,-0.78515625 2.15625,-1.98046878 0,-0.8085937 -0.316406,-1.265625 -1.078125,-1.5234375 0.597656,-0.234375 0.890625,-0.6796875 0.890625,-1.3125 0,-1.1015625 -0.726563,-1.7460937 -1.933594,-1.7460937 -1.289062,0 -1.96875,0.6914062 -1.992187,2.0507812 h 0.785156 c 0.01172,-0.3867187 0.04687,-0.5976562 0.152344,-0.796875 0.175781,-0.3515625 0.5625,-0.5625 1.066406,-0.5625 0.691406,0 1.113281,0.4101563 1.113281,1.078125 0,0.4453125 -0.164062,0.7148438 -0.503906,0.8671875 -0.222656,0.082031 -0.503906,0.1171875 -1.054688,0.1289063 z m 0,0"
       style="fill:#000000;fill-opacity:1;fill-rule:nonzero;stroke:none"
       aria-label="GPU3"
       transform="matrix(1.3333333,0,0,1.3333333,561.024,188.78933)" />
    <path
       id="path18"
       d="m 5.3423281,-4.6174141 c -0.011719,-1.2773437 -0.890625,-2.0273437 -2.390625,-2.0273437 -1.4414062,0 -2.32031247,0.7382812 -2.32031247,1.921875 0,0.796875 0.42187497,1.3007812 1.27734377,1.5234375 l 1.6171875,0.4335937 c 0.8320312,0.2109375 1.2070312,0.5390625 1.2070312,1.0546875 0,0.3515625 -0.1875,0.703125 -0.46875,0.90234379 -0.2578125,0.17578125 -0.6679687,0.28125 -1.1953125,0.28125 -0.7148437,0 -1.1953125,-0.17578125 -1.5117187,-0.55078129 -0.2460938,-0.28125 -0.3515625,-0.5976562 -0.3398438,-0.9960937 H 0.43217188 c 0,0.5976562 0.1171875,0.984375 0.38671875,1.34765624 0.44531247,0.609375 1.19531247,0.9375 2.19140627,0.9375 0.7851562,0 1.4179687,-0.1875 1.8398437,-0.50390625 0.4335938,-0.3515625 0.7148438,-0.93749999 0.7148438,-1.49999999 0,-0.8085938 -0.5039063,-1.3945313 -1.3945313,-1.640625 l -1.640625,-0.4335938 c -0.7851562,-0.2226562 -1.0664062,-0.46875 -1.0664062,-0.9726562 0,-0.6679688 0.5742187,-1.1015625 1.453125,-1.1015625 1.0429687,0 1.6289062,0.46875 1.640625,1.3242187 z m 2.9121094,-0.082031 H 7.4927188 v -1.2890625 h -0.75 v 1.2890625 H 6.1099063 v 0.609375 h 0.6328125 v 3.55078124 c 0,0.48046875 0.328125,0.75 0.9023437,0.75 0.1875,0 0.3632813,-0.0234375 0.609375,-0.0703125 v -0.62109375 c -0.09375,0.0234375 -0.2109375,0.0351563 -0.3515625,0.0351563 -0.328125,0 -0.4101562,-0.09375 -0.4101562,-0.421875 V -4.0900703 h 0.7617187 z m 2.6572265,-0.1289063 c -1.3124999,0 -2.1093749,0.9375 -2.1093749,2.5195313 0,1.57031249 0.7851562,2.51953124 2.1210939,2.51953124 1.3125,0 2.121094,-0.94921875 2.121094,-2.48437504 0,-1.6289062 -0.773438,-2.5546875 -2.132813,-2.5546875 z m 0.01172,0.6914063 c 0.84375,0 1.347656,0.6796875 1.347656,1.8515625 0,1.1015625 -0.527344,1.80468749 -1.347656,1.80468749 -0.832031,0 -1.3476564,-0.69140629 -1.3476564,-1.82812499 0,-1.1367188 0.5156254,-1.828125 1.3476564,-1.828125 z m 3.155273,-0.5625 v 4.6992187375 h 0.75 V -2.4377266 c 0,-0.6679687 0.175782,-1.1132812 0.527344,-1.3710937 0.234375,-0.1757813 0.457031,-0.2226563 0.984375,-0.234375 v -0.7617188 c -0.128906,-0.023437 -0.199219,-0.023437 -0.292969,-0.023437 -0.480468,0 -0.855468,0.28125 -1.277343,0.984375 v -0.8554687 z m 7.069336,4.26562499 c -0.08203,0.0117188 -0.117187,0.0117188 -0.152344,0.0117188 -0.269531,0 -0.410156,-0.12890625 -0.410156,-0.36328125 V -3.5510078 c 0,-0.8320313 -0.609375,-1.2773438 -1.769531,-1.2773438 -0.679688,0 -1.242188,0.1875 -1.558594,0.5390625 -0.210937,0.2460938 -0.304687,0.515625 -0.316406,0.984375 h 0.75 c 0.05859,-0.5742187 0.398437,-0.8320312 1.101562,-0.8320312 0.667969,0 1.054688,0.2460937 1.054688,0.6914062 v 0.1992188 c 0,0.3164062 -0.1875,0.4453125 -0.785156,0.515625 -1.054688,0.140625 -1.21875,0.1757812 -1.5,0.2929687 -0.550782,0.2226563 -0.832032,0.6445313 -0.832032,1.2539063 0,0.85546874 0.597657,1.39453124 1.546875,1.39453124 0.585938,0 1.066407,-0.2109375025 1.59375,-0.69140625 0.04687,0.46875 0.28125,0.69140625 0.773438,0.69140625 0.152344,0 0.269531,-0.0234375 0.503906,-0.0820313 z M 19.847211,-1.4767891 c 0,0.2460938 -0.08203,0.3984375 -0.304688,0.60937504 -0.304687,0.28125 -0.667968,0.421875 -1.113281,0.421875 -0.574219,0 -0.914062,-0.28125 -0.914062,-0.76171874 0,-0.4921875 0.328125,-0.7382813 1.125,-0.8554688 0.785156,-0.1054687 0.949218,-0.140625 1.207031,-0.2578125 z m 5.185547,-3.2226562 v 0.6796875 c -0.375,-0.5507813 -0.832031,-0.8085938 -1.429688,-0.8085938 -1.195312,0 -2.003906,1.03125 -2.003906,2.5546875 0,0.7734375 0.210938,1.40625004 0.597656,1.85156254 0.351563,0.3984375 0.84375,0.6328125 1.335938,0.6328125 0.597656,0 1.007812,-0.2578125 1.429687,-0.84375 v 0.234375 c 0,0.64453125 -0.08203,1.03125 -0.269531,1.2890625 -0.199219,0.26953126 -0.585937,0.43359376 -1.042969,0.43359376 -0.339843,0 -0.644531,-0.082031 -0.84375,-0.2460938 C 22.630414,0.93727344 22.560102,0.82008594 22.513227,0.53883594 h -0.761719 c 0.08203,0.89062496 0.773437,1.41796876 1.875,1.41796876 0.703125,0 1.300781,-0.2226563 1.605469,-0.5976563 0.363281,-0.43359371 0.492187,-1.03124996 0.492187,-2.13281246 V -4.6994453 Z m -1.347656,0.5625 c 0.808593,0 1.277343,0.6796875 1.277343,1.8515625 0,1.125 -0.480468,1.80468749 -1.277343,1.80468749 -0.808594,0 -1.300782,-0.69140629 -1.300782,-1.82812499 0,-1.1367188 0.503907,-1.828125 1.300782,-1.828125 z m 7.233398,2.0390625 c 0,-0.7148438 -0.04687,-1.1484375 -0.1875,-1.5 -0.304687,-0.7734375 -1.019531,-1.2304688 -1.898437,-1.2304688 -1.300782,0 -2.144532,0.9960938 -2.144532,2.5429688 0,1.54687499 0.808594,2.49609374 2.132813,2.49609374 1.066406,0 1.816406,-0.609375 2.003906,-1.64062504 h -0.75 c -0.210937,0.62109379 -0.632812,0.94921879 -1.230469,0.94921879 -0.480468,0 -0.878906,-0.22265625 -1.125,-0.60937499 -0.1875,-0.2695313 -0.246093,-0.5390625 -0.257812,-1.0078125 z m -3.433594,-0.609375 c 0.05859,-0.8671875 0.585938,-1.4296875 1.335938,-1.4296875 0.738281,0 1.300781,0.609375 1.300781,1.3710937 0,0.023437 0,0.035156 0,0.058594 z m 11.513672,-3.8320313 h -4.699219 v 0.7382813 h 3.667969 l -3.925781,5.06249999 v 0.7382812475 h 4.980469 V -0.73850781 h -3.925782 l 3.902344,-5.03906249 z m 2.712891,1.7109375 c -1.3125,0 -2.109375,0.9375 -2.109375,2.5195313 0,1.57031249 0.785156,2.51953124 2.121094,2.51953124 1.3125,0 2.121093,-0.94921875 2.121093,-2.48437504 0,-1.6289062 -0.773437,-2.5546875 -2.132812,-2.5546875 z m 0.01172,0.6914063 c 0.84375,0 1.347656,0.6796875 1.347656,1.8515625 0,1.1015625 -0.527344,1.80468749 -1.347656,1.80468749 -0.832032,0 -1.347657,-0.69140629 -1.347657,-1.82812499 0,-1.1367188 0.515625,-1.828125 1.347657,-1.828125 z m 3.166992,-0.5625 v 4.6992187375 h 0.75 V -2.5900703 c 0,-0.9609375 0.503906,-1.5820313 1.265625,-1.5820313 0.597656,0 0.972656,0.3515625 0.972656,0.9140625 v 3.2578125375 h 0.75 V -3.5510078 c 0,-0.7734375 -0.585938,-1.2773438 -1.488281,-1.2773438 -0.703125,0 -1.148438,0.2695313 -1.570313,0.9140625 v -0.7851562 z m 8.947265,2.6015625 c 0,-0.7148438 -0.04687,-1.1484375 -0.1875,-1.5 -0.304687,-0.7734375 -1.019531,-1.2304688 -1.898437,-1.2304688 -1.300781,0 -2.144531,0.9960938 -2.144531,2.5429688 0,1.54687499 0.808593,2.49609374 2.132812,2.49609374 1.066406,0 1.816406,-0.609375 2.003906,-1.64062504 h -0.75 c -0.210937,0.62109379 -0.632812,0.94921879 -1.230468,0.94921879 -0.480469,0 -0.878907,-0.22265625 -1.125,-0.60937499 -0.1875,-0.2695313 -0.246094,-0.5390625 -0.257813,-1.0078125 z m -3.433593,-0.609375 c 0.05859,-0.8671875 0.585937,-1.4296875 1.335937,-1.4296875 0.738281,0 1.300781,0.609375 1.300781,1.3710937 0,0.023437 0,0.035156 0,0.058594 z m 0,0"
       style="fill:#000000;fill-opacity:1;fill-rule:nonzero;stroke:none"
       aria-label="StorageZone"
       transform="matrix(1.3333333,0,0,1.3333333,21.025333,59.957333)" />
    <path
       id="path19"
       d="m 5.9293438,-4.5119453 c -0.2578125,-1.4296875 -1.078125,-2.1328125 -2.5195313,-2.1328125 -0.8789062,0 -1.5820312,0.28125 -2.0625,0.8203125 -0.59765625,0.6445312 -0.9140625,1.5703125 -0.9140625,2.6367187 0,1.0664063 0.328125,1.9921875 0.9492188,2.63671879 0.5039062,0.515625 1.1484375,0.76171875 1.9921875,0.76171875 1.6054687,0 2.4960937,-0.8671875 2.6953125,-2.58984374 H 5.2027813 c -0.070312,0.4453125 -0.1523438,0.75 -0.2929688,1.0078125 -0.2695312,0.53906249 -0.8203125,0.84374999 -1.5234375,0.84374999 -1.3007812,0 -2.1210937,-1.04296879 -2.1210937,-2.67187499 0,-1.6757813 0.7851562,-2.7070313 2.0507812,-2.7070313 0.5273438,0 1.0195313,0.1640625 1.2890625,0.4101563 0.2460938,0.2226562 0.375,0.5039062 0.4804688,0.984375 z m 2.1972656,1.7460937 h 2.0507816 c 0.515625,0 0.914062,-0.1523437 1.265625,-0.46875 0.386718,-0.3632812 0.5625,-0.7851562 0.5625,-1.3828125 0,-1.2304687 -0.726563,-1.921875 -2.0156254,-1.921875 H 7.2945781 v 6.5390625375 h 0.8320313 z m 0,-0.7382812 v -2.296875 h 1.734375 c 0.7968746,0 1.2773436,0.4335937 1.2773436,1.1484375 0,0.7148437 -0.480469,1.1484375 -1.2773436,1.1484375 z M 17.39907,-6.5392891 v 4.59375 c 0,0.8789063 -0.632812,1.41796879 -1.6875,1.41796879 -0.480468,0 -0.878906,-0.1171875 -1.183593,-0.33984375 C 14.199852,-1.1252266 14.047508,-1.4533516 14.047508,-1.9455391 v -4.59375 h -0.832031 v 4.59375 c 0,1.32421879 0.949218,2.15625004 2.496093,2.15625004 1.535157,0 2.519532,-0.84375 2.519532,-2.15625004 v -4.59375 z m 5.674805,3.7734375 h 2.050781 c 0.515625,0 0.914063,-0.1523437 1.265625,-0.46875 0.386719,-0.3632812 0.5625,-0.7851562 0.5625,-1.3828125 0,-1.2304687 -0.726562,-1.921875 -2.015625,-1.921875 h -2.695312 v 6.5390625375 h 0.832031 z m 0,-0.7382812 v -2.296875 h 1.734375 c 0.796875,0 1.277344,0.4335937 1.277344,1.1484375 0,0.7148437 -0.480469,1.1484375 -1.277344,1.1484375 z m 4.948242,-1.1953125 v 4.6992187375 h 0.75 V -2.4377266 c 0,-0.6679687 0.175781,-1.1132812 0.527344,-1.3710937 0.234375,-0.1757813 0.457031,-0.2226563 0.984375,-0.234375 v -0.7617188 c -0.128906,-0.023437 -0.199219,-0.023437 -0.292969,-0.023437 -0.480469,0 -0.855469,0.28125 -1.277344,0.984375 v -0.8554687 z m 6.958008,2.6015625 c 0,-0.7148438 -0.04687,-1.1484375 -0.1875,-1.5 -0.304687,-0.7734375 -1.019531,-1.2304688 -1.898437,-1.2304688 -1.300782,0 -2.144532,0.9960938 -2.144532,2.5429688 0,1.54687499 0.808594,2.49609374 2.132813,2.49609374 1.066406,0 1.816406,-0.609375 2.003906,-1.64062504 h -0.75 c -0.210937,0.62109379 -0.632812,0.94921879 -1.230469,0.94921879 -0.480468,0 -0.878906,-0.22265625 -1.125,-0.60937499 -0.1875,-0.2695313 -0.246093,-0.5390625 -0.257812,-1.0078125 z m -3.433594,-0.609375 c 0.05859,-0.8671875 0.585938,-1.4296875 1.335938,-1.4296875 0.738281,0 1.300781,0.609375 1.300781,1.3710937 0,0.023437 0,0.035156 0,0.058594 z m 4.306641,4.6640625 h 0.761719 v -2.44921876 c 0.386718,0.48046875 0.832031,0.703125 1.441406,0.703125 1.207031,0 2.003906,-0.984375 2.003906,-2.48437504 0,-1.5703125 -0.773437,-2.5546875 -2.015625,-2.5546875 -0.632812,0 -1.148437,0.28125 -1.5,0.84375 v -0.7148437 h -0.691406 z m 2.0625,-6.09375 c 0.832031,0 1.371094,0.7265625 1.371094,1.8515625 0,1.0664062 -0.550782,1.79296874 -1.371094,1.79296874 -0.785156,0 -1.300781,-0.71484374 -1.300781,-1.81640624 0,-1.1015625 0.515625,-1.828125 1.300781,-1.828125 z m 3.064453,-0.5625 v 4.6992187375 h 0.75 V -2.4377266 c 0,-0.6679687 0.175781,-1.1132812 0.527344,-1.3710937 0.234375,-0.1757813 0.457031,-0.2226563 0.984375,-0.234375 v -0.7617188 c -0.128906,-0.023437 -0.199219,-0.023437 -0.292969,-0.023437 -0.480469,0 -0.855469,0.28125 -1.277344,0.984375 v -0.8554687 z m 4.801758,-0.1289063 c -1.3125,0 -2.109375,0.9375 -2.109375,2.5195313 0,1.57031249 0.785156,2.51953124 2.121094,2.51953124 1.3125,0 2.121093,-0.94921875 2.121093,-2.48437504 0,-1.6289062 -0.773437,-2.5546875 -2.132812,-2.5546875 z m 0.01172,0.6914063 c 0.84375,0 1.347656,0.6796875 1.347656,1.8515625 0,1.1015625 -0.527344,1.80468749 -1.347656,1.80468749 -0.832032,0 -1.347657,-0.69140629 -1.347657,-1.82812499 0,-1.1367188 0.515625,-1.828125 1.347657,-1.828125 z m 6.752929,1.0195312 c -0.03516,-0.4570312 -0.128906,-0.75 -0.304687,-1.0195312 -0.328125,-0.4335938 -0.890625,-0.6914063 -1.546875,-0.6914063 -1.265625,0 -2.085938,0.9960938 -2.085938,2.5546875 0,1.52343754 0.808594,2.48437504 2.074219,2.48437504 1.125,0 1.828125,-0.6796875 1.921875,-1.82812504 h -0.75 c -0.128906,0.76171879 -0.515625,1.13671879 -1.148437,1.13671879 -0.832032,0 -1.324219,-0.67968749 -1.324219,-1.79296879 0,-1.171875 0.492187,-1.8632812 1.300781,-1.8632812 0.632813,0 1.019531,0.3632812 1.113281,1.0195312 z m 4.860352,1.0195313 c 0,-0.7148438 -0.04687,-1.1484375 -0.1875,-1.5 -0.304688,-0.7734375 -1.019531,-1.2304688 -1.898438,-1.2304688 -1.300781,0 -2.144531,0.9960938 -2.144531,2.5429688 0,1.54687499 0.808594,2.49609374 2.132813,2.49609374 1.066406,0 1.816406,-0.609375 2.003906,-1.64062504 h -0.75 c -0.210938,0.62109379 -0.632813,0.94921879 -1.230469,0.94921879 -0.480469,0 -0.878906,-0.22265625 -1.125,-0.60937499 -0.1875,-0.2695313 -0.246094,-0.5390625 -0.257812,-1.0078125 z m -3.433594,-0.609375 c 0.05859,-0.8671875 0.585938,-1.4296875 1.335938,-1.4296875 0.738281,0 1.300781,0.609375 1.300781,1.3710937 0,0.023437 0,0.035156 0,0.058594 z m 7.749024,-0.6796875 c -0.01172,-0.9257813 -0.621094,-1.4414063 -1.699219,-1.4414063 -1.101563,0 -1.804688,0.5625 -1.804688,1.4296875 0,0.7382813 0.375,1.0898438 1.488282,1.359375 l 0.703125,0.1640625 c 0.515625,0.1289063 0.726562,0.3164063 0.726562,0.65625 0,0.43359379 -0.445312,0.73828129 -1.101562,0.73828129 -0.398438,0 -0.738282,-0.1171875 -0.925782,-0.31640625 -0.117187,-0.140625 -0.175781,-0.26953124 -0.222656,-0.59765624 H 58.10122 c 0.03516,1.07812499 0.644531,1.60546874 1.875,1.60546874 1.183594,0 1.933594,-0.5859375 1.933594,-1.48828124 0,-0.703125 -0.398438,-1.0898438 -1.324219,-1.3125 L 59.87075,-2.7658516 c -0.609375,-0.140625 -0.867187,-0.3398437 -0.867187,-0.6679687 0,-0.4335938 0.375,-0.703125 0.984375,-0.703125 0.609375,0 0.925781,0.2578125 0.949218,0.75 z m 4.485351,0 c -0.01172,-0.9257813 -0.621094,-1.4414063 -1.699219,-1.4414063 -1.101562,0 -1.804687,0.5625 -1.804687,1.4296875 0,0.7382813 0.375,1.0898438 1.488281,1.359375 l 0.703125,0.1640625 c 0.515625,0.1289063 0.726563,0.3164063 0.726563,0.65625 0,0.43359379 -0.445313,0.73828129 -1.101563,0.73828129 -0.398437,0 -0.738281,-0.1171875 -0.925781,-0.31640625 -0.117188,-0.140625 -0.175781,-0.26953124 -0.222656,-0.59765624 H 62.58657 c 0.03516,1.07812499 0.644532,1.60546874 1.875,1.60546874 1.183594,0 1.933594,-0.5859375 1.933594,-1.48828124 0,-0.703125 -0.398437,-1.0898438 -1.324219,-1.3125 l -0.714843,-0.1757813 c -0.609375,-0.140625 -0.867188,-0.3398437 -0.867188,-0.6679687 0,-0.4335938 0.375,-0.703125 0.984375,-0.703125 0.609375,0 0.925781,0.2578125 0.949219,0.75 z m 1.904297,-1.3125 h -0.75 v 4.6992187375 h 0.75 z m 0,-1.8398438 h -0.761719 v 0.9492188 h 0.761719 z m 1.274414,1.8398438 v 4.6992187375 h 0.75 V -2.5900703 c 0,-0.9609375 0.503906,-1.5820313 1.265625,-1.5820313 0.597656,0 0.972656,0.3515625 0.972656,0.9140625 v 3.2578125375 h 0.75 V -3.5510078 c 0,-0.7734375 -0.585937,-1.2773438 -1.488281,-1.2773438 -0.703125,0 -1.148437,0.2695313 -1.570312,0.9140625 v -0.7851562 z m 8.044922,0 v 0.6796875 c -0.375,-0.5507813 -0.832031,-0.8085938 -1.429688,-0.8085938 -1.195312,0 -2.003906,1.03125 -2.003906,2.5546875 0,0.7734375 0.210938,1.40625004 0.597656,1.85156254 0.351563,0.3984375 0.84375,0.6328125 1.335938,0.6328125 0.597656,0 1.007812,-0.2578125 1.429687,-0.84375 v 0.234375 c 0,0.64453125 -0.08203,1.03125 -0.269531,1.2890625 -0.199219,0.26953126 -0.585937,0.43359376 -1.042969,0.43359376 -0.339843,0 -0.644531,-0.082031 -0.84375,-0.2460938 C 75.028953,0.93727344 74.958641,0.82008594 74.911766,0.53883594 h -0.761719 c 0.08203,0.89062496 0.773437,1.41796876 1.875,1.41796876 0.703125,0 1.300781,-0.2226563 1.605469,-0.5976563 0.363281,-0.43359371 0.492187,-1.03124996 0.492187,-2.13281246 V -4.6994453 Z m -1.347656,0.5625 c 0.808593,0 1.277343,0.6796875 1.277343,1.8515625 0,1.125 -0.480468,1.80468749 -1.277343,1.80468749 -0.808594,0 -1.300782,-0.69140629 -1.300782,-1.82812499 0,-1.1367188 0.503907,-1.828125 1.300782,-1.828125 z M 86.410789,-6.5392891 H 81.71157 v 0.7382813 h 3.667969 l -3.925781,5.06249999 v 0.7382812475 h 4.980469 V -0.73850781 h -3.925782 l 3.902344,-5.03906249 z m 2.712891,1.7109375 c -1.3125,0 -2.109375,0.9375 -2.109375,2.5195313 0,1.57031249 0.785156,2.51953124 2.121093,2.51953124 1.3125,0 2.121094,-0.94921875 2.121094,-2.48437504 0,-1.6289062 -0.773437,-2.5546875 -2.132812,-2.5546875 z m 0.01172,0.6914063 c 0.84375,0 1.347657,0.6796875 1.347657,1.8515625 0,1.1015625 -0.527344,1.80468749 -1.347657,1.80468749 -0.832031,0 -1.347656,-0.69140629 -1.347656,-1.82812499 0,-1.1367188 0.515625,-1.828125 1.347656,-1.828125 z m 3.169922,-0.5625 v 4.6992187375 h 0.75 V -2.5900703 c 0,-0.9609375 0.503907,-1.5820313 1.265625,-1.5820313 0.597657,0 0.972657,0.3515625 0.972657,0.9140625 v 3.2578125375 h 0.75 V -3.5510078 c 0,-0.7734375 -0.585938,-1.2773438 -1.488282,-1.2773438 -0.703125,0 -1.148437,0.2695313 -1.570312,0.9140625 v -0.7851562 z m 8.947268,2.6015625 c 0,-0.7148438 -0.0469,-1.1484375 -0.1875,-1.5 -0.30469,-0.7734375 -1.01954,-1.2304688 -1.89844,-1.2304688 -1.300781,0 -2.144531,0.9960938 -2.144531,2.5429688 0,1.54687499 0.808594,2.49609374 2.132813,2.49609374 1.066408,0 1.816408,-0.609375 2.003908,-1.64062504 h -0.75 c -0.21094,0.62109379 -0.632815,0.94921879 -1.230471,0.94921879 -0.480469,0 -0.878906,-0.22265625 -1.125,-0.60937499 -0.1875,-0.2695313 -0.246094,-0.5390625 -0.257812,-1.0078125 z m -3.433596,-0.609375 c 0.05859,-0.8671875 0.585938,-1.4296875 1.335938,-1.4296875 0.738281,0 1.300778,0.609375 1.300778,1.3710937 0,0.023437 0,0.035156 0,0.058594 z m 0,0"
       style="fill:#000000;fill-opacity:1;fill-rule:nonzero;stroke:none"
       aria-label="CPUPreprocessingZone"
       transform="matrix(1.3333333,0,0,1.3333333,233.29733,59.957333)" />
    <path
       id="path20"
       d="m 6.3520625,-3.4566875 h -2.71875 v 0.7382812 H 5.6255 v 0.1875 C 5.6255,-1.37075 4.7583125,-0.527 3.563,-0.527 2.90675,-0.527 2.3090937,-0.77309375 1.922375,-1.1949688 1.4887812,-1.6637188 1.2309687,-2.4371563 1.2309687,-3.24575 c 0,-1.6054688 0.9140625,-2.6601563 2.296875,-2.6601563 0.9960938,0 1.7109375,0.5039063 1.8867188,1.3476563 h 0.8554687 c -0.234375,-1.3242188 -1.2421875,-2.0859375 -2.7421875,-2.0859375 -0.796875,0 -1.4414062,0.2109375 -1.9453125,0.6328125 -0.7617187,0.6210937 -1.1835937,1.640625 -1.1835937,2.8125 0,2.0039062 1.21875,3.41015625 2.9882812,3.41015625 0.890625,0 1.59375,-0.33984375 2.2382813,-1.04296875 L 5.8247187,0.0355 h 0.5273438 z m 2.2763672,0.6914062 h 2.0507813 c 0.515625,0 0.914062,-0.1523437 1.265625,-0.46875 0.386719,-0.3632812 0.5625,-0.7851562 0.5625,-1.3828125 0,-1.2304687 -0.726563,-1.921875 -2.015625,-1.921875 H 7.7963984 V 3.4375e-4 h 0.8320313 z m 0,-0.7382812 v -2.296875 h 1.7343753 c 0.796875,0 1.277343,0.4335937 1.277343,1.1484375 0,0.7148437 -0.480468,1.1484375 -1.277343,1.1484375 z m 9.2724613,-3.0351563 v 4.59375 c 0,0.8789063 -0.632813,1.4179688 -1.6875,1.4179688 -0.480469,0 -0.878907,-0.1171875 -1.183594,-0.33984375 C 14.701672,-1.1246563 14.549328,-1.4527813 14.549328,-1.9449688 v -4.59375 h -0.832031 v 4.59375 c 0,1.3242188 0.949219,2.15625005 2.496094,2.15625005 1.535156,0 2.519531,-0.84375 2.519531,-2.15625005 v -4.59375 z m 7.198242,0.7382813 h 2.144531 v -0.7382813 h -5.132812 v 0.7382813 h 2.15625 V 3.4375e-4 h 0.832031 z m 1.848633,1.1015625 V 3.4375e-4 h 0.75 V -2.4371563 c 0,-0.6679687 0.175781,-1.1132812 0.527343,-1.3710937 0.234375,-0.1757813 0.457032,-0.2226563 0.984375,-0.234375 v -0.7617188 c -0.128906,-0.023437 -0.199218,-0.023437 -0.292968,-0.023437 -0.480469,0 -0.855469,0.28125 -1.277344,0.984375 V -4.698875 Z m 7.066406,4.265625 c -0.08203,0.0117188 -0.117188,0.0117188 -0.152344,0.0117188 -0.269531,0 -0.410156,-0.12890625 -0.410156,-0.36328125 V -3.5504375 c 0,-0.8320312 -0.609375,-1.2773437 -1.769531,-1.2773437 -0.679688,0 -1.242188,0.1875 -1.558594,0.5390625 -0.210938,0.2460937 -0.304688,0.5156249 -0.316406,0.9843749 h 0.75 c 0.05859,-0.5742187 0.398437,-0.8320312 1.101562,-0.8320312 0.667969,0 1.054688,0.2460937 1.054688,0.6914062 V -3.24575 c 0,0.3164062 -0.1875,0.4453125 -0.785157,0.515625 -1.054687,0.140625 -1.21875,0.1757812 -1.5,0.2929687 -0.550781,0.2226563 -0.832031,0.6445313 -0.832031,1.2539063 0,0.85546875 0.597656,1.39453125 1.546875,1.39453125 0.585938,0 1.066406,-0.2109375 1.59375,-0.69140625 0.04687,0.46875 0.28125,0.69140625 0.773438,0.69140625 0.152343,0 0.269531,-0.0234375 0.503906,-0.0820313 z m -1.300781,-1.0429688 c 0,0.2460938 -0.08203,0.3984375 -0.304688,0.60937505 -0.304687,0.28125 -0.667969,0.421875 -1.113281,0.421875 -0.574219,0 -0.914063,-0.28125 -0.914063,-0.76171875 0,-0.4921875 0.328125,-0.7382813 1.125,-0.8554688 0.785157,-0.1054687 0.949219,-0.140625 1.207032,-0.2578125 z m 2.841796,-3.2226562 h -0.75 V 3.4375e-4 h 0.75 z m 0,-1.8398438 H 34.793469 V -5.5895 h 0.761718 z m 1.274415,1.8398438 V 3.4375e-4 h 0.75 V -2.5895 c 0,-0.9609375 0.503906,-1.5820313 1.265625,-1.5820313 0.597656,0 0.972656,0.3515625 0.972656,0.9140625 V 3.4375e-4 h 0.75 V -3.5504375 c 0,-0.7734375 -0.585938,-1.2773438 -1.488281,-1.2773438 -0.703125,0 -1.148438,0.2695313 -1.570313,0.9140625 V -4.698875 Z m 5.701171,0 h -0.75 V 3.4375e-4 h 0.75 z m 0,-1.8398438 H 41.769055 V -5.5895 h 0.761718 z m 1.274414,1.8398438 V 3.4375e-4 h 0.75 V -2.5895 c 0,-0.9609375 0.503907,-1.5820313 1.265625,-1.5820313 0.597657,0 0.972657,0.3515625 0.972657,0.9140625 V 3.4375e-4 h 0.75 V -3.5504375 c 0,-0.7734375 -0.585938,-1.2773438 -1.488282,-1.2773438 -0.703125,0 -1.148437,0.2695313 -1.570312,0.9140625 V -4.698875 Z m 8.044922,0 v 0.6796875 c -0.375,-0.5507813 -0.832031,-0.8085938 -1.429687,-0.8085938 -1.195313,0 -2.003906,1.03125 -2.003906,2.5546875 0,0.7734375 0.210937,1.40625005 0.597656,1.85156255 0.351562,0.3984375 0.84375,0.6328125 1.335937,0.6328125 0.597657,0 1.007813,-0.2578125 1.429688,-0.84375 v 0.234375 c 0,0.64453125 -0.08203,1.03125 -0.269531,1.2890625 C 51.311047,1.1605 50.924328,1.3245625 50.467297,1.3245625 c -0.339844,0 -0.644531,-0.082031 -0.84375,-0.2460938 C 49.447766,0.93784375 49.377453,0.82065625 49.330578,0.53940625 h -0.761719 c 0.08203,0.89062495 0.773438,1.41796875 1.875,1.41796875 0.703125,0 1.300782,-0.2226563 1.605469,-0.5976563 0.363281,-0.4335937 0.492188,-1.03124995 0.492188,-2.13281245 V -4.698875 Z m -1.347656,0.5625 c 0.808594,0 1.277344,0.6796875 1.277344,1.8515625 0,1.125 -0.480469,1.8046875 -1.277344,1.8046875 -0.808594,0 -1.300781,-0.6914063 -1.300781,-1.828125 0,-1.1367188 0.503906,-1.828125 1.300781,-1.828125 z m 10.327149,-2.4023438 h -4.699219 v 0.7382813 h 3.667969 l -3.925782,5.0625 V 3.4375e-4 h 4.980469 V -0.7379375 H 56.927258 L 60.829602,-5.777 Z m 2.71289,1.7109375 c -1.3125,0 -2.109375,0.9375 -2.109375,2.5195313 0,1.5703125 0.785156,2.51953125 2.121094,2.51953125 1.3125,0 2.121094,-0.94921875 2.121094,-2.48437505 0,-1.6289062 -0.773438,-2.5546875 -2.132813,-2.5546875 z m 0.01172,0.6914063 c 0.84375,0 1.347656,0.6796875 1.347656,1.8515625 0,1.1015625 -0.527344,1.8046875 -1.347656,1.8046875 -0.832031,0 -1.347656,-0.6914063 -1.347656,-1.828125 0,-1.1367188 0.515625,-1.828125 1.347656,-1.828125 z m 3.169922,-0.5625 V 3.4375e-4 h 0.75 V -2.5895 c 0,-0.9609375 0.503906,-1.5820313 1.265625,-1.5820313 0.597656,0 0.972656,0.3515625 0.972656,0.9140625 V 3.4375e-4 h 0.75 V -3.5504375 c 0,-0.7734375 -0.585937,-1.2773438 -1.488281,-1.2773438 -0.703125,0 -1.148438,0.2695313 -1.570313,0.9140625 V -4.698875 Z m 8.947265,2.6015625 c 0,-0.7148438 -0.04687,-1.1484375 -0.1875,-1.5 -0.304687,-0.7734375 -1.019531,-1.2304688 -1.898437,-1.2304688 -1.300781,0 -2.144531,0.9960938 -2.144531,2.5429688 0,1.546875 0.808593,2.49609375 2.132812,2.49609375 1.066406,0 1.816406,-0.609375 2.003906,-1.64062505 h -0.75 c -0.210937,0.6210938 -0.632812,0.9492188 -1.230468,0.9492188 -0.480469,0 -0.878907,-0.22265625 -1.125,-0.609375 -0.1875,-0.2695313 -0.246094,-0.5390625 -0.257813,-1.0078125 z m -3.433593,-0.609375 c 0.05859,-0.8671875 0.585937,-1.4296875 1.335937,-1.4296875 0.738281,0 1.300781,0.609375 1.300781,1.3710937 0,0.023437 0,0.035156 0,0.058594 z m 0,0"
       style="fill:#000000;fill-opacity:1;fill-rule:nonzero;stroke:none"
       aria-label="GPUTrainingZone"
       transform="matrix(1.3333333,0,0,1.3333333,528.24933,17.702667)" />
    <path
       id="path21"
       d="M 31.55508,0 H 63.20544"
       style="fill:none;stroke:#808080;stroke-width:0.99628;stroke-linecap:butt;stroke-linejoin:miter;stroke-miterlimit:10;stroke-dasharray:none;stroke-opacity:1"
       transform="matrix(1.3333333,0,0,-1.3333333,57.182667,119.268)" />
    <path
       id="path22"
       d="M 5.20058,0 C 3.65962,0.28891 1.15567,1.15567 -0.57784,2.1669 V -2.1669 C 1.15567,-1.15567 3.65962,-0.28891 5.20058,0"
       style="fill:#808080;fill-opacity:1;fill-rule:nonzero;stroke:none"
       transform="matrix(1.3333333,0,0,-1.3333333,141.45659,119.268)" />
    <path
       id="path23"
       d="m 131.51622,0 h 14.64209"
       style="fill:none;stroke:#808080;stroke-width:0.99628;stroke-linecap:butt;stroke-linejoin:miter;stroke-miterlimit:10;stroke-dasharray:none;stroke-opacity:1"
       transform="matrix(1.3333333,0,0,-1.3333333,57.182667,119.268)" />
    <path
       id="path24"
       d="M 5.20058,0 C 3.65962,0.28891 1.15567,1.15567 -0.57784,2.1669 V -2.1669 C 1.15567,-1.15567 3.65962,-0.28891 5.20058,0"
       style="fill:#808080;fill-opacity:1;fill-rule:nonzero;stroke:none"
       transform="matrix(1.3333333,0,0,-1.3333333,252.06041,119.268)" />
    <path
       id="path25"
       d="m 214.46907,0 h 14.64209"
       style="fill:none;stroke:#808080;stroke-width:0.99628;stroke-linecap:butt;stroke-linejoin:miter;stroke-miterlimit:10;stroke-dasharray:none;stroke-opacity:1"
       transform="matrix(1.3333333,0,0,-1.3333333,57.182667,119.268)" />
    <path
       id="path26"
       d="M 5.20058,0 C 3.65962,0.28891 1.15567,1.15567 -0.57784,2.1669 V -2.1669 C 1.15567,-1.15567 3.65962,-0.28891 5.20058,0"
       style="fill:#808080;fill-opacity:1;fill-rule:nonzero;stroke:none"
       transform="matrix(1.3333333,0,0,-1.3333333,362.66421,119.268)" />
    <path
       id="path27"
       d="m 265.86685,14.547 v 34.38966 h 88.71741"
       style="fill:none;stroke:#808080;stroke-width:0.99628;stroke-linecap:butt;stroke-linejoin:miter;stroke-miterlimit:10;stroke-dasharray:none;stroke-opacity:1"
       transform="matrix(1.3333333,0,0,-1.3333333,57.182667,119.268)" />
    <path
       id="path28"
       d="M 5.20058,0 C 3.65962,0.28891 1.15567,1.15567 -0.57784,2.1669 V -2.1669 C 1.15567,-1.15567 3.65962,-0.28891 5.20058,0"
       style="fill:#808080;fill-opacity:1;fill-rule:nonzero;stroke:none"
       transform="matrix(1.3333333,0,0,-1.3333333,529.96168,54.01912)" />
    <path
       id="path29"
       d="m 318.26935,41.84998 h 22.92209 v 14.17337 h -22.92209 z"
       style="fill:#e0e0e0;fill-opacity:1;fill-rule:nonzero;stroke:none"
       transform="matrix(1.3333333,0,0,-1.3333333,57.182667,119.268)" />
    <path
       id="path30"
       d="M 0.79542969,0.00120313 H 3.3149609 c 1.6523438,0 2.6601563,-1.24218753 2.6601563,-3.26953123 0,-2.0273438 -0.9960938,-3.2695313 -2.6601563,-3.2695313 H 0.79542969 Z M 1.6274609,-0.73707812 V -5.7995781 h 1.546875 c 1.2890625,0 1.96875,0.8671875 1.96875,2.5429687 0,1.640625 -0.6796875,2.51953128 -1.96875,2.51953128 z m 9.6386721,0.3046875 c -0.08203,0.0117188 -0.117188,0.0117188 -0.152344,0.0117188 -0.269531,0 -0.410156,-0.12890625 -0.410156,-0.36328125 V -3.5495781 c 0,-0.8320313 -0.609375,-1.2773438 -1.7695314,-1.2773438 -0.6796875,0 -1.2421875,0.1875 -1.5585938,0.5390625 -0.2109375,0.2460938 -0.3046875,0.515625 -0.3164062,0.984375 h 0.75 c 0.058594,-0.5742187 0.3984375,-0.8320312 1.1015625,-0.8320312 0.6679687,0 1.0546875,0.2460937 1.0546875,0.6914062 v 0.1992188 c 0,0.3164062 -0.1875,0.4453125 -0.7851563,0.515625 -1.0546875,0.140625 -1.21875,0.1757812 -1.5,0.2929687 -0.5507812,0.2226563 -0.8320312,0.6445313 -0.8320312,1.2539063 0,0.85546873 0.5976562,1.39453123 1.546875,1.39453123 0.5859375,0 1.0664062,-0.2109375 1.59375,-0.69140625 0.046875,0.46875 0.2812499,0.69140625 0.7734379,0.69140625 0.152343,0 0.269531,-0.0234375 0.503906,-0.0820313 z M 9.9653516,-1.4753594 c 0,0.2460938 -0.082031,0.3984375 -0.3046875,0.60937503 -0.3046875,0.28125 -0.6679688,0.421875 -1.1132813,0.421875 -0.5742187,0 -0.9140625,-0.28125 -0.9140625,-0.76171873 0,-0.4921875 0.328125,-0.7382813 1.125,-0.8554688 0.7851563,-0.1054687 0.9492188,-0.140625 1.2070313,-0.2578125 z M 13.73293,-4.6980156 h -0.761719 v -1.2890625 h -0.75 v 1.2890625 h -0.632813 v 0.609375 h 0.632813 v 3.55078123 c 0,0.48046875 0.328125,0.75 0.902344,0.75 0.1875,0 0.363281,-0.0234375 0.609375,-0.0703125 v -0.62109375 c -0.09375,0.0234375 -0.210938,0.0351563 -0.351563,0.0351563 -0.328125,0 -0.410156,-0.09375 -0.410156,-0.421875 V -4.0886406 h 0.761719 z m 5.012695,4.26562498 c -0.08203,0.0117188 -0.117187,0.0117188 -0.152344,0.0117188 -0.269531,0 -0.410156,-0.12890625 -0.410156,-0.36328125 V -3.5495781 c 0,-0.8320313 -0.609375,-1.2773438 -1.769531,-1.2773438 -0.679688,0 -1.242188,0.1875 -1.558594,0.5390625 -0.210937,0.2460938 -0.304687,0.515625 -0.316406,0.984375 h 0.75 c 0.05859,-0.5742187 0.398437,-0.8320312 1.101562,-0.8320312 0.667969,0 1.054688,0.2460937 1.054688,0.6914062 v 0.1992188 c 0,0.3164062 -0.1875,0.4453125 -0.785156,0.515625 -1.054688,0.140625 -1.21875,0.1757812 -1.5,0.2929687 -0.550782,0.2226563 -0.832032,0.6445313 -0.832032,1.2539063 0,0.85546873 0.597657,1.39453123 1.546875,1.39453123 0.585938,0 1.066407,-0.2109375 1.59375,-0.69140625 0.04687,0.46875 0.28125,0.69140625 0.773438,0.69140625 0.152344,0 0.269531,-0.0234375 0.503906,-0.0820313 z M 17.444844,-1.4753594 c 0,0.2460938 -0.08203,0.3984375 -0.304688,0.60937503 -0.304687,0.28125 -0.667968,0.421875 -1.113281,0.421875 -0.574219,0 -0.914062,-0.28125 -0.914062,-0.76171873 0,-0.4921875 0.328125,-0.7382813 1.125,-0.8554688 0.785156,-0.1054687 0.949218,-0.140625 1.207031,-0.2578125 z m 0,0"
       style="fill:#000000;fill-opacity:1;fill-rule:nonzero;stroke:none"
       aria-label="Data"
       transform="matrix(1.3333333,0,0,1.3333333,484.19333,58.209333)" />
    <path
       id="path31"
       d="m 265.86685,-14.547 v -34.38966 h 88.71741"
       style="fill:none;stroke:#808080;stroke-width:0.99628;stroke-linecap:butt;stroke-linejoin:miter;stroke-miterlimit:10;stroke-dasharray:none;stroke-opacity:1"
       transform="matrix(1.3333333,0,0,-1.3333333,57.182667,119.268)" />
    <path
       id="path32"
       d="M 5.20058,0 C 3.65962,0.28891 1.15567,1.15567 -0.57784,2.1669 V -2.1669 C 1.15567,-1.15567 3.65962,-0.28891 5.20058,0"
       style="fill:#808080;fill-opacity:1;fill-rule:nonzero;stroke:none"
       transform="matrix(1.3333333,0,0,-1.3333333,529.96168,184.51688)" />
    <path
       id="path33"
       d="m 318.26935,-56.02336 h 22.92209 v 14.17337 h -22.92209 z"
       style="fill:#e0e0e0;fill-opacity:1;fill-rule:nonzero;stroke:none"
       transform="matrix(1.3333333,0,0,-1.3333333,57.182667,119.268)" />
    <path
       id="path34"
       d="M 0.79542969,0.00127344 H 3.3149609 c 1.6523438,0 2.6601563,-1.24218754 2.6601563,-3.26953124 0,-2.0273438 -0.9960938,-3.2695313 -2.6601563,-3.2695313 H 0.79542969 Z M 1.6274609,-0.73700781 V -5.7995078 h 1.546875 c 1.2890625,0 1.96875,0.8671875 1.96875,2.5429687 0,1.640625 -0.6796875,2.51953129 -1.96875,2.51953129 z m 9.6386721,0.3046875 c -0.08203,0.0117188 -0.117188,0.0117188 -0.152344,0.0117188 -0.269531,0 -0.410156,-0.12890625 -0.410156,-0.36328125 V -3.5495078 c 0,-0.8320313 -0.609375,-1.2773438 -1.7695314,-1.2773438 -0.6796875,0 -1.2421875,0.1875 -1.5585938,0.5390625 -0.2109375,0.2460938 -0.3046875,0.515625 -0.3164062,0.984375 h 0.75 c 0.058594,-0.5742187 0.3984375,-0.8320312 1.1015625,-0.8320312 0.6679687,0 1.0546875,0.2460937 1.0546875,0.6914062 v 0.1992188 c 0,0.3164062 -0.1875,0.4453125 -0.7851563,0.515625 -1.0546875,0.140625 -1.21875,0.1757812 -1.5,0.2929687 -0.5507812,0.2226563 -0.8320312,0.6445313 -0.8320312,1.2539063 0,0.85546874 0.5976562,1.39453124 1.546875,1.39453124 0.5859375,0 1.0664062,-0.2109375 1.59375,-0.69140625 0.046875,0.46875 0.2812499,0.69140625 0.7734379,0.69140625 0.152343,0 0.269531,-0.0234375 0.503906,-0.0820313 z M 9.9653516,-1.4752891 c 0,0.2460938 -0.082031,0.3984375 -0.3046875,0.60937504 -0.3046875,0.28125 -0.6679688,0.421875 -1.1132813,0.421875 -0.5742187,0 -0.9140625,-0.28125 -0.9140625,-0.76171874 0,-0.4921875 0.328125,-0.7382813 1.125,-0.8554688 0.7851563,-0.1054687 0.9492188,-0.140625 1.2070313,-0.2578125 z M 13.73293,-4.6979453 h -0.761719 v -1.2890625 h -0.75 v 1.2890625 h -0.632813 v 0.609375 h 0.632813 v 3.55078124 c 0,0.48046875 0.328125,0.75 0.902344,0.75 0.1875,0 0.363281,-0.0234375 0.609375,-0.0703125 v -0.62109375 c -0.09375,0.0234375 -0.210938,0.0351563 -0.351563,0.0351563 -0.328125,0 -0.410156,-0.09375 -0.410156,-0.421875 V -4.0885703 h 0.761719 z m 5.012695,4.26562499 c -0.08203,0.0117188 -0.117187,0.0117188 -0.152344,0.0117188 -0.269531,0 -0.410156,-0.12890625 -0.410156,-0.36328125 V -3.5495078 c 0,-0.8320313 -0.609375,-1.2773438 -1.769531,-1.2773438 -0.679688,0 -1.242188,0.1875 -1.558594,0.5390625 -0.210937,0.2460938 -0.304687,0.515625 -0.316406,0.984375 h 0.75 c 0.05859,-0.5742187 0.398437,-0.8320312 1.101562,-0.8320312 0.667969,0 1.054688,0.2460937 1.054688,0.6914062 v 0.1992188 c 0,0.3164062 -0.1875,0.4453125 -0.785156,0.515625 -1.054688,0.140625 -1.21875,0.1757812 -1.5,0.2929687 -0.550782,0.2226563 -0.832032,0.6445313 -0.832032,1.2539063 0,0.85546874 0.597657,1.39453124 1.546875,1.39453124 0.585938,0 1.066407,-0.2109375 1.59375,-0.69140625 0.04687,0.46875 0.28125,0.69140625 0.773438,0.69140625 0.152344,0 0.269531,-0.0234375 0.503906,-0.0820313 z M 17.444844,-1.4752891 c 0,0.2460938 -0.08203,0.3984375 -0.304688,0.60937504 -0.304687,0.28125 -0.667968,0.421875 -1.113281,0.421875 -0.574219,0 -0.914062,-0.28125 -0.914062,-0.76171874 0,-0.4921875 0.328125,-0.7382813 1.125,-0.8554688 0.785156,-0.1054687 0.949218,-0.140625 1.207031,-0.2578125 z m 0,0"
       style="fill:#000000;fill-opacity:1;fill-rule:nonzero;stroke:none"
       aria-label="Data"
       transform="matrix(1.3333333,0,0,1.3333333,484.19333,188.70533)" />
    <path
       id="path35"
       d="m 297.42194,0 h 57.16232"
       style="fill:none;stroke:#808080;stroke-width:0.99628;stroke-linecap:butt;stroke-linejoin:miter;stroke-miterlimit:10;stroke-dasharray:none;stroke-opacity:1"
       transform="matrix(1.3333333,0,0,-1.3333333,57.182667,119.268)" />
    <path
       id="path36"
       d="M 5.20058,0 C 3.65962,0.28891 1.15567,1.15567 -0.57784,2.1669 V -2.1669 C 1.15567,-1.15567 3.65962,-0.28891 5.20058,0"
       style="fill:#808080;fill-opacity:1;fill-rule:nonzero;stroke:none"
       transform="matrix(1.3333333,0,0,-1.3333333,529.96168,119.268)" />
    <path
       id="path37"
       d="m 317.14235,-7.08669 h 22.92209 V 7.08668 h -22.92209 z"
       style="fill:#e0e0e0;fill-opacity:1;fill-rule:nonzero;stroke:none"
       transform="matrix(1.3333333,0,0,-1.3333333,57.182667,119.268)" />
    <path
       id="path38"
       d="M 0.79742969,-2.265625e-4 H 3.3169609 c 1.6523438,0 2.6601563,-1.2421875375 2.6601563,-3.2695312375 0,-2.0273438 -0.9960938,-3.2695313 -2.6601563,-3.2695313 H 0.79742969 Z M 1.6294609,-0.73850781 V -5.8010078 h 1.546875 c 1.2890625,0 1.96875,0.8671875 1.96875,2.5429687 0,1.640625 -0.6796875,2.51953129 -1.96875,2.51953129 z m 9.6386721,0.3046875 c -0.08203,0.0117188 -0.117188,0.0117188 -0.152344,0.0117188 -0.269531,0 -0.410156,-0.12890625 -0.410156,-0.36328125 V -3.5510078 c 0,-0.8320313 -0.609375,-1.2773438 -1.7695314,-1.2773438 -0.6796875,0 -1.2421875,0.1875 -1.5585938,0.5390625 -0.2109375,0.2460938 -0.3046875,0.515625 -0.3164062,0.984375 h 0.75 c 0.058594,-0.5742187 0.3984375,-0.8320312 1.1015625,-0.8320312 0.6679687,0 1.0546875,0.2460937 1.0546875,0.6914062 v 0.1992188 c 0,0.3164062 -0.1875,0.4453125 -0.7851563,0.515625 -1.0546875,0.140625 -1.21875,0.1757812 -1.5,0.2929687 -0.5507812,0.2226563 -0.8320312,0.6445313 -0.8320312,1.2539063 0,0.85546874 0.5976562,1.39453124 1.546875,1.39453124 0.5859375,0 1.0664062,-0.2109375025 1.59375,-0.69140625 0.046875,0.46875 0.2812499,0.69140625 0.7734379,0.69140625 0.152343,0 0.269531,-0.0234375 0.503906,-0.0820313 z M 9.9673516,-1.4767891 c 0,0.2460938 -0.082031,0.3984375 -0.3046875,0.60937504 -0.3046875,0.28125 -0.6679688,0.421875 -1.1132813,0.421875 -0.5742187,0 -0.9140625,-0.28125 -0.9140625,-0.76171874 0,-0.4921875 0.328125,-0.7382813 1.125,-0.8554688 0.7851563,-0.1054687 0.9492188,-0.140625 1.2070313,-0.2578125 z M 13.732,-4.6994453 h -0.761719 v -1.2890625 h -0.75 v 1.2890625 h -0.632812 v 0.609375 h 0.632812 v 3.55078124 c 0,0.48046875 0.328125,0.75 0.902344,0.75 0.1875,0 0.363281,-0.0234375 0.609375,-0.0703125 v -0.62109375 c -0.09375,0.0234375 -0.210937,0.0351563 -0.351562,0.0351563 -0.328125,0 -0.410157,-0.09375 -0.410157,-0.421875 V -4.0900703 H 13.732 Z m 5.012695,4.26562499 c -0.08203,0.0117188 -0.117187,0.0117188 -0.152343,0.0117188 -0.269532,0 -0.410157,-0.12890625 -0.410157,-0.36328125 V -3.5510078 c 0,-0.8320313 -0.609375,-1.2773438 -1.769531,-1.2773438 -0.679687,0 -1.242187,0.1875 -1.558594,0.5390625 -0.210937,0.2460938 -0.304687,0.515625 -0.316406,0.984375 h 0.75 c 0.05859,-0.5742187 0.398438,-0.8320312 1.101563,-0.8320312 0.667968,0 1.054687,0.2460937 1.054687,0.6914062 v 0.1992188 c 0,0.3164062 -0.1875,0.4453125 -0.785156,0.515625 -1.054688,0.140625 -1.21875,0.1757812 -1.5,0.2929687 -0.550781,0.2226563 -0.832031,0.6445313 -0.832031,1.2539063 0,0.85546874 0.597656,1.39453124 1.546875,1.39453124 0.585937,0 1.066406,-0.2109375025 1.59375,-0.69140625 0.04687,0.46875 0.28125,0.69140625 0.773437,0.69140625 0.152344,0 0.269531,-0.0234375 0.503906,-0.0820313 z M 17.443914,-1.4767891 c 0,0.2460938 -0.08203,0.3984375 -0.304687,0.60937504 -0.304688,0.28125 -0.667969,0.421875 -1.113282,0.421875 -0.574218,0 -0.914062,-0.28125 -0.914062,-0.76171874 0,-0.4921875 0.328125,-0.7382813 1.125,-0.8554688 0.785156,-0.1054687 0.949219,-0.140625 1.207031,-0.2578125 z m 0,0"
       style="fill:#000000;fill-opacity:1;fill-rule:nonzero;stroke:none"
       aria-label="Data"
       transform="matrix(1.3333333,0,0,1.3333333,482.69067,123.45733)" />
  </g>
</svg>
