<?xml version="1.0" encoding="UTF-8" standalone="no"?>
<!-- Created with Inkscape (http://www.inkscape.org/) -->

<svg
   version="1.1"
   id="svg1"
   width="506.75601"
   height="179.31332"
   viewBox="0 0 506.75601 179.31332"
   xmlns="http://www.w3.org/2000/svg"
   xmlns:svg="http://www.w3.org/2000/svg">
  <defs
     id="defs1" />
  <g
     id="g1">
    <path
       id="path1"
       d="M -42.24722,-95.28168 H 42.24723 V 38.45762 H -42.24722 Z"
       style="fill:#ffffe5;fill-opacity:1;fill-rule:nonzero;stroke:#b5b548;stroke-width:0.74721;stroke-linecap:butt;stroke-linejoin:miter;stroke-miterlimit:10;stroke-dasharray:none;stroke-opacity:1"
       transform="matrix(1.3333333,0,0,-1.3333333,56.826667,51.774667)" />
    <path
       id="path2"
       d="m 56.02937,-95.28168 h 84.49445 V 38.45762 H 56.02937 Z"
       style="fill:#ffffe5;fill-opacity:1;fill-rule:nonzero;stroke:#b5b548;stroke-width:0.74721;stroke-linecap:butt;stroke-linejoin:miter;stroke-miterlimit:10;stroke-dasharray:none;stroke-opacity:1"
       transform="matrix(1.3333333,0,0,-1.3333333,56.826667,51.774667)" />
    <path
       id="path3"
       d="m 154.30598,-95.28168 h 84.49445 v 133.7393 h -84.49445 z"
       style="fill:#ffffe5;fill-opacity:1;fill-rule:nonzero;stroke:#b5b548;stroke-width:0.74721;stroke-linecap:butt;stroke-linejoin:miter;stroke-miterlimit:10;stroke-dasharray:none;stroke-opacity:1"
       transform="matrix(1.3333333,0,0,-1.3333333,56.826667,51.774667)" />
    <path
       id="path4"
       d="m 252.5826,-95.28168 h 84.49445 V 38.45762 H 252.5826 Z"
       style="fill:#ffffe5;fill-opacity:1;fill-rule:nonzero;stroke:#b5b548;stroke-width:0.74721;stroke-linecap:butt;stroke-linejoin:miter;stroke-miterlimit:10;stroke-dasharray:none;stroke-opacity:1"
       transform="matrix(1.3333333,0,0,-1.3333333,56.826667,51.774667)" />
    <path
       id="path5"
       d="M -28.92201,-14.17339 H 28.92203 V 14.1734 h -57.84404 z"
       style="fill:#fde2f0;fill-opacity:1;fill-rule:nonzero;stroke:#c9146e;stroke-width:0.74721;stroke-linecap:butt;stroke-linejoin:miter;stroke-miterlimit:10;stroke-dasharray:none;stroke-opacity:1"
       transform="matrix(1.3333333,0,0,-1.3333333,56.826667,51.774667)" />
    <path
       id="path6"
       d="M 0.70235156,-3.828125e-4 H 3.6554766 c 0.6210937,0 1.078125,-0.1757812475 1.4296875,-0.5507812475 0.3164062,-0.33984375 0.5039062,-0.80859374 0.5039062,-1.31250004 0,-0.7851562 -0.3632812,-1.265625 -1.1953125,-1.59375 0.5859375,-0.2695312 0.9023438,-0.7617187 0.9023438,-1.4179687 0,-0.4804688 -0.1757813,-0.9023438 -0.515625,-1.2070313 C 4.4406328,-6.3871016 3.9836016,-6.5394453 3.3625078,-6.5394453 H 0.70235156 Z M 1.5461016,-3.7152266 v -2.0859375 h 1.6054687 c 0.46875,0 0.7265625,0.058594 0.9492188,0.234375 0.234375,0.1757813 0.3632812,0.4453125 0.3632812,0.8085938 0,0.3515625 -0.1289062,0.6210937 -0.3632812,0.8085937 -0.2226563,0.1640625 -0.4804688,0.234375 -0.9492188,0.234375 z m 0,2.97656254 V -2.9886641 h 2.0273437 c 0.4101563,0 0.6796875,0.1054688 0.8671875,0.3164063 0.1992188,0.2109375 0.3046875,0.4921875 0.3046875,0.8203125 0,0.3046875 -0.1054687,0.5976562 -0.3046875,0.796875 -0.1875,0.22265624 -0.4570312,0.31640624 -0.8671875,0.31640624 z M 7.3410234,-6.5394453 h -0.75 v 6.5390624875 h 0.75 z m 3.0673826,1.7109375 c -1.3124998,0 -2.1093748,0.9375 -2.1093748,2.5195312 0,1.57031254 0.7851563,2.51953129 2.1210938,2.51953129 1.3125,0 2.121094,-0.94921875 2.121094,-2.48437499 0,-1.6289063 -0.773438,-2.5546875 -2.132813,-2.5546875 z m 0.01172,0.6914062 c 0.84375,0 1.347656,0.6796875 1.347656,1.8515625 0,1.1015625 -0.527344,1.80468754 -1.347656,1.80468754 -0.8320313,0 -1.3476563,-0.69140624 -1.3476563,-1.82812504 0,-1.1367187 0.515625,-1.828125 1.3476563,-1.828125 z m 6.755859,1.0195313 c -0.03516,-0.4570313 -0.128906,-0.75 -0.304687,-1.0195313 -0.328125,-0.4335937 -0.890625,-0.6914062 -1.546875,-0.6914062 -1.265625,0 -2.085938,0.9960937 -2.085938,2.5546875 0,1.52343749 0.808594,2.48437499 2.074219,2.48437499 1.125,0 1.828125,-0.6796875 1.921875,-1.82812499 h -0.75 c -0.128906,0.76171874 -0.515625,1.13671874 -1.148437,1.13671874 -0.832032,0 -1.324219,-0.67968754 -1.324219,-1.79296874 0,-1.171875 0.492187,-1.8632813 1.300781,-1.8632813 0.632813,0 1.019531,0.3632813 1.113281,1.0195313 z m 1.350586,-3.421875 h -0.75 v 6.5390624875 h 0.75 V -1.8285078 l 0.726563,-0.7148438 1.582031,2.5429687875 h 0.925781 L 19.83907,-3.0706953 21.479695,-4.6996016 h -0.960937 l -1.992188,1.9921875 z m 7.142578,3.1523437 c -0.01172,-0.9257812 -0.621093,-1.4414062 -1.699218,-1.4414062 -1.101563,0 -1.804688,0.5625 -1.804688,1.4296875 0,0.7382812 0.375,1.0898437 1.488281,1.359375 l 0.703125,0.1640625 c 0.515625,0.1289062 0.726563,0.3164062 0.726563,0.65625 0,0.43359374 -0.445313,0.73828124 -1.101563,0.73828124 -0.398437,0 -0.738281,-0.1171875 -0.925781,-0.31640625 -0.117187,-0.140625 -0.175781,-0.26953129 -0.222656,-0.59765629 h -0.785156 c 0.03516,1.07812504 0.644531,1.60546879 1.875,1.60546879 1.183593,0 1.933593,-0.5859375 1.933593,-1.48828129 0,-0.703125 -0.398437,-1.0898437 -1.324218,-1.3125 l -0.714844,-0.1757812 c -0.609375,-0.140625 -0.867188,-0.3398438 -0.867188,-0.6679688 0,-0.4335937 0.375,-0.703125 0.984375,-0.703125 0.609375,0 0.925782,0.2578125 0.949219,0.75 z m 5.361329,-1.1367187 v 4.5234374875 h 0.785156 V -6.3519453 h -0.515625 c -0.28125,0.9726562 -0.457031,1.1015625 -1.675781,1.2539062 v 0.5742188 z m 5.208984,1.7226562 h -2.132813 v 0.6445313 h 2.132813 z m 4.907226,-1.8984375 C 40.994344,-5.7425703 40.314656,-6.3519453 39.342,-6.3519453 c -0.691406,0 -1.324219,0.3398437 -1.699219,0.9023437 -0.398437,0.6210938 -0.574219,1.3945313 -0.574219,2.5546875 0,1.0664063 0.164063,1.7460938 0.539063,2.30859379 0.339844,0.515625 0.890625,0.796875 1.59375,0.796875 1.207031,0 2.074219,-0.90234375 2.074219,-2.14453129 0,-1.1835937 -0.796875,-2.015625 -1.945313,-2.015625 -0.621094,0 -1.113281,0.234375 -1.453125,0.703125 0.01172,-1.546875 0.503906,-2.4140625 1.417969,-2.4140625 0.550781,0 0.9375,0.3515625 1.066406,0.9609375 z m -1.910156,1.4414063 c 0.761719,0 1.242188,0.5273437 1.242188,1.3828125 0,0.796875 -0.539063,1.38281249 -1.265625,1.38281249 -0.738282,0 -1.289063,-0.60937499 -1.289063,-1.42968749 0,-0.7851563 0.527344,-1.3359375 1.3125,-1.3359375 z m 0,0"
       style="fill:#000000;fill-opacity:1;fill-rule:nonzero;stroke:none"
       aria-label="Blocks1-6"
       transform="matrix(1.3333333,0,0,1.3333333,29.044,55.910667)" />
    <path
       id="path7"
       d="m 69.35458,-14.17339 h 57.84404 V 14.1734 H 69.35458 Z"
       style="fill:#fad4af;fill-opacity:1;fill-rule:nonzero;stroke:#ff7f4c;stroke-width:0.74721;stroke-linecap:butt;stroke-linejoin:miter;stroke-miterlimit:10;stroke-dasharray:none;stroke-opacity:1"
       transform="matrix(1.3333333,0,0,-1.3333333,56.826667,51.774667)" />
    <path
       id="path8"
       d="M 0.70355469,-3.671875e-4 H 3.6566797 c 0.6210937,0 1.078125,-0.1757812525 1.4296875,-0.5507812525 0.3164062,-0.33984375 0.5039062,-0.80859376 0.5039062,-1.31249996 0,-0.7851563 -0.3632812,-1.265625 -1.1953125,-1.59375 0.5859375,-0.2695313 0.9023438,-0.7617188 0.9023438,-1.4179688 0,-0.4804687 -0.1757813,-0.9023437 -0.515625,-1.2070312 C 4.4418359,-6.3870859 3.9848047,-6.5394297 3.3637109,-6.5394297 H 0.70355469 Z M 1.5473047,-3.7152109 v -2.0859375 h 1.6054687 c 0.46875,0 0.7265625,0.058594 0.9492188,0.234375 0.234375,0.1757812 0.3632812,0.4453125 0.3632812,0.8085937 0,0.3515625 -0.1289062,0.6210938 -0.3632812,0.8085938 -0.2226563,0.1640625 -0.4804688,0.234375 -0.9492188,0.234375 z m 0,2.97656246 V -2.9886484 h 2.0273437 c 0.4101563,0 0.6796875,0.1054687 0.8671875,0.3164062 0.1992188,0.2109375 0.3046875,0.4921875 0.3046875,0.8203125 0,0.3046875 -0.1054687,0.5976563 -0.3046875,0.796875 -0.1875,0.22265626 -0.4570312,0.31640626 -0.8671875,0.31640626 z M 7.3392969,-6.5394297 h -0.75 v 6.5390625125 h 0.75 z m 3.0703121,1.7109375 c -1.3124996,0 -2.1093746,0.9375 -2.1093746,2.5195313 0,1.57031246 0.7851562,2.51953121 2.1210936,2.51953121 1.3125,0 2.121094,-0.94921875 2.121094,-2.48437501 0,-1.6289062 -0.773438,-2.5546875 -2.132813,-2.5546875 z m 0.01172,0.6914063 c 0.84375,0 1.347656,0.6796875 1.347656,1.8515625 0,1.1015625 -0.527343,1.80468746 -1.347656,1.80468746 -0.8320311,0 -1.3476561,-0.69140626 -1.3476561,-1.82812496 0,-1.1367188 0.515625,-1.828125 1.3476561,-1.828125 z m 6.75293,1.0195312 c -0.03516,-0.4570312 -0.128906,-0.75 -0.304688,-1.0195312 -0.328125,-0.4335938 -0.890625,-0.6914063 -1.546875,-0.6914063 -1.265625,0 -2.085937,0.9960938 -2.085937,2.5546875 0,1.52343751 0.808594,2.48437501 2.074219,2.48437501 1.125,0 1.828125,-0.6796875 1.921875,-1.82812501 h -0.75 c -0.128907,0.76171876 -0.515625,1.13671876 -1.148438,1.13671876 -0.832031,0 -1.324219,-0.67968746 -1.324219,-1.79296876 0,-1.171875 0.492188,-1.8632812 1.300782,-1.8632812 0.632812,0 1.019531,0.3632812 1.113281,1.0195312 z m 1.350586,-3.421875 h -0.75 v 6.5390625125 h 0.75 V -1.8284922 l 0.726562,-0.7148437 1.582032,2.5429687125 H 21.75922 L 19.837344,-3.0706797 21.477969,-4.6995859 h -0.960938 l -1.992187,1.9921875 z m 7.145508,3.1523438 c -0.01172,-0.9257813 -0.621094,-1.4414063 -1.699219,-1.4414063 -1.101563,0 -1.804688,0.5625 -1.804688,1.4296875 0,0.7382813 0.375,1.0898438 1.488282,1.359375 l 0.703125,0.1640625 c 0.515625,0.1289063 0.726562,0.3164063 0.726562,0.65625 0,0.43359376 -0.445312,0.73828126 -1.101562,0.73828126 -0.398438,0 -0.738282,-0.1171875 -0.925782,-0.31640625 -0.117187,-0.140625 -0.175781,-0.26953121 -0.222656,-0.59765621 h -0.785156 c 0.03516,1.07812496 0.644531,1.60546871 1.875,1.60546871 1.183594,0 1.933594,-0.5859375 1.933594,-1.48828121 0,-0.703125 -0.398438,-1.0898438 -1.324219,-1.3125 L 23.81879,-2.7659922 c -0.609375,-0.140625 -0.867187,-0.3398437 -0.867187,-0.6679687 0,-0.4335938 0.375,-0.703125 0.984375,-0.703125 0.609375,0 0.925781,0.2578125 0.949218,0.75 z m 7.713867,-2.9648438 h -4.253906 v 0.7734375 h 3.433593 c -1.511718,2.1679688 -2.132812,3.4921875 -2.601562,5.5781250125 h 0.832031 C 31.145938,-2.0394297 31.942813,-3.7855234 33.384219,-5.6956797 Z m 2.862304,3.5507813 h -2.132812 v 0.6445312 h 2.132812 z m 2.765625,-1.7226563 v 4.5234375125 h 0.785157 V -6.3519297 H 39.28168 c -0.28125,0.9726563 -0.457032,1.1015625 -1.675782,1.2539063 v 0.5742187 z m 7.198243,3.73828126 h -3.339844 c 0.08203,-0.51562496 0.363281,-0.84374996 1.148437,-1.30078126 l 0.890625,-0.4921875 c 0.890625,-0.4804687 1.347657,-1.1367187 1.347657,-1.9101562 0,-0.5273438 -0.210938,-1.0195313 -0.597657,-1.3710938 -0.375,-0.3398437 -0.832031,-0.4921875 -1.441406,-0.4921875 -0.808594,0 -1.40625,0.28125 -1.757812,0.8203125 -0.222657,0.3398438 -0.316407,0.7382813 -0.339844,1.3828125 h 0.796875 c 0.02344,-0.4335937 0.07031,-0.6914062 0.1875,-0.9023437 0.199219,-0.3867188 0.609375,-0.609375 1.089844,-0.609375 0.714843,0 1.253906,0.5039062 1.253906,1.1835937 0,0.5039063 -0.292969,0.9375 -0.855469,1.2539063 l -0.832031,0.46875 c -1.324219,0.75 -1.710938,1.359375 -1.78125,2.7539062125 h 4.230469 z m 0,0"
       style="fill:#000000;fill-opacity:1;fill-rule:nonzero;stroke:none"
       aria-label="Blocks7-12"
       transform="matrix(1.3333333,0,0,1.3333333,156.75333,55.965333)" />
    <path
       id="path9"
       d="m 167.6312,-14.17339 h 57.84404 V 14.1734 H 167.6312 Z"
       style="fill:#dbfda6;fill-opacity:1;fill-rule:nonzero;stroke:#495938;stroke-width:0.74721;stroke-linecap:butt;stroke-linejoin:miter;stroke-miterlimit:10;stroke-dasharray:none;stroke-opacity:1"
       transform="matrix(1.3333333,0,0,-1.3333333,56.826667,51.774667)" />
    <path
       id="path10"
       d="M 0.70375781,-3.828125e-4 H 3.6568828 c 0.6210938,0 1.078125,-0.1757812475 1.4296875,-0.5507812475 0.3164063,-0.33984375 0.5039063,-0.80859374 0.5039063,-1.31250004 0,-0.7851562 -0.3632813,-1.265625 -1.1953125,-1.59375 0.5859375,-0.2695312 0.9023437,-0.7617187 0.9023437,-1.4179687 0,-0.4804688 -0.1757812,-0.9023438 -0.515625,-1.2070313 C 4.4420391,-6.3871016 3.9850078,-6.5394453 3.3639141,-6.5394453 H 0.70375781 Z M 1.5475078,-3.7152266 v -2.0859375 h 1.6054688 c 0.46875,0 0.7265625,0.058594 0.9492187,0.234375 0.234375,0.1757813 0.3632813,0.4453125 0.3632813,0.8085938 0,0.3515625 -0.1289063,0.6210937 -0.3632813,0.8085937 -0.2226562,0.1640625 -0.4804687,0.234375 -0.9492187,0.234375 z m 0,2.97656254 V -2.9886641 h 2.0273438 c 0.4101562,0 0.6796875,0.1054688 0.8671875,0.3164063 0.1992187,0.2109375 0.3046875,0.4921875 0.3046875,0.8203125 0,0.3046875 -0.1054688,0.5976562 -0.3046875,0.796875 -0.1875,0.22265624 -0.4570313,0.31640624 -0.8671875,0.31640624 z M 7.3395,-6.5394453 h -0.75 v 6.5390624875 h 0.75 z m 3.070312,1.7109375 c -1.3124995,0 -2.1093745,0.9375 -2.1093745,2.5195312 0,1.57031254 0.7851562,2.51953129 2.1210935,2.51953129 1.3125,0 2.121094,-0.94921875 2.121094,-2.48437499 0,-1.6289063 -0.773438,-2.5546875 -2.132813,-2.5546875 z m 0.01172,0.6914062 c 0.84375,0 1.347656,0.6796875 1.347656,1.8515625 0,1.1015625 -0.527343,1.80468754 -1.347656,1.80468754 -0.832031,0 -1.347656,-0.69140624 -1.347656,-1.82812504 0,-1.1367187 0.515625,-1.828125 1.347656,-1.828125 z m 6.75293,1.0195313 c -0.03516,-0.4570313 -0.128906,-0.75 -0.304688,-1.0195313 -0.328125,-0.4335937 -0.890625,-0.6914062 -1.546875,-0.6914062 -1.265625,0 -2.085937,0.9960937 -2.085937,2.5546875 0,1.52343749 0.808594,2.48437499 2.074219,2.48437499 1.125,0 1.828125,-0.6796875 1.921875,-1.82812499 h -0.75 c -0.128907,0.76171874 -0.515625,1.13671874 -1.148438,1.13671874 -0.832031,0 -1.324219,-0.67968754 -1.324219,-1.79296874 0,-1.171875 0.492188,-1.8632813 1.300782,-1.8632813 0.632812,0 1.019531,0.3632813 1.113281,1.0195313 z m 1.350586,-3.421875 h -0.75 v 6.5390624875 h 0.75 V -1.8285078 l 0.726562,-0.7148438 1.582032,2.5429687875 h 0.925781 L 19.837547,-3.0706953 21.478172,-4.6996016 h -0.960938 l -1.992187,1.9921875 z m 7.145508,3.1523437 c -0.01172,-0.9257812 -0.621094,-1.4414062 -1.699219,-1.4414062 -1.101563,0 -1.804688,0.5625 -1.804688,1.4296875 0,0.7382812 0.375,1.0898437 1.488282,1.359375 l 0.703125,0.1640625 c 0.515625,0.1289062 0.726562,0.3164062 0.726562,0.65625 0,0.43359374 -0.445312,0.73828124 -1.101562,0.73828124 -0.398438,0 -0.738282,-0.1171875 -0.925782,-0.31640625 -0.117187,-0.140625 -0.175781,-0.26953129 -0.222656,-0.59765629 h -0.785156 c 0.03516,1.07812504 0.644531,1.60546879 1.875,1.60546879 1.183594,0 1.933594,-0.5859375 1.933594,-1.48828129 0,-0.703125 -0.398438,-1.0898437 -1.324219,-1.3125 l -0.714844,-0.1757812 c -0.609375,-0.140625 -0.867187,-0.3398438 -0.867187,-0.6679688 0,-0.4335937 0.375,-0.703125 0.984375,-0.703125 0.609375,0 0.925781,0.2578125 0.949218,0.75 z m 5.370117,-1.1367187 v 4.5234374875 h 0.785156 V -6.3519453 h -0.515625 c -0.28125,0.9726562 -0.457031,1.1015625 -1.675781,1.2539062 v 0.5742188 z m 4.643555,1.6054687 h 0.433593 c 0.867188,0 1.3125,0.3867188 1.3125,1.1484375 0,0.79687504 -0.492187,1.27734379 -1.3125,1.27734379 -0.867187,0 -1.289062,-0.43359375 -1.335937,-1.35937499 h -0.796875 c 0.04687,0.515625 0.128906,0.84375 0.28125,1.13671874 0.328125,0.609375 0.949219,0.92578125 1.816406,0.92578125 1.3125,0 2.15625,-0.78515625 2.15625,-1.98046879 0,-0.8085937 -0.316406,-1.265625 -1.078125,-1.5234375 0.597656,-0.234375 0.890625,-0.6796875 0.890625,-1.3125 0,-1.1015625 -0.726562,-1.7460937 -1.933594,-1.7460937 -1.289062,0 -1.96875,0.6914062 -1.992187,2.0507812 h 0.785156 c 0.01172,-0.3867187 0.04687,-0.5976562 0.152344,-0.796875 0.175781,-0.3515625 0.5625,-0.5625 1.066406,-0.5625 0.691406,0 1.113281,0.4101563 1.113281,1.078125 0,0.4453125 -0.164062,0.7148438 -0.503906,0.8671875 -0.222656,0.082031 -0.503906,0.1171875 -1.054687,0.1289063 z m 5.548828,0.1171875 h -2.132813 v 0.6445313 h 2.132813 z m 2.762695,-1.7226562 v 4.5234374875 h 0.785156 V -6.3519453 h -0.515625 c -0.28125,0.9726562 -0.457031,1.1015625 -1.675781,1.2539062 v 0.5742188 z m 6.169922,1.1835937 c 0.65625,-0.3984375 0.867187,-0.7265625 0.867187,-1.3242187 0,-0.9960938 -0.773437,-1.6875 -1.910156,-1.6875 -1.113281,0 -1.910156,0.6914062 -1.910156,1.6875 0,0.5976562 0.222656,0.9140625 0.867187,1.3242187 -0.726562,0.3398438 -1.089843,0.8789063 -1.089843,1.5703125 0,1.17187504 0.878906,1.98046879 2.132812,1.98046879 1.253906,0 2.132813,-0.80859375 2.132813,-1.96874999 0,-0.703125 -0.351563,-1.2421875 -1.089844,-1.5820313 z m -1.042969,-2.3203125 c 0.679688,0 1.101563,0.3984375 1.101563,1.0195313 0,0.5859375 -0.433594,0.984375 -1.101563,0.984375 -0.65625,0 -1.101562,-0.3984375 -1.101562,-0.9960938 0,-0.609375 0.445312,-1.0078125 1.101562,-1.0078125 z m 0,2.6601563 c 0.796875,0 1.335938,0.5039062 1.335938,1.2539062 0,0.75000004 -0.539063,1.25390629 -1.347657,1.25390629 -0.773437,0 -1.3125,-0.51562499 -1.3125,-1.25390629 0,-0.75 0.539063,-1.2539062 1.324219,-1.2539062 z m 0,0"
       style="fill:#000000;fill-opacity:1;fill-rule:nonzero;stroke:none"
       aria-label="Blocks13-18"
       transform="matrix(1.3333333,0,0,1.3333333,284.464,55.910667)" />
    <path
       id="path11"
       d="m 265.9078,-14.17339 h 57.84404 V 14.1734 H 265.9078 Z"
       style="fill:#d1f3ff;fill-opacity:1;fill-rule:nonzero;stroke:#2294bd;stroke-width:0.74721;stroke-linecap:butt;stroke-linejoin:miter;stroke-miterlimit:10;stroke-dasharray:none;stroke-opacity:1"
       transform="matrix(1.3333333,0,0,-1.3333333,56.826667,51.774667)" />
    <path
       id="path12"
       d="M 0.70219531,-3.828125e-4 H 3.6553203 c 0.6210938,0 1.078125,-0.1757812475 1.4296875,-0.5507812475 0.3164063,-0.33984375 0.5039063,-0.80859374 0.5039063,-1.31250004 0,-0.7851562 -0.3632813,-1.265625 -1.1953125,-1.59375 0.5859375,-0.2695312 0.9023437,-0.7617187 0.9023437,-1.4179687 0,-0.4804688 -0.1757812,-0.9023438 -0.515625,-1.2070313 C 4.4404766,-6.3871016 3.9834453,-6.5394453 3.3623516,-6.5394453 H 0.70219531 Z M 1.5459453,-3.7152266 v -2.0859375 h 1.6054688 c 0.46875,0 0.7265625,0.058594 0.9492187,0.234375 0.234375,0.1757813 0.3632813,0.4453125 0.3632813,0.8085938 0,0.3515625 -0.1289063,0.6210937 -0.3632813,0.8085937 -0.2226562,0.1640625 -0.4804687,0.234375 -0.9492187,0.234375 z m 0,2.97656254 V -2.9886641 h 2.0273438 c 0.4101562,0 0.6796875,0.1054688 0.8671875,0.3164063 0.1992187,0.2109375 0.3046875,0.4921875 0.3046875,0.8203125 0,0.3046875 -0.1054688,0.5976562 -0.3046875,0.796875 -0.1875,0.22265624 -0.4570313,0.31640624 -0.8671875,0.31640624 z M 7.3408672,-6.5394453 h -0.75 v 6.5390624875 h 0.75 z m 3.0673828,1.7109375 c -1.3125,0 -2.109375,0.9375 -2.109375,2.5195312 0,1.57031254 0.7851563,2.51953129 2.121094,2.51953129 1.3125,0 2.121094,-0.94921875 2.121094,-2.48437499 0,-1.6289063 -0.773438,-2.5546875 -2.132813,-2.5546875 z m 0.01172,0.6914062 c 0.84375,0 1.347656,0.6796875 1.347656,1.8515625 0,1.1015625 -0.527344,1.80468754 -1.347656,1.80468754 -0.8320315,0 -1.3476565,-0.69140624 -1.3476565,-1.82812504 0,-1.1367187 0.515625,-1.828125 1.3476565,-1.828125 z m 6.755859,1.0195313 c -0.03516,-0.4570313 -0.128906,-0.75 -0.304687,-1.0195313 -0.328125,-0.4335937 -0.890625,-0.6914062 -1.546875,-0.6914062 -1.265625,0 -2.085938,0.9960937 -2.085938,2.5546875 0,1.52343749 0.808594,2.48437499 2.074219,2.48437499 1.125,0 1.828125,-0.6796875 1.921875,-1.82812499 h -0.75 c -0.128906,0.76171874 -0.515625,1.13671874 -1.148438,1.13671874 -0.832031,0 -1.324218,-0.67968754 -1.324218,-1.79296874 0,-1.171875 0.492187,-1.8632813 1.300781,-1.8632813 0.632812,0 1.019531,0.3632813 1.113281,1.0195313 z m 1.350586,-3.421875 h -0.75 v 6.5390624875 h 0.75 V -1.8285078 l 0.726563,-0.7148438 1.582031,2.5429687875 H 21.76079 L 19.838914,-3.0706953 21.479539,-4.6996016 h -0.960937 l -1.992188,1.9921875 z m 7.142578,3.1523437 c -0.01172,-0.9257812 -0.621094,-1.4414062 -1.699219,-1.4414062 -1.101562,0 -1.804687,0.5625 -1.804687,1.4296875 0,0.7382812 0.375,1.0898437 1.488281,1.359375 l 0.703125,0.1640625 c 0.515625,0.1289062 0.726563,0.3164062 0.726563,0.65625 0,0.43359374 -0.445313,0.73828124 -1.101563,0.73828124 -0.398437,0 -0.738281,-0.1171875 -0.925781,-0.31640625 -0.117188,-0.140625 -0.175781,-0.26953129 -0.222656,-0.59765629 h -0.785157 c 0.03516,1.07812504 0.644532,1.60546879 1.875,1.60546879 1.183594,0 1.933594,-0.5859375 1.933594,-1.48828129 0,-0.703125 -0.398437,-1.0898437 -1.324219,-1.3125 L 23.81743,-2.7660078 c -0.609375,-0.140625 -0.867188,-0.3398438 -0.867188,-0.6679688 0,-0.4335937 0.375,-0.703125 0.984375,-0.703125 0.609375,0 0.925781,0.2578125 0.949219,0.75 z m 5.370117,-1.1367187 v 4.5234374875 h 0.785157 V -6.3519453 h -0.515625 c -0.28125,0.9726562 -0.457032,1.1015625 -1.675782,1.2539062 v 0.5742188 z m 3.146485,3.0703125 c 0.152344,1.04296874 0.832031,1.66406249 1.792969,1.66406249 0.703125,0 1.335937,-0.33984375 1.710937,-0.9140625 0.398438,-0.60937499 0.574219,-1.39453129 0.574219,-2.55468749 0,-1.0664063 -0.152344,-1.7460938 -0.539063,-2.3085938 -0.339843,-0.515625 -0.902343,-0.7851562 -1.59375,-0.7851562 -1.21875,0 -2.085937,0.890625 -2.085937,2.1328125 0,1.1835937 0.808594,2.0273437 1.957031,2.0273437 0.597656,0 1.042969,-0.2226562 1.453125,-0.7148437 -0.01172,1.546875 -0.515625,2.41406249 -1.417969,2.41406249 -0.5625,0 -0.9375,-0.3515625 -1.066406,-0.96093749 z m 1.933594,-4.2070313 c 0.738281,0 1.289062,0.609375 1.289062,1.4296875 0,0.7734375 -0.550781,1.3359375 -1.324219,1.3359375 -0.761718,0 -1.230468,-0.5273437 -1.230468,-1.3828125 0,-0.8085937 0.539062,-1.3828125 1.265625,-1.3828125 z m 5.112304,2.859375 H 39.09868 v 0.6445313 h 2.132812 z m 4.980469,2.01562504 h -3.339844 c 0.08203,-0.51562504 0.363281,-0.84375004 1.148438,-1.30078124 l 0.890625,-0.4921875 c 0.890625,-0.4804688 1.347656,-1.1367188 1.347656,-1.9101563 0,-0.5273437 -0.210938,-1.0195312 -0.597656,-1.3710937 -0.375,-0.3398438 -0.832032,-0.4921875 -1.441407,-0.4921875 -0.808593,0 -1.40625,0.28125 -1.757812,0.8203125 -0.222656,0.3398437 -0.316406,0.7382812 -0.339844,1.3828125 h 0.796875 c 0.02344,-0.4335938 0.07031,-0.6914063 0.1875,-0.9023438 0.199219,-0.3867187 0.609375,-0.609375 1.089844,-0.609375 0.714844,0 1.253906,0.5039063 1.253906,1.1835938 0,0.5039062 -0.292969,0.9375 -0.855469,1.2539062 l -0.832031,0.46875 c -1.324219,0.75 -1.710937,1.359375 -1.78125,2.7539062875 h 4.230469 z m 3.37793,-0.73828124 v 1.5234374875 h 0.785156 V -1.5238203 h 0.949219 v -0.703125 h -0.949219 v -4.125 h -0.574219 l -2.894531,3.9960937 v 0.8320313 z m 0,-0.703125 h -1.992188 l 1.992188,-2.7890625 z m 0,0"
       style="fill:#000000;fill-opacity:1;fill-rule:nonzero;stroke:none"
       aria-label="Blocks19-24"
       transform="matrix(1.3333333,0,0,1.3333333,415.49733,55.910667)" />
    <path
       id="path13"
       d="m -28.92201,-82.95274 h 57.84404 v 28.34679 h -57.84404 z"
       style="fill:#f3f3ff;fill-opacity:1;fill-rule:nonzero;stroke:#a988e5;stroke-width:0.74721;stroke-linecap:butt;stroke-linejoin:miter;stroke-miterlimit:10;stroke-dasharray:none;stroke-opacity:1"
       transform="matrix(1.3333333,0,0,-1.3333333,56.826667,51.774667)" />
    <path
       id="path14"
       d="m 6.3506016,-3.4566016 h -2.71875 v 0.7382813 h 1.9921875 v 0.1875 c 0,1.1601562 -0.8671875,2.00390624 -2.0625,2.00390624 -0.65625,0 -1.2539063,-0.24609375 -1.640625,-0.66796874 -0.4335938,-0.46875 -0.6914063,-1.2421875 -0.6914063,-2.0507813 0,-1.6054687 0.9140625,-2.6601562 2.296875,-2.6601562 0.9960938,0 1.7109375,0.5039062 1.8867188,1.3476562 h 0.8554687 c -0.234375,-1.3242187 -1.2421875,-2.0859375 -2.7421875,-2.0859375 -0.796875,0 -1.4414062,0.2109375 -1.9453125,0.6328125 -0.76171874,0.6210938 -1.18359374,1.640625 -1.18359374,2.8125 0,2.0039063 1.21875004,3.41015629 2.98828124,3.41015629 0.890625,0 1.59375,-0.33984375 2.2382813,-1.04296875 l 0.1992187,0.8671875 h 0.5273438 z m 2.2763671,0.6914063 H 10.67775 c 0.515625,0 0.914062,-0.1523438 1.265625,-0.46875 0.386719,-0.3632813 0.5625,-0.7851563 0.5625,-1.3828125 0,-1.2304688 -0.726563,-1.921875 -2.015625,-1.921875 H 7.7949375 V 4.296875e-4 h 0.8320312 z m 0,-0.7382813 v -2.296875 h 1.7343753 c 0.796875,0 1.277343,0.4335938 1.277343,1.1484375 0,0.7148438 -0.480468,1.1484375 -1.277343,1.1484375 z m 9.2753903,-3.0351562 v 4.59375 c 0,0.8789062 -0.632812,1.41796874 -1.6875,1.41796874 -0.480468,0 -0.878906,-0.1171875 -1.183593,-0.33984375 C 14.703141,-1.1245703 14.550797,-1.4526953 14.550797,-1.9448828 v -4.59375 h -0.832031 v 4.59375 c 0,1.32421874 0.949218,2.15624999 2.496093,2.15624999 1.535157,0 2.519532,-0.84375 2.519532,-2.15624999 v -4.59375 z m 6.339844,2.015625 V 4.296875e-4 h 0.785156 V -6.3511328 h -0.515625 c -0.28125,0.9726562 -0.457031,1.1015625 -1.675781,1.2539062 v 0.5742188 z m 0,0"
       style="fill:#000000;fill-opacity:1;fill-rule:nonzero;stroke:none"
       aria-label="GPU1"
       transform="matrix(1.3333333,0,0,1.3333333,38.888,147.75333)" />
    <path
       id="path15"
       d="m 69.35458,-82.95274 h 57.84404 v 28.34679 H 69.35458 Z"
       style="fill:#f3f3ff;fill-opacity:1;fill-rule:nonzero;stroke:#a988e5;stroke-width:0.74721;stroke-linecap:butt;stroke-linejoin:miter;stroke-miterlimit:10;stroke-dasharray:none;stroke-opacity:1"
       transform="matrix(1.3333333,0,0,-1.3333333,56.826667,51.774667)" />
    <path
       id="path16"
       d="m 6.3509688,-3.4566016 h -2.71875 v 0.7382813 h 1.9921875 v 0.1875 c 0,1.1601562 -0.8671875,2.00390624 -2.0625,2.00390624 -0.65625,0 -1.2539063,-0.24609375 -1.640625,-0.66796874 -0.4335938,-0.46875 -0.6914063,-1.2421875 -0.6914063,-2.0507813 0,-1.6054687 0.9140625,-2.6601562 2.296875,-2.6601562 0.9960938,0 1.7109375,0.5039062 1.8867188,1.3476562 H 6.2689375 C 6.0345625,-5.8823828 5.02675,-6.6441016 3.52675,-6.6441016 c -0.796875,0 -1.4414062,0.2109375 -1.9453125,0.6328125 -0.76171875,0.6210938 -1.18359375,1.640625 -1.18359375,2.8125 0,2.0039063 1.21875005,3.41015629 2.98828125,3.41015629 0.890625,0 1.59375,-0.33984375 2.2382813,-1.04296875 l 0.1992187,0.8671875 h 0.5273438 z m 2.2763671,0.6914063 h 2.0507811 c 0.515625,0 0.914063,-0.1523438 1.265625,-0.46875 0.386719,-0.3632813 0.5625,-0.7851563 0.5625,-1.3828125 0,-1.2304688 -0.726562,-1.921875 -2.015625,-1.921875 H 7.7953047 V 4.296875e-4 h 0.8320312 z m 0,-0.7382813 v -2.296875 h 1.7343751 c 0.796875,0 1.277344,0.4335938 1.277344,1.1484375 0,0.7148438 -0.480469,1.1484375 -1.277344,1.1484375 z m 9.2753911,-3.0351562 v 4.59375 c 0,0.8789062 -0.632813,1.41796874 -1.6875,1.41796874 -0.480469,0 -0.878907,-0.1171875 -1.183594,-0.33984375 C 14.703508,-1.1245703 14.551164,-1.4526953 14.551164,-1.9448828 v -4.59375 h -0.832031 v 4.59375 c 0,1.32421874 0.949219,2.15624999 2.496094,2.15624999 1.535156,0 2.519531,-0.84375 2.519531,-2.15624999 v -4.59375 z m 8.545898,5.75390624 h -3.339844 c 0.08203,-0.51562504 0.363282,-0.84375004 1.148438,-1.30078124 l 0.890625,-0.4921875 c 0.890625,-0.4804688 1.347656,-1.1367188 1.347656,-1.9101563 0,-0.5273437 -0.210937,-1.0195312 -0.597656,-1.3710937 -0.375,-0.3398438 -0.832031,-0.4921875 -1.441406,-0.4921875 -0.808594,0 -1.40625,0.28125 -1.757813,0.8203125 -0.222656,0.3398437 -0.316406,0.7382812 -0.339844,1.3828125 h 0.796875 c 0.02344,-0.4335938 0.07031,-0.6914063 0.1875,-0.9023438 0.199219,-0.3867187 0.609375,-0.609375 1.089844,-0.609375 0.714844,0 1.253906,0.5039063 1.253906,1.1835938 0,0.5039062 -0.292968,0.9375 -0.855468,1.2539062 l -0.832032,0.46875 c -1.324218,0.75 -1.710937,1.359375 -1.78125,2.7539062875 h 4.230469 z m 0,0"
       style="fill:#000000;fill-opacity:1;fill-rule:nonzero;stroke:none"
       aria-label="GPU2"
       transform="matrix(1.3333333,0,0,1.3333333,169.92267,147.75333)" />
    <path
       id="path17"
       d="m 167.6312,-82.95274 h 57.84404 v 28.34679 H 167.6312 Z"
       style="fill:#f3f3ff;fill-opacity:1;fill-rule:nonzero;stroke:#a988e5;stroke-width:0.74721;stroke-linecap:butt;stroke-linejoin:miter;stroke-miterlimit:10;stroke-dasharray:none;stroke-opacity:1"
       transform="matrix(1.3333333,0,0,-1.3333333,56.826667,51.774667)" />
    <path
       id="path18"
       d="m 6.3523359,-3.4566016 h -2.71875 v 0.7382813 h 1.9921875 v 0.1875 c 0,1.1601562 -0.8671875,2.00390624 -2.0625,2.00390624 -0.65625,0 -1.2539062,-0.24609375 -1.640625,-0.66796874 -0.4335937,-0.46875 -0.6914062,-1.2421875 -0.6914062,-2.0507813 0,-1.6054687 0.9140625,-2.6601562 2.296875,-2.6601562 0.9960937,0 1.7109375,0.5039062 1.8867187,1.3476562 h 0.8554688 c -0.234375,-1.3242187 -1.2421875,-2.0859375 -2.7421875,-2.0859375 -0.796875,0 -1.4414063,0.2109375 -1.9453125,0.6328125 -0.76171876,0.6210938 -1.18359376,1.640625 -1.18359376,2.8125 0,2.0039063 1.21874996,3.41015629 2.98828126,3.41015629 0.890625,0 1.59375,-0.33984375 2.2382812,-1.04296875 l 0.1992188,0.8671875 h 0.5273437 z m 2.2763672,0.6914063 h 2.0507809 c 0.515625,0 0.914063,-0.1523438 1.265625,-0.46875 0.386719,-0.3632813 0.5625,-0.7851563 0.5625,-1.3828125 0,-1.2304688 -0.726562,-1.921875 -2.015625,-1.921875 H 7.7966719 V 4.296875e-4 h 0.8320312 z m 0,-0.7382813 v -2.296875 h 1.7343749 c 0.796875,0 1.277344,0.4335938 1.277344,1.1484375 0,0.7148438 -0.480469,1.1484375 -1.277344,1.1484375 z m 9.2724609,-3.0351562 v 4.59375 c 0,0.8789062 -0.632812,1.41796874 -1.6875,1.41796874 -0.480469,0 -0.878906,-0.1171875 -1.183594,-0.33984375 C 14.701945,-1.1245703 14.549602,-1.4526953 14.549602,-1.9448828 v -4.59375 H 13.71757 v 4.59375 c 0,1.32421874 0.949219,2.15624999 2.496094,2.15624999 1.535156,0 2.519531,-0.84375 2.519531,-2.15624999 v -4.59375 z m 6.00293,3.6210937 h 0.433594 c 0.867187,0 1.3125,0.3867188 1.3125,1.1484375 0,0.79687504 -0.492188,1.27734379 -1.3125,1.27734379 -0.867188,0 -1.289063,-0.43359375 -1.335938,-1.35937499 h -0.796875 c 0.04687,0.515625 0.128906,0.84375 0.28125,1.13671874 0.328125,0.609375 0.949219,0.92578125 1.816406,0.92578125 1.3125,0 2.15625,-0.78515625 2.15625,-1.98046879 0,-0.8085937 -0.316406,-1.265625 -1.078125,-1.5234375 0.597657,-0.234375 0.890625,-0.6796875 0.890625,-1.3125 0,-1.1015625 -0.726562,-1.7460937 -1.933593,-1.7460937 -1.289063,0 -1.96875,0.6914062 -1.992188,2.0507812 h 0.785156 c 0.01172,-0.3867187 0.04687,-0.5976562 0.152344,-0.796875 0.175781,-0.3515625 0.5625,-0.5625 1.066406,-0.5625 0.691407,0 1.113282,0.4101563 1.113282,1.078125 0,0.4453125 -0.164063,0.7148438 -0.503907,0.8671875 -0.222656,0.082031 -0.503906,0.1171875 -1.054687,0.1289063 z m 0,0"
       style="fill:#000000;fill-opacity:1;fill-rule:nonzero;stroke:none"
       aria-label="GPU3"
       transform="matrix(1.3333333,0,0,1.3333333,300.956,147.75333)" />
    <path
       id="path19"
       d="m 265.9078,-82.95274 h 57.84404 v 28.34679 H 265.9078 Z"
       style="fill:#f3f3ff;fill-opacity:1;fill-rule:nonzero;stroke:#a988e5;stroke-width:0.74721;stroke-linecap:butt;stroke-linejoin:miter;stroke-miterlimit:10;stroke-dasharray:none;stroke-opacity:1"
       transform="matrix(1.3333333,0,0,-1.3333333,56.826667,51.774667)" />
    <path
       id="path20"
       d="m 6.3507734,-3.4566016 h -2.71875 v 0.7382813 h 1.9921875 v 0.1875 c 0,1.1601562 -0.8671875,2.00390624 -2.0625,2.00390624 -0.65625,0 -1.2539062,-0.24609375 -1.640625,-0.66796874 -0.4335937,-0.46875 -0.6914062,-1.2421875 -0.6914062,-2.0507813 0,-1.6054687 0.9140625,-2.6601562 2.296875,-2.6601562 0.9960937,0 1.7109375,0.5039062 1.8867187,1.3476562 h 0.8554688 c -0.234375,-1.3242187 -1.2421875,-2.0859375 -2.7421875,-2.0859375 -0.796875,0 -1.4414063,0.2109375 -1.9453125,0.6328125 -0.76171876,0.6210938 -1.18359376,1.640625 -1.18359376,2.8125 0,2.0039063 1.21874996,3.41015629 2.98828126,3.41015629 0.890625,0 1.59375,-0.33984375 2.2382812,-1.04296875 l 0.1992188,0.8671875 h 0.5273437 z m 2.2763672,0.6914063 h 2.0507814 c 0.515625,0 0.914062,-0.1523438 1.265625,-0.46875 0.386719,-0.3632813 0.5625,-0.7851563 0.5625,-1.3828125 0,-1.2304688 -0.726563,-1.921875 -2.015625,-1.921875 H 7.7951094 V 4.296875e-4 h 0.8320312 z m 0,-0.7382813 v -2.296875 h 1.7343754 c 0.796875,0 1.277343,0.4335938 1.277343,1.1484375 0,0.7148438 -0.480468,1.1484375 -1.277343,1.1484375 z m 9.2753904,-3.0351562 v 4.59375 c 0,0.8789062 -0.632812,1.41796874 -1.6875,1.41796874 -0.480468,0 -0.878906,-0.1171875 -1.183593,-0.33984375 C 14.703313,-1.1245703 14.550969,-1.4526953 14.550969,-1.9448828 v -4.59375 h -0.832031 v 4.59375 c 0,1.32421874 0.949218,2.15624999 2.496093,2.15624999 1.535157,0 2.519532,-0.84375 2.519532,-2.15624999 v -4.59375 z m 6.949219,5.015625 V 4.296875e-4 h 0.785156 V -1.5230078 h 0.949219 v -0.703125 h -0.949219 v -4.125 h -0.574218 l -2.894532,3.9960937 v 0.8320313 z m 0,-0.703125 h -1.992187 l 1.992187,-2.7890625 z m 0,0"
       style="fill:#000000;fill-opacity:1;fill-rule:nonzero;stroke:none"
       aria-label="GPU4"
       transform="matrix(1.3333333,0,0,1.3333333,431.98933,147.75333)" />
    <path
       id="path21"
       d="M 0.79730469,-7.03125e-4 H 3.3168359 c 1.6523438,0 2.6601563,-1.242187475 2.6601563,-3.269531275 0,-2.0273437 -0.9960938,-3.2695312 -2.6601563,-3.2695312 H 0.79730469 Z M 1.6293359,-0.73898438 V -5.8014844 h 1.546875 c 1.2890625,0 1.96875,0.8671875 1.96875,2.5429688 0,1.640625 -0.6796875,2.51953122 -1.96875,2.51953122 z M 11.068789,-2.0983594 c 0,-0.7148437 -0.04687,-1.1484375 -0.1875,-1.5 -0.304687,-0.7734375 -1.0195312,-1.2304687 -1.8984374,-1.2304687 -1.3007813,0 -2.1445313,0.9960937 -2.1445313,2.5429687 0,1.54687502 0.8085938,2.49609377 2.1328125,2.49609377 1.0664062,0 1.8164062,-0.609375 2.0039062,-1.64062497 h -0.75 c -0.210937,0.62109372 -0.6328124,0.94921872 -1.2304687,0.94921872 -0.4804687,0 -0.8789062,-0.22265625 -1.125,-0.60937502 -0.1875,-0.2695312 -0.2460937,-0.5390625 -0.2578125,-1.0078125 z m -3.4335937,-0.609375 c 0.058594,-0.8671875 0.5859375,-1.4296875 1.3359375,-1.4296875 0.7382813,0 1.3007812,0.609375 1.3007812,1.3710938 0,0.023437 0,0.035156 0,0.058594 z M 13.743594,-7.03125e-4 15.548281,-4.6999219 h -0.84375 l -1.324219,3.80859377 -1.253906,-3.80859377 h -0.84375 l 1.640625,4.699218775 z m 3.27832,-4.699218775 h -0.75 v 4.699218775 h 0.75 z m 0,-1.8398437 h -0.761719 v 0.9492187 h 0.761719 z m 4.860352,3.421875 c -0.03516,-0.4570313 -0.128907,-0.75 -0.304688,-1.0195313 -0.328125,-0.4335937 -0.890625,-0.6914062 -1.546875,-0.6914062 -1.265625,0 -2.085937,0.9960937 -2.085937,2.5546875 0,1.52343747 0.808593,2.48437497 2.074218,2.48437497 1.125,0 1.828125,-0.6796875 1.921875,-1.82812497 h -0.75 c -0.128906,0.76171872 -0.515625,1.13671872 -1.148437,1.13671872 -0.832031,0 -1.324219,-0.67968752 -1.324219,-1.79296872 0,-1.171875 0.492188,-1.8632813 1.300781,-1.8632813 0.632813,0 1.019532,0.3632813 1.113282,1.0195313 z m 4.857421,1.0195312 c 0,-0.7148437 -0.04687,-1.1484375 -0.1875,-1.5 -0.304687,-0.7734375 -1.019531,-1.2304687 -1.898437,-1.2304687 -1.300781,0 -2.144531,0.9960937 -2.144531,2.5429687 0,1.54687502 0.808593,2.49609377 2.132812,2.49609377 1.066406,0 1.816406,-0.609375 2.003906,-1.64062497 h -0.75 c -0.210937,0.62109372 -0.632812,0.94921872 -1.230468,0.94921872 -0.480469,0 -0.878907,-0.22265625 -1.125,-0.60937502 -0.1875,-0.2695312 -0.246094,-0.5390625 -0.257813,-1.0078125 z m -3.433593,-0.609375 c 0.05859,-0.8671875 0.585937,-1.4296875 1.335937,-1.4296875 0.738281,0 1.300781,0.609375 1.300781,1.3710938 0,0.023437 0,0.035156 0,0.058594 z m 8.639648,-1.8164062 v 4.523437475 h 0.785156 V -6.3522656 h -0.515625 c -0.28125,0.9726562 -0.457031,1.1015625 -1.675781,1.2539062 v 0.5742188 z m 0,0"
       style="fill:#000000;fill-opacity:1;fill-rule:nonzero;stroke:none"
       aria-label="Device1"
       transform="matrix(1.3333333,0,0,1.3333333,33.753333,14.54)" />
    <path
       id="path22"
       d="M 0.79767187,-7.03125e-4 H 3.3172031 c 1.6523438,0 2.6601563,-1.242187475 2.6601563,-3.269531275 0,-2.0273437 -0.9960938,-3.2695312 -2.6601563,-3.2695312 H 0.79767187 Z M 1.6297031,-0.73898438 V -5.8014844 h 1.546875 c 1.2890625,0 1.96875,0.8671875 1.96875,2.5429688 0,1.640625 -0.6796875,2.51953122 -1.96875,2.51953122 z M 11.066227,-2.0983594 c 0,-0.7148437 -0.04687,-1.1484375 -0.1875,-1.5 -0.304688,-0.7734375 -1.0195317,-1.2304687 -1.8984379,-1.2304687 -1.3007813,0 -2.1445313,0.9960937 -2.1445313,2.5429687 0,1.54687502 0.8085938,2.49609377 2.1328125,2.49609377 1.0664067,0 1.8164067,-0.609375 2.0039067,-1.64062497 h -0.75 c -0.210938,0.62109372 -0.6328129,0.94921872 -1.2304692,0.94921872 -0.4804687,0 -0.8789062,-0.22265625 -1.125,-0.60937502 -0.1875,-0.2695312 -0.2460937,-0.5390625 -0.2578125,-1.0078125 z m -3.4335942,-0.609375 c 0.058594,-0.8671875 0.5859375,-1.4296875 1.3359375,-1.4296875 0.7382813,0 1.3007817,0.609375 1.3007817,1.3710938 0,0.023437 0,0.035156 0,0.058594 z M 13.743961,-7.03125e-4 15.548648,-4.6999219 h -0.84375 L 13.38068,-0.89132813 12.126773,-4.6999219 h -0.84375 l 1.640625,4.699218775 z m 3.27832,-4.699218775 h -0.75 v 4.699218775 h 0.75 z m 0,-1.8398437 h -0.761719 v 0.9492187 h 0.761719 z m 4.860352,3.421875 c -0.03516,-0.4570313 -0.128906,-0.75 -0.304688,-1.0195313 -0.328125,-0.4335937 -0.890625,-0.6914062 -1.546875,-0.6914062 -1.265625,0 -2.085937,0.9960937 -2.085937,2.5546875 0,1.52343747 0.808594,2.48437497 2.074219,2.48437497 1.125,0 1.828125,-0.6796875 1.921875,-1.82812497 h -0.75 c -0.128907,0.76171872 -0.515625,1.13671872 -1.148438,1.13671872 -0.832031,0 -1.324219,-0.67968752 -1.324219,-1.79296872 0,-1.171875 0.492188,-1.8632813 1.300782,-1.8632813 0.632812,0 1.019531,0.3632813 1.113281,1.0195313 z m 4.857422,1.0195312 c 0,-0.7148437 -0.04687,-1.1484375 -0.1875,-1.5 -0.304688,-0.7734375 -1.019532,-1.2304687 -1.898438,-1.2304687 -1.300781,0 -2.144531,0.9960937 -2.144531,2.5429687 0,1.54687502 0.808594,2.49609377 2.132812,2.49609377 1.066407,0 1.816407,-0.609375 2.003907,-1.64062497 h -0.75 c -0.210938,0.62109372 -0.632813,0.94921872 -1.230469,0.94921872 -0.480469,0 -0.878906,-0.22265625 -1.125,-0.60937502 -0.1875,-0.2695312 -0.246094,-0.5390625 -0.257813,-1.0078125 z m -3.433594,-0.609375 c 0.05859,-0.8671875 0.585937,-1.4296875 1.335937,-1.4296875 0.738282,0 1.300782,0.609375 1.300782,1.3710938 0,0.023437 0,0.035156 0,0.058594 z m 10.845703,1.92187502 H 30.81232 c 0.08203,-0.51562502 0.363282,-0.84375002 1.148438,-1.30078122 l 0.890625,-0.4921875 c 0.890625,-0.4804688 1.347656,-1.1367188 1.347656,-1.9101563 0,-0.5273437 -0.210937,-1.0195312 -0.597656,-1.3710937 -0.375,-0.3398438 -0.832031,-0.4921875 -1.441406,-0.4921875 -0.808594,0 -1.40625,0.28125 -1.757813,0.8203125 -0.222656,0.3398437 -0.316406,0.7382812 -0.339844,1.3828125 h 0.796875 c 0.02344,-0.4335938 0.07031,-0.6914063 0.1875,-0.9023438 0.199219,-0.3867187 0.609375,-0.609375 1.089844,-0.609375 0.714844,0 1.253906,0.5039063 1.253906,1.1835938 0,0.5039062 -0.292968,0.9375 -0.855468,1.2539062 l -0.832032,0.46875 c -1.324218,0.75 -1.710937,1.359375 -1.78125,2.753906275 h 4.230469 z m 0,0"
       style="fill:#000000;fill-opacity:1;fill-rule:nonzero;stroke:none"
       aria-label="Device2"
       transform="matrix(1.3333333,0,0,1.3333333,164.788,14.54)" />
    <path
       id="path23"
       d="M 0.79610938,-7.03125e-4 H 3.3156406 c 1.6523438,0 2.6601563,-1.242187475 2.6601563,-3.269531275 0,-2.0273437 -0.9960938,-3.2695312 -2.6601563,-3.2695312 H 0.79610938 Z M 1.6281406,-0.73898438 V -5.8014844 h 1.546875 c 1.2890625,0 1.96875,0.8671875 1.96875,2.5429688 0,1.640625 -0.6796875,2.51953122 -1.96875,2.51953122 z M 11.067594,-2.0983594 c 0,-0.7148437 -0.04687,-1.1484375 -0.1875,-1.5 -0.304688,-0.7734375 -1.0195315,-1.2304687 -1.8984377,-1.2304687 -1.3007813,0 -2.1445313,0.9960937 -2.1445313,2.5429687 0,1.54687502 0.8085938,2.49609377 2.1328125,2.49609377 1.0664065,0 1.8164065,-0.609375 2.0039065,-1.64062497 h -0.75 c -0.210938,0.62109372 -0.6328127,0.94921872 -1.230469,0.94921872 -0.4804687,0 -0.8789062,-0.22265625 -1.125,-0.60937502 -0.1875,-0.2695312 -0.2460937,-0.5390625 -0.2578125,-1.0078125 z M 7.634,-2.7077344 c 0.058594,-0.8671875 0.5859375,-1.4296875 1.3359375,-1.4296875 0.7382813,0 1.3007815,0.609375 1.3007815,1.3710938 0,0.023437 0,0.035156 0,0.058594 z m 6.111328,2.707031275 1.804688,-4.699218775 h -0.84375 l -1.324219,3.80859377 -1.253906,-3.80859377 h -0.84375 l 1.640625,4.699218775 z M 17.020719,-4.6999219 h -0.75 v 4.699218775 h 0.75 z m 0,-1.8398437 H 16.259 v 0.9492187 h 0.761719 z m 4.860351,3.421875 c -0.03516,-0.4570313 -0.128906,-0.75 -0.304687,-1.0195313 -0.328125,-0.4335937 -0.890625,-0.6914062 -1.546875,-0.6914062 -1.265625,0 -2.085938,0.9960937 -2.085938,2.5546875 0,1.52343747 0.808594,2.48437497 2.074219,2.48437497 1.125,0 1.828125,-0.6796875 1.921875,-1.82812497 h -0.75 c -0.128906,0.76171872 -0.515625,1.13671872 -1.148437,1.13671872 -0.832032,0 -1.324219,-0.67968752 -1.324219,-1.79296872 0,-1.171875 0.492187,-1.8632813 1.300781,-1.8632813 0.632813,0 1.019531,0.3632813 1.113281,1.0195313 z m 4.860352,1.0195312 c 0,-0.7148437 -0.04687,-1.1484375 -0.1875,-1.5 -0.304688,-0.7734375 -1.019531,-1.2304687 -1.898438,-1.2304687 -1.300781,0 -2.144531,0.9960937 -2.144531,2.5429687 0,1.54687502 0.808594,2.49609377 2.132813,2.49609377 1.066406,0 1.816406,-0.609375 2.003906,-1.64062497 h -0.75 c -0.210938,0.62109372 -0.632813,0.94921872 -1.230469,0.94921872 -0.480469,0 -0.878906,-0.22265625 -1.125,-0.60937502 -0.1875,-0.2695312 -0.246094,-0.5390625 -0.257812,-1.0078125 z m -3.433594,-0.609375 c 0.05859,-0.8671875 0.585938,-1.4296875 1.335938,-1.4296875 0.738281,0 1.300781,0.609375 1.300781,1.3710938 0,0.023437 0,0.035156 0,0.058594 z m 8.296875,-0.2109375 h 0.433594 c 0.867187,0 1.3125,0.3867188 1.3125,1.1484375 0,0.79687502 -0.492188,1.27734377 -1.3125,1.27734377 -0.867188,0 -1.289063,-0.43359375 -1.335938,-1.35937497 h -0.796875 c 0.04687,0.515625 0.128907,0.84375 0.28125,1.13671872 0.328125,0.609375 0.949219,0.92578125 1.816407,0.92578125 1.3125,0 2.15625,-0.78515625 2.15625,-1.98046877 0,-0.8085937 -0.316407,-1.265625 -1.078125,-1.5234375 0.597656,-0.234375 0.890625,-0.6796875 0.890625,-1.3125 0,-1.1015625 -0.726563,-1.7460937 -1.933594,-1.7460937 -1.289063,0 -1.96875,0.6914062 -1.992188,2.0507812 h 0.785157 c 0.01172,-0.3867187 0.04687,-0.5976562 0.152343,-0.796875 0.175782,-0.3515625 0.5625,-0.5625 1.066407,-0.5625 0.691406,0 1.113281,0.4101563 1.113281,1.078125 0,0.4453125 -0.164063,0.7148438 -0.503906,0.8671875 -0.222657,0.082031 -0.503907,0.1171875 -1.054688,0.1289063 z m 0,0"
       style="fill:#000000;fill-opacity:1;fill-rule:nonzero;stroke:none"
       aria-label="Device3"
       transform="matrix(1.3333333,0,0,1.3333333,295.82133,14.54)" />
    <path
       id="path24"
       d="M 0.79747656,-7.03125e-4 H 3.3170078 c 1.6523438,0 2.6601563,-1.242187475 2.6601563,-3.269531275 0,-2.0273437 -0.9960938,-3.2695312 -2.6601563,-3.2695312 H 0.79747656 Z M 1.6295078,-0.73898438 V -5.8014844 h 1.546875 c 1.2890625,0 1.96875,0.8671875 1.96875,2.5429688 0,1.640625 -0.6796875,2.51953122 -1.96875,2.51953122 z M 11.066031,-2.0983594 c 0,-0.7148437 -0.04687,-1.1484375 -0.1875,-1.5 C 10.573844,-4.3717969 9.859,-4.8288281 8.9800938,-4.8288281 c -1.3007813,0 -2.1445313,0.9960937 -2.1445313,2.5429687 0,1.54687502 0.8085938,2.49609377 2.1328125,2.49609377 1.066406,0 1.816406,-0.609375 2.003906,-1.64062497 h -0.75 c -0.210937,0.62109372 -0.6328122,0.94921872 -1.2304685,0.94921872 -0.4804687,0 -0.8789062,-0.22265625 -1.125,-0.60937502 C 7.6793125,-1.3600781 7.6207188,-1.6296094 7.609,-2.0983594 Z m -3.4335935,-0.609375 c 0.058594,-0.8671875 0.5859375,-1.4296875 1.3359375,-1.4296875 0.7382813,0 1.300781,0.609375 1.300781,1.3710938 0,0.023437 0,0.035156 0,0.058594 z M 13.743766,-7.03125e-4 15.548453,-4.6999219 h -0.84375 l -1.324219,3.80859377 -1.253906,-3.80859377 h -0.84375 l 1.640625,4.699218775 z m 3.27832,-4.699218775 h -0.75 v 4.699218775 h 0.75 z m 0,-1.8398437 h -0.761719 v 0.9492187 h 0.761719 z m 4.860352,3.421875 c -0.03516,-0.4570313 -0.128907,-0.75 -0.304688,-1.0195313 -0.328125,-0.4335937 -0.890625,-0.6914062 -1.546875,-0.6914062 -1.265625,0 -2.085937,0.9960937 -2.085937,2.5546875 0,1.52343747 0.808593,2.48437497 2.074218,2.48437497 1.125,0 1.828125,-0.6796875 1.921875,-1.82812497 h -0.75 c -0.128906,0.76171872 -0.515625,1.13671872 -1.148437,1.13671872 -0.832031,0 -1.324219,-0.67968752 -1.324219,-1.79296872 0,-1.171875 0.492188,-1.8632813 1.300781,-1.8632813 0.632813,0 1.019532,0.3632813 1.113282,1.0195313 z m 4.857421,1.0195312 c 0,-0.7148437 -0.04687,-1.1484375 -0.1875,-1.5 -0.304687,-0.7734375 -1.019531,-1.2304687 -1.898437,-1.2304687 -1.300781,0 -2.144531,0.9960937 -2.144531,2.5429687 0,1.54687502 0.808593,2.49609377 2.132812,2.49609377 1.066406,0 1.816406,-0.609375 2.003906,-1.64062497 h -0.75 c -0.210937,0.62109372 -0.632812,0.94921872 -1.230468,0.94921872 -0.480469,0 -0.878907,-0.22265625 -1.125,-0.60937502 -0.1875,-0.2695312 -0.246094,-0.5390625 -0.257813,-1.0078125 z m -3.433593,-0.609375 c 0.05859,-0.8671875 0.585937,-1.4296875 1.335937,-1.4296875 0.738281,0 1.300781,0.609375 1.300781,1.3710938 0,0.023437 0,0.035156 0,0.058594 z m 9.249023,1.1835938 v 1.523437475 h 0.785156 V -1.5241406 h 0.949219 v -0.703125 h -0.949219 v -4.125 h -0.574218 l -2.894532,3.9960937 v 0.8320313 z m 0,-0.703125 h -1.992187 l 1.992187,-2.7890625 z m 0,0"
       style="fill:#000000;fill-opacity:1;fill-rule:nonzero;stroke:none"
       aria-label="Device4"
       transform="matrix(1.3333333,0,0,1.3333333,426.85467,14.54)" />
    <path
       id="path25"
       d="M 29.29562,0 H 63.7804"
       style="fill:none;stroke:#808080;stroke-width:0.99628;stroke-linecap:butt;stroke-linejoin:miter;stroke-miterlimit:10;stroke-dasharray:none;stroke-opacity:1"
       transform="matrix(1.3333333,0,0,-1.3333333,56.826667,51.774667)" />
    <path
       id="path26"
       d="M 5.20058,0 C 3.65962,0.28891 1.15567,1.15567 -0.57784,2.1669 V -2.1669 C 1.15567,-1.15567 3.65962,-0.28891 5.20058,0"
       style="fill:#808080;fill-opacity:1;fill-rule:nonzero;stroke:none"
       transform="matrix(1.3333333,0,0,-1.3333333,141.8672,51.774667)" />
    <path
       id="path27"
       d="M 127.57224,0 H 162.057"
       style="fill:none;stroke:#808080;stroke-width:0.99628;stroke-linecap:butt;stroke-linejoin:miter;stroke-miterlimit:10;stroke-dasharray:none;stroke-opacity:1"
       transform="matrix(1.3333333,0,0,-1.3333333,56.826667,51.774667)" />
    <path
       id="path28"
       d="M 5.20058,0 C 3.65962,0.28891 1.15567,1.15567 -0.57784,2.1669 V -2.1669 C 1.15567,-1.15567 3.65962,-0.28891 5.20058,0"
       style="fill:#808080;fill-opacity:1;fill-rule:nonzero;stroke:none"
       transform="matrix(1.3333333,0,0,-1.3333333,272.90267,51.774667)" />
    <path
       id="path29"
       d="m 225.84883,0 h 34.48479"
       style="fill:none;stroke:#808080;stroke-width:0.99628;stroke-linecap:butt;stroke-linejoin:miter;stroke-miterlimit:10;stroke-dasharray:none;stroke-opacity:1"
       transform="matrix(1.3333333,0,0,-1.3333333,56.826667,51.774667)" />
    <path
       id="path30"
       d="M 5.20058,0 C 3.65962,0.28891 1.15567,1.15567 -0.57784,2.1669 V -2.1669 C 1.15567,-1.15567 3.65962,-0.28891 5.20058,0"
       style="fill:#808080;fill-opacity:1;fill-rule:nonzero;stroke:none"
       transform="matrix(1.3333333,0,0,-1.3333333,403.93816,51.774667)" />
    <path
       id="path31"
       d="m 282.6226,-14.547 c -19.46958,-23.20256 -62.52574,-26.23118 -75.07008,-4.50377"
       style="fill:none;stroke:#808080;stroke-width:0.99628;stroke-linecap:butt;stroke-linejoin:miter;stroke-miterlimit:10;stroke-dasharray:none;stroke-opacity:1"
       transform="matrix(1.3333333,0,0,-1.3333333,56.826667,51.774667)" />
    <path
       id="path32"
       d="M 5.20058,0 C 3.65962,0.28891 1.15567,1.15567 -0.57784,2.1669 V -2.1669 C 1.15567,-1.15567 3.65962,-0.28891 5.20058,0"
       style="fill:#808080;fill-opacity:1;fill-rule:nonzero;stroke:none"
       transform="matrix(-0.66664,-1.15468,-1.15468,0.66664,333.56339,77.175693)" />
    <path
       id="path33"
       d="m 184.346,-14.547 c -19.4696,-23.20256 -62.52575,-26.23118 -75.07008,-4.50377"
       style="fill:none;stroke:#808080;stroke-width:0.99628;stroke-linecap:butt;stroke-linejoin:miter;stroke-miterlimit:10;stroke-dasharray:none;stroke-opacity:1"
       transform="matrix(1.3333333,0,0,-1.3333333,56.826667,51.774667)" />
    <path
       id="path34"
       d="M 5.20058,0 C 3.65962,0.28891 1.15567,1.15567 -0.57784,2.1669 V -2.1669 C 1.15567,-1.15567 3.65962,-0.28891 5.20058,0"
       style="fill:#808080;fill-opacity:1;fill-rule:nonzero;stroke:none"
       transform="matrix(-0.66664,-1.15468,-1.15468,0.66664,202.52792,77.175693)" />
    <path
       id="path35"
       d="M 86.06938,-14.547 C 66.5998,-37.74956 23.54364,-40.77818 10.99931,-19.05077"
       style="fill:none;stroke:#808080;stroke-width:0.99628;stroke-linecap:butt;stroke-linejoin:miter;stroke-miterlimit:10;stroke-dasharray:none;stroke-opacity:1"
       transform="matrix(1.3333333,0,0,-1.3333333,56.826667,51.774667)" />
    <path
       id="path36"
       d="M 5.20058,0 C 3.65962,0.28891 1.15567,1.15567 -0.57784,2.1669 V -2.1669 C 1.15567,-1.15567 3.65962,-0.28891 5.20058,0"
       style="fill:#808080;fill-opacity:1;fill-rule:nonzero;stroke:none"
       transform="matrix(-0.66664,-1.15468,-1.15468,0.66664,71.49244,77.175693)" />
  </g>
</svg>
