<?xml version="1.0" encoding="utf-8" standalone="no"?>
<!DOCTYPE svg PUBLIC "-//W3C//DTD SVG 1.1//EN"
  "http://www.w3.org/Graphics/SVG/1.1/DTD/svg11.dtd">
<svg xmlns:xlink="http://www.w3.org/1999/xlink" width="532.757812pt" height="244.074531pt" viewBox="0 0 532.757812 244.074531" xmlns="http://www.w3.org/2000/svg" version="1.1" font-family="Helvetica Neue, Helvetica, Arial, sans-serif">
 <metadata>
  <rdf:RDF xmlns:dc="http://purl.org/dc/elements/1.1/" xmlns:cc="http://creativecommons.org/ns#" xmlns:rdf="http://www.w3.org/1999/02/22-rdf-syntax-ns#">
   <cc:Work>
    <dc:type rdf:resource="http://purl.org/dc/dcmitype/StillImage"/>
    <dc:date>2026-04-25T08:42:10.677939</dc:date>
    <dc:format>image/svg+xml</dc:format>
    <dc:creator>
     <cc:Agent>
      <dc:title>Matplotlib v3.10.8, https://matplotlib.org/</dc:title>
     </cc:Agent>
    </dc:creator>
   </cc:Work>
  </rdf:RDF>
 </metadata>
 <defs>
  <style type="text/css">*{stroke-linejoin: round; stroke-linecap: butt}</style>
 </defs>
 <g id="figure_1">
  <g id="patch_1">
   <path d="M 0 244.074531 
L 532.757812 244.074531 
L 532.757812 0 
L 0 0 
z
" style="fill: #ffffff"/>
  </g>
  <g id="axes_1">
   <g id="patch_2">
    <path d="M 51.292813 206.518281 
L 525.557813 206.518281 
L 525.557813 21.558281 
L 51.292813 21.558281 
z
" style="fill: #ffffff"/>
   </g>
   <g id="patch_3">
    <path d="M 51.292813 90.061985 
L 84.000744 90.061985 
L 84.000744 62.660503 
L 51.292813 62.660503 
z
" clip-path="url(#p9fa2d807e8)" style="fill: #cfe2f3; stroke: #4a90c4; stroke-width: 0.8; stroke-linejoin: miter"/>
   </g>
   <g id="patch_4">
    <path d="M 84.000744 90.061985 
L 116.708675 90.061985 
L 116.708675 62.660503 
L 84.000744 62.660503 
z
" clip-path="url(#p9fa2d807e8)" style="fill: #cfe2f3; stroke: #4a90c4; stroke-width: 0.8; stroke-linejoin: miter"/>
   </g>
   <g id="patch_5">
    <path d="M 116.708675 90.061985 
L 149.416606 90.061985 
L 149.416606 62.660503 
L 116.708675 62.660503 
z
" clip-path="url(#p9fa2d807e8)" style="fill: #cfe2f3; stroke: #4a90c4; stroke-width: 0.8; stroke-linejoin: miter"/>
   </g>
   <g id="patch_6">
    <path d="M 149.416606 90.061985 
L 182.124537 90.061985 
L 182.124537 62.660503 
L 149.416606 62.660503 
z
" clip-path="url(#p9fa2d807e8)" style="fill: #cfe2f3; stroke: #4a90c4; stroke-width: 0.8; stroke-linejoin: miter"/>
   </g>
   <g id="patch_7">
    <path d="M 84.000744 124.313837 
L 116.708675 124.313837 
L 116.708675 96.912355 
L 84.000744 96.912355 
z
" clip-path="url(#p9fa2d807e8)" style="fill: #cfe2f3; stroke: #4a90c4; stroke-width: 0.8; stroke-linejoin: miter"/>
   </g>
   <g id="patch_8">
    <path d="M 116.708675 124.313837 
L 149.416606 124.313837 
L 149.416606 96.912355 
L 116.708675 96.912355 
z
" clip-path="url(#p9fa2d807e8)" style="fill: #cfe2f3; stroke: #4a90c4; stroke-width: 0.8; stroke-linejoin: miter"/>
   </g>
   <g id="patch_9">
    <path d="M 149.416606 124.313837 
L 182.124537 124.313837 
L 182.124537 96.912355 
L 149.416606 96.912355 
z
" clip-path="url(#p9fa2d807e8)" style="fill: #cfe2f3; stroke: #4a90c4; stroke-width: 0.8; stroke-linejoin: miter"/>
   </g>
   <g id="patch_10">
    <path d="M 182.124537 124.313837 
L 214.832468 124.313837 
L 214.832468 96.912355 
L 182.124537 96.912355 
z
" clip-path="url(#p9fa2d807e8)" style="fill: #cfe2f3; stroke: #4a90c4; stroke-width: 0.8; stroke-linejoin: miter"/>
   </g>
   <g id="patch_11">
    <path d="M 116.708675 158.565689 
L 149.416606 158.565689 
L 149.416606 131.164207 
L 116.708675 131.164207 
z
" clip-path="url(#p9fa2d807e8)" style="fill: #cfe2f3; stroke: #4a90c4; stroke-width: 0.8; stroke-linejoin: miter"/>
   </g>
   <g id="patch_12">
    <path d="M 149.416606 158.565689 
L 182.124537 158.565689 
L 182.124537 131.164207 
L 149.416606 131.164207 
z
" clip-path="url(#p9fa2d807e8)" style="fill: #cfe2f3; stroke: #4a90c4; stroke-width: 0.8; stroke-linejoin: miter"/>
   </g>
   <g id="patch_13">
    <path d="M 182.124537 158.565689 
L 214.832468 158.565689 
L 214.832468 131.164207 
L 182.124537 131.164207 
z
" clip-path="url(#p9fa2d807e8)" style="fill: #cfe2f3; stroke: #4a90c4; stroke-width: 0.8; stroke-linejoin: miter"/>
   </g>
   <g id="patch_14">
    <path d="M 214.832468 158.565689 
L 247.540399 158.565689 
L 247.540399 131.164207 
L 214.832468 131.164207 
z
" clip-path="url(#p9fa2d807e8)" style="fill: #cfe2f3; stroke: #4a90c4; stroke-width: 0.8; stroke-linejoin: miter"/>
   </g>
   <g id="patch_15">
    <path d="M 149.416606 192.817541 
L 182.124537 192.817541 
L 182.124537 165.416059 
L 149.416606 165.416059 
z
" clip-path="url(#p9fa2d807e8)" style="fill: #cfe2f3; stroke: #4a90c4; stroke-width: 0.8; stroke-linejoin: miter"/>
   </g>
   <g id="patch_16">
    <path d="M 182.124537 192.817541 
L 214.832468 192.817541 
L 214.832468 165.416059 
L 182.124537 165.416059 
z
" clip-path="url(#p9fa2d807e8)" style="fill: #cfe2f3; stroke: #4a90c4; stroke-width: 0.8; stroke-linejoin: miter"/>
   </g>
   <g id="patch_17">
    <path d="M 214.832468 192.817541 
L 247.540399 192.817541 
L 247.540399 165.416059 
L 214.832468 165.416059 
z
" clip-path="url(#p9fa2d807e8)" style="fill: #cfe2f3; stroke: #4a90c4; stroke-width: 0.8; stroke-linejoin: miter"/>
   </g>
   <g id="patch_18">
    <path d="M 247.540399 192.817541 
L 280.24833 192.817541 
L 280.24833 165.416059 
L 247.540399 165.416059 
z
" clip-path="url(#p9fa2d807e8)" style="fill: #cfe2f3; stroke: #4a90c4; stroke-width: 0.8; stroke-linejoin: miter"/>
   </g>
   <g id="patch_19">
    <path d="M 280.24833 192.817541 
L 312.956261 192.817541 
L 312.956261 165.416059 
L 280.24833 165.416059 
z
" clip-path="url(#p9fa2d807e8)" style="fill: #d4edda; stroke: #3d9e5a; stroke-width: 0.8; stroke-linejoin: miter"/>
   </g>
   <g id="patch_20">
    <path d="M 312.956261 192.817541 
L 345.664192 192.817541 
L 345.664192 165.416059 
L 312.956261 165.416059 
z
" clip-path="url(#p9fa2d807e8)" style="fill: #d4edda; stroke: #3d9e5a; stroke-width: 0.8; stroke-linejoin: miter"/>
   </g>
   <g id="patch_21">
    <path d="M 345.664192 192.817541 
L 378.372123 192.817541 
L 378.372123 165.416059 
L 345.664192 165.416059 
z
" clip-path="url(#p9fa2d807e8)" style="fill: #d4edda; stroke: #3d9e5a; stroke-width: 0.8; stroke-linejoin: miter"/>
   </g>
   <g id="patch_22">
    <path d="M 378.372123 192.817541 
L 411.080054 192.817541 
L 411.080054 165.416059 
L 378.372123 165.416059 
z
" clip-path="url(#p9fa2d807e8)" style="fill: #d4edda; stroke: #3d9e5a; stroke-width: 0.8; stroke-linejoin: miter"/>
   </g>
   <g id="patch_23">
    <path d="M 312.956261 158.565689 
L 345.664192 158.565689 
L 345.664192 131.164207 
L 312.956261 131.164207 
z
" clip-path="url(#p9fa2d807e8)" style="fill: #d4edda; stroke: #3d9e5a; stroke-width: 0.8; stroke-linejoin: miter"/>
   </g>
   <g id="patch_24">
    <path d="M 345.664192 158.565689 
L 378.372123 158.565689 
L 378.372123 131.164207 
L 345.664192 131.164207 
z
" clip-path="url(#p9fa2d807e8)" style="fill: #d4edda; stroke: #3d9e5a; stroke-width: 0.8; stroke-linejoin: miter"/>
   </g>
   <g id="patch_25">
    <path d="M 378.372123 158.565689 
L 411.080054 158.565689 
L 411.080054 131.164207 
L 378.372123 131.164207 
z
" clip-path="url(#p9fa2d807e8)" style="fill: #d4edda; stroke: #3d9e5a; stroke-width: 0.8; stroke-linejoin: miter"/>
   </g>
   <g id="patch_26">
    <path d="M 411.080054 158.565689 
L 443.787985 158.565689 
L 443.787985 131.164207 
L 411.080054 131.164207 
z
" clip-path="url(#p9fa2d807e8)" style="fill: #d4edda; stroke: #3d9e5a; stroke-width: 0.8; stroke-linejoin: miter"/>
   </g>
   <g id="patch_27">
    <path d="M 345.664192 124.313837 
L 378.372123 124.313837 
L 378.372123 96.912355 
L 345.664192 96.912355 
z
" clip-path="url(#p9fa2d807e8)" style="fill: #d4edda; stroke: #3d9e5a; stroke-width: 0.8; stroke-linejoin: miter"/>
   </g>
   <g id="patch_28">
    <path d="M 378.372123 124.313837 
L 411.080054 124.313837 
L 411.080054 96.912355 
L 378.372123 96.912355 
z
" clip-path="url(#p9fa2d807e8)" style="fill: #d4edda; stroke: #3d9e5a; stroke-width: 0.8; stroke-linejoin: miter"/>
   </g>
   <g id="patch_29">
    <path d="M 411.080054 124.313837 
L 443.787985 124.313837 
L 443.787985 96.912355 
L 411.080054 96.912355 
z
" clip-path="url(#p9fa2d807e8)" style="fill: #d4edda; stroke: #3d9e5a; stroke-width: 0.8; stroke-linejoin: miter"/>
   </g>
   <g id="patch_30">
    <path d="M 443.787985 124.313837 
L 476.495916 124.313837 
L 476.495916 96.912355 
L 443.787985 96.912355 
z
" clip-path="url(#p9fa2d807e8)" style="fill: #d4edda; stroke: #3d9e5a; stroke-width: 0.8; stroke-linejoin: miter"/>
   </g>
   <g id="patch_31">
    <path d="M 378.372123 90.061985 
L 411.080054 90.061985 
L 411.080054 62.660503 
L 378.372123 62.660503 
z
" clip-path="url(#p9fa2d807e8)" style="fill: #d4edda; stroke: #3d9e5a; stroke-width: 0.8; stroke-linejoin: miter"/>
   </g>
   <g id="patch_32">
    <path d="M 411.080054 90.061985 
L 443.787985 90.061985 
L 443.787985 62.660503 
L 411.080054 62.660503 
z
" clip-path="url(#p9fa2d807e8)" style="fill: #d4edda; stroke: #3d9e5a; stroke-width: 0.8; stroke-linejoin: miter"/>
   </g>
   <g id="patch_33">
    <path d="M 443.787985 90.061985 
L 476.495916 90.061985 
L 476.495916 62.660503 
L 443.787985 62.660503 
z
" clip-path="url(#p9fa2d807e8)" style="fill: #d4edda; stroke: #3d9e5a; stroke-width: 0.8; stroke-linejoin: miter"/>
   </g>
   <g id="patch_34">
    <path d="M 476.495916 90.061985 
L 509.203847 90.061985 
L 509.203847 62.660503 
L 476.495916 62.660503 
z
" clip-path="url(#p9fa2d807e8)" style="fill: #d4edda; stroke: #3d9e5a; stroke-width: 0.8; stroke-linejoin: miter"/>
   </g>
   <g id="patch_35">
    <path d="M 51.292813 124.313837 
L 84.000744 124.313837 
L 84.000744 96.912355 
L 51.292813 96.912355 
z
" clip-path="url(#p9fa2d807e8)" style="fill: #f9d6d5; opacity: 0.4"/>
   </g>
   <g id="patch_36">
    <path d="M 51.292813 158.565689 
L 116.708675 158.565689 
L 116.708675 131.164207 
L 51.292813 131.164207 
z
" clip-path="url(#p9fa2d807e8)" style="fill: #f9d6d5; opacity: 0.4"/>
   </g>
   <g id="patch_37">
    <path d="M 51.292813 192.817541 
L 149.416606 192.817541 
L 149.416606 165.416059 
L 51.292813 165.416059 
z
" clip-path="url(#p9fa2d807e8)" style="fill: #f9d6d5; opacity: 0.4"/>
   </g>
   <g id="patch_38">
    <path d="M 476.495916 124.313837 
L 509.203847 124.313837 
L 509.203847 96.912355 
L 476.495916 96.912355 
z
" clip-path="url(#p9fa2d807e8)" style="fill: #f9d6d5; opacity: 0.4"/>
   </g>
   <g id="patch_39">
    <path d="M 443.787985 158.565689 
L 509.203847 158.565689 
L 509.203847 131.164207 
L 443.787985 131.164207 
z
" clip-path="url(#p9fa2d807e8)" style="fill: #f9d6d5; opacity: 0.4"/>
   </g>
   <g id="patch_40">
    <path d="M 411.080054 192.817541 
L 509.203847 192.817541 
L 509.203847 165.416059 
L 411.080054 165.416059 
z
" clip-path="url(#p9fa2d807e8)" style="fill: #f9d6d5; opacity: 0.4"/>
   </g>
   <g id="matplotlib.axis_1">
    <g id="xtick_1">
     <g id="line2d_1">
      <defs>
       <path id="m5a0222a60b" d="M 0 0 
L 0 3.5 
" style="stroke: #000000; stroke-width: 0.8"/>
      </defs>
      <g>
       <use xlink:href="#m5a0222a60b" x="51.292813" y="206.518281" style="stroke: #000000; stroke-width: 0.8"/>
      </g>
     </g>
     <g id="text_1">
      <!-- 0 -->
      <g transform="translate(48.111563 221.116719) scale(0.1 -0.1)">
       <defs>
        <path id="DejaVuSans-30" d="M 2034 4250 
Q 1547 4250 1301 3770 
Q 1056 3291 1056 2328 
Q 1056 1369 1301 889 
Q 1547 409 2034 409 
Q 2525 409 2770 889 
Q 3016 1369 3016 2328 
Q 3016 3291 2770 3770 
Q 2525 4250 2034 4250 
z
M 2034 4750 
Q 2819 4750 3233 4129 
Q 3647 3509 3647 2328 
Q 3647 1150 3233 529 
Q 2819 -91 2034 -91 
Q 1250 -91 836 529 
Q 422 1150 422 2328 
Q 422 3509 836 4129 
Q 1250 4750 2034 4750 
z
" transform="scale(0.015625)"/>
       </defs>
       <use xlink:href="#DejaVuSans-30"/>
      </g>
     </g>
    </g>
    <g id="xtick_2">
     <g id="line2d_2">
      <g>
       <use xlink:href="#m5a0222a60b" x="116.708675" y="206.518281" style="stroke: #000000; stroke-width: 0.8"/>
      </g>
     </g>
     <g id="text_2">
      <!-- 2 -->
      <g transform="translate(113.527425 221.116719) scale(0.1 -0.1)">
       <defs>
        <path id="DejaVuSans-32" d="M 1228 531 
L 3431 531 
L 3431 0 
L 469 0 
L 469 531 
Q 828 903 1448 1529 
Q 2069 2156 2228 2338 
Q 2531 2678 2651 2914 
Q 2772 3150 2772 3378 
Q 2772 3750 2511 3984 
Q 2250 4219 1831 4219 
Q 1534 4219 1204 4116 
Q 875 4013 500 3803 
L 500 4441 
Q 881 4594 1212 4672 
Q 1544 4750 1819 4750 
Q 2544 4750 2975 4387 
Q 3406 4025 3406 3419 
Q 3406 3131 3298 2873 
Q 3191 2616 2906 2266 
Q 2828 2175 2409 1742 
Q 1991 1309 1228 531 
z
" transform="scale(0.015625)"/>
       </defs>
       <use xlink:href="#DejaVuSans-32"/>
      </g>
     </g>
    </g>
    <g id="xtick_3">
     <g id="line2d_3">
      <g>
       <use xlink:href="#m5a0222a60b" x="182.124537" y="206.518281" style="stroke: #000000; stroke-width: 0.8"/>
      </g>
     </g>
     <g id="text_3">
      <!-- 4 -->
      <g transform="translate(178.943287 221.116719) scale(0.1 -0.1)">
       <defs>
        <path id="DejaVuSans-34" d="M 2419 4116 
L 825 1625 
L 2419 1625 
L 2419 4116 
z
M 2253 4666 
L 3047 4666 
L 3047 1625 
L 3713 1625 
L 3713 1100 
L 3047 1100 
L 3047 0 
L 2419 0 
L 2419 1100 
L 313 1100 
L 313 1709 
L 2253 4666 
z
" transform="scale(0.015625)"/>
       </defs>
       <use xlink:href="#DejaVuSans-34"/>
      </g>
     </g>
    </g>
    <g id="xtick_4">
     <g id="line2d_4">
      <g>
       <use xlink:href="#m5a0222a60b" x="247.540399" y="206.518281" style="stroke: #000000; stroke-width: 0.8"/>
      </g>
     </g>
     <g id="text_4">
      <!-- 6 -->
      <g transform="translate(244.359149 221.116719) scale(0.1 -0.1)">
       <defs>
        <path id="DejaVuSans-36" d="M 2113 2584 
Q 1688 2584 1439 2293 
Q 1191 2003 1191 1497 
Q 1191 994 1439 701 
Q 1688 409 2113 409 
Q 2538 409 2786 701 
Q 3034 994 3034 1497 
Q 3034 2003 2786 2293 
Q 2538 2584 2113 2584 
z
M 3366 4563 
L 3366 3988 
Q 3128 4100 2886 4159 
Q 2644 4219 2406 4219 
Q 1781 4219 1451 3797 
Q 1122 3375 1075 2522 
Q 1259 2794 1537 2939 
Q 1816 3084 2150 3084 
Q 2853 3084 3261 2657 
Q 3669 2231 3669 1497 
Q 3669 778 3244 343 
Q 2819 -91 2113 -91 
Q 1303 -91 875 529 
Q 447 1150 447 2328 
Q 447 3434 972 4092 
Q 1497 4750 2381 4750 
Q 2619 4750 2861 4703 
Q 3103 4656 3366 4563 
z
" transform="scale(0.015625)"/>
       </defs>
       <use xlink:href="#DejaVuSans-36"/>
      </g>
     </g>
    </g>
    <g id="xtick_5">
     <g id="line2d_5">
      <g>
       <use xlink:href="#m5a0222a60b" x="312.956261" y="206.518281" style="stroke: #000000; stroke-width: 0.8"/>
      </g>
     </g>
     <g id="text_5">
      <!-- 8 -->
      <g transform="translate(309.775011 221.116719) scale(0.1 -0.1)">
       <defs>
        <path id="DejaVuSans-38" d="M 2034 2216 
Q 1584 2216 1326 1975 
Q 1069 1734 1069 1313 
Q 1069 891 1326 650 
Q 1584 409 2034 409 
Q 2484 409 2743 651 
Q 3003 894 3003 1313 
Q 3003 1734 2745 1975 
Q 2488 2216 2034 2216 
z
M 1403 2484 
Q 997 2584 770 2862 
Q 544 3141 544 3541 
Q 544 4100 942 4425 
Q 1341 4750 2034 4750 
Q 2731 4750 3128 4425 
Q 3525 4100 3525 3541 
Q 3525 3141 3298 2862 
Q 3072 2584 2669 2484 
Q 3125 2378 3379 2068 
Q 3634 1759 3634 1313 
Q 3634 634 3220 271 
Q 2806 -91 2034 -91 
Q 1263 -91 848 271 
Q 434 634 434 1313 
Q 434 1759 690 2068 
Q 947 2378 1403 2484 
z
M 1172 3481 
Q 1172 3119 1398 2916 
Q 1625 2713 2034 2713 
Q 2441 2713 2670 2916 
Q 2900 3119 2900 3481 
Q 2900 3844 2670 4047 
Q 2441 4250 2034 4250 
Q 1625 4250 1398 4047 
Q 1172 3844 1172 3481 
z
" transform="scale(0.015625)"/>
       </defs>
       <use xlink:href="#DejaVuSans-38"/>
      </g>
     </g>
    </g>
    <g id="xtick_6">
     <g id="line2d_6">
      <g>
       <use xlink:href="#m5a0222a60b" x="378.372123" y="206.518281" style="stroke: #000000; stroke-width: 0.8"/>
      </g>
     </g>
     <g id="text_6">
      <!-- 10 -->
      <g transform="translate(372.009623 221.116719) scale(0.1 -0.1)">
       <defs>
        <path id="DejaVuSans-31" d="M 794 531 
L 1825 531 
L 1825 4091 
L 703 3866 
L 703 4441 
L 1819 4666 
L 2450 4666 
L 2450 531 
L 3481 531 
L 3481 0 
L 794 0 
L 794 531 
z
" transform="scale(0.015625)"/>
       </defs>
       <use xlink:href="#DejaVuSans-31"/>
       <use xlink:href="#DejaVuSans-30" transform="translate(63.623047 0)"/>
      </g>
     </g>
    </g>
    <g id="xtick_7">
     <g id="line2d_7">
      <g>
       <use xlink:href="#m5a0222a60b" x="443.787985" y="206.518281" style="stroke: #000000; stroke-width: 0.8"/>
      </g>
     </g>
     <g id="text_7">
      <!-- 12 -->
      <g transform="translate(437.425485 221.116719) scale(0.1 -0.1)">
       <use xlink:href="#DejaVuSans-31"/>
       <use xlink:href="#DejaVuSans-32" transform="translate(63.623047 0)"/>
      </g>
     </g>
    </g>
    <g id="xtick_8">
     <g id="line2d_8">
      <g>
       <use xlink:href="#m5a0222a60b" x="509.203847" y="206.518281" style="stroke: #000000; stroke-width: 0.8"/>
      </g>
     </g>
     <g id="text_8">
      <!-- 14 -->
      <g transform="translate(502.841347 221.116719) scale(0.1 -0.1)">
       <use xlink:href="#DejaVuSans-31"/>
       <use xlink:href="#DejaVuSans-34" transform="translate(63.623047 0)"/>
      </g>
     </g>
    </g>
    <g id="text_9">
     <!-- Time (units) -->
     <g transform="translate(258.409688 234.794844) scale(0.1 -0.1)">
      <defs>
       <path id="DejaVuSans-54" d="M -19 4666 
L 3928 4666 
L 3928 4134 
L 2272 4134 
L 2272 0 
L 1638 0 
L 1638 4134 
L -19 4134 
L -19 4666 
z
" transform="scale(0.015625)"/>
       <path id="DejaVuSans-69" d="M 603 3500 
L 1178 3500 
L 1178 0 
L 603 0 
L 603 3500 
z
M 603 4863 
L 1178 4863 
L 1178 4134 
L 603 4134 
L 603 4863 
z
" transform="scale(0.015625)"/>
       <path id="DejaVuSans-6d" d="M 3328 2828 
Q 3544 3216 3844 3400 
Q 4144 3584 4550 3584 
Q 5097 3584 5394 3201 
Q 5691 2819 5691 2113 
L 5691 0 
L 5113 0 
L 5113 2094 
Q 5113 2597 4934 2840 
Q 4756 3084 4391 3084 
Q 3944 3084 3684 2787 
Q 3425 2491 3425 1978 
L 3425 0 
L 2847 0 
L 2847 2094 
Q 2847 2600 2669 2842 
Q 2491 3084 2119 3084 
Q 1678 3084 1418 2786 
Q 1159 2488 1159 1978 
L 1159 0 
L 581 0 
L 581 3500 
L 1159 3500 
L 1159 2956 
Q 1356 3278 1631 3431 
Q 1906 3584 2284 3584 
Q 2666 3584 2933 3390 
Q 3200 3197 3328 2828 
z
" transform="scale(0.015625)"/>
       <path id="DejaVuSans-65" d="M 3597 1894 
L 3597 1613 
L 953 1613 
Q 991 1019 1311 708 
Q 1631 397 2203 397 
Q 2534 397 2845 478 
Q 3156 559 3463 722 
L 3463 178 
Q 3153 47 2828 -22 
Q 2503 -91 2169 -91 
Q 1331 -91 842 396 
Q 353 884 353 1716 
Q 353 2575 817 3079 
Q 1281 3584 2069 3584 
Q 2775 3584 3186 3129 
Q 3597 2675 3597 1894 
z
M 3022 2063 
Q 3016 2534 2758 2815 
Q 2500 3097 2075 3097 
Q 1594 3097 1305 2825 
Q 1016 2553 972 2059 
L 3022 2063 
z
" transform="scale(0.015625)"/>
       <path id="DejaVuSans-20" transform="scale(0.015625)"/>
       <path id="DejaVuSans-28" d="M 1984 4856 
Q 1566 4138 1362 3434 
Q 1159 2731 1159 2009 
Q 1159 1288 1364 580 
Q 1569 -128 1984 -844 
L 1484 -844 
Q 1016 -109 783 600 
Q 550 1309 550 2009 
Q 550 2706 781 3412 
Q 1013 4119 1484 4856 
L 1984 4856 
z
" transform="scale(0.015625)"/>
       <path id="DejaVuSans-75" d="M 544 1381 
L 544 3500 
L 1119 3500 
L 1119 1403 
Q 1119 906 1312 657 
Q 1506 409 1894 409 
Q 2359 409 2629 706 
Q 2900 1003 2900 1516 
L 2900 3500 
L 3475 3500 
L 3475 0 
L 2900 0 
L 2900 538 
Q 2691 219 2414 64 
Q 2138 -91 1772 -91 
Q 1169 -91 856 284 
Q 544 659 544 1381 
z
M 1991 3584 
L 1991 3584 
z
" transform="scale(0.015625)"/>
       <path id="DejaVuSans-6e" d="M 3513 2113 
L 3513 0 
L 2938 0 
L 2938 2094 
Q 2938 2591 2744 2837 
Q 2550 3084 2163 3084 
Q 1697 3084 1428 2787 
Q 1159 2491 1159 1978 
L 1159 0 
L 581 0 
L 581 3500 
L 1159 3500 
L 1159 2956 
Q 1366 3272 1645 3428 
Q 1925 3584 2291 3584 
Q 2894 3584 3203 3211 
Q 3513 2838 3513 2113 
z
" transform="scale(0.015625)"/>
       <path id="DejaVuSans-74" d="M 1172 4494 
L 1172 3500 
L 2356 3500 
L 2356 3053 
L 1172 3053 
L 1172 1153 
Q 1172 725 1289 603 
Q 1406 481 1766 481 
L 2356 481 
L 2356 0 
L 1766 0 
Q 1100 0 847 248 
Q 594 497 594 1153 
L 594 3053 
L 172 3053 
L 172 3500 
L 594 3500 
L 594 4494 
L 1172 4494 
z
" transform="scale(0.015625)"/>
       <path id="DejaVuSans-73" d="M 2834 3397 
L 2834 2853 
Q 2591 2978 2328 3040 
Q 2066 3103 1784 3103 
Q 1356 3103 1142 2972 
Q 928 2841 928 2578 
Q 928 2378 1081 2264 
Q 1234 2150 1697 2047 
L 1894 2003 
Q 2506 1872 2764 1633 
Q 3022 1394 3022 966 
Q 3022 478 2636 193 
Q 2250 -91 1575 -91 
Q 1294 -91 989 -36 
Q 684 19 347 128 
L 347 722 
Q 666 556 975 473 
Q 1284 391 1588 391 
Q 1994 391 2212 530 
Q 2431 669 2431 922 
Q 2431 1156 2273 1281 
Q 2116 1406 1581 1522 
L 1381 1569 
Q 847 1681 609 1914 
Q 372 2147 372 2553 
Q 372 3047 722 3315 
Q 1072 3584 1716 3584 
Q 2034 3584 2315 3537 
Q 2597 3491 2834 3397 
z
" transform="scale(0.015625)"/>
       <path id="DejaVuSans-29" d="M 513 4856 
L 1013 4856 
Q 1481 4119 1714 3412 
Q 1947 2706 1947 2009 
Q 1947 1309 1714 600 
Q 1481 -109 1013 -844 
L 513 -844 
Q 928 -128 1133 580 
Q 1338 1288 1338 2009 
Q 1338 2731 1133 3434 
Q 928 4138 513 4856 
z
" transform="scale(0.015625)"/>
      </defs>
      <use xlink:href="#DejaVuSans-54"/>
      <use xlink:href="#DejaVuSans-69" transform="translate(57.958984 0)"/>
      <use xlink:href="#DejaVuSans-6d" transform="translate(85.742188 0)"/>
      <use xlink:href="#DejaVuSans-65" transform="translate(183.154297 0)"/>
      <use xlink:href="#DejaVuSans-20" transform="translate(244.677734 0)"/>
      <use xlink:href="#DejaVuSans-28" transform="translate(276.464844 0)"/>
      <use xlink:href="#DejaVuSans-75" transform="translate(315.478516 0)"/>
      <use xlink:href="#DejaVuSans-6e" transform="translate(378.857422 0)"/>
      <use xlink:href="#DejaVuSans-69" transform="translate(442.236328 0)"/>
      <use xlink:href="#DejaVuSans-74" transform="translate(470.019531 0)"/>
      <use xlink:href="#DejaVuSans-73" transform="translate(509.228516 0)"/>
      <use xlink:href="#DejaVuSans-29" transform="translate(561.328125 0)"/>
     </g>
    </g>
   </g>
   <g id="matplotlib.axis_2">
    <g id="ytick_1">
     <g id="line2d_9"/>
     <g id="text_10">
      <!-- GPU 0 -->
      <g transform="translate(20.219063 75.425385) scale(0.09 -0.09)">
       <defs>
        <path id="DejaVuSans-47" d="M 3809 666 
L 3809 1919 
L 2778 1919 
L 2778 2438 
L 4434 2438 
L 4434 434 
Q 4069 175 3628 42 
Q 3188 -91 2688 -91 
Q 1594 -91 976 548 
Q 359 1188 359 2328 
Q 359 3472 976 4111 
Q 1594 4750 2688 4750 
Q 3144 4750 3555 4637 
Q 3966 4525 4313 4306 
L 4313 3634 
Q 3963 3931 3569 4081 
Q 3175 4231 2741 4231 
Q 1884 4231 1454 3753 
Q 1025 3275 1025 2328 
Q 1025 1384 1454 906 
Q 1884 428 2741 428 
Q 3075 428 3337 486 
Q 3600 544 3809 666 
z
" transform="scale(0.015625)"/>
        <path id="DejaVuSans-50" d="M 1259 4147 
L 1259 2394 
L 2053 2394 
Q 2494 2394 2734 2622 
Q 2975 2850 2975 3272 
Q 2975 3691 2734 3919 
Q 2494 4147 2053 4147 
L 1259 4147 
z
M 628 4666 
L 2053 4666 
Q 2838 4666 3239 4311 
Q 3641 3956 3641 3272 
Q 3641 2581 3239 2228 
Q 2838 1875 2053 1875 
L 1259 1875 
L 1259 0 
L 628 0 
L 628 4666 
z
" transform="scale(0.015625)"/>
        <path id="DejaVuSans-55" d="M 556 4666 
L 1191 4666 
L 1191 1831 
Q 1191 1081 1462 751 
Q 1734 422 2344 422 
Q 2950 422 3222 751 
Q 3494 1081 3494 1831 
L 3494 4666 
L 4128 4666 
L 4128 1753 
Q 4128 841 3676 375 
Q 3225 -91 2344 -91 
Q 1459 -91 1007 375 
Q 556 841 556 1753 
L 556 4666 
z
" transform="scale(0.015625)"/>
       </defs>
       <use xlink:href="#DejaVuSans-47"/>
       <use xlink:href="#DejaVuSans-50" transform="translate(77.490234 0)"/>
       <use xlink:href="#DejaVuSans-55" transform="translate(137.792969 0)"/>
       <use xlink:href="#DejaVuSans-20" transform="translate(210.986328 0)"/>
       <use xlink:href="#DejaVuSans-30" transform="translate(242.773438 0)"/>
      </g>
      <!-- (stage 0) -->
      <g transform="translate(7.2 85.503416) scale(0.09 -0.09)">
       <defs>
        <path id="DejaVuSans-61" d="M 2194 1759 
Q 1497 1759 1228 1600 
Q 959 1441 959 1056 
Q 959 750 1161 570 
Q 1363 391 1709 391 
Q 2188 391 2477 730 
Q 2766 1069 2766 1631 
L 2766 1759 
L 2194 1759 
z
M 3341 1997 
L 3341 0 
L 2766 0 
L 2766 531 
Q 2569 213 2275 61 
Q 1981 -91 1556 -91 
Q 1019 -91 701 211 
Q 384 513 384 1019 
Q 384 1609 779 1909 
Q 1175 2209 1959 2209 
L 2766 2209 
L 2766 2266 
Q 2766 2663 2505 2880 
Q 2244 3097 1772 3097 
Q 1472 3097 1187 3025 
Q 903 2953 641 2809 
L 641 3341 
Q 956 3463 1253 3523 
Q 1550 3584 1831 3584 
Q 2591 3584 2966 3190 
Q 3341 2797 3341 1997 
z
" transform="scale(0.015625)"/>
        <path id="DejaVuSans-67" d="M 2906 1791 
Q 2906 2416 2648 2759 
Q 2391 3103 1925 3103 
Q 1463 3103 1205 2759 
Q 947 2416 947 1791 
Q 947 1169 1205 825 
Q 1463 481 1925 481 
Q 2391 481 2648 825 
Q 2906 1169 2906 1791 
z
M 3481 434 
Q 3481 -459 3084 -895 
Q 2688 -1331 1869 -1331 
Q 1566 -1331 1297 -1286 
Q 1028 -1241 775 -1147 
L 775 -588 
Q 1028 -725 1275 -790 
Q 1522 -856 1778 -856 
Q 2344 -856 2625 -561 
Q 2906 -266 2906 331 
L 2906 616 
Q 2728 306 2450 153 
Q 2172 0 1784 0 
Q 1141 0 747 490 
Q 353 981 353 1791 
Q 353 2603 747 3093 
Q 1141 3584 1784 3584 
Q 2172 3584 2450 3431 
Q 2728 3278 2906 2969 
L 2906 3500 
L 3481 3500 
L 3481 434 
z
" transform="scale(0.015625)"/>
       </defs>
       <use xlink:href="#DejaVuSans-28"/>
       <use xlink:href="#DejaVuSans-73" transform="translate(39.013672 0)"/>
       <use xlink:href="#DejaVuSans-74" transform="translate(91.113281 0)"/>
       <use xlink:href="#DejaVuSans-61" transform="translate(130.322266 0)"/>
       <use xlink:href="#DejaVuSans-67" transform="translate(191.601562 0)"/>
       <use xlink:href="#DejaVuSans-65" transform="translate(255.078125 0)"/>
       <use xlink:href="#DejaVuSans-20" transform="translate(316.601562 0)"/>
       <use xlink:href="#DejaVuSans-30" transform="translate(348.388672 0)"/>
       <use xlink:href="#DejaVuSans-29" transform="translate(412.011719 0)"/>
      </g>
     </g>
    </g>
    <g id="ytick_2">
     <g id="line2d_10"/>
     <g id="text_11">
      <!-- GPU 1 -->
      <g transform="translate(20.219063 109.677237) scale(0.09 -0.09)">
       <use xlink:href="#DejaVuSans-47"/>
       <use xlink:href="#DejaVuSans-50" transform="translate(77.490234 0)"/>
       <use xlink:href="#DejaVuSans-55" transform="translate(137.792969 0)"/>
       <use xlink:href="#DejaVuSans-20" transform="translate(210.986328 0)"/>
       <use xlink:href="#DejaVuSans-31" transform="translate(242.773438 0)"/>
      </g>
      <!-- (stage 1) -->
      <g transform="translate(7.2 119.755268) scale(0.09 -0.09)">
       <use xlink:href="#DejaVuSans-28"/>
       <use xlink:href="#DejaVuSans-73" transform="translate(39.013672 0)"/>
       <use xlink:href="#DejaVuSans-74" transform="translate(91.113281 0)"/>
       <use xlink:href="#DejaVuSans-61" transform="translate(130.322266 0)"/>
       <use xlink:href="#DejaVuSans-67" transform="translate(191.601562 0)"/>
       <use xlink:href="#DejaVuSans-65" transform="translate(255.078125 0)"/>
       <use xlink:href="#DejaVuSans-20" transform="translate(316.601562 0)"/>
       <use xlink:href="#DejaVuSans-31" transform="translate(348.388672 0)"/>
       <use xlink:href="#DejaVuSans-29" transform="translate(412.011719 0)"/>
      </g>
     </g>
    </g>
    <g id="ytick_3">
     <g id="line2d_11"/>
     <g id="text_12">
      <!-- GPU 2 -->
      <g transform="translate(20.219063 143.929089) scale(0.09 -0.09)">
       <use xlink:href="#DejaVuSans-47"/>
       <use xlink:href="#DejaVuSans-50" transform="translate(77.490234 0)"/>
       <use xlink:href="#DejaVuSans-55" transform="translate(137.792969 0)"/>
       <use xlink:href="#DejaVuSans-20" transform="translate(210.986328 0)"/>
       <use xlink:href="#DejaVuSans-32" transform="translate(242.773438 0)"/>
      </g>
      <!-- (stage 2) -->
      <g transform="translate(7.2 154.00712) scale(0.09 -0.09)">
       <use xlink:href="#DejaVuSans-28"/>
       <use xlink:href="#DejaVuSans-73" transform="translate(39.013672 0)"/>
       <use xlink:href="#DejaVuSans-74" transform="translate(91.113281 0)"/>
       <use xlink:href="#DejaVuSans-61" transform="translate(130.322266 0)"/>
       <use xlink:href="#DejaVuSans-67" transform="translate(191.601562 0)"/>
       <use xlink:href="#DejaVuSans-65" transform="translate(255.078125 0)"/>
       <use xlink:href="#DejaVuSans-20" transform="translate(316.601562 0)"/>
       <use xlink:href="#DejaVuSans-32" transform="translate(348.388672 0)"/>
       <use xlink:href="#DejaVuSans-29" transform="translate(412.011719 0)"/>
      </g>
     </g>
    </g>
    <g id="ytick_4">
     <g id="line2d_12"/>
     <g id="text_13">
      <!-- GPU 3 -->
      <g transform="translate(20.219063 178.18094) scale(0.09 -0.09)">
       <defs>
        <path id="DejaVuSans-33" d="M 2597 2516 
Q 3050 2419 3304 2112 
Q 3559 1806 3559 1356 
Q 3559 666 3084 287 
Q 2609 -91 1734 -91 
Q 1441 -91 1130 -33 
Q 819 25 488 141 
L 488 750 
Q 750 597 1062 519 
Q 1375 441 1716 441 
Q 2309 441 2620 675 
Q 2931 909 2931 1356 
Q 2931 1769 2642 2001 
Q 2353 2234 1838 2234 
L 1294 2234 
L 1294 2753 
L 1863 2753 
Q 2328 2753 2575 2939 
Q 2822 3125 2822 3475 
Q 2822 3834 2567 4026 
Q 2313 4219 1838 4219 
Q 1578 4219 1281 4162 
Q 984 4106 628 3988 
L 628 4550 
Q 988 4650 1302 4700 
Q 1616 4750 1894 4750 
Q 2613 4750 3031 4423 
Q 3450 4097 3450 3541 
Q 3450 3153 3228 2886 
Q 3006 2619 2597 2516 
z
" transform="scale(0.015625)"/>
       </defs>
       <use xlink:href="#DejaVuSans-47"/>
       <use xlink:href="#DejaVuSans-50" transform="translate(77.490234 0)"/>
       <use xlink:href="#DejaVuSans-55" transform="translate(137.792969 0)"/>
       <use xlink:href="#DejaVuSans-20" transform="translate(210.986328 0)"/>
       <use xlink:href="#DejaVuSans-33" transform="translate(242.773438 0)"/>
      </g>
      <!-- (stage 3) -->
      <g transform="translate(7.2 188.258972) scale(0.09 -0.09)">
       <use xlink:href="#DejaVuSans-28"/>
       <use xlink:href="#DejaVuSans-73" transform="translate(39.013672 0)"/>
       <use xlink:href="#DejaVuSans-74" transform="translate(91.113281 0)"/>
       <use xlink:href="#DejaVuSans-61" transform="translate(130.322266 0)"/>
       <use xlink:href="#DejaVuSans-67" transform="translate(191.601562 0)"/>
       <use xlink:href="#DejaVuSans-65" transform="translate(255.078125 0)"/>
       <use xlink:href="#DejaVuSans-20" transform="translate(316.601562 0)"/>
       <use xlink:href="#DejaVuSans-33" transform="translate(348.388672 0)"/>
       <use xlink:href="#DejaVuSans-29" transform="translate(412.011719 0)"/>
      </g>
     </g>
    </g>
   </g>
   <g id="patch_41">
    <path d="M 51.292813 206.518281 
L 525.557813 206.518281 
" style="fill: none; stroke: #000000; stroke-width: 0.8; stroke-linejoin: miter; stroke-linecap: square"/>
   </g>
   <g id="text_14">
    <!-- F0 -->
    <g transform="translate(62.801153 78.568744) scale(0.08 -0.08)">
     <defs>
      <path id="DejaVuSans-46" d="M 628 4666 
L 3309 4666 
L 3309 4134 
L 1259 4134 
L 1259 2759 
L 3109 2759 
L 3109 2228 
L 1259 2228 
L 1259 0 
L 628 0 
L 628 4666 
z
" transform="scale(0.015625)"/>
     </defs>
     <use xlink:href="#DejaVuSans-46"/>
     <use xlink:href="#DejaVuSans-30" transform="translate(57.519531 0)"/>
    </g>
   </g>
   <g id="text_15">
    <!-- F1 -->
    <g transform="translate(95.509084 78.568744) scale(0.08 -0.08)">
     <use xlink:href="#DejaVuSans-46"/>
     <use xlink:href="#DejaVuSans-31" transform="translate(57.519531 0)"/>
    </g>
   </g>
   <g id="text_16">
    <!-- F2 -->
    <g transform="translate(128.217015 78.568744) scale(0.08 -0.08)">
     <use xlink:href="#DejaVuSans-46"/>
     <use xlink:href="#DejaVuSans-32" transform="translate(57.519531 0)"/>
    </g>
   </g>
   <g id="text_17">
    <!-- F3 -->
    <g transform="translate(160.924946 78.568744) scale(0.08 -0.08)">
     <use xlink:href="#DejaVuSans-46"/>
     <use xlink:href="#DejaVuSans-33" transform="translate(57.519531 0)"/>
    </g>
   </g>
   <g id="text_18">
    <!-- F0 -->
    <g transform="translate(95.509084 112.820596) scale(0.08 -0.08)">
     <use xlink:href="#DejaVuSans-46"/>
     <use xlink:href="#DejaVuSans-30" transform="translate(57.519531 0)"/>
    </g>
   </g>
   <g id="text_19">
    <!-- F1 -->
    <g transform="translate(128.217015 112.820596) scale(0.08 -0.08)">
     <use xlink:href="#DejaVuSans-46"/>
     <use xlink:href="#DejaVuSans-31" transform="translate(57.519531 0)"/>
    </g>
   </g>
   <g id="text_20">
    <!-- F2 -->
    <g transform="translate(160.924946 112.820596) scale(0.08 -0.08)">
     <use xlink:href="#DejaVuSans-46"/>
     <use xlink:href="#DejaVuSans-32" transform="translate(57.519531 0)"/>
    </g>
   </g>
   <g id="text_21">
    <!-- F3 -->
    <g transform="translate(193.632877 112.820596) scale(0.08 -0.08)">
     <use xlink:href="#DejaVuSans-46"/>
     <use xlink:href="#DejaVuSans-33" transform="translate(57.519531 0)"/>
    </g>
   </g>
   <g id="text_22">
    <!-- F0 -->
    <g transform="translate(128.217015 147.072448) scale(0.08 -0.08)">
     <use xlink:href="#DejaVuSans-46"/>
     <use xlink:href="#DejaVuSans-30" transform="translate(57.519531 0)"/>
    </g>
   </g>
   <g id="text_23">
    <!-- F1 -->
    <g transform="translate(160.924946 147.072448) scale(0.08 -0.08)">
     <use xlink:href="#DejaVuSans-46"/>
     <use xlink:href="#DejaVuSans-31" transform="translate(57.519531 0)"/>
    </g>
   </g>
   <g id="text_24">
    <!-- F2 -->
    <g transform="translate(193.632877 147.072448) scale(0.08 -0.08)">
     <use xlink:href="#DejaVuSans-46"/>
     <use xlink:href="#DejaVuSans-32" transform="translate(57.519531 0)"/>
    </g>
   </g>
   <g id="text_25">
    <!-- F3 -->
    <g transform="translate(226.340808 147.072448) scale(0.08 -0.08)">
     <use xlink:href="#DejaVuSans-46"/>
     <use xlink:href="#DejaVuSans-33" transform="translate(57.519531 0)"/>
    </g>
   </g>
   <g id="text_26">
    <!-- F0 -->
    <g transform="translate(160.924946 181.3243) scale(0.08 -0.08)">
     <use xlink:href="#DejaVuSans-46"/>
     <use xlink:href="#DejaVuSans-30" transform="translate(57.519531 0)"/>
    </g>
   </g>
   <g id="text_27">
    <!-- F1 -->
    <g transform="translate(193.632877 181.3243) scale(0.08 -0.08)">
     <use xlink:href="#DejaVuSans-46"/>
     <use xlink:href="#DejaVuSans-31" transform="translate(57.519531 0)"/>
    </g>
   </g>
   <g id="text_28">
    <!-- F2 -->
    <g transform="translate(226.340808 181.3243) scale(0.08 -0.08)">
     <use xlink:href="#DejaVuSans-46"/>
     <use xlink:href="#DejaVuSans-32" transform="translate(57.519531 0)"/>
    </g>
   </g>
   <g id="text_29">
    <!-- F3 -->
    <g transform="translate(259.048739 181.3243) scale(0.08 -0.08)">
     <use xlink:href="#DejaVuSans-46"/>
     <use xlink:href="#DejaVuSans-33" transform="translate(57.519531 0)"/>
    </g>
   </g>
   <g id="text_30">
    <!-- B0 -->
    <g transform="translate(291.31292 181.3243) scale(0.08 -0.08)">
     <defs>
      <path id="DejaVuSans-42" d="M 1259 2228 
L 1259 519 
L 2272 519 
Q 2781 519 3026 730 
Q 3272 941 3272 1375 
Q 3272 1813 3026 2020 
Q 2781 2228 2272 2228 
L 1259 2228 
z
M 1259 4147 
L 1259 2741 
L 2194 2741 
Q 2656 2741 2882 2914 
Q 3109 3088 3109 3444 
Q 3109 3797 2882 3972 
Q 2656 4147 2194 4147 
L 1259 4147 
z
M 628 4666 
L 2241 4666 
Q 2963 4666 3353 4366 
Q 3744 4066 3744 3513 
Q 3744 3084 3544 2831 
Q 3344 2578 2956 2516 
Q 3422 2416 3680 2098 
Q 3938 1781 3938 1306 
Q 3938 681 3513 340 
Q 3088 0 2303 0 
L 628 0 
L 628 4666 
z
" transform="scale(0.015625)"/>
     </defs>
     <use xlink:href="#DejaVuSans-42"/>
     <use xlink:href="#DejaVuSans-30" transform="translate(68.603516 0)"/>
    </g>
   </g>
   <g id="text_31">
    <!-- B1 -->
    <g transform="translate(324.020851 181.3243) scale(0.08 -0.08)">
     <use xlink:href="#DejaVuSans-42"/>
     <use xlink:href="#DejaVuSans-31" transform="translate(68.603516 0)"/>
    </g>
   </g>
   <g id="text_32">
    <!-- B2 -->
    <g transform="translate(356.728782 181.3243) scale(0.08 -0.08)">
     <use xlink:href="#DejaVuSans-42"/>
     <use xlink:href="#DejaVuSans-32" transform="translate(68.603516 0)"/>
    </g>
   </g>
   <g id="text_33">
    <!-- B3 -->
    <g transform="translate(389.436713 181.3243) scale(0.08 -0.08)">
     <use xlink:href="#DejaVuSans-42"/>
     <use xlink:href="#DejaVuSans-33" transform="translate(68.603516 0)"/>
    </g>
   </g>
   <g id="text_34">
    <!-- B0 -->
    <g transform="translate(324.020851 147.072448) scale(0.08 -0.08)">
     <use xlink:href="#DejaVuSans-42"/>
     <use xlink:href="#DejaVuSans-30" transform="translate(68.603516 0)"/>
    </g>
   </g>
   <g id="text_35">
    <!-- B1 -->
    <g transform="translate(356.728782 147.072448) scale(0.08 -0.08)">
     <use xlink:href="#DejaVuSans-42"/>
     <use xlink:href="#DejaVuSans-31" transform="translate(68.603516 0)"/>
    </g>
   </g>
   <g id="text_36">
    <!-- B2 -->
    <g transform="translate(389.436713 147.072448) scale(0.08 -0.08)">
     <use xlink:href="#DejaVuSans-42"/>
     <use xlink:href="#DejaVuSans-32" transform="translate(68.603516 0)"/>
    </g>
   </g>
   <g id="text_37">
    <!-- B3 -->
    <g transform="translate(422.144644 147.072448) scale(0.08 -0.08)">
     <use xlink:href="#DejaVuSans-42"/>
     <use xlink:href="#DejaVuSans-33" transform="translate(68.603516 0)"/>
    </g>
   </g>
   <g id="text_38">
    <!-- B0 -->
    <g transform="translate(356.728782 112.820596) scale(0.08 -0.08)">
     <use xlink:href="#DejaVuSans-42"/>
     <use xlink:href="#DejaVuSans-30" transform="translate(68.603516 0)"/>
    </g>
   </g>
   <g id="text_39">
    <!-- B1 -->
    <g transform="translate(389.436713 112.820596) scale(0.08 -0.08)">
     <use xlink:href="#DejaVuSans-42"/>
     <use xlink:href="#DejaVuSans-31" transform="translate(68.603516 0)"/>
    </g>
   </g>
   <g id="text_40">
    <!-- B2 -->
    <g transform="translate(422.144644 112.820596) scale(0.08 -0.08)">
     <use xlink:href="#DejaVuSans-42"/>
     <use xlink:href="#DejaVuSans-32" transform="translate(68.603516 0)"/>
    </g>
   </g>
   <g id="text_41">
    <!-- B3 -->
    <g transform="translate(454.852575 112.820596) scale(0.08 -0.08)">
     <use xlink:href="#DejaVuSans-42"/>
     <use xlink:href="#DejaVuSans-33" transform="translate(68.603516 0)"/>
    </g>
   </g>
   <g id="text_42">
    <!-- B0 -->
    <g transform="translate(389.436713 78.568744) scale(0.08 -0.08)">
     <use xlink:href="#DejaVuSans-42"/>
     <use xlink:href="#DejaVuSans-30" transform="translate(68.603516 0)"/>
    </g>
   </g>
   <g id="text_43">
    <!-- B1 -->
    <g transform="translate(422.144644 78.568744) scale(0.08 -0.08)">
     <use xlink:href="#DejaVuSans-42"/>
     <use xlink:href="#DejaVuSans-31" transform="translate(68.603516 0)"/>
    </g>
   </g>
   <g id="text_44">
    <!-- B2 -->
    <g transform="translate(454.852575 78.568744) scale(0.08 -0.08)">
     <use xlink:href="#DejaVuSans-42"/>
     <use xlink:href="#DejaVuSans-32" transform="translate(68.603516 0)"/>
    </g>
   </g>
   <g id="text_45">
    <!-- B3 -->
    <g transform="translate(487.560506 78.568744) scale(0.08 -0.08)">
     <use xlink:href="#DejaVuSans-42"/>
     <use xlink:href="#DejaVuSans-33" transform="translate(68.603516 0)"/>
    </g>
   </g>
   <g id="text_46">
    <!-- Bubble fraction = (P-1)/(P-1+M) = 0.43  (P=4 stages, M=4 micro-batches) -->
    <g style="fill: #555555" transform="translate(113.261064 42.109392) scale(0.09 -0.09)">
     <defs>
      <path id="DejaVuSans-62" d="M 3116 1747 
Q 3116 2381 2855 2742 
Q 2594 3103 2138 3103 
Q 1681 3103 1420 2742 
Q 1159 2381 1159 1747 
Q 1159 1113 1420 752 
Q 1681 391 2138 391 
Q 2594 391 2855 752 
Q 3116 1113 3116 1747 
z
M 1159 2969 
Q 1341 3281 1617 3432 
Q 1894 3584 2278 3584 
Q 2916 3584 3314 3078 
Q 3713 2572 3713 1747 
Q 3713 922 3314 415 
Q 2916 -91 2278 -91 
Q 1894 -91 1617 61 
Q 1341 213 1159 525 
L 1159 0 
L 581 0 
L 581 4863 
L 1159 4863 
L 1159 2969 
z
" transform="scale(0.015625)"/>
      <path id="DejaVuSans-6c" d="M 603 4863 
L 1178 4863 
L 1178 0 
L 603 0 
L 603 4863 
z
" transform="scale(0.015625)"/>
      <path id="DejaVuSans-66" d="M 2375 4863 
L 2375 4384 
L 1825 4384 
Q 1516 4384 1395 4259 
Q 1275 4134 1275 3809 
L 1275 3500 
L 2222 3500 
L 2222 3053 
L 1275 3053 
L 1275 0 
L 697 0 
L 697 3053 
L 147 3053 
L 147 3500 
L 697 3500 
L 697 3744 
Q 697 4328 969 4595 
Q 1241 4863 1831 4863 
L 2375 4863 
z
" transform="scale(0.015625)"/>
      <path id="DejaVuSans-72" d="M 2631 2963 
Q 2534 3019 2420 3045 
Q 2306 3072 2169 3072 
Q 1681 3072 1420 2755 
Q 1159 2438 1159 1844 
L 1159 0 
L 581 0 
L 581 3500 
L 1159 3500 
L 1159 2956 
Q 1341 3275 1631 3429 
Q 1922 3584 2338 3584 
Q 2397 3584 2469 3576 
Q 2541 3569 2628 3553 
L 2631 2963 
z
" transform="scale(0.015625)"/>
      <path id="DejaVuSans-63" d="M 3122 3366 
L 3122 2828 
Q 2878 2963 2633 3030 
Q 2388 3097 2138 3097 
Q 1578 3097 1268 2742 
Q 959 2388 959 1747 
Q 959 1106 1268 751 
Q 1578 397 2138 397 
Q 2388 397 2633 464 
Q 2878 531 3122 666 
L 3122 134 
Q 2881 22 2623 -34 
Q 2366 -91 2075 -91 
Q 1284 -91 818 406 
Q 353 903 353 1747 
Q 353 2603 823 3093 
Q 1294 3584 2113 3584 
Q 2378 3584 2631 3529 
Q 2884 3475 3122 3366 
z
" transform="scale(0.015625)"/>
      <path id="DejaVuSans-6f" d="M 1959 3097 
Q 1497 3097 1228 2736 
Q 959 2375 959 1747 
Q 959 1119 1226 758 
Q 1494 397 1959 397 
Q 2419 397 2687 759 
Q 2956 1122 2956 1747 
Q 2956 2369 2687 2733 
Q 2419 3097 1959 3097 
z
M 1959 3584 
Q 2709 3584 3137 3096 
Q 3566 2609 3566 1747 
Q 3566 888 3137 398 
Q 2709 -91 1959 -91 
Q 1206 -91 779 398 
Q 353 888 353 1747 
Q 353 2609 779 3096 
Q 1206 3584 1959 3584 
z
" transform="scale(0.015625)"/>
      <path id="DejaVuSans-3d" d="M 678 2906 
L 4684 2906 
L 4684 2381 
L 678 2381 
L 678 2906 
z
M 678 1631 
L 4684 1631 
L 4684 1100 
L 678 1100 
L 678 1631 
z
" transform="scale(0.015625)"/>
      <path id="DejaVuSans-2d" d="M 313 2009 
L 1997 2009 
L 1997 1497 
L 313 1497 
L 313 2009 
z
" transform="scale(0.015625)"/>
      <path id="DejaVuSans-2f" d="M 1625 4666 
L 2156 4666 
L 531 -594 
L 0 -594 
L 1625 4666 
z
" transform="scale(0.015625)"/>
      <path id="DejaVuSans-2b" d="M 2944 4013 
L 2944 2272 
L 4684 2272 
L 4684 1741 
L 2944 1741 
L 2944 0 
L 2419 0 
L 2419 1741 
L 678 1741 
L 678 2272 
L 2419 2272 
L 2419 4013 
L 2944 4013 
z
" transform="scale(0.015625)"/>
      <path id="DejaVuSans-4d" d="M 628 4666 
L 1569 4666 
L 2759 1491 
L 3956 4666 
L 4897 4666 
L 4897 0 
L 4281 0 
L 4281 4097 
L 3078 897 
L 2444 897 
L 1241 4097 
L 1241 0 
L 628 0 
L 628 4666 
z
" transform="scale(0.015625)"/>
      <path id="DejaVuSans-2e" d="M 684 794 
L 1344 794 
L 1344 0 
L 684 0 
L 684 794 
z
" transform="scale(0.015625)"/>
      <path id="DejaVuSans-2c" d="M 750 794 
L 1409 794 
L 1409 256 
L 897 -744 
L 494 -744 
L 750 256 
L 750 794 
z
" transform="scale(0.015625)"/>
      <path id="DejaVuSans-68" d="M 3513 2113 
L 3513 0 
L 2938 0 
L 2938 2094 
Q 2938 2591 2744 2837 
Q 2550 3084 2163 3084 
Q 1697 3084 1428 2787 
Q 1159 2491 1159 1978 
L 1159 0 
L 581 0 
L 581 4863 
L 1159 4863 
L 1159 2956 
Q 1366 3272 1645 3428 
Q 1925 3584 2291 3584 
Q 2894 3584 3203 3211 
Q 3513 2838 3513 2113 
z
" transform="scale(0.015625)"/>
     </defs>
     <use xlink:href="#DejaVuSans-42"/>
     <use xlink:href="#DejaVuSans-75" transform="translate(68.603516 0)"/>
     <use xlink:href="#DejaVuSans-62" transform="translate(131.982422 0)"/>
     <use xlink:href="#DejaVuSans-62" transform="translate(195.458984 0)"/>
     <use xlink:href="#DejaVuSans-6c" transform="translate(258.935547 0)"/>
     <use xlink:href="#DejaVuSans-65" transform="translate(286.71875 0)"/>
     <use xlink:href="#DejaVuSans-20" transform="translate(348.242188 0)"/>
     <use xlink:href="#DejaVuSans-66" transform="translate(380.029297 0)"/>
     <use xlink:href="#DejaVuSans-72" transform="translate(415.234375 0)"/>
     <use xlink:href="#DejaVuSans-61" transform="translate(456.347656 0)"/>
     <use xlink:href="#DejaVuSans-63" transform="translate(517.626953 0)"/>
     <use xlink:href="#DejaVuSans-74" transform="translate(572.607422 0)"/>
     <use xlink:href="#DejaVuSans-69" transform="translate(611.816406 0)"/>
     <use xlink:href="#DejaVuSans-6f" transform="translate(639.599609 0)"/>
     <use xlink:href="#DejaVuSans-6e" transform="translate(700.78125 0)"/>
     <use xlink:href="#DejaVuSans-20" transform="translate(764.160156 0)"/>
     <use xlink:href="#DejaVuSans-3d" transform="translate(795.947266 0)"/>
     <use xlink:href="#DejaVuSans-20" transform="translate(879.736328 0)"/>
     <use xlink:href="#DejaVuSans-28" transform="translate(911.523438 0)"/>
     <use xlink:href="#DejaVuSans-50" transform="translate(950.537109 0)"/>
     <use xlink:href="#DejaVuSans-2d" transform="translate(1008.589844 0)"/>
     <use xlink:href="#DejaVuSans-31" transform="translate(1044.673828 0)"/>
     <use xlink:href="#DejaVuSans-29" transform="translate(1108.296875 0)"/>
     <use xlink:href="#DejaVuSans-2f" transform="translate(1147.310547 0)"/>
     <use xlink:href="#DejaVuSans-28" transform="translate(1181.001953 0)"/>
     <use xlink:href="#DejaVuSans-50" transform="translate(1220.015625 0)"/>
     <use xlink:href="#DejaVuSans-2d" transform="translate(1278.068359 0)"/>
     <use xlink:href="#DejaVuSans-31" transform="translate(1314.152344 0)"/>
     <use xlink:href="#DejaVuSans-2b" transform="translate(1377.775391 0)"/>
     <use xlink:href="#DejaVuSans-4d" transform="translate(1461.564453 0)"/>
     <use xlink:href="#DejaVuSans-29" transform="translate(1547.84375 0)"/>
     <use xlink:href="#DejaVuSans-20" transform="translate(1586.857422 0)"/>
     <use xlink:href="#DejaVuSans-3d" transform="translate(1618.644531 0)"/>
     <use xlink:href="#DejaVuSans-20" transform="translate(1702.433594 0)"/>
     <use xlink:href="#DejaVuSans-30" transform="translate(1734.220703 0)"/>
     <use xlink:href="#DejaVuSans-2e" transform="translate(1797.84375 0)"/>
     <use xlink:href="#DejaVuSans-34" transform="translate(1829.630859 0)"/>
     <use xlink:href="#DejaVuSans-33" transform="translate(1893.253906 0)"/>
     <use xlink:href="#DejaVuSans-20" transform="translate(1956.876953 0)"/>
     <use xlink:href="#DejaVuSans-20" transform="translate(1988.664062 0)"/>
     <use xlink:href="#DejaVuSans-28" transform="translate(2020.451172 0)"/>
     <use xlink:href="#DejaVuSans-50" transform="translate(2059.464844 0)"/>
     <use xlink:href="#DejaVuSans-3d" transform="translate(2119.767578 0)"/>
     <use xlink:href="#DejaVuSans-34" transform="translate(2203.556641 0)"/>
     <use xlink:href="#DejaVuSans-20" transform="translate(2267.179688 0)"/>
     <use xlink:href="#DejaVuSans-73" transform="translate(2298.966797 0)"/>
     <use xlink:href="#DejaVuSans-74" transform="translate(2351.066406 0)"/>
     <use xlink:href="#DejaVuSans-61" transform="translate(2390.275391 0)"/>
     <use xlink:href="#DejaVuSans-67" transform="translate(2451.554688 0)"/>
     <use xlink:href="#DejaVuSans-65" transform="translate(2515.03125 0)"/>
     <use xlink:href="#DejaVuSans-73" transform="translate(2576.554688 0)"/>
     <use xlink:href="#DejaVuSans-2c" transform="translate(2628.654297 0)"/>
     <use xlink:href="#DejaVuSans-20" transform="translate(2660.441406 0)"/>
     <use xlink:href="#DejaVuSans-4d" transform="translate(2692.228516 0)"/>
     <use xlink:href="#DejaVuSans-3d" transform="translate(2778.507812 0)"/>
     <use xlink:href="#DejaVuSans-34" transform="translate(2862.296875 0)"/>
     <use xlink:href="#DejaVuSans-20" transform="translate(2925.919922 0)"/>
     <use xlink:href="#DejaVuSans-6d" transform="translate(2957.707031 0)"/>
     <use xlink:href="#DejaVuSans-69" transform="translate(3055.119141 0)"/>
     <use xlink:href="#DejaVuSans-63" transform="translate(3082.902344 0)"/>
     <use xlink:href="#DejaVuSans-72" transform="translate(3137.882812 0)"/>
     <use xlink:href="#DejaVuSans-6f" transform="translate(3176.746094 0)"/>
     <use xlink:href="#DejaVuSans-2d" transform="translate(3239.802734 0)"/>
     <use xlink:href="#DejaVuSans-62" transform="translate(3275.886719 0)"/>
     <use xlink:href="#DejaVuSans-61" transform="translate(3339.363281 0)"/>
     <use xlink:href="#DejaVuSans-74" transform="translate(3400.642578 0)"/>
     <use xlink:href="#DejaVuSans-63" transform="translate(3439.851562 0)"/>
     <use xlink:href="#DejaVuSans-68" transform="translate(3494.832031 0)"/>
     <use xlink:href="#DejaVuSans-65" transform="translate(3558.210938 0)"/>
     <use xlink:href="#DejaVuSans-73" transform="translate(3619.734375 0)"/>
     <use xlink:href="#DejaVuSans-29" transform="translate(3671.833984 0)"/>
    </g>
   </g>
   <g id="text_47">
    <!-- Pipeline parallelism: bubble structure (GPipe-style schedule) -->
    <g transform="translate(51.292813 15.558281) scale(0.11 -0.11)">
     <defs>
      <path id="DejaVuSans-70" d="M 1159 525 
L 1159 -1331 
L 581 -1331 
L 581 3500 
L 1159 3500 
L 1159 2969 
Q 1341 3281 1617 3432 
Q 1894 3584 2278 3584 
Q 2916 3584 3314 3078 
Q 3713 2572 3713 1747 
Q 3713 922 3314 415 
Q 2916 -91 2278 -91 
Q 1894 -91 1617 61 
Q 1341 213 1159 525 
z
M 3116 1747 
Q 3116 2381 2855 2742 
Q 2594 3103 2138 3103 
Q 1681 3103 1420 2742 
Q 1159 2381 1159 1747 
Q 1159 1113 1420 752 
Q 1681 391 2138 391 
Q 2594 391 2855 752 
Q 3116 1113 3116 1747 
z
" transform="scale(0.015625)"/>
      <path id="DejaVuSans-3a" d="M 750 794 
L 1409 794 
L 1409 0 
L 750 0 
L 750 794 
z
M 750 3309 
L 1409 3309 
L 1409 2516 
L 750 2516 
L 750 3309 
z
" transform="scale(0.015625)"/>
      <path id="DejaVuSans-79" d="M 2059 -325 
Q 1816 -950 1584 -1140 
Q 1353 -1331 966 -1331 
L 506 -1331 
L 506 -850 
L 844 -850 
Q 1081 -850 1212 -737 
Q 1344 -625 1503 -206 
L 1606 56 
L 191 3500 
L 800 3500 
L 1894 763 
L 2988 3500 
L 3597 3500 
L 2059 -325 
z
" transform="scale(0.015625)"/>
      <path id="DejaVuSans-64" d="M 2906 2969 
L 2906 4863 
L 3481 4863 
L 3481 0 
L 2906 0 
L 2906 525 
Q 2725 213 2448 61 
Q 2172 -91 1784 -91 
Q 1150 -91 751 415 
Q 353 922 353 1747 
Q 353 2572 751 3078 
Q 1150 3584 1784 3584 
Q 2172 3584 2448 3432 
Q 2725 3281 2906 2969 
z
M 947 1747 
Q 947 1113 1208 752 
Q 1469 391 1925 391 
Q 2381 391 2643 752 
Q 2906 1113 2906 1747 
Q 2906 2381 2643 2742 
Q 2381 3103 1925 3103 
Q 1469 3103 1208 2742 
Q 947 2381 947 1747 
z
" transform="scale(0.015625)"/>
     </defs>
     <use xlink:href="#DejaVuSans-50"/>
     <use xlink:href="#DejaVuSans-69" transform="translate(58.052734 0)"/>
     <use xlink:href="#DejaVuSans-70" transform="translate(85.835938 0)"/>
     <use xlink:href="#DejaVuSans-65" transform="translate(149.3125 0)"/>
     <use xlink:href="#DejaVuSans-6c" transform="translate(210.835938 0)"/>
     <use xlink:href="#DejaVuSans-69" transform="translate(238.619141 0)"/>
     <use xlink:href="#DejaVuSans-6e" transform="translate(266.402344 0)"/>
     <use xlink:href="#DejaVuSans-65" transform="translate(329.78125 0)"/>
     <use xlink:href="#DejaVuSans-20" transform="translate(391.304688 0)"/>
     <use xlink:href="#DejaVuSans-70" transform="translate(423.091797 0)"/>
     <use xlink:href="#DejaVuSans-61" transform="translate(486.568359 0)"/>
     <use xlink:href="#DejaVuSans-72" transform="translate(547.847656 0)"/>
     <use xlink:href="#DejaVuSans-61" transform="translate(588.960938 0)"/>
     <use xlink:href="#DejaVuSans-6c" transform="translate(650.240234 0)"/>
     <use xlink:href="#DejaVuSans-6c" transform="translate(678.023438 0)"/>
     <use xlink:href="#DejaVuSans-65" transform="translate(705.806641 0)"/>
     <use xlink:href="#DejaVuSans-6c" transform="translate(767.330078 0)"/>
     <use xlink:href="#DejaVuSans-69" transform="translate(795.113281 0)"/>
     <use xlink:href="#DejaVuSans-73" transform="translate(822.896484 0)"/>
     <use xlink:href="#DejaVuSans-6d" transform="translate(874.996094 0)"/>
     <use xlink:href="#DejaVuSans-3a" transform="translate(972.408203 0)"/>
     <use xlink:href="#DejaVuSans-20" transform="translate(1006.099609 0)"/>
     <use xlink:href="#DejaVuSans-62" transform="translate(1037.886719 0)"/>
     <use xlink:href="#DejaVuSans-75" transform="translate(1101.363281 0)"/>
     <use xlink:href="#DejaVuSans-62" transform="translate(1164.742188 0)"/>
     <use xlink:href="#DejaVuSans-62" transform="translate(1228.21875 0)"/>
     <use xlink:href="#DejaVuSans-6c" transform="translate(1291.695312 0)"/>
     <use xlink:href="#DejaVuSans-65" transform="translate(1319.478516 0)"/>
     <use xlink:href="#DejaVuSans-20" transform="translate(1381.001953 0)"/>
     <use xlink:href="#DejaVuSans-73" transform="translate(1412.789062 0)"/>
     <use xlink:href="#DejaVuSans-74" transform="translate(1464.888672 0)"/>
     <use xlink:href="#DejaVuSans-72" transform="translate(1504.097656 0)"/>
     <use xlink:href="#DejaVuSans-75" transform="translate(1545.210938 0)"/>
     <use xlink:href="#DejaVuSans-63" transform="translate(1608.589844 0)"/>
     <use xlink:href="#DejaVuSans-74" transform="translate(1663.570312 0)"/>
     <use xlink:href="#DejaVuSans-75" transform="translate(1702.779297 0)"/>
     <use xlink:href="#DejaVuSans-72" transform="translate(1766.158203 0)"/>
     <use xlink:href="#DejaVuSans-65" transform="translate(1805.021484 0)"/>
     <use xlink:href="#DejaVuSans-20" transform="translate(1866.544922 0)"/>
     <use xlink:href="#DejaVuSans-28" transform="translate(1898.332031 0)"/>
     <use xlink:href="#DejaVuSans-47" transform="translate(1937.345703 0)"/>
     <use xlink:href="#DejaVuSans-50" transform="translate(2014.835938 0)"/>
     <use xlink:href="#DejaVuSans-69" transform="translate(2072.888672 0)"/>
     <use xlink:href="#DejaVuSans-70" transform="translate(2100.671875 0)"/>
     <use xlink:href="#DejaVuSans-65" transform="translate(2164.148438 0)"/>
     <use xlink:href="#DejaVuSans-2d" transform="translate(2225.671875 0)"/>
     <use xlink:href="#DejaVuSans-73" transform="translate(2261.755859 0)"/>
     <use xlink:href="#DejaVuSans-74" transform="translate(2313.855469 0)"/>
     <use xlink:href="#DejaVuSans-79" transform="translate(2353.064453 0)"/>
     <use xlink:href="#DejaVuSans-6c" transform="translate(2412.244141 0)"/>
     <use xlink:href="#DejaVuSans-65" transform="translate(2440.027344 0)"/>
     <use xlink:href="#DejaVuSans-20" transform="translate(2501.550781 0)"/>
     <use xlink:href="#DejaVuSans-73" transform="translate(2533.337891 0)"/>
     <use xlink:href="#DejaVuSans-63" transform="translate(2585.4375 0)"/>
     <use xlink:href="#DejaVuSans-68" transform="translate(2640.417969 0)"/>
     <use xlink:href="#DejaVuSans-65" transform="translate(2703.796875 0)"/>
     <use xlink:href="#DejaVuSans-64" transform="translate(2765.320312 0)"/>
     <use xlink:href="#DejaVuSans-75" transform="translate(2828.796875 0)"/>
     <use xlink:href="#DejaVuSans-6c" transform="translate(2892.175781 0)"/>
     <use xlink:href="#DejaVuSans-65" transform="translate(2919.958984 0)"/>
     <use xlink:href="#DejaVuSans-29" transform="translate(2981.482422 0)"/>
    </g>
   </g>
   <g id="legend_1">
    <g id="patch_42">
     <path d="M 434.77875 170.125937 
L 452.77875 170.125937 
L 452.77875 163.825937 
L 434.77875 163.825937 
z
" style="fill: #cfe2f3; stroke: #4a90c4; stroke-linejoin: miter"/>
    </g>
    <g id="text_48">
     <!-- Forward -->
     <g transform="translate(459.97875 170.125937) scale(0.09 -0.09)">
      <defs>
       <path id="DejaVuSans-77" d="M 269 3500 
L 844 3500 
L 1563 769 
L 2278 3500 
L 2956 3500 
L 3675 769 
L 4391 3500 
L 4966 3500 
L 4050 0 
L 3372 0 
L 2619 2869 
L 1863 0 
L 1184 0 
L 269 3500 
z
" transform="scale(0.015625)"/>
      </defs>
      <use xlink:href="#DejaVuSans-46"/>
      <use xlink:href="#DejaVuSans-6f" transform="translate(53.894531 0)"/>
      <use xlink:href="#DejaVuSans-72" transform="translate(115.076172 0)"/>
      <use xlink:href="#DejaVuSans-77" transform="translate(156.189453 0)"/>
      <use xlink:href="#DejaVuSans-61" transform="translate(237.976562 0)"/>
      <use xlink:href="#DejaVuSans-72" transform="translate(299.255859 0)"/>
      <use xlink:href="#DejaVuSans-64" transform="translate(338.619141 0)"/>
     </g>
    </g>
    <g id="patch_43">
     <path d="M 434.77875 183.33625 
L 452.77875 183.33625 
L 452.77875 177.03625 
L 434.77875 177.03625 
z
" style="fill: #d4edda; stroke: #3d9e5a; stroke-linejoin: miter"/>
    </g>
    <g id="text_49">
     <!-- Backward -->
     <g transform="translate(459.97875 183.33625) scale(0.09 -0.09)">
      <defs>
       <path id="DejaVuSans-6b" d="M 581 4863 
L 1159 4863 
L 1159 1991 
L 2875 3500 
L 3609 3500 
L 1753 1863 
L 3688 0 
L 2938 0 
L 1159 1709 
L 1159 0 
L 581 0 
L 581 4863 
z
" transform="scale(0.015625)"/>
      </defs>
      <use xlink:href="#DejaVuSans-42"/>
      <use xlink:href="#DejaVuSans-61" transform="translate(68.603516 0)"/>
      <use xlink:href="#DejaVuSans-63" transform="translate(129.882812 0)"/>
      <use xlink:href="#DejaVuSans-6b" transform="translate(184.863281 0)"/>
      <use xlink:href="#DejaVuSans-77" transform="translate(242.773438 0)"/>
      <use xlink:href="#DejaVuSans-61" transform="translate(324.560547 0)"/>
      <use xlink:href="#DejaVuSans-72" transform="translate(385.839844 0)"/>
      <use xlink:href="#DejaVuSans-64" transform="translate(425.203125 0)"/>
     </g>
    </g>
    <g id="patch_44">
     <path d="M 434.77875 196.546562 
L 452.77875 196.546562 
L 452.77875 190.246562 
L 434.77875 190.246562 
z
" style="fill: #f9d6d5; opacity: 0.4"/>
    </g>
    <g id="text_50">
     <!-- Bubble (idle) -->
     <g transform="translate(459.97875 196.546562) scale(0.09 -0.09)">
      <use xlink:href="#DejaVuSans-42"/>
      <use xlink:href="#DejaVuSans-75" transform="translate(68.603516 0)"/>
      <use xlink:href="#DejaVuSans-62" transform="translate(131.982422 0)"/>
      <use xlink:href="#DejaVuSans-62" transform="translate(195.458984 0)"/>
      <use xlink:href="#DejaVuSans-6c" transform="translate(258.935547 0)"/>
      <use xlink:href="#DejaVuSans-65" transform="translate(286.71875 0)"/>
      <use xlink:href="#DejaVuSans-20" transform="translate(348.242188 0)"/>
      <use xlink:href="#DejaVuSans-28" transform="translate(380.029297 0)"/>
      <use xlink:href="#DejaVuSans-69" transform="translate(419.042969 0)"/>
      <use xlink:href="#DejaVuSans-64" transform="translate(446.826172 0)"/>
      <use xlink:href="#DejaVuSans-6c" transform="translate(510.302734 0)"/>
      <use xlink:href="#DejaVuSans-65" transform="translate(538.085938 0)"/>
      <use xlink:href="#DejaVuSans-29" transform="translate(599.609375 0)"/>
     </g>
    </g>
   </g>
  </g>
 </g>
 <defs>
  <clipPath id="p9fa2d807e8">
   <rect x="51.292813" y="21.558281" width="474.265" height="184.96"/>
  </clipPath>
 </defs>
</svg>
