<?xml version="1.0" encoding="UTF-8" standalone="no"?>
<!-- Created with Inkscape (http://www.inkscape.org/) -->

<svg
   version="1.1"
   id="svg1"
   width="427.384"
   height="251.37868"
   viewBox="0 0 427.384 251.37868"
   xmlns="http://www.w3.org/2000/svg"
   xmlns:svg="http://www.w3.org/2000/svg">
  <defs
     id="defs1">
    <clipPath
       clipPathUnits="userSpaceOnUse"
       id="clipPath2">
      <path
         d="M 506.86568,-141.74286 H 802.1868 V 287.40062 H 506.86568"
         transform="translate(2.5000001e-6)"
         id="path2" />
    </clipPath>
    <clipPath
       clipPathUnits="userSpaceOnUse"
       id="clipPath4">
      <path
         d="M 365.2007,0 V 145.65775 H 943.8518 V 0"
         transform="translate(2.5000001e-6)"
         id="path4" />
    </clipPath>
    <clipPath
       clipPathUnits="userSpaceOnUse"
       id="clipPath6">
      <path
         d="M 506.86568,-141.74286 H 802.1868 V 287.40062 H 506.86568"
         transform="translate(2.5000001e-6)"
         id="path6" />
    </clipPath>
    <clipPath
       clipPathUnits="userSpaceOnUse"
       id="clipPath8">
      <path
         d="M 506.86568,-141.74286 H 802.1868 V 287.40062 H 506.86568"
         transform="translate(2.5000001e-6)"
         id="path8" />
    </clipPath>
    <clipPath
       clipPathUnits="userSpaceOnUse"
       id="clipPath10">
      <path
         d="M 365.2007,0 V 145.65775 H 943.8518 V 0"
         transform="translate(2.5000001e-6)"
         id="path10" />
    </clipPath>
    <clipPath
       clipPathUnits="userSpaceOnUse"
       id="clipPath26">
      <path
         d="M 506.86568,0 H 802.1868 V 145.65775 H 506.86568 Z"
         transform="translate(2.5000001e-6)"
         id="path26" />
    </clipPath>
    <clipPath
       clipPathUnits="userSpaceOnUse"
       id="clipPath28">
      <path
         d="M 506.86568,0 H 802.1868 V 145.65775 H 506.86568 Z"
         transform="translate(2.5000001e-6)"
         id="path28" />
    </clipPath>
    <clipPath
       clipPathUnits="userSpaceOnUse"
       id="clipPath30">
      <path
         d="M 506.86568,0 H 802.1868 V 145.65775 H 506.86568 Z"
         transform="translate(2.5000001e-6)"
         id="path30" />
    </clipPath>
    <clipPath
       clipPathUnits="userSpaceOnUse"
       id="clipPath32">
      <path
         d="M 506.86568,0 H 802.1868 V 145.65775 H 506.86568 Z"
         transform="translate(2.5000001e-6)"
         id="path32" />
    </clipPath>
    <clipPath
       clipPathUnits="userSpaceOnUse"
       id="clipPath34">
      <path
         d="M 506.86568,0 H 802.1868 V 145.65775 H 506.86568 Z"
         transform="translate(2.5000001e-6)"
         id="path34" />
    </clipPath>
    <clipPath
       clipPathUnits="userSpaceOnUse"
       id="clipPath36">
      <path
         d="M 506.86568,0 H 802.1868 V 145.65775 H 506.86568 Z"
         transform="translate(2.5000001e-6)"
         id="path36" />
    </clipPath>
    <clipPath
       clipPathUnits="userSpaceOnUse"
       id="clipPath38">
      <path
         d="M 506.86568,0 H 802.1868 V 145.65775 H 506.86568 Z"
         transform="translate(2.5000001e-6)"
         id="path38" />
    </clipPath>
    <clipPath
       clipPathUnits="userSpaceOnUse"
       id="clipPath40">
      <path
         d="M 506.86568,0 H 802.1868 V 145.65775 H 506.86568 Z"
         transform="matrix(1,0,0,-1,-524.55501,69.143999)"
         id="path40" />
    </clipPath>
  </defs>
  <g
     id="g1">
    <path
       id="path1"
       d="M 529.6431,0 V 145.65775 M 605.3064,0 V 145.65775 M 680.9697,0 V 145.65775 M 756.633,0 v 145.65775"
       style="fill:none;stroke:#b3b3b3;stroke-width:0.3985;stroke-linecap:butt;stroke-linejoin:miter;stroke-miterlimit:10;stroke-dasharray:none;stroke-opacity:1"
       transform="matrix(1.3333333,0,0,-1.3333333,-642.45067,215.02267)"
       clip-path="url(#clipPath2)" />
    <path
       id="path3"
       d="M 506.86568,11.65262 H 802.1868 M 506.86568,40.78416 H 802.1868 M 506.86568,69.91571 H 802.1868 M 506.86568,99.04727 H 802.1868 M 506.86568,128.17882 H 802.1868"
       style="fill:none;stroke:#b3b3b3;stroke-width:0.3985;stroke-linecap:butt;stroke-linejoin:miter;stroke-miterlimit:10;stroke-dasharray:none;stroke-opacity:1"
       transform="matrix(1.3333333,0,0,-1.3333333,-642.45067,215.02267)"
       clip-path="url(#clipPath4)" />
    <path
       id="path5"
       d="M 529.6431,-2.835 V 0 M 552.42,-2.835 V 0 m 13.32388,-2.835 V 0 m 9.45303,-2.835 V 0 m 7.33257,-2.835 V 0 m 5.99132,-2.835 V 0 m 5.0652,-2.835 V 0 m 4.38782,-2.835 V 0 m 3.87036,-2.835 V 0 m 3.46222,-2.835 V 0 m 22.7769,-2.835 V 0 m 13.32388,-2.835 V 0 m 9.45303,-2.835 V 0 m 7.33257,-2.835 V 0 m 5.99132,-2.835 V 0 m 5.0652,-2.835 V 0 m 4.38782,-2.835 V 0 m 3.87036,-2.835 V 0 m 3.46222,-2.835 V 0 m 22.77691,-2.835 V 0 m 13.32387,-2.835 V 0 m 9.45302,-2.835 V 0 m 7.33258,-2.835 V 0 m 5.99132,-2.835 V 0 m 5.06521,-2.835 V 0 m 4.38781,-2.835 V 0 m 3.87036,-2.835 V 0"
       style="fill:none;stroke:#666666;stroke-width:0.3985;stroke-linecap:butt;stroke-linejoin:miter;stroke-miterlimit:10;stroke-dasharray:none;stroke-opacity:1"
       transform="matrix(1.3333333,0,0,-1.3333333,-642.45067,215.02267)"
       clip-path="url(#clipPath6)" />
    <path
       id="path7"
       d="M 529.6431,-2.83482 V 0 m 75.6633,-2.83482 V 0 m 75.6633,-2.83482 V 0 M 756.633,-2.83482 V 0"
       style="fill:none;stroke:#666666;stroke-width:0.3985;stroke-linecap:butt;stroke-linejoin:miter;stroke-miterlimit:10;stroke-dasharray:none;stroke-opacity:1"
       transform="matrix(1.3333333,0,0,-1.3333333,-642.45067,215.02267)"
       clip-path="url(#clipPath8)" />
    <path
       id="path9"
       d="m 504.03273,11.65262 h 2.83295 m -2.83295,29.13154 h 2.83295 m -2.83295,29.13155 h 2.83295 m -2.83295,29.13156 h 2.83295 m -2.83295,29.13155 h 2.83295"
       style="fill:none;stroke:#666666;stroke-width:0.3985;stroke-linecap:butt;stroke-linejoin:miter;stroke-miterlimit:10;stroke-dasharray:none;stroke-opacity:1"
       transform="matrix(1.3333333,0,0,-1.3333333,-642.45067,215.02267)"
       clip-path="url(#clipPath10)" />
    <path
       id="path11"
       d="M 506.86568,0 V 145.65775 H 802.1868 V 0 Z"
       style="fill:none;stroke:#000000;stroke-width:0.3985;stroke-linecap:butt;stroke-linejoin:miter;stroke-miterlimit:10;stroke-dasharray:none;stroke-opacity:1"
       transform="matrix(1.3333333,0,0,-1.3333333,-642.45067,215.02267)" />
    <path
       id="path12"
       d="M 1.8047969,-3.5149297 V 6.953125e-4 h 0.609375 V -4.9446172 H 2.0157344 c -0.2109375,0.7617188 -0.3515625,0.8671875 -1.30078127,0.984375 v 0.4453125 z m 3.993164,-1.4296875 c -0.46875,0 -0.8789062,0.1992188 -1.1367187,0.5507813 -0.328125,0.421875 -0.4804688,1.0898437 -0.4804688,2.0039062 0,1.66406251 0.5507813,2.55468751 1.6171875,2.55468751 1.0429688,0 1.6171875,-0.890625 1.6171875,-2.51953121 0,-0.9609375 -0.1523437,-1.59375 -0.4804687,-2.0390625 C 6.6768672,-4.7453984 6.2549922,-4.9446172 5.7979609,-4.9446172 Z m 0,0.5507813 c 0.65625,0 0.984375,0.6679687 0.984375,1.9921875 0,1.3945312 -0.3164062,2.05078121 -1.0078125,2.05078121 -0.6445312,0 -0.9726562,-0.67968751 -0.9726562,-2.02734371 0,-1.359375 0.328125,-2.015625 0.9960937,-2.015625 z m 0,0"
       style="fill:#000000;fill-opacity:1;fill-rule:nonzero;stroke:none"
       aria-label="10"
       transform="matrix(1.3333333,0,0,1.3333333,56.382667,230.68267)" />
    <path
       id="path13"
       d="M 2.5898359,-3.5265078 H 0.23436719 v 0.4335937 H 2.1328047 C 1.3007734,-1.8976016 0.94921094,-1.1593203 0.69139844,8.359375e-4 H 1.1601484 C 1.3476484,-1.1241641 1.7929609,-2.0968203 2.5898359,-3.1632266 Z m 0,0"
       style="fill:#000000;fill-opacity:1;fill-rule:nonzero;stroke:none"
       aria-label="7"
       transform="matrix(1.3333333,0,0,1.3333333,66.722667,226.67467)" />
    <path
       id="path14"
       d="m 1.8039062,-3.5169375 v 3.515625 h 0.609375 V -4.946625 H 2.0148437 C 1.8039062,-4.1849062 1.6632812,-4.0794375 0.7140625,-3.96225 v 0.4453125 z M 5.8,-4.946625 c -0.46875,0 -0.8789063,0.1992188 -1.1367188,0.5507813 -0.328125,0.421875 -0.4804687,1.0898437 -0.4804687,2.0039062 0,1.6640625 0.5507812,2.5546875 1.6171875,2.5546875 1.0429687,0 1.6171875,-0.890625 1.6171875,-2.5195312 0,-0.9609375 -0.1523438,-1.59375 -0.4804688,-2.0390625 C 6.6789062,-4.7474062 6.2570312,-4.946625 5.8,-4.946625 Z m 0,0.5507813 c 0.65625,0 0.984375,0.6679687 0.984375,1.9921875 0,1.3945312 -0.3164063,2.0507812 -1.0078125,2.0507812 -0.6445313,0 -0.9726563,-0.6796875 -0.9726563,-2.0273437 0,-1.359375 0.328125,-2.015625 0.9960938,-2.015625 z m 0,0"
       style="fill:#000000;fill-opacity:1;fill-rule:nonzero;stroke:none"
       aria-label="10"
       transform="matrix(1.3333333,0,0,1.3333333,157.26667,230.908)" />
    <path
       id="path15"
       d="m 1.9454141,-1.8644531 c 0.3632812,-0.2109375 0.4804687,-0.3984375 0.4804687,-0.7265625 0,-0.5507813 -0.4335937,-0.9375 -1.0546875,-0.9375 -0.62109374,0 -1.06640624,0.3867187 -1.06640624,0.9375 0,0.328125 0.12890625,0.5039062 0.48046875,0.7265625 -0.3984375,0.1992187 -0.59765625,0.4921875 -0.59765625,0.87890623 0,0.65625 0.48046875,1.1015625 1.18359374,1.1015625 0.6914063,0 1.1835938,-0.4453125 1.1835938,-1.08984375 0,-0.39843748 -0.1992188,-0.69140628 -0.609375,-0.89062498 z M 1.3711953,-3.1417969 c 0.375,0 0.609375,0.2226563 0.609375,0.5625 0,0.328125 -0.2460937,0.5507813 -0.609375,0.5507813 -0.37499999,0 -0.60937499,-0.2226563 -0.60937499,-0.5625 0,-0.328125 0.234375,-0.5507813 0.60937499,-0.5507813 z m 0,1.4765625 c 0.4335938,0 0.7382813,0.28125 0.7382813,0.69140628 0,0.421875 -0.3046875,0.703125 -0.75,0.703125 -0.43359379,0 -0.72656254,-0.29296875 -0.72656254,-0.703125 0,-0.41015628 0.29296875,-0.69140628 0.73828124,-0.69140628 z m 0,0"
       style="fill:#000000;fill-opacity:1;fill-rule:nonzero;stroke:none"
       aria-label="8"
       transform="matrix(1.3333333,0,0,1.3333333,167.60533,226.9)" />
    <path
       id="path16"
       d="m 1.8040156,-3.5169375 v 3.515625 h 0.609375 V -4.946625 H 2.0149531 C 1.8040156,-4.1849062 1.6633906,-4.0794375 0.71417188,-3.96225 v 0.4453125 z M 5.8001094,-4.946625 c -0.46875,0 -0.8789063,0.1992188 -1.1367188,0.5507813 -0.328125,0.421875 -0.4804687,1.0898437 -0.4804687,2.0039062 0,1.6640625 0.5507812,2.5546875 1.6171875,2.5546875 1.0429687,0 1.6171875,-0.890625 1.6171875,-2.5195312 0,-0.9609375 -0.1523438,-1.59375 -0.4804688,-2.0390625 C 6.6790156,-4.7474062 6.2571406,-4.946625 5.8001094,-4.946625 Z m 0,0.5507813 c 0.65625,0 0.984375,0.6679687 0.984375,1.9921875 0,1.3945312 -0.3164063,2.0507812 -1.0078125,2.0507812 -0.6445313,0 -0.9726563,-0.6796875 -0.9726563,-2.0273437 0,-1.359375 0.328125,-2.015625 0.9960938,-2.015625 z m 0,0"
       style="fill:#000000;fill-opacity:1;fill-rule:nonzero;stroke:none"
       aria-label="10"
       transform="matrix(1.3333333,0,0,1.3333333,258.14933,230.908)" />
    <path
       id="path17"
       d="m 0.26874219,-0.80976562 c 0.0820313,0.57421875 0.45703125,0.92578125 0.99609371,0.92578125 0.3867188,0 0.7382813,-0.1875 0.9492188,-0.50390625 0.2226562,-0.33984375 0.3164062,-0.77343748 0.3164062,-1.41796878 0,-0.5976562 -0.082031,-0.9726562 -0.2929687,-1.2890625 -0.1992188,-0.28125 -0.5039063,-0.4335937 -0.890625,-0.4335937 -0.67968751,0 -1.16015626,0.4921875 -1.16015626,1.1835937 0,0.65625 0.4453125,1.125 1.08984376,1.125 0.328125,0 0.5742187,-0.1171875 0.8085937,-0.3984375 -0.011719,0.86718753 -0.2929687,1.34765628 -0.7851562,1.34765628 -0.31640626,0 -0.52734376,-0.19921875 -0.59765626,-0.5390625 z M 1.3351484,-3.1535156 c 0.4101563,0 0.7265625,0.3398437 0.7265625,0.796875 0,0.4335937 -0.3046875,0.75 -0.7382812,0.75 -0.42187501,0 -0.69140626,-0.2929688 -0.69140626,-0.7734375 0,-0.4453125 0.3046875,-0.7734375 0.70312496,-0.7734375 z m 0,0"
       style="fill:#000000;fill-opacity:1;fill-rule:nonzero;stroke:none"
       aria-label="9"
       transform="matrix(1.3333333,0,0,1.3333333,268.48933,226.9)" />
    <path
       id="path18"
       d="m 1.8053125,-3.5169375 v 3.515625 h 0.609375 V -4.946625 H 2.01625 C 1.8053125,-4.1849062 1.6646875,-4.0794375 0.71546875,-3.96225 v 0.4453125 z M 5.7984766,-4.946625 c -0.46875,0 -0.8789063,0.1992188 -1.1367188,0.5507813 -0.328125,0.421875 -0.4804687,1.0898437 -0.4804687,2.0039062 0,1.6640625 0.5507812,2.5546875 1.6171875,2.5546875 1.0429687,0 1.6171875,-0.890625 1.6171875,-2.5195312 0,-0.9609375 -0.1523438,-1.59375 -0.4804688,-2.0390625 C 6.6773828,-4.7474062 6.2555078,-4.946625 5.7984766,-4.946625 Z m 0,0.5507813 c 0.65625,0 0.984375,0.6679687 0.984375,1.9921875 0,1.3945312 -0.3164063,2.0507812 -1.0078125,2.0507812 -0.6445313,0 -0.9726563,-0.6796875 -0.9726563,-2.0273437 0,-1.359375 0.328125,-2.015625 0.9960938,-2.015625 z m 0,0"
       style="fill:#000000;fill-opacity:1;fill-rule:nonzero;stroke:none"
       aria-label="10"
       transform="matrix(1.3333333,0,0,1.3333333,357.18667,230.908)" />
    <path
       id="path19"
       d="m 1.2876406,-2.5207031 v 2.51953123 H 1.7212344 V -3.5285156 h -0.28125 c -0.1523438,0.5390625 -0.2578125,0.609375 -0.93750003,0.703125 v 0.3046875 z m 2.8535156,-1.0078125 c -0.328125,0 -0.6328125,0.140625 -0.8085937,0.3867187 C 3.0981875,-2.8371094 2.981,-2.3566406 2.981,-1.7121094 c 0,1.19531253 0.3984375,1.82812503 1.1601562,1.82812503 0.75,0 1.1484375,-0.6328125 1.1484375,-1.79296873 0,-0.6914063 -0.1054687,-1.1484375 -0.3398437,-1.4648438 -0.1875,-0.2460937 -0.4804688,-0.3867187 -0.8085938,-0.3867187 z m 0,0.3867187 c 0.46875,0 0.703125,0.4804688 0.703125,1.4179688 0,1.00781248 -0.2226562,1.47656248 -0.7148437,1.47656248 -0.4570313,0 -0.6914063,-0.4921875 -0.6914063,-1.45312498 0,-0.9726563 0.234375,-1.4414063 0.703125,-1.4414063 z m 0,0"
       style="fill:#000000;fill-opacity:1;fill-rule:nonzero;stroke:none"
       aria-label="10"
       transform="matrix(1.3333333,0,0,1.3333333,367.52533,226.9)" />
    <path
       id="path20"
       d="M 3.5269141,-0.61003125 H 0.92535156 C 0.98394531,-1.0084687 1.2183203,-1.2662812 1.8159766,-1.6295625 l 0.703125,-0.375 c 0.6914062,-0.375 1.0429687,-0.8789062 1.0429687,-1.4882812 0,-0.4101563 -0.1640625,-0.796875 -0.4570312,-1.0664063 -0.2929688,-0.2578125 -0.65625,-0.3867187 -1.125,-0.3867187 -0.6328125,0 -1.08984379,0.2226562 -1.37109379,0.6445312 -0.17578125,0.2578125 -0.24609375,0.5742188 -0.2578125,1.078125 h 0.609375 c 0.0234375,-0.3398437 0.0585938,-0.5390625 0.15234379,-0.703125 0.1523437,-0.3046875 0.4804687,-0.4804687 0.84375,-0.4804687 0.5625,0 0.9726562,0.3984375 0.9726562,0.9257812 0,0.3867188 -0.2226562,0.7265625 -0.6679687,0.9726563 L 1.6284766,-2.1451875 C 0.59722656,-1.55925 0.29253906,-1.0905 0.23394531,-6.5625e-4 H 3.5269141 Z m 1.6875,-0.1171875 H 4.4878516 v 0.7265625 H 5.2144141 Z M 9.1314062,-4.9459687 H 6.5767187 l -0.3632812,2.6953125 h 0.5625 C 7.0689062,-2.5905 7.3032812,-2.7076875 7.6782812,-2.7076875 c 0.6679688,0 1.0898438,0.4453125 1.0898438,1.1835938 0,0.70312495 -0.4101563,1.1367187 -1.0898438,1.1367187 -0.5273437,0 -0.8554687,-0.26953125 -1.0078125,-0.8320312 h -0.609375 c 0.082031,0.4101562 0.1523438,0.60937495 0.2929688,0.7851562 0.28125,0.375 0.7851562,0.59765625 1.3476562,0.59765625 0.9960938,0 1.6875,-0.7265625 1.6875,-1.76953125 0,-0.984375 -0.6445312,-1.6523437 -1.59375,-1.6523437 -0.3515625,0 -0.6328125,0.09375 -0.9140625,0.3046875 L 7.080625,-4.3365937 h 2.0507812 z m 0,0"
       style="fill:#000000;fill-opacity:1;fill-rule:nonzero;stroke:none"
       aria-label="2.5"
       transform="matrix(1.3333333,0,0,1.3333333,15.746667,202.704)" />
    <path
       id="path21"
       d="m 1.5341562,-2.2612578 h 0.082031 L 1.874,-2.2729766 c 0.6796875,0 1.03125,0.3046875 1.03125,0.9023438 0,0.62109374 -0.3867188,0.98437499 -1.03125,0.98437499 -0.6679688,0 -0.99609375,-0.328125 -1.04296875,-1.05468749 h -0.609375 c 0.0234375,0.3984375 0.09375,0.65624999 0.2109375,0.87890624 0.2578125,0.48046875 0.74999995,0.7265625 1.41796875,0.7265625 1.0195312,0 1.6757812,-0.609375 1.6757812,-1.54687504 0,-0.6210937 -0.2460937,-0.9726562 -0.8320312,-1.171875 0.4570312,-0.1875 0.6914062,-0.5390625 0.6914062,-1.03125 0,-0.84375 -0.5742187,-1.359375 -1.5117187,-1.359375 -0.99609375,0 -1.5234375,0.5507813 -1.546875,1.59375 H 0.9365 C 0.9482188,-3.6440703 0.9716563,-3.8081328 1.0536875,-3.9721953 1.1943125,-4.2417266 1.499,-4.4057891 1.8857187,-4.4057891 c 0.5390625,0 0.8671875,0.3164063 0.8671875,0.84375 0,0.3515625 -0.1289062,0.5625 -0.3984375,0.6679688 -0.1640625,0.070312 -0.3867187,0.09375 -0.8203125,0.1054687 z m 0,0"
       style="fill:#000000;fill-opacity:1;fill-rule:nonzero;stroke:none"
       aria-label="3"
       transform="matrix(1.3333333,0,0,1.3333333,23.501333,163.86267)" />
    <path
       id="path22"
       d="m 1.5347266,-2.2630703 h 0.082031 l 0.2578125,-0.011719 c 0.6796875,0 1.03125,0.3046875 1.03125,0.9023438 0,0.62109374 -0.3867187,0.98437499 -1.03125,0.98437499 -0.6679687,0 -0.99609374,-0.328125 -1.04296874,-1.05468749 h -0.609375 c 0.0234375,0.3984375 0.09375,0.65624999 0.2109375,0.87890624 0.2578125,0.48046875 0.75000004,0.7265625 1.41796874,0.7265625 1.0195313,0 1.6757813,-0.609375 1.6757813,-1.54687504 0,-0.6210937 -0.2460938,-0.9726562 -0.8320313,-1.171875 0.4570313,-0.1875 0.6914063,-0.5390625 0.6914063,-1.03125 0,-0.84375 -0.5742188,-1.359375 -1.5117188,-1.359375 -0.99609374,0 -1.52343749,0.5507813 -1.54687499,1.59375 h 0.609375 c 0.0117188,-0.2929687 0.0351563,-0.4570312 0.11718749,-0.6210937 0.140625,-0.2695313 0.4453125,-0.4335938 0.8320313,-0.4335938 0.5390625,0 0.8671875,0.3164063 0.8671875,0.84375 0,0.3515625 -0.1289063,0.5625 -0.3984375,0.6679688 -0.1640625,0.070312 -0.3867188,0.09375 -0.8203125,0.1054687 z m 3.6796875,1.53515624 H 4.4878516 v 0.7265625 H 5.2144141 Z M 9.1314062,-4.9466641 H 6.5767187 l -0.3632812,2.6953125 h 0.5625 c 0.2929687,-0.3398437 0.5273437,-0.4570312 0.9023437,-0.4570312 0.6679688,0 1.0898438,0.4453125 1.0898438,1.1835937 0,0.70312504 -0.4101563,1.13671879 -1.0898438,1.13671879 -0.5273437,0 -0.8554687,-0.26953125 -1.0078125,-0.83203129 h -0.609375 c 0.082031,0.41015629 0.1523438,0.60937504 0.2929688,0.78515629 0.28125,0.375 0.7851562,0.59765625 1.3476562,0.59765625 0.9960938,0 1.6875,-0.7265625 1.6875,-1.76953124 0,-0.984375 -0.6445312,-1.6523438 -1.59375,-1.6523438 -0.3515625,0 -0.6328125,0.09375 -0.9140625,0.3046875 L 7.080625,-4.3372891 h 2.0507812 z m 0,0"
       style="fill:#000000;fill-opacity:1;fill-rule:nonzero;stroke:none"
       aria-label="3.5"
       transform="matrix(1.3333333,0,0,1.3333333,15.746667,125.02133)" />
    <path
       id="path23"
       d="M 2.2847266,-1.1828281 V 7.65625e-4 h 0.609375 V -1.1828281 H 3.6206641 V -1.7336094 H 2.8941016 V -4.9445469 H 2.4370703 l -2.23828124,3.1171875 v 0.6445313 z m 0,-0.5507813 H 0.72613281 L 2.2847266,-3.9015781 Z m 2.9296875,1.00781253 H 4.4878516 V 7.65625e-4 H 5.2144141 Z M 7.736875,-4.9445469 c -0.46875,0 -0.8789063,0.1992188 -1.1367188,0.5507813 -0.328125,0.421875 -0.4804687,1.0898437 -0.4804687,2.0039062 0,1.66406253 0.5507812,2.55468753 1.6171875,2.55468753 1.0429687,0 1.6171875,-0.890625 1.6171875,-2.51953123 0,-0.9609375 -0.1523438,-1.59375 -0.4804688,-2.0390625 C 8.6157812,-4.7453281 8.1939062,-4.9445469 7.736875,-4.9445469 Z m 0,0.5507813 c 0.65625,0 0.984375,0.6679687 0.984375,1.9921875 0,1.3945312 -0.3164063,2.05078123 -1.0078125,2.05078123 -0.6445313,0 -0.9726563,-0.67968753 -0.9726563,-2.02734373 0,-1.359375 0.328125,-2.015625 0.9960938,-2.015625 z m 0,0"
       style="fill:#000000;fill-opacity:1;fill-rule:nonzero;stroke:none"
       aria-label="4.0"
       transform="matrix(1.3333333,0,0,1.3333333,15.746667,86.178667)" />
    <path
       id="path24"
       d="m 2.2847266,-1.1846406 v 1.18359373 h 0.609375 V -1.1846406 H 3.6206641 V -1.7354219 H 2.8941016 V -4.9463594 H 2.4370703 l -2.23828124,3.1171875 v 0.6445313 z m 0,-0.5507813 H 0.72613281 L 2.2847266,-3.9033906 Z m 2.9296875,1.00781253 H 4.4878516 v 0.7265625 H 5.2144141 Z M 9.1314062,-4.9463594 H 6.5767187 l -0.3632812,2.6953125 h 0.5625 c 0.2929687,-0.3398437 0.5273437,-0.4570312 0.9023437,-0.4570312 0.6679688,0 1.0898438,0.4453125 1.0898438,1.1835937 0,0.70312503 -0.4101563,1.13671878 -1.0898438,1.13671878 -0.5273437,0 -0.8554687,-0.26953125 -1.0078125,-0.83203128 h -0.609375 c 0.082031,0.41015628 0.1523438,0.60937503 0.2929688,0.78515628 0.28125,0.375 0.7851562,0.59765625 1.3476562,0.59765625 0.9960938,0 1.6875,-0.7265625 1.6875,-1.76953123 0,-0.984375 -0.6445312,-1.6523438 -1.59375,-1.6523438 -0.3515625,0 -0.6328125,0.09375 -0.9140625,0.3046875 L 7.080625,-4.3369844 h 2.0507812 z m 0,0"
       style="fill:#000000;fill-opacity:1;fill-rule:nonzero;stroke:none"
       aria-label="4.5"
       transform="matrix(1.3333333,0,0,1.3333333,15.746667,47.337333)" />
    <path
       id="path25"
       d="m 542.96597,133.7138 c 0,0 17.07517,-5.6661 23.31894,-7.28288 6.24376,-1.61677 15.67037,-3.39967 21.68183,-4.36973 6.01147,-0.97005 9.5904,-1.85389 21.64473,-2.62184 12.05433,-0.76796 39.82679,-2.42813 65.23454,-2.91315 25.40773,-0.48502 117.88678,-0.58263 117.88678,-0.58263"
       style="fill:none;stroke:#1f77b4;stroke-width:0.99628;stroke-linecap:butt;stroke-linejoin:miter;stroke-miterlimit:10;stroke-dasharray:2.98883, 1.99255;stroke-dashoffset:0;stroke-opacity:1"
       transform="matrix(1.3333333,0,0,-1.3333333,-642.45067,215.02267)"
       clip-path="url(#clipPath26)" />
    <path
       id="path27"
       d="m 542.96597,125.8483 c 0,0 17.07517,-9.16338 23.31894,-12.23526 6.24376,-3.07187 15.67037,-7.5604 21.68183,-9.90473 6.01147,-2.34433 15.64426,-5.2697 21.64473,-6.99157 6.00048,-1.72187 15.54989,-4.23824 21.60263,-5.41848 6.05272,-1.18022 15.96743,-2.45741 22.02127,-3.08793 6.05385,-0.63054 2.25563,-0.98772 21.61064,-1.45659 19.35499,-0.46886 117.88678,-1.92269 117.88678,-1.92269"
       style="fill:none;stroke:#ff7f0e;stroke-width:0.99628;stroke-linecap:butt;stroke-linejoin:miter;stroke-miterlimit:10;stroke-dasharray:2.98883, 1.99255;stroke-dashoffset:0;stroke-opacity:1"
       transform="matrix(1.3333333,0,0,-1.3333333,-642.45067,215.02267)"
       clip-path="url(#clipPath28)" />
    <path
       id="path29"
       d="m 542.96597,123.51778 c 0,0 17.07517,-10.76636 23.31894,-14.56578 6.24376,-3.79944 15.67037,-9.42266 21.68183,-12.81789 6.01147,-3.39522 15.64426,-8.66159 21.64473,-11.65262 6.00048,-2.99103 15.54989,-7.43106 21.60263,-9.90472 6.05272,-2.47367 15.96743,-6.02408 22.02127,-7.9238 6.05385,-1.8997 12.75378,-4.22401 21.61064,-5.76804 8.85686,-1.54402 25.86691,-4.29315 42.22348,-5.36021 16.35657,-1.06708 75.6633,-2.33052 75.6633,-2.33052"
       style="fill:none;stroke:#2ca02c;stroke-width:0.99628;stroke-linecap:butt;stroke-linejoin:miter;stroke-miterlimit:10;stroke-dasharray:2.98883, 1.99255;stroke-dashoffset:0;stroke-opacity:1"
       transform="matrix(1.3333333,0,0,-1.3333333,-642.45067,215.02267)"
       clip-path="url(#clipPath30)" />
    <path
       id="path31"
       d="m 542.96597,123.51778 c 0,0 17.07517,-10.60468 23.31894,-14.56578 6.24376,-3.96111 15.67037,-10.18372 21.68183,-13.98314 6.01147,-3.79944 15.64426,-9.91637 21.64473,-13.40053 6.00048,-3.48415 15.54989,-8.63901 21.60263,-11.71088 6.05272,-3.07188 15.96743,-7.7695 22.02127,-10.42909 6.05385,-2.65961 15.59172,-6.67 21.61064,-8.73947 6.01892,-2.06947 13.58211,-4.43787 21.76958,-6.17589 8.18746,-1.73804 28.9127,-5.1866 37.24,-6.35068 8.32729,-1.16407 14.60831,-1.69969 22.77741,-2.0392 8.1691,-0.33952 36.09979,-0.40786 36.09979,-0.40786"
       style="fill:none;stroke:#d62728;stroke-width:0.99628;stroke-linecap:butt;stroke-linejoin:miter;stroke-miterlimit:10;stroke-dasharray:2.98883, 1.99255;stroke-dashoffset:0;stroke-opacity:1"
       transform="matrix(1.3333333,0,0,-1.3333333,-642.45067,215.02267)"
       clip-path="url(#clipPath32)" />
    <path
       id="path33"
       d="m 542.96597,123.51778 c 0,0 17.07517,-10.60468 23.31894,-14.56578 6.24376,-3.96111 15.67037,-10.18372 21.68183,-13.98314 6.01147,-3.79944 15.64426,-9.65769 21.64473,-13.40053 6.00048,-3.74283 15.54989,-9.93756 21.60263,-13.5753 6.05272,-3.63774 15.96743,-9.30445 22.02127,-12.64308 6.05385,-3.33866 15.59172,-8.50939 21.61064,-11.41959 6.01892,-2.91019 14.59942,-6.93596 21.76958,-9.55513 7.17015,-2.61919 21.58062,-7.30113 29.90791,-9.3221 8.3273,-2.02096 20.9231,-4.11193 30.1095,-5.24368 9.1864,-1.13175 36.09979,-2.91316 36.09979,-2.91316"
       style="fill:none;stroke:#9467bd;stroke-width:0.99628;stroke-linecap:butt;stroke-linejoin:miter;stroke-miterlimit:10;stroke-dasharray:2.98883, 1.99255;stroke-dashoffset:0;stroke-opacity:1"
       transform="matrix(1.3333333,0,0,-1.3333333,-642.45067,215.02267)"
       clip-path="url(#clipPath34)" />
    <path
       id="path35"
       d="m 542.96597,123.51778 c 0,0 17.07517,-10.60468 23.31894,-14.56578 6.24376,-3.96111 15.67037,-10.18372 21.68183,-13.98314 6.01147,-3.79944 15.64426,-9.56876 21.64473,-13.40053 6.00048,-3.83176 15.54989,-10.36018 21.60263,-14.2162 6.05272,-3.85601 15.96743,-9.99414 22.02127,-13.57531 6.05385,-3.58116 15.59172,-8.97744 21.61064,-12.23526 6.01892,-3.25779 14.59942,-7.98695 21.76958,-11.24476 7.17015,-3.2578 21.58062,-9.40589 29.90791,-12.23525 8.3273,-2.82935 20.9231,-6.37838 30.1095,-8.15683 9.1864,-1.77845 36.09979,-4.66105 36.09979,-4.66105"
       style="fill:none;stroke:#8c564b;stroke-width:0.99628;stroke-linecap:butt;stroke-linejoin:miter;stroke-miterlimit:10;stroke-dasharray:2.98883, 1.99255;stroke-dashoffset:0;stroke-opacity:1"
       transform="matrix(1.3333333,0,0,-1.3333333,-642.45067,215.02267)"
       clip-path="url(#clipPath36)" />
    <path
       id="path37"
       d="M 521.24083,65.74478 H 551.5583 V 77.43494 H 521.24083 Z"
       style="fill:#ffffff;fill-opacity:1;fill-rule:nonzero;stroke:none"
       transform="matrix(1.3333333,0,0,-1.3333333,-642.45067,215.02267)"
       clip-path="url(#clipPath38)" />
    <path
       id="path39"
       d="m 1.2781172,-2.1552266 h 1.6054687 c 0.3984375,0 0.703125,-0.1171875 0.984375,-0.3632812 0.3046875,-0.28125 0.4335938,-0.609375 0.4335938,-1.0664063 0,-0.9609375 -0.5625,-1.5 -1.5703125,-1.5 H 0.63358594 V 0.00102344 H 1.2781172 Z m 0,-0.5742187 v -1.78125 h 1.359375 c 0.6210937,0 0.984375,0.3398437 0.984375,0.890625 0,0.5625 -0.3632813,0.890625 -0.984375,0.890625 z m 6.8203125,2.39062499 c -0.058594,0.0117188 -0.082031,0.0117188 -0.1171875,0.0117188 -0.2109375,0 -0.3164063,-0.10546875 -0.3164063,-0.28125 V -2.7646016 c 0,-0.6445312 -0.4804687,-0.9960937 -1.3710937,-0.9960937 -0.5390625,0 -0.9726563,0.1523437 -1.21875,0.4335937 -0.1640625,0.1875 -0.234375,0.3984375 -0.2460938,0.75 h 0.5859375 c 0.046875,-0.4453125 0.3046875,-0.6445312 0.8554688,-0.6445312 0.515625,0 0.8085937,0.1992187 0.8085937,0.5507812 v 0.1523438 c 0,0.234375 -0.140625,0.3398437 -0.5976562,0.3984375 -0.8320313,0.1054687 -0.9492188,0.1289062 -1.171875,0.2226562 -0.4335938,0.1757813 -0.6445313,0.5039063 -0.6445313,0.97265629 0,0.66796875 0.4570313,1.08984375 1.1953125,1.08984375 0.46875,0 0.8320313,-0.1640625 1.2421875,-0.5390625 0.046875,0.36328125 0.2226563,0.5390625 0.5976563,0.5390625 0.1289062,0 0.2109375,-0.0234375 0.3984375,-0.0703125 z M 7.0788984,-1.1474141 c 0,0.18750004 -0.046875,0.31640629 -0.2226562,0.46875004 -0.234375,0.22265625 -0.5273438,0.328125 -0.8671875,0.328125 -0.4570313,0 -0.7148438,-0.2109375 -0.7148438,-0.5859375 0,-0.37500004 0.2578125,-0.57421874 0.8789063,-0.66796874 0.609375,-0.082031 0.7382812,-0.1054688 0.9257812,-0.1992188 z M 8.7312422,-3.6552266 V 0.00102344 H 9.3171797 V -1.8974141 c 0,-0.515625 0.1289062,-0.8671875 0.4101562,-1.0664062 0.1875,-0.1289063 0.3515621,-0.1757813 0.7617191,-0.1757813 v -0.5976562 c -0.09375,-0.011719 -0.140625,-0.023437 -0.222657,-0.023437 -0.3749996,0 -0.6679683,0.2226562 -0.9960933,0.7734375 v -0.6679688 z m 5.4990238,3.31640629 c -0.05859,0.0117188 -0.08203,0.0117188 -0.117188,0.0117188 -0.210937,0 -0.316406,-0.10546875 -0.316406,-0.28125 V -2.7646016 c 0,-0.6445312 -0.480469,-0.9960937 -1.371094,-0.9960937 -0.539062,0 -0.972656,0.1523437 -1.21875,0.4335937 -0.164062,0.1875 -0.234375,0.3984375 -0.246094,0.75 h 0.585938 c 0.04687,-0.4453125 0.304687,-0.6445312 0.855469,-0.6445312 0.515625,0 0.808593,0.1992187 0.808593,0.5507812 v 0.1523438 c 0,0.234375 -0.140625,0.3398437 -0.597656,0.3984375 -0.832031,0.1054687 -0.949219,0.1289062 -1.171875,0.2226562 -0.433594,0.1757813 -0.644531,0.5039063 -0.644531,0.97265629 0,0.66796875 0.457031,1.08984375 1.195312,1.08984375 0.46875,0 0.832032,-0.1640625 1.242188,-0.5390625 0.04687,0.36328125 0.222656,0.5390625 0.597656,0.5390625 0.128906,0 0.210938,-0.0234375 0.398438,-0.0703125 z M 13.210734,-1.1474141 c 0,0.18750004 -0.04687,0.31640629 -0.222656,0.46875004 -0.234375,0.22265625 -0.527344,0.328125 -0.867187,0.328125 -0.457032,0 -0.714844,-0.2109375 -0.714844,-0.5859375 0,-0.37500004 0.257812,-0.57421874 0.878906,-0.66796874 0.609375,-0.082031 0.738281,-0.1054688 0.925781,-0.1992188 z m 1.661133,-2.5078125 v 3.65625004 h 0.585938 V -2.2958516 c 0,-0.5273437 0.375,-0.9492187 0.855468,-0.9492187 0.433594,0 0.679688,0.2578125 0.679688,0.7265625 v 2.51953124 h 0.585937 V -2.2958516 c 0,-0.5273437 0.375,-0.9492187 0.855469,-0.9492187 0.421875,0 0.667969,0.2695312 0.667969,0.7265625 v 2.51953124 h 0.585937 V -2.7411641 c 0,-0.65625 -0.375,-1.0195312 -1.054687,-1.0195312 -0.492188,0 -0.785156,0.1523437 -1.125,0.5625 -0.210938,-0.3867188 -0.503906,-0.5625 -0.984375,-0.5625 -0.480469,0 -0.808594,0.1875 -1.125,0.6210937 v -0.515625 z m 8.375977,1.0195313 c -0.01172,-0.7148438 -0.480469,-1.125 -1.324219,-1.125 -0.855469,0 -1.40625,0.4453125 -1.40625,1.1132812 0,0.5742188 0.292969,0.84375 1.160156,1.0546875 l 0.539063,0.140625 c 0.410156,0.09375 0.5625,0.234375 0.5625,0.50390629 0,0.33984375 -0.339844,0.57421875 -0.84375,0.57421875 -0.316406,0 -0.585938,-0.09375 -0.726563,-0.24609375 -0.09375,-0.10546875 -0.128906,-0.2109375 -0.164062,-0.46874999 h -0.621094 c 0.03516,0.84374999 0.503906,1.25390624 1.464844,1.25390624 0.914062,0 1.5,-0.45703125 1.5,-1.16015625 0,-0.53906249 -0.304688,-0.84374999 -1.03125,-1.01953129 l -0.5625,-0.1289062 c -0.46875,-0.1171875 -0.667969,-0.2695313 -0.667969,-0.5273438 0,-0.328125 0.292969,-0.5507812 0.773438,-0.5507812 0.46875,0 0.714843,0.1992187 0.726562,0.5859375 z m 0,0"
       style="fill:#000000;fill-opacity:1;fill-rule:nonzero;stroke:none"
       aria-label="Params"
       transform="matrix(1.3333333,0,0,1.3333333,56.956,122.83067)"
       clip-path="url(#clipPath40)" />
    <path
       id="path41"
       d="m 568.0284,136.62697 c 0,0.9629 -0.78058,1.74348 -1.74349,1.74348 -0.96292,0 -1.74348,-0.78058 -1.74348,-1.74348 0,-0.96291 0.78056,-1.74349 1.74348,-1.74349 0.96291,0 1.74349,0.78058 1.74349,1.74349 z"
       style="fill:#1f77b4;fill-opacity:1;fill-rule:nonzero;stroke:#1f77b4;stroke-width:0.99628;stroke-linecap:butt;stroke-linejoin:miter;stroke-miterlimit:10;stroke-dasharray:none;stroke-opacity:1"
       transform="matrix(1.3333333,0,0,-1.3333333,-642.45067,215.02267)" />
    <path
       id="path42"
       d="m 568.0284,127.01355 c 0,0.96292 -0.78058,1.74348 -1.74349,1.74348 -0.96292,0 -1.74348,-0.78056 -1.74348,-1.74348 0,-0.96291 0.78056,-1.74348 1.74348,-1.74348 0.96291,0 1.74349,0.78057 1.74349,1.74348 z"
       style="fill:#1f77b4;fill-opacity:1;fill-rule:nonzero;stroke:#1f77b4;stroke-width:0.99628;stroke-linecap:butt;stroke-linejoin:miter;stroke-miterlimit:10;stroke-dasharray:none;stroke-opacity:1"
       transform="matrix(1.3333333,0,0,-1.3333333,-642.45067,215.02267)" />
    <path
       id="path43"
       d="m 589.71022,123.22646 c 0,0.9629 -0.78056,1.74348 -1.74348,1.74348 -0.96291,0 -1.74349,-0.78058 -1.74349,-1.74348 0,-0.96291 0.78058,-1.74349 1.74349,-1.74349 0.96292,0 1.74348,0.78058 1.74348,1.74349 z"
       style="fill:#1f77b4;fill-opacity:1;fill-rule:nonzero;stroke:#1f77b4;stroke-width:0.99628;stroke-linecap:butt;stroke-linejoin:miter;stroke-miterlimit:10;stroke-dasharray:none;stroke-opacity:1"
       transform="matrix(1.3333333,0,0,-1.3333333,-642.45067,215.02267)" />
    <path
       id="path44"
       d="m 611.35495,118.85672 c 0,0.96291 -0.78056,1.74348 -1.74348,1.74348 -0.96291,0 -1.74349,-0.78057 -1.74349,-1.74348 0,-0.96291 0.78058,-1.74348 1.74349,-1.74348 0.96292,0 1.74348,0.78057 1.74348,1.74348 z"
       style="fill:#1f77b4;fill-opacity:1;fill-rule:nonzero;stroke:#1f77b4;stroke-width:0.99628;stroke-linecap:butt;stroke-linejoin:miter;stroke-miterlimit:10;stroke-dasharray:none;stroke-opacity:1"
       transform="matrix(1.3333333,0,0,-1.3333333,-642.45067,215.02267)" />
    <path
       id="path45"
       d="m 676.5895,115.94357 c 0,0.96291 -0.78059,1.74349 -1.74349,1.74349 -0.96291,0 -1.74349,-0.78058 -1.74349,-1.74349 0,-0.96292 0.78058,-1.74348 1.74349,-1.74348 0.9629,0 1.74349,0.78056 1.74349,1.74348 z"
       style="fill:#1f77b4;fill-opacity:1;fill-rule:nonzero;stroke:#1f77b4;stroke-width:0.99628;stroke-linecap:butt;stroke-linejoin:miter;stroke-miterlimit:10;stroke-dasharray:none;stroke-opacity:1"
       transform="matrix(1.3333333,0,0,-1.3333333,-642.45067,215.02267)" />
    <path
       id="path46"
       d="m 785.74527,115.36093 c 0,0.96291 -0.78058,1.74349 -1.74348,1.74349 -0.96291,0 -1.74349,-0.78058 -1.74349,-1.74349 0,-0.9629 0.78058,-1.74348 1.74349,-1.74348 0.9629,0 1.74348,0.78058 1.74348,1.74348 z"
       style="fill:#1f77b4;fill-opacity:1;fill-rule:nonzero;stroke:#1f77b4;stroke-width:0.99628;stroke-linecap:butt;stroke-linejoin:miter;stroke-miterlimit:10;stroke-dasharray:none;stroke-opacity:1"
       transform="matrix(1.3333333,0,0,-1.3333333,-642.45067,215.02267)" />
    <path
       id="path47"
       d="m 568.0284,113.61304 c 0,0.9629 -0.78058,1.74348 -1.74349,1.74348 -0.96292,0 -1.74348,-0.78058 -1.74348,-1.74348 0,-0.96291 0.78056,-1.74349 1.74348,-1.74349 0.96291,0 1.74349,0.78058 1.74349,1.74349 z"
       style="fill:#ff7f0e;fill-opacity:1;fill-rule:nonzero;stroke:#ff7f0e;stroke-width:0.99628;stroke-linecap:butt;stroke-linejoin:miter;stroke-miterlimit:10;stroke-dasharray:none;stroke-opacity:1"
       transform="matrix(1.3333333,0,0,-1.3333333,-642.45067,215.02267)" />
    <path
       id="path48"
       d="m 589.71022,104.87358 c 0,0.96291 -0.78056,1.74349 -1.74348,1.74349 -0.96291,0 -1.74349,-0.78058 -1.74349,-1.74349 0,-0.9629 0.78058,-1.74348 1.74349,-1.74348 0.96292,0 1.74348,0.78058 1.74348,1.74348 z"
       style="fill:#ff7f0e;fill-opacity:1;fill-rule:nonzero;stroke:#ff7f0e;stroke-width:0.99628;stroke-linecap:butt;stroke-linejoin:miter;stroke-miterlimit:10;stroke-dasharray:none;stroke-opacity:1"
       transform="matrix(1.3333333,0,0,-1.3333333,-642.45067,215.02267)" />
    <path
       id="path49"
       d="m 611.35495,94.96886 c 0,0.9629 -0.78056,1.74348 -1.74348,1.74348 -0.96291,0 -1.74349,-0.78058 -1.74349,-1.74348 0,-0.96292 0.78058,-1.74349 1.74349,-1.74349 0.96292,0 1.74348,0.78057 1.74348,1.74349 z"
       style="fill:#ff7f0e;fill-opacity:1;fill-rule:nonzero;stroke:#ff7f0e;stroke-width:0.99628;stroke-linecap:butt;stroke-linejoin:miter;stroke-miterlimit:10;stroke-dasharray:none;stroke-opacity:1"
       transform="matrix(1.3333333,0,0,-1.3333333,-642.45067,215.02267)" />
    <path
       id="path50"
       d="m 632.95758,91.29826 c 0,0.96292 -0.78058,1.74349 -1.74348,1.74349 -0.96291,0 -1.74349,-0.78057 -1.74349,-1.74349 0,-0.9629 0.78058,-1.74348 1.74349,-1.74348 0.9629,0 1.74348,0.78058 1.74348,1.74348 z"
       style="fill:#ff7f0e;fill-opacity:1;fill-rule:nonzero;stroke:#ff7f0e;stroke-width:0.99628;stroke-linecap:butt;stroke-linejoin:miter;stroke-miterlimit:10;stroke-dasharray:none;stroke-opacity:1"
       transform="matrix(1.3333333,0,0,-1.3333333,-642.45067,215.02267)" />
    <path
       id="path51"
       d="m 654.97885,89.55038 c 0,0.96291 -0.78056,1.74349 -1.74348,1.74349 -0.96291,0 -1.74349,-0.78058 -1.74349,-1.74349 0,-0.96292 0.78058,-1.74348 1.74349,-1.74348 0.96292,0 1.74348,0.78056 1.74348,1.74348 z"
       style="fill:#ff7f0e;fill-opacity:1;fill-rule:nonzero;stroke:#ff7f0e;stroke-width:0.99628;stroke-linecap:butt;stroke-linejoin:miter;stroke-miterlimit:10;stroke-dasharray:none;stroke-opacity:1"
       transform="matrix(1.3333333,0,0,-1.3333333,-642.45067,215.02267)" />
    <path
       id="path52"
       d="m 676.5895,87.39465 c 0,0.96291 -0.78059,1.74349 -1.74349,1.74349 -0.96291,0 -1.74349,-0.78058 -1.74349,-1.74349 0,-0.96292 0.78058,-1.74348 1.74349,-1.74348 0.9629,0 1.74349,0.78056 1.74349,1.74348 z"
       style="fill:#ff7f0e;fill-opacity:1;fill-rule:nonzero;stroke:#ff7f0e;stroke-width:0.99628;stroke-linecap:butt;stroke-linejoin:miter;stroke-miterlimit:10;stroke-dasharray:none;stroke-opacity:1"
       transform="matrix(1.3333333,0,0,-1.3333333,-642.45067,215.02267)" />
    <path
       id="path53"
       d="m 785.74527,85.64676 c 0,0.9629 -0.78058,1.74348 -1.74348,1.74348 -0.96291,0 -1.74349,-0.78058 -1.74349,-1.74348 0,-0.96292 0.78058,-1.74349 1.74349,-1.74349 0.9629,0 1.74348,0.78057 1.74348,1.74349 z"
       style="fill:#ff7f0e;fill-opacity:1;fill-rule:nonzero;stroke:#ff7f0e;stroke-width:0.99628;stroke-linecap:butt;stroke-linejoin:miter;stroke-miterlimit:10;stroke-dasharray:none;stroke-opacity:1"
       transform="matrix(1.3333333,0,0,-1.3333333,-642.45067,215.02267)" />
    <path
       id="path54"
       d="m 568.0284,113.61304 c 0,0.9629 -0.78058,1.74348 -1.74349,1.74348 -0.96292,0 -1.74348,-0.78058 -1.74348,-1.74348 0,-0.96291 0.78056,-1.74349 1.74348,-1.74349 0.96291,0 1.74349,0.78058 1.74349,1.74349 z"
       style="fill:#2ca02c;fill-opacity:1;fill-rule:nonzero;stroke:#2ca02c;stroke-width:0.99628;stroke-linecap:butt;stroke-linejoin:miter;stroke-miterlimit:10;stroke-dasharray:none;stroke-opacity:1"
       transform="matrix(1.3333333,0,0,-1.3333333,-642.45067,215.02267)" />
    <path
       id="path55"
       d="m 589.71022,95.60974 c 0,0.96291 -0.78056,1.74349 -1.74348,1.74349 -0.96291,0 -1.74349,-0.78058 -1.74349,-1.74349 0,-0.96292 0.78058,-1.74348 1.74349,-1.74348 0.96292,0 1.74348,0.78056 1.74348,1.74348 z"
       style="fill:#2ca02c;fill-opacity:1;fill-rule:nonzero;stroke:#2ca02c;stroke-width:0.99628;stroke-linecap:butt;stroke-linejoin:miter;stroke-miterlimit:10;stroke-dasharray:none;stroke-opacity:1"
       transform="matrix(1.3333333,0,0,-1.3333333,-642.45067,215.02267)" />
    <path
       id="path56"
       d="m 611.35495,83.60754 c 0,0.96291 -0.78056,1.74349 -1.74348,1.74349 -0.96291,0 -1.74349,-0.78058 -1.74349,-1.74349 0,-0.9629 0.78058,-1.74348 1.74349,-1.74348 0.96292,0 1.74348,0.78058 1.74348,1.74348 z"
       style="fill:#2ca02c;fill-opacity:1;fill-rule:nonzero;stroke:#2ca02c;stroke-width:0.99628;stroke-linecap:butt;stroke-linejoin:miter;stroke-miterlimit:10;stroke-dasharray:none;stroke-opacity:1"
       transform="matrix(1.3333333,0,0,-1.3333333,-642.45067,215.02267)" />
    <path
       id="path57"
       d="m 632.95758,73.81934 c 0,0.9629 -0.78058,1.74348 -1.74348,1.74348 -0.96291,0 -1.74349,-0.78058 -1.74349,-1.74348 0,-0.96291 0.78058,-1.74349 1.74349,-1.74349 0.9629,0 1.74348,0.78058 1.74348,1.74349 z"
       style="fill:#2ca02c;fill-opacity:1;fill-rule:nonzero;stroke:#2ca02c;stroke-width:0.99628;stroke-linecap:butt;stroke-linejoin:miter;stroke-miterlimit:10;stroke-dasharray:none;stroke-opacity:1"
       transform="matrix(1.3333333,0,0,-1.3333333,-642.45067,215.02267)" />
    <path
       id="path58"
       d="m 654.97885,64.96335 c 0,0.9629 -0.78056,1.74348 -1.74348,1.74348 -0.96291,0 -1.74349,-0.78058 -1.74349,-1.74348 0,-0.96291 0.78058,-1.74349 1.74349,-1.74349 0.96292,0 1.74348,0.78058 1.74348,1.74349 z"
       style="fill:#2ca02c;fill-opacity:1;fill-rule:nonzero;stroke:#2ca02c;stroke-width:0.99628;stroke-linecap:butt;stroke-linejoin:miter;stroke-miterlimit:10;stroke-dasharray:none;stroke-opacity:1"
       transform="matrix(1.3333333,0,0,-1.3333333,-642.45067,215.02267)" />
    <path
       id="path59"
       d="m 676.5895,59.71967 c 0,0.96292 -0.78059,1.74348 -1.74349,1.74348 -0.96291,0 -1.74349,-0.78056 -1.74349,-1.74348 0,-0.96291 0.78058,-1.74349 1.74349,-1.74349 0.9629,0 1.74349,0.78058 1.74349,1.74349 z"
       style="fill:#2ca02c;fill-opacity:1;fill-rule:nonzero;stroke:#2ca02c;stroke-width:0.99628;stroke-linecap:butt;stroke-linejoin:miter;stroke-miterlimit:10;stroke-dasharray:none;stroke-opacity:1"
       transform="matrix(1.3333333,0,0,-1.3333333,-642.45067,215.02267)" />
    <path
       id="path60"
       d="m 785.74527,56.5152 c 0,0.9629 -0.78058,1.74348 -1.74348,1.74348 -0.96291,0 -1.74349,-0.78058 -1.74349,-1.74348 0,-0.96291 0.78058,-1.74349 1.74349,-1.74349 0.9629,0 1.74348,0.78058 1.74348,1.74349 z"
       style="fill:#2ca02c;fill-opacity:1;fill-rule:nonzero;stroke:#2ca02c;stroke-width:0.99628;stroke-linecap:butt;stroke-linejoin:miter;stroke-miterlimit:10;stroke-dasharray:none;stroke-opacity:1"
       transform="matrix(1.3333333,0,0,-1.3333333,-642.45067,215.02267)" />
    <path
       id="path61"
       d="m 568.0284,111.28252 c 0,0.9629 -0.78058,1.74348 -1.74349,1.74348 -0.96292,0 -1.74348,-0.78058 -1.74348,-1.74348 0,-0.96291 0.78056,-1.74349 1.74348,-1.74349 0.96291,0 1.74349,0.78058 1.74349,1.74349 z"
       style="fill:#d62728;fill-opacity:1;fill-rule:nonzero;stroke:#d62728;stroke-width:0.99628;stroke-linecap:butt;stroke-linejoin:miter;stroke-miterlimit:10;stroke-dasharray:none;stroke-opacity:1"
       transform="matrix(1.3333333,0,0,-1.3333333,-642.45067,215.02267)" />
    <path
       id="path62"
       d="m 589.71022,95.60974 c 0,0.96291 -0.78056,1.74349 -1.74348,1.74349 -0.96291,0 -1.74349,-0.78058 -1.74349,-1.74349 0,-0.96292 0.78058,-1.74348 1.74349,-1.74348 0.96292,0 1.74348,0.78056 1.74348,1.74348 z"
       style="fill:#d62728;fill-opacity:1;fill-rule:nonzero;stroke:#d62728;stroke-width:0.99628;stroke-linecap:butt;stroke-linejoin:miter;stroke-miterlimit:10;stroke-dasharray:none;stroke-opacity:1"
       transform="matrix(1.3333333,0,0,-1.3333333,-642.45067,215.02267)" />
    <path
       id="path63"
       d="m 611.35495,80.9857 c 0,0.96291 -0.78056,1.74349 -1.74348,1.74349 -0.96291,0 -1.74349,-0.78058 -1.74349,-1.74349 0,-0.9629 0.78058,-1.74348 1.74349,-1.74348 0.96292,0 1.74348,0.78058 1.74348,1.74348 z"
       style="fill:#d62728;fill-opacity:1;fill-rule:nonzero;stroke:#d62728;stroke-width:0.99628;stroke-linecap:butt;stroke-linejoin:miter;stroke-miterlimit:10;stroke-dasharray:none;stroke-opacity:1"
       transform="matrix(1.3333333,0,0,-1.3333333,-642.45067,215.02267)" />
    <path
       id="path64"
       d="m 632.95758,68.28435 c 0,0.9629 -0.78058,1.74348 -1.74348,1.74348 -0.96291,0 -1.74349,-0.78058 -1.74349,-1.74348 0,-0.96291 0.78058,-1.74349 1.74349,-1.74349 0.9629,0 1.74348,0.78058 1.74348,1.74349 z"
       style="fill:#d62728;fill-opacity:1;fill-rule:nonzero;stroke:#d62728;stroke-width:0.99628;stroke-linecap:butt;stroke-linejoin:miter;stroke-miterlimit:10;stroke-dasharray:none;stroke-opacity:1"
       transform="matrix(1.3333333,0,0,-1.3333333,-642.45067,215.02267)" />
    <path
       id="path65"
       d="m 654.97885,58.84572 c 0,0.96292 -0.78056,1.74348 -1.74348,1.74348 -0.96291,0 -1.74349,-0.78056 -1.74349,-1.74348 0,-0.96291 0.78058,-1.74349 1.74349,-1.74349 0.96292,0 1.74348,0.78058 1.74348,1.74349 z"
       style="fill:#d62728;fill-opacity:1;fill-rule:nonzero;stroke:#d62728;stroke-width:0.99628;stroke-linecap:butt;stroke-linejoin:miter;stroke-miterlimit:10;stroke-dasharray:none;stroke-opacity:1"
       transform="matrix(1.3333333,0,0,-1.3333333,-642.45067,215.02267)" />
    <path
       id="path66"
       d="m 676.5895,47.77574 c 0,0.96291 -0.78059,1.74349 -1.74349,1.74349 -0.96291,0 -1.74349,-0.78058 -1.74349,-1.74349 0,-0.96292 0.78058,-1.74348 1.74349,-1.74348 0.9629,0 1.74349,0.78056 1.74349,1.74348 z"
       style="fill:#d62728;fill-opacity:1;fill-rule:nonzero;stroke:#d62728;stroke-width:0.99628;stroke-linecap:butt;stroke-linejoin:miter;stroke-miterlimit:10;stroke-dasharray:none;stroke-opacity:1"
       transform="matrix(1.3333333,0,0,-1.3333333,-642.45067,215.02267)" />
    <path
       id="path67"
       d="m 698.35907,43.11469 c 0,0.9629 -0.78058,1.74348 -1.74348,1.74348 -0.96291,0 -1.74349,-0.78058 -1.74349,-1.74348 0,-0.96291 0.78058,-1.74349 1.74349,-1.74349 0.9629,0 1.74348,0.78058 1.74348,1.74349 z"
       style="fill:#d62728;fill-opacity:1;fill-rule:nonzero;stroke:#d62728;stroke-width:0.99628;stroke-linecap:butt;stroke-linejoin:miter;stroke-miterlimit:10;stroke-dasharray:none;stroke-opacity:1"
       transform="matrix(1.3333333,0,0,-1.3333333,-642.45067,215.02267)" />
    <path
       id="path68"
       d="m 785.74527,39.03627 c 0,0.96291 -0.78058,1.74348 -1.74348,1.74348 -0.96291,0 -1.74349,-0.78057 -1.74349,-1.74348 0,-0.96291 0.78058,-1.74348 1.74349,-1.74348 0.9629,0 1.74348,0.78057 1.74348,1.74348 z"
       style="fill:#d62728;fill-opacity:1;fill-rule:nonzero;stroke:#d62728;stroke-width:0.99628;stroke-linecap:butt;stroke-linejoin:miter;stroke-miterlimit:10;stroke-dasharray:none;stroke-opacity:1"
       transform="matrix(1.3333333,0,0,-1.3333333,-642.45067,215.02267)" />
    <path
       id="path69"
       d="m 568.0284,111.28252 c 0,0.9629 -0.78058,1.74348 -1.74349,1.74348 -0.96292,0 -1.74348,-0.78058 -1.74348,-1.74348 0,-0.96291 0.78056,-1.74349 1.74348,-1.74349 0.96291,0 1.74349,0.78058 1.74349,1.74349 z"
       style="fill:#9467bd;fill-opacity:1;fill-rule:nonzero;stroke:#9467bd;stroke-width:0.99628;stroke-linecap:butt;stroke-linejoin:miter;stroke-miterlimit:10;stroke-dasharray:none;stroke-opacity:1"
       transform="matrix(1.3333333,0,0,-1.3333333,-642.45067,215.02267)" />
    <path
       id="path70"
       d="m 589.71022,95.60974 c 0,0.96291 -0.78056,1.74349 -1.74348,1.74349 -0.96291,0 -1.74349,-0.78058 -1.74349,-1.74349 0,-0.96292 0.78058,-1.74348 1.74349,-1.74348 0.96292,0 1.74348,0.78056 1.74348,1.74348 z"
       style="fill:#9467bd;fill-opacity:1;fill-rule:nonzero;stroke:#9467bd;stroke-width:0.99628;stroke-linecap:butt;stroke-linejoin:miter;stroke-miterlimit:10;stroke-dasharray:none;stroke-opacity:1"
       transform="matrix(1.3333333,0,0,-1.3333333,-642.45067,215.02267)" />
    <path
       id="path71"
       d="m 611.35495,80.9857 c 0,0.96291 -0.78056,1.74349 -1.74348,1.74349 -0.96291,0 -1.74349,-0.78058 -1.74349,-1.74349 0,-0.9629 0.78058,-1.74348 1.74349,-1.74348 0.96292,0 1.74348,0.78058 1.74348,1.74348 z"
       style="fill:#9467bd;fill-opacity:1;fill-rule:nonzero;stroke:#9467bd;stroke-width:0.99628;stroke-linecap:butt;stroke-linejoin:miter;stroke-miterlimit:10;stroke-dasharray:none;stroke-opacity:1"
       transform="matrix(1.3333333,0,0,-1.3333333,-642.45067,215.02267)" />
    <path
       id="path72"
       d="m 632.95758,67.58519 c 0,0.96291 -0.78058,1.74348 -1.74348,1.74348 -0.96291,0 -1.74349,-0.78057 -1.74349,-1.74348 0,-0.96291 0.78058,-1.74349 1.74349,-1.74349 0.9629,0 1.74348,0.78058 1.74348,1.74349 z"
       style="fill:#9467bd;fill-opacity:1;fill-rule:nonzero;stroke:#9467bd;stroke-width:0.99628;stroke-linecap:butt;stroke-linejoin:miter;stroke-miterlimit:10;stroke-dasharray:none;stroke-opacity:1"
       transform="matrix(1.3333333,0,0,-1.3333333,-642.45067,215.02267)" />
    <path
       id="path73"
       d="m 654.97885,57.09784 c 0,0.96291 -0.78056,1.74348 -1.74348,1.74348 -0.96291,0 -1.74349,-0.78057 -1.74349,-1.74348 0,-0.96292 0.78058,-1.74349 1.74349,-1.74349 0.96292,0 1.74348,0.78057 1.74348,1.74349 z"
       style="fill:#9467bd;fill-opacity:1;fill-rule:nonzero;stroke:#9467bd;stroke-width:0.99628;stroke-linecap:butt;stroke-linejoin:miter;stroke-miterlimit:10;stroke-dasharray:none;stroke-opacity:1"
       transform="matrix(1.3333333,0,0,-1.3333333,-642.45067,215.02267)" />
    <path
       id="path74"
       d="m 676.5895,41.36679 c 0,0.96291 -0.78059,1.74349 -1.74349,1.74349 -0.96291,0 -1.74349,-0.78058 -1.74349,-1.74349 0,-0.96291 0.78058,-1.74349 1.74349,-1.74349 0.9629,0 1.74349,0.78058 1.74349,1.74349 z"
       style="fill:#9467bd;fill-opacity:1;fill-rule:nonzero;stroke:#9467bd;stroke-width:0.99628;stroke-linecap:butt;stroke-linejoin:miter;stroke-miterlimit:10;stroke-dasharray:none;stroke-opacity:1"
       transform="matrix(1.3333333,0,0,-1.3333333,-642.45067,215.02267)" />
    <path
       id="path75"
       d="m 698.35907,31.46207 c 0,0.9629 -0.78058,1.74348 -1.74348,1.74348 -0.96291,0 -1.74349,-0.78058 -1.74349,-1.74348 0,-0.96291 0.78058,-1.74349 1.74349,-1.74349 0.9629,0 1.74348,0.78058 1.74348,1.74349 z"
       style="fill:#9467bd;fill-opacity:1;fill-rule:nonzero;stroke:#9467bd;stroke-width:0.99628;stroke-linecap:butt;stroke-linejoin:miter;stroke-miterlimit:10;stroke-dasharray:none;stroke-opacity:1"
       transform="matrix(1.3333333,0,0,-1.3333333,-642.45067,215.02267)" />
    <path
       id="path76"
       d="m 785.74527,18.64418 c 0,0.96291 -0.78058,1.74348 -1.74348,1.74348 -0.96291,0 -1.74349,-0.78057 -1.74349,-1.74348 0,-0.96291 0.78058,-1.74348 1.74349,-1.74348 0.9629,0 1.74348,0.78057 1.74348,1.74348 z"
       style="fill:#9467bd;fill-opacity:1;fill-rule:nonzero;stroke:#9467bd;stroke-width:0.99628;stroke-linecap:butt;stroke-linejoin:miter;stroke-miterlimit:10;stroke-dasharray:none;stroke-opacity:1"
       transform="matrix(1.3333333,0,0,-1.3333333,-642.45067,215.02267)" />
    <path
       id="path77"
       d="m 568.0284,117.10883 c 0,0.9629 -0.78058,1.74348 -1.74349,1.74348 -0.96292,0 -1.74348,-0.78058 -1.74348,-1.74348 0,-0.96291 0.78056,-1.74349 1.74348,-1.74349 0.96291,0 1.74349,0.78058 1.74349,1.74349 z"
       style="fill:#8c564b;fill-opacity:1;fill-rule:nonzero;stroke:#8c564b;stroke-width:0.99628;stroke-linecap:butt;stroke-linejoin:miter;stroke-miterlimit:10;stroke-dasharray:none;stroke-opacity:1"
       transform="matrix(1.3333333,0,0,-1.3333333,-642.45067,215.02267)" />
    <path
       id="path78"
       d="m 589.71022,95.60974 c 0,0.96291 -0.78056,1.74349 -1.74348,1.74349 -0.96291,0 -1.74349,-0.78058 -1.74349,-1.74349 0,-0.96292 0.78058,-1.74348 1.74349,-1.74348 0.96292,0 1.74348,0.78056 1.74348,1.74348 z"
       style="fill:#8c564b;fill-opacity:1;fill-rule:nonzero;stroke:#8c564b;stroke-width:0.99628;stroke-linecap:butt;stroke-linejoin:miter;stroke-miterlimit:10;stroke-dasharray:none;stroke-opacity:1"
       transform="matrix(1.3333333,0,0,-1.3333333,-642.45067,215.02267)" />
    <path
       id="path79"
       d="m 611.35495,80.9857 c 0,0.96291 -0.78056,1.74349 -1.74348,1.74349 -0.96291,0 -1.74349,-0.78058 -1.74349,-1.74349 0,-0.9629 0.78058,-1.74348 1.74349,-1.74348 0.96292,0 1.74348,0.78058 1.74348,1.74348 z"
       style="fill:#8c564b;fill-opacity:1;fill-rule:nonzero;stroke:#8c564b;stroke-width:0.99628;stroke-linecap:butt;stroke-linejoin:miter;stroke-miterlimit:10;stroke-dasharray:none;stroke-opacity:1"
       transform="matrix(1.3333333,0,0,-1.3333333,-642.45067,215.02267)" />
    <path
       id="path80"
       d="m 632.95758,67.58519 c 0,0.96291 -0.78058,1.74348 -1.74348,1.74348 -0.96291,0 -1.74349,-0.78057 -1.74349,-1.74348 0,-0.96291 0.78058,-1.74349 1.74349,-1.74349 0.9629,0 1.74348,0.78058 1.74348,1.74349 z"
       style="fill:#8c564b;fill-opacity:1;fill-rule:nonzero;stroke:#8c564b;stroke-width:0.99628;stroke-linecap:butt;stroke-linejoin:miter;stroke-miterlimit:10;stroke-dasharray:none;stroke-opacity:1"
       transform="matrix(1.3333333,0,0,-1.3333333,-642.45067,215.02267)" />
    <path
       id="path81"
       d="m 654.97885,57.09784 c 0,0.96291 -0.78056,1.74348 -1.74348,1.74348 -0.96291,0 -1.74349,-0.78057 -1.74349,-1.74348 0,-0.96292 0.78058,-1.74349 1.74349,-1.74349 0.96292,0 1.74348,0.78057 1.74348,1.74349 z"
       style="fill:#8c564b;fill-opacity:1;fill-rule:nonzero;stroke:#8c564b;stroke-width:0.99628;stroke-linecap:butt;stroke-linejoin:miter;stroke-miterlimit:10;stroke-dasharray:none;stroke-opacity:1"
       transform="matrix(1.3333333,0,0,-1.3333333,-642.45067,215.02267)" />
    <path
       id="path82"
       d="m 676.5895,43.69733 c 0,0.9629 -0.78059,1.74348 -1.74349,1.74348 -0.96291,0 -1.74349,-0.78058 -1.74349,-1.74348 0,-0.96293 0.78058,-1.74349 1.74349,-1.74349 0.9629,0 1.74349,0.78056 1.74349,1.74349 z"
       style="fill:#8c564b;fill-opacity:1;fill-rule:nonzero;stroke:#8c564b;stroke-width:0.99628;stroke-linecap:butt;stroke-linejoin:miter;stroke-miterlimit:10;stroke-dasharray:none;stroke-opacity:1"
       transform="matrix(1.3333333,0,0,-1.3333333,-642.45067,215.02267)" />
    <path
       id="path83"
       d="m 698.35907,29.13155 c 0,0.9629 -0.78058,1.74348 -1.74348,1.74348 -0.96291,0 -1.74349,-0.78058 -1.74349,-1.74348 0,-0.96291 0.78058,-1.74349 1.74349,-1.74349 0.9629,0 1.74348,0.78058 1.74348,1.74349 z"
       style="fill:#8c564b;fill-opacity:1;fill-rule:nonzero;stroke:#8c564b;stroke-width:0.99628;stroke-linecap:butt;stroke-linejoin:miter;stroke-miterlimit:10;stroke-dasharray:none;stroke-opacity:1"
       transform="matrix(1.3333333,0,0,-1.3333333,-642.45067,215.02267)" />
    <path
       id="path84"
       d="m 785.74527,6.99156 c 0,0.96291 -0.78058,1.74349 -1.74348,1.74349 -0.96291,0 -1.74349,-0.78058 -1.74349,-1.74349 0,-0.9629 0.78058,-1.74348 1.74349,-1.74348 0.9629,0 1.74348,0.78058 1.74348,1.74348 z"
       style="fill:#8c564b;fill-opacity:1;fill-rule:nonzero;stroke:#8c564b;stroke-width:0.99628;stroke-linecap:butt;stroke-linejoin:miter;stroke-miterlimit:10;stroke-dasharray:none;stroke-opacity:1"
       transform="matrix(1.3333333,0,0,-1.3333333,-642.45067,215.02267)" />
    <path
       id="path85"
       d="M 2.4720625,-4.5119062 H 4.136125 V -5.086125 H 0.14003125 v 0.5742188 H 1.8158125 v 4.5117187 h 0.65625 z m 2.8505859,0.75 c -1.03125,0 -1.6523437,0.7382812 -1.6523437,1.9570312 0,1.23046875 0.6210937,1.96875 1.6523437,1.96875 1.03125,0 1.6523438,-0.73828125 1.6523438,-1.9335937 0,-1.265625 -0.5976563,-1.9921875 -1.6523438,-1.9921875 z m 0,0.5390625 c 0.65625,0 1.0546875,0.5390625 1.0546875,1.4414062 0,0.85546875 -0.4101562,1.40625 -1.0546875,1.40625 -0.6445312,0 -1.0429687,-0.5390625 -1.0429687,-1.4296875 0,-0.8671875 0.3984375,-1.4179687 1.0429687,-1.4179687 z M 8.2845625,-5.086125 H 7.7103438 v 5.0859375 h 0.5742187 v -1.4179687 l 0.5625,-0.5625 1.2304685,1.9804687 h 0.726563 l -1.5000002,-2.390625 1.2773442,-1.265625 H 9.8314375 l -1.546875,1.546875 z m 5.9384765,3.4570313 c 0,-0.5625 -0.03516,-0.890625 -0.140625,-1.171875 -0.234375,-0.5976563 -0.796875,-0.9609375 -1.476562,-0.9609375 -1.019532,0 -1.675782,0.7851562 -1.675782,1.9804687 0,1.20703125 0.632813,1.9453125 1.652344,1.9453125 0.84375,0 1.417969,-0.48046875 1.570313,-1.2773437 h -0.585938 c -0.164062,0.4804687 -0.492187,0.7382812 -0.960937,0.7382812 -0.363282,0 -0.679688,-0.1640625 -0.878907,-0.48046875 -0.140625,-0.19921875 -0.1875,-0.41015625 -0.1875,-0.77343745 z m -2.671875,-0.4804688 c 0.04687,-0.6679687 0.457031,-1.1132812 1.042969,-1.1132812 0.574219,0 1.007812,0.4804687 1.007812,1.078125 0,0.011719 0,0.023437 0,0.035156 z m 3.46875,-1.546875 v 3.65625 h 0.585938 v -2.015625 c 0,-0.75 0.386718,-1.2304687 0.984375,-1.2304687 0.457031,0 0.75,0.28125 0.75,0.7148437 v 2.53125 h 0.585937 v -2.765625 c 0,-0.5976562 -0.457031,-0.9960937 -1.160156,-0.9960937 -0.539063,0 -0.890625,0.2109375 -1.21875,0.7265625 v -0.6210938 z m 6.442383,1.0195313 c -0.01172,-0.7148438 -0.480469,-1.125 -1.324219,-1.125 -0.855469,0 -1.40625,0.4453125 -1.40625,1.1132812 0,0.5742188 0.292969,0.84375 1.160156,1.0546875 l 0.539063,0.140625 c 0.410156,0.09375 0.5625,0.234375 0.5625,0.50390625 0,0.33984375 -0.339844,0.57421875 -0.84375,0.57421875 -0.316406,0 -0.585938,-0.09375 -0.726563,-0.24609375 -0.09375,-0.10546875 -0.128906,-0.2109375 -0.164062,-0.46874995 h -0.621094 c 0.03516,0.84374995 0.503906,1.2539062 1.464844,1.2539062 0.914062,0 1.5,-0.45703125 1.5,-1.16015625 0,-0.53906245 -0.304688,-0.84374995 -1.03125,-1.01953125 l -0.5625,-0.1289062 c -0.46875,-0.1171875 -0.667969,-0.2695313 -0.667969,-0.5273438 0,-0.328125 0.292969,-0.5507812 0.773438,-0.5507812 0.46875,0 0.714843,0.1992187 0.726562,0.5859375 z m 3.410156,-1.0195313 h -0.574219 v 3.65625 h 0.574219 z m 0,-1.4296875 h -0.585937 v 0.7382813 h 0.585937 z m 0.999024,1.4296875 v 3.65625 h 0.585937 v -2.015625 c 0,-0.75 0.386719,-1.2304687 0.984375,-1.2304687 0.457031,0 0.75,0.28125 0.75,0.7148437 v 2.53125 h 0.585938 v -2.765625 c 0,-0.5976562 -0.457032,-0.9960937 -1.160157,-0.9960937 -0.539062,0 -0.890625,0.2109375 -1.21875,0.7265625 v -0.6210938 z m 5.944336,3.65625 h 1.957031 c 1.289062,0 2.074219,-0.9609375 2.074219,-2.5429687 0,-1.5820313 -0.785157,-2.5429688 -2.074219,-2.5429688 h -1.957031 z m 0.644531,-0.57421875 V -4.5119062 h 1.207031 c 0.996094,0 1.535156,0.6796875 1.535156,1.96875 0,1.2890625 -0.539062,1.96874995 -1.535156,1.96874995 z m 7.49414,0.234375 c -0.05859,0.0117188 -0.08203,0.0117188 -0.117187,0.0117188 -0.210938,0 -0.316406,-0.10546875 -0.316406,-0.28125 V -2.7658125 c 0,-0.6445312 -0.480469,-0.9960937 -1.371094,-0.9960937 -0.539063,0 -0.972656,0.1523437 -1.21875,0.4335937 -0.164063,0.1875 -0.234375,0.3984375 -0.246094,0.75 h 0.585938 c 0.04687,-0.4453125 0.304687,-0.6445312 0.855468,-0.6445312 0.515625,0 0.808594,0.1992187 0.808594,0.5507812 v 0.1523438 c 0,0.234375 -0.140625,0.3398437 -0.597656,0.3984375 -0.832031,0.1054687 -0.949219,0.1289062 -1.171875,0.2226562 -0.433594,0.1757813 -0.644531,0.5039063 -0.644531,0.9726563 0,0.66796875 0.457031,1.08984375 1.195312,1.08984375 0.46875,0 0.832031,-0.1640625 1.242188,-0.5390625 0.04687,0.36328125 0.222656,0.5390625 0.597656,0.5390625 0.128906,0 0.210937,-0.0234375 0.398437,-0.0703125 z M 38.934953,-1.148625 c 0,0.1875 -0.04687,0.31640625 -0.222656,0.46875 -0.234375,0.22265625 -0.527344,0.328125 -0.867188,0.328125 -0.457031,0 -0.714843,-0.2109375 -0.714843,-0.5859375 0,-0.375 0.257812,-0.5742187 0.878906,-0.6679687 0.609375,-0.082031 0.738281,-0.1054688 0.925781,-0.1992188 z m 2.941406,-2.5078125 h -0.597656 v -0.9960937 h -0.574219 v 0.9960937 h -0.503906 v 0.4804688 h 0.503906 v 2.7539062 c 0,0.375 0.246094,0.5859375 0.703125,0.5859375 0.140625,0 0.269532,-0.0234375 0.46875,-0.046875 v -0.4921875 c -0.07031,0.0234375 -0.164062,0.0234375 -0.28125,0.0234375 -0.246093,0 -0.316406,-0.0703125 -0.316406,-0.328125 v -2.4960937 h 0.597656 z m 3.896485,3.31640625 c -0.05859,0.0117188 -0.08203,0.0117188 -0.117188,0.0117188 -0.210937,0 -0.316406,-0.10546875 -0.316406,-0.28125 V -2.7658125 c 0,-0.6445312 -0.480469,-0.9960937 -1.371094,-0.9960937 -0.539062,0 -0.972656,0.1523437 -1.21875,0.4335937 -0.164062,0.1875 -0.234375,0.3984375 -0.246093,0.75 h 0.585937 c 0.04687,-0.4453125 0.304688,-0.6445312 0.855469,-0.6445312 0.515625,0 0.808594,0.1992187 0.808594,0.5507812 v 0.1523438 c 0,0.234375 -0.140625,0.3398437 -0.597657,0.3984375 -0.832031,0.1054687 -0.949218,0.1289062 -1.171875,0.2226562 -0.433593,0.1757813 -0.644531,0.5039063 -0.644531,0.9726563 0,0.66796875 0.457031,1.08984375 1.195313,1.08984375 0.46875,0 0.832031,-0.1640625 1.242187,-0.5390625 0.04687,0.36328125 0.222656,0.5390625 0.597656,0.5390625 0.128907,0 0.210938,-0.0234375 0.398438,-0.0703125 z M 44.753313,-1.148625 c 0,0.1875 -0.04687,0.31640625 -0.222657,0.46875 -0.234375,0.22265625 -0.527343,0.328125 -0.867187,0.328125 -0.457031,0 -0.714844,-0.2109375 -0.714844,-0.5859375 0,-0.375 0.257813,-0.5742187 0.878906,-0.6679687 0.609375,-0.082031 0.738282,-0.1054688 0.925782,-0.1992188 z m 4.227539,-1.4882812 c -0.01172,-0.7148438 -0.480469,-1.125 -1.324219,-1.125 -0.855469,0 -1.40625,0.4453125 -1.40625,1.1132812 0,0.5742188 0.292969,0.84375 1.160156,1.0546875 l 0.539063,0.140625 c 0.410156,0.09375 0.5625,0.234375 0.5625,0.50390625 0,0.33984375 -0.339844,0.57421875 -0.84375,0.57421875 -0.316407,0 -0.585938,-0.09375 -0.726563,-0.24609375 -0.09375,-0.10546875 -0.128906,-0.2109375 -0.164062,-0.46874995 h -0.621094 c 0.03516,0.84374995 0.503906,1.2539062 1.464844,1.2539062 0.914062,0 1.5,-0.45703125 1.5,-1.16015625 0,-0.53906245 -0.304688,-0.84374995 -1.03125,-1.01953125 l -0.5625,-0.1289062 c -0.46875,-0.1171875 -0.667969,-0.2695313 -0.667969,-0.5273438 0,-0.328125 0.292969,-0.5507812 0.773437,-0.5507812 0.46875,0 0.714844,0.1992187 0.726563,0.5859375 z m 4.001953,1.0078125 c 0,-0.5625 -0.03516,-0.890625 -0.140625,-1.171875 -0.234375,-0.5976563 -0.796875,-0.9609375 -1.476563,-0.9609375 -1.019531,0 -1.675781,0.7851562 -1.675781,1.9804687 0,1.20703125 0.632812,1.9453125 1.652344,1.9453125 0.84375,0 1.417968,-0.48046875 1.570312,-1.2773437 h -0.585937 c -0.164063,0.4804687 -0.492188,0.7382812 -0.960938,0.7382812 -0.363281,0 -0.679687,-0.1640625 -0.878906,-0.48046875 -0.140625,-0.19921875 -0.1875,-0.41015625 -0.1875,-0.77343745 z M 50.31093,-2.1095625 c 0.04687,-0.6679687 0.457031,-1.1132812 1.042968,-1.1132812 0.574219,0 1.007813,0.4804687 1.007813,1.078125 0,0.011719 0,0.023437 0,0.035156 z m 4.746093,-1.546875 h -0.597656 v -0.9960937 h -0.574219 v 0.9960937 h -0.503906 v 0.4804688 h 0.503906 v 2.7539062 c 0,0.375 0.246094,0.5859375 0.703125,0.5859375 0.140625,0 0.269532,-0.0234375 0.46875,-0.046875 v -0.4921875 c -0.07031,0.0234375 -0.164062,0.0234375 -0.28125,0.0234375 -0.246093,0 -0.316406,-0.0703125 -0.316406,-0.328125 v -2.4960937 h 0.597656 z m 0,0"
       style="fill:#000000;fill-opacity:1;fill-rule:nonzero;stroke:none"
       aria-label="TokensinDataset"
       transform="matrix(1.3333333,0,0,1.3333333,193.42267,246.844)" />
    <path
       id="path86"
       d="M 1.2073203,-5.0868516 H 0.56278906 V -9.140625e-4 H 3.7151328 V -0.57513281 H 1.2073203 Z m 4.5673828,1.3242188 c -1.03125,0 -1.6523437,0.7382812 -1.6523437,1.9570312 0,1.23046879 0.6210937,1.96875004 1.6523437,1.96875004 1.03125,0 1.6523438,-0.73828125 1.6523438,-1.93359374 0,-1.265625 -0.5976563,-1.9921875 -1.6523438,-1.9921875 z m 0,0.5390625 c 0.65625,0 1.0546875,0.5390625 1.0546875,1.4414062 0,0.85546879 -0.4101562,1.40625004 -1.0546875,1.40625004 -0.6445312,0 -1.0429687,-0.5390625 -1.0429687,-1.42968754 0,-0.8671875 0.3984375,-1.4179687 1.0429687,-1.4179687 z m 5.0390629,0.5859375 c -0.01172,-0.7148438 -0.480469,-1.125 -1.3242191,-1.125 -0.8554688,0 -1.40625,0.4453125 -1.40625,1.1132812 0,0.5742188 0.2929687,0.84375 1.1601562,1.0546875 l 0.5390625,0.140625 c 0.4101564,0.09375 0.5625004,0.234375 0.5625004,0.50390629 0,0.33984375 -0.339844,0.57421875 -0.8437504,0.57421875 -0.3164062,0 -0.5859375,-0.09375 -0.7265625,-0.24609375 -0.09375,-0.10546875 -0.1289062,-0.2109375 -0.1640625,-0.46874999 H 7.9895469 c 0.035156,0.84374999 0.5039062,1.25390624 1.4648437,1.25390624 0.9140624,0 1.5000004,-0.45703125 1.5000004,-1.16015625 0,-0.53906249 -0.304688,-0.84374999 -1.0312504,-1.01953129 l -0.5625,-0.1289062 c -0.46875,-0.1171875 -0.6679687,-0.2695313 -0.6679687,-0.5273438 0,-0.328125 0.2929687,-0.5507812 0.7734375,-0.5507812 0.46875,0 0.7148436,0.1992187 0.7265626,0.5859375 z m 3.486328,0 c -0.01172,-0.7148438 -0.480469,-1.125 -1.324219,-1.125 -0.855469,0 -1.40625,0.4453125 -1.40625,1.1132812 0,0.5742188 0.292969,0.84375 1.160156,1.0546875 l 0.539063,0.140625 c 0.410156,0.09375 0.5625,0.234375 0.5625,0.50390629 0,0.33984375 -0.339844,0.57421875 -0.84375,0.57421875 -0.316407,0 -0.585938,-0.09375 -0.726563,-0.24609375 -0.09375,-0.10546875 -0.128906,-0.2109375 -0.164062,-0.46874999 h -0.621094 c 0.03516,0.84374999 0.503906,1.25390624 1.464844,1.25390624 0.914062,0 1.5,-0.45703125 1.5,-1.16015625 0,-0.53906249 -0.304688,-0.84374999 -1.03125,-1.01953129 l -0.5625,-0.1289062 C 12.378219,-2.2626328 12.179,-2.4149766 12.179,-2.6727891 c 0,-0.328125 0.292969,-0.5507812 0.773437,-0.5507812 0.46875,0 0.714844,0.1992187 0.726563,0.5859375 z m 0,0"
       style="fill:#000000;fill-opacity:1;fill-rule:nonzero;stroke:none"
       aria-label="Loss"
       transform="matrix(0,-1.3333333,1.3333333,0,11.052,127.73867)" />
    <path
       id="path87"
       d="M 1.5458594,-6.5380703 H 0.71382812 V 9.921875e-4 H 4.7802344 V -0.73728906 h -3.234375 z m 5.8769531,1.7109375 c -1.3125,0 -2.109375,0.9375 -2.109375,2.5195312 0,1.57031254 0.7851562,2.51953129 2.1210937,2.51953129 1.3125,0 2.1210938,-0.94921875 2.1210938,-2.48437499 0,-1.6289063 -0.7734375,-2.5546875 -2.1328125,-2.5546875 z m 0.011719,0.6914062 c 0.84375,0 1.3476563,0.6796875 1.3476563,1.8515625 0,1.1015625 -0.5273438,1.80468754 -1.3476563,1.80468754 -0.8320312,0 -1.3476562,-0.69140624 -1.3476562,-1.82812504 0,-1.1367187 0.515625,-1.828125 1.3476562,-1.828125 z m 6.4628905,0.75 c -0.01172,-0.9257812 -0.621094,-1.4414062 -1.699219,-1.4414062 -1.101562,0 -1.804687,0.5625 -1.804687,1.4296875 0,0.7382812 0.375,1.0898437 1.488281,1.359375 l 0.703125,0.1640625 c 0.515625,0.1289062 0.726562,0.3164062 0.726562,0.65625 0,0.43359374 -0.445312,0.73828124 -1.101562,0.73828124 -0.398438,0 -0.738281,-0.1171875 -0.925781,-0.31640625 -0.117188,-0.140625 -0.175782,-0.26953129 -0.222657,-0.59765629 h -0.785156 c 0.03516,1.07812504 0.644531,1.60546879 1.875,1.60546879 1.183594,0 1.933594,-0.5859375 1.933594,-1.48828129 0,-0.703125 -0.398438,-1.0898437 -1.324219,-1.3125 l -0.714844,-0.1757812 c -0.609375,-0.140625 -0.867187,-0.3398438 -0.867187,-0.6679688 0,-0.4335937 0.375,-0.703125 0.984375,-0.703125 0.609375,0 0.925781,0.2578125 0.949219,0.75 z m 4.482422,0 c -0.01172,-0.9257812 -0.621094,-1.4414062 -1.699219,-1.4414062 -1.101563,0 -1.804688,0.5625 -1.804688,1.4296875 0,0.7382812 0.375,1.0898437 1.488282,1.359375 l 0.703125,0.1640625 c 0.515625,0.1289062 0.726562,0.3164062 0.726562,0.65625 0,0.43359374 -0.445312,0.73828124 -1.101562,0.73828124 -0.398438,0 -0.738282,-0.1171875 -0.925782,-0.31640625 -0.117187,-0.140625 -0.175781,-0.26953129 -0.222656,-0.59765629 H 14.75875 c 0.03516,1.07812504 0.644531,1.60546879 1.875,1.60546879 1.183594,0 1.933594,-0.5859375 1.933594,-1.48828129 0,-0.703125 -0.398438,-1.0898437 -1.324219,-1.3125 l -0.714844,-0.1757812 c -0.609375,-0.140625 -0.867187,-0.3398438 -0.867187,-0.6679688 0,-0.4335937 0.375,-0.703125 0.984375,-0.703125 0.609375,0 0.925781,0.2578125 0.949218,0.75 z M 23.984336,9.921875e-4 25.789023,-4.6982266 h -0.84375 l -1.324218,3.80859379 -1.253907,-3.80859379 h -0.84375 L 23.164023,9.921875e-4 Z M 29.837852,-3.3857266 c -0.01172,-0.9257812 -0.621094,-1.4414062 -1.699219,-1.4414062 -1.101563,0 -1.804688,0.5625 -1.804688,1.4296875 0,0.7382812 0.375,1.0898437 1.488282,1.359375 l 0.703125,0.1640625 c 0.515625,0.1289062 0.726562,0.3164062 0.726562,0.65625 0,0.43359374 -0.445312,0.73828124 -1.101562,0.73828124 -0.398438,0 -0.738282,-0.1171875 -0.925782,-0.31640625 -0.117187,-0.140625 -0.175781,-0.26953129 -0.222656,-0.59765629 h -0.785156 c 0.03516,1.07812504 0.644531,1.60546879 1.875,1.60546879 1.183594,0 1.933594,-0.5859375 1.933594,-1.48828129 0,-0.703125 -0.398438,-1.0898437 -1.324219,-1.3125 l -0.714844,-0.1757812 c -0.609375,-0.140625 -0.867187,-0.3398438 -0.867187,-0.6679688 0,-0.4335937 0.375,-0.703125 0.984375,-0.703125 0.609375,0 0.925781,0.2578125 0.949218,0.75 z M 37.082969,9.921875e-4 38.922812,-5.4716641 V 9.921875e-4 h 0.785157 V -6.5380703 H 38.547812 L 36.649375,-0.84275781 34.715781,-6.5380703 H 33.555625 V 9.921875e-4 H 34.3525 V -5.4716641 L 36.204062,9.921875e-4 Z M 42.795859,-4.8271328 c -1.3125,0 -2.109375,0.9375 -2.109375,2.5195312 0,1.57031254 0.785157,2.51953129 2.121094,2.51953129 1.3125,0 2.121094,-0.94921875 2.121094,-2.48437499 0,-1.6289063 -0.773438,-2.5546875 -2.132813,-2.5546875 z m 0.01172,0.6914062 c 0.84375,0 1.347656,0.6796875 1.347656,1.8515625 0,1.1015625 -0.527343,1.80468754 -1.347656,1.80468754 -0.832031,0 -1.347656,-0.69140624 -1.347656,-1.82812504 0,-1.1367187 0.515625,-1.828125 1.347656,-1.828125 z m 6.975586,-2.4023437 h -0.75 v 2.4375 c -0.316406,-0.4804688 -0.808594,-0.7265625 -1.441406,-0.7265625 -1.21875,0 -2.015625,0.9726562 -2.015625,2.4726562 0,1.58203129 0.773437,2.56640629 2.039062,2.56640629 0.644532,0 1.101563,-0.24609375 1.5,-0.83203125 V 9.921875e-4 h 0.667969 z m -2.0625,2.4023437 c 0.808594,0 1.3125,0.7265625 1.3125,1.8398438 0,1.0898437 -0.515625,1.80468749 -1.3125,1.80468749 -0.820312,0 -1.371094,-0.72656249 -1.371094,-1.81640629 0,-1.1015625 0.550782,-1.828125 1.371094,-1.828125 z m 7.201172,2.0390625 c 0,-0.7148437 -0.04687,-1.1484375 -0.1875,-1.5 -0.304688,-0.7734375 -1.019531,-1.2304687 -1.898438,-1.2304687 -1.300781,0 -2.144531,0.9960937 -2.144531,2.5429687 0,1.54687504 0.808594,2.49609379 2.132813,2.49609379 1.066406,0 1.816406,-0.609375 2.003906,-1.64062499 h -0.75 c -0.210938,0.62109374 -0.632813,0.94921874 -1.230469,0.94921874 -0.480469,0 -0.878906,-0.22265625 -1.125,-0.60937504 -0.1875,-0.2695312 -0.246094,-0.5390625 -0.257812,-1.0078125 z m -3.433594,-0.609375 c 0.05859,-0.8671875 0.585938,-1.4296875 1.335938,-1.4296875 0.738281,0 1.300781,0.609375 1.300781,1.3710938 0,0.023437 0,0.035156 0,0.058594 z m 5.185547,-3.8320312 h -0.75 V 9.921875e-4 h 0.75 z m 7.916016,6.10546874 c -0.08203,0.0117188 -0.117188,0.0117188 -0.152344,0.0117188 -0.269531,0 -0.410156,-0.12890625 -0.410156,-0.36328125 V -3.5497891 c 0,-0.8320312 -0.609375,-1.2773437 -1.769532,-1.2773437 -0.679687,0 -1.242187,0.1875 -1.558593,0.5390625 -0.210938,0.2460937 -0.304688,0.515625 -0.316407,0.984375 h 0.75 c 0.05859,-0.5742188 0.398438,-0.8320313 1.101563,-0.8320313 0.667969,0 1.054687,0.2460938 1.054687,0.6914063 v 0.1992187 c 0,0.3164063 -0.1875,0.4453125 -0.785156,0.515625 -1.054687,0.140625 -1.21875,0.1757813 -1.5,0.2929688 -0.550781,0.2226562 -0.832031,0.6445312 -0.832031,1.2539062 0,0.85546879 0.597656,1.39453129 1.546875,1.39453129 0.585937,0 1.066406,-0.2109375025 1.59375,-0.69140625 0.04687,0.46875 0.28125,0.69140625 0.773437,0.69140625 0.152344,0 0.269532,-0.0234375 0.503907,-0.0820313 z M 63.289023,-1.4755703 c 0,0.2460937 -0.08203,0.3984375 -0.304687,0.60937499 -0.304688,0.28125 -0.667969,0.421875 -1.113281,0.421875 -0.574219,0 -0.914063,-0.28125 -0.914063,-0.76171879 0,-0.4921875 0.328125,-0.7382812 1.125,-0.8554687 0.785156,-0.1054688 0.949219,-0.140625 1.207031,-0.2578125 z m 2.126954,-3.2226563 V 9.921875e-4 h 0.75 V -2.5888516 c 0,-0.9609375 0.503906,-1.5820312 1.265625,-1.5820312 0.597656,0 0.972656,0.3515625 0.972656,0.9140625 V 9.921875e-4 h 0.75 V -3.5497891 c 0,-0.7734375 -0.585938,-1.2773437 -1.488281,-1.2773437 -0.703125,0 -1.148438,0.2695312 -1.570313,0.9140625 v -0.7851563 z m 8.791992,-1.8398437 h -0.75 v 2.4375 c -0.316407,-0.4804688 -0.808594,-0.7265625 -1.441407,-0.7265625 -1.21875,0 -2.015625,0.9726562 -2.015625,2.4726562 0,1.58203129 0.773438,2.56640629 2.039063,2.56640629 0.644531,0 1.101562,-0.24609375 1.5,-0.83203125 V 9.921875e-4 h 0.667969 z m -2.0625,2.4023437 c 0.808593,0 1.3125,0.7265625 1.3125,1.8398438 0,1.0898437 -0.515625,1.80468749 -1.3125,1.80468749 -0.820313,0 -1.371094,-0.72656249 -1.371094,-1.81640629 0,-1.1015625 0.550781,-1.828125 1.371094,-1.828125 z m 5.888672,4.1367187875 h 2.519531 c 1.652344,0 2.660156,-1.2421874875 2.660156,-3.2695312875 0,-2.0273437 -0.996094,-3.2695312 -2.660156,-3.2695312 H 78.034141 Z M 78.866172,-0.73728906 V -5.7997891 h 1.546875 c 1.289062,0 1.96875,0.8671875 1.96875,2.5429688 0,1.640625 -0.679688,2.51953124 -1.96875,2.51953124 z m 9.635742,0.3046875 c -0.08203,0.0117188 -0.117187,0.0117188 -0.152344,0.0117188 -0.269531,0 -0.410156,-0.12890625 -0.410156,-0.36328125 V -3.5497891 c 0,-0.8320312 -0.609375,-1.2773437 -1.769531,-1.2773437 -0.679688,0 -1.242188,0.1875 -1.558594,0.5390625 -0.210937,0.2460937 -0.304687,0.515625 -0.316406,0.984375 h 0.75 c 0.05859,-0.5742188 0.398437,-0.8320313 1.101562,-0.8320313 0.667969,0 1.054688,0.2460938 1.054688,0.6914063 v 0.1992187 c 0,0.3164063 -0.1875,0.4453125 -0.785156,0.515625 -1.054688,0.140625 -1.21875,0.1757813 -1.5,0.2929688 -0.550782,0.2226562 -0.832032,0.6445312 -0.832032,1.2539062 0,0.85546879 0.597657,1.39453129 1.546875,1.39453129 0.585938,0 1.066407,-0.2109375025 1.59375,-0.69140625 0.04687,0.46875 0.28125,0.69140625 0.773438,0.69140625 0.152344,0 0.269531,-0.0234375 0.503906,-0.0820313 z M 87.201133,-1.4755703 c 0,0.2460937 -0.08203,0.3984375 -0.304688,0.60937499 -0.304687,0.28125 -0.667968,0.421875 -1.113281,0.421875 -0.574219,0 -0.914062,-0.28125 -0.914062,-0.76171879 0,-0.4921875 0.328125,-0.7382812 1.125,-0.8554687 0.785156,-0.1054688 0.949218,-0.140625 1.207031,-0.2578125 z m 3.767578,-3.2226563 h -0.761719 v -1.2890625 h -0.75 v 1.2890625 H 88.82418 v 0.609375 h 0.632812 v 3.55078129 c 0,0.48046875 0.328125,0.75 0.902344,0.75 0.1875,0 0.363281,-0.0234375 0.609375,-0.0703125 v -0.62109375 c -0.09375,0.0234375 -0.210938,0.0351563 -0.351563,0.0351563 -0.328125,0 -0.410156,-0.09375 -0.410156,-0.421875 V -4.0888516 h 0.761719 z m 5.012695,4.26562504 c -0.08203,0.0117188 -0.117187,0.0117188 -0.152344,0.0117188 -0.269531,0 -0.410156,-0.12890625 -0.410156,-0.36328125 V -3.5497891 c 0,-0.8320312 -0.609375,-1.2773437 -1.769531,-1.2773437 -0.679688,0 -1.242188,0.1875 -1.558594,0.5390625 -0.210937,0.2460937 -0.304687,0.515625 -0.316406,0.984375 h 0.75 c 0.05859,-0.5742188 0.398437,-0.8320313 1.101562,-0.8320313 0.667969,0 1.054688,0.2460938 1.054688,0.6914063 v 0.1992187 c 0,0.3164063 -0.1875,0.4453125 -0.785156,0.515625 -1.054688,0.140625 -1.21875,0.1757813 -1.5,0.2929688 -0.550782,0.2226562 -0.832032,0.6445312 -0.832032,1.2539062 0,0.85546879 0.597657,1.39453129 1.546875,1.39453129 0.585938,0 1.066407,-0.2109375025 1.59375,-0.69140625 0.04687,0.46875 0.28125,0.69140625 0.773438,0.69140625 0.152344,0 0.269531,-0.0234375 0.503906,-0.0820313 z M 94.680625,-1.4755703 c 0,0.2460937 -0.08203,0.3984375 -0.304688,0.60937499 -0.304687,0.28125 -0.667968,0.421875 -1.113281,0.421875 -0.574219,0 -0.914062,-0.28125 -0.914062,-0.76171879 0,-0.4921875 0.328125,-0.7382812 1.125,-0.8554687 0.785156,-0.1054688 0.949218,-0.140625 1.207031,-0.2578125 z m 5.419925,-1.9101563 c -0.0117,-0.9257812 -0.621097,-1.4414062 -1.699222,-1.4414062 -1.101562,0 -1.804687,0.5625 -1.804687,1.4296875 0,0.7382812 0.375,1.0898437 1.488281,1.359375 l 0.703125,0.1640625 c 0.515625,0.1289062 0.726562,0.3164062 0.726562,0.65625 0,0.43359374 -0.445312,0.73828124 -1.101562,0.73828124 -0.398438,0 -0.738281,-0.1171875 -0.925781,-0.31640625 -0.117188,-0.140625 -0.175782,-0.26953129 -0.222657,-0.59765629 h -0.785156 c 0.03516,1.07812504 0.644531,1.60546879 1.875,1.60546879 1.183594,0 1.933597,-0.5859375 1.933597,-1.48828129 0,-0.703125 -0.398441,-1.0898437 -1.324222,-1.3125 l -0.714844,-0.1757812 c -0.609375,-0.140625 -0.867187,-0.3398438 -0.867187,-0.6679688 0,-0.4335937 0.375,-0.703125 0.984375,-0.703125 0.609375,0 0.925781,0.2578125 0.949219,0.75 z m 5.15039,1.2890625 c 0,-0.7148437 -0.0469,-1.1484375 -0.1875,-1.5 -0.30469,-0.7734375 -1.01953,-1.2304687 -1.89844,-1.2304687 -1.30078,0 -2.14453,0.9960937 -2.14453,2.5429687 0,1.54687504 0.80859,2.49609379 2.13281,2.49609379 1.06641,0 1.81641,-0.609375 2.00391,-1.64062499 h -0.75 c -0.21094,0.62109374 -0.63282,0.94921874 -1.23047,0.94921874 -0.48047,0 -0.87891,-0.22265625 -1.125,-0.60937504 -0.1875,-0.2695312 -0.2461,-0.5390625 -0.25781,-1.0078125 z m -3.4336,-0.609375 c 0.0586,-0.8671875 0.58594,-1.4296875 1.33594,-1.4296875 0.73828,0 1.30078,0.609375 1.30078,1.3710938 0,0.023437 0,0.035156 0,0.058594 z m 6.09668,-1.9921875 h -0.76172 v -1.2890625 h -0.75 v 1.2890625 h -0.63281 v 0.609375 h 0.63281 v 3.55078129 c 0,0.48046875 0.32813,0.75 0.90235,0.75 0.1875,0 0.36328,-0.0234375 0.60937,-0.0703125 v -0.62109375 c -0.0937,0.0234375 -0.21093,0.0351563 -0.35156,0.0351563 -0.32812,0 -0.41016,-0.09375 -0.41016,-0.421875 V -4.0888516 h 0.76172 z m 8.05664,0.082031 c -0.0117,-1.2773438 -0.89062,-2.0273438 -2.39062,-2.0273438 -1.44141,0 -2.32031,0.7382813 -2.32031,1.921875 0,0.796875 0.42187,1.3007813 1.27734,1.5234375 l 1.61719,0.4335938 c 0.83203,0.2109375 1.20703,0.5390625 1.20703,1.0546875 0,0.3515625 -0.1875,0.703125 -0.46875,0.90234374 -0.25781,0.17578125 -0.66797,0.28125 -1.19531,0.28125 -0.71485,0 -1.19532,-0.17578125 -1.51172,-0.55078124 -0.2461,-0.28125 -0.35156,-0.5976563 -0.33985,-0.9960938 h -0.78515 c 0,0.5976563 0.11719,0.984375 0.38672,1.34765629 0.44531,0.609375 1.19531,0.9375 2.1914,0.9375 0.78516,0 1.41797,-0.1875 1.83985,-0.50390625 0.43359,-0.3515625 0.71484,-0.93750004 0.71484,-1.50000004 0,-0.8085937 -0.50391,-1.3945312 -1.39453,-1.640625 l -1.64063,-0.4335937 c -0.78515,-0.2226563 -1.0664,-0.46875 -1.0664,-0.9726563 0,-0.6679687 0.57422,-1.1015625 1.45312,-1.1015625 1.04297,0 1.62891,0.46875 1.64063,1.3242188 z m 1.9834,-0.082031 h -0.75 V 9.921875e-4 h 0.75 z m 0,-1.8398437 h -0.76172 v 0.9492187 h 0.76172 z m 4.61719,1.8398437 h -3.50391 v 0.65625 h 2.61328 l -2.80078,3.37500004 V 9.921875e-4 h 3.82032 V -0.65525781 h -2.91797 l 2.78906,-3.37499999 z m 4.97754,2.6015625 c 0,-0.7148437 -0.0469,-1.1484375 -0.1875,-1.5 -0.30469,-0.7734375 -1.01953,-1.2304687 -1.89844,-1.2304687 -1.30078,0 -2.14453,0.9960937 -2.14453,2.5429687 0,1.54687504 0.80859,2.49609379 2.13281,2.49609379 1.06641,0 1.81641,-0.609375 2.00391,-1.64062499 h -0.75 c -0.21094,0.62109374 -0.63281,0.94921874 -1.23047,0.94921874 -0.48047,0 -0.87891,-0.22265625 -1.125,-0.60937504 -0.1875,-0.2695312 -0.24609,-0.5390625 -0.25781,-1.0078125 z m -3.43359,-0.609375 c 0.0586,-0.8671875 0.58593,-1.4296875 1.33593,-1.4296875 0.73828,0 1.30078,0.609375 1.30078,1.3710938 0,0.023437 0,0.035156 0,0.058594 z m 0,0"
       style="fill:#000000;fill-opacity:1;fill-rule:nonzero;stroke:none"
       aria-label="LossvsModelandDatasetSize"
       transform="matrix(1.3333333,0,0,1.3333333,144.94667,13.221333)" />
    <path
       id="path88"
       d="M 520.20326,5.4208 H 552.5959 V 65.34626 H 520.20326 Z"
       style="fill:#f8f5f5;fill-opacity:1;fill-rule:nonzero;stroke:#8f7874;stroke-width:0.3985;stroke-linecap:butt;stroke-linejoin:miter;stroke-miterlimit:10;stroke-dasharray:none;stroke-opacity:1"
       transform="matrix(1.3333333,0,0,-1.3333333,-642.45067,215.02267)" />
    <path
       id="path89"
       d="m 10.2476,0 c 0,0.9629 -0.78057,1.74348 -1.74348,1.74348 C 7.54121,1.74348 6.76064,0.9629 6.76064,0 c 0,-0.9629 0.78057,-1.74348 1.74348,-1.74348 0.96291,0 1.74348,0.78058 1.74348,1.74348 z"
       style="fill:#1f77b4;fill-opacity:1;fill-rule:nonzero;stroke:#1f77b4;stroke-width:0.99628;stroke-linecap:butt;stroke-linejoin:miter;stroke-miterlimit:10;stroke-dasharray:none;stroke-opacity:1"
       transform="matrix(1.3333333,0,0,-1.3333333,46.116,137.04533)" />
    <path
       id="path90"
       d="m 1.3253437,-1.9462734 h 0.28125 c 0.5859375,0 0.8789063,0.2578125 0.8789063,0.7734375 0,0.52734371 -0.328125,0.84374996 -0.8789063,0.84374996 -0.5742187,0 -0.8554687,-0.29296875 -0.89062495,-0.90234376 H 0.188625 c 0.0234375,0.33984376 0.0820313,0.56250001 0.1875,0.75000001 0.2109375,0.41015625 0.6328125,0.62109375 1.21875,0.62109375 0.8671875,0 1.4296875,-0.52734375 1.4296875,-1.32421876 0,-0.5390625 -0.2109375,-0.8320312 -0.7148438,-1.0078125 0.3984375,-0.1523437 0.5859375,-0.4570312 0.5859375,-0.8789062 0,-0.7265625 -0.4804687,-1.171875 -1.2890625,-1.171875 -0.8554687,0 -1.31249995,0.46875 -1.3242187,1.3710937 h 0.52734375 c 0,-0.2578125 0.0234375,-0.3984375 0.09375,-0.5273437 0.11718745,-0.234375 0.38671875,-0.375 0.71484375,-0.375 0.4570312,0 0.7382812,0.2695312 0.7382812,0.7148437 0,0.3046875 -0.1054687,0.4804688 -0.3398437,0.5742188 -0.140625,0.058594 -0.328125,0.082031 -0.6914063,0.09375 z m 2.3144532,0.97265621 c 0.1054687,0.703125 0.5507812,1.11328125 1.2070312,1.11328125 0.4570313,0 0.890625,-0.234375 1.125,-0.609375 0.2695313,-0.41015625 0.3984375,-0.92578126 0.3984375,-1.69921876 0,-0.7148437 -0.1171875,-1.171875 -0.3632812,-1.546875 -0.234375,-0.3398437 -0.609375,-0.5273437 -1.0664063,-0.5273437 -0.8085937,0 -1.3945312,0.5976562 -1.3945312,1.4296875 0,0.796875 0.5390625,1.3476562 1.3125,1.3476562 0.3984375,0 0.6914062,-0.140625 0.9609375,-0.46875 0,1.03125001 -0.3398438,1.60546876 -0.9375,1.60546876 -0.375,0 -0.6328125,-0.234375 -0.7148438,-0.64453125 z M 4.9288594,-3.7743984 c 0.4921875,0 0.8671875,0.3984375 0.8671875,0.9492187 0,0.5273438 -0.3632813,0.890625 -0.8789063,0.890625 -0.515625,0 -0.8320312,-0.3515625 -0.8320312,-0.9140625 0,-0.5390625 0.3632812,-0.9257812 0.84375,-0.9257812 z m 3.0410156,1.828125 h 0.28125 c 0.5859375,0 0.8789062,0.2578125 0.8789062,0.7734375 0,0.52734371 -0.328125,0.84374996 -0.8789062,0.84374996 -0.5742188,0 -0.8554688,-0.29296875 -0.890625,-0.90234376 H 6.8331562 c 0.023437,0.33984376 0.082031,0.56250001 0.1875,0.75000001 0.2109375,0.41015625 0.6328125,0.62109375 1.21875,0.62109375 0.8671875,0 1.4296875,-0.52734375 1.4296875,-1.32421876 0,-0.5390625 -0.2109375,-0.8320312 -0.7148437,-1.0078125 0.3984375,-0.1523437 0.5859375,-0.4570312 0.5859375,-0.8789062 0,-0.7265625 -0.4804688,-1.171875 -1.2890625,-1.171875 -0.8554688,0 -1.3125,0.46875 -1.3242188,1.3710937 H 7.45425 c 0,-0.2578125 0.023437,-0.3984375 0.09375,-0.5273437 0.1171875,-0.234375 0.3867187,-0.375 0.7148437,-0.375 0.4570313,0 0.7382813,0.2695312 0.7382813,0.7148437 0,0.3046875 -0.1054688,0.4804688 -0.3398438,0.5742188 -0.140625,0.058594 -0.328125,0.082031 -0.6914062,0.09375 z m 3.137695,1.32421871 h -0.621093 v 0.6210937525 h 0.621093 z m 3.547852,0.10546875 h -2.226563 c 0.04687,-0.3515625 0.246094,-0.57421876 0.761719,-0.87890626 l 0.597656,-0.3164062 c 0.597657,-0.328125 0.902344,-0.7617188 0.902344,-1.2890625 0,-0.3515625 -0.152344,-0.6796875 -0.398437,-0.9023438 -0.246094,-0.2226562 -0.5625,-0.3398437 -0.960938,-0.3398437 -0.539062,0 -0.9375,0.1992187 -1.171875,0.5507812 -0.152344,0.234375 -0.210937,0.4921875 -0.234375,0.9257813 h 0.527344 c 0.02344,-0.2929688 0.05859,-0.4570313 0.128906,-0.5976563 0.140625,-0.2578125 0.410156,-0.4101562 0.726563,-0.4101562 0.480468,0 0.84375,0.3398437 0.84375,0.796875 0,0.328125 -0.199219,0.6210937 -0.574219,0.8320312 l -0.550781,0.3046875 c -0.890625,0.5039063 -1.148438,0.90234376 -1.195313,1.8398437625 h 2.824219 z m 1.333008,-1.00781246 0.703125,-0.7148438 1.535156,2.2382812625 H 18.89468 L 17.101711,-2.5790859 l 1.769531,-1.78125 h -0.714844 l -2.167968,2.203125 v -2.203125 h -0.5625 v 4.3593749625 h 0.5625 z m 0,0"
       style="fill:#000000;fill-opacity:1;fill-rule:nonzero;stroke:none"
       aria-label="393.2K"
       transform="matrix(1.3333333,0,0,1.3333333,62.436,138.888)" />
    <path
       id="path91"
       d="m 10.2476,0 c 0,0.9629 -0.78057,1.74348 -1.74348,1.74348 C 7.54121,1.74348 6.76064,0.9629 6.76064,0 c 0,-0.9629 0.78057,-1.74348 1.74348,-1.74348 0.96291,0 1.74348,0.78058 1.74348,1.74348 z"
       style="fill:#ff7f0e;fill-opacity:1;fill-rule:nonzero;stroke:#ff7f0e;stroke-width:0.99628;stroke-linecap:butt;stroke-linejoin:miter;stroke-miterlimit:10;stroke-dasharray:none;stroke-opacity:1"
       transform="matrix(1.3333333,0,0,-1.3333333,46.116,149.36533)" />
    <path
       id="path92"
       d="m 1.3253437,-1.9460391 h 0.28125 c 0.5859375,0 0.8789063,0.2578125 0.8789063,0.7734375 0,0.52734379 -0.328125,0.84375004 -0.8789063,0.84375004 -0.5742187,0 -0.8554687,-0.29296875 -0.89062495,-0.90234374 H 0.188625 c 0.0234375,0.33984374 0.0820313,0.56249999 0.1875,0.74999999 0.2109375,0.41015625 0.6328125,0.62109375 1.21875,0.62109375 0.8671875,0 1.4296875,-0.52734375 1.4296875,-1.32421874 0,-0.5390625 -0.2109375,-0.8320313 -0.7148438,-1.0078125 0.3984375,-0.1523438 0.5859375,-0.4570313 0.5859375,-0.8789063 0,-0.7265625 -0.4804687,-1.171875 -1.2890625,-1.171875 -0.8554687,0 -1.31249995,0.46875 -1.3242187,1.3710938 h 0.52734375 c 0,-0.2578125 0.0234375,-0.3984375 0.09375,-0.5273438 0.11718745,-0.234375 0.38671875,-0.375 0.71484375,-0.375 0.4570312,0 0.7382812,0.2695313 0.7382812,0.7148438 0,0.3046875 -0.1054687,0.4804687 -0.3398437,0.5742187 -0.140625,0.058594 -0.328125,0.082031 -0.6914063,0.09375 z M 6.1241719,-7.265625e-4 7.3429219,-3.6569766 V -7.265625e-4 H 7.8702656 V -4.3601016 H 7.0968281 L 5.8312031,-0.56322656 4.5421406,-4.3601016 H 3.7687031 V -7.265625e-4 H 4.2960469 V -3.6569766 l 1.2421875,3.6562500375 z m 0,0"
       style="fill:#000000;fill-opacity:1;fill-rule:nonzero;stroke:none"
       aria-label="3M"
       transform="matrix(1.3333333,0,0,1.3333333,62.436,151.208)" />
    <path
       id="path93"
       d="m 10.2476,0 c 0,0.9629 -0.78057,1.74348 -1.74348,1.74348 C 7.54121,1.74348 6.76064,0.9629 6.76064,0 c 0,-0.9629 0.78057,-1.74348 1.74348,-1.74348 0.96291,0 1.74348,0.78058 1.74348,1.74348 z"
       style="fill:#2ca02c;fill-opacity:1;fill-rule:nonzero;stroke:#2ca02c;stroke-width:0.99628;stroke-linecap:butt;stroke-linejoin:miter;stroke-miterlimit:10;stroke-dasharray:none;stroke-opacity:1"
       transform="matrix(1.3333333,0,0,-1.3333333,46.116,161.68533)" />
    <path
       id="path94"
       d="M 3.0245625,-0.5141875 H 0.798 C 0.844875,-0.86575 1.0440937,-1.0884062 1.5597187,-1.3930937 L 2.157375,-1.7095 c 0.5976562,-0.328125 0.9023437,-0.7617187 0.9023437,-1.2890625 0,-0.3515625 -0.1523437,-0.6796875 -0.3984375,-0.9023437 -0.2460937,-0.2226563 -0.5625,-0.3398438 -0.9609375,-0.3398438 -0.5390625,0 -0.93749995,0.1992188 -1.17187495,0.5507813 -0.15234375,0.234375 -0.2109375,0.4921875 -0.234375,0.9257812 H 0.8214375 C 0.844875,-3.0571562 0.88003125,-3.2212187 0.95034375,-3.3618437 1.0909687,-3.6196562 1.3605,-3.772 1.6769062,-3.772 c 0.4804688,0 0.84375,0.3398438 0.84375,0.796875 0,0.328125 -0.1992187,0.6210938 -0.5742187,0.8320313 L 1.3956562,-1.8384062 C 0.50503125,-1.3345 0.24721875,-0.9360625 0.20034375,0.0014375 H 3.0245625 Z M 6.1710469,-4.24075 H 3.9796406 L 3.6632344,-1.9321562 H 4.1437031 C 4.3897969,-2.225125 4.6007344,-2.318875 4.9288594,-2.318875 c 0.5625,0 0.9257812,0.3867188 0.9257812,1.0078125 0,0.609375 -0.3515625,0.984375 -0.9257812,0.984375 -0.46875,0 -0.75,-0.234375 -0.8671875,-0.7148437 H 3.5343281 c 0.070312,0.35156245 0.1289063,0.51562495 0.2578125,0.6679687 0.234375,0.328125 0.6679688,0.515625 1.1484375,0.515625 0.8554688,0 1.453125,-0.62109375 1.453125,-1.5234375 0,-0.8320312 -0.5625,-1.40625 -1.3710937,-1.40625 -0.3046875,0 -0.5390625,0.070312 -0.7851563,0.2578125 l 0.1640625,-1.1835937 h 1.7695313 z m 3.2753906,4.2421875 1.2187495,-3.65625 v 3.65625 h 0.527344 v -4.359375 h -0.773437 l -1.2656253,3.796875 -1.2890625,-3.796875 H 7.0909687 v 4.359375 h 0.5273438 v -3.65625 L 8.8605,0.0014375 Z m 0,0"
       style="fill:#000000;fill-opacity:1;fill-rule:nonzero;stroke:none"
       aria-label="25M"
       transform="matrix(1.3333333,0,0,1.3333333,62.436,163.52933)" />
    <path
       id="path95"
       d="m 10.2476,0 c 0,0.9629 -0.78057,1.74348 -1.74348,1.74348 C 7.54121,1.74348 6.76064,0.9629 6.76064,0 c 0,-0.9629 0.78057,-1.74348 1.74348,-1.74348 0.96291,0 1.74348,0.78058 1.74348,1.74348 z"
       style="fill:#d62728;fill-opacity:1;fill-rule:nonzero;stroke:#d62728;stroke-width:0.99628;stroke-linecap:butt;stroke-linejoin:miter;stroke-miterlimit:10;stroke-dasharray:none;stroke-opacity:1"
       transform="matrix(1.3333333,0,0,-1.3333333,46.116,174.00533)" />
    <path
       id="path96"
       d="m 2.3331562,-2.2278203 c 0.4453125,-0.2695313 0.5859375,-0.4804688 0.5859375,-0.8789063 0,-0.6679687 -0.515625,-1.1367187 -1.2773437,-1.1367187 -0.75,0 -1.265625,0.46875 -1.265625,1.1367187 0,0.3867188 0.140625,0.609375 0.57421875,0.8789063 -0.4921875,0.234375 -0.7265625,0.5859375 -0.7265625,1.0546875 0,0.77343749 0.5859375,1.31249999 1.41796875,1.31249999 0.84375,0 1.4296875,-0.5390625 1.4296875,-1.31249999 0,-0.46875 -0.2460938,-0.8203125 -0.7382813,-1.0546875 z M 1.64175,-3.7746953 c 0.4453125,0 0.7382812,0.2695312 0.7382812,0.6796875 0,0.3867187 -0.2929687,0.65625 -0.7382812,0.65625 -0.4335938,0 -0.7265625,-0.2695313 -0.7265625,-0.6679688 0,-0.3984375 0.2929687,-0.6679687 0.7265625,-0.6679687 z m 0,1.78125 c 0.5273437,0 0.890625,0.328125 0.890625,0.8320312 0,0.49218754 -0.3632813,0.83203129 -0.9023438,0.83203129 -0.515625,0 -0.86718745,-0.33984375 -0.86718745,-0.83203129 0,-0.5039062 0.35156245,-0.8320312 0.87890625,-0.8320312 z m 4.5292969,-2.25 H 3.9796406 l -0.3164062,2.3085937 h 0.4804687 c 0.2460938,-0.2929687 0.4570313,-0.3867187 0.7851563,-0.3867187 0.5625,0 0.9257812,0.3867187 0.9257812,1.0078125 0,0.60937499 -0.3515625,0.98437499 -0.9257812,0.98437499 -0.46875,0 -0.75,-0.234375 -0.8671875,-0.71484379 H 3.5343281 c 0.070312,0.35156254 0.1289063,0.51562504 0.2578125,0.66796879 0.234375,0.328125 0.6679688,0.515625 1.1484375,0.515625 0.8554688,0 1.453125,-0.62109375 1.453125,-1.52343749 0,-0.8320313 -0.5625,-1.40625 -1.3710937,-1.40625 -0.3046875,0 -0.5390625,0.070312 -0.7851563,0.2578125 l 0.1640625,-1.1835938 h 1.7695313 z m 3.2753906,4.24218749 1.2187495,-3.65624999 v 3.65624999 h 0.527344 V -4.3606328 H 10.419094 L 9.1534687,-0.56375781 7.8644062,-4.3606328 H 7.0909687 v 4.35937499 H 7.6183125 V -3.6575078 L 8.8605,-0.00125781 Z m 0,0"
       style="fill:#000000;fill-opacity:1;fill-rule:nonzero;stroke:none"
       aria-label="85M"
       transform="matrix(1.3333333,0,0,1.3333333,62.436,175.84933)" />
    <path
       id="path97"
       d="m 10.2476,0 c 0,0.9629 -0.78057,1.74348 -1.74348,1.74348 C 7.54121,1.74348 6.76064,0.9629 6.76064,0 c 0,-0.9629 0.78057,-1.74348 1.74348,-1.74348 0.96291,0 1.74348,0.78058 1.74348,1.74348 z"
       style="fill:#9467bd;fill-opacity:1;fill-rule:nonzero;stroke:#9467bd;stroke-width:0.99628;stroke-linecap:butt;stroke-linejoin:miter;stroke-miterlimit:10;stroke-dasharray:none;stroke-opacity:1"
       transform="matrix(1.3333333,0,0,-1.3333333,46.116,186.32667)" />
    <path
       id="path98"
       d="m 1.3253437,-1.9463359 h 0.28125 c 0.5859375,0 0.8789063,0.2578125 0.8789063,0.7734375 0,0.52734371 -0.328125,0.84374996 -0.8789063,0.84374996 -0.5742187,0 -0.8554687,-0.29296875 -0.89062495,-0.90234376 H 0.188625 c 0.0234375,0.33984376 0.0820313,0.56250001 0.1875,0.75000001 0.2109375,0.41015625 0.6328125,0.62109375 1.21875,0.62109375 0.8671875,0 1.4296875,-0.52734375 1.4296875,-1.32421876 0,-0.5390625 -0.2109375,-0.8320312 -0.7148438,-1.0078125 0.3984375,-0.1523437 0.5859375,-0.4570312 0.5859375,-0.8789062 0,-0.7265625 -0.4804687,-1.171875 -1.2890625,-1.171875 -0.8554687,0 -1.31249995,0.46875 -1.3242187,1.3710937 h 0.52734375 c 0,-0.2578125 0.0234375,-0.3984375 0.09375,-0.5273437 0.11718745,-0.234375 0.38671875,-0.375 0.71484375,-0.375 0.4570312,0 0.7382812,0.2695312 0.7382812,0.7148437 0,0.3046875 -0.1054687,0.4804688 -0.3398437,0.5742188 -0.140625,0.058594 -0.328125,0.082031 -0.6914063,0.09375 z m 3.6386719,-2.296875 c -0.3867187,0 -0.75,0.1757812 -0.9726562,0.46875 -0.2695313,0.375 -0.4101563,0.9375 -0.4101563,1.7226562 0,1.42968751 0.4804688,2.19140626 1.3828125,2.19140626 0.9023438,0 1.3945313,-0.76171875 1.3945313,-2.15624996 0,-0.8203125 -0.140625,-1.3710938 -0.421875,-1.7578125 -0.2109375,-0.2929688 -0.5742188,-0.46875 -0.9726563,-0.46875 z m 0,0.46875 c 0.5742188,0 0.8554688,0.5742187 0.8554688,1.7109375 0,1.20703121 -0.28125,1.76953121 -0.8671875,1.76953121 -0.5507813,0 -0.8320313,-0.5859375 -0.8320313,-1.74609371 0,-1.1601563 0.28125,-1.734375 0.84375,-1.734375 z m 4.7050781,3.25781246 H 7.4425312 C 7.4894062,-0.86821094 7.688625,-1.0908672 8.20425,-1.3955547 L 8.8019062,-1.7119609 C 9.3995625,-2.0400859 9.70425,-2.4736797 9.70425,-3.0010234 c 0,-0.3515625 -0.1523438,-0.6796875 -0.3984375,-0.9023438 -0.2460938,-0.2226562 -0.5625,-0.3398437 -0.9609375,-0.3398437 -0.5390625,0 -0.9375,0.1992187 -1.171875,0.5507812 -0.1523438,0.234375 -0.2109375,0.4921875 -0.234375,0.9257813 h 0.5273437 c 0.023437,-0.2929688 0.058594,-0.4570313 0.1289063,-0.5976563 0.140625,-0.2578125 0.4101562,-0.4101562 0.7265625,-0.4101562 0.4804687,0 0.84375,0.3398437 0.84375,0.796875 0,0.328125 -0.1992188,0.6210937 -0.5742188,0.8320312 L 8.0401875,-1.8408672 C 7.1495625,-1.3369609 6.89175,-0.93852344 6.844875,-0.00102344 h 2.8242187 z m 3.1025393,0.515625 1.21875,-3.65624996 v 3.65624996 h 0.527344 V -4.3603984 h -0.773438 l -1.265625,3.79687496 -1.289062,-3.79687496 h -0.773438 v 4.35937496 h 0.527344 V -3.6572734 l 1.242187,3.65624996 z m 0,0"
       style="fill:#000000;fill-opacity:1;fill-rule:nonzero;stroke:none"
       aria-label="302M"
       transform="matrix(1.3333333,0,0,1.3333333,62.436,188.16933)" />
    <path
       id="path99"
       d="m 10.2476,0 c 0,0.9629 -0.78057,1.74348 -1.74348,1.74348 C 7.54121,1.74348 6.76064,0.9629 6.76064,0 c 0,-0.9629 0.78057,-1.74348 1.74348,-1.74348 0.96291,0 1.74348,0.78058 1.74348,1.74348 z"
       style="fill:#8c564b;fill-opacity:1;fill-rule:nonzero;stroke:#8c564b;stroke-width:0.99628;stroke-linecap:butt;stroke-linejoin:miter;stroke-miterlimit:10;stroke-dasharray:none;stroke-opacity:1"
       transform="matrix(1.3333333,0,0,-1.3333333,46.116,198.64667)" />
    <path
       id="path100"
       d="M 3.1065937,-4.2429766 H 0.27065625 v 0.5273438 H 2.5675312 C 1.5597187,-2.2742266 1.1378437,-1.3953203 0.8214375,-7.890625e-4 h 0.5625 C 1.6183125,-1.3601641 2.157375,-2.5203203 3.1065937,-3.7976641 Z m 1.8574219,0 c -0.3867187,0 -0.75,0.1757813 -0.9726562,0.46875 -0.2695313,0.375 -0.4101563,0.9375 -0.4101563,1.7226563 0,1.42968749 0.4804688,2.19140624 1.3828125,2.19140624 0.9023438,0 1.3945313,-0.76171875 1.3945313,-2.15625004 0,-0.8203125 -0.140625,-1.3710937 -0.421875,-1.7578125 -0.2109375,-0.2929687 -0.5742188,-0.46875 -0.9726563,-0.46875 z m 0,0.46875 c 0.5742188,0 0.8554688,0.5742188 0.8554688,1.7109375 0,1.20703129 -0.28125,1.76953129 -0.8671875,1.76953129 -0.5507813,0 -0.8320313,-0.5859375 -0.8320313,-1.74609379 0,-1.1601562 0.28125,-1.734375 0.84375,-1.734375 z m 4.0136719,1.546875 C 9.423,-2.4968828 9.563625,-2.7078203 9.563625,-3.1062578 c 0,-0.6679688 -0.515625,-1.1367188 -1.2773438,-1.1367188 -0.75,0 -1.265625,0.46875 -1.265625,1.1367188 0,0.3867187 0.140625,0.609375 0.5742188,0.8789062 -0.4921875,0.234375 -0.7265625,0.5859375 -0.7265625,1.0546875 0,0.77343754 0.5859375,1.31250004 1.4179687,1.31250004 0.84375,0 1.4296875,-0.5390625 1.4296875,-1.31250004 0,-0.46875 -0.2460937,-0.8203125 -0.7382812,-1.0546875 z m -0.6914063,-1.546875 c 0.4453125,0 0.7382813,0.2695313 0.7382813,0.6796875 0,0.3867188 -0.2929688,0.65625 -0.7382813,0.65625 -0.4335937,0 -0.7265625,-0.2695312 -0.7265625,-0.6679687 0,-0.3984375 0.2929688,-0.6679688 0.7265625,-0.6679688 z m 0,1.78125 c 0.5273438,0 0.890625,0.328125 0.890625,0.8320313 0,0.49218749 -0.3632812,0.83203124 -0.9023437,0.83203124 -0.515625,0 -0.8671875,-0.33984375 -0.8671875,-0.83203124 0,-0.5039063 0.3515625,-0.8320313 0.8789062,-0.8320313 z M 12.771633,-7.890625e-4 13.990383,-3.6570391 v 3.6562500375 h 0.527344 V -4.3601641 h -0.773438 l -1.265625,3.79687504 -1.289062,-3.79687504 h -0.773438 v 4.3593750375 h 0.527344 V -3.6570391 l 1.242187,3.6562500375 z m 0,0"
       style="fill:#000000;fill-opacity:1;fill-rule:nonzero;stroke:none"
       aria-label="708M"
       transform="matrix(1.3333333,0,0,1.3333333,62.436,200.48933)" />
  </g>
</svg>
