<?xml version="1.0" encoding="UTF-8" standalone="no"?>
<!-- Created with Inkscape (http://www.inkscape.org/) -->

<svg
   version="1.1"
   id="svg1"
   width="199.90533"
   height="168.448"
   viewBox="0 0 199.90533 168.448"
   xmlns="http://www.w3.org/2000/svg"
   xmlns:svg="http://www.w3.org/2000/svg">
  <defs
     id="defs1" />
  <g
     id="g1">
    <path
       id="path1"
       d="M 4.7450234,-2.9288359 V -3.5147734 H 1.7098672 v -2.0742188 h 0.3398437 c 0.7265625,0 1.4648438,0.023437 2.1914063,0.023437 h 0.7734375 v -0.632812 H 0.85439844 V 8.515625e-4 H 5.1317422 V -0.67883594 h -0.890625 c -0.84375,0 -1.6875,0.0117188 -2.53125,0.0117188 V -2.9288359 Z m 7.5644536,-3.3046875 h -0.773438 v 0.7734375 h 0.773438 z m -0.03516,2.25 h -0.71484 V 8.515625e-4 h 0.714843 z m -2.5429684,0.5625 h 1.0664064 v -0.5625 H 9.7079141 v -1.0546875 c 0,-0.5625 0.3046879,-0.703125 0.5390629,-0.703125 0.304687,0 0.539062,0.1523437 0.550781,0.1640625 v -0.65625 c -0.199219,-0.058594 -0.269531,-0.082031 -0.550781,-0.082031 -0.6914067,0 -1.2304692,0.65625 -1.2304692,1.5351563 V 8.515625e-4 h 0.7148438 z m -2.5546875,0 h 1.0664062 v -0.5625 H 7.1532266 v -1.0429688 c 0,-0.6210937 0.4570312,-0.7148437 0.6796875,-0.7148437 0.3515625,0 0.6328125,0.1523437 0.6445312,0.1523437 v -0.6328125 c -0.1757812,-0.046875 -0.421875,-0.09375 -0.6328125,-0.09375 -0.7734375,0 -1.3828125,0.6328125 -1.3828125,1.546875 v 0.7851563 H 5.7821328 v 0.5625 H 6.4618203 V 8.515625e-4 h 0.7148438 z m 9.6298829,2.44921871 c -0.433594,0.3046875 -0.902344,0.45703125 -1.441406,0.45703125 -0.761719,0 -1.265625,-0.63281246 -1.265625,-1.48828126 0,-0.6796875 0.339843,-1.5234375 1.300781,-1.5234375 0.5625,0 0.855469,0.1171875 1.300781,0.421875 l 0.117188,-0.6328125 c -0.503907,-0.28125 -0.785157,-0.3984375 -1.429688,-0.3984375 -1.265625,0 -2.027344,1.078125 -2.027344,2.1445313 0,1.11328121 0.832032,2.08593746 1.992188,2.08593746 0.632812,0 1.101562,-0.1875 1.511719,-0.421875 z M 18.65518,-6.1280547 h -0.855469 v 0.8554688 h 0.855469 z m -0.07031,2.1445313 H 17.870023 V 8.515625e-4 h 0.714844 z m 4.579102,2.015625 c 0,-0.2695313 -0.01172,-0.9492188 -0.363282,-1.4882813 -0.375,-0.5625 -0.949218,-0.6796875 -1.289062,-0.6796875 -1.042969,0 -1.863281,0.9609375 -1.863281,2.109375 0,1.18359376 0.878906,2.12109376 1.992187,2.12109376 0.433594,0 0.949219,-0.10546875 1.476563,-0.43359375 l -0.0586,-0.62109375 c -0.5625,0.41015625 -1.089844,0.48046875 -1.40625,0.48046875 -0.738281,0 -1.3125,-0.65625001 -1.347656,-1.48828121 z M 20.36319,-2.4952422 c 0.140625,-0.5742187 0.585938,-1.0546875 1.148438,-1.0546875 0.328125,0 0.9375,0.1523438 1.113281,1.0546875 z m 7.083985,-0.1640625 c 0,-0.6679687 -0.175781,-1.4179687 -1.253906,-1.4179687 -0.714844,0 -1.148438,0.4101562 -1.347657,0.6796875 V -4.0303984 H 24.154203 V 8.515625e-4 h 0.738281 V -2.1905547 c 0,-0.5859375 0.234375,-1.3007812 0.914063,-1.3007812 0.902344,0 0.902344,0.6328125 0.902344,0.890625 V 8.515625e-4 h 0.738281 z m 4.511719,1.68750001 c -0.433594,0.3046875 -0.902344,0.45703125 -1.441407,0.45703125 -0.761718,0 -1.265625,-0.63281246 -1.265625,-1.48828126 0,-0.6796875 0.339844,-1.5234375 1.300782,-1.5234375 0.5625,0 0.855468,0.1171875 1.300781,0.421875 l 0.117187,-0.6328125 c -0.503906,-0.28125 -0.785156,-0.3984375 -1.429687,-0.3984375 -1.265625,0 -2.027344,1.078125 -2.027344,2.1445313 0,1.11328121 0.832031,2.08593746 1.992188,2.08593746 0.632812,0 1.101562,-0.1875 1.511718,-0.421875 z M 36.39737,-3.9835234 h -0.703125 c -0.679687,1.640625 -1.183594,2.8242187 -1.21875,3.45703121 -0.03516,-0.41015625 -0.410156,-1.33593751 -0.515625,-1.59375001 -0.363281,-0.9140625 -0.515625,-1.21875 -0.796875,-1.8632812 h -0.75 L 34.205961,8.515625e-4 33.866117,0.79772656 C 33.643461,1.3016328 33.46768,1.3016328 33.338773,1.3016328 c -0.140625,0 -0.457031,-0.035156 -0.726562,-0.1523437 l 0.05859,0.6210937 c 0.02344,0 0.351562,0.070312 0.667968,0.070312 0.234375,0 0.621094,0 1.066407,-1.06640624 z m 0,0"
       style="fill:#000000;fill-opacity:1;fill-rule:nonzero;stroke:none"
       aria-label="Efciency"
       transform="matrix(1.3333333,0,0,1.3333333,71.505333,12.729333)" />
    <path
       id="path2"
       d="m 2.1926719,-3.7629453 c -0.4570313,-0.1054688 -0.9140625,-0.46875 -0.9140625,-0.984375 0,-0.515625 0.4921875,-1.03125 1.3007812,-1.03125 0.6445313,0 1.1015625,0.1875 1.5585938,0.5742187 L 4.2903281,-5.9777891 C 3.8332969,-6.2004453 3.4114219,-6.4231016 2.5911094,-6.4231016 c -1.2773438,0 -2.07421878,0.890625 -2.07421878,1.78125 0,0.234375 0.0351563,0.5859375 0.33984375,0.9960938 0.42187503,0.5390625 0.99609373,0.6796875 1.37109373,0.7617187 0.1171875,0.035156 0.6796875,0.1757813 0.75,0.1992188 0.4101563,0.1171875 0.8554688,0.515625 0.8554688,1.0664062 0,0.5976563 -0.5039063,1.14843754 -1.3007813,1.14843754 -0.7265625,0 -1.40625,-0.26953125 -1.98046873,-0.73828124 l -0.140625,0.78515624 C 1.2903281,0.12767969 2.1106406,0.19799219 2.5325156,0.19799219 c 1.2304688,0 2.0625,-0.9140625 2.0625,-1.91015629 0,-1.0195312 -0.8320312,-1.6757812 -1.5,-1.8398437 z m 6.7001953,2.78906249 c -0.4335938,0.3046875 -0.9023438,0.45703125 -1.4414063,0.45703125 -0.7617187,0 -1.265625,-0.63281254 -1.265625,-1.48828124 0,-0.6796875 0.3398438,-1.5234375 1.3007813,-1.5234375 0.5625,0 0.8554687,0.1171875 1.3007812,0.421875 l 0.1171875,-0.6328125 c -0.5039062,-0.28125 -0.7851562,-0.3984375 -1.4296875,-0.3984375 -1.265625,0 -2.0273437,1.078125 -2.0273437,2.1445312 0,1.11328129 0.8320312,2.08593754 1.9921875,2.08593754 0.6328125,0 1.1015625,-0.1875 1.5117187,-0.421875 z M 12.906539,-2.5910703 c 0,-0.890625 -0.65625,-1.546875 -1.535156,-1.546875 -0.585938,0 -1.019531,0.1523437 -1.4531252,0.3984375 l 0.058594,0.6328125 c 0.4453122,-0.328125 0.8906252,-0.4570313 1.3828122,-0.4570313 0.503906,0 0.808594,0.3984375 0.808594,0.984375 v 0.375 c -1.546875,0.035156 -2.5546875,0.4335938 -2.5546875,1.1601563 0,0.42187499 0.2695313,1.13671874 1.0546875,1.13671874 0.175781,0 0.960937,-0.01171875 1.523437,-0.43359375 v 0.33984375 h 0.714844 z m -0.738281,1.3359375 c 0,0.1875 0,0.41015624 -0.328125,0.59765624 -0.222656,0.140625 -0.515625,0.17578125 -0.703125,0.17578125 -0.457031,0 -0.832031,-0.22265625 -0.832031,-0.57421879 0,-0.6445312 1.746093,-0.6679687 1.863281,-0.6679687 z m 2.926758,-4.96875 h -0.714844 v 6.22265624 h 0.714844 z m 4.441406,3.6328125 c 0,-0.890625 -0.65625,-1.546875 -1.535156,-1.546875 -0.585938,0 -1.019532,0.1523437 -1.453125,0.3984375 l 0.05859,0.6328125 c 0.445313,-0.328125 0.890625,-0.4570313 1.382813,-0.4570313 0.503906,0 0.808594,0.3984375 0.808594,0.984375 v 0.375 c -1.546875,0.035156 -2.554688,0.4335938 -2.554688,1.1601563 0,0.42187499 0.269531,1.13671874 1.054688,1.13671874 0.175781,0 0.960937,-0.01171875 1.523437,-0.43359375 v 0.33984375 h 0.714844 z m -0.738281,1.3359375 c 0,0.1875 0,0.41015624 -0.328125,0.59765624 -0.222657,0.140625 -0.515625,0.17578125 -0.703125,0.17578125 -0.457032,0 -0.832032,-0.22265625 -0.832032,-0.57421879 0,-0.6445312 1.746094,-0.6679687 1.863282,-0.6679687 z m 2.938476,-4.96875 h -0.726562 v 6.22265624 h 0.75 v -0.421875 c 0.117187,0.12890625 0.574218,0.515625 1.242187,0.515625 0.925781,0 1.699219,-0.90234375 1.699219,-2.09765624 0,-1.078125 -0.597656,-2.0742188 -1.476563,-2.0742188 -0.234375,0 -0.878906,0.046875 -1.488281,0.515625 z m 0.02344,3.2226562 c 0.128906,-0.1875 0.457031,-0.4921875 0.972656,-0.4921875 0.539062,0 1.21875,0.375 1.21875,1.4882813 0,1.16015624 -0.761719,1.52343749 -1.3125,1.52343749 -0.574219,0 -0.832031,-0.48046875 -0.878906,-0.56249999 z m 4.795898,-3.1289062 h -0.855469 v 0.8554687 h 0.855469 z m -0.07031,2.1445312 h -0.714844 v 3.98437504 h 0.714844 z m 2.200195,-2.2382812 h -0.714844 v 6.22265624 h 0.714844 z m 2.270508,0.09375 h -0.855469 v 0.8554687 h 0.855469 z m -0.07031,2.1445312 h -0.714844 v 3.98437504 h 0.714844 z m 2.364258,0.5625 h 1.300781 v -0.5625 h -1.300781 v -1.1367187 h -0.65625 v 1.1367187 H 31.80889 v 0.5625 h 0.761719 v 2.296875 c 0,0.52734379 0.117187,1.21875004 0.761718,1.21875004 0.398438,0 0.867188,-0.0703125 1.371094,-0.328125 l -0.152344,-0.5625 c -0.234375,0.17578125 -0.550781,0.28125 -0.832031,0.28125 -0.351562,0 -0.46875,-0.3046875 -0.46875,-0.77343754 z m 5.563477,-0.5625 h -0.703125 c -0.679688,1.640625 -1.183594,2.8242188 -1.21875,3.45703129 -0.03516,-0.41015625 -0.410157,-1.33593749 -0.515625,-1.59374999 -0.363282,-0.9140625 -0.515625,-1.21875 -0.796875,-1.8632813 h -0.75 l 1.792968,3.98437504 -0.339843,0.796875 C 36.059859,1.2995547 35.884078,1.2995547 35.755172,1.2995547 c -0.140625,0 -0.457031,-0.035156 -0.726563,-0.1523438 l 0.05859,0.6210938 c 0.02344,0 0.351563,0.070312 0.667969,0.070312 0.234375,0 0.621094,0 1.066406,-1.06640626 z m 0,0"
       style="fill:#000000;fill-opacity:1;fill-rule:nonzero;stroke:none"
       aria-label="Scalability"
       transform="matrix(1.3333333,0,0,1.3333333,4.428,123.45867)" />
    <path
       id="path3"
       d="m 2.1904531,-3.7629453 c -0.4570312,-0.1054688 -0.9140625,-0.46875 -0.9140625,-0.984375 0,-0.515625 0.4921875,-1.03125 1.3007813,-1.03125 0.6445312,0 1.1015625,0.1875 1.5585937,0.5742187 L 4.2881094,-5.9777891 C 3.8310781,-6.2004453 3.4092031,-6.4231016 2.5888906,-6.4231016 c -1.2773437,0 -2.07421872,0.890625 -2.07421872,1.78125 0,0.234375 0.0351563,0.5859375 0.33984375,0.9960938 0.42187497,0.5390625 0.99609377,0.6796875 1.37109377,0.7617187 0.1171875,0.035156 0.6796875,0.1757813 0.75,0.1992188 0.4101562,0.1171875 0.8554687,0.515625 0.8554687,1.0664062 0,0.5976563 -0.5039062,1.14843754 -1.3007812,1.14843754 -0.7265625,0 -1.40625,-0.26953125 -1.98046877,-0.73828124 l -0.140625,0.78515624 C 1.2881094,0.12767969 2.1084219,0.19799219 2.5302969,0.19799219 c 1.2304687,0 2.0625,-0.9140625 2.0625,-1.91015629 0,-1.0195312 -0.8320313,-1.6757812 -1.5,-1.8398437 z M 9.1396719,-3.9856016 H 8.4013906 v 2.5898438 c 0,0.72656249 -0.5625,0.96093749 -1.1015625,0.96093749 -0.6445312,0 -0.7148437,-0.19921875 -0.7148437,-0.58593749 V -3.9856016 H 5.8467031 v 3.01171879 c 0,0.76171875 0.3046875,1.06640625 0.9375,1.06640625 0.5273438,0 1.21875,-0.15234375 1.640625,-0.52734375 v 0.43359375 h 0.7148438 z m 3.9052731,0.140625 c -0.550781,-0.2578125 -0.972656,-0.2929687 -1.335937,-0.2929687 -0.210938,0 -1.523438,0 -1.523438,1.1835937 0,0.4335938 0.257813,0.703125 0.363282,0.796875 0.339843,0.3046875 0.574218,0.3398438 1.183593,0.4570313 0.28125,0.058594 0.796875,0.1523437 0.796875,0.609375 0,0.58593749 -0.726562,0.58593749 -0.84375,0.58593749 -0.527343,0 -1.042968,-0.17578125 -1.429687,-0.4453125 l -0.117188,0.65625 c 0.539063,0.28125 1.089844,0.38671875 1.546875,0.38671875 0.574219,0 1.511719,-0.1875 1.511719,-1.25390624 0,-0.3046875 -0.128906,-0.6210938 -0.433594,-0.890625 -0.304687,-0.2578125 -0.574218,-0.3164063 -1.136718,-0.421875 -0.316407,-0.058594 -0.773438,-0.140625 -0.773438,-0.5625 0,-0.5273438 0.644531,-0.5273438 0.773438,-0.5273438 0.65625,0 1.042968,0.1992188 1.300781,0.3398438 z m 1.986328,0.421875 h 1.300782 v -0.5625 h -1.300782 v -1.1367187 h -0.65625 v 1.1367187 h -0.785156 v 0.5625 h 0.761719 v 2.296875 c 0,0.52734379 0.117187,1.21875004 0.761719,1.21875004 0.398437,0 0.867187,-0.0703125 1.371093,-0.328125 l -0.152343,-0.5625 c -0.234375,0.17578125 -0.550782,0.28125 -0.832032,0.28125 -0.351562,0 -0.46875,-0.3046875 -0.46875,-0.77343754 z m 5.399415,0.8320313 c 0,-0.890625 -0.65625,-1.546875 -1.535157,-1.546875 -0.585937,0 -1.019531,0.1523437 -1.453125,0.3984375 l 0.05859,0.6328125 c 0.445313,-0.328125 0.890625,-0.4570313 1.382813,-0.4570313 0.503906,0 0.808593,0.3984375 0.808593,0.984375 v 0.375 c -1.546875,0.035156 -2.554687,0.4335938 -2.554687,1.1601563 0,0.42187499 0.269531,1.13671874 1.054687,1.13671874 0.175782,0 0.960938,-0.01171875 1.523438,-0.43359375 v 0.33984375 h 0.714844 z m -0.738282,1.3359375 c 0,0.1875 0,0.41015624 -0.328125,0.59765624 -0.222656,0.140625 -0.515625,0.17578125 -0.703125,0.17578125 -0.457031,0 -0.832031,-0.22265625 -0.832031,-0.57421879 0,-0.6445312 1.746094,-0.6679687 1.863281,-0.6679687 z m 3,-4.875 h -0.855468 v 0.8554687 h 0.855468 z m -0.07031,2.1445312 H 21.90725 v 3.98437504 h 0.714844 z m 4.766601,1.3242188 c 0,-0.6679688 -0.175781,-1.4179688 -1.253906,-1.4179688 -0.714844,0 -1.148437,0.4101563 -1.347656,0.6796875 v -0.6328125 h -0.691406 v 4.03125004 H 24.83401 V -2.1926328 c 0,-0.5859375 0.234375,-1.3007813 0.914062,-1.3007813 0.902344,0 0.902344,0.6328125 0.902344,0.890625 v 2.60156254 h 0.738281 z m 4.432618,0.070312 c 0,-0.890625 -0.65625,-1.546875 -1.535157,-1.546875 -0.585937,0 -1.019531,0.1523437 -1.453125,0.3984375 l 0.05859,0.6328125 c 0.445313,-0.328125 0.890625,-0.4570313 1.382813,-0.4570313 0.503906,0 0.808593,0.3984375 0.808593,0.984375 v 0.375 c -1.546875,0.035156 -2.554687,0.4335938 -2.554687,1.1601563 0,0.42187499 0.269531,1.13671874 1.054687,1.13671874 0.175782,0 0.960938,-0.01171875 1.523438,-0.43359375 v 0.33984375 h 0.714844 z m -0.738282,1.3359375 c 0,0.1875 0,0.41015624 -0.328125,0.59765624 -0.222656,0.140625 -0.515625,0.17578125 -0.703125,0.17578125 -0.457031,0 -0.832031,-0.22265625 -0.832031,-0.57421879 0,-0.6445312 1.746094,-0.6679687 1.863281,-0.6679687 z m 2.938477,-4.96875 h -0.726563 v 6.22265624 h 0.75 v -0.421875 c 0.117188,0.12890625 0.574219,0.515625 1.242188,0.515625 0.925781,0 1.699219,-0.90234375 1.699219,-2.09765624 0,-1.078125 -0.597657,-2.0742188 -1.476563,-2.0742188 -0.234375,0 -0.878906,0.046875 -1.488281,0.515625 z m 0.02344,3.2226562 c 0.128907,-0.1875 0.457032,-0.4921875 0.972657,-0.4921875 0.539062,0 1.21875,0.375 1.21875,1.4882813 0,1.16015624 -0.761719,1.52343749 -1.3125,1.52343749 -0.574219,0 -0.832032,-0.48046875 -0.878907,-0.56249999 z m 4.795899,-3.1289062 H 37.98538 v 0.8554687 h 0.855469 z m -0.07031,2.1445312 h -0.714843 v 3.98437504 h 0.714843 z m 2.200196,-2.2382812 h -0.714844 v 6.22265624 h 0.714844 z m 2.270507,0.09375 h -0.855468 v 0.8554687 h 0.855468 z m -0.07031,2.1445312 h -0.714844 v 3.98437504 h 0.714844 z m 2.364258,0.5625 h 1.300781 v -0.5625 H 45.53518 v -1.1367187 h -0.65625 v 1.1367187 h -0.785157 v 0.5625 h 0.761719 v 2.296875 c 0,0.52734379 0.117188,1.21875004 0.761719,1.21875004 0.398437,0 0.867187,-0.0703125 1.371094,-0.328125 l -0.152344,-0.5625 c -0.234375,0.17578125 -0.550781,0.28125 -0.832031,0.28125 -0.351563,0 -0.46875,-0.3046875 -0.46875,-0.77343754 z m 5.563476,-0.5625 h -0.703125 c -0.679687,1.640625 -1.183593,2.8242188 -1.21875,3.45703129 -0.03516,-0.41015625 -0.410156,-1.33593749 -0.515625,-1.59374999 -0.363281,-0.9140625 -0.515625,-1.21875 -0.796875,-1.8632813 h -0.75 l 1.792969,3.98437504 -0.339844,0.796875 C 48.34475,1.2995547 48.168969,1.2995547 48.040063,1.2995547 c -0.140625,0 -0.457032,-0.035156 -0.726563,-0.1523438 l 0.05859,0.6210938 c 0.02344,0 0.351562,0.070312 0.667969,0.070312 0.234375,0 0.621093,0 1.066406,-1.06640626 z m 0,0"
       style="fill:#000000;fill-opacity:1;fill-rule:nonzero;stroke:none"
       aria-label="Sustainability"
       transform="matrix(1.3333333,0,0,1.3333333,127.16533,123.45867)" />
    <path
       id="path4"
       d="M 53.27484,-19.39066 C 63.98415,10.03256 48.8139,42.56554 26.41203,50.71931"
       style="fill:none;stroke:#b366b3;stroke-width:9.96277;stroke-linecap:butt;stroke-linejoin:miter;stroke-miterlimit:10;stroke-dasharray:none;stroke-opacity:1"
       transform="matrix(1.3333333,0,0,-1.3333333,95.858667,82.674667)" />
    <path
       id="path5"
       d="M 6.63725,0 0.99628,6.51694 V 0 -6.51694 Z"
       style="fill:#b366b3;fill-opacity:1;fill-rule:nonzero;stroke:#b366b3;stroke-width:1.99255;stroke-linecap:butt;stroke-linejoin:miter;stroke-miterlimit:10;stroke-dasharray:none;stroke-opacity:1"
       transform="matrix(-1.2529067,-0.45601333,-0.45601333,1.2529067,131.69884,15.276093)" />
    <path
       id="path6"
       d="M -19.39066,53.27484 C -48.8139,42.56554 -63.98415,10.03256 -55.83037,-12.3693"
       style="fill:none;stroke:#3ca4ce;stroke-width:9.96277;stroke-linecap:butt;stroke-linejoin:miter;stroke-miterlimit:10;stroke-dasharray:none;stroke-opacity:1"
       transform="matrix(1.3333333,0,0,-1.3333333,95.858667,82.674667)" />
    <path
       id="path7"
       d="M 6.63725,0 0.99628,6.51694 V 0 -6.51694 Z"
       style="fill:#3ca4ce;fill-opacity:1;fill-rule:nonzero;stroke:#3ca4ce;stroke-width:1.99255;stroke-linecap:butt;stroke-linejoin:miter;stroke-miterlimit:10;stroke-dasharray:none;stroke-opacity:1"
       transform="matrix(0.45601333,1.2529067,1.2529067,-0.45601333,21.191027,98.542933)" />
    <path
       id="path8"
       d="m -43.4294,-36.44218 c 13.01801,-15.51401 33.32917,-22.9074 53.27394,-19.39069 13.12502,2.31422 25.01815,9.18144 28.78199,13.6669"
       style="fill:none;stroke:#ffa64c;stroke-width:9.96277;stroke-linecap:butt;stroke-linejoin:miter;stroke-miterlimit:10;stroke-dasharray:none;stroke-opacity:1"
       transform="matrix(1.3333333,0,0,-1.3333333,95.858667,82.674667)" />
    <path
       id="path9"
       d="M 6.63725,0 0.99628,6.51694 V 0 -6.51694 Z"
       style="fill:#ffa64c;fill-opacity:1;fill-rule:nonzero;stroke:#ffa64c;stroke-width:1.99255;stroke-linecap:butt;stroke-linejoin:miter;stroke-miterlimit:10;stroke-dasharray:none;stroke-opacity:1"
       transform="matrix(0.85704,-1.02136,-1.02136,-0.85704,146.93379,139.40473)" />
  </g>
</svg>
