<?xml version="1.0" encoding="UTF-8" standalone="no"?>
<!-- Created with Inkscape (http://www.inkscape.org/) -->

<svg
   version="1.1"
   id="svg1"
   width="274.96799"
   height="168.79601"
   viewBox="0 0 274.96799 168.79601"
   xmlns="http://www.w3.org/2000/svg"
   xmlns:svg="http://www.w3.org/2000/svg">
  <defs
     id="defs1" />
  <g
     id="g1">
    <path
       id="path1"
       d="M 18.42567,-26.92937 V 12.75597 L 6.42091,0.75122 v -39.68535 z"
       style="fill:#4c92b5;fill-opacity:1;fill-rule:nonzero;stroke:#000000;stroke-width:0.69739;stroke-linecap:round;stroke-linejoin:round;stroke-miterlimit:10;stroke-dasharray:none;stroke-opacity:1"
       transform="matrix(0.76088,0,0,-0.76088,113.71123,57.42219)" />
    <path
       id="path2"
       d="M -38.93413,-38.93413 V 0.75122 H 6.42091 v -39.68535 h -45.35504"
       style="fill:#99c1d5;fill-opacity:1;fill-rule:nonzero;stroke:#000000;stroke-width:0.69739;stroke-linecap:round;stroke-linejoin:round;stroke-miterlimit:10;stroke-dasharray:none;stroke-opacity:1"
       transform="matrix(0.76088,0,0,-0.76088,113.71123,57.42219)" />
    <path
       id="path3"
       d="M -26.92937,12.75597 -38.93413,0.75122 H 6.42091 l 12.00476,12.00475 z"
       style="fill:#cce0ea;fill-opacity:1;fill-rule:nonzero;stroke:#000000;stroke-width:0.69739;stroke-linecap:round;stroke-linejoin:round;stroke-miterlimit:10;stroke-dasharray:none;stroke-opacity:1"
       transform="matrix(0.76088,0,0,-0.76088,113.71123,57.42219)" />
    <path
       id="path4"
       d="m -8.5037,-53.85875 v 39.68536 l -12.00475,-12.00476 v -39.68536 z"
       style="fill:#4c92b5;fill-opacity:1;fill-rule:nonzero;stroke:#000000;stroke-width:0.69739;stroke-linecap:round;stroke-linejoin:round;stroke-miterlimit:10;stroke-dasharray:none;stroke-opacity:1"
       transform="matrix(0.76088,0,0,-0.76088,113.71123,57.42219)" />
    <path
       id="path5"
       d="m -65.86351,-65.86351 v 39.68536 h 45.35506 v -39.68536 h -45.35506"
       style="fill:#99c1d5;fill-opacity:1;fill-rule:nonzero;stroke:#000000;stroke-width:0.69739;stroke-linecap:round;stroke-linejoin:round;stroke-miterlimit:10;stroke-dasharray:none;stroke-opacity:1"
       transform="matrix(0.76088,0,0,-0.76088,113.71123,57.42219)" />
    <path
       id="path6"
       d="m -53.85875,-14.17339 -12.00476,-12.00476 h 45.35506 l 12.00475,12.00476 z"
       style="fill:#cce0ea;fill-opacity:1;fill-rule:nonzero;stroke:#000000;stroke-width:0.69739;stroke-linecap:round;stroke-linejoin:round;stroke-miterlimit:10;stroke-dasharray:none;stroke-opacity:1"
       transform="matrix(0.76088,0,0,-0.76088,113.71123,57.42219)" />
    <path
       id="path7"
       d="m -35.43309,-80.78815 v 39.68537 L -47.43784,-53.10754 V -92.7929 Z"
       style="fill:#4c92b5;fill-opacity:1;fill-rule:nonzero;stroke:#000000;stroke-width:0.69739;stroke-linecap:round;stroke-linejoin:round;stroke-miterlimit:10;stroke-dasharray:none;stroke-opacity:1"
       transform="matrix(0.76088,0,0,-0.76088,113.71123,57.42219)" />
    <path
       id="path8"
       d="m -92.7929,-92.7929 v 39.68536 h 45.35506 V -92.7929 H -92.7929"
       style="fill:#99c1d5;fill-opacity:1;fill-rule:nonzero;stroke:#000000;stroke-width:0.69739;stroke-linecap:round;stroke-linejoin:round;stroke-miterlimit:10;stroke-dasharray:none;stroke-opacity:1"
       transform="matrix(0.76088,0,0,-0.76088,113.71123,57.42219)" />
    <path
       id="path9"
       d="M -80.78815,-41.10278 -92.7929,-53.10754 h 45.35506 l 12.00475,12.00476 z"
       style="fill:#cce0ea;fill-opacity:1;fill-rule:nonzero;stroke:#000000;stroke-width:0.69739;stroke-linecap:round;stroke-linejoin:round;stroke-miterlimit:10;stroke-dasharray:none;stroke-opacity:1"
       transform="matrix(0.76088,0,0,-0.76088,113.71123,57.42219)" />
    <path
       id="path10"
       d="m -62.36246,-107.71751 v 39.68534 l -12.00476,-12.00476 v -39.68534 z"
       style="fill:#4c92b5;fill-opacity:1;fill-rule:nonzero;stroke:#000000;stroke-width:0.69739;stroke-linecap:round;stroke-linejoin:round;stroke-miterlimit:10;stroke-dasharray:none;stroke-opacity:1"
       transform="matrix(0.76088,0,0,-0.76088,113.71123,57.42219)" />
    <path
       id="path11"
       d="m -119.72227,-119.72227 v 39.68534 h 45.35505 v -39.68534 h -45.35505"
       style="fill:#99c1d5;fill-opacity:1;fill-rule:nonzero;stroke:#000000;stroke-width:0.69739;stroke-linecap:round;stroke-linejoin:round;stroke-miterlimit:10;stroke-dasharray:none;stroke-opacity:1"
       transform="matrix(0.76088,0,0,-0.76088,113.71123,57.42219)" />
    <path
       id="path12"
       d="m -107.71751,-68.03217 -12.00476,-12.00476 h 45.35505 l 12.00476,12.00476 z"
       style="fill:#cce0ea;fill-opacity:1;fill-rule:nonzero;stroke:#000000;stroke-width:0.69739;stroke-linecap:round;stroke-linejoin:round;stroke-miterlimit:10;stroke-dasharray:none;stroke-opacity:1"
       transform="matrix(0.76088,0,0,-0.76088,113.71123,57.42219)" />
    <path
       id="path13"
       d="M 80.78856,-26.92937 V 12.75597 L 68.78381,0.75122 v -39.68535 z"
       style="fill:#e48784;fill-opacity:1;fill-rule:nonzero;stroke:#000000;stroke-width:0.69739;stroke-linecap:round;stroke-linejoin:round;stroke-miterlimit:10;stroke-dasharray:none;stroke-opacity:1"
       transform="matrix(0.76088,0,0,-0.76088,113.71123,57.42219)" />
    <path
       id="path14"
       d="M 23.42876,-38.93413 V 0.75122 H 68.78381 V -38.93413 H 23.42876"
       style="fill:#f0bab9;fill-opacity:1;fill-rule:nonzero;stroke:#000000;stroke-width:0.69739;stroke-linecap:round;stroke-linejoin:round;stroke-miterlimit:10;stroke-dasharray:none;stroke-opacity:1"
       transform="matrix(0.76088,0,0,-0.76088,113.71123,57.42219)" />
    <path
       id="path15"
       d="M 35.4335,12.75597 23.42876,0.75122 h 45.35505 l 12.00475,12.00475 z"
       style="fill:#f7dddc;fill-opacity:1;fill-rule:nonzero;stroke:#000000;stroke-width:0.69739;stroke-linecap:round;stroke-linejoin:round;stroke-miterlimit:10;stroke-dasharray:none;stroke-opacity:1"
       transform="matrix(0.76088,0,0,-0.76088,113.71123,57.42219)" />
    <path
       id="path16"
       d="m 53.85919,-53.85875 v 39.68536 L 41.85443,-26.17815 v -39.68536 z"
       style="fill:#e48784;fill-opacity:1;fill-rule:nonzero;stroke:#000000;stroke-width:0.69739;stroke-linecap:round;stroke-linejoin:round;stroke-miterlimit:10;stroke-dasharray:none;stroke-opacity:1"
       transform="matrix(0.76088,0,0,-0.76088,113.71123,57.42219)" />
    <path
       id="path17"
       d="m -3.50061,-65.86351 v 39.68536 H 41.85443 V -65.86351 H -3.50061"
       style="fill:#f0bab9;fill-opacity:1;fill-rule:nonzero;stroke:#000000;stroke-width:0.69739;stroke-linecap:round;stroke-linejoin:round;stroke-miterlimit:10;stroke-dasharray:none;stroke-opacity:1"
       transform="matrix(0.76088,0,0,-0.76088,113.71123,57.42219)" />
    <path
       id="path18"
       d="M 8.50414,-14.17339 -3.50061,-26.17815 h 45.35504 l 12.00476,12.00476 z"
       style="fill:#f7dddc;fill-opacity:1;fill-rule:nonzero;stroke:#000000;stroke-width:0.69739;stroke-linecap:round;stroke-linejoin:round;stroke-miterlimit:10;stroke-dasharray:none;stroke-opacity:1"
       transform="matrix(0.76088,0,0,-0.76088,113.71123,57.42219)" />
    <path
       id="path19"
       d="m 26.9298,-80.78815 v 39.68537 L 14.92503,-53.10754 V -92.7929 Z"
       style="fill:#e48784;fill-opacity:1;fill-rule:nonzero;stroke:#000000;stroke-width:0.69739;stroke-linecap:round;stroke-linejoin:round;stroke-miterlimit:10;stroke-dasharray:none;stroke-opacity:1"
       transform="matrix(0.76088,0,0,-0.76088,113.71123,57.42219)" />
    <path
       id="path20"
       d="m -30.43001,-92.7929 v 39.68536 H 14.92503 V -92.7929 h -45.35504"
       style="fill:#f0bab9;fill-opacity:1;fill-rule:nonzero;stroke:#000000;stroke-width:0.69739;stroke-linecap:round;stroke-linejoin:round;stroke-miterlimit:10;stroke-dasharray:none;stroke-opacity:1"
       transform="matrix(0.76088,0,0,-0.76088,113.71123,57.42219)" />
    <path
       id="path21"
       d="M -18.42525,-41.10278 -30.43001,-53.10754 H 14.92503 L 26.9298,-41.10278 Z"
       style="fill:#f7dddc;fill-opacity:1;fill-rule:nonzero;stroke:#000000;stroke-width:0.69739;stroke-linecap:round;stroke-linejoin:round;stroke-miterlimit:10;stroke-dasharray:none;stroke-opacity:1"
       transform="matrix(0.76088,0,0,-0.76088,113.71123,57.42219)" />
    <path
       id="path22"
       d="m 4.1e-4,-107.71751 v 39.68534 l -12.00473,-12.00476 v -39.68534 z"
       style="fill:#e48784;fill-opacity:1;fill-rule:nonzero;stroke:#000000;stroke-width:0.69739;stroke-linecap:round;stroke-linejoin:round;stroke-miterlimit:10;stroke-dasharray:none;stroke-opacity:1"
       transform="matrix(0.76088,0,0,-0.76088,113.71123,57.42219)" />
    <path
       id="path23"
       d="m -57.35939,-119.72227 v 39.68534 h 45.35507 v -39.68534 h -45.35507"
       style="fill:#f0bab9;fill-opacity:1;fill-rule:nonzero;stroke:#000000;stroke-width:0.69739;stroke-linecap:round;stroke-linejoin:round;stroke-miterlimit:10;stroke-dasharray:none;stroke-opacity:1"
       transform="matrix(0.76088,0,0,-0.76088,113.71123,57.42219)" />
    <path
       id="path24"
       d="m -45.35463,-68.03217 -12.00476,-12.00476 h 45.35507 L 4.1e-4,-68.03217 Z"
       style="fill:#f7dddc;fill-opacity:1;fill-rule:nonzero;stroke:#000000;stroke-width:0.69739;stroke-linecap:round;stroke-linejoin:round;stroke-miterlimit:10;stroke-dasharray:none;stroke-opacity:1"
       transform="matrix(0.76088,0,0,-0.76088,113.71123,57.42219)" />
    <path
       id="path25"
       d="M 143.15146,-26.92937 V 12.75597 L 131.1467,0.75122 v -39.68535 z"
       style="fill:#4cb17d;fill-opacity:1;fill-rule:nonzero;stroke:#000000;stroke-width:0.69739;stroke-linecap:round;stroke-linejoin:round;stroke-miterlimit:10;stroke-dasharray:none;stroke-opacity:1"
       transform="matrix(0.76088,0,0,-0.76088,113.71123,57.42219)" />
    <path
       id="path26"
       d="M 85.79164,-38.93413 V 0.75122 H 131.1467 V -38.93413 H 85.79164"
       style="fill:#99d2b5;fill-opacity:1;fill-rule:nonzero;stroke:#000000;stroke-width:0.69739;stroke-linecap:round;stroke-linejoin:round;stroke-miterlimit:10;stroke-dasharray:none;stroke-opacity:1"
       transform="matrix(0.76088,0,0,-0.76088,113.71123,57.42219)" />
    <path
       id="path27"
       d="M 97.7964,12.75597 85.79164,0.75122 h 45.35506 l 12.00476,12.00475 z"
       style="fill:#cce9da;fill-opacity:1;fill-rule:nonzero;stroke:#000000;stroke-width:0.69739;stroke-linecap:round;stroke-linejoin:round;stroke-miterlimit:10;stroke-dasharray:none;stroke-opacity:1"
       transform="matrix(0.76088,0,0,-0.76088,113.71123,57.42219)" />
    <path
       id="path28"
       d="m 116.22208,-53.85875 v 39.68536 l -12.00476,-12.00476 v -39.68536 z"
       style="fill:#4cb17d;fill-opacity:1;fill-rule:nonzero;stroke:#000000;stroke-width:0.69739;stroke-linecap:round;stroke-linejoin:round;stroke-miterlimit:10;stroke-dasharray:none;stroke-opacity:1"
       transform="matrix(0.76088,0,0,-0.76088,113.71123,57.42219)" />
    <path
       id="path29"
       d="m 58.86226,-65.86351 v 39.68536 h 45.35506 V -65.86351 H 58.86226"
       style="fill:#99d2b5;fill-opacity:1;fill-rule:nonzero;stroke:#000000;stroke-width:0.69739;stroke-linecap:round;stroke-linejoin:round;stroke-miterlimit:10;stroke-dasharray:none;stroke-opacity:1"
       transform="matrix(0.76088,0,0,-0.76088,113.71123,57.42219)" />
    <path
       id="path30"
       d="M 70.86702,-14.17339 58.86226,-26.17815 h 45.35506 l 12.00476,12.00476 z"
       style="fill:#cce9da;fill-opacity:1;fill-rule:nonzero;stroke:#000000;stroke-width:0.69739;stroke-linecap:round;stroke-linejoin:round;stroke-miterlimit:10;stroke-dasharray:none;stroke-opacity:1"
       transform="matrix(0.76088,0,0,-0.76088,113.71123,57.42219)" />
    <path
       id="path31"
       d="m 89.2927,-80.78815 v 39.68537 L 77.28793,-53.10754 V -92.7929 Z"
       style="fill:#4cb17d;fill-opacity:1;fill-rule:nonzero;stroke:#000000;stroke-width:0.69739;stroke-linecap:round;stroke-linejoin:round;stroke-miterlimit:10;stroke-dasharray:none;stroke-opacity:1"
       transform="matrix(0.76088,0,0,-0.76088,113.71123,57.42219)" />
    <path
       id="path32"
       d="m 31.93288,-92.7929 v 39.68536 H 77.28793 V -92.7929 H 31.93288"
       style="fill:#99d2b5;fill-opacity:1;fill-rule:nonzero;stroke:#000000;stroke-width:0.69739;stroke-linecap:round;stroke-linejoin:round;stroke-miterlimit:10;stroke-dasharray:none;stroke-opacity:1"
       transform="matrix(0.76088,0,0,-0.76088,113.71123,57.42219)" />
    <path
       id="path33"
       d="M 43.93764,-41.10278 31.93288,-53.10754 h 45.35505 l 12.00477,12.00476 z"
       style="fill:#cce9da;fill-opacity:1;fill-rule:nonzero;stroke:#000000;stroke-width:0.69739;stroke-linecap:round;stroke-linejoin:round;stroke-miterlimit:10;stroke-dasharray:none;stroke-opacity:1"
       transform="matrix(0.76088,0,0,-0.76088,113.71123,57.42219)" />
    <path
       id="path34"
       d="m 62.36331,-107.71751 v 39.68534 L 50.35855,-80.03693 v -39.68534 z"
       style="fill:#4cb17d;fill-opacity:1;fill-rule:nonzero;stroke:#000000;stroke-width:0.69739;stroke-linecap:round;stroke-linejoin:round;stroke-miterlimit:10;stroke-dasharray:none;stroke-opacity:1"
       transform="matrix(0.76088,0,0,-0.76088,113.71123,57.42219)" />
    <path
       id="path35"
       d="m 5.0035,-119.72227 v 39.68534 h 45.35505 v -39.68534 H 5.0035"
       style="fill:#99d2b5;fill-opacity:1;fill-rule:nonzero;stroke:#000000;stroke-width:0.69739;stroke-linecap:round;stroke-linejoin:round;stroke-miterlimit:10;stroke-dasharray:none;stroke-opacity:1"
       transform="matrix(0.76088,0,0,-0.76088,113.71123,57.42219)" />
    <path
       id="path36"
       d="M 17.00826,-68.03217 5.0035,-80.03693 h 45.35505 l 12.00476,12.00476 z"
       style="fill:#cce9da;fill-opacity:1;fill-rule:nonzero;stroke:#000000;stroke-width:0.69739;stroke-linecap:round;stroke-linejoin:round;stroke-miterlimit:10;stroke-dasharray:none;stroke-opacity:1"
       transform="matrix(0.76088,0,0,-0.76088,113.71123,57.42219)" />
    <path
       id="path37"
       d="M 205.51436,-26.92937 V 12.75597 L 193.5096,0.75122 v -39.68535 z"
       style="fill:#eea15d;fill-opacity:1;fill-rule:nonzero;stroke:#000000;stroke-width:0.69739;stroke-linecap:round;stroke-linejoin:round;stroke-miterlimit:10;stroke-dasharray:none;stroke-opacity:1"
       transform="matrix(0.76088,0,0,-0.76088,113.71123,57.42219)" />
    <path
       id="path38"
       d="M 148.15454,-38.93413 V 0.75122 h 45.35506 v -39.68535 h -45.35506"
       style="fill:#f5c9a2;fill-opacity:1;fill-rule:nonzero;stroke:#000000;stroke-width:0.69739;stroke-linecap:round;stroke-linejoin:round;stroke-miterlimit:10;stroke-dasharray:none;stroke-opacity:1"
       transform="matrix(0.76088,0,0,-0.76088,113.71123,57.42219)" />
    <path
       id="path39"
       d="M 160.1593,12.75597 148.15454,0.75122 h 45.35506 l 12.00476,12.00475 z"
       style="fill:#fae4d1;fill-opacity:1;fill-rule:nonzero;stroke:#000000;stroke-width:0.69739;stroke-linecap:round;stroke-linejoin:round;stroke-miterlimit:10;stroke-dasharray:none;stroke-opacity:1"
       transform="matrix(0.76088,0,0,-0.76088,113.71123,57.42219)" />
    <path
       id="path40"
       d="m 178.58498,-53.85875 v 39.68536 l -12.00476,-12.00476 v -39.68536 z"
       style="fill:#eea15d;fill-opacity:1;fill-rule:nonzero;stroke:#000000;stroke-width:0.69739;stroke-linecap:round;stroke-linejoin:round;stroke-miterlimit:10;stroke-dasharray:none;stroke-opacity:1"
       transform="matrix(0.76088,0,0,-0.76088,113.71123,57.42219)" />
    <path
       id="path41"
       d="m 121.22516,-65.86351 v 39.68536 h 45.35506 v -39.68536 h -45.35506"
       style="fill:#f5c9a2;fill-opacity:1;fill-rule:nonzero;stroke:#000000;stroke-width:0.69739;stroke-linecap:round;stroke-linejoin:round;stroke-miterlimit:10;stroke-dasharray:none;stroke-opacity:1"
       transform="matrix(0.76088,0,0,-0.76088,113.71123,57.42219)" />
    <path
       id="path42"
       d="m 133.22992,-14.17339 -12.00476,-12.00476 h 45.35506 l 12.00476,12.00476 z"
       style="fill:#fae4d1;fill-opacity:1;fill-rule:nonzero;stroke:#000000;stroke-width:0.69739;stroke-linecap:round;stroke-linejoin:round;stroke-miterlimit:10;stroke-dasharray:none;stroke-opacity:1"
       transform="matrix(0.76088,0,0,-0.76088,113.71123,57.42219)" />
    <path
       id="path43"
       d="m 151.65558,-80.78815 v 39.68537 L 139.65082,-53.10754 V -92.7929 Z"
       style="fill:#eea15d;fill-opacity:1;fill-rule:nonzero;stroke:#000000;stroke-width:0.69739;stroke-linecap:round;stroke-linejoin:round;stroke-miterlimit:10;stroke-dasharray:none;stroke-opacity:1"
       transform="matrix(0.76088,0,0,-0.76088,113.71123,57.42219)" />
    <path
       id="path44"
       d="m 94.29576,-92.7929 v 39.68536 h 45.35506 V -92.7929 H 94.29576"
       style="fill:#f5c9a2;fill-opacity:1;fill-rule:nonzero;stroke:#000000;stroke-width:0.69739;stroke-linecap:round;stroke-linejoin:round;stroke-miterlimit:10;stroke-dasharray:none;stroke-opacity:1"
       transform="matrix(0.76088,0,0,-0.76088,113.71123,57.42219)" />
    <path
       id="path45"
       d="M 106.30052,-41.10278 94.29576,-53.10754 h 45.35506 l 12.00476,12.00476 z"
       style="fill:#fae4d1;fill-opacity:1;fill-rule:nonzero;stroke:#000000;stroke-width:0.69739;stroke-linecap:round;stroke-linejoin:round;stroke-miterlimit:10;stroke-dasharray:none;stroke-opacity:1"
       transform="matrix(0.76088,0,0,-0.76088,113.71123,57.42219)" />
    <path
       id="path46"
       d="m 124.72621,-107.71751 v 39.68534 l -12.00476,-12.00476 v -39.68534 z"
       style="fill:#eea15d;fill-opacity:1;fill-rule:nonzero;stroke:#000000;stroke-width:0.69739;stroke-linecap:round;stroke-linejoin:round;stroke-miterlimit:10;stroke-dasharray:none;stroke-opacity:1"
       transform="matrix(0.76088,0,0,-0.76088,113.71123,57.42219)" />
    <path
       id="path47"
       d="m 67.3664,-119.72227 v 39.68534 h 45.35505 v -39.68534 H 67.3664"
       style="fill:#f5c9a2;fill-opacity:1;fill-rule:nonzero;stroke:#000000;stroke-width:0.69739;stroke-linecap:round;stroke-linejoin:round;stroke-miterlimit:10;stroke-dasharray:none;stroke-opacity:1"
       transform="matrix(0.76088,0,0,-0.76088,113.71123,57.42219)" />
    <path
       id="path48"
       d="M 79.37115,-68.03217 67.3664,-80.03693 h 45.35505 l 12.00476,12.00476 z"
       style="fill:#fae4d1;fill-opacity:1;fill-rule:nonzero;stroke:#000000;stroke-width:0.69739;stroke-linecap:round;stroke-linejoin:round;stroke-miterlimit:10;stroke-dasharray:none;stroke-opacity:1"
       transform="matrix(0.76088,0,0,-0.76088,113.71123,57.42219)" />
    <path
       id="path49"
       d="M 18.42567,35.4335 V 75.11887 L 6.42091,63.1141 V 23.42876 Z"
       style="fill:#c6c153;fill-opacity:1;fill-rule:nonzero;stroke:#000000;stroke-width:0.69739;stroke-linecap:round;stroke-linejoin:round;stroke-miterlimit:10;stroke-dasharray:none;stroke-opacity:1"
       transform="matrix(0.76088,0,0,-0.76088,113.71123,57.42219)" />
    <path
       id="path50"
       d="M -38.93413,23.42876 V 63.1141 H 6.42091 V 23.42876 h -45.35504"
       style="fill:#dedb9d;fill-opacity:1;fill-rule:nonzero;stroke:#000000;stroke-width:0.69739;stroke-linecap:round;stroke-linejoin:round;stroke-miterlimit:10;stroke-dasharray:none;stroke-opacity:1"
       transform="matrix(0.76088,0,0,-0.76088,113.71123,57.42219)" />
    <path
       id="path51"
       d="M -26.92937,75.11887 -38.93413,63.1141 H 6.42091 l 12.00476,12.00477 z"
       style="fill:#efedce;fill-opacity:1;fill-rule:nonzero;stroke:#000000;stroke-width:0.69739;stroke-linecap:round;stroke-linejoin:round;stroke-miterlimit:10;stroke-dasharray:none;stroke-opacity:1"
       transform="matrix(0.76088,0,0,-0.76088,113.71123,57.42219)" />
    <path
       id="path52"
       d="M -8.5037,8.50414 V 48.18948 L -20.50845,36.18472 V -3.50061 Z"
       style="fill:#c6c153;fill-opacity:1;fill-rule:nonzero;stroke:#000000;stroke-width:0.69739;stroke-linecap:round;stroke-linejoin:round;stroke-miterlimit:10;stroke-dasharray:none;stroke-opacity:1"
       transform="matrix(0.76088,0,0,-0.76088,113.71123,57.42219)" />
    <path
       id="path53"
       d="m -65.86351,-3.50061 v 39.68533 h 45.35506 V -3.50061 h -45.35506"
       style="fill:#dedb9d;fill-opacity:1;fill-rule:nonzero;stroke:#000000;stroke-width:0.69739;stroke-linecap:round;stroke-linejoin:round;stroke-miterlimit:10;stroke-dasharray:none;stroke-opacity:1"
       transform="matrix(0.76088,0,0,-0.76088,113.71123,57.42219)" />
    <path
       id="path54"
       d="M -53.85875,48.18948 -65.86351,36.18472 h 45.35506 L -8.5037,48.18948 Z"
       style="fill:#efedce;fill-opacity:1;fill-rule:nonzero;stroke:#000000;stroke-width:0.69739;stroke-linecap:round;stroke-linejoin:round;stroke-miterlimit:10;stroke-dasharray:none;stroke-opacity:1"
       transform="matrix(0.76088,0,0,-0.76088,113.71123,57.42219)" />
    <path
       id="path55"
       d="M -35.43309,-18.42525 V 21.2601 L -47.43784,9.25534 v -39.68535 z"
       style="fill:#c6c153;fill-opacity:1;fill-rule:nonzero;stroke:#000000;stroke-width:0.69739;stroke-linecap:round;stroke-linejoin:round;stroke-miterlimit:10;stroke-dasharray:none;stroke-opacity:1"
       transform="matrix(0.76088,0,0,-0.76088,113.71123,57.42219)" />
    <path
       id="path56"
       d="M -92.7929,-30.43001 V 9.25534 h 45.35506 V -30.43001 H -92.7929"
       style="fill:#dedb9d;fill-opacity:1;fill-rule:nonzero;stroke:#000000;stroke-width:0.69739;stroke-linecap:round;stroke-linejoin:round;stroke-miterlimit:10;stroke-dasharray:none;stroke-opacity:1"
       transform="matrix(0.76088,0,0,-0.76088,113.71123,57.42219)" />
    <path
       id="path57"
       d="M -80.78815,21.2601 -92.7929,9.25534 h 45.35506 l 12.00475,12.00476 z"
       style="fill:#efedce;fill-opacity:1;fill-rule:nonzero;stroke:#000000;stroke-width:0.69739;stroke-linecap:round;stroke-linejoin:round;stroke-miterlimit:10;stroke-dasharray:none;stroke-opacity:1"
       transform="matrix(0.76088,0,0,-0.76088,113.71123,57.42219)" />
    <path
       id="path58"
       d="M -62.36246,-45.35463 V -5.66927 L -74.36722,-17.67403 V -57.35939 Z"
       style="fill:#c6c153;fill-opacity:1;fill-rule:nonzero;stroke:#000000;stroke-width:0.69739;stroke-linecap:round;stroke-linejoin:round;stroke-miterlimit:10;stroke-dasharray:none;stroke-opacity:1"
       transform="matrix(0.76088,0,0,-0.76088,113.71123,57.42219)" />
    <path
       id="path59"
       d="m -119.72227,-57.35939 v 39.68536 h 45.35505 v -39.68536 h -45.35505"
       style="fill:#dedb9d;fill-opacity:1;fill-rule:nonzero;stroke:#000000;stroke-width:0.69739;stroke-linecap:round;stroke-linejoin:round;stroke-miterlimit:10;stroke-dasharray:none;stroke-opacity:1"
       transform="matrix(0.76088,0,0,-0.76088,113.71123,57.42219)" />
    <path
       id="path60"
       d="m -107.71751,-5.66927 -12.00476,-12.00476 h 45.35505 l 12.00476,12.00476 z"
       style="fill:#efedce;fill-opacity:1;fill-rule:nonzero;stroke:#000000;stroke-width:0.69739;stroke-linecap:round;stroke-linejoin:round;stroke-miterlimit:10;stroke-dasharray:none;stroke-opacity:1"
       transform="matrix(0.76088,0,0,-0.76088,113.71123,57.42219)" />
    <path
       id="path61"
       d="M 80.78856,35.4335 V 75.11887 L 68.78381,63.1141 V 23.42876 Z"
       style="fill:#ffd2d2;fill-opacity:1;fill-rule:nonzero;stroke:#000000;stroke-width:0.69739;stroke-linecap:round;stroke-linejoin:round;stroke-miterlimit:10;stroke-dasharray:none;stroke-opacity:1"
       transform="matrix(0.76088,0,0,-0.76088,113.71123,57.42219)" />
    <path
       id="path62"
       d="M 23.42876,23.42876 V 63.1141 H 68.78381 V 23.42876 H 23.42876"
       style="fill:#ffe6e6;fill-opacity:1;fill-rule:nonzero;stroke:#000000;stroke-width:0.69739;stroke-linecap:round;stroke-linejoin:round;stroke-miterlimit:10;stroke-dasharray:none;stroke-opacity:1"
       transform="matrix(0.76088,0,0,-0.76088,113.71123,57.42219)" />
    <path
       id="path63"
       d="M 35.4335,75.11887 23.42876,63.1141 h 45.35505 l 12.00475,12.00477 z"
       style="fill:#fff2f2;fill-opacity:1;fill-rule:nonzero;stroke:#000000;stroke-width:0.69739;stroke-linecap:round;stroke-linejoin:round;stroke-miterlimit:10;stroke-dasharray:none;stroke-opacity:1"
       transform="matrix(0.76088,0,0,-0.76088,113.71123,57.42219)" />
    <path
       id="path64"
       d="M 53.85919,8.50414 V 48.18948 L 41.85443,36.18472 V -3.50061 Z"
       style="fill:#ffd2d2;fill-opacity:1;fill-rule:nonzero;stroke:#000000;stroke-width:0.69739;stroke-linecap:round;stroke-linejoin:round;stroke-miterlimit:10;stroke-dasharray:none;stroke-opacity:1"
       transform="matrix(0.76088,0,0,-0.76088,113.71123,57.42219)" />
    <path
       id="path65"
       d="M -3.50061,-3.50061 V 36.18472 H 41.85443 V -3.50061 H -3.50061"
       style="fill:#ffe6e6;fill-opacity:1;fill-rule:nonzero;stroke:#000000;stroke-width:0.69739;stroke-linecap:round;stroke-linejoin:round;stroke-miterlimit:10;stroke-dasharray:none;stroke-opacity:1"
       transform="matrix(0.76088,0,0,-0.76088,113.71123,57.42219)" />
    <path
       id="path66"
       d="M 8.50414,48.18948 -3.50061,36.18472 h 45.35504 l 12.00476,12.00476 z"
       style="fill:#fff2f2;fill-opacity:1;fill-rule:nonzero;stroke:#000000;stroke-width:0.69739;stroke-linecap:round;stroke-linejoin:round;stroke-miterlimit:10;stroke-dasharray:none;stroke-opacity:1"
       transform="matrix(0.76088,0,0,-0.76088,113.71123,57.42219)" />
    <path
       id="path67"
       d="M 26.9298,-18.42525 V 21.2601 L 14.92503,9.25534 v -39.68535 z"
       style="fill:#ffd2d2;fill-opacity:1;fill-rule:nonzero;stroke:#000000;stroke-width:0.69739;stroke-linecap:round;stroke-linejoin:round;stroke-miterlimit:10;stroke-dasharray:none;stroke-opacity:1"
       transform="matrix(0.76088,0,0,-0.76088,113.71123,57.42219)" />
    <path
       id="path68"
       d="M -30.43001,-30.43001 V 9.25534 h 45.35504 v -39.68535 h -45.35504"
       style="fill:#ffe6e6;fill-opacity:1;fill-rule:nonzero;stroke:#000000;stroke-width:0.69739;stroke-linecap:round;stroke-linejoin:round;stroke-miterlimit:10;stroke-dasharray:none;stroke-opacity:1"
       transform="matrix(0.76088,0,0,-0.76088,113.71123,57.42219)" />
    <path
       id="path69"
       d="M -18.42525,21.2601 -30.43001,9.25534 H 14.92503 L 26.9298,21.2601 Z"
       style="fill:#fff2f2;fill-opacity:1;fill-rule:nonzero;stroke:#000000;stroke-width:0.69739;stroke-linecap:round;stroke-linejoin:round;stroke-miterlimit:10;stroke-dasharray:none;stroke-opacity:1"
       transform="matrix(0.76088,0,0,-0.76088,113.71123,57.42219)" />
    <path
       id="path70"
       d="M 4.1e-4,-45.35463 V -5.66927 L -12.00432,-17.67403 V -57.35939 Z"
       style="fill:#ffd2d2;fill-opacity:1;fill-rule:nonzero;stroke:#000000;stroke-width:0.69739;stroke-linecap:round;stroke-linejoin:round;stroke-miterlimit:10;stroke-dasharray:none;stroke-opacity:1"
       transform="matrix(0.76088,0,0,-0.76088,113.71123,57.42219)" />
    <path
       id="path71"
       d="m -57.35939,-57.35939 v 39.68536 h 45.35507 v -39.68536 h -45.35507"
       style="fill:#ffe6e6;fill-opacity:1;fill-rule:nonzero;stroke:#000000;stroke-width:0.69739;stroke-linecap:round;stroke-linejoin:round;stroke-miterlimit:10;stroke-dasharray:none;stroke-opacity:1"
       transform="matrix(0.76088,0,0,-0.76088,113.71123,57.42219)" />
    <path
       id="path72"
       d="m -45.35463,-5.66927 -12.00476,-12.00476 h 45.35507 L 4.1e-4,-5.66927 Z"
       style="fill:#fff2f2;fill-opacity:1;fill-rule:nonzero;stroke:#000000;stroke-width:0.69739;stroke-linecap:round;stroke-linejoin:round;stroke-miterlimit:10;stroke-dasharray:none;stroke-opacity:1"
       transform="matrix(0.76088,0,0,-0.76088,113.71123,57.42219)" />
    <path
       id="path73"
       d="M 143.15146,35.4335 V 75.11887 L 131.1467,63.1141 V 23.42876 Z"
       style="fill:#82ff82;fill-opacity:1;fill-rule:nonzero;stroke:#000000;stroke-width:0.69739;stroke-linecap:round;stroke-linejoin:round;stroke-miterlimit:10;stroke-dasharray:none;stroke-opacity:1"
       transform="matrix(0.76088,0,0,-0.76088,113.71123,57.42219)" />
    <path
       id="path74"
       d="M 85.79164,23.42876 V 63.1141 H 131.1467 V 23.42876 H 85.79164"
       style="fill:#b8ffb8;fill-opacity:1;fill-rule:nonzero;stroke:#000000;stroke-width:0.69739;stroke-linecap:round;stroke-linejoin:round;stroke-miterlimit:10;stroke-dasharray:none;stroke-opacity:1"
       transform="matrix(0.76088,0,0,-0.76088,113.71123,57.42219)" />
    <path
       id="path75"
       d="M 97.7964,75.11887 85.79164,63.1141 h 45.35506 l 12.00476,12.00477 z"
       style="fill:#dbffdb;fill-opacity:1;fill-rule:nonzero;stroke:#000000;stroke-width:0.69739;stroke-linecap:round;stroke-linejoin:round;stroke-miterlimit:10;stroke-dasharray:none;stroke-opacity:1"
       transform="matrix(0.76088,0,0,-0.76088,113.71123,57.42219)" />
    <path
       id="path76"
       d="M 116.22208,8.50414 V 48.18948 L 104.21732,36.18472 V -3.50061 Z"
       style="fill:#82ff82;fill-opacity:1;fill-rule:nonzero;stroke:#000000;stroke-width:0.69739;stroke-linecap:round;stroke-linejoin:round;stroke-miterlimit:10;stroke-dasharray:none;stroke-opacity:1"
       transform="matrix(0.76088,0,0,-0.76088,113.71123,57.42219)" />
    <path
       id="path77"
       d="m 58.86226,-3.50061 v 39.68533 h 45.35506 V -3.50061 H 58.86226"
       style="fill:#b8ffb8;fill-opacity:1;fill-rule:nonzero;stroke:#000000;stroke-width:0.69739;stroke-linecap:round;stroke-linejoin:round;stroke-miterlimit:10;stroke-dasharray:none;stroke-opacity:1"
       transform="matrix(0.76088,0,0,-0.76088,113.71123,57.42219)" />
    <path
       id="path78"
       d="M 70.86702,48.18948 58.86226,36.18472 h 45.35506 l 12.00476,12.00476 z"
       style="fill:#dbffdb;fill-opacity:1;fill-rule:nonzero;stroke:#000000;stroke-width:0.69739;stroke-linecap:round;stroke-linejoin:round;stroke-miterlimit:10;stroke-dasharray:none;stroke-opacity:1"
       transform="matrix(0.76088,0,0,-0.76088,113.71123,57.42219)" />
    <path
       id="path79"
       d="M 89.2927,-18.42525 V 21.2601 L 77.28793,9.25534 v -39.68535 z"
       style="fill:#82ff82;fill-opacity:1;fill-rule:nonzero;stroke:#000000;stroke-width:0.69739;stroke-linecap:round;stroke-linejoin:round;stroke-miterlimit:10;stroke-dasharray:none;stroke-opacity:1"
       transform="matrix(0.76088,0,0,-0.76088,113.71123,57.42219)" />
    <path
       id="path80"
       d="M 31.93288,-30.43001 V 9.25534 H 77.28793 V -30.43001 H 31.93288"
       style="fill:#b8ffb8;fill-opacity:1;fill-rule:nonzero;stroke:#000000;stroke-width:0.69739;stroke-linecap:round;stroke-linejoin:round;stroke-miterlimit:10;stroke-dasharray:none;stroke-opacity:1"
       transform="matrix(0.76088,0,0,-0.76088,113.71123,57.42219)" />
    <path
       id="path81"
       d="M 43.93764,21.2601 31.93288,9.25534 H 77.28793 L 89.2927,21.2601 Z"
       style="fill:#dbffdb;fill-opacity:1;fill-rule:nonzero;stroke:#000000;stroke-width:0.69739;stroke-linecap:round;stroke-linejoin:round;stroke-miterlimit:10;stroke-dasharray:none;stroke-opacity:1"
       transform="matrix(0.76088,0,0,-0.76088,113.71123,57.42219)" />
    <path
       id="path82"
       d="M 62.36331,-45.35463 V -5.66927 L 50.35855,-17.67403 v -39.68536 z"
       style="fill:#82ff82;fill-opacity:1;fill-rule:nonzero;stroke:#000000;stroke-width:0.69739;stroke-linecap:round;stroke-linejoin:round;stroke-miterlimit:10;stroke-dasharray:none;stroke-opacity:1"
       transform="matrix(0.76088,0,0,-0.76088,113.71123,57.42219)" />
    <path
       id="path83"
       d="m 5.0035,-57.35939 v 39.68536 H 50.35855 V -57.35939 H 5.0035"
       style="fill:#b8ffb8;fill-opacity:1;fill-rule:nonzero;stroke:#000000;stroke-width:0.69739;stroke-linecap:round;stroke-linejoin:round;stroke-miterlimit:10;stroke-dasharray:none;stroke-opacity:1"
       transform="matrix(0.76088,0,0,-0.76088,113.71123,57.42219)" />
    <path
       id="path84"
       d="M 17.00826,-5.66927 5.0035,-17.67403 h 45.35505 l 12.00476,12.00476 z"
       style="fill:#dbffdb;fill-opacity:1;fill-rule:nonzero;stroke:#000000;stroke-width:0.69739;stroke-linecap:round;stroke-linejoin:round;stroke-miterlimit:10;stroke-dasharray:none;stroke-opacity:1"
       transform="matrix(0.76088,0,0,-0.76088,113.71123,57.42219)" />
    <path
       id="path85"
       d="M 205.51436,35.4335 V 75.11887 L 193.5096,63.1141 V 23.42876 Z"
       style="fill:#ff4c4c;fill-opacity:1;fill-rule:nonzero;stroke:#000000;stroke-width:0.69739;stroke-linecap:round;stroke-linejoin:round;stroke-miterlimit:10;stroke-dasharray:none;stroke-opacity:1"
       transform="matrix(0.76088,0,0,-0.76088,113.71123,57.42219)" />
    <path
       id="path86"
       d="M 148.15454,23.42876 V 63.1141 H 193.5096 V 23.42876 h -45.35506"
       style="fill:#ff9999;fill-opacity:1;fill-rule:nonzero;stroke:#000000;stroke-width:0.69739;stroke-linecap:round;stroke-linejoin:round;stroke-miterlimit:10;stroke-dasharray:none;stroke-opacity:1"
       transform="matrix(0.76088,0,0,-0.76088,113.71123,57.42219)" />
    <path
       id="path87"
       d="M 160.1593,75.11887 148.15454,63.1141 h 45.35506 l 12.00476,12.00477 z"
       style="fill:#ffcccc;fill-opacity:1;fill-rule:nonzero;stroke:#000000;stroke-width:0.69739;stroke-linecap:round;stroke-linejoin:round;stroke-miterlimit:10;stroke-dasharray:none;stroke-opacity:1"
       transform="matrix(0.76088,0,0,-0.76088,113.71123,57.42219)" />
    <path
       id="path88"
       d="M 178.58498,8.50414 V 48.18948 L 166.58022,36.18472 V -3.50061 Z"
       style="fill:#ff4c4c;fill-opacity:1;fill-rule:nonzero;stroke:#000000;stroke-width:0.69739;stroke-linecap:round;stroke-linejoin:round;stroke-miterlimit:10;stroke-dasharray:none;stroke-opacity:1"
       transform="matrix(0.76088,0,0,-0.76088,113.71123,57.42219)" />
    <path
       id="path89"
       d="m 121.22516,-3.50061 v 39.68533 h 45.35506 V -3.50061 h -45.35506"
       style="fill:#ff9999;fill-opacity:1;fill-rule:nonzero;stroke:#000000;stroke-width:0.69739;stroke-linecap:round;stroke-linejoin:round;stroke-miterlimit:10;stroke-dasharray:none;stroke-opacity:1"
       transform="matrix(0.76088,0,0,-0.76088,113.71123,57.42219)" />
    <path
       id="path90"
       d="M 133.22992,48.18948 121.22516,36.18472 h 45.35506 l 12.00476,12.00476 z"
       style="fill:#ffcccc;fill-opacity:1;fill-rule:nonzero;stroke:#000000;stroke-width:0.69739;stroke-linecap:round;stroke-linejoin:round;stroke-miterlimit:10;stroke-dasharray:none;stroke-opacity:1"
       transform="matrix(0.76088,0,0,-0.76088,113.71123,57.42219)" />
    <path
       id="path91"
       d="M 151.65558,-18.42525 V 21.2601 L 139.65082,9.25534 v -39.68535 z"
       style="fill:#ff4c4c;fill-opacity:1;fill-rule:nonzero;stroke:#000000;stroke-width:0.69739;stroke-linecap:round;stroke-linejoin:round;stroke-miterlimit:10;stroke-dasharray:none;stroke-opacity:1"
       transform="matrix(0.76088,0,0,-0.76088,113.71123,57.42219)" />
    <path
       id="path92"
       d="M 94.29576,-30.43001 V 9.25534 h 45.35506 V -30.43001 H 94.29576"
       style="fill:#ff9999;fill-opacity:1;fill-rule:nonzero;stroke:#000000;stroke-width:0.69739;stroke-linecap:round;stroke-linejoin:round;stroke-miterlimit:10;stroke-dasharray:none;stroke-opacity:1"
       transform="matrix(0.76088,0,0,-0.76088,113.71123,57.42219)" />
    <path
       id="path93"
       d="M 106.30052,21.2601 94.29576,9.25534 h 45.35506 l 12.00476,12.00476 z"
       style="fill:#ffcccc;fill-opacity:1;fill-rule:nonzero;stroke:#000000;stroke-width:0.69739;stroke-linecap:round;stroke-linejoin:round;stroke-miterlimit:10;stroke-dasharray:none;stroke-opacity:1"
       transform="matrix(0.76088,0,0,-0.76088,113.71123,57.42219)" />
    <path
       id="path94"
       d="M 124.72621,-45.35463 V -5.66927 L 112.72145,-17.67403 V -57.35939 Z"
       style="fill:#ff4c4c;fill-opacity:1;fill-rule:nonzero;stroke:#000000;stroke-width:0.69739;stroke-linecap:round;stroke-linejoin:round;stroke-miterlimit:10;stroke-dasharray:none;stroke-opacity:1"
       transform="matrix(0.76088,0,0,-0.76088,113.71123,57.42219)" />
    <path
       id="path95"
       d="m 67.3664,-57.35939 v 39.68536 h 45.35505 V -57.35939 H 67.3664"
       style="fill:#ff9999;fill-opacity:1;fill-rule:nonzero;stroke:#000000;stroke-width:0.69739;stroke-linecap:round;stroke-linejoin:round;stroke-miterlimit:10;stroke-dasharray:none;stroke-opacity:1"
       transform="matrix(0.76088,0,0,-0.76088,113.71123,57.42219)" />
    <path
       id="path96"
       d="M 79.37115,-5.66927 67.3664,-17.67403 h 45.35505 l 12.00476,12.00476 z"
       style="fill:#ffcccc;fill-opacity:1;fill-rule:nonzero;stroke:#000000;stroke-width:0.69739;stroke-linecap:round;stroke-linejoin:round;stroke-miterlimit:10;stroke-dasharray:none;stroke-opacity:1"
       transform="matrix(0.76088,0,0,-0.76088,113.71123,57.42219)" />
    <path
       id="path97"
       d="M 6.3665702,-3.4516286 H 3.6353576 v 0.7392756 h 1.991937 v 0.1642834 c 0,1.1705197 -0.8624882,2.01247244 -2.0535433,2.01247244 -0.6571338,0 -1.2731968,-0.2464252 -1.6428346,-0.65713384 C 1.4996726,-1.665046 1.232712,-2.4453924 1.232712,-3.2462743 c 0,-1.6017637 0.903559,-2.6696062 2.2999685,-2.6696062 0.9857007,0 1.7044409,0.5133858 1.8892598,1.3553385 H 6.263893 C 6.0380032,-5.8953451 5.031767,-6.6551561 3.5326805,-6.6551561 c -0.8008819,0 -1.4374803,0.2053543 -1.9508661,0.6365984 -0.75981105,0.616063 -1.19105513,1.6428346 -1.19105513,2.8133543 0,2.0124724 1.23212593,3.40888181 2.99817313,3.40888181 0.8830236,0 1.6017638,-0.32856692 2.2383622,-1.04730706 l 0.2053543,0.8830236 h 0.5339213 z m 2.2537637,0.6776693 h 2.0535431 c 0.513386,0 0.924095,-0.1437481 1.273197,-0.472315 0.390173,-0.3491023 0.574992,-0.7803464 0.574992,-1.375874 0,-1.2321259 -0.739275,-1.9303306 -2.033008,-1.9303306 H 7.7989166 v 6.55080299 h 0.8214173 z m 0,-0.7392756 v -2.2999685 h 1.7455121 c 0.800882,0 1.273197,0.4312441 1.273197,1.1499843 0,0.7187401 -0.472315,1.1499842 -1.273197,1.1499842 z m 9.2871491,-3.039244 v 4.5999369 c 0,0.8830236 -0.636598,1.41694484 -1.683905,1.41694484 -0.492851,0 -0.883024,-0.10267717 -1.191055,-0.32856693 C 14.703956,-1.1311247 14.560208,-1.4596916 14.560208,-1.952542 v -4.5999369 h -0.841953 v 4.5999369 c 0,1.33480311 0.94463,2.15622041 2.505323,2.15622041 1.540157,0 2.525858,-0.84195274 2.525858,-2.15622041 v -4.5999369 z m 8.553008,5.77045654 H 23.113216 C 23.195357,-1.2954082 23.482853,-1.6445105 24.2632,-2.09629 l 0.903559,-0.472315 c 0.883023,-0.4928504 1.334803,-1.1499842 1.334803,-1.9303307 0,-0.5339212 -0.205354,-1.0267716 -0.595528,-1.3553385 -0.369637,-0.3491024 -0.841952,-0.5133858 -1.43748,-0.5133858 -0.800882,0 -1.416945,0.287496 -1.766047,0.8214173 -0.205354,0.3491023 -0.308032,0.7392755 -0.328567,1.3964094 h 0.780346 c 0.04107,-0.4312441 0.08214,-0.6982047 0.184819,-0.903559 0.22589,-0.3901733 0.636599,-0.616063 1.108914,-0.616063 0.71874,0 1.252661,0.5133858 1.252661,1.1910551 0,0.4928503 -0.287496,0.9240944 -0.862488,1.2526614 l -0.821417,0.4723149 c -1.334804,0.759811 -1.724977,1.3553386 -1.786583,2.75174799 h 4.230299 z m 3.958205,-2.56692904 c 0.657134,-0.3901733 0.862488,-0.7187402 0.862488,-1.3142677 0,-1.0062362 -0.780347,-1.7044409 -1.909795,-1.7044409 -1.108914,0 -1.909796,0.6982047 -1.909796,1.7044409 0,0.5955275 0.22589,0.903559 0.862489,1.3142677 -0.718741,0.3491023 -1.088378,0.8830236 -1.088378,1.5812283 0,1.17051964 0.883023,1.97140151 2.135685,1.97140151 1.252661,0 2.135685,-0.80088187 2.135685,-1.97140151 0,-0.6982047 -0.349103,-1.232126 -1.088378,-1.5812283 z m -1.047307,-2.3205039 c 0.677669,0 1.108913,0.3901732 1.108913,1.0267716 0,0.5749921 -0.431244,0.9857008 -1.108913,0.9857008 -0.657134,0 -1.108914,-0.4107087 -1.108914,-1.0062362 0,-0.616063 0.45178,-1.0062362 1.108914,-1.0062362 z m 0,2.6696062 c 0.800881,0 1.334803,0.5133858 1.334803,1.2526614 0,0.7392756 -0.533922,1.2526614 -1.355339,1.2526614 -0.759811,0 -1.314268,-0.5133858 -1.314268,-1.2526614 0,-0.7392756 0.554457,-1.2526614 1.334804,-1.2526614 z m 0,0"
       style="fill:#000000;fill-opacity:1;fill-rule:nonzero;stroke:none"
       aria-label="GPU28"
       transform="matrix(0.76088,0,0,0.76088,170.0894,135.85674)" />
    <path
       id="path98"
       d="M 6.366566,-3.4506037 H 3.6353535 v 0.7392756 h 1.9919369 v 0.1642834 c 0,1.1705197 -0.8624881,2.01247242 -2.0535432,2.01247242 -0.6571339,0 -1.2731969,-0.2464252 -1.6428346,-0.65713382 -0.4312441,-0.472315 -0.6982047,-1.2526614 -0.6982047,-2.0535433 0,-1.6017637 0.903559,-2.6696062 2.2999684,-2.6696062 0.9857008,0 1.7044409,0.5133858 1.8892598,1.3553385 h 0.8419528 c -0.2258898,-1.3348031 -1.232126,-2.0946141 -2.7312126,-2.0946141 -0.8008819,0 -1.4374803,0.2053543 -1.9508661,0.6365984 -0.759811,0.616063 -1.19105509,1.6428346 -1.19105509,2.8133543 0,2.0124724 1.23212599,3.40888179 2.99817319,3.40888179 0.8830236,0 1.6017637,-0.32856692 2.2383621,-1.04730706 l 0.2053544,0.8830236 H 6.366566 Z m 2.2537637,0.6776693 h 2.0535433 c 0.513386,0 0.924094,-0.1437481 1.273197,-0.472315 0.390173,-0.3491024 0.574992,-0.7803464 0.574992,-1.375874 0,-1.2321259 -0.739276,-1.9303307 -2.033008,-1.9303307 H 7.7989124 v 6.55080306436 h 0.8214173 z m 0,-0.7392756 v -2.2999685 h 1.7455123 c 0.800881,0 1.273196,0.4312441 1.273196,1.1499843 0,0.7187401 -0.472315,1.1499842 -1.273196,1.1499842 z m 9.2871493,-3.0392441 v 4.599937 c 0,0.8830236 -0.636598,1.41694482 -1.683905,1.41694482 -0.492851,0 -0.883024,-0.10267717 -1.191055,-0.32856693 C 14.703952,-1.1300998 14.560204,-1.4586668 14.560204,-1.9515171 v -4.599937 h -0.841953 v 4.599937 c 0,1.33480308 0.94463,2.15622039 2.505323,2.15622039 1.540157,0 2.525858,-0.84195274 2.525858,-2.15622039 v -4.599937 z m 6.468661,0.1848189 c -0.595527,0 -1.129448,0.2669607 -1.458015,0.6982048 -0.410709,0.5544566 -0.616063,1.4169448 -0.616063,2.5874645 0,2.15622039 0.71874,3.28566919 2.074078,3.28566919 1.355339,0 2.094615,-1.1294488 2.094615,-3.22406289 0,-1.2526614 -0.205355,-2.0740787 -0.636599,-2.6490708 C 25.505589,-6.12021 24.971668,-6.3666352 24.37614,-6.3666352 Z m 0,0.6982048 c 0.862489,0 1.273197,0.8624881 1.273197,2.566929 0,1.8071181 -0.410708,2.64907085 -1.293732,2.64907085 -0.821417,0 -1.252661,-0.88302365 -1.252661,-2.60799995 0,-1.7455118 0.431244,-2.6079999 1.273196,-2.6079999 z m 0,0"
       style="fill:#000000;fill-opacity:1;fill-rule:nonzero;stroke:none"
       aria-label="GPU0"
       transform="matrix(0.76088,0,0,0.76088,29.636276,88.406745)" />
    <path
       id="path99"
       d="M 6.3655411,-3.4506037 H 3.6343286 v 0.7392756 h 1.991937 v 0.1642834 c 0,1.1705197 -0.8624882,2.01247242 -2.0535433,2.01247242 -0.6571338,0 -1.2731968,-0.2464252 -1.6428346,-0.65713382 -0.4312441,-0.472315 -0.6982047,-1.2526614 -0.6982047,-2.0535433 0,-1.6017637 0.903559,-2.6696062 2.2999684,-2.6696062 0.9857008,0 1.7044409,0.5133858 1.8892598,1.3553385 H 6.262864 C 6.0369742,-5.8943202 5.030738,-6.6541312 3.5316514,-6.6541312 c -0.8008818,0 -1.4374803,0.2053543 -1.9508661,0.6365984 -0.75981098,0.616063 -1.19105507,1.6428346 -1.19105507,2.8133543 0,2.0124724 1.23212597,3.40888179 2.99817317,3.40888179 0.8830236,0 1.6017637,-0.32856692 2.2383622,-1.04730706 l 0.2053543,0.8830236 h 0.5339212 z m 2.2537638,0.6776693 h 2.0535431 c 0.513386,0 0.924095,-0.1437481 1.273197,-0.472315 0.390173,-0.3491024 0.574992,-0.7803464 0.574992,-1.375874 0,-1.2321259 -0.739276,-1.9303307 -2.033008,-1.9303307 H 7.7978876 v 6.55080306436 h 0.8214173 z m 0,-0.7392756 v -2.2999685 h 1.7455121 c 0.800882,0 1.273196,0.4312441 1.273196,1.1499843 0,0.7187401 -0.472314,1.1499842 -1.273196,1.1499842 z m 9.2871491,-3.0392441 v 4.599937 c 0,0.8830236 -0.636598,1.41694482 -1.683905,1.41694482 -0.492851,0 -0.883024,-0.10267717 -1.191055,-0.32856693 C 14.702927,-1.1300998 14.559179,-1.4586668 14.559179,-1.9515171 v -4.599937 h -0.841953 v 4.599937 c 0,1.33480308 0.94463,2.15622039 2.505323,2.15622039 1.540157,0 2.525858,-0.84195274 2.525858,-2.15622039 v -4.599937 z m 7.521103,3.2035275 c 0.657133,-0.3901732 0.862488,-0.7187401 0.862488,-1.3142676 0,-1.0062362 -0.780347,-1.704441 -1.909796,-1.704441 -1.108913,0 -1.909795,0.6982048 -1.909795,1.704441 0,0.5955275 0.22589,0.903559 0.862488,1.3142676 -0.71874,0.3491024 -1.088378,0.8830236 -1.088378,1.5812284 0,1.17051962 0.883024,1.97140149 2.135685,1.97140149 1.252662,0 2.135685,-0.80088187 2.135685,-1.97140149 0,-0.6982048 -0.349102,-1.232126 -1.088377,-1.5812284 z m -1.047308,-2.3205038 c 0.67767,0 1.108914,0.3901732 1.108914,1.0267716 0,0.5749921 -0.431244,0.9857008 -1.108914,0.9857008 -0.657133,0 -1.108913,-0.4107087 -1.108913,-1.0062362 0,-0.616063 0.45178,-1.0062362 1.108913,-1.0062362 z m 0,2.6696062 c 0.800882,0 1.334804,0.5133858 1.334804,1.2526614 0,0.7392756 -0.533922,1.25266138 -1.355339,1.25266138 -0.759811,0 -1.314268,-0.51338578 -1.314268,-1.25266138 0,-0.7392756 0.554457,-1.2526614 1.334803,-1.2526614 z m 0,0"
       style="fill:#000000;fill-opacity:1;fill-rule:nonzero;stroke:none"
       aria-label="GPU8"
       transform="matrix(0.76088,0,0,0.76088,77.086275,88.406745)" />
    <path
       id="path100"
       d="M 6.367595,-3.4506037 H 3.6363825 v 0.7392756 h 1.991937 v 0.1642834 c 0,1.1705197 -0.8624882,2.01247242 -2.0535433,2.01247242 -0.6571338,0 -1.2731968,-0.2464252 -1.6428346,-0.65713382 -0.4312441,-0.472315 -0.6982047,-1.2526614 -0.6982047,-2.0535433 0,-1.6017637 0.903559,-2.6696062 2.2999684,-2.6696062 0.9857008,0 1.704441,0.5133858 1.8892598,1.3553385 h 0.8419528 c -0.2258898,-1.3348031 -1.232126,-2.0946141 -2.7312126,-2.0946141 -0.8008818,0 -1.4374802,0.2053543 -1.9508661,0.6365984 -0.75981097,0.616063 -1.19105506,1.6428346 -1.19105506,2.8133543 0,2.0124724 1.23212596,3.40888179 2.99817316,3.40888179 0.8830236,0 1.6017638,-0.32856692 2.2383622,-1.04730706 l 0.2053543,0.8830236 H 6.367595 Z m 2.2486299,0.6776693 h 2.0535431 c 0.513386,0 0.924095,-0.1437481 1.273197,-0.472315 0.390173,-0.3491024 0.574992,-0.7803464 0.574992,-1.375874 0,-1.2321259 -0.739275,-1.9303307 -2.033008,-1.9303307 H 7.7948076 v 6.55080306436 h 0.8214173 z m 0,-0.7392756 v -2.2999685 h 1.7455121 c 0.800882,0 1.273197,0.4312441 1.273197,1.1499843 0,0.7187401 -0.472315,1.1499842 -1.273197,1.1499842 z m 9.2871491,-3.0392441 v 4.599937 c 0,0.8830236 -0.636598,1.41694482 -1.683905,1.41694482 -0.492851,0 -0.883024,-0.10267717 -1.191055,-0.32856693 C 14.699847,-1.1300998 14.556099,-1.4586668 14.556099,-1.9515171 v -4.599937 h -0.841953 v 4.599937 c 0,1.33480308 0.94463,2.15622039 2.505323,2.15622039 1.540157,0 2.525858,-0.84195274 2.525858,-2.15622039 v -4.599937 z m 6.340315,2.0124724 v 4.53833066436 h 0.800882 V -6.3666352 H 24.51065 c -0.266961,0.9857008 -0.45178,1.1089134 -1.66337,1.2731969 v 0.5544566 z m 7.141197,-0.1642834 c -0.164284,-1.0473071 -0.841953,-1.6633701 -1.807118,-1.6633701 -0.698205,0 -1.334803,0.3491024 -1.704441,0.9035591 -0.390173,0.616063 -0.574992,1.3964094 -0.574992,2.5669291 0,1.0678425 0.164283,1.7455117 0.533921,2.32050385 0.349102,0.51338582 0.903559,0.78034644 1.601764,0.78034644 1.21159,0 2.074078,-0.90355904 2.074078,-2.13568499 0,-1.1910551 -0.800881,-2.0330078 -1.950866,-2.0330078 -0.616063,0 -1.108913,0.2464252 -1.458015,0.7187401 0.02053,-1.5606929 0.513385,-2.423181 1.416945,-2.423181 0.554456,0 0.944629,0.3491023 1.067842,0.9651653 z m -1.909795,1.4374803 c 0.759811,0 1.232126,0.5339212 1.232126,1.3964094 0,0.8008819 -0.533922,1.37587398 -1.273197,1.37587398 -0.739276,0 -1.293732,-0.61606298 -1.293732,-1.43748028 0,-0.7803464 0.554456,-1.3348031 1.334803,-1.3348031 z m 0,0"
       style="fill:#000000;fill-opacity:1;fill-rule:nonzero;stroke:none"
       aria-label="GPU16"
       transform="matrix(0.76088,0,0,0.76088,122.6394,88.406745)" />
    <path
       id="path101"
       d="M 6.3665702,-3.4506037 H 3.6353576 v 0.7392756 h 1.991937 v 0.1642834 c 0,1.1705197 -0.8624882,2.01247242 -2.0535433,2.01247242 -0.6571338,0 -1.2731968,-0.2464252 -1.6428346,-0.65713382 -0.4312441,-0.472315 -0.6982047,-1.2526614 -0.6982047,-2.0535433 0,-1.6017637 0.903559,-2.6696062 2.2999685,-2.6696062 0.9857007,0 1.7044409,0.5133858 1.8892598,1.3553385 H 6.263893 C 6.0380032,-5.8943202 5.031767,-6.6541312 3.5326805,-6.6541312 c -0.8008819,0 -1.4374803,0.2053543 -1.9508661,0.6365984 -0.75981105,0.616063 -1.19105513,1.6428346 -1.19105513,2.8133543 0,2.0124724 1.23212593,3.40888179 2.99817313,3.40888179 0.8830236,0 1.6017638,-0.32856692 2.2383622,-1.04730706 l 0.2053543,0.8830236 h 0.5339213 z m 2.2537637,0.6776693 h 2.0535431 c 0.513386,0 0.924095,-0.1437481 1.273197,-0.472315 0.390173,-0.3491024 0.574992,-0.7803464 0.574992,-1.375874 0,-1.2321259 -0.739275,-1.9303307 -2.033008,-1.9303307 H 7.7989166 v 6.55080306436 h 0.8214173 z m 0,-0.7392756 v -2.2999685 h 1.7455121 c 0.800882,0 1.273197,0.4312441 1.273197,1.1499843 0,0.7187401 -0.472315,1.1499842 -1.273197,1.1499842 z m 9.2871491,-3.0392441 v 4.599937 c 0,0.8830236 -0.636598,1.41694482 -1.683905,1.41694482 -0.492851,0 -0.883024,-0.10267717 -1.191055,-0.32856693 C 14.703956,-1.1300998 14.560208,-1.4586668 14.560208,-1.9515171 v -4.599937 h -0.841953 v 4.599937 c 0,1.33480308 0.94463,2.15622039 2.505323,2.15622039 1.540157,0 2.525858,-0.84195274 2.525858,-2.15622039 v -4.599937 z m 8.553008,5.77045662 H 23.113216 C 23.195357,-1.2943833 23.482853,-1.6434856 24.2632,-2.0952652 l 0.903559,-0.4723149 c 0.883023,-0.4928504 1.334803,-1.1499842 1.334803,-1.9303307 0,-0.5339212 -0.205354,-1.0267716 -0.595528,-1.3553385 -0.369637,-0.3491024 -0.841952,-0.5133859 -1.43748,-0.5133859 -0.800882,0 -1.416945,0.2874961 -1.766047,0.8214173 -0.205354,0.3491024 -0.308032,0.7392756 -0.328567,1.3964095 h 0.780346 c 0.04107,-0.4312441 0.08214,-0.6982047 0.184819,-0.9035591 0.22589,-0.3901732 0.636599,-0.6160629 1.108914,-0.6160629 0.71874,0 1.252661,0.5133858 1.252661,1.191055 0,0.4928504 -0.287496,0.9240945 -0.862488,1.2526614 l -0.821417,0.472315 c -1.334804,0.759811 -1.724977,1.3553385 -1.786583,2.75174796436 h 4.230299 z M 29.843704,-1.5202731 V -6.5103564e-4 H 30.62405 V -1.5202731 h 0.94463 v -0.7187401 h -0.94463 v -4.127622 h -0.574992 l -2.895496,4.0044094 v 0.8419527 z m 0,-0.7187401 h -1.991937 l 1.991937,-2.7722834 z m 0,0"
       style="fill:#000000;fill-opacity:1;fill-rule:nonzero;stroke:none"
       aria-label="GPU24"
       transform="matrix(0.76088,0,0,0.76088,170.0894,88.406745)" />
    <path
       id="path102"
       d="M 6.366566,-3.4516286 H 3.6353535 v 0.7392756 h 1.9919369 v 0.1642834 c 0,1.1705197 -0.8624881,2.01247244 -2.0535432,2.01247244 -0.6571339,0 -1.2731969,-0.2464252 -1.6428346,-0.65713384 -0.4312441,-0.472315 -0.6982047,-1.2526614 -0.6982047,-2.0535433 0,-1.6017637 0.903559,-2.6696062 2.2999684,-2.6696062 0.9857008,0 1.7044409,0.5133858 1.8892598,1.3553385 h 0.8419528 c -0.2258898,-1.3348031 -1.232126,-2.0946141 -2.7312126,-2.0946141 -0.8008819,0 -1.4374803,0.2053543 -1.9508661,0.6365984 -0.759811,0.616063 -1.19105509,1.6428346 -1.19105509,2.8133543 0,2.0124724 1.23212599,3.40888181 2.99817319,3.40888181 0.8830236,0 1.6017637,-0.32856692 2.2383621,-1.04730706 l 0.2053544,0.8830236 H 6.366566 Z m 2.2537637,0.6776693 h 2.0535433 c 0.513386,0 0.924094,-0.1437481 1.273197,-0.472315 0.390173,-0.3491023 0.574992,-0.7803464 0.574992,-1.375874 0,-1.2321259 -0.739276,-1.9303306 -2.033008,-1.9303306 H 7.7989124 v 6.55080299 h 0.8214173 z m 0,-0.7392756 v -2.2999685 h 1.7455123 c 0.800881,0 1.273196,0.4312441 1.273196,1.1499843 0,0.7187401 -0.472315,1.1499842 -1.273196,1.1499842 z m 9.2871493,-3.039244 v 4.5999369 c 0,0.8830236 -0.636598,1.41694484 -1.683905,1.41694484 -0.492851,0 -0.883024,-0.10267717 -1.191055,-0.32856693 C 14.703952,-1.1311247 14.560204,-1.4596916 14.560204,-1.952542 v -4.5999369 h -0.841953 v 4.5999369 c 0,1.33480311 0.94463,2.15622041 2.505323,2.15622041 1.540157,0 2.525858,-0.84195274 2.525858,-2.15622041 v -4.5999369 z m 6.940976,5.031181 v 1.51962199 h 0.780347 V -1.5212979 h 0.94463 v -0.7187402 h -0.94463 V -6.36766 H 25.05381 l -2.895496,4.0044093 v 0.8419528 z m 0,-0.7187402 h -1.991937 l 1.991937,-2.7722834 z m 0,0"
       style="fill:#000000;fill-opacity:1;fill-rule:nonzero;stroke:none"
       aria-label="GPU4"
       transform="matrix(0.76088,0,0,0.76088,29.636276,135.85674)" />
    <path
       id="path103"
       d="M 6.3634861,-3.4516286 H 3.6322735 v 0.7392756 h 1.991937 v 0.1642834 c 0,1.1705197 -0.8624882,2.01247244 -2.0535433,2.01247244 -0.6571338,0 -1.2731968,-0.2464252 -1.6428346,-0.65713384 -0.4312441,-0.472315 -0.6982047,-1.2526614 -0.6982047,-2.0535433 0,-1.6017637 0.903559,-2.6696062 2.2999685,-2.6696062 0.9857007,0 1.7044409,0.5133858 1.8892598,1.3553385 h 0.8419527 c -0.2258898,-1.3348031 -1.232126,-2.0946141 -2.7312125,-2.0946141 -0.8008819,0 -1.4374803,0.2053543 -1.9508661,0.6365984 -0.75981105,0.616063 -1.19105513,1.6428346 -1.19105513,2.8133543 0,2.0124724 1.23212593,3.40888181 2.99817313,3.40888181 0.8830236,0 1.6017638,-0.32856692 2.2383622,-1.04730706 l 0.2053543,0.8830236 h 0.5339213 z m 2.2537637,0.6776693 h 2.0535432 c 0.513386,0 0.924095,-0.1437481 1.273197,-0.472315 0.390173,-0.3491023 0.574992,-0.7803464 0.574992,-1.375874 0,-1.2321259 -0.739276,-1.9303306 -2.033008,-1.9303306 H 7.7958325 v 6.55080299 h 0.8214173 z m 0,-0.7392756 v -2.2999685 h 1.7455122 c 0.800881,0 1.273196,0.4312441 1.273196,1.1499843 0,0.7187401 -0.472315,1.1499842 -1.273196,1.1499842 z m 9.2871492,-3.039244 v 4.5999369 c 0,0.8830236 -0.636598,1.41694484 -1.683905,1.41694484 -0.492851,0 -0.883024,-0.10267717 -1.191055,-0.32856693 C 14.700872,-1.1311247 14.557124,-1.4596916 14.557124,-1.952542 v -4.5999369 h -0.841953 v 4.5999369 c 0,1.33480311 0.94463,2.15622041 2.505323,2.15622041 1.540157,0 2.525858,-0.84195274 2.525858,-2.15622041 v -4.5999369 z m 6.340315,2.0124724 v 4.53833059 h 0.800882 V -6.36766 h -0.533921 c -0.266961,0.9857007 -0.45178,1.1089133 -1.66337,1.2731968 v 0.5544567 z m 7.202803,3.75798414 H 28.100242 C 28.182383,-1.2954082 28.469879,-1.6445105 29.250226,-2.09629 l 0.903559,-0.472315 c 0.883023,-0.4928504 1.334803,-1.1499842 1.334803,-1.9303307 0,-0.5339212 -0.205354,-1.0267716 -0.595528,-1.3553385 -0.369637,-0.3491024 -0.841952,-0.5133858 -1.43748,-0.5133858 -0.800882,0 -1.416945,0.287496 -1.766047,0.8214173 -0.205354,0.3491023 -0.308032,0.7392755 -0.328567,1.3964094 h 0.780346 c 0.04107,-0.4312441 0.08214,-0.6982047 0.184819,-0.903559 0.22589,-0.3901733 0.636599,-0.616063 1.108914,-0.616063 0.71874,0 1.252661,0.5133858 1.252661,1.1910551 0,0.4928503 -0.287496,0.9240944 -0.862488,1.2526614 l -0.821417,0.4723149 c -1.334804,0.759811 -1.724977,1.3553386 -1.786583,2.75174799 h 4.230299 z m 0,0"
       style="fill:#000000;fill-opacity:1;fill-rule:nonzero;stroke:none"
       aria-label="GPU12"
       transform="matrix(0.76088,0,0,0.76088,75.189401,135.85674)" />
    <path
       id="path104"
       d="M 6.367595,-3.4516286 H 3.6363825 v 0.7392756 h 1.991937 v 0.1642834 c 0,1.1705197 -0.8624882,2.01247244 -2.0535433,2.01247244 -0.6571338,0 -1.2731968,-0.2464252 -1.6428346,-0.65713384 -0.4312441,-0.472315 -0.6982047,-1.2526614 -0.6982047,-2.0535433 0,-1.6017637 0.903559,-2.6696062 2.2999684,-2.6696062 0.9857008,0 1.704441,0.5133858 1.8892598,1.3553385 h 0.8419528 c -0.2258898,-1.3348031 -1.232126,-2.0946141 -2.7312126,-2.0946141 -0.8008818,0 -1.4374802,0.2053543 -1.9508661,0.6365984 -0.75981097,0.616063 -1.19105506,1.6428346 -1.19105506,2.8133543 0,2.0124724 1.23212596,3.40888181 2.99817316,3.40888181 0.8830236,0 1.6017638,-0.32856692 2.2383622,-1.04730706 l 0.2053543,0.8830236 H 6.367595 Z m 2.2486299,0.6776693 h 2.0535431 c 0.513386,0 0.924095,-0.1437481 1.273197,-0.472315 0.390173,-0.3491023 0.574992,-0.7803464 0.574992,-1.375874 0,-1.2321259 -0.739275,-1.9303306 -2.033008,-1.9303306 H 7.7948076 v 6.55080299 h 0.8214173 z m 0,-0.7392756 v -2.2999685 h 1.7455121 c 0.800882,0 1.273197,0.4312441 1.273197,1.1499843 0,0.7187401 -0.472315,1.1499842 -1.273197,1.1499842 z m 9.2871491,-3.039244 v 4.5999369 c 0,0.8830236 -0.636598,1.41694484 -1.683905,1.41694484 -0.492851,0 -0.883024,-0.10267717 -1.191055,-0.32856693 C 14.699847,-1.1311247 14.556099,-1.4596916 14.556099,-1.952542 v -4.5999369 h -0.841953 v 4.5999369 c 0,1.33480311 0.94463,2.15622041 2.505323,2.15622041 1.540157,0 2.525858,-0.84195274 2.525858,-2.15622041 v -4.5999369 z m 8.558142,5.77045654 H 23.11424 C 23.196382,-1.2954082 23.483878,-1.6445105 24.264225,-2.09629 l 0.903559,-0.472315 c 0.883023,-0.4928504 1.334803,-1.1499842 1.334803,-1.9303307 0,-0.5339212 -0.205355,-1.0267716 -0.595528,-1.3553385 -0.369638,-0.3491024 -0.841953,-0.5133858 -1.43748,-0.5133858 -0.800882,0 -1.416945,0.287496 -1.766047,0.8214173 -0.205355,0.3491023 -0.308032,0.7392755 -0.328567,1.3964094 h 0.780346 c 0.04107,-0.4312441 0.08214,-0.6982047 0.184819,-0.903559 0.22589,-0.3901733 0.636599,-0.616063 1.108914,-0.616063 0.71874,0 1.252661,0.5133858 1.252661,1.1910551 0,0.4928503 -0.287496,0.9240944 -0.862488,1.2526614 l -0.821418,0.4723149 c -1.334803,0.759811 -1.724976,1.3553386 -1.786582,2.75174799 h 4.230299 z M 29.372413,-6.36766 c -0.595527,0 -1.129448,0.2669606 -1.458015,0.6982047 -0.410709,0.5544567 -0.616063,1.4169448 -0.616063,2.5874645 0,2.15622042 0.71874,3.28566921 2.074078,3.28566921 1.355339,0 2.094615,-1.12944879 2.094615,-3.22406291 0,-1.2526614 -0.205355,-2.0740787 -0.636599,-2.6490708 C 30.501862,-6.1212348 29.967941,-6.36766 29.372413,-6.36766 Z m 0,0.6982047 c 0.862489,0 1.273197,0.8624881 1.273197,2.5669291 0,1.807118 -0.410708,2.64907077 -1.293732,2.64907077 -0.821417,0 -1.252661,-0.88302357 -1.252661,-2.60799997 0,-1.7455118 0.431244,-2.6079999 1.273196,-2.6079999 z m 0,0"
       style="fill:#000000;fill-opacity:1;fill-rule:nonzero;stroke:none"
       aria-label="GPU20"
       transform="matrix(0.76088,0,0,0.76088,122.6394,135.85674)" />
    <path
       id="path105"
       d="m -119.72227,-125.39163 c 0.74717,-1.49443 2.49069,-2.49069 4.98138,-2.49069 H -8.4818 c 2.4907,0 4.23421,-0.99627 4.98139,-2.4907 0.74718,1.49443 2.49069,2.4907 4.98137,2.4907 h 106.25911 c 2.49069,0 4.2342,0.99626 4.98138,2.49069"
       style="fill:none;stroke:#000000;stroke-width:0.79701;stroke-linecap:round;stroke-linejoin:round;stroke-miterlimit:10;stroke-dasharray:none;stroke-opacity:1"
       transform="matrix(0.76088,0,0,-0.76088,113.71123,57.42219)" />
    <path
       id="path106"
       d="m 1.6450922,-2.7739995 h 2.0535432 c 0.5133858,0 0.9240945,-0.143748 1.2731968,-0.4723149 0.3901733,-0.3491024 0.5749922,-0.7803465 0.5749922,-1.375874 0,-1.232126 -0.7392756,-1.9303307 -2.0330079,-1.9303307 H 0.82367485 v 6.55080305 H 1.6450922 Z m 0,-0.7392755 v -2.2999685 h 1.7455117 c 0.8008819,0 1.2731969,0.4312441 1.2731969,1.1499842 0,0.7187402 -0.472315,1.1499843 -1.2731969,1.1499843 z M 7.333407,-4.7043301 H 6.573596 v 4.70261405 h 0.759811 z m 0,-1.848189 H 6.573596 v 0.9446299 H 7.333407 Z M 8.4628558,1.94915 h 0.7392756 v -2.44371644 c 0.4107086,0.49285039 0.8419526,0.69820471 1.4580156,0.69820471 1.211591,0 2.012472,-0.98570076 2.012472,-2.48478737 0,-1.5606929 -0.780346,-2.5669291 -2.033007,-2.5669291 -0.636599,0 -1.1499846,0.2874961 -1.4990869,0.8624882 V -4.7043301 H 8.4628558 Z m 2.0535432,-6.078488 c 0.821417,0 1.375874,0.7187401 1.375874,1.8481889 0,1.0678425 -0.554457,1.78658266 -1.375874,1.78658266 -0.7803464,0 -1.3142676,-0.71874016 -1.3142676,-1.82765346 0,-1.088378 0.5339212,-1.8071181 1.3142676,-1.8071181 z m 7.03852,2.0330078 c 0,-0.7187401 -0.04107,-1.1499842 -0.184819,-1.4990866 -0.308032,-0.7803464 -1.026772,-1.2526614 -1.909796,-1.2526614 -1.293732,0 -2.15622,1.0062362 -2.15622,2.5669291 0,1.54015747 0.821417,2.48478737 2.135685,2.48478737 1.088378,0 1.827654,-0.61606298 2.012472,-1.62229917 h -0.739275 c -0.205354,0.61606297 -0.636599,0.92409446 -1.232126,0.92409446 -0.472315,0 -0.883024,-0.20535432 -1.129449,-0.59552756 -0.184819,-0.2669606 -0.246425,-0.5544567 -0.266961,-1.0062362 z m -3.449953,-0.616063 c 0.06161,-0.8624881 0.595527,-1.4374802 1.355338,-1.4374802 0.739276,0 1.293733,0.6160629 1.293733,1.3758739 0,0.020535 0,0.041071 0,0.061606 z m 5.190331,-3.8401259 h -0.739276 v 6.55080305 h 0.739276 z m 1.991936,1.848189 h -0.759811 v 4.70261405 h 0.759811 z m 0,-1.848189 h -0.759811 v 0.9446299 h 0.759811 z m 1.273197,1.848189 v 4.70261405 h 0.739276 V -2.5891806 c 0,-0.9651653 0.513386,-1.6017637 1.273197,-1.6017637 0.595527,0 0.9857,0.3696378 0.9857,0.9240945 v 3.26513375 h 0.739276 V -3.5543459 c 0,-0.7803464 -0.595527,-1.2937323 -1.499087,-1.2937323 -0.698204,0 -1.149984,0.2874961 -1.560692,0.9240945 v -0.7803464 z m 8.948315,2.6079999 c 0,-0.7187401 -0.04107,-1.1499842 -0.184819,-1.4990866 -0.308031,-0.7803464 -1.026771,-1.2526614 -1.909795,-1.2526614 -1.293732,0 -2.15622,1.0062362 -2.15622,2.5669291 0,1.54015747 0.821417,2.48478737 2.135685,2.48478737 1.088377,0 1.827653,-0.61606298 2.012472,-1.62229917 h -0.739276 c -0.205354,0.61606297 -0.636598,0.92409446 -1.232126,0.92409446 -0.472315,0 -0.883023,-0.20535432 -1.129448,-0.59552756 -0.184819,-0.2669606 -0.246426,-0.5544567 -0.266961,-1.0062362 z m -3.449953,-0.616063 c 0.06161,-0.8624881 0.595528,-1.4374802 1.355339,-1.4374802 0.739276,0 1.293732,0.6160629 1.293732,1.3758739 0,0.020535 0,0.041071 0,0.061606 z m 7.967748,-0.061606 h 2.053544 c 0.513385,0 0.924094,-0.143748 1.273196,-0.4723149 0.390174,-0.3491024 0.574992,-0.7803465 0.574992,-1.375874 0,-1.232126 -0.739275,-1.9303307 -2.033007,-1.9303307 h -2.690142 v 6.55080305 h 0.821417 z m 0,-0.7392755 v -2.2999685 h 1.745512 c 0.800882,0 1.273197,0.4312441 1.273197,1.1499842 0,0.7187402 -0.472315,1.1499843 -1.273197,1.1499843 z m 8.789165,3.08031486 c -0.08214,0 -0.123212,0 -0.164283,0 -0.266961,0 -0.410709,-0.12321259 -0.410709,-0.34910235 V -3.5543459 c 0,-0.8419527 -0.595527,-1.2937323 -1.766047,-1.2937323 -0.677669,0 -1.252661,0.2053544 -1.560693,0.5544567 -0.205354,0.2464252 -0.308031,0.5133858 -0.328567,0.9857008 h 0.759811 c 0.06161,-0.5749921 0.410709,-0.8419527 1.108914,-0.8419527 0.677669,0 1.047307,0.2464251 1.047307,0.6982047 v 0.2053543 c 0,0.3080315 -0.184819,0.4517795 -0.780347,0.5133858 -1.067842,0.143748 -1.21159,0.1642835 -1.499086,0.2874961 -0.554457,0.2258897 -0.841953,0.6571338 -0.841953,1.2526614 0,0.86248813 0.595528,1.39640937 1.560693,1.39640937 0.574992,0 1.067842,-0.20535432 1.581228,-0.69820471 0.06161,0.49285039 0.287496,0.69820471 0.780347,0.69820471 0.143748,0 0.26696,-0.0205354 0.513385,-0.0821417 z M 43.501438,-1.4802672 c 0,0.2464252 -0.08214,0.4107086 -0.287496,0.61606298 -0.308032,0.26696062 -0.67767,0.41070865 -1.129449,0.41070865 -0.574992,0 -0.924095,-0.26696063 -0.924095,-0.75981103 0,-0.4928504 0.349103,-0.7392756 1.129449,-0.8624882 0.800882,-0.1026771 0.965166,-0.143748 1.211591,-0.2464251 z m 2.110015,-3.2240629 v 4.70261405 h 0.759811 V -2.4454325 c 0,-0.6776693 0.164284,-1.1089134 0.533922,-1.375874 0.225889,-0.1642835 0.451779,-0.2258898 0.965165,-0.2258898 v -0.759811 c -0.123213,-0.020535 -0.184819,-0.041071 -0.287496,-0.041071 -0.472315,0 -0.841953,0.2874961 -1.273197,1.0062362 v -0.8624881 z m 7.084725,4.27136996 c -0.08214,0 -0.123213,0 -0.164284,0 -0.26696,0 -0.410708,-0.12321259 -0.410708,-0.34910235 V -3.5543459 c 0,-0.8419527 -0.595528,-1.2937323 -1.766048,-1.2937323 -0.677669,0 -1.252661,0.2053544 -1.560692,0.5544567 -0.205355,0.2464252 -0.308032,0.5133858 -0.328567,0.9857008 h 0.759811 c 0.06161,-0.5749921 0.410708,-0.8419527 1.108913,-0.8419527 0.677669,0 1.047307,0.2464251 1.047307,0.6982047 v 0.2053543 c 0,0.3080315 -0.184819,0.4517795 -0.780346,0.5133858 -1.067843,0.143748 -1.211591,0.1642835 -1.499087,0.2874961 -0.554457,0.2258897 -0.841953,0.6571338 -0.841953,1.2526614 0,0.86248813 0.595528,1.39640937 1.560693,1.39640937 0.574992,0 1.067843,-0.20535432 1.581228,-0.69820471 0.06161,0.49285039 0.287497,0.69820471 0.780347,0.69820471 0.143748,0 0.266961,-0.0205354 0.513386,-0.0821417 z M 51.38191,-1.4802672 c 0,0.2464252 -0.08214,0.4107086 -0.287496,0.61606298 -0.308031,0.26696062 -0.677669,0.41070865 -1.129449,0.41070865 -0.574992,0 -0.924094,-0.26696063 -0.924094,-0.75981103 0,-0.4928504 0.349102,-0.7392756 1.129449,-0.8624882 0.800881,-0.1026771 0.965165,-0.143748 1.21159,-0.2464251 z m 2.849291,-5.0722519 h -0.739275 v 6.55080305 h 0.739275 z m 1.991937,0 h -0.739275 v 6.55080305 h 0.739275 z m 5.231402,4.4561889 c 0,-0.7187401 -0.04107,-1.1499842 -0.184819,-1.4990866 -0.308032,-0.7803464 -1.026772,-1.2526614 -1.909795,-1.2526614 -1.293733,0 -2.156221,1.0062362 -2.156221,2.5669291 0,1.54015747 0.821418,2.48478737 2.135685,2.48478737 1.088378,0 1.827654,-0.61606298 2.012473,-1.62229917 h -0.739276 c -0.205354,0.61606297 -0.636598,0.92409446 -1.232126,0.92409446 -0.472315,0 -0.883024,-0.20535432 -1.129449,-0.59552756 -0.184819,-0.2669606 -0.246425,-0.5544567 -0.26696,-1.0062362 z m -3.449953,-0.616063 c 0.06161,-0.8624881 0.595528,-1.4374802 1.355339,-1.4374802 0.739275,0 1.293732,0.6160629 1.293732,1.3758739 0,0.020535 0,0.041071 0,0.061606 z m 5.190331,-3.8401259 h -0.739276 v 6.55080305 h 0.739276 z m 0,0"
       style="fill:#000000;fill-opacity:1;fill-rule:nonzero;stroke:none"
       aria-label="PipelineParallel"
       transform="matrix(0.76088,0,0,0.76088,86.763907,164.83334)" />
    <path
       id="path107"
       d="m -125.39163,-119.72227 c -1.49443,0.74717 -2.49069,2.49069 -2.49069,4.98138 v 41.06134 c 0,2.49069 -0.99627,4.23421 -2.4907,4.98138 1.49443,0.7472 2.4907,2.4907 2.4907,4.98139 v 41.06137 c 0,2.49069 0.99626,4.23421 2.49069,4.98138"
       style="fill:none;stroke:#000000;stroke-width:0.79701;stroke-linecap:round;stroke-linejoin:round;stroke-miterlimit:10;stroke-dasharray:none;stroke-opacity:1"
       transform="matrix(0.76088,0,0,-0.76088,113.71123,57.42219)" />
    <path
       id="path108"
       d="M 5.2153766,-6.5532049 H 0.49222709 v 0.7392756 H 4.188605 l -3.9428031,5.07225189 v 0.73927557 H 5.235912 V -0.74167741 H 1.293109 L 5.2153766,-5.7933938 Z M 10.07714,-2.097016 c 0,-0.7187401 -0.04107,-1.1499842 -0.1848186,-1.4990866 -0.3080315,-0.7803464 -1.0267716,-1.2526613 -1.9097952,-1.2526613 -1.2937323,0 -2.1562205,1.0062362 -2.1562205,2.566929 0,1.54015749 0.8214173,2.48478739 2.135685,2.48478739 1.088378,0 1.8276535,-0.61606298 2.0124724,-1.62229919 H 9.2351875 c -0.2053543,0.61606299 -0.6365984,0.92409448 -1.2321259,0.92409448 -0.472315,0 -0.8830236,-0.20535433 -1.1294488,-0.59552758 C 6.6887939,-1.3577404 6.6271876,-1.6452364 6.6066522,-2.097016 Z M 6.6271876,-2.7130789 c 0.061606,-0.8624882 0.5955275,-1.4374803 1.3553386,-1.4374803 0.7392755,0 1.2937322,0.6160629 1.2937322,1.375874 0,0.020535 0,0.041071 0,0.061606 z m 4.4510554,-1.991937 v 4.70261406 h 0.759811 V -2.4461183 c 0,-0.6776693 0.164283,-1.1089134 0.533921,-1.375874 0.22589,-0.1642835 0.451779,-0.2258898 0.965165,-0.2258898 v -0.759811 c -0.123212,-0.020535 -0.184819,-0.041071 -0.287496,-0.041071 -0.472315,0 -0.841953,0.287496 -1.273197,1.0062362 v -0.8624882 z m 4.815559,-0.143748 c -1.314268,0 -2.11515,0.9446299 -2.11515,2.5258582 0,1.58122829 0.780346,2.52585819 2.11515,2.52585819 1.334803,0 2.135685,-0.9446299 2.135685,-2.48478739 0,-1.6222991 -0.780347,-2.566929 -2.135685,-2.566929 z m 0,0.6982047 c 0.841952,0 1.355338,0.6982047 1.355338,1.8687243 0,1.088378 -0.513386,1.78658268 -1.355338,1.78658268 -0.821418,0 -1.334804,-0.67766928 -1.334804,-1.82765348 0,-1.1294488 0.513386,-1.8276535 1.334804,-1.8276535 z m 5.826929,4.14815736 h 2.525858 c 1.642834,0 2.649071,-1.23212596 2.649071,-3.28566926 0,-2.0124724 -0.985701,-3.2651338 -2.649071,-3.2651338 h -2.525858 z m 0.841952,-0.73927557 V -5.8139293 h 1.540158 c 1.293732,0 1.971401,0.8830236 1.971401,2.5463937 0,1.6428346 -0.677669,2.52585819 -1.971401,2.52585819 z m 9.636252,0.30803149 c -0.08214,0 -0.123212,0 -0.164283,0 -0.266961,0 -0.410709,-0.1232126 -0.410709,-0.34910236 V -3.5550317 c 0,-0.8419527 -0.595528,-1.2937322 -1.766047,-1.2937322 -0.677669,0 -1.252662,0.2053543 -1.560693,0.5544566 -0.205354,0.2464252 -0.308032,0.5133859 -0.328567,0.9857008 h 0.759811 c 0.06161,-0.5749921 0.410709,-0.8419527 1.108913,-0.8419527 0.67767,0 1.047307,0.2464252 1.047307,0.6982047 v 0.2053543 c 0,0.3080315 -0.184818,0.4517795 -0.780346,0.5133858 -1.067843,0.143748 -1.211591,0.1642835 -1.499087,0.2874961 -0.554456,0.2258897 -0.841952,0.6571338 -0.841952,1.2526614 0,0.86248814 0.595527,1.39640939 1.560693,1.39640939 0.574992,0 1.067842,-0.20535433 1.581228,-0.69820471 0.06161,0.49285038 0.287496,0.69820471 0.780346,0.69820471 0.143748,0 0.266961,-0.0205354 0.513386,-0.0821417 z M 30.884667,-1.480953 c 0,0.2464252 -0.08214,0.4107087 -0.287496,0.61606299 -0.308031,0.26696063 -0.677669,0.41070865 -1.129448,0.41070865 -0.574993,0 -0.924095,-0.26696062 -0.924095,-0.75981104 0,-0.4928503 0.349102,-0.7392755 1.129449,-0.8624881 0.800882,-0.1026772 0.965165,-0.1437481 1.21159,-0.2464252 z m 3.773386,-3.2240629 h -0.780346 v -1.2937323 h -0.739276 v 1.2937323 h -0.636598 v 0.616063 h 0.636598 v 3.55262981 c 0,0.47231495 0.328567,0.73927558 0.903559,0.73927558 0.184819,0 0.369638,-0.0205354 0.616063,-0.0616063 v -0.63659841 c -0.102677,0.0410709 -0.205354,0.0410709 -0.349102,0.0410709 -0.328567,0 -0.431244,-0.0821417 -0.431244,-0.41070865 V -4.0889529 h 0.780346 z m 5.01578,4.27136998 c -0.08214,0 -0.123213,0 -0.164284,0 -0.26696,0 -0.410709,-0.1232126 -0.410709,-0.34910236 V -3.5550317 c 0,-0.8419527 -0.595527,-1.2937322 -1.766047,-1.2937322 -0.677669,0 -1.252661,0.2053543 -1.560693,0.5544566 -0.205354,0.2464252 -0.308031,0.5133859 -0.328567,0.9857008 h 0.759811 c 0.06161,-0.5749921 0.410709,-0.8419527 1.108914,-0.8419527 0.677669,0 1.047307,0.2464252 1.047307,0.6982047 v 0.2053543 c 0,0.3080315 -0.184819,0.4517795 -0.780347,0.5133858 -1.067842,0.143748 -1.21159,0.1642835 -1.499086,0.2874961 -0.554457,0.2258897 -0.841953,0.6571338 -0.841953,1.2526614 0,0.86248814 0.595528,1.39640939 1.560693,1.39640939 0.574992,0 1.067843,-0.20535433 1.581228,-0.69820471 0.06161,0.49285038 0.287496,0.69820471 0.780347,0.69820471 0.143748,0 0.26696,-0.0205354 0.513386,-0.0821417 z M 38.359565,-1.480953 c 0,0.2464252 -0.08214,0.4107087 -0.287496,0.61606299 -0.308032,0.26696063 -0.677669,0.41070865 -1.129449,0.41070865 -0.574992,0 -0.924094,-0.26696062 -0.924094,-0.75981104 0,-0.4928503 0.349102,-0.7392755 1.129448,-0.8624881 0.800882,-0.1026772 0.965166,-0.1437481 1.211591,-0.2464252 z m 5.631842,-1.2937322 h 2.053544 c 0.513385,0 0.924094,-0.1437481 1.273196,-0.472315 0.390174,-0.3491024 0.574993,-0.7803464 0.574993,-1.375874 0,-1.2321259 -0.739276,-1.9303307 -2.033008,-1.9303307 H 43.16999 v 6.55080306 h 0.821417 z m 0,-0.7392756 v -2.2999685 h 1.745512 c 0.800882,0 1.273197,0.4312441 1.273197,1.1499842 0,0.7187402 -0.472315,1.1499843 -1.273197,1.1499843 z m 8.794299,3.08031488 c -0.08214,0 -0.123212,0 -0.164283,0 -0.266961,0 -0.410709,-0.1232126 -0.410709,-0.34910236 V -3.5550317 c 0,-0.8419527 -0.595527,-1.2937322 -1.766047,-1.2937322 -0.677669,0 -1.252661,0.2053543 -1.560693,0.5544566 -0.205354,0.2464252 -0.308031,0.5133859 -0.328567,0.9857008 h 0.759811 c 0.06161,-0.5749921 0.410709,-0.8419527 1.108914,-0.8419527 0.677669,0 1.047307,0.2464252 1.047307,0.6982047 v 0.2053543 c 0,0.3080315 -0.184819,0.4517795 -0.780347,0.5133858 -1.067842,0.143748 -1.21159,0.1642835 -1.499086,0.2874961 -0.554457,0.2258897 -0.841953,0.6571338 -0.841953,1.2526614 0,0.86248814 0.595527,1.39640939 1.560693,1.39640939 0.574992,0 1.067842,-0.20535433 1.581228,-0.69820471 0.06161,0.49285038 0.287496,0.69820471 0.780347,0.69820471 0.143748,0 0.26696,-0.0205354 0.513385,-0.0821417 z M 51.471439,-1.480953 c 0,0.2464252 -0.08214,0.4107087 -0.287496,0.61606299 -0.308032,0.26696063 -0.67767,0.41070865 -1.129449,0.41070865 -0.574992,0 -0.924095,-0.26696062 -0.924095,-0.75981104 0,-0.4928503 0.349103,-0.7392755 1.129449,-0.8624881 0.800882,-0.1026772 0.965165,-0.1437481 1.211591,-0.2464252 z m 2.110015,-3.2240629 v 4.70261406 h 0.759811 V -2.4461183 c 0,-0.6776693 0.164284,-1.1089134 0.533922,-1.375874 0.225889,-0.1642835 0.451779,-0.2258898 0.965165,-0.2258898 v -0.759811 c -0.123213,-0.020535 -0.184819,-0.041071 -0.287496,-0.041071 -0.472315,0 -0.841953,0.287496 -1.273197,1.0062362 v -0.8624882 z m 7.084725,4.27136998 c -0.08214,0 -0.123213,0 -0.164284,0 -0.26696,0 -0.410708,-0.1232126 -0.410708,-0.34910236 V -3.5550317 c 0,-0.8419527 -0.595528,-1.2937322 -1.766048,-1.2937322 -0.677669,0 -1.252661,0.2053543 -1.560693,0.5544566 -0.205354,0.2464252 -0.308031,0.5133859 -0.328566,0.9857008 h 0.759811 c 0.06161,-0.5749921 0.410708,-0.8419527 1.108913,-0.8419527 0.677669,0 1.047307,0.2464252 1.047307,0.6982047 v 0.2053543 c 0,0.3080315 -0.184819,0.4517795 -0.780346,0.5133858 -1.067843,0.143748 -1.211591,0.1642835 -1.499087,0.2874961 -0.554457,0.2258897 -0.841953,0.6571338 -0.841953,1.2526614 0,0.86248814 0.595528,1.39640939 1.560693,1.39640939 0.574992,0 1.067843,-0.20535433 1.581228,-0.69820471 0.06161,0.49285038 0.287496,0.69820471 0.780347,0.69820471 0.143748,0 0.26696,-0.0205354 0.513386,-0.0821417 z M 59.351911,-1.480953 c 0,0.2464252 -0.08214,0.4107087 -0.287496,0.61606299 -0.308032,0.26696063 -0.677669,0.41070865 -1.129449,0.41070865 -0.574992,0 -0.924094,-0.26696062 -0.924094,-0.75981104 0,-0.4928503 0.349102,-0.7392755 1.129448,-0.8624881 0.800882,-0.1026772 0.965166,-0.1437481 1.211591,-0.2464252 z m 2.849291,-5.0722519 h -0.739275 v 6.55080306 h 0.739275 z m 1.991937,0 h -0.739275 v 6.55080306 h 0.739275 z m 5.231402,4.4561889 c 0,-0.7187401 -0.04107,-1.1499842 -0.184819,-1.4990866 -0.308032,-0.7803464 -1.026772,-1.2526613 -1.909795,-1.2526613 -1.293733,0 -2.156221,1.0062362 -2.156221,2.566929 0,1.54015749 0.821417,2.48478739 2.135685,2.48478739 1.088378,0 1.827654,-0.61606298 2.012473,-1.62229919 h -0.739276 c -0.205354,0.61606299 -0.636598,0.92409448 -1.232126,0.92409448 -0.472315,0 -0.883024,-0.20535433 -1.129449,-0.59552758 -0.184819,-0.2669606 -0.246425,-0.5544566 -0.26696,-1.0062362 z m -3.449953,-0.6160629 c 0.06161,-0.8624882 0.595528,-1.4374803 1.355339,-1.4374803 0.739275,0 1.293732,0.6160629 1.293732,1.375874 0,0.020535 0,0.041071 0,0.061606 z m 5.195464,-3.840126 h -0.739275 v 6.55080306 h 0.739275 z m 0,0"
       style="fill:#000000;fill-opacity:1;fill-rule:nonzero;stroke:none"
       aria-label="ZeroDataParallel"
       transform="matrix(0,-0.76088,0.76088,0,9.9119838,136.09718)" />
    <path
       id="path109"
       d="m 118.3908,-119.72227 c 1.58505,-0.5284 3.52236,0 5.28355,1.7612 l 39.26419,39.26417 c 1.7612,1.7612 3.6985,2.2896 5.28356,1.76119 -0.5284,1.58506 -1e-5,3.52236 1.76119,5.28356 l 39.26419,39.26421 c 1.7612,1.76119 2.2896,3.6985 1.7612,5.28355"
       style="fill:none;stroke:#000000;stroke-width:0.79701;stroke-linecap:round;stroke-linejoin:round;stroke-miterlimit:10;stroke-dasharray:none;stroke-opacity:1"
       transform="matrix(0.76088,0,0,-0.76088,113.71123,57.42219)" />
    <path
       id="path110"
       d="M 4.2097146,0.00115464 6.0393458,-5.4877391 V 0.00115464 H 6.8234735 V -6.5622844 H 5.6618029 L 3.7740881,-0.84105657 1.8282898,-6.5622844 H 0.66661914 V 0.00115464 H 1.4507468 V -5.4877391 L 3.3384616,0.00115464 Z M 9.9091611,-4.8488203 c -1.3068794,0 -2.1200489,0.9583783 -2.1200489,2.5266337 0,1.5972971 0.7841277,2.52663361 2.1200489,2.52663361 1.3359209,0 2.1490909,-0.92933651 2.1490909,-2.46855011 0,-1.6263389 -0.784128,-2.5847172 -2.1490909,-2.5847172 z m 0,0.6970024 c 0.8422109,0 1.3649629,0.6970024 1.3649629,1.8877148 0,1.0745453 -0.522752,1.77154772 -1.3649629,1.77154772 -0.8131694,0 -1.3359212,-0.66796062 -1.3359212,-1.82963122 0,-1.1326289 0.5227518,-1.8296313 1.3359212,-1.8296313 z M 16.897336,-6.5659147 H 16.14225 v 2.4685501 c -0.290418,-0.49371 -0.813169,-0.7550859 -1.423046,-0.7550859 -1.248796,0 -2.032924,0.9874201 -2.032924,2.4975919 0,1.56825535 0.784128,2.55567539 2.032924,2.55567539 0.638918,0 1.103587,-0.23233413 1.510171,-0.81316945 v 0.60987708 h 0.667961 z m -2.061965,2.4395084 c 0.813169,0 1.306879,0.7260441 1.306879,1.8296312 0,1.0745454 -0.49371,1.8005895 -1.306879,1.8005895 -0.81317,0 -1.364963,-0.7260441 -1.364963,-1.8296312 0,-1.0745454 0.551793,-1.8005895 1.364963,-1.8005895 z m 7.191467,2.0365538 c 0,-0.7260441 -0.02904,-1.1616706 -0.174251,-1.5101718 -0.319459,-0.7841277 -1.016461,-1.248796 -1.916756,-1.248796 -1.277838,0 -2.149091,1.0164618 -2.149091,2.5847172 0,1.5392136 0.81317,2.46855011 2.149091,2.46855011 1.074545,0 1.800589,-0.60987709 2.003882,-1.62633891 h -0.755086 c -0.203293,0.6098771 -0.638919,0.92933652 -1.219754,0.92933652 -0.464669,0 -0.871253,-0.20329236 -1.132629,-0.58083532 C 18.657993,-1.3638084 18.59991,-1.654226 18.570868,-2.0898525 Z M 18.59991,-2.6997296 c 0.05808,-0.871253 0.580835,-1.4520883 1.335921,-1.4520883 0.755086,0 1.306879,0.6098771 1.306879,1.3940048 0,0 0,0.029042 0,0.058083 z m 5.191215,-3.8625548 h -0.755086 v 6.56343904 h 0.755086 z m 4.76285,3.8044713 h 2.032923 c 0.522752,0 0.929337,-0.1452088 1.277838,-0.49371 0.406585,-0.3485012 0.580835,-0.7841277 0.580835,-1.364963 0,-1.248796 -0.755085,-1.9457983 -2.032923,-1.9457983 h -2.700884 v 6.56343904 h 0.842211 z m 0,-0.7550859 v -2.2942995 h 1.742506 c 0.784127,0 1.277837,0.4356265 1.277837,1.1326288 0,0.7260442 -0.49371,1.1616707 -1.277837,1.1616707 z m 8.766983,3.07479694 c -0.05808,0 -0.116167,0 -0.145209,0 -0.261376,0 -0.406585,-0.11616707 -0.406585,-0.34850119 V -3.545571 c 0,-0.8422112 -0.609877,-1.3068795 -1.771547,-1.3068795 -0.667961,0 -1.248796,0.2032924 -1.568256,0.5517936 -0.203292,0.2613759 -0.290417,0.5227518 -0.319459,0.98742 h 0.755086 c 0.05808,-0.5808353 0.406584,-0.8422112 1.103587,-0.8422112 0.66796,0 1.045503,0.2613759 1.045503,0.6970024 v 0.2032923 c 0,0.3194595 -0.17425,0.4646683 -0.784127,0.5227518 -1.045504,0.1452089 -1.190713,0.1742506 -1.48113,0.2904177 -0.551794,0.2323341 -0.842212,0.6389188 -0.842212,1.2487959 0,0.871253 0.580836,1.39400479 1.539214,1.39400479 0.580835,0 1.074545,-0.20329237 1.597297,-0.69700239 0.05808,0.49371002 0.290418,0.69700239 0.784128,0.69700239 0.145209,0 0.261376,-0.0290418 0.49371,-0.0871253 z m -1.30688,-1.04550354 c 0,0.2613759 -0.08713,0.4065847 -0.290417,0.60987705 -0.290418,0.26137589 -0.667961,0.40658472 -1.132629,0.40658472 -0.551794,0 -0.900295,-0.26137589 -0.900295,-0.75508587 0,-0.4937101 0.348501,-0.7260442 1.103587,-0.8422113 0.81317,-0.116167 0.98742,-0.1452088 1.219754,-0.2613758 z m 2.109159,-3.2200058 v 4.70476604 h 0.755086 V -2.4383537 c 0,-0.6679606 0.17425,-1.1035871 0.551793,-1.3940048 0.232334,-0.1452088 0.435627,-0.2032923 0.958378,-0.2032923 v -0.7550859 c -0.116167,-0.029042 -0.17425,-0.058084 -0.290417,-0.058084 -0.464668,0 -0.842211,0.2904177 -1.277838,1.0164618 v -0.8712529 z m 7.07893,4.26913956 c -0.05808,0 -0.116167,0 -0.145209,0 -0.261376,0 -0.406584,-0.11616707 -0.406584,-0.34850119 V -3.5419408 c 0,-0.8422112 -0.609878,-1.3068795 -1.771548,-1.3068795 -0.667961,0 -1.248796,0.2032924 -1.568256,0.5517936 -0.203292,0.2613759 -0.290417,0.5227518 -0.319459,0.98742 h 0.755086 c 0.05808,-0.5808353 0.406585,-0.8422112 1.103587,-0.8422112 0.667961,0 1.045504,0.2613759 1.045504,0.6970024 v 0.2032924 c 0,0.3194594 -0.174251,0.4646682 -0.784128,0.5227518 -1.045504,0.1452088 -1.190712,0.1742505 -1.48113,0.2904176 -0.551794,0.2323341 -0.842211,0.6389189 -0.842211,1.2487959 0,0.87125302 0.580835,1.39400481 1.539213,1.39400481 0.580836,0 1.074546,-0.20329237 1.597297,-0.69700239 0.05808,0.49371002 0.290418,0.69700239 0.784128,0.69700239 0.145209,0 0.261376,-0.0290418 0.49371,-0.0871253 z M 43.895288,-1.4799754 c 0,0.2613759 -0.08713,0.4065847 -0.290418,0.60987707 -0.290418,0.26137589 -0.667961,0.40658472 -1.132629,0.40658472 -0.551793,0 -0.900295,-0.26137589 -0.900295,-0.75508589 0,-0.49371 0.348502,-0.7260442 1.103587,-0.8422112 0.81317,-0.1161671 0.987421,-0.1452089 1.219755,-0.2613759 z m 2.867874,-5.082309 h -0.755086 v 6.56343904 h 0.755086 z m 1.989361,0 h -0.755086 v 6.56343904 h 0.755086 z m 5.212997,4.4724319 c 0,-0.7260441 -0.02904,-1.1616706 -0.174251,-1.5101718 -0.319459,-0.7841277 -1.016461,-1.248796 -1.916756,-1.248796 -1.277838,0 -2.149091,1.0164618 -2.149091,2.5847172 0,1.5392136 0.81317,2.46855011 2.149091,2.46855011 1.074545,0 1.800589,-0.60987709 2.003882,-1.62633891 h -0.755086 c -0.203293,0.6098771 -0.638919,0.92933652 -1.219754,0.92933652 -0.464669,0 -0.871253,-0.20329236 -1.132629,-0.58083532 -0.174251,-0.2904177 -0.232334,-0.5808353 -0.261376,-1.0164618 z m -3.426928,-0.6098771 c 0.05808,-0.871253 0.580835,-1.4520883 1.335921,-1.4520883 0.755086,0 1.306879,0.6098771 1.306879,1.3940048 0,0 0,0.029042 0,0.058083 z m 5.191215,-3.8625548 h -0.755086 v 6.56343904 h 0.755086 z m 0,0"
       style="fill:#000000;fill-opacity:1;fill-rule:nonzero;stroke:none"
       aria-label="ModelParallel"
       transform="matrix(0.53801825,-0.53801825,0.53801825,0.53801825,231.23448,136.65491)" />
  </g>
</svg>
