<?xml version="1.0" encoding="UTF-8" standalone="no"?>
<!-- Created with Inkscape (http://www.inkscape.org/) -->

<svg
   version="1.1"
   id="svg1"
   width="640.02002"
   height="127.79467"
   viewBox="0 0 640.02002 127.79467"
   xmlns="http://www.w3.org/2000/svg"
   xmlns:svg="http://www.w3.org/2000/svg">
  <defs
     id="defs1" />
  <g
     id="g1">
    <path
       id="path1"
       d="M -34.59138,-14.17339 H 34.59139 V 14.1734 h -69.18277 z"
       style="fill:#d1f3ff;fill-opacity:1;fill-rule:nonzero;stroke:#2294bd;stroke-width:0.74721;stroke-linecap:butt;stroke-linejoin:round;stroke-miterlimit:10;stroke-dasharray:none;stroke-opacity:1"
       transform="matrix(1.3333333,0,0,-1.3333333,46.62,57.842667)" />
    <path
       id="path2"
       d="M 4.1962422,0.00129687 6.0360859,-5.4713594 V 0.00129687 H 6.8212422 V -6.5377656 H 5.6610859 L 3.7626484,-0.84245313 1.8290547,-6.5377656 H 0.66889844 V 0.00129687 H 1.4657734 V -5.4713594 L 3.3173359,0.00129687 Z M 9.9062031,-4.8268281 c -1.3125,0 -2.109375,0.9375 -2.109375,2.5195312 0,1.57031252 0.7851563,2.51953127 2.1210938,2.51953127 1.3125001,0 2.1210941,-0.94921875 2.1210941,-2.48437497 0,-1.6289063 -0.773438,-2.5546875 -2.1328129,-2.5546875 z m 0.011719,0.6914062 c 0.8437499,0 1.3476559,0.6796875 1.3476559,1.8515625 0,1.1015625 -0.527344,1.80468752 -1.3476559,1.80468752 -0.8320313,0 -1.3476563,-0.69140622 -1.3476563,-1.82812502 0,-1.1367187 0.515625,-1.828125 1.3476563,-1.828125 z m 3.1582029,-0.5625 v 4.69921877 h 0.75 V -2.4362031 c 0,-0.6679688 0.175781,-1.1132813 0.527344,-1.3710938 0.234375,-0.1757812 0.457031,-0.2226562 0.984375,-0.234375 v -0.7617187 c -0.128907,-0.023437 -0.199219,-0.023437 -0.292969,-0.023437 -0.480469,0 -0.855469,0.28125 -1.277344,0.984375 v -0.8554688 z m 6.958008,2.6015625 c 0,-0.7148437 -0.04687,-1.1484375 -0.1875,-1.5 -0.304688,-0.7734375 -1.019531,-1.2304687 -1.898438,-1.2304687 -1.300781,0 -2.144531,0.9960937 -2.144531,2.5429687 0,1.54687502 0.808594,2.49609377 2.132813,2.49609377 1.066406,0 1.816406,-0.609375 2.003906,-1.64062497 h -0.75 c -0.210938,0.62109372 -0.632813,0.94921872 -1.230469,0.94921872 -0.480469,0 -0.878906,-0.22265625 -1.125,-0.60937502 -0.1875,-0.2695312 -0.246094,-0.5390625 -0.257812,-1.0078125 z m -3.433594,-0.609375 c 0.05859,-0.8671875 0.585938,-1.4296875 1.335938,-1.4296875 0.738281,0 1.300781,0.609375 1.300781,1.3710938 0,0.023437 0,0.035156 0,0.058594 z m 0,0"
       style="fill:#000000;fill-opacity:1;fill-rule:nonzero;stroke:none"
       aria-label="More"
       transform="matrix(1.3333333,0,0,1.3333333,33.002667,53.537333)" />
    <path
       id="path3"
       d="M 1.7353047,-6.5397344 H 0.89155469 V -6.71875e-4 H 1.7353047 Z m 1.3916015,1.8398438 v 4.699218725 h 0.75 V -2.5905156 c 0,-0.9609375 0.5039063,-1.5820313 1.265625,-1.5820313 0.5976563,0 0.9726563,0.3515625 0.9726563,0.9140625 v 3.257812525 h 0.75 V -3.5514531 c 0,-0.7734375 -0.5859375,-1.2773438 -1.4882813,-1.2773438 -0.703125,0 -1.1484375,0.2695313 -1.5703125,0.9140625 v -0.7851562 z m 6.6240235,0 H 8.9892109 v -1.2890625 h -0.75 v 1.2890625 H 7.6063984 v 0.609375 h 0.6328125 v 3.55078122 c 0,0.48046875 0.328125,0.75 0.9023438,0.75 0.1875,0 0.3632812,-0.0234375 0.609375,-0.0703125 v -0.62109375 c -0.09375,0.0234375 -0.2109375,0.0351563 -0.3515625,0.0351563 -0.328125,0 -0.4101563,-0.09375 -0.4101563,-0.421875 V -4.0905156 h 0.7617188 z m 4.8134763,2.6015625 c 0,-0.7148438 -0.04687,-1.1484375 -0.1875,-1.5 -0.304687,-0.7734375 -1.019531,-1.2304688 -1.898437,-1.2304688 -1.300782,0 -2.144532,0.9960938 -2.144532,2.5429688 0,1.54687497 0.808594,2.49609372 2.132813,2.49609372 1.066406,0 1.816406,-0.609375 2.003906,-1.64062502 h -0.75 c -0.210937,0.62109377 -0.632812,0.94921877 -1.230469,0.94921877 -0.480468,0 -0.878906,-0.22265625 -1.125,-0.60937497 -0.1875,-0.2695313 -0.246093,-0.5390625 -0.257812,-1.0078125 z m -3.433594,-0.609375 c 0.05859,-0.8671875 0.585938,-1.4296875 1.335938,-1.4296875 0.738281,0 1.300781,0.609375 1.300781,1.3710937 0,0.023437 0,0.035156 0,0.058594 z m 4.447266,-1.9921875 v 4.699218725 h 0.75 V -2.4381719 c 0,-0.6679687 0.175781,-1.1132812 0.527344,-1.3710937 0.234375,-0.1757813 0.457031,-0.2226563 0.984375,-0.234375 v -0.7617188 c -0.128906,-0.023437 -0.199219,-0.023437 -0.292969,-0.023437 -0.480469,0 -0.855469,0.28125 -1.277344,0.984375 v -0.8554687 z m 3.105469,6.65625 h 0.761719 v -2.44921878 c 0.386718,0.48046875 0.832031,0.703125 1.441406,0.703125 1.207031,0 2.003906,-0.984375 2.003906,-2.48437502 0,-1.5703125 -0.773437,-2.5546875 -2.015625,-2.5546875 -0.632812,0 -1.148437,0.28125 -1.5,0.84375 v -0.7148437 h -0.691406 z m 2.0625,-6.09375 c 0.832031,0 1.371094,0.7265625 1.371094,1.8515625 0,1.0664062 -0.550782,1.79296872 -1.371094,1.79296872 -0.785156,0 -1.300781,-0.71484372 -1.300781,-1.81640622 0,-1.1015625 0.515625,-1.828125 1.300781,-1.828125 z m 3.061523,-0.5625 v 4.699218725 h 0.75 V -2.4381719 c 0,-0.6679687 0.175782,-1.1132812 0.527344,-1.3710937 0.234375,-0.1757813 0.457031,-0.2226563 0.984375,-0.234375 v -0.7617188 c -0.128906,-0.023437 -0.199219,-0.023437 -0.292969,-0.023437 -0.480468,0 -0.855468,0.28125 -1.277343,0.984375 v -0.8554687 z m 6.958008,2.6015625 c 0,-0.7148438 -0.04687,-1.1484375 -0.1875,-1.5 -0.304687,-0.7734375 -1.019531,-1.2304688 -1.898437,-1.2304688 -1.300782,0 -2.144532,0.9960938 -2.144532,2.5429688 0,1.54687497 0.808594,2.49609372 2.132813,2.49609372 1.066406,0 1.816406,-0.609375 2.003906,-1.64062502 h -0.75 c -0.210937,0.62109377 -0.632812,0.94921877 -1.230469,0.94921877 -0.480468,0 -0.878906,-0.22265625 -1.125,-0.60937497 -0.1875,-0.2695313 -0.246093,-0.5390625 -0.257812,-1.0078125 z m -3.433594,-0.609375 c 0.05859,-0.8671875 0.585938,-1.4296875 1.335938,-1.4296875 0.738281,0 1.300781,0.609375 1.300781,1.3710937 0,0.023437 0,0.035156 0,0.058594 z m 6.09961,-1.9921875 h -0.761719 v -1.2890625 h -0.75 v 1.2890625 h -0.632813 v 0.609375 h 0.632813 v 3.55078122 c 0,0.48046875 0.328125,0.75 0.902344,0.75 0.1875,0 0.363281,-0.0234375 0.609375,-0.0703125 v -0.62109375 c -0.09375,0.0234375 -0.210938,0.0351563 -0.351563,0.0351563 -0.328125,0 -0.410156,-0.09375 -0.410156,-0.421875 V -4.0905156 h 0.761719 z m 5.012695,4.26562497 c -0.08203,0.0117188 -0.117187,0.0117188 -0.152344,0.0117188 -0.269531,0 -0.410156,-0.12890625 -0.410156,-0.36328125 V -3.5514531 c 0,-0.8320313 -0.609375,-1.2773438 -1.769531,-1.2773438 -0.679688,0 -1.242188,0.1875 -1.558594,0.5390625 -0.210937,0.2460938 -0.304687,0.515625 -0.316406,0.984375 h 0.75 c 0.05859,-0.5742187 0.398437,-0.8320312 1.101562,-0.8320312 0.667969,0 1.054688,0.2460937 1.054688,0.6914062 v 0.1992188 c 0,0.3164062 -0.1875,0.4453125 -0.785156,0.515625 -1.054688,0.140625 -1.21875,0.1757812 -1.5,0.2929687 -0.550782,0.2226563 -0.832032,0.6445313 -0.832032,1.2539063 0,0.85546872 0.597657,1.39453122 1.546875,1.39453122 0.585938,0 1.066407,-0.210937495 1.59375,-0.69140625 0.04687,0.46875 0.28125,0.69140625 0.773438,0.69140625 0.152344,0 0.269531,-0.0234375 0.503906,-0.0820313 z M 37.143508,-1.4772344 c 0,0.2460938 -0.08203,0.3984375 -0.304688,0.60937502 -0.304687,0.28125 -0.667968,0.421875 -1.113281,0.421875 -0.574219,0 -0.914062,-0.28125 -0.914062,-0.76171872 0,-0.4921875 0.328125,-0.7382813 1.125,-0.8554688 0.785156,-0.1054687 0.949218,-0.140625 1.207031,-0.2578125 z m 1.971679,-5.0625 v 6.539062525 h 0.679688 V -0.59832813 c 0.351562,0.5390625 0.832031,0.80859375 1.488281,0.80859375 1.230469,0 2.039063,-1.01953125 2.039063,-2.57812502 0,-1.5234375 -0.773438,-2.4609375 -2.003907,-2.4609375 -0.644531,0 -1.101562,0.234375 -1.453125,0.7617188 v -2.4726563 z m 2.050782,2.4023438 c 0.84375,0 1.382812,0.7265625 1.382812,1.8515625 0,1.0664062 -0.5625,1.79296872 -1.382812,1.79296872 -0.785157,0 -1.300782,-0.71484372 -1.300782,-1.81640622 0,-1.1015625 0.515625,-1.828125 1.300782,-1.828125 z M 44.8105,-6.5397344 h -0.75 v 6.539062525 h 0.75 z m 5.223633,4.4414063 c 0,-0.7148438 -0.04687,-1.1484375 -0.1875,-1.5 -0.304688,-0.7734375 -1.019531,-1.2304688 -1.898438,-1.2304688 -1.300781,0 -2.144531,0.9960938 -2.144531,2.5429688 0,1.54687497 0.808594,2.49609372 2.132813,2.49609372 1.066406,0 1.816406,-0.609375 2.003906,-1.64062502 h -0.75 c -0.210938,0.62109377 -0.632813,0.94921877 -1.230469,0.94921877 -0.480469,0 -0.878906,-0.22265625 -1.125,-0.60937497 -0.1875,-0.2695313 -0.246094,-0.5390625 -0.257812,-1.0078125 z m -3.433594,-0.609375 c 0.05859,-0.8671875 0.585938,-1.4296875 1.335938,-1.4296875 0.738281,0 1.300781,0.609375 1.300781,1.3710937 0,0.023437 0,0.035156 0,0.058594 z m 0,0"
       style="fill:#000000;fill-opacity:1;fill-rule:nonzero;stroke:none"
       aria-label="Interpretable"
       transform="matrix(1.3333333,0,0,1.3333333,13.002667,68.149333)" />
    <path
       id="path4"
       d="m 375.5003,-14.17339 h 69.18277 V 14.1734 H 375.5003 Z"
       style="fill:#fde2f0;fill-opacity:1;fill-rule:nonzero;stroke:#c9146e;stroke-width:0.74721;stroke-linecap:butt;stroke-linejoin:round;stroke-miterlimit:10;stroke-dasharray:none;stroke-opacity:1"
       transform="matrix(1.3333333,0,0,-1.3333333,46.62,57.842667)" />
    <path
       id="path5"
       d="M 1.5468828,-6.5377656 H 0.71485156 V 0.00129687 H 4.7812578 v -0.73828125 h -3.234375 z m 8.0332031,4.4414062 c 0,-0.7148437 -0.046875,-1.1484375 -0.1875,-1.5 -0.3046875,-0.7734375 -1.0195312,-1.2304687 -1.8984375,-1.2304687 -1.3007812,0 -2.1445312,0.9960937 -2.1445312,2.5429687 0,1.54687502 0.8085937,2.49609377 2.1328125,2.49609377 1.0664062,0 1.8164062,-0.609375 2.0039062,-1.64062497 h -0.75 c -0.2109375,0.62109372 -0.6328125,0.94921872 -1.2304687,0.94921872 -0.4804688,0 -0.8789063,-0.22265625 -1.125,-0.60937502 -0.1875,-0.2695312 -0.2460938,-0.5390625 -0.2578125,-1.0078125 z m -3.4335937,-0.609375 c 0.058594,-0.8671875 0.5859375,-1.4296875 1.3359375,-1.4296875 0.7382812,0 1.3007812,0.609375 1.3007812,1.3710938 0,0.023437 0,0.035156 0,0.058594 z m 7.7490238,-0.6796875 c -0.01172,-0.9257812 -0.621094,-1.4414062 -1.699219,-1.4414062 -1.101563,0 -1.804688,0.5625 -1.804688,1.4296875 0,0.7382812 0.375,1.0898437 1.488282,1.359375 l 0.703125,0.1640625 c 0.515625,0.1289062 0.726562,0.3164062 0.726562,0.65625 0,0.43359372 -0.445312,0.73828122 -1.101562,0.73828122 -0.398438,0 -0.738282,-0.1171875 -0.925782,-0.31640625 -0.117187,-0.140625 -0.175781,-0.26953127 -0.222656,-0.59765627 h -0.785156 c 0.03516,1.07812502 0.644531,1.60546877 1.875,1.60546877 1.183594,0 1.933594,-0.5859375 1.933594,-1.48828127 0,-0.703125 -0.398438,-1.0898437 -1.324219,-1.3125 l -0.714844,-0.1757812 c -0.609375,-0.140625 -0.867187,-0.3398438 -0.867187,-0.6679688 0,-0.4335937 0.375,-0.703125 0.984375,-0.703125 0.609375,0 0.925781,0.2578125 0.949218,0.75 z m 4.485351,0 c -0.01172,-0.9257812 -0.621094,-1.4414062 -1.699219,-1.4414062 -1.101562,0 -1.804687,0.5625 -1.804687,1.4296875 0,0.7382812 0.375,1.0898437 1.488281,1.359375 l 0.703125,0.1640625 c 0.515625,0.1289062 0.726563,0.3164062 0.726563,0.65625 0,0.43359372 -0.445313,0.73828122 -1.101563,0.73828122 -0.398437,0 -0.738281,-0.1171875 -0.925781,-0.31640625 -0.117188,-0.140625 -0.175781,-0.26953127 -0.222656,-0.59765627 h -0.785157 c 0.03516,1.07812502 0.644532,1.60546877 1.875,1.60546877 1.183594,0 1.933594,-0.5859375 1.933594,-1.48828127 0,-0.703125 -0.398437,-1.0898437 -1.324219,-1.3125 l -0.714843,-0.1757812 c -0.609375,-0.140625 -0.867188,-0.3398438 -0.867188,-0.6679688 0,-0.4335937 0.375,-0.703125 0.984375,-0.703125 0.609375,0 0.925781,0.2578125 0.949219,0.75 z m 0,0"
       style="fill:#000000;fill-opacity:1;fill-rule:nonzero;stroke:none"
       aria-label="Less"
       transform="matrix(1.3333333,0,0,1.3333333,580.77733,53.537333)" />
    <path
       id="path6"
       d="M 1.7352422,-6.5397344 H 0.89149219 V -6.71875e-4 H 1.7352422 Z m 1.3916016,1.8398438 v 4.699218725 h 0.75 V -2.5905156 c 0,-0.9609375 0.5039062,-1.5820313 1.265625,-1.5820313 0.5976562,0 0.9726562,0.3515625 0.9726562,0.9140625 v 3.257812525 h 0.75 V -3.5514531 c 0,-0.7734375 -0.5859375,-1.2773438 -1.4882812,-1.2773438 -0.703125,0 -1.1484375,0.2695313 -1.5703125,0.9140625 v -0.7851562 z m 6.6240234,0 H 8.9891484 v -1.2890625 h -0.75 v 1.2890625 H 7.6063359 v 0.609375 h 0.6328125 v 3.55078122 c 0,0.48046875 0.328125,0.75 0.9023438,0.75 0.1875,0 0.3632812,-0.0234375 0.609375,-0.0703125 v -0.62109375 c -0.09375,0.0234375 -0.2109375,0.0351563 -0.3515625,0.0351563 -0.328125,0 -0.4101563,-0.09375 -0.4101563,-0.421875 V -4.0905156 h 0.7617188 z m 4.8134768,2.6015625 c 0,-0.7148438 -0.04687,-1.1484375 -0.1875,-1.5 -0.304688,-0.7734375 -1.019531,-1.2304688 -1.898438,-1.2304688 -1.300781,0 -2.144531,0.9960938 -2.144531,2.5429688 0,1.54687497 0.808594,2.49609372 2.132813,2.49609372 1.066406,0 1.816406,-0.609375 2.003906,-1.64062502 h -0.75 c -0.210938,0.62109377 -0.632813,0.94921877 -1.230469,0.94921877 -0.480469,0 -0.878906,-0.22265625 -1.125,-0.60937497 -0.1875,-0.2695313 -0.246094,-0.5390625 -0.257812,-1.0078125 z m -3.433594,-0.609375 c 0.05859,-0.8671875 0.585938,-1.4296875 1.335938,-1.4296875 0.738281,0 1.300781,0.609375 1.300781,1.3710937 0,0.023437 0,0.035156 0,0.058594 z m 4.447266,-1.9921875 v 4.699218725 h 0.75 V -2.4381719 c 0,-0.6679687 0.175781,-1.1132812 0.527343,-1.3710937 0.234375,-0.1757813 0.457032,-0.2226563 0.984375,-0.234375 v -0.7617188 c -0.128906,-0.023437 -0.199218,-0.023437 -0.292968,-0.023437 -0.480469,0 -0.855469,0.28125 -1.277344,0.984375 v -0.8554687 z m 3.105468,6.65625 h 0.761719 v -2.44921878 c 0.386719,0.48046875 0.832031,0.703125 1.441406,0.703125 1.207032,0 2.003907,-0.984375 2.003907,-2.48437502 0,-1.5703125 -0.773438,-2.5546875 -2.015625,-2.5546875 -0.632813,0 -1.148438,0.28125 -1.5,0.84375 v -0.7148437 h -0.691407 z m 2.0625,-6.09375 c 0.832032,0 1.371094,0.7265625 1.371094,1.8515625 0,1.0664062 -0.550781,1.79296872 -1.371094,1.79296872 -0.785156,0 -1.300781,-0.71484372 -1.300781,-1.81640622 0,-1.1015625 0.515625,-1.828125 1.300781,-1.828125 z m 3.061524,-0.5625 v 4.699218725 h 0.75 V -2.4381719 c 0,-0.6679687 0.175781,-1.1132812 0.527344,-1.3710937 0.234375,-0.1757813 0.457031,-0.2226563 0.984375,-0.234375 v -0.7617188 c -0.128907,-0.023437 -0.199219,-0.023437 -0.292969,-0.023437 -0.480469,0 -0.855469,0.28125 -1.277344,0.984375 v -0.8554687 z m 6.958008,2.6015625 c 0,-0.7148438 -0.04687,-1.1484375 -0.1875,-1.5 -0.304688,-0.7734375 -1.019532,-1.2304688 -1.898438,-1.2304688 -1.300781,0 -2.144531,0.9960938 -2.144531,2.5429688 0,1.54687497 0.808594,2.49609372 2.132812,2.49609372 1.066407,0 1.816407,-0.609375 2.003907,-1.64062502 h -0.75 c -0.210938,0.62109377 -0.632813,0.94921877 -1.230469,0.94921877 -0.480469,0 -0.878906,-0.22265625 -1.125,-0.60937497 -0.1875,-0.2695313 -0.246094,-0.5390625 -0.257813,-1.0078125 z m -3.433594,-0.609375 c 0.05859,-0.8671875 0.585937,-1.4296875 1.335937,-1.4296875 0.738282,0 1.300782,0.609375 1.300782,1.3710937 0,0.023437 0,0.035156 0,0.058594 z m 6.099609,-1.9921875 h -0.761718 v -1.2890625 h -0.75 v 1.2890625 H 31.287 v 0.609375 h 0.632813 v 3.55078122 c 0,0.48046875 0.328125,0.75 0.902343,0.75 0.1875,0 0.363282,-0.0234375 0.609375,-0.0703125 v -0.62109375 c -0.09375,0.0234375 -0.210937,0.0351563 -0.351562,0.0351563 -0.328125,0 -0.410156,-0.09375 -0.410156,-0.421875 V -4.0905156 h 0.761718 z m 5.012696,4.26562497 c -0.08203,0.0117188 -0.117188,0.0117188 -0.152344,0.0117188 -0.269531,0 -0.410156,-0.12890625 -0.410156,-0.36328125 V -3.5514531 c 0,-0.8320313 -0.609375,-1.2773438 -1.769532,-1.2773438 -0.679687,0 -1.242187,0.1875 -1.558593,0.5390625 -0.210938,0.2460938 -0.304688,0.515625 -0.316407,0.984375 h 0.75 c 0.05859,-0.5742187 0.398438,-0.8320312 1.101563,-0.8320312 0.667969,0 1.054687,0.2460937 1.054687,0.6914062 v 0.1992188 c 0,0.3164062 -0.1875,0.4453125 -0.785156,0.515625 -1.054687,0.140625 -1.21875,0.1757812 -1.5,0.2929687 -0.550781,0.2226563 -0.832031,0.6445313 -0.832031,1.2539063 0,0.85546872 0.597656,1.39453122 1.546875,1.39453122 0.585937,0 1.066406,-0.210937495 1.59375,-0.69140625 0.04687,0.46875 0.28125,0.69140625 0.773437,0.69140625 0.152344,0 0.269532,-0.0234375 0.503907,-0.0820313 z M 37.143445,-1.4772344 c 0,0.2460938 -0.08203,0.3984375 -0.304687,0.60937502 -0.304688,0.28125 -0.667969,0.421875 -1.113281,0.421875 -0.574219,0 -0.914063,-0.28125 -0.914063,-0.76171872 0,-0.4921875 0.328125,-0.7382813 1.125,-0.8554688 0.785156,-0.1054687 0.949219,-0.140625 1.207031,-0.2578125 z m 1.97461,-5.0625 v 6.539062525 h 0.679687 V -0.59832813 c 0.351563,0.5390625 0.832031,0.80859375 1.488281,0.80859375 1.230469,0 2.039063,-1.01953125 2.039063,-2.57812502 0,-1.5234375 -0.773438,-2.4609375 -2.003906,-2.4609375 -0.644532,0 -1.101563,0.234375 -1.453125,0.7617188 v -2.4726563 z m 2.050781,2.4023438 c 0.84375,0 1.382812,0.7265625 1.382812,1.8515625 0,1.0664062 -0.5625,1.79296872 -1.382812,1.79296872 -0.785156,0 -1.300781,-0.71484372 -1.300781,-1.81640622 0,-1.1015625 0.515625,-1.828125 1.300781,-1.828125 z m 3.641602,-2.4023438 h -0.75 v 6.539062525 h 0.75 z m 5.223632,4.4414063 c 0,-0.7148438 -0.04687,-1.1484375 -0.1875,-1.5 -0.304687,-0.7734375 -1.019531,-1.2304688 -1.898437,-1.2304688 -1.300781,0 -2.144531,0.9960938 -2.144531,2.5429688 0,1.54687497 0.808593,2.49609372 2.132812,2.49609372 1.066406,0 1.816406,-0.609375 2.003906,-1.64062502 h -0.75 c -0.210937,0.62109377 -0.632812,0.94921877 -1.230468,0.94921877 -0.480469,0 -0.878907,-0.22265625 -1.125,-0.60937497 -0.1875,-0.2695313 -0.246094,-0.5390625 -0.257813,-1.0078125 z m -3.433593,-0.609375 c 0.05859,-0.8671875 0.585937,-1.4296875 1.335937,-1.4296875 0.738281,0 1.300781,0.609375 1.300781,1.3710937 0,0.023437 0,0.035156 0,0.058594 z m 0,0"
       style="fill:#000000;fill-opacity:1;fill-rule:nonzero;stroke:none"
       aria-label="Interpretable"
       transform="matrix(1.3333333,0,0,1.3333333,559.784,68.149333)" />
    <path
       id="path7"
       d="M 40.56905,0 H 369.52264"
       style="fill:none;stroke:#bcaeac;stroke-width:1.99255;stroke-linecap:butt;stroke-linejoin:round;stroke-miterlimit:10;stroke-dasharray:none;stroke-opacity:1"
       transform="matrix(1.3333333,0,0,-1.3333333,46.62,57.842667)" />
    <path
       id="path8"
       d="M 4.30687,0 0.74721,1.96036 V 0 -1.96036 Z"
       style="fill:#bcaeac;fill-opacity:1;fill-rule:nonzero;stroke:#bcaeac;stroke-width:1.49442;stroke-linecap:butt;stroke-linejoin:miter;stroke-miterlimit:10;stroke-dasharray:none;stroke-opacity:1"
       transform="matrix(-1.3333333,0,0,1.3333333,101.21019,57.842667)" />
    <path
       id="path9"
       d="M 4.30687,0 0.74721,1.96036 V 0 -1.96036 Z"
       style="fill:#bcaeac;fill-opacity:1;fill-rule:nonzero;stroke:#bcaeac;stroke-width:1.49442;stroke-linecap:butt;stroke-linejoin:miter;stroke-miterlimit:10;stroke-dasharray:none;stroke-opacity:1"
       transform="matrix(1.3333333,0,0,-1.3333333,538.81873,57.842667)" />
    <path
       id="path10"
       d="M 68.98323,0 V -14.17339"
       style="fill:none;stroke:#bcaeac;stroke-width:1.99255;stroke-linecap:butt;stroke-linejoin:round;stroke-miterlimit:10;stroke-dasharray:none;stroke-opacity:1"
       transform="matrix(1.3333333,0,0,-1.3333333,46.62,57.842667)" />
    <path
       id="path11"
       d="M 123.40515,0 V -14.17339"
       style="fill:none;stroke:#bcaeac;stroke-width:1.99255;stroke-linecap:butt;stroke-linejoin:round;stroke-miterlimit:10;stroke-dasharray:none;stroke-opacity:1"
       transform="matrix(1.3333333,0,0,-1.3333333,46.62,57.842667)" />
    <path
       id="path12"
       d="M 177.83228,0 V -14.17339"
       style="fill:none;stroke:#bcaeac;stroke-width:1.99255;stroke-linecap:butt;stroke-linejoin:round;stroke-miterlimit:10;stroke-dasharray:none;stroke-opacity:1"
       transform="matrix(1.3333333,0,0,-1.3333333,46.62,57.842667)" />
    <path
       id="path13"
       d="M 232.25937,0 V -14.17339"
       style="fill:none;stroke:#bcaeac;stroke-width:1.99255;stroke-linecap:butt;stroke-linejoin:round;stroke-miterlimit:10;stroke-dasharray:none;stroke-opacity:1"
       transform="matrix(1.3333333,0,0,-1.3333333,46.62,57.842667)" />
    <path
       id="path14"
       d="M 286.68651,0 V -14.17339"
       style="fill:none;stroke:#bcaeac;stroke-width:1.99255;stroke-linecap:butt;stroke-linejoin:round;stroke-miterlimit:10;stroke-dasharray:none;stroke-opacity:1"
       transform="matrix(1.3333333,0,0,-1.3333333,46.62,57.842667)" />
    <path
       id="path15"
       d="M 337.7087,0 V -14.17339"
       style="fill:none;stroke:#bcaeac;stroke-width:1.99255;stroke-linecap:butt;stroke-linejoin:round;stroke-miterlimit:10;stroke-dasharray:none;stroke-opacity:1"
       transform="matrix(1.3333333,0,0,-1.3333333,46.62,57.842667)" />
    <path
       id="path16"
       d="M 0.79571094,-1.484375e-4 H 3.3152422 c 1.6523437,0 2.6601562,-1.2421874625 2.6601562,-3.2695312625 0,-2.0273437 -0.9960937,-3.2695312 -2.6601562,-3.2695312 H 0.79571094 Z M 1.6277422,-0.73842969 V -5.8009297 h 1.546875 c 1.2890625,0 1.96875,0.8671875 1.96875,2.5429688 0,1.640625 -0.6796875,2.51953121 -1.96875,2.51953121 z M 11.067195,-2.0978047 c 0,-0.7148437 -0.04687,-1.1484375 -0.1875,-1.5 -0.304687,-0.7734375 -1.0195309,-1.2304687 -1.8984372,-1.2304687 -1.3007812,0 -2.1445312,0.9960937 -2.1445312,2.5429687 0,1.54687501 0.8085937,2.49609376 2.1328125,2.49609376 1.0664059,0 1.8164059,-0.609375 2.0039059,-1.64062496 h -0.75 c -0.210937,0.62109371 -0.6328122,0.94921871 -1.2304684,0.94921871 -0.4804688,0 -0.8789063,-0.22265625 -1.125,-0.60937501 -0.1875,-0.2695312 -0.2460938,-0.5390625 -0.2578125,-1.0078125 z m -3.4335934,-0.609375 c 0.058594,-0.8671875 0.5859375,-1.4296875 1.3359375,-1.4296875 0.7382812,0 1.3007809,0.609375 1.3007809,1.3710938 0,0.023437 0,0.035156 0,0.058594 z m 8.0449214,-0.4101562 c -0.03516,-0.4570313 -0.128906,-0.75 -0.304687,-1.0195313 -0.328125,-0.4335937 -0.890625,-0.6914062 -1.546875,-0.6914062 -1.265625,0 -2.085938,0.9960937 -2.085938,2.5546875 0,1.52343746 0.808594,2.48437496 2.074219,2.48437496 1.125,0 1.828125,-0.6796875 1.921875,-1.82812496 h -0.75 c -0.128906,0.76171871 -0.515625,1.13671871 -1.148437,1.13671871 -0.832032,0 -1.324219,-0.67968751 -1.324219,-1.79296871 0,-1.171875 0.492187,-1.8632813 1.300781,-1.8632813 0.632813,0 1.019531,0.3632813 1.113281,1.0195313 z m 1.611329,-1.5820313 h -0.75 v 4.6992187625 h 0.75 z m 0,-1.8398437 h -0.761719 v 0.9492187 h 0.761719 z m 4.567382,3.1523437 c -0.01172,-0.9257812 -0.621093,-1.4414062 -1.699218,-1.4414062 -1.101563,0 -1.804688,0.5625 -1.804688,1.4296875 0,0.7382812 0.375,1.0898437 1.488281,1.359375 l 0.703125,0.1640625 c 0.515625,0.1289062 0.726563,0.3164062 0.726563,0.65625 0,0.43359371 -0.445313,0.73828121 -1.101563,0.73828121 -0.398437,0 -0.738281,-0.1171875 -0.925781,-0.31640625 -0.117187,-0.140625 -0.175781,-0.26953126 -0.222656,-0.59765626 h -0.785156 c 0.03516,1.07812501 0.644531,1.60546876 1.875,1.60546876 1.183593,0 1.933593,-0.5859375 1.933593,-1.48828126 0,-0.703125 -0.398437,-1.0898437 -1.324218,-1.3125 l -0.714844,-0.1757812 c -0.609375,-0.140625 -0.867188,-0.3398438 -0.867188,-0.6679688 0,-0.4335937 0.375,-0.703125 0.984375,-0.703125 0.609375,0 0.925782,0.2578125 0.949219,0.75 z m 1.907227,-1.3125 h -0.75 v 4.6992187625 h 0.75 z m 0,-1.8398437 h -0.761719 v 0.9492187 h 0.761719 z m 3.079101,1.7109375 c -1.3125,0 -2.109375,0.9375 -2.109375,2.5195312 0,1.57031251 0.785157,2.51953126 2.121094,2.51953126 1.3125,0 2.121094,-0.94921875 2.121094,-2.48437496 0,-1.6289063 -0.773438,-2.5546875 -2.132813,-2.5546875 z m 0.01172,0.6914062 c 0.84375,0 1.347656,0.6796875 1.347656,1.8515625 0,1.1015625 -0.527343,1.80468751 -1.347656,1.80468751 -0.832031,0 -1.347656,-0.69140621 -1.347656,-1.82812501 0,-1.1367187 0.515625,-1.828125 1.347656,-1.828125 z m 3.169922,-0.5625 v 4.6992187625 h 0.75 V -2.5899922 c 0,-0.9609375 0.503906,-1.5820312 1.265625,-1.5820312 0.597656,0 0.972656,0.3515625 0.972656,0.9140625 v 3.2578124625 h 0.75 V -3.5509297 c 0,-0.7734375 -0.585937,-1.2773437 -1.488281,-1.2773437 -0.703125,0 -1.148437,0.2695312 -1.570312,0.9140625 v -0.7851563 z m 0,0"
       style="fill:#000000;fill-opacity:1;fill-rule:nonzero;stroke:none"
       aria-label="Decision"
       transform="matrix(1.3333333,0,0,1.3333333,115.67733,93.730667)" />
    <path
       id="path17"
       d="M 3.1761484,-5.7999688 H 5.3206797 V -6.53825 H 0.18786719 v 0.7382812 H 2.3441172 V 8.125e-4 h 0.8320312 z m 1.8486329,1.1015625 V 8.125e-4 h 0.75 v -2.4375 c 0,-0.6679688 0.1757812,-1.1132813 0.5273437,-1.3710938 C 6.5365,-3.9835625 6.7591563,-4.0304375 7.2865,-4.0421563 V -4.803875 C 7.1575938,-4.827312 7.0872813,-4.827312 6.9935313,-4.827312 c -0.4804688,0 -0.8554688,0.28125 -1.2773438,0.984375 v -0.8554688 z m 6.9580077,2.6015625 c 0,-0.7148437 -0.04687,-1.1484375 -0.1875,-1.5 -0.304687,-0.7734375 -1.019531,-1.2304687 -1.8984374,-1.2304687 -1.3007813,0 -2.1445313,0.9960937 -2.1445313,2.5429687 0,1.54687505 0.8085938,2.4960938 2.1328125,2.4960938 1.0664062,0 1.8164062,-0.609375 2.0039062,-1.640625 h -0.75 c -0.210937,0.62109375 -0.632812,0.94921875 -1.2304687,0.94921875 -0.4804687,0 -0.8789062,-0.22265625 -1.125,-0.60937505 -0.1875,-0.2695312 -0.2460937,-0.5390625 -0.2578125,-1.0078125 z m -3.4335937,-0.609375 c 0.058594,-0.8671875 0.5859375,-1.4296875 1.3359375,-1.4296875 0.7382812,0 1.3007812,0.609375 1.3007812,1.3710938 0,0.023437 0,0.035156 0,0.058594 z m 8.4169927,0.609375 c 0,-0.7148437 -0.04687,-1.1484375 -0.1875,-1.5 -0.304688,-0.7734375 -1.019532,-1.2304687 -1.898438,-1.2304687 -1.300781,0 -2.144531,0.9960937 -2.144531,2.5429687 0,1.54687505 0.808594,2.4960938 2.132812,2.4960938 1.066407,0 1.816407,-0.609375 2.003907,-1.640625 h -0.75 c -0.210938,0.62109375 -0.632813,0.94921875 -1.230469,0.94921875 -0.480469,0 -0.878906,-0.22265625 -1.125,-0.60937505 -0.1875,-0.2695312 -0.246094,-0.5390625 -0.257813,-1.0078125 z m -3.433594,-0.609375 c 0.05859,-0.8671875 0.585937,-1.4296875 1.335937,-1.4296875 0.738282,0 1.300782,0.609375 1.300782,1.3710938 0,0.023437 0,0.035156 0,0.058594 z m 7.751953,-0.6796875 c -0.01172,-0.9257812 -0.621094,-1.4414062 -1.699219,-1.4414062 -1.101562,0 -1.804687,0.5625 -1.804687,1.4296875 0,0.7382812 0.375,1.0898437 1.488281,1.359375 l 0.703125,0.1640625 c 0.515625,0.1289062 0.726562,0.3164062 0.726562,0.65625 0,0.43359375 -0.445312,0.73828125 -1.101562,0.73828125 -0.398438,0 -0.738281,-0.1171875 -0.925781,-0.31640625 -0.117188,-0.140625 -0.175782,-0.2695313 -0.222657,-0.5976563 h -0.785156 c 0.03516,1.07812505 0.644531,1.6054688 1.875,1.6054688 1.183594,0 1.933594,-0.5859375 1.933594,-1.4882813 0,-0.703125 -0.398438,-1.0898437 -1.324219,-1.3125 l -0.714844,-0.1757812 c -0.609375,-0.140625 -0.867187,-0.3398438 -0.867187,-0.6679688 0,-0.4335937 0.375,-0.703125 0.984375,-0.703125 0.609375,0 0.925781,0.2578125 0.949219,0.75 z m 0,0"
       style="fill:#000000;fill-opacity:1;fill-rule:nonzero;stroke:none"
       aria-label="Trees"
       transform="matrix(1.3333333,0,0,1.3333333,124.03467,108.34267)" />
    <path
       id="path18"
       d="M 1.5480313,-6.5392109 H 0.716 V -1.484375e-4 H 4.7824063 V -0.73842969 h -3.234375 z m 4.7841796,1.8398437 h -0.75 v 4.6992187625 h 0.75 z m 0,-1.8398437 H 5.5704922 v 0.9492187 h 0.7617187 z m 1.2773438,1.8398437 v 4.6992187625 h 0.75 V -2.5899922 c 0,-0.9609375 0.5039062,-1.5820312 1.265625,-1.5820312 0.5976563,0 0.9726563,0.3515625 0.9726563,0.9140625 v 3.2578124625 h 0.75 V -3.5509297 c 0,-0.7734375 -0.585938,-1.2773437 -1.4882813,-1.2773437 -0.703125,0 -1.1484375,0.2695312 -1.5703125,0.9140625 v -0.7851563 z m 8.9443363,2.6015625 c 0,-0.7148437 -0.04687,-1.1484375 -0.1875,-1.5 -0.304688,-0.7734375 -1.019532,-1.2304687 -1.898438,-1.2304687 -1.300781,0 -2.144531,0.9960937 -2.144531,2.5429687 0,1.54687501 0.808594,2.49609376 2.132812,2.49609376 1.066407,0 1.816407,-0.609375 2.003907,-1.64062496 h -0.75 c -0.210938,0.62109371 -0.632813,0.94921871 -1.230469,0.94921871 -0.480469,0 -0.878906,-0.22265625 -1.125,-0.60937501 -0.1875,-0.2695312 -0.246094,-0.5390625 -0.257813,-1.0078125 z m -3.433594,-0.609375 c 0.05859,-0.8671875 0.585937,-1.4296875 1.335937,-1.4296875 0.738282,0 1.300782,0.609375 1.300782,1.3710938 0,0.023437 0,0.035156 0,0.058594 z m 8.619141,2.27343751 c -0.08203,0.0117188 -0.117188,0.0117188 -0.152344,0.0117188 -0.269531,0 -0.410156,-0.12890625 -0.410156,-0.36328125 V -3.5509297 c 0,-0.8320312 -0.609375,-1.2773437 -1.769532,-1.2773437 -0.679687,0 -1.242187,0.1875 -1.558593,0.5390625 -0.210938,0.2460937 -0.304688,0.515625 -0.316407,0.984375 h 0.75 c 0.05859,-0.5742188 0.398438,-0.8320313 1.101563,-0.8320313 0.667969,0 1.054687,0.2460938 1.054687,0.6914063 v 0.1992187 c 0,0.3164063 -0.1875,0.4453125 -0.785156,0.515625 -1.054687,0.140625 -1.21875,0.1757813 -1.5,0.2929688 -0.550781,0.2226562 -0.832031,0.6445312 -0.832031,1.2539062 0,0.85546876 0.597656,1.39453126 1.546875,1.39453126 0.585937,0 1.066406,-0.2109374975 1.59375,-0.69140625 0.04687,0.46875 0.28125,0.69140625 0.773437,0.69140625 0.152344,0 0.269532,-0.0234375 0.503907,-0.0820313 z M 20.438656,-1.4767109 c 0,0.2460937 -0.08203,0.3984375 -0.304687,0.60937496 -0.304688,0.28125 -0.667969,0.421875 -1.113281,0.421875 -0.574219,0 -0.914063,-0.28125 -0.914063,-0.76171876 0,-0.4921875 0.328125,-0.7382812 1.125,-0.8554687 0.785156,-0.1054688 0.949219,-0.140625 1.207031,-0.2578125 z m 2.115235,-3.2226563 v 4.6992187625 h 0.75 V -2.4376484 c 0,-0.6679688 0.175781,-1.1132813 0.527343,-1.3710938 0.234375,-0.1757812 0.457032,-0.2226562 0.984375,-0.234375 v -0.7617187 c -0.128906,-0.023437 -0.199218,-0.023437 -0.292968,-0.023437 -0.480469,0 -0.855469,0.28125 -1.277344,0.984375 v -0.8554688 z m 0,0"
       style="fill:#000000;fill-opacity:1;fill-rule:nonzero;stroke:none"
       aria-label="Linear"
       transform="matrix(1.3333333,0,0,1.3333333,194.54533,93.730667)" />
    <path
       id="path19"
       d="m 1.6632734,-2.8116875 h 2.15625 c 0.7382813,0 1.078125,0.3515625 1.078125,1.1601562 l -0.011719,0.5859375 c 0,0.39843755 0.070312,0.79687505 0.1875,1.0664063 H 6.0812422 V -0.210125 c -0.3046875,-0.2109375 -0.375,-0.4453125 -0.3867188,-1.3125 -0.011719,-1.078125 -0.1875,-1.3945313 -0.890625,-1.6992188 0.7382813,-0.3632812 1.03125,-0.8203125 1.03125,-1.5703125 0,-1.125 -0.703125,-1.7460937 -1.9921875,-1.7460937 H 0.83124219 V 8.125e-4 H 1.6632734 Z m 0,-0.7382813 v -2.25 h 2.015625 c 0.46875,0 0.7382813,0.070312 0.9492188,0.2460938 0.2226562,0.1992187 0.3398437,0.4921875 0.3398437,0.8789062 0,0.7734375 -0.3984375,1.125 -1.2890625,1.125 z m 9.4042966,1.453125 c 0,-0.7148437 -0.04687,-1.1484375 -0.1875,-1.5 -0.304687,-0.7734375 -1.0195309,-1.2304687 -1.8984372,-1.2304687 -1.3007812,0 -2.1445312,0.9960937 -2.1445312,2.5429687 0,1.54687505 0.8085937,2.4960938 2.1328125,2.4960938 1.0664059,0 1.8164059,-0.609375 2.0039059,-1.640625 h -0.75 c -0.210937,0.62109375 -0.6328122,0.94921875 -1.2304684,0.94921875 -0.4804688,0 -0.8789063,-0.22265625 -1.125,-0.60937505 -0.1875,-0.2695312 -0.2460938,-0.5390625 -0.2578125,-1.0078125 z m -3.4335934,-0.609375 c 0.058594,-0.8671875 0.5859375,-1.4296875 1.3359375,-1.4296875 0.7382812,0 1.3007809,0.609375 1.3007809,1.3710938 0,0.023437 0,0.035156 0,0.058594 z m 7.5175784,-1.9921875 v 0.6796875 c -0.375,-0.5507812 -0.832032,-0.8085937 -1.429688,-0.8085937 -1.195312,0 -2.003906,1.03125 -2.003906,2.5546875 0,0.7734375 0.210937,1.40625 0.597656,1.8515625 0.351563,0.3984375 0.84375,0.6328125 1.335938,0.6328125 0.597656,0 1.007812,-0.2578125 1.429687,-0.84375 v 0.234375 c 0,0.64453125 -0.08203,1.03125 -0.269531,1.2890625 -0.199219,0.2695312 -0.585938,0.4335937 -1.042969,0.4335937 -0.339844,0 -0.644531,-0.082031 -0.84375,-0.2460937 C 12.749211,0.9383125 12.678898,0.821125 12.632023,0.539875 h -0.761718 c 0.08203,0.890625 0.773437,1.4179687 1.875,1.4179687 0.703125,0 1.300781,-0.2226562 1.605468,-0.5976562 0.363282,-0.43359375 0.492188,-1.03125 0.492188,-2.1328125 v -3.9257813 z m -1.347657,0.5625 c 0.808594,0 1.277344,0.6796875 1.277344,1.8515625 0,1.125 -0.480469,1.80468755 -1.277344,1.80468755 -0.808593,0 -1.300781,-0.69140625 -1.300781,-1.82812505 0,-1.1367187 0.503906,-1.828125 1.300781,-1.828125 z m 3.172852,-0.5625 V 8.125e-4 h 0.75 v -2.4375 c 0,-0.6679688 0.175781,-1.1132813 0.527344,-1.3710938 0.234375,-0.1757812 0.457031,-0.2226562 0.984375,-0.234375 V -4.803875 C 19.109563,-4.827312 19.03925,-4.827312 18.9455,-4.827312 c -0.480469,0 -0.855469,0.28125 -1.277344,0.984375 v -0.8554688 z m 6.958008,2.6015625 c 0,-0.7148437 -0.04687,-1.1484375 -0.1875,-1.5 -0.304688,-0.7734375 -1.019531,-1.2304687 -1.898438,-1.2304687 -1.300781,0 -2.144531,0.9960937 -2.144531,2.5429687 0,1.54687505 0.808594,2.4960938 2.132813,2.4960938 1.066406,0 1.816406,-0.609375 2.003906,-1.640625 h -0.75 c -0.210938,0.62109375 -0.632813,0.94921875 -1.230469,0.94921875 -0.480469,0 -0.878906,-0.22265625 -1.125,-0.60937505 -0.1875,-0.2695312 -0.246094,-0.5390625 -0.257812,-1.0078125 z m -3.433594,-0.609375 c 0.05859,-0.8671875 0.585938,-1.4296875 1.335938,-1.4296875 0.738281,0 1.300781,0.609375 1.300781,1.3710938 0,0.023437 0,0.035156 0,0.058594 z m 7.749024,-0.6796875 c -0.01172,-0.9257812 -0.621094,-1.4414062 -1.699219,-1.4414062 -1.101563,0 -1.804688,0.5625 -1.804688,1.4296875 0,0.7382812 0.375,1.0898437 1.488282,1.359375 l 0.703125,0.1640625 c 0.515625,0.1289062 0.726562,0.3164062 0.726562,0.65625 0,0.43359375 -0.445312,0.73828125 -1.101562,0.73828125 -0.398438,0 -0.738282,-0.1171875 -0.925782,-0.31640625 -0.117187,-0.140625 -0.175781,-0.2695313 -0.222656,-0.5976563 h -0.785156 c 0.03516,1.07812505 0.644531,1.6054688 1.875,1.6054688 1.183594,0 1.933594,-0.5859375 1.933594,-1.4882813 0,-0.703125 -0.398438,-1.0898437 -1.324219,-1.3125 l -0.714844,-0.1757812 c -0.609375,-0.140625 -0.867187,-0.3398438 -0.867187,-0.6679688 0,-0.4335937 0.375,-0.703125 0.984375,-0.703125 0.609375,0 0.925781,0.2578125 0.949218,0.75 z m 4.485351,0 c -0.01172,-0.9257812 -0.621094,-1.4414062 -1.699219,-1.4414062 -1.101562,0 -1.804687,0.5625 -1.804687,1.4296875 0,0.7382812 0.375,1.0898437 1.488281,1.359375 l 0.703125,0.1640625 c 0.515625,0.1289062 0.726563,0.3164062 0.726563,0.65625 0,0.43359375 -0.445313,0.73828125 -1.101563,0.73828125 -0.398437,0 -0.738281,-0.1171875 -0.925781,-0.31640625 -0.117188,-0.140625 -0.175781,-0.2695313 -0.222656,-0.5976563 h -0.785157 c 0.03516,1.07812505 0.644532,1.6054688 1.875,1.6054688 1.183594,0 1.933594,-0.5859375 1.933594,-1.4882813 0,-0.703125 -0.398437,-1.0898437 -1.324219,-1.3125 l -0.714843,-0.1757812 c -0.609375,-0.140625 -0.867188,-0.3398438 -0.867188,-0.6679688 0,-0.4335937 0.375,-0.703125 0.984375,-0.703125 0.609375,0 0.925781,0.2578125 0.949219,0.75 z m 1.904297,-1.3125 h -0.75 V 8.125e-4 h 0.75 z m 0,-1.8398437 h -0.761719 v 0.9492187 h 0.761719 z m 3.079102,1.7109375 c -1.3125,0 -2.109375,0.9375 -2.109375,2.5195312 0,1.57031255 0.785156,2.5195313 2.121093,2.5195313 1.3125,0 2.121094,-0.94921875 2.121094,-2.484375 0,-1.6289063 -0.773437,-2.5546875 -2.132812,-2.5546875 z m 0.01172,0.6914062 c 0.84375,0 1.347657,0.6796875 1.347657,1.8515625 0,1.1015625 -0.527344,1.80468755 -1.347657,1.80468755 -0.832031,0 -1.347656,-0.69140625 -1.347656,-1.82812505 0,-1.1367187 0.515625,-1.828125 1.347656,-1.828125 z m 3.169922,-0.5625 V 8.125e-4 h 0.75 v -2.5898438 c 0,-0.9609375 0.503906,-1.5820312 1.265625,-1.5820312 0.597656,0 0.972656,0.3515625 0.972656,0.9140625 V 8.125e-4 h 0.75 v -3.5507813 c 0,-0.7734375 -0.585937,-1.2773437 -1.488281,-1.2773437 -0.703125,0 -1.148437,0.2695312 -1.570312,0.9140625 v -0.7851563 z m 0,0"
       style="fill:#000000;fill-opacity:1;fill-rule:nonzero;stroke:none"
       aria-label="Regression"
       transform="matrix(1.3333333,0,0,1.3333333,180.98933,108.34267)" />
    <path
       id="path20"
       d="M 1.5455781,-6.5392109 H 0.71354687 V -1.484375e-4 H 4.7799531 V -0.73842969 h -3.234375 z m 5.8769531,1.7109375 c -1.3125,0 -2.109375,0.9375 -2.109375,2.5195312 0,1.57031251 0.7851563,2.51953126 2.1210938,2.51953126 1.3125,0 2.1210937,-0.94921875 2.1210937,-2.48437496 0,-1.6289063 -0.7734375,-2.5546875 -2.1328125,-2.5546875 z m 0.011719,0.6914062 c 0.84375,0 1.3476562,0.6796875 1.3476562,1.8515625 0,1.1015625 -0.5273437,1.80468751 -1.3476562,1.80468751 -0.8320313,0 -1.3476563,-0.69140621 -1.3476563,-1.82812501 0,-1.1367187 0.515625,-1.828125 1.3476563,-1.828125 z m 6.2285158,-0.5625 v 0.6796875 c -0.375,-0.5507812 -0.832032,-0.8085937 -1.429688,-0.8085937 -1.195312,0 -2.003906,1.03125 -2.003906,2.5546875 0,0.7734375 0.210937,1.40624996 0.597656,1.85156246 0.351563,0.3984375 0.84375,0.6328125 1.335938,0.6328125 0.597656,0 1.007812,-0.2578125 1.429687,-0.84375 v 0.234375 c 0,0.64453125 -0.08203,1.03125 -0.269531,1.2890625 -0.199219,0.26953124 -0.585938,0.43359374 -1.042969,0.43359374 -0.339844,0 -0.644531,-0.082031 -0.84375,-0.2460937 C 11.260422,0.93735156 11.190109,0.82016406 11.143234,0.53891406 h -0.761718 c 0.08203,0.89062504 0.773437,1.41796874 1.875,1.41796874 0.703125,0 1.300781,-0.2226562 1.605468,-0.5976562 0.363282,-0.43359379 0.492188,-1.03125004 0.492188,-2.13281254 V -4.6993672 Z m -1.347657,0.5625 c 0.808594,0 1.277344,0.6796875 1.277344,1.8515625 0,1.125 -0.480469,1.80468751 -1.277344,1.80468751 -0.808593,0 -1.300781,-0.69140621 -1.300781,-1.82812501 0,-1.1367187 0.503906,-1.828125 1.300781,-1.828125 z m 3.987305,-0.5625 h -0.75 v 4.6992187625 h 0.75 z m 0,-1.8398437 h -0.761719 v 0.9492187 h 0.761719 z m 4.570313,3.1523437 c -0.01172,-0.9257812 -0.621094,-1.4414062 -1.699219,-1.4414062 -1.101563,0 -1.804688,0.5625 -1.804688,1.4296875 0,0.7382812 0.375,1.0898437 1.488282,1.359375 l 0.703125,0.1640625 c 0.515625,0.1289062 0.726562,0.3164062 0.726562,0.65625 0,0.43359371 -0.445312,0.73828121 -1.101562,0.73828121 -0.398438,0 -0.738282,-0.1171875 -0.925782,-0.31640625 -0.117187,-0.140625 -0.175781,-0.26953126 -0.222656,-0.59765626 h -0.785156 c 0.03516,1.07812501 0.644531,1.60546876 1.875,1.60546876 1.183594,0 1.933594,-0.5859375 1.933594,-1.48828126 0,-0.703125 -0.398438,-1.0898437 -1.324219,-1.3125 l -0.714844,-0.1757812 c -0.609375,-0.140625 -0.867187,-0.3398438 -0.867187,-0.6679688 0,-0.4335937 0.375,-0.703125 0.984375,-0.703125 0.609375,0 0.925781,0.2578125 0.949218,0.75 z m 2.830078,-1.3125 h -0.761719 v -1.2890625 h -0.75 v 1.2890625 h -0.632813 v 0.609375 h 0.632813 v 3.55078126 c 0,0.48046875 0.328125,0.75 0.902344,0.75 0.1875,0 0.363281,-0.0234375 0.609375,-0.0703125 v -0.62109375 c -0.09375,0.0234375 -0.210938,0.0351563 -0.351563,0.0351563 -0.328125,0 -0.410156,-0.09375 -0.410156,-0.421875 V -4.0899922 h 0.761719 z m 1.567382,0 h -0.75 v 4.6992187625 h 0.75 z m 0,-1.8398437 h -0.761718 v 0.9492187 h 0.761718 z m 4.860352,3.421875 c -0.03516,-0.4570313 -0.128906,-0.75 -0.304687,-1.0195313 -0.328125,-0.4335937 -0.890625,-0.6914062 -1.546875,-0.6914062 -1.265625,0 -2.085938,0.9960937 -2.085938,2.5546875 0,1.52343746 0.808594,2.48437496 2.074219,2.48437496 1.125,0 1.828125,-0.6796875 1.921875,-1.82812496 h -0.75 c -0.128906,0.76171871 -0.515625,1.13671871 -1.148438,1.13671871 -0.832031,0 -1.324218,-0.67968751 -1.324218,-1.79296871 0,-1.171875 0.492187,-1.8632813 1.300781,-1.8632813 0.632812,0 1.019531,0.3632813 1.113281,1.0195313 z m 0,0"
       style="fill:#000000;fill-opacity:1;fill-rule:nonzero;stroke:none"
       aria-label="Logistic"
       transform="matrix(1.3333333,0,0,1.3333333,263.46267,93.730667)" />
    <path
       id="path21"
       d="m 1.6650078,-2.8116875 h 2.15625 c 0.7382813,0 1.078125,0.3515625 1.078125,1.1601562 l -0.011719,0.5859375 c 0,0.39843755 0.070312,0.79687505 0.1875,1.0664063 H 6.0829766 V -0.210125 c -0.3046875,-0.2109375 -0.375,-0.4453125 -0.3867188,-1.3125 -0.011719,-1.078125 -0.1875,-1.3945313 -0.890625,-1.6992188 0.7382813,-0.3632812 1.03125,-0.8203125 1.03125,-1.5703125 0,-1.125 -0.703125,-1.7460937 -1.9921875,-1.7460937 H 0.83297656 V 8.125e-4 H 1.6650078 Z m 0,-0.7382813 v -2.25 h 2.015625 c 0.46875,0 0.7382813,0.070312 0.9492188,0.2460938 0.2226562,0.1992187 0.3398437,0.4921875 0.3398437,0.8789062 0,0.7734375 -0.3984375,1.125 -1.2890625,1.125 z m 9.4013672,1.453125 c 0,-0.7148437 -0.04687,-1.1484375 -0.1875,-1.5 -0.304687,-0.7734375 -1.0195312,-1.2304687 -1.8984375,-1.2304687 -1.3007812,0 -2.1445312,0.9960937 -2.1445312,2.5429687 0,1.54687505 0.8085937,2.4960938 2.1328125,2.4960938 1.0664062,0 1.8164062,-0.609375 2.0039062,-1.640625 h -0.75 c -0.210937,0.62109375 -0.6328125,0.94921875 -1.2304687,0.94921875 -0.4804688,0 -0.8789063,-0.22265625 -1.125,-0.60937505 -0.1875,-0.2695312 -0.2460938,-0.5390625 -0.2578125,-1.0078125 z m -3.4335937,-0.609375 c 0.058594,-0.8671875 0.5859375,-1.4296875 1.3359375,-1.4296875 0.7382812,0 1.3007812,0.609375 1.3007812,1.3710938 0,0.023437 0,0.035156 0,0.058594 z m 7.5175777,-1.9921875 v 0.6796875 c -0.375,-0.5507812 -0.832031,-0.8085937 -1.429687,-0.8085937 -1.195313,0 -2.003906,1.03125 -2.003906,2.5546875 0,0.7734375 0.210937,1.40625 0.597656,1.8515625 0.351562,0.3984375 0.84375,0.6328125 1.335937,0.6328125 0.597657,0 1.007813,-0.2578125 1.429688,-0.84375 v 0.234375 c 0,0.64453125 -0.08203,1.03125 -0.269531,1.2890625 -0.199219,0.2695312 -0.585938,0.4335937 -1.042969,0.4335937 -0.339844,0 -0.644531,-0.082031 -0.84375,-0.2460937 C 12.748016,0.9383125 12.677703,0.821125 12.630828,0.539875 h -0.761719 c 0.08203,0.890625 0.773438,1.4179687 1.875,1.4179687 0.703125,0 1.300782,-0.2226562 1.605469,-0.5976562 0.363281,-0.43359375 0.492188,-1.03125 0.492188,-2.1328125 v -3.9257813 z m -1.347656,0.5625 c 0.808594,0 1.277344,0.6796875 1.277344,1.8515625 0,1.125 -0.480469,1.80468755 -1.277344,1.80468755 -0.808594,0 -1.300781,-0.69140625 -1.300781,-1.82812505 0,-1.1367187 0.503906,-1.828125 1.300781,-1.828125 z m 3.172852,-0.5625 V 8.125e-4 h 0.75 v -2.4375 c 0,-0.6679688 0.175781,-1.1132813 0.527343,-1.3710938 0.234375,-0.1757812 0.457032,-0.2226562 0.984375,-0.234375 V -4.803875 c -0.128906,-0.023437 -0.199218,-0.023437 -0.292968,-0.023437 -0.480469,0 -0.855469,0.28125 -1.277344,0.984375 v -0.8554688 z m 6.958008,2.6015625 c 0,-0.7148437 -0.04687,-1.1484375 -0.1875,-1.5 -0.304688,-0.7734375 -1.019532,-1.2304687 -1.898438,-1.2304687 -1.300781,0 -2.144531,0.9960937 -2.144531,2.5429687 0,1.54687505 0.808594,2.4960938 2.132812,2.4960938 1.066407,0 1.816407,-0.609375 2.003907,-1.640625 h -0.75 c -0.210938,0.62109375 -0.632813,0.94921875 -1.230469,0.94921875 -0.480469,0 -0.878906,-0.22265625 -1.125,-0.60937505 -0.1875,-0.2695312 -0.246094,-0.5390625 -0.257813,-1.0078125 z m -3.433594,-0.609375 c 0.05859,-0.8671875 0.585937,-1.4296875 1.335937,-1.4296875 0.738282,0 1.300782,0.609375 1.300782,1.3710938 0,0.023437 0,0.035156 0,0.058594 z m 7.751953,-0.6796875 c -0.01172,-0.9257812 -0.621094,-1.4414062 -1.699219,-1.4414062 -1.101562,0 -1.804687,0.5625 -1.804687,1.4296875 0,0.7382812 0.375,1.0898437 1.488281,1.359375 l 0.703125,0.1640625 c 0.515625,0.1289062 0.726562,0.3164062 0.726562,0.65625 0,0.43359375 -0.445312,0.73828125 -1.101562,0.73828125 -0.398438,0 -0.738281,-0.1171875 -0.925781,-0.31640625 -0.117188,-0.140625 -0.175782,-0.2695313 -0.222657,-0.5976563 h -0.785156 c 0.03516,1.07812505 0.644531,1.6054688 1.875,1.6054688 1.183594,0 1.933594,-0.5859375 1.933594,-1.4882813 0,-0.703125 -0.398438,-1.0898437 -1.324219,-1.3125 l -0.714844,-0.1757812 c -0.609375,-0.140625 -0.867187,-0.3398438 -0.867187,-0.6679688 0,-0.4335937 0.375,-0.703125 0.984375,-0.703125 0.609375,0 0.925781,0.2578125 0.949219,0.75 z m 4.482422,0 c -0.01172,-0.9257812 -0.621094,-1.4414062 -1.699219,-1.4414062 -1.101562,0 -1.804687,0.5625 -1.804687,1.4296875 0,0.7382812 0.375,1.0898437 1.488281,1.359375 l 0.703125,0.1640625 c 0.515625,0.1289062 0.726562,0.3164062 0.726562,0.65625 0,0.43359375 -0.445312,0.73828125 -1.101562,0.73828125 -0.398438,0 -0.738281,-0.1171875 -0.925781,-0.31640625 -0.117188,-0.140625 -0.175782,-0.2695313 -0.222657,-0.5976563 H 29.11325 c 0.03516,1.07812505 0.644531,1.6054688 1.875,1.6054688 1.183594,0 1.933594,-0.5859375 1.933594,-1.4882813 0,-0.703125 -0.398438,-1.0898437 -1.324219,-1.3125 l -0.714844,-0.1757812 c -0.609375,-0.140625 -0.867187,-0.3398438 -0.867187,-0.6679688 0,-0.4335937 0.375,-0.703125 0.984375,-0.703125 0.609375,0 0.925781,0.2578125 0.949219,0.75 z m 1.904297,-1.3125 h -0.75 V 8.125e-4 h 0.75 z m 0,-1.8398437 h -0.761719 v 0.9492187 h 0.761719 z m 3.082031,1.7109375 c -1.3125,0 -2.109375,0.9375 -2.109375,2.5195312 0,1.57031255 0.785156,2.5195313 2.121094,2.5195313 1.3125,0 2.121093,-0.94921875 2.121093,-2.484375 0,-1.6289063 -0.773437,-2.5546875 -2.132812,-2.5546875 z m 0.01172,0.6914062 c 0.84375,0 1.347656,0.6796875 1.347656,1.8515625 0,1.1015625 -0.527344,1.80468755 -1.347656,1.80468755 -0.832032,0 -1.347657,-0.69140625 -1.347657,-1.82812505 0,-1.1367187 0.515625,-1.828125 1.347657,-1.828125 z m 3.166992,-0.5625 V 8.125e-4 h 0.75 v -2.5898438 c 0,-0.9609375 0.503906,-1.5820312 1.265625,-1.5820312 0.597656,0 0.972656,0.3515625 0.972656,0.9140625 V 8.125e-4 h 0.75 v -3.5507813 c 0,-0.7734375 -0.585937,-1.2773437 -1.488281,-1.2773437 -0.703125,0 -1.148438,0.2695312 -1.570313,0.9140625 v -0.7851563 z m 0,0"
       style="fill:#000000;fill-opacity:1;fill-rule:nonzero;stroke:none"
       aria-label="Regression"
       transform="matrix(1.3333333,0,0,1.3333333,253.55733,108.34267)" />
    <path
       id="path22"
       d="m 1.6653359,-2.8126484 h 2.15625 c 0.7382813,0 1.078125,0.3515625 1.078125,1.1601562 l -0.011719,0.5859375 c 0,0.39843751 0.070312,0.79687501 0.1875,1.0664062625 H 6.0833047 V -0.21108594 c -0.3046875,-0.2109375 -0.375,-0.4453125 -0.3867188,-1.31249996 -0.011719,-1.078125 -0.1875,-1.3945313 -0.890625,-1.6992188 0.7382813,-0.3632812 1.03125,-0.8203125 1.03125,-1.5703125 0,-1.125 -0.703125,-1.7460937 -1.9921875,-1.7460937 H 0.83330469 V -1.484375e-4 H 1.6653359 Z m 0,-0.7382813 v -2.25 h 2.015625 c 0.46875,0 0.7382813,0.070312 0.9492188,0.2460938 0.2226562,0.1992187 0.3398437,0.4921875 0.3398437,0.8789062 0,0.7734375 -0.3984375,1.125 -1.2890625,1.125 z m 9.6005861,3.11718751 c -0.08203,0.0117188 -0.117188,0.0117188 -0.152344,0.0117188 -0.269531,0 -0.410156,-0.12890625 -0.410156,-0.36328125 V -3.5509297 c 0,-0.8320312 -0.609375,-1.2773437 -1.7695314,-1.2773437 -0.6796875,0 -1.2421875,0.1875 -1.5585937,0.5390625 -0.2109375,0.2460937 -0.3046875,0.515625 -0.3164063,0.984375 h 0.75 c 0.058594,-0.5742188 0.3984375,-0.8320313 1.1015625,-0.8320313 0.6679688,0 1.0546875,0.2460938 1.0546875,0.6914063 v 0.1992187 c 0,0.3164063 -0.1875,0.4453125 -0.7851562,0.515625 -1.0546875,0.140625 -1.21875,0.1757813 -1.5,0.2929688 -0.5507813,0.2226562 -0.8320313,0.6445312 -0.8320313,1.2539062 0,0.85546876 0.5976563,1.39453126 1.546875,1.39453126 0.5859375,0 1.0664063,-0.2109374975 1.59375,-0.69140625 0.046875,0.46875 0.2812499,0.69140625 0.7734379,0.69140625 0.152343,0 0.269531,-0.0234375 0.503906,-0.0820313 z M 9.9651406,-1.4767109 c 0,0.2460937 -0.082031,0.3984375 -0.3046875,0.60937496 -0.3046875,0.28125 -0.6679687,0.421875 -1.1132812,0.421875 -0.5742188,0 -0.9140625,-0.28125 -0.9140625,-0.76171876 0,-0.4921875 0.328125,-0.7382812 1.125,-0.8554687 0.7851562,-0.1054688 0.9492187,-0.140625 1.2070312,-0.2578125 z m 2.1269534,-3.2226563 v 4.6992187625 h 0.75 V -2.5899922 c 0,-0.9609375 0.503906,-1.5820312 1.265625,-1.5820312 0.597656,0 0.972656,0.3515625 0.972656,0.9140625 v 3.2578124625 h 0.75 V -3.5509297 c 0,-0.7734375 -0.585937,-1.2773437 -1.488281,-1.2773437 -0.703125,0 -1.148438,0.2695312 -1.570313,0.9140625 v -0.7851563 z m 8.794922,-1.8398437 h -0.75 v 2.4375 c -0.316407,-0.4804688 -0.808594,-0.7265625 -1.441407,-0.7265625 -1.21875,0 -2.015625,0.9726562 -2.015625,2.4726562 0,1.58203126 0.773438,2.56640626 2.039063,2.56640626 0.644531,0 1.101562,-0.24609375 1.5,-0.83203125 v 0.6210937525 h 0.667969 z m -2.0625,2.4023437 c 0.808593,0 1.3125,0.7265625 1.3125,1.8398438 0,1.0898437 -0.515625,1.80468746 -1.3125,1.80468746 -0.820313,0 -1.371094,-0.72656246 -1.371094,-1.81640626 0,-1.1015625 0.550781,-1.828125 1.371094,-1.828125 z m 5.041992,-0.6914062 c -1.3125,0 -2.109375,0.9375 -2.109375,2.5195312 0,1.57031251 0.785156,2.51953126 2.121094,2.51953126 1.3125,0 2.121093,-0.94921875 2.121093,-2.48437496 0,-1.6289063 -0.773437,-2.5546875 -2.132812,-2.5546875 z m 0.01172,0.6914062 c 0.84375,0 1.347656,0.6796875 1.347656,1.8515625 0,1.1015625 -0.527344,1.80468751 -1.347656,1.80468751 -0.832032,0 -1.347657,-0.69140621 -1.347657,-1.82812501 0,-1.1367187 0.515625,-1.828125 1.347657,-1.828125 z m 3.169921,-0.5625 v 4.6992187625 h 0.75 V -2.9532734 c 0,-0.6796875 0.492188,-1.21875 1.101563,-1.21875 0.550781,0 0.867187,0.3398437 0.867187,0.9375 v 3.2343749625 h 0.75 V -2.9532734 c 0,-0.6796875 0.492188,-1.21875 1.101563,-1.21875 0.550781,0 0.878906,0.3398437 0.878906,0.9375 v 3.2343749625 h 0.75 V -3.5274922 c 0,-0.84375 -0.480469,-1.3007812 -1.359375,-1.3007812 -0.632812,0 -1.007812,0.1875 -1.453125,0.7148437 -0.269531,-0.5039062 -0.644531,-0.7148437 -1.253906,-0.7148437 -0.632813,0 -1.042969,0.234375 -1.453125,0.796875 v -0.6679688 z m 0,0"
       style="fill:#000000;fill-opacity:1;fill-rule:nonzero;stroke:none"
       aria-label="Random"
       transform="matrix(1.3333333,0,0,1.3333333,333.70533,93.730667)" />
    <path
       id="path23"
       d="M 1.6419922,-2.97575 H 4.7591797 V -3.7140313 H 1.6419922 V -5.7999688 H 5.1927734 V -6.53825 H 0.80996094 V 8.125e-4 H 1.6419922 Z m 6.0058594,-1.8515625 c -1.3125,0 -2.109375,0.9375 -2.109375,2.5195312 0,1.57031255 0.7851562,2.5195313 2.1210937,2.5195313 1.3125,0 2.1210938,-0.94921875 2.1210938,-2.484375 0,-1.6289063 -0.7734375,-2.5546875 -2.1328125,-2.5546875 z m 0.011719,0.6914062 c 0.84375,0 1.3476563,0.6796875 1.3476563,1.8515625 0,1.1015625 -0.5273438,1.80468755 -1.3476563,1.80468755 -0.8320312,0 -1.3476562,-0.69140625 -1.3476562,-1.82812505 0,-1.1367187 0.515625,-1.828125 1.3476562,-1.828125 z m 3.1552734,-0.5625 V 8.125e-4 h 0.75 v -2.4375 c 0,-0.6679688 0.175781,-1.1132813 0.527343,-1.3710938 0.234375,-0.1757812 0.457032,-0.2226562 0.984375,-0.234375 V -4.803875 c -0.128906,-0.023437 -0.199218,-0.023437 -0.292968,-0.023437 -0.480469,0 -0.855469,0.28125 -1.277344,0.984375 v -0.8554688 z m 6.960937,2.6015625 c 0,-0.7148437 -0.04687,-1.1484375 -0.1875,-1.5 -0.304687,-0.7734375 -1.019531,-1.2304687 -1.898437,-1.2304687 -1.300782,0 -2.144532,0.9960937 -2.144532,2.5429687 0,1.54687505 0.808594,2.4960938 2.132813,2.4960938 1.066406,0 1.816406,-0.609375 2.003906,-1.640625 h -0.75 c -0.210937,0.62109375 -0.632812,0.94921875 -1.230469,0.94921875 -0.480468,0 -0.878906,-0.22265625 -1.125,-0.60937505 -0.1875,-0.2695312 -0.246093,-0.5390625 -0.257812,-1.0078125 z m -3.433594,-0.609375 c 0.05859,-0.8671875 0.585938,-1.4296875 1.335938,-1.4296875 0.738281,0 1.300781,0.609375 1.300781,1.3710938 0,0.023437 0,0.035156 0,0.058594 z m 7.749024,-0.6796875 c -0.01172,-0.9257812 -0.621094,-1.4414062 -1.699219,-1.4414062 -1.101562,0 -1.804687,0.5625 -1.804687,1.4296875 0,0.7382812 0.375,1.0898437 1.488281,1.359375 l 0.703125,0.1640625 c 0.515625,0.1289062 0.726562,0.3164062 0.726562,0.65625 0,0.43359375 -0.445312,0.73828125 -1.101562,0.73828125 -0.398438,0 -0.738281,-0.1171875 -0.925781,-0.31640625 -0.117188,-0.140625 -0.175782,-0.2695313 -0.222657,-0.5976563 h -0.785156 c 0.03516,1.07812505 0.644531,1.6054688 1.875,1.6054688 1.183594,0 1.933594,-0.5859375 1.933594,-1.4882813 0,-0.703125 -0.398438,-1.0898437 -1.324219,-1.3125 l -0.714844,-0.1757812 c -0.609375,-0.140625 -0.867187,-0.3398438 -0.867187,-0.6679688 0,-0.4335937 0.375,-0.703125 0.984375,-0.703125 0.609375,0 0.925781,0.2578125 0.949219,0.75 z m 2.830078,-1.3125 H 24.15957 v -1.2890625 h -0.75 v 1.2890625 h -0.632812 v 0.609375 H 23.40957 V -0.53825 c 0,0.48046875 0.328125,0.75 0.902344,0.75 0.1875,0 0.363281,-0.0234375 0.609375,-0.0703125 v -0.62109375 c -0.09375,0.0234375 -0.210937,0.0351563 -0.351562,0.0351563 -0.328125,0 -0.410157,-0.09375 -0.410157,-0.421875 V -4.0890312 h 0.761719 z m 0,0"
       style="fill:#000000;fill-opacity:1;fill-rule:nonzero;stroke:none"
       aria-label="Forest"
       transform="matrix(1.3333333,0,0,1.3333333,339.53333,108.34267)" />
    <path
       id="path24"
       d="M 5.7902969,-6.5392109 H 5.0051406 v 5.34375 l -3.421875,-5.34375 H 0.68092188 V -1.484375e-4 H 1.4660781 V -5.2970234 l 3.3867188,5.2968749625 h 0.9375 z m 5.2763671,4.4414062 c 0,-0.7148437 -0.04687,-1.1484375 -0.1875,-1.5 -0.304687,-0.7734375 -1.0195312,-1.2304687 -1.8984374,-1.2304687 -1.3007813,0 -2.1445313,0.9960937 -2.1445313,2.5429687 0,1.54687501 0.8085938,2.49609376 2.1328125,2.49609376 1.0664062,0 1.8164062,-0.609375 2.0039062,-1.64062496 h -0.75 c -0.210937,0.62109371 -0.6328124,0.94921871 -1.2304687,0.94921871 -0.4804687,0 -0.8789062,-0.22265625 -1.125,-0.60937501 -0.1875,-0.2695312 -0.2460937,-0.5390625 -0.2578125,-1.0078125 z m -3.4335937,-0.609375 c 0.058594,-0.8671875 0.5859375,-1.4296875 1.3359375,-1.4296875 0.7382813,0 1.3007812,0.609375 1.3007812,1.3710938 0,0.023437 0,0.035156 0,0.058594 z M 15.783461,-1.484375e-4 V -4.6993672 h -0.75 v 2.6601563 c 0,0.9609375 -0.503906,1.59374996 -1.277344,1.59374996 -0.597656,0 -0.972656,-0.36328125 -0.972656,-0.92578126 v -3.328125 H 12.04518 v 3.6210938 c 0,0.78515621 0.574218,1.28906246 1.488281,1.28906246 0.691406,0 1.136719,-0.24609375 1.570312,-0.8671875 V -1.484375e-4 Z M 17.066664,-4.6993672 v 4.6992187625 h 0.75 V -2.4376484 c 0,-0.6679688 0.175781,-1.1132813 0.527344,-1.3710938 0.234375,-0.1757812 0.457031,-0.2226562 0.984375,-0.234375 v -0.7617187 c -0.128906,-0.023437 -0.199219,-0.023437 -0.292969,-0.023437 -0.480469,0 -0.855469,0.28125 -1.277344,0.984375 v -0.8554688 z m 7.066406,4.26562501 c -0.08203,0.0117188 -0.117187,0.0117188 -0.152343,0.0117188 -0.269532,0 -0.410157,-0.12890625 -0.410157,-0.36328125 V -3.5509297 c 0,-0.8320312 -0.609375,-1.2773437 -1.769531,-1.2773437 -0.679687,0 -1.242187,0.1875 -1.558594,0.5390625 -0.210937,0.2460937 -0.304687,0.515625 -0.316406,0.984375 h 0.75 c 0.05859,-0.5742188 0.398438,-0.8320313 1.101563,-0.8320313 0.667968,0 1.054687,0.2460938 1.054687,0.6914063 v 0.1992187 c 0,0.3164063 -0.1875,0.4453125 -0.785156,0.515625 -1.054688,0.140625 -1.21875,0.1757813 -1.5,0.2929688 -0.550781,0.2226562 -0.832031,0.6445312 -0.832031,1.2539062 0,0.85546876 0.597656,1.39453126 1.546875,1.39453126 0.585937,0 1.066406,-0.2109374975 1.59375,-0.69140625 0.04687,0.46875 0.28125,0.69140625 0.773437,0.69140625 0.152344,0 0.269531,-0.0234375 0.503906,-0.0820313 z M 22.832289,-1.4767109 c 0,0.2460937 -0.08203,0.3984375 -0.304687,0.60937496 -0.304688,0.28125 -0.667969,0.421875 -1.113282,0.421875 -0.574218,0 -0.914062,-0.28125 -0.914062,-0.76171876 0,-0.4921875 0.328125,-0.7382812 1.125,-0.8554687 0.785156,-0.1054688 0.949219,-0.140625 1.207031,-0.2578125 z m 2.853516,-5.0625 h -0.75 v 6.5390624625 h 0.75 z m 0,0"
       style="fill:#000000;fill-opacity:1;fill-rule:nonzero;stroke:none"
       aria-label="Neural"
       transform="matrix(1.3333333,0,0,1.3333333,411.31867,93.730667)" />
    <path
       id="path25"
       d="M 5.7896094,-6.53825 H 5.0044531 V -1.1945 L 1.5825781,-6.53825 H 0.68023438 V 8.125e-4 H 1.4653906 v -5.296875 l 3.3867188,5.296875 h 0.9375 z m 5.2792966,4.4414062 c 0,-0.7148437 -0.04687,-1.1484375 -0.1875,-1.5 -0.304687,-0.7734375 -1.019531,-1.2304687 -1.8984372,-1.2304687 -1.3007813,0 -2.1445313,0.9960937 -2.1445313,2.5429687 0,1.54687505 0.8085938,2.4960938 2.1328125,2.4960938 1.066406,0 1.816406,-0.609375 2.003906,-1.640625 h -0.75 c -0.210937,0.62109375 -0.6328122,0.94921875 -1.2304685,0.94921875 -0.4804687,0 -0.8789062,-0.22265625 -1.125,-0.60937505 -0.1875,-0.2695312 -0.2460937,-0.5390625 -0.2578125,-1.0078125 z M 7.6353125,-2.7062188 C 7.6939063,-3.5734063 8.22125,-4.1359063 8.97125,-4.1359063 c 0.7382813,0 1.300781,0.609375 1.300781,1.3710938 0,0.023437 0,0.035156 0,0.058594 z m 6.0966795,-1.9921875 h -0.761719 v -1.2890625 h -0.75 v 1.2890625 h -0.632812 v 0.609375 h 0.632812 V -0.53825 c 0,0.48046875 0.328125,0.75 0.902344,0.75 0.1875,0 0.363281,-0.0234375 0.609375,-0.0703125 v -0.62109375 c -0.09375,0.0234375 -0.210937,0.0351563 -0.351562,0.0351563 -0.328125,0 -0.410157,-0.09375 -0.410157,-0.421875 V -4.0890312 h 0.761719 z m 5.188477,4.6992188 1.382812,-4.6992188 h -0.84375 l -0.9375,3.65625 -0.925781,-3.65625 h -0.914062 l -0.890625,3.65625 -0.960938,-3.65625 h -0.820312 l 1.359375,4.6992188 h 0.84375 L 17.115781,-3.678875 18.065,8.125e-4 Z m 3.852539,-4.828125 c -1.3125,0 -2.109375,0.9375 -2.109375,2.5195312 0,1.57031255 0.785156,2.5195313 2.121094,2.5195313 1.3125,0 2.121093,-0.94921875 2.121093,-2.484375 0,-1.6289063 -0.773437,-2.5546875 -2.132812,-2.5546875 z m 0.01172,0.6914062 c 0.84375,0 1.347656,0.6796875 1.347656,1.8515625 0,1.1015625 -0.527344,1.80468755 -1.347656,1.80468755 -0.832032,0 -1.347657,-0.69140625 -1.347657,-1.82812505 0,-1.1367187 0.515625,-1.828125 1.347657,-1.828125 z m 3.158203,-0.5625 V 8.125e-4 h 0.75 v -2.4375 c 0,-0.6679688 0.175781,-1.1132813 0.527343,-1.3710938 0.234375,-0.1757812 0.457032,-0.2226562 0.984375,-0.234375 V -4.803875 c -0.128906,-0.023437 -0.199218,-0.023437 -0.292968,-0.023437 -0.480469,0 -0.855469,0.28125 -1.277344,0.984375 V -4.6984063 Z M 29.707578,-6.53825 h -0.75 V 8.125e-4 h 0.75 v -1.828125 l 0.726563,-0.7148438 1.582031,2.5429688 h 0.925781 L 31.020078,-3.0695 32.660703,-4.6984063 h -0.960937 l -1.992188,1.9921875 z m 0,0"
       style="fill:#000000;fill-opacity:1;fill-rule:nonzero;stroke:none"
       aria-label="Network"
       transform="matrix(1.3333333,0,0,1.3333333,406.91333,108.34267)" />
    <path
       id="path26"
       d="m 5.9308594,-4.5108594 c -0.2578125,-1.4296875 -1.078125,-2.1328125 -2.5195313,-2.1328125 -0.8789062,0 -1.5820312,0.28125 -2.0625,0.8203125 -0.59765622,0.6445313 -0.91406247,1.5703125 -0.91406247,2.6367188 0,1.0664062 0.328125,1.9921875 0.94921877,2.63671873 0.5039062,0.515625 1.1484375,0.76171875 1.9921875,0.76171875 1.6054687,0 2.4960937,-0.8671875 2.6953125,-2.58984378 H 5.2042969 c -0.070312,0.4453125 -0.1523438,0.75 -0.2929688,1.0078125 -0.2695312,0.53906253 -0.8203125,0.84375003 -1.5234375,0.84375003 -1.3007812,0 -2.1210937,-1.04296873 -2.1210937,-2.67187503 0,-1.6757812 0.7851562,-2.7070312 2.0507812,-2.7070312 0.5273438,0 1.0195313,0.1640625 1.2890625,0.4101562 0.2460938,0.2226563 0.375,0.5039063 0.4804688,0.984375 z m 2.9794922,-0.3164062 c -1.3125,0 -2.109375,0.9375 -2.109375,2.5195312 0,1.57031253 0.7851562,2.51953128 2.1210937,2.51953128 1.3124997,0 2.1210937,-0.94921875 2.1210937,-2.48437498 0,-1.6289063 -0.773437,-2.5546875 -2.1328124,-2.5546875 z m 0.011719,0.6914062 c 0.84375,0 1.3476564,0.6796875 1.3476564,1.8515625 0,1.1015625 -0.5273439,1.80468753 -1.3476564,1.80468753 -0.8320312,0 -1.3476562,-0.69140623 -1.3476562,-1.82812503 0,-1.1367187 0.515625,-1.828125 1.3476562,-1.828125 z m 3.1699214,-0.5625 V 8.59375e-4 h 0.75 V -2.5889844 c 0,-0.9609375 0.503906,-1.5820312 1.265625,-1.5820312 0.597656,0 0.972656,0.3515625 0.972656,0.9140625 V 8.59375e-4 h 0.75 V -3.5499219 c 0,-0.7734375 -0.585937,-1.2773437 -1.488281,-1.2773437 -0.703125,0 -1.148437,0.2695312 -1.570312,0.9140625 V -4.6983594 Z M 18.818555,8.59375e-4 20.623242,-4.6983594 h -0.84375 l -1.324219,3.80859378 -1.253906,-3.80859378 h -0.84375 L 17.998242,8.59375e-4 Z M 22.961133,-4.8272656 c -1.3125,0 -2.109375,0.9375 -2.109375,2.5195312 0,1.57031253 0.785156,2.51953128 2.121094,2.51953128 1.3125,0 2.121093,-0.94921875 2.121093,-2.48437498 0,-1.6289063 -0.773437,-2.5546875 -2.132812,-2.5546875 z m 0.01172,0.6914062 c 0.84375,0 1.347656,0.6796875 1.347656,1.8515625 0,1.1015625 -0.527344,1.80468753 -1.347656,1.80468753 -0.832032,0 -1.347657,-0.69140623 -1.347657,-1.82812503 0,-1.1367187 0.515625,-1.828125 1.347657,-1.828125 z m 3.896484,-2.4023437 h -0.75 V 8.59375e-4 h 0.75 z M 31.823438,8.59375e-4 V -4.6983594 h -0.75 v 2.6601563 c 0,0.9609375 -0.503907,1.59374998 -1.277344,1.59374998 -0.597656,0 -0.972656,-0.36328125 -0.972656,-0.92578128 v -3.328125 h -0.738282 v 3.6210938 c 0,0.78515623 0.574219,1.28906248 1.488282,1.28906248 0.691406,0 1.136718,-0.24609375 1.570312,-0.8671875 V 8.59375e-4 Z M 34.758984,-4.6983594 h -0.761718 v -1.2890625 h -0.75 v 1.2890625 h -0.632813 v 0.609375 h 0.632813 v 3.55078128 c 0,0.48046875 0.328125,0.75 0.902343,0.75 0.1875,0 0.363282,-0.0234375 0.609375,-0.0703125 v -0.62109375 c -0.09375,0.0234375 -0.210937,0.0351563 -0.351562,0.0351563 -0.328125,0 -0.410156,-0.09375 -0.410156,-0.421875 V -4.0889844 h 0.761718 z m 1.567383,0 h -0.75 V 8.59375e-4 h 0.75 z m 0,-1.8398437 h -0.761719 v 0.9492187 h 0.761719 z m 3.079102,1.7109375 c -1.3125,0 -2.109375,0.9375 -2.109375,2.5195312 0,1.57031253 0.785156,2.51953128 2.121094,2.51953128 1.3125,0 2.121093,-0.94921875 2.121093,-2.48437498 0,-1.6289063 -0.773437,-2.5546875 -2.132812,-2.5546875 z m 0.01172,0.6914062 c 0.84375,0 1.347656,0.6796875 1.347656,1.8515625 0,1.1015625 -0.527344,1.80468753 -1.347656,1.80468753 -0.832032,0 -1.347657,-0.69140623 -1.347657,-1.82812503 0,-1.1367187 0.515625,-1.828125 1.347657,-1.828125 z m 3.169921,-0.5625 V 8.59375e-4 h 0.75 V -2.5889844 c 0,-0.9609375 0.503907,-1.5820312 1.265625,-1.5820312 0.597657,0 0.972657,0.3515625 0.972657,0.9140625 V 8.59375e-4 h 0.75 V -3.5499219 c 0,-0.7734375 -0.585938,-1.2773437 -1.488282,-1.2773437 -0.703125,0 -1.148437,0.2695312 -1.570312,0.9140625 v -0.7851563 z m 0,0"
       style="fill:#000000;fill-opacity:1;fill-rule:nonzero;stroke:none"
       aria-label="Convolution"
       transform="matrix(1.3333333,0,0,1.3333333,465.6,94.006667)" />
    <path
       id="path27"
       d="M 5.7888047,-6.5401719 H 5.0036484 v 5.34375 l -3.421875,-5.34375 H 0.67942969 v 6.53906253 H 1.4645859 V -5.2979844 l 3.3867188,5.29687503 h 0.9375 z m 5.2792973,4.4414063 c 0,-0.7148438 -0.04687,-1.1484375 -0.1875,-1.5 -0.304688,-0.7734375 -1.0195317,-1.2304688 -1.8984379,-1.2304688 -1.3007813,0 -2.1445313,0.9960938 -2.1445313,2.5429688 0,1.54687498 0.8085938,2.49609373 2.1328125,2.49609373 1.0664067,0 1.8164067,-0.609375 2.0039067,-1.64062503 h -0.75 c -0.210938,0.62109378 -0.6328129,0.94921878 -1.2304692,0.94921878 -0.4804687,0 -0.8789062,-0.22265625 -1.125,-0.60937498 -0.1875,-0.2695313 -0.2460937,-0.5390625 -0.2578125,-1.0078125 z m -3.4335942,-0.609375 c 0.058594,-0.8671875 0.5859375,-1.4296875 1.3359375,-1.4296875 0.7382813,0 1.3007817,0.609375 1.3007817,1.3710937 0,0.023437 0,0.035156 0,0.058594 z m 8.1474612,2.70703123 V -4.7003281 h -0.75 v 2.6601562 c 0,0.9609375 -0.503906,1.59375003 -1.277344,1.59375003 -0.597656,0 -0.972656,-0.36328125 -0.972656,-0.92578123 v -3.328125 h -0.738281 v 3.6210937 c 0,0.78515628 0.574218,1.28906253 1.488281,1.28906253 0.691406,0 1.136719,-0.24609375 1.570312,-0.8671875 v 0.65625 z m 1.283203,-4.69921873 v 4.69921873 h 0.75 V -2.4386094 c 0,-0.6679687 0.175781,-1.1132812 0.527344,-1.3710937 0.234375,-0.1757813 0.457031,-0.2226563 0.984375,-0.234375 v -0.7617188 c -0.128907,-0.023437 -0.199219,-0.023437 -0.292969,-0.023437 -0.480469,0 -0.855469,0.28125 -1.277344,0.984375 v -0.8554687 z m 7.069336,4.26562498 c -0.08203,0.0117188 -0.117188,0.0117188 -0.152344,0.0117188 -0.269531,0 -0.410156,-0.12890625 -0.410156,-0.36328125 V -3.5518906 c 0,-0.8320313 -0.609375,-1.2773438 -1.769531,-1.2773438 -0.679688,0 -1.242188,0.1875 -1.558594,0.5390625 -0.210938,0.2460938 -0.304688,0.515625 -0.316406,0.984375 h 0.75 c 0.05859,-0.5742187 0.398437,-0.8320312 1.101562,-0.8320312 0.667969,0 1.054688,0.2460937 1.054688,0.6914062 v 0.1992188 c 0,0.3164062 -0.1875,0.4453125 -0.785157,0.515625 -1.054687,0.140625 -1.21875,0.1757812 -1.5,0.2929687 -0.550781,0.2226563 -0.832031,0.6445313 -0.832031,1.2539063 0,0.85546873 0.597656,1.39453123 1.546875,1.39453123 0.585938,0 1.066406,-0.2109375 1.59375,-0.69140625 0.04687,0.46875 0.28125,0.69140625 0.773438,0.69140625 0.152343,0 0.269531,-0.0234375 0.503906,-0.0820313 z M 22.833727,-1.4776719 c 0,0.2460938 -0.08203,0.3984375 -0.304688,0.60937503 -0.304687,0.28125 -0.667969,0.421875 -1.113281,0.421875 -0.574219,0 -0.914063,-0.28125 -0.914063,-0.76171873 0,-0.4921875 0.328125,-0.7382813 1.125,-0.8554688 0.785157,-0.1054687 0.949219,-0.140625 1.207032,-0.2578125 z m 2.850586,-5.0625 h -0.75 v 6.53906253 h 0.75 z m 0,0"
       style="fill:#000000;fill-opacity:1;fill-rule:nonzero;stroke:none"
       aria-label="Neural"
       transform="matrix(1.3333333,0,0,1.3333333,479.348,108.61867)" />
    <path
       id="path28"
       d="M 5.7881172,-6.5382109 H 5.0029609 v 5.34375 l -3.421875,-5.34375 H 0.67874219 V 8.515625e-4 H 1.4638984 V -5.2960234 L 4.8506172,8.515625e-4 h 0.9375 z m 5.2792968,4.4414062 c 0,-0.7148437 -0.04687,-1.1484375 -0.1875,-1.5 -0.304687,-0.7734375 -1.0195312,-1.2304687 -1.8984374,-1.2304687 -1.3007813,0 -2.1445313,0.9960937 -2.1445313,2.5429687 0,1.54687501 0.8085938,2.49609376 2.1328125,2.49609376 1.0664062,0 1.8164062,-0.609375 2.0039062,-1.64062496 h -0.75 c -0.210937,0.62109371 -0.6328124,0.94921871 -1.2304687,0.94921871 -0.4804687,0 -0.8789062,-0.22265625 -1.125,-0.60937501 -0.1875,-0.2695312 -0.2460937,-0.5390625 -0.2578125,-1.0078125 z m -3.4335937,-0.609375 c 0.058594,-0.8671875 0.5859375,-1.4296875 1.3359375,-1.4296875 0.7382813,0 1.3007812,0.609375 1.3007812,1.3710938 0,0.023437 0,0.035156 0,0.058594 z M 13.73343,-4.6983672 h -0.761719 v -1.2890625 h -0.75 v 1.2890625 h -0.632813 v 0.609375 h 0.632813 v 3.55078126 c 0,0.48046875 0.328125,0.75 0.902344,0.75 0.1875,0 0.363281,-0.0234375 0.609375,-0.0703125 v -0.62109375 c -0.09375,0.0234375 -0.210938,0.0351563 -0.351563,0.0351563 -0.328125,0 -0.410156,-0.09375 -0.410156,-0.421875 V -4.0889922 H 13.73343 Z M 18.918977,8.515625e-4 20.301789,-4.6983672 h -0.84375 l -0.9375,3.65625 -0.925781,-3.65625 h -0.914063 l -0.890625,3.65625 -0.960937,-3.65625 H 14.00882 l 1.359375,4.6992187625 h 0.84375 L 17.114289,-3.6788359 18.063508,8.515625e-4 Z M 22.774445,-4.8272734 c -1.3125,0 -2.109375,0.9375 -2.109375,2.5195312 0,1.57031251 0.785157,2.51953126 2.121094,2.51953126 1.3125,0 2.121094,-0.94921875 2.121094,-2.48437496 0,-1.6289063 -0.773438,-2.5546875 -2.132813,-2.5546875 z m 0.01172,0.6914062 c 0.84375,0 1.347656,0.6796875 1.347656,1.8515625 0,1.1015625 -0.527343,1.80468751 -1.347656,1.80468751 -0.832031,0 -1.347656,-0.69140621 -1.347656,-1.82812501 0,-1.1367187 0.515625,-1.828125 1.347656,-1.828125 z m 3.155274,-0.5625 V 8.515625e-4 h 0.75 V -2.4366484 c 0,-0.6679688 0.175781,-1.1132813 0.527343,-1.3710938 0.234375,-0.1757812 0.457032,-0.2226562 0.984375,-0.234375 v -0.7617187 c -0.128906,-0.023437 -0.199218,-0.023437 -0.292968,-0.023437 -0.480469,0 -0.855469,0.28125 -1.277344,0.984375 v -0.8554688 z m 3.755859,-1.8398437 h -0.75 V 8.515625e-4 h 0.75 V -1.8272734 l 0.726562,-0.7148438 1.582032,2.5429687625 h 0.925781 L 31.009797,-3.0694609 32.650422,-4.6983672 h -0.960938 l -1.992187,1.9921875 z m 0,0"
       style="fill:#000000;fill-opacity:1;fill-rule:nonzero;stroke:none"
       aria-label="Network"
       transform="matrix(1.3333333,0,0,1.3333333,474.94267,123.22933)" />
    <path
       id="path29"
       d="m 37.79965,11.33871 c 0.74718,1.49444 2.49069,2.49069 4.98139,2.49069 h 65.49615 c 2.49069,0 4.23421,0.99627 4.98139,2.4907 0.74717,-1.49443 2.49069,-2.4907 4.98138,-2.4907 h 65.49617 c 2.49069,0 4.23421,-0.99625 4.98138,-2.49069"
       style="fill:none;stroke:#a64ca6;stroke-width:0.99628;stroke-linecap:butt;stroke-linejoin:round;stroke-miterlimit:10;stroke-dasharray:none;stroke-opacity:1"
       transform="matrix(1.3333333,0,0,-1.3333333,46.62,57.842667)" />
    <path
       id="path30"
       d="M 1.7347266,-6.5390781 H 0.89097656 V -1.5625e-5 H 1.7347266 Z m 1.3916015,1.8398437 V -1.5625e-5 h 0.75 V -2.5898594 c 0,-0.9609375 0.5039063,-1.5820312 1.265625,-1.5820312 0.5976563,0 0.9726563,0.3515625 0.9726563,0.9140625 V -1.5625e-5 h 0.75 V -3.5507969 c 0,-0.7734375 -0.5859375,-1.2773437 -1.4882813,-1.2773437 -0.703125,0 -1.1484375,0.2695312 -1.5703125,0.9140625 v -0.7851563 z m 6.6240235,0 H 8.9886328 v -1.2890625 h -0.75 v 1.2890625 H 7.6058203 v 0.609375 h 0.6328125 v 3.55078128 c 0,0.48046875 0.328125,0.75 0.9023438,0.75 0.1875,0 0.3632812,-0.0234375 0.609375,-0.0703125 v -0.62109375 c -0.09375,0.0234375 -0.2109375,0.0351563 -0.3515625,0.0351563 -0.328125,0 -0.4101563,-0.09375 -0.4101563,-0.421875 V -4.0898594 h 0.7617188 z m 0.8408204,0 V -1.5625e-5 h 0.75 V -2.4375156 c 0,-0.6679688 0.175781,-1.1132813 0.527344,-1.3710938 0.234375,-0.1757812 0.457031,-0.2226562 0.984375,-0.234375 v -0.7617187 c -0.128907,-0.023437 -0.199219,-0.023437 -0.292969,-0.023437 -0.480469,0 -0.855469,0.28125 -1.277344,0.984375 v -0.8554688 z m 3.84668,0 h -0.75 V -1.5625e-5 h 0.75 z m 0,-1.8398437 h -0.761719 v 0.9492187 h 0.761719 z m 1.277343,1.8398437 V -1.5625e-5 h 0.75 V -2.5898594 c 0,-0.9609375 0.503907,-1.5820312 1.265625,-1.5820312 0.597657,0 0.972657,0.3515625 0.972657,0.9140625 V -1.5625e-5 h 0.75 V -3.5507969 c 0,-0.7734375 -0.585938,-1.2773437 -1.488282,-1.2773437 -0.703125,0 -1.148437,0.2695312 -1.570312,0.9140625 v -0.7851563 z m 8.276368,1.3125 c -0.01172,-0.9257812 -0.621094,-1.4414062 -1.699219,-1.4414062 -1.101563,0 -1.804688,0.5625 -1.804688,1.4296875 0,0.7382812 0.375,1.0898437 1.488282,1.359375 l 0.703125,0.1640625 c 0.515625,0.1289062 0.726562,0.3164062 0.726562,0.65625 0,0.43359373 -0.445312,0.73828123 -1.101562,0.73828123 -0.398438,0 -0.738282,-0.1171875 -0.925782,-0.31640625 -0.117187,-0.140625 -0.175781,-0.26953128 -0.222656,-0.59765628 h -0.785156 c 0.03516,1.07812503 0.644531,1.60546878 1.875,1.60546878 1.183594,0 1.933594,-0.5859375 1.933594,-1.48828128 0,-0.703125 -0.398438,-1.0898437 -1.324219,-1.3125 L 22.14,-2.7656406 c -0.609375,-0.140625 -0.867187,-0.3398438 -0.867187,-0.6679688 0,-0.4335937 0.375,-0.703125 0.984375,-0.703125 0.609375,0 0.925781,0.2578125 0.949218,0.75 z m 1.907226,-1.3125 h -0.75 V -1.5625e-5 h 0.75 z m 0,-1.8398437 H 25.13707 v 0.9492187 h 0.761719 z m 4.860352,3.421875 c -0.03516,-0.4570313 -0.128907,-0.75 -0.304688,-1.0195313 -0.328125,-0.4335937 -0.890625,-0.6914062 -1.546875,-0.6914062 -1.265625,0 -2.085937,0.9960937 -2.085937,2.5546875 0,1.52343748 0.808593,2.48437498 2.074218,2.48437498 1.125,0 1.828125,-0.6796875 1.921875,-1.82812498 h -0.75 c -0.128906,0.76171873 -0.515625,1.13671873 -1.148437,1.13671873 -0.832031,0 -1.324219,-0.67968753 -1.324219,-1.79296873 0,-1.171875 0.492188,-1.8632813 1.300781,-1.8632813 0.632813,0 1.019532,0.3632813 1.113282,1.0195313 z m 5.05664,2.68359373 c -0.08203,0.0117188 -0.117187,0.0117188 -0.152343,0.0117188 -0.269532,0 -0.410157,-0.12890625 -0.410157,-0.36328125 V -3.5507969 c 0,-0.8320312 -0.609375,-1.2773437 -1.769531,-1.2773437 -0.679687,0 -1.242187,0.1875 -1.558594,0.5390625 -0.210937,0.2460937 -0.304687,0.515625 -0.316406,0.984375 h 0.75 c 0.05859,-0.5742188 0.398438,-0.8320313 1.101563,-0.8320313 0.667968,0 1.054687,0.2460938 1.054687,0.6914063 v 0.1992187 c 0,0.3164063 -0.1875,0.4453125 -0.785156,0.515625 -1.054688,0.140625 -1.21875,0.1757813 -1.5,0.2929688 -0.550781,0.2226562 -0.832031,0.6445312 -0.832031,1.2539062 0,0.85546878 0.597656,1.39453128 1.546875,1.39453128 0.585937,0 1.066406,-0.210937505 1.59375,-0.69140625 0.04687,0.46875 0.28125,0.69140625 0.773437,0.69140625 0.152344,0 0.269531,-0.0234375 0.503906,-0.0820313 z M 34.515,-1.4765781 c 0,0.2460937 -0.08203,0.3984375 -0.304687,0.60937498 -0.304688,0.28125 -0.667969,0.421875 -1.113282,0.421875 -0.574218,0 -0.914062,-0.28125 -0.914062,-0.76171878 0,-0.4921875 0.328125,-0.7382812 1.125,-0.8554687 0.785156,-0.1054688 0.949219,-0.140625 1.207031,-0.2578125 z m 2.853516,-5.0625 h -0.75 V -1.5625e-5 h 0.75 z m 1.989257,0 h -0.75 V -1.5625e-5 h 0.75 z m 4.113282,1.8398437 -1.300782,3.65625 -1.207031,-3.65625 h -0.796875 l 1.59375,4.72265628 -0.292969,0.73828125 c -0.117187,0.32812497 -0.28125,0.45703127 -0.597656,0.45703127 -0.105469,0 -0.234375,-0.011719 -0.398437,-0.058594 v 0.6796875 c 0.152343,0.082031 0.304687,0.1171875 0.503906,0.1171875 0.246094,0 0.503906,-0.082031 0.703125,-0.2226562 0.234375,-0.1757813 0.363281,-0.375 0.503906,-0.75000002 l 2.097656,-5.68359378 z m 0,0"
       style="fill:#000000;fill-opacity:1;fill-rule:nonzero;stroke:none"
       aria-label="Intrinsically"
       transform="matrix(1.3333333,0,0,1.3333333,167.98,12.945333)" />
    <path
       id="path31"
       d="M 1.7341641,-6.5381172 H 0.89041406 V 9.453125e-4 H 1.7341641 Z m 1.3916015,1.8398438 V 9.453125e-4 h 0.75 V -2.5888984 c 0,-0.9609375 0.5039063,-1.5820313 1.265625,-1.5820313 0.5976563,0 0.9726563,0.3515625 0.9726563,0.9140625 V 9.453125e-4 h 0.75 V -3.5498359 c 0,-0.7734375 -0.5859375,-1.2773438 -1.4882813,-1.2773438 -0.703125,0 -1.1484375,0.2695313 -1.5703125,0.9140625 v -0.7851562 z m 6.6269532,0 H 8.991 v -1.2890625 h -0.75 v 1.2890625 H 7.6081875 v 0.609375 H 8.241 v 3.55078121 c 0,0.48046875 0.328125,0.75 0.9023438,0.75 0.1875,0 0.3632812,-0.0234375 0.609375,-0.0703125 v -0.62109375 c -0.09375,0.0234375 -0.2109375,0.0351563 -0.3515625,0.0351563 -0.328125,0 -0.4101563,-0.09375 -0.4101563,-0.421875 V -4.0888984 h 0.7617188 z m 4.8105472,2.6015625 c 0,-0.7148438 -0.04687,-1.1484375 -0.1875,-1.5 -0.304688,-0.7734375 -1.019532,-1.2304688 -1.898438,-1.2304688 -1.300781,0 -2.144531,0.9960938 -2.144531,2.5429688 0,1.54687496 0.808594,2.49609371 2.132812,2.49609371 1.066407,0 1.816407,-0.609375 2.003907,-1.64062501 h -0.75 c -0.210938,0.62109376 -0.632813,0.94921876 -1.230469,0.94921876 -0.480469,0 -0.878906,-0.22265625 -1.125,-0.60937496 -0.1875,-0.2695313 -0.246094,-0.5390625 -0.257813,-1.0078125 z m -3.433594,-0.609375 c 0.05859,-0.8671875 0.585937,-1.4296875 1.335937,-1.4296875 0.738282,0 1.300782,0.609375 1.300782,1.3710937 0,0.023437 0,0.035156 0,0.058594 z m 4.447266,-1.9921875 V 9.453125e-4 h 0.749999 V -2.4365547 c 0,-0.6679687 0.175782,-1.1132812 0.527344,-1.3710937 0.234375,-0.1757813 0.457031,-0.2226563 0.984375,-0.234375 v -0.7617188 c -0.128906,-0.023437 -0.199219,-0.023437 -0.292969,-0.023437 -0.480468,0 -0.855468,0.28125 -1.277343,0.984375 v -0.8554687 z m 3.105468,6.65625 h 0.761719 v -2.44921879 c 0.386719,0.48046875 0.832031,0.703125 1.441406,0.703125 1.207031,0 2.003906,-0.984375 2.003906,-2.48437501 0,-1.5703125 -0.773437,-2.5546875 -2.015625,-2.5546875 -0.632812,0 -1.148437,0.28125 -1.5,0.84375 v -0.7148437 h -0.691406 z m 2.0625,-6.09375 c 0.832031,0 1.371094,0.7265625 1.371094,1.8515625 0,1.0664062 -0.550781,1.79296871 -1.371094,1.79296871 -0.785156,0 -1.300781,-0.71484371 -1.300781,-1.81640621 0,-1.1015625 0.515625,-1.828125 1.300781,-1.828125 z m 3.064453,-0.5625 V 9.453125e-4 h 0.75 V -2.4365547 c 0,-0.6679687 0.175782,-1.1132812 0.527344,-1.3710937 0.234375,-0.1757813 0.457031,-0.2226563 0.984375,-0.234375 v -0.7617188 c -0.128906,-0.023437 -0.199219,-0.023437 -0.292969,-0.023437 -0.480468,0 -0.855468,0.28125 -1.277343,0.984375 v -0.8554687 z m 6.958008,2.6015625 c 0,-0.7148438 -0.04687,-1.1484375 -0.1875,-1.5 -0.304687,-0.7734375 -1.019531,-1.2304688 -1.898437,-1.2304688 -1.300782,0 -2.144532,0.9960938 -2.144532,2.5429688 0,1.54687496 0.808594,2.49609371 2.132813,2.49609371 1.066406,0 1.816406,-0.609375 2.003906,-1.64062501 h -0.75 c -0.210937,0.62109376 -0.632812,0.94921876 -1.230469,0.94921876 -0.480468,0 -0.878906,-0.22265625 -1.125,-0.60937496 -0.1875,-0.2695313 -0.246093,-0.5390625 -0.257812,-1.0078125 z m -3.433594,-0.609375 c 0.05859,-0.8671875 0.585938,-1.4296875 1.335938,-1.4296875 0.738281,0 1.300781,0.609375 1.300781,1.3710937 0,0.023437 0,0.035156 0,0.058594 z m 6.09668,-1.9921875 h -0.761719 v -1.2890625 h -0.75 v 1.2890625 h -0.632812 v 0.609375 h 0.632812 v 3.55078121 c 0,0.48046875 0.328125,0.75 0.902344,0.75 0.1875,0 0.363281,-0.0234375 0.609375,-0.0703125 v -0.62109375 c -0.09375,0.0234375 -0.210937,0.0351563 -0.351562,0.0351563 -0.328125,0 -0.410157,-0.09375 -0.410157,-0.421875 V -4.0888984 h 0.761719 z m 5.012695,4.26562496 c -0.08203,0.0117188 -0.117187,0.0117188 -0.152343,0.0117188 -0.269532,0 -0.410157,-0.12890625 -0.410157,-0.36328125 V -3.5498359 c 0,-0.8320313 -0.609375,-1.2773438 -1.769531,-1.2773438 -0.679687,0 -1.242187,0.1875 -1.558594,0.5390625 -0.210937,0.2460938 -0.304687,0.515625 -0.316406,0.984375 h 0.75 c 0.05859,-0.5742187 0.398438,-0.8320312 1.101563,-0.8320312 0.667968,0 1.054687,0.2460937 1.054687,0.6914062 v 0.1992188 c 0,0.3164062 -0.1875,0.4453125 -0.785156,0.515625 -1.054688,0.140625 -1.21875,0.1757812 -1.5,0.2929687 -0.550781,0.2226563 -0.832031,0.6445313 -0.832031,1.2539063 0,0.85546871 0.597656,1.39453121 1.546875,1.39453121 0.585937,0 1.066406,-0.2109374975 1.59375,-0.69140625 0.04687,0.46875 0.28125,0.69140625 0.773437,0.69140625 0.152344,0 0.269531,-0.0234375 0.503906,-0.0820313 z M 37.142367,-1.4756172 c 0,0.2460938 -0.08203,0.3984375 -0.304687,0.60937501 -0.304688,0.28125 -0.667969,0.421875 -1.113282,0.421875 -0.574218,0 -0.914062,-0.28125 -0.914062,-0.76171871 0,-0.4921875 0.328125,-0.7382813 1.125,-0.8554688 0.785156,-0.1054687 0.949219,-0.140625 1.207031,-0.2578125 z m 1.97461,-5.0625 V 9.453125e-4 h 0.679687 V -0.59671094 c 0.351563,0.5390625 0.832031,0.80859375 1.488281,0.80859375 1.230469,0 2.039063,-1.01953125 2.039063,-2.57812501 0,-1.5234375 -0.773438,-2.4609375 -2.003906,-2.4609375 -0.644532,0 -1.101563,0.234375 -1.453125,0.7617188 v -2.4726563 z m 2.050781,2.4023438 c 0.84375,0 1.382812,0.7265625 1.382812,1.8515625 0,1.0664062 -0.5625,1.79296871 -1.382812,1.79296871 -0.785156,0 -1.300781,-0.71484371 -1.300781,-1.81640621 0,-1.1015625 0.515625,-1.828125 1.300781,-1.828125 z m 3.641601,-2.4023438 h -0.75 V 9.453125e-4 h 0.75 z m 5.226563,4.4414063 c 0,-0.7148438 -0.04687,-1.1484375 -0.1875,-1.5 -0.304688,-0.7734375 -1.019531,-1.2304688 -1.898438,-1.2304688 -1.300781,0 -2.144531,0.9960938 -2.144531,2.5429688 0,1.54687496 0.808594,2.49609371 2.132813,2.49609371 1.066406,0 1.816406,-0.609375 2.003906,-1.64062501 h -0.75 c -0.210938,0.62109376 -0.632813,0.94921876 -1.230469,0.94921876 -0.480469,0 -0.878906,-0.22265625 -1.125,-0.60937496 -0.1875,-0.2695313 -0.246094,-0.5390625 -0.257812,-1.0078125 z m -3.433594,-0.609375 c 0.05859,-0.8671875 0.585938,-1.4296875 1.335938,-1.4296875 0.738281,0 1.300781,0.609375 1.300781,1.3710937 0,0.023437 0,0.035156 0,0.058594 z m 0,0"
       style="fill:#000000;fill-opacity:1;fill-rule:nonzero;stroke:none"
       aria-label="Interpretable"
       transform="matrix(1.3333333,0,0,1.3333333,164.012,27.557333)" />
  </g>
</svg>
