<?xml version="1.0" encoding="UTF-8" standalone="no"?>
<!DOCTYPE svg PUBLIC "-//W3C//DTD SVG 1.1//EN"
 "http://www.w3.org/Graphics/SVG/1.1/DTD/svg11.dtd">
<!-- Title: G Pages: 1 -->
<svg width="127pt" height="453pt"
 viewBox="0.00 0.00 127.00 453.00" xmlns="http://www.w3.org/2000/svg" xmlns:xlink="http://www.w3.org/1999/xlink" font-family="Helvetica Neue, Helvetica, Arial, sans-serif">
<g id="graph0" class="graph" transform="scale(1 1) rotate(0) translate(4 448.67)">
<title>G</title>
<polygon fill="white" stroke="none" points="-4,4 -4,-448.67 123.17,-448.67 123.17,4 -4,4"/>
<!-- Device1 -->
<g id="node1" class="node">
<title>Device1</title>
<ellipse fill="#cfe2f3" stroke="#4a90c4" cx="77.08" cy="-402.59" rx="42.08" ry="42.08"/>
<text xml:space="preserve" text-anchor="middle" x="77.08" y="-396.79" font-family="Helvetica,sans-Serif" font-size="14.00">Device1</text>
</g>
<!-- Device2 -->
<g id="node2" class="node">
<title>Device2</title>
<ellipse fill="#cfe2f3" stroke="#4a90c4" cx="42.08" cy="-282.42" rx="42.08" ry="42.08"/>
<text xml:space="preserve" text-anchor="middle" x="42.08" y="-276.62" font-family="Helvetica,sans-Serif" font-size="14.00">Device2</text>
</g>
<!-- Device1&#45;&gt;Device2 -->
<g id="edge1" class="edge">
<title>Device1&#45;&gt;Device2</title>
<path fill="none" stroke="#3d9e5a" stroke-width="2" d="M65.33,-361.91C62.82,-353.43 60.13,-344.36 57.51,-335.49"/>
<polygon fill="#3d9e5a" stroke="#3d9e5a" stroke-width="2" points="60.92,-334.69 54.72,-326.09 54.21,-336.68 60.92,-334.69"/>
</g>
<!-- Device3 -->
<g id="node3" class="node">
<title>Device3</title>
<ellipse fill="#cfe2f3" stroke="#4a90c4" cx="42.08" cy="-162.25" rx="42.08" ry="42.08"/>
<text xml:space="preserve" text-anchor="middle" x="42.08" y="-156.45" font-family="Helvetica,sans-Serif" font-size="14.00">Device3</text>
</g>
<!-- Device2&#45;&gt;Device3 -->
<g id="edge2" class="edge">
<title>Device2&#45;&gt;Device3</title>
<path fill="none" stroke="#3d9e5a" stroke-width="2" d="M42.08,-240.09C42.08,-232.85 42.08,-225.21 42.08,-217.67"/>
<polygon fill="#3d9e5a" stroke="#3d9e5a" stroke-width="2" points="45.58,-217.78 42.08,-207.78 38.58,-217.78 45.58,-217.78"/>
</g>
<!-- Device4 -->
<g id="node4" class="node">
<title>Device4</title>
<ellipse fill="#cfe2f3" stroke="#4a90c4" cx="77.08" cy="-42.08" rx="42.08" ry="42.08"/>
<text xml:space="preserve" text-anchor="middle" x="77.08" y="-36.28" font-family="Helvetica,sans-Serif" font-size="14.00">Device4</text>
</g>
<!-- Device3&#45;&gt;Device4 -->
<g id="edge3" class="edge">
<title>Device3&#45;&gt;Device4</title>
<path fill="none" stroke="#3d9e5a" stroke-width="2" d="M53.84,-121.57C56.35,-113.1 59.03,-104.02 61.66,-95.16"/>
<polygon fill="#3d9e5a" stroke="#3d9e5a" stroke-width="2" points="64.96,-96.34 64.44,-85.76 58.25,-94.35 64.96,-96.34"/>
</g>
<!-- Device4&#45;&gt;Device1 -->
<g id="edge4" class="edge">
<title>Device4&#45;&gt;Device1</title>
<path fill="none" stroke="#3d9e5a" stroke-width="2" d="M87.04,-83.25C89.53,-95.06 91.84,-108.07 93.08,-120.17 102.36,-210.51 102.36,-234.16 93.08,-324.5 92.27,-332.44 90.99,-340.77 89.51,-348.9"/>
<polygon fill="#3d9e5a" stroke="#3d9e5a" stroke-width="2" points="86.13,-347.97 87.63,-358.45 92.99,-349.32 86.13,-347.97"/>
</g>
</g>
</svg>
