<?xml version="1.0" encoding="UTF-8" standalone="no"?>
<!DOCTYPE svg PUBLIC "-//W3C//DTD SVG 1.1//EN"
 "http://www.w3.org/Graphics/SVG/1.1/DTD/svg11.dtd">
<!-- Title: G Pages: 1 -->
<svg width="317pt" height="60pt"
 viewBox="0.00 0.00 317.00 60.00" xmlns="http://www.w3.org/2000/svg" xmlns:xlink="http://www.w3.org/1999/xlink" font-family="Helvetica Neue, Helvetica, Arial, sans-serif">
<g id="graph0" class="graph" transform="scale(1 1) rotate(0) translate(4 56)">
<title>G</title>
<polygon fill="white" stroke="none" points="-4,4 -4,-56 312.75,-56 312.75,4 -4,4"/>
<!-- Watch -->
<g id="node1" class="node">
<title>Watch</title>
<polygon fill="#cfe2f3" stroke="#4a90c4" points="100,-38 0,-38 0,0 100,0 100,-38"/>
<text xml:space="preserve" text-anchor="middle" x="50" y="-20.7" font-family="Helvetica,sans-Serif" font-size="14.00">Apple Watch</text>
<text xml:space="preserve" text-anchor="middle" x="50" y="-5.7" font-family="Helvetica,sans-Serif" font-size="14.00">(Early Layers)</text>
</g>
<!-- Phone -->
<g id="node2" class="node">
<title>Phone</title>
<polygon fill="#d4edda" stroke="#3d9e5a" points="308.75,-38 213.25,-38 213.25,0 308.75,0 308.75,-38"/>
<text xml:space="preserve" text-anchor="middle" x="261" y="-20.7" font-family="Helvetica,sans-Serif" font-size="14.00">A17 Pro</text>
<text xml:space="preserve" text-anchor="middle" x="261" y="-5.7" font-family="Helvetica,sans-Serif" font-size="14.00">(Late Layers)</text>
</g>
<!-- Watch&#45;&gt;Phone -->
<g id="edge1" class="edge">
<title>Watch&#45;&gt;Phone</title>
<path fill="none" stroke="#c87b2a" stroke-width="2" d="M100.27,-19C130.18,-19 168.56,-19 200.21,-19"/>
<polygon fill="#c87b2a" stroke="#c87b2a" stroke-width="2" points="199.83,-22.5 209.83,-19 199.83,-15.5 199.83,-22.5"/>
<text xml:space="preserve" text-anchor="middle" x="156.62" y="-38.7" font-family="Times,serif" font-size="14.00">BLE &lt; 25 KB</text>
<text xml:space="preserve" text-anchor="middle" x="156.62" y="-22.2" font-family="Times,serif" font-size="14.00">(100ms max)</text>
</g>
</g>
</svg>
