<?xml version="1.0" encoding="UTF-8" standalone="no"?>
<!DOCTYPE svg PUBLIC "-//W3C//DTD SVG 1.1//EN"
 "http://www.w3.org/Graphics/SVG/1.1/DTD/svg11.dtd">
<!-- Title: G Pages: 1 -->
<svg width="113pt" height="301pt"
 viewBox="0.00 0.00 113.00 301.00" xmlns="http://www.w3.org/2000/svg" xmlns:xlink="http://www.w3.org/1999/xlink" font-family="Helvetica Neue, Helvetica, Arial, sans-serif">
<g id="graph0" class="graph" transform="scale(1 1) rotate(0) translate(4 296.58)">
<title>G</title>
<polygon fill="white" stroke="none" points="-4,4 -4,-296.58 108.76,-296.58 108.76,4 -4,4"/>
<!-- M1 -->
<g id="node1" class="node">
<title>M1</title>
<ellipse fill="#cfe2f3" stroke="#4a90c4" cx="67.07" cy="-269.51" rx="23.07" ry="23.07"/>
<text xml:space="preserve" text-anchor="middle" x="67.07" y="-263.71" font-family="Helvetica,sans-Serif" font-size="14.00">M1</text>
</g>
<!-- M2 -->
<g id="node2" class="node">
<title>M2</title>
<ellipse fill="#cfe2f3" stroke="#4a90c4" cx="67.07" cy="-187.36" rx="23.07" ry="23.07"/>
<text xml:space="preserve" text-anchor="middle" x="67.07" y="-181.56" font-family="Helvetica,sans-Serif" font-size="14.00">M2</text>
</g>
<!-- M1&#45;&gt;M2 -->
<g id="edge1" class="edge">
<title>M1&#45;&gt;M2</title>
<path fill="none" stroke="#3d9e5a" d="M67.07,-234.77C67.07,-230.6 67.07,-226.35 67.07,-222.18"/>
<polygon fill="#3d9e5a" stroke="#3d9e5a" points="63.57,-234.67 67.07,-244.67 70.57,-234.67 63.57,-234.67"/>
<polygon fill="#3d9e5a" stroke="#3d9e5a" points="70.57,-222.36 67.07,-212.36 63.57,-222.36 70.57,-222.36"/>
</g>
<!-- M3 -->
<g id="node3" class="node">
<title>M3</title>
<ellipse fill="#cfe2f3" stroke="#4a90c4" cx="23.07" cy="-105.22" rx="23.07" ry="23.07"/>
<text xml:space="preserve" text-anchor="middle" x="23.07" y="-99.42" font-family="Helvetica,sans-Serif" font-size="14.00">M3</text>
</g>
<!-- M1&#45;&gt;M3 -->
<g id="edge5" class="edge">
<title>M1&#45;&gt;M3</title>
<path fill="none" stroke="#3d9e5a" d="M48.51,-240.05C43.36,-230.93 38.3,-220.56 35.07,-210.44 27.8,-187.67 24.83,-160.85 23.66,-140.13"/>
<polygon fill="#3d9e5a" stroke="#3d9e5a" points="45.38,-241.63 53.5,-248.44 51.4,-238.06 45.38,-241.63"/>
<polygon fill="#3d9e5a" stroke="#3d9e5a" points="27.16,-140.05 23.23,-130.21 20.17,-140.36 27.16,-140.05"/>
</g>
<!-- M2&#45;&gt;M3 -->
<g id="edge2" class="edge">
<title>M2&#45;&gt;M3</title>
<path fill="none" stroke="#3d9e5a" d="M50.82,-156.76C47.05,-149.89 43.04,-142.58 39.27,-135.72"/>
<polygon fill="#3d9e5a" stroke="#3d9e5a" points="47.59,-158.15 55.47,-165.23 53.72,-154.78 47.59,-158.15"/>
<polygon fill="#3d9e5a" stroke="#3d9e5a" points="42.59,-134.49 34.71,-127.41 36.45,-137.86 42.59,-134.49"/>
</g>
<!-- M4 -->
<g id="node4" class="node">
<title>M4</title>
<ellipse fill="#cfe2f3" stroke="#4a90c4" cx="74.07" cy="-23.07" rx="23.07" ry="23.07"/>
<text xml:space="preserve" text-anchor="middle" x="74.07" y="-17.27" font-family="Helvetica,sans-Serif" font-size="14.00">M4</text>
</g>
<!-- M2&#45;&gt;M4 -->
<g id="edge6" class="edge">
<title>M2&#45;&gt;M4</title>
<path fill="none" stroke="#3d9e5a" d="M68.52,-152.76C69.72,-124.92 71.42,-85.56 72.62,-57.71"/>
<polygon fill="#3d9e5a" stroke="#3d9e5a" points="65.03,-152.49 68.1,-162.63 72.02,-152.79 65.03,-152.49"/>
<polygon fill="#3d9e5a" stroke="#3d9e5a" points="76.1,-58.2 73.04,-48.06 69.11,-57.9 76.1,-58.2"/>
</g>
<!-- M3&#45;&gt;M4 -->
<g id="edge3" class="edge">
<title>M3&#45;&gt;M4</title>
<path fill="none" stroke="#3d9e5a" d="M41.18,-75.76C45.91,-68.34 51,-60.34 55.73,-52.9"/>
<polygon fill="#3d9e5a" stroke="#3d9e5a" points="38.39,-73.63 35.97,-83.95 44.29,-77.39 38.39,-73.63"/>
<polygon fill="#3d9e5a" stroke="#3d9e5a" points="58.67,-54.8 61.08,-44.48 52.76,-51.04 58.67,-54.8"/>
</g>
<!-- M4&#45;&gt;M1 -->
<g id="edge4" class="edge">
<title>M4&#45;&gt;M1</title>
<path fill="none" stroke="#3d9e5a" d="M85.63,-55.79C97.6,-93.24 112.78,-157.15 99.07,-210.44 96.41,-220.81 91.45,-231.3 86.23,-240.47"/>
<polygon fill="#3d9e5a" stroke="#3d9e5a" points="89.01,-54.88 82.53,-46.5 82.37,-57.09 89.01,-54.88"/>
<polygon fill="#3d9e5a" stroke="#3d9e5a" points="83.32,-238.52 81.11,-248.88 89.3,-242.16 83.32,-238.52"/>
</g>
</g>
</svg>
