<?xml version="1.0" encoding="UTF-8" standalone="no"?>
<!DOCTYPE svg PUBLIC "-//W3C//DTD SVG 1.1//EN"
 "http://www.w3.org/Graphics/SVG/1.1/DTD/svg11.dtd">
<!-- Title: G Pages: 1 -->
<svg width="206pt" height="260pt"
 viewBox="0.00 0.00 206.00 260.00" xmlns="http://www.w3.org/2000/svg" xmlns:xlink="http://www.w3.org/1999/xlink" font-family="Helvetica Neue, Helvetica, Arial, sans-serif">
<g id="graph0" class="graph" transform="scale(1 1) rotate(0) translate(4 256)">
<title>G</title>
<polygon fill="white" stroke="none" points="-4,4 -4,-256 202,-256 202,4 -4,4"/>
<!-- 1 -->
<g id="node1" class="node">
<title>1</title>
<ellipse fill="#cfe2f3" stroke="#4a90c4" cx="99" cy="-234" rx="18" ry="18"/>
<text xml:space="preserve" text-anchor="middle" x="99" y="-228.95" font-family="Times,serif" font-size="14.00">1</text>
</g>
<!-- 2 -->
<g id="node2" class="node">
<title>2</title>
<ellipse fill="#cfe2f3" stroke="#4a90c4" cx="72" cy="-162" rx="18" ry="18"/>
<text xml:space="preserve" text-anchor="middle" x="72" y="-156.95" font-family="Times,serif" font-size="14.00">2</text>
</g>
<!-- 1&#45;&gt;2 -->
<g id="edge1" class="edge">
<title>1&#45;&gt;2</title>
<path fill="none" stroke="#4a90c4" d="M92.74,-216.76C89.64,-208.72 85.81,-198.81 82.3,-189.69"/>
<polygon fill="#4a90c4" stroke="#4a90c4" points="85.64,-188.63 78.77,-180.56 79.11,-191.15 85.64,-188.63"/>
</g>
<!-- 3 -->
<g id="node3" class="node">
<title>3</title>
<ellipse fill="#cfe2f3" stroke="#4a90c4" cx="126" cy="-162" rx="18" ry="18"/>
<text xml:space="preserve" text-anchor="middle" x="126" y="-156.95" font-family="Times,serif" font-size="14.00">3</text>
</g>
<!-- 1&#45;&gt;3 -->
<g id="edge2" class="edge">
<title>1&#45;&gt;3</title>
<path fill="none" stroke="#4a90c4" d="M105.26,-216.76C108.36,-208.72 112.19,-198.81 115.7,-189.69"/>
<polygon fill="#4a90c4" stroke="#4a90c4" points="118.89,-191.15 119.23,-180.56 112.36,-188.63 118.89,-191.15"/>
</g>
<!-- 4 -->
<g id="node4" class="node">
<title>4</title>
<ellipse fill="#cfe2f3" stroke="#4a90c4" cx="18" cy="-90" rx="18" ry="18"/>
<text xml:space="preserve" text-anchor="middle" x="18" y="-84.95" font-family="Times,serif" font-size="14.00">4</text>
</g>
<!-- 2&#45;&gt;4 -->
<g id="edge3" class="edge">
<title>2&#45;&gt;4</title>
<path fill="none" stroke="#4a90c4" d="M61.33,-147.17C54.01,-137.68 44.12,-124.86 35.64,-113.86"/>
<polygon fill="#4a90c4" stroke="#4a90c4" points="38.45,-111.78 29.57,-106 32.91,-116.06 38.45,-111.78"/>
</g>
<!-- 5 -->
<g id="node5" class="node">
<title>5</title>
<ellipse fill="#cfe2f3" stroke="#4a90c4" cx="72" cy="-90" rx="18" ry="18"/>
<text xml:space="preserve" text-anchor="middle" x="72" y="-84.95" font-family="Times,serif" font-size="14.00">5</text>
</g>
<!-- 2&#45;&gt;5 -->
<g id="edge4" class="edge">
<title>2&#45;&gt;5</title>
<path fill="none" stroke="#4a90c4" d="M72,-143.7C72,-136.41 72,-127.73 72,-119.54"/>
<polygon fill="#4a90c4" stroke="#4a90c4" points="75.5,-119.62 72,-109.62 68.5,-119.62 75.5,-119.62"/>
</g>
<!-- 6 -->
<g id="node6" class="node">
<title>6</title>
<ellipse fill="#cfe2f3" stroke="#4a90c4" cx="126" cy="-90" rx="18" ry="18"/>
<text xml:space="preserve" text-anchor="middle" x="126" y="-84.95" font-family="Times,serif" font-size="14.00">6</text>
</g>
<!-- 3&#45;&gt;6 -->
<g id="edge5" class="edge">
<title>3&#45;&gt;6</title>
<path fill="none" stroke="#4a90c4" d="M126,-143.7C126,-136.41 126,-127.73 126,-119.54"/>
<polygon fill="#4a90c4" stroke="#4a90c4" points="129.5,-119.62 126,-109.62 122.5,-119.62 129.5,-119.62"/>
</g>
<!-- 7 -->
<g id="node7" class="node">
<title>7</title>
<ellipse fill="#cfe2f3" stroke="#4a90c4" cx="180" cy="-90" rx="18" ry="18"/>
<text xml:space="preserve" text-anchor="middle" x="180" y="-84.95" font-family="Times,serif" font-size="14.00">7</text>
</g>
<!-- 3&#45;&gt;7 -->
<g id="edge6" class="edge">
<title>3&#45;&gt;7</title>
<path fill="none" stroke="#4a90c4" d="M136.67,-147.17C143.99,-137.68 153.88,-124.86 162.36,-113.86"/>
<polygon fill="#4a90c4" stroke="#4a90c4" points="165.09,-116.06 168.43,-106 159.55,-111.78 165.09,-116.06"/>
</g>
<!-- 8 -->
<g id="node8" class="node">
<title>8</title>
<ellipse fill="#cfe2f3" stroke="#4a90c4" cx="18" cy="-18" rx="18" ry="18"/>
<text xml:space="preserve" text-anchor="middle" x="18" y="-12.95" font-family="Times,serif" font-size="14.00">8</text>
</g>
<!-- 4&#45;&gt;8 -->
<g id="edge7" class="edge">
<title>4&#45;&gt;8</title>
<path fill="none" stroke="#4a90c4" d="M18,-71.7C18,-64.41 18,-55.73 18,-47.54"/>
<polygon fill="#4a90c4" stroke="#4a90c4" points="21.5,-47.62 18,-37.62 14.5,-47.62 21.5,-47.62"/>
</g>
</g>
</svg>
