<?xml version="1.0" encoding="UTF-8" standalone="no"?>
<!-- Created with Inkscape (http://www.inkscape.org/) -->

<svg
   version="1.1"
   id="svg1"
   width="516.17468"
   height="235.136"
   viewBox="0 0 516.17468 235.136"
   xmlns="http://www.w3.org/2000/svg"
   xmlns:svg="http://www.w3.org/2000/svg">
  <defs
     id="defs1" />
  <g
     id="g1">
    <path
       id="path1"
       d="m 17.41588,0 h 43.31694 l -2e-4,125.12721 c -0.24431,0.79357 -0.49811,1.57749 -0.68666,2.10626 -0.32929,0.92316 -0.85733,2.20121 -1.18662,2.85744 -0.32926,0.65622 -0.85734,1.50006 -1.18661,1.87221 -0.32929,0.37215 -0.85733,0.73278 -1.18662,0.80997 -0.32926,0.0772 -0.85733,-0.0361 -1.1866,-0.25364 -0.32926,-0.21757 -0.85733,-0.80807 -1.18659,-1.31451 -0.32929,-0.50644 -0.85735,-1.5508 -1.18664,-2.33562 -0.32926,-0.78482 -0.85733,-2.27592 -1.18659,-3.32087 -0.32929,-1.04495 -0.85735,-2.93137 -1.18664,-4.21048 -0.32926,-1.2791 -0.85733,-3.52304 -1.18659,-5.00849 -0.32927,-1.48544 -0.85734,-4.03735 -1.1866,-5.69764 -0.32929,-1.66028 -0.85735,-4.47014 -1.18663,-6.26859 -0.32927,-1.79846 -0.85733,-4.7937 -1.1866,-6.6935 -0.32927,-1.89979 -0.85733,-5.03279 -1.1866,-6.9989 C 44.29074,88.70476 43.76268,85.49696 43.43341,83.49936 43.10414,81.50174 42.57607,78.26918 42.2468,76.2734 41.91751,74.27763 41.38947,71.0776 41.06018,69.11517 40.73091,67.15276 40.20284,64.03322 39.87357,62.12956 39.5443,60.2259 39.01624,57.21732 38.68697,55.39491 38.35768,53.5725 37.82964,50.71576 37.50035,48.99486 37.17108,47.27397 36.643,44.59908 36.31374,42.99184 35.98445,41.38461 35.4564,38.89282 35.12712,37.41106 34.79785,35.92929 34.26979,33.6647 33.94052,32.31227 33.61125,30.95984 33.08318,28.8854 32.7539,27.66359 32.42462,26.44179 31.89658,24.5952 31.56729,23.50623 31.23802,22.41724 30.70996,20.77843 30.38069,19.81491 30.05142,18.8514 29.52335,17.40573 29.19408,16.56177 28.86479,15.71782 28.33673,14.462 28.00746,13.7322 27.67819,13.0024 27.15012,11.92741 26.82085,11.30183 26.49156,10.67624 25.96352,9.75546 25.63423,9.22337 25.30496,8.69127 24.7769,7.91454 24.44763,7.4668 24.11836,7.01904 23.5903,6.36952 23.26103,5.99628 22.93175,5.62303 22.40369,5.0849 22.0744,4.77667 21.74513,4.46843 21.21707,4.02682 20.8878,3.77463 20.55852,3.52243 20.03046,3.16336 19.70117,2.95888 19.3719,2.7544 18.84384,2.46513 18.51457,2.30084 18.1853,2.13655 17.65724,1.90556 17.32797,1.77475 16.99869,1.64394 16.47063,1.46123 16.14134,1.358 15.81207,1.25478 15.28401,1.1115 14.95474,1.03078 14.78705,0.98964 14.48238,0.92436 14.2239,0.87749 Z"
       style="fill:#54b435;fill-opacity:1;fill-rule:nonzero;stroke:none"
       transform="matrix(1.3333333,0,0,-1.3333333,32.781333,192.76933)" />
    <path
       id="path2"
       d="m 104.04771,0 h 47.32955 l -1.6879,0.95372 c 0,0 -0.91783,0.1864 -1.27034,0.27072 -0.35251,0.08431 -0.91782,0.23244 -1.27032,0.33699 -0.35251,0.10456 -0.91782,0.28794 -1.27033,0.41663 -0.35251,0.12871 -0.91781,0.35377 -1.27032,0.51097 -0.3525,0.15718 -0.91782,0.43144 -1.27033,0.62201 -0.35249,0.19055 -0.91782,0.52222 -1.27031,0.75146 -0.35251,0.22924 -0.91783,0.62717 -1.27032,0.90084 -0.35251,0.27366 -0.91785,0.7474 -1.27034,1.07159 -0.35251,0.3242 -0.91782,0.88397 -1.27033,1.265 -0.3525,0.38101 -0.91781,1.03697 -1.27032,1.48126 -0.35251,0.44429 -0.91782,1.20806 -1.27033,1.72096 -0.3525,0.51293 -0.91781,1.38569 -1.27032,1.97582 -0.35249,0.59015 -0.91782,1.60644 -1.27032,2.27759 -0.3525,0.67112 -0.91782,1.80183 -1.27033,2.55955 -0.3525,0.75771 -0.91783,2.05272 -1.27032,2.90159 -0.35251,0.84885 -0.91784,2.27677 -1.27033,3.21645 -0.35251,0.9397 -0.91783,2.5221 -1.27032,3.55622 -0.35251,1.03413 -0.91782,2.76996 -1.27033,3.89711 -0.3525,1.12715 -0.91781,3.00837 -1.27032,4.22668 -0.35251,1.21829 -0.91782,3.25101 -1.27033,4.554 -0.35251,1.30298 -0.91783,3.45868 -1.27034,4.83712 -0.35249,1.37842 -0.91781,3.65319 -1.27032,5.09761 -0.35249,1.44442 -0.91782,3.81495 -1.27031,5.3128 -0.35251,1.49785 -0.91783,3.94556 -1.27033,5.48268 -0.35251,1.53714 -0.91783,4.03997 -1.27032,5.59595 -0.35251,1.55598 -0.91782,4.06244 -1.27033,5.61859 -0.3525,1.55615 -0.91781,4.06136 -1.27032,5.59708 -0.35251,1.53572 -0.91783,3.98137 -1.27034,5.47136 -0.35251,1.48999 -0.91782,3.84648 -1.27033,5.26748 -0.35249,1.42101 -0.91781,3.64444 -1.27032,4.97417 -0.35249,1.32971 -0.91782,3.39326 -1.27032,4.60951 -0.3525,1.21625 -0.91782,3.07817 -1.27031,4.15645 -0.35251,1.07828 -0.91784,2.69382 -1.27033,3.61513 -0.35251,0.92129 -0.91783,2.2769 -1.27033,3.02504 -0.3525,0.74812 -0.91783,1.80919 -1.27033,2.36702 -0.32309,0.51126 -0.82494,1.17334 -1.17817,1.56404 z"
       style="fill:#0061a8;fill-opacity:1;fill-rule:nonzero;stroke:none"
       transform="matrix(1.3333333,0,0,-1.3333333,32.781333,192.76933)" />
    <path
       id="path3"
       d="m 13.76814,0.77612 c 0,0 0.85733,0.17394 1.1866,0.25466 0.32927,0.08072 0.85733,0.224 1.1866,0.32722 0.32929,0.10323 0.85735,0.28594 1.18663,0.41675 0.32927,0.13081 0.85733,0.3618 1.1866,0.52609 0.32927,0.16429 0.85733,0.45356 1.1866,0.65804 0.32929,0.20448 0.85735,0.56355 1.18663,0.81575 0.32927,0.25219 0.85733,0.6938 1.1866,1.00204 0.32929,0.30823 0.85735,0.84636 1.18663,1.21961 0.32927,0.37324 0.85733,1.02276 1.1866,1.47052 0.32927,0.44774 0.85733,1.22447 1.1866,1.75657 0.32929,0.53209 0.85733,1.45287 1.18662,2.07846 0.32927,0.62558 0.85734,1.70057 1.18661,2.43037 0.32927,0.7298 0.85733,1.98562 1.18662,2.82957 0.32927,0.84396 0.85734,2.28963 1.18661,3.25314 0.32927,0.96352 0.85733,2.60233 1.1866,3.69132 0.32929,1.08897 0.85733,2.93556 1.18661,4.15736 0.32928,1.22181 0.85735,3.29625 1.18662,4.64868 0.32927,1.35243 0.85733,3.61702 1.1866,5.09879 0.32928,1.48176 0.85733,3.97355 1.18662,5.58078 0.32926,1.60724 0.85734,4.28213 1.18661,6.00302 0.32929,1.7209 0.85733,4.57764 1.18662,6.40005 0.32927,1.82241 0.85733,4.83099 1.1866,6.73465 0.32927,1.90366 0.85734,5.0232 1.18661,6.98561 0.32929,1.96243 0.85733,5.16246 1.18662,7.15823 0.32927,1.99578 0.85734,5.22834 1.18661,7.22596 0.32927,1.9976 0.85733,5.2054 1.18662,7.17149 0.32927,1.96611 0.85733,5.09911 1.1866,6.9989 0.32927,1.8998 0.85733,4.89504 1.1866,6.6935 0.32928,1.79845 0.85734,4.60831 1.18663,6.26859 0.32926,1.66029 0.85733,4.2122 1.1866,5.69764 0.32926,1.48545 0.85733,3.72939 1.18659,5.00849 0.32929,1.27911 0.85735,3.16553 1.18664,4.21048 0.32926,1.04495 0.85733,2.53605 1.18659,3.32087 0.32929,0.78482 0.85735,1.82918 1.18664,2.33562 0.32926,0.50644 0.85733,1.09694 1.18659,1.31451 0.32927,0.21758 0.85734,0.33082 1.1866,0.25364 0.32929,-0.0772 0.85733,-0.43782 1.18662,-0.80997 0.32927,-0.37215 0.85735,-1.21599 1.18661,-1.87221 0.32929,-0.65623 0.85733,-1.93428 1.18662,-2.85744 0.32927,-0.92317 0.85734,-2.62416 1.18661,-3.79623 0.32927,-1.17207 0.85733,-3.25798 1.1866,-4.65132 0.32929,-1.39332 0.85733,-3.81003 1.18662,-5.39092 0.32927,-1.58088 0.85733,-4.26721 1.1866,-6.00303 0.32927,-1.73583 0.85733,-4.65 1.1866,-6.50759 0.32928,-1.85758 0.85733,-4.9402 1.18661,-6.8807 0.32927,-1.94051 0.85733,-5.11875 1.1866,-7.10512 0.32929,-1.98637 0.85733,-5.21004 1.18662,-7.21133 0.32927,-2.0013 0.85733,-5.22982 1.1866,-7.21268 0.32927,-1.98288 0.85733,-5.14562 1.1866,-7.07857 0.32928,-1.93294 0.85733,-4.99155 1.18661,-6.85283 0.32927,-1.8613 0.85733,-4.79105 1.1866,-6.56204 0.32929,-1.77101 0.85733,-4.53824 1.18662,-6.20219 0.32927,-1.66398 0.85733,-4.2484 1.1866,-5.79059 0.32927,-1.54219 0.85733,-3.91111 1.1866,-5.32453 0.32928,-1.41342 0.85733,-3.57982 1.18661,-4.86242 0.32927,-1.28261 0.85733,-3.23015 1.1866,-4.38178 0.32927,-1.15163 0.85733,-2.89572 1.1866,-3.91838 0.32929,-1.02267 0.85734,-2.55289 1.18662,-3.4523 0.32927,-0.89942 0.85732,-2.24722 1.1866,-3.03008 0.32928,-0.78284 0.85732,-1.93861 1.18661,-2.61228 0.32927,-0.67368 0.85733,-1.66778 1.1866,-2.2432 0.32927,-0.57542 0.85733,-1.41776 1.1866,-1.90414 0.32929,-0.48639 0.85733,-1.19416 1.18661,-1.6014 0.32928,-0.40724 0.85734,-0.99605 1.1866,-1.33383 0.32929,-0.3378 0.85734,-0.82319 1.18662,-1.1008 0.32927,-0.2776 0.85733,-0.67401 1.1866,-0.90005 0.32927,-0.22606 0.85733,-0.54688 1.1866,-0.72928 0.32928,-0.18239 0.85733,-0.43955 1.18661,-0.58539 0.32927,-0.14586 0.85734,-0.35024 1.1866,-0.46579 0.32927,-0.11557 0.85733,-0.27648 1.18662,-0.36723 0.32927,-0.09078 0.85733,-0.21637 1.1866,-0.28704 0.32927,-0.07066 0.85733,-0.1678 1.1866,-0.22232 0.32928,-0.0545 0.85733,-0.12898 1.18661,-0.17069 0.32927,-0.0417 0.85734,-0.09829 1.1866,-0.1299 0.32927,-0.03162 0.85734,-0.07426 1.1866,-0.09801 0.32929,-0.02376 0.85734,-0.05561 1.18662,-0.07332 0.32927,-0.01772 0.85733,-0.04126 1.1866,-0.05434 0.32928,-0.01308 0.85732,-0.03033 1.1866,-0.03992 0.32927,-0.00958 1.1866,-0.02912 1.1866,-0.02912"
       style="fill:none;stroke:#54b435;stroke-width:0.79701;stroke-linecap:butt;stroke-linejoin:miter;stroke-miterlimit:10;stroke-dasharray:none;stroke-opacity:1"
       transform="matrix(1.3333333,0,0,-1.3333333,32.781333,192.76933)" />
    <path
       id="path4"
       d="m 49.33365,0.37135 c 0,0 0.91781,0.08005 1.27032,0.11701 0.35251,0.03695 0.91782,0.10238 1.27033,0.14944 0.3525,0.04708 0.91781,0.13034 1.27032,0.18982 0.3525,0.05946 0.91783,0.16432 1.27034,0.23889 0.3525,0.07459 0.91782,0.20581 1.27033,0.29868 0.35249,0.09286 0.91781,0.25589 1.27031,0.37067 0.3525,0.11477 0.91783,0.31579 1.27032,0.45658 0.35251,0.14078 0.91783,0.38674 1.27034,0.55812 0.35251,0.17139 0.91782,0.47013 1.27033,0.67719 0.35251,0.20706 0.91781,0.56705 1.27032,0.81529 0.35251,0.24826 0.91783,0.67862 1.27034,0.97397 0.35249,0.29533 0.91782,0.80602 1.27033,1.15468 0.35249,0.34866 0.91781,0.94995 1.27032,1.35829 0.3525,0.40834 0.91782,1.11034 1.27031,1.58481 0.35251,0.47447 0.91783,1.2885 1.27032,1.83491 0.35251,0.54642 0.91784,1.47826 1.27033,2.1034 0.35251,0.62513 0.91782,1.69345 1.27032,2.40214 0.35252,0.70871 0.91784,1.909 1.27034,2.70569 0.35251,0.79669 0.91782,2.14649 1.27033,3.03637 0.35251,0.88987 0.91781,2.39483 1.27032,3.37725 0.3525,0.98242 0.91782,2.62847 1.27033,3.70346 0.35249,1.075 0.91781,2.87633 1.27032,4.04434 0.3525,1.16802 0.91782,3.11806 1.27031,4.37391 0.35251,1.25585 0.91783,3.34002 1.27033,4.67744 0.35251,1.3374 0.91783,3.55186 1.27034,4.9617 0.3525,1.40985 0.91781,3.72826 1.27032,5.19955 0.35251,1.4713 0.91782,3.88627 1.27033,5.40453 0.3525,1.51828 0.91781,3.99164 1.27032,5.53819 0.35249,1.54656 0.91782,4.05054 1.27033,5.6084 0.35249,1.55788 0.91781,4.06987 1.27032,5.61972 0.35249,1.54987 0.91782,4.03238 1.27031,5.55065 0.35251,1.51826 0.91785,3.92895 1.27034,5.39207 0.35251,1.46312 0.91783,3.7684 1.27033,5.15311 0.3525,1.3847 0.91781,3.54594 1.27032,4.82693 0.35251,1.28099 0.91782,3.24877 1.27032,4.40563 0.35251,1.15686 0.91782,2.91978 1.27033,3.93222 0.35251,1.01243 0.91781,2.51942 1.27033,3.36482 0.35249,0.8454 0.91782,2.06361 1.27033,2.72832 0.3525,0.66468 0.91782,1.59063 1.27033,2.06236 0.35249,0.47174 0.91781,1.07027 1.27031,1.33757 0.35251,0.26729 0.91783,0.53094 1.27032,0.58893 0.35251,0.058 0.91782,-0.0185 1.27033,-0.17102 0.35251,-0.15259 0.91781,-0.57045 1.27032,-0.92871 0.35251,-0.35827 0.91782,-1.09569 1.27033,-1.65352 0.3525,-0.55783 0.91783,-1.6189 1.27033,-2.36702 0.3525,-0.74814 0.91782,-2.10375 1.27033,-3.02504 0.35249,-0.92131 0.91782,-2.53685 1.27033,-3.61513 0.35249,-1.07828 0.91781,-2.9402 1.27031,-4.15645 0.3525,-1.21625 0.91783,-3.2798 1.27032,-4.60951 0.35251,-1.32973 0.91783,-3.55316 1.27032,-4.97417 0.35251,-1.421 0.91782,-3.77749 1.27033,-5.26748 0.35251,-1.48999 0.91783,-3.93564 1.27034,-5.47136 0.35251,-1.53572 0.91782,-4.04093 1.27032,-5.59708 0.35251,-1.55615 0.91782,-4.06261 1.27033,-5.61859 0.35249,-1.55598 0.91781,-4.05881 1.27032,-5.59595 0.3525,-1.53712 0.91782,-3.98483 1.27033,-5.48268 0.35249,-1.49785 0.91782,-3.86838 1.27031,-5.3128 0.35251,-1.44442 0.91783,-3.71919 1.27032,-5.09761 0.35251,-1.37844 0.91783,-3.53414 1.27034,-4.83712 0.35251,-1.30299 0.91782,-3.33571 1.27033,-4.554 0.35251,-1.21831 0.91782,-3.09953 1.27032,-4.22668 0.35251,-1.12715 0.91782,-2.86298 1.27033,-3.89711 0.35249,-1.03412 0.91781,-2.61652 1.27032,-3.55622 0.35249,-0.93968 0.91782,-2.3676 1.27033,-3.21645 0.35249,-0.84887 0.91782,-2.14388 1.27032,-2.90159 0.35251,-0.75772 0.91783,-1.88843 1.27033,-2.55955 0.3525,-0.67115 0.91783,-1.68744 1.27032,-2.27759 0.35251,-0.59013 0.91782,-1.46289 1.27032,-1.97582 0.35251,-0.5129 0.91782,-1.27667 1.27033,-1.72096 0.35251,-0.44429 0.91782,-1.10025 1.27032,-1.48126 0.35251,-0.38103 0.91782,-0.9408 1.27033,-1.265 0.35249,-0.32419 0.91783,-0.79793 1.27034,-1.07159 0.35249,-0.27367 0.91781,-0.6716 1.27032,-0.90084 0.35249,-0.22924 0.91782,-0.56091 1.27031,-0.75146 0.35251,-0.19057 0.91783,-0.46483 1.27033,-0.62201 0.35251,-0.1572 0.91781,-0.38226 1.27032,-0.51097 0.35251,-0.12869 0.91782,-0.31207 1.27033,-0.41663 0.3525,-0.10455 0.91781,-0.25268 1.27032,-0.33699 0.35251,-0.08432 1.27034,-0.27072 1.27034,-0.27072"
       style="fill:none;stroke:#0061a8;stroke-width:0.79701;stroke-linecap:butt;stroke-linejoin:miter;stroke-miterlimit:10;stroke-dasharray:none;stroke-opacity:1"
       transform="matrix(1.3333333,0,0,-1.3333333,32.781333,192.76933)" />
    <path
       id="path5"
       d="m 13.76814,-6.75632 c 0.74718,-1.49443 2.49069,-2.49069 4.98139,-2.49069 H 32.2691 c 2.4907,0 4.23421,-0.99626 4.98139,-2.49069 0.74718,1.49443 2.49069,2.49069 4.98138,2.49069 h 13.51959 c 2.4907,0 4.23421,0.99626 4.98139,2.49069"
       style="fill:none;stroke:#c9146e;stroke-width:0.79701;stroke-linecap:butt;stroke-linejoin:miter;stroke-miterlimit:10;stroke-dasharray:none;stroke-opacity:1"
       transform="matrix(1.3333333,0,0,-1.3333333,32.781333,192.76933)" />
    <path
       id="path6"
       d="m 104.04982,-6.75632 c 0.74718,-1.49443 2.49069,-2.49069 4.98138,-2.49069 h 13.70198 c 2.4907,0 4.23421,-0.99626 4.98139,-2.49069 0.74718,1.49443 2.49069,2.49069 4.98138,2.49069 h 13.70198 c 2.4907,0 4.23421,0.99626 4.98139,2.49069"
       style="fill:none;stroke:#c9146e;stroke-width:0.79701;stroke-linecap:butt;stroke-linejoin:miter;stroke-miterlimit:10;stroke-dasharray:none;stroke-opacity:1"
       transform="matrix(1.3333333,0,0,-1.3333333,32.781333,192.76933)" />
    <path
       id="path7"
       d="m 4.7918672,-0.43403906 c -0.082031,0.0117188 -0.1171875,0.0117188 -0.1523438,0.0117188 -0.2695312,0 -0.4101562,-0.12890625 -0.4101562,-0.36328125 V -3.5512266 c 0,-0.8320312 -0.609375,-1.2773437 -1.7695313,-1.2773437 -0.6796875,0 -1.2421875,0.1875 -1.55859371,0.5390625 -0.2109375,0.2460937 -0.3046875,0.515625 -0.31640625,0.984375 H 1.3348359 c 0.058594,-0.5742188 0.3984375,-0.8320313 1.1015625,-0.8320313 0.6679688,0 1.0546875,0.2460938 1.0546875,0.6914063 v 0.1992187 c 0,0.3164063 -0.1875,0.4453125 -0.7851562,0.515625 -1.0546875,0.140625 -1.21875,0.1757813 -1.5,0.2929688 -0.55078126,0.2226562 -0.83203126,0.6445312 -0.83203126,1.2539062 0,0.85546879 0.59765625,1.39453129 1.54687496,1.39453129 0.5859375,0 1.0664063,-0.2109375025 1.59375,-0.69140625 0.046875,0.46875 0.28125,0.69140625 0.7734375,0.69140625 0.1523438,0 0.2695313,-0.0234375 0.5039063,-0.0820313 z M 3.4910859,-1.4770078 c 0,0.2460937 -0.082031,0.3984375 -0.3046875,0.60937499 -0.3046875,0.28125 -0.6679687,0.421875 -1.1132812,0.421875 -0.5742188,0 -0.9140625,-0.28125 -0.9140625,-0.76171879 0,-0.4921875 0.328125,-0.7382812 1.125,-0.8554687 0.7851562,-0.1054688 0.9492187,-0.140625 1.2070312,-0.2578125 z m 2.3261719,3.375 c 0.9023438,-1.17187501 1.4648438,-2.80078126 1.4648438,-4.2070313 0,-1.4179687 -0.5625,-3.046875 -1.4648438,-4.2304687 H 5.3250703 c 0.7851563,1.2890625 1.2304688,2.7890625 1.2304688,4.2304687 0,1.41796879 -0.4453125,2.94140629 -1.2304688,4.2070313 z M 11.260617,-4.453125e-4 h 2.519531 c 1.652344,0 2.660157,-1.2421874875 2.660157,-3.2695312875 0,-2.0273437 -0.996094,-3.2695312 -2.660157,-3.2695312 H 11.260617 Z M 12.092648,-0.73872656 V -5.8012266 h 1.546875 c 1.289063,0 1.96875,0.8671875 1.96875,2.5429688 0,1.640625 -0.679687,2.51953124 -1.96875,2.51953124 z m 6.19336,-3.96093754 h -0.75 v 4.6992187875 h 0.75 z m 0,-1.8398437 h -0.761719 v 0.9492187 h 0.761719 z M 21.482297,-4.453125e-4 23.286984,-4.6996641 h -0.84375 l -1.324218,3.80859379 -1.253907,-3.80859379 h -0.84375 l 1.640625,4.6992187875 z M 27.781125,-2.0981016 c 0,-0.7148437 -0.04687,-1.1484375 -0.1875,-1.5 -0.304687,-0.7734375 -1.019531,-1.2304687 -1.898437,-1.2304687 -1.300782,0 -2.144532,0.9960937 -2.144532,2.5429687 0,1.54687504 0.808594,2.49609379 2.132813,2.49609379 1.066406,0 1.816406,-0.609375 2.003906,-1.64062499 h -0.75 c -0.210937,0.62109374 -0.632812,0.94921874 -1.230469,0.94921874 -0.480468,0 -0.878906,-0.22265625 -1.125,-0.60937504 -0.1875,-0.2695312 -0.246093,-0.5390625 -0.257812,-1.0078125 z m -3.433594,-0.609375 c 0.05859,-0.8671875 0.585938,-1.4296875 1.335938,-1.4296875 0.738281,0 1.300781,0.609375 1.300781,1.3710938 0,0.023437 0,0.035156 0,0.058594 z m 4.447266,-1.9921875 v 4.6992187875 h 0.75 V -2.4379453 c 0,-0.6679688 0.175781,-1.1132813 0.527344,-1.3710938 0.234375,-0.1757812 0.457031,-0.2226562 0.984375,-0.234375 v -0.7617187 c -0.128907,-0.023437 -0.199219,-0.023437 -0.292969,-0.023437 -0.480469,0 -0.855469,0.28125 -1.277344,0.984375 v -0.8554688 z m 6.290039,1.3125 c -0.01172,-0.9257812 -0.621094,-1.4414062 -1.699219,-1.4414062 -1.101562,0 -1.804687,0.5625 -1.804687,1.4296875 0,0.7382812 0.375,1.0898437 1.488281,1.359375 l 0.703125,0.1640625 c 0.515625,0.1289062 0.726562,0.3164062 0.726562,0.65625 0,0.43359374 -0.445312,0.73828124 -1.101562,0.73828124 -0.398438,0 -0.738281,-0.1171875 -0.925781,-0.31640625 -0.117188,-0.140625 -0.175782,-0.26953129 -0.222657,-0.59765629 h -0.785156 c 0.03516,1.07812504 0.644531,1.60546879 1.875,1.60546879 1.183594,0 1.933594,-0.5859375 1.933594,-1.48828129 0,-0.703125 -0.398438,-1.0898437 -1.324219,-1.3125 l -0.714844,-0.1757812 c -0.609375,-0.140625 -0.867187,-0.3398438 -0.867187,-0.6679688 0,-0.4335937 0.375,-0.703125 0.984375,-0.703125 0.609375,0 0.925781,0.2578125 0.949219,0.75 z m 1.904297,-1.3125 h -0.75 v 4.6992187875 h 0.75 z m 0,-1.8398437 h -0.761719 v 0.9492187 h 0.761719 z m 2.915039,1.8398437 h -0.761719 v -1.2890625 h -0.75 v 1.2890625 h -0.632812 v 0.609375 h 0.632812 v 3.55078129 c 0,0.48046875 0.328125,0.75 0.902344,0.75 0.1875,0 0.363281,-0.0234375 0.609375,-0.0703125 v -0.62109375 c -0.09375,0.0234375 -0.210938,0.0351563 -0.351563,0.0351563 -0.328125,0 -0.410156,-0.09375 -0.410156,-0.421875 V -4.0902891 h 0.761719 z m 3.700195,0 -1.300781,3.65625 -1.207031,-3.65625 H 40.29968 l 1.59375,4.72265629 -0.292969,0.73828125 c -0.117188,0.32812496 -0.28125,0.45703126 -0.597656,0.45703126 -0.105469,0 -0.234375,-0.011719 -0.398438,-0.058594 v 0.6796875 c 0.152344,0.082031 0.304688,0.1171875 0.503906,0.1171875 0.246094,0 0.503907,-0.082031 0.703125,-0.2226562 0.234375,-0.1757813 0.363282,-0.375 0.503907,-0.75000001 l 2.097656,-5.68359379 z m 8.830078,0.082031 c -0.01172,-1.2773438 -0.890625,-2.0273438 -2.390625,-2.0273438 -1.441406,0 -2.320312,0.7382813 -2.320312,1.921875 0,0.796875 0.421875,1.3007813 1.277344,1.5234375 l 1.617187,0.4335938 c 0.832031,0.2109375 1.207031,0.5390625 1.207031,1.0546875 0,0.3515625 -0.1875,0.703125 -0.46875,0.90234374 -0.257812,0.17578125 -0.667968,0.28125 -1.195312,0.28125 -0.714844,0 -1.195313,-0.17578125 -1.511719,-0.55078124 -0.246094,-0.28125 -0.351562,-0.5976563 -0.339844,-0.9960938 h -0.785156 c 0,0.5976563 0.117188,0.984375 0.386719,1.34765629 0.445312,0.609375 1.195312,0.9375 2.191406,0.9375 0.785156,0 1.417969,-0.1875 1.839844,-0.50390625 0.433594,-0.3515625 0.714844,-0.93750004 0.714844,-1.50000004 0,-0.8085937 -0.503907,-1.3945312 -1.394532,-1.640625 l -1.640625,-0.4335937 c -0.785156,-0.2226563 -1.066406,-0.46875 -1.066406,-0.9726563 0,-0.6679687 0.574219,-1.1015625 1.453125,-1.1015625 1.042969,0 1.628906,0.46875 1.640625,1.3242188 z m 1.271485,-1.921875 v 6.5390624875 h 0.738281 V -2.5902891 c 0,-0.9609375 0.503906,-1.5820312 1.277344,-1.5820312 0.234375,0 0.480468,0.070312 0.65625,0.2109375 0.222656,0.1523437 0.304687,0.375 0.304687,0.703125 v 3.2578124875 h 0.75 V -3.5512266 c 0,-0.7851562 -0.5625,-1.2773437 -1.476562,-1.2773437 -0.667969,0 -1.066407,0.1992187 -1.511719,0.7734375 v -2.484375 z m 5.698242,1.8398437 h -0.75 v 4.6992187875 h 0.75 z m 0,-1.8398437 h -0.761719 v 0.9492187 h 0.761719 z m 2.953125,1.8398437 h -0.773438 v -0.7382812 c 0,-0.3046875 0.175782,-0.46875 0.515625,-0.46875 0.07031,0 0.09375,0 0.257813,0.011719 v -0.6210937 c -0.164063,-0.035156 -0.269531,-0.046875 -0.421875,-0.046875 -0.679688,0 -1.101563,0.3984375 -1.101563,1.0664062 v 0.796875 h -0.621093 v 0.609375 h 0.621093 v 4.0898437875 h 0.75 V -4.0902891 h 0.773438 z m 2.458008,0 h -0.761719 v -1.2890625 h -0.75 v 1.2890625 h -0.632813 v 0.609375 h 0.632813 v 3.55078129 c 0,0.48046875 0.328125,0.75 0.902344,0.75 0.1875,0 0.363281,-0.0234375 0.609375,-0.0703125 v -0.62109375 c -0.09375,0.0234375 -0.210938,0.0351563 -0.351563,0.0351563 -0.328125,0 -0.410156,-0.09375 -0.410156,-0.421875 V -4.0902891 h 0.761719 z m 0,0"
       style="fill:#000000;fill-opacity:1;fill-rule:nonzero;stroke:none"
       aria-label="a)DiversityShift"
       transform="matrix(1.3333333,0,0,1.3333333,99.396,228.192)" />
    <path
       id="path8"
       d="m 1.2436172,-0.7616875 c 0.1875,-0.22265625 0.6796875,-0.6679688 1.0664062,-0.9960938 0.6679688,-0.5625 0.8789063,-0.7617187 0.9960938,-0.890625 0.7265625,-0.703125 0.9726562,-1.1601562 0.9726562,-1.21875 0,0 0,-0.09375 -0.1171875,-0.09375 -0.082031,0 -0.09375,0.023437 -0.140625,0.09375 -0.1171875,0.1875 -0.3632812,0.5625 -0.6679687,0.5625 -0.1757813,0 -0.2929688,-0.09375 -0.5039063,-0.328125 -0.2109375,-0.234375 -0.3867187,-0.328125 -0.6210937,-0.328125 -0.6796875,0 -1.1015625,0.8203125 -1.1015625,1.0429688 0,0.035156 0.011719,0.1054687 0.1171875,0.1054687 0.082031,0 0.1171875,-0.058594 0.1171875,-0.082031 0.1757812,-0.4335938 0.703125,-0.4335938 0.7734375,-0.4335938 0.2109375,0 0.421875,0.070312 0.6210937,0.140625 0.3515625,0.1171875 0.5039063,0.1171875 0.6445313,0.1171875 -0.28125,0.3046875 -0.7851563,0.7382813 -1.3476563,1.21875 -0.4453125,0.3867188 -0.7265625,0.65625 -0.9257812,0.8554688 C 0.79830469,-0.6445 0.39986719,-0.09371875 0.39986719,3.125e-5 c 0,0.05859375 0.0351563,0.09375 0.1171875,0.09375 0.0703125,0 0.09375,-0.03515625 0.140625,-0.08203125 0.35156251,-0.5390625 0.67968751,-0.57421875 0.77343751,-0.57421875 0.234375,0 0.3515625,0.12890625 0.5507812,0.36328125 0.2109375,0.22265625 0.3984375,0.29296875 0.5859375,0.29296875 0.9257813,0 1.453125,-1.14843755 1.453125,-1.38281255 0,-0.082031 -0.058594,-0.1054687 -0.1171875,-0.1054687 -0.09375,0 -0.1054687,0.058594 -0.1289062,0.09375 -0.2460938,0.66796875 -0.8789063,0.76171875 -1.1132813,0.76171875 -0.1640625,0 -0.3515625,-0.046875 -0.6210937,-0.12890625 C 1.8647109,-0.7265313 1.6537734,-0.785125 1.4662734,-0.785125 c -0.09375,0 -0.1875,0.0117188 -0.2226562,0.0234375 z m 0,0"
       style="fill:#000000;fill-opacity:1;fill-rule:nonzero;stroke:none"
       aria-label="z"
       transform="matrix(1.3333333,0,0,1.3333333,254.752,202.60933)" />
    <path
       id="path9"
       d="m 0.41142187,1.1258984 c -0.0585938,0.2578125 -0.0820313,0.3398438 -0.46875,0.3398438 -0.09375,0 -0.19921875,0 -0.19921875,0.1523437 0,0.046875 0.0117187,0.1171875 0.1171875,0.1171875 l 0.38671875,-0.011719 c 0.046875,-0.011719 0.2578125,-0.011719 0.38671875,-0.011719 0.15234375,0 0.3046875,0.011719 0.45703128,0.011719 0.140625,0 0.2929687,0.011719 0.421875,0.011719 0.058594,0 0.1757812,0 0.1757812,-0.1523437 0,-0.1171875 -0.09375,-0.1171875 -0.2460937,-0.1171875 -0.421875,0 -0.421875,-0.070312 -0.421875,-0.1523438 0,-0.046875 0.070312,-0.2929687 0.1054687,-0.43359371 l 0.328125,-1.3359375 c 0.09375,0.1875 0.3398438,0.55078125 0.8554688,0.55078125 1.0429687,0 2.1914062,-1.25390624 2.1914062,-2.60156254 0,-0.9140625 -0.5625,-1.453125 -1.2421875,-1.453125 -0.1875,0 -0.6328125,0.046875 -1.1835937,0.65625 -0.1289063,-0.5039062 -0.5390625,-0.65625 -0.84375,-0.65625 -0.37500003,0 -0.56250003,0.28125 -0.69140628,0.515625 -0.15234375,0.3164063 -0.28125,0.8320313 -0.28125,0.8671875 0,0.082031 0.0703125,0.1054688 0.12890625,0.1054688 0.09375,0 0.1171875,-0.046875 0.1640625,-0.2226563 0.1640625,-0.7148437 0.3515625,-1.0429687 0.65625003,-1.0429687 0.2695312,0 0.2695312,0.28125 0.2695312,0.421875 0,0.070312 -0.011719,0.2109375 -0.023437,0.28125 z m 1.62890623,-3.890625 c 0.035156,-0.1757812 0.035156,-0.1875 0.1523438,-0.328125 0.2460937,-0.3046875 0.65625,-0.6445312 1.0546875,-0.6445312 0.421875,0 0.5859375,0.421875 0.5859375,0.84375 0,0.3984375 -0.2460938,1.5117187 -0.5273438,1.99218749 -0.3046875,0.50390625 -0.6796875,0.7734375 -1.0078125,0.7734375 -0.5859375,0 -0.7265625,-0.703125 -0.7265625,-0.76171875 0,-0.0585938 0.011719,-0.10546875 0.023437,-0.15234374 z m 0,0"
       style="fill:#000000;fill-opacity:1;fill-rule:nonzero;stroke:none"
       aria-label="p"
       transform="matrix(1.3333333,0,0,1.3333333,4.428,13.393333)" />
    <path
       id="path10"
       d="m 3.0598359,2.1337109 c 0,-0.046875 -0.023437,-0.070312 -0.082031,-0.1289062 -1.1601563,-1.06640626 -1.5117188,-2.67187501 -1.5117188,-4.2421875 0,-1.3945313 0.2695313,-3.0820313 1.5351563,-4.2773438 0.035156,-0.035156 0.058594,-0.070312 0.058594,-0.1054687 0,-0.070312 -0.046875,-0.1054688 -0.1054687,-0.1054688 -0.1054688,0 -0.9140625,0.6445313 -1.40625,1.6289063 -0.421875,0.8554687 -0.64453126,1.78125 -0.64453126,2.8476562 0,0.6445313 0.0820313,1.66406254 0.57421876,2.73046879 0.5273437,1.10156251 1.3710937,1.74609371 1.4765625,1.74609371 0.058594,0 0.1054687,-0.035156 0.1054682,-0.09375 z m 0,0"
       style="fill:#000000;fill-opacity:1;fill-rule:nonzero;stroke:none"
       aria-label="("
       transform="matrix(1.3333333,0,0,1.3333333,10.596,13.393333)" />
    <path
       id="path11"
       d="m 1.2434375,-0.76082031 c 0.1875,-0.22265625 0.6796875,-0.66796879 1.0664063,-0.99609379 0.6679687,-0.5625 0.8789062,-0.7617187 0.9960937,-0.890625 0.7265625,-0.703125 0.9726563,-1.1601562 0.9726563,-1.21875 0,0 0,-0.09375 -0.1171875,-0.09375 -0.082031,0 -0.09375,0.023437 -0.140625,0.09375 -0.1171875,0.1875 -0.3632813,0.5625 -0.6679688,0.5625 -0.1757812,0 -0.2929687,-0.09375 -0.5039062,-0.328125 -0.2109375,-0.234375 -0.3867188,-0.328125 -0.6210938,-0.328125 -0.6796875,0 -1.1015625,0.8203125 -1.1015625,1.0429688 0,0.035156 0.011719,0.1054687 0.1171875,0.1054687 0.082031,0 0.1171875,-0.058594 0.1171875,-0.082031 0.1757813,-0.4335938 0.703125,-0.4335938 0.7734375,-0.4335938 0.2109375,0 0.421875,0.070312 0.6210938,0.140625 0.3515625,0.1171875 0.5039062,0.1171875 0.6445312,0.1171875 -0.28125,0.3046875 -0.7851562,0.7382813 -1.3476562,1.21875 -0.4453125,0.3867188 -0.7265625,0.65625 -0.9257813,0.85546879 -0.328125,0.3515625 -0.7265625,0.90234375 -0.7265625,0.9960937475 0,0.0585937525 0.0351563,0.0937500025 0.1171875,0.0937500025 0.0703125,0 0.09375,-0.03515625 0.140625,-0.08203125 0.3515625,-0.5390625 0.6796875,-0.57421875 0.7734375,-0.57421875 0.234375,0 0.3515625,0.12890625 0.5507813,0.36328125 0.2109375,0.22265625 0.3984375,0.29296875 0.5859375,0.29296875 0.9257812,0 1.453125,-1.14843754 1.453125,-1.38281254 0,-0.082031 -0.058594,-0.1054687 -0.1171875,-0.1054687 -0.09375,0 -0.1054688,0.058594 -0.1289063,0.09375 -0.2460937,0.66796874 -0.8789062,0.76171874 -1.1132812,0.76171874 -0.1640625,0 -0.3515625,-0.046875 -0.6210938,-0.12890625 -0.1757812,-0.0585938 -0.3867187,-0.1171875 -0.5742187,-0.1171875 -0.09375,0 -0.1875,0.0117188 -0.2226563,0.0234373 z m 0,0"
       style="fill:#000000;fill-opacity:1;fill-rule:nonzero;stroke:none"
       aria-label="z"
       transform="matrix(1.3333333,0,0,1.3333333,15.373333,13.393333)" />
    <path
       id="path12"
       d="m 2.6719766,-2.2491016 c 0,-0.7382812 -0.1054688,-1.7226562 -0.5742188,-2.71875 -0.5273437,-1.1015625 -1.35937499,-1.7578125 -1.46484374,-1.7578125 -0.09375,0 -0.1171875,0.070312 -0.1171875,0.1054688 0,0.035156 0.0234375,0.070312 0.0820313,0.1289062 0.52734374,0.46875 1.51171874,1.6875 1.51171874,4.2421875 0,1.27734379 -0.234375,3.07031254 -1.53515624,4.2773438 -0.0234375,0.023437 -0.0585938,0.058594 -0.0585938,0.1054687 0,0.023437 0.0234375,0.09375 0.1171875,0.09375 0.10546875,0 0.91406254,-0.6445312 1.39453124,-1.61718746 0.4335938,-0.85546875 0.6445313,-1.78125004 0.6445313,-2.85937504 z m 0,0"
       style="fill:#000000;fill-opacity:1;fill-rule:nonzero;stroke:none"
       aria-label=")"
       transform="matrix(1.3333333,0,0,1.3333333,21.605333,13.393333)" />
    <path
       id="path13"
       d="m 226.77448,0 h 22.67743 v 127.56067 h -22.67743 z"
       style="fill:#54b435;fill-opacity:1;fill-rule:nonzero;stroke:none"
       transform="matrix(1.3333333,0,0,-1.3333333,32.781333,192.76933)" />
    <path
       id="path14"
       d="m 249.4519,0 h 22.67743 V 93.54448 H 249.4519 Z"
       style="fill:#0061a8;fill-opacity:1;fill-rule:nonzero;stroke:none"
       transform="matrix(1.3333333,0,0,-1.3333333,32.781333,192.76933)" />
    <path
       id="path15"
       d="m 0.40916406,1.1254531 c -0.0585938,0.2578125 -0.0820313,0.3398438 -0.46875,0.3398438 -0.09375,0 -0.19921875,0 -0.19921875,0.1523437 0,0.046875 0.0117188,0.1171875 0.1171875,0.1171875 l 0.38671875,-0.011719 c 0.046875,-0.011719 0.2578125,-0.011719 0.38671875,-0.011719 0.15234375,0 0.3046875,0.011719 0.45703129,0.011719 0.140625,0 0.2929687,0.011719 0.421875,0.011719 0.058594,0 0.1757812,0 0.1757812,-0.1523437 0,-0.1171875 -0.09375,-0.1171875 -0.2460937,-0.1171875 -0.421875,0 -0.421875,-0.070312 -0.421875,-0.1523438 0,-0.046875 0.070312,-0.2929687 0.1054687,-0.43359373 l 0.328125,-1.3359375 c 0.09375,0.1875 0.3398438,0.55078125 0.8554688,0.55078125 1.0429687,0 2.1914062,-1.25390622 2.1914062,-2.60156252 0,-0.9140625 -0.5625,-1.453125 -1.2421875,-1.453125 -0.1875,0 -0.6328125,0.046875 -1.1835937,0.65625 -0.1289063,-0.5039062 -0.5390625,-0.65625 -0.84375,-0.65625 -0.37500004,0 -0.56250004,0.28125 -0.69140629,0.515625 -0.15234375,0.3164063 -0.28125,0.8320313 -0.28125,0.8671875 0,0.082031 0.0703125,0.1054688 0.12890625,0.1054688 0.09375,0 0.1171875,-0.046875 0.1640625,-0.2226563 0.1640625,-0.7148437 0.3515625,-1.0429687 0.65625004,-1.0429687 0.2695312,0 0.2695312,0.28125 0.2695312,0.421875 0,0.070312 -0.011719,0.2109375 -0.023437,0.28125 z m 1.62890624,-3.890625 c 0.035156,-0.1757812 0.035156,-0.1875 0.1523438,-0.328125 0.2460937,-0.3046875 0.65625,-0.6445312 1.0546875,-0.6445312 0.421875,0 0.5859375,0.421875 0.5859375,0.84375 0,0.3984375 -0.2460938,1.5117187 -0.5273438,1.99218747 -0.3046875,0.50390625 -0.6796875,0.7734375 -1.0078125,0.7734375 -0.5859375,0 -0.7265625,-0.703125 -0.7265625,-0.76171875 0,-0.0585938 0.011719,-0.10546875 0.023437,-0.15234372 z m 0,0"
       style="fill:#000000;fill-opacity:1;fill-rule:nonzero;stroke:none"
       aria-label="p"
       transform="matrix(1.3333333,0,0,1.3333333,334.77867,209.08533)" />
    <path
       id="path16"
       d="m 3.0575781,2.1332656 c 0,-0.046875 -0.023437,-0.070312 -0.082031,-0.1289062 -1.1601563,-1.06640628 -1.5117188,-2.67187503 -1.5117188,-4.2421875 0,-1.3945313 0.2695313,-3.0820313 1.5351563,-4.2773438 0.035156,-0.035156 0.058594,-0.070312 0.058594,-0.1054687 0,-0.070312 -0.046875,-0.1054688 -0.1054687,-0.1054688 -0.1054688,0 -0.9140625,0.6445313 -1.40625,1.6289063 -0.421875,0.8554687 -0.64453127,1.78125 -0.64453127,2.8476562 0,0.6445313 0.0820313,1.66406252 0.57421877,2.73046877 0.5273437,1.10156253 1.3710937,1.74609373 1.4765625,1.74609373 0.058594,0 0.1054687,-0.035156 0.1054682,-0.09375 z m 0,0"
       style="fill:#000000;fill-opacity:1;fill-rule:nonzero;stroke:none"
       aria-label="("
       transform="matrix(1.3333333,0,0,1.3333333,340.94667,209.08533)" />
    <path
       id="path17"
       d="m 4.5009219,-3.4565781 c 0.011719,-0.035156 0.023437,-0.09375 0.023437,-0.1523438 0,-0.1054687 -0.082031,-0.2578125 -0.2695313,-0.2578125 -0.1171875,0 -0.28125,0.070312 -0.3515625,0.2460938 -0.011719,0.035156 -0.1054687,0.3984375 -0.1523437,0.5976562 l -0.4453125,1.7929688 c -0.082031,0.25781247 -0.082031,0.28124997 -0.09375,0.36328122 -0.011719,0.0351563 -0.3867188,0.73828125 -1.03125,0.73828125 -0.5625,0 -0.5625,-0.5625 -0.5625,-0.7265625 0,-0.41015627 0.1171875,-0.84374997 0.5039062,-1.85156247 0.070312,-0.2109375 0.1289063,-0.328125 0.1289063,-0.5039063 0,-0.4335937 -0.328125,-0.75 -0.7734375,-0.75 -0.85546878,0 -1.21875003,1.2773438 -1.21875003,1.3828125 0,0.082031 0.0703125,0.1054688 0.12890625,0.1054688 0.09375,0 0.10546875,-0.058594 0.140625,-0.1757813 0.1875,-0.65625 0.55078128,-1.0898437 0.92578128,-1.0898437 0.2109375,0 0.2109375,0.1757812 0.2109375,0.2929687 0,0.1523438 -0.035156,0.3164063 -0.1171875,0.5273438 -0.421875,1.1132812 -0.5390625,1.4882812 -0.5390625,1.92187497 0,0.996093755 0.8085937,1.08984375 1.1484375,1.08984375 0.4335937,0 0.75,-0.22265625 0.9140625,-0.38671875 -0.117187,0.45703125 -0.2226558,0.85546875 -0.5742183,1.30078123 -0.2695312,0.3632813 -0.6210937,0.609375 -1.0195312,0.609375 -0.2460938,0 -0.53906253,-0.09375 -0.66796878,-0.3398437 0.46874998,0 0.53906248,-0.39843753 0.53906248,-0.49218753 0,-0.19921875 -0.140625,-0.31640625 -0.3398437,-0.31640625 -0.22265628,0 -0.50390628,0.1640625 -0.50390628,0.58593748 0,0.4570313 0.41015625,0.7851563 0.97265628,0.7851563 0.9140625,0 1.8984375,-0.7851563 2.15625,-1.82812503 z m 0,0"
       style="fill:#000000;fill-opacity:1;fill-rule:nonzero;stroke:none"
       aria-label="y"
       transform="matrix(1.3333333,0,0,1.3333333,345.72533,209.08533)" />
    <path
       id="path18"
       d="m 6.3504531,-2.9643906 c 0.1171875,0 0.2929688,0 0.2929688,-0.1875 0,-0.1992188 -0.1992188,-0.1992188 -0.328125,-0.1992188 H 0.84264063 c -0.140625,0 -0.328125,0 -0.328125,0.1992188 0,0.1875 0.17578125,0.1875 0.29296875,0.1875 z m -0.035156,1.828125 c 0.1289062,0 0.328125,0 0.328125,-0.1992188 0,-0.1875 -0.1757813,-0.1875 -0.2929688,-0.1875 H 0.80748438 c -0.1171875,0 -0.29296875,0 -0.29296875,0.1875 0,0.1992188 0.1875,0.1992188 0.328125,0.1992188 z m 7.6494139,-1.734375 c 0,-0.5976563 -0.02344,-1.3710938 -0.339844,-2.0390625 -0.398437,-0.84375 -1.078125,-1.0546875 -1.59375,-1.0546875 -0.539062,0 -1.21875,0.2109375 -1.617187,1.0664062 -0.292969,0.6210938 -0.328125,1.3476563 -0.328125,2.0273438 0,0.5859375 0.01172,1.453125 0.398437,2.16796872 0.421875,0.76171875 1.125,0.90234375 1.535156,0.90234375 0.585938,0 1.242188,-0.2578125 1.617188,-1.078125 0.269531,-0.59765627 0.328125,-1.27734377 0.328125,-1.99218747 z m -1.933594,2.84765622 c -0.269531,0 -0.914062,-0.12890625 -1.089844,-1.13671872 -0.09375,-0.5390625 -0.09375,-1.3007813 -0.09375,-1.8164063 0,-0.609375 0,-1.3125 0.117188,-1.8164062 0.175781,-0.796875 0.75,-0.9492188 1.054687,-0.9492188 0.339844,0 0.902344,0.1757813 1.078125,1.0078125 0.09375,0.4921875 0.09375,1.1953125 0.09375,1.7578125 0,0.5507813 0,1.3125 -0.09375,1.8398438 -0.1875,1.01953122 -0.84375,1.11328122 -1.066406,1.11328122 z m 0,0"
       style="fill:#000000;fill-opacity:1;fill-rule:nonzero;stroke:none"
       aria-label="=0"
       transform="matrix(1.3333333,0,0,1.3333333,355.61867,209.08533)" />
    <path
       id="path19"
       d="m 1.4642422,-6.3862656 c 0,-0.1523438 0,-0.3398438 -0.1875,-0.3398438 -0.1875,0 -0.1875,0.1757813 -0.1875,0.3398438 v 8.296875 c 0,0.1523437 0,0.328125 0.1875,0.328125 0.1875,0 0.1875,-0.1640625 0.1875,-0.328125 z m 0,0"
       style="fill:#000000;fill-opacity:1;fill-rule:nonzero;stroke:none"
       aria-label="|"
       transform="matrix(1.3333333,0,0,1.3333333,378.14533,209.08533)" />
    <path
       id="path20"
       d="m 1.24075,-0.76126563 c 0.1875,-0.22265625 0.6796875,-0.66796877 1.0664062,-0.99609377 0.6679688,-0.5625 0.8789063,-0.7617187 0.9960938,-0.890625 0.7265625,-0.703125 0.9726562,-1.1601562 0.9726562,-1.21875 0,0 0,-0.09375 -0.1171875,-0.09375 -0.082031,0 -0.09375,0.023437 -0.140625,0.09375 -0.1171875,0.1875 -0.3632812,0.5625 -0.6679687,0.5625 -0.1757813,0 -0.2929688,-0.09375 -0.5039063,-0.328125 -0.2109375,-0.234375 -0.3867187,-0.328125 -0.6210937,-0.328125 -0.6796875,0 -1.1015625,0.8203125 -1.1015625,1.0429688 0,0.035156 0.011719,0.1054687 0.1171875,0.1054687 0.082031,0 0.1171875,-0.058594 0.1171875,-0.082031 0.1757812,-0.4335938 0.703125,-0.4335938 0.7734375,-0.4335938 0.2109375,0 0.421875,0.070312 0.6210937,0.140625 0.3515625,0.1171875 0.5039063,0.1171875 0.6445313,0.1171875 -0.28125,0.3046875 -0.7851563,0.7382813 -1.3476563,1.21875 -0.4453125,0.3867188 -0.7265625,0.65625 -0.9257812,0.85546877 C 0.7954375,-0.64407813 0.397,-0.09329688 0.397,4.53125e-4 c 0,0.058593745 0.0351563,0.093749995 0.1171875,0.093749995 0.0703125,0 0.09375,-0.03515625 0.140625,-0.08203125 C 1.006375,-0.52689063 1.3345,-0.56204688 1.42825,-0.56204688 c 0.234375,0 0.3515625,0.12890625 0.5507812,0.36328125 0.2109375,0.22265625 0.3984375,0.29296875 0.5859375,0.29296875 0.9257813,0 1.453125,-1.14843752 1.453125,-1.38281252 0,-0.082031 -0.058594,-0.1054687 -0.1171875,-0.1054687 -0.09375,0 -0.1054687,0.058594 -0.1289062,0.09375 -0.2460938,0.66796872 -0.8789063,0.76171872 -1.1132813,0.76171872 -0.1640625,0 -0.3515625,-0.046875 -0.6210937,-0.12890625 -0.1757813,-0.0585938 -0.3867188,-0.1171875 -0.5742188,-0.1171875 -0.09375,0 -0.1875,0.0117188 -0.2226562,0.0234375 z m 0,0"
       style="fill:#000000;fill-opacity:1;fill-rule:nonzero;stroke:none"
       aria-label="z"
       transform="matrix(1.3333333,0,0,1.3333333,384.97067,209.08533)" />
    <path
       id="path21"
       d="m 2.6722187,-2.2495469 c 0,-0.7382812 -0.1054687,-1.7226562 -0.5742187,-2.71875 -0.5273438,-1.1015625 -1.359375,-1.7578125 -1.46484375,-1.7578125 -0.09375,0 -0.1171875,0.070312 -0.1171875,0.1054688 0,0.035156 0.0234375,0.070312 0.0820313,0.1289062 0.52734375,0.46875 1.51171875,1.6875 1.51171875,4.2421875 0,1.27734377 -0.234375,3.07031252 -1.53515625,4.2773438 -0.0234375,0.023437 -0.0585938,0.058594 -0.0585938,0.1054687 0,0.023437 0.0234375,0.09375 0.1171875,0.09375 0.10546875,0 0.91406245,-0.6445312 1.39453125,-1.61718748 0.4335937,-0.85546875 0.6445312,-1.78125002 0.6445312,-2.85937502 z m 0,0"
       style="fill:#000000;fill-opacity:1;fill-rule:nonzero;stroke:none"
       aria-label=")"
       transform="matrix(1.3333333,0,0,1.3333333,391.20267,209.08533)" />
    <path
       id="path22"
       d="m 221.10509,93.54448 c -1.49443,0.74718 -2.49069,2.49069 -2.49069,4.98138 v 7.04534 c 0,2.49069 -0.99627,4.2342 -2.4907,4.98138 1.49443,0.74718 2.4907,2.49069 2.4907,4.98139 v 7.04531 c 0,2.4907 0.99626,4.23421 2.49069,4.98139"
       style="fill:none;stroke:#c9146e;stroke-width:0.79701;stroke-linecap:butt;stroke-linejoin:miter;stroke-miterlimit:10;stroke-dasharray:none;stroke-opacity:1"
       transform="matrix(1.3333333,0,0,-1.3333333,32.781333,192.76933)" />
    <path
       id="path23"
       d="m 306.14542,0 h 22.67743 v 31.18147 h -22.67743 z"
       style="fill:#54b435;fill-opacity:1;fill-rule:nonzero;stroke:none"
       transform="matrix(1.3333333,0,0,-1.3333333,32.781333,192.76933)" />
    <path
       id="path24"
       d="m 328.82285,0 h 22.67743 v 65.19766 h -22.67743 z"
       style="fill:#0061a8;fill-opacity:1;fill-rule:nonzero;stroke:none"
       transform="matrix(1.3333333,0,0,-1.3333333,32.781333,192.76933)" />
    <path
       id="path25"
       d="m 0.41025781,1.1254531 c -0.0585938,0.2578125 -0.0820313,0.3398438 -0.46875,0.3398438 -0.09375,0 -0.19921875,0 -0.19921875,0.1523437 0,0.046875 0.0117188,0.1171875 0.1171875,0.1171875 l 0.38671875,-0.011719 c 0.046875,-0.011719 0.2578125,-0.011719 0.38671875,-0.011719 0.15234375,0 0.3046875,0.011719 0.45703124,0.011719 0.140625,0 0.2929688,0.011719 0.421875,0.011719 0.058594,0 0.1757813,0 0.1757813,-0.1523437 0,-0.1171875 -0.09375,-0.1171875 -0.2460938,-0.1171875 -0.421875,0 -0.421875,-0.070312 -0.421875,-0.1523438 0,-0.046875 0.070312,-0.2929687 0.1054688,-0.43359373 l 0.328125,-1.3359375 c 0.09375,0.1875 0.3398437,0.55078125 0.8554687,0.55078125 1.0429688,0 2.1914063,-1.25390622 2.1914063,-2.60156252 0,-0.9140625 -0.5625,-1.453125 -1.2421875,-1.453125 -0.1875,0 -0.6328125,0.046875 -1.1835938,0.65625 -0.1289062,-0.5039062 -0.5390625,-0.65625 -0.84375,-0.65625 -0.37499999,0 -0.56249999,0.28125 -0.69140624,0.515625 -0.15234375,0.3164063 -0.28125,0.8320313 -0.28125,0.8671875 0,0.082031 0.0703125,0.1054688 0.12890625,0.1054688 0.09375,0 0.1171875,-0.046875 0.1640625,-0.2226563 0.1640625,-0.7148437 0.3515625,-1.0429687 0.65624999,-1.0429687 0.2695313,0 0.2695313,0.28125 0.2695313,0.421875 0,0.070312 -0.011719,0.2109375 -0.023437,0.28125 z m 1.62890629,-3.890625 c 0.035156,-0.1757812 0.035156,-0.1875 0.1523437,-0.328125 0.2460938,-0.3046875 0.65625,-0.6445312 1.0546875,-0.6445312 0.421875,0 0.5859375,0.421875 0.5859375,0.84375 0,0.3984375 -0.2460937,1.5117187 -0.5273437,1.99218747 -0.3046875,0.50390625 -0.6796875,0.7734375 -1.0078125,0.7734375 -0.5859375,0 -0.7265625,-0.703125 -0.7265625,-0.76171875 0,-0.0585938 0.011719,-0.10546875 0.023437,-0.15234372 z m 0,0"
       style="fill:#000000;fill-opacity:1;fill-rule:nonzero;stroke:none"
       aria-label="p"
       transform="matrix(1.3333333,0,0,1.3333333,440.60533,209.08533)" />
    <path
       id="path26"
       d="m 3.0586719,2.1332656 c 0,-0.046875 -0.023437,-0.070312 -0.082031,-0.1289062 -1.1601562,-1.06640628 -1.5117187,-2.67187503 -1.5117187,-4.2421875 0,-1.3945313 0.2695312,-3.0820313 1.5351562,-4.2773438 0.035156,-0.035156 0.058594,-0.070312 0.058594,-0.1054687 0,-0.070312 -0.046875,-0.1054688 -0.1054688,-0.1054688 -0.1054687,0 -0.9140625,0.6445313 -1.40625,1.6289063 -0.421875,0.8554687 -0.64453122,1.78125 -0.64453122,2.8476562 0,0.6445313 0.0820313,1.66406252 0.57421872,2.73046877 0.5273438,1.10156253 1.3710938,1.74609373 1.4765625,1.74609373 0.058594,0 0.1054688,-0.035156 0.1054683,-0.09375 z m 0,0"
       style="fill:#000000;fill-opacity:1;fill-rule:nonzero;stroke:none"
       aria-label="("
       transform="matrix(1.3333333,0,0,1.3333333,446.77333,209.08533)" />
    <path
       id="path27"
       d="m 4.4990859,-3.4565781 c 0.011719,-0.035156 0.023437,-0.09375 0.023437,-0.1523438 0,-0.1054687 -0.082031,-0.2578125 -0.2695312,-0.2578125 -0.1171875,0 -0.28125,0.070312 -0.3515625,0.2460938 -0.011719,0.035156 -0.1054688,0.3984375 -0.1523438,0.5976562 l -0.4453125,1.7929688 c -0.082031,0.25781247 -0.082031,0.28124997 -0.09375,0.36328122 -0.011719,0.0351563 -0.3867187,0.73828125 -1.03125,0.73828125 -0.5625,0 -0.5625,-0.5625 -0.5625,-0.7265625 0,-0.41015627 0.1171875,-0.84374997 0.5039063,-1.85156247 0.070312,-0.2109375 0.1289062,-0.328125 0.1289062,-0.5039063 0,-0.4335937 -0.328125,-0.75 -0.7734375,-0.75 -0.85546871,0 -1.21874996,1.2773438 -1.21874996,1.3828125 0,0.082031 0.0703125,0.1054688 0.12890625,0.1054688 0.09375,0 0.10546875,-0.058594 0.140625,-0.1757813 0.1875,-0.65625 0.55078121,-1.0898437 0.92578121,-1.0898437 0.2109375,0 0.2109375,0.1757812 0.2109375,0.2929687 0,0.1523438 -0.035156,0.3164063 -0.1171875,0.5273438 -0.421875,1.1132812 -0.5390625,1.4882812 -0.5390625,1.92187497 0,0.996093755 0.8085938,1.08984375 1.1484375,1.08984375 0.4335938,0 0.75,-0.22265625 0.9140625,-0.38671875 -0.117187,0.45703125 -0.2226557,0.85546875 -0.5742182,1.30078123 -0.2695313,0.3632813 -0.6210938,0.609375 -1.0195313,0.609375 -0.2460937,0 -0.53906246,-0.09375 -0.66796871,-0.3398437 0.46875001,0 0.53906251,-0.39843753 0.53906251,-0.49218753 0,-0.19921875 -0.140625,-0.31640625 -0.3398438,-0.31640625 -0.22265621,0 -0.50390621,0.1640625 -0.50390621,0.58593748 0,0.4570313 0.41015625,0.7851563 0.97265621,0.7851563 0.9140625,0 1.8984375,-0.7851563 2.15625,-1.82812503 z m 0,0"
       style="fill:#000000;fill-opacity:1;fill-rule:nonzero;stroke:none"
       aria-label="y"
       transform="matrix(1.3333333,0,0,1.3333333,451.552,209.08533)" />
    <path
       id="path28"
       d="m 6.3515469,-2.9643906 c 0.1171875,0 0.2929687,0 0.2929687,-0.1875 0,-0.1992188 -0.1992187,-0.1992188 -0.328125,-0.1992188 H 0.84373437 c -0.140625,0 -0.328125,0 -0.328125,0.1992188 0,0.1875 0.17578125,0.1875 0.29296875,0.1875 z m -0.035156,1.828125 c 0.1289063,0 0.328125,0 0.328125,-0.1992188 0,-0.1875 -0.1757812,-0.1875 -0.2929687,-0.1875 H 0.80857812 c -0.1171875,0 -0.29296875,0 -0.29296875,0.1875 0,0.1992188 0.1875,0.1992188 0.328125,0.1992188 z m 6.1376951,-4.59375 c 0,-0.2226563 -0.01172,-0.234375 -0.234375,-0.234375 -0.5625,0.5625 -1.382813,0.5625 -1.664063,0.5625 v 0.28125 c 0.175782,0 0.714844,0 1.207032,-0.234375 v 4.64062497 c 0,0.328125 -0.03516,0.43359375 -0.867188,0.43359375 h -0.28125 V 4.53125e-4 c 0.316406,-0.023437505 1.113281,-0.023437505 1.488281,-0.023437505 0.363282,0 1.171875,0 1.488282,0.023437505 V -0.28079688 h -0.28125 c -0.832032,0 -0.855469,-0.10546875 -0.855469,-0.43359375 z m 0,0"
       style="fill:#000000;fill-opacity:1;fill-rule:nonzero;stroke:none"
       aria-label="=1"
       transform="matrix(1.3333333,0,0,1.3333333,461.44533,209.08533)" />
    <path
       id="path29"
       d="m 1.4653359,-6.3862656 c 0,-0.1523438 0,-0.3398438 -0.1875,-0.3398438 -0.1875,0 -0.1875,0.1757813 -0.1875,0.3398438 v 8.296875 c 0,0.1523437 0,0.328125 0.1875,0.328125 0.1875,0 0.1875,-0.1640625 0.1875,-0.328125 z m 0,0"
       style="fill:#000000;fill-opacity:1;fill-rule:nonzero;stroke:none"
       aria-label="|"
       transform="matrix(1.3333333,0,0,1.3333333,483.972,209.08533)" />
    <path
       id="path30"
       d="m 1.2418438,-0.76126563 c 0.1875,-0.22265625 0.6796875,-0.66796877 1.0664062,-0.99609377 0.6679688,-0.5625 0.8789063,-0.7617187 0.9960938,-0.890625 C 4.0309063,-3.3511094 4.277,-3.8081406 4.277,-3.8667344 c 0,0 0,-0.09375 -0.1171875,-0.09375 -0.082031,0 -0.09375,0.023437 -0.140625,0.09375 -0.1171875,0.1875 -0.3632812,0.5625 -0.6679687,0.5625 -0.1757813,0 -0.2929688,-0.09375 -0.5039063,-0.328125 -0.2109375,-0.234375 -0.3867187,-0.328125 -0.6210937,-0.328125 -0.6796875,0 -1.1015625,0.8203125 -1.1015625,1.0429688 0,0.035156 0.011719,0.1054687 0.1171875,0.1054687 0.082031,0 0.1171875,-0.058594 0.1171875,-0.082031 0.1757812,-0.4335938 0.703125,-0.4335938 0.7734375,-0.4335938 0.2109375,0 0.421875,0.070312 0.6210937,0.140625 0.3515625,0.1171875 0.5039063,0.1171875 0.6445313,0.1171875 -0.28125,0.3046875 -0.7851563,0.7382813 -1.3476563,1.21875 -0.4453125,0.3867188 -0.7265625,0.65625 -0.9257812,0.85546877 -0.32812505,0.3515625 -0.72656255,0.90234375 -0.72656255,0.996093755 0,0.058593745 0.0351563,0.093749995 0.1171875,0.093749995 0.0703125,0 0.09375,-0.03515625 0.140625,-0.08203125 0.35156255,-0.5390625 0.67968755,-0.57421875 0.77343755,-0.57421875 0.234375,0 0.3515625,0.12890625 0.5507812,0.36328125 0.2109375,0.22265625 0.3984375,0.29296875 0.5859375,0.29296875 0.9257813,0 1.453125,-1.14843752 1.453125,-1.38281252 0,-0.082031 -0.058594,-0.1054687 -0.1171875,-0.1054687 -0.09375,0 -0.1054687,0.058594 -0.1289062,0.09375 -0.2460938,0.66796872 -0.8789063,0.76171872 -1.1132813,0.76171872 -0.1640625,0 -0.3515625,-0.046875 -0.6210937,-0.12890625 C 1.8629375,-0.72610938 1.652,-0.78470313 1.4645,-0.78470313 c -0.09375,0 -0.1875,0.0117188 -0.2226562,0.0234375 z m 0,0"
       style="fill:#000000;fill-opacity:1;fill-rule:nonzero;stroke:none"
       aria-label="z"
       transform="matrix(1.3333333,0,0,1.3333333,490.79733,209.08533)" />
    <path
       id="path31"
       d="m 2.6733125,-2.2495469 c 0,-0.7382812 -0.1054687,-1.7226562 -0.5742187,-2.71875 C 1.57175,-6.0698594 0.73971875,-6.7261094 0.63425,-6.7261094 c -0.09375,0 -0.1171875,0.070312 -0.1171875,0.1054688 0,0.035156 0.0234375,0.070312 0.0820313,0.1289062 0.5273437,0.46875 1.5117188,1.6875 1.5117188,4.2421875 0,1.27734377 -0.2343751,3.07031252 -1.5351563,4.2773438 -0.0234375,0.023437 -0.0585938,0.058594 -0.0585938,0.1054687 0,0.023437 0.0234375,0.09375 0.1171875,0.09375 0.10546875,0 0.9140625,-0.6445312 1.3945313,-1.61718748 C 2.462375,-0.24564063 2.6733125,-1.1714219 2.6733125,-2.2495469 Z m 0,0"
       style="fill:#000000;fill-opacity:1;fill-rule:nonzero;stroke:none"
       aria-label=")"
       transform="matrix(1.3333333,0,0,1.3333333,497.02933,209.08533)" />
    <path
       id="path32"
       d="m 357.16954,65.19766 c 1.49443,-0.74717 2.49069,-2.49069 2.49069,-4.98138 v -7.04534 c 0,-2.49069 0.99627,-4.2342 2.49069,-4.98138 -1.49442,-0.74718 -2.49069,-2.49069 -2.49069,-4.98138 v -7.04532 c 0,-2.4907 -0.99626,-4.23421 -2.49069,-4.98139"
       style="fill:none;stroke:#c9146e;stroke-width:0.79701;stroke-linecap:butt;stroke-linejoin:miter;stroke-miterlimit:10;stroke-dasharray:none;stroke-opacity:1"
       transform="matrix(1.3333333,0,0,-1.3333333,32.781333,192.76933)" />
    <path
       id="path33"
       d="M 0.48110156,-6.5395078 V -4.453125e-4 H 1.1607891 V -0.59810156 c 0.3515625,0.5390625 0.8320312,0.80859375 1.4882812,0.80859375 1.2304688,0 2.0390625,-1.01953125 2.0390625,-2.57812499 0,-1.5234375 -0.7734375,-2.4609375 -2.0039062,-2.4609375 -0.6445313,0 -1.1015625,0.234375 -1.453125,0.7617187 v -2.4726562 z m 2.05078124,2.4023437 c 0.84375,0 1.3828125,0.7265625 1.3828125,1.8515625 0,1.0664063 -0.5625,1.79296879 -1.3828125,1.79296879 -0.7851562,0 -1.3007812,-0.71484379 -1.3007812,-1.81640629 0,-1.1015625 0.515625,-1.828125 1.3007812,-1.828125 z m 3.2841797,6.0351563 c 0.9023437,-1.17187501 1.4648437,-2.80078126 1.4648437,-4.2070313 0,-1.4179687 -0.5625,-3.046875 -1.4648437,-4.2304687 H 5.323875 c 0.7851562,1.2890625 1.2304687,2.7890625 1.2304687,4.2304687 0,1.41796879 -0.4453125,2.94140629 -1.2304687,4.2070313 z M 16.392234,-4.5121641 c -0.257812,-1.4296875 -1.078125,-2.1328125 -2.519531,-2.1328125 -0.878906,0 -1.582031,0.28125 -2.0625,0.8203125 -0.597656,0.6445313 -0.914062,1.5703125 -0.914062,2.6367188 0,1.0664062 0.328125,1.9921875 0.949218,2.63671874 0.503907,0.515625 1.148438,0.76171875 1.992188,0.76171875 1.605469,0 2.496094,-0.8671875 2.695312,-2.58984379 h -0.867187 c -0.07031,0.4453125 -0.152344,0.75 -0.292969,1.0078125 -0.269531,0.53906254 -0.820312,0.84375004 -1.523437,0.84375004 -1.300782,0 -2.121094,-1.04296874 -2.121094,-2.67187504 0,-1.6757812 0.785156,-2.7070312 2.050781,-2.7070312 0.527344,0 1.019531,0.1640625 1.289063,0.4101562 0.246093,0.2226563 0.375,0.5039063 0.480468,0.984375 z m 2.982422,-0.3164062 c -1.3125,0 -2.109375,0.9375 -2.109375,2.5195312 0,1.57031254 0.785156,2.51953129 2.121094,2.51953129 1.3125,0 2.121094,-0.94921875 2.121094,-2.48437499 0,-1.6289063 -0.773438,-2.5546875 -2.132813,-2.5546875 z m 0.01172,0.6914062 c 0.84375,0 1.347656,0.6796875 1.347656,1.8515625 0,1.1015625 -0.527344,1.80468754 -1.347656,1.80468754 -0.832031,0 -1.347656,-0.69140624 -1.347656,-1.82812504 0,-1.1367187 0.515625,-1.828125 1.347656,-1.828125 z m 3.158203,-0.5625 v 4.6992187875 h 0.75 V -2.4379453 c 0,-0.6679688 0.175781,-1.1132813 0.527344,-1.3710938 0.234375,-0.1757812 0.457031,-0.2226562 0.984375,-0.234375 v -0.7617187 c -0.128906,-0.023437 -0.199219,-0.023437 -0.292969,-0.023437 -0.480469,0 -0.855469,0.28125 -1.277344,0.984375 v -0.8554688 z m 2.985352,0 v 4.6992187875 h 0.75 V -2.4379453 c 0,-0.6679688 0.175781,-1.1132813 0.527343,-1.3710938 0.234375,-0.1757812 0.457032,-0.2226562 0.984375,-0.234375 v -0.7617187 c -0.128906,-0.023437 -0.199218,-0.023437 -0.292968,-0.023437 -0.480469,0 -0.855469,0.28125 -1.277344,0.984375 v -0.8554688 z m 6.958007,2.6015625 c 0,-0.7148437 -0.04687,-1.1484375 -0.1875,-1.5 -0.304687,-0.7734375 -1.019531,-1.2304687 -1.898437,-1.2304687 -1.300781,0 -2.144531,0.9960937 -2.144531,2.5429687 0,1.54687504 0.808593,2.49609379 2.132812,2.49609379 1.066406,0 1.816406,-0.609375 2.003906,-1.64062499 h -0.75 c -0.210937,0.62109374 -0.632812,0.94921874 -1.230468,0.94921874 -0.480469,0 -0.878907,-0.22265625 -1.125,-0.60937504 -0.1875,-0.2695312 -0.246094,-0.5390625 -0.257813,-1.0078125 z m -3.433593,-0.609375 c 0.05859,-0.8671875 0.585937,-1.4296875 1.335937,-1.4296875 0.738281,0 1.300781,0.609375 1.300781,1.3710938 0,0.023437 0,0.035156 0,0.058594 z m 5.185547,-3.8320312 h -0.75 v 6.5390624875 h 0.75 z m 5.422851,6.10546874 c -0.08203,0.0117188 -0.117187,0.0117188 -0.152344,0.0117188 -0.269531,0 -0.410156,-0.12890625 -0.410156,-0.36328125 V -3.5512266 c 0,-0.8320312 -0.609375,-1.2773437 -1.769531,-1.2773437 -0.679688,0 -1.242188,0.1875 -1.558594,0.5390625 -0.210937,0.2460937 -0.304687,0.515625 -0.316406,0.984375 h 0.75 c 0.05859,-0.5742188 0.398437,-0.8320313 1.101562,-0.8320313 0.667969,0 1.054688,0.2460938 1.054688,0.6914063 v 0.1992187 c 0,0.3164063 -0.1875,0.4453125 -0.785156,0.515625 -1.054688,0.140625 -1.21875,0.1757813 -1.5,0.2929688 -0.550782,0.2226562 -0.832032,0.6445312 -0.832032,1.2539062 0,0.85546879 0.597657,1.39453129 1.546875,1.39453129 0.585938,0 1.066407,-0.2109375025 1.59375,-0.69140625 0.04687,0.46875 0.28125,0.69140625 0.773438,0.69140625 0.152344,0 0.269531,-0.0234375 0.503906,-0.0820313 z M 38.361961,-1.4770078 c 0,0.2460937 -0.08203,0.3984375 -0.304688,0.60937499 -0.304687,0.28125 -0.667968,0.421875 -1.113281,0.421875 -0.574219,0 -0.914062,-0.28125 -0.914062,-0.76171879 0,-0.4921875 0.328125,-0.7382812 1.125,-0.8554687 0.785156,-0.1054688 0.949218,-0.140625 1.207031,-0.2578125 z m 3.767578,-3.2226563 H 41.36782 v -1.2890625 h -0.75 v 1.2890625 h -0.632812 v 0.609375 h 0.632812 v 3.55078129 c 0,0.48046875 0.328125,0.75 0.902344,0.75 0.1875,0 0.363281,-0.0234375 0.609375,-0.0703125 v -0.62109375 c -0.09375,0.0234375 -0.210937,0.0351563 -0.351562,0.0351563 -0.328125,0 -0.410157,-0.09375 -0.410157,-0.421875 V -4.0902891 h 0.761719 z m 1.567383,0 h -0.75 v 4.6992187875 h 0.75 z m 0,-1.8398437 h -0.761719 v 0.9492187 h 0.761719 z m 3.079101,1.7109375 c -1.3125,0 -2.109375,0.9375 -2.109375,2.5195312 0,1.57031254 0.785157,2.51953129 2.121094,2.51953129 1.3125,0 2.121094,-0.94921875 2.121094,-2.48437499 0,-1.6289063 -0.773438,-2.5546875 -2.132813,-2.5546875 z m 0.01172,0.6914062 c 0.84375,0 1.347656,0.6796875 1.347656,1.8515625 0,1.1015625 -0.527343,1.80468754 -1.347656,1.80468754 -0.832031,0 -1.347656,-0.69140624 -1.347656,-1.82812504 0,-1.1367187 0.515625,-1.828125 1.347656,-1.828125 z m 3.169922,-0.5625 v 4.6992187875 h 0.75 V -2.5902891 c 0,-0.9609375 0.503906,-1.5820312 1.265625,-1.5820312 0.597656,0 0.972656,0.3515625 0.972656,0.9140625 v 3.2578124875 h 0.75 V -3.5512266 c 0,-0.7734375 -0.585937,-1.2773437 -1.488281,-1.2773437 -0.703125,0 -1.148437,0.2695312 -1.570312,0.9140625 v -0.7851563 z m 12.1875,0.082031 c -0.01172,-1.2773438 -0.890625,-2.0273438 -2.390625,-2.0273438 -1.441406,0 -2.320312,0.7382813 -2.320312,1.921875 0,0.796875 0.421875,1.3007813 1.277343,1.5234375 l 1.617188,0.4335938 c 0.832031,0.2109375 1.207031,0.5390625 1.207031,1.0546875 0,0.3515625 -0.1875,0.703125 -0.46875,0.90234374 -0.257812,0.17578125 -0.667969,0.28125 -1.195312,0.28125 -0.714844,0 -1.195313,-0.17578125 -1.511719,-0.55078124 -0.246094,-0.28125 -0.351563,-0.5976563 -0.339844,-0.9960938 h -0.785156 c 0,0.5976563 0.117187,0.984375 0.386719,1.34765629 0.445312,0.609375 1.195312,0.9375 2.191406,0.9375 0.785156,0 1.417969,-0.1875 1.839844,-0.50390625 0.433593,-0.3515625 0.714843,-0.93750004 0.714843,-1.50000004 0,-0.8085937 -0.503906,-1.3945312 -1.394531,-1.640625 l -1.640625,-0.4335937 c -0.785156,-0.2226563 -1.066406,-0.46875 -1.066406,-0.9726563 0,-0.6679687 0.574219,-1.1015625 1.453125,-1.1015625 1.042969,0 1.628906,0.46875 1.640625,1.3242188 z m 1.271484,-1.921875 V -4.453125e-4 H 64.15493 V -2.5902891 c 0,-0.9609375 0.503906,-1.5820312 1.277343,-1.5820312 0.234375,0 0.480469,0.070312 0.65625,0.2109375 0.222657,0.1523437 0.304688,0.375 0.304688,0.703125 v 3.2578124875 h 0.75 V -3.5512266 c 0,-0.7851562 -0.5625,-1.2773437 -1.476563,-1.2773437 -0.667968,0 -1.066406,0.1992187 -1.511718,0.7734375 v -2.484375 z m 5.698243,1.8398437 h -0.75 v 4.6992187875 h 0.75 z m 0,-1.8398437 h -0.761719 v 0.9492187 h 0.761719 z m 2.953125,1.8398437 h -0.773438 v -0.7382812 c 0,-0.3046875 0.175781,-0.46875 0.515625,-0.46875 0.07031,0 0.09375,0 0.257813,0.011719 v -0.6210937 c -0.164063,-0.035156 -0.269532,-0.046875 -0.421875,-0.046875 -0.679688,0 -1.101563,0.3984375 -1.101563,1.0664062 v 0.796875 h -0.621094 v 0.609375 h 0.621094 v 4.0898437875 h 0.75 V -4.0902891 h 0.773438 z m 2.455078,0 h -0.761719 v -1.2890625 h -0.75 v 1.2890625 h -0.632813 v 0.609375 h 0.632813 v 3.55078129 c 0,0.48046875 0.328125,0.75 0.902344,0.75 0.1875,0 0.363281,-0.0234375 0.609375,-0.0703125 v -0.62109375 c -0.09375,0.0234375 -0.210938,0.0351563 -0.351563,0.0351563 -0.328125,0 -0.410156,-0.09375 -0.410156,-0.421875 V -4.0902891 h 0.761719 z m 0,0"
       style="fill:#000000;fill-opacity:1;fill-rule:nonzero;stroke:none"
       aria-label="b)CorrelationShift"
       transform="matrix(1.3333333,0,0,1.3333333,368.464,228.192)" />
    <path
       id="path34"
       d="m 289.13725,127.56067 h 19.84274 v 11.3387 h -19.84274 z"
       style="fill:#54b435;fill-opacity:1;fill-rule:nonzero;stroke:none"
       transform="matrix(1.3333333,0,0,-1.3333333,32.781333,192.76933)" />
    <path
       id="path35"
       d="M 0.79814063,-7.65625e-4 H 3.3176719 c 1.6523437,0 2.6601562,-1.242187475 2.6601562,-3.269531275 0,-2.0273437 -0.9960937,-3.2695312 -2.6601562,-3.2695312 H 0.79814063 Z M 1.6301719,-0.73904688 V -5.8015469 h 1.546875 c 1.2890625,0 1.96875,0.8671875 1.96875,2.5429688 0,1.640625 -0.6796875,2.51953122 -1.96875,2.51953122 z M 8.9104453,-4.8288906 c -1.3125,0 -2.109375,0.9375 -2.109375,2.5195312 0,1.57031252 0.7851563,2.51953127 2.1210938,2.51953127 1.3124999,0 2.1210939,-0.94921875 2.1210939,-2.48437497 0,-1.6289063 -0.773438,-2.5546875 -2.1328127,-2.5546875 z m 0.011719,0.6914062 c 0.84375,0 1.3476557,0.6796875 1.3476557,1.8515625 0,1.1015625 -0.5273432,1.80468752 -1.3476557,1.80468752 -0.8320313,0 -1.3476563,-0.69140622 -1.3476563,-1.82812502 0,-1.1367187 0.515625,-1.828125 1.3476563,-1.828125 z m 3.1699217,-0.5625 v 4.699218775 h 0.75 V -2.9538906 c 0,-0.6796875 0.492187,-1.21875 1.101562,-1.21875 0.550782,0 0.867188,0.3398437 0.867188,0.9375 v 3.234374975 h 0.75 V -2.9538906 c 0,-0.6796875 0.492187,-1.21875 1.101562,-1.21875 0.550782,0 0.878907,0.3398437 0.878907,0.9375 v 3.234374975 h 0.75 V -3.5281094 c 0,-0.84375 -0.480469,-1.3007812 -1.359375,-1.3007812 -0.632813,0 -1.007813,0.1875 -1.453125,0.7148437 -0.269532,-0.5039062 -0.644532,-0.7148437 -1.253907,-0.7148437 -0.632812,0 -1.042968,0.234375 -1.453125,0.796875 v -0.6679688 z m 11.62793,4.26562502 c -0.08203,0.0117188 -0.117188,0.0117188 -0.152344,0.0117188 -0.269531,0 -0.410156,-0.12890625 -0.410156,-0.36328125 V -3.5515469 c 0,-0.8320312 -0.609375,-1.2773437 -1.769532,-1.2773437 -0.679687,0 -1.242187,0.1875 -1.558593,0.5390625 -0.210938,0.2460937 -0.304688,0.515625 -0.316407,0.984375 h 0.75 c 0.05859,-0.5742188 0.398438,-0.8320313 1.101563,-0.8320313 0.667969,0 1.054687,0.2460938 1.054687,0.6914063 v 0.1992187 c 0,0.3164063 -0.1875,0.4453125 -0.785156,0.515625 -1.054687,0.140625 -1.21875,0.1757813 -1.5,0.2929688 -0.550781,0.2226562 -0.832031,0.6445312 -0.832031,1.2539062 0,0.85546877 0.597656,1.39453127 1.546875,1.39453127 0.585937,0 1.066406,-0.210937495 1.59375,-0.69140625 0.04687,0.46875 0.28125,0.69140625 0.773437,0.69140625 0.152344,0 0.269532,-0.0234375 0.503907,-0.0820313 z M 22.419234,-1.4773281 c 0,0.2460937 -0.08203,0.3984375 -0.304687,0.60937497 -0.304688,0.28125 -0.667969,0.421875 -1.113281,0.421875 -0.574219,0 -0.914063,-0.28125 -0.914063,-0.76171877 0,-0.4921875 0.328125,-0.7382812 1.125,-0.8554687 0.785156,-0.1054688 0.949219,-0.140625 1.207031,-0.2578125 z m 2.841797,-3.2226563 h -0.75 v 4.699218775 h 0.75 z m 0,-1.8398437 h -0.761718 v 0.9492187 h 0.761718 z m 1.274414,1.8398437 v 4.699218775 h 0.75 V -2.5906094 c 0,-0.9609375 0.503907,-1.5820312 1.265625,-1.5820312 0.597657,0 0.972657,0.3515625 0.972657,0.9140625 v 3.257812475 h 0.75 V -3.5515469 c 0,-0.7734375 -0.585938,-1.2773437 -1.488282,-1.2773437 -0.703125,0 -1.148437,0.2695312 -1.570312,0.9140625 v -0.7851563 z m 9.158203,0.1757813 v 4.523437475 h 0.785157 V -6.3523281 H 35.96318 c -0.28125,0.9726562 -0.457032,1.1015625 -1.675782,1.2539062 v 0.5742188 z m 0,0"
       style="fill:#000000;fill-opacity:1;fill-rule:nonzero;stroke:none"
       aria-label="Domain1"
       transform="matrix(1.3333333,0,0,1.3333333,453.428,19.321333)" />
    <path
       id="path36"
       d="m 289.13725,110.5527 h 19.84274 v 11.3387 h -19.84274 z"
       style="fill:#0061a8;fill-opacity:1;fill-rule:nonzero;stroke:none"
       transform="matrix(1.3333333,0,0,-1.3333333,32.781333,192.76933)" />
    <path
       id="path37"
       d="M 0.79814063,0.001 H 3.3176719 c 1.6523437,0 2.6601562,-1.2421875 2.6601562,-3.2695313 0,-2.0273437 -0.9960937,-3.2695312 -2.6601562,-3.2695312 H 0.79814063 Z M 1.6301719,-0.73728125 V -5.7997813 h 1.546875 c 1.2890625,0 1.96875,0.8671875 1.96875,2.5429688 0,1.640625 -0.6796875,2.51953125 -1.96875,2.51953125 z M 8.9104453,-4.827125 c -1.3125,0 -2.109375,0.9375 -2.109375,2.5195312 0,1.57031255 0.7851563,2.5195313 2.1210938,2.5195313 1.3124999,0 2.1210939,-0.94921875 2.1210939,-2.484375 0,-1.6289063 -0.773438,-2.5546875 -2.1328127,-2.5546875 z m 0.011719,0.6914062 c 0.84375,0 1.3476557,0.6796875 1.3476557,1.8515625 0,1.1015625 -0.5273432,1.80468755 -1.3476557,1.80468755 -0.8320313,0 -1.3476563,-0.69140625 -1.3476563,-1.82812505 0,-1.1367187 0.515625,-1.828125 1.3476563,-1.828125 z m 3.1699217,-0.5625 V 0.001 h 0.75 v -2.953125 c 0,-0.6796875 0.492187,-1.21875 1.101562,-1.21875 0.550782,0 0.867188,0.3398437 0.867188,0.9375 V 0.001 h 0.75 v -2.953125 c 0,-0.6796875 0.492187,-1.21875 1.101562,-1.21875 0.550782,0 0.878907,0.3398437 0.878907,0.9375 V 0.001 h 0.75 v -3.5273438 c 0,-0.84375 -0.480469,-1.3007812 -1.359375,-1.3007812 -0.632813,0 -1.007813,0.1875 -1.453125,0.7148437 -0.269532,-0.5039062 -0.644532,-0.7148437 -1.253907,-0.7148437 -0.632812,0 -1.042968,0.234375 -1.453125,0.796875 v -0.6679688 z m 11.62793,4.26562505 c -0.08203,0.0117188 -0.117188,0.0117188 -0.152344,0.0117188 -0.269531,0 -0.410156,-0.12890625 -0.410156,-0.36328125 v -2.7656251 c 0,-0.8320312 -0.609375,-1.2773437 -1.769532,-1.2773437 -0.679687,0 -1.242187,0.1875 -1.558593,0.5390625 -0.210938,0.2460937 -0.304688,0.515625 -0.316407,0.984375 h 0.75 c 0.05859,-0.5742188 0.398438,-0.8320313 1.101563,-0.8320313 0.667969,0 1.054687,0.2460938 1.054687,0.6914063 v 0.1992187 c 0,0.3164063 -0.1875,0.4453125 -0.785156,0.515625 -1.054687,0.140625 -1.21875,0.1757813 -1.5,0.2929688 -0.550781,0.2226562 -0.832031,0.6445312 -0.832031,1.2539062 0,0.8554688 0.597656,1.3945313 1.546875,1.3945313 0.585937,0 1.066406,-0.2109375 1.59375,-0.69140625 0.04687,0.46875 0.28125,0.69140625 0.773437,0.69140625 0.152344,0 0.269532,-0.0234375 0.503907,-0.0820313 z M 22.419234,-1.4755625 c 0,0.2460937 -0.08203,0.3984375 -0.304687,0.609375 -0.304688,0.28125 -0.667969,0.421875 -1.113281,0.421875 -0.574219,0 -0.914063,-0.28125 -0.914063,-0.7617188 0,-0.4921875 0.328125,-0.7382812 1.125,-0.8554687 0.785156,-0.1054688 0.949219,-0.140625 1.207031,-0.2578125 z m 2.841797,-3.2226563 h -0.75 V 0.001 h 0.75 z m 0,-1.8398437 h -0.761718 v 0.9492187 h 0.761718 z m 1.274414,1.8398437 V 0.001 h 0.75 v -2.5898438 c 0,-0.9609375 0.503907,-1.5820312 1.265625,-1.5820312 0.597657,0 0.972657,0.3515625 0.972657,0.9140625 V 0.001 h 0.75 v -3.5507813 c 0,-0.7734375 -0.585938,-1.2773437 -1.488282,-1.2773437 -0.703125,0 -1.148437,0.2695312 -1.570312,0.9140625 v -0.7851563 z m 11.373047,3.91406255 H 34.568648 C 34.65068,-1.2997813 34.93193,-1.6279063 35.717086,-2.0849375 l 0.890625,-0.4921875 c 0.890625,-0.4804688 1.347656,-1.1367188 1.347656,-1.9101563 0,-0.5273437 -0.210937,-1.0195312 -0.597656,-1.3710937 -0.375,-0.3398438 -0.832031,-0.4921875 -1.441406,-0.4921875 -0.808594,0 -1.40625,0.28125 -1.757813,0.8203125 -0.222656,0.3398437 -0.316406,0.7382812 -0.339844,1.3828125 h 0.796875 c 0.02344,-0.4335938 0.07031,-0.6914063 0.1875,-0.9023438 0.199219,-0.3867187 0.609375,-0.609375 1.089844,-0.609375 0.714844,0 1.253906,0.5039063 1.253906,1.1835938 0,0.5039062 -0.292968,0.9375 -0.855468,1.2539062 l -0.832032,0.46875 c -1.324218,0.75 -1.710937,1.359375 -1.78125,2.7539063 h 4.230469 z m 0,0"
       style="fill:#000000;fill-opacity:1;fill-rule:nonzero;stroke:none"
       aria-label="Domain2"
       transform="matrix(1.3333333,0,0,1.3333333,453.428,41.998667)" />
    <path
       id="path38"
       d="M 0,0 H 164.13274"
       style="fill:none;stroke:#000000;stroke-width:0.79701;stroke-linecap:butt;stroke-linejoin:miter;stroke-miterlimit:10;stroke-dasharray:none;stroke-opacity:1"
       transform="matrix(1.3333333,0,0,-1.3333333,32.781333,192.76933)" />
    <path
       id="path39"
       d="M 4.66248,0 C 3.28098,0.25902 1.0361,1.0361 -0.51805,1.94269 V -1.94269 C 1.0361,-1.0361 3.28098,-0.25902 4.66248,0"
       style="fill:#000000;fill-opacity:1;fill-rule:nonzero;stroke:none"
       transform="matrix(1.3333333,0,0,-1.3333333,251.62499,192.76933)" />
    <path
       id="path40"
       d="M 0,0 V 134.75761"
       style="fill:none;stroke:#000000;stroke-width:0.79701;stroke-linecap:butt;stroke-linejoin:miter;stroke-miterlimit:10;stroke-dasharray:none;stroke-opacity:1"
       transform="matrix(1.3333333,0,0,-1.3333333,32.781333,192.76933)" />
    <path
       id="path41"
       d="M 4.66248,0 C 3.28098,0.25902 1.0361,1.0361 -0.51805,1.94269 V -1.94269 C 1.0361,-1.0361 3.28098,-0.25902 4.66248,0"
       style="fill:#000000;fill-opacity:1;fill-rule:nonzero;stroke:none"
       transform="matrix(0,-1.3333333,-1.3333333,0,32.781333,13.09252)" />
  </g>
</svg>
