<?xml version="1.0" encoding="UTF-8" standalone="no"?>
<!-- Created with Inkscape (http://www.inkscape.org/) -->

<svg
   version="1.1"
   id="svg1"
   width="385.65866"
   height="196.72533"
   viewBox="0 0 385.65866 196.72533"
   xmlns="http://www.w3.org/2000/svg"
   xmlns:svg="http://www.w3.org/2000/svg">
  <defs
     id="defs1" />
  <g
     id="g1">
    <path
       id="path1"
       d="m -47.19336,-115.81158 c 0,-0.95362 5.07636,-1.72666 11.33855,-1.72666 6.26217,0 11.33854,0.77304 11.33854,1.72666 v 6.75135 c 0,0.95362 -5.07637,1.72666 -11.33854,1.72666 -6.26219,0 -11.33855,-0.77304 -11.33855,-1.72666 z m 0,6.75135 c 0,-0.95362 5.07636,-1.72665 11.33855,-1.72665 6.26217,0 11.33854,0.77303 11.33854,1.72665"
       style="fill:#ff8080;fill-opacity:1;fill-rule:nonzero;stroke:#000000;stroke-width:0.49814;stroke-linecap:butt;stroke-linejoin:miter;stroke-miterlimit:10;stroke-dasharray:none;stroke-opacity:1"
       transform="matrix(1,0,0,-1,114.88,40.767333)" />
    <path
       id="path2"
       d="m 122.88747,-115.81158 c 0,-0.95362 5.07637,-1.72666 11.33854,-1.72666 6.26218,0 11.33855,0.77304 11.33855,1.72666 v 6.75135 c 0,0.95362 -5.07637,1.72666 -11.33855,1.72666 -6.26217,0 -11.33854,-0.77304 -11.33854,-1.72666 z m 0,6.75135 c 0,-0.95362 5.07637,-1.72665 11.33854,-1.72665 6.26218,0 11.33855,0.77303 11.33855,1.72665"
       style="fill:#a9da9a;fill-opacity:1;fill-rule:nonzero;stroke:#000000;stroke-width:0.49814;stroke-linecap:butt;stroke-linejoin:miter;stroke-miterlimit:10;stroke-dasharray:none;stroke-opacity:1"
       transform="matrix(1,0,0,-1,114.88,40.767333)" />
    <path
       id="path3"
       d="m 173.21867,-155.53958 h 97.1895 v 195.9337 h -97.1895 z"
       style="fill:#fffff2;fill-opacity:1;fill-rule:nonzero;stroke:#b5b548;stroke-width:0.74721;stroke-linecap:butt;stroke-linejoin:miter;stroke-miterlimit:10;stroke-dasharray:none;stroke-opacity:1"
       transform="matrix(1,0,0,-1,114.88,40.767333)" />
    <path
       id="path4"
       d="m 10.45348,24.98497 c -2.71279,5.8176 -10.03894,9.63055 -16.36042,8.51595 -6.32148,-1.11462 -11.90178,-7.20328 -12.46127,-13.59784 -3.65249,4.33015 -10.77225,5.88906 -15.90021,3.48179 -5.12806,-2.40717 -8.48097,-8.88215 -7.48306,-14.45851 -3.50972,1.5607 -8.31468,0.40405 -10.73059,-2.58212 -2.41583,-2.98627 -2.54763,-7.93205 -0.28839,-11.03845 -2.329,-1.6713 -3.39699,-5.20122 -2.38547,-7.88338 1.01148,-2.68221 4.14502,-4.62903 6.9976,-4.34624 -0.45774,-4.40652 2.52703,-9.26254 6.66495,-10.84518 4.13793,-1.58264 9.60858,0.0397 12.20828,3.62701 1.54943,-5.83952 7.70534,-10.58604 13.7469,-10.60081 6.0416,-0.01485 12.22236,4.70121 13.80036,10.53312 3.09752,-5.54165 10.59954,-8.77134 16.75409,-7.21368 6.15454,1.55765 11.21813,7.96757 11.30646,14.31554 3.72803,-3.60228 10.35512,-4.35913 14.79954,-1.69049 4.44451,2.66861 6.89428,8.87562 5.46691,13.85934 3.2541,-0.59589 7.04173,1.34488 8.45956,4.33388 1.41783,2.98893 0.5268,7.15477 -1.9933,9.29791 1.81758,2.58559 1.64755,6.64832 -0.3795,9.07321 -2.02704,2.4249 -5.9964,3.31427 -8.86333,1.98393 -0.78427,7.36195 -7.352,14.26186 -14.66609,15.40969 -7.31413,1.14799 -15.69113,-3.40686 -18.69302,-10.17467 z"
       style="fill:none;stroke:#8f7874;stroke-width:1.49442;stroke-linecap:butt;stroke-linejoin:round;stroke-miterlimit:10;stroke-dasharray:none;stroke-opacity:1"
       transform="matrix(1,0,0,-1,114.88,40.767333)" />
    <path
       id="path5"
       d="m 42.57906,2.32877 c 0,0.31337 -0.02739,0.62667 -0.08179,0.93527 l 0.0675,0.00503 c -0.82284,-0.0636 -1.6289,0.53929 -1.80041,1.34661 0.2047,-0.96355 0.0035,-0.48992 0.55432,-1.3066 -0.46147,0.68425 -0.33505,1.68289 0.28235,2.23053 L 41.55037,5.49466 c -0.18417,0.25346 -0.39063,0.491 -0.61598,0.7086 L 40.98592,6.2472 C 40.3577,5.71198 39.35127,5.72577 38.73798,6.27805 39.46997,5.61888 39.02885,5.88402 39.95457,5.5472 39.17899,5.8294 38.69426,6.71153 38.87187,7.51747 l -0.01459,-0.0661 c -0.298,0.0968 -0.60456,0.16759 -0.91481,0.21113 l 0.0158,0.0659 C 37.76462,6.92613 36.94225,6.34567 36.12143,6.4319 37.10114,6.329 36.58852,6.28412 37.53545,6.55556 36.74207,6.32814 35.8314,6.757 35.50145,7.51346 L 35.52844,7.45137 C 35.23044,7.35455 34.94087,7.2316 34.66425,7.08449 L 34.63844,7.14714 C 34.95326,6.38426 34.62904,5.43132 33.91426,5.01869 34.7674,5.51118 34.37903,5.1735 34.98552,5.94974 34.47739,5.2994 33.48857,5.111 32.77693,5.52893 L 32.83536,5.49466 C 32.65118,5.2412 32.48918,4.97153 32.35185,4.68988 L 32.2941,4.72537 C 32.99724,4.29329 33.2951,3.3318 32.95941,2.57784 33.36009,3.47775 33.2443,2.97626 33.27855,3.96072 33.24983,3.1359 32.56067,2.40234 31.73927,2.32228 l 0.0674,0.00649 c 0,-0.31337 0.02739,-0.62667 0.08179,-0.93527 L 31.82095,1.38846 c 0.82285,0.0636 1.62891,-0.53928 1.80042,-1.34661 -0.2047,0.96355 -0.0036,0.48992 -0.55432,1.3066 0.46147,-0.68425 0.33505,-1.68288 -0.28235,-2.2305 l 0.05066,0.04495 c 0.18417,-0.25346 0.39062,-0.491 0.61598,-0.70862 l -0.05153,-0.04393 c 0.62822,0.53524 1.63464,0.52143 2.24794,-0.03085 -0.73199,0.65917 -0.29088,0.39403 -1.2166,0.73085 0.77559,-0.28219 1.26032,-1.16432 1.0827,-1.97027 l 0.01459,0.06611 c 0.29801,-0.09682 0.60457,-0.16759 0.91481,-0.21115 l -0.01579,-0.06587 c 0.19365,0.80224 1.01602,1.3827 1.83684,1.29648 -0.97971,0.1029 -0.46707,0.14778 -1.41402,-0.12366 0.79338,0.22743 1.70404,-0.20143 2.034,-0.9579 l -0.027,0.0621 c 0.29801,0.09681 0.58757,0.21976 0.8642,0.36687 l 0.0258,-0.06266 c -0.31482,0.76288 0.0094,1.71583 0.72419,2.12845 -0.85314,-0.49247 -0.46477,-0.1548 -1.07127,-0.93104 0.50814,0.65036 1.49696,0.83876 2.2086,0.42081 l -0.05843,0.03428 c 0.18417,0.25345 0.34619,0.52312 0.4835,0.80477 l 0.05776,-0.0355 C 41.38849,0.36424 41.09062,1.32574 41.42632,2.0797 41.02563,1.1798 41.14143,1.68129 41.10718,0.69681 c 0.02872,0.82483 0.71788,1.55838 1.53927,1.63846 l -0.06739,-0.0065 m -3.68528,0 c 0,0.93939 -0.76153,1.70093 -1.70091,1.70093 -0.93939,0 -1.70093,-0.76154 -1.70093,-1.70093 0,-0.9394 0.76154,-1.70092 1.70093,-1.70092 0.93938,0 1.70091,0.76152 1.70091,1.70092 z"
       style="fill:#ff0000;fill-opacity:1;fill-rule:evenodd;stroke:none"
       transform="matrix(1,0,0,-1,114.88,40.767333)" />
    <path
       id="path6"
       d="m 37.61801,-6.51506 c 0,0.51698 -0.04981,1.03409 -0.14841,1.54146 l -0.64248,-0.0612 c -0.8216,-0.07804 -1.63808,0.51061 -1.82366,1.3148 0.17211,-0.74576 -0.1214,-0.07088 0.30663,-0.70542 -0.4615,0.68424 -0.33513,1.68287 0.28227,2.23052 l 0.48279,0.42819 c -0.30383,0.41825 -0.64801,0.80728 -1.02606,1.15982 l -0.48383,-0.42698 c -0.6188,-0.54606 -1.62541,-0.54976 -2.24829,-0.00827 0.57759,-0.50214 -0.0565,-0.12865 0.66277,-0.39042 -0.77558,0.28226 -1.26036,1.16445 -1.08281,1.97042 L 32.0359,1.16803 C 31.54431,1.32777 31.03705,1.44022 30.52402,1.50319 L 30.38351,0.8733 c -0.17961,-0.80552 -0.99174,-1.40025 -1.81395,-1.3284 0.76247,-0.06663 0.03002,-0.1371 0.76574,0.07378 -0.79338,-0.22741 -1.70404,0.20145 -2.034,0.95789 L 27.04317,1.16803 C 26.55159,1.0083 26.07513,0.80106 25.623,0.55048 l 0.25662,-0.59212 c 0.32813,-0.75728 0.02063,-1.71576 -0.68679,-2.14086 0.65602,0.39422 0.10485,-0.09336 0.57607,0.50976 -0.5081,-0.65038 -1.49688,-0.8388 -2.20852,-0.42086 l -0.55646,0.32689 c -0.30385,-0.41823 -0.56753,-0.86572 -0.78596,-1.33426 l 0.55561,-0.32829 c 0.71059,-0.41972 1.02524,-1.37587 0.70279,-2.13561 0.29903,0.70459 0.13968,-0.01388 0.16631,0.75097 -0.02875,-0.82483 -0.71793,-1.55838 -1.53932,-1.63845 l -0.64231,-0.06271 c 0,-0.51697 0.04982,-1.03409 0.14843,-1.54144 l 0.64248,0.0612 c 0.8216,0.07803 1.63808,-0.51062 1.82365,-1.3148 -0.1721,0.74574 0.12139,0.07086 -0.30662,0.7054 0.4615,-0.68424 0.33513,-1.68287 -0.28227,-2.23052 l -0.48279,-0.42819 c 0.30383,-0.41825 0.64801,-0.80729 1.02606,-1.15982 l 0.48383,0.427 c 0.6188,0.54603 1.62541,0.54974 2.24829,0.0083 -0.57759,0.50216 0.0565,0.12865 -0.66278,0.39042 0.77559,-0.28226 1.26038,-1.16445 1.08282,-1.97044 l -0.13897,-0.63017 c 0.49159,-0.15974 0.99885,-0.27218 1.51188,-0.33516 l 0.14051,0.6299 c 0.17961,0.80551 0.99174,1.40027 1.81393,1.3284 -0.76245,0.06664 -0.03,0.13712 -0.76572,-0.07377 0.79339,0.22743 1.70404,-0.20143 2.034,-0.9579 l 0.25813,-0.59147 c 0.49158,0.15975 0.96802,0.36698 1.42017,0.61757 l -0.25662,0.59214 c -0.32813,0.75726 -0.02063,1.71574 0.68678,2.14083 -0.65601,-0.39421 -0.10484,0.09337 -0.57608,-0.50975 0.50812,0.65038 1.4969,0.83881 2.20854,0.42086 l 0.55646,-0.32689 c 0.30385,0.41824 0.56753,0.86572 0.78596,1.33426 l -0.55561,0.32829 c -0.71059,0.41972 -1.02524,1.37587 -0.7028,2.1356 -0.29902,-0.70459 -0.13967,0.01389 -0.1663,-0.75096 0.02875,0.82483 0.71793,1.55838 1.53932,1.63845 l 0.64229,0.06271 m -5.52736,0 c 0,1.40895 -1.14216,2.55112 -2.55111,2.55112 -1.40896,0 -2.55112,-1.14217 -2.55112,-2.55112 0,-1.40895 1.14216,-2.55112 2.55112,-2.55112 1.40895,0 2.55111,1.14217 2.55111,2.55112 z"
       style="fill:#ff8080;fill-opacity:1;fill-rule:evenodd;stroke:none"
       transform="matrix(1,0,0,-1,114.88,40.767333)" />
    <path
       id="path7"
       d="M 42.57906,-1.57436 75.75195,4.27551"
       style="fill:none;stroke:#b26cba;stroke-width:0.99628;stroke-linecap:butt;stroke-linejoin:round;stroke-miterlimit:10;stroke-dasharray:none;stroke-opacity:1"
       transform="matrix(1,0,0,-1,114.88,40.767333)" />
    <path
       id="path8"
       d="M 5.20058,0 C 3.65962,0.28891 1.15567,1.15567 -0.57784,2.1669 V -2.1669 C 1.15567,-1.15567 3.65962,-0.28891 5.20058,0"
       style="fill:#b26cba;fill-opacity:1;fill-rule:nonzero;stroke:none"
       transform="matrix(0.9848,-0.17365,-0.17365,-0.9848,190.63194,36.491833)" />
    <path
       id="path9"
       d="m 1.6555625,-2.7672708 h 2.046875 c 0.515625,0 0.921875,-0.15625 1.265625,-0.46875 0.390625,-0.359375 0.5625,-0.78125 0.5625,-1.390625 0,-1.21875 -0.71875,-1.90625 -2.015625,-1.90625 h -2.703125 v 6.53124997 h 0.84375 z m 0,-0.734375 v -2.296875 h 1.734375 c 0.796875,0 1.265625,0.421875 1.265625,1.140625 0,0.71875 -0.46875,1.15625 -1.265625,1.15625 z m 6.3125,-1.328125 c -1.3125,0 -2.109375,0.9375 -2.109375,2.515625 0,1.57812497 0.78125,2.51562497 2.125,2.51562497 1.3125,0 2.1250005,-0.9375 2.1250005,-2.48437497 0,-1.625 -0.7812505,-2.546875 -2.1406255,-2.546875 z m 0.015625,0.6875 c 0.84375,0 1.34375,0.6875 1.34375,1.859375 0,1.09375 -0.515625,1.79687497 -1.34375,1.79687497 -0.84375,0 -1.34375,-0.68749997 -1.34375,-1.82812497 0,-1.125 0.5,-1.828125 1.34375,-1.828125 z m 3.8789065,-0.5625 h -0.75 v 4.70312497 h 0.75 z m 0,-1.828125 h -0.75 v 0.9375 h 0.75 z m 4.566406,3.140625 c 0,-0.921875 -0.609375,-1.4375 -1.703125,-1.4375 -1.09375,0 -1.796875,0.5625 -1.796875,1.421875 0,0.75 0.375,1.09375 1.484375,1.359375 l 0.703125,0.171875 c 0.515625,0.125 0.734375,0.3125 0.734375,0.65625 0,0.43749997 -0.453125,0.73437497 -1.09375,0.73437497 -0.40625,0 -0.75,-0.109375 -0.9375,-0.3125 -0.125,-0.140625 -0.171875,-0.26562497 -0.21875,-0.60937497 h -0.78125 c 0.03125,1.09374997 0.640625,1.60937497 1.859375,1.60937497 1.1875,0 1.9375,-0.578125 1.9375,-1.48437497 0,-0.703125 -0.390625,-1.09375 -1.3125,-1.3125 l -0.71875,-0.171875 c -0.609375,-0.140625 -0.875,-0.34375 -0.875,-0.671875 0,-0.421875 0.390625,-0.703125 1,-0.703125 0.59375,0 0.921875,0.25 0.9375,0.75 z m 3,-1.4375 c -1.3125,0 -2.109375,0.9375 -2.109375,2.515625 0,1.57812497 0.78125,2.51562497 2.125,2.51562497 1.3125,0 2.125,-0.9375 2.125,-2.48437497 0,-1.625 -0.78125,-2.546875 -2.140625,-2.546875 z m 0.01563,0.6875 c 0.84375,0 1.34375,0.6875 1.34375,1.859375 0,1.09375 -0.515625,1.79687497 -1.34375,1.79687497 -0.84375,0 -1.34375,-0.68749997 -1.34375,-1.82812497 0,-1.125 0.5,-1.828125 1.34375,-1.828125 z m 3.15625,-0.5625 v 4.70312497 h 0.75 V -2.5953958 c 0,-0.953125 0.515625,-1.578125 1.28125,-1.578125 0.59375,0 0.96875,0.34375 0.96875,0.921875 v 3.24999997 h 0.75 V -3.5485208 c 0,-0.78125 -0.59375,-1.28125 -1.5,-1.28125 -0.703125,0 -1.140625,0.265625 -1.5625,0.921875 v -0.796875 z m 8.953125,2.609375 c 0,-0.71875 -0.04687,-1.15625 -0.1875,-1.5 -0.296875,-0.78125 -1.015625,-1.234375 -1.890625,-1.234375 -1.3125,0 -2.15625,1 -2.15625,2.546875 0,1.53124997 0.8125,2.48437497 2.140625,2.48437497 1.0625,0 1.8125,-0.609375 2,-1.62499997 h -0.75 c -0.203125,0.60937497 -0.625,0.93749997 -1.234375,0.93749997 -0.46875,0 -0.875,-0.21875 -1.125,-0.60937497 -0.1875,-0.265625 -0.25,-0.53125 -0.25,-1 z m -3.4375,-0.609375 c 0.0625,-0.875 0.59375,-1.4375 1.34375,-1.4375 0.734375,0 1.296875,0.609375 1.296875,1.375 0,0.015625 0,0.046875 0,0.0625 z m 8.269531,-3.828125 h -0.75 v 2.421875 c -0.3125,-0.46875 -0.8125,-0.71875 -1.4375,-0.71875 -1.21875,0 -2.015625,0.96875 -2.015625,2.46875 0,1.59374997 0.78125,2.56249997 2.046875,2.56249997 0.640625,0 1.09375,-0.234375 1.5,-0.828125 v 0.625 h 0.65625 z m -2.0625,2.390625 c 0.8125,0 1.3125,0.71875 1.3125,1.84375 0,1.09375 -0.515625,1.79687497 -1.296875,1.79687497 -0.828125,0 -1.375,-0.71874997 -1.375,-1.81249997 0,-1.09375 0.546875,-1.828125 1.359375,-1.828125 z m 9.304688,4.14062497 1.828125,-5.48437497 v 5.48437497 h 0.796875 V -6.5328958 h -1.15625 l -1.90625,5.68749997 -1.9375,-5.68749997 h -1.15625 v 6.53124997 h 0.796875 V -5.4860208 l 1.84375,5.48437497 z m 5.703125,-4.82812497 c -1.3125,0 -2.109375,0.9375 -2.109375,2.515625 0,1.57812497 0.78125,2.51562497 2.125,2.51562497 1.3125,0 2.125,-0.9375 2.125,-2.48437497 0,-1.625 -0.78125,-2.546875 -2.140625,-2.546875 z m 0.01563,0.6875 c 0.84375,0 1.34375,0.6875 1.34375,1.859375 0,1.09375 -0.515625,1.79687497 -1.34375,1.79687497 -0.84375,0 -1.34375,-0.68749997 -1.34375,-1.82812497 0,-1.125 0.5,-1.828125 1.34375,-1.828125 z m 6.96875,-2.390625 h -0.75 v 2.421875 c -0.3125,-0.46875 -0.8125,-0.71875 -1.4375,-0.71875 -1.21875,0 -2.015625,0.96875 -2.015625,2.46875 0,1.59374997 0.78125,2.56249997 2.046875,2.56249997 0.640625,0 1.09375,-0.234375 1.5,-0.828125 v 0.625 h 0.65625 z m -2.0625,2.390625 c 0.8125,0 1.3125,0.71875 1.3125,1.84375 0,1.09375 -0.515625,1.79687497 -1.296875,1.79687497 -0.828125,0 -1.375,-0.71874997 -1.375,-1.81249997 0,-1.09375 0.546875,-1.828125 1.359375,-1.828125 z m 7.207031,2.046875 c 0,-0.71875 -0.04687,-1.15625 -0.1875,-1.5 -0.296875,-0.78125 -1.015625,-1.234375 -1.890625,-1.234375 -1.3125,0 -2.15625,1 -2.15625,2.546875 0,1.53124997 0.8125,2.48437497 2.140625,2.48437497 1.0625,0 1.8125,-0.609375 2,-1.62499997 h -0.75 c -0.203125,0.60937497 -0.625,0.93749997 -1.234375,0.93749997 -0.46875,0 -0.875,-0.21875 -1.125,-0.60937497 -0.1875,-0.265625 -0.25,-0.53125 -0.25,-1 z m -3.4375,-0.609375 c 0.0625,-0.875 0.59375,-1.4375 1.34375,-1.4375 0.734375,0 1.296875,0.609375 1.296875,1.375 0,0.015625 0,0.046875 0,0.0625 z m 5.1875,-3.828125 h -0.75 v 6.53124997 h 0.75 z m 0,0"
       style="fill:#000000;fill-opacity:1;fill-rule:nonzero;stroke:none"
       aria-label="PoisonedModel"
       transform="translate(199.571,32.306333)" />
    <path
       id="path10"
       d="m 4.2502813,-1.9684583 0.671875,1.96874996667 h 0.9375 L 3.5627813,-6.5309583 H 2.4846563 L 0.15653125,2.9166667e-4 H 1.0471563 L 1.7346563,-1.9684583 Z m -0.234375,-0.6875 h -2.078125 l 1.078125,-2.984375 z M 9.66825,-4.7028333 v 0.6875 c -0.375,-0.5625 -0.828125,-0.8125 -1.421875,-0.8125 -1.203125,0 -2,1.03125 -2,2.5625 0,0.765625 0.203125,1.39062497 0.59375,1.84374997 0.34375,0.390625 0.84375,0.625 1.34375,0.625 0.59375,0 1,-0.25 1.421875,-0.84375 v 0.25 c 0,0.625 -0.078125,1.015625 -0.265625,1.28125 C 9.137,1.1721667 8.746375,1.3284167 8.29325,1.3284167 c -0.34375,0 -0.640625,-0.09375 -0.84375,-0.25 C 7.277625,0.93779167 7.1995,0.81279167 7.152625,0.53154167 H 6.387 C 6.48075,1.4221667 7.16825,1.9534167 8.262,1.9534167 c 0.703125,0 1.3125,-0.21875 1.609375,-0.59375 0.359375,-0.43750003 0.5,-1.03125003 0.5,-2.12500003 V -4.7028333 Z m -1.34375,0.5625 c 0.796875,0 1.28125,0.671875 1.28125,1.859375 0,1.109375 -0.484375,1.79687497 -1.28125,1.79687497 -0.8125,0 -1.296875,-0.68749997 -1.296875,-1.82812497 0,-1.125 0.5,-1.828125 1.296875,-1.828125 z m 6.328125,-0.5625 v 0.6875 c -0.375,-0.5625 -0.828125,-0.8125 -1.421875,-0.8125 -1.203125,0 -2,1.03125 -2,2.5625 0,0.765625 0.203125,1.39062497 0.59375,1.84374997 0.34375,0.390625 0.84375,0.625 1.34375,0.625 0.59375,0 1,-0.25 1.421875,-0.84375 v 0.25 c 0,0.625 -0.07813,1.015625 -0.265625,1.28125 -0.203125,0.28125003 -0.59375,0.43750003 -1.046875,0.43750003 -0.34375,0 -0.640625,-0.09375 -0.84375,-0.25 C 12.262,0.93779167 12.183875,0.81279167 12.137,0.53154167 h -0.765625 c 0.09375,0.89062503 0.78125,1.42187503 1.875,1.42187503 0.703125,0 1.3125,-0.21875 1.609375,-0.59375 0.359375,-0.43750003 0.5,-1.03125003 0.5,-2.12500003 V -4.7028333 Z m -1.34375,0.5625 c 0.796875,0 1.28125,0.671875 1.28125,1.859375 0,1.109375 -0.484375,1.79687497 -1.28125,1.79687497 -0.8125,0 -1.296875,-0.68749997 -1.296875,-1.82812497 0,-1.125 0.5,-1.828125 1.296875,-1.828125 z m 3.175781,-0.5625 V 2.9166667e-4 h 0.75 V -2.4372083 c 0,-0.671875 0.171875,-1.109375 0.53125,-1.375 0.234375,-0.171875 0.453125,-0.21875 0.96875,-0.234375 v -0.765625 c -0.125,-0.015625 -0.1875,-0.015625 -0.28125,-0.015625 -0.484375,0 -0.859375,0.28125 -1.28125,0.984375 v -0.859375 z m 6.957031,2.609375 c 0,-0.71875 -0.04687,-1.15625 -0.1875,-1.5 -0.296875,-0.78125 -1.015625,-1.234375 -1.890625,-1.234375 -1.3125,0 -2.15625,1 -2.15625,2.546875 0,1.53124997 0.8125,2.48437497 2.140625,2.48437497 1.0625,0 1.8125,-0.609375 2,-1.62499997 h -0.75 c -0.203125,0.60937497 -0.625,0.93749997 -1.234375,0.93749997 -0.46875,0 -0.875,-0.21875 -1.125,-0.60937497 -0.1875,-0.265625 -0.25,-0.53125 -0.25,-1 z m -3.4375,-0.609375 c 0.0625,-0.875 0.59375,-1.4375 1.34375,-1.4375 0.734375,0 1.296875,0.609375 1.296875,1.375 0,0.015625 0,0.046875 0,0.0625 z m 7.515625,-2 v 0.6875 c -0.375,-0.5625 -0.828125,-0.8125 -1.421875,-0.8125 -1.203125,0 -2,1.03125 -2,2.5625 0,0.765625 0.203125,1.39062497 0.59375,1.84374997 0.34375,0.390625 0.84375,0.625 1.34375,0.625 0.59375,0 1,-0.25 1.421875,-0.84375 v 0.25 c 0,0.625 -0.07813,1.015625 -0.265625,1.28125 -0.203125,0.28125003 -0.59375,0.43750003 -1.046875,0.43750003 -0.34375,0 -0.640625,-0.09375 -0.84375,-0.25 -0.171875,-0.14062503 -0.25,-0.26562503 -0.296875,-0.54687503 h -0.765625 c 0.09375,0.89062503 0.78125,1.42187503 1.875,1.42187503 0.703125,0 1.3125,-0.21875 1.609375,-0.59375 0.359375,-0.43750003 0.5,-1.03125003 0.5,-2.12500003 V -4.7028333 Z m -1.34375,0.5625 c 0.796875,0 1.28125,0.671875 1.28125,1.859375 0,1.109375 -0.484375,1.79687497 -1.28125,1.79687497 -0.8125,0 -1.296875,-0.68749997 -1.296875,-1.82812497 0,-1.125 0.5,-1.828125 1.296875,-1.828125 z m 7.4375,3.70312497 c -0.07813,0.015625 -0.109375,0.015625 -0.15625,0.015625 -0.265625,0 -0.40625,-0.140625 -0.40625,-0.375 V -3.5465833 c 0,-0.84375 -0.609375,-1.28125 -1.765625,-1.28125 -0.6875,0 -1.25,0.1875 -1.5625,0.546875 -0.21875,0.234375 -0.3125,0.5 -0.328125,0.96875 h 0.765625 c 0.0625,-0.578125 0.390625,-0.828125 1.09375,-0.828125 0.671875,0 1.046875,0.25 1.046875,0.703125 v 0.1875 c 0,0.3125 -0.1875,0.453125 -0.78125,0.53125 -1.046875,0.125 -1.21875,0.15625 -1.5,0.28125 -0.546875,0.21875 -0.828125,0.640625 -0.828125,1.25 0,0.85937497 0.59375,1.39062497 1.546875,1.39062497 0.59375,0 1.0625,-0.20312500333 1.59375,-0.6875 0.04687,0.46875 0.28125,0.6875 0.765625,0.6875 0.15625,0 0.28125,-0.015625 0.515625,-0.078125 z m -1.3125,-1.04687497 c 0,0.25 -0.0625,0.40625 -0.296875,0.60937497 -0.296875,0.28125 -0.671875,0.421875 -1.109375,0.421875 -0.578125,0 -0.921875,-0.265625 -0.921875,-0.74999997 0,-0.484375 0.328125,-0.75 1.125,-0.859375 0.796875,-0.109375 0.953125,-0.140625 1.203125,-0.265625 z m 3.785157,-3.21875 h -0.78125 v -1.28125 h -0.734375 v 1.28125 h -0.640625 v 0.609375 h 0.640625 v 3.56249997 c 0,0.46875 0.3125,0.734375 0.90625,0.734375 0.171875,0 0.359375,-0.015625 0.609375,-0.0625 v -0.625 c -0.109375,0.03125 -0.21875,0.03125 -0.359375,0.03125 -0.328125,0 -0.421875,-0.078125 -0.421875,-0.421875 V -4.0934583 h 0.78125 z m 1.554687,0 h -0.75 V 2.9166667e-4 h 0.75 z m 0,-1.828125 h -0.75 v 0.9375 h 0.75 z m 3.082031,1.703125 c -1.3125,0 -2.109375,0.9375 -2.109375,2.515625 0,1.57812497 0.78125,2.51562497 2.125,2.51562497 1.3125,0 2.125,-0.9375 2.125,-2.48437497 0,-1.625 -0.78125,-2.546875 -2.140625,-2.546875 z m 0.01563,0.6875 c 0.84375,0 1.34375,0.6875 1.34375,1.859375 0,1.09375 -0.515625,1.79687497 -1.34375,1.79687497 -0.84375,0 -1.34375,-0.68749997 -1.34375,-1.82812497 0,-1.125 0.5,-1.828125 1.34375,-1.828125 z m 3.15625,-0.5625 V 2.9166667e-4 h 0.75 V -2.5934583 c 0,-0.953125 0.515625,-1.578125 1.28125,-1.578125 0.59375,0 0.96875,0.34375 0.96875,0.921875 V 2.9166667e-4 h 0.75 V -3.5465833 c 0,-0.78125 -0.59375,-1.28125 -1.5,-1.28125 -0.703125,0 -1.140625,0.265625 -1.5625,0.921875 v -0.796875 z m 0,0"
       style="fill:#000000;fill-opacity:1;fill-rule:nonzero;stroke:none"
       aria-label="Aggregation"
       transform="translate(207.363,43.265333)" />
    <path
       id="path11"
       d="m -21.25989,-3.1182 c 5.79863,-1.02241 8.89896,-5.5401 9.18311,-7.15133 0.40773,-2.31265 -1.10052,-4.68004 -3.36885,-5.28775 -3.3673,-0.90239 -8.2612,-0.90239 -11.62851,0 -2.26831,0.60771 -3.77658,2.9751 -3.36886,5.28775 0.28417,1.61123 3.38448,6.12892 9.18311,7.15133"
       style="fill:#87cb72;fill-opacity:1;fill-rule:nonzero;stroke:#000000;stroke-width:0.99628;stroke-linecap:butt;stroke-linejoin:round;stroke-miterlimit:10;stroke-dasharray:none;stroke-opacity:1"
       transform="matrix(1,0,0,-1,114.88,40.767333)" />
    <path
       id="path12"
       d="m -16.29912,-0.28352 c 0,2.73977 -2.22098,4.96075 -4.96077,4.96075 -2.73979,0 -4.96077,-2.22098 -4.96077,-4.96075 0,-2.7398 2.22098,-4.96078 4.96077,-4.96078 2.73979,0 4.96077,2.22098 4.96077,4.96078 z"
       style="fill:#fff200;fill-opacity:1;fill-rule:nonzero;stroke:#000000;stroke-width:0.99628;stroke-linecap:butt;stroke-linejoin:round;stroke-miterlimit:10;stroke-dasharray:none;stroke-opacity:1"
       transform="matrix(1,0,0,-1,114.88,40.767333)" />
    <path
       id="path13"
       d="m -25.51193,-7.37024 c 5.79863,-1.02243 8.89894,-5.54011 9.1831,-7.15135 0.40773,-2.31265 -1.10054,-4.68004 -3.36885,-5.28775 -3.36731,-0.90239 -8.26122,-0.90239 -11.62851,0 -2.26832,0.60771 -3.77658,2.9751 -3.36885,5.28775 0.28415,1.61124 3.38448,6.12892 9.18311,7.15135"
       style="fill:#87cb72;fill-opacity:1;fill-rule:nonzero;stroke:#000000;stroke-width:0.99628;stroke-linecap:butt;stroke-linejoin:round;stroke-miterlimit:10;stroke-dasharray:none;stroke-opacity:1"
       transform="matrix(1,0,0,-1,114.88,40.767333)" />
    <path
       id="path14"
       d="m -20.55116,-4.53558 c 0,2.73979 -2.22098,4.96075 -4.96077,4.96075 -2.73979,0 -4.96077,-2.22096 -4.96077,-4.96075 0,-2.7398 2.22098,-4.96077 4.96077,-4.96077 2.73979,0 4.96077,2.22097 4.96077,4.96077 z"
       style="fill:#fff200;fill-opacity:1;fill-rule:nonzero;stroke:#000000;stroke-width:0.99628;stroke-linecap:butt;stroke-linejoin:round;stroke-miterlimit:10;stroke-dasharray:none;stroke-opacity:1"
       transform="matrix(1,0,0,-1,114.88,40.767333)" />
    <path
       id="path15"
       d="m 5.345,-4.6263958 c 0,-1.28125 -0.890625,-2.015625 -2.390625,-2.015625 -1.4375,0 -2.328125,0.734375 -2.328125,1.90625 0,0.8125 0.421875,1.3125 1.28125,1.53125 l 1.625,0.4375 c 0.828125,0.203125 1.203125,0.546875 1.203125,1.046875 0,0.359375 -0.1875,0.71875 -0.46875,0.90624997 -0.25,0.1875 -0.671875,0.28125 -1.203125,0.28125 -0.703125,0 -1.1875,-0.171875 -1.5,-0.54687497 -0.25,-0.28125 -0.359375,-0.59375 -0.34375,-1 H 0.43875 c 0,0.59375 0.125,1 0.375,1.35937497 0.453125,0.609375 1.203125,0.921875 2.203125,0.921875 0.78125,0 1.421875,-0.171875 1.84375,-0.5 0.4375,-0.34375 0.703125,-0.93749997 0.703125,-1.49999997 0,-0.796875 -0.5,-1.390625 -1.390625,-1.640625 l -1.640625,-0.4375 c -0.78125,-0.21875 -1.0625,-0.46875 -1.0625,-0.96875 0,-0.65625 0.578125,-1.109375 1.453125,-1.109375 1.046875,0 1.625,0.484375 1.640625,1.328125 z m 5.230469,2.53125 c 0,-0.71875 -0.04687,-1.15625 -0.1875,-1.5 -0.296875,-0.78125 -1.0156253,-1.234375 -1.8906253,-1.234375 -1.3125,0 -2.15625,1 -2.15625,2.546875 0,1.53124997 0.8125,2.48437497 2.140625,2.48437497 1.0625,0 1.8125003,-0.609375 2.0000003,-1.62499997 H 9.7317187 c -0.203125,0.60937497 -0.625,0.93749997 -1.234375,0.93749997 -0.46875,0 -0.875,-0.21875 -1.125,-0.60937497 -0.1875,-0.265625 -0.25,-0.53125 -0.25,-1 z m -3.4375003,-0.609375 c 0.0625,-0.875 0.59375,-1.4375 1.34375,-1.4375 0.734375,0 1.296875,0.609375 1.296875,1.375 0,0.015625 0,0.046875 0,0.0625 z m 4.4531253,-2 v 4.70312497 h 0.75 V -2.4388958 c 0,-0.671875 0.171875,-1.109375 0.53125,-1.375 0.234375,-0.171875 0.453125,-0.21875 0.96875,-0.234375 v -0.765625 c -0.125,-0.015625 -0.1875,-0.015625 -0.28125,-0.015625 -0.484375,0 -0.859375,0.28125 -1.28125,0.984375 v -0.859375 z m 5.183593,4.70312497 1.796875,-4.70312497 h -0.84375 l -1.328125,3.81249997 -1.25,-3.81249997 h -0.84375 l 1.640625,4.70312497 z m 6.296875,-2.09374997 c 0,-0.71875 -0.04687,-1.15625 -0.1875,-1.5 -0.296875,-0.78125 -1.015625,-1.234375 -1.890625,-1.234375 -1.3125,0 -2.15625,1 -2.15625,2.546875 0,1.53124997 0.8125,2.48437497 2.140625,2.48437497 1.0625,0 1.8125,-0.609375 2,-1.62499997 h -0.75 c -0.203125,0.60937497 -0.625,0.93749997 -1.234375,0.93749997 -0.46875,0 -0.875,-0.21875 -1.125,-0.60937497 -0.1875,-0.265625 -0.25,-0.53125 -0.25,-1 z m -3.4375,-0.609375 c 0.0625,-0.875 0.59375,-1.4375 1.34375,-1.4375 0.734375,0 1.296875,0.609375 1.296875,1.375 0,0.015625 0,0.046875 0,0.0625 z m 4.457032,-2 v 4.70312497 h 0.75 V -2.4388958 c 0,-0.671875 0.171875,-1.109375 0.53125,-1.375 0.234375,-0.171875 0.453125,-0.21875 0.96875,-0.234375 v -0.765625 c -0.125,-0.015625 -0.1875,-0.015625 -0.28125,-0.015625 -0.484375,0 -0.859375,0.28125 -1.28125,0.984375 v -0.859375 z m 0,0"
       style="fill:#000000;fill-opacity:1;fill-rule:nonzero;stroke:none"
       aria-label="Server"
       transform="translate(101.655,25.712333)" />
    <path
       id="path16"
       d="m -60.67873,-96.37915 h -48.7234 c -2.20094,0 -3.98511,-1.78416 -3.98511,-3.98511 v -26.04594 c 0,-2.20095 1.78417,-3.98511 3.98511,-3.98511 h 48.7234 c 2.20095,0 3.98511,1.78416 3.98511,3.98511 v 26.04594 c 0,2.20095 -1.78416,3.98511 -3.98511,3.98511 z"
       style="fill:#e6f7fd;fill-opacity:1;fill-rule:nonzero;stroke:#2294bd;stroke-width:1.99255;stroke-linecap:butt;stroke-linejoin:round;stroke-miterlimit:10;stroke-dasharray:none;stroke-opacity:1"
       transform="matrix(1,0,0,-1,114.88,40.767333)" />
    <path
       id="path17"
       d="m -114.3835,-125.9905 h 58.68614"
       style="fill:none;stroke:#2294bd;stroke-width:0.99628;stroke-linecap:butt;stroke-linejoin:round;stroke-miterlimit:10;stroke-dasharray:none;stroke-opacity:1"
       transform="matrix(1,0,0,-1,114.88,40.767333)" />
    <path
       id="path18"
       d="m -90.9094,-131.39157 v -5.66928"
       style="fill:none;stroke:#2294bd;stroke-width:0.99628;stroke-linecap:butt;stroke-linejoin:round;stroke-miterlimit:10;stroke-dasharray:none;stroke-opacity:1"
       transform="matrix(1,0,0,-1,114.88,40.767333)" />
    <path
       id="path19"
       d="m -79.17145,-131.39157 v -5.66928"
       style="fill:none;stroke:#2294bd;stroke-width:0.99628;stroke-linecap:butt;stroke-linejoin:round;stroke-miterlimit:10;stroke-dasharray:none;stroke-opacity:1"
       transform="matrix(1,0,0,-1,114.88,40.767333)" />
    <path
       id="path20"
       d="m -99.41342,-137.06085 h 28.746"
       style="fill:none;stroke:#2294bd;stroke-width:2.98883;stroke-linecap:butt;stroke-linejoin:round;stroke-miterlimit:10;stroke-dasharray:none;stroke-opacity:1"
       transform="matrix(1,0,0,-1,114.88,40.767333)" />
    <path
       id="path21"
       d="m 5.9390313,-4.5143021 c -0.265625,-1.4375 -1.078125,-2.125 -2.515625,-2.125 -0.890625,0 -1.59375,0.265625 -2.078125,0.8125 -0.59375005,0.640625 -0.90625005,1.578125 -0.90625005,2.640625 0,1.078125 0.328125,2 0.93750005,2.62500002 0.515625,0.53125 1.15625,0.765625 2,0.765625 1.609375,0 2.5,-0.859375 2.703125,-2.59375002 h -0.875 c -0.0625,0.453125 -0.15625,0.765625 -0.28125,1.015625 -0.28125,0.54687502 -0.828125,0.84375002 -1.53125,0.84375002 -1.296875,0 -2.125,-1.03125002 -2.125,-2.67187502 0,-1.671875 0.78125,-2.703125 2.046875,-2.703125 0.53125,0 1.03125,0.15625 1.296875,0.40625 0.25,0.21875 0.375,0.5 0.46875,0.984375 z m 1.8945312,-2.015625 h -0.75 v 6.53125002 h 0.75 z m 1.9726563,1.828125 h -0.75 v 4.70312502 h 0.75 z m 0,-1.828125 h -0.75 v 0.9375 h 0.75 z m 5.2421872,4.4375 c 0,-0.71875 -0.04687,-1.15625 -0.1875,-1.5 -0.296875,-0.78125 -1.015625,-1.234375 -1.890625,-1.234375 -1.3125,0 -2.15625,1 -2.15625,2.546875 0,1.53125002 0.8125,2.48437502 2.140625,2.48437502 1.0625,0 1.8125,-0.609375 2,-1.62500002 h -0.75 c -0.203125,0.60937502 -0.625,0.93750002 -1.234375,0.93750002 -0.46875,0 -0.875,-0.21875 -1.125,-0.60937502 -0.1875,-0.265625 -0.25,-0.53125 -0.25,-1 z m -3.4375,-0.609375 c 0.0625,-0.875 0.59375,-1.4375 1.34375,-1.4375 0.734375,0 1.296875,0.609375 1.296875,1.375 0,0.015625 0,0.046875 0,0.0625 z m 4.453125,-2 v 4.70312502 h 0.75 V -2.5924271 c 0,-0.953125 0.515625,-1.578125 1.28125,-1.578125 0.59375,0 0.96875,0.34375 0.96875,0.921875 v 3.25000002 h 0.75 V -3.5455521 c 0,-0.78125 -0.59375,-1.28125 -1.5,-1.28125 -0.703125,0 -1.140625,0.265625 -1.5625,0.921875 v -0.796875 z m 6.644532,0 h -0.78125 v -1.28125 h -0.734375 v 1.28125 h -0.640625 v 0.609375 h 0.640625 v 3.56250002 c 0,0.46875 0.3125,0.734375 0.90625,0.734375 0.171875,0 0.359375,-0.015625 0.609375,-0.0625 v -0.625 c -0.109375,0.03125 -0.21875,0.03125 -0.359375,0.03125 -0.328125,0 -0.421875,-0.078125 -0.421875,-0.421875 V -4.0924271 h 0.78125 z m 5.03125,0.171875 v 4.53125002 h 0.78125 V -6.3580521 h -0.515625 c -0.28125,0.984375 -0.453125,1.109375 -1.671875,1.265625 v 0.5625 z m 0,0"
       style="fill:#000000;fill-opacity:1;fill-rule:nonzero;stroke:none"
       aria-label="Client1"
       transform="translate(14.643,193.22133)" />
    <path
       id="path22"
       d="m -109.46318,-107.45688 h 7.1676 v 6.14366 h -7.1676 z"
       style="fill:none;stroke:#495938;stroke-width:0.3985;stroke-linecap:butt;stroke-linejoin:round;stroke-miterlimit:10;stroke-dasharray:none;stroke-opacity:1"
       transform="matrix(1,0,0,-1,114.88,40.767333)" />
    <path
       id="path23"
       d="m 5.6718438,-4.0798333 c 0.109375,-0.09375 0.125,-0.140625 0.125,-0.203125 0,-0.109375 -0.078125,-0.1875 -0.1875,-0.1875 -0.0625,0 -0.078125,0.015625 -0.1875,0.109375 l -1.84375,1.84375 -1.921875,-1.921875 c -0.046875,-0.03125 -0.09375,-0.03125 -0.109375,-0.03125 -0.109375,0 -0.1875,0.078125 -0.1875,0.1875 0,0.078125 0.03125,0.109375 0.125,0.203125 l 1.828125,1.828125 -1.828125,1.81249997 c -0.125,0.125 -0.125,0.171875 -0.125,0.21875 0,0.109375 0.078125,0.203125 0.1875,0.203125 0.015625,0 0.0625,0 0.109375,-0.03125 l 1.921875,-1.92187497 1.875,1.85937497 c 0.046875,0.0625 0.078125,0.09375 0.15625,0.09375 0.109375,0 0.1875,-0.078125 0.1875,-0.203125 0,-0.03125 -0.015625,-0.09375 -0.03125,-0.109375 -0.03125,-0.03125 -1.609375,-1.62499997 -1.921875,-1.92187497 z m 0,0"
       style="fill:#495938;fill-opacity:1;fill-rule:nonzero;stroke:none"
       aria-label="×"
       transform="translate(5.418,147.39233)" />
    <path
       id="path24"
       d="m -109.46318,-120.06017 h 7.1676 v 6.14366 h -7.1676 z"
       style="fill:none;stroke:#495938;stroke-width:0.3985;stroke-linecap:butt;stroke-linejoin:round;stroke-miterlimit:10;stroke-dasharray:none;stroke-opacity:1"
       transform="matrix(1,0,0,-1,114.88,40.767333)" />
    <path
       id="path25"
       d="m 5.6718438,-4.0773646 c 0.109375,-0.09375 0.125,-0.140625 0.125,-0.203125 0,-0.109375 -0.078125,-0.1875 -0.1875,-0.1875 -0.0625,0 -0.078125,0.015625 -0.1875,0.109375 l -1.84375,1.84375 -1.921875,-1.921875 c -0.046875,-0.03125 -0.09375,-0.03125 -0.109375,-0.03125 -0.109375,0 -0.1875,0.078125 -0.1875,0.1875 0,0.078125 0.03125,0.109375 0.125,0.203125 l 1.828125,1.828125 -1.828125,1.81250002 c -0.125,0.125 -0.125,0.171875 -0.125,0.21875 0,0.109375 0.078125,0.203125 0.1875,0.203125 0.015625,0 0.0625,0 0.109375,-0.03125 l 1.921875,-1.92187502 1.875,1.85937502 c 0.046875,0.0625 0.078125,0.09375 0.15625,0.09375 0.109375,0 0.1875,-0.078125 0.1875,-0.203125 0,-0.03125 -0.015625,-0.09375 -0.03125,-0.109375 -0.03125,-0.03125 -1.609375,-1.62500002 -1.921875,-1.92187502 z m 0,0"
       style="fill:#495938;fill-opacity:1;fill-rule:nonzero;stroke:none"
       aria-label="×"
       transform="translate(5.418,159.99533)" />
    <path
       id="path26"
       d="m -97.37524,-102.96764 0.99627,0.49814 1.99256,-0.99627 1.99255,0.99627 1.99256,-0.99627 1.99255,0.99627 1.99255,-0.99627 1.99255,0.99627 1.99256,-0.99627 1.99255,0.99627 1.99256,-0.99627 1.99255,0.99627 1.99255,-0.99627 1.99256,0.99627 1.99255,-0.99627 1.99255,0.99627 1.99256,-0.99627 1.99255,0.99627 1.99256,-0.99627 0.99627,0.49813 h 0.98498"
       style="fill:none;stroke:#495938;stroke-width:0.3985;stroke-linecap:butt;stroke-linejoin:round;stroke-miterlimit:10;stroke-dasharray:none;stroke-opacity:1"
       transform="matrix(1,0,0,-1,114.88,40.767333)" />
    <path
       id="path27"
       d="m -97.37524,-107.78651 0.99627,0.49813 1.99256,-0.99627 1.99255,0.99627 1.99256,-0.99627 1.99255,0.99627 1.99255,-0.99627 1.99255,0.99627 1.99256,-0.99627 1.99255,0.99627 1.99256,-0.99627 1.99255,0.99627 1.99255,-0.99627 1.99256,0.99627 1.99255,-0.99627 0.99628,0.49814 h 0.45105"
       style="fill:none;stroke:#495938;stroke-width:0.3985;stroke-linecap:butt;stroke-linejoin:round;stroke-miterlimit:10;stroke-dasharray:none;stroke-opacity:1"
       transform="matrix(1,0,0,-1,114.88,40.767333)" />
    <path
       id="path28"
       d="m -97.37524,-115.57092 0.99627,0.49814 1.99256,-0.99628 1.99255,0.99628 1.99256,-0.99628 1.99255,0.99628 1.99255,-0.99628 1.99255,0.99628 1.99256,-0.99628 1.99255,0.99628 1.99256,-0.99628 1.99255,0.99628 1.99255,-0.99628 1.99256,0.99628 1.99255,-0.99628 1.99255,0.99628 1.99256,-0.99628 1.99255,0.99628 1.99256,-0.99628 0.99627,0.49814 h 0.98498"
       style="fill:none;stroke:#495938;stroke-width:0.3985;stroke-linecap:butt;stroke-linejoin:round;stroke-miterlimit:10;stroke-dasharray:none;stroke-opacity:1"
       transform="matrix(1,0,0,-1,114.88,40.767333)" />
    <path
       id="path29"
       d="m -97.37524,-120.38982 0.99627,0.49814 1.99256,-0.99627 1.99255,0.99627 1.99256,-0.99627 1.99255,0.99627 1.99255,-0.99627 1.99255,0.99627 1.99256,-0.99627 1.99255,0.99627 1.99256,-0.99627 1.99255,0.99627 1.99255,-0.99627 1.99256,0.99627 1.99255,-0.99627 0.99628,0.49813 h 0.45105"
       style="fill:none;stroke:#495938;stroke-width:0.3985;stroke-linecap:butt;stroke-linejoin:round;stroke-miterlimit:10;stroke-dasharray:none;stroke-opacity:1"
       transform="matrix(1,0,0,-1,114.88,40.767333)" />
    <path
       id="path30"
       d="m -55.96332,-33.12263 c 0,0.31336 -0.0274,0.62666 -0.08178,0.93527 l 0.06748,0.005 c -0.82283,-0.06359 -1.6289,0.53929 -1.80041,1.34662 0.2047,-0.96355 0.0036,-0.48992 0.55432,-1.3066 -0.46147,0.68425 -0.33505,1.68288 0.28235,2.23052 l -0.05064,-0.04496 c -0.18418,0.25346 -0.39064,0.491 -0.616,0.70862 l 0.05153,0.04393 c -0.62821,-0.53523 -1.63465,-0.52142 -2.24794,0.03084 0.73199,-0.65915 0.29088,-0.39401 1.2166,-0.73085 -0.77559,0.28221 -1.26032,1.16434 -1.08269,1.97029 l -0.0146,-0.06612 c -0.29801,0.09681 -0.60457,0.16759 -0.91481,0.21114 l 0.01579,0.06589 c -0.19364,-0.80225 -1.01602,-1.38271 -1.83684,-1.29648 0.97971,-0.1029 0.46709,-0.14778 1.41402,0.12364 -0.79338,-0.22742 -1.70404,0.20145 -2.034,0.95792 l 0.02699,-0.06211 c -0.298,-0.0968 -0.58757,-0.21975 -0.86419,-0.36686 l -0.02581,0.06265 c 0.31482,-0.76289 -0.0094,-1.71582 -0.72416,-2.12845 0.85311,0.49248 0.46475,0.1548 1.07124,0.93105 -0.50813,-0.65036 -1.49695,-0.83876 -2.20859,-0.42081 l 0.05843,-0.03429 c -0.18417,-0.25346 -0.34617,-0.52313 -0.48351,-0.80478 l -0.05775,0.03551 c 0.70314,-0.4321 1.00101,-1.39358 0.66533,-2.14754 0.40066,0.89991 0.28486,0.39841 0.31912,1.38289 -0.02872,-0.82482 -0.71788,-1.55838 -1.53928,-1.63846 l 0.0674,0.0065 c 0,-0.31339 0.02739,-0.62668 0.08179,-0.93527 l -0.06751,-0.005 c 0.82285,0.06358 1.62891,-0.53929 1.80042,-1.34661 -0.20468,0.96355 -0.0036,0.48992 -0.55432,1.3066 0.46147,-0.68427 0.33505,-1.68289 -0.28235,-2.23053 l 0.05066,0.04495 c 0.18417,-0.25346 0.39063,-0.491 0.61598,-0.7086 l -0.05151,-0.04395 c 0.6282,0.53524 1.63463,0.52144 2.24792,-0.03083 -0.73199,0.65914 -0.29088,0.39401 -1.2166,0.73085 0.77559,-0.28222 1.26032,-1.16434 1.08271,-1.9703 l 0.01458,0.06612 c 0.29801,-0.0968 0.60457,-0.16759 0.91481,-0.21114 l -0.01579,-0.06588 c 0.19365,0.80226 1.01603,1.3827 1.83684,1.29649 -0.97971,0.10289 -0.46707,0.14777 -1.41401,-0.12366 0.79337,0.22742 1.70403,-0.20144 2.03399,-0.95791 l -0.02699,0.0621 c 0.298,0.09682 0.58757,0.21976 0.8642,0.36687 l 0.0258,-0.06264 c -0.31482,0.76288 0.0094,1.71581 0.72418,2.12843 -0.85312,-0.49247 -0.46476,-0.1548 -1.07126,-0.93104 0.50815,0.65036 1.49696,0.83876 2.20858,0.42081 l -0.0584,0.03428 c 0.18415,0.25347 0.34617,0.52313 0.48349,0.80478 l 0.05775,-0.03549 c -0.70314,0.43208 -1.00101,1.39357 -0.66531,2.14754 -0.40068,-0.89992 -0.28487,-0.39843 -0.31914,-1.38291 0.02871,0.82483 0.71788,1.5584 1.53927,1.63846 l -0.06738,-0.0065 m -3.68528,0 c 0,0.93939 -0.76153,1.70091 -1.70092,1.70091 -0.93939,0 -1.70093,-0.76152 -1.70093,-1.70091 0,-0.9394 0.76154,-1.70093 1.70093,-1.70093 0.93939,0 1.70092,0.76153 1.70092,1.70093 z"
       style="fill:#ff0000;fill-opacity:1;fill-rule:evenodd;stroke:none"
       transform="matrix(1,0,0,-1,114.88,40.767333)" />
    <path
       id="path31"
       d="m -66.46742,-39.9142 -8.07833,-10.72049"
       style="fill:none;stroke:#000000;stroke-width:0.3985;stroke-linecap:butt;stroke-linejoin:round;stroke-miterlimit:10;stroke-dasharray:none;stroke-opacity:1"
       transform="matrix(1,0,0,-1,114.88,40.767333)" />
    <path
       id="path32"
       d="M 3.58653,0 C 2.52383,0.19925 0.797,0.797 -0.3985,1.49438 V -1.49438 C 0.797,-0.797 2.52383,-0.19925 3.58653,0"
       style="fill:#000000;fill-opacity:1;fill-rule:nonzero;stroke:none"
       transform="matrix(-0.60182,0.79863,0.79863,0.60182,40.33425,91.402023)" />
    <path
       id="path33"
       d="m -47.1932,-106.94022 c 0,-0.95361 5.07635,-1.72665 11.33854,-1.72665 6.26218,0 11.33855,0.77304 11.33855,1.72665 v 6.75136 c 0,0.95362 -5.07637,1.72666 -11.33855,1.72666 -6.26219,0 -11.33854,-0.77304 -11.33854,-1.72666 z m 0,6.75136 c 0,-0.95363 5.07635,-1.72665 11.33854,-1.72665 6.26218,0 11.33855,0.77302 11.33855,1.72665"
       style="fill:#ffb3b3;fill-opacity:1;fill-rule:nonzero;stroke:#000000;stroke-width:0.49814;stroke-linecap:butt;stroke-linejoin:round;stroke-miterlimit:10;stroke-dasharray:none;stroke-opacity:1"
       transform="matrix(1,0,0,-1,114.88,40.767333)" />
    <path
       id="path34"
       d="m -47.19304,-98.06874 c 0,-0.95363 5.07636,-1.72666 11.33855,-1.72666 6.26217,0 11.33854,0.77303 11.33854,1.72666 v 6.75134 c 0,0.95363 -5.07637,1.72666 -11.33854,1.72666 -6.26219,0 -11.33855,-0.77303 -11.33855,-1.72666 z m 0,6.75134 c 0,-0.95361 5.07636,-1.72665 11.33855,-1.72665 6.26217,0 11.33854,0.77304 11.33854,1.72665"
       style="fill:#ffe6e6;fill-opacity:1;fill-rule:nonzero;stroke:#000000;stroke-width:0.49814;stroke-linecap:butt;stroke-linejoin:round;stroke-miterlimit:10;stroke-dasharray:none;stroke-opacity:1"
       transform="matrix(1,0,0,-1,114.88,40.767333)" />
    <path
       id="path35"
       d="m -45.39041,-26.20439 -46.203,-69.17848"
       style="fill:none;stroke:#b26cba;stroke-width:0.99628;stroke-linecap:butt;stroke-linejoin:round;stroke-miterlimit:10;stroke-dasharray:2.98883, 2.98883;stroke-dashoffset:0;stroke-opacity:1"
       transform="matrix(1,0,0,-1,114.88,40.767333)" />
    <path
       id="path36"
       d="M -30.87268,-33.19038 -73.7899,-95.38287"
       style="fill:none;stroke:#b26cba;stroke-width:0.99628;stroke-linecap:butt;stroke-linejoin:round;stroke-miterlimit:10;stroke-dasharray:none;stroke-opacity:1"
       transform="matrix(1,0,0,-1,114.88,40.767333)" />
    <path
       id="path37"
       d="M 5.20058,0 C 3.65962,0.28891 1.15567,1.15567 -0.57784,2.1669 V -2.1669 C 1.15567,-1.15567 3.65962,-0.28891 5.20058,0"
       style="fill:#b26cba;fill-opacity:1;fill-rule:nonzero;stroke:none"
       transform="matrix(0.56793,-0.82301,-0.82301,-0.56793,84.00732,73.957713)" />
    <path
       id="path38"
       d="m 109.40213,-96.37915 h -48.7234 c -2.20095,0 -3.98511,-1.78416 -3.98511,-3.98511 v -26.04594 c 0,-2.20095 1.78416,-3.98511 3.98511,-3.98511 h 48.7234 c 2.20094,0 3.98511,1.78416 3.98511,3.98511 v 26.04594 c 0,2.20095 -1.78417,3.98511 -3.98511,3.98511 z"
       style="fill:#e6f7fd;fill-opacity:1;fill-rule:nonzero;stroke:#2294bd;stroke-width:1.99255;stroke-linecap:butt;stroke-linejoin:round;stroke-miterlimit:10;stroke-dasharray:none;stroke-opacity:1"
       transform="matrix(1,0,0,-1,114.88,40.767333)" />
    <path
       id="path39"
       d="M 55.69736,-125.9905 H 114.3835"
       style="fill:none;stroke:#2294bd;stroke-width:0.99628;stroke-linecap:butt;stroke-linejoin:round;stroke-miterlimit:10;stroke-dasharray:none;stroke-opacity:1"
       transform="matrix(1,0,0,-1,114.88,40.767333)" />
    <path
       id="path40"
       d="m 79.17145,-131.39157 v -5.66928"
       style="fill:none;stroke:#2294bd;stroke-width:0.99628;stroke-linecap:butt;stroke-linejoin:round;stroke-miterlimit:10;stroke-dasharray:none;stroke-opacity:1"
       transform="matrix(1,0,0,-1,114.88,40.767333)" />
    <path
       id="path41"
       d="m 90.9094,-131.39157 v -5.66928"
       style="fill:none;stroke:#2294bd;stroke-width:0.99628;stroke-linecap:butt;stroke-linejoin:round;stroke-miterlimit:10;stroke-dasharray:none;stroke-opacity:1"
       transform="matrix(1,0,0,-1,114.88,40.767333)" />
    <path
       id="path42"
       d="m 70.66742,-137.06085 h 28.746"
       style="fill:none;stroke:#2294bd;stroke-width:2.98883;stroke-linecap:butt;stroke-linejoin:round;stroke-miterlimit:10;stroke-dasharray:none;stroke-opacity:1"
       transform="matrix(1,0,0,-1,114.88,40.767333)" />
    <path
       id="path43"
       d="m 5.9381563,-4.5143021 c -0.265625,-1.4375 -1.078125,-2.125 -2.515625,-2.125 -0.890625,0 -1.59375,0.265625 -2.078125,0.8125 -0.59375005,0.640625 -0.90625005,1.578125 -0.90625005,2.640625 0,1.078125 0.328125,2 0.93750005,2.62500002 0.515625,0.53125 1.15625,0.765625 2,0.765625 1.609375,0 2.5,-0.859375 2.703125,-2.59375002 h -0.875 c -0.0625,0.453125 -0.15625,0.765625 -0.28125,1.015625 -0.28125,0.54687502 -0.828125,0.84375002 -1.53125,0.84375002 -1.296875,0 -2.125,-1.03125002 -2.125,-2.67187502 0,-1.671875 0.78125,-2.703125 2.046875,-2.703125 0.53125,0 1.03125,0.15625 1.296875,0.40625 0.25,0.21875 0.375,0.5 0.46875,0.984375 z m 1.8945312,-2.015625 h -0.75 v 6.53125002 h 0.75 z m 1.9765625,1.828125 h -0.75 v 4.70312502 h 0.75 z m 0,-1.828125 h -0.75 v 0.9375 h 0.75 z m 5.238281,4.4375 c 0,-0.71875 -0.04687,-1.15625 -0.1875,-1.5 -0.296875,-0.78125 -1.015625,-1.234375 -1.890625,-1.234375 -1.3125,0 -2.15625,1 -2.15625,2.546875 0,1.53125002 0.8125,2.48437502 2.140625,2.48437502 1.0625,0 1.8125,-0.609375 2,-1.62500002 h -0.75 c -0.203125,0.60937502 -0.625,0.93750002 -1.234375,0.93750002 -0.46875,0 -0.875,-0.21875 -1.125,-0.60937502 -0.1875,-0.265625 -0.25,-0.53125 -0.25,-1 z m -3.4375,-0.609375 c 0.0625,-0.875 0.59375,-1.4375 1.34375,-1.4375 0.734375,0 1.296875,0.609375 1.296875,1.375 0,0.015625 0,0.046875 0,0.0625 z m 4.453125,-2 v 4.70312502 h 0.75 V -2.5924271 c 0,-0.953125 0.515625,-1.578125 1.28125,-1.578125 0.59375,0 0.96875,0.34375 0.96875,0.921875 v 3.25000002 h 0.75 V -3.5455521 c 0,-0.78125 -0.59375,-1.28125 -1.5,-1.28125 -0.703125,0 -1.140625,0.265625 -1.5625,0.921875 v -0.796875 z m 6.644532,0 h -0.78125 v -1.28125 h -0.734375 v 1.28125 h -0.640625 v 0.609375 h 0.640625 v 3.56250002 c 0,0.46875 0.3125,0.734375 0.90625,0.734375 0.171875,0 0.359375,-0.015625 0.609375,-0.0625 v -0.625 c -0.109375,0.03125 -0.21875,0.03125 -0.359375,0.03125 -0.328125,0 -0.421875,-0.078125 -0.421875,-0.421875 V -4.0924271 h 0.78125 z m 7.226562,3.92187502 H 26.5905 c 0.09375,-0.51562502 0.375,-0.84375002 1.15625,-1.31250002 l 0.890625,-0.484375 c 0.890625,-0.484375 1.34375,-1.140625 1.34375,-1.921875 0,-0.515625 -0.203125,-1.015625 -0.59375,-1.359375 -0.375,-0.34375 -0.84375,-0.5 -1.4375,-0.5 -0.8125,0 -1.40625,0.28125 -1.75,0.828125 -0.234375,0.34375 -0.328125,0.734375 -0.34375,1.375 h 0.78125 c 0.03125,-0.421875 0.07813,-0.6875 0.1875,-0.890625 0.203125,-0.390625 0.625,-0.625 1.09375,-0.625 0.71875,0 1.265625,0.515625 1.265625,1.203125 0,0.5 -0.296875,0.921875 -0.859375,1.25 l -0.828125,0.46875 c -1.328125,0.75 -1.71875,1.34375 -1.78125,2.75000002 h 4.21875 z m 0,0"
       style="fill:#000000;fill-opacity:1;fill-rule:nonzero;stroke:none"
       aria-label="Client2"
       transform="translate(184.722,193.22133)" />
    <path
       id="path44"
       d="m 60.61768,-107.45688 h 7.1676 v 6.14366 h -7.1676 z"
       style="fill:none;stroke:#495938;stroke-width:0.3985;stroke-linecap:butt;stroke-linejoin:round;stroke-miterlimit:10;stroke-dasharray:none;stroke-opacity:1"
       transform="matrix(1,0,0,-1,114.88,40.767333)" />
    <path
       id="path45"
       d="m 5.6709688,-4.0798333 c 0.109375,-0.09375 0.125,-0.140625 0.125,-0.203125 0,-0.109375 -0.078125,-0.1875 -0.1875,-0.1875 -0.0625,0 -0.078125,0.015625 -0.1875,0.109375 l -1.84375,1.84375 -1.921875,-1.921875 c -0.046875,-0.03125 -0.09375,-0.03125 -0.109375,-0.03125 -0.109375,0 -0.1875,0.078125 -0.1875,0.1875 0,0.078125 0.03125,0.109375 0.125,0.203125 l 1.828125,1.828125 -1.828125,1.81249997 c -0.125,0.125 -0.125,0.171875 -0.125,0.21875 0,0.109375 0.078125,0.203125 0.1875,0.203125 0.015625,0 0.0625,0 0.109375,-0.03125 l 1.921875,-1.92187497 1.875,1.85937497 c 0.046875,0.0625 0.078125,0.09375 0.15625,0.09375 0.109375,0 0.1875,-0.078125 0.1875,-0.203125 0,-0.03125 -0.015625,-0.09375 -0.03125,-0.109375 -0.03125,-0.03125 -1.609375,-1.62499997 -1.921875,-1.92187497 z m 0,0"
       style="fill:#495938;fill-opacity:1;fill-rule:nonzero;stroke:none"
       aria-label="×"
       transform="translate(175.497,147.39233)" />
    <path
       id="path46"
       d="m 60.61768,-120.06017 h 7.1676 v 6.14366 h -7.1676 z"
       style="fill:none;stroke:#495938;stroke-width:0.3985;stroke-linecap:butt;stroke-linejoin:round;stroke-miterlimit:10;stroke-dasharray:none;stroke-opacity:1"
       transform="matrix(1,0,0,-1,114.88,40.767333)" />
    <path
       id="path47"
       d="m 5.6709688,-4.0773646 c 0.109375,-0.09375 0.125,-0.140625 0.125,-0.203125 0,-0.109375 -0.078125,-0.1875 -0.1875,-0.1875 -0.0625,0 -0.078125,0.015625 -0.1875,0.109375 l -1.84375,1.84375 -1.921875,-1.921875 c -0.046875,-0.03125 -0.09375,-0.03125 -0.109375,-0.03125 -0.109375,0 -0.1875,0.078125 -0.1875,0.1875 0,0.078125 0.03125,0.109375 0.125,0.203125 l 1.828125,1.828125 -1.828125,1.81250002 c -0.125,0.125 -0.125,0.171875 -0.125,0.21875 0,0.109375 0.078125,0.203125 0.1875,0.203125 0.015625,0 0.0625,0 0.109375,-0.03125 l 1.921875,-1.92187502 1.875,1.85937502 c 0.046875,0.0625 0.078125,0.09375 0.15625,0.09375 0.109375,0 0.1875,-0.078125 0.1875,-0.203125 0,-0.03125 -0.015625,-0.09375 -0.03125,-0.109375 -0.03125,-0.03125 -1.609375,-1.62500002 -1.921875,-1.92187502 z m 0,0"
       style="fill:#495938;fill-opacity:1;fill-rule:nonzero;stroke:none"
       aria-label="×"
       transform="translate(175.497,159.99533)" />
    <path
       id="path48"
       d="m 72.7056,-102.96764 0.99627,0.49814 1.99256,-0.99627 1.99255,0.99627 1.99255,-0.99627 1.99256,0.99627 1.99255,-0.99627 1.99256,0.99627 1.99255,-0.99627 1.99255,0.99627 1.99256,-0.99627 1.99255,0.99627 1.99255,-0.99627 1.99256,0.99627 1.99255,-0.99627 1.99256,0.99627 1.99255,-0.99627 1.99255,0.99627 1.99256,-0.99627 0.99627,0.49813 h 0.98497"
       style="fill:none;stroke:#495938;stroke-width:0.3985;stroke-linecap:butt;stroke-linejoin:round;stroke-miterlimit:10;stroke-dasharray:none;stroke-opacity:1"
       transform="matrix(1,0,0,-1,114.88,40.767333)" />
    <path
       id="path49"
       d="m 72.7056,-107.78651 0.99627,0.49813 1.99256,-0.99627 1.99255,0.99627 1.99255,-0.99627 1.99256,0.99627 1.99255,-0.99627 1.99256,0.99627 1.99255,-0.99627 1.99255,0.99627 1.99256,-0.99627 1.99255,0.99627 1.99255,-0.99627 1.99256,0.99627 1.99255,-0.99627 0.99628,0.49814 h 0.45106"
       style="fill:none;stroke:#495938;stroke-width:0.3985;stroke-linecap:butt;stroke-linejoin:round;stroke-miterlimit:10;stroke-dasharray:none;stroke-opacity:1"
       transform="matrix(1,0,0,-1,114.88,40.767333)" />
    <path
       id="path50"
       d="m 72.7056,-115.57092 0.99627,0.49814 1.99256,-0.99628 1.99255,0.99628 1.99255,-0.99628 1.99256,0.99628 1.99255,-0.99628 1.99256,0.99628 1.99255,-0.99628 1.99255,0.99628 1.99256,-0.99628 1.99255,0.99628 1.99255,-0.99628 1.99256,0.99628 1.99255,-0.99628 1.99256,0.99628 1.99255,-0.99628 1.99255,0.99628 1.99256,-0.99628 0.99627,0.49814 h 0.98497"
       style="fill:none;stroke:#495938;stroke-width:0.3985;stroke-linecap:butt;stroke-linejoin:round;stroke-miterlimit:10;stroke-dasharray:none;stroke-opacity:1"
       transform="matrix(1,0,0,-1,114.88,40.767333)" />
    <path
       id="path51"
       d="m 72.7056,-120.38982 0.99627,0.49814 1.99256,-0.99627 1.99255,0.99627 1.99255,-0.99627 1.99256,0.99627 1.99255,-0.99627 1.99256,0.99627 1.99255,-0.99627 1.99255,0.99627 1.99256,-0.99627 1.99255,0.99627 1.99255,-0.99627 1.99256,0.99627 1.99255,-0.99627 0.99628,0.49813 h 0.45106"
       style="fill:none;stroke:#495938;stroke-width:0.3985;stroke-linecap:butt;stroke-linejoin:round;stroke-miterlimit:10;stroke-dasharray:none;stroke-opacity:1"
       transform="matrix(1,0,0,-1,114.88,40.767333)" />
    <path
       id="path52"
       d="M 36.6506,-21.16168 78.48743,-95.38287"
       style="fill:none;stroke:#b26cba;stroke-width:0.99628;stroke-linecap:butt;stroke-linejoin:round;stroke-miterlimit:10;stroke-dasharray:2.98883, 2.98883;stroke-dashoffset:0;stroke-opacity:1"
       transform="matrix(1,0,0,-1,114.88,40.767333)" />
    <path
       id="path53"
       d="M 50.33972,-13.80473 96.73325,-95.38287"
       style="fill:none;stroke:#b26cba;stroke-width:0.99628;stroke-linecap:butt;stroke-linejoin:round;stroke-miterlimit:10;stroke-dasharray:none;stroke-opacity:1"
       transform="matrix(1,0,0,-1,114.88,40.767333)" />
    <path
       id="path54"
       d="M 5.20058,0 C 3.65962,0.28891 1.15567,1.15567 -0.57784,2.1669 V -2.1669 C 1.15567,-1.15567 3.65962,-0.28891 5.20058,0"
       style="fill:#b26cba;fill-opacity:1;fill-rule:nonzero;stroke:none"
       transform="matrix(-0.49432,-0.86923,-0.86923,0.49432,165.21974,54.572063)" />
    <path
       id="path55"
       d="m 41.74597,-36.12766 c 0,0.31337 -0.02739,0.62667 -0.08179,0.93528 l 0.06751,0.005 c -0.82285,-0.06359 -1.62891,0.53929 -1.80042,1.34662 0.2047,-0.96356 0.0036,-0.48993 0.55433,-1.3066 -0.46148,0.68425 -0.33506,1.68288 0.28234,2.23052 l -0.05065,-0.04496 c -0.18418,0.25347 -0.39063,0.491 -0.61599,0.70862 l 0.05153,0.04393 c -0.62822,-0.53523 -1.63464,-0.52142 -2.24794,0.03084 0.732,-0.65915 0.29088,-0.39401 1.2166,-0.73085 -0.77559,0.28221 -1.26031,1.16434 -1.0827,1.97029 l -0.01459,-0.06612 c -0.298,0.09681 -0.60457,0.16759 -0.91481,0.21114 l 0.01579,0.06589 c -0.19363,-0.80225 -1.01602,-1.38271 -1.83683,-1.29648 0.9797,-0.10291 0.46708,-0.14778 1.41401,0.12364 -0.79338,-0.22742 -1.70404,0.20145 -2.03399,0.95792 l 0.02699,-0.06211 c -0.29801,-0.0968 -0.58757,-0.21975 -0.8642,-0.36686 l -0.0258,0.06265 c 0.31482,-0.76289 -0.0094,-1.71582 -0.72417,-2.12845 0.85312,0.49248 0.46475,0.1548 1.07125,0.93105 -0.50814,-0.65036 -1.49695,-0.83876 -2.20859,-0.42081 l 0.05842,-0.03429 c -0.18417,-0.25346 -0.34617,-0.52313 -0.4835,-0.80478 l -0.05776,0.03551 c 0.70314,-0.4321 1.00101,-1.39358 0.66532,-2.14754 0.40068,0.89991 0.28488,0.39841 0.31914,1.38289 -0.02872,-0.82483 -0.71789,-1.55838 -1.53928,-1.63846 l 0.0674,0.0065 c 0,-0.31338 0.02739,-0.62667 0.08178,-0.93527 l -0.0675,-0.005 c 0.82284,0.06358 1.62891,-0.53929 1.80041,-1.34661 -0.20469,0.96355 -0.0035,0.48992 -0.55432,1.3066 0.46147,-0.68427 0.33506,-1.68289 -0.28235,-2.23053 l 0.05066,0.04495 c 0.18418,-0.25346 0.39063,-0.491 0.61599,-0.7086 l -0.05152,-0.04395 c 0.62821,0.53524 1.63463,0.52144 2.24793,-0.03083 -0.732,0.65914 -0.29088,0.39401 -1.2166,0.73085 0.77559,-0.28222 1.26031,-1.16434 1.0827,-1.9703 l 0.01459,0.06612 c 0.298,-0.0968 0.60457,-0.16759 0.91481,-0.21114 l -0.01579,-0.06588 c 0.19364,0.80226 1.01602,1.3827 1.83683,1.29649 -0.97971,0.10289 -0.46707,0.14777 -1.41401,-0.12366 0.79338,0.22742 1.70404,-0.20145 2.034,-0.95791 l -0.027,0.0621 c 0.298,0.0968 0.58757,0.21976 0.8642,0.36687 l 0.0258,-0.06264 c -0.31482,0.76288 0.0094,1.71581 0.72418,2.12843 -0.85312,-0.49247 -0.46477,-0.1548 -1.07126,-0.93104 0.50815,0.65036 1.49695,0.83876 2.20859,0.4208 l -0.05842,0.03429 c 0.18417,0.25347 0.34619,0.52313 0.4835,0.80478 l 0.05775,-0.03549 c -0.70314,0.43208 -1.001,1.39357 -0.66531,2.14754 -0.40068,-0.89992 -0.28487,-0.39843 -0.31913,-1.38291 0.02871,0.82483 0.71787,1.5584 1.53927,1.63846 l -0.0674,-0.0065 m -3.68527,0 c 0,0.9394 -0.76154,1.70092 -1.70091,1.70092 -0.93939,0 -1.70093,-0.76152 -1.70093,-1.70092 0,-0.93939 0.76154,-1.70092 1.70093,-1.70092 0.93937,0 1.70091,0.76153 1.70091,1.70092 z"
       style="fill:#ff0000;fill-opacity:1;fill-rule:evenodd;stroke:none"
       transform="matrix(1,0,0,-1,114.88,40.767333)" />
    <path
       id="path56"
       d="M 40.61165,-43.49226 47.3234,-55.11725"
       style="fill:none;stroke:#000000;stroke-width:0.3985;stroke-linecap:butt;stroke-linejoin:round;stroke-miterlimit:10;stroke-dasharray:none;stroke-opacity:1"
       transform="matrix(1,0,0,-1,114.88,40.767333)" />
    <path
       id="path57"
       d="M 3.58653,0 C 2.52383,0.19925 0.797,0.797 -0.3985,1.49438 V -1.49438 C 0.797,-0.797 2.52383,-0.19925 3.58653,0"
       style="fill:#000000;fill-opacity:1;fill-rule:nonzero;stroke:none"
       transform="matrix(0.49998,0.86601,0.86601,-0.49998,162.20338,95.884563)" />
    <path
       id="path58"
       d="m 122.88763,-106.94022 c 0,-0.95361 5.07637,-1.72665 11.33855,-1.72665 6.26218,0 11.33855,0.77304 11.33855,1.72665 v 6.75136 c 0,0.95362 -5.07637,1.72666 -11.33855,1.72666 -6.26218,0 -11.33855,-0.77304 -11.33855,-1.72666 z m 0,6.75136 c 0,-0.95363 5.07637,-1.72665 11.33855,-1.72665 6.26218,0 11.33855,0.77302 11.33855,1.72665"
       style="fill:#cce9c2;fill-opacity:1;fill-rule:nonzero;stroke:#000000;stroke-width:0.49814;stroke-linecap:butt;stroke-linejoin:round;stroke-miterlimit:10;stroke-dasharray:none;stroke-opacity:1"
       transform="matrix(1,0,0,-1,114.88,40.767333)" />
    <path
       id="path59"
       d="m 122.8878,-98.06874 c 0,-0.95363 5.07637,-1.72666 11.33855,-1.72666 6.26218,0 11.33855,0.77303 11.33855,1.72666 v 6.75134 c 0,0.95363 -5.07637,1.72666 -11.33855,1.72666 -6.26218,0 -11.33855,-0.77303 -11.33855,-1.72666 z m 0,6.75134 c 0,-0.95361 5.07637,-1.72665 11.33855,-1.72665 6.26218,0 11.33855,0.77304 11.33855,1.72665"
       style="fill:#eef8eb;fill-opacity:1;fill-rule:nonzero;stroke:#000000;stroke-width:0.49814;stroke-linecap:butt;stroke-linejoin:round;stroke-miterlimit:10;stroke-dasharray:none;stroke-opacity:1"
       transform="matrix(1,0,0,-1,114.88,40.767333)" />
    <path
       id="path60"
       d="m 223.93982,26.92932 c 5.79863,-1.02242 8.89896,-5.5401 9.1831,-7.15134 0.40773,-2.31265 -1.10054,-4.68003 -3.36885,-5.28775 -3.36729,-0.90239 -8.26121,-0.90239 -11.62851,0 -2.26831,0.60772 -3.77658,2.9751 -3.36885,5.28775 0.28415,1.61124 3.38448,6.12892 9.18311,7.15134"
       style="fill:#87cb72;fill-opacity:1;fill-rule:nonzero;stroke:#000000;stroke-width:0.99628;stroke-linecap:butt;stroke-linejoin:round;stroke-miterlimit:10;stroke-dasharray:none;stroke-opacity:1"
       transform="matrix(1,0,0,-1,114.88,40.767333)" />
    <path
       id="path61"
       d="m 228.90059,29.76399 c 0,2.73979 -2.22098,4.96077 -4.96077,4.96077 -2.73979,0 -4.96077,-2.22098 -4.96077,-4.96077 0,-2.73979 2.22098,-4.96077 4.96077,-4.96077 2.73979,0 4.96077,2.22098 4.96077,4.96077 z"
       style="fill:#fff200;fill-opacity:1;fill-rule:nonzero;stroke:#000000;stroke-width:0.99628;stroke-linecap:butt;stroke-linejoin:round;stroke-miterlimit:10;stroke-dasharray:none;stroke-opacity:1"
       transform="matrix(1,0,0,-1,114.88,40.767333)" />
    <path
       id="path62"
       d="m 219.68776,22.67728 c 5.79863,-1.02243 8.89896,-5.54012 9.1831,-7.15136 0.40774,-2.31265 -1.10052,-4.68003 -3.36885,-5.28775 -3.36729,-0.90239 -8.2612,-0.90239 -11.62851,0 -2.2683,0.60772 -3.77658,2.9751 -3.36885,5.28775 0.28417,1.61124 3.38449,6.12893 9.18311,7.15136"
       style="fill:#87cb72;fill-opacity:1;fill-rule:nonzero;stroke:#000000;stroke-width:0.99628;stroke-linecap:butt;stroke-linejoin:round;stroke-miterlimit:10;stroke-dasharray:none;stroke-opacity:1"
       transform="matrix(1,0,0,-1,114.88,40.767333)" />
    <path
       id="path63"
       d="m 224.64853,25.51193 c 0,2.73979 -2.22098,4.96077 -4.96077,4.96077 -2.73979,0 -4.96077,-2.22098 -4.96077,-4.96077 0,-2.73979 2.22098,-4.96077 4.96077,-4.96077 2.73979,0 4.96077,2.22098 4.96077,4.96077 z"
       style="fill:#fff200;fill-opacity:1;fill-rule:nonzero;stroke:#000000;stroke-width:0.99628;stroke-linecap:butt;stroke-linejoin:round;stroke-miterlimit:10;stroke-dasharray:none;stroke-opacity:1"
       transform="matrix(1,0,0,-1,114.88,40.767333)" />
    <path
       id="path64"
       d="m 3.0945,-5.9060208 c -1.65625,0 -2.796875,1.234375 -2.796875,3.046875 0,1.8125 1.140625,3.04687497 2.8125,3.04687497 0.703125,0 1.328125,-0.21875 1.796875,-0.625 0.625,-0.53125 1,-1.42187497 1,-2.37499997 0,-1.875 -1.09375,-3.09375 -2.8125,-3.09375 z m 0,0.65625 c 1.265625,0 2.078125,0.953125 2.078125,2.421875 0,1.40625 -0.84375,2.35937497 -2.0625,2.35937497 -1.234375,0 -2.0625,-0.95312497 -2.0625,-2.39062497 0,-1.4375 0.828125,-2.390625 2.046875,-2.390625 z M 10.621844,2.2916667e-4 11.840594,-4.1716458 h -0.75 L 10.262469,-0.92164583 9.4499687,-4.1716458 h -0.8125 l -0.796875,3.24999997 -0.859375,-3.24999997 h -0.734375 l 1.21875,4.17187496667 h 0.75 L 9.0124687,-3.2810208 9.8562187,2.2916667e-4 Z M 12.516375,-4.1716458 V 2.2916667e-4 H 13.18825 V -2.2966458 c 0,-0.859375 0.4375,-1.421875 1.125,-1.421875 0.53125,0 0.859375,0.328125 0.859375,0.828125 V 2.2916667e-4 h 0.65625 V -3.1560208 c 0,-0.6875 -0.515625,-1.140625 -1.3125,-1.140625 -0.625,0 -1.03125,0.234375 -1.390625,0.828125 v -0.703125 z m 7.964844,2.3125 c 0,-0.640625 -0.04687,-1.03125 -0.171875,-1.34375 -0.265625,-0.671875 -0.90625,-1.09375 -1.6875,-1.09375 -1.171875,0 -1.921875,0.890625 -1.921875,2.265625 0,1.37499997 0.734375,2.21874997 1.90625,2.21874997 0.953125,0 1.609375,-0.546875 1.78125,-1.45312497 h -0.671875 c -0.1875,0.54687497 -0.5625,0.82812497 -1.09375,0.82812497 -0.421875,0 -0.78125,-0.1875 -1,-0.53125 -0.15625,-0.24999997 -0.21875,-0.48437497 -0.21875,-0.89062497 z m -3.0625,-0.546875 c 0.04687,-0.765625 0.515625,-1.28125 1.1875,-1.28125 0.65625,0 1.15625,0.546875 1.15625,1.234375 0,0.015625 0,0.03125 0,0.046875 z m 3.945312,-1.765625 V 2.2916667e-4 h 0.671875 V -2.1716458 c 0,-0.59375 0.15625,-0.984375 0.46875,-1.21875 0.203125,-0.140625 0.40625,-0.1875 0.875,-0.203125 v -0.671875 c -0.109375,-0.015625 -0.171875,-0.03125 -0.265625,-0.03125 -0.421875,0 -0.75,0.25 -1.140625,0.875 v -0.75 z m 6.496094,-0.125 c -1.171875,0 -1.890625,0.84375 -1.890625,2.234375 0,1.40624997 0.703125,2.24999997 1.890625,2.24999997 1.171875,0 1.890625,-0.84375 1.890625,-2.21874997 0,-1.4375 -0.6875,-2.265625 -1.890625,-2.265625 z m 0,0.609375 c 0.75,0 1.203125,0.625 1.203125,1.65625 0,0.984375 -0.46875,1.59374997 -1.203125,1.59374997 -0.734375,0 -1.1875,-0.60937497 -1.1875,-1.62499997 0,-1 0.453125,-1.625 1.1875,-1.625 z m 2.820312,-0.484375 V 2.2916667e-4 h 0.671875 V -2.2966458 c 0,-0.859375 0.4375,-1.421875 1.125,-1.421875 0.53125,0 0.859375,0.328125 0.859375,0.828125 V 2.2916667e-4 h 0.65625 V -3.1560208 c 0,-0.6875 -0.515625,-1.140625 -1.3125,-1.140625 -0.625,0 -1.03125,0.234375 -1.390625,0.828125 v -0.703125 z m 9.5625,1.15625 c 0,-0.8125 -0.546875,-1.28125 -1.515625,-1.28125 -0.96875,0 -1.59375,0.5 -1.59375,1.28125 0,0.65625 0.328125,0.953125 1.328125,1.203125 l 0.609375,0.140625 c 0.46875,0.125 0.65625,0.28125 0.65625,0.59375 0,0.39062497 -0.390625,0.64062497 -0.984375,0.64062497 -0.34375,0 -0.65625,-0.09375 -0.828125,-0.265625 -0.09375,-0.125 -0.140625,-0.25 -0.1875,-0.54687497 h -0.703125 c 0.03125,0.96874997 0.578125,1.43749997 1.671875,1.43749997 1.046875,0 1.71875,-0.515625 1.71875,-1.32812497 0,-0.625 -0.34375,-0.96875 -1.171875,-1.15625 l -0.640625,-0.15625 c -0.546875,-0.125 -0.78125,-0.296875 -0.78125,-0.59375 0,-0.390625 0.34375,-0.640625 0.890625,-0.640625 0.53125,0 0.8125,0.234375 0.828125,0.671875 z m 4.59375,1.15625 c 0,-0.640625 -0.04687,-1.03125 -0.171875,-1.34375 -0.265625,-0.671875 -0.90625,-1.09375 -1.6875,-1.09375 -1.171875,0 -1.921875,0.890625 -1.921875,2.265625 0,1.37499997 0.734375,2.21874997 1.90625,2.21874997 0.953125,0 1.609375,-0.546875 1.78125,-1.45312497 h -0.671875 c -0.1875,0.54687497 -0.5625,0.82812497 -1.09375,0.82812497 -0.421875,0 -0.78125,-0.1875 -1,-0.53125 -0.15625,-0.24999997 -0.21875,-0.48437497 -0.21875,-0.89062497 z m -3.0625,-0.546875 c 0.04687,-0.765625 0.515625,-1.28125 1.1875,-1.28125 0.65625,0 1.15625,0.546875 1.15625,1.234375 0,0.015625 0,0.03125 0,0.046875 z m 3.949219,-1.765625 V 2.2916667e-4 h 0.671875 V -2.1716458 c 0,-0.59375 0.15625,-0.984375 0.46875,-1.21875 0.203125,-0.140625 0.40625,-0.1875 0.875,-0.203125 v -0.671875 c -0.109375,-0.015625 -0.171875,-0.03125 -0.265625,-0.03125 -0.421875,0 -0.75,0.25 -1.140625,0.875 v -0.75 z M 50.332781,2.2916667e-4 51.942156,-4.1716458 h -0.75 l -1.1875,3.39062497 -1.109375,-3.39062497 h -0.75 l 1.46875,4.17187496667 z M 55.953875,-1.8591458 c 0,-0.640625 -0.04687,-1.03125 -0.171875,-1.34375 -0.265625,-0.671875 -0.90625,-1.09375 -1.6875,-1.09375 -1.171875,0 -1.921875,0.890625 -1.921875,2.265625 0,1.37499997 0.734375,2.21874997 1.90625,2.21874997 0.953125,0 1.609375,-0.546875 1.78125,-1.45312497 H 55.18825 c -0.1875,0.54687497 -0.5625,0.82812497 -1.09375,0.82812497 -0.421875,0 -0.78125,-0.1875 -1,-0.53125 C 52.93825,-1.2185208 52.87575,-1.4528958 52.87575,-1.8591458 Z m -3.0625,-0.546875 c 0.04687,-0.765625 0.515625,-1.28125 1.1875,-1.28125 0.65625,0 1.15625,0.546875 1.15625,1.234375 0,0.015625 0,0.03125 0,0.046875 z m 3.949219,-1.765625 V 2.2916667e-4 h 0.671875 V -2.1716458 c 0,-0.59375 0.15625,-0.984375 0.46875,-1.21875 0.203125,-0.140625 0.40625,-0.1875 0.875,-0.203125 v -0.671875 c -0.109375,-0.015625 -0.171875,-0.03125 -0.265625,-0.03125 -0.421875,0 -0.75,0.25 -1.140625,0.875 v -0.75 z m 0,0"
       style="fill:#000000;fill-opacity:1;fill-rule:nonzero;stroke:none"
       aria-label="Owneronserver"
       transform="translate(307.218,44.101333)" />
    <path
       id="path65"
       d="m 210.47522,-36.29306 c 0,-0.95361 5.07635,-1.72665 11.33855,-1.72665 6.26217,0 11.33854,0.77304 11.33854,1.72665 v 6.75136 c 0,0.95361 -5.07637,1.72665 -11.33854,1.72665 -6.2622,0 -11.33855,-0.77304 -11.33855,-1.72665 z m 0,6.75136 c 0,-0.95363 5.07635,-1.72667 11.33855,-1.72667 6.26217,0 11.33854,0.77304 11.33854,1.72667"
       style="fill:#a9da9a;fill-opacity:1;fill-rule:nonzero;stroke:#000000;stroke-width:0.49814;stroke-linecap:butt;stroke-linejoin:round;stroke-miterlimit:10;stroke-dasharray:none;stroke-opacity:1"
       transform="matrix(1,0,0,-1,114.88,40.767333)" />
    <path
       id="path66"
       d="m 210.47505,-27.363 c 0,-0.95362 5.07635,-1.72666 11.33855,-1.72666 6.26218,0 11.33855,0.77304 11.33855,1.72666 v 6.75135 c 0,0.95361 -5.07637,1.72665 -11.33855,1.72665 -6.2622,0 -11.33855,-0.77304 -11.33855,-1.72665 z m 0,6.75135 c 0,-0.95363 5.07635,-1.72667 11.33855,-1.72667 6.26218,0 11.33855,0.77304 11.33855,1.72667"
       style="fill:#cce9c2;fill-opacity:1;fill-rule:nonzero;stroke:#000000;stroke-width:0.49814;stroke-linecap:butt;stroke-linejoin:round;stroke-miterlimit:10;stroke-dasharray:none;stroke-opacity:1"
       transform="matrix(1,0,0,-1,114.88,40.767333)" />
    <path
       id="path67"
       d="m 210.4749,-18.43265 c 0,-0.95363 5.07635,-1.72665 11.33855,-1.72665 6.26217,0 11.33855,0.77302 11.33855,1.72665 v 6.75135 c 0,0.95362 -5.07638,1.72666 -11.33855,1.72666 -6.2622,0 -11.33855,-0.77304 -11.33855,-1.72666 z m 0,6.75135 c 0,-0.95362 5.07635,-1.72666 11.33855,-1.72666 6.26217,0 11.33855,0.77304 11.33855,1.72666"
       style="fill:#eef8eb;fill-opacity:1;fill-rule:nonzero;stroke:#000000;stroke-width:0.49814;stroke-linecap:butt;stroke-linejoin:round;stroke-miterlimit:10;stroke-dasharray:none;stroke-opacity:1"
       transform="matrix(1,0,0,-1,114.88,40.767333)" />
    <path
       id="path68"
       d="M 1.3765313,-5.8131771 H 0.64215625 V -6.7708333e-4 H 4.2515313 V -0.65692708 h -2.875 z m 5.2265625,1.515625 c -1.171875,0 -1.890625,0.84375 -1.890625,2.234375 0,1.40625002 0.703125,2.25000002 1.890625,2.25000002 1.171875,0 1.890625,-0.84375 1.890625,-2.21875002 0,-1.4375 -0.6875,-2.265625 -1.890625,-2.265625 z m 0,0.609375 c 0.75,0 1.203125,0.625 1.203125,1.65625 0,0.984375 -0.46875,1.59375002 -1.203125,1.59375002 -0.734375,0 -1.1875,-0.60937502 -1.1875,-1.62500002 0,-1 0.453125,-1.625 1.1875,-1.625 z m 6.0078122,0.921875 c -0.03125,-0.40625 -0.109375,-0.671875 -0.28125,-0.90625 -0.28125,-0.390625 -0.78125,-0.625 -1.359375,-0.625 -1.1249997,0 -1.8593747,0.890625 -1.8593747,2.28125 0,1.34375002 0.71875,2.20312502 1.8437497,2.20312502 1,0 1.625,-0.609375 1.703125,-1.62500002 h -0.671875 c -0.109375,0.67187502 -0.453125,1.00000002 -1.015625,1.00000002 -0.734375,0 -1.1718747,-0.59375002 -1.1718747,-1.57812502 0,-1.046875 0.4374997,-1.671875 1.1562497,-1.671875 0.5625,0 0.90625,0.328125 0.984375,0.921875 z m 4.503907,2.37500002 c -0.07813,0.015625 -0.109375,0.015625 -0.140625,0.015625 -0.234375,0 -0.359375,-0.125 -0.359375,-0.328125 V -3.1569271 c 0,-0.734375 -0.546875,-1.140625 -1.578125,-1.140625 -0.609375,0 -1.109375,0.171875 -1.375,0.484375 -0.203125,0.21875 -0.28125,0.453125 -0.296875,0.875 h 0.671875 c 0.0625,-0.515625 0.359375,-0.75 0.984375,-0.75 0.59375,0 0.921875,0.234375 0.921875,0.625 v 0.171875 c 0,0.28125 -0.15625,0.40625 -0.6875,0.46875 -0.9375,0.125 -1.078125,0.15625 -1.34375,0.25 -0.484375,0.203125 -0.734375,0.578125 -0.734375,1.125 0,0.75000002 0.53125,1.23437502 1.375,1.23437502 0.53125,0 0.953125,-0.18750000333 1.421875,-0.625 0.04688,0.421875 0.25,0.625 0.6875,0.625 0.125,0 0.234375,-0.015625 0.453125,-0.078125 z M 15.942938,-1.3131771 c 0,0.21875 -0.0625,0.35937502 -0.25,0.54687502 -0.28125,0.234375 -0.609375,0.375 -1,0.375 -0.515625,0 -0.8125,-0.25 -0.8125,-0.67187502 0,-0.4375 0.296875,-0.671875 1,-0.765625 0.703125,-0.09375 0.84375,-0.125 1.0625,-0.234375 z m 2.554687,-4.5 H 17.82575 v 5.81250001667 h 0.671875 z m 3.460938,5.81250001667 h 2.25 c 1.46875,0 2.359375,-1.09375001667 2.359375,-2.90625001667 0,-1.796875 -0.890625,-2.90625 -2.359375,-2.90625 h -2.25 z m 0.75,-0.65624999667 V -5.1569271 h 1.375 c 1.140625,0 1.75,0.78125 1.75,2.25 0,1.46875 -0.609375,2.25000002 -1.75,2.25000002 z m 8.566406,0.265625 c -0.07813,0.015625 -0.109375,0.015625 -0.140625,0.015625 -0.234375,0 -0.359375,-0.125 -0.359375,-0.328125 V -3.1569271 c 0,-0.734375 -0.546875,-1.140625 -1.578125,-1.140625 -0.609375,0 -1.109375,0.171875 -1.375,0.484375 -0.203125,0.21875 -0.28125,0.453125 -0.296875,0.875 h 0.671875 c 0.0625,-0.515625 0.359375,-0.75 0.984375,-0.75 0.59375,0 0.921875,0.234375 0.921875,0.625 v 0.171875 c 0,0.28125 -0.15625,0.40625 -0.6875,0.46875 -0.9375,0.125 -1.078125,0.15625 -1.34375,0.25 -0.484375,0.203125 -0.734375,0.578125 -0.734375,1.125 0,0.75000002 0.53125,1.23437502 1.375,1.23437502 0.53125,0 0.953125,-0.18750000333 1.421875,-0.625 0.04687,0.421875 0.25,0.625 0.6875,0.625 0.125,0 0.234375,-0.015625 0.453125,-0.078125 z M 30.103094,-1.3131771 c 0,0.21875 -0.0625,0.35937502 -0.25,0.54687502 -0.28125,0.234375 -0.609375,0.375 -1,0.375 -0.515625,0 -0.8125,-0.25 -0.8125,-0.67187502 0,-0.4375 0.296875,-0.671875 1,-0.765625 0.703125,-0.09375 0.84375,-0.125 1.0625,-0.234375 z m 3.371094,-2.859375 h -0.6875 v -1.15625 h -0.671875 v 1.15625 h -0.5625 v 0.53125 h 0.5625 v 3.15625002 c 0,0.421875 0.296875,0.671875 0.8125,0.671875 0.15625,0 0.3125,-0.015625 0.546875,-0.0625 v -0.5625 c -0.09375,0.03125 -0.203125,0.046875 -0.328125,0.046875 -0.28125,0 -0.359375,-0.09375 -0.359375,-0.375 V -3.6413021 h 0.6875 z m 4.449218,3.78125002 c -0.07813,0.015625 -0.109375,0.015625 -0.140625,0.015625 -0.234375,0 -0.359375,-0.125 -0.359375,-0.328125 V -3.1569271 c 0,-0.734375 -0.546875,-1.140625 -1.578125,-1.140625 -0.609375,0 -1.109375,0.171875 -1.375,0.484375 -0.203125,0.21875 -0.28125,0.453125 -0.296875,0.875 h 0.671875 c 0.0625,-0.515625 0.359375,-0.75 0.984375,-0.75 0.59375,0 0.921875,0.234375 0.921875,0.625 v 0.171875 c 0,0.28125 -0.15625,0.40625 -0.6875,0.46875 -0.9375,0.125 -1.078125,0.15625 -1.34375,0.25 -0.484375,0.203125 -0.734375,0.578125 -0.734375,1.125 0,0.75000002 0.53125,1.23437502 1.375,1.23437502 0.53125,0 0.953125,-0.18750000333 1.421875,-0.625 0.04687,0.421875 0.25,0.625 0.6875,0.625 0.125,0 0.234375,-0.015625 0.453125,-0.078125 z M 36.751531,-1.3131771 c 0,0.21875 -0.0625,0.35937502 -0.25,0.54687502 -0.28125,0.234375 -0.609375,0.375 -1,0.375 -0.515625,0 -0.8125,-0.25 -0.8125,-0.67187502 0,-0.4375 0.296875,-0.671875 1,-0.765625 0.703125,-0.09375 0.84375,-0.125 1.0625,-0.234375 z m 0,0"
       style="fill:#000000;fill-opacity:1;fill-rule:nonzero;stroke:none"
       aria-label="LocalData"
       transform="translate(317.643,90.973333)" />
    <path
       id="path69"
       d="m 235.27827,-72.17667 c 0,0.78341 -0.0684,1.56661 -0.20443,2.33807 l -2.06586,-0.15998 c -0.82283,-0.06368 -1.62888,0.53915 -1.80032,1.34647 0.0458,-0.21633 -0.45693,0.96769 -0.33326,0.78441 -0.4615,0.68423 -0.33511,1.68282 0.28231,2.23043 l 1.55003,1.37485 c -0.46042,0.63362 -0.97653,1.2274 -1.53989,1.77142 l -1.5772,-1.34375 c -0.62821,-0.53521 -1.63466,-0.52141 -2.24799,0.03083 0.16435,-0.14792 -0.93836,0.51487 -0.73041,0.43936 -0.7756,0.28215 -1.26039,1.16424 -1.08279,1.97021 l 0.44594,2.02339 c -0.74498,0.24202 -1.51133,0.41895 -2.28692,0.52782 l -0.48628,-2.01399 c -0.1937,-0.80225 -1.0161,-1.38266 -1.83691,-1.29642 0.22,-0.02312 -1.06149,-0.13528 -0.84894,-0.07435 -0.79337,-0.22745 -1.70405,0.20138 -2.03405,0.9578 l -0.8285,1.89914 c -0.74498,-0.24202 -1.46881,-0.54939 -2.16035,-0.91714 l 0.79043,-1.9151 c 0.31482,-0.76288 -0.009,-1.71582 -0.72416,-2.12845 0.19151,0.11055 -0.77935,-0.7336 -0.64316,-0.55928 -0.50812,-0.65036 -1.49694,-0.83875 -2.20856,-0.42077 l -1.78654,1.04928 c -0.46044,-0.63362 -0.86539,-1.30774 -1.2087,-2.01181 l 1.76518,-1.08473 c 0.70314,-0.43209 1.00106,-1.39356 0.66539,-2.14754 0.0899,0.20209 -0.1996,-1.05157 -0.192,-0.8305 -0.0287,-0.82483 -0.71782,-1.5584 -1.53921,-1.63848 l -2.06222,-0.20119 c 0,-0.78338 0.0685,-1.56659 0.20444,-2.33805 l 2.06586,0.15998 c 0.82285,0.06368 1.62888,-0.53915 1.80033,-1.34646 -0.0458,0.21632 0.45693,-0.9677 0.33326,-0.78441 0.46151,-0.68424 0.33511,-1.68283 -0.28232,-2.23044 l -1.55001,-1.37485 c 0.46041,-0.63362 0.97651,-1.2274 1.53987,-1.77142 l 1.57721,1.34373 c 0.6282,0.53522 1.63467,0.52143 2.248,-0.03081 -0.16435,0.14793 0.93835,-0.51487 0.73041,-0.43935 0.7756,-0.28215 1.26037,-1.16425 1.08279,-1.97022 l -0.44594,-2.02339 c 0.74497,-0.24202 1.51132,-0.41894 2.28691,-0.52782 l 0.48629,2.01399 c 0.19367,0.80225 1.0161,1.38266 1.83691,1.29642 -0.22,0.02312 1.06149,0.13529 0.84894,0.07436 0.79335,0.22745 1.70404,-0.20139 2.03405,-0.95781 l 0.8285,-1.89914 c 0.74496,0.242 1.46879,0.54939 2.16035,0.91714 l -0.79045,1.9151 c -0.31482,0.76288 0.009,1.71582 0.72418,2.12845 -0.19151,-0.11055 0.77933,0.7336 0.64314,0.55928 0.50814,0.65036 1.49695,0.83873 2.20856,0.42078 l 1.78656,-1.04929 c 0.46042,0.63362 0.86539,1.30773 1.2087,2.01181 l -1.7652,1.08474 c -0.70314,0.43208 -1.00105,1.39355 -0.66539,2.14752 -0.0899,-0.20207 0.1996,1.05159 0.192,0.83052 0.0287,0.82483 0.71782,1.55839 1.53921,1.63847 l 2.06221,0.20117 m -9.21263,0 c 0,2.34837 -1.90367,4.25207 -4.25204,4.25207 -2.34837,0 -4.25206,-1.9037 -4.25206,-4.25207 0,-2.34835 1.90369,-4.25204 4.25206,-4.25204 2.34837,0 4.25204,1.90369 4.25204,4.25204 z"
       style="fill:#ff0000;fill-opacity:1;fill-rule:evenodd;stroke:#000000;stroke-width:0.3985;stroke-linecap:butt;stroke-linejoin:round;stroke-miterlimit:10;stroke-dasharray:none;stroke-opacity:1"
       transform="matrix(1,0,0,-1,114.88,40.767333)" />
    <path
       id="path70"
       d="m 1.4671563,-2.4676458 h 1.828125 c 0.453125,0 0.8125,-0.125 1.125,-0.40625 0.34375,-0.328125 0.5,-0.6875 0.5,-1.234375 0,-1.09375 -0.65625,-1.703125 -1.796875,-1.703125 H 0.71715625 V 0.00110417 H 1.4671563 Z m 0,-0.640625 v -2.046875 h 1.546875 c 0.703125,0 1.125,0.390625 1.125,1.015625 0,0.640625 -0.421875,1.03125 -1.125,1.03125 z m 5.6210937,-1.1875 c -1.171875,0 -1.890625,0.84375 -1.890625,2.234375 0,1.40624997 0.703125,2.24999997 1.890625,2.24999997 1.171875,0 1.890625,-0.84375 1.890625,-2.21874997 0,-1.4375 -0.6875,-2.265625 -1.890625,-2.265625 z m 0,0.609375 c 0.75,0 1.203125,0.625 1.203125,1.65625 0,0.984375 -0.46875,1.59374997 -1.203125,1.59374997 -0.734375,0 -1.1875,-0.60937497 -1.1875,-1.62499997 0,-1 0.453125,-1.625 1.1875,-1.625 z m 3.449219,-0.484375 H 9.8812188 v 4.17187497 h 0.6562502 z m 0,-1.640625 H 9.8812188 v 0.84375 h 0.6562502 z m 4.066406,2.796875 c 0,-0.8125 -0.546875,-1.28125 -1.515625,-1.28125 -0.96875,0 -1.59375,0.5 -1.59375,1.28125 0,0.65625 0.328125,0.953125 1.328125,1.203125 l 0.609375,0.140625 c 0.46875,0.125 0.65625,0.28125 0.65625,0.59375 0,0.39062497 -0.390625,0.64062497 -0.984375,0.64062497 -0.34375,0 -0.65625,-0.09375 -0.828125,-0.265625 -0.09375,-0.125 -0.140625,-0.25 -0.1875,-0.54687497 h -0.703125 c 0.03125,0.96874997 0.578125,1.43749997 1.671875,1.43749997 1.046875,0 1.71875,-0.515625 1.71875,-1.32812497 0,-0.625 -0.34375,-0.96875 -1.171875,-1.15625 l -0.640625,-0.15625 c -0.546875,-0.125 -0.78125,-0.296875 -0.78125,-0.59375 0,-0.390625 0.34375,-0.640625 0.890625,-0.640625 0.53125,0 0.8125,0.234375 0.828125,0.671875 z m 2.671875,-1.28125 c -1.171875,0 -1.890625,0.84375 -1.890625,2.234375 0,1.40624997 0.703125,2.24999997 1.890625,2.24999997 1.171875,0 1.890625,-0.84375 1.890625,-2.21874997 0,-1.4375 -0.6875,-2.265625 -1.890625,-2.265625 z m 0,0.609375 c 0.75,0 1.203125,0.625 1.203125,1.65625 0,0.984375 -0.46875,1.59374997 -1.203125,1.59374997 -0.734375,0 -1.1875,-0.60937497 -1.1875,-1.62499997 0,-1 0.453125,-1.625 1.1875,-1.625 z m 2.820313,-0.484375 v 4.17187497 h 0.671875 V -2.2957708 c 0,-0.859375 0.4375,-1.421875 1.125,-1.421875 0.53125,0 0.859375,0.328125 0.859375,0.828125 v 2.89062497 h 0.65625 V -3.1551458 c 0,-0.6875 -0.515625,-1.140625 -1.3125,-1.140625 -0.625,0 -1.03125,0.234375 -1.390625,0.828125 v -0.703125 z m 7.964843,2.3125 c 0,-0.640625 -0.04687,-1.03125 -0.171875,-1.34375 -0.265625,-0.671875 -0.90625,-1.09375 -1.6875,-1.09375 -1.171875,0 -1.921875,0.890625 -1.921875,2.265625 0,1.37499997 0.734375,2.21874997 1.90625,2.21874997 0.953125,0 1.609375,-0.546875 1.78125,-1.45312497 h -0.671875 c -0.1875,0.54687497 -0.5625,0.82812497 -1.09375,0.82812497 -0.421875,0 -0.78125,-0.1875 -1,-0.53125 -0.15625,-0.24999997 -0.21875,-0.48437497 -0.21875,-0.89062497 z m -3.0625,-0.546875 c 0.04687,-0.765625 0.515625,-1.28125 1.1875,-1.28125 0.65625,0 1.15625,0.546875 1.15625,1.234375 0,0.015625 0,0.03125 0,0.046875 z m 7.335938,-3.40625 h -0.65625 v 2.15625 c -0.28125,-0.421875 -0.71875,-0.640625 -1.28125,-0.640625 -1.078125,0 -1.796875,0.875 -1.796875,2.203125 0,1.40624997 0.703125,2.28124997 1.828125,2.28124997 0.5625,0 0.96875,-0.21875 1.328125,-0.734375 v 0.546875 h 0.578125 z m -1.828125,2.140625 c 0.71875,0 1.171875,0.640625 1.171875,1.625 0,0.96875 -0.453125,1.60937497 -1.15625,1.60937497 -0.734375,0 -1.21875,-0.64062497 -1.21875,-1.62499997 0,-0.96875 0.484375,-1.609375 1.203125,-1.609375 z m 10.195312,0.609375 h -2.421875 v 0.640625 h 1.765625 v 0.171875 c 0,1.03125 -0.765625,1.78124997 -1.828125,1.78124997 -0.59375,0 -1.125,-0.21875 -1.46875,-0.59374997 -0.375,-0.40625 -0.609375,-1.109375 -0.609375,-1.828125 0,-1.421875 0.8125,-2.359375 2.03125,-2.359375 0.890625,0 1.53125,0.453125 1.6875,1.203125 h 0.75 c -0.203125,-1.1875 -1.09375,-1.859375 -2.421875,-1.859375 -0.703125,0 -1.28125,0.1875 -1.734375,0.5625 -0.671875,0.546875 -1.0625,1.453125 -1.0625,2.5 0,1.78125 1.09375,3.03124997 2.671875,3.03124997 0.78125,0 1.421875,-0.296875 1.984375,-0.921875 l 0.171875,0.765625 h 0.484375 z m 1.761719,-2.75 h -0.671875 v 5.81249997 h 0.671875 z m 2.722656,1.515625 c -1.171875,0 -1.890625,0.84375 -1.890625,2.234375 0,1.40624997 0.703125,2.24999997 1.890625,2.24999997 1.171875,0 1.890625,-0.84375 1.890625,-2.21874997 0,-1.4375 -0.6875,-2.265625 -1.890625,-2.265625 z m 0,0.609375 c 0.75,0 1.203125,0.625 1.203125,1.65625 0,0.984375 -0.46875,1.59374997 -1.203125,1.59374997 -0.734375,0 -1.1875,-0.60937497 -1.1875,-1.62499997 0,-1 0.453125,-1.625 1.1875,-1.625 z m 2.699219,-2.125 v 5.81249997 h 0.59375 v -0.53125 c 0.3125,0.484375 0.734375,0.71875 1.3125,0.71875 1.109375,0 1.828125,-0.90625 1.828125,-2.29687497 0,-1.34375 -0.6875,-2.1875 -1.796875,-2.1875 -0.5625,0 -0.96875,0.21875 -1.28125,0.6875 v -2.203125 z m 1.8125,2.140625 c 0.75,0 1.21875,0.640625 1.21875,1.640625 0,0.953125 -0.484375,1.59374997 -1.21875,1.59374997 -0.703125,0 -1.15625,-0.64062497 -1.15625,-1.62499997 0,-0.96875 0.453125,-1.609375 1.15625,-1.609375 z m 6.445313,3.28124997 c -0.07813,0.015625 -0.109375,0.015625 -0.140625,0.015625 -0.234375,0 -0.359375,-0.125 -0.359375,-0.328125 V -3.1551458 c 0,-0.734375 -0.546875,-1.140625 -1.578125,-1.140625 -0.609375,0 -1.109375,0.171875 -1.375,0.484375 -0.203125,0.21875 -0.28125,0.453125 -0.296875,0.875 h 0.671875 c 0.0625,-0.515625 0.359375,-0.75 0.984375,-0.75 0.59375,0 0.921875,0.234375 0.921875,0.625 v 0.171875 c 0,0.28125 -0.15625,0.40625 -0.6875,0.46875 -0.9375,0.125 -1.078125,0.15625 -1.34375,0.25 -0.484375,0.203125 -0.734375,0.578125 -0.734375,1.125 0,0.74999997 0.53125,1.23437497 1.375,1.23437497 0.53125,0 0.953125,-0.1875 1.421875,-0.625 0.04687,0.421875 0.25,0.625 0.6875,0.625 0.125,0 0.234375,-0.015625 0.453125,-0.078125 z M 54.971063,-1.3113958 c 0,0.21875 -0.0625,0.35937497 -0.25,0.54687497 -0.28125,0.234375 -0.609375,0.375 -1,0.375 -0.515625,0 -0.8125,-0.25 -0.8125,-0.67187497 0,-0.4375 0.296875,-0.671875 1,-0.765625 0.703125,-0.09375 0.84375,-0.125 1.0625,-0.234375 z m 2.554687,-4.5 h -0.671875 v 5.81249997 h 0.671875 z m 6.496094,5.81249997 1.625,-4.87499997 v 4.87499997 h 0.703125 V -5.8113958 h -1.03125 l -1.6875,5.06249997 -1.71875,-5.06249997 h -1.03125 v 5.81249997 h 0.703125 V -4.8738958 l 1.65625,4.87499997 z m 5.074219,-4.29687497 c -1.171875,0 -1.890625,0.84375 -1.890625,2.234375 0,1.40624997 0.703125,2.24999997 1.890625,2.24999997 1.171875,0 1.890625,-0.84375 1.890625,-2.21874997 0,-1.4375 -0.6875,-2.265625 -1.890625,-2.265625 z m 0,0.609375 c 0.75,0 1.203125,0.625 1.203125,1.65625 0,0.984375 -0.46875,1.59374997 -1.203125,1.59374997 -0.734375,0 -1.1875,-0.60937497 -1.1875,-1.62499997 0,-1 0.453125,-1.625 1.1875,-1.625 z m 6.199218,-2.125 h -0.65625 v 2.15625 c -0.28125,-0.421875 -0.71875,-0.640625 -1.28125,-0.640625 -1.078125,0 -1.796875,0.875 -1.796875,2.203125 0,1.40624997 0.703125,2.28124997 1.828125,2.28124997 0.5625,0 0.96875,-0.21875 1.328125,-0.734375 v 0.546875 h 0.578125 z m -1.828125,2.140625 c 0.71875,0 1.171875,0.640625 1.171875,1.625 0,0.96875 -0.453125,1.60937497 -1.15625,1.60937497 -0.734375,0 -1.21875,-0.64062497 -1.21875,-1.62499997 0,-0.96875 0.484375,-1.609375 1.203125,-1.609375 z m 6.414063,1.8125 c 0,-0.640625 -0.04687,-1.03125 -0.171875,-1.34375 -0.265625,-0.671875 -0.90625,-1.09375 -1.6875,-1.09375 -1.171875,0 -1.921875,0.890625 -1.921875,2.265625 0,1.37499997 0.734375,2.21874997 1.90625,2.21874997 0.953125,0 1.609375,-0.546875 1.78125,-1.45312497 h -0.671875 c -0.1875,0.54687497 -0.5625,0.82812497 -1.09375,0.82812497 -0.421875,0 -0.78125,-0.1875 -1,-0.53125 -0.15625,-0.24999997 -0.21875,-0.48437497 -0.21875,-0.89062497 z m -3.0625,-0.546875 c 0.04687,-0.765625 0.515625,-1.28125 1.1875,-1.28125 0.65625,0 1.15625,0.546875 1.15625,1.234375 0,0.015625 0,0.03125 0,0.046875 z m 4.621094,-3.40625 h -0.671875 v 5.81249997 h 0.671875 z m 0,0"
       style="fill:#000000;fill-opacity:1;fill-rule:nonzero;stroke:none"
       aria-label="PoisonedGlobalModel"
       transform="translate(295.693,138.64733)" />
    <path
       id="path71"
       d="m 210.47505,-132.3448 c 0,-0.95362 5.07635,-1.72666 11.33855,-1.72666 6.26218,0 11.33855,0.77304 11.33855,1.72666 v 6.75136 c 0,0.95361 -5.07637,1.72665 -11.33855,1.72665 -6.2622,0 -11.33855,-0.77304 -11.33855,-1.72665 z m 0,6.75136 c 0,-0.95363 5.07635,-1.72666 11.33855,-1.72666 6.26218,0 11.33855,0.77303 11.33855,1.72666"
       style="fill:#ff8080;fill-opacity:1;fill-rule:nonzero;stroke:#000000;stroke-width:0.49814;stroke-linecap:butt;stroke-linejoin:round;stroke-miterlimit:10;stroke-dasharray:none;stroke-opacity:1"
       transform="matrix(1,0,0,-1,114.88,40.767333)" />
    <path
       id="path72"
       d="m 210.4749,-123.41475 c 0,-0.95361 5.07635,-1.72665 11.33855,-1.72665 6.26217,0 11.33855,0.77304 11.33855,1.72665 v 6.75136 c 0,0.95361 -5.07638,1.72665 -11.33855,1.72665 -6.2622,0 -11.33855,-0.77304 -11.33855,-1.72665 z m 0,6.75136 c 0,-0.95363 5.07635,-1.72666 11.33855,-1.72666 6.26217,0 11.33855,0.77303 11.33855,1.72666"
       style="fill:#ffb3b3;fill-opacity:1;fill-rule:nonzero;stroke:#000000;stroke-width:0.49814;stroke-linecap:butt;stroke-linejoin:round;stroke-miterlimit:10;stroke-dasharray:none;stroke-opacity:1"
       transform="matrix(1,0,0,-1,114.88,40.767333)" />
    <path
       id="path73"
       d="m 210.47475,-114.48439 c 0,-0.95361 5.07635,-1.72665 11.33855,-1.72665 6.26217,0 11.33854,0.77304 11.33854,1.72665 v 6.75136 c 0,0.95361 -5.07637,1.72665 -11.33854,1.72665 -6.2622,0 -11.33855,-0.77304 -11.33855,-1.72665 z m 0,6.75136 c 0,-0.95363 5.07635,-1.72667 11.33855,-1.72667 6.26217,0 11.33854,0.77304 11.33854,1.72667"
       style="fill:#ffe6e6;fill-opacity:1;fill-rule:nonzero;stroke:#000000;stroke-width:0.49814;stroke-linecap:butt;stroke-linejoin:round;stroke-miterlimit:10;stroke-dasharray:none;stroke-opacity:1"
       transform="matrix(1,0,0,-1,114.88,40.767333)" />
    <path
       id="path74"
       d="m 1.4698437,-2.4696458 h 1.828125 c 0.453125,0 0.8125,-0.125 1.125,-0.40625 0.34375,-0.328125 0.5,-0.6875 0.5,-1.234375 0,-1.09375 -0.65625,-1.703125 -1.796875,-1.703125 H 0.71984375 V -8.9583333e-4 H 1.4698437 Z m 0,-0.640625 v -2.046875 h 1.546875 c 0.703125,0 1.125,0.390625 1.125,1.015625 0,0.640625 -0.421875,1.03125 -1.125,1.03125 z m 5.6210938,-1.1875 c -1.171875,0 -1.890625,0.84375 -1.890625,2.234375 0,1.40624997 0.703125,2.24999997 1.890625,2.24999997 1.171875,0 1.890625,-0.84375 1.890625,-2.21874997 0,-1.4375 -0.6875,-2.265625 -1.890625,-2.265625 z m 0,0.609375 c 0.75,0 1.203125,0.625 1.203125,1.65625 0,0.984375 -0.46875,1.59374997 -1.203125,1.59374997 -0.734375,0 -1.1875,-0.60937497 -1.1875,-1.62499997 0,-1 0.453125,-1.625 1.1875,-1.625 z M 10.53625,-4.1727708 H 9.88 v 4.17187496667 h 0.65625 z m 0,-1.640625 H 9.88 v 0.84375 h 0.65625 z m 4.066406,2.796875 c 0,-0.8125 -0.546875,-1.28125 -1.515625,-1.28125 -0.96875,0 -1.59375,0.5 -1.59375,1.28125 0,0.65625 0.328125,0.953125 1.328125,1.203125 l 0.609375,0.140625 c 0.46875,0.125 0.65625,0.28125 0.65625,0.59375 0,0.39062497 -0.390625,0.64062497 -0.984375,0.64062497 -0.34375,0 -0.65625,-0.09375 -0.828125,-0.265625 -0.09375,-0.125 -0.140625,-0.25 -0.1875,-0.54687497 h -0.703125 c 0.03125,0.96874997 0.578125,1.43749997 1.671875,1.43749997 1.046875,0 1.71875,-0.515625 1.71875,-1.32812497 0,-0.625 -0.34375,-0.96875 -1.171875,-1.15625 l -0.640625,-0.15625 c -0.546875,-0.125 -0.78125,-0.296875 -0.78125,-0.59375 0,-0.390625 0.34375,-0.640625 0.890625,-0.640625 0.53125,0 0.8125,0.234375 0.828125,0.671875 z m 2.671875,-1.28125 c -1.171875,0 -1.890625,0.84375 -1.890625,2.234375 0,1.40624997 0.703125,2.24999997 1.890625,2.24999997 1.171875,0 1.890625,-0.84375 1.890625,-2.21874997 0,-1.4375 -0.6875,-2.265625 -1.890625,-2.265625 z m 0,0.609375 c 0.75,0 1.203125,0.625 1.203125,1.65625 0,0.984375 -0.46875,1.59374997 -1.203125,1.59374997 -0.734375,0 -1.1875,-0.60937497 -1.1875,-1.62499997 0,-1 0.453125,-1.625 1.1875,-1.625 z m 2.824219,-0.484375 v 4.17187496667 h 0.671875 V -2.2977708 c 0,-0.859375 0.4375,-1.421875 1.125,-1.421875 0.53125,0 0.859375,0.328125 0.859375,0.828125 v 2.89062496667 h 0.65625 V -3.1571458 c 0,-0.6875 -0.515625,-1.140625 -1.3125,-1.140625 -0.625,0 -1.03125,0.234375 -1.390625,0.828125 v -0.703125 z m 7.960937,2.3125 c 0,-0.640625 -0.04687,-1.03125 -0.171875,-1.34375 -0.265625,-0.671875 -0.90625,-1.09375 -1.6875,-1.09375 -1.171875,0 -1.921875,0.890625 -1.921875,2.265625 0,1.37499997 0.734375,2.21874997 1.90625,2.21874997 0.953125,0 1.609375,-0.546875 1.78125,-1.45312497 h -0.671875 c -0.1875,0.54687497 -0.5625,0.82812497 -1.09375,0.82812497 -0.421875,0 -0.78125,-0.1875 -1,-0.53125 -0.15625,-0.24999997 -0.21875,-0.48437497 -0.21875,-0.89062497 z m -3.0625,-0.546875 c 0.04687,-0.765625 0.515625,-1.28125 1.1875,-1.28125 0.65625,0 1.15625,0.546875 1.15625,1.234375 0,0.015625 0,0.03125 0,0.046875 z m 7.335938,-3.40625 h -0.65625 v 2.15625 c -0.28125,-0.421875 -0.71875,-0.640625 -1.28125,-0.640625 -1.078125,0 -1.796875,0.875 -1.796875,2.203125 0,1.40624997 0.703125,2.28124997 1.828125,2.28124997 0.5625,0 0.96875,-0.21875 1.328125,-0.734375 v 0.54687499667 h 0.578125 z M 30.505,-3.6727708 c 0.71875,0 1.171875,0.640625 1.171875,1.625 0,0.96875 -0.453125,1.60937497 -1.15625,1.60937497 -0.734375,0 -1.21875,-0.64062497 -1.21875,-1.62499997 0,-0.96875 0.484375,-1.609375 1.203125,-1.609375 z m 5.914062,-2.140625 h -0.734375 v 5.81249996667 h 3.609375 V -0.65714583 h -2.875 z m 5.230469,1.515625 c -1.171875,0 -1.890625,0.84375 -1.890625,2.234375 0,1.40624997 0.703125,2.24999997 1.890625,2.24999997 1.171875,0 1.890625,-0.84375 1.890625,-2.21874997 0,-1.4375 -0.6875,-2.265625 -1.890625,-2.265625 z m 0,0.609375 c 0.75,0 1.203125,0.625 1.203125,1.65625 0,0.984375 -0.46875,1.59374997 -1.203125,1.59374997 -0.734375,0 -1.1875,-0.60937497 -1.1875,-1.62499997 0,-1 0.453125,-1.625 1.1875,-1.625 z m 6.007813,0.921875 c -0.03125,-0.40625 -0.109375,-0.671875 -0.28125,-0.90625 -0.28125,-0.390625 -0.78125,-0.625 -1.359375,-0.625 -1.125,0 -1.859375,0.890625 -1.859375,2.28125 0,1.34374997 0.71875,2.20312497 1.84375,2.20312497 1,0 1.625,-0.609375 1.703125,-1.62499997 h -0.671875 c -0.109375,0.67187497 -0.453125,0.99999997 -1.015625,0.99999997 -0.734375,0 -1.171875,-0.59374997 -1.171875,-1.57812497 0,-1.046875 0.4375,-1.671875 1.15625,-1.671875 0.5625,0 0.90625,0.328125 0.984375,0.921875 z m 4.5,2.37499997 c -0.07813,0.015625 -0.109375,0.015625 -0.140625,0.015625 -0.234375,0 -0.359375,-0.125 -0.359375,-0.328125 V -3.1571458 c 0,-0.734375 -0.546875,-1.140625 -1.578125,-1.140625 -0.609375,0 -1.109375,0.171875 -1.375,0.484375 -0.203125,0.21875 -0.28125,0.453125 -0.296875,0.875 h 0.671875 c 0.0625,-0.515625 0.359375,-0.75 0.984375,-0.75 0.59375,0 0.921875,0.234375 0.921875,0.625 v 0.171875 c 0,0.28125 -0.15625,0.40625 -0.6875,0.46875 -0.9375,0.125 -1.078125,0.15625 -1.34375,0.25 -0.484375,0.203125 -0.734375,0.578125 -0.734375,1.125 0,0.74999997 0.53125,1.23437497 1.375,1.23437497 0.53125,0 0.953125,-0.18750000333 1.421875,-0.625 0.04687,0.421875 0.25,0.625 0.6875,0.625 0.125,0 0.234375,-0.015625 0.453125,-0.078125 z M 50.985469,-1.3133958 c 0,0.21875 -0.0625,0.35937497 -0.25,0.54687497 -0.28125,0.234375 -0.609375,0.375 -1,0.375 -0.515625,0 -0.8125,-0.25 -0.8125,-0.67187497 0,-0.4375 0.296875,-0.671875 1,-0.765625 0.703125,-0.09375 0.84375,-0.125 1.0625,-0.234375 z m 2.558593,-4.5 h -0.671875 v 5.81249996667 h 0.671875 z m 3.46875,5.81249996667 h 2.25 c 1.46875,0 2.359375,-1.09374996667 2.359375,-2.90624996667 0,-1.796875 -0.890625,-2.90625 -2.359375,-2.90625 h -2.25 z m 0.75,-0.65624999667 V -5.1571458 h 1.375 c 1.140625,0 1.75,0.78125 1.75,2.25 0,1.46875 -0.609375,2.24999997 -1.75,2.24999997 z m 8.566407,0.265625 c -0.07813,0.015625 -0.109375,0.015625 -0.140625,0.015625 -0.234375,0 -0.359375,-0.125 -0.359375,-0.328125 V -3.1571458 c 0,-0.734375 -0.546875,-1.140625 -1.578125,-1.140625 -0.609375,0 -1.109375,0.171875 -1.375,0.484375 -0.203125,0.21875 -0.28125,0.453125 -0.296875,0.875 h 0.671875 c 0.0625,-0.515625 0.359375,-0.75 0.984375,-0.75 0.59375,0 0.921875,0.234375 0.921875,0.625 v 0.171875 c 0,0.28125 -0.15625,0.40625 -0.6875,0.46875 -0.9375,0.125 -1.078125,0.15625 -1.34375,0.25 -0.484375,0.203125 -0.734375,0.578125 -0.734375,1.125 0,0.74999997 0.53125,1.23437497 1.375,1.23437497 0.53125,0 0.953125,-0.18750000333 1.421875,-0.625 0.04687,0.421875 0.25,0.625 0.6875,0.625 0.125,0 0.234375,-0.015625 0.453125,-0.078125 z M 65.157344,-1.3133958 c 0,0.21875 -0.0625,0.35937497 -0.25,0.54687497 -0.28125,0.234375 -0.609375,0.375 -1,0.375 -0.515625,0 -0.8125,-0.25 -0.8125,-0.67187497 0,-0.4375 0.296875,-0.671875 1,-0.765625 0.703125,-0.09375 0.84375,-0.125 1.0625,-0.234375 z m 3.367187,-2.859375 h -0.6875 v -1.15625 h -0.671875 v 1.15625 h -0.5625 v 0.53125 h 0.5625 v 3.15624997 c 0,0.421875 0.296875,0.671875 0.8125,0.671875 0.15625,0 0.3125,-0.015625 0.546875,-0.0625 v -0.5625 c -0.09375,0.03125 -0.203125,0.046875 -0.328125,0.046875 -0.28125,0 -0.359375,-0.09375 -0.359375,-0.375 V -3.6415208 h 0.6875 z m 4.453125,3.78124997 c -0.07813,0.015625 -0.109375,0.015625 -0.140625,0.015625 -0.234375,0 -0.359375,-0.125 -0.359375,-0.328125 V -3.1571458 c 0,-0.734375 -0.546875,-1.140625 -1.578125,-1.140625 -0.609375,0 -1.109375,0.171875 -1.375,0.484375 -0.203125,0.21875 -0.28125,0.453125 -0.296875,0.875 h 0.671875 c 0.0625,-0.515625 0.359375,-0.75 0.984375,-0.75 0.59375,0 0.921875,0.234375 0.921875,0.625 v 0.171875 c 0,0.28125 -0.15625,0.40625 -0.6875,0.46875 -0.9375,0.125 -1.078125,0.15625 -1.34375,0.25 -0.484375,0.203125 -0.734375,0.578125 -0.734375,1.125 0,0.74999997 0.53125,1.23437497 1.375,1.23437497 0.53125,0 0.953125,-0.18750000333 1.421875,-0.625 0.04687,0.421875 0.25,0.625 0.6875,0.625 0.125,0 0.234375,-0.015625 0.453125,-0.078125 z M 71.805781,-1.3133958 c 0,0.21875 -0.0625,0.35937497 -0.25,0.54687497 -0.28125,0.234375 -0.609375,0.375 -1,0.375 -0.515625,0 -0.8125,-0.25 -0.8125,-0.67187497 0,-0.4375 0.296875,-0.671875 1,-0.765625 0.703125,-0.09375 0.84375,-0.125 1.0625,-0.234375 z m 0,0"
       style="fill:#000000;fill-opacity:1;fill-rule:nonzero;stroke:none"
       aria-label="PoisonedLocalData"
       transform="translate(300.12,187.02433)" />
  </g>
</svg>
