<?xml version="1.0" encoding="UTF-8" standalone="no"?>
<!-- Created with Inkscape (http://www.inkscape.org/) -->

<svg
   version="1.1"
   id="svg1"
   width="245.68401"
   height="124.43733"
   viewBox="0 0 245.68401 124.43733"
   xmlns="http://www.w3.org/2000/svg"
   xmlns:svg="http://www.w3.org/2000/svg">
  <defs
     id="defs1">
    <clipPath
       clipPathUnits="userSpaceOnUse"
       id="clipPath4">
      <path
         d="m -90.71013,0.02176975 7.55908,0.05918 7.559071,0.18167001 7.55905,0.49206001 7.55905,1.18447003 7.55907,2.5308701 7.55908,4.7368301 7.559051,7.75769 7.55907,11.01002 7.55907,13.296971 7.55905,13.21495 7.5590703,9.88059 7.5590602,3.66553 7.5590202,-3.65827 7.5590503,-9.8806 7.55907,-13.21597 7.55907,-13.303201 7.55906,-11.01002 7.559061,-7.75769 7.55906,-4.7368301 7.55905,-2.5308701 7.55907,-1.18447003 7.55908,-0.49206001 7.559051,-0.18167001 7.55907,-0.05918 0.0028,-0.02177 H -90.71013 Z"
         id="path4" />
    </clipPath>
  </defs>
  <g
     id="g1">
    <path
       id="path1"
       d="m -90.71013,0.02177 1.83226,0.00936 1.83223,0.01141 1.83223,0.01558 1.83226,0.0197 1.83223,0.02701 1.83223,0.03529 1.83223,0.04568 1.83226,0.05918 1.83223,0.07578 1.83223,0.0955 1.83224,0.12146 1.83225,0.14948 1.83223,0.18997 1.83223,0.23149 1.83224,0.28549 1.83225,0.34776 1.83223,0.41419 1.83223,0.50453 1.83224,0.59793 1.83225,0.70798 1.83223,0.82319 1.83224,0.9665 1.83225,1.10971 1.83223,1.26544 1.83223,1.44919 1.83224,1.61941 1.83224,1.8177 1.83223,2.01392 1.83225,2.21115 1.83223,2.40215 1.83224,2.5994 1.83224,2.7769 1.83224,2.9326 1.83223,3.08314 1.83224,3.19838 1.83223,3.2731 1.83225,3.32711 1.83223,3.32814 1.83224,3.29283 1.83224,3.20564 1.83224,3.0686 1.83224,2.87865 1.83223,2.65441 1.83225,2.36788 1.83223,2.04818 1.83224,1.68794 1.83225,1.29968 1.83222,0.8772 1.83223,0.44223 1.8322,0.0073 1.83225,-0.44223 1.83223,-0.87096 1.83223,-1.28619 1.83224,-1.68794 1.83225,-2.04091 1.83223,-2.36166 1.83223,-2.64714 1.83226,-2.88488 1.83223,-3.06238 1.83222,-3.20564 1.83225,-3.2866 1.83225,-3.32709 1.83223,-3.32813 1.83222,-3.27935 1.83226,-3.19838 1.83223,-3.08313 1.83223,-2.93988 L 33.882,22.2858 35.71426,19.68642 37.5465,17.277 39.37872,15.06586 41.21095,13.0509 43.04321,11.22803 44.87544,9.60132 46.70767,8.15837 48.53992,6.87944 50.37216,5.76971 52.20439,4.80324 54.03662,3.9738 55.86888,3.26582 57.70111,2.66684 59.53334,2.16338 61.36557,1.74812 63.19783,1.39415 65.03006,1.10866 66.86229,0.87717 68.69453,0.6872 70.52678,0.53978 72.35901,0.41833 74.19125,0.3218 76.02348,0.246 77.85573,0.18684 79.68796,0.14116 81.5202,0.10587 83.35243,0.07887 85.18468,0.05812 87.01692,0.04254 88.84915,0.03113 90.6814,0.02281"
       style="fill:none;stroke:#0000ff;stroke-width:0.99628;stroke-linecap:butt;stroke-linejoin:miter;stroke-miterlimit:10;stroke-dasharray:none;stroke-opacity:1"
       transform="matrix(1.3333333,0,0,-1.3333333,121.60933,91.373333)" />
    <path
       id="path2"
       d="m -90.71013,6.6e-4 h 1.83226 1.83223 1.83223 l 1.83226,0.00796 1.83223,0.00348 1.83223,0.00517 1.83223,0.00693 1.83226,0.00934 1.83223,0.01211 1.83223,0.01558 1.83224,0.02179 1.83225,0.02768 1.83223,0.03633 1.83223,0.04673 1.83224,0.06054 1.83225,0.07614 1.83223,0.0969 1.83223,0.12109 1.83224,0.14881 1.83225,0.18686 1.83223,0.22663 1.83224,0.27751 1.83225,0.34086 1.83223,0.40242 1.83223,0.48168 1.83224,0.57268 1.83224,0.66957 1.83223,0.77685 1.83225,0.90142 1.83223,1.0322 1.83224,1.17998 1.83224,1.3208 1.83224,1.48622 1.83223,1.64468 1.83224,1.8087 1.83223,1.9793 1.83225,2.13156 1.83223,2.28555 1.83224,2.42152 1.83224,2.54575 1.83224,2.64888 1.83224,2.72154 1.83223,2.76757 1.83225,2.77345 1.83223,2.74989 1.83224,2.68799 1.83225,2.58035 1.83222,2.43779 1.83223,2.24576 1.8322,2.02428 1.83225,1.75886 1.83223,1.46788 1.83223,1.14018 1.83224,0.79934 1.83225,0.4429 1.83223,0.0737 1.83223,-0.30103 1.83226,-0.65747 1.83223,-1.00972 1.83222,-1.34329 1.83225,-1.64468 1.83225,-1.9281 1.83223,-2.16095 1.83222,-2.37033 1.83226,-2.52361 1.83223,-2.65407 1.83223,-2.72742 1.83223,-2.77275 1.83226,-2.77343 1.83224,-2.74404 1.83222,-2.67726 1.83223,-2.59108 1.83226,-2.4724 1.83223,-2.34263 1.83223,-2.19454 1.83225,-2.0357 1.83224,-1.87721 L 52.20439,11.1768 54.03662,9.6342 55.86888,8.24487 57.70111,7.01405 59.53334,5.92577 61.36557,4.97246 63.19783,4.1444 65.03006,3.43607 66.86229,2.8288 68.69453,2.3132 70.52678,1.87616 72.35901,1.51387 74.19125,1.21281 76.02348,0.96886 77.85573,0.76471 79.68796,0.60034 81.5202,0.47127 83.35243,0.36574 85.18468,0.28198 87.01692,0.21625 88.84915,0.16435 90.6814,0.1235"
       style="fill:none;stroke:#ff0000;stroke-width:0.99628;stroke-linecap:butt;stroke-linejoin:miter;stroke-miterlimit:10;stroke-dasharray:none;stroke-opacity:1"
       transform="matrix(1.3333333,0,0,-1.3333333,121.60933,91.373333)" />
    <path
       id="path3"
       d="m -90.71013,6.6e-4 7.55908,0.00866 7.55907,0.027 7.55905,0.08718 7.55905,0.25261 7.55907,0.64363 7.55908,1.46891 7.55905,2.93191 7.55907,5.13754 7.55907,7.84904 7.55905,10.3031 7.55907,11.35917 7.55906,9.96916 7.55902,5.88602 h 7.55905 l 7.55907,-5.88081 7.55907,-9.96916 7.55906,-11.35851 7.55906,-10.30379 7.55906,-7.84799 L 60.47108,5.42056 68.03015,2.48865 75.58923,1.01974 83.14828,0.37611 90.70735,0.1235 90.71013,0 H -90.71013 Z"
       style="fill:#808080;fill-opacity:0.5;fill-rule:nonzero;stroke:none"
       transform="matrix(1.3333333,0,0,-1.3333333,121.60933,91.373333)"
       clip-path="url(#clipPath4)" />
    <path
       id="path5"
       d="M 34.51442,48.89 H 78.53609 V 64.49762 H 34.51442 Z"
       style="fill:none;stroke:#0000ff;stroke-width:0.99628;stroke-linecap:butt;stroke-linejoin:miter;stroke-miterlimit:10;stroke-dasharray:none;stroke-opacity:1"
       transform="matrix(1.3333333,0,0,-1.3333333,121.60933,91.373333)" />
    <path
       id="path6"
       d="m 3.5732344,-2.8133516 c 1.2539062,0 2.1679687,-0.7851562 2.1679687,-1.640625 0,-0.890625 -0.9140625,-1.6640625 -2.1679687,-1.6640625 H 0.36229687 v 0.2695313 h 0.19921875 c 0.69140628,0 0.71484378,0.1054687 0.71484378,0.4335937 v 4.71093754 c 0,0.328125 -0.023437,0.421875 -0.71484378,0.421875 H 0.36229687 V -8.515625e-4 C 0.76073437,-0.02428906 1.2646406,-0.02428906 1.6747969,-0.02428906 c 0.4101562,0 0.9140625,0 1.3242187,0.0234374975 V -0.28210156 H 2.7880781 c -0.6914062,0 -0.7148437,-0.09375 -0.7148437,-0.421875 V -2.8133516 Z M 2.0497969,-5.4735078 c 0,-0.3046875 0.023437,-0.375 0.4453125,-0.375 h 0.8554687 c 1.4765625,0 1.4765625,0.984375 1.4765625,1.3945312 0,0.3984375 0,1.3828125 -1.4882812,1.3828125 H 2.0497969 Z m 5.8154297,3.421875 c 0,-0.375 0.1054687,-1.6875 1.125,-1.6875 v 0.011719 c -0.023437,0.011719 -0.1640625,0.1171875 -0.1640625,0.328125 0,0.2460938 0.1875,0.3984375 0.3984375,0.3984375 0.1875,0 0.3867187,-0.140625 0.3867187,-0.4101562 0,-0.28125 -0.2695312,-0.5507813 -0.6679687,-0.5507813 -0.5390625,0 -0.9140625,0.375 -1.125,0.9257813 v -0.9257813 l -1.2773438,0.09375 v 0.28125 c 0.609375,0 0.6914063,0.058594 0.6914063,0.5039063 v 2.39062499 c 0,0.41015625 -0.1054688,0.41015625 -0.6914063,0.41015625 V -8.515625e-4 C 7.0097578,-0.02428906 7.1269453,-0.02428906 7.5839766,-0.02428906 c 0.3632812,0 0.5742187,0 1.1484375,0.0234374975 V -0.28210156 h -0.1875 c -0.65625,0 -0.6796875,-0.09375 -0.6796875,-0.421875 z M 12.218742,2.2374297 V 1.8507109 h -0.878906 v -8.1914062 h 0.878906 v -0.3867188 h -1.265625 v 8.9648438 z m 0,0"
       style="fill:#000000;fill-opacity:1;fill-rule:nonzero;stroke:none"
       aria-label="Pr["
       transform="matrix(1.3333333,0,0,1.3333333,172.056,18.770667)" />
    <path
       id="path7"
       d="m 5.4731953,-1.4774141 c 0.035156,0.46875 0.1289063,0.86718754 0.1875,1.10156254 0.1171875,0.421875 0.1640625,0.64453125 0.5625,0.64453125 0.421875,0 1.125,-0.3984375 1.125,-0.59765625 0,-0.0117188 -0.011719,-0.0585938 -0.082031,-0.0585938 -0.011719,0 -0.1289063,0.0117188 -0.3046875,0.10546875 -0.09375,0.0351562 -0.1054688,0.046875 -0.1289063,0.046875 -0.28125,0 -0.3398437,-0.28125 -0.4453125,-0.82031249 -0.082031,-0.375 -0.140625,-0.65625 -0.234375,-1.9921876 C 6.082571,-3.8328828 6.0474143,-4.6297578 6.0474143,-5.4149141 v -0.8554687 c 0,-0.1640625 0,-0.2109375 -0.09375,-0.2109375 -0.1171875,0 -0.46875,0.1289062 -0.6679688,0.3984375 l -0.070312,0.1054687 c -0.011719,0.011719 -0.65625,1.4179688 -1.8046875,3.2109375 -0.4570312,0.7265625 -1.5234375,2.37890624 -2.0390625,2.37890624 -0.2460937,0 -0.63281249,-0.1875 -0.72656249,-0.50390625 -0.0117188,-0.0703125 -0.0234375,-0.10546875 -0.0585938,-0.10546875 -0.15234375,0 -0.33984375,0.45703125 -0.33984375,0.703125 0,0.31640625 0.375,0.75 0.83203134,0.75 0.5390625,0 1.2304687,-0.984375 1.8867187,-1.93359374 z M 5.2622578,-5.3914766 v 0.3867188 c 0,1.0195312 0.1171875,2.5195312 0.1523438,3.0234375 H 3.7388203 c -0.1640625,0 -0.28125,0 -0.5273437,0.1523437 0.5507812,-0.8554687 0.84375,-1.3242187 1.1601562,-1.8867187 0.5742188,-1.0195313 0.75,-1.4296875 0.8789063,-1.6757813 z m 0,0"
       style="fill:#000000;fill-opacity:1;fill-rule:nonzero;stroke:none"
       aria-label="A"
       transform="matrix(1.3333333,0,0,1.3333333,188.636,18.770667)" />
    <path
       id="path8"
       d="m 3.0594375,2.1319609 c 0,-0.046875 -0.023437,-0.070312 -0.082031,-0.1289062 -1.1601565,-1.06640626 -1.511719,-2.67187501 -1.511719,-4.2421875 0,-1.3945313 0.2695312,-3.0820313 1.5351562,-4.2773438 0.035156,-0.035156 0.058594,-0.070312 0.058594,-0.1054687 0,-0.070312 -0.046875,-0.1054688 -0.1054688,-0.1054688 -0.1054687,0 -0.9140625,0.6445313 -1.40625,1.6289063 -0.421875,0.8554687 -0.6445312,1.78125 -0.6445312,2.8476562 0,0.6445313 0.0820313,1.66406254 0.5742187,2.73046879 C 2.00475,1.5811797 2.8485,2.2257109 2.9539687,2.2257109 c 0.058594,0 0.1054688,-0.035156 0.1054688,-0.09375 z m 0,0"
       style="fill:#000000;fill-opacity:1;fill-rule:nonzero;stroke:none"
       aria-label="("
       transform="matrix(1.3333333,0,0,1.3333333,198.452,18.770667)" />
    <path
       id="path9"
       d="m 1.4412578,-0.68053906 c -0.082031,0.31640625 -0.09375,0.3984375 -0.77343749,0.3984375 -0.1640625,0 -0.26953125,0 -0.26953125,0.1640625 0,0.1171874975 0.09375,0.1171874975 0.2578125,0.1171874975 H 3.6795391 c 1.9101562,0 3.703125,-1.8984375375 3.703125,-3.8320312375 0,-1.2304688 -0.7734375,-2.2851563 -2.1796875,-2.2851563 H 2.1326641 c -0.1640625,0 -0.2695313,0 -0.2695313,0.1523438 0,0.1171875 0.082031,0.1171875 0.2695313,0.1171875 0.035156,0 0.1992187,0 0.3398437,0.023437 0.1523438,0.011719 0.2109375,0.035156 0.2109375,0.1289062 0,0.046875 0,0.082031 -0.035156,0.1875 z m 1.96875,-4.81640624 c 0.082031,-0.3164063 0.1054688,-0.3515625 0.4804688,-0.3515625 h 1.0078125 c 0.9375,0 1.6875,0.5273437 1.6875,1.6757812 0,0.5273438 -0.234375,1.9570313 -0.9257813,2.8476563 -0.4101562,0.50390624 -1.1601562,1.04296874 -2.1445312,1.04296874 h -1.078125 c -0.1289063,0 -0.140625,0 -0.1757813,0 -0.09375,-0.0117188 -0.1171875,-0.0234375 -0.1171875,-0.0820313 0,-0.0351563 0,-0.046875 0.046875,-0.2109375 z m 0,0"
       style="fill:#000000;fill-opacity:1;fill-rule:nonzero;stroke:none"
       aria-label="D"
       transform="matrix(1.3333333,0,0,1.3333333,203.23067,18.770667)" />
    <path
       id="path10"
       d="m 2.6712187,-2.2508516 c 0,-0.7382812 -0.1054687,-1.7226562 -0.5742187,-2.71875 -0.5273438,-1.1015625 -1.359375,-1.7578125 -1.46484375,-1.7578125 -0.09375,0 -0.1171875,0.070312 -0.1171875,0.1054688 0,0.035156 0.0234375,0.070312 0.0820313,0.1289062 0.52734365,0.46875 1.51171875,1.6875 1.51171875,4.2421875 0,1.27734379 -0.2343751,3.07031254 -1.53515625,4.2773438 -0.0234375,0.023437 -0.0585938,0.058594 -0.0585938,0.1054687 0,0.023437 0.0234375,0.09375 0.1171875,0.09375 0.10546875,0 0.91406245,-0.6445312 1.39453125,-1.61718746 C 2.4602812,-0.24694531 2.6712187,-1.1727266 2.6712187,-2.2508516 Z M 5.050125,2.2374297 V -6.7274141 H 3.7845 v 0.3867188 H 4.675125 V 1.8507109 H 3.7845 v 0.3867188 z m 0,0"
       style="fill:#000000;fill-opacity:1;fill-rule:nonzero;stroke:none"
       aria-label=")]"
       transform="matrix(1.3333333,0,0,1.3333333,213.704,18.770667)" />
    <path
       id="path11"
       d="M 45.8532,26.0099 H 92.55927 V 42.02263 H 45.8532 Z"
       style="fill:none;stroke:#ff0000;stroke-width:0.99628;stroke-linecap:butt;stroke-linejoin:miter;stroke-miterlimit:10;stroke-dasharray:none;stroke-opacity:1"
       transform="matrix(1.3333333,0,0,-1.3333333,121.60933,91.373333)" />
    <path
       id="path12"
       d="m 3.573125,-2.8124922 c 1.2539063,0 2.1679688,-0.7851562 2.1679688,-1.640625 0,-0.890625 -0.9140625,-1.6640625 -2.1679688,-1.6640625 H 0.3621875 v 0.2695313 h 0.19921875 c 0.69140625,0 0.71484375,0.1054687 0.71484375,0.4335937 v 4.71093751 c 0,0.328125 -0.023437,0.421875 -0.71484375,0.421875 H 0.3621875 V 7.8125e-6 C 0.760625,-0.02342969 1.2645313,-0.02342969 1.6746875,-0.02342969 c 0.4101563,0 0.9140625,0 1.3242188,0.0234375025 V -0.28124219 H 2.7879688 c -0.6914063,0 -0.7148438,-0.09375 -0.7148438,-0.421875 V -2.8124922 Z M 2.0496875,-5.4726484 c 0,-0.3046875 0.023437,-0.375 0.4453125,-0.375 h 0.8554688 c 1.4765625,0 1.4765625,0.984375 1.4765625,1.3945312 0,0.3984375 0,1.3828125 -1.4882813,1.3828125 H 2.0496875 Z m 5.8154297,3.421875 c 0,-0.375 0.1054687,-1.6875 1.125,-1.6875 v 0.011719 c -0.023437,0.011719 -0.1640625,0.1171875 -0.1640625,0.328125 0,0.2460938 0.1875,0.3984375 0.3984375,0.3984375 0.1875,0 0.3867187,-0.140625 0.3867187,-0.4101562 0,-0.28125 -0.2695312,-0.5507813 -0.6679687,-0.5507813 -0.5390625,0 -0.9140625,0.375 -1.125,0.9257813 v -0.9257813 l -1.2773438,0.09375 v 0.28125 c 0.609375,0 0.6914063,0.058594 0.6914063,0.5039063 v 2.39062496 c 0,0.41015625 -0.1054688,0.41015625 -0.6914063,0.41015625 V 7.8125e-6 C 7.0096484,-0.02342969 7.1268359,-0.02342969 7.5838672,-0.02342969 c 0.3632812,0 0.5742187,0 1.1484375,0.0234375025 V -0.28124219 h -0.1875 c -0.65625,0 -0.6796875,-0.09375 -0.6796875,-0.421875 z M 12.218633,2.2382891 V 1.8515703 h -0.878906 v -8.1914062 h 0.878906 v -0.3867188 h -1.265625 v 8.9648438 z m 0,0"
       style="fill:#000000;fill-opacity:1;fill-rule:nonzero;stroke:none"
       aria-label="Pr["
       transform="matrix(1.3333333,0,0,1.3333333,187.17333,49.277333)" />
    <path
       id="path13"
       d="m 5.4730859,-1.4765547 c 0.035156,0.46875 0.1289063,0.86718751 0.1875,1.10156251 0.1171875,0.421875 0.1640625,0.64453125 0.5625,0.64453125 0.421875,0 1.125,-0.3984375 1.125,-0.59765625 0,-0.0117188 -0.011719,-0.0585938 -0.082031,-0.0585938 -0.011719,0 -0.1289063,0.0117188 -0.3046875,0.10546875 -0.09375,0.0351563 -0.1054688,0.046875 -0.1289063,0.046875 -0.28125,0 -0.3398437,-0.28125 -0.4453125,-0.82031256 -0.082031,-0.375 -0.140625,-0.65625 -0.234375,-1.9921875 -0.070312,-0.7851562 -0.1054687,-1.5820312 -0.1054687,-2.3671874 v -0.8554688 c 0,-0.1640625 0,-0.2109375 -0.09375,-0.2109375 -0.1171875,0 -0.46875,0.1289063 -0.6679688,0.3984375 l -0.070312,0.1054688 c -0.011719,0.011719 -0.65625,1.4179687 -1.8046875,3.2109374 -0.4570312,0.7265625 -1.5234375,2.37890631 -2.0390625,2.37890631 -0.2460937,0 -0.63281246,-0.1875 -0.72656246,-0.50390625 -0.0117188,-0.0703125 -0.0234375,-0.10546875 -0.0585938,-0.10546875 -0.15234375,0 -0.33984375,0.45703125 -0.33984375,0.703125 0,0.31640625 0.375,0.75 0.83203131,0.75 0.5390625,0 1.2304687,-0.984375 1.8867187,-1.93359371 z M 5.2621484,-5.3906172 v 0.3867188 c 0,1.0195312 0.1171875,2.5195312 0.1523438,3.0234375 H 3.7387109 c -0.1640625,0 -0.28125,0 -0.5273437,0.1523437 0.5507812,-0.8554687 0.84375,-1.3242187 1.1601562,-1.8867187 0.5742188,-1.0195313 0.75,-1.4296875 0.8789063,-1.6757813 z m 0,0"
       style="fill:#000000;fill-opacity:1;fill-rule:nonzero;stroke:none"
       aria-label="A"
       transform="matrix(1.3333333,0,0,1.3333333,203.75333,49.277333)" />
    <path
       id="path14"
       d="m 3.0583281,2.1328203 c 0,-0.046875 -0.023437,-0.070312 -0.082031,-0.1289062 -1.1601563,-1.06640629 -1.5117188,-2.67187504 -1.5117188,-4.2421875 0,-1.3945313 0.2695313,-3.0820313 1.5351563,-4.2773438 0.035156,-0.035156 0.058594,-0.070312 0.058594,-0.1054687 0,-0.070312 -0.046875,-0.1054688 -0.1054687,-0.1054688 -0.1054688,0 -0.9140625,0.6445313 -1.40625,1.6289063 -0.421875,0.8554687 -0.64453127,1.78125 -0.64453127,2.8476562 0,0.6445313 0.0820313,1.66406251 0.57421877,2.73046876 0.5273437,1.10156254 1.3710937,1.74609374 1.4765625,1.74609374 0.058594,0 0.1054687,-0.035156 0.1054682,-0.09375 z m 0,0"
       style="fill:#000000;fill-opacity:1;fill-rule:nonzero;stroke:none"
       aria-label="("
       transform="matrix(1.3333333,0,0,1.3333333,213.57067,49.277333)" />
    <path
       id="path15"
       d="m 1.4401484,-0.67967969 c -0.082031,0.31640625 -0.09375,0.3984375 -0.77343746,0.3984375 -0.1640625,0 -0.26953125,0 -0.26953125,0.1640625 0,0.1171875025 0.09375,0.1171875025 0.2578125,0.1171875025 H 3.6784297 c 1.9101562,0 3.703125,-1.8984375125 3.703125,-3.8320312125 0,-1.2304688 -0.7734375,-2.2851563 -2.1796875,-2.2851563 H 2.1315547 c -0.1640625,0 -0.2695313,0 -0.2695313,0.1523438 0,0.1171875 0.082031,0.1171875 0.2695313,0.1171875 0.035156,0 0.1992187,0 0.3398437,0.023437 0.1523438,0.011719 0.2109375,0.035156 0.2109375,0.1289062 0,0.046875 0,0.082031 -0.035156,0.1875 z m 1.96875,-4.81640621 c 0.082031,-0.3164063 0.1054688,-0.3515625 0.4804688,-0.3515625 h 1.0078125 c 0.9375,0 1.6875,0.5273437 1.6875,1.6757812 0,0.5273438 -0.234375,1.9570313 -0.9257813,2.8476563 -0.4101562,0.50390621 -1.1601562,1.04296871 -2.1445312,1.04296871 h -1.078125 c -0.1289063,0 -0.140625,0 -0.1757813,0 -0.09375,-0.0117188 -0.1171875,-0.0234375 -0.1171875,-0.0820313 0,-0.0351563 0,-0.046875 0.046875,-0.2109375 z m 0,0"
       style="fill:#000000;fill-opacity:1;fill-rule:nonzero;stroke:none"
       aria-label="D"
       transform="matrix(1.3333333,0,0,1.3333333,218.34933,49.277333)" />
    <path
       id="path16"
       d="m 1.8761641,-2.8120859 c 0.046875,-0.082031 0.058594,-0.1523438 0.058594,-0.1875 0,-0.1875 -0.1757812,-0.3398438 -0.3632812,-0.3398438 -0.2460938,0 -0.3164063,0.2109375 -0.3398438,0.2929688 l -0.83203124,2.55468746 c -0.0117188,0.0351563 -0.0351563,0.0820313 -0.0351563,0.10546875 0,0.10546875 0.24609375,0.15234375 0.24609375,0.15234375 0.0585938,0 0.0820313,-0.046875 0.10546875,-0.10546875 z m 0,0"
       style="fill:#000000;fill-opacity:1;fill-rule:nonzero;stroke:none"
       aria-label="0"
       transform="matrix(1.3333333,0,0,1.3333333,228.82267,44.198667)" />
    <path
       id="path17"
       d="m 2.6726328,-2.2499922 c 0,-0.7382812 -0.1054687,-1.7226562 -0.5742187,-2.71875 -0.5273438,-1.1015625 -1.35937504,-1.7578125 -1.46484379,-1.7578125 -0.09375,0 -0.1171875,0.070312 -0.1171875,0.1054688 0,0.035156 0.0234375,0.070312 0.0820313,0.1289062 0.52734379,0.46875 1.51171879,1.6875 1.51171879,4.2421875 0,1.27734376 -0.234375,3.07031251 -1.53515629,4.2773438 -0.0234375,0.023437 -0.0585938,0.058594 -0.0585938,0.1054687 0,0.023437 0.0234375,0.09375 0.1171875,0.09375 0.10546875,0 0.91406249,-0.6445312 1.39453129,-1.61718749 0.4335937,-0.85546875 0.6445312,-1.78125001 0.6445312,-2.85937501 z m 2.3759766,4.4882813 v -8.9648438 h -1.265625 v 0.3867188 h 0.890625 v 8.1914062 h -0.890625 v 0.3867188 z m 0,0"
       style="fill:#000000;fill-opacity:1;fill-rule:nonzero;stroke:none"
       aria-label=")]"
       transform="matrix(1.3333333,0,0,1.3333333,232.40133,49.277333)" />
    <path
       id="path18"
       d="M -11.33876,67.03632 V 56.55614"
       style="fill:none;stroke:#000000;stroke-width:0.99628;stroke-linecap:butt;stroke-linejoin:miter;stroke-miterlimit:10;stroke-dasharray:none;stroke-opacity:1"
       transform="matrix(1.3333333,0,0,-1.3333333,121.60933,91.373333)" />
    <path
       id="path19"
       d="M -2.78957,3.47087 C -2.27992,1.38832 -1.14423,0.40492 0,0 -1.14423,-0.40492 -2.27992,-1.38832 -2.78957,-3.47087"
       style="fill:none;stroke:#000000;stroke-width:0.99628;stroke-linecap:round;stroke-linejoin:round;stroke-miterlimit:10;stroke-dasharray:none;stroke-opacity:1"
       transform="matrix(0,-1.3333333,-1.3333333,0,106.49099,1.3274)" />
    <path
       id="path20"
       d="M -2.78957,3.47087 C -2.27992,1.38832 -1.14423,0.40492 0,0 -1.14423,-0.40492 -2.27992,-1.38832 -2.78957,-3.47087"
       style="fill:none;stroke:#000000;stroke-width:0.99628;stroke-linecap:round;stroke-linejoin:round;stroke-miterlimit:10;stroke-dasharray:none;stroke-opacity:1"
       transform="matrix(0,1.3333333,1.3333333,0,106.49099,16.629333)" />
    <path
       id="path21"
       d="m 1.2291406,-2.051 c 0.5390625,0 1.125,0 1.6054688,-0.1171875 0.84375,-0.2109375 0.9960937,-0.7148437 0.9960937,-1.0195312 0,-0.5039063 -0.4804687,-0.7734375 -1.0078125,-0.7734375 -1.0429687,0 -2.40234373,0.8789062 -2.40234373,2.4140625 0,0.8554687 0.50390625,1.64062495 1.46484373,1.64062495 1.3476563,0 2.0976563,-0.92578125 2.0976563,-1.04296875 0,-0.0585937 -0.058594,-0.1289062 -0.1171875,-0.1289062 -0.046875,0 -0.058594,0.011719 -0.140625,0.1054687 -0.5390625,0.66796875 -1.3476563,0.84375 -1.8164063,0.84375 -0.6328125,0 -0.8085937,-0.59765625 -0.8085937,-1.0429687 0,-0.023437 0,-0.3398438 0.1289062,-0.8789063 z m 0.058594,-0.2226562 C 1.6861719,-3.691625 2.6822656,-3.7385 2.8228906,-3.7385 c 0.3046875,0 0.6679688,0.140625 0.6679688,0.5507813 0,0.9140625 -1.3476563,0.9140625 -2.2031248,0.9140625 z m 0,0"
       style="fill:#000000;fill-opacity:1;fill-rule:nonzero;stroke:none"
       aria-label="e"
       transform="matrix(1.3333333,0,0,1.3333333,90.853333,13.234667)" />
    <path
       id="path22"
       d="M 0.62129687,0.00101563 H 2.5783281 c 1.2890625,0 2.0742188,-0.9609375 2.0742188,-2.54296873 0,-1.5820313 -0.7851563,-2.5429688 -2.0742188,-2.5429688 H 0.62129687 Z M 1.2658281,-0.57320312 V -4.5107031 h 1.2070313 c 0.9960937,0 1.5351562,0.6796875 1.5351562,1.96875 0,1.2890625 -0.5390625,1.96874998 -1.5351562,1.96874998 z M 6.0793047,-3.6552344 H 5.5050859 v 3.65625003 h 0.5742188 z m 0,-1.4296875 H 5.4933672 v 0.7382813 h 0.5859375 z m 3.5625,2.4492188 c -0.011719,-0.7148438 -0.4804688,-1.125 -1.3242188,-1.125 -0.8554687,0 -1.40625,0.4453125 -1.40625,1.1132812 0,0.5742188 0.2929688,0.84375 1.1601563,1.0546875 l 0.5390625,0.140625 c 0.4101562,0.09375 0.5625,0.234375 0.5625,0.50390628 0,0.33984375 -0.3398438,0.57421875 -0.84375,0.57421875 -0.3164063,0 -0.5859375,-0.09375 -0.7265625,-0.24609375 -0.09375,-0.10546875 -0.1289063,-0.2109375 -0.1640625,-0.46874998 H 6.8175859 c 0.035156,0.84374998 0.5039063,1.25390623 1.4648438,1.25390623 0.9140625,0 1.5,-0.45703125 1.5,-1.16015625 0,-0.53906248 -0.3046875,-0.84374998 -1.03125,-1.01953128 l -0.5625,-0.1289062 c -0.46875,-0.1171875 -0.6679688,-0.2695313 -0.6679688,-0.5273438 0,-0.328125 0.2929688,-0.5507812 0.7734375,-0.5507812 0.46875,0 0.7148438,0.1992187 0.7265625,0.5859375 z M 11.83907,-3.6552344 h -0.597656 v -0.9960937 h -0.574219 v 0.9960937 h -0.503906 v 0.4804688 h 0.503906 v 2.75390623 c 0,0.375 0.246094,0.5859375 0.703125,0.5859375 0.140625,0 0.269532,-0.0234375 0.46875,-0.046875 v -0.4921875 c -0.07031,0.0234375 -0.164062,0.0234375 -0.28125,0.0234375 -0.246093,0 -0.316406,-0.0703125 -0.316406,-0.328125 V -3.1747656 h 0.597656 z m 0.650391,0 v 3.65625003 h 0.585937 V -1.8974219 c 0,-0.515625 0.128907,-0.8671875 0.410157,-1.0664062 0.1875,-0.1289063 0.351562,-0.1757813 0.761718,-0.1757813 v -0.5976562 c -0.09375,-0.011719 -0.140625,-0.023437 -0.222656,-0.023437 -0.375,0 -0.667969,0.2226562 -0.996094,0.7734375 v -0.6679688 z m 2.982422,0 h -0.574219 v 3.65625003 h 0.574219 z m 0,-1.4296875 h -0.585938 v 0.7382813 h 0.585938 z m 0.878906,0 v 5.08593753 h 0.527344 v -0.46875 c 0.28125,0.421875 0.644531,0.6328125 1.160156,0.6328125 0.960938,0 1.582031,-0.796875 1.582031,-2.00390623 0,-1.1835938 -0.597656,-1.921875 -1.558593,-1.921875 -0.503907,0 -0.855469,0.1875 -1.125,0.5976562 v -1.921875 z m 1.59375,1.875 c 0.65625,0 1.066406,0.5625 1.066406,1.4296875 0,0.83203128 -0.421875,1.39453128 -1.066406,1.39453128 -0.609375,0 -1.007812,-0.55078125 -1.007812,-1.41796878 0,-0.8554687 0.398437,-1.40625 1.007812,-1.40625 z m 5.141602,3.21093753 V -3.6552344 h -0.585938 v 2.0742188 c 0,0.74999998 -0.386719,1.23046873 -0.996094,1.23046873 -0.457031,0 -0.75,-0.28125 -0.75,-0.71484373 v -2.5898438 h -0.574218 v 2.82421878 c 0,0.59765625 0.445312,0.99609375 1.160156,0.99609375 0.539062,0 0.878906,-0.1875 1.21875,-0.66796875 v 0.50390625 z m 2.282226,-3.65625003 h -0.597656 v -0.9960937 h -0.574219 v 0.9960937 h -0.503906 v 0.4804688 h 0.503906 v 2.75390623 c 0,0.375 0.246094,0.5859375 0.703125,0.5859375 0.140625,0 0.269531,-0.0234375 0.46875,-0.046875 v -0.4921875 c -0.07031,0.0234375 -0.164062,0.0234375 -0.28125,0.0234375 -0.246094,0 -0.316406,-0.0703125 -0.316406,-0.328125 V -3.1747656 h 0.597656 z m 1.212891,0 h -0.574219 v 3.65625003 h 0.574219 z m 0,-1.4296875 H 25.99532 v 0.7382813 h 0.585938 z m 2.402344,1.3242188 c -1.03125,0 -1.652344,0.7382812 -1.652344,1.9570312 0,1.23046878 0.621094,1.96875003 1.652344,1.96875003 1.03125,0 1.652343,-0.73828125 1.652343,-1.93359373 0,-1.265625 -0.597656,-1.9921875 -1.652343,-1.9921875 z m 0,0.5390625 c 0.65625,0 1.054687,0.5390625 1.054687,1.4414062 0,0.85546878 -0.410156,1.40625003 -1.054687,1.40625003 -0.644532,0 -1.042969,-0.5390625 -1.042969,-1.42968753 0,-0.8671875 0.398437,-1.4179687 1.042969,-1.4179687 z m 2.472656,-0.4335938 v 3.65625003 h 0.585937 V -2.0146094 c 0,-0.75 0.386719,-1.2304687 0.984375,-1.2304687 0.457032,0 0.75,0.28125 0.75,0.7148437 v 2.53125003 h 0.585938 V -2.7646094 c 0,-0.5976562 -0.457031,-0.9960937 -1.160156,-0.9960937 -0.539063,0 -0.890625,0.2109375 -1.21875,0.7265625 v -0.6210938 z m 6.442383,1.0195313 c -0.01172,-0.7148438 -0.480469,-1.125 -1.324219,-1.125 -0.855469,0 -1.40625,0.4453125 -1.40625,1.1132812 0,0.5742188 0.292969,0.84375 1.160156,1.0546875 l 0.539063,0.140625 c 0.410156,0.09375 0.5625,0.234375 0.5625,0.50390628 0,0.33984375 -0.339844,0.57421875 -0.84375,0.57421875 -0.316407,0 -0.585938,-0.09375 -0.726563,-0.24609375 -0.09375,-0.10546875 -0.128906,-0.2109375 -0.164062,-0.46874998 h -0.621094 c 0.03516,0.84374998 0.503906,1.25390623 1.464844,1.25390623 0.914062,0 1.5,-0.45703125 1.5,-1.16015625 0,-0.53906248 -0.304688,-0.84374998 -1.03125,-1.01953128 l -0.5625,-0.1289062 c -0.46875,-0.1171875 -0.667969,-0.2695313 -0.667969,-0.5273438 0,-0.328125 0.292969,-0.5507812 0.773437,-0.5507812 0.46875,0 0.714844,0.1992187 0.726563,0.5859375 z m 2.853515,-1.0195313 v 3.65625003 h 0.585938 V -2.2958594 c 0,-0.5273437 0.375,-0.9492187 0.855468,-0.9492187 0.433594,0 0.679688,0.2578125 0.679688,0.7265625 v 2.51953123 h 0.585937 V -2.2958594 c 0,-0.5273437 0.375,-0.9492187 0.855469,-0.9492187 0.421875,0 0.667969,0.2695312 0.667969,0.7265625 v 2.51953123 h 0.585937 V -2.7411719 c 0,-0.65625 -0.375,-1.0195312 -1.054687,-1.0195312 -0.492188,0 -0.785156,0.1523437 -1.125,0.5625 -0.210938,-0.3867188 -0.503906,-0.5625 -0.984375,-0.5625 -0.480469,0 -0.808594,0.1875 -1.125,0.6210937 v -0.515625 z m 8.616211,3.65625003 V -3.6552344 H 48.78243 v 2.0742188 c 0,0.74999998 -0.386719,1.23046873 -0.996094,1.23046873 -0.457031,0 -0.75,-0.28125 -0.75,-0.71484373 v -2.5898438 h -0.574219 v 2.82421878 c 0,0.59765625 0.445313,0.99609375 1.160156,0.99609375 0.539063,0 0.878907,-0.1875 1.21875,-0.66796875 v 0.50390625 z m 3.574219,-2.63671873 c -0.01172,-0.7148438 -0.480469,-1.125 -1.324219,-1.125 -0.855469,0 -1.40625,0.4453125 -1.40625,1.1132812 0,0.5742188 0.292969,0.84375 1.160156,1.0546875 l 0.539063,0.140625 c 0.410156,0.09375 0.5625,0.234375 0.5625,0.50390628 0,0.33984375 -0.339844,0.57421875 -0.84375,0.57421875 -0.316406,0 -0.585938,-0.09375 -0.726563,-0.24609375 -0.09375,-0.10546875 -0.128906,-0.2109375 -0.164062,-0.46874998 h -0.621094 c 0.03516,0.84374998 0.503906,1.25390623 1.464844,1.25390623 0.914062,0 1.5,-0.45703125 1.5,-1.16015625 0,-0.53906248 -0.304688,-0.84374998 -1.03125,-1.01953128 l -0.5625,-0.1289062 c -0.46875,-0.1171875 -0.667969,-0.2695313 -0.667969,-0.5273438 0,-0.328125 0.292969,-0.5507812 0.773438,-0.5507812 0.46875,0 0.714843,0.1992187 0.726562,0.5859375 z m 2.197266,-1.0195313 h -0.597657 v -0.9960937 h -0.574218 v 0.9960937 H 53.46407 v 0.4804688 h 0.503907 v 2.75390623 c 0,0.375 0.246093,0.5859375 0.703125,0.5859375 0.140625,0 0.269531,-0.0234375 0.46875,-0.046875 v -0.4921875 c -0.07031,0.0234375 -0.164063,0.0234375 -0.28125,0.0234375 -0.246094,0 -0.316407,-0.0703125 -0.316407,-0.328125 V -3.1747656 h 0.597657 z m 2.475585,-1.4296875 v 5.08593753 h 0.527344 v -0.46875 c 0.28125,0.421875 0.644531,0.6328125 1.160156,0.6328125 0.960938,0 1.582032,-0.796875 1.582032,-2.00390623 0,-1.1835938 -0.597657,-1.921875 -1.558594,-1.921875 -0.503906,0 -0.855469,0.1875 -1.125,0.5976562 v -1.921875 z m 1.59375,1.875 c 0.65625,0 1.066407,0.5625 1.066407,1.4296875 0,0.83203128 -0.421875,1.39453128 -1.066407,1.39453128 -0.609375,0 -1.007812,-0.55078125 -1.007812,-1.41796878 0,-0.8554687 0.398437,-1.40625 1.007812,-1.40625 z m 5.484375,1.5820313 c 0,-0.5625 -0.03516,-0.890625 -0.140625,-1.171875 -0.234375,-0.5976563 -0.796875,-0.9609375 -1.476562,-0.9609375 -1.019531,0 -1.675781,0.7851562 -1.675781,1.9804687 0,1.20703128 0.632812,1.94531253 1.652343,1.94531253 0.84375,0 1.417969,-0.48046875 1.570313,-1.27734373 h -0.585938 c -0.164062,0.48046873 -0.492187,0.73828123 -0.960937,0.73828123 -0.363281,0 -0.679688,-0.1640625 -0.878906,-0.48046875 -0.140625,-0.19921878 -0.1875,-0.41015628 -0.1875,-0.77343748 z m -2.671875,-0.4804688 c 0.04687,-0.6679687 0.457032,-1.1132812 1.042969,-1.1132812 0.574219,0 1.007813,0.4804687 1.007813,1.078125 0,0.011719 0,0.023437 0,0.035156 z m 8.780274,2.10937503 1.066406,-3.65625003 h -0.65625 l -0.726562,2.84765628 -0.714844,-2.84765628 h -0.714844 l -0.691406,2.84765628 -0.75,-2.84765628 h -0.632813 l 1.054688,3.65625003 h 0.65625 l 0.703125,-2.87109373 0.738281,2.87109373 z m 2.211914,-3.65625003 h -0.574219 v 3.65625003 h 0.574219 z m 0,-1.4296875 h -0.585938 v 0.7382813 h 0.585938 z m 2.273437,1.4296875 h -0.597656 v -0.9960937 h -0.574219 v 0.9960937 h -0.503906 v 0.4804688 h 0.503906 v 2.75390623 c 0,0.375 0.246094,0.5859375 0.703125,0.5859375 0.140625,0 0.269532,-0.0234375 0.46875,-0.046875 v -0.4921875 c -0.07031,0.0234375 -0.164062,0.0234375 -0.28125,0.0234375 -0.246093,0 -0.316406,-0.0703125 -0.316406,-0.328125 V -3.1747656 h 0.597656 z m 0.66211,-1.4296875 v 5.08593753 h 0.574219 V -2.0146094 c 0,-0.75 0.386718,-1.2304687 0.996093,-1.2304687 0.1875,0 0.375,0.058594 0.515625,0.1640625 0.164063,0.1171875 0.234375,0.2929687 0.234375,0.5507812 v 2.53125003 h 0.574219 V -2.7646094 c 0,-0.609375 -0.433594,-0.9960937 -1.148437,-0.9960937 -0.515625,0 -0.832032,0.1640625 -1.171875,0.609375 v -1.9335938 z m 4.426758,1.4296875 h -0.574219 v 3.65625003 h 0.574219 z m 0,-1.4296875 h -0.585938 v 0.7382813 h 0.585938 z m 0.999023,1.4296875 v 3.65625003 h 0.585938 V -2.0146094 c 0,-0.75 0.386718,-1.2304687 0.984375,-1.2304687 0.457031,0 0.75,0.28125 0.75,0.7148437 v 2.53125003 h 0.585937 V -2.7646094 c 0,-0.5976562 -0.457031,-0.9960937 -1.160156,-0.9960937 -0.539063,0 -0.890625,0.2109375 -1.21875,0.7265625 v -0.6210938 z m 0,0"
       style="fill:#808080;fill-opacity:1;fill-rule:nonzero;stroke:none"
       aria-label="Distributionsmustbewithin"
       transform="matrix(1.3333333,0,0,1.3333333,19.710667,118.05333)" />
    <path
       id="path23"
       d="m 1.5588984,-1.5927344 c 0.1992188,0 0.75,-0.011719 1.125,-0.140625 0.515625,-0.1875 0.609375,-0.515625 0.609375,-0.7265625 0,-0.3867187 -0.375,-0.609375 -0.8554687,-0.609375 -0.84375,0 -1.96875001,0.6328125 -1.96875001,1.828125 0,0.70312503 0.43359375,1.31250003 1.25390621,1.31250003 1.1835938,0 1.734375,-0.69140625 1.734375,-0.78515625 0,-0.046875 -0.070312,-0.1171875 -0.1289062,-0.1171875 -0.035156,0 -0.046875,0.0117188 -0.1054688,0.0703125 -0.5507812,0.6328125 -1.359375,0.6328125 -1.4882812,0.6328125 -0.421875,0 -0.6914063,-0.28125 -0.6914063,-0.84375 0,-0.09375 0,-0.23437498 0.082031,-0.62109378 z m -0.375,-0.1875 c 0.28125,-1.0195312 1.0546875,-1.1015625 1.2539063,-1.1015625 0.3046875,0 0.5625,0.1523438 0.5625,0.421875 0,0.6796875 -1.1835938,0.6796875 -1.4765625,0.6796875 z m 0,0"
       style="fill:#808080;fill-opacity:1;fill-rule:nonzero;stroke:none"
       aria-label="e"
       transform="matrix(1.3333333,0,0,1.3333333,135.316,118.05333)" />
    <path
       id="path24"
       d="m 1.8044531,-3.6552344 h -0.609375 v -0.5742187 c 0,-0.234375 0.140625,-0.3632813 0.3984375,-0.3632813 0.046875,0 0.070312,0 0.2109375,0 v -0.4804687 c -0.140625,-0.023437 -0.2109375,-0.035156 -0.328125,-0.035156 -0.53906248,0 -0.86718748,0.3164063 -0.86718748,0.8320313 v 0.6210937 H 0.12867187 v 0.4804688 H 0.60914062 V 0.00101563 H 1.1950781 V -3.1747656 h 0.609375 z m 3.6503906,3.31640628 c -0.058594,0.0117188 -0.082031,0.0117188 -0.1171875,0.0117188 -0.2109375,0 -0.3164062,-0.10546875 -0.3164062,-0.28125 V -2.7646094 c 0,-0.6445312 -0.4804688,-0.9960937 -1.3710938,-0.9960937 -0.5390625,0 -0.9726562,0.1523437 -1.21875,0.4335937 -0.1640625,0.1875 -0.234375,0.3984375 -0.2460937,0.75 H 2.77125 c 0.046875,-0.4453125 0.3046875,-0.6445312 0.8554687,-0.6445312 0.515625,0 0.8085938,0.1992187 0.8085938,0.5507812 v 0.1523438 c 0,0.234375 -0.140625,0.3398437 -0.5976563,0.3984375 -0.8320312,0.1054687 -0.9492187,0.1289062 -1.171875,0.2226562 -0.4335937,0.1757813 -0.6445312,0.5039063 -0.6445312,0.97265628 0,0.66796875 0.4570312,1.08984375 1.1953125,1.08984375 0.46875,0 0.8320312,-0.1640625 1.2421875,-0.5390625 0.046875,0.36328125 0.2226562,0.5390625 0.5976562,0.5390625 0.1289063,0 0.2109375,-0.0234375 0.3984375,-0.0703125 z M 4.4353125,-1.1474219 c 0,0.18750003 -0.046875,0.31640628 -0.2226563,0.46875003 -0.234375,0.22265625 -0.5273437,0.328125 -0.8671875,0.328125 -0.4570312,0 -0.7148437,-0.2109375 -0.7148437,-0.5859375 0,-0.37500003 0.2578125,-0.57421873 0.8789062,-0.66796873 0.609375,-0.082031 0.7382813,-0.1054688 0.9257813,-0.1992188 z m 4.453125,-1.2773437 C 8.865,-2.7763281 8.7829687,-3.0107031 8.6423437,-3.2099219 8.39625,-3.5497656 7.9626562,-3.7607031 7.4470312,-3.7607031 c -0.984375,0 -1.6289062,0.7851562 -1.6289062,1.9921875 0,1.18359373 0.6328125,1.93359373 1.6171875,1.93359373 0.8789062,0 1.4296875,-0.52734375 1.5,-1.41796873 H 8.349375 c -0.09375,0.58593748 -0.3984375,0.87890623 -0.890625,0.87890623 -0.6445313,0 -1.03125,-0.52734375 -1.03125,-1.39453123 0,-0.9023438 0.375,-1.453125 1.0078125,-1.453125 0.4921875,0 0.796875,0.2929687 0.8671875,0.796875 z M 10.863047,-3.6552344 H 10.265391 V -4.6513281 H 9.6911719 v 0.9960937 H 9.1872656 v 0.4804688 h 0.5039063 v 2.75390623 c 0,0.375 0.2460937,0.5859375 0.7031251,0.5859375 0.140625,0 0.269531,-0.0234375 0.46875,-0.046875 v -0.4921875 c -0.07031,0.0234375 -0.164063,0.0234375 -0.28125,0.0234375 -0.246094,0 -0.316406,-0.0703125 -0.316406,-0.328125 V -3.1747656 h 0.597656 z m 2.068359,-0.1054687 c -1.03125,0 -1.652344,0.7382812 -1.652344,1.9570312 0,1.23046878 0.621094,1.96875003 1.652344,1.96875003 1.03125,0 1.652344,-0.73828125 1.652344,-1.93359373 0,-1.265625 -0.597656,-1.9921875 -1.652344,-1.9921875 z m 0,0.5390625 c 0.65625,0 1.054688,0.5390625 1.054688,1.4414062 0,0.85546878 -0.410157,1.40625003 -1.054688,1.40625003 -0.644531,0 -1.042969,-0.5390625 -1.042969,-1.42968753 0,-0.8671875 0.398438,-1.4179687 1.042969,-1.4179687 z m 2.458008,-0.4335938 v 3.65625003 h 0.585938 V -1.8974219 c 0,-0.515625 0.128906,-0.8671875 0.410156,-1.0664062 0.1875,-0.1289063 0.351562,-0.1757813 0.761719,-0.1757813 v -0.5976562 c -0.09375,-0.011719 -0.140625,-0.023437 -0.222657,-0.023437 -0.375,0 -0.667968,0.2226562 -0.996093,0.7734375 v -0.6679688 z m 7.356445,2.0273438 c 0,-0.5625 -0.03516,-0.890625 -0.140625,-1.171875 -0.234375,-0.5976563 -0.796875,-0.9609375 -1.476562,-0.9609375 -1.019531,0 -1.675781,0.7851562 -1.675781,1.9804687 0,1.20703128 0.632812,1.94531253 1.652343,1.94531253 0.84375,0 1.417969,-0.48046875 1.570313,-1.27734373 h -0.585938 c -0.164062,0.48046873 -0.492187,0.73828123 -0.960937,0.73828123 -0.363281,0 -0.679688,-0.1640625 -0.878906,-0.48046875 -0.140625,-0.19921878 -0.1875,-0.41015628 -0.1875,-0.77343748 z m -2.671875,-0.4804688 c 0.04687,-0.6679687 0.457032,-1.1132812 1.042969,-1.1132812 0.574219,0 1.007813,0.4804687 1.007813,1.078125 0,0.011719 0,0.023437 0,0.035156 z m 4.757813,2.10937503 1.394531,-3.65625003 h -0.65625 l -1.03125,2.96484378 -0.972656,-2.96484378 h -0.65625 l 1.277344,3.65625003 z m 4.895508,-1.62890623 c 0,-0.5625 -0.03516,-0.890625 -0.140625,-1.171875 -0.234375,-0.5976563 -0.796875,-0.9609375 -1.476563,-0.9609375 -1.019531,0 -1.675781,0.7851562 -1.675781,1.9804687 0,1.20703128 0.632812,1.94531253 1.652344,1.94531253 0.84375,0 1.417968,-0.48046875 1.570312,-1.27734373 h -0.585937 c -0.164063,0.48046873 -0.492188,0.73828123 -0.960938,0.73828123 -0.363281,0 -0.679687,-0.1640625 -0.878906,-0.48046875 -0.140625,-0.19921878 -0.1875,-0.41015628 -0.1875,-0.77343748 z M 27.05543,-2.1083594 c 0.04687,-0.6679687 0.457031,-1.1132812 1.042968,-1.1132812 0.574219,0 1.007813,0.4804687 1.007813,1.078125 0,0.011719 0,0.023437 0,0.035156 z m 3.454101,-1.546875 v 3.65625003 h 0.585938 V -1.8974219 c 0,-0.515625 0.128906,-0.8671875 0.410156,-1.0664062 0.1875,-0.1289063 0.351562,-0.1757813 0.761719,-0.1757813 v -0.5976562 c -0.09375,-0.011719 -0.140625,-0.023437 -0.222657,-0.023437 -0.375,0 -0.667968,0.2226562 -0.996093,0.7734375 v -0.6679688 z m 4.757813,0 -1.007813,2.84765628 -0.9375,-2.84765628 h -0.621094 l 1.230469,3.66796878 -0.222656,0.5859375 c -0.09375,0.2578125 -0.222656,0.3515625 -0.46875,0.3515625 -0.08203,0 -0.175781,-0.0117188 -0.304688,-0.046875 V 1.4307031 c 0.117188,0.058594 0.234375,0.09375 0.386719,0.09375 0.199219,0 0.398438,-0.070312 0.550781,-0.1757812 0.175782,-0.1289063 0.28125,-0.2929688 0.398438,-0.58593752 l 1.617187,-4.41796878 z m 4.646484,3.65625003 1.066406,-3.65625003 h -0.65625 l -0.726562,2.84765628 -0.714844,-2.84765628 h -0.714844 l -0.691406,2.84765628 -0.75,-2.84765628 h -0.632812 l 1.054687,3.65625003 h 0.65625 l 0.703125,-2.87109373 0.738281,2.87109373 z M 41.574961,-5.0849219 V 0.00101563 H 42.14918 V -2.0146094 c 0,-0.75 0.386718,-1.2304687 0.996093,-1.2304687 0.1875,0 0.375,0.058594 0.515625,0.1640625 0.164063,0.1171875 0.234375,0.2929687 0.234375,0.5507812 v 2.53125003 h 0.574219 V -2.7646094 c 0,-0.609375 -0.433594,-0.9960937 -1.148437,-0.9960937 -0.515625,0 -0.832032,0.1640625 -1.171875,0.609375 v -1.9335938 z m 6.960937,3.4570313 c 0,-0.5625 -0.03516,-0.890625 -0.140625,-1.171875 -0.234375,-0.5976563 -0.796875,-0.9609375 -1.476562,-0.9609375 -1.019531,0 -1.675781,0.7851562 -1.675781,1.9804687 0,1.20703128 0.632812,1.94531253 1.652343,1.94531253 0.84375,0 1.417969,-0.48046875 1.570313,-1.27734373 h -0.585938 c -0.164062,0.48046873 -0.492187,0.73828123 -0.960937,0.73828123 -0.363281,0 -0.679688,-0.1640625 -0.878906,-0.48046875 -0.140625,-0.19921878 -0.1875,-0.41015628 -0.1875,-0.77343748 z m -2.671875,-0.4804688 c 0.04687,-0.6679687 0.457032,-1.1132812 1.042969,-1.1132812 0.574219,0 1.007813,0.4804687 1.007813,1.078125 0,0.011719 0,0.023437 0,0.035156 z m 3.454102,-1.546875 v 3.65625003 h 0.585937 V -1.8974219 c 0,-0.515625 0.128907,-0.8671875 0.410157,-1.0664062 0.1875,-0.1289063 0.351562,-0.1757813 0.761718,-0.1757813 v -0.5976562 c -0.09375,-0.011719 -0.140625,-0.023437 -0.222656,-0.023437 -0.375,0 -0.667969,0.2226562 -0.996094,0.7734375 v -0.6679688 z m 5.416992,2.0273438 c 0,-0.5625 -0.03516,-0.890625 -0.140625,-1.171875 -0.234375,-0.5976563 -0.796875,-0.9609375 -1.476562,-0.9609375 -1.019532,0 -1.675782,0.7851562 -1.675782,1.9804687 0,1.20703128 0.632813,1.94531253 1.652344,1.94531253 0.84375,0 1.417969,-0.48046875 1.570313,-1.27734373 h -0.585938 c -0.164062,0.48046873 -0.492187,0.73828123 -0.960937,0.73828123 -0.363282,0 -0.679688,-0.1640625 -0.878907,-0.48046875 -0.140625,-0.19921878 -0.1875,-0.41015628 -0.1875,-0.77343748 z m -2.671875,-0.4804688 c 0.04687,-0.6679687 0.457031,-1.1132812 1.042969,-1.1132812 0.574219,0 1.007812,0.4804687 1.007812,1.078125 0,0.011719 0,0.023437 0,0.035156 z m 4.207031,1.38281253 h -0.726562 v 0.7265625 h 0.726562 z m 0,0"
       style="fill:#808080;fill-opacity:1;fill-rule:nonzero;stroke:none"
       aria-label="factoreverywhere."
       transform="matrix(1.3333333,0,0,1.3333333,147.68,118.05333)" />
  </g>
</svg>
