<?xml version="1.0" encoding="UTF-8" standalone="no"?>
<!-- Created with Inkscape (http://www.inkscape.org/) -->

<svg
   version="1.1"
   id="svg1"
   width="300.95334"
   height="189.82933"
   viewBox="0 0 300.95334 189.82933"
   xmlns="http://www.w3.org/2000/svg"
   xmlns:svg="http://www.w3.org/2000/svg">
  <defs
     id="defs1" />
  <g
     id="g1">
    <path
       id="path1"
       d="m -28.3468,113.38724 c 0,0 37.84361,-25.22908 85.04042,-56.69362 C 103.89043,25.22908 141.73404,0 141.73404,0"
       style="fill:none;stroke:#66a1bf;stroke-width:0.99628;stroke-linecap:butt;stroke-linejoin:miter;stroke-miterlimit:10;stroke-dasharray:none;stroke-opacity:1"
       transform="matrix(1.3333333,0,0,-1.3333333,70.852,151.84533)" />
    <path
       id="path2"
       d="m 5.4971406,-2.3444844 c 0,-1.3242187 -1.0429687,-2.4140625 -2.34375,-2.4140625 H 0.41120312 v 0.2460938 h 0.1640625 c 0.53906248,0 0.55078128,0.070312 0.55078128,0.3164062 v 3.63281252 c 0,0.234375 -0.011719,0.31640625 -0.55078128,0.31640625 H 0.41120312 V -7.34375e-4 H 3.1533906 c 1.2773438,0 2.34375,-1.031250025 2.34375,-2.343750025 z m -0.7148437,0 c 0,0.8085938 -0.1992188,1.2304688 -0.4453125,1.52343752 -0.3164063,0.3515625 -0.8203125,0.57421875 -1.3710938,0.57421875 H 2.0987031 c -0.328125,0 -0.3398437,-0.0585937 -0.3398437,-0.28125 V -4.2429219 c 0,-0.2109375 0.011719,-0.2695312 0.3398437,-0.2695312 h 0.8554688 c 0.5976562,0 1.1132812,0.2460937 1.4296875,0.65625 0.2929687,0.375 0.3984375,0.9023437 0.3984375,1.5117187 z m 4.4736328,1.51171877 c 0,-0.0351563 -0.011719,-0.10546875 -0.1171875,-0.10546875 -0.082031,0 -0.1054688,0.046875 -0.1171875,0.1171875 -0.2226563,0.5625 -0.75,0.66796875 -0.9960938,0.66796875 -0.328125,0 -0.6445312,-0.15234375 -0.8554687,-0.41015625 C 6.9121797,-0.89135938 6.9004609,-1.3132344 6.9004609,-1.5944844 h 2.1679688 c 0.140625,0 0.1875,0 0.1875,-0.1523437 0,-0.609375 -0.3398438,-1.359375 -1.3710938,-1.359375 -0.9140625,0 -1.6171875,0.7265625 -1.6171875,1.5820312 0,0.87890627 0.7734375,1.59375002 1.6992188,1.59375002 0.9492187,0 1.2890625,-0.75 1.2890625,-0.90234375 z M 8.7754609,-1.7702656 H 6.9121797 c 0.070312,-0.984375 0.703125,-1.1484375 0.9726562,-1.1484375 0.8554688,0 0.8789063,0.9726562 0.890625,1.1484375 z m 4.0224611,0.93749997 c 0,-0.09375 -0.08203,-0.09375 -0.117188,-0.09375 -0.08203,0 -0.09375,0.0234375 -0.128906,0.12890625 -0.152344,0.421875 -0.527344,0.64453125 -0.949219,0.64453125 -0.480468,0 -1.101562,-0.3515625 -1.101562,-1.35937497 0,-0.890625 0.421875,-1.3710938 1.078125,-1.3710938 0.08203,0 0.421875,0 0.667969,0.1054688 -0.117188,0.046875 -0.1875,0.1640625 -0.1875,0.3046875 0,0.1875 0.128906,0.328125 0.328125,0.328125 0.1875,0 0.328125,-0.1171875 0.328125,-0.3398438 0,-0.6210937 -0.960938,-0.6210937 -1.160157,-0.6210937 -1.042968,0 -1.6992184,0.796875 -1.6992184,1.59375 0,0.87890622 0.7500004,1.58203122 1.6640624,1.58203122 1.042969,0 1.277344,-0.8203125 1.277344,-0.90234375 z m 2.194336,0.832031255 V -0.24682813 c -0.398438,0 -0.46875,0 -0.46875,-0.29296875 V -3.0710469 l -1.03125,0.070312 v 0.2578125 c 0.445312,0 0.503906,0.035156 0.503906,0.375 v 1.81640627 c 0,0.3046875 -0.07031,0.3046875 -0.527344,0.3046875 v 0.246093755 c 0,0 0.503907,-0.023437505 0.785157,-0.023437505 0.246093,0 0.492187,0 0.738281,0.023438005 z M 14.605539,-4.1960469 c 0,-0.2226562 -0.175781,-0.4101562 -0.398437,-0.4101562 -0.234375,0 -0.398438,0.1992187 -0.398438,0.3984375 0,0.2226562 0.175781,0.4101562 0.398438,0.4101562 0.246093,0 0.398437,-0.1992187 0.398437,-0.3984375 z m 3.56543,3.28125002 c 0,-0.26953122 -0.117188,-0.46875002 -0.292969,-0.64453122 -0.269531,-0.2460938 -0.585938,-0.2929688 -0.832031,-0.3398438 -0.5625,-0.09375 -1.007813,-0.1757812 -1.007813,-0.5507812 0,-0.2226563 0.1875,-0.4921875 0.84375,-0.4921875 0.808594,0 0.84375,0.5625 0.855469,0.7617187 0.01172,0.082031 0.09375,0.082031 0.117187,0.082031 0.128907,0 0.128907,-0.046875 0.128907,-0.1875 v -0.6445313 c 0,-0.1171875 0,-0.1757812 -0.105469,-0.1757812 -0.03516,0 -0.04687,0 -0.140625,0.082031 -0.01172,0 -0.08203,0.070312 -0.117188,0.1054688 -0.210937,-0.1523438 -0.480468,-0.1875 -0.738281,-0.1875 -0.996094,0 -1.230469,0.515625 -1.230469,0.8671875 0,0.2226562 0.09375,0.4101562 0.257813,0.5390625 0.269531,0.234375 0.539062,0.28125 0.960937,0.3515625 0.351563,0.070312 0.914063,0.1640625 0.914063,0.63281247 0,0.26953125 -0.1875,0.5859375 -0.855469,0.5859375 -0.667969,0 -0.914062,-0.43359375 -1.03125,-0.91406247 -0.02344,-0.082031 -0.03516,-0.1171875 -0.128906,-0.1171875 -0.117188,0 -0.117188,0.046875 -0.117188,0.18749997 v 0.85546875 c 0,0.12890625 0,0.1875 0.09375,0.1875 0.05859,0 0.199219,-0.15234375 0.339844,-0.3046875 0.304688,0.29296875 0.679688,0.3046875 0.84375,0.3046875 0.914063,0 1.242188,-0.4921875 1.242188,-0.9843745 z m 2.232422,0.914062505 V -0.24682813 c -0.398438,0 -0.46875,0 -0.46875,-0.29296875 V -3.0710469 l -1.03125,0.070312 v 0.2578125 c 0.445312,0 0.503906,0.035156 0.503906,0.375 v 1.81640627 c 0,0.3046875 -0.07031,0.3046875 -0.527344,0.3046875 v 0.246093755 c 0,0 0.503906,-0.023437505 0.785156,-0.023437505 0.246094,0 0.492188,0 0.738282,0.023438005 z M 20.016672,-4.1960469 c 0,-0.2226562 -0.175781,-0.4101562 -0.398438,-0.4101562 -0.234375,0 -0.398437,0.1992187 -0.398437,0.3984375 0,0.2226562 0.175781,0.4101562 0.398437,0.4101562 0.246094,0 0.398438,-0.1992187 0.398438,-0.3984375 z m 4.420898,2.7070313 c 0,-0.8671875 -0.75,-1.6171875 -1.710937,-1.6171875 -0.960938,0 -1.710938,0.75 -1.710938,1.6171875 0,0.86718747 0.773438,1.55859372 1.710938,1.55859372 0.9375,0 1.710937,-0.69140625 1.710937,-1.55859372 z m -0.632812,-0.058594 c 0,0.328125 -0.02344,0.70312502 -0.222656,0.98437502 -0.1875,0.26953125 -0.515625,0.41015625 -0.855469,0.41015625 -0.257813,0 -0.632813,-0.0820313 -0.867188,-0.421875 -0.1875,-0.29296875 -0.210937,-0.65624997 -0.210937,-0.97265627 0,-0.3046875 0.01172,-0.7148437 0.257812,-1.0078125 0.175782,-0.2109375 0.46875,-0.3632812 0.820313,-0.3632812 0.410156,0 0.703125,0.1992187 0.855469,0.4101562 0.199218,0.28125 0.222656,0.6210938 0.222656,0.9609375 z m 5.024414,1.546875025 V -0.24682813 c -0.457031,0 -0.527344,0 -0.527344,-0.3046875 V -2.1101094 c 0,-0.609375 -0.292969,-0.9609375 -1.042969,-0.9609375 -0.574218,0 -0.9375,0.3046875 -1.136718,0.6679688 v -0.6679688 l -1.03125,0.070312 v 0.2578125 c 0.46875,0 0.527343,0.046875 0.527343,0.3867188 v 1.80468747 c 0,0.3046875 -0.07031,0.3046875 -0.527343,0.3046875 v 0.246093755 c 0,0 0.503906,-0.023437505 0.796875,-0.023437505 0.257812,0 0.738281,0.01171875 0.796875,0.023437505 V -0.24682813 c -0.445313,0 -0.515625,0 -0.515625,-0.3046875 V -1.8054219 c 0,-0.7382812 0.574218,-1.078125 1.03125,-1.078125 0.492187,0 0.550781,0.3867188 0.550781,0.7382813 v 1.59374997 c 0,0.3046875 -0.07031,0.3046875 -0.515625,0.3046875 v 0.246093755 c 0,0 0.503906,-0.023437505 0.796875,-0.023437505 0.257812,0 0.738281,0.01171875 0.796875,0.023437305 z M 36.874094,-1.2780781 c 0,-0.609375 -0.609375,-1.125 -1.464844,-1.2070313 0.691406,-0.1289062 1.253906,-0.5507812 1.253906,-1.0898437 0,-0.6328125 -0.726562,-1.1835938 -1.699219,-1.1835938 H 32.22175 v 0.2460938 h 0.164062 c 0.539063,0 0.550782,0.070312 0.550782,0.3164062 v 3.63281252 c 0,0.234375 -0.01172,0.31640625 -0.550782,0.31640625 H 32.22175 v 0.246093755 h 2.953125 c 0.984375,0 1.699219,-0.609375005 1.699219,-1.277343725 z m -0.902344,-2.296875 c 0,0.4921875 -0.46875,0.9960937 -1.265625,0.9960937 h -1.160156 v -1.6640625 c 0,-0.2109375 0.01172,-0.2695312 0.339843,-0.2695312 h 1.03125 c 0.691407,0 1.054688,0.4921875 1.054688,0.9375 z m 0.1875,2.2851562 c 0,0.51562502 -0.457031,1.04296877 -1.230469,1.04296877 h -1.042969 c -0.328125,0 -0.339843,-0.0585937 -0.339843,-0.28125 V -2.3796406 h 1.488281 c 0.738281,0 1.125,0.5976562 1.125,1.0898437 z m 4.904297,-0.1992187 c 0,-0.8671875 -0.75,-1.6171875 -1.710938,-1.6171875 -0.960937,0 -1.710937,0.75 -1.710937,1.6171875 0,0.86718747 0.773437,1.55859372 1.710937,1.55859372 0.9375,0 1.710938,-0.69140625 1.710938,-1.55859372 z m -0.632813,-0.058594 c 0,0.328125 -0.02344,0.70312502 -0.222656,0.98437502 -0.1875,0.26953125 -0.515625,0.41015625 -0.855469,0.41015625 -0.257812,0 -0.632812,-0.0820313 -0.867187,-0.421875 -0.1875,-0.29296875 -0.210938,-0.65624997 -0.210938,-0.97265627 0,-0.3046875 0.01172,-0.7148437 0.257813,-1.0078125 0.175781,-0.2109375 0.46875,-0.3632812 0.820312,-0.3632812 0.410157,0 0.703125,0.1992187 0.855469,0.4101562 0.199219,0.28125 0.222656,0.6210938 0.222656,0.9609375 z m 5.024414,1.546875025 V -0.24682813 c -0.46875,0 -0.527343,-0.0585937 -0.527343,-0.3984375 V -3.0710469 l -1.066407,0.070312 v 0.2578125 c 0.46875,0 0.515625,0.046875 0.515625,0.3867188 v 1.1953125 c 0,0.60937497 -0.386718,1.03124997 -0.925781,1.03124997 -0.632812,0 -0.65625,-0.29296875 -0.65625,-0.65625 V -3.0710469 l -1.078125,0.070312 v 0.2578125 c 0.527344,0 0.527344,0.011719 0.527344,0.6328125 v 1.0546875 c 0,0.48046877 0,1.12500002 1.160156,1.12500002 0.152344,0 0.667969,0 0.996094,-0.5859375 h 0.01172 v 0.5859375 z m 4.400391,0 V -0.24682813 c -0.457031,0 -0.527344,0 -0.527344,-0.3046875 V -2.1101094 c 0,-0.609375 -0.292968,-0.9609375 -1.042968,-0.9609375 -0.574219,0 -0.9375,0.3046875 -1.136719,0.6679688 v -0.6679688 l -1.03125,0.070312 v 0.2578125 c 0.46875,0 0.527344,0.046875 0.527344,0.3867188 v 1.80468747 c 0,0.3046875 -0.07031,0.3046875 -0.527344,0.3046875 v 0.246093755 c 0,0 0.503906,-0.023437505 0.796875,-0.023437505 0.257812,0 0.738281,0.01171875 0.796875,0.023437505 V -0.24682813 c -0.445313,0 -0.515625,0 -0.515625,-0.3046875 V -1.8054219 c 0,-0.7382812 0.574219,-1.078125 1.03125,-1.078125 0.492187,0 0.550781,0.3867188 0.550781,0.7382813 v 1.59374997 c 0,0.3046875 -0.07031,0.3046875 -0.515625,0.3046875 v 0.246093755 c 0,0 0.503906,-0.023437505 0.796875,-0.023437505 0.257813,0 0.738281,0.01171875 0.796875,0.023437305 z m 4.341797,0 V -0.24682813 c -0.46875,0 -0.527344,-0.0585937 -0.527344,-0.3984375 V -4.8405781 l -1.042969,0.082031 v 0.2460938 c 0.46875,0 0.515625,0.046875 0.515625,0.3867187 v 1.453125 c -0.257812,-0.2578125 -0.585937,-0.3984375 -0.972656,-0.3984375 -0.925781,0 -1.710937,0.6914063 -1.710937,1.5703125 0,0.86718752 0.738281,1.57031252 1.628906,1.57031252 0.574219,0 0.914062,-0.3046875 1.03125,-0.43359375 V 0.06957812 Z M 53.119211,-0.72729688 c -0.175781,0.31640625 -0.539063,0.59765625 -0.984375,0.59765625 -0.398438,0 -0.679688,-0.22265625 -0.808594,-0.43359375 -0.140625,-0.19921875 -0.222656,-0.48046872 -0.222656,-0.92578122 0,-0.1640625 0,-0.6914063 0.28125,-1.0195313 0.28125,-0.3046875 0.621094,-0.375 0.820312,-0.375 0.339844,0 0.632813,0.1523438 0.832032,0.4101563 0.08203,0.1054687 0.08203,0.1171875 0.08203,0.2460937 z m 5.220703,0.09375 V -1.0085469 H 58.09382 v 0.37500002 c 0,0.0703125 0,0.3984375 -0.257812,0.3984375 -0.257813,0 -0.257813,-0.328125 -0.257813,-0.41015625 V -1.8640156 c 0,-0.375 0,-0.6445313 -0.316406,-0.9023438 -0.28125,-0.234375 -0.621094,-0.3398437 -1.03125,-0.3398437 -0.667969,0 -1.125,0.2460937 -1.125,0.6679687 0,0.2226563 0.152344,0.3398438 0.328125,0.3398438 0.1875,0 0.328125,-0.1289063 0.328125,-0.3164063 0,-0.1289062 -0.05859,-0.2695312 -0.246094,-0.328125 0.257813,-0.1757812 0.65625,-0.1757812 0.703125,-0.1757812 0.386719,0 0.808594,0.2578125 0.808594,0.84375 v 0.2226562 c -0.375,0.011719 -0.84375,0.035156 -1.347656,0.2226563 -0.632813,0.2226562 -0.820313,0.609375 -0.820313,0.92578122 0,0.59765625 0.726563,0.7734375 1.21875,0.7734375 0.5625,0 0.878907,-0.31640625 1.03125,-0.5859375 0.02344,0.28125 0.210938,0.55078125 0.539063,0.55078125 0,0 0.691406,0 0.691406,-0.66796875 z m -1.3125,-0.3515625 c 0,0.66796875 -0.585937,0.85546875 -0.890625,0.85546875 -0.363281,0 -0.691406,-0.234375 -0.691406,-0.57421875 0,-0.38671872 0.328125,-0.92578122 1.582031,-0.97265622 z m 4.318359,-1.64062502 c 0,-0.2460937 -0.222656,-0.4453125 -0.550781,-0.4453125 -0.351562,0 -0.726562,0.2109375 -0.9375,0.7382813 h -0.01172 v -0.7382813 l -0.996093,0.070312 v 0.2578125 c 0.46875,0 0.527343,0.046875 0.527343,0.3867188 v 1.80468747 c 0,0.3046875 -0.07031,0.3046875 -0.527343,0.3046875 v 0.246093755 c 0.03516,0 0.515625,-0.023437505 0.796875,-0.023437505 l 0.902343,0.023437505 V -0.24682813 h -0.140625 c -0.515625,0 -0.515625,-0.0820312 -0.515625,-0.31640625 V -1.5944844 c 0,-0.5859375 0.28125,-1.2890625 0.9375,-1.2890625 -0.05859,0.046875 -0.117187,0.140625 -0.117187,0.2578125 0,0.2226563 0.175781,0.3164063 0.316406,0.3164063 0.164063,0 0.316406,-0.1054688 0.316407,-0.3164063 z m 4.236329,-0.1289062 v -0.2460938 c -0.199219,0.011719 -0.328125,0.023437 -0.527344,0.023437 -0.1875,0 -0.445313,-0.011719 -0.632813,-0.023437 v 0.2460938 c 0.222657,0.011719 0.28125,0.1523437 0.28125,0.2695312 0,0.082031 -0.03516,0.140625 -0.05859,0.2109375 L 63.871167,-0.62182813 63.00398,-2.4616719 c -0.01172,-0.046875 -0.03516,-0.082031 -0.03516,-0.1289062 0,-0.1640625 0.234375,-0.1640625 0.351563,-0.1640625 v -0.2460938 l -0.796875,0.023437 c -0.210938,0 -0.480469,-0.011719 -0.691406,-0.023437 v 0.2460938 c 0.398437,0 0.46875,0.023437 0.574218,0.2460937 l 1.171875,2.507812525 c -0.05859,0.140624995 -0.128906,0.269531245 -0.1875,0.410156245 -0.164062,0.33984375 -0.386718,0.82031253 -0.855468,0.82031253 -0.175782,0 -0.234375,-0.035156 -0.304688,-0.082031 0,0 0.210938,-0.070312 0.210938,-0.30468748 0,-0.17578125 -0.128907,-0.3046875 -0.304688,-0.3046875 -0.175781,0 -0.304687,0.12890625 -0.304687,0.31640625 0,0.32812503 0.328125,0.56250003 0.703125,0.56250003 0.597656,0 0.9375,-0.62109378 1.03125,-0.82031253 l 1.347656,-2.91796877 c 0.199219,-0.421875 0.550781,-0.4335937 0.667969,-0.433594 z m 0,0"
       style="fill:#006395;fill-opacity:1;fill-rule:nonzero;stroke:none"
       aria-label="DecisionBoundary"
       transform="matrix(1.3333333,0,0,1.3333333,178.16267,97.430667)" />
    <path
       id="path3"
       d="m 7.6301719,-2.2605391 c 0,-0.1992187 -0.070312,-0.2109375 -0.234375,-0.2109375 -0.1289063,0 -0.2226563,0 -0.234375,0.1757813 -0.070312,1.33593749 -1.2773438,1.93359374 -2.2734375,1.93359374 -0.7851563,0 -1.6171875,-0.234375 -2.1328125,-0.84375004 -0.46875,-0.5625 -0.5976563,-1.3125 -0.5976563,-2.2148437 0,-0.5507813 0.035156,-1.6289063 0.6679688,-2.2851563 0.6445312,-0.65625 1.5117187,-0.7734375 2.0273437,-0.7734375 1.078125,0 2.0273438,0.7617188 2.2382813,2.0273438 0.035156,0.1875 0.046875,0.2109375 0.2695312,0.2109375 0.2578125,0 0.2695313,-0.023437 0.2695313,-0.28125 v -2.1445313 c 0,-0.1875 0,-0.2695312 -0.1757813,-0.2695312 -0.09375,0 -0.1171875,0.011719 -0.1875,0.082031 l -0.65625,0.5859375 c -0.6210937,-0.4921875 -1.2890625,-0.6679687 -1.96875,-0.6679687 -2.484375,0 -4.00781248,1.4765625 -4.00781248,3.515625 0,2.0507812 1.52343748,3.52734374 4.00781248,3.52734374 1.8632813,0 2.9882813,-1.21875004 2.9882813,-2.36718734 z m 3.5654301,2.26171879 v -0.46875 H 10.504195 V -6.9128828 l -1.7578122,0.082031 v 0.46875 c 0.6210938,0 0.6914063,0 0.6914063,0.3867188 v 5.50781249 H 8.7463828 v 0.46875 l 1.2304688,-0.03515625 z m 5.768554,-0.234375 c 0,-0.234375 -0.128906,-0.234375 -0.257812,-0.234375 -0.609375,-0.0117188 -0.609375,-0.140625 -0.609375,-0.36328125 V -2.9753828 c 0,-0.890625 -0.703125,-1.5351563 -2.191407,-1.5351563 -0.5625,0 -1.78125,0.035156 -1.78125,0.9140625 0,0.4453125 0.351563,0.6328125 0.621094,0.6328125 0.304688,0 0.621094,-0.2109375 0.621094,-0.6328125 0,-0.2929687 -0.1875,-0.46875 -0.210938,-0.4921875 0.269532,-0.058594 0.597657,-0.058594 0.714844,-0.058594 0.738281,0 1.089844,0.4101562 1.089844,1.171875 v 0.3398437 c -0.703125,0.023437 -3.234375,0.1171875 -3.234375,1.5585938 0,0.96093749 1.230469,1.13671874 1.921875,1.13671874 0.796875,0 1.265625,-0.41015625 1.488281,-0.8203125 0,0.3046875 0,0.76171875 1.03125,0.76171875 h 0.480469 c 0.199219,0 0.316406,0 0.316406,-0.2343747 z M 14.96025,-1.3816328 c 0,0.94921874 -0.914063,1.07812499 -1.160156,1.07812499 -0.515625,0 -0.914063,-0.33984375 -0.914063,-0.78515629 0,-1.0664062 1.582031,-1.2070312 2.074219,-1.2421875 z m 6.202148,-0.011719 c 0,-0.4335937 -0.199218,-0.7734375 -0.550781,-1.0546875 -0.386719,-0.2929687 -0.703125,-0.3515625 -1.488281,-0.4804687 -0.363281,-0.070312 -1.007813,-0.1757813 -1.007813,-0.6445313 0,-0.6210937 0.925782,-0.6210937 1.113282,-0.6210937 0.75,0 1.125,0.2929687 1.171875,0.84375 0.01172,0.140625 0.02344,0.1992187 0.234375,0.1992187 0.234375,0 0.234375,-0.058594 0.234375,-0.28125 v -0.796875 c 0,-0.1875 0,-0.28125 -0.175782,-0.28125 -0.04687,0 -0.05859,0 -0.445312,0.1875 -0.269531,-0.1289062 -0.609375,-0.1875 -1.007813,-0.1875 -0.304687,0 -1.839843,0 -1.839843,1.3007813 0,0.3984375 0.199218,0.6679687 0.398437,0.84375 0.398438,0.3398437 0.785156,0.4101562 1.546875,0.5390625 0.363281,0.070312 1.101563,0.1992187 1.101563,0.7851562 0,0.73828129 -0.914063,0.73828129 -1.125,0.73828129 -1.066407,0 -1.324219,-0.72656249 -1.441407,-1.14843749 -0.04687,-0.140625 -0.09375,-0.140625 -0.234375,-0.140625 -0.246093,0 -0.246093,0.058594 -0.246093,0.2929687 v 1.07812504 c 0,0.1875 0,0.28125 0.1875,0.28125 0.07031,0 0.08203,0 0.292968,-0.15234375 l 0.257813,-0.1640625 c 0.457031,0.31640625 0.984375,0.31640625 1.183594,0.31640625 0.304687,0 1.839843,0 1.839843,-1.45312504 z m 4.523438,0 c 0,-0.4335937 -0.199219,-0.7734375 -0.550781,-1.0546875 -0.386719,-0.2929687 -0.703125,-0.3515625 -1.488282,-0.4804687 -0.363281,-0.070312 -1.007812,-0.1757813 -1.007812,-0.6445313 0,-0.6210937 0.925781,-0.6210937 1.113281,-0.6210937 0.75,0 1.125,0.2929687 1.171875,0.84375 0.01172,0.140625 0.02344,0.1992187 0.234375,0.1992187 0.234375,0 0.234375,-0.058594 0.234375,-0.28125 v -0.796875 c 0,-0.1875 0,-0.28125 -0.175781,-0.28125 -0.04687,0 -0.05859,0 -0.445313,0.1875 -0.269531,-0.1289062 -0.609375,-0.1875 -1.007812,-0.1875 -0.304688,0 -1.839844,0 -1.839844,1.3007813 0,0.3984375 0.199219,0.6679687 0.398438,0.84375 0.398437,0.3398437 0.785156,0.4101562 1.546875,0.5390625 0.363281,0.070312 1.101562,0.1992187 1.101562,0.7851562 0,0.73828129 -0.914062,0.73828129 -1.125,0.73828129 -1.066406,0 -1.324219,-0.72656249 -1.441406,-1.14843749 -0.04687,-0.140625 -0.09375,-0.140625 -0.234375,-0.140625 -0.246094,0 -0.246094,0.058594 -0.246094,0.2929687 v 1.07812504 c 0,0.1875 0,0.28125 0.1875,0.28125 0.07031,0 0.08203,0 0.292969,-0.15234375 l 0.257812,-0.1640625 c 0.457032,0.31640625 0.984375,0.31640625 1.183594,0.31640625 0.304688,0 1.839844,0 1.839844,-1.45312504 z M 38.1165,0.00117969 v -0.46875 H 37.155562 L 34.600875,-6.6902266 c -0.105469,-0.2578125 -0.234375,-0.2578125 -0.398438,-0.2578125 -0.28125,0 -0.316406,0.070312 -0.386718,0.2578125 l -2.472657,5.98828129 c -0.05859,0.15234375 -0.09375,0.234375 -0.84375,0.234375 h -0.210937 v 0.46875 l 1.160156,-0.03515625 c 0.386719,0 0.949219,0 1.324219,0.03515625 v -0.46875 c 0,0 -0.890625,0 -0.890625,-0.12890625 l 0.03516,-0.1171875 0.503906,-1.20703124 h 2.671875 l 0.597657,1.45312499 H 34.7415 v 0.46875 c 0.375,-0.03515625 1.324219,-0.03515625 1.746094,-0.03515625 0.398437,0 1.277343,0 1.628906,0.03515625 z M 34.893844,-2.3894453 h -2.273438 l 1.136719,-2.765625 z m 11.264648,4.734375 c 0,-0.046875 -0.03516,-0.1054688 -0.03516,-0.1054688 -0.28125,-0.2695312 -0.9375,-0.8789062 -1.347656,-2.14453121 -0.269532,-0.796875 -0.386719,-1.71093749 -0.386719,-2.58984379 0,-1.9570312 0.515625,-3.515625 1.605469,-4.6289062 0.152343,-0.1523438 0.164062,-0.1523438 0.164062,-0.2109375 0,-0.1054688 -0.105469,-0.140625 -0.1875,-0.140625 -0.164062,0 -0.585937,0.375 -0.761719,0.5390625 -1.558593,1.546875 -1.78125,3.3867187 -1.78125,4.4414062 0,1.2421875 0.328125,2.33203129 0.796875,3.16406254 0.65625,1.14843746 1.558594,1.81640626 1.746094,1.81640626 0.08203,0 0.1875,-0.035156 0.1875,-0.140625 z m 6.363281,-4.3710938 c 0,-1.1015625 -0.808593,-1.9101562 -1.710937,-2.0976562 l -1.453125,-0.3046875 c -0.398438,-0.09375 -0.949219,-0.4335938 -0.949219,-1.0429688 0,-0.421875 0.28125,-1.0429687 1.277344,-1.0429687 0.796875,0 1.804687,0.3398437 2.027344,1.6992187 0.03516,0.234375 0.03516,0.2578125 0.246093,0.2578125 0.246094,0 0.246094,-0.058594 0.246094,-0.28125 v -1.828125 c 0,-0.1875 0,-0.2695312 -0.1875,-0.2695312 -0.07031,0 -0.08203,0 -0.199219,0.1054687 l -0.445312,0.4335938 c -0.574219,-0.4570313 -1.21875,-0.5390625 -1.699219,-0.5390625 -1.511719,0 -2.238281,0.9492187 -2.238281,1.9921875 0,0.65625 0.328125,1.1132812 0.539062,1.3242187 0.492188,0.4921875 0.832032,0.5625 1.921875,0.796875 0.867188,0.1992188 1.042969,0.2226563 1.253907,0.4335938 0.152343,0.1523437 0.398437,0.4101562 0.398437,0.8671875 0,0.4804687 -0.257812,1.16015624 -1.289062,1.16015624 -0.761719,0 -2.273438,-0.19921875 -2.355469,-1.67578124 0,-0.1875 0,-0.234375 -0.222656,-0.234375 -0.246094,0 -0.246094,0.058594 -0.246094,0.2929687 v 1.81640629 c 0,0.1875 0,0.26953125 0.1875,0.26953125 0.08203,0 0.105469,-0.01171875 0.1875,-0.08203125 l 0.457031,-0.45703125 c 0.65625,0.48046875 1.582031,0.5390625 1.992188,0.5390625 1.640625,0 2.261718,-1.12500004 2.261718,-2.13281254 z m 4.456055,0.796875 v -0.5273437 h -0.46875 v 0.5039062 c 0,0.67968754 -0.316406,0.91406254 -0.597656,0.91406254 -0.585938,0 -0.585938,-0.6328125 -0.585938,-0.86718754 v -2.7421875 h 1.464844 v -0.46875 h -1.464844 v -1.9101562 h -0.457031 c -0.01172,0.9960937 -0.503906,1.9804687 -1.488281,2.015625 v 0.3632812 h 0.820312 v 2.71875 c 0,1.06640629 0.867188,1.28906254 1.570313,1.28906254 0.75,0 1.207031,-0.5625 1.207031,-1.28906254 z m 6.049805,-0.9375 c 0,-1.3359375 -0.914063,-2.34375 -2.542969,-2.34375 -1.628906,0 -2.542969,1.0195313 -2.542969,2.34375 0,1.23046879 0.878907,2.22656254 2.542969,2.22656254 1.675781,0 2.542969,-1.0078125 2.542969,-2.22656254 z m -1.277344,-0.1171875 c 0,0.8671875 0,1.94531254 -1.265625,1.94531254 -1.265625,0 -1.265625,-1.07812504 -1.265625,-1.94531254 0,-0.4453125 0,-0.9492187 0.164063,-1.2890625 0.199218,-0.375 0.609375,-0.5742187 1.101562,-0.5742187 0.421875,0 0.832031,0.1523437 1.054688,0.5039062 0.210937,0.3398438 0.210937,0.890625 0.210937,1.359375 z m 7.579102,0.058594 c 0,-1.3242188 -0.902344,-2.2617188 -2.34375,-2.2617188 -0.738282,0 -1.277344,0.3164063 -1.5,0.4921875 v -0.4921875 l -1.769532,0.082031 v 0.46875 c 0.621094,0 0.691407,0 0.691407,0.3867187 v 5.015625 h -0.691407 v 0.46875 l 1.265625,-0.035156 1.253907,0.035156 v -0.46875 h -0.691407 v -1.85156246 c 0.433594,0.3515625 0.867188,0.4453125 1.277344,0.4453125 1.488281,0 2.507813,-0.890625 2.507813,-2.28515594 z m -1.277344,0 c 0,1.40624999 -0.691406,1.92187499 -1.347656,1.92187499 -0.128907,0 -0.597657,0 -1.054688,-0.52734375 -0.105469,-0.12890625 -0.105469,-0.140625 -0.105469,-0.32812504 v -2.1210937 c 0,-0.1875 0.01172,-0.1992188 0.152344,-0.3398438 0.398438,-0.3984375 0.914063,-0.46875 1.136719,-0.46875 0.667969,0 1.21875,0.609375 1.21875,1.8632813 z m 11.211914,0.1992187 c 0,-1.1015625 -0.808594,-1.9101562 -1.710938,-2.0976562 l -1.453125,-0.3046875 c -0.398437,-0.09375 -0.949218,-0.4335938 -0.949218,-1.0429688 0,-0.421875 0.28125,-1.0429687 1.277343,-1.0429687 0.796875,0 1.804688,0.3398437 2.027344,1.6992187 0.03516,0.234375 0.03516,0.2578125 0.246094,0.2578125 0.246094,0 0.246094,-0.058594 0.246094,-0.28125 v -1.828125 c 0,-0.1875 0,-0.2695312 -0.1875,-0.2695312 -0.07031,0 -0.08203,0 -0.199219,0.1054687 l -0.445313,0.4335938 c -0.574218,-0.4570313 -1.21875,-0.5390625 -1.699218,-0.5390625 -1.511719,0 -2.238282,0.9492187 -2.238282,1.9921875 0,0.65625 0.328125,1.1132812 0.539063,1.3242187 0.492187,0.4921875 0.832031,0.5625 1.921875,0.796875 0.867187,0.1992188 1.042969,0.2226563 1.253906,0.4335938 0.152344,0.1523437 0.398438,0.4101562 0.398438,0.8671875 0,0.4804687 -0.257813,1.16015624 -1.289063,1.16015624 -0.761719,0 -2.273437,-0.19921875 -2.355469,-1.67578124 0,-0.1875 0,-0.234375 -0.222656,-0.234375 -0.246094,0 -0.246094,0.058594 -0.246094,0.2929687 v 1.81640629 c 0,0.1875 0,0.26953125 0.1875,0.26953125 0.08203,0 0.105469,-0.01171875 0.1875,-0.08203125 l 0.457032,-0.45703125 c 0.65625,0.48046875 1.582031,0.5390625 1.992187,0.5390625 1.640625,0 2.261719,-1.12500004 2.261719,-2.13281254 z m 3.495117,2.02734379 v -0.46875 H 82.137984 V -4.4871016 l -1.722656,0.082031 v 0.46875 c 0.585938,0 0.65625,0 0.65625,0.3867187 v 3.08203129 h -0.691406 v 0.46875 l 1.21875,-0.03515625 z M 82.278609,-6.0456953 c 0,-0.4335938 -0.339843,-0.7734375 -0.773437,-0.7734375 -0.433594,0 -0.773438,0.3398437 -0.773438,0.7734375 0,0.4335937 0.339844,0.7734375 0.773438,0.7734375 0.433594,0 0.773437,-0.3398438 0.773437,-0.7734375 z m 6.363282,2.0976562 c 0,-0.234375 -0.164063,-0.5859375 -0.621094,-0.5859375 -0.152344,0 -0.621094,0.035156 -1.054688,0.3867188 -0.1875,-0.1289063 -0.597656,-0.3398438 -1.335937,-0.3398438 -1.441406,0 -1.980469,0.7851563 -1.980469,1.4765625 0,0.4101563 0.199219,0.8203125 0.515625,1.0546875 -0.28125,0.3398438 -0.339844,0.6679688 -0.339844,0.8789063 0,0.15234374 0.03516,0.64453124 0.433594,0.96093749 -0.128906,0.0234375 -0.855469,0.234375 -0.855469,0.8671875 0,0.50390621 0.550782,1.25390621 2.542969,1.25390621 1.757813,0 2.542969,-0.5859375 2.542969,-1.28906246 0,-0.29296875 -0.08203,-0.92578125 -0.75,-1.265625 -0.5625,-0.28125 -1.160156,-0.28125 -2.109375,-0.28125 -0.257813,0 -0.714844,0 -0.773438,0 -0.433593,-0.0703125 -0.539062,-0.45703124 -0.539062,-0.63281254 0,-0.09375 0.03516,-0.2460937 0.09375,-0.328125 0.457031,0.234375 0.972656,0.2578125 1.21875,0.2578125 1.429687,0 1.980469,-0.7734375 1.980469,-1.4765625 0,-0.46875 -0.246094,-0.796875 -0.398438,-0.9492187 0.292969,-0.1640625 0.503906,-0.1875 0.621094,-0.1875 -0.02344,0.046875 -0.04687,0.1289062 -0.04687,0.1992187 0,0.2460938 0.175781,0.421875 0.433594,0.421875 0.257812,0 0.421875,-0.1875 0.421875,-0.421875 z m -2.132813,0.9375 c 0,0.4570313 0,1.1132813 -0.878906,1.1132813 -0.878906,0 -0.878906,-0.65625 -0.878906,-1.1132813 0,-0.4453125 0,-1.1132812 0.878906,-1.1132812 0.878906,0 0.878906,0.6679687 0.878906,1.1132812 z m 1.125,3.76171879 c 0,0.35156251 -0.398437,0.89062501 -1.6875,0.89062501 -1.195312,0 -1.6875,-0.4570313 -1.6875,-0.91406251 0,-0.59765625 0.632813,-0.59765625 0.773438,-0.59765625 h 1.160156 c 0.316406,0 1.441406,0 1.441406,0.62109375 z m 7.3125,-0.75 v -0.46875 H 94.255172 V -3.0456953 c 0,-1.0429688 -0.539063,-1.4414063 -1.535156,-1.4414063 -0.949219,0 -1.476563,0.5742188 -1.746094,1.078125 v -1.078125 l -1.710938,0.082031 v 0.46875 c 0.621094,0 0.691407,0 0.691407,0.3867187 v 3.08203129 h -0.691407 v 0.46875 l 1.253907,-0.03515625 1.253906,0.03515625 v -0.46875 H 91.091109 V -2.5535078 c 0,-1.078125 0.855469,-1.5703125 1.476563,-1.5703125 0.339844,0 0.550781,0.2109375 0.550781,0.9726562 v 2.68359379 h -0.679687 v 0.46875 l 1.253906,-0.03515625 z m 3.600586,-2.49609379 c 0,-1.2421875 -0.328125,-2.3320312 -0.796875,-3.1640625 -0.65625,-1.1484375 -1.558594,-1.8164062 -1.746094,-1.8164062 -0.08203,0 -0.1875,0.035156 -0.1875,0.140625 0,0.058594 0,0.070312 0.175782,0.234375 1.253906,1.2773437 1.59375,3.0351562 1.59375,4.6054687 0,1.95703129 -0.503907,3.5273438 -1.605469,4.6289063 -0.152344,0.1523437 -0.164063,0.1640625 -0.164063,0.2109375 0,0.1054687 0.105469,0.140625 0.1875,0.140625 0.164063,0 0.585938,-0.375 0.761719,-0.5390625 1.558594,-1.54687501 1.78125,-3.375 1.78125,-4.4414063 z m 0,0"
       style="fill:#000000;fill-opacity:1;fill-rule:nonzero;stroke:none"
       aria-label="ClassA(StopSign)"
       transform="matrix(1.3333333,0,0,1.3333333,4.428,117.37733)" />
    <path
       id="path4"
       d="m 7.6292031,-2.2628516 c 0,-0.1992187 -0.070312,-0.2109375 -0.234375,-0.2109375 -0.1289062,0 -0.2226562,0 -0.234375,0.1757813 -0.070312,1.33593749 -1.2773437,1.93359374 -2.2734375,1.93359374 -0.7851562,0 -1.6171875,-0.234375 -2.1328125,-0.84375004 -0.46875,-0.5625 -0.5976562,-1.3125 -0.5976562,-2.2148437 0,-0.5507813 0.035156,-1.6289063 0.6679687,-2.2851563 0.6445313,-0.65625 1.5117188,-0.7734375 2.0273438,-0.7734375 1.078125,0 2.0273437,0.7617188 2.2382812,2.0273438 0.035156,0.1875 0.046875,0.2109375 0.2695313,0.2109375 0.2578125,0 0.2695312,-0.023437 0.2695312,-0.28125 v -2.1445313 c 0,-0.1875 0,-0.2695312 -0.1757812,-0.2695312 -0.09375,0 -0.1171875,0.011719 -0.1875,0.082031 l -0.65625,0.5859375 C 5.9885781,-6.7628518 5.3206094,-6.938633 4.6409219,-6.938633 c -2.484375,0 -4.00781252,1.4765625 -4.00781252,3.515625 0,2.0507812 1.52343752,3.52734374 4.00781252,3.52734374 1.8632812,0 2.9882812,-1.21875004 2.9882812,-2.36718734 z m 3.5683599,2.26171879 v -0.46875 H 10.506156 V -6.9151953 l -1.7578122,0.082031 v 0.46875 c 0.6210937,0 0.6914062,0 0.6914062,0.3867188 v 5.50781249 H 8.7483438 v 0.46875 l 1.2304687,-0.03515625 z m 5.768554,-0.234375 c 0,-0.234375 -0.128906,-0.234375 -0.257812,-0.234375 -0.609375,-0.0117188 -0.609375,-0.140625 -0.609375,-0.36328125 V -2.9776953 c 0,-0.890625 -0.703125,-1.5351563 -2.191407,-1.5351563 -0.5625,0 -1.78125,0.035156 -1.78125,0.9140625 0,0.4453125 0.351563,0.6328125 0.621094,0.6328125 0.304688,0 0.621094,-0.2109375 0.621094,-0.6328125 0,-0.2929687 -0.1875,-0.46875 -0.210938,-0.4921875 0.269532,-0.058594 0.597657,-0.058594 0.714844,-0.058594 0.738281,0 1.089844,0.4101562 1.089844,1.171875 v 0.3398437 c -0.703125,0.023437 -3.234375,0.1171875 -3.234375,1.5585938 0,0.96093749 1.230469,1.13671874 1.921875,1.13671874 0.796875,0 1.265625,-0.41015625 1.488281,-0.8203125 0,0.3046875 0,0.76171875 1.03125,0.76171875 h 0.480469 c 0.199219,0 0.316406,0 0.316406,-0.2343747 z M 14.962211,-1.3839453 c 0,0.94921874 -0.914063,1.07812499 -1.160156,1.07812499 -0.515625,0 -0.914063,-0.33984375 -0.914063,-0.78515629 0,-1.0664062 1.582031,-1.2070312 2.074219,-1.2421875 z m 6.199219,-0.011719 c 0,-0.4335937 -0.199219,-0.7734375 -0.550782,-1.0546875 -0.386718,-0.2929687 -0.703125,-0.3515625 -1.488281,-0.4804687 -0.363281,-0.070312 -1.007812,-0.1757813 -1.007812,-0.6445313 0,-0.6210937 0.925781,-0.6210937 1.113281,-0.6210937 0.75,0 1.125,0.2929687 1.171875,0.84375 0.01172,0.140625 0.02344,0.1992187 0.234375,0.1992187 0.234375,0 0.234375,-0.058594 0.234375,-0.28125 v -0.796875 c 0,-0.1875 0,-0.28125 -0.175781,-0.28125 -0.04687,0 -0.05859,0 -0.445313,0.1875 -0.269531,-0.1289062 -0.609375,-0.1875 -1.007812,-0.1875 -0.304688,0 -1.839844,0 -1.839844,1.3007813 0,0.3984375 0.199219,0.6679687 0.398437,0.84375 0.398438,0.3398437 0.785157,0.4101562 1.546875,0.5390625 0.363282,0.070312 1.101563,0.1992187 1.101563,0.7851562 0,0.73828129 -0.914063,0.73828129 -1.125,0.73828129 -1.066406,0 -1.324219,-0.72656249 -1.441406,-1.14843749 -0.04687,-0.140625 -0.09375,-0.140625 -0.234375,-0.140625 -0.246094,0 -0.246094,0.058594 -0.246094,0.2929687 v 1.07812504 c 0,0.1875 0,0.28125 0.1875,0.28125 0.07031,0 0.08203,0 0.292969,-0.15234375 l 0.257812,-0.1640625 c 0.457031,0.31640625 0.984375,0.31640625 1.183594,0.31640625 0.304687,0 1.839844,0 1.839844,-1.45312504 z m 4.523437,0 c 0,-0.4335937 -0.199219,-0.7734375 -0.550781,-1.0546875 -0.386719,-0.2929687 -0.703125,-0.3515625 -1.488281,-0.4804687 -0.363282,-0.070312 -1.007813,-0.1757813 -1.007813,-0.6445313 0,-0.6210937 0.925781,-0.6210937 1.113281,-0.6210937 0.75,0 1.125,0.2929687 1.171875,0.84375 0.01172,0.140625 0.02344,0.1992187 0.234375,0.1992187 0.234375,0 0.234375,-0.058594 0.234375,-0.28125 v -0.796875 c 0,-0.1875 0,-0.28125 -0.175781,-0.28125 -0.04687,0 -0.05859,0 -0.445312,0.1875 -0.269532,-0.1289062 -0.609375,-0.1875 -1.007813,-0.1875 -0.304687,0 -1.839844,0 -1.839844,1.3007813 0,0.3984375 0.199219,0.6679687 0.398438,0.84375 0.398437,0.3398437 0.785156,0.4101562 1.546875,0.5390625 0.363281,0.070312 1.101562,0.1992187 1.101562,0.7851562 0,0.73828129 -0.914062,0.73828129 -1.125,0.73828129 -1.066406,0 -1.324218,-0.72656249 -1.441406,-1.14843749 -0.04687,-0.140625 -0.09375,-0.140625 -0.234375,-0.140625 -0.246094,0 -0.246094,0.058594 -0.246094,0.2929687 v 1.07812504 c 0,0.1875 0,0.28125 0.1875,0.28125 0.07031,0 0.08203,0 0.292969,-0.15234375 l 0.257813,-0.1640625 c 0.457031,0.31640625 0.984375,0.31640625 1.183593,0.31640625 0.304688,0 1.839844,0 1.839844,-1.45312504 z m 11.704102,-0.4570312 c 0,-0.9609375 -0.855469,-1.6289063 -2.039063,-1.7109375 1.078125,-0.1875 1.722657,-0.7851563 1.722657,-1.5585938 0,-0.9140625 -0.867188,-1.7109375 -2.472657,-1.7109375 h -4.324218 v 0.46875 h 1.078125 v 5.89453129 h -1.078125 v 0.46875 h 4.628906 c 1.652344,0 2.484375,-0.87890625 2.484375,-1.85156249 z m -1.734375,-3.2695313 c 0,0.7734375 -0.480469,1.3828125 -1.441406,1.3828125 h -1.558594 v -2.625 H 34.471 c 1.007813,0 1.183594,0.7851563 1.183594,1.2421875 z m 0.269531,3.2578125 c 0,0.1171875 0,1.39453129 -1.429687,1.39453129 H 32.654594 V -3.3761328 h 1.933594 c 0.199218,0 0.667968,0 1.007812,0.421875 0.328125,0.421875 0.328125,0.984375 0.328125,1.0898435 z m 9.738281,4.2070313 c 0,-0.046875 -0.03516,-0.1054688 -0.03516,-0.1054688 -0.28125,-0.2695312 -0.9375,-0.8789062 -1.347656,-2.14453121 -0.269531,-0.796875 -0.386719,-1.71093749 -0.386719,-2.58984379 0,-1.9570312 0.515625,-3.515625 1.605469,-4.6289062 0.152344,-0.1523438 0.164062,-0.1523438 0.164062,-0.2109375 0,-0.1054688 -0.105468,-0.140625 -0.1875,-0.140625 -0.164062,0 -0.585937,0.375 -0.761718,0.5390625 -1.558594,1.546875 -1.78125,3.3867187 -1.78125,4.4414062 0,1.2421875 0.328125,2.33203129 0.796875,3.16406254 0.65625,1.14843746 1.558593,1.81640626 1.746093,1.81640626 0.08203,0 0.1875,-0.035156 0.1875,-0.140625 z m 6.363282,-4.3710938 c 0,-1.1015625 -0.808594,-1.9101562 -1.710938,-2.0976562 l -1.453125,-0.3046875 c -0.398437,-0.09375 -0.949219,-0.4335938 -0.949219,-1.0429688 0,-0.421875 0.28125,-1.0429687 1.277344,-1.0429687 0.796875,0 1.804688,0.3398437 2.027344,1.6992187 0.03516,0.234375 0.03516,0.2578125 0.246094,0.2578125 0.246093,0 0.246093,-0.058594 0.246093,-0.28125 v -1.828125 c 0,-0.1875 0,-0.2695312 -0.1875,-0.2695312 -0.07031,0 -0.08203,0 -0.199218,0.1054687 L 50.87725,-6.3995705 C 50.303031,-6.8566018 49.6585,-6.938633 49.178031,-6.938633 c -1.511718,0 -2.238281,0.9492187 -2.238281,1.9921875 0,0.65625 0.328125,1.1132812 0.539063,1.3242187 0.492187,0.4921875 0.832031,0.5625 1.921875,0.796875 0.867187,0.1992188 1.042968,0.2226563 1.253906,0.4335938 0.152344,0.1523437 0.398437,0.4101562 0.398437,0.8671875 0,0.4804687 -0.257812,1.16015624 -1.289062,1.16015624 -0.761719,0 -2.273438,-0.19921875 -2.355469,-1.67578124 0,-0.1875 0,-0.234375 -0.222656,-0.234375 -0.246094,0 -0.246094,0.058594 -0.246094,0.2929687 v 1.81640629 c 0,0.1875 0,0.26953125 0.1875,0.26953125 0.08203,0 0.105469,-0.01171875 0.1875,-0.08203125 l 0.457031,-0.45703125 c 0.65625,0.48046875 1.582032,0.5390625 1.992188,0.5390625 1.640625,0 2.261719,-1.12500004 2.261719,-2.13281254 z m 6.624023,-0.1992187 c 0,-1.3242188 -0.902344,-2.2617188 -2.34375,-2.2617188 -0.738281,0 -1.277344,0.3164063 -1.5,0.4921875 v -0.4921875 l -1.769531,0.082031 v 0.46875 c 0.621093,0 0.691406,0 0.691406,0.3867187 v 5.015625 H 53.03643 v 0.46875 l 1.265625,-0.035156 1.253906,0.035156 v -0.46875 h -0.691406 v -1.85156246 c 0.433593,0.3515625 0.867187,0.4453125 1.277343,0.4453125 1.488282,0 2.507813,-0.890625 2.507813,-2.28515594 z m -1.277344,0 c 0,1.40624999 -0.691406,1.92187499 -1.347656,1.92187499 -0.128906,0 -0.597656,0 -1.054688,-0.52734375 -0.105468,-0.12890625 -0.105468,-0.140625 -0.105468,-0.32812504 V -3.282383 c 0,-0.1875 0.01172,-0.1992188 0.152343,-0.3398438 0.398438,-0.3984375 0.914063,-0.46875 1.136719,-0.46875 0.667969,0 1.21875,0.609375 1.21875,1.8632813 z m 6.908203,1.0664062 c 0,-0.1875 -0.1875,-0.1875 -0.234375,-0.1875 -0.175781,0 -0.199218,0.046875 -0.257812,0.2109375 -0.210938,0.48046879 -0.773438,0.79687504 -1.417969,0.79687504 -1.40625,0 -1.417969,-1.32421874 -1.417969,-1.82812504 h 3.011719 c 0.210938,0 0.316406,0 0.316406,-0.2695312 0,-0.3164063 -0.05859,-1.0429688 -0.5625,-1.5351563 -0.363281,-0.3632812 -0.890625,-0.5390625 -1.582031,-0.5390625 -1.59375,0 -2.460937,1.0195313 -2.460937,2.2734375 0,1.33593754 0.996093,2.29687504 2.601562,2.29687504 1.570313,0 2.003906,-1.0546875 2.003906,-1.21875004 z m -0.949218,-1.3359375 h -2.378907 c 0.02344,-0.3984375 0.03516,-0.8085937 0.234375,-1.1367187 0.269532,-0.3984375 0.667969,-0.515625 0.949219,-0.515625 1.171875,0 1.183594,1.3007812 1.195313,1.6523437 z m 6.199218,1.3359375 c 0,-0.1875 -0.1875,-0.1875 -0.234375,-0.1875 -0.175781,0 -0.199218,0.046875 -0.257812,0.2109375 -0.210938,0.48046879 -0.773438,0.79687504 -1.417969,0.79687504 -1.40625,0 -1.417969,-1.32421874 -1.417969,-1.82812504 h 3.011719 c 0.210938,0 0.316406,0 0.316406,-0.2695312 0,-0.3164063 -0.05859,-1.0429688 -0.5625,-1.5351563 -0.363281,-0.3632812 -0.890625,-0.5390625 -1.582031,-0.5390625 -1.59375,0 -2.460937,1.0195313 -2.460937,2.2734375 0,1.33593754 0.996093,2.29687504 2.601562,2.29687504 1.570313,0 2.003906,-1.0546875 2.003906,-1.21875004 z m -0.949218,-1.3359375 h -2.378907 c 0.02344,-0.3984375 0.03516,-0.8085937 0.234375,-1.1367187 0.269532,-0.3984375 0.667969,-0.515625 0.949219,-0.515625 1.171875,0 1.183594,1.3007812 1.195313,1.6523437 z m 7.265625,2.49609379 v -0.46875 c -0.621094,0 -0.691407,0 -0.691407,-0.38671875 V -6.9151953 l -1.757812,0.082031 v 0.46875 c 0.609375,0 0.679687,0 0.679687,0.3867188 v 1.9453125 c -0.492187,-0.3867188 -1.007812,-0.4570313 -1.335937,-0.4570313 -1.453125,0 -2.507813,0.8789063 -2.507813,2.2851563 0,1.31249999 0.925782,2.26171874 2.390625,2.26171874 0.609375,0 1.089844,-0.234375 1.394532,-0.4921875 v 0.4921875 z M 74.018852,-1.0323828 c -0.128907,0.18749999 -0.539063,0.72656249 -1.289063,0.72656249 -1.21875,0 -1.21875,-1.19531249 -1.21875,-1.89843749 0,-0.4804688 0,-1.0195313 0.257813,-1.40625 0.292968,-0.4101563 0.761718,-0.515625 1.066406,-0.515625 0.574219,0 0.972656,0.3164062 1.183594,0.609375 z m 12.430664,-1.6992188 h -0.46875 c -0.08203,0.6914063 -0.257813,2.26171879 -2.039063,2.26171879 H 82.922172 V -6.3644141 h 1.335937 v -0.46875 c -0.433593,0.023437 -1.523437,0.023437 -2.003906,0.023437 -0.445312,0 -1.453125,0 -1.828125,-0.023437 v 0.46875 h 1.078125 v 5.89453129 h -1.078125 v 0.46875 h 5.707031 z m 3.331054,2.73046879 v -0.46875 H 89.159477 V -4.4894141 l -1.722657,0.082031 v 0.46875 c 0.585938,0 0.65625,0 0.65625,0.3867187 v 3.08203129 h -0.691406 v 0.46875 l 1.21875,-0.03515625 z M 89.300102,-6.0480078 c 0,-0.4335938 -0.339844,-0.7734375 -0.773438,-0.7734375 -0.433594,0 -0.773437,0.3398437 -0.773437,0.7734375 0,0.4335937 0.339843,0.7734375 0.773437,0.7734375 0.433594,0 0.773438,-0.3398438 0.773438,-0.7734375 z m 10.127929,6.04687499 v -0.46875 H 98.736625 V -3.0480078 c 0,-1.03125 -0.503906,-1.4414063 -1.535156,-1.4414063 -0.902344,0 -1.417969,0.5039063 -1.675781,0.9609375 -0.199219,-0.9257812 -1.125,-0.9609375 -1.5,-0.9609375 -0.867188,0 -1.429688,0.4570313 -1.757813,1.078125 v -1.078125 l -1.710937,0.082031 v 0.46875 c 0.621093,0 0.691406,0 0.691406,0.3867187 v 3.08203129 h -0.691406 v 0.46875 l 1.253906,-0.03515625 1.253906,0.03515625 v -0.46875 H 92.385063 V -2.5558203 c 0,-1.078125 0.867187,-1.5703125 1.476562,-1.5703125 0.339844,0 0.5625,0.1992187 0.5625,0.9726562 v 2.68359379 h -0.691406 v 0.46875 l 1.265625,-0.03515625 1.253906,0.03515625 v -0.46875 H 95.560844 V -2.5558203 c 0,-1.078125 0.867187,-1.5703125 1.488281,-1.5703125 0.339844,0 0.550781,0.1992187 0.550781,0.9726562 v 2.68359379 h -0.679687 v 0.46875 l 1.253906,-0.03515625 z m 3.076169,0 v -0.46875 h -0.62109 V -4.4894141 l -1.72266,0.082031 v 0.46875 c 0.58594,0 0.65625,0 0.65625,0.3867187 v 3.08203129 h -0.6914 v 0.46875 l 1.21875,-0.03515625 z m -0.48047,-6.04687499 c 0,-0.4335938 -0.33984,-0.7734375 -0.77343,-0.7734375 -0.4336,0 -0.77344,0.3398437 -0.77344,0.7734375 0,0.4335937 0.33984,0.7734375 0.77344,0.7734375 0.43359,0 0.77343,-0.3398438 0.77343,-0.7734375 z m 4.62012,4.8164062 v -0.5273437 h -0.46875 v 0.5039062 c 0,0.67968754 -0.3164,0.91406254 -0.59765,0.91406254 -0.58594,0 -0.58594,-0.6328125 -0.58594,-0.86718754 v -2.7421875 h 1.46484 v -0.46875 h -1.46484 v -1.9101562 h -0.45703 c -0.0117,0.9960937 -0.50391,1.9804687 -1.48828,2.015625 v 0.3632812 h 0.82031 v 2.71875 c 0,1.06640629 0.86719,1.28906254 1.57031,1.28906254 0.75,0 1.20703,-0.5625 1.20703,-1.28906254 z m 4.00781,-1.265625 c 0,-1.2421875 -0.32812,-2.3320312 -0.79687,-3.1640625 -0.65625,-1.1484375 -1.55859,-1.8164062 -1.74609,-1.8164062 -0.082,0 -0.1875,0.035156 -0.1875,0.140625 0,0.058594 0,0.070312 0.17578,0.234375 1.2539,1.2773437 1.59375,3.0351562 1.59375,4.6054687 0,1.95703129 -0.50391,3.5273438 -1.60547,4.6289063 -0.15235,0.1523437 -0.16406,0.1640625 -0.16406,0.2109375 0,0.1054687 0.10546,0.140625 0.1875,0.140625 0.16406,0 0.58593,-0.375 0.76171,-0.5390625 1.5586,-1.54687501 1.78125,-3.375 1.78125,-4.4414063 z m 0,0"
       style="fill:#000000;fill-opacity:1;fill-rule:nonzero;stroke:none"
       aria-label="ClassB(SpeedLimit)"
       transform="matrix(1.3333333,0,0,1.3333333,147.53867,41.786667)" />
    <path
       id="path5"
       d="m 31.16489,42.5202 c 0,1.5564 -1.26169,2.81809 -2.81809,2.81809 -1.5564,0 -2.81808,-1.26169 -2.81808,-2.81809 0,-1.5564 1.26168,-2.81808 2.81808,-2.81808 1.5564,0 2.81809,1.26168 2.81809,2.81808 z"
       style="fill:#005629;fill-opacity:1;fill-rule:nonzero;stroke:none"
       transform="matrix(1.3333333,0,0,-1.3333333,70.852,151.84533)" />
    <path
       id="path6"
       d="m 73.68509,70.867 c 0,1.5564 -1.26169,2.81809 -2.81809,2.81809 -1.55638,0 -2.81807,-1.26169 -2.81807,-2.81809 0,-1.55638 1.26169,-2.81807 2.81807,-2.81807 1.5564,0 2.81809,1.26169 2.81809,2.81807 z"
       style="fill:#d9534f;fill-opacity:1;fill-rule:nonzero;stroke:none"
       transform="matrix(1.3333333,0,0,-1.3333333,70.852,151.84533)" />
    <path
       id="path7"
       d="M 30.85727,44.19383 67.52762,68.64078"
       style="fill:none;stroke:#d9534f;stroke-width:0.99628;stroke-linecap:butt;stroke-linejoin:miter;stroke-miterlimit:10;stroke-dasharray:none;stroke-opacity:1"
       transform="matrix(1.3333333,0,0,-1.3333333,70.852,151.84533)" />
    <path
       id="path8"
       d="M -2.78957,3.47087 C -2.27992,1.38832 -1.14423,0.40492 0,0 -1.14423,-0.40492 -2.27992,-1.38832 -2.78957,-3.47087"
       style="fill:none;stroke:#d9534f;stroke-width:0.99628;stroke-linecap:round;stroke-linejoin:round;stroke-miterlimit:10;stroke-dasharray:none;stroke-opacity:1"
       transform="matrix(1.10936,-0.73956,-0.73956,-1.10936,161.44147,59.955893)" />
    <path
       id="path9"
       d="m 3.9978414,-2.447068 c 0.0065,-0.516803 -0.6630758,-0.9490917 -1.456157,-0.9425844 l -2.12246739,-0.00648 1.75e-6,0.2112716 0.15276567,0.00325 c 0.39654058,-0.00325 0.3997914,0.055252 0.39654234,0.208018 l 0.003272,2.55151123 c -0.003249,0.15276567 -0.003249,0.19501999 -0.39978929,0.19827363 l -0.15276567,-0.003249 0.003252,0.22752327552 0.82233399,-0.0292598355 0.8158337,0.02274554 -0.00325,-0.22752327 -0.1495152,0.0130026 c -0.4062917,-0.003247 -0.406292,-0.0455013 -0.403043,-0.19826695 l -0.00651,-1.08886142 1.0888615,-0.00651 c 0.6598176,0.00324 1.4106412,-0.3835511 1.4106367,-0.9328573 z m -0.5915606,4.9e-6 c -0.00325,0.4062916 -0.1722615,0.7443277 -0.9750937,0.7443343 l -0.9360958,0.00976 -0.00326,-1.2838814 c -1.4e-6,-0.1690173 -0.0065,-0.2015206 0.2275215,-0.2145239 l 0.702072,0.00324 c 0.8125832,0.00649 0.9848538,0.3607788 0.984857,0.7410677 z m 3.6281994,1.85184696 c -7e-7,-0.0845087 -0.074758,-0.0780074 -0.100761,-0.0812575 -0.074758,0.006501 -0.081258,0.0162523 -0.1105106,0.0812592 C 6.6736962,-0.2441772 6.2999089,-0.1271621 6.0366319,-0.13366058 5.6238397,-0.12715648 5.3995647,-0.36117858 5.3248064,-0.43918594 5.1265342,-0.66995792 5.1297819,-0.9917409 5.1362814,-1.1282549 l 1.7584301,0.00324 c 0.1105113,0.00325 0.1430146,-0.00325 0.136513,-0.1202635 0.00325,-0.321783 -0.1690254,-0.9718481 -1.09212,-0.9815914 -0.7670785,0.00976 -1.2968784,0.529815 -1.2968735,1.1213756 5.3e-6,0.63381491 0.6045716,1.16361413 1.3651495,1.1636078 0.7930811,-0.0065073 1.0271004,-0.56881679 1.0270997,-0.65332544 z M 6.6606862,-1.2810333 5.1492815,-1.27452 c 0.045499,-0.659818 0.5265474,-0.7898353 0.7638217,-0.7865869 0.6923209,-0.00326 0.7378309,0.6468101 0.747583,0.7800736 z m 3.0878114,-0.5753346 c 0.00325,-0.19502 -0.1950228,-0.3412833 -0.4485487,-0.3412812 -0.2437749,0.0065 -0.5753079,0.1235175 -0.7605733,0.5493126 l -0.016252,0.00325 -4.6e-6,-0.5493063 -0.7930808,0.048762 0.00325,0.2275233 c 0.3705379,-0.0065 0.4257937,0.016248 0.4257958,0.2697741 l 1.02e-5,1.22537544 c -0.00325,0.15276567 -0.00325,0.19502 -0.3412833,0.19502281 l -0.084509,7e-7 0.00325,0.22752327308 C 7.9445782,-0.01666447 8.1623504,-0.02641728 8.3736221,-0.02641904 L 9.0886955,-4.2232786e-4 9.0854433,-0.2279456 8.9424287,-0.22469408 C 8.5783914,-0.22794138 8.578391,-0.27019571 8.5816401,-0.42296138 L 8.578384,-1.1152822 c -3.9e-6,-0.4647976 0.2567687,-0.9133457 0.7345674,-0.9328517 0,0 -0.068256,0.081259 -0.071506,0.1917703 0.00325,0.1852689 0.1430167,0.2502744 0.243777,0.2470232 0.1365141,0.0065 0.2632763,-0.07801 0.2632752,-0.2470275 z m 2.5214554,1.21966645 -0.0033,-0.2697776 -0.211272,1.76e-6 2e-6,0.25352596 c 4e-6,0.38028894 -0.224268,0.52655579 -0.393286,0.52655719 -0.380288,3.17e-6 -0.383542,-0.39653741 -0.380293,-0.50704876 l -0.0033,-1.2838814 0.887341,-7.4e-6 -0.0033,-0.2275233 -0.887341,7.4e-6 0.0032,-0.9133436 -0.211272,1.8e-6 c 4e-6,0.4647976 -0.250268,0.9458489 -0.754069,0.9621048 l -0.0065,0.1787683 0.533054,0.00325 0.0033,1.28388149 c -0.0032,0.57530894 0.468054,0.692317 0.780086,0.68906407 0.370538,-0.0065038 0.643564,-0.28928498 0.64681,-0.69557661 z m 3.883341,0.63459517 -0.0033,-0.22752327 c -0.354287,0.003253 -0.409542,-0.0194986 -0.409545,-0.27302455 l -1.4e-5,-1.6901731 -0.861337,0.045512 0.0033,0.2275232 c 0.364037,0.00325 0.419293,0.025999 0.419295,0.2795252 l 0.0033,0.81908381 c -0.0032,0.44854596 -0.35428,0.72157683 -0.760572,0.71832988 -0.497301,0.0065048 -0.523305,-0.20801695 -0.523307,-0.46154291 l 0.0032,-1.63166708 -0.867839,0.055263 0.0033,0.2275232 c 0.396541,-0.00325 0.419294,0.025999 0.419296,0.2795252 l -0.0032,1.08236082 c 0.05526,0.57205812 0.620819,0.61105741 0.942602,0.61430506 0.412792,-0.0065041 0.646815,-0.18852468 0.802829,-0.42254995 l 3e-6,0.42254327 z m 2.732702,-1.85433762 c 0.0032,-0.19502 -0.195023,-0.3412833 -0.448549,-0.3412812 -0.243775,0.0065 -0.575308,0.1235174 -0.760573,0.5493126 l -0.01625,0.00325 -4e-6,-0.5493062 -0.793081,0.048762 0.0033,0.2275232 c 0.370538,-0.0065 0.425794,0.016248 0.425796,0.2697741 l 1e-5,1.22537551 c -0.0032,0.15276567 -0.0032,0.19501999 -0.341283,0.19502281 l -0.08451,7e-7 0.0033,0.22752327131 C 17.082076,-0.0167405 17.299849,-0.02649331 17.51112,-0.02649507 l 0.715074,0.0259967104 -0.0033,-0.2275232704 -0.143014,0.003252 c -0.364037,-0.003247 -0.364038,-0.0455016 -0.360789,-0.1982673 l -0.0033,-0.69232087 c -4e-6,-0.4647976 0.256769,-0.9133456 0.734568,-0.9328516 0,0 -0.06826,0.081259 -0.07151,0.1917702 0.0033,0.185269 0.143017,0.2502745 0.243777,0.2470233 0.136514,0.0065 0.263276,-0.07801 0.263275,-0.2470275 z m 3.691572,0.7743611 c -5e-6,-0.5915606 -0.552566,-1.1148596 -1.322895,-1.1213538 -0.269778,0.00325 -0.575308,0.081263 -0.838584,0.2860362 l -0.0033,-1.5374074 -0.841835,0.058513 1e-6,0.2112717 c 0.370538,-0.0065 0.429045,0.0325 0.419296,0.2795251 l 0.0065,2.90579749052 0.19502,0.003248709 c 0.0455,-0.06825737 0.08451,-0.12676368 0.12026,-0.20152164 0.0098,-0.0357537 0.02925,-0.0650069 0.04875,-0.09426 0.214524,0.22752151 0.526557,0.35103156 0.838589,0.34777863 0.754077,0.0097447 1.368386,-0.51031364 1.378132,-1.13762799 z m -0.507052,4.2e-6 c 2e-6,0.29578029 -0.065,0.56230812 -0.260021,0.72807672 -0.152764,0.16576825 -0.406289,0.25027901 -0.650064,0.2567817 -0.338035,2.82e-6 -0.591562,-0.21126671 -0.74433,-0.4257874 l -9e-6,-1.14086682 c 0.195017,-0.2502773 0.507048,-0.3802932 0.802829,-0.3802956 0.59156,-5e-6 0.84834,0.4387878 0.851595,0.9620914 z m 4.03123,0.63459394 0.0032,-0.27952865 -0.211271,1.76e-6 -0.013,0.27302807 c 0.0098,0.0487549 0.0033,0.2697776 -0.198268,0.27627994 -0.204771,-0.009749 -0.198272,-0.23077198 -0.208024,-0.27952689 l 0.0065,-1.02385487 c -0.0033,-0.4810493 -0.494056,-0.7378215 -1.11162,-0.7410667 -0.312032,0.00325 -0.893841,0.00976 -0.893838,0.4323017 0.0033,0.185269 0.146268,0.2665261 0.273031,0.2665251 0.126762,-1.1e-6 0.260025,-0.094262 0.260024,-0.2632792 0.0098,-0.1202624 -0.06501,-0.1982697 -0.120264,-0.2210216 0.159266,-0.048756 0.403041,-0.055259 0.471298,-0.052009 0.412792,-0.0065 0.679321,0.2275176 0.682574,0.5818039 l 1e-6,0.1267629 c -0.484299,0.029257 -0.757327,0.058512 -1.137615,0.1852785 -0.325032,0.1072637 -0.611059,0.32503834 -0.614307,0.64682132 4e-6,0.46479759 0.581814,0.58505507 0.978355,0.58180143 0.386789,-0.0097542 0.669567,-0.15927188 0.828831,-0.41929983 0.02925,0.18851906 0.146269,0.39328906 0.390043,0.38678636 0.04226,-3.5e-7 0.617564,0.0032452 0.614309,-0.47780404 z m -1.05636,-0.25351717 c -0.0032,0.53305461 -0.607807,0.59481597 -0.724819,0.60131761 -0.29578,2.46e-6 -0.57531,-0.17226285 -0.575313,-0.42578882 -10e-7,-0.1690173 0.120258,-0.62406486 1.293627,-0.67282966 z m 3.48842,0.0649776 -0.0033,-0.26977759 -0.211272,1.75e-6 2e-6,0.25352596 c 3e-6,0.38028895 -0.224268,0.52655579 -0.393286,0.5265572 -0.380289,3.16e-6 -0.383542,-0.39653742 -0.380293,-0.50704876 l -0.0033,-1.28388143 0.887341,-7.4e-6 -0.0033,-0.2275232 -0.887341,7.3e-6 0.0032,-0.9133435 -0.211272,1.7e-6 c 4e-6,0.4647976 -0.250268,0.945849 -0.754069,0.9621048 l -0.0065,0.1787684 0.533054,0.00325 0.0033,1.28388141 c -0.0032,0.57530894 0.468054,0.692317 0.780086,0.68906407 0.370538,-0.0065038 0.643563,-0.28928498 0.64681,-0.69557661 z m 2.120035,0.63867276 -0.0033,-0.22752327 c -0.338035,2.82e-6 -0.380289,3.17e-6 -0.37704,-0.19501683 l -1.5e-5,-1.77468173 -0.819083,0.045511 0.0033,0.2275233 c 0.347785,0.0065 0.39329,0.022749 0.393292,0.276275 l 1.1e-5,1.22537545 c -0.0032,0.15276567 -0.0032,0.19501999 -0.325032,0.19177234 l -0.10076,0.003251 0.0033,0.22752327 c 0.208021,-0.01625339 0.425793,-0.0260062 0.627314,-0.03250855 0.19502,0.0032487 0.399791,0.01299801 0.598061,0.03249835 z M 30.325533,-2.9909052 c -2e-6,-0.1690174 -0.136517,-0.3022799 -0.305534,-0.3022785 -0.169017,1.5e-6 -0.292529,0.1430171 -0.292527,0.3120344 -0.0032,0.1527657 0.126765,0.2957793 0.295782,0.2957779 0.159267,-0.0065 0.29903,-0.1527682 0.302279,-0.3055338 z m 3.768777,1.9209153 c -0.0065,-0.6240638 -0.58507,-1.150613 -1.361899,-1.1473562 -0.786581,-0.00324 -1.374887,0.5200647 -1.368381,1.1441286 -0.0065,0.60131162 0.581819,1.1343613 1.3684,1.13760509 0.776829,-0.0032568 1.355384,-0.53306586 1.36188,-1.13437749 z m -0.507053,-0.04225 c 0.0065,0.2437749 0.0033,0.98810115 -0.858079,0.99135865 -0.88084,-0.009744 -0.877596,-0.75406992 -0.884099,-0.99784485 0.0065,-0.2210227 -0.0033,-0.9458468 0.877582,-0.9361031 0.861338,-0.00326 0.871095,0.7215666 0.864596,0.9425893 z m 4.229505,1.1083283 -0.0033,-0.22752327 -0.08451,7e-7 c -0.328283,0.006503 -0.328284,-0.0357509 -0.325034,-0.1885166 l 0.0032,-1.08236083 c -5e-6,-0.5493063 -0.367294,-0.6955682 -0.832091,-0.6955643 -0.533055,-0.00325 -0.812581,0.2892863 -0.932842,0.490808 l 0.0032,-0.4908003 -0.825584,0.055262 0.0033,0.2275233 c 0.370538,-0.0065 0.416042,0.00975 0.416045,0.2632735 l 1e-5,1.22537548 c -0.0032,0.15276567 -0.0032,0.19501999 -0.315281,0.19827292 l -0.10076,0.003251 0.0033,0.22752327 c 0.208021,-0.01625339 0.425793,-0.0260062 0.637065,-0.02600796 0.211272,-1.76e-6 0.416043,0.0097475 0.630565,0.02599742 l -0.0033,-0.22752327 -0.08451,7e-7 c -0.321783,-0.003248 -0.321783,-0.045502 -0.318534,-0.19826765 l 0.0032,-0.87108921 c -0.0098,-0.5558069 0.500545,-0.7508311 0.822328,-0.7475834 0.364037,0.00325 0.448548,0.2145182 0.4453,0.5363012 l 0.0065,1.08886144 c -0.0032,0.15276567 -0.0032,0.19502 -0.325032,0.19177235 l -0.09426,-0.0065 0.0033,0.22752328 c 0.208022,-0.0162534 0.425794,-0.02600621 0.637065,-0.02600797 0.211272,-1.76e-6 0.416043,0.0097475 0.630565,0.02599742 z m 0,0"
       style="fill:#d9534f;fill-opacity:1;fill-rule:nonzero;stroke:none"
       aria-label="Perturbation"
       transform="matrix(1.10936,-0.73956,0.73956,1.10936,109.76533,88.198667)" />
    <path
       id="path10"
       d="M 1.7715757,-2.169483 C 1.1247607,-2.0232127 0.52670409,-1.4641505 0.5234589,-0.8465872 0.5202129,-0.27127826 1.0110165,0.0700026 1.5603227,0.06999803 2.1421322,0.06349253 2.7174362,-0.5248225 2.7174296,-1.3276547 2.7141749,-1.8509583 2.4216426,-2.1304845 2.1226097,-2.4002596 1.9665925,-2.5465233 1.5635479,-2.9560619 1.5667966,-3.1510819 c -0.00325,-0.058506 0.061755,-0.1982708 0.2730263,-0.1982725 0.1592662,-0.0065 0.3347848,0.068254 0.4875512,0.1560119 0.019502,0.013001 0.2632781,0.1332614 0.3575378,0.1397613 0.1007603,-0.00325 0.2340231,-0.097512 0.2307716,-0.2405265 -1.1e-6,-0.126763 -0.08126,-0.152765 -0.3802907,-0.2112685 -0.2340242,-0.029251 -0.416043,-0.052002 -0.5525571,-0.058501 -0.4745486,-0.0065 -0.6078097,0.2990357 -0.6045575,0.526559 2.5e-6,0.2957802 0.2567817,0.6500644 0.3932975,0.8678352 z m 0.1267644,0.1690162 c 0.2535288,0.3380325 0.3867944,0.5818064 0.3835468,0.9035893 -0.00325,0.448546 -0.2990223,0.99785471 -0.7215656,0.99785823 -0.1690173,1.4e-6 -0.63056514,-0.06825175 -0.62406913,-0.62730905 C 0.93299854,-1.1228689 1.1670164,-1.8541957 1.8983401,-2.0004668 Z m 0,0"
       style="fill:#d9534f;fill-opacity:1;fill-rule:nonzero;stroke:none"
       aria-label="δ"
       transform="matrix(1.10936,-0.73956,0.73956,1.10936,154.69774,58.244268)" />
    <path
       id="path11"
       d="m 90.7097,42.5202 c 0,34.4425 -27.92038,62.36289 -62.3629,62.36289 -34.4425,0 -62.36288,-27.92039 -62.36288,-62.36289 0,-34.44252 27.92038,-62.36288 62.36288,-62.36288 34.44252,0 62.3629,27.92036 62.3629,62.36288 z"
       style="fill:none;stroke:#666666;stroke-width:0.74721;stroke-linecap:butt;stroke-linejoin:miter;stroke-miterlimit:10;stroke-dasharray:2.98883, 2.98883;stroke-dashoffset:0;stroke-opacity:1"
       transform="matrix(1.3333333,0,0,-1.3333333,70.852,151.84533)" />
    <path
       id="path12"
       d="m 4.2903281,-1.1595156 c 0,-0.082031 -0.023437,-0.1054688 -0.1054687,-0.1054688 -0.058594,0 -0.1054688,0 -0.1054688,0.082031 -0.046875,0.74999997 -0.7617187,1.07812497 -1.3476562,1.07812497 -0.703125,0 -1.6640625,-0.3984375 -1.6640625,-1.59374997 0,-1.1953125 0.9375,-1.59375 1.6523437,-1.59375 0.4570313,0 1.1835938,0.234375 1.3476563,1.171875 0.011719,0.058594 0.070312,0.058594 0.1054687,0.058594 0.1171875,0 0.1171875,-0.035156 0.1171875,-0.140625 v -1.171875 c 0,-0.082031 0,-0.140625 -0.082031,-0.140625 -0.058594,0 -0.070312,0.023437 -0.09375,0.058594 l -0.292969,0.3867185 C 3.5168906,-3.3274844 3.1301719,-3.5149844 2.6379844,-3.5149844 c -1.2070313,0 -2.15625002,0.8320313 -2.15625002,1.8164063 0,0.98437497 0.94921872,1.80468747 2.15625002,1.80468747 0.9609375,0 1.6523437,-0.609375 1.6523437,-1.26562497 z m 3.5390625,0.09375 c 0,-0.6210938 -0.5859375,-1.1601563 -1.359375,-1.1601563 -0.7851562,0 -1.3710937,0.5390625 -1.3710937,1.1601563 0,0.59765622 0.5859375,1.12499997 1.3710937,1.12499997 0.7734375,0 1.359375,-0.52734375 1.359375,-1.12499997 z m -0.4921875,-0.046875 c 0,0.24609372 0,0.98437497 -0.8671875,0.98437497 -0.8789062,0 -0.8789062,-0.73828125 -0.8789062,-0.98437497 0,-0.2226563 0,-0.9492188 0.8789062,-0.9492188 0.8671875,0 0.8671875,0.7265625 0.8671875,0.9492188 z M 11.561813,6.40625e-4 V -0.22201563 h -0.08203 c -0.328125,0 -0.328125,-0.046875 -0.328125,-0.19921875 V -1.4993594 c 0,-0.5507812 -0.375,-0.703125 -0.832031,-0.703125 -0.5390625,0 -0.8203125,0.2929688 -0.9257812,0.4921875 v -0.4921875 l -0.8203125,0.058594 v 0.2226562 c 0.3632812,0 0.4101562,0.023437 0.4101562,0.2695313 v 1.23046872 c 0,0.15234375 0,0.19921875 -0.3164062,0.19921875 h -0.09375 V 6.40625e-4 c 0.2109375,-0.011718755 0.421875,-0.023437505 0.6328125,-0.023437505 0.2109375,0 0.421875,0.01171875 0.6328125,0.023437505 V -0.22201563 H 9.757125 C 9.429,-0.22201563 9.429,-0.26889063 9.429,-0.42123438 V -1.2884219 c 0,-0.5625 0.515625,-0.75 0.832031,-0.75 0.363282,0 0.445313,0.2109375 0.445313,0.5273438 v 1.08984372 c 0,0.15234375 0,0.19921875 -0.316406,0.19921875 h -0.09375 V 6.40625e-4 C 10.507125,-0.01107813 10.718063,-0.02279688 10.929,-0.02279688 c 0.210938,0 0.421875,0.01171875 0.632813,0.023437505 z m 2.71875,-0.632812505 c 0,-0.22265625 -0.117188,-0.38671872 -0.316407,-0.50390622 -0.199218,-0.1289063 -0.339843,-0.140625 -0.761718,-0.2109375 -0.316407,-0.046875 -0.703125,-0.1054688 -0.703125,-0.375 0,-0.1757813 0.199218,-0.3632813 0.738281,-0.3632813 0.410156,0 0.65625,0.1640625 0.679687,0.515625 0.01172,0.070312 0.01172,0.1054688 0.105469,0.1054688 0.105469,0 0.105469,-0.035156 0.105469,-0.140625 v -0.4921875 c 0,-0.082031 0,-0.1289063 -0.08203,-0.1289063 -0.02344,0 -0.04687,0 -0.08203,0.035156 -0.02344,0.011719 -0.105468,0.09375 -0.128906,0.09375 0,0 -0.01172,0 -0.04687,-0.023437 -0.117187,-0.058594 -0.292969,-0.1054688 -0.550781,-0.1054688 -0.820313,0 -0.984375,0.375 -0.984375,0.5976563 0,0.46875 0.574219,0.5625 1.03125,0.63281247 0.292969,0.046875 0.75,0.1171875 0.75,0.45703125 0,0.17578125 -0.140625,0.43359375 -0.75,0.43359375 -0.339844,0 -0.667969,-0.12890625 -0.820313,-0.65625 -0.02344,-0.09375 -0.02344,-0.10546875 -0.105468,-0.10546875 -0.105469,0 -0.105469,0.0351563 -0.105469,0.140625 v 0.64453125 c 0,0.082031255 0,0.140625 0.08203,0.140625 0.03516,0 0.03516,-0.01171875 0.128906,-0.10546875 l 0.140625,-0.1171875 c 0.246094,0.2109375 0.5625,0.22265625 0.679688,0.22265625 0.832031,0 0.996094,-0.43359375 0.996094,-0.69140625 z m 2.569335,0 v -0.26953125 h -0.210937 v 0.2578125 c 0,0.375 -0.222656,0.515625 -0.398438,0.515625 -0.375,0 -0.375,-0.3984375 -0.375,-0.50390625 V -1.9212344 h 0.878907 v -0.2226562 h -0.878907 v -0.9140625 h -0.210937 c -0.01172,0.46875 -0.257813,0.9492187 -0.761719,0.9609375 v 0.1757812 h 0.527344 v 1.28906252 c 0,0.57421875 0.46875,0.69140625 0.773437,0.69140625 0.375,0 0.65625,-0.28125 0.65625,-0.69140625 z m 2.876954,-1.23046872 c 0,-0.1875 -0.1875,-0.3398438 -0.445313,-0.3398438 -0.246094,0 -0.574219,0.1289063 -0.761719,0.5507813 H 18.5081 v -0.5507813 l -0.796875,0.058594 v 0.2226562 c 0.375,0 0.421875,0.023437 0.421875,0.2695313 v 1.23046872 c 0,0.15234375 0,0.19921875 -0.328125,0.19921875 h -0.09375 V 6.40625e-4 C 17.922164,-0.01107813 18.14482,-0.02279688 18.355758,-0.02279688 L 19.070602,6.40625e-4 V -0.22201563 h -0.140625 c -0.375,0 -0.375,-0.046875 -0.375,-0.19921875 V -1.1126406 c 0,-0.46875 0.257812,-0.9140625 0.738281,-0.9257813 0,0 -0.07031,0.070312 -0.07031,0.1757813 0,0.1875 0.140625,0.2578125 0.246094,0.2578125 0.128906,0 0.257813,-0.082031 0.257813,-0.2578125 z m 3.471679,1.41796872 v -0.28125 h -0.210937 v 0.26953125 c 0,0.046875 0,0.26953125 -0.199219,0.26953125 -0.199219,0 -0.199219,-0.22265625 -0.199219,-0.26953125 V -1.4759219 c 0,-0.4804687 -0.503906,-0.75 -1.125,-0.75 -0.304687,0 -0.878906,0.011719 -0.878906,0.4335938 0,0.1875 0.140625,0.2695312 0.269531,0.2695312 0.128907,0 0.257813,-0.09375 0.257813,-0.2695312 0,-0.1171875 -0.07031,-0.1875 -0.117188,-0.2226563 0.164063,-0.046875 0.410157,-0.046875 0.46875,-0.046875 0.421875,0 0.679688,0.234375 0.679688,0.5859375 v 0.1289063 c -0.480469,0.023437 -0.75,0.046875 -1.136719,0.1757812 -0.328125,0.1171875 -0.609375,0.32812502 -0.609375,0.64453127 0,0.46875 0.574219,0.5859375 0.972656,0.5859375 0.386719,0 0.679688,-0.1640625 0.832032,-0.41015625 0.02344,0.17578125 0.140625,0.38671875 0.386718,0.38671875 0.03516,0 0.609375,0 0.609375,-0.48046875 z m -1.054687,-0.2578125 c 0,0.5390625 -0.597656,0.59765625 -0.714844,0.59765625 -0.292969,0 -0.574219,-0.1640625 -0.574219,-0.421875 0,-0.1640625 0.105469,-0.62109377 1.289063,-0.66796877 z M 25.055953,6.40625e-4 V -0.22201563 c -0.339844,0 -0.375,0 -0.375,-0.19921875 V -2.2024844 l -0.820312,0.058594 v 0.2226562 c 0.351562,0 0.398437,0.023437 0.398437,0.2695313 v 1.23046872 c 0,0.15234375 0,0.19921875 -0.328125,0.19921875 h -0.09375 V 6.40625e-4 c 0.210938,-0.011718755 0.421875,-0.023437505 0.621094,-0.023437505 0.1875,0 0.410156,0.01171875 0.597656,0.023437505 z M 24.727828,-2.9876406 c 0,-0.1640625 -0.128906,-0.3046875 -0.304687,-0.3046875 -0.164063,0 -0.292969,0.140625 -0.292969,0.3046875 0,0.1640625 0.128906,0.3046875 0.292969,0.3046875 0.164062,0 0.304687,-0.140625 0.304687,-0.3046875 z M 28.83232,6.40625e-4 V -0.22201563 h -0.08203 c -0.328125,0 -0.328125,-0.046875 -0.328125,-0.19921875 V -1.4993594 c 0,-0.5507812 -0.375,-0.703125 -0.832031,-0.703125 -0.539063,0 -0.820313,0.2929688 -0.925781,0.4921875 v -0.4921875 l -0.820313,0.058594 v 0.2226562 c 0.363281,0 0.410156,0.023437 0.410156,0.2695313 v 1.23046872 c 0,0.15234375 0,0.19921875 -0.316406,0.19921875 H 25.84404 V 6.40625e-4 c 0.210938,-0.011718755 0.421875,-0.023437505 0.632813,-0.023437505 0.210937,0 0.421875,0.01171875 0.632812,0.023437505 V -0.22201563 h -0.08203 c -0.328125,0 -0.328125,-0.046875 -0.328125,-0.19921875 V -1.2884219 c 0,-0.5625 0.515625,-0.75 0.832031,-0.75 0.363281,0 0.445313,0.2109375 0.445313,0.5273438 v 1.08984372 c 0,0.15234375 0,0.19921875 -0.316407,0.19921875 h -0.09375 V 6.40625e-4 c 0.210938,-0.011718755 0.421875,-0.023437505 0.632813,-0.023437505 0.210937,0 0.421875,0.01171875 0.632812,0.023437505 z m 2.384766,-0.632812505 v -0.26953125 h -0.210938 v 0.2578125 c 0,0.375 -0.222656,0.515625 -0.398437,0.515625 -0.375,0 -0.375,-0.3984375 -0.375,-0.50390625 V -1.9212344 h 0.878906 v -0.2226562 h -0.878906 v -0.9140625 h -0.210938 c -0.01172,0.46875 -0.257812,0.9492187 -0.761718,0.9609375 v 0.1757812 h 0.527343 v 1.28906252 c 0,0.57421875 0.46875,0.69140625 0.773438,0.69140625 0.375,0 0.65625,-0.28125 0.65625,-0.69140625 z m 0,0"
       style="fill:#666666;fill-opacity:1;fill-rule:nonzero;stroke:none"
       aria-label="Constraint"
       transform="matrix(1.3333333,0,0,1.3333333,70.428,183.74133)" />
    <path
       id="path13"
       d="m 1.3819766,-3.5267031 c 0,-0.082031 0,-0.2109375 -0.140625,-0.2109375 -0.140625,0 -0.140625,0.1523437 -0.140625,0.234375 v 4.5234375 c 0,0.082031 0,0.2226562 0.140625,0.2226562 0.140625,0 0.140625,-0.1289062 0.140625,-0.1992187 z m 1.1835937,0.023437 c 0,-0.082031 0,-0.234375 -0.140625,-0.234375 -0.140625,0 -0.140625,0.1289062 -0.140625,0.2109375 v 4.5703125 c 0,0.070312 0,0.1992187 0.140625,0.1992187 0.140625,0 0.140625,-0.140625 0.140625,-0.2226562 z m 0,0"
       style="fill:#666666;fill-opacity:1;fill-rule:nonzero;stroke:none"
       aria-label="k"
       transform="matrix(1.3333333,0,0,1.3333333,115.82533,183.74133)" />
    <path
       id="path14"
       d="m 1.7813828,-2.1673281 c -0.65625,0.140625 -1.25390624,0.703125 -1.25390624,1.32421872 0,0.57421875 0.49218754,0.9140625 1.03125004,0.9140625 0.5859375,0 1.1601562,-0.59765625 1.1601562,-1.39453122 0,-0.5273438 -0.2929687,-0.8085938 -0.5976562,-1.0898438 -0.1523438,-0.140625 -0.5507813,-0.5390625 -0.5507813,-0.7382812 0,-0.058594 0.058594,-0.1992188 0.2695313,-0.1992188 0.1640625,0 0.328125,0.070312 0.4804687,0.1523438 0.035156,0.011719 0.2695313,0.140625 0.3632813,0.140625 0.1054687,0 0.234375,-0.09375 0.234375,-0.234375 0,-0.1289063 -0.082031,-0.1523438 -0.3867188,-0.2109375 -0.2226562,-0.035156 -0.4101562,-0.058594 -0.5390625,-0.058594 -0.4804687,0 -0.609375,0.2929688 -0.609375,0.515625 0,0.3046875 0.2460938,0.65625 0.3984375,0.8789065 z m 0.1171875,0.1640625 c 0.2578125,0.3398437 0.3867188,0.5859375 0.3867188,0.9023437 0,0.45703127 -0.3046875,0.99609377 -0.7148438,0.99609377 -0.1757812,0 -0.64453124,-0.0585937 -0.64453124,-0.62109375 0,-0.39843752 0.24609374,-1.13671872 0.97265624,-1.27734372 z m 0,0"
       style="fill:#666666;fill-opacity:1;fill-rule:nonzero;stroke:none"
       aria-label="δ"
       transform="matrix(1.3333333,0,0,1.3333333,120.71467,183.74133)" />
    <path
       id="path15"
       d="m 1.3828906,-3.5267031 c 0,-0.082031 0,-0.2109375 -0.140625,-0.2109375 -0.140625,0 -0.140625,0.1523437 -0.140625,0.234375 v 4.5234375 c 0,0.082031 0,0.2226562 0.140625,0.2226562 0.140625,0 0.140625,-0.1289062 0.140625,-0.1992187 z m 1.1835938,0.023437 c 0,-0.082031 0,-0.234375 -0.140625,-0.234375 -0.140625,0 -0.140625,0.1289062 -0.140625,0.2109375 v 4.5703125 c 0,0.070312 0,0.1992187 0.140625,0.1992187 0.140625,0 0.140625,-0.140625 0.140625,-0.2226562 z m 7.6259766,0.2109375 c 0.05859,-0.035156 0.105469,-0.070312 0.105469,-0.1523438 0,-0.070312 -0.05859,-0.140625 -0.140625,-0.140625 -0.02344,0 -0.04687,0.011719 -0.09375,0.035156 l -3.4453128,1.5703125 c -0.070312,0.035156 -0.1171875,0.070312 -0.1171875,0.1523437 0,0.070312 0.046875,0.1054688 0.1171875,0.140625 l 3.4335938,1.57031252 c 0.07031,0.03515625 0.09375,0.03515625 0.105469,0.03515625 0.08203,0 0.140625,-0.0703125 0.140625,-0.140625 0,-0.0820313 -0.04687,-0.1171875 -0.117188,-0.15234375 L 6.9698047,-1.8274844 Z m -0.105469,4.3945312 c 0.08203,0 0.210938,0 0.210938,-0.14062498 0,-0.140625 -0.140625,-0.140625 -0.210938,-0.140625 H 6.7119922 c -0.070312,0 -0.2109375,0 -0.2109375,0.140625 0,0.14062498 0.1289062,0.14062498 0.2109375,0.14062498 z m 0,0"
       style="fill:#666666;fill-opacity:1;fill-rule:nonzero;stroke:none"
       aria-label="k≤"
       transform="matrix(1.3333333,0,0,1.3333333,125.27333,183.74133)" />
  </g>
</svg>
