<?xml version="1.0" encoding="UTF-8"?>
<svg xmlns="http://www.w3.org/2000/svg" viewBox="0 0 680 420" font-family="Helvetica Neue, Helvetica, Arial, sans-serif">
  <defs>
    <style>
      .title    { font-size: 13px; font-weight: 700; fill: #333; text-anchor: middle; }
      .subtitle { font-size: 10px; fill: #777; text-anchor: middle; font-style: italic; }
      .label    { font-size: 9px; fill: #555; text-anchor: middle; }
      .callout  { font-size: 9px; fill: #a31f34; font-weight: 600; }
      .ann      { font-size: 8.5px; fill: #888; font-style: italic; }
      .cell-border { stroke: #ddd; stroke-width: 0.5; }
    </style>
    <clipPath id="cell-clip">
      <rect width="50" height="50" rx="4" />
    </clipPath>
  </defs>

  <!-- Title -->
  <text x="340" y="20" class="title">Convolutional Kernel Weights</text>
  <text x="340" y="40" class="subtitle">First-layer filters learn oriented edges, color blobs, and frequency patterns</text>

  <!-- Row 0 -->
  <g transform="translate(80, 60)">
    <g clip-path="url(#cell-clip)">
      <rect width="50" height="50" fill="#f0f0f0" />
      <rect width="50" height="25" fill="#4a7fb5" />
      <rect y="25" width="50" height="25" fill="#c97040" />
    </g>
    <rect width="50" height="50" rx="4" fill="none" class="cell-border" />
  </g>

  <g transform="translate(140, 60)">
    <g clip-path="url(#cell-clip)">
      <rect width="50" height="50" fill="#f0f0f0" />
      <rect width="25" height="50" fill="#5a9a5a" />
      <rect x="25" width="25" height="50" fill="#b04040" />
    </g>
    <rect width="50" height="50" rx="4" fill="none" class="cell-border" />
  </g>

  <g transform="translate(200, 60)">
    <g clip-path="url(#cell-clip)">
      <rect width="50" height="50" fill="#e0e0e0" />
      <polygon points="0,0 50,0 0,50" fill="#6088b0" />
      <polygon points="50,0 50,50 0,50" fill="#d0a060" />
    </g>
    <rect width="50" height="50" rx="4" fill="none" class="cell-border" />
  </g>

  <g transform="translate(260, 60)">
    <g clip-path="url(#cell-clip)">
      <rect width="50" height="50" fill="#e0e0e0" />
      <polygon points="0,0 50,0 50,50" fill="#80a060" />
      <polygon points="0,0 0,50 50,50" fill="#a06080" />
    </g>
    <rect width="50" height="50" rx="4" fill="none" class="cell-border" />
  </g>

  <g transform="translate(320, 60)">
    <g clip-path="url(#cell-clip)">
      <rect width="50" height="50" fill="#7090b0" />
      <rect x="12.5" y="12.5" width="25" height="25" rx="4" fill="#e0c090" />
    </g>
    <rect width="50" height="50" rx="4" fill="none" class="cell-border" />
  </g>

  <g transform="translate(380, 60)">
    <g clip-path="url(#cell-clip)">
      <rect width="50" height="50" fill="#d0d0d0" />
      <rect y="2" width="50" height="10" fill="#506080" />
      <rect y="20" width="50" height="10" fill="#506080" />
      <rect y="38" width="50" height="10" fill="#506080" />
    </g>
    <rect width="50" height="50" rx="4" fill="none" class="cell-border" />
  </g>

  <g transform="translate(440, 60)">
    <g clip-path="url(#cell-clip)">
      <rect width="50" height="50" fill="#c07040" />
      <circle cx="25" cy="25" r="15" fill="#e09050" />
    </g>
    <rect width="50" height="50" rx="4" fill="none" class="cell-border" />
  </g>

  <g transform="translate(500, 60)">
    <g clip-path="url(#cell-clip)">
      <rect width="50" height="50" fill="#406080" />
      <circle cx="25" cy="25" r="15" fill="#5090c0" />
    </g>
    <rect width="50" height="50" rx="4" fill="none" class="cell-border" />
  </g>

  <!-- Row 1 -->
  <g transform="translate(80, 120)">
    <g clip-path="url(#cell-clip)">
      <rect width="50" height="50" fill="#c0c0c0" />
      <rect y="0" width="50" height="12.5" fill="#8060a0" />
      <rect y="25" width="50" height="12.5" fill="#8060a0" />
    </g>
    <rect width="50" height="50" rx="4" fill="none" class="cell-border" />
  </g>

  <g transform="translate(140, 120)">
    <g clip-path="url(#cell-clip)">
      <rect width="50" height="50" fill="#e8d8c0" />
      <rect x="0" width="12.5" height="50" fill="#a08060" />
      <rect x="25" width="12.5" height="50" fill="#a08060" />
    </g>
    <rect width="50" height="50" rx="4" fill="none" class="cell-border" />
  </g>

  <g transform="translate(200, 120)">
    <g clip-path="url(#cell-clip)">
      <rect width="50" height="50" fill="#90b090" />
      <polygon points="0,0 50,0 25,50" fill="#c0e0c0" />
    </g>
    <rect width="50" height="50" rx="4" fill="none" class="cell-border" />
  </g>

  <g transform="translate(260, 120)">
    <g clip-path="url(#cell-clip)">
      <rect width="50" height="50" fill="#b0a090" />
      <circle cx="25" cy="25" r="19" fill="#d0c0a0" />
      <circle cx="25" cy="25" r="8" fill="#907060" />
    </g>
    <rect width="50" height="50" rx="4" fill="none" class="cell-border" />
  </g>

  <g transform="translate(320, 120)">
    <g clip-path="url(#cell-clip)">
      <rect width="50" height="50" fill="#506870" />
      <rect x="12.5" width="25" height="50" fill="#80a0a0" />
    </g>
    <rect width="50" height="50" rx="4" fill="none" class="cell-border" />
  </g>

  <g transform="translate(380, 120)">
    <g clip-path="url(#cell-clip)">
      <rect width="50" height="50" fill="#d0b0a0" />
      <polygon points="0,50 50,50 50,0" fill="#a08070" />
    </g>
    <rect width="50" height="50" rx="4" fill="none" class="cell-border" />
  </g>

  <g transform="translate(440, 120)">
    <g clip-path="url(#cell-clip)">
      <rect width="50" height="50" fill="#b0c0d0" />
      <rect y="15" width="50" height="20" fill="#6090c0" />
    </g>
    <rect width="50" height="50" rx="4" fill="none" class="cell-border" />
  </g>

  <g transform="translate(500, 120)">
    <g clip-path="url(#cell-clip)">
      <rect width="50" height="50" fill="#d0d0b0" />
      <circle cx="25" cy="25" r="17" fill="#a0b060" />
    </g>
    <rect width="50" height="50" rx="4" fill="none" class="cell-border" />
  </g>

  <!-- Row 2 -->
  <g transform="translate(80, 180)">
    <g clip-path="url(#cell-clip)">
      <rect width="50" height="50" fill="#b09080" />
      <rect y="12.5" width="50" height="25" fill="#d0b090" />
    </g>
    <rect width="50" height="50" rx="4" fill="none" class="cell-border" />
  </g>

  <g transform="translate(140, 180)">
    <g clip-path="url(#cell-clip)">
      <rect width="50" height="50" fill="#708090" />
      <polygon points="0,0 50,0 25,50" fill="#90b0d0" />
    </g>
    <rect width="50" height="50" rx="4" fill="none" class="cell-border" />
  </g>

  <g transform="translate(200, 180)">
    <g clip-path="url(#cell-clip)">
      <rect width="50" height="50" fill="#c0a0a0" />
      <circle cx="25" cy="25" r="12.5" fill="#e0c0c0" />
    </g>
    <rect width="50" height="50" rx="4" fill="none" class="cell-border" />
  </g>

  <g transform="translate(260, 180)">
    <g clip-path="url(#cell-clip)">
      <rect width="50" height="50" fill="#a0c0a0" />
      <rect x="0" y="0" width="25" height="25" fill="#70a070" />
      <rect x="25" y="25" width="25" height="25" fill="#70a070" />
    </g>
    <rect width="50" height="50" rx="4" fill="none" class="cell-border" />
  </g>

  <g transform="translate(320, 180)">
    <g clip-path="url(#cell-clip)">
      <rect width="50" height="50" fill="#c0b0d0" />
      <rect y="0" width="50" height="16.5" fill="#9080b0" />
      <rect y="33.5" width="50" height="16.5" fill="#9080b0" />
    </g>
    <rect width="50" height="50" rx="4" fill="none" class="cell-border" />
  </g>

  <g transform="translate(380, 180)">
    <g clip-path="url(#cell-clip)">
      <rect width="50" height="50" fill="#80a0b0" />
      <circle cx="25" cy="25" r="21" fill="#a0c0d0" />
    </g>
    <rect width="50" height="50" rx="4" fill="none" class="cell-border" />
  </g>

  <g transform="translate(440, 180)">
    <g clip-path="url(#cell-clip)">
      <rect width="50" height="50" fill="#c0a070" />
      <polygon points="0,0 50,50 0,50" fill="#e0c090" />
    </g>
    <rect width="50" height="50" rx="4" fill="none" class="cell-border" />
  </g>

  <g transform="translate(500, 180)">
    <g clip-path="url(#cell-clip)">
      <rect width="50" height="50" fill="#a09080" />
      <rect x="0" width="16.5" height="50" fill="#c0b0a0" />
      <rect x="33.5" width="16.5" height="50" fill="#c0b0a0" />
    </g>
    <rect width="50" height="50" rx="4" fill="none" class="cell-border" />
  </g>

  <!-- Row 3 -->
  <g transform="translate(80, 240)">
    <g clip-path="url(#cell-clip)">
      <rect width="50" height="50" fill="#d0c0b0" />
      <rect x="12.5" y="12.5" width="25" height="25" rx="4" fill="#a09080" />
    </g>
    <rect width="50" height="50" rx="4" fill="none" class="cell-border" />
  </g>

  <g transform="translate(140, 240)">
    <g clip-path="url(#cell-clip)">
      <rect width="50" height="50" fill="#6080a0" />
      <polygon points="0,0 50,0 50,50" fill="#80a0c0" />
    </g>
    <rect width="50" height="50" rx="4" fill="none" class="cell-border" />
  </g>

  <g transform="translate(200, 240)">
    <g clip-path="url(#cell-clip)">
      <rect width="50" height="50" fill="#c0c0a0" />
      <rect x="0" y="0" width="50" height="25" fill="#a0a080" />
    </g>
    <rect width="50" height="50" rx="4" fill="none" class="cell-border" />
  </g>

  <g transform="translate(260, 240)">
    <g clip-path="url(#cell-clip)">
      <rect width="50" height="50" fill="#90a0b0" />
      <circle cx="25" cy="25" r="14" fill="#607090" />
    </g>
    <rect width="50" height="50" rx="4" fill="none" class="cell-border" />
  </g>

  <g transform="translate(320, 240)">
    <g clip-path="url(#cell-clip)">
      <rect width="50" height="50" fill="#c0a090" />
      <polygon points="0,50 50,50 25,0" fill="#a08070" />
    </g>
    <rect width="50" height="50" rx="4" fill="none" class="cell-border" />
  </g>

  <g transform="translate(380, 240)">
    <g clip-path="url(#cell-clip)">
      <rect width="50" height="50" fill="#a0b0a0" />
      <rect x="0" y="0" width="25" height="50" fill="#80a080" />
    </g>
    <rect width="50" height="50" rx="4" fill="none" class="cell-border" />
  </g>

  <g transform="translate(440, 240)">
    <g clip-path="url(#cell-clip)">
      <rect width="50" height="50" fill="#b090a0" />
      <rect x="12.5" y="0" width="25" height="50" fill="#d0b0c0" />
    </g>
    <rect width="50" height="50" rx="4" fill="none" class="cell-border" />
  </g>

  <g transform="translate(500, 240)">
    <g clip-path="url(#cell-clip)">
      <rect width="50" height="50" fill="#a0b0c0" />
      <rect x="0" y="12.5" width="50" height="25" fill="#7090b0" />
    </g>
    <rect width="50" height="50" rx="4" fill="none" class="cell-border" />
  </g>

  <!-- Row 4 -->
  <g transform="translate(80, 300)">
    <g clip-path="url(#cell-clip)">
      <rect width="50" height="50" fill="#b0b0b0" />
      <rect x="12.5" y="12.5" width="25" height="25" fill="#909090" />
    </g>
    <rect width="50" height="50" rx="4" fill="none" class="cell-border" />
  </g>

  <g transform="translate(140, 300)">
    <g clip-path="url(#cell-clip)">
      <rect width="50" height="50" fill="#808080" />
    </g>
    <rect width="50" height="50" rx="4" fill="none" class="cell-border" />
  </g>

  <g transform="translate(200, 300)">
    <g clip-path="url(#cell-clip)">
      <rect width="50" height="50" fill="#c0c0c0" />
      <rect width="50" height="50" fill="#b8b8b8" />
    </g>
    <rect width="50" height="50" rx="4" fill="none" class="cell-border" />
  </g>

  <g transform="translate(260, 300)">
    <g clip-path="url(#cell-clip)">
      <rect width="50" height="50" fill="#a0a0a0" />
    </g>
    <rect width="50" height="50" rx="4" fill="none" class="cell-border" />
  </g>

  <g transform="translate(320, 300)">
    <g clip-path="url(#cell-clip)">
      <rect width="50" height="50" fill="#909090" />
    </g>
    <rect width="50" height="50" rx="4" fill="none" class="cell-border" />
  </g>

  <g transform="translate(380, 300)">
    <g clip-path="url(#cell-clip)">
      <rect width="50" height="50" fill="#b0b0b0" />
    </g>
    <rect width="50" height="50" rx="4" fill="none" class="cell-border" />
  </g>

  <g transform="translate(440, 300)">
    <g clip-path="url(#cell-clip)">
      <rect width="50" height="50" fill="#a0a0a0" />
      <rect width="50" height="50" fill="#999" />
    </g>
    <rect width="50" height="50" rx="4" fill="none" class="cell-border" />
  </g>

  <g transform="translate(500, 300)">
    <g clip-path="url(#cell-clip)">
      <rect width="50" height="50" fill="#c0c0c0" />
    </g>
    <rect width="50" height="50" rx="4" fill="none" class="cell-border" />
  </g>

  <!-- Right-side annotations -->
  <text x="580" y="80" class="callout">Oriented edges</text>
  <text x="580" y="90" class="ann">Gabor-like filters</text>

  <text x="580" y="140" class="callout">Color blobs</text>
  <text x="580" y="150" class="ann">Chromatic features</text>

  <text x="580" y="200" class="callout">Frequency</text>
  <text x="580" y="210" class="ann">Texture patterns</text>

  <text x="580" y="260" class="callout">Mixed features</text>
  <text x="580" y="270" class="ann">Center-surround</text>

  <text x="580" y="320" class="callout" fill="#888">Dead filters</text>
  <text x="580" y="330" class="ann">Uniform = no learning</text>

  <!-- Bottom note -->
  <text x="340" y="390" font-size="9" fill="#999" text-anchor="middle" font-style="italic">First-layer convolutional filters (8 x 5 grid); dead filters indicate pruning candidates</text>

</svg>