<?xml version="1.0" encoding="UTF-8" standalone="no"?>
<!-- Created with Inkscape (http://www.inkscape.org/) -->

<svg
   version="1.1"
   id="svg1"
   width="390.48132"
   height="365.54001"
   viewBox="0 0 390.48132 365.54001"
   xmlns="http://www.w3.org/2000/svg"
   xmlns:svg="http://www.w3.org/2000/svg">
  <defs
     id="defs1" />
  <g
     id="g1">
    <path
       id="path1"
       d="m 51.39787,0.3736 h 51.02425 V 170.45452 H 51.39787 Z"
       style="fill:#feedf7;fill-opacity:1;fill-rule:nonzero;stroke:#000000;stroke-width:0.74721;stroke-linecap:butt;stroke-linejoin:miter;stroke-miterlimit:10;stroke-dasharray:none;stroke-opacity:1"
       transform="matrix(0.93333333,0,0,-0.93333333,214.3344,186.75627)" />
    <path
       id="path2"
       d="m 0.62267,0.62267 h 187.089 V 170.70359 H 0.62267 Z"
       style="fill:none;stroke:#000000;stroke-width:1.24535;stroke-linecap:butt;stroke-linejoin:round;stroke-miterlimit:10;stroke-dasharray:none;stroke-opacity:1"
       transform="matrix(0.93333333,0,0,-0.93333333,214.3344,186.75627)" />
    <path
       id="path3"
       d="m 51.39787,85.41406 h 51.02425 v 25.5121 H 51.39787 Z"
       style="fill:#f799d1;fill-opacity:1;fill-rule:nonzero;stroke:#000000;stroke-width:0.74721;stroke-linecap:butt;stroke-linejoin:round;stroke-miterlimit:10;stroke-dasharray:none;stroke-opacity:1"
       transform="matrix(0.93333333,0,0,-0.93333333,214.3344,186.75627)" />
    <path
       id="path4"
       d="m 0,176.9956 c 1.04604,2.09221 3.48697,3.48697 6.97394,3.48697 h 80.2193 c 3.48696,0 5.92788,1.39478 6.97394,3.48697 1.04605,-2.09219 3.48696,-3.48697 6.97393,-3.48697 h 80.2193 c 3.48697,0 5.92789,-1.39476 6.97394,-3.48697"
       style="fill:none;stroke:#000000;stroke-width:0.79701;stroke-linecap:butt;stroke-linejoin:round;stroke-miterlimit:10;stroke-dasharray:none;stroke-opacity:1"
       transform="matrix(0.93333333,0,0,-0.93333333,214.3344,186.75627)" />
    <path
       id="path5"
       d="M 6.4294152,-7.2654933 H 5.5588795 v 5.9430804 L 1.7586563,-7.2654933 H 0.75419196 V 1.3169643e-4 H 1.6414688 V -5.8927254 l 3.75,5.89285709643 h 1.0379464 z m 0,0"
       style="fill:#000000;fill-opacity:1;fill-rule:nonzero;stroke:none"
       aria-label="N"
       transform="matrix(0.93333333,0,0,0.93333333,298.8664,9.7225333)" />
    <path
       id="path6"
       d="m -5.66934,171.32626 c -2.09221,-1.04605 -3.48697,-3.48696 -3.48697,-6.97393 V 92.63707 c 0,-3.48697 -1.39476,-5.9279 -3.48697,-6.97394 2.09221,-1.04605 3.48697,-3.48697 3.48697,-6.97393 V 6.97394 c 0,-3.48697 1.39476,-5.9279 3.48697,-6.97394"
       style="fill:none;stroke:#000000;stroke-width:0.79701;stroke-linecap:butt;stroke-linejoin:round;stroke-miterlimit:10;stroke-dasharray:none;stroke-opacity:1"
       transform="matrix(0.93333333,0,0,-0.93333333,214.3344,186.75627)" />
    <path
       id="path7"
       d="M 1.7096317,-2.544942 2.8982478,-3.733558 5.4596317,-2.9910714e-4 H 6.5645424 L 3.5678906,-4.3027545 6.5310603,-7.2659241 H 5.3257031 L 1.7096317,-3.5828884 V -7.2659241 H 0.78887277 V -2.9910714e-4 H 1.7096317 Z m 0,0"
       style="fill:#000000;fill-opacity:1;fill-rule:nonzero;stroke:none"
       aria-label="K"
       transform="matrix(0.93333333,0,0,0.93333333,191.002,110.11747)" />
    <path
       id="path8"
       d="m 108.46507,111.29977 c 1.49443,-0.74717 2.49069,-2.49069 2.49069,-4.98138 v -3.1669 c 0,-2.49069 0.99627,-4.23421 2.4907,-4.98139 -1.49443,-0.74717 -2.4907,-2.49069 -2.4907,-4.98138 v -3.16688 c 0,-2.4907 -0.99626,-4.23421 -2.49069,-4.98139"
       style="fill:none;stroke:#000000;stroke-width:0.79701;stroke-linecap:butt;stroke-linejoin:round;stroke-miterlimit:10;stroke-dasharray:none;stroke-opacity:1"
       transform="matrix(0.93333333,0,0,-0.93333333,214.3344,186.75627)" />
    <path
       id="path9"
       d="m 1.7067187,-2.5451161 1.1886161,-1.188616 2.5613839,3.73325888571 H 6.5616295 L 3.5649777,-4.3029286 6.5281473,-7.2660982 H 5.3227902 L 1.7067187,-3.5830625 V -7.2660982 H 0.78595982 V -4.7321429e-4 H 1.7067187 Z M 9.1732366,-5.2236875 H 8.319442 V -6.6466786 H 7.4991295 v 1.4229911 H 6.7792634 v 0.6863839 h 0.7198661 v 3.93415181 c 0,0.53571429 0.3515625,0.83705358 1.0044642,0.83705358 0.2008929,0 0.3850447,-0.0334821 0.6696429,-0.0669643 v -0.703125 c -0.1004464,0.0334821 -0.234375,0.0334821 -0.4017857,0.0334821 -0.3515625,0 -0.4520089,-0.10044643 -0.4520089,-0.46875 V -4.5373036 h 0.8537946 z m 1.7327004,0 h -0.820312 v 5.22321428571 h 0.820312 z m 0,-2.0424107 h -0.837053 v 1.0546875 h 0.837053 z m 2.226563,0 H 12.295446 V -4.7321429e-4 H 13.1325 Z m 5.813337,4.9386161 c 0,-0.8035715 -0.05022,-1.2723215 -0.200893,-1.6741072 -0.334821,-0.8537946 -1.138393,-1.3727678 -2.109375,-1.3727678 -1.456473,0 -2.393973,1.1216517 -2.393973,2.829241 0,1.72433039 0.904018,2.77901789 2.360491,2.77901789 1.205357,0 2.02567,-0.68638393 2.243304,-1.82477679 h -0.837054 c -0.234375,0.68638393 -0.703125,1.0546875 -1.372768,1.0546875 -0.518973,0 -0.970982,-0.234375 -1.25558,-0.6863839 -0.200893,-0.2845982 -0.267857,-0.5859375 -0.267857,-1.1049107 z m -3.816964,-0.686384 c 0.06696,-0.954241 0.652902,-1.5904018 1.489955,-1.5904018 0.820313,0 1.439732,0.686384 1.439732,1.5401786 0,0.016741 0,0.033482 0,0.050223 z m 0,0"
       style="fill:#000000;fill-opacity:1;fill-rule:nonzero;stroke:none"
       aria-label="Ktile"
       transform="matrix(0.93333333,0,0,0.93333333,324.618,98.391067)" />
    <path
       id="path10"
       d="m 53.85893,79.37111 c 0.74718,-1.49443 2.49069,-2.49069 4.98139,-2.49069 H 71.9286 c 2.4907,0 4.23421,-0.99626 4.98139,-2.4907 0.74718,1.49444 2.49069,2.4907 4.98138,2.4907 h 13.08831 c 2.49069,0 4.2342,0.99626 4.98138,2.49069"
       style="fill:none;stroke:#000000;stroke-width:0.79701;stroke-linecap:butt;stroke-linejoin:round;stroke-miterlimit:10;stroke-dasharray:none;stroke-opacity:1"
       transform="matrix(0.93333333,0,0,-0.93333333,214.3344,186.75627)" />
    <path
       id="path11"
       d="M 6.4265781,-7.2670937 H 5.5560424 v 5.9430803 L 1.7558192,-7.2670937 H 0.75135491 v 7.26562495 H 1.6386317 V -5.8943259 l 3.75,5.89285715 H 6.4265781 Z M 9.7203839,-5.224683 H 8.8665893 V -6.6476741 H 8.0462768 V -5.224683 H 7.3264107 v 0.6863839 h 0.7198661 v 3.93415178 c 0,0.53571428 0.3515625,0.83705357 1.0044643,0.83705357 0.2008928,0 0.3850446,-0.0334821 0.6696428,-0.0669643 v -0.703125 c -0.1004464,0.0334821 -0.234375,0.0334821 -0.4017857,0.0334821 -0.3515625,0 -0.4520089,-0.10044643 -0.4520089,-0.46875 V -4.5382991 h 0.8537946 z m 1.7327011,0 h -0.820313 v 5.22321425 h 0.820313 z m 0,-2.0424107 h -0.837054 v 1.0546875 h 0.837054 z m 2.226562,0 h -0.837053 v 7.26562495 h 0.837053 z m 5.813337,4.938616 c 0,-0.8035714 -0.05022,-1.2723214 -0.200892,-1.6741071 -0.334822,-0.8537947 -1.138393,-1.3727679 -2.109375,-1.3727679 -1.456474,0 -2.393974,1.1216518 -2.393974,2.8292411 0,1.72433035 0.904018,2.77901785 2.360491,2.77901785 1.205358,0 2.02567,-0.68638393 2.243304,-1.82477675 h -0.837054 c -0.234375,0.68638389 -0.703125,1.05468746 -1.372767,1.05468746 -0.518974,0 -0.970983,-0.234375 -1.255581,-0.68638396 -0.200893,-0.2845982 -0.267857,-0.5859375 -0.267857,-1.1049107 z M 15.67602,-3.0148616 c 0.06696,-0.9542411 0.652902,-1.5904018 1.489955,-1.5904018 0.820313,0 1.439733,0.6863839 1.439733,1.5401786 0,0.016741 0,0.033482 0,0.050223 z m 0,0"
       style="fill:#000000;fill-opacity:1;fill-rule:nonzero;stroke:none"
       aria-label="Ntile"
       transform="matrix(0.93333333,0,0,0.93333333,276.81827,128.35293)" />
    <path
       id="path12"
       d="M 0.78617634,-0.00195759 H 4.0674263 c 0.686384,0 1.1886161,-0.18415178 1.5736608,-0.60267857 0.3683035,-0.38504464 0.5691964,-0.90401784 0.5691964,-1.47321424 0,-0.8705358 -0.4017857,-1.40625 -1.3225447,-1.7578125 0.6529018,-0.3180804 1.0044643,-0.8537947 1.0044643,-1.5904018 0,-0.5189732 -0.2008928,-0.9877232 -0.5859375,-1.3225447 C 4.9379621,-7.1001719 4.4357299,-7.2675826 3.7326049,-7.2675826 H 0.78617634 Z M 1.7069353,-4.1370022 v -2.3102679 h 1.7912946 c 0.5189732,0 0.8203125,0.066964 1.0714286,0.2678572 0.2511161,0.1841517 0.3850446,0.485491 0.3850446,0.8872767 0,0.3850447 -0.1339285,0.703125 -0.3850446,0.9040179 -0.2511161,0.1841518 -0.5524554,0.2511161 -1.0714286,0.2511161 z m 0,3.31473211 V -3.3166897 h 2.2600446 c 0.4520089,0 0.7533482,0.1004464 0.9709822,0.3515625 0.2176339,0.2176339 0.3348214,0.5357143 0.3348214,0.9040178 0,0.3515625 -0.1171875,0.6696429 -0.3348214,0.8872768 -0.217634,0.25111608 -0.5189733,0.35156251 -0.9709822,0.35156251 z M 10.119324,-5.2251719 v 5.22321431 h 0.837053 V -3.2832076 c 0,-0.7533482 0.535715,-1.3560268 1.222098,-1.3560268 0.61942,0 0.970983,0.3683036 0.970983,1.0379465 v 3.59933031 h 0.837053 V -3.2832076 c 0,-0.7533482 0.535714,-1.3560268 1.222098,-1.3560268 0.602679,0 0.954241,0.3850447 0.954241,1.0379465 v 3.59933031 h 0.837054 V -3.9193683 c 0,-0.9375 -0.535714,-1.4564732 -1.506696,-1.4564732 -0.703125,0 -1.121652,0.2176339 -1.607143,0.8035714 -0.30134,-0.5524553 -0.719866,-0.8035714 -1.40625,-0.8035714 -0.686384,0 -1.155134,0.2678571 -1.607143,0.8872768 v -0.7366072 z m 12.919922,4.73772324 c -0.08371,0.0167411 -0.117188,0.0167411 -0.167411,0.0167411 -0.301339,0 -0.452009,-0.15066964 -0.452009,-0.40178571 V -3.9528504 c 0,-0.920759 -0.686384,-1.4229911 -1.958705,-1.4229911 -0.77009,0 -1.389509,0.2176339 -1.741072,0.6194196 -0.234375,0.2678572 -0.334821,0.5691965 -0.351562,1.0714286 h 0.837053 c 0.06696,-0.6361607 0.435268,-0.9207589 1.222098,-0.9207589 0.736608,0 1.155134,0.2845982 1.155134,0.7868303 v 0.217634 c 0,0.3348214 -0.200893,0.485491 -0.853794,0.5691964 -1.188616,0.1506696 -1.356027,0.1841518 -1.674107,0.3180803 -0.61942,0.2511161 -0.920759,0.7198661 -0.920759,1.389509 0,0.95424107 0.652901,1.55691964 1.707589,1.55691964 0.669643,0 1.188616,-0.234375 1.774553,-0.77008928 0.06696,0.51897321 0.318081,0.77008928 0.853795,0.77008928 0.184152,0 0.301339,-0.0334821 0.569197,-0.10044643 z M 21.582772,-1.6425826 c 0,0.2678572 -0.06696,0.4520089 -0.31808,0.66964287 -0.334821,0.31808036 -0.753348,0.46875 -1.238839,0.46875 -0.652902,0 -1.021206,-0.30133929 -1.021206,-0.83705357 0,-0.5357143 0.368304,-0.8203125 1.255581,-0.9542411 0.870535,-0.1171875 1.054687,-0.1506696 1.322544,-0.2845982 z m 4.197824,-3.5825893 h -0.853795 v -1.422991 h -0.820312 v 1.422991 h -0.719866 v 0.686384 h 0.719866 v 3.93415174 c 0,0.53571429 0.351562,0.83705357 1.004464,0.83705357 0.200893,0 0.385045,-0.0334821 0.669643,-0.0669643 v -0.703125 c -0.100446,0.0334821 -0.234375,0.0334821 -0.401786,0.0334821 -0.351562,0 -0.452009,-0.10044643 -0.452009,-0.46875 V -4.5387879 h 0.853795 z m 0.929129,0 v 5.22321431 h 0.837054 V -2.7140112 c 0,-0.7366071 0.184152,-1.2388392 0.585938,-1.5234375 0.267857,-0.1841517 0.502232,-0.251116 1.088169,-0.251116 v -0.8537947 c -0.133928,-0.016741 -0.200893,-0.033482 -0.31808,-0.033482 -0.535714,0 -0.954241,0.3180803 -1.422991,1.1049107 v -0.9542411 z m 4.260603,0 h -0.820312 v 5.22321431 h 0.820312 z m 0,-2.0424107 h -0.837053 v 1.0546875 h 0.837053 z m 3.632813,4.5703125 1.741071,-2.5279018 h -0.920759 l -1.25558,1.8917411 -1.255581,-1.8917411 h -0.954241 l 1.741072,2.561384 -1.841518,2.66183031 h 0.954241 l 1.322545,-2.00892861 1.305803,2.00892861 h 0.954241 z m 0,0"
       style="fill:#000000;fill-opacity:1;fill-rule:nonzero;stroke:none"
       aria-label="Bmatrix"
       transform="matrix(0.93333333,0,0,0.93333333,348.84827,40.505733)" />
    <path
       id="path13"
       d="m 0.62267,-165.03407 h 187.089 V -28.96934 H 0.62267 Z"
       style="fill:none;stroke:#000000;stroke-width:1.24535;stroke-linecap:butt;stroke-linejoin:round;stroke-miterlimit:10;stroke-dasharray:none;stroke-opacity:1"
       transform="matrix(0.93333333,0,0,-0.93333333,214.3344,186.75627)" />
    <path
       id="path14"
       d="m 51.39787,-164.785 h 51.02425 V -28.72027 H 51.39787 Z"
       style="fill:none;stroke:#000000;stroke-width:0.74721;stroke-linecap:butt;stroke-linejoin:round;stroke-miterlimit:10;stroke-dasharray:none;stroke-opacity:1"
       transform="matrix(0.93333333,0,0,-0.93333333,214.3344,186.75627)" />
    <path
       id="path15"
       d="m 0.3736,-165.28314 h 187.089 v 42.5202 H 0.3736 Z"
       style="fill:none;stroke:#000000;stroke-width:0.74721;stroke-linecap:butt;stroke-linejoin:round;stroke-miterlimit:10;stroke-dasharray:none;stroke-opacity:1"
       transform="matrix(0.93333333,0,0,-0.93333333,214.3344,186.75627)" />
    <path
       id="path16"
       d="m 51.39787,-164.785 h 51.02425 v 41.9533 H 51.39787 Z"
       style="fill:#d1f3ff;fill-opacity:1;fill-rule:nonzero;stroke:#000000;stroke-width:0.74721;stroke-linecap:butt;stroke-linejoin:round;stroke-miterlimit:10;stroke-dasharray:none;stroke-opacity:1"
       transform="matrix(0.93333333,0,0,-0.93333333,214.3344,186.75627)" />
    <path
       id="path17"
       d="m 108.46507,-125.29277 c 1.49443,-0.74718 2.49069,-2.49069 2.49069,-4.98138 v -8.55282 c 0,-2.49069 0.99627,-4.2342 2.4907,-4.98138 -1.49443,-0.74718 -2.4907,-2.49069 -2.4907,-4.98138 v -8.55281 c 0,-2.4907 -0.99626,-4.23421 -2.49069,-4.98139"
       style="fill:none;stroke:#000000;stroke-width:0.79701;stroke-linecap:butt;stroke-linejoin:round;stroke-miterlimit:10;stroke-dasharray:none;stroke-opacity:1"
       transform="matrix(0.93333333,0,0,-0.93333333,214.3344,186.75627)" />
    <path
       id="path18"
       d="M 4.6531473,-0.00102679 6.695558,-6.0947768 v 6.09375001 H 7.5828348 V -7.2666518 H 6.2937723 L 4.1843973,-0.93852679 2.0247991,-7.2666518 H 0.75247768 v 7.26562501 H 1.6230134 V -6.0947768 l 2.0591518,6.09375001 z M 10.826417,-5.2242411 H 9.9726228 v -1.422991 H 9.1523103 v 1.422991 H 8.4324442 v 0.686384 h 0.7198661 v 3.93415174 c 0,0.53571429 0.3515625,0.83705357 1.0044647,0.83705357 0.200892,0 0.385044,-0.0334821 0.669642,-0.0669643 v -0.703125 c -0.100446,0.0334821 -0.234375,0.0334821 -0.401785,0.0334821 -0.351563,0 -0.4520092,-0.10044643 -0.4520092,-0.46875 V -4.5378571 h 0.8537942 z m 1.732701,0 h -0.820312 v 5.22321431 h 0.820312 z m 0,-2.0424107 h -0.837053 v 1.0546875 h 0.837053 z m 2.226563,0 h -0.837054 v 7.26562501 h 0.837054 z m 5.813337,4.9386161 c 0,-0.8035714 -0.05022,-1.2723214 -0.200893,-1.6741072 -0.334821,-0.8537946 -1.138393,-1.3727678 -2.109375,-1.3727678 -1.456473,0 -2.393973,1.1216518 -2.393973,2.8292411 0,1.72433031 0.904018,2.77901781 2.360491,2.77901781 1.205357,0 2.025669,-0.68638392 2.243303,-1.82477681 h -0.837053 c -0.234375,0.68638396 -0.703125,1.05468753 -1.372768,1.05468753 -0.518973,0 -0.970982,-0.234375 -1.25558,-0.68638393 -0.200893,-0.2845982 -0.267858,-0.5859375 -0.267858,-1.1049107 z m -3.816964,-0.6863839 c 0.06696,-0.9542411 0.652901,-1.5904018 1.489955,-1.5904018 0.820312,0 1.439732,0.6863839 1.439732,1.5401785 0,0.016741 0,0.033482 0,0.050223 z m 0,0"
       style="fill:#000000;fill-opacity:1;fill-rule:nonzero;stroke:none"
       aria-label="Mtile"
       transform="matrix(0.93333333,0,0,0.93333333,324.618,324.23533)" />
    <path
       id="path19"
       d="m 53.85893,-170.82796 c 0.74718,-1.49443 2.49069,-2.49069 4.98139,-2.49069 H 71.9286 c 2.4907,0 4.23421,-0.99626 4.98139,-2.49069 0.74718,1.49443 2.49069,2.49069 4.98138,2.49069 h 13.08831 c 2.49069,0 4.2342,0.99626 4.98138,2.49069"
       style="fill:none;stroke:#000000;stroke-width:0.79701;stroke-linecap:butt;stroke-linejoin:round;stroke-miterlimit:10;stroke-dasharray:none;stroke-opacity:1"
       transform="matrix(0.93333333,0,0,-0.93333333,214.3344,186.75627)" />
    <path
       id="path20"
       d="M 6.4265781,-7.263596 H 5.5560424 v 5.9430804 L 1.7558192,-7.263596 H 0.75135491 V 0.00202902 H 1.6386317 V -5.8908281 l 3.75,5.89285712 h 1.0379464 z m 3.2938058,2.0424107 H 8.8665893 v -1.422991 H 8.0462768 v 1.422991 H 7.3264107 v 0.686384 h 0.7198661 v 3.93415175 c 0,0.53571428 0.3515625,0.83705357 1.0044643,0.83705357 0.2008928,0 0.3850446,-0.0334821 0.6696428,-0.0669643 v -0.703125 c -0.1004464,0.0334821 -0.234375,0.0334821 -0.4017857,0.0334821 -0.3515625,0 -0.4520089,-0.10044643 -0.4520089,-0.46875 V -4.5348013 h 0.8537946 z m 1.7327011,0 h -0.820313 v 5.22321432 h 0.820313 z m 0,-2.0424107 h -0.837054 v 1.0546875 h 0.837054 z m 2.226562,0 h -0.837053 v 7.26562502 h 0.837053 z m 5.813337,4.9386161 c 0,-0.8035714 -0.05022,-1.2723214 -0.200892,-1.6741072 -0.334822,-0.8537946 -1.138393,-1.3727678 -2.109375,-1.3727678 -1.456474,0 -2.393974,1.1216518 -2.393974,2.8292411 0,1.72433032 0.904018,2.77901782 2.360491,2.77901782 1.205358,0 2.02567,-0.68638393 2.243304,-1.82477682 h -0.837054 c -0.234375,0.68638396 -0.703125,1.05468753 -1.372767,1.05468753 -0.518974,0 -0.970983,-0.234375 -1.255581,-0.68638393 -0.200893,-0.2845982 -0.267857,-0.5859375 -0.267857,-1.1049107 z M 15.67602,-3.0113638 c 0.06696,-0.9542411 0.652902,-1.5904018 1.489955,-1.5904018 0.820313,0 1.439733,0.6863839 1.439733,1.5401785 0,0.016741 0,0.033482 0,0.050223 z m 0,0"
       style="fill:#000000;fill-opacity:1;fill-rule:nonzero;stroke:none"
       aria-label="Ntile"
       transform="matrix(0.93333333,0,0,0.93333333,276.81827,361.8692)" />
    <path
       id="path21"
       d="M 0.78495313,-7.9017857e-4 H 4.0662031 c 0.686384,0 1.1886161,-0.18415178143 1.5736607,-0.60267857143 0.3683036,-0.38504464 0.5691965,-0.90401785 0.5691965,-1.47321425 0,-0.8705357 -0.4017857,-1.40625 -1.3225447,-1.7578125 0.6529018,-0.3180804 1.0044643,-0.8537947 1.0044643,-1.5904018 0,-0.5189732 -0.2008928,-0.9877232 -0.5859375,-1.3225447 C 4.9367388,-7.0990045 4.4345067,-7.2664152 3.7313817,-7.2664152 H 0.78495313 Z M 1.7057121,-4.1358348 v -2.3102679 h 1.7912946 c 0.5189732,0 0.8203125,0.066964 1.0714286,0.2678572 0.251116,0.1841518 0.3850446,0.485491 0.3850446,0.8872768 0,0.3850446 -0.1339286,0.703125 -0.3850446,0.9040178 -0.2511161,0.1841518 -0.5524554,0.2511161 -1.0714286,0.2511161 z m 0,3.31473212 V -3.3155223 h 2.2600446 c 0.4520089,0 0.7533482,0.1004464 0.9709821,0.3515625 0.217634,0.2176339 0.3348215,0.5357143 0.3348215,0.9040178 0,0.3515625 -0.1171875,0.6696429 -0.3348215,0.8872768 -0.2176339,0.25111609 -0.5189732,0.35156252 -0.9709821,0.35156252 z M 8.1510246,-7.2664152 H 7.313971 v 7.26562502143 h 0.8370536 z m 3.4193634,1.8917411 c -1.473214,0 -2.3604907,1.0546875 -2.3604907,2.7957589 0,1.75781252 0.8872767,2.81250002 2.3604907,2.81250002 1.473215,0 2.360491,-1.0546875 2.360491,-2.76227682 0,-1.8080357 -0.853794,-2.8459821 -2.360491,-2.8459821 z m 0,0.7700893 c 0.9375,0 1.506697,0.7700893 1.506697,2.0591518 0,1.2220982 -0.585938,2.00892854 -1.506697,2.00892854 -0.920759,0 -1.489955,-0.77008924 -1.489955,-2.04241074 0,-1.2388393 0.569196,-2.0256696 1.489955,-2.0256696 z m 7.512556,1.1383928 c -0.03348,-0.5022321 -0.150669,-0.8370535 -0.351562,-1.1216517 -0.351563,-0.4854911 -0.970982,-0.7868304 -1.70759,-0.7868304 -1.40625,0 -2.327009,1.1216518 -2.327009,2.8459821 0,1.69084825 0.904018,2.76227682 2.310268,2.76227682 1.255581,0 2.042411,-0.75334821 2.142857,-2.02566962 h -0.837053 c -0.133929,0.83705355 -0.569197,1.25558034 -1.272322,1.25558034 -0.920758,0 -1.473214,-0.75334824 -1.473214,-1.99218754 0,-1.2890625 0.535714,-2.0758928 1.439732,-2.0758928 0.703125,0 1.138393,0.4185268 1.23884,1.1383928 z m 1.502511,-3.8002232 h -0.820312 v 7.26562502143 h 0.820312 V -2.0264598 l 0.803572,-0.8035714 1.757812,2.82924102143 h 1.037947 L 22.041929,-3.4159687 23.866705,-5.2240045 h -1.071428 l -2.209822,2.2098215 z m 0,0"
       style="fill:#000000;fill-opacity:1;fill-rule:nonzero;stroke:none"
       aria-label="Block"
       transform="matrix(0.93333333,0,0,0.93333333,317.30253,291.6648)" />
    <path
       id="path22"
       d="M 0.4868125,-3.6669442 V -6.4955357e-4 H 1.07275 V -2.2941763 c 0,-0.5357143 0.3850446,-0.9542411 0.8705357,-0.9542411 0.4185268,0 0.6696429,0.2678571 0.6696429,0.7198661 V -6.4955357e-4 H 3.1988661 V -2.2941763 c 0,-0.5357143 0.3850446,-0.9542411 0.8537946,-0.9542411 0.4352679,0 0.6863839,0.2678571 0.6863839,0.7198661 V -6.4955357e-4 H 5.3249821 V -2.7461853 c 0,-0.6529018 -0.3850446,-1.0212053 -1.0714285,-1.0212053 -0.4854911,0 -0.7700893,0.1506696 -1.1216518,0.5691964 -0.2176339,-0.4017857 -0.5022322,-0.5691964 -0.9877232,-0.5691964 -0.4854911,0 -0.8035715,0.1841518 -1.1216518,0.6194196 v -0.5189732 z m 5.9263393,2.94642857 V -6.4955357e-4 H 6.8316786 V 0.13327902 c 0,0.46875 -0.083705,0.61941964 -0.4185268,0.61941964 V 1.0205558 c 0.4854911,0 0.7366071,-0.30133928 0.7366071,-0.90401785 V -0.72051563 Z M 8.2337433,-3.6669442 V -6.4955357e-4 H 8.8196808 V -2.0263192 c 0,-0.7366071 0.4017857,-1.2220982 0.9877232,-1.2220982 0.46875,0 0.753348,0.2678571 0.753348,0.7198661 V -6.4955357e-4 H 11.14669 V -2.7629263 c 0,-0.6026786 -0.452009,-1.0044643 -1.1551342,-1.0044643 -0.5524554,0 -0.9040179,0.2176339 -1.2220982,0.719866 v -0.6194196 z m 0,0"
       style="fill:#000000;fill-opacity:1;fill-rule:nonzero;stroke:none"
       aria-label="m,n"
       transform="matrix(0.93333333,0,0,0.93333333,342.43627,293.0592)" />
    <path
       id="path23"
       d="M -199.05026,-165.03407 H -28.96934 V -28.96934 H -199.05026 Z"
       style="fill:none;stroke:#000000;stroke-width:1.24535;stroke-linecap:butt;stroke-linejoin:round;stroke-miterlimit:10;stroke-dasharray:none;stroke-opacity:1"
       transform="matrix(0.93333333,0,0,-0.93333333,214.3344,186.75627)" />
    <path
       id="path24"
       d="m -199.29933,-165.28314 h 170.08092 v 42.5202 h -170.08092 z"
       style="fill:#f1fedb;fill-opacity:1;fill-rule:nonzero;stroke:#000000;stroke-width:0.74721;stroke-linecap:butt;stroke-linejoin:round;stroke-miterlimit:10;stroke-dasharray:none;stroke-opacity:1"
       transform="matrix(0.93333333,0,0,-0.93333333,214.3344,186.75627)" />
    <path
       id="path25"
       d="m -139.77101,-165.28314 h 25.5121 v 42.5202 h -25.5121 z"
       style="fill:#dbfda6;fill-opacity:1;fill-rule:nonzero;stroke:#000000;stroke-width:0.74721;stroke-linecap:butt;stroke-linejoin:round;stroke-miterlimit:10;stroke-dasharray:none;stroke-opacity:1"
       transform="matrix(0.93333333,0,0,-0.93333333,214.3344,186.75627)" />
    <path
       id="path26"
       d="M 6.595058,-5.0065893 C 6.3104598,-6.5969911 5.3897009,-7.3838214 3.7992991,-7.3838214 c -0.9877232,0 -1.7745536,0.3180803 -2.3102678,0.9040178 -0.65290184,0.7198661 -1.00446434,1.7578125 -1.00446434,2.9296875 0,1.2053572 0.36830358,2.2265625 1.05468754,2.92968753 0.5524553,0.5859375 1.2723214,0.85379464 2.2098214,0.85379464 1.7745536,0 2.7790179,-0.95424107 2.9966518,-2.87946427 H 5.7914866 c -0.083705,0.4854911 -0.1841518,0.8370536 -0.3348214,1.1216518 -0.3013393,0.60267854 -0.9207589,0.93749997 -1.6908482,0.93749997 -1.4397322,0 -2.3604911,-1.15513397 -2.3604911,-2.96316967 0,-1.875 0.8705357,-3.0133928 2.2767857,-3.0133928 0.5859375,0 1.1383929,0.1841518 1.4397322,0.4520089 0.2678571,0.2511161 0.4185267,0.5691964 0.5189732,1.1049107 z m 4.072266,-0.2176339 v 5.22321427 h 0.837053 V -3.2822589 c 0,-0.7533482 0.535715,-1.3560268 1.222098,-1.3560268 0.61942,0 0.970983,0.3683036 0.970983,1.0379464 v 3.59933037 h 0.837053 V -3.2822589 c 0,-0.7533482 0.535714,-1.3560268 1.222098,-1.3560268 0.602679,0 0.954241,0.3850446 0.954241,1.0379464 v 3.59933037 h 0.837054 V -3.9184196 c 0,-0.9375 -0.535714,-1.4564733 -1.506696,-1.4564733 -0.703125,0 -1.121652,0.217634 -1.607143,0.8035715 -0.30134,-0.5524554 -0.719866,-0.8035715 -1.40625,-0.8035715 -0.686384,0 -1.155134,0.2678572 -1.607143,0.8872768 V -5.2242232 Z M 23.587246,-0.4865 c -0.08371,0.0167411 -0.117188,0.0167411 -0.167411,0.0167411 -0.301339,0 -0.452009,-0.15066964 -0.452009,-0.40178571 V -3.9519018 c 0,-0.9207589 -0.686384,-1.4229911 -1.958705,-1.4229911 -0.77009,0 -1.389509,0.217634 -1.741072,0.6194197 -0.234375,0.2678571 -0.334821,0.5691964 -0.351562,1.0714286 h 0.837053 c 0.06696,-0.6361608 0.435268,-0.920759 1.222098,-0.920759 0.736608,0 1.155134,0.2845982 1.155134,0.7868304 v 0.2176339 c 0,0.3348214 -0.200893,0.4854911 -0.853794,0.5691964 -1.188616,0.1506697 -1.356027,0.1841518 -1.674107,0.3180804 -0.61942,0.2511161 -0.920759,0.7198661 -0.920759,1.3895089 0,0.9542411 0.652901,1.55691967 1.707589,1.55691967 0.669643,0 1.188616,-0.234375 1.774553,-0.77008928 0.06696,0.51897321 0.318081,0.77008928 0.853795,0.77008928 0.184152,0 0.301339,-0.0334821 0.569197,-0.10044643 z m -1.456474,-1.1551339 c 0,0.2678571 -0.06696,0.4520089 -0.31808,0.66964283 -0.334821,0.31808036 -0.753348,0.46875 -1.238839,0.46875 -0.652902,0 -1.021206,-0.30133929 -1.021206,-0.83705353 0,-0.5357143 0.368304,-0.8203125 1.255581,-0.9542411 0.870535,-0.1171875 1.054687,-0.1506697 1.322544,-0.2845982 z m 4.197824,-3.5825893 h -0.853795 v -1.4229911 h -0.820312 v 1.4229911 h -0.719866 v 0.6863839 h 0.719866 v 3.9341518 c 0,0.53571429 0.351562,0.83705357 1.004464,0.83705357 0.200893,0 0.385045,-0.0334821 0.669643,-0.0669643 v -0.703125 c -0.100446,0.0334821 -0.234375,0.0334821 -0.401786,0.0334821 -0.351562,0 -0.452009,-0.10044643 -0.452009,-0.46875 V -4.5378393 h 0.853795 z m 0.929129,0 v 5.22321427 h 0.837054 V -2.7130625 c 0,-0.7366071 0.184152,-1.2388393 0.585938,-1.5234375 0.267857,-0.1841518 0.502232,-0.2511161 1.088169,-0.2511161 v -0.8537946 c -0.133928,-0.016741 -0.200893,-0.033482 -0.31808,-0.033482 -0.535714,0 -0.954241,0.3180804 -1.422991,1.1049108 V -5.224223 Z m 4.260603,0 h -0.820312 v 5.22321427 h 0.820312 z m 0,-2.0424107 h -0.837053 v 1.0546875 h 0.837053 z m 3.632813,4.5703125 1.741071,-2.5279018 h -0.920759 l -1.25558,1.8917411 -1.255581,-1.8917411 h -0.954241 l 1.741072,2.5613839 -1.841518,2.66183037 h 0.954241 l 1.322545,-2.00892857 1.305803,2.00892857 h 0.954241 z m 0,0"
       style="fill:#000000;fill-opacity:1;fill-rule:nonzero;stroke:none"
       aria-label="Cmatrix"
       transform="matrix(0.93333333,0,0,0.93333333,348.3368,227.07907)" />
    <path
       id="path27"
       d="M -199.05026,-165.03407 H -28.96934 V -28.96934 H -199.05026 Z"
       style="fill:none;stroke:#000000;stroke-width:1.24535;stroke-linecap:butt;stroke-linejoin:round;stroke-miterlimit:10;stroke-dasharray:none;stroke-opacity:1"
       transform="matrix(0.93333333,0,0,-0.93333333,214.3344,186.75627)" />
    <path
       id="path28"
       d="m -199.67293,-22.67732 c 1.04605,2.09221 3.48697,3.48697 6.97394,3.48697 h 71.71526 c 3.48696,0 5.92788,1.39477 6.97393,3.48697 1.04605,-2.0922 3.48697,-3.48697 6.97394,-3.48697 h 71.71526 c 3.48697,0 5.92788,-1.39476 6.97394,-3.48697"
       style="fill:none;stroke:#000000;stroke-width:0.79701;stroke-linecap:butt;stroke-linejoin:round;stroke-miterlimit:10;stroke-dasharray:none;stroke-opacity:1"
       transform="matrix(0.93333333,0,0,-0.93333333,214.3344,186.75627)" />
    <path
       id="path29"
       d="M 1.7094375,-2.5447522 2.8980536,-3.7333683 5.4594375,-1.09375e-4 H 6.5643482 L 3.5676964,-4.3025647 6.5308661,-7.2657344 H 5.3255089 L 1.7094375,-3.5826987 V -7.2657344 H 0.78867857 V -1.09375e-4 H 1.7094375 Z m 0,0"
       style="fill:#000000;fill-opacity:1;fill-rule:nonzero;stroke:none"
       aria-label="K"
       transform="matrix(0.93333333,0,0,0.93333333,104.8264,196.08213)" />
    <path
       id="path30"
       d="m -205.34229,-28.34666 c -2.09219,-1.04606 -3.48696,-3.48697 -3.48696,-6.97394 v -54.70717 c 0,-3.48697 -1.39476,-5.92789 -3.48697,-6.97394 2.09221,-1.04603 3.48697,-3.48697 3.48697,-6.97394 v -54.70715 c 0,-3.48697 1.39477,-5.92789 3.48696,-6.97394"
       style="fill:none;stroke:#000000;stroke-width:0.79701;stroke-linecap:butt;stroke-linejoin:round;stroke-miterlimit:10;stroke-dasharray:none;stroke-opacity:1"
       transform="matrix(0.93333333,0,0,-0.93333333,214.3344,186.75627)" />
    <path
       id="path31"
       d="M 4.6519353,-0.00146875 6.694346,-6.0952188 v 6.09375005 H 7.5816228 V -7.2670938 H 6.2925603 L 4.1831853,-0.93896875 2.0235871,-7.2670938 H 0.75126563 v 7.26562505 H 1.6218013 V -6.0952188 l 2.0591518,6.09375005 z m 0,0"
       style="fill:#000000;fill-opacity:1;fill-rule:nonzero;stroke:none"
       aria-label="M"
       transform="matrix(0.93333333,0,0,0.93333333,3.0996,280.60293)" />
    <path
       id="path32"
       d="m -108.21594,-125.224 c 1.49443,-0.74718 2.49069,-2.49069 2.49069,-4.98138 v -8.83628 c 0,-2.49069 0.99626,-4.2342 2.49069,-4.98138 -1.49443,-0.74718 -2.49069,-2.49069 -2.49069,-4.98139 v -8.83625 c 0,-2.4907 -0.99626,-4.23421 -2.49069,-4.98139"
       style="fill:none;stroke:#000000;stroke-width:0.79701;stroke-linecap:butt;stroke-linejoin:round;stroke-miterlimit:10;stroke-dasharray:none;stroke-opacity:1"
       transform="matrix(0.93333333,0,0,-0.93333333,214.3344,186.75627)" />
    <path
       id="path33"
       d="M 4.6524598,-0.00157812 6.6948705,-6.0953281 v 6.09374998 H 7.5821473 V -7.2672031 H 6.2930848 L 4.1837098,-0.93907812 2.0241116,-7.2672031 H 0.75179018 v 7.26562498 H 1.6223259 V -6.0953281 l 2.0591518,6.09374998 z M 10.82573,-5.2247924 H 9.9719353 V -6.6477835 H 9.1516228 v 1.4229911 H 8.4317567 v 0.6863839 h 0.7198661 v 3.9341518 c 0,0.53571429 0.3515625,0.83705358 1.0044642,0.83705358 0.200893,0 0.385045,-0.0334822 0.669643,-0.0669643 v -0.703125 c -0.100447,0.0334821 -0.234375,0.0334821 -0.401786,0.0334821 -0.351562,0 -0.4520087,-0.10044643 -0.4520087,-0.46875 V -4.5384085 H 10.82573 Z m 1.732701,0 h -0.820313 v 5.22321428 h 0.820313 z m 0,-2.0424107 h -0.837054 v 1.0546875 h 0.837054 z m 2.226562,0 H 13.94794 v 7.26562498 h 0.837053 z m 5.813337,4.938616 c 0,-0.8035714 -0.05022,-1.2723214 -0.200892,-1.6741071 -0.334822,-0.8537946 -1.138393,-1.3727679 -2.109375,-1.3727679 -1.456474,0 -2.393974,1.1216518 -2.393974,2.8292411 0,1.72433038 0.904018,2.77901788 2.360491,2.77901788 1.205358,0 2.02567,-0.68638393 2.243304,-1.82477678 H 19.66083 c -0.234375,0.68638392 -0.703125,1.05468749 -1.372767,1.05468749 -0.518974,0 -0.970983,-0.234375 -1.255581,-0.68638389 -0.200893,-0.2845983 -0.267857,-0.5859375 -0.267857,-1.1049108 z M 16.781366,-3.014971 c 0.06696,-0.9542411 0.652902,-1.5904018 1.489955,-1.5904018 0.820313,0 1.439733,0.686384 1.439733,1.5401786 0,0.016741 0,0.033482 0,0.050223 z m 0,0"
       style="fill:#000000;fill-opacity:1;fill-rule:nonzero;stroke:none"
       aria-label="Mtile"
       transform="matrix(0.93333333,0,0,0.93333333,122.38427,324.43507)" />
    <path
       id="path34"
       d="m -137.30995,-171.3261 c 0.74718,-1.49443 2.49069,-2.49069 4.98138,-2.49069 h 0.33223 c 2.49069,0 4.23421,-0.99626 4.98139,-2.49069 0.74717,1.49443 2.49069,2.49069 4.98138,2.49069 h 0.33223 c 2.49069,0 4.23421,0.99626 4.98138,2.49069"
       style="fill:none;stroke:#000000;stroke-width:0.79701;stroke-linecap:butt;stroke-linejoin:round;stroke-miterlimit:10;stroke-dasharray:none;stroke-opacity:1"
       transform="matrix(0.93333333,0,0,-0.93333333,214.3344,186.75627)" />
    <path
       id="path35"
       d="M 1.7068326,-2.542567 2.8954487,-3.731183 5.4568326,0.00207589 H 6.5617433 L 3.5650915,-4.3003795 6.5282612,-7.2635491 H 5.322904 L 1.7068326,-3.5805134 V -7.2635491 H 0.78607366 V 0.00207589 H 1.7068326 Z M 9.1733504,-5.2211384 H 8.3195558 V -6.6441295 H 7.4992433 v 1.4229911 H 6.7793772 v 0.6863839 h 0.7198661 v 3.93415182 c 0,0.53571429 0.3515625,0.83705357 1.0044643,0.83705357 0.2008928,0 0.3850446,-0.0334821 0.6696428,-0.0669643 v -0.703125 c -0.1004464,0.0334821 -0.234375,0.0334821 -0.4017857,0.0334821 -0.3515625,0 -0.4520089,-0.10044643 -0.4520089,-0.46875 V -4.5347545 h 0.8537946 z m 1.7327006,0 h -0.820312 v 5.22321429 h 0.820312 z m 0,-2.0424107 h -0.837053 v 1.0546875 h 0.837053 z m 2.226563,0 H 12.29556 v 7.26562499 h 0.837054 z m 5.813337,4.9386161 c 0,-0.8035715 -0.05022,-1.2723215 -0.200893,-1.6741072 -0.334821,-0.8537946 -1.138393,-1.3727678 -2.109375,-1.3727678 -1.456473,0 -2.393973,1.1216518 -2.393973,2.829241 0,1.72433039 0.904018,2.77901789 2.360491,2.77901789 1.205357,0 2.02567,-0.68638393 2.243303,-1.82477679 h -0.837053 c -0.234375,0.68638394 -0.703125,1.05468751 -1.372768,1.05468751 -0.518973,0 -0.970982,-0.234375 -1.25558,-0.68638391 -0.200893,-0.2845982 -0.267857,-0.5859375 -0.267857,-1.1049107 z m -3.816964,-0.686384 c 0.06696,-0.954241 0.652901,-1.5904017 1.489955,-1.5904017 0.820312,0 1.439732,0.6863839 1.439732,1.5401785 0,0.016741 0,0.033482 0,0.050223 z m 0,0"
       style="fill:#000000;fill-opacity:1;fill-rule:nonzero;stroke:none"
       aria-label="Ktile"
       transform="matrix(0.93333333,0,0,0.93333333,86.7468,362.334)" />
    <path
       id="path36"
       d="m 4.7228259,-2.1775379 0.7533482,2.17633924 H 6.5141205 L 3.9527366,-7.2668237 H 2.7641205 L 0.16925446,-0.00119866 H 1.1569777 L 1.927067,-2.1775379 Z M 4.4717098,-2.9643683 H 2.161442 l 1.188616,-3.2979911 z m 5.6459262,-2.2600446 v 5.22321424 H 10.95469 V -3.2824487 c 0,-0.7533482 0.535714,-1.3560267 1.222098,-1.3560267 0.61942,0 0.970982,0.3683035 0.970982,1.0379464 v 3.59933034 h 0.837054 V -3.2824487 c 0,-0.7533482 0.535714,-1.3560267 1.222098,-1.3560267 0.602678,0 0.954241,0.3850446 0.954241,1.0379464 v 3.59933034 h 0.837054 V -3.9186094 c 0,-0.9375 -0.535715,-1.4564732 -1.506697,-1.4564732 -0.703125,0 -1.121652,0.2176339 -1.607143,0.8035714 -0.301339,-0.5524553 -0.719866,-0.8035714 -1.40625,-0.8035714 -0.686384,0 -1.155134,0.2678572 -1.607143,0.8872768 v -0.7366071 z m 12.919922,4.73772317 c -0.08371,0.0167411 -0.117187,0.0167411 -0.167411,0.0167411 -0.301339,0 -0.452009,-0.15066964 -0.452009,-0.40178572 V -3.9520915 c 0,-0.9207589 -0.686384,-1.4229911 -1.958705,-1.4229911 -0.770089,0 -1.389509,0.2176339 -1.741071,0.6194197 -0.234375,0.2678571 -0.334822,0.5691964 -0.351563,1.0714285 h 0.837054 c 0.06696,-0.6361607 0.435268,-0.9207589 1.222098,-0.9207589 0.736607,0 1.155134,0.2845982 1.155134,0.7868304 v 0.2176339 c 0,0.3348214 -0.200893,0.4854911 -0.853795,0.5691964 -1.188616,0.1506697 -1.356027,0.1841518 -1.674107,0.3180804 -0.61942,0.251116 -0.920759,0.719866 -0.920759,1.3895089 0,0.95424107 0.652902,1.55691964 1.707589,1.55691964 0.669643,0 1.188616,-0.234375 1.774554,-0.77008929 0.06696,0.51897322 0.31808,0.77008929 0.853795,0.77008929 0.184151,0 0.301339,-0.0334821 0.569196,-0.10044643 z M 21.581085,-1.6418237 c 0,0.2678572 -0.06696,0.452009 -0.318081,0.6696429 -0.334821,0.31808035 -0.753348,0.46875 -1.238839,0.46875 -0.652902,0 -1.021205,-0.30133929 -1.021205,-0.8370536 0,-0.5357143 0.368303,-0.8203125 1.25558,-0.954241 0.870536,-0.1171875 1.054688,-0.1506697 1.322545,-0.2845983 z m 4.197823,-3.5825892 H 24.925114 V -6.647404 h -0.820313 v 1.4229911 h -0.719866 v 0.6863839 h 0.719866 v 3.93415177 c 0,0.53571428 0.351563,0.83705357 1.004465,0.83705357 0.200892,0 0.385044,-0.0334821 0.669642,-0.0669643 v -0.703125 c -0.100446,0.0334822 -0.234375,0.0334822 -0.401785,0.0334822 -0.351563,0 -0.452009,-0.10044643 -0.452009,-0.46875 V -4.538029 h 0.853794 z m 0.92913,0 v 5.22321424 h 0.837054 V -2.7132522 c 0,-0.7366072 0.184151,-1.2388393 0.585937,-1.5234375 0.267857,-0.1841518 0.502232,-0.2511161 1.08817,-0.2511161 v -0.8537946 c -0.133929,-0.016741 -0.200893,-0.033482 -0.318081,-0.033482 -0.535714,0 -0.954241,0.3180804 -1.422991,1.1049107 v -0.954241 z m 4.260603,0 h -0.820313 v 5.22321424 h 0.820313 z m 0,-2.0424108 h -0.837054 v 1.0546875 h 0.837054 z m 3.636997,4.5703125 1.741072,-2.5279017 h -0.920759 l -1.25558,1.891741 -1.255581,-1.891741 h -0.954241 l 1.741072,2.5613839 -1.841518,2.66183034 h 0.954241 l 1.322544,-2.00892854 1.305804,2.00892854 h 0.954241 z m 0,0"
       style="fill:#000000;fill-opacity:1;fill-rule:nonzero;stroke:none"
       aria-label="Amatrix"
       transform="matrix(0.93333333,0,0,0.93333333,146.61547,226.8644)" />
  </g>
</svg>
