<svg xmlns="http://www.w3.org/2000/svg" width="64" height="64" viewBox="0 0 64 64" fill="none">
  <!-- Book outline -->
  <path d="M8 10 Q8 6 16 6 L32 6 L32 54 Q24 54 16 52 Q8 50 8 46 Z" 
        stroke="#1B4F72" stroke-width="3" fill="none"/>
  <path d="M56 10 Q56 6 48 6 L32 6 L32 54 Q40 54 48 52 Q56 50 56 46 Z" 
        stroke="#1B4F72" stroke-width="3" fill="none"/>
  <!-- Center binding -->
  <line x1="32" y1="6" x2="32" y2="54" stroke="#1B4F72" stroke-width="2"/>
  <!-- Text lines on left page -->
  <line x1="14" y1="18" x2="28" y2="18" stroke="#1B4F72" stroke-width="2" stroke-linecap="round"/>
  <line x1="14" y1="26" x2="28" y2="26" stroke="#1B4F72" stroke-width="2" stroke-linecap="round"/>
  <line x1="14" y1="34" x2="24" y2="34" stroke="#1B4F72" stroke-width="2" stroke-linecap="round"/>
  <!-- Text lines on right page -->
  <line x1="36" y1="18" x2="50" y2="18" stroke="#1B4F72" stroke-width="2" stroke-linecap="round"/>
  <line x1="36" y1="26" x2="50" y2="26" stroke="#1B4F72" stroke-width="2" stroke-linecap="round"/>
  <line x1="36" y1="34" x2="46" y2="34" stroke="#1B4F72" stroke-width="2" stroke-linecap="round"/>
</svg>
