<svg xmlns="http://www.w3.org/2000/svg" width="64" height="64" viewBox="0 0 64 64" fill="none">
  <!-- Lightbulb body (glass) -->
  <path d="M32 8 C22 8 16 15 16 24 C16 30 19 34 22 37 C24 39 25 41 25 44 L39 44 C39 41 40 39 42 37 C45 34 48 30 48 24 C48 15 42 8 32 8 Z"
        stroke="#4A7C59" stroke-width="2.5" fill="none" stroke-linejoin="round"/>
  <!-- Filament / idea lines inside bulb -->
  <path d="M28 24 L32 20 L36 24 L32 28 Z"
        stroke="#4A7C59" stroke-width="1.8" fill="none" stroke-linejoin="round"/>
  <!-- Base rings (screw thread) -->
  <line x1="25" y1="48" x2="39" y2="48" stroke="#4A7C59" stroke-width="2" stroke-linecap="round"/>
  <line x1="26" y1="52" x2="38" y2="52" stroke="#4A7C59" stroke-width="2" stroke-linecap="round"/>
  <!-- Contact tip -->
  <path d="M29 56 L35 56 L33 58 L31 58 Z"
        stroke="#4A7C59" stroke-width="2" fill="none" stroke-linejoin="round"/>
</svg>
