<?xml version="1.0" encoding="UTF-8" standalone="no"?>
<!-- Created with Inkscape (http://www.inkscape.org/) -->

<svg
   version="1.1"
   id="svg1"
   width="269.62"
   height="164.10001"
   viewBox="0 0 269.62 164.10001"
   xmlns="http://www.w3.org/2000/svg"
   xmlns:svg="http://www.w3.org/2000/svg">
  <defs
     id="defs1" />
  <g
     id="g1">
    <path
       id="path1"
       d="M 22.67744,0 C 22.67744,12.52455 12.52455,22.67744 0,22.67744 -12.52455,22.67744 -22.67744,12.52455 -22.67744,0 c 0,-12.52455 10.15289,-22.67744 22.67744,-22.67744 12.52455,0 22.67744,10.15289 22.67744,22.67744 z"
       style="fill:#f6f2f1;fill-opacity:1;fill-rule:nonzero;stroke:#8f7874;stroke-width:0.74721;stroke-linecap:butt;stroke-linejoin:round;stroke-miterlimit:10;stroke-dasharray:none;stroke-opacity:1"
       transform="matrix(1.2,0,0,-1.2,134.8104,27.66)" />
    <path
       id="path2"
       d="m -66.6153,-75.11932 c 0,12.52456 -10.15287,22.67744 -22.67744,22.67744 -12.52455,0 -22.67744,-10.15288 -22.67744,-22.67744 0,-12.52456 10.15289,-22.67745 22.67744,-22.67745 12.52457,0 22.67744,10.15289 22.67744,22.67745 z"
       style="fill:#f1fedb;fill-opacity:1;fill-rule:nonzero;stroke:#495938;stroke-width:0.74721;stroke-linecap:butt;stroke-linejoin:round;stroke-miterlimit:10;stroke-dasharray:none;stroke-opacity:1"
       transform="matrix(1.2,0,0,-1.2,134.8104,27.66)" />
    <path
       id="path3"
       d="m 111.97018,-75.11932 c 0,12.52456 -10.15289,22.67744 -22.67744,22.67744 -12.52457,0 -22.67744,-10.15288 -22.67744,-22.67744 0,-12.52456 10.15287,-22.67745 22.67744,-22.67745 12.52455,0 22.67744,10.15289 22.67744,22.67745 z"
       style="fill:#fdeedf;fill-opacity:1;fill-rule:nonzero;stroke:#ff7f4c;stroke-width:0.74721;stroke-linecap:butt;stroke-linejoin:round;stroke-miterlimit:10;stroke-dasharray:none;stroke-opacity:1"
       transform="matrix(1.2,0,0,-1.2,134.8104,27.66)" />
    <path
       id="path4"
       d="M -22.59386,-19.00752 -66.69887,-56.11179"
       style="fill:none;stroke:#b380b3;stroke-width:2.98883;stroke-linecap:butt;stroke-linejoin:round;stroke-miterlimit:10;stroke-dasharray:none;stroke-opacity:1"
       transform="matrix(1.2,0,0,-1.2,134.8104,27.66)" />
    <path
       id="path5"
       d="M 3.72704,0 0.59775,2.28194 V 0 -2.28194 Z"
       style="fill:#b380b3;fill-opacity:1;fill-rule:nonzero;stroke:#b380b3;stroke-width:1.19553;stroke-linecap:butt;stroke-linejoin:miter;stroke-miterlimit:10;stroke-dasharray:none;stroke-opacity:1"
       transform="matrix(0.91824,-0.772488,-0.772488,-0.91824,107.42332,50.699928)" />
    <path
       id="path6"
       d="M 3.72704,0 0.59775,2.28194 V 0 -2.28194 Z"
       style="fill:#b380b3;fill-opacity:1;fill-rule:nonzero;stroke:#b380b3;stroke-width:1.19553;stroke-linecap:butt;stroke-linejoin:miter;stroke-miterlimit:10;stroke-dasharray:none;stroke-opacity:1"
       transform="matrix(-0.91824,0.772488,0.772488,0.91824,55.04622,94.763244)" />
    <path
       id="path7"
       d="M 22.59386,-19.00752 66.69887,-56.11179"
       style="fill:none;stroke:#b380b3;stroke-width:2.98883;stroke-linecap:butt;stroke-linejoin:round;stroke-miterlimit:10;stroke-dasharray:none;stroke-opacity:1"
       transform="matrix(1.2,0,0,-1.2,134.8104,27.66)" />
    <path
       id="path8"
       d="M 3.72704,0 0.59775,2.28194 V 0 -2.28194 Z"
       style="fill:#b380b3;fill-opacity:1;fill-rule:nonzero;stroke:#b380b3;stroke-width:1.19553;stroke-linecap:butt;stroke-linejoin:miter;stroke-miterlimit:10;stroke-dasharray:none;stroke-opacity:1"
       transform="matrix(-0.91824,-0.772488,-0.772488,0.91824,162.19748,50.699928)" />
    <path
       id="path9"
       d="M 3.72704,0 0.59775,2.28194 V 0 -2.28194 Z"
       style="fill:#b380b3;fill-opacity:1;fill-rule:nonzero;stroke:#b380b3;stroke-width:1.19553;stroke-linecap:butt;stroke-linejoin:miter;stroke-miterlimit:10;stroke-dasharray:none;stroke-opacity:1"
       transform="matrix(0.91824,0.772488,0.772488,-0.91824,214.57458,94.763244)" />
    <path
       id="path10"
       d="M 59.76587,-75.11932 H -59.76587"
       style="fill:none;stroke:#b380b3;stroke-width:2.98883;stroke-linecap:butt;stroke-linejoin:round;stroke-miterlimit:10;stroke-dasharray:none;stroke-opacity:1"
       transform="matrix(1.2,0,0,-1.2,134.8104,27.66)" />
    <path
       id="path11"
       d="M 3.72704,0 0.59775,2.28194 V 0 -2.28194 Z"
       style="fill:#b380b3;fill-opacity:1;fill-rule:nonzero;stroke:#b380b3;stroke-width:1.19553;stroke-linecap:butt;stroke-linejoin:miter;stroke-miterlimit:10;stroke-dasharray:none;stroke-opacity:1"
       transform="matrix(1.2,0,0,-1.2,206.17078,117.80318)" />
    <path
       id="path12"
       d="M 3.72704,0 0.59775,2.28194 V 0 -2.28194 Z"
       style="fill:#b380b3;fill-opacity:1;fill-rule:nonzero;stroke:#b380b3;stroke-width:1.19553;stroke-linecap:butt;stroke-linejoin:miter;stroke-miterlimit:10;stroke-dasharray:none;stroke-opacity:1"
       transform="matrix(-1.2,0,0,1.2,63.450024,117.80318)" />
    <path
       id="path13"
       d="M 4.1911719,-6.9791667e-4 6.0401302,-5.4824687 v 5.48177078333 h 0.78125 V -6.5371562 H 5.662526 L 3.7614844,-0.84705208 1.834401,-6.5371562 H 0.67554688 V -6.9791667e-4 H 1.4567969 V -5.4824687 L 3.318776,-6.9791667e-4 Z M 9.9040625,-4.8314271 c -1.3151042,0 -2.109375,0.9375 -2.109375,2.5130209 0,1.58854162 0.78125,2.52604162 2.1223958,2.52604162 1.3151047,0 2.1223957,-0.9375 2.1223957,-2.48697912 0,-1.6276042 -0.78125,-2.5520834 -2.1354165,-2.5520834 z m 0.013021,0.6901042 c 0.8463545,0 1.3411455,0.6901042 1.3411455,1.8489583 0,1.1067709 -0.520833,1.80989585 -1.3411455,1.80989585 -0.8333333,0 -1.3411458,-0.69010415 -1.3411458,-1.83593745 0,-1.1328125 0.5078125,-1.8229167 1.3411458,-1.8229167 z m 6.9759115,-2.3958333 h -0.742188 v 2.421875 c -0.3125,-0.46875 -0.820312,-0.7161459 -1.445312,-0.7161459 -1.223959,0 -2.018229,0.9765625 -2.018229,2.4739584 0,1.58854162 0.78125,2.56510412 2.04427,2.56510412 0.651042,0 1.09375,-0.24739584 1.497396,-0.83333334 v 0.62500000333 h 0.664063 z m -2.057292,2.3958333 c 0.807292,0 1.315104,0.7161458 1.315104,1.8489583 0,1.0807292 -0.520833,1.79687502 -1.315104,1.79687502 -0.820312,0 -1.367187,-0.72916662 -1.367187,-1.82291662 0,-1.09375 0.546875,-1.8229167 1.367187,-1.8229167 z m 7.200521,2.0442708 c 0,-0.7161458 -0.05208,-1.1458333 -0.182292,-1.4973958 -0.299479,-0.78125 -1.028646,-1.2369792 -1.901041,-1.2369792 -1.315105,0 -2.148438,1.0026042 -2.148438,2.5390625 0,1.54947918 0.807292,2.50000002 2.135417,2.50000002 1.067708,0 1.809896,-0.61197917 2.005208,-1.64062502 H 21.18987 c -0.208334,0.62500002 -0.625,0.95052085 -1.223959,0.95052085 -0.48177,0 -0.885416,-0.22135417 -1.132812,-0.61197915 -0.182292,-0.2734375 -0.247396,-0.5338542 -0.247396,-1.0026042 z m -3.4375,-0.6119791 c 0.0651,-0.8723959 0.585937,-1.4322917 1.341146,-1.4322917 0.742187,0 1.302083,0.6119792 1.302083,1.3802083 0,0.013021 0,0.039063 -0.01302,0.052083 z m 5.192057,-3.828125 h -0.755208 v 6.53645828333 h 0.755208 z m 0,0"
       style="fill:#000000;fill-opacity:1;fill-rule:nonzero;stroke:none"
       aria-label="Model"
       transform="matrix(1.2,0,0,1.2,120.162,69.6024)" />
    <path
       id="path14"
       d="M 1.7441406,-6.5356354 H 0.89778646 V 8.2291667e-4 H 1.7441406 Z m 1.3736979,1.8359375 V 8.2291667e-4 H 3.8730469 V -2.5903229 c 0,-0.9635417 0.5078125,-1.5885417 1.2760416,-1.5885417 0.5859375,0 0.9635417,0.3515625 0.9635417,0.9244792 V 8.2291667e-4 H 6.8678385 V -3.5538646 c 0,-0.78125 -0.5859375,-1.2760416 -1.4973958,-1.2760416 -0.703125,0 -1.1458333,0.2604166 -1.5625,0.9244791 v -0.7942708 z m 6.6764323,0 h -0.78125 v -0.7421875 c 0,-0.3125 0.1822917,-0.46875 0.5208334,-0.46875 0.065104,0 0.091146,0 0.2604166,0.013021 v -0.625 C 9.625,-6.5616771 9.5208333,-6.5616771 9.3645833,-6.5616771 c -0.6901041,0 -1.09375,0.390625 -1.09375,1.0677084 v 0.7942708 H 7.6328125 v 0.6119792 H 8.2708333 V 8.2291667e-4 H 9.0130208 V -4.0877187 h 0.78125 z m 0.8007812,0 V 8.2291667e-4 H 11.33724 V -2.4340729 c 0,-0.6770833 0.182291,-1.1197917 0.533854,-1.3802083 0.234375,-0.1692709 0.455729,-0.2213542 0.976562,-0.234375 v -0.7552084 c -0.117187,-0.026042 -0.182291,-0.026042 -0.286458,-0.026042 -0.481771,0 -0.846354,0.2864583 -1.276042,0.9765625 v -0.8463542 z m 7.076823,4.25781248 c -0.09115,0.0260417 -0.117187,0.0260417 -0.169271,0.0260417 -0.260416,0 -0.403646,-0.14322917 -0.403646,-0.37760417 V -3.5538646 c 0,-0.8333333 -0.611979,-1.2760416 -1.770833,-1.2760416 -0.677083,0 -1.236979,0.1953125 -1.549479,0.546875 -0.221354,0.234375 -0.3125,0.5078125 -0.325521,0.9765625 h 0.755208 c 0.05208,-0.5729167 0.403646,-0.8333334 1.09375,-0.8333334 0.677084,0 1.054688,0.2473959 1.054688,0.6901042 v 0.2083333 c 0,0.3125 -0.182292,0.4427084 -0.78125,0.5208334 -1.054688,0.1302083 -1.223958,0.1692708 -1.510417,0.2864583 -0.546875,0.2213542 -0.820312,0.6380208 -0.820312,1.25 0,0.85937498 0.585937,1.39322915 1.536458,1.39322915 0.598958,0 1.067708,-0.20833333333 1.601563,-0.69010417 0.05208,0.46875 0.286458,0.69010417 0.768229,0.69010417 0.15625,0 0.273437,-0.0260417 0.520833,-0.078125 z M 16.356771,-1.4835521 c 0,0.2604167 -0.0651,0.4036459 -0.299479,0.61197918 -0.299479,0.28645834 -0.664063,0.4296875 -1.106771,0.4296875 -0.585938,0 -0.924479,-0.28645833 -0.924479,-0.75520828 0,-0.4947917 0.325521,-0.7552084 1.132812,-0.859375 0.78125,-0.1171875 0.950521,-0.1432292 1.197917,-0.2604167 z m 0,0"
       style="fill:#000000;fill-opacity:1;fill-rule:nonzero;stroke:none"
       aria-label="Infra"
       transform="matrix(1.2,0,0,1.2,16.95,159.9912)" />
    <path
       id="path15"
       d="M 0.79298438,-0.00151042 H 3.319026 c 1.6536459,0 2.6692709,-1.23697918 2.6692709,-3.26822918 0,-2.03125 -1.015625,-3.2682291 -2.6692709,-3.2682291 H 0.79298438 Z M 1.6263177,-0.73067708 V -5.8088021 h 1.5494792 c 1.2890625,0 1.9661458,0.8723959 1.9661458,2.5390625 0,1.6536459 -0.6770833,2.53906252 -1.9661458,2.53906252 z m 9.6516923,0.28645833 c -0.09115,0.0260417 -0.117187,0.0260417 -0.16927,0.0260417 -0.260417,0 -0.403646,-0.14322917 -0.403646,-0.37760417 V -3.5561979 c 0,-0.8333333 -0.611979,-1.2760417 -1.7708336,-1.2760417 -0.6770833,0 -1.2369791,0.1953125 -1.5494791,0.546875 -0.2213542,0.234375 -0.3125,0.5078125 -0.3255209,0.9765625 h 0.7552084 c 0.052083,-0.5729166 0.4036458,-0.8333333 1.09375,-0.8333333 0.6770833,0 1.0546875,0.2473958 1.0546875,0.6901042 v 0.2083333 c 0,0.3125 -0.1822917,0.4427083 -0.78125,0.5208333 -1.0546875,0.1302084 -1.2239584,0.1692709 -1.5104167,0.2864584 -0.546875,0.2213541 -0.8203125,0.6380208 -0.8203125,1.25 0,0.85937495 0.5859375,1.39322912 1.5364583,1.39322912 0.5989584,0 1.0677084,-0.20833334 1.6015625,-0.69010417 0.052083,0.46875 0.2864581,0.69010417 0.7682291,0.69010417 0.15625,0 0.273438,-0.0260417 0.520833,-0.078125 z M 9.9629063,-1.4858854 c 0,0.2604167 -0.065104,0.4036458 -0.2994792,0.61197915 -0.2994792,0.28645833 -0.6640625,0.4296875 -1.1067708,0.4296875 -0.5859375,0 -0.9244792,-0.28645833 -0.9244792,-0.75520835 0,-0.4947916 0.3255208,-0.7552083 1.1328125,-0.859375 0.78125,-0.1171875 0.9505208,-0.1432291 1.1979167,-0.2604166 z m 3.7760417,-3.2161458 h -0.768229 v -1.2890625 h -0.742188 v 1.2890625 H 11.59051 v 0.6119791 h 0.638021 v 3.55468752 c 0,0.46875 0.3125,0.7421875 0.898438,0.7421875 0.182291,0 0.364583,-0.0260417 0.611979,-0.0651042 v -0.625 c -0.104167,0.0260417 -0.221354,0.0390625 -0.364583,0.0390625 -0.3125,0 -0.403646,-0.0911458 -0.403646,-0.4296875 V -4.0900521 h 0.768229 z m 5.016276,4.25781245 c -0.09115,0.0260417 -0.117188,0.0260417 -0.169271,0.0260417 -0.260417,0 -0.403646,-0.14322917 -0.403646,-0.37760417 V -3.5561979 c 0,-0.8333333 -0.611979,-1.2760417 -1.770833,-1.2760417 -0.677083,0 -1.236979,0.1953125 -1.549479,0.546875 -0.221354,0.234375 -0.3125,0.5078125 -0.325521,0.9765625 h 0.755208 c 0.05208,-0.5729166 0.403646,-0.8333333 1.09375,-0.8333333 0.677084,0 1.054688,0.2473958 1.054688,0.6901042 v 0.2083333 c 0,0.3125 -0.182292,0.4427083 -0.78125,0.5208333 -1.054688,0.1302084 -1.223959,0.1692709 -1.510417,0.2864584 -0.546875,0.2213541 -0.820312,0.6380208 -0.820312,1.25 0,0.85937495 0.585937,1.39322912 1.536458,1.39322912 0.598958,0 1.067708,-0.20833334 1.601562,-0.69010417 0.05208,0.46875 0.286459,0.69010417 0.76823,0.69010417 0.15625,0 0.273437,-0.0260417 0.520833,-0.078125 z M 17.44012,-1.4858854 c 0,0.2604167 -0.0651,0.4036458 -0.299479,0.61197915 -0.29948,0.28645833 -0.664063,0.4296875 -1.106771,0.4296875 -0.585938,0 -0.924479,-0.28645833 -0.924479,-0.75520835 0,-0.4947916 0.32552,-0.7552083 1.132812,-0.859375 0.78125,-0.1171875 0.950521,-0.1432291 1.197917,-0.2604166 z m 0,0"
       style="fill:#000000;fill-opacity:1;fill-rule:nonzero;stroke:none"
       aria-label="Data"
       transform="matrix(1.2,0,0,1.2,230.5992,159.744)" />
    <path
       id="path16"
       d="m -8.75603,7.4621 c 0,1.42656 -1.15643,2.58297 -2.58297,2.58297 -1.42656,0 -2.583,-1.15641 -2.583,-2.58297 0,-1.42656 1.15644,-2.58298 2.583,-2.58298 1.42654,0 2.58297,1.15642 2.58297,2.58298 z"
       style="fill:#fae8f0;fill-opacity:1;fill-rule:nonzero;stroke:#c9146e;stroke-width:0.49814;stroke-linecap:butt;stroke-linejoin:round;stroke-miterlimit:10;stroke-dasharray:none;stroke-opacity:1"
       transform="matrix(1.2,0,0,-1.2,134.8104,27.66)" />
    <path
       id="path17"
       d="m -8.75603,0.75816 c 0,1.42655 -1.15643,2.58298 -2.58297,2.58298 -1.42656,0 -2.583,-1.15643 -2.583,-2.58298 0,-1.42654 1.15644,-2.58297 2.583,-2.58297 1.42654,0 2.58297,1.15643 2.58297,2.58297 z"
       style="fill:#fae8f0;fill-opacity:1;fill-rule:nonzero;stroke:#c9146e;stroke-width:0.49814;stroke-linecap:butt;stroke-linejoin:round;stroke-miterlimit:10;stroke-dasharray:none;stroke-opacity:1"
       transform="matrix(1.2,0,0,-1.2,134.8104,27.66)" />
    <path
       id="path18"
       d="m -8.75603,-5.94577 c 0,1.42654 -1.15643,2.58297 -2.58297,2.58297 -1.42656,0 -2.583,-1.15643 -2.583,-2.58297 0,-1.42656 1.15644,-2.58299 2.583,-2.58299 1.42654,0 2.58297,1.15643 2.58297,2.58299 z"
       style="fill:#fae8f0;fill-opacity:1;fill-rule:nonzero;stroke:#c9146e;stroke-width:0.49814;stroke-linecap:butt;stroke-linejoin:round;stroke-miterlimit:10;stroke-dasharray:none;stroke-opacity:1"
       transform="matrix(1.2,0,0,-1.2,134.8104,27.66)" />
    <path
       id="path19"
       d="m 3.71664,10.81407 c 0,1.42656 -1.15643,2.58298 -2.58297,2.58298 -1.42655,0 -2.58298,-1.15642 -2.58298,-2.58298 0,-1.42656 1.15643,-2.58297 2.58298,-2.58297 1.42654,0 2.58297,1.15641 2.58297,2.58297 z"
       style="fill:#fae8f0;fill-opacity:1;fill-rule:nonzero;stroke:#c9146e;stroke-width:0.49814;stroke-linecap:butt;stroke-linejoin:round;stroke-miterlimit:10;stroke-dasharray:none;stroke-opacity:1"
       transform="matrix(1.2,0,0,-1.2,134.8104,27.66)" />
    <path
       id="path20"
       d="m 3.71664,4.11012 c 0,1.42656 -1.15643,2.58298 -2.58297,2.58298 -1.42655,0 -2.58298,-1.15642 -2.58298,-2.58298 0,-1.42656 1.15643,-2.58299 2.58298,-2.58299 1.42654,0 2.58297,1.15643 2.58297,2.58299 z"
       style="fill:#fae8f0;fill-opacity:1;fill-rule:nonzero;stroke:#c9146e;stroke-width:0.49814;stroke-linecap:butt;stroke-linejoin:round;stroke-miterlimit:10;stroke-dasharray:none;stroke-opacity:1"
       transform="matrix(1.2,0,0,-1.2,134.8104,27.66)" />
    <path
       id="path21"
       d="m 3.71664,-2.5938 c 0,1.42655 -1.15643,2.58298 -2.58297,2.58298 -1.42655,0 -2.58298,-1.15643 -2.58298,-2.58298 0,-1.42656 1.15643,-2.58299 2.58298,-2.58299 1.42654,0 2.58297,1.15643 2.58297,2.58299 z"
       style="fill:#fae8f0;fill-opacity:1;fill-rule:nonzero;stroke:#c9146e;stroke-width:0.49814;stroke-linecap:butt;stroke-linejoin:round;stroke-miterlimit:10;stroke-dasharray:none;stroke-opacity:1"
       transform="matrix(1.2,0,0,-1.2,134.8104,27.66)" />
    <path
       id="path22"
       d="m 3.71664,-9.29771 c 0,1.42654 -1.15643,2.58297 -2.58297,2.58297 -1.42655,0 -2.58298,-1.15643 -2.58298,-2.58297 0,-1.42656 1.15643,-2.58299 2.58298,-2.58299 1.42654,0 2.58297,1.15643 2.58297,2.58299 z"
       style="fill:#fae8f0;fill-opacity:1;fill-rule:nonzero;stroke:#c9146e;stroke-width:0.49814;stroke-linecap:butt;stroke-linejoin:round;stroke-miterlimit:10;stroke-dasharray:none;stroke-opacity:1"
       transform="matrix(1.2,0,0,-1.2,134.8104,27.66)" />
    <path
       id="path23"
       d="m 16.18935,4.11012 c 0,1.42656 -1.15644,2.58298 -2.583,2.58298 -1.42654,0 -2.58297,-1.15642 -2.58297,-2.58298 0,-1.42656 1.15643,-2.58299 2.58297,-2.58299 1.42656,0 2.583,1.15643 2.583,2.58299 z"
       style="fill:#fae8f0;fill-opacity:1;fill-rule:nonzero;stroke:#c9146e;stroke-width:0.49814;stroke-linecap:butt;stroke-linejoin:round;stroke-miterlimit:10;stroke-dasharray:none;stroke-opacity:1"
       transform="matrix(1.2,0,0,-1.2,134.8104,27.66)" />
    <path
       id="path24"
       d="m 16.18935,-2.5938 c 0,1.42655 -1.15644,2.58298 -2.583,2.58298 -1.42654,0 -2.58297,-1.15643 -2.58297,-2.58298 0,-1.42656 1.15643,-2.58299 2.58297,-2.58299 1.42656,0 2.583,1.15643 2.583,2.58299 z"
       style="fill:#fae8f0;fill-opacity:1;fill-rule:nonzero;stroke:#c9146e;stroke-width:0.49814;stroke-linecap:butt;stroke-linejoin:round;stroke-miterlimit:10;stroke-dasharray:none;stroke-opacity:1"
       transform="matrix(1.2,0,0,-1.2,134.8104,27.66)" />
    <path
       id="path25"
       d="m -8.71306,8.16936 7.21982,1.94024"
       style="fill:none;stroke:#808080;stroke-width:0.3487;stroke-linecap:butt;stroke-linejoin:round;stroke-miterlimit:10;stroke-dasharray:none;stroke-opacity:1"
       transform="matrix(1.2,0,0,-1.2,134.8104,27.66)" />
    <path
       id="path26"
       d="M -8.71294,6.7574 -1.49316,4.81693"
       style="fill:none;stroke:#808080;stroke-width:0.3487;stroke-linecap:butt;stroke-linejoin:round;stroke-miterlimit:10;stroke-dasharray:none;stroke-opacity:1"
       transform="matrix(1.2,0,0,-1.2,134.8104,27.66)" />
    <path
       id="path27"
       d="m -9.22226,5.75592 8.23842,-6.64217"
       style="fill:none;stroke:#808080;stroke-width:0.3487;stroke-linecap:butt;stroke-linejoin:round;stroke-miterlimit:10;stroke-dasharray:none;stroke-opacity:1"
       transform="matrix(1.2,0,0,-1.2,134.8104,27.66)" />
    <path
       id="path28"
       d="M -9.71599,5.28098 -0.49017,-7.11578"
       style="fill:none;stroke:#808080;stroke-width:0.3487;stroke-linecap:butt;stroke-linejoin:round;stroke-miterlimit:10;stroke-dasharray:none;stroke-opacity:1"
       transform="matrix(1.2,0,0,-1.2,134.8104,27.66)" />
    <path
       id="path29"
       d="m -9.22246,2.46613 8.23851,6.64205"
       style="fill:none;stroke:#808080;stroke-width:0.3487;stroke-linecap:butt;stroke-linejoin:round;stroke-miterlimit:10;stroke-dasharray:none;stroke-opacity:1"
       transform="matrix(1.2,0,0,-1.2,134.8104,27.66)" />
    <path
       id="path30"
       d="M -8.71301,1.46481 -1.49324,3.4051"
       style="fill:none;stroke:#808080;stroke-width:0.3487;stroke-linecap:butt;stroke-linejoin:round;stroke-miterlimit:10;stroke-dasharray:none;stroke-opacity:1"
       transform="matrix(1.2,0,0,-1.2,134.8104,27.66)" />
    <path
       id="path31"
       d="M -8.71294,0.05287 -1.49316,-1.8875"
       style="fill:none;stroke:#808080;stroke-width:0.3487;stroke-linecap:butt;stroke-linejoin:round;stroke-miterlimit:10;stroke-dasharray:none;stroke-opacity:1"
       transform="matrix(1.2,0,0,-1.2,134.8104,27.66)" />
    <path
       id="path32"
       d="m -9.22229,-0.94853 8.23842,-6.64215"
       style="fill:none;stroke:#808080;stroke-width:0.3487;stroke-linecap:butt;stroke-linejoin:round;stroke-miterlimit:10;stroke-dasharray:none;stroke-opacity:1"
       transform="matrix(1.2,0,0,-1.2,134.8104,27.66)" />
    <path
       id="path33"
       d="M -9.71611,-3.76358 -0.49026,8.63326"
       style="fill:none;stroke:#808080;stroke-width:0.3487;stroke-linecap:butt;stroke-linejoin:round;stroke-miterlimit:10;stroke-dasharray:none;stroke-opacity:1"
       transform="matrix(1.2,0,0,-1.2,134.8104,27.66)" />
    <path
       id="path34"
       d="m -9.22243,-4.23836 8.23848,6.64208"
       style="fill:none;stroke:#808080;stroke-width:0.3487;stroke-linecap:butt;stroke-linejoin:round;stroke-miterlimit:10;stroke-dasharray:none;stroke-opacity:1"
       transform="matrix(1.2,0,0,-1.2,134.8104,27.66)" />
    <path
       id="path35"
       d="m -8.71298,-5.23972 7.21978,1.94037"
       style="fill:none;stroke:#808080;stroke-width:0.3487;stroke-linecap:butt;stroke-linejoin:round;stroke-miterlimit:10;stroke-dasharray:none;stroke-opacity:1"
       transform="matrix(1.2,0,0,-1.2,134.8104,27.66)" />
    <path
       id="path36"
       d="M -8.71298,-6.65166 -1.4932,-8.59203"
       style="fill:none;stroke:#808080;stroke-width:0.3487;stroke-linecap:butt;stroke-linejoin:round;stroke-miterlimit:10;stroke-dasharray:none;stroke-opacity:1"
       transform="matrix(1.2,0,0,-1.2,134.8104,27.66)" />
    <path
       id="path37"
       d="M 3.5297,9.52785 11.21144,5.39876"
       style="fill:none;stroke:#808080;stroke-width:0.3487;stroke-linecap:butt;stroke-linejoin:round;stroke-miterlimit:10;stroke-dasharray:none;stroke-opacity:1"
       transform="matrix(1.2,0,0,-1.2,134.8104,27.66)" />
    <path
       id="path38"
       d="m 2.9865,8.8238 8.76812,-9.42564"
       style="fill:none;stroke:#808080;stroke-width:0.3487;stroke-linecap:butt;stroke-linejoin:round;stroke-miterlimit:10;stroke-dasharray:none;stroke-opacity:1"
       transform="matrix(1.2,0,0,-1.2,134.8104,27.66)" />
    <path
       id="path39"
       d="m 3.85378,4.11107 7.03332,-9e-5"
       style="fill:none;stroke:#808080;stroke-width:0.3487;stroke-linecap:butt;stroke-linejoin:round;stroke-miterlimit:10;stroke-dasharray:none;stroke-opacity:1"
       transform="matrix(1.2,0,0,-1.2,134.8104,27.66)" />
    <path
       id="path40"
       d="M 3.52966,2.8233 11.2114,-1.30566"
       style="fill:none;stroke:#808080;stroke-width:0.3487;stroke-linecap:butt;stroke-linejoin:round;stroke-miterlimit:10;stroke-dasharray:none;stroke-opacity:1"
       transform="matrix(1.2,0,0,-1.2,134.8104,27.66)" />
    <path
       id="path41"
       d="m 3.5295,-1.30576 7.68182,4.12894"
       style="fill:none;stroke:#808080;stroke-width:0.3487;stroke-linecap:butt;stroke-linejoin:round;stroke-miterlimit:10;stroke-dasharray:none;stroke-opacity:1"
       transform="matrix(1.2,0,0,-1.2,134.8104,27.66)" />
    <path
       id="path42"
       d="m 3.85382,-2.5935 h 7.03323"
       style="fill:none;stroke:#808080;stroke-width:0.3487;stroke-linecap:butt;stroke-linejoin:round;stroke-miterlimit:10;stroke-dasharray:none;stroke-opacity:1"
       transform="matrix(1.2,0,0,-1.2,134.8104,27.66)" />
    <path
       id="path43"
       d="m 2.98637,-7.30634 8.76818,9.4256"
       style="fill:none;stroke:#808080;stroke-width:0.3487;stroke-linecap:butt;stroke-linejoin:round;stroke-miterlimit:10;stroke-dasharray:none;stroke-opacity:1"
       transform="matrix(1.2,0,0,-1.2,134.8104,27.66)" />
    <path
       id="path44"
       d="m 3.52957,-8.01016 7.68179,4.12892"
       style="fill:none;stroke:#808080;stroke-width:0.3487;stroke-linecap:butt;stroke-linejoin:round;stroke-miterlimit:10;stroke-dasharray:none;stroke-opacity:1"
       transform="matrix(1.2,0,0,-1.2,134.8104,27.66)" />
    <path
       id="path45"
       d="m -91.13513,-60.2372 c 3.71437,5.30467 11.76394,2.93245 11.76394,-3.54335 4.48325,0 6.43374,-5.41214 2.55112,-7.65376"
       style="fill:#ffffff;fill-opacity:1;fill-rule:nonzero;stroke:#c9146e;stroke-width:0.89664;stroke-linecap:butt;stroke-linejoin:round;stroke-miterlimit:10;stroke-dasharray:none;stroke-opacity:1"
       transform="matrix(1.2,0,0,-1.2,134.8104,27.66)" />
    <path
       id="path46"
       d="m -100.63129,-77.3871 c -5.39631,0.95148 -4.06208,8.64577 1.41742,8.64577 0,8.46835 11.55646,9.59724 13.74823,1.41743 3.27671,1.19263 6.71343,-1.59262 5.81093,-4.96078 3.43402,-0.6055 3.48697,-5.10242 0,-5.10242 h -20.97658"
       style="fill:#ffffff;fill-opacity:1;fill-rule:nonzero;stroke:#c9146e;stroke-width:0.89664;stroke-linecap:butt;stroke-linejoin:round;stroke-miterlimit:10;stroke-dasharray:none;stroke-opacity:1"
       transform="matrix(1.2,0,0,-1.2,134.8104,27.66)" />
    <path
       id="path47"
       d="m -96.80441,-67.3239 c 0.52058,1.7747 1.42404,2.80138 3.11816,3.54335"
       style="fill:#ffffff;fill-opacity:1;fill-rule:nonzero;stroke:#c9146e;stroke-width:0.89664;stroke-linecap:butt;stroke-linejoin:round;stroke-miterlimit:10;stroke-dasharray:none;stroke-opacity:1"
       transform="matrix(1.2,0,0,-1.2,134.8104,27.66)" />
    <path
       id="path48"
       d="m -86.42616,-72.82687 h -8.56798 c -0.66028,0 -1.19554,-0.53527 -1.19554,-1.19555 v -9.56425 c 0,-0.66026 0.53526,-1.19553 1.19554,-1.19553 h 8.56798 c 0.66028,0 1.19552,0.53527 1.19552,1.19553 v 9.56425 c 0,0.66028 -0.53524,1.19555 -1.19552,1.19555 z"
       style="fill:#ffffff;fill-opacity:1;fill-rule:nonzero;stroke:#c9146e;stroke-width:0.64757;stroke-linecap:butt;stroke-linejoin:round;stroke-miterlimit:10;stroke-dasharray:none;stroke-opacity:1"
       transform="matrix(1.2,0,0,-1.2,134.8104,27.66)" />
    <path
       id="path49"
       d="m -84.93175,-70.75339 h -11.55681 c -0.66027,0 -1.19554,-0.53526 -1.19554,-1.19552 v -1.59406 c 0,-0.66026 0.53527,-1.19553 1.19554,-1.19553 h 11.55681 c 0.66028,0 1.19553,0.53527 1.19553,1.19553 v 1.59406 c 0,0.66026 -0.53525,1.19552 -1.19553,1.19552 z"
       style="fill:#ffffff;fill-opacity:1;fill-rule:nonzero;stroke:#c9146e;stroke-width:0.64757;stroke-linecap:butt;stroke-linejoin:round;stroke-miterlimit:10;stroke-dasharray:none;stroke-opacity:1"
       transform="matrix(1.2,0,0,-1.2,134.8104,27.66)" />
    <path
       id="path50"
       d="m -94.05728,-72.74596 c 0,0.38907 -0.39661,0.70447 -0.88584,0.70447 -0.48922,0 -0.88583,-0.3154 -0.88583,-0.70447 0,-0.38907 0.39661,-0.70448 0.88583,-0.70448 0.48923,0 0.88584,0.31541 0.88584,0.70448 z"
       style="fill:#c9146e;fill-opacity:1;fill-rule:nonzero;stroke:none"
       transform="matrix(1.2,0,0,-1.2,134.8104,27.66)" />
    <path
       id="path51"
       d="m -91.23537,-72.74596 c 0,0.38907 -0.3966,0.70447 -0.88583,0.70447 -0.48923,0 -0.88583,-0.3154 -0.88583,-0.70447 0,-0.38907 0.3966,-0.70448 0.88583,-0.70448 0.48923,0 0.88583,0.31541 0.88583,0.70448 z"
       style="fill:#c9146e;fill-opacity:1;fill-rule:nonzero;stroke:none"
       transform="matrix(1.2,0,0,-1.2,134.8104,27.66)" />
    <path
       id="path52"
       d="m -84.93175,-76.81198 h -11.55681 c -0.66027,0 -1.19554,-0.53526 -1.19554,-1.19554 v -1.59404 c 0,-0.66027 0.53527,-1.19553 1.19554,-1.19553 h 11.55681 c 0.66028,0 1.19553,0.53526 1.19553,1.19553 v 1.59404 c 0,0.66028 -0.53525,1.19554 -1.19553,1.19554 z"
       style="fill:#ffffff;fill-opacity:1;fill-rule:nonzero;stroke:#c9146e;stroke-width:0.64757;stroke-linecap:butt;stroke-linejoin:round;stroke-miterlimit:10;stroke-dasharray:none;stroke-opacity:1"
       transform="matrix(1.2,0,0,-1.2,134.8104,27.66)" />
    <path
       id="path53"
       d="m -94.05728,-78.80453 c 0,0.38905 -0.39661,0.70446 -0.88584,0.70446 -0.48922,0 -0.88583,-0.31541 -0.88583,-0.70446 0,-0.38907 0.39661,-0.70449 0.88583,-0.70449 0.48923,0 0.88584,0.31542 0.88584,0.70449 z"
       style="fill:#c9146e;fill-opacity:1;fill-rule:nonzero;stroke:none"
       transform="matrix(1.2,0,0,-1.2,134.8104,27.66)" />
    <path
       id="path54"
       d="m -91.23537,-78.80453 c 0,0.38905 -0.3966,0.70446 -0.88583,0.70446 -0.48923,0 -0.88583,-0.31541 -0.88583,-0.70446 0,-0.38907 0.3966,-0.70449 0.88583,-0.70449 0.48923,0 0.88583,0.31542 0.88583,0.70449 z"
       style="fill:#c9146e;fill-opacity:1;fill-rule:nonzero;stroke:none"
       transform="matrix(1.2,0,0,-1.2,134.8104,27.66)" />
    <path
       id="path55"
       d="m -84.93175,-82.87059 h -11.55681 c -0.66027,0 -1.19554,-0.53525 -1.19554,-1.19553 v -1.59404 c 0,-0.66027 0.53527,-1.19554 1.19554,-1.19554 h 11.55681 c 0.66028,0 1.19553,0.53527 1.19553,1.19554 v 1.59404 c 0,0.66028 -0.53525,1.19553 -1.19553,1.19553 z"
       style="fill:#ffffff;fill-opacity:1;fill-rule:nonzero;stroke:#c9146e;stroke-width:0.64757;stroke-linecap:butt;stroke-linejoin:round;stroke-miterlimit:10;stroke-dasharray:none;stroke-opacity:1"
       transform="matrix(1.2,0,0,-1.2,134.8104,27.66)" />
    <path
       id="path56"
       d="m -94.05728,-84.86313 c 0,0.38907 -0.39661,0.70448 -0.88584,0.70448 -0.48922,0 -0.88583,-0.31541 -0.88583,-0.70448 0,-0.38905 0.39661,-0.70447 0.88583,-0.70447 0.48923,0 0.88584,0.31542 0.88584,0.70447 z"
       style="fill:#c9146e;fill-opacity:1;fill-rule:nonzero;stroke:none"
       transform="matrix(1.2,0,0,-1.2,134.8104,27.66)" />
    <path
       id="path57"
       d="m -91.23537,-84.86313 c 0,0.38907 -0.3966,0.70448 -0.88583,0.70448 -0.48923,0 -0.88583,-0.31541 -0.88583,-0.70448 0,-0.38905 0.3966,-0.70447 0.88583,-0.70447 0.48923,0 0.88583,0.31542 0.88583,0.70447 z"
       style="fill:#c9146e;fill-opacity:1;fill-rule:nonzero;stroke:none"
       transform="matrix(1.2,0,0,-1.2,134.8104,27.66)" />
    <path
       id="path58"
       d="m -83.65527,-84.86314 h 3.4572"
       style="fill:none;stroke:#c9146e;stroke-width:0.64757;stroke-linecap:butt;stroke-linejoin:round;stroke-miterlimit:10;stroke-dasharray:none;stroke-opacity:1"
       transform="matrix(1.2,0,0,-1.2,134.8104,27.66)" />
    <path
       id="path59"
       d="m 3.66132,0 c 0,0.92163 -0.74714,1.66876 -1.66877,1.66876 C 1.0709,1.66876 0.32378,0.92163 0.32378,0 c 0,-0.92163 0.74712,-1.66876 1.66877,-1.66876 0.92163,0 1.66877,0.74713 1.66877,1.66876 z"
       style="fill:#c9146e;fill-opacity:1;fill-rule:nonzero;stroke:#c9146e;stroke-width:0.64757;stroke-linecap:butt;stroke-linejoin:miter;stroke-miterlimit:10;stroke-dasharray:none;stroke-opacity:1"
       transform="matrix(1.2,0,0,-1.2,38.184156,129.49577)" />
    <path
       id="path60"
       d="m -88.23877,-86.93663 v -0.97556 c 0,-2.20094 1.78417,-3.98511 3.98511,-3.98511 h -1.97705"
       style="fill:none;stroke:#c9146e;stroke-width:0.64757;stroke-linecap:butt;stroke-linejoin:round;stroke-miterlimit:10;stroke-dasharray:none;stroke-opacity:1"
       transform="matrix(1.2,0,0,-1.2,134.8104,27.66)" />
    <path
       id="path61"
       d="m 3.66132,0 c 0,0.92163 -0.74714,1.66876 -1.66877,1.66876 C 1.0709,1.66876 0.32378,0.92163 0.32378,0 c 0,-0.92163 0.74712,-1.66876 1.66877,-1.66876 0.92163,0 1.66877,0.74713 1.66877,1.66876 z"
       style="fill:#c9146e;fill-opacity:1;fill-rule:nonzero;stroke:#c9146e;stroke-width:0.64757;stroke-linecap:butt;stroke-linejoin:miter;stroke-miterlimit:10;stroke-dasharray:none;stroke-opacity:1"
       transform="matrix(1.2,0,0,-1.2,30.945012,137.93676)" />
    <path
       id="path62"
       d="m -93.18153,-86.93663 v -0.97556 c 0,-2.20094 -1.78417,-3.98511 -3.98511,-3.98511 h 1.97705"
       style="fill:none;stroke:#c9146e;stroke-width:0.64757;stroke-linecap:butt;stroke-linejoin:round;stroke-miterlimit:10;stroke-dasharray:none;stroke-opacity:1"
       transform="matrix(1.2,0,0,-1.2,134.8104,27.66)" />
    <path
       id="path63"
       d="m 3.66132,0 c 0,0.92163 -0.74714,1.66876 -1.66877,1.66876 C 1.0709,1.66876 0.32378,0.92163 0.32378,0 c 0,-0.92163 0.74712,-1.66876 1.66877,-1.66876 0.92163,0 1.66877,0.74713 1.66877,1.66876 z"
       style="fill:#c9146e;fill-opacity:1;fill-rule:nonzero;stroke:#c9146e;stroke-width:0.64757;stroke-linecap:butt;stroke-linejoin:miter;stroke-miterlimit:10;stroke-dasharray:none;stroke-opacity:1"
       transform="matrix(-1.2,0,0,1.2,20.971428,137.93676)" />
    <path
       id="path64"
       d="m -97.76503,-84.86314 h -3.4572"
       style="fill:none;stroke:#c9146e;stroke-width:0.64757;stroke-linecap:butt;stroke-linejoin:round;stroke-miterlimit:10;stroke-dasharray:none;stroke-opacity:1"
       transform="matrix(1.2,0,0,-1.2,134.8104,27.66)" />
    <path
       id="path65"
       d="m 3.66132,0 c 0,0.92163 -0.74714,1.66876 -1.66877,1.66876 C 1.0709,1.66876 0.32378,0.92163 0.32378,0 c 0,-0.92163 0.74712,-1.66876 1.66877,-1.66876 0.92163,0 1.66877,0.74713 1.66877,1.66876 z"
       style="fill:#c9146e;fill-opacity:1;fill-rule:nonzero;stroke:#c9146e;stroke-width:0.64757;stroke-linecap:butt;stroke-linejoin:miter;stroke-miterlimit:10;stroke-dasharray:none;stroke-opacity:1"
       transform="matrix(-1.2,0,0,1.2,13.732272,129.49577)" />
    <path
       id="path66"
       d="m 78.66258,-86.05463 c 0,-0.71522 4.75922,-1.29503 10.63016,-1.29503 5.87094,0 10.63014,0.57981 10.63014,1.29503 v 6.76448 c 0,0.71521 -4.7592,1.29502 -10.63014,1.29502 -5.87094,0 -10.63016,-0.57981 -10.63016,-1.29502 z m 0,6.76448 c 0,-0.71522 4.75922,-1.29502 10.63016,-1.29502 5.87094,0 10.63014,0.5798 10.63014,1.29502"
       style="fill:#80d980;fill-opacity:1;fill-rule:nonzero;stroke:#000000;stroke-width:0.3985;stroke-linecap:butt;stroke-linejoin:round;stroke-miterlimit:10;stroke-dasharray:none;stroke-opacity:1"
       transform="matrix(1.2,0,0,-1.2,134.8104,27.66)" />
    <path
       id="path67"
       d="m 78.66245,-77.856 c 0,-0.71521 4.75921,-1.29502 10.63015,-1.29502 5.87094,0 10.63014,0.57981 10.63014,1.29502 v 6.76448 c 0,0.71521 -4.7592,1.29501 -10.63014,1.29501 -5.87094,0 -10.63015,-0.5798 -10.63015,-1.29501 z m 0,6.76448 c 0,-0.71523 4.75921,-1.29503 10.63015,-1.29503 5.87094,0 10.63014,0.5798 10.63014,1.29503"
       style="fill:#b3e8b3;fill-opacity:1;fill-rule:nonzero;stroke:#000000;stroke-width:0.3985;stroke-linecap:butt;stroke-linejoin:round;stroke-miterlimit:10;stroke-dasharray:none;stroke-opacity:1"
       transform="matrix(1.2,0,0,-1.2,134.8104,27.66)" />
    <path
       id="path68"
       d="m 78.66231,-69.6572 c 0,-0.7152 4.75921,-1.29501 10.63016,-1.29501 5.87093,0 10.63013,0.57981 10.63013,1.29501 v 6.76448 c 0,0.71523 -4.7592,1.29503 -10.63013,1.29503 -5.87095,0 -10.63016,-0.5798 -10.63016,-1.29503 z m 0,6.76448 c 0,-0.71522 4.75921,-1.29502 10.63016,-1.29502 5.87093,0 10.63013,0.5798 10.63013,1.29502"
       style="fill:#e6f7e6;fill-opacity:1;fill-rule:nonzero;stroke:#000000;stroke-width:0.3985;stroke-linecap:butt;stroke-linejoin:round;stroke-miterlimit:10;stroke-dasharray:none;stroke-opacity:1"
       transform="matrix(1.2,0,0,-1.2,134.8104,27.66)" />
  </g>
</svg>
