<svg version="1.1" id="Ebene_1" xmlns="http://www.w3.org/2000/svg" xmlns:xlink="http://www.w3.org/1999/xlink" x="0" y="0" width="770" height="661" viewBox="0 0 770 661" xml:space="preserve"><style>.st1{clip-path:url(#SVGID_5_)}.st1,.st8{fill:#001e41}.st12{fill:#fff}.st34{fill:#002052}.st35{fill:none}.st165{fill:#4eb6e1}.st180{fill:#37b2e0}.st188{fill:#daeaf7}.st189{fill:none;stroke:#002052;stroke-width:.7684;stroke-linecap:round;stroke-linejoin:round;stroke-miterlimit:10}</style><path transform="rotate(-89.92 499.503 243.499)" fill="#41444e" fill-opacity=".2" d="M258.623-27.336h481.755v541.673H258.623z"/><path transform="rotate(-89.908 329.496 308)" class="st180" d="M270.506 299.597h117.99v16.807h-117.99z"/><path class="st12" d="M326.109 287.417v5.037h-3.844l6.557 17.426 6.512-17.426h-3.847v-5.037z"/><path class="st180" d="M78.11 122.275c0 5.358-8.631 9.698-19.283 9.698-10.649 0-19.283-4.341-19.283-9.698 0-5.356 8.634-9.698 19.283-9.698 10.652 0 19.283 4.342 19.283 9.698"/><path class="st8" d="M364.436 545.865s4.63.688 8.143-.402c10.715-3.324 6.432-11.265 6.432-11.265s5.861-2.511.705-7.604c-.084-.08 4.912-5.345.518-14.133-1.918-3.836-7.263-6.515-11.639-5.84-5.481.847-6.67 2.585-8.808 3.473-.466.194.232-5.698-5.154-8.021-2.557-1.103-6.439-2.567-11.617.53-5.005 2.989-3.884 5.681-4.244 5.245-1.24-1.514-7.083-.243-5.621 4.11.077.229-5.731-.83-10.142 4.582-4.553 5.584-3.875 15.63.987 15.943-2.897 15.214 16.317 13.912 19.233 10.787 1.047.384 1.386.979 2.445 2.093 2.783 2.953 3.03 1.327 5.113 4.806.583.972.237 1.121 1.219 4.03.988 2.917.279 1.434.155 4.881-.151 4.268-.958 3.646-1.415 5.496-.702 2.837-3.596 2.286-5.394 3.212-4.096 2.106-6.596 1.488-11.188 2.234-4.499.75-11.545 2.692-14.158 3.553-10.57 4.366-14.12 3.271-14.118 10.956l69.551.3 17.034.128c-.001-.005-.258-.384-3.715-4.225-3.202-3.717-18.525-10.977-22.54-11.785-2.337-1.285-3.429-2.454-4.351-2.816-1.925-.755-1.678-1.898-2.037-3.806-.862-4.527-.586-2.896-.67-3.831-.651-6.977-.426-2.542.924-9.361.597-2.993 2.51-.786 4.352-3.27m-17.912-4.458c.191.318.856 1.972 1.507 4.264-.591-.185-3.913-2.754-4.105-3.257-.332-.707 1.946-1.082 2.598-1.007m4.219-1.647c.107 4.661-.295 3.248-.396 6.311-2.185-.22-2.418-3.15-3.159-4.899-.358-.833 4.019-1.659 3.555-1.412m10.106 6.81c0-.652.136-.335 1.6-3.031-.381.176-1.951 2.215-2.329 2.322-.723-.155-.101-3.06-.062-2.786.282 1.986 2.756 2.795 3.875 2.555l-.774.619s-.885.741-2.31.321m-3.584-4.621c1.395 1.974 2.423.331 2.442.538-.339 1.974-.597 2.001-.553 4.062.038 1.782-.429.984-1.781 4.916-.328.954-1.463 1.148-1.85.451-1.202-2.158-3.803-3.102-3.958-5.712-.142-2.418-.227-2.475-.327-6.316.55-.053.866 1.611 1.606 2.798 2.056 2.406 4.163.235 4.421-.737"/><path class="st180" d="M209 126H40.181l-3.331-18H209zM137 88h458v17H137zM321 404h263v17H321z"/><path class="st180" d="M441 98.009L440.808 216 424 215.991 424.198 98z"/><path transform="rotate(-89.926 677.51 479.497)" class="st180" d="M618.007 471.077h118.987v16.846H618.007z"/><path class="st180" d="M603.043 107.005h16.915v286.991h-16.915zM465 400.967L464.93 111l-16.93.039.074 289.961z"/><path class="st180" d="M455 247.001h151V264H455z"/><path class="st8" d="M527 572h211v8H527zM312 256h158v8H312zM384 396h-75v8h75M137 77h72v8h-72z"/><path class="st12" d="M655.459 231.282l-95.435.093v-20.856h95.2zM663 193h73v41h-73z"/><path class="st8" d="M658 231.096V206h-53v-5h-9v5h-3v-6h-24v6h-11v26h-4v7h189v-8l-85 .096zM654 226h-93v-4h93v4zm0-6h-93v-7h93v7zM694 183h40v5h-40zM683.5 143h-10.84l-3.439 45h17.713z"/><path class="st8" d="M734 232h5v-43h-79v43h55v-15h19v15zm-61-6h-7v-7h7v7zm0-12h-7v-7h7v7zm0-13h-7v-7h7v7zm12 25h-7v-7h7v7zm0-12h-7v-7h7v7zm0-13h-7v-7h7v7zm12 25h-7v-7h7v7zm0-12h-7v-7h7v7zm0-13h-7v-7h7v7zm13 25h-7v-7h7v7zm0-12h-7v-7h7v7zm0-13h-7v-7h7v7zm12 13h-7v-7h7v7zm0-13h-7v-7h7v7zm13 13h-7v-7h7v7zm0-13h-7v-7h7v7zM715 546.279v-15.615L679.713 519h-19.616L647 529.779V538l-9.74-.039-8.26 6.931v10.111l-12 9.32V573h118v-16.565z"/><path class="st12" d="M652.158 533.862h16.057v3.218h-16.057zM671.275 533.862h16.057v3.218h-16.057zM690.224 533.862h16.056v3.218h-16.056zM630.759 544.894h2.246v4.241h-2.246zM630.759 550.296h2.246v4.241h-2.246zM630.759 555.695h2.246v4.246h-2.246zM630.759 561.097h2.246v4.246h-2.246zM630.759 566.5h2.246v4.241h-2.246zM635.323 544.894h2.246v4.241h-2.246zM635.323 550.296h2.246v4.241h-2.246zM635.323 555.695h2.246v4.246h-2.246zM635.323 561.097h2.246v4.246h-2.246zM635.323 566.5h2.246v4.241h-2.246zM639.731 544.894h2.246v4.241h-2.246zM639.731 550.296h2.246v4.241h-2.246zM639.731 555.695h2.246v4.246h-2.246zM639.731 561.097h2.246v4.246h-2.246zM639.731 566.5h2.246v4.241h-2.246zM644.072 544.894h2.245v4.241h-2.245zM644.072 550.296h2.245v4.241h-2.245zM644.072 555.695h2.245v4.246h-2.245zM644.072 561.097h2.245v4.246h-2.245zM644.072 566.5h2.245v4.241h-2.245zM674.468 571.275H663.39v-12.032a16.718 16.718 0 0111.013-4.904c.023 5.641.044 11.291.065 16.936M687.176 571.275h-11.078c.023-5.645.048-11.295.065-16.936a16.718 16.718 0 0111.013 4.904v12.032zM726.947 557.385h3.777v3.712h-3.777zM721.023 557.385h3.804v3.712h-3.804zM715.093 557.385h3.837v3.712h-3.837z"/><path class="st180" d="M594 584v-16h-19v33.619c0 5.18 4.2 9.38 9.38 9.38h.24c5.18 0 9.38-4.2 9.38-9.38v-16.287c0-.338-.02-.669-.054-.997M572 585v-17h-19v33.621a9.379 9.379 0 009.379 9.379h.243a9.379 9.379 0 009.379-9.379v-16.288c0-.206-.018-.41-.032-.615M550 585v-16h-20v15.663c.913.223 1 .67 1 .67v16.286c0 5.18 4.2 9.38 9.38 9.38h.24c5.18 0 9.38-4.2 9.38-9.38v-16.286c0-.197-.018-.389-.03-.583"/><path d="M299.982 528.694c.485.35 1.131.786 1.519.887 1.338.35 1.326.512 1.639 1.091.078-.313-.337-1.258-.698-1.58 1.098-.119 3.075.423 5.104 1.972-1.555-2.832-3.886-3.345-5.564-2.775-.708-1.612-1.799-2.049-4.738-1.244 2.123.181 2.772.467 3.663 1.32-.402-.032-.649-.093-.949.14l-.19.155.214.034zm-40.615-21.84c-.592.645-1.294 1.011-1.809 1.086-1.776.265-1.439.405-2.671 1.183-.108-1.21.77-.38 1.611-1.734-1.436-.045-3.179 1.314-5.769 2.153.713-2.087 2.97-2.929 6.65-3.287.633-2.75 3.233-4.241 5.43-3.941-2.281 1.416-3.702 3.161-4.194 3.937.482-.054.628-.071.896.258l.321.318-.465.027zm12.9 23.738c-.666.039-1.544.057-1.974-.08-1.472-.476-1.559-.313-2.201.045.11-.35 1.073-.985 1.608-1.073-.96-.773-3.152-1.457-6.005-1.223 3.174-1.73 5.69-.812 6.927.741 1.644-1.098 2.932-.851 5.223 1.683-2.115-1.109-2.9-1.232-4.256-.963.401.211.672.304.812.707l.086.256-.22-.093z" fill-rule="evenodd" clip-rule="evenodd" fill="#002052"/><path class="st8" d="M393 105h232v8H393z"/><path class="st8" d="M406.326 78.169c0-2.682.755-4.294 3.17-4.294.524 0 19.038.032 11.504.018V112h109.577l65.423-.702V67h-72V49h-5v-2h-20v2h-4v18h-74v3.952c7.533.003-11.051.018-11.584.018-4.542 0-5.701 1.543-5.701 7.199m182.443-4.74c6.396.029 18.698 0 18.698 0s4.228-.13 5.163.639c1.443 1.184.936 2.992.966 5.475.011.64.194.874.194.874l2.68.163-.101-1.412c0-4.809.127-8.006-4.56-8.365-1.924-.149-4.372-.118-6.016-.118-.313 0-13.944.029-17.014.026"/><path class="st12" d="M503.106 66.874h-3.929V51.51a2.778 2.778 0 013.929 0v15.364zM510.707 66.874h-3.928V51.51a2.777 2.777 0 013.928 0v15.364zM518.858 66.874h-3.923V51.51a2.77 2.77 0 013.923 0v15.364zM506.934 75.894h3.884v9.63h-3.884zM498.931 75.894h3.886v9.63h-3.886zM490.928 75.894h3.884v9.63h-3.884zM482.931 75.894h3.884v9.63h-3.884zM474.924 75.894h3.884v9.63h-3.884zM466.921 75.894h3.886v9.63h-3.886zM458.923 75.894h3.88v9.63h-3.88zM450.92 75.894h3.881v9.63h-3.881zM442.915 75.894h3.884v9.63h-3.884zM434.912 75.894h3.886v9.63h-3.886zM515.145 75.894h3.884v9.63h-3.884zM523.145 75.894h3.881v9.63h-3.881zM531.148 75.894h3.884v9.63h-3.884zM539.15 75.894h3.886v9.63h-3.886zM547.154 75.894h3.884v9.63h-3.884zM555.154 75.894h3.884v9.63h-3.884zM563.158 75.894h3.884v9.63h-3.884zM571.159 75.894h3.886v9.63h-3.886zM578.664 75.894h3.884v9.63h-3.884z"/><path class="st8" d="M414.485 107.082c0 3.045-4.249 5.517-9.487 5.517h-.405c-5.243 0-9.492-2.472-9.492-5.517V82.133c0-3.046 4.249-5.516 9.492-5.516h.405c5.238 0 9.487 2.469 9.487 5.516v24.949zM603 107.484c0 3.045 4.166 5.516 9.304 5.516h.393c5.139 0 9.304-2.471 9.304-5.516V82.52c0-3.048-4.164-5.52-9.304-5.52h-.393c-5.138 0-9.304 2.472-9.304 5.52v24.964zM1 77h112v8H1zM59 77h24V12H59v65zm17-61h3v6h-3v-6zm0 10h3v6h-3v-6zm0 10h3v6h-3v-6zm0 11h3v6h-3v-6zm0 10h3v6h-3v-6zm0 10h3v6h-3v-6zm-4-51h3v6h-3v-6zm0 10h3v6h-3v-6zm0 10h3v6h-3v-6zm0 11h3v6h-3v-6zm0 10h3v6h-3v-6zm0 10h3v6h-3v-6zm-5-51h3v6h-3v-6zm0 10h3v6h-3v-6zm0 10h3v6h-3v-6zm0 11h3v6h-3v-6zm0 10h3v6h-3v-6zm0 10h3v6h-3v-6zm-4-51h3v6h-3v-6zm0 10h3v6h-3v-6zm0 10h3v6h-3v-6zm0 11h3v6h-3v-6zm0 10h3v6h-3v-6zm0 10h3v6h-3v-6zM85 77h24V23H85v54zm7-4h-3v-6h3v6zm0-10h-3v-6h3v6zm0-10h-3v-6h3v6zm0-10h-3v-6h3v6zm0-11h-3v-6h3v6zm4 41h-3v-6h3v6zm0-10h-3v-6h3v6zm0-10h-3v-6h3v6zm0-10h-3v-6h3v6zm0-11h-3v-6h3v6zm5 41h-3v-6h3v6zm0-10h-3v-6h3v6zm0-10h-3v-6h3v6zm0-10h-3v-6h3v6zm0-11h-3v-6h3v6zm4 41h-3v-6h3v6zm0-10h-3v-6h3v6zm0-10h-3v-6h3v6zm0-10h-3v-6h3v6zm0-11h-3v-6h3v6zM54 25h-3v-9h-5V9h-1v7h-5v9h-3v7h-4v45h24V32h-3v-7zM41 73h-3v-6h3v6zm0-10h-3v-6h3v6zm0-10h-3v-6h3v6zm0-11h-3v-6h3v6zm4 31h-3v-6h3v6zm0-10h-3v-6h3v6zm0-10h-3v-6h3v6zm0-11h-3v-6h3v6zm4 31h-3v-6h3v6zm0-10h-3v-6h3v6zm0-10h-3v-6h3v6zm0-11h-3v-6h3v6zm4 31h-3v-6h3v6zm0-10h-3v-6h3v6zm0-10h-3v-6h3v6zm0-11h-3v-6h3v6zM28 48h-5v2.677l-5.722-4.848L5 56.009V77h10v-9h5v9h10V56.255l-2-1.345V48zM14 64H9v-6h5v6zm11 0h-5v-6h5v6z"/><path class="st180" d="M386.617 584c-3.227-.269-5.87-2.714-6.715-6h-.618c-.842 3.286-3.486 5.731-6.71 6h-1.153c-3.224-.269-5.865-2.714-6.707-6h-.622c-.842 3.286-3.485 5.731-6.71 6h-1.154c-3.226-.269-5.865-2.714-6.712-6h-.619c-.842 3.286-3.486 5.731-6.709 6h-1.154c-3.224-.269-5.867-2.714-6.71-6h-.619c-.842 3.286-3.485 5.731-6.71 6h-1.153c-3.223-.269-5.865-2.714-6.707-6h-.621c-.842 3.286-3.488 5.731-6.712 6h-1.153c-3.226-.269-5.867-2.714-6.712-6h-.618c-.845 3.286-3.488 5.731-6.71 6h-1.153c-3.226-.269-5.87-2.714-6.71-6h-.621c-.844 3.286-3.485 5.731-6.712 6h-1.153c-3.221-.269-5.867-2.714-6.712-6h-.618c-.841 3.286-3.485 5.731-6.712 6h-1.151c-3.221-.269-5.865-2.714-6.707-6h-.621c-.842 3.286-3.485 5.731-6.709 6h-1.151c-3.226-.269-5.868-2.714-6.713-6h-.619c-.842 3.286-3.336 5.731-6.543 6H229v17h310v-17H386.617z"/><path class="st35" d="M.687 2.052h769.312v620.503H.687z"/><path class="st12" d="M261.863 587.32h3.465c1.68 0 2.745.99 2.745 2.686 0 1.17-.405 2.399-1.65 2.699v.03c.93.105 1.455.87 1.515 1.785l.09 1.83c.06 1.185.255 1.484.57 1.68h-1.59c-.225-.225-.33-1.02-.36-1.545l-.09-1.665c-.105-1.47-.915-1.56-1.59-1.56h-1.785v4.77h-1.32v-10.71zm1.32 4.861h1.305c.78 0 2.205 0 2.205-2.07 0-1.05-.705-1.71-1.935-1.71h-1.575v3.78zM270.053 587.32h1.26v1.44h-1.26v-1.44zm0 2.67h1.26v8.04h-1.26v-8.04zM272.723 589.99h1.38l1.5 6.45h.03l1.5-6.45h1.38l-2.175 8.04h-1.44l-2.175-8.04zM280.913 594.16c0 1.23 0 3.09 1.545 3.09 1.2 0 1.365-1.26 1.365-1.859h1.26c0 .854-.51 2.85-2.7 2.85-1.965 0-2.79-1.365-2.79-4.125 0-2.01.39-4.335 2.865-4.335 2.46 0 2.685 2.146 2.685 3.87v.51h-4.23zm2.909-.989v-.436c0-.899-.285-1.965-1.395-1.965-1.32 0-1.47 1.62-1.47 2.1v.301h2.865zM286.897 589.99h1.26v1.2h.03c.36-.765.84-1.41 1.74-1.41.255 0 .435.03.555.091v1.229c-.12-.015-.27-.06-.675-.06-.63 0-1.65.569-1.65 1.904v5.085h-1.26v-8.039z"/><defs><path id="SVGID_121_" d="M.687 2.052h769.312v620.503H.687z"/></defs><clipPath id="SVGID_2_"><use xlink:href="#SVGID_121_" overflow="visible"/></clipPath><path d="M80.646 111.65c0 12.106-9.816 21.918-21.918 21.918-12.106 0-21.92-9.813-21.92-21.918 0-12.104 9.814-21.92 21.92-21.92 12.102.001 21.918 9.816 21.918 21.92z" clip-path="url(#SVGID_2_)" fill="none" stroke="#002241" stroke-width="4.61" stroke-miterlimit="10"/><path class="st180" d="M69.775 109.226h13.716v16.713H69.775z"/><path class="st12" d="M122.204 114.55h-5.037v-3.846l-11.397 6.56 11.397 6.51v-3.845h5.037zM310.353 93.081h5.036v-3.846l17.423 6.558-17.423 6.51v-3.845h-5.036zM404.394 409.893h5.036v-3.847l17.423 6.559-17.423 6.51v-3.845h-5.036zM539.65 409.893h5.035v-3.847l17.421 6.559-17.421 6.51v-3.845h-5.035zM562.11 252.345h-5.036V248.5l-17.427 6.557 17.427 6.511v-3.846h5.036zM450.069 589.655h-5.041v-3.845l-17.421 6.555 17.421 6.51v-3.845h5.041zM608.672 141.95v5.035h-3.847l6.56 17.424 6.51-17.424h-3.843v-5.035zM429.941 141.95v5.035h-3.843l6.56 17.424 6.51-17.424h-3.848v-5.035zM454.453 164.41v-5.035h-3.842l6.562-17.424 6.504 17.424h-3.844v5.035zM608.672 287.417v5.037h-3.847l6.56 17.426 6.51-17.426h-3.843v-5.037zM675.135 475.895v5.037h-3.845l6.559 17.424 6.512-17.424h-3.846v-5.037zM453.817 287.417v5.037h-3.846l6.561 17.426 6.509-17.426h-3.845v-5.037z"/><path fill="#d9e9f6" d="M447.742 215.011h17.953v6.816h-17.953z"/><defs><path id="SVGID_123_" d="M.687 2.052h769.312v620.503H.687z"/></defs><clipPath id="SVGID_5_"><use xlink:href="#SVGID_123_" overflow="visible"/></clipPath><path class="st1" d="M168.868 21.329h-5.082c3.025-1.112 5.154-3.672 5.174-6.673l.044-5.008c.027-4.044-3.786-7.349-8.518-7.379l-3.528-.024c-4.732-.032-8.589 3.221-8.618 7.266l-.044 5.009c-.02 3.058 2.159 5.692 5.269 6.808h-5.132c-.494 0-.896.533-.896 1.189 0 .66.402 1.192.896 1.192h5.119l-1.501 6.888c-.003.018.003.036.001.054-.017.057-.045.108-.05.17l-2.741 47.752c-.03.533.432.991 1.032 1.028.601.033 1.112-.369 1.142-.901l.515-8.966 6.713-6.712 6.698 6.698.515 8.979c.03.532.542.934 1.144.901.601-.036 1.062-.494 1.032-1.028l-2.741-47.752c-.005-.062-.035-.113-.05-.17-.003-.018.005-.036.002-.054l-1.501-6.888h5.103c.494 0 .895-.532.895-1.192.003-.654-.397-1.187-.892-1.187m-15.409 22.15l4.155 4.155-4.661 4.661.506-8.816zm-.633 11.042l.009-.007 5.831-5.828 5.826 5.826.035.591c-.045.029-.09.047-.128.084l-5.731 5.73-5.781-5.778c-.029-.027-.063-.041-.093-.062l.032-.556zm6.891-6.888l4.142-4.14.505 8.786-4.647-4.646zm3.422-16.568c.002.006.008.011.008.018l.344 5.986-3.773-3.771 3.209-3.208.212.975zm.416 8.174c.02.017.044.024.062.039l.13 2.243c-.021.017-.044.023-.062.042l-5.017 5.017-5.079-5.079c-.006-.003-.011-.005-.015-.009l.124-2.175 4.969-4.967 4.888 4.889zm-9.729-2.153l.344-6.004c.002-.008.008-.012.009-.018l.215-.987 3.22 3.22-3.788 3.789zm-1.746 30.417l.6-10.466 4.934 4.934-5.534 5.532zm7.637-5.533l4.921-4.919.598 10.436-5.519-5.517zm2.833-33.607l-3.883 3.883-3.896-3.896 1.009-4.64h5.755l1.015 4.653zM196.386 21.329h-5.082c3.027-1.112 5.154-3.672 5.174-6.673l.044-5.008c.029-4.044-3.786-7.349-8.517-7.379l-3.53-.024c-4.732-.032-8.589 3.221-8.616 7.266l-.044 5.009c-.023 3.058 2.159 5.692 5.267 6.808h-5.132c-.494 0-.895.533-.895 1.189 0 .66.401 1.192.895 1.192h5.121l-1.501 6.888c-.005.018.003.036 0 .054-.017.057-.045.108-.048.17l-2.741 47.752c-.032.533.431.991 1.031 1.028.601.033 1.112-.369 1.142-.901l.517-8.966 6.712-6.712 6.7 6.698.515 8.979c.029.532.541.934 1.142.901.6-.036 1.062-.494 1.032-1.028L192.83 30.82c-.003-.062-.033-.113-.047-.17-.003-.018.003-.036 0-.054l-1.501-6.888h5.103c.496 0 .896-.532.896-1.192.002-.654-.399-1.187-.895-1.187m-15.408 22.15l4.155 4.155-4.661 4.661.506-8.816zm-.634 11.042a.03.03 0 01.011-.007l5.829-5.828 5.826 5.826.035.591c-.044.029-.09.047-.127.084l-5.733 5.73-5.779-5.778c-.029-.027-.063-.041-.095-.062l.033-.556zm6.892-6.888l4.142-4.14.505 8.786-4.647-4.646zm3.42-16.568c.002.006.008.011.008.018l.345 5.986-3.773-3.771 3.208-3.208.212.975zm.418 8.174c.018.017.041.024.062.039l.13 2.243c-.021.017-.044.023-.063.042l-5.019 5.017-5.079-5.079-.014-.009.125-2.175 4.967-4.967 4.891 4.889zm-9.73-2.153l.344-6.004c.002-.008.008-.012.009-.018l.214-.987 3.223 3.22-3.79 3.789zm-1.746 30.417l.6-10.466 4.936 4.934-5.536 5.532zm7.638-5.533l4.921-4.919.597 10.436-5.518-5.517zm2.831-33.607l-3.884 3.883-3.895-3.896 1.011-4.64h5.754l1.014 4.653zM495.241 54.087v-2.322H445.84c-5.165 0-5.356 2.064-5.356 6.338-3.278.286-5.924 1.925-5.924 3.911v5.128h13.915v-5.128c0-1.868-2.278-3.48-5.736-3.864 0-3.456.148-4.08 3.122-4.063.936.005 7.732.023 9.516 0h39.864z"/><path d="M462.351 58.152v-5.479h-2.281v5.433c-3.271.291-5.907 1.927-5.907 3.908v5.13h13.914v-5.13c-.001-1.867-2.274-3.476-5.726-3.862M481.955 58.152v-5.479h-2.284v5.433c-3.271.291-5.906 1.927-5.906 3.908v5.13h13.915v-5.13c0-1.867-2.274-3.476-5.725-3.862M522.333 54.087v-2.322h49.4c5.162 0 5.354 2.064 5.354 6.338 3.281.286 5.922 1.925 5.922 3.911v5.128H569.1v-5.128c0-1.868 2.273-3.48 5.728-3.864 0-3.456-.14-4.08-3.117-4.063-.94.005-7.732.023-9.516 0h-39.862z" clip-path="url(#SVGID_5_)" fill="#002052"/><path d="M555.221 58.152v-5.479h2.282v5.433c3.272.291 5.906 1.927 5.906 3.908v5.13h-13.914v-5.13c.001-1.867 2.274-3.476 5.726-3.862M535.619 58.152v-5.479h2.283v5.433c3.271.291 5.907 1.927 5.907 3.908v5.13h-13.914v-5.13c0-1.867 2.272-3.476 5.724-3.862" clip-path="url(#SVGID_5_)" fill="#002052"/><path class="st1" d="M401.938 329.076v-.005c-.047-.105-.095-.215-.151-.318l-.017-.035a5.05 5.05 0 00-.895-1.215 4.343 4.343 0 00-.221-.211c-.026-.024-.059-.048-.084-.069a3.789 3.789 0 00-.428-.331c-.039-.027-.078-.057-.118-.083-.063-.044-.131-.081-.199-.124-.062-.036-.124-.072-.191-.107-.062-.036-.127-.069-.188-.102l-.24-.105c-.057-.026-.112-.048-.169-.075a5.159 5.159 0 00-.408-.14c-.041-.014-.081-.02-.116-.032a5.921 5.921 0 00-.337-.084c-.054-.008-.104-.021-.157-.03-.112-.018-.218-.036-.325-.048-.051-.005-.099-.014-.146-.014a4.273 4.273 0 00-.479-.027c-.128 0-.256.004-.386.012a5.223 5.223 0 00-4.924-3.489 7.7 7.7 0 00-.857.053 6.803 6.803 0 00-.676-.494c-.047-.032-.096-.062-.143-.093a8.015 8.015 0 00-.713-.389h-.009a5.969 5.969 0 00-.762-.291 3.107 3.107 0 00-.069-.026 6.53 6.53 0 00-1.847-.265c-3.408 0-6.186 2.418-6.796 5.828-1.464.952-2.415 2.519-2.415 4.05 0 2.64 2.139 4.785 4.802 4.886l13.475.009h1.321c2.835 0 5.232-2.239 5.232-4.895a4.452 4.452 0 00-.364-1.741M379.046 320.452h-.001a5.706 5.706 0 00-.104-.224c-.006-.009-.012-.018-.014-.027a3.619 3.619 0 00-.586-.803c-.017-.02-.029-.036-.047-.053a1.535 1.535 0 00-.157-.146c-.02-.023-.039-.035-.062-.053a2.74 2.74 0 00-.3-.234c-.027-.018-.053-.041-.08-.059a2.548 2.548 0 00-.143-.084l-.133-.078a3.39 3.39 0 00-.136-.071c-.056-.026-.111-.048-.167-.075l-.117-.053c-.095-.035-.191-.071-.292-.101-.026-.008-.053-.011-.078-.02a3.453 3.453 0 00-.238-.06c-.038-.008-.075-.014-.112-.023-.077-.012-.154-.021-.23-.032-.035-.003-.066-.008-.104-.012a3.115 3.115 0 00-.334-.018c-.09 0-.182.005-.271.009a3.684 3.684 0 00-3.474-2.46 5.3 5.3 0 00-.603.038 5.673 5.673 0 00-.476-.35c-.035-.021-.068-.044-.101-.065a5.397 5.397 0 00-.503-.274h-.006a3.91 3.91 0 00-.539-.203c-.015-.008-.032-.011-.048-.018a4.543 4.543 0 00-1.303-.19c-2.402 0-4.362 1.707-4.789 4.11-1.035.67-1.704 1.775-1.704 2.855 0 1.861 1.507 3.376 3.387 3.449l9.499.003h.933c1.999 0 3.688-1.579 3.688-3.452a3.271 3.271 0 00-.255-1.226M741.795 161.24v-.003c-.044-.109-.098-.215-.148-.318-.009-.012-.011-.024-.021-.035a4.904 4.904 0 00-.826-1.145c-.023-.024-.042-.048-.071-.072-.071-.072-.14-.143-.215-.209l-.087-.071a6.068 6.068 0 00-.423-.331c-.047-.029-.08-.056-.122-.081-.063-.044-.131-.083-.196-.124l-.191-.108a5.082 5.082 0 00-.194-.1c-.078-.038-.16-.074-.237-.108a3.53 3.53 0 01-.164-.074 6.175 6.175 0 00-.416-.142c-.041-.012-.075-.02-.113-.033a23.3 23.3 0 00-.336-.083c-.054-.008-.105-.02-.161-.03a6.027 6.027 0 00-.325-.048l-.146-.015a4.908 4.908 0 00-.86-.012 5.227 5.227 0 00-4.927-3.489c-.208 0-.527.014-.854.05a7.279 7.279 0 00-.822-.583 6.23 6.23 0 00-.71-.389c-.006-.003-.011-.003-.011-.003a6.026 6.026 0 00-.762-.291c-.023-.006-.05-.017-.069-.024a6.403 6.403 0 00-1.846-.267c-3.408 0-6.188 2.418-6.798 5.829-1.464.951-2.415 2.516-2.415 4.05 0 2.638 2.141 4.785 4.802 4.887l13.478.006h1.318c2.837 0 5.229-2.239 5.229-4.893a4.526 4.526 0 00-.361-1.741M718.307 156.137v-.003c-.033-.075-.071-.151-.105-.223-.003-.009-.009-.017-.014-.026a3.68 3.68 0 00-.581-.806c-.018-.018-.032-.036-.048-.051-.054-.053-.107-.101-.155-.148-.021-.02-.045-.036-.062-.053a3.228 3.228 0 00-.3-.231c-.032-.021-.059-.042-.084-.059a1.544 1.544 0 00-.14-.086c-.047-.027-.09-.051-.134-.08l-.136-.068c-.054-.027-.111-.051-.169-.078-.039-.017-.075-.033-.119-.05a3.023 3.023 0 00-.286-.101c-.027-.009-.059-.012-.084-.021a3.457 3.457 0 00-.233-.059l-.112-.024c-.08-.011-.154-.023-.234-.032a1.115 1.115 0 01-.101-.014 3.641 3.641 0 00-.609-.006 3.681 3.681 0 00-3.471-2.46c-.143 0-.38.009-.603.035a7.685 7.685 0 00-.476-.35c-.038-.02-.068-.042-.104-.062a4.571 4.571 0 00-.503-.274c0-.002-.003-.002-.009-.003a3.929 3.929 0 00-.533-.203c-.018-.006-.032-.009-.048-.017a4.531 4.531 0 00-1.308-.188c-2.4 0-4.36 1.706-4.788 4.109-1.032.67-1.703 1.775-1.703 2.857 0 1.859 1.508 3.375 3.384 3.446l9.504.006h.931c2.001 0 3.69-1.58 3.69-3.452a3.228 3.228 0 00-.257-1.225"/><path class="st8" d="M24.245 149.986c-.16-1.137-1.249-2.001-2.497-2.001-2.257 0-3.105 1.921-3.105 3.922 0 1.904.849 3.825 3.105 3.825 1.537 0 2.401-1.057 2.593-2.561h2.433c-.256 2.849-2.225 4.674-5.026 4.674-3.538 0-5.618-2.642-5.618-5.938 0-3.394 2.081-6.035 5.618-6.035 2.513 0 4.626 1.473 4.93 4.114h-2.433zM32.259 149.074c2.609 0 4.29 1.729 4.29 4.369 0 2.625-1.681 4.354-4.29 4.354-2.593 0-4.273-1.729-4.273-4.354 0-2.64 1.681-4.369 4.273-4.369zm0 7.011c1.553 0 2.017-1.329 2.017-2.642 0-1.328-.464-2.657-2.017-2.657-1.537 0-2 1.329-2 2.657 0 1.313.464 2.642 2 2.642zM38.082 149.298h2.145v1.12h.032c.592-.848 1.457-1.344 2.529-1.344 1.041 0 1.969.384 2.417 1.376.48-.72 1.345-1.376 2.497-1.376 1.761 0 3.025.816 3.025 2.961v5.538h-2.272v-4.689c0-1.104-.096-2.018-1.393-2.018-1.281 0-1.521 1.057-1.521 2.097v4.61h-2.273v-4.642c0-.961.064-2.065-1.376-2.065-.448 0-1.537.288-1.537 1.905v4.802h-2.273v-8.275zM52.578 149.298h2.145v1.12h.032c.592-.848 1.457-1.344 2.529-1.344 1.041 0 1.969.384 2.417 1.376.48-.72 1.345-1.376 2.497-1.376 1.761 0 3.025.816 3.025 2.961v5.538H62.95v-4.689c0-1.104-.096-2.018-1.393-2.018-1.281 0-1.521 1.057-1.521 2.097v4.61h-2.273v-4.642c0-.961.064-2.065-1.376-2.065-.448 0-1.537.288-1.537 1.905v4.802h-2.273v-8.275zM74.772 157.573h-2.161v-1.152h-.048c-.576.929-1.568 1.376-2.529 1.376-2.417 0-3.025-1.36-3.025-3.409v-5.09h2.273v4.674c0 1.36.4 2.033 1.457 2.033 1.232 0 1.761-.688 1.761-2.369v-4.338h2.273v8.275zM76.497 149.298h2.161v1.152h.048c.576-.928 1.569-1.376 2.529-1.376 2.417 0 3.025 1.36 3.025 3.409v5.09h-2.273v-4.674c0-1.36-.4-2.033-1.457-2.033-1.232 0-1.761.688-1.761 2.369v4.338h-2.273v-8.275zM88.322 148.018h-2.273v-1.873h2.273v1.873zm-2.273 1.28h2.273v8.275h-2.273v-8.275zM92.994 149.298h1.665v1.521h-1.665v4.098c0 .769.192.961.96.961.24 0 .464-.017.704-.064v1.776c-.384.064-.88.08-1.329.08-1.393 0-2.609-.319-2.609-1.969v-4.882h-1.376v-1.521h1.376v-2.481h2.273v2.481zM99.826 158.613c-.496 1.329-1.28 1.873-2.849 1.873-.464 0-.928-.032-1.393-.08v-1.873c.432.032.88.097 1.329.08.784-.08 1.041-.896.784-1.553l-2.913-7.763h2.433l1.873 5.666h.032l1.809-5.666h2.353l-3.458 9.316zM54.396 173.624h-2.161v-1.152h-.048c-.576.929-1.568 1.376-2.529 1.376-2.417 0-3.025-1.36-3.025-3.409v-5.09h2.273v4.674c0 1.36.4 2.033 1.457 2.033 1.232 0 1.761-.688 1.761-2.369v-4.338h2.273v8.275zM57.882 170.935c.016.993.849 1.393 1.745 1.393.656 0 1.489-.256 1.489-1.056 0-.688-.944-.929-2.577-1.281-1.312-.288-2.625-.752-2.625-2.209 0-2.112 1.825-2.656 3.602-2.656 1.809 0 3.473.607 3.649 2.641h-2.161c-.064-.88-.736-1.12-1.552-1.12-.512 0-1.265.096-1.265.768 0 .816 1.28.929 2.577 1.233 1.329.304 2.625.784 2.625 2.32 0 2.177-1.889 2.881-3.778 2.881-1.92 0-3.793-.72-3.889-2.913h2.16zM66.586 170.039c.064 1.44.768 2.097 2.033 2.097.912 0 1.648-.561 1.792-1.073h2.001c-.64 1.953-2.001 2.785-3.874 2.785-2.609 0-4.226-1.792-4.226-4.354 0-2.48 1.712-4.369 4.226-4.369 2.817 0 4.178 2.368 4.018 4.914h-5.97zm3.697-1.441c-.208-1.152-.704-1.761-1.809-1.761-1.441 0-1.857 1.121-1.889 1.761h3.698zM139.567 218.734c.064 1.441.768 2.098 2.033 2.098.912 0 1.648-.561 1.792-1.072h2.001c-.64 1.952-2.001 2.784-3.874 2.784-2.609 0-4.226-1.792-4.226-4.354 0-2.48 1.712-4.369 4.226-4.369 2.817 0 4.178 2.368 4.018 4.913h-5.97zm3.698-1.44c-.208-1.152-.704-1.761-1.809-1.761-1.441 0-1.857 1.121-1.889 1.761h3.698zM148.991 217.967l-2.721-3.922h2.593l1.457 2.161 1.44-2.161h2.513l-2.721 3.874 3.058 4.401h-2.593l-1.729-2.609-1.729 2.609h-2.545l2.977-4.353zM158.351 214.045h1.665v1.521h-1.665v4.098c0 .769.192.961.96.961.24 0 .464-.017.704-.064v1.776c-.384.064-.88.08-1.329.08-1.393 0-2.609-.319-2.609-1.969v-4.882h-1.376v-1.521h1.376v-2.48h2.273v2.48zM161.102 214.045h2.161v1.537h.032c.417-1.041 1.537-1.761 2.641-1.761.16 0 .352.031.496.08v2.112a4.147 4.147 0 00-.816-.08c-1.665 0-2.241 1.2-2.241 2.657v3.729h-2.273v-8.274zM167.229 216.59c.128-2.129 2.033-2.769 3.89-2.769 1.649 0 3.634.368 3.634 2.353v4.306c0 .752.08 1.505.288 1.841h-2.305a3.377 3.377 0 01-.16-.801c-.72.753-1.776 1.024-2.785 1.024-1.569 0-2.817-.784-2.817-2.48 0-1.873 1.409-2.321 2.817-2.513 1.392-.208 2.689-.16 2.689-1.089 0-.977-.672-1.12-1.473-1.12-.864 0-1.425.352-1.505 1.248h-2.273zm5.251 1.681c-.384.336-1.185.353-1.889.48-.705.144-1.345.384-1.345 1.217 0 .848.656 1.056 1.393 1.056 1.777 0 1.841-1.408 1.841-1.904v-.849zM182.144 216.958c-.144-.929-.736-1.425-1.681-1.425-1.457 0-1.937 1.473-1.937 2.689 0 1.185.464 2.609 1.889 2.609 1.056 0 1.665-.673 1.809-1.681h2.193c-.288 2.192-1.809 3.393-3.985 3.393-2.497 0-4.178-1.761-4.178-4.241 0-2.577 1.537-4.481 4.226-4.481 1.953 0 3.746 1.024 3.89 3.137h-2.226zM188.575 214.045h1.665v1.521h-1.665v4.098c0 .769.192.961.96.961.24 0 .464-.017.704-.064v1.776c-.384.064-.88.08-1.329.08-1.393 0-2.609-.319-2.609-1.969v-4.882h-1.376v-1.521h1.376v-2.48h2.273v2.48zM193.662 212.765h-2.273v-1.873h2.273v1.873zm-2.273 1.28h2.273v8.275h-2.273v-8.275zM199.471 213.821c2.609 0 4.29 1.729 4.29 4.369 0 2.625-1.681 4.354-4.29 4.354-2.593 0-4.273-1.729-4.273-4.354-.001-2.64 1.68-4.369 4.273-4.369zm0 7.011c1.553 0 2.017-1.329 2.017-2.642 0-1.328-.464-2.657-2.017-2.657-1.537 0-2 1.329-2 2.657-.001 1.313.463 2.642 2 2.642zM205.229 214.045h2.161v1.152h.048c.576-.928 1.569-1.376 2.529-1.376 2.417 0 3.025 1.36 3.025 3.409v5.09h-2.273v-4.674c0-1.36-.4-2.033-1.457-2.033-1.232 0-1.761.688-1.761 2.369v4.338h-2.273v-8.275zM164.955 206.269h-2.497l-1.937-7.779h-.032l-1.905 7.779h-2.545l-3.025-11.429h2.513l1.809 7.779h.032l1.985-7.779h2.353l1.953 7.875h.032l1.873-7.875h2.465l-3.074 11.429zM168.262 200.538c.128-2.129 2.033-2.769 3.89-2.769 1.649 0 3.634.368 3.634 2.353v4.306c0 .752.08 1.505.288 1.841h-2.305a3.377 3.377 0 01-.16-.801c-.72.753-1.776 1.024-2.785 1.024-1.569 0-2.817-.784-2.817-2.48 0-1.873 1.409-2.321 2.817-2.513 1.392-.208 2.689-.16 2.689-1.089 0-.977-.672-1.12-1.473-1.12-.864 0-1.425.352-1.505 1.248h-2.273zm5.25 1.681c-.384.336-1.185.353-1.889.48-.705.144-1.345.384-1.345 1.217 0 .848.656 1.056 1.393 1.056 1.777 0 1.841-1.408 1.841-1.904v-.849zM180.423 197.993h1.665v1.521h-1.665v4.098c0 .769.192.961.96.961.24 0 .464-.017.704-.064v1.776c-.384.064-.88.08-1.329.08-1.393 0-2.609-.319-2.609-1.969v-4.882h-1.376v-1.521h1.376v-2.481h2.273v2.481zM185.046 202.684c.064 1.44.768 2.097 2.033 2.097.912 0 1.648-.561 1.792-1.073h2.001c-.64 1.953-2.001 2.785-3.874 2.785-2.609 0-4.226-1.792-4.226-4.354 0-2.48 1.712-4.369 4.226-4.369 2.817 0 4.178 2.368 4.018 4.914h-5.97zm3.698-1.442c-.208-1.152-.704-1.761-1.809-1.761-1.441 0-1.857 1.121-1.889 1.761h3.698zM192.357 197.993h2.161v1.537h.032c.417-1.041 1.537-1.761 2.641-1.761.16 0 .352.031.496.08v2.112a4.147 4.147 0 00-.816-.08c-1.665 0-2.241 1.2-2.241 2.657v3.729h-2.273v-8.274z"/><path class="st34" d="M138.253 154.948c2.46 0 3.765 1.785 3.765 4.064 0 2.266-1.305 4.05-3.765 4.05s-3.765-1.784-3.765-4.05c0-2.279 1.305-4.064 3.765-4.064zm0 6.99c1.335 0 2.415-1.05 2.415-2.925 0-1.89-1.08-2.939-2.415-2.939s-2.415 1.05-2.415 2.939c0 1.875 1.08 2.925 2.415 2.925zM143.473 155.128h1.2v1.635h.03c.615-1.244 1.47-1.859 2.85-1.814v1.35c-2.055 0-2.805 1.17-2.805 3.135v3.45h-1.275v-7.756zM157.948 157.618c-.195-.976-.87-1.545-1.92-1.545-1.845 0-2.415 1.455-2.415 3.029 0 1.426.645 2.835 2.265 2.835 1.23 0 1.965-.72 2.13-1.89h1.305c-.285 1.89-1.47 3.015-3.42 3.015-2.37 0-3.63-1.649-3.63-3.96 0-2.324 1.2-4.154 3.66-4.154 1.755 0 3.165.825 3.345 2.67h-1.32zM162.088 153.733h-1.275v-1.561h1.275v1.561zm-1.275 1.395h1.275v7.755h-1.275v-7.755zM165.837 155.128h1.545v1.125h-1.545v4.815c0 .585.165.689.96.689h.585v1.125h-.975c-1.32 0-1.845-.27-1.845-1.695v-4.935h-1.32v-1.125h1.32v-2.325h1.275v2.326zM171.837 163.918c-.585 1.515-1.11 2.069-2.25 2.069-.3 0-.6-.029-.885-.135v-1.17c.24.075.495.18.75.18.525 0 .81-.255 1.05-.704l.525-1.32-3.075-7.71h1.44l2.265 6.345h.03l2.175-6.345h1.35l-3.375 8.79zM188.142 162.883h-1.35l-1.575-6.165h-.03l-1.56 6.165h-1.38l-2.49-7.755h1.41l1.755 6.345h.03l1.56-6.345h1.395l1.62 6.345h.03l1.74-6.345h1.32l-2.475 7.755zM198.702 162.853c-.225.136-.51.21-.915.21-.66 0-1.08-.359-1.08-1.199-.705.824-1.65 1.199-2.73 1.199-1.41 0-2.565-.63-2.565-2.175 0-1.755 1.305-2.13 2.625-2.385 1.41-.27 2.61-.18 2.61-1.14 0-1.11-.915-1.29-1.725-1.29-1.08 0-1.875.33-1.935 1.47h-1.275c.075-1.92 1.56-2.595 3.285-2.595 1.395 0 2.91.314 2.91 2.13v3.99c0 .6 0 .869.405.869.105 0 .225-.015.39-.074v.99zm-2.07-3.975c-.495.36-1.455.375-2.31.525-.84.149-1.56.449-1.56 1.395 0 .84.72 1.14 1.5 1.14 1.68 0 2.37-1.05 2.37-1.755v-1.305zM201.657 155.128h1.545v1.125h-1.545v4.815c0 .585.165.689.96.689h.585v1.125h-.975c-1.32 0-1.845-.27-1.845-1.695v-4.935h-1.32v-1.125h1.32v-2.325h1.275v2.326zM211.226 160.423c-.345 1.71-1.575 2.64-3.315 2.64-2.475 0-3.645-1.71-3.72-4.079 0-2.325 1.53-4.035 3.645-4.035 2.745 0 3.584 2.564 3.51 4.439h-5.805c-.045 1.351.72 2.55 2.415 2.55 1.05 0 1.785-.51 2.01-1.515h1.26zm-1.23-2.16c-.06-1.215-.975-2.189-2.235-2.189-1.335 0-2.13 1.005-2.22 2.189h4.455zM212.621 155.128h1.2v1.635h.03c.615-1.244 1.47-1.859 2.85-1.814v1.35c-2.055 0-2.805 1.17-2.805 3.135v3.45h-1.275v-7.756zM145.618 146.323h-1.485l-2.445-9h-.03l-2.475 9h-1.485l-2.745-10.71h1.455l2.1 8.91h.03l2.4-8.91h1.545l2.37 8.91h.03l2.175-8.91h1.425l-2.865 10.71zM155.953 146.293c-.225.136-.51.21-.915.21-.66 0-1.08-.359-1.08-1.199-.705.824-1.65 1.199-2.73 1.199-1.41 0-2.565-.63-2.565-2.175 0-1.755 1.305-2.13 2.625-2.385 1.41-.27 2.61-.18 2.61-1.14 0-1.11-.915-1.29-1.725-1.29-1.08 0-1.875.33-1.935 1.47h-1.275c.075-1.92 1.56-2.595 3.285-2.595 1.395 0 2.91.314 2.91 2.13v3.99c0 .6 0 .869.405.869.105 0 .225-.015.39-.074v.99zm-2.07-3.975c-.495.36-1.455.375-2.31.525-.84.149-1.56.449-1.56 1.395 0 .84.72 1.14 1.5 1.14 1.68 0 2.37-1.05 2.37-1.755v-1.305zM158.908 138.568h1.545v1.125h-1.545v4.815c0 .585.165.689.96.689h.585v1.125h-.975c-1.32 0-1.845-.27-1.845-1.695v-4.935h-1.32v-1.125h1.32v-2.324h1.275v2.325zM168.478 143.863c-.345 1.71-1.575 2.64-3.315 2.64-2.475 0-3.645-1.71-3.72-4.079 0-2.325 1.53-4.035 3.645-4.035 2.745 0 3.584 2.564 3.51 4.439h-5.805c-.045 1.351.72 2.55 2.415 2.55 1.05 0 1.785-.51 2.01-1.515h1.26zm-1.23-2.16c-.06-1.215-.975-2.189-2.235-2.189-1.335 0-2.13 1.005-2.22 2.189h4.455zM169.873 138.568h1.2v1.635h.03c.615-1.244 1.47-1.859 2.85-1.814v1.35c-2.055 0-2.805 1.17-2.805 3.135v3.45h-1.275v-7.756zM186.762 146.323h-1.35l-1.575-6.165h-.03l-1.56 6.165h-1.38l-2.49-7.755h1.41l1.755 6.345h.03l1.56-6.345h1.395l1.62 6.345h.03l1.74-6.345h1.32l-2.475 7.755zM197.067 143.863c-.345 1.71-1.575 2.64-3.315 2.64-2.475 0-3.645-1.71-3.72-4.079 0-2.325 1.53-4.035 3.645-4.035 2.745 0 3.584 2.564 3.51 4.439h-5.805c-.045 1.351.72 2.55 2.415 2.55 1.05 0 1.785-.51 2.01-1.515h1.26zm-1.23-2.16c-.06-1.215-.975-2.189-2.235-2.189-1.335 0-2.13 1.005-2.22 2.189h4.455zM198.583 135.613h1.275v10.71h-1.275v-10.71zM201.912 135.613h1.275v10.71h-1.275v-10.71zM205.946 143.878c.045 1.141 1.035 1.5 2.085 1.5.795 0 1.875-.18 1.875-1.154 0-.99-1.26-1.155-2.535-1.44-1.26-.285-2.535-.705-2.535-2.189 0-1.561 1.545-2.205 2.895-2.205 1.71 0 3.075.54 3.18 2.43h-1.275c-.09-.99-.96-1.305-1.8-1.305-.765 0-1.65.21-1.65.99 0 .914 1.35 1.064 2.535 1.35 1.275.285 2.535.705 2.535 2.205 0 1.845-1.725 2.444-3.3 2.444-1.74 0-3.21-.705-3.285-2.625h1.275zM154.423 176.997c.045 1.141 1.035 1.5 2.085 1.5.795 0 1.875-.18 1.875-1.154 0-.99-1.26-1.155-2.535-1.44-1.26-.285-2.535-.705-2.535-2.189 0-1.561 1.545-2.205 2.895-2.205 1.71 0 3.075.54 3.18 2.43h-1.275c-.09-.99-.96-1.305-1.8-1.305-.765 0-1.65.21-1.65.99 0 .914 1.35 1.064 2.535 1.35 1.275.285 2.535.705 2.535 2.205 0 1.845-1.725 2.444-3.3 2.444-1.74 0-3.21-.705-3.285-2.625h1.275zM164.488 171.508c2.46 0 3.765 1.785 3.765 4.064 0 2.266-1.305 4.05-3.765 4.05s-3.765-1.784-3.765-4.05c0-2.279 1.305-4.064 3.765-4.064zm0 6.989c1.335 0 2.415-1.05 2.415-2.925 0-1.89-1.08-2.939-2.415-2.939s-2.415 1.05-2.415 2.939c0 1.875 1.08 2.925 2.415 2.925zM176.173 179.442h-1.2v-1.229h-.03c-.54.96-1.41 1.409-2.52 1.409-2.04 0-2.67-1.17-2.67-2.835v-5.1h1.275v5.25c0 .945.6 1.56 1.575 1.56 1.545 0 2.295-1.034 2.295-2.43v-4.38h1.275v7.755zM178.048 171.688h1.2v1.635h.03c.615-1.244 1.47-1.859 2.85-1.814v1.35c-2.055 0-2.805 1.17-2.805 3.135v3.45h-1.275v-7.756zM188.083 174.178c-.195-.975-.87-1.545-1.92-1.545-1.845 0-2.415 1.455-2.415 3.029 0 1.426.645 2.835 2.265 2.835 1.23 0 1.965-.72 2.13-1.89h1.305c-.285 1.89-1.47 3.015-3.42 3.015-2.37 0-3.63-1.649-3.63-3.96 0-2.324 1.2-4.154 3.66-4.154 1.755 0 3.165.825 3.345 2.67h-1.32zM197.487 176.982c-.345 1.71-1.575 2.64-3.315 2.64-2.475 0-3.645-1.71-3.72-4.079 0-2.325 1.53-4.035 3.645-4.035 2.745 0 3.584 2.564 3.51 4.439h-5.805c-.045 1.351.72 2.55 2.415 2.55 1.05 0 1.785-.51 2.01-1.515h1.26zm-1.23-2.16c-.06-1.215-.975-2.189-2.235-2.189-1.335 0-2.13 1.005-2.22 2.189h4.455z"/><path class="st8" d="M305.156 430.368c-.3-1.516-1.515-2.28-3-2.28-2.55 0-3.63 2.1-3.63 4.335 0 2.444 1.08 4.484 3.645 4.484 1.875 0 2.955-1.319 3.09-3.09h1.425c-.27 2.67-1.935 4.29-4.635 4.29-3.33 0-4.95-2.46-4.95-5.58 0-3.104 1.77-5.64 5.07-5.64 2.235 0 4.08 1.2 4.41 3.48h-1.425zM311.591 429.918c2.46 0 3.765 1.785 3.765 4.064 0 2.266-1.305 4.05-3.765 4.05s-3.765-1.784-3.765-4.05c0-2.279 1.305-4.064 3.765-4.064zm0 6.989c1.335 0 2.415-1.05 2.415-2.925 0-1.89-1.08-2.939-2.415-2.939s-2.415 1.05-2.415 2.939c0 1.875 1.08 2.925 2.415 2.925zM320.201 429.918c2.46 0 3.765 1.785 3.765 4.064 0 2.266-1.305 4.05-3.765 4.05s-3.765-1.784-3.765-4.05c0-2.279 1.305-4.064 3.765-4.064zm0 6.989c1.335 0 2.415-1.05 2.415-2.925 0-1.89-1.08-2.939-2.415-2.939s-2.415 1.05-2.415 2.939c0 1.875 1.08 2.925 2.415 2.925zM325.541 427.143h1.275v10.71h-1.275v-10.71zM330.146 428.703h-1.275v-1.561h1.275v1.561zm-1.275 1.395h1.275v7.755h-1.275v-7.755zM332.125 430.098h1.2v1.23h.03c.54-.96 1.41-1.41 2.52-1.41 2.04 0 2.67 1.17 2.67 2.835v5.1h-1.275v-5.25c0-.944-.6-1.56-1.575-1.56-1.545 0-2.295 1.035-2.295 2.43v4.38h-1.275v-7.755zM347.155 437.192c0 2.521-1.155 3.81-3.6 3.81-1.455 0-3.135-.585-3.21-2.279h1.275c.06.93 1.17 1.26 2.01 1.26 1.665 0 2.325-1.2 2.325-2.939v-.511h-.03c-.42.945-1.44 1.41-2.415 1.41-2.31 0-3.465-1.814-3.465-3.93 0-1.83.9-4.095 3.585-4.095.975 0 1.845.435 2.31 1.29h.015v-1.11h1.2v7.094zm-1.26-3.375c0-1.364-.6-2.774-2.205-2.774-1.635 0-2.295 1.335-2.295 2.819 0 1.396.51 2.955 2.189 2.955 1.681 0 2.311-1.545 2.311-3zM355.015 430.098h1.545v1.125h-1.545v4.815c0 .585.165.689.96.689h.585v1.125h-.975c-1.32 0-1.845-.27-1.845-1.695v-4.935h-1.32v-1.125h1.32v-2.324h1.275v2.325zM361.315 429.918c2.46 0 3.765 1.785 3.765 4.064 0 2.266-1.305 4.05-3.765 4.05s-3.765-1.784-3.765-4.05c0-2.279 1.305-4.064 3.765-4.064zm0 6.989c1.335 0 2.415-1.05 2.415-2.925 0-1.89-1.08-2.939-2.415-2.939s-2.415 1.05-2.415 2.939c0 1.875 1.08 2.925 2.415 2.925zM374.26 437.853h-1.35l-1.575-6.165h-.03l-1.56 6.165h-1.38l-2.49-7.755h1.41l1.755 6.345h.03l1.56-6.345h1.395l1.62 6.345h.03l1.74-6.345h1.319l-2.474 7.755zM384.564 435.393c-.345 1.71-1.574 2.64-3.314 2.64-2.475 0-3.645-1.71-3.72-4.079 0-2.325 1.53-4.035 3.645-4.035 2.745 0 3.585 2.564 3.51 4.439h-5.805c-.045 1.351.721 2.55 2.415 2.55 1.05 0 1.785-.51 2.01-1.515h1.259zm-1.229-2.161c-.06-1.215-.975-2.189-2.235-2.189-1.335 0-2.13 1.005-2.22 2.189h4.455zM385.96 430.098h1.2v1.635h.029c.615-1.244 1.471-1.859 2.851-1.814v1.35c-2.056 0-2.806 1.17-2.806 3.135v3.45h-1.274v-7.756zM391.78 435.407c.045 1.141 1.034 1.5 2.085 1.5.795 0 1.875-.18 1.875-1.154 0-.99-1.261-1.155-2.535-1.44-1.26-.285-2.535-.705-2.535-2.189 0-1.561 1.545-2.205 2.895-2.205 1.71 0 3.075.54 3.181 2.43h-1.275c-.09-.99-.96-1.305-1.8-1.305-.765 0-1.65.21-1.65.99 0 .914 1.351 1.064 2.535 1.35 1.275.285 2.535.705 2.535 2.205 0 1.845-1.725 2.444-3.3 2.444-1.74 0-3.21-.705-3.285-2.625h1.274z"/><g><path class="st8" d="M451.948 430.278c-.165-1.53-1.185-2.19-2.654-2.19-1.2 0-2.4.435-2.4 1.83 0 1.32 1.71 1.515 3.436 1.905 1.71.39 3.42.989 3.42 3.09 0 2.279-2.235 3.194-4.186 3.194-2.399 0-4.425-1.17-4.425-3.779h1.351c0 1.8 1.5 2.579 3.119 2.579 1.29 0 2.715-.404 2.715-1.949 0-1.471-1.71-1.726-3.419-2.101-1.71-.375-3.436-.87-3.436-2.835 0-2.175 1.936-3.135 3.885-3.135 2.19 0 3.855 1.035 3.945 3.391h-1.351zM460.528 432.588c-.195-.975-.87-1.545-1.92-1.545-1.845 0-2.415 1.455-2.415 3.029 0 1.426.646 2.835 2.266 2.835 1.229 0 1.965-.72 2.13-1.89h1.305c-.285 1.89-1.47 3.015-3.42 3.015-2.37 0-3.63-1.649-3.63-3.96 0-2.324 1.2-4.154 3.66-4.154 1.755 0 3.164.825 3.345 2.67h-1.321zM463.273 430.098h1.2v1.635h.029c.615-1.244 1.471-1.859 2.851-1.814v1.35c-2.056 0-2.806 1.17-2.806 3.135v3.45h-1.274v-7.756zM474.733 437.853h-1.2v-1.229h-.03c-.54.96-1.409 1.409-2.52 1.409-2.04 0-2.67-1.17-2.67-2.835v-5.1h1.275v5.25c0 .945.6 1.56 1.574 1.56 1.545 0 2.295-1.034 2.295-2.43v-4.38h1.275v7.755zM476.698 427.143h1.275v4.005h.029c.42-.854 1.41-1.229 2.476-1.229 2.385 0 3.569 1.89 3.569 4.08 0 2.189-1.17 4.034-3.54 4.034-.795 0-1.935-.3-2.505-1.215h-.029v1.035h-1.275v-10.71zm3.6 3.9c-1.71 0-2.369 1.47-2.369 2.925 0 1.53.689 2.939 2.444 2.939 1.74 0 2.325-1.484 2.325-3 0-1.454-.75-2.864-2.4-2.864zM485.594 427.143h1.275v4.005h.029c.42-.854 1.41-1.229 2.476-1.229 2.385 0 3.569 1.89 3.569 4.08 0 2.189-1.17 4.034-3.54 4.034-.795 0-1.935-.3-2.505-1.215h-.029v1.035h-1.275v-10.71zm3.599 3.9c-1.71 0-2.369 1.47-2.369 2.925 0 1.53.689 2.939 2.444 2.939 1.74 0 2.325-1.484 2.325-3 .001-1.454-.749-2.864-2.4-2.864zM501.058 435.393c-.345 1.71-1.574 2.64-3.314 2.64-2.475 0-3.645-1.71-3.72-4.079 0-2.325 1.53-4.035 3.645-4.035 2.745 0 3.585 2.564 3.51 4.439h-5.805c-.045 1.351.721 2.55 2.415 2.55 1.05 0 1.785-.51 2.01-1.515h1.259zm-1.23-2.161c-.06-1.215-.975-2.189-2.235-2.189-1.335 0-2.13 1.005-2.22 2.189h4.455zM502.453 430.098h1.2v1.635h.029c.615-1.244 1.471-1.859 2.851-1.814v1.35c-2.056 0-2.806 1.17-2.806 3.135v3.45h-1.274v-7.756zM508.273 435.407c.045 1.141 1.034 1.5 2.085 1.5.795 0 1.875-.18 1.875-1.154 0-.99-1.261-1.155-2.535-1.44-1.26-.285-2.535-.705-2.535-2.189 0-1.561 1.545-2.205 2.895-2.205 1.71 0 3.075.54 3.181 2.43h-1.275c-.09-.99-.96-1.305-1.8-1.305-.765 0-1.65.21-1.65.99 0 .914 1.351 1.064 2.535 1.35 1.275.285 2.535.705 2.535 2.205 0 1.845-1.725 2.444-3.3 2.444-1.74 0-3.21-.705-3.285-2.625h1.274z"/></g><g><path class="st8" d="M602.049 438.853h-1.485l-2.444-9h-.03l-2.475 9h-1.485l-2.745-10.71h1.455l2.1 8.91h.03l2.4-8.91h1.545l2.37 8.91h.029l2.175-8.91h1.425l-2.865 10.71zM612.774 438.822c-.226.136-.511.21-.915.21-.66 0-1.08-.359-1.08-1.199-.705.824-1.65 1.199-2.73 1.199-1.409 0-2.564-.63-2.564-2.175 0-1.755 1.305-2.13 2.625-2.385 1.41-.27 2.609-.18 2.609-1.14 0-1.11-.915-1.29-1.725-1.29-1.08 0-1.875.33-1.935 1.47h-1.275c.075-1.92 1.561-2.595 3.285-2.595 1.395 0 2.91.314 2.91 2.13v3.99c0 .6 0 .869.404.869.105 0 .226-.015.391-.074v.99zm-2.07-3.974c-.495.36-1.455.375-2.31.525-.84.149-1.561.449-1.561 1.395 0 .84.721 1.14 1.5 1.14 1.68 0 2.37-1.05 2.37-1.755v-1.305zM614.589 436.407c.045 1.141 1.034 1.5 2.085 1.5.795 0 1.875-.18 1.875-1.154 0-.99-1.261-1.155-2.535-1.44-1.26-.285-2.535-.705-2.535-2.189 0-1.561 1.545-2.205 2.895-2.205 1.71 0 3.075.54 3.181 2.43h-1.275c-.09-.99-.96-1.305-1.8-1.305-.765 0-1.65.21-1.65.99 0 .914 1.351 1.064 2.535 1.35 1.275.285 2.535.705 2.535 2.205 0 1.845-1.725 2.444-3.3 2.444-1.74 0-3.21-.705-3.285-2.625h1.274zM622.929 431.098h1.545v1.125h-1.545v4.815c0 .585.165.689.96.689h.585v1.125h-.975c-1.32 0-1.845-.27-1.845-1.695v-4.935h-1.32v-1.125h1.32v-2.324h1.274v2.325zM632.348 436.393c-.345 1.71-1.574 2.64-3.314 2.64-2.475 0-3.645-1.71-3.72-4.079 0-2.325 1.53-4.035 3.645-4.035 2.745 0 3.585 2.564 3.51 4.439h-5.805c-.045 1.351.721 2.55 2.415 2.55 1.05 0 1.785-.51 2.01-1.515h1.259zm-1.23-2.161c-.06-1.215-.975-2.189-2.235-2.189-1.335 0-2.13 1.005-2.22 2.189h4.455zM641.318 438.853h-1.35l-1.575-6.165h-.03l-1.56 6.165h-1.38l-2.49-7.755h1.41l1.755 6.345h.03l1.56-6.345h1.395l1.62 6.345h.03l1.74-6.345h1.319l-2.474 7.755zM651.729 438.822c-.226.136-.511.21-.915.21-.66 0-1.08-.359-1.08-1.199-.705.824-1.65 1.199-2.73 1.199-1.409 0-2.564-.63-2.564-2.175 0-1.755 1.305-2.13 2.625-2.385 1.41-.27 2.609-.18 2.609-1.14 0-1.11-.915-1.29-1.725-1.29-1.08 0-1.875.33-1.935 1.47h-1.275c.075-1.92 1.56-2.595 3.285-2.595 1.395 0 2.91.314 2.91 2.13v3.99c0 .6 0 .869.404.869.105 0 .226-.015.391-.074v.99zm-2.071-3.974c-.495.36-1.455.375-2.31.525-.84.149-1.561.449-1.561 1.395 0 .84.721 1.14 1.5 1.14 1.68 0 2.37-1.05 2.37-1.755v-1.305zM654.532 431.098h1.545v1.125h-1.545v4.815c0 .585.165.689.96.689h.585v1.125h-.975c-1.32 0-1.845-.27-1.845-1.695v-4.935h-1.32v-1.125h1.32v-2.324h1.274v2.325zM663.952 436.393c-.345 1.71-1.574 2.64-3.314 2.64-2.475 0-3.645-1.71-3.72-4.079 0-2.325 1.53-4.035 3.645-4.035 2.745 0 3.585 2.564 3.51 4.439h-5.805c-.045 1.351.721 2.55 2.415 2.55 1.05 0 1.785-.51 2.01-1.515h1.259zm-1.229-2.161c-.06-1.215-.975-2.189-2.235-2.189-1.335 0-2.13 1.005-2.22 2.189h4.455zM665.198 431.098h1.2v1.635h.029c.615-1.244 1.471-1.859 2.851-1.814v1.35c-2.056 0-2.806 1.17-2.806 3.135v3.45h-1.274v-7.756z"/></g><g><path class="st8" d="M630.989 245.763h1.949l3.375 9 3.391-9h1.949v10.71h-1.35v-8.909h-.03l-3.345 8.909h-1.215l-3.345-8.909h-.03v8.909h-1.35v-10.71zM650.684 256.442c-.226.136-.511.21-.915.21-.66 0-1.08-.359-1.08-1.199-.705.824-1.65 1.199-2.73 1.199-1.409 0-2.564-.63-2.564-2.175 0-1.755 1.305-2.13 2.625-2.385 1.41-.27 2.609-.18 2.609-1.14 0-1.11-.915-1.29-1.725-1.29-1.08 0-1.875.33-1.935 1.47h-1.275c.075-1.92 1.561-2.595 3.285-2.595 1.395 0 2.91.314 2.91 2.13v3.99c0 .6 0 .869.404.869.105 0 .226-.015.391-.074v.99zm-2.071-3.974c-.495.36-1.455.375-2.31.525-.84.149-1.561.449-1.561 1.395 0 .84.721 1.14 1.5 1.14 1.68 0 2.37-1.05 2.37-1.755v-1.305zM651.868 248.718h1.2v1.23h.029c.54-.96 1.41-1.41 2.521-1.41 2.04 0 2.67 1.17 2.67 2.835v5.1h-1.275v-5.25c0-.944-.6-1.56-1.574-1.56-1.545 0-2.295 1.035-2.295 2.43v4.38h-1.275v-7.755zM666.629 256.473h-1.2v-1.229h-.03c-.54.96-1.409 1.409-2.52 1.409-2.04 0-2.67-1.17-2.67-2.835v-5.1h1.275v5.25c0 .945.6 1.56 1.574 1.56 1.545 0 2.295-1.034 2.295-2.43v-4.38h1.275v7.755zM669.074 249.843h-1.306v-1.125h1.306v-1.154c0-1.261.75-1.92 2.145-1.92.24 0 .585.045.825.119v1.11a2.398 2.398 0 00-.721-.105c-.614 0-.975.195-.975.87v1.08h1.5v1.125h-1.5v6.63h-1.274v-6.63zM679.858 256.442c-.226.136-.511.21-.915.21-.66 0-1.08-.359-1.08-1.199-.705.824-1.65 1.199-2.73 1.199-1.409 0-2.564-.63-2.564-2.175 0-1.755 1.305-2.13 2.625-2.385 1.41-.27 2.609-.18 2.609-1.14 0-1.11-.915-1.29-1.725-1.29-1.08 0-1.875.33-1.935 1.47h-1.275c.075-1.92 1.56-2.595 3.285-2.595 1.395 0 2.91.314 2.91 2.13v3.99c0 .6 0 .869.404.869.105 0 .226-.015.391-.074v.99zm-2.07-3.974c-.495.36-1.455.375-2.31.525-.84.149-1.561.449-1.561 1.395 0 .84.721 1.14 1.5 1.14 1.68 0 2.37-1.05 2.37-1.755v-1.305zM686.308 251.208c-.195-.976-.87-1.545-1.92-1.545-1.845 0-2.415 1.455-2.415 3.029 0 1.426.646 2.835 2.266 2.835 1.229 0 1.965-.72 2.13-1.89h1.305c-.285 1.89-1.47 3.015-3.42 3.015-2.37 0-3.63-1.649-3.63-3.96 0-2.324 1.2-4.154 3.66-4.154 1.755 0 3.164.825 3.345 2.67h-1.321zM690.867 248.718h1.545v1.125h-1.545v4.815c0 .585.165.689.96.689h.585v1.125h-.975c-1.32 0-1.845-.27-1.845-1.695v-4.935h-1.32v-1.125h1.32v-2.325h1.274v2.326zM700.243 256.473h-1.2v-1.229h-.03c-.54.96-1.409 1.409-2.52 1.409-2.04 0-2.67-1.17-2.67-2.835v-5.1h1.275v5.25c0 .945.6 1.56 1.574 1.56 1.545 0 2.295-1.034 2.295-2.43v-4.38h1.275v7.755zM702.118 248.718h1.2v1.635h.029c.615-1.244 1.471-1.859 2.851-1.814v1.35c-2.056 0-2.806 1.17-2.806 3.135v3.45h-1.274v-7.756zM708.508 247.323h-1.274v-1.561h1.274v1.561zm-1.275 1.395h1.274v7.755h-1.274v-7.755zM710.487 248.718h1.2v1.23h.029c.54-.96 1.41-1.41 2.521-1.41 2.04 0 2.67 1.17 2.67 2.835v5.1h-1.275v-5.25c0-.944-.6-1.56-1.574-1.56-1.545 0-2.295 1.035-2.295 2.43v4.38h-1.275v-7.755zM725.517 255.812c0 2.521-1.154 3.81-3.6 3.81-1.455 0-3.135-.585-3.21-2.279h1.275c.06.93 1.17 1.26 2.01 1.26 1.665 0 2.325-1.2 2.325-2.939v-.511h-.03c-.42.945-1.44 1.41-2.415 1.41-2.31 0-3.465-1.814-3.465-3.93 0-1.83.899-4.095 3.585-4.095.975 0 1.845.435 2.31 1.29h.016v-1.11h1.199v7.094zm-1.26-3.374c0-1.364-.6-2.774-2.205-2.774-1.635 0-2.295 1.335-2.295 2.819 0 1.396.511 2.955 2.19 2.955s2.31-1.545 2.31-3zM731.652 248.718h1.275v1.05h.029c.42-.854 1.41-1.229 2.476-1.229 2.385 0 3.569 1.89 3.569 4.08 0 2.189-1.17 4.034-3.54 4.034-.795 0-1.935-.3-2.505-1.215h-.029v4.005h-1.275v-10.725zm3.6.945c-1.71 0-2.369 1.47-2.369 2.925 0 1.53.689 2.939 2.444 2.939 1.74 0 2.325-1.484 2.325-3 0-1.454-.75-2.864-2.4-2.864zM740.577 245.763h1.274v10.71h-1.274v-10.71zM750.702 256.442c-.226.136-.511.21-.915.21-.66 0-1.08-.359-1.08-1.199-.705.824-1.65 1.199-2.73 1.199-1.409 0-2.564-.63-2.564-2.175 0-1.755 1.305-2.13 2.625-2.385 1.41-.27 2.609-.18 2.609-1.14 0-1.11-.915-1.29-1.725-1.29-1.08 0-1.875.33-1.935 1.47h-1.275c.075-1.92 1.56-2.595 3.285-2.595 1.395 0 2.91.314 2.91 2.13v3.99c0 .6 0 .869.404.869.105 0 .226-.015.391-.074v.99zm-2.07-3.974c-.495.36-1.455.375-2.31.525-.84.149-1.561.449-1.561 1.395 0 .84.721 1.14 1.5 1.14 1.68 0 2.37-1.05 2.37-1.755v-1.305zM751.887 248.718h1.2v1.23h.029c.54-.96 1.41-1.41 2.521-1.41 2.04 0 2.67 1.17 2.67 2.835v5.1h-1.275v-5.25c0-.944-.6-1.56-1.574-1.56-1.545 0-2.295 1.035-2.295 2.43v4.38h-1.275v-7.755zM761.996 248.718h1.545v1.125h-1.545v4.815c0 .585.165.689.96.689h.585v1.125h-.975c-1.32 0-1.845-.27-1.845-1.695v-4.935h-1.32v-1.125h1.32v-2.325h1.274v2.326z"/></g><g><path class="st8" d="M599.402 449.657h1.545v1.125h-1.545v4.815c0 .585.165.689.96.689h.585v1.125h-.975c-1.32 0-1.845-.27-1.845-1.695v-4.935h-1.32v-1.125h1.32v-2.325h1.274v2.326zM602.163 449.657h1.2v1.635h.029c.615-1.244 1.471-1.859 2.851-1.814v1.35c-2.056 0-2.806 1.17-2.806 3.135v3.45h-1.274v-7.756zM613.667 454.952c-.345 1.71-1.574 2.64-3.314 2.64-2.475 0-3.645-1.71-3.72-4.079 0-2.325 1.53-4.035 3.645-4.035 2.745 0 3.585 2.564 3.51 4.439h-5.805c-.045 1.351.721 2.55 2.415 2.55 1.05 0 1.785-.51 2.01-1.515h1.259zm-1.229-2.16c-.06-1.215-.975-2.189-2.235-2.189-1.335 0-2.13 1.005-2.22 2.189h4.455zM621.827 457.382c-.226.136-.511.21-.915.21-.66 0-1.08-.359-1.08-1.199-.705.824-1.65 1.199-2.73 1.199-1.409 0-2.564-.63-2.564-2.175 0-1.755 1.305-2.13 2.625-2.385 1.41-.27 2.609-.18 2.609-1.14 0-1.11-.915-1.29-1.725-1.29-1.08 0-1.875.33-1.935 1.47h-1.275c.075-1.92 1.561-2.595 3.285-2.595 1.395 0 2.91.314 2.91 2.13v3.99c0 .6 0 .869.404.869.105 0 .226-.015.391-.074v.99zm-2.07-3.975c-.495.36-1.455.375-2.31.525-.84.149-1.561.449-1.561 1.395 0 .84.721 1.14 1.5 1.14 1.68 0 2.37-1.05 2.37-1.755v-1.305zM624.632 449.657h1.545v1.125h-1.545v4.815c0 .585.165.689.96.689h.585v1.125h-.975c-1.32 0-1.845-.27-1.845-1.695v-4.935h-1.32v-1.125h1.32v-2.325h1.274v2.326zM627.437 449.657h1.2v1.141h.029c.57-.87 1.44-1.32 2.505-1.32.945 0 1.815.375 2.131 1.32a2.867 2.867 0 012.43-1.32c1.545 0 2.58.645 2.58 2.25v5.685h-1.275v-5.085c0-.96-.255-1.725-1.5-1.725-1.229 0-2.024.78-2.024 1.979v4.83h-1.275v-5.085c0-1.005-.315-1.725-1.455-1.725-1.515 0-2.069 1.395-2.069 1.979v4.83h-1.275v-7.754zM646.696 454.952c-.345 1.71-1.574 2.64-3.314 2.64-2.475 0-3.645-1.71-3.72-4.079 0-2.325 1.53-4.035 3.645-4.035 2.745 0 3.585 2.564 3.51 4.439h-5.805c-.045 1.351.721 2.55 2.415 2.55 1.05 0 1.785-.51 2.01-1.515h1.259zm-1.229-2.16c-.06-1.215-.975-2.189-2.235-2.189-1.335 0-2.13 1.005-2.22 2.189h4.455zM647.986 449.657h1.2v1.23h.029c.54-.96 1.41-1.41 2.521-1.41 2.04 0 2.67 1.17 2.67 2.835v5.1h-1.275v-5.25c0-.944-.6-1.56-1.574-1.56-1.545 0-2.295 1.035-2.295 2.43v4.38h-1.275v-7.755zM657.946 449.657h1.545v1.125h-1.545v4.815c0 .585.165.689.96.689h.585v1.125h-.975c-1.32 0-1.845-.27-1.845-1.695v-4.935h-1.32v-1.125h1.32v-2.325h1.274v2.326zM614.95 465.657h1.275v1.05h.029c.42-.854 1.41-1.229 2.476-1.229 2.385 0 3.569 1.89 3.569 4.08 0 2.189-1.17 4.034-3.54 4.034-.795 0-1.935-.3-2.505-1.215h-.029v4.005h-1.275v-10.725zm3.6.946c-1.71 0-2.369 1.47-2.369 2.925 0 1.53.689 2.939 2.444 2.939 1.74 0 2.325-1.484 2.325-3 0-1.454-.75-2.864-2.4-2.864zM623.726 462.702H625v10.71h-1.274v-10.71zM633.7 473.382c-.226.136-.511.21-.915.21-.66 0-1.08-.359-1.08-1.199-.705.824-1.65 1.199-2.73 1.199-1.409 0-2.564-.63-2.564-2.175 0-1.755 1.305-2.13 2.625-2.385 1.41-.27 2.609-.18 2.609-1.14 0-1.11-.915-1.29-1.725-1.29-1.08 0-1.875.33-1.935 1.47h-1.275c.075-1.92 1.561-2.595 3.285-2.595 1.395 0 2.91.314 2.91 2.13v3.99c0 .6 0 .869.404.869.105 0 .226-.015.391-.074v.99zm-2.07-3.975c-.495.36-1.455.375-2.31.525-.84.149-1.561.449-1.561 1.395 0 .84.721 1.14 1.5 1.14 1.68 0 2.37-1.05 2.37-1.755v-1.305zM634.734 465.657h1.2v1.23h.029c.54-.96 1.41-1.41 2.521-1.41 2.04 0 2.67 1.17 2.67 2.835v5.1h-1.275v-5.25c0-.944-.6-1.56-1.574-1.56-1.545 0-2.295 1.035-2.295 2.43v4.38h-1.275v-7.755zM644.694 465.657h1.545v1.125h-1.545v4.815c0 .585.165.689.96.689h.585v1.125h-.975c-1.32 0-1.845-.27-1.845-1.695v-4.935h-1.32v-1.125h1.32v-2.325h1.274v2.326z"/></g><g><path class="st8" d="M487.173 126.792c0 2.7-1.545 4.125-4.215 4.125-2.76 0-4.395-1.274-4.395-4.125v-6.84h1.425v6.84c0 1.891 1.08 2.925 2.97 2.925 1.8 0 2.79-1.034 2.79-2.925v-6.84h1.425v6.84zM489.318 119.952h1.274v10.71h-1.274v-10.71zM494.342 122.907h1.545v1.125h-1.545v4.815c0 .585.165.689.96.689h.585v1.125h-.975c-1.32 0-1.845-.27-1.845-1.695v-4.935h-1.32v-1.125h1.32v-2.325h1.274v2.326zM497.253 122.907h1.2v1.635h.029c.615-1.244 1.471-1.859 2.851-1.814v1.35c-2.056 0-2.806 1.17-2.806 3.135v3.45h-1.274v-7.756zM509.162 130.632c-.226.136-.511.21-.915.21-.66 0-1.08-.359-1.08-1.199-.705.824-1.65 1.199-2.73 1.199-1.409 0-2.564-.63-2.564-2.175 0-1.755 1.305-2.13 2.625-2.385 1.41-.27 2.609-.18 2.609-1.14 0-1.11-.915-1.29-1.725-1.29-1.08 0-1.875.33-1.935 1.47h-1.275c.075-1.92 1.561-2.595 3.285-2.595 1.395 0 2.91.314 2.91 2.13v3.99c0 .6 0 .869.404.869.105 0 .226-.015.391-.074v.99zm-2.07-3.975c-.495.36-1.455.375-2.31.525-.84.149-1.561.449-1.561 1.395 0 .84.721 1.14 1.5 1.14 1.68 0 2.37-1.05 2.37-1.755v-1.305zM510.137 125.893h4.335v1.199h-4.335v-1.199zM516.227 122.907h1.275v1.05h.029c.42-.854 1.41-1.229 2.476-1.229 2.385 0 3.569 1.89 3.569 4.08 0 2.189-1.17 4.034-3.54 4.034-.795 0-1.935-.3-2.505-1.215h-.029v4.005h-1.275v-10.725zm3.599.946c-1.71 0-2.369 1.47-2.369 2.925 0 1.53.689 2.939 2.444 2.939 1.74 0 2.325-1.484 2.325-3 .001-1.454-.749-2.864-2.4-2.864zM531.497 130.662h-1.2v-1.229h-.03c-.54.96-1.409 1.409-2.52 1.409-2.04 0-2.67-1.17-2.67-2.835v-5.1h1.275v5.25c0 .945.6 1.56 1.574 1.56 1.545 0 2.295-1.034 2.295-2.43v-4.38h1.275v7.755zM533.372 122.907h1.2v1.635h.029c.615-1.244 1.471-1.859 2.851-1.814v1.35c-2.056 0-2.806 1.17-2.806 3.135v3.45h-1.274v-7.756zM544.756 128.202c-.345 1.71-1.574 2.64-3.314 2.64-2.475 0-3.645-1.71-3.72-4.079 0-2.325 1.53-4.035 3.645-4.035 2.745 0 3.585 2.564 3.51 4.439h-5.805c-.045 1.351.721 2.55 2.415 2.55 1.05 0 1.785-.51 2.01-1.515h1.259zm-1.23-2.16c-.06-1.215-.975-2.189-2.235-2.189-1.335 0-2.13 1.005-2.22 2.189h4.455zM558.046 130.662h-1.35l-1.575-6.165h-.03l-1.56 6.165h-1.38l-2.49-7.755h1.41l1.755 6.345h.03l1.56-6.345h1.395l1.62 6.345h.03l1.74-6.345h1.319l-2.474 7.755zM568.606 130.632c-.226.136-.511.21-.915.21-.66 0-1.08-.359-1.08-1.199-.705.824-1.65 1.199-2.73 1.199-1.409 0-2.564-.63-2.564-2.175 0-1.755 1.305-2.13 2.625-2.385 1.41-.27 2.609-.18 2.609-1.14 0-1.11-.915-1.29-1.725-1.29-1.08 0-1.875.33-1.935 1.47h-1.275c.075-1.92 1.56-2.595 3.285-2.595 1.395 0 2.91.314 2.91 2.13v3.99c0 .6 0 .869.404.869.105 0 .226-.015.391-.074v.99zm-2.07-3.975c-.495.36-1.455.375-2.31.525-.84.149-1.561.449-1.561 1.395 0 .84.721 1.14 1.5 1.14 1.68 0 2.37-1.05 2.37-1.755v-1.305zM571.561 122.907h1.545v1.125h-1.545v4.815c0 .585.165.689.96.689h.585v1.125h-.975c-1.32 0-1.845-.27-1.845-1.695v-4.935h-1.32v-1.125h1.32v-2.325h1.274v2.326zM581.13 128.202c-.345 1.71-1.574 2.64-3.314 2.64-2.475 0-3.645-1.71-3.72-4.079 0-2.325 1.53-4.035 3.645-4.035 2.745 0 3.585 2.564 3.51 4.439h-5.805c-.045 1.351.721 2.55 2.415 2.55 1.05 0 1.785-.51 2.01-1.515h1.259zm-1.23-2.16c-.06-1.215-.975-2.189-2.235-2.189-1.335 0-2.13 1.005-2.22 2.189h4.455zM582.526 122.907h1.2v1.635h.029c.615-1.244 1.471-1.859 2.851-1.814v1.35c-2.056 0-2.806 1.17-2.806 3.135v3.45h-1.274v-7.756z"/></g><g><path class="st8" d="M495.228 153.191c-1.439-2.25-2.354-4.395-2.354-7.02 0-2.34.825-4.875 2.354-6.915h.976c-1.425 2.25-1.98 4.485-1.98 6.915 0 2.52.556 4.725 1.98 7.02h-.976zM505.772 146.352c0 2.7-1.545 4.125-4.215 4.125-2.76 0-4.395-1.274-4.395-4.125v-6.84h1.425v6.84c0 1.891 1.08 2.925 2.97 2.925 1.8 0 2.79-1.034 2.79-2.925v-6.84h1.425v6.84zM508.053 139.512h4.695c2.13 0 3.284 1.186 3.284 3.165 0 1.98-1.154 3.18-3.284 3.165h-3.271v4.38h-1.425v-10.71zm1.425 5.13h2.79c1.604.016 2.34-.689 2.34-1.965 0-1.274-.735-1.965-2.34-1.965h-2.79v3.93zM527.447 150.222h-1.485l-2.444-9h-.03l-2.475 9h-1.485l-2.745-10.71h1.455l2.1 8.91h.03l2.4-8.91h1.545l2.369 8.91h.03l2.175-8.91h1.425l-2.865 10.71zM530.342 153.191c1.426-2.25 1.98-4.484 1.98-6.915 0-2.52-.555-4.725-1.98-7.02h.976c1.439 2.25 2.354 4.396 2.354 7.02 0 2.341-.825 4.875-2.354 6.915h-.976zM539.552 142.467h1.275v1.05h.029c.42-.854 1.41-1.229 2.476-1.229 2.385 0 3.569 1.89 3.569 4.08 0 2.189-1.17 4.034-3.54 4.034-.795 0-1.935-.3-2.505-1.215h-.029v4.005h-1.275v-10.725zm3.599.945c-1.71 0-2.369 1.47-2.369 2.925 0 1.53.689 2.939 2.444 2.939 1.74 0 2.325-1.484 2.325-3 .001-1.454-.749-2.864-2.4-2.864zM548.478 139.512h1.274v10.71h-1.274v-10.71zM558.602 150.191c-.226.136-.511.21-.915.21-.66 0-1.08-.359-1.08-1.199-.705.824-1.65 1.199-2.73 1.199-1.409 0-2.564-.63-2.564-2.175 0-1.755 1.305-2.13 2.625-2.385 1.41-.27 2.609-.18 2.609-1.14 0-1.11-.915-1.29-1.725-1.29-1.08 0-1.875.33-1.935 1.47h-1.275c.075-1.92 1.561-2.595 3.285-2.595 1.395 0 2.91.314 2.91 2.13v3.99c0 .6 0 .869.404.869.105 0 .226-.015.391-.074v.99zm-2.071-3.974c-.495.36-1.455.375-2.31.525-.84.149-1.561.449-1.561 1.395 0 .84.721 1.14 1.5 1.14 1.68 0 2.37-1.05 2.37-1.755v-1.305zM559.786 142.467h1.2v1.23h.029c.54-.96 1.41-1.41 2.521-1.41 2.04 0 2.67 1.17 2.67 2.835v5.1h-1.275v-5.25c0-.944-.6-1.56-1.574-1.56-1.545 0-2.295 1.035-2.295 2.43v4.38h-1.275v-7.755zM569.896 142.467h1.545v1.125h-1.545v4.815c0 .585.165.689.96.689h.585v1.125h-.975c-1.32 0-1.845-.27-1.845-1.695v-4.935h-1.32v-1.125h1.32v-2.324h1.274v2.325z"/></g><g><path class="st8" d="M360.638 270.339h5.04c2.01 0 3.255 1.096 3.255 2.806 0 1.29-.57 2.354-1.86 2.715v.029c1.245.24 1.5 1.155 1.605 2.205.09 1.05.03 2.22.63 2.955h-1.59c-.405-.435-.18-1.59-.39-2.64-.15-1.05-.405-1.936-1.785-1.936h-3.48v4.575h-1.425v-10.709zm4.395 4.935c1.335 0 2.475-.346 2.475-1.905 0-1.05-.57-1.83-1.905-1.83h-3.54v3.735h2.97zM377.318 278.589c-.345 1.71-1.575 2.64-3.315 2.64-2.475 0-3.645-1.71-3.72-4.079 0-2.325 1.53-4.035 3.645-4.035 2.745 0 3.584 2.564 3.51 4.439h-5.805c-.045 1.351.72 2.55 2.415 2.55 1.05 0 1.785-.51 2.01-1.515h1.26zm-1.23-2.16c-.06-1.215-.975-2.189-2.235-2.189-1.335 0-2.13 1.005-2.22 2.189h4.455zM384.022 275.784c-.195-.976-.87-1.545-1.92-1.545-1.845 0-2.415 1.455-2.415 3.029 0 1.426.645 2.835 2.265 2.835 1.23 0 1.965-.72 2.13-1.89h1.305c-.285 1.89-1.47 3.015-3.42 3.015-2.37 0-3.63-1.649-3.63-3.96 0-2.324 1.2-4.154 3.66-4.154 1.755 0 3.165.825 3.345 2.67h-1.32zM389.857 282.084c-.584 1.515-1.109 2.069-2.25 2.069-.299 0-.6-.029-.885-.135v-1.17c.24.075.495.18.75.18.525 0 .811-.255 1.051-.704l.524-1.32-3.075-7.71h1.44l2.265 6.345h.03l2.175-6.345h1.35l-3.375 8.79zM399.578 275.784c-.195-.976-.87-1.545-1.92-1.545-1.846 0-2.415 1.455-2.415 3.029 0 1.426.645 2.835 2.265 2.835 1.23 0 1.965-.72 2.13-1.89h1.306c-.285 1.89-1.471 3.015-3.42 3.015-2.371 0-3.631-1.649-3.631-3.96 0-2.324 1.2-4.154 3.66-4.154 1.755 0 3.165.825 3.346 2.67h-1.321zM402.443 270.339h1.274v10.71h-1.274v-10.71zM407.047 271.899h-1.274v-1.561h1.274v1.561zm-1.275 1.395h1.274v7.755h-1.274v-7.755zM409.027 273.294h1.2v1.23h.03c.539-.96 1.409-1.41 2.52-1.41 2.039 0 2.67 1.17 2.67 2.835v5.1h-1.275v-5.25c0-.944-.6-1.56-1.574-1.56-1.545 0-2.295 1.035-2.295 2.43v4.38h-1.275v-7.755zM424.057 280.389c0 2.521-1.154 3.81-3.6 3.81-1.455 0-3.135-.585-3.21-2.279h1.274c.061.93 1.17 1.26 2.011 1.26 1.665 0 2.325-1.2 2.325-2.939v-.511h-.03c-.42.945-1.44 1.41-2.415 1.41-2.311 0-3.465-1.814-3.465-3.93 0-1.83.9-4.095 3.585-4.095.975 0 1.845.435 2.31 1.29h.016v-1.11h1.199v7.094zm-1.26-3.375c0-1.364-.6-2.774-2.205-2.774-1.635 0-2.295 1.335-2.295 2.819 0 1.396.51 2.955 2.19 2.955s2.31-1.545 2.31-3zM378.661 291.294h1.275v1.05h.03c.42-.854 1.41-1.229 2.475-1.229 2.385 0 3.569 1.89 3.569 4.08 0 2.189-1.169 4.034-3.539 4.034-.795 0-1.935-.3-2.505-1.215h-.03v4.005h-1.275v-10.725zm3.6.945c-1.71 0-2.37 1.47-2.37 2.925 0 1.53.69 2.939 2.445 2.939 1.74 0 2.325-1.484 2.325-3 0-1.454-.75-2.864-2.4-2.864zM387.586 288.339h1.275v10.71h-1.275v-10.71zM397.71 299.019c-.226.136-.51.21-.915.21-.66 0-1.08-.359-1.08-1.199-.705.824-1.649 1.199-2.729 1.199-1.41 0-2.565-.63-2.565-2.175 0-1.755 1.305-2.13 2.625-2.385 1.41-.27 2.61-.18 2.61-1.14 0-1.11-.915-1.29-1.726-1.29-1.08 0-1.875.33-1.935 1.47h-1.274c.074-1.92 1.56-2.595 3.285-2.595 1.395 0 2.909.314 2.909 2.13v3.99c0 .6 0 .869.405.869.105 0 .225-.015.39-.074v.99zm-2.069-3.975c-.496.36-1.455.375-2.311.525-.84.149-1.56.449-1.56 1.395 0 .84.72 1.14 1.499 1.14 1.681 0 2.371-1.05 2.371-1.755v-1.305zM398.895 291.294h1.2v1.23h.03c.54-.96 1.41-1.41 2.52-1.41 2.04 0 2.67 1.17 2.67 2.835v5.1h-1.274v-5.25c0-.944-.601-1.56-1.575-1.56-1.545 0-2.295 1.035-2.295 2.43v4.38h-1.275v-7.755zM409.006 291.294h1.545v1.125h-1.545v4.815c0 .585.164.689.959.689h.586v1.125h-.976c-1.319 0-1.845-.27-1.845-1.695v-4.935h-1.32v-1.125h1.32v-2.325h1.275v2.326z"/></g><g><defs><path id="SVGID_125_" d="M.687 2.052h769.312v620.503H.687z"/></defs><clipPath id="SVGID_6_"><use xlink:href="#SVGID_125_" overflow="visible"/></clipPath><path d="M349.196 204.8h-16.112c-6.587 0-12.312 4.726-12.588 11.019l42.197-.017c.001-6.118-5.819-11.002-13.497-11.002" clip-path="url(#SVGID_6_)" fill="#001e41"/></g><g><path class="st34" d="M618.428 590.375h3.537l2.674 7.859h.031l2.529-7.859h3.537v11.429h-2.353v-8.1h-.032l-2.801 8.1h-1.937l-2.802-8.02h-.032v8.02h-2.353v-11.429zM640.463 601.804h-2.161v-1.152h-.048c-.576.929-1.569 1.376-2.529 1.376-2.417 0-3.025-1.36-3.025-3.409v-5.09h2.273v4.674c0 1.36.399 2.033 1.456 2.033 1.232 0 1.761-.688 1.761-2.369v-4.338h2.273v8.275zM642.188 593.528h2.161v1.152h.048c.576-.928 1.568-1.376 2.529-1.376 2.417 0 3.025 1.36 3.025 3.409v5.09h-2.273v-4.674c0-1.36-.4-2.033-1.456-2.033-1.233 0-1.761.688-1.761 2.369v4.338h-2.273v-8.275zM654.013 592.248h-2.272v-1.873h2.272v1.873zm-2.273 1.28h2.272v8.275h-2.272v-8.275zM661.438 596.441c-.145-.929-.736-1.425-1.681-1.425-1.457 0-1.938 1.473-1.938 2.689 0 1.185.465 2.609 1.889 2.609 1.057 0 1.665-.673 1.81-1.681h2.192c-.288 2.192-1.809 3.393-3.985 3.393-2.497 0-4.178-1.76-4.178-4.241 0-2.577 1.536-4.481 4.226-4.481 1.953 0 3.745 1.024 3.89 3.137h-2.225zM667.324 592.248h-2.272v-1.873h2.272v1.873zm-2.272 1.28h2.272v8.275h-2.272v-8.275zM669.115 593.528h2.161v1.057h.032c.544-.881 1.44-1.28 2.465-1.28 2.593 0 3.762 2.097 3.762 4.449 0 2.209-1.217 4.273-3.634 4.273-.992 0-1.937-.432-2.481-1.248h-.031v3.938h-2.273v-11.189zm6.147 4.162c0-1.312-.528-2.674-1.984-2.674-1.489 0-1.969 1.329-1.969 2.674 0 1.344.512 2.625 1.984 2.625 1.488 0 1.969-1.281 1.969-2.625zM678.795 596.073c.128-2.129 2.032-2.769 3.89-2.769 1.648 0 3.633.368 3.633 2.353v4.306c0 .752.08 1.505.288 1.841h-2.305a3.377 3.377 0 01-.16-.801c-.72.753-1.776 1.024-2.785 1.024-1.568 0-2.817-.784-2.817-2.48 0-1.873 1.409-2.321 2.817-2.513 1.393-.208 2.689-.16 2.689-1.089 0-.977-.673-1.12-1.473-1.12-.864 0-1.425.352-1.505 1.248h-2.272zm5.25 1.681c-.384.336-1.185.353-1.889.48-.704.144-1.345.384-1.345 1.217 0 .848.656 1.056 1.393 1.056 1.776 0 1.841-1.408 1.841-1.904v-.849zM688.139 590.375h2.272v11.429h-2.272v-11.429zM706.11 601.804h-2.337l-1.473-5.555h-.032l-1.408 5.555h-2.354l-2.625-8.275h2.401l1.521 5.618h.032l1.376-5.618h2.209l1.409 5.603h.031l1.521-5.603h2.337l-2.608 8.275zM709.578 596.073c.128-2.129 2.032-2.769 3.89-2.769 1.648 0 3.633.368 3.633 2.353v4.306c0 .752.08 1.505.288 1.841h-2.305a3.377 3.377 0 01-.16-.801c-.72.753-1.776 1.024-2.785 1.024-1.568 0-2.817-.784-2.817-2.48 0-1.873 1.409-2.321 2.817-2.513 1.393-.208 2.689-.16 2.689-1.089 0-.977-.673-1.12-1.473-1.12-.864 0-1.425.352-1.505 1.248h-2.272zm5.25 1.681c-.384.336-1.185.353-1.889.48-.704.144-1.345.384-1.345 1.217 0 .848.656 1.056 1.393 1.056 1.776 0 1.841-1.408 1.841-1.904v-.849zM721.738 593.528h1.665v1.521h-1.665v4.098c0 .769.192.961.961.961.24 0 .464-.017.704-.064v1.776c-.384.064-.88.08-1.328.08-1.393 0-2.609-.319-2.609-1.969v-4.882h-1.377v-1.521h1.377v-2.481h2.272v2.481zM726.362 598.219c.063 1.44.769 2.097 2.032 2.097.913 0 1.649-.561 1.793-1.073h2.001c-.641 1.953-2.001 2.785-3.874 2.785-2.608 0-4.226-1.792-4.226-4.354 0-2.48 1.713-4.369 4.226-4.369 2.817 0 4.178 2.368 4.019 4.914h-5.971zm3.698-1.442c-.208-1.152-.704-1.761-1.809-1.761-1.44 0-1.856 1.121-1.889 1.761h3.698zM733.673 593.528h2.161v1.537h.032c.416-1.041 1.536-1.761 2.641-1.761.16 0 .353.031.496.08v2.112a4.147 4.147 0 00-.816-.08c-1.664 0-2.24 1.2-2.24 2.657v3.729h-2.273v-8.274z"/></g><g><path class="st34" d="M623.405 608.601h1.665v1.521h-1.665v4.098c0 .769.192.961.961.961.24 0 .464-.017.704-.064v1.776c-.384.064-.88.08-1.328.08-1.393 0-2.609-.319-2.609-1.969v-4.882h-1.377v-1.521h1.377v-2.481h2.272v2.481zM626.156 608.601h2.161v1.537h.032c.416-1.041 1.536-1.761 2.641-1.761.16 0 .353.031.496.08v2.112a4.147 4.147 0 00-.816-.08c-1.664 0-2.24 1.2-2.24 2.657v3.729h-2.273v-8.274zM633.98 613.291c.063 1.44.769 2.097 2.032 2.097.913 0 1.649-.561 1.793-1.073h2.001c-.641 1.953-2.001 2.785-3.874 2.785-2.608 0-4.226-1.792-4.226-4.354 0-2.48 1.713-4.369 4.226-4.369 2.817 0 4.178 2.368 4.018 4.914h-5.97zm3.698-1.441c-.208-1.152-.704-1.761-1.809-1.761-1.44 0-1.856 1.121-1.889 1.761h3.698zM641.195 611.146c.128-2.129 2.032-2.769 3.89-2.769 1.648 0 3.633.368 3.633 2.353v4.306c0 .752.08 1.505.288 1.841h-2.305a3.377 3.377 0 01-.16-.801c-.72.753-1.776 1.024-2.785 1.024-1.568 0-2.817-.784-2.817-2.48 0-1.873 1.409-2.321 2.817-2.513 1.393-.208 2.689-.16 2.689-1.089 0-.977-.673-1.12-1.473-1.12-.864 0-1.425.352-1.505 1.248h-2.272zm5.25 1.68c-.384.336-1.185.353-1.889.48-.704.144-1.345.384-1.345 1.217 0 .848.656 1.056 1.393 1.056 1.776 0 1.841-1.408 1.841-1.904v-.849zM653.355 608.601h1.665v1.521h-1.665v4.098c0 .769.192.961.961.961.24 0 .464-.017.704-.064v1.776c-.384.064-.88.08-1.328.08-1.393 0-2.609-.319-2.609-1.969v-4.882h-1.377v-1.521h1.377v-2.481h2.272v2.481zM656.171 608.601h2.145v1.12h.032c.592-.848 1.456-1.344 2.528-1.344 1.041 0 1.97.384 2.417 1.376.48-.72 1.345-1.376 2.497-1.376 1.761 0 3.025.816 3.025 2.961v5.538h-2.272v-4.689c0-1.104-.097-2.018-1.393-2.018-1.28 0-1.521 1.057-1.521 2.097v4.61h-2.273v-4.642c0-.961.064-2.065-1.376-2.065-.448 0-1.537.288-1.537 1.905v4.802h-2.272v-8.275zM672.476 613.291c.063 1.44.769 2.097 2.032 2.097.913 0 1.649-.561 1.793-1.073h2.001c-.641 1.953-2.001 2.785-3.874 2.785-2.608 0-4.226-1.792-4.226-4.354 0-2.48 1.713-4.369 4.226-4.369 2.817 0 4.178 2.368 4.019 4.914h-5.971zm3.697-1.441c-.208-1.152-.704-1.761-1.809-1.761-1.44 0-1.856 1.121-1.889 1.761h3.698zM679.786 608.601h2.161v1.152h.048c.576-.928 1.568-1.376 2.529-1.376 2.417 0 3.025 1.36 3.025 3.409v5.09h-2.273v-4.674c0-1.36-.4-2.033-1.456-2.033-1.233 0-1.761.688-1.761 2.369v4.338h-2.273v-8.275zM692.155 608.601h1.665v1.521h-1.665v4.098c0 .769.192.961.961.961.24 0 .464-.017.704-.064v1.776c-.384.064-.88.08-1.328.08-1.393 0-2.609-.319-2.609-1.969v-4.882h-1.377v-1.521h1.377v-2.481h2.272v2.481zM699.354 608.601h2.161v1.057h.032c.544-.881 1.44-1.28 2.465-1.28 2.593 0 3.762 2.097 3.762 4.449 0 2.209-1.217 4.273-3.634 4.273-.992 0-1.937-.432-2.481-1.248h-.031v3.938h-2.273v-11.189zm6.147 4.162c0-1.312-.528-2.674-1.984-2.674-1.489 0-1.969 1.329-1.969 2.674 0 1.344.512 2.625 1.984 2.625 1.489 0 1.969-1.282 1.969-2.625zM709.194 605.447h2.272v11.429h-2.272v-11.429zM713.162 611.146c.128-2.129 2.032-2.769 3.89-2.769 1.648 0 3.633.368 3.633 2.353v4.306c0 .752.08 1.505.288 1.841h-2.305a3.377 3.377 0 01-.16-.801c-.72.753-1.776 1.024-2.785 1.024-1.568 0-2.817-.784-2.817-2.48 0-1.873 1.409-2.321 2.817-2.513 1.393-.208 2.689-.16 2.689-1.089 0-.977-.673-1.12-1.473-1.12-.864 0-1.425.352-1.505 1.248h-2.272zm5.25 1.68c-.384.336-1.185.353-1.889.48-.704.144-1.345.384-1.345 1.217 0 .848.656 1.056 1.393 1.056 1.776 0 1.841-1.408 1.841-1.904v-.849zM722.441 608.601h2.161v1.152h.048c.576-.928 1.568-1.376 2.529-1.376 2.417 0 3.025 1.36 3.025 3.409v5.09h-2.273v-4.674c0-1.36-.4-2.033-1.456-2.033-1.233 0-1.761.688-1.761 2.369v4.338h-2.273v-8.275zM734.81 608.601h1.665v1.521h-1.665v4.098c0 .769.192.961.961.961.24 0 .464-.017.704-.064v1.776c-.384.064-.88.08-1.328.08-1.393 0-2.609-.319-2.609-1.969v-4.882h-1.377v-1.521h1.377v-2.481h2.272v2.481z"/></g><path class="st8" d="M333.861 193.968c1.584.089 2.609-.12 4.647.937 1.303.675 1.584 1.71 1.726 2.974-2.354.029-4.235.566-4.235 2.911V205h11v-4h-.069c0-2.19-1.691-2.778-3.876-2.86-.447-3.224-2.314-5.189-6.071-5.884-1.509-.28-4.747-.256-6.276-.256l-6.189.033c-1.528 0-2.887-.056-4.396.224-4.364.809-6.123 5.006-6.123 9.224V256h2.576c-.003-1.533-.053-55.284 0-55.854.182-2.09.837-4.196 2.628-5.216 1.424-.811 3.619-.841 5.202-.93l9.456-.032z"/><path class="st8" d="M321 218h42v40h-42zM452 205h-15.885c-6.574 0-12.287 4.718-12.561 11l42.123-.017c0-6.108-5.813-10.983-13.474-10.983"/><path class="st8" d="M436.861 193.968c1.581.089 2.608-.12 4.645.937 1.301.675 1.584 1.71 1.726 2.974-2.354.029-4.233.566-4.233 2.911V205h11v-4h-.072c0-2.19-1.693-2.778-3.873-2.86-.448-3.224-2.313-5.189-6.072-5.884-1.509-.28-4.746-.256-6.274-.256l-6.193.033c-1.523 0-2.884-.056-4.39.224-4.368.809-6.127 5.006-6.127 9.224V256h2.577c-.005-1.533-.053-55.284 0-55.854.183-2.09.837-4.196 2.629-5.216 1.421-.811 3.619-.841 5.201-.93l9.456-.032z"/><path class="st8" d="M424 218h42v40h-42zM401 205h-16.393c-6.574 0-12.289 4.718-12.563 11l42.121-.017c0-6.108-5.81-10.983-13.474-10.983"/><path class="st8" d="M385.86 193.968c1.583.089 2.608-.12 4.647.937 1.303.675 1.583 1.71 1.729 2.974-2.356.029-4.236.566-4.236 2.911V205h11v-4h-.069c0-2.19-1.693-2.778-3.876-2.86-.445-3.224-2.315-5.189-6.072-5.884-1.508-.28-4.745-.256-6.272-.256l-6.193.033c-1.526 0-2.885-.056-4.393.224-4.364.809-6.124 5.006-6.124 9.224V256h2.577c-.005-1.533-.055-55.284 0-55.854.182-2.09.839-4.196 2.628-5.216 1.424-.811 3.619-.841 5.202-.93l9.452-.032z"/><path class="st8" d="M372 218h42v40h-42zM188 24.046c0-.733-.67-1.329-1.502-1.329-.827 0-1.498.596-1.498 1.329v73.493c0 .733.67 1.326 1.498 1.326.832 0 1.502-.593 1.502-1.326V24.046zM160 24.309c0-.735-.671-1.328-1.501-1.328-.827 0-1.499.593-1.499 1.328v95.013c0 .734.671 1.328 1.499 1.328.83 0 1.501-.594 1.501-1.328V24.309zM581 374h113v49H581z"/><path class="st180" d="M680.17 402.554c4.336-4.297 6.83-9.299 6.83-14.637v-11.412c0-16.013-22.388-28.995-50.002-28.995-27.616 0-49.998 12.982-49.998 28.995v11.412c0 16.013 22.382 28.997 49.998 28.997 14.072 0 26.784-3.373 35.87-8.799l3.005-1.96.833-.625 3.464-2.976z"/><path class="st35" d="M1 2h769v621H1z"/><g><defs><path id="SVGID_127_" d="M636.385 371.108h3.122v1.811h-3.122z"/></defs><clipPath id="SVGID_8_"><use xlink:href="#SVGID_127_" overflow="visible"/></clipPath><path d="M637.948 371.108c-.865 0-1.562.405-1.562.905 0 .499.698.904 1.562.904.862 0 1.559-.405 1.559-.904 0-.5-.698-.905-1.559-.905" clip-path="url(#SVGID_8_)"/></g><path class="st8" d="M590.604 377.056c0-14.941 20.882-27.054 46.646-27.054s46.652 12.113 46.652 27.054v9.605c0-14.941-20.888-27.054-46.652-27.054-25.765 0-46.646 12.113-46.646 27.054v-9.605z"/><path class="st12" d="M637.25 347.471c-27.63 0-50.027 12.994-50.027 29.017 0 16.027 22.397 29.017 50.027 29.017 27.633 0 50.027-12.99 50.027-29.017 0-16.022-22.394-29.017-50.027-29.017m0 56.075c-25.765 0-46.646-12.112-46.646-27.057 0-14.941 20.882-27.054 46.646-27.054s46.652 12.113 46.652 27.054c0 14.945-20.887 27.057-46.652 27.057"/><path class="st188" d="M587.223 376.489c0 16.027 22.397 29.017 50.027 29.017 27.633 0 50.027-12.99 50.027-29.017v11.414c0 16.027-22.394 29.017-50.027 29.017-27.63 0-50.027-12.99-50.027-29.017v-11.414z"/><path class="st12" d="M637.25 379.616c-2.976 0-5.388-1.401-5.388-3.128s2.412-3.125 5.388-3.125c2.982 0 5.394 1.398 5.394 3.125s-2.412 3.128-5.394 3.128"/><path class="st12" d="M637.25 370.349c-2.992 0-5.419 1.406-5.419 3.144 0 1.737 2.427 3.146 5.419 3.146 2.994 0 5.421-1.409 5.421-3.146 0-1.738-2.427-3.144-5.421-3.144"/><path class="st188" d="M642.67 373.493c0 1.737-2.426 3.146-5.421 3.146-2.992 0-5.418-1.409-5.418-3.146v3.045c0 1.737 2.426 3.143 5.418 3.143 2.995 0 5.421-1.406 5.421-3.143v-3.045z"/><path class="st189" d="M675.189 412.003v-17.1M633.816 368.332l45.914 26.197M671.921 395.504l4.525-2.649M667.412 392.731l4.527-2.644M662.776 390.092l4.53-2.644M658.147 387.448l4.524-2.644M653.511 384.807l4.53-2.647M648.882 382.162l4.528-2.646M644.248 379.521l4.533-2.644M639.616 376.877l4.533-2.644M634.987 374.235l4.529-2.643M630.351 371.593l4.531-2.644M629.108 371.233l45.92 26.199M679.749 392.524v17.1M679.647 405.891l-4.304 2.483M679.566 402.407l-4.3 2.48M679.566 398.514l-4.3 2.483M679.612 394.718l-4.297 2.483"/><path class="st8" d="M314 344h31v53h-31z"/><path class="st12" d="M318 350h23v2h-23zM318 358h23v2h-23zM318 366h23v2h-23zM318 375h23v2h-23zM318 384h23v2h-23z"/><path class="st8" d="M350 344h31v53h-31z"/><path class="st12" d="M354 350h23v2h-23zM354 358h23v2h-23zM354 366h23v2h-23zM354 375h23v2h-23zM354 384h23v2h-23z"/><path class="st8" d="M455.923 343.668c-3.857.006-9.097.963-9.097 8.366v44.118h-1.671l.056.94h23.709l-.14-.94h-1.675v-44.118c0-7.403-4.844-8.36-9.095-8.366h-2.087zm-3.713 50.347h-3.079v-11.938c.585 1.505 1.954 3.254 3.079 3.866v8.072zm7.69 0h-5.868v-7.191c1.154.61 1.891.569 2.442.569l.398.006v.009l.099-.003.092.003v-.009l.398-.006c.548 0 1.284.041 2.439-.569v7.191zm4.893 0h-3.067v-8.072c1.118-.612 2.492-2.361 3.067-3.866v11.938z"/><path class="st12" d="M456.882 370.949a4.664 4.664 0 00-4.652 4.66 4.662 4.662 0 004.652 4.655c2.57 0 4.66-2.09 4.66-4.655 0-2.57-2.089-4.66-4.66-4.66m1.956 2.107l-1.357 1.379a1.32 1.32 0 00-.598-.152c-.234 0-.443.068-.631.172l-1.353-1.374a3.183 3.183 0 011.984-.705 3.17 3.17 0 011.955.68m-4.451.525l1.357 1.376a1.24 1.24 0 00-.178.652c0 .291.092.553.255.774l-1.344 1.359a3.18 3.18 0 01-.821-2.133c.001-.774.282-1.47.731-2.028m.623 4.642l1.376-1.394a1.265 1.265 0 00.954.015l1.389 1.407a3.169 3.169 0 01-1.846.586 3.15 3.15 0 01-1.873-.614m4.251-.444l-1.338-1.357c.172-.229.282-.509.282-.812 0-.253-.074-.493-.196-.695l1.345-1.365a3.163 3.163 0 01-.093 4.229"/><path class="st8" d="M481.077 343.668c-3.86.006-9.098.963-9.098 8.366l-.003 26.914v17.204h-1.668l.05.94h23.718l-.148-.94h-1.668v-17.204l-.006-26.914c0-7.403-4.838-8.36-9.089-8.366h-2.088zm-3.717 50.347h-3.075v-11.938c.585 1.505 1.956 3.254 3.075 3.866v8.072zm7.696 0h-5.871v-7.191c1.157.61 1.886.569 2.435.569l.404.006v.009l.095-.003.095.003v-.009l.404-.006c.547 0 1.276.041 2.439-.569v7.191zm4.895 0h-3.077v-8.072c1.118-.612 2.492-2.361 3.077-3.866v11.938z"/><path class="st12" d="M482.039 370.949a4.666 4.666 0 00-4.661 4.66 4.664 4.664 0 004.661 4.655c2.567 0 4.66-2.09 4.66-4.655 0-2.57-2.093-4.66-4.66-4.66m1.952 2.107l-1.359 1.379a1.31 1.31 0 00-.594-.152c-.235 0-.449.068-.636.172l-1.357-1.374a3.202 3.202 0 011.993-.705 3.194 3.194 0 011.953.68m-4.455.525l1.357 1.376a1.307 1.307 0 00.073 1.426l-1.341 1.359a3.219 3.219 0 01-.821-2.133c0-.774.282-1.47.732-2.028m.627 4.642l1.37-1.394c.155.065.327.101.506.101.157 0 .307-.03.447-.086l1.397 1.407a3.17 3.17 0 01-1.844.586 3.148 3.148 0 01-1.876-.614m4.255-.444l-1.347-1.357c.178-.229.289-.509.289-.812a1.33 1.33 0 00-.196-.695l1.344-1.365a3.19 3.19 0 01.758 2.06c0 .834-.327 1.596-.848 2.169"/><path class="st8" d="M506.225 343.668c-3.857.006-9.095.963-9.095 8.366v44.118h-1.674l.056.94h23.711l-.142-.94h-1.674v-44.118c0-7.403-4.844-8.36-9.097-8.366h-2.085zm-3.711 50.347h-3.081v-11.938c.586 1.505 1.956 3.254 3.081 3.866v8.072zm7.69 0h-5.869v-7.191c1.157.61 1.891.569 2.439.569l.399.006v.009l.101-.003.09.003v-.009l.401-.006c.545 0 1.285.041 2.439-.569v7.191zm4.895 0h-3.067v-8.072c1.118-.612 2.487-2.361 3.067-3.866v11.938z"/><path class="st12" d="M507.186 370.949a4.664 4.664 0 00-4.655 4.66 4.663 4.663 0 004.655 4.655c2.57 0 4.66-2.09 4.66-4.655 0-2.57-2.09-4.66-4.66-4.66m1.954 2.107l-1.359 1.379a1.294 1.294 0 00-.595-.152c-.235 0-.444.068-.634.172l-1.351-1.374a3.184 3.184 0 011.986-.705 3.166 3.166 0 011.953.68m-4.45.525l1.359 1.376a1.232 1.232 0 00-.179.652c0 .291.093.553.252.774l-1.338 1.359a3.17 3.17 0 01-.826-2.133 3.212 3.212 0 01.732-2.028m.62 4.642l1.379-1.394a1.26 1.26 0 00.954.015l1.389 1.407a3.173 3.173 0 01-1.846.586 3.166 3.166 0 01-1.876-.614m4.257-.444l-1.342-1.357c.172-.229.283-.509.283-.812a1.35 1.35 0 00-.197-.695l1.35-1.365c.469.559.761 1.272.761 2.06a3.206 3.206 0 01-.855 2.169"/><path class="st8" d="M441 396h83v8h-83z"/><path class="st35" d="M.687 2.052h769.312v620.503H.687z"/><g><path class="st165" d="M85.461 413.471h-5.695v10.504h-6.834v-10.504H53.949v-7.15l18.983-26.64h6.834v28.095h5.695v5.695zm-25.944-5.696h13.415v-19.489h-.126l-13.289 19.489zM86.979 387.021c1.519 0 2.995-.127 4.43-.38 1.434-.253 2.731-.674 3.892-1.266a9.985 9.985 0 002.974-2.277c.822-.928 1.36-2.066 1.613-3.417h5.885v44.294h-7.91v-31.259H86.979v-5.695z"/></g><g><path class="st165" d="M131.139 409.692c-1.356 0-2.516-.241-3.48-.724-.964-.481-1.748-1.13-2.35-1.943-.603-.813-1.04-1.763-1.311-2.848a14.317 14.317 0 01-.407-3.48c0-1.205.143-2.357.43-3.457.286-1.1.738-2.057 1.356-2.87a6.73 6.73 0 012.35-1.944c.949-.481 2.086-.723 3.413-.723 1.326 0 2.463.241 3.413.723a6.74 6.74 0 012.35 1.944c.617.813 1.069 1.771 1.356 2.87.286 1.1.43 2.252.43 3.457 0 1.236-.136 2.396-.407 3.48-.271 1.085-.708 2.034-1.311 2.848-.603.813-1.386 1.462-2.35 1.943-.967.483-2.126.724-3.482.724zm-3.481-8.995c0 .844.06 1.635.181 2.373.12.739.316 1.379.587 1.921.271.543.625.972 1.062 1.288.437.316.972.475 1.604.475s1.175-.158 1.627-.475a3.37 3.37 0 001.084-1.288c.271-.542.475-1.182.61-1.921.136-.738.204-1.529.204-2.373 0-.753-.053-1.491-.158-2.215a6.842 6.842 0 00-.565-1.943c-.271-.572-.632-1.031-1.084-1.378s-1.025-.521-1.718-.521c-.693 0-1.265.174-1.717.521s-.807.806-1.062 1.378a6.809 6.809 0 00-.52 1.943 18.134 18.134 0 00-.135 2.215zm21.56-9.446h3.435l-17.492 33.809h-3.525l17.582-33.809zm4.61 33.356c-1.356 0-2.516-.241-3.48-.724-.965-.481-1.748-1.13-2.351-1.943-.603-.813-1.04-1.763-1.311-2.848a14.309 14.309 0 01-.407-3.479c0-1.205.143-2.357.429-3.458.286-1.1.738-2.057 1.356-2.87a6.728 6.728 0 012.35-1.943c.949-.481 2.086-.724 3.413-.724 1.326 0 2.463.242 3.413.724a6.737 6.737 0 012.35 1.943c.617.813 1.069 1.771 1.356 2.87.286 1.101.43 2.253.43 3.458 0 1.235-.136 2.396-.407 3.479-.271 1.085-.708 2.034-1.311 2.848-.603.813-1.386 1.462-2.35 1.943-.964.483-2.124.724-3.48.724zm-3.48-8.994c0 .844.06 1.635.181 2.372.12.739.316 1.379.587 1.922.271.542.625.972 1.062 1.288.437.316.972.475 1.605.475.632 0 1.175-.158 1.627-.475s.813-.746 1.085-1.288c.271-.543.474-1.183.61-1.922.136-.737.204-1.528.204-2.372a15.4 15.4 0 00-.158-2.215 6.823 6.823 0 00-.565-1.943 3.697 3.697 0 00-1.085-1.379c-.452-.346-1.025-.52-1.717-.52-.694 0-1.266.174-1.718.52a3.495 3.495 0 00-1.062 1.379 6.79 6.79 0 00-.52 1.943 17.73 17.73 0 00-.136 2.215z"/></g><g><path class="st8" d="M33.588 449.59c-.748 0-1.414-.124-1.998-.37a4.266 4.266 0 01-1.482-1.021c-.404-.435-.711-.952-.922-1.555s-.316-1.266-.316-1.989c0-.711.105-1.368.316-1.971s.518-1.121.922-1.555.898-.774 1.482-1.021 1.25-.371 1.998-.371c.747 0 1.413.124 1.998.371s1.079.588 1.482 1.021.711.952.922 1.555c.21.603.316 1.26.316 1.971 0 .724-.106 1.387-.316 1.989a4.388 4.388 0 01-.922 1.555 4.262 4.262 0 01-1.482 1.021c-.585.246-1.251.37-1.998.37zm0-1.627c.458 0 .855-.097 1.193-.289.337-.192.615-.446.832-.76s.376-.666.479-1.058a4.75 4.75 0 000-2.395c-.103-.397-.262-.75-.479-1.058s-.495-.558-.832-.75c-.338-.192-.735-.289-1.193-.289-.458 0-.856.097-1.193.289s-.615.442-.832.75-.377.66-.479 1.058a4.74 4.74 0 000 2.395c.102.392.262.744.479 1.058s.494.567.832.76.734.289 1.193.289zM39.102 439.99h1.537v-.777c0-.591.073-1.07.217-1.438.145-.368.337-.651.579-.85a1.9 1.9 0 01.822-.398 4.67 4.67 0 01.967-.099c.663 0 1.145.042 1.446.126v1.609a2.966 2.966 0 00-.425-.081 4.364 4.364 0 00-.533-.027c-.277 0-.515.066-.714.198-.199.133-.298.393-.298.777v.959h1.753v1.536H42.7v7.811h-2.062v-7.811h-1.537v-1.535zM49.895 439.99h2.188l1.826 6.979h.036l1.754-6.979h2.079l1.681 6.979h.036l1.898-6.979h2.097l-2.929 9.347h-2.115l-1.736-6.942h-.036l-1.717 6.942h-2.169l-2.893-9.347zM72.44 447.258c0 .253.033.434.1.542.066.108.196.163.389.163h.217c.084 0 .181-.012.289-.036v1.429a5.658 5.658 0 01-.633.162 4.169 4.169 0 01-.362.055 3.187 3.187 0 01-.307.018c-.422 0-.771-.084-1.049-.253s-.458-.464-.542-.886c-.41.397-.913.687-1.509.867a5.906 5.906 0 01-1.727.271c-.422 0-.826-.058-1.211-.172a3.15 3.15 0 01-1.021-.506 2.418 2.418 0 01-.705-.85c-.175-.344-.262-.744-.262-1.202 0-.579.105-1.049.316-1.41.21-.362.488-.645.832-.85a3.747 3.747 0 011.157-.443c.428-.091.858-.159 1.292-.208a10.62 10.62 0 011.067-.153c.337-.03.635-.082.895-.154s.464-.184.615-.334.226-.377.226-.678c0-.266-.063-.482-.19-.651a1.272 1.272 0 00-.47-.389c-.187-.09-.395-.15-.624-.181s-.446-.045-.651-.045c-.578 0-1.055.12-1.428.361s-.584.614-.633 1.121H64.45c.036-.603.181-1.104.434-1.501s.575-.717.967-.958.834-.409 1.329-.506 1-.146 1.519-.146c.458 0 .91.049 1.356.146.445.097.846.253 1.202.47.355.217.642.497.859.841.217.344.325.763.325 1.256v4.81zm-2.061-2.604c-.313.205-.699.328-1.157.371-.458.042-.916.105-1.374.189a4.565 4.565 0 00-.633.153 1.898 1.898 0 00-.542.271c-.157.114-.28.266-.371.452a1.538 1.538 0 00-.136.678c0 .229.066.422.199.579.132.156.292.28.479.37.187.091.392.153.615.189s.425.055.606.055c.229 0 .476-.03.741-.091.265-.06.515-.162.75-.307s.431-.328.588-.552c.156-.223.235-.497.235-.822v-1.535zM73.723 439.99h1.555v-2.803h2.062v2.803h1.862v1.536H77.34v4.99c0 .217.009.404.027.561s.06.289.126.397.166.19.298.244c.132.055.313.081.542.081.145 0 .289-.003.434-.009.145-.006.289-.027.434-.063v1.591l-.669.073a6.34 6.34 0 01-.669.036c-.542 0-.979-.052-1.311-.154-.332-.103-.591-.253-.777-.452a1.557 1.557 0 01-.38-.75 5.752 5.752 0 01-.118-1.03v-5.515h-1.555v-1.536zM82.021 445.196c0 .362.051.712.154 1.049.102.338.256.633.461.886.205.254.464.455.777.606.313.15.687.226 1.121.226.603 0 1.087-.129 1.455-.389.368-.259.642-.647.823-1.166h1.953a3.854 3.854 0 01-.561 1.355 3.918 3.918 0 01-.958 1.004 4.109 4.109 0 01-1.257.614 5.043 5.043 0 01-1.455.208c-.735 0-1.386-.12-1.953-.361-.567-.241-1.046-.579-1.438-1.013s-.687-.952-.886-1.555-.298-1.266-.298-1.988c0-.663.105-1.293.316-1.89.21-.597.512-1.121.904-1.573s.865-.811 1.419-1.075c.554-.266 1.181-.398 1.88-.398.735 0 1.395.154 1.979.462a4.362 4.362 0 011.456 1.22c.385.507.666 1.088.84 1.745s.22 1.335.136 2.033h-6.868zm4.81-1.355a3.337 3.337 0 00-.208-.94 2.513 2.513 0 00-.47-.786c-.199-.223-.44-.403-.723-.542s-.6-.208-.949-.208c-.362 0-.69.062-.985.189-.296.127-.549.302-.76.524s-.379.485-.506.786a2.76 2.76 0 00-.208.977h4.809zM90.465 439.99h1.934v1.808h.036c.061-.253.178-.5.353-.741s.386-.461.633-.66c.247-.198.521-.358.823-.479.301-.121.608-.182.922-.182.241 0 .407.007.498.019l.28.036v1.988a9.847 9.847 0 00-.443-.062 3.522 3.522 0 00-.443-.027c-.35 0-.678.069-.985.208a2.272 2.272 0 00-.804.614 2.99 2.99 0 00-.542 1.004 4.324 4.324 0 00-.199 1.374v4.447h-2.061v-9.347zM101.854 439.99h1.934v1.808h.036c.061-.253.178-.5.353-.741s.386-.461.633-.66c.247-.198.521-.358.823-.479.301-.121.608-.182.922-.182.241 0 .407.007.498.019l.28.036v1.988a9.847 9.847 0 00-.443-.062 3.522 3.522 0 00-.443-.027c-.35 0-.678.069-.985.208a2.272 2.272 0 00-.804.614 2.99 2.99 0 00-.542 1.004 4.324 4.324 0 00-.199 1.374v4.447h-2.061v-9.347zM109.394 445.196c0 .362.051.712.154 1.049.102.338.256.633.461.886.205.254.464.455.777.606.313.15.687.226 1.121.226.603 0 1.087-.129 1.455-.389.368-.259.642-.647.823-1.166h1.953a3.854 3.854 0 01-.561 1.355 3.918 3.918 0 01-.958 1.004 4.109 4.109 0 01-1.257.614 5.043 5.043 0 01-1.455.208c-.735 0-1.386-.12-1.953-.361-.567-.241-1.046-.579-1.438-1.013s-.687-.952-.886-1.555-.298-1.266-.298-1.988c0-.663.105-1.293.316-1.89.21-.597.512-1.121.904-1.573s.865-.811 1.419-1.075c.554-.266 1.181-.398 1.88-.398.735 0 1.395.154 1.979.462a4.362 4.362 0 011.456 1.22c.385.507.666 1.088.84 1.745s.22 1.335.136 2.033h-6.868zm4.809-1.355a3.337 3.337 0 00-.208-.94 2.513 2.513 0 00-.47-.786c-.199-.223-.44-.403-.723-.542s-.6-.208-.949-.208c-.362 0-.69.062-.985.189-.296.127-.549.302-.76.524s-.379.485-.506.786a2.76 2.76 0 00-.208.977h4.809zM124.146 443.117c-.084-.578-.316-1.015-.696-1.311-.379-.295-.858-.442-1.437-.442a2.94 2.94 0 00-.85.136c-.301.09-.578.259-.832.506-.253.247-.464.591-.633 1.03-.169.44-.253 1.016-.253 1.727 0 .386.045.771.136 1.157s.235.729.434 1.03c.199.302.455.546.769.732.313.188.693.28 1.139.28.603 0 1.1-.187 1.491-.561.392-.373.636-.897.732-1.573h2.061c-.193 1.218-.654 2.149-1.383 2.794s-1.696.967-2.901.967c-.735 0-1.383-.124-1.944-.37a4.106 4.106 0 01-1.419-1.013 4.309 4.309 0 01-.877-1.527 5.967 5.967 0 01-.298-1.917c0-.698.096-1.355.289-1.971a4.527 4.527 0 01.868-1.6 4.043 4.043 0 011.437-1.066c.572-.26 1.245-.39 2.016-.39.542 0 1.058.07 1.545.208.488.139.922.347 1.302.624s.69.627.931 1.049.386.922.434 1.5h-2.061zM126.858 439.99h2.26l2.441 6.979h.036l2.368-6.979h2.152l-3.634 9.853c-.169.422-.334.826-.497 1.212s-.361.726-.597 1.021c-.235.295-.527.53-.877.705s-.795.262-1.338.262c-.482 0-.958-.036-1.428-.108V451.2c.169.023.332.051.488.081s.319.045.488.045c.241 0 .44-.029.597-.09a.99.99 0 00.389-.263c.102-.114.19-.25.262-.406.072-.157.138-.338.199-.542l.235-.724-3.544-9.311zM143.382 443.117c-.084-.578-.316-1.015-.696-1.311-.379-.295-.858-.442-1.437-.442a2.94 2.94 0 00-.85.136c-.301.09-.578.259-.832.506-.253.247-.464.591-.633 1.03-.169.44-.253 1.016-.253 1.727 0 .386.045.771.136 1.157s.235.729.434 1.03c.199.302.455.546.769.732.313.188.693.28 1.139.28.603 0 1.1-.187 1.491-.561.392-.373.636-.897.732-1.573h2.061c-.193 1.218-.654 2.149-1.383 2.794s-1.696.967-2.901.967c-.735 0-1.383-.124-1.944-.37a4.106 4.106 0 01-1.419-1.013 4.309 4.309 0 01-.877-1.527 5.967 5.967 0 01-.298-1.917c0-.698.096-1.355.289-1.971a4.527 4.527 0 01.868-1.6 4.043 4.043 0 011.437-1.066c.572-.26 1.245-.39 2.016-.39.542 0 1.058.07 1.545.208.488.139.922.347 1.302.624s.69.627.931 1.049.386.922.434 1.5h-2.061zM147.179 436.429h2.061v12.908h-2.061v-12.908zM153.091 445.196c0 .362.051.712.154 1.049.102.338.256.633.461.886.205.254.464.455.777.606.313.15.687.226 1.121.226.603 0 1.087-.129 1.455-.389.368-.259.642-.647.823-1.166h1.953a3.854 3.854 0 01-.561 1.355 3.918 3.918 0 01-.958 1.004 4.109 4.109 0 01-1.257.614 5.043 5.043 0 01-1.455.208c-.735 0-1.386-.12-1.953-.361-.567-.241-1.046-.579-1.438-1.013s-.687-.952-.886-1.555-.298-1.266-.298-1.988c0-.663.105-1.293.316-1.89.21-.597.512-1.121.904-1.573s.865-.811 1.419-1.075c.554-.266 1.181-.398 1.88-.398.735 0 1.395.154 1.979.462a4.362 4.362 0 011.456 1.22c.385.507.666 1.088.84 1.745s.22 1.335.136 2.033h-6.868zm4.809-1.355a3.337 3.337 0 00-.208-.94 2.513 2.513 0 00-.47-.786c-.199-.223-.44-.403-.723-.542s-.6-.208-.949-.208c-.362 0-.69.062-.985.189-.296.127-.549.302-.76.524s-.379.485-.506.786a2.76 2.76 0 00-.208.977h4.809zM170.338 449.337h-1.952v-1.266h-.036c-.278.542-.681.932-1.211 1.166a4.109 4.109 0 01-1.682.353c-.735 0-1.377-.13-1.925-.389a3.827 3.827 0 01-1.365-1.058 4.512 4.512 0 01-.814-1.582 6.85 6.85 0 01-.271-1.961c0-.844.114-1.573.343-2.188.229-.614.534-1.12.913-1.519a3.55 3.55 0 011.302-.877c.488-.187.985-.28 1.492-.28.289 0 .584.027.886.082.301.054.59.142.868.262.277.121.534.274.769.461.235.188.431.407.587.66h.036v-4.772h2.061v12.908zm-7.195-4.574c0 .397.051.79.154 1.176.102.386.259.729.47 1.03.211.301.479.542.805.723.326.181.711.271 1.157.271.458 0 .853-.097 1.184-.289s.603-.446.813-.76.368-.666.47-1.058a4.75 4.75 0 00.154-1.202c0-1.036-.232-1.844-.696-2.423-.464-.578-1.094-.867-1.889-.867-.482 0-.889.099-1.221.298s-.603.458-.813.777-.361.682-.452 1.085a5.627 5.627 0 00-.136 1.239z"/></g><g><path class="st8" d="M63.635 468.356c0 .253.033.434.1.542.066.108.196.163.389.163h.217c.084 0 .181-.012.289-.036v1.429a5.658 5.658 0 01-.633.162 4.169 4.169 0 01-.362.055 3.187 3.187 0 01-.307.018c-.422 0-.771-.084-1.049-.253s-.458-.464-.542-.886c-.41.397-.913.687-1.509.867a5.906 5.906 0 01-1.727.271c-.422 0-.826-.058-1.211-.172a3.15 3.15 0 01-1.021-.506 2.418 2.418 0 01-.705-.85c-.175-.344-.262-.744-.262-1.202 0-.579.105-1.049.316-1.41.21-.362.488-.645.832-.85a3.747 3.747 0 011.157-.443c.428-.091.858-.159 1.292-.208a10.62 10.62 0 011.067-.153c.337-.03.635-.082.895-.154s.464-.184.615-.334.226-.377.226-.678c0-.266-.063-.482-.19-.651a1.272 1.272 0 00-.47-.389c-.187-.09-.395-.15-.624-.181s-.446-.045-.651-.045c-.578 0-1.055.12-1.428.361s-.584.614-.633 1.121h-2.061c.036-.603.181-1.104.434-1.501s.575-.717.967-.958.834-.409 1.329-.506 1-.146 1.519-.146c.458 0 .91.049 1.356.146.445.097.846.253 1.202.47.355.217.642.497.859.841.217.344.325.763.325 1.256v4.81zm-2.061-2.603c-.313.205-.699.328-1.157.371-.458.042-.916.105-1.374.189a4.565 4.565 0 00-.633.153 1.898 1.898 0 00-.542.271c-.157.114-.28.266-.371.452a1.538 1.538 0 00-.136.678c0 .229.066.422.199.579.132.156.292.28.479.37.187.091.392.153.615.189s.425.055.606.055c.229 0 .476-.03.741-.091.265-.06.515-.162.75-.307s.431-.328.588-.552c.156-.223.235-.497.235-.822v-1.535zM65.859 461.089h1.952v1.374l.036.036a3.463 3.463 0 011.229-1.221 3.28 3.28 0 011.682-.443c1.024 0 1.832.266 2.422.796s.886 1.326.886 2.387v6.418h-2.061v-5.876c-.024-.734-.181-1.269-.47-1.6-.29-.332-.741-.497-1.356-.497-.35 0-.663.062-.94.189a2.04 2.04 0 00-.705.524 2.454 2.454 0 00-.452.786 2.823 2.823 0 00-.163.958v5.515h-2.061v-9.346zM85.041 470.436h-1.952v-1.266h-.036c-.278.542-.681.932-1.211 1.166a4.109 4.109 0 01-1.682.353c-.735 0-1.377-.13-1.925-.389a3.827 3.827 0 01-1.365-1.058 4.512 4.512 0 01-.814-1.582 6.85 6.85 0 01-.271-1.961c0-.844.114-1.573.343-2.188.229-.614.534-1.12.913-1.519a3.55 3.55 0 011.302-.877c.488-.187.985-.28 1.492-.28.289 0 .584.027.886.082.301.054.59.142.868.262.277.121.534.274.769.461.235.188.431.407.587.66h.036v-4.772h2.061v12.908zm-7.196-4.575c0 .397.051.79.154 1.176.102.386.259.729.47 1.03.211.301.479.542.805.723.326.181.711.271 1.157.271.458 0 .853-.097 1.184-.289s.603-.446.813-.76.368-.666.47-1.058a4.75 4.75 0 00.154-1.202c0-1.036-.232-1.844-.696-2.423-.464-.578-1.094-.867-1.889-.867-.482 0-.889.099-1.221.298s-.603.458-.813.777-.361.682-.452 1.085c-.09.405-.136.817-.136 1.239zM92.309 461.089h1.934v1.808h.036c.061-.253.178-.5.353-.741s.386-.461.633-.66c.247-.198.521-.358.823-.479.301-.121.608-.182.922-.182.241 0 .407.007.498.019l.28.036v1.988a9.847 9.847 0 00-.443-.062 3.522 3.522 0 00-.443-.027c-.35 0-.678.069-.985.208a2.272 2.272 0 00-.804.614 2.99 2.99 0 00-.542 1.004 4.324 4.324 0 00-.199 1.374v4.447h-2.061v-9.347zM99.83 466.295c0 .362.051.712.154 1.049.102.338.256.633.461.886.205.254.464.455.777.606.313.15.687.226 1.121.226.603 0 1.087-.129 1.455-.389.368-.259.642-.647.823-1.166h1.953a3.854 3.854 0 01-.561 1.355 3.918 3.918 0 01-.958 1.004 4.109 4.109 0 01-1.257.614 5.043 5.043 0 01-1.455.208c-.735 0-1.386-.12-1.953-.361-.567-.241-1.046-.579-1.438-1.013s-.687-.952-.886-1.555-.298-1.266-.298-1.988c0-.663.105-1.293.316-1.89.21-.597.512-1.121.904-1.573s.865-.811 1.419-1.075c.554-.266 1.181-.398 1.88-.398.735 0 1.395.154 1.979.462a4.362 4.362 0 011.456 1.22c.385.507.666 1.088.84 1.745s.22 1.335.136 2.033H99.83zm4.809-1.356a3.337 3.337 0 00-.208-.94 2.513 2.513 0 00-.47-.786c-.199-.223-.44-.403-.723-.542s-.6-.208-.949-.208c-.362 0-.69.062-.985.189-.296.127-.549.302-.76.524s-.379.485-.506.786a2.76 2.76 0 00-.208.977h4.809zM116.481 470.436h-2.025v-1.302h-.036c-.253.47-.63.847-1.13 1.13s-1.009.425-1.527.425c-1.229 0-2.119-.304-2.667-.913-.548-.608-.822-1.527-.822-2.757v-5.93h2.061v5.73c0 .82.156 1.398.47 1.736.313.337.753.506 1.32.506.434 0 .795-.066 1.085-.199.289-.132.524-.31.705-.533a2.05 2.05 0 00.389-.805c.078-.312.118-.65.118-1.012v-5.424h2.061v9.348zM120.205 467.435c.06.603.289 1.024.687 1.266.397.241.874.361 1.428.361.193 0 .413-.015.66-.045s.479-.088.696-.172.395-.208.533-.371c.139-.162.202-.376.19-.642a.908.908 0 00-.289-.65c-.181-.169-.413-.305-.696-.407s-.605-.189-.967-.262a46.958 46.958 0 01-1.103-.235 10.109 10.109 0 01-1.112-.308 3.573 3.573 0 01-.958-.488 2.255 2.255 0 01-.678-.786c-.169-.319-.253-.714-.253-1.185 0-.506.124-.931.371-1.274.247-.343.561-.62.94-.831a4.099 4.099 0 011.265-.443 7.47 7.47 0 011.329-.127c.482 0 .943.052 1.383.154s.838.269 1.193.497c.355.229.651.527.886.895s.383.812.443 1.329h-2.152c-.096-.494-.322-.825-.678-.994s-.763-.253-1.22-.253c-.145 0-.316.012-.516.036a2.33 2.33 0 00-.56.136 1.164 1.164 0 00-.443.289.688.688 0 00-.181.497c0 .253.087.458.262.614.175.157.404.287.687.389.283.103.605.19.967.263.361.072.735.15 1.121.234.373.085.741.188 1.103.308.362.121.684.283.967.488s.512.464.687.777.262.699.262 1.157c0 .555-.126 1.024-.38 1.41a3.003 3.003 0 01-.985.94 4.501 4.501 0 01-1.347.524 6.84 6.84 0 01-1.464.162 6.395 6.395 0 01-1.636-.198 3.832 3.832 0 01-1.302-.606 2.918 2.918 0 01-.868-1.012c-.211-.404-.323-.883-.334-1.438h2.062zM129.642 466.295c0 .362.051.712.154 1.049.102.338.256.633.461.886.205.254.464.455.777.606.313.15.687.226 1.121.226.603 0 1.087-.129 1.455-.389.368-.259.642-.647.823-1.166h1.953a3.854 3.854 0 01-.561 1.355 3.918 3.918 0 01-.958 1.004 4.109 4.109 0 01-1.257.614 5.043 5.043 0 01-1.455.208c-.735 0-1.386-.12-1.953-.361-.567-.241-1.046-.579-1.438-1.013s-.687-.952-.886-1.555-.298-1.266-.298-1.988c0-.663.105-1.293.316-1.89.21-.597.512-1.121.904-1.573s.865-.811 1.419-1.075c.554-.266 1.181-.398 1.88-.398.735 0 1.395.154 1.979.462a4.362 4.362 0 011.456 1.22c.385.507.666 1.088.84 1.745s.22 1.335.136 2.033h-6.868zm4.809-1.356a3.337 3.337 0 00-.208-.94 2.513 2.513 0 00-.47-.786c-.199-.223-.44-.403-.723-.542s-.6-.208-.949-.208c-.362 0-.69.062-.985.189-.296.127-.549.302-.76.524s-.379.485-.506.786a2.76 2.76 0 00-.208.977h4.809zM146.89 470.436h-1.952v-1.266h-.036c-.278.542-.681.932-1.211 1.166a4.109 4.109 0 01-1.682.353c-.735 0-1.377-.13-1.925-.389a3.827 3.827 0 01-1.365-1.058 4.512 4.512 0 01-.814-1.582 6.85 6.85 0 01-.271-1.961c0-.844.114-1.573.343-2.188.229-.614.534-1.12.913-1.519a3.55 3.55 0 011.302-.877c.488-.187.985-.28 1.492-.28.289 0 .584.027.886.082.301.054.59.142.868.262.277.121.534.274.769.461.235.188.431.407.587.66h.036v-4.772h2.061v12.908zm-7.196-4.575c0 .397.051.79.154 1.176.102.386.259.729.47 1.03.211.301.479.542.805.723.326.181.711.271 1.157.271.458 0 .853-.097 1.184-.289s.603-.446.813-.76.368-.666.47-1.058a4.75 4.75 0 00.154-1.202c0-1.036-.232-1.844-.696-2.423-.464-.578-1.094-.867-1.889-.867-.482 0-.889.099-1.221.298s-.603.458-.813.777-.361.682-.452 1.085c-.09.405-.136.817-.136 1.239z"/></g><g><path class="st35" d="M669.064 473.5h4.436v10.999h-4.436z"/></g><path class="st12" d="M330 256v-3h6v3h1v-37h-1v3h-6v-3h-1v37h1zm0-33h6v4h-6v-4zm0 5h6v4h-6v-4zm0 5h6v4h-6v-4zm0 5h6v4h-6v-4zm0 5h6v4h-6v-4zm0 5h6v4h-6v-4zM379 256v-3h6v3h1v-37h-1v3h-6v-3h-1v37h1zm0-33h6v4h-6v-4zm0 5h6v4h-6v-4zm0 5h6v4h-6v-4zm0 5h6v4h-6v-4zm0 5h6v4h-6v-4zm0 5h6v4h-6v-4zM433 256v-3h6v3h1v-37h-1v3h-6v-3h-1v37h1zm0-33h6v4h-6v-4zm0 5h6v4h-6v-4zm0 5h6v4h-6v-4zm0 5h6v4h-6v-4zm0 5h6v4h-6v-4zm0 5h6v4h-6v-4z"/></svg>