<?xml version="1.0" encoding="UTF-8"?>
<!-- Optimization tier progression: six stages from a baseline model to an MLPerf-ready deployment. Minimalist convention: numbers tell the quantitative story; single orange accent on the MLPerf terminal box marks the deployable artifact. -->
<svg xmlns="http://www.w3.org/2000/svg" viewBox="0 0 680 220"
     font-family="Helvetica Neue, Helvetica, Arial, sans-serif">
  <defs>
    <marker id="arrow" markerWidth="8" markerHeight="6" refX="7" refY="3" orient="auto">
      <path d="M0,0 L8,3 L0,6 Z" fill="#bbb"/>
    </marker>
  </defs>

  <!-- ===== Panel header ===== -->
  <text x="20" y="22" font-size="12" font-weight="700" fill="#333">Optimization Progression</text>
  <text x="20" y="38" font-size="9" font-style="italic" fill="#999">baseline → size cuts → speed gains → MLPerf deployment (modules 14-19)</text>

  <!-- ===== Six-stage progression (w=100, pitch=110, y=50, h=110) ===== -->
  <!-- 1. Baseline -->
  <rect x="15" y="50" width="100" height="110" rx="4" fill="#f7f7f7" stroke="#bbb" stroke-width="1.2"/>
  <text x="65" y="72" text-anchor="middle" font-size="10" font-weight="700" fill="#333">Baseline</text>
  <line x1="30" y1="82" x2="100" y2="82" stroke="#bbb" stroke-width="0.8"/>
  <text x="65" y="100" text-anchor="middle" font-size="9" fill="#555">100 MB</text>
  <text x="65" y="114" text-anchor="middle" font-size="9" fill="#555">0.5 tok/s</text>
  <text x="65" y="128" text-anchor="middle" font-size="9" fill="#555">95% acc</text>
  <text x="65" y="150" text-anchor="middle" font-size="8.5" font-style="italic" fill="#999">reference</text>

  <!-- 2. Quantization -->
  <rect x="125" y="50" width="100" height="110" rx="4" fill="#f7f7f7" stroke="#bbb" stroke-width="1.2"/>
  <text x="175" y="72" text-anchor="middle" font-size="10" font-weight="700" fill="#333">Quantization</text>
  <line x1="140" y1="82" x2="210" y2="82" stroke="#bbb" stroke-width="0.8"/>
  <text x="175" y="100" text-anchor="middle" font-size="9" fill="#555">25 MB</text>
  <text x="175" y="115" text-anchor="middle" font-size="10" font-weight="700" fill="#333">4× smaller</text>
  <text x="175" y="130" text-anchor="middle" font-size="9" fill="#555">same acc</text>
  <text x="175" y="150" text-anchor="middle" font-size="8.5" font-style="italic" fill="#999">INT8 weights</text>

  <!-- 3. Pruning -->
  <rect x="235" y="50" width="100" height="110" rx="4" fill="#f7f7f7" stroke="#bbb" stroke-width="1.2"/>
  <text x="285" y="72" text-anchor="middle" font-size="10" font-weight="700" fill="#333">Pruning</text>
  <line x1="250" y1="82" x2="320" y2="82" stroke="#bbb" stroke-width="0.8"/>
  <text x="285" y="100" text-anchor="middle" font-size="9" fill="#555">12 MB</text>
  <text x="285" y="115" text-anchor="middle" font-size="10" font-weight="700" fill="#333">8× smaller</text>
  <text x="285" y="130" text-anchor="middle" font-size="9" fill="#555">94% acc</text>
  <text x="285" y="150" text-anchor="middle" font-size="8.5" font-style="italic" fill="#999">sparse weights</text>

  <!-- 4. KV-Cache -->
  <rect x="345" y="50" width="100" height="110" rx="4" fill="#f7f7f7" stroke="#bbb" stroke-width="1.2"/>
  <text x="395" y="72" text-anchor="middle" font-size="10" font-weight="700" fill="#333">KV-Cache</text>
  <line x1="360" y1="82" x2="430" y2="82" stroke="#bbb" stroke-width="0.8"/>
  <text x="395" y="100" text-anchor="middle" font-size="9" fill="#555">50 tok/s</text>
  <text x="395" y="115" text-anchor="middle" font-size="10" font-weight="700" fill="#333">100× faster</text>
  <text x="395" y="130" text-anchor="middle" font-size="9" fill="#555">generation</text>
  <text x="395" y="150" text-anchor="middle" font-size="8.5" font-style="italic" fill="#999">reuse attn state</text>

  <!-- 5. Batching -->
  <rect x="455" y="50" width="100" height="110" rx="4" fill="#f7f7f7" stroke="#bbb" stroke-width="1.2"/>
  <text x="505" y="72" text-anchor="middle" font-size="10" font-weight="700" fill="#333">Batching</text>
  <line x1="470" y1="82" x2="540" y2="82" stroke="#bbb" stroke-width="0.8"/>
  <text x="505" y="100" text-anchor="middle" font-size="9" fill="#555">500 tok/s</text>
  <text x="505" y="115" text-anchor="middle" font-size="10" font-weight="700" fill="#333">1000× xput</text>
  <text x="505" y="130" text-anchor="middle" font-size="9" fill="#555">amortized</text>
  <text x="505" y="150" text-anchor="middle" font-size="8.5" font-style="italic" fill="#999">group requests</text>

  <!-- 6. MLPerf (accent: deployable artifact) -->
  <rect x="565" y="50" width="100" height="110" rx="4" fill="#fdebd0" stroke="#c87b2a" stroke-width="1.2"/>
  <rect x="583" y="62" width="64" height="20" rx="10" fill="#a31f34"/>
  <text x="615" y="76" text-anchor="middle" font-size="10" font-weight="700" fill="#fff">MLPERF</text>
  <line x1="580" y1="94" x2="650" y2="94" stroke="#c87b2a" stroke-width="0.8"/>
  <text x="615" y="114" text-anchor="middle" font-size="9" fill="#555">production</text>
  <text x="615" y="128" text-anchor="middle" font-size="9" fill="#555">deployment</text>
  <text x="615" y="150" text-anchor="middle" font-size="8.5" font-style="italic" fill="#555">benchmark submit</text>

  <!-- ===== Arrows between stages ===== -->
  <path d="M115,105 L125,105" stroke="#bbb" stroke-width="1.2" fill="none" marker-end="url(#arrow)"/>
  <path d="M225,105 L235,105" stroke="#bbb" stroke-width="1.2" fill="none" marker-end="url(#arrow)"/>
  <path d="M335,105 L345,105" stroke="#bbb" stroke-width="1.2" fill="none" marker-end="url(#arrow)"/>
  <path d="M445,105 L455,105" stroke="#bbb" stroke-width="1.2" fill="none" marker-end="url(#arrow)"/>
  <path d="M555,105 L565,105" stroke="#bbb" stroke-width="1.2" fill="none" marker-end="url(#arrow)"/>

  <!-- ===== Footnote ===== -->
  <text x="340" y="200" text-anchor="middle" font-size="9" font-style="italic" fill="#999">Quantization and pruning shrink the model 8×; KV-cache and batching lift throughput 1000×.</text>
</svg>
