<?xml version="1.0" encoding="UTF-8"?>
<!DOCTYPE svg PUBLIC "-//W3C//DTD SVG 1.1//EN" "http://www.w3.org/Graphics/SVG/1.1/DTD/svg11.dtd">
<svg version="1.1" xmlns="http://www.w3.org/2000/svg" xmlns:xlink="http://www.w3.org/1999/xlink" x="0" y="0" width="680" height="580" viewBox="0, 0, 680, 580"
     font-family="Helvetica Neue, Helvetica, Arial, sans-serif">
  <g id="Layer_1">
    <path d="M4,0 L676,0 C678.209,0 680,1.791 680,4 L680,576 C680,578.209 678.209,580 676,580 L4,580 C1.791,580 0,578.209 0,576 L0,4 C0,1.791 1.791,0 4,0 z" fill="#FFFFFF"/>

    <!-- ===== (a) Demand-Supply Separation ===== -->
    <text x="30" y="16" font-size="10" fill="#333333">(a) Demand-Supply Separation</text>

    <!-- Demand box -->
    <g>
      <path d="M34,24 L321,24 C323.209,24 325,25.791 325,28 L325,70 C325,72.209 323.209,74 321,74 L34,74 C31.791,74 30,72.209 30,70 L30,28 C30,25.791 31.791,24 34,24 z" fill="#F0F4FA"/>
      <path d="M34,24 L321,24 C323.209,24 325,25.791 325,28 L325,70 C325,72.209 323.209,74 321,74 L34,74 C31.791,74 30,72.209 30,70 L30,28 C30,25.791 31.791,24 34,24 z" fill-opacity="0" stroke="#6B7B95" stroke-width="1.5"/>
    </g>
    <text x="177" y="42" text-anchor="middle" font-size="10" fill="#333333">Demand (Workload)</text>
    <text x="177" y="57" text-anchor="middle" font-size="8" fill="#555555">W = (P, D, S, L, H, A, B): parameters, tokens, layers, heads, batch</text>

    <!-- Supply box -->
    <g>
      <path d="M359,24 L646,24 C648.209,24 650,25.791 650,28 L650,70 C650,72.209 648.209,74 646,74 L359,74 C356.791,74 355,72.209 355,70 L355,28 C355,25.791 356.791,24 359,24 z" fill="#E8EDF4"/>
      <path d="M359,24 L646,24 C648.209,24 650,25.791 650,28 L650,70 C650,72.209 648.209,74 646,74 L359,74 C356.791,74 355,72.209 355,70 L355,28 C355,25.791 356.791,24 359,24 z" fill-opacity="0" stroke="#5A7394" stroke-width="1.5"/>
    </g>
    <text x="502" y="42" text-anchor="middle" font-size="10" fill="#333333">Supply (Hardware)</text>
    <text x="502" y="57" text-anchor="middle" font-size="8" fill="#555555">H = (F, BW, C, TDP): FLOP/s, bandwidth, capacity, power</text>

    <!-- Infrastructure box -->
    <g>
      <path d="M144,82 L536,82 C538.209,82 540,83.791 540,86 L540,108 C540,110.209 538.209,112 536,112 L144,112 C141.791,112 140,110.209 140,108 L140,86 C140,83.791 141.791,82 144,82 z" fill="#F2F2F2"/>
      <path d="M144,82 L536,82 C538.209,82 540,83.791 540,86 L540,108 C540,110.209 538.209,112 536,112 L144,112 C141.791,112 140,110.209 140,108 L140,86 C140,83.791 141.791,82 144,82 z" fill-opacity="0" stroke="#999999" stroke-width="1.2"/>
    </g>
    <text x="340" y="100" text-anchor="middle" font-size="8.5" fill="#333333"> Infrastructure (N, PUE, CI, $/kWh) + Systems (topology, parallelism)</text>

    <!-- Arrows from Demand/Supply to Infrastructure -->
    <g>
      <path d="M177,74 L177,82" fill-opacity="0" stroke="#555555" stroke-width="1"/>
      <path d="M179.5,78.5 L177,85.5 L174.5,78.5 z" fill="#555555"/>
    </g>
    <g>
      <path d="M502,74 L502,82" fill-opacity="0" stroke="#555555" stroke-width="1"/>
      <path d="M504.5,78.5 L502,85.5 L499.5,78.5 z" fill="#555555"/>
    </g>

    <!-- Arrow from Infrastructure to Walls -->
    <g>
      <path d="M340,112 L340,128" fill-opacity="0" stroke="#555555" stroke-width="1.2"/>
      <path d="M342.5,124.5 L340,131.5 L337.5,124.5 z" fill="#555555"/>
    </g>

    <!-- ===== (b) 22 Systems Walls ===== -->
    <text x="30" y="126" font-size="10" fill="#333333">(b) 22 Systems Walls</text>
    <text x="340" y="126" text-anchor="middle" font-style="italic" font-size="8" fill="#999999">6 domains, each wall = physical/logical constraint with a grounded equation</text>

    <!-- Walls container -->
    <g>
      <path d="M25,131.5 L655,131.5 C657.761,131.5 660,133.739 660,136.5 L660,366.5 C660,369.261 657.761,371.5 655,371.5 L25,371.5 C22.239,371.5 20,369.261 20,366.5 L20,136.5 C20,133.739 22.239,131.5 25,131.5 z" fill="#F7F7F7"/>
      <path d="M25,131.5 L655,131.5 C657.761,131.5 660,133.739 660,136.5 L660,366.5 C660,369.261 657.761,371.5 655,371.5 L25,371.5 C22.239,371.5 20,369.261 20,366.5 L20,136.5 C20,133.739 22.239,131.5 25,131.5 z" fill-opacity="0" stroke="#BBBBBB" stroke-width="1"/>
    </g>

    <!-- ── Node domain ── -->
    <g>
      <path d="M36,146 L326,146 C328.209,146 330,147.791 330,150 L330,214 C330,216.209 328.209,218 326,218 L36,218 C33.791,218 32,216.209 32,214 L32,150 C32,147.791 33.791,146 36,146 z" fill="#F0F4FA"/>
      <path d="M36,146 L326,146 C328.209,146 330,147.791 330,150 L330,214 C330,216.209 328.209,218 326,218 L36,218 C33.791,218 32,216.209 32,214 L32,150 C32,147.791 33.791,146 36,146 z" fill-opacity="0" stroke="#6B7B95" stroke-width="1.2"/>
    </g>
    <text x="42" y="161" font-size="9" fill="#333333">Node</text>
    <text x="325" y="161" text-anchor="end" font-style="italic" font-size="7" fill="#6B7B95">single-accelerator ceilings</text>
    <text x="42" y="176" font-size="7.5" fill="#555555">W1 Compute W2 Memory W3 Software W4 Serving</text>
    <text x="42" y="188" font-size="7.5" fill="#555555">W5 Batching W6 Streaming W7 Tail Latency</text>
    <path d="M287,195 L317,195 C320.866,195 324,198.134 324,202 L324,202 C324,205.866 320.866,209 317,209 L287,209 C283.134,209 280,205.866 280,202 L280,202 C280,198.134 283.134,195 287,195 z" fill="#6B7B95"/>
    <text x="302" y="204" text-anchor="middle" font-size="6.5" fill="#FFFFFF">7 walls</text>

    <!-- ── Data domain ── -->
    <g>
      <path d="M354,146 L644,146 C646.209,146 648,147.791 648,150 L648,186 C648,188.209 646.209,190 644,190 L354,190 C351.791,190 350,188.209 350,186 L350,150 C350,147.791 351.791,146 354,146 z" fill="#E8EDF4"/>
      <path d="M354,146 L644,146 C646.209,146 648,147.791 648,150 L648,186 C648,188.209 646.209,190 644,190 L354,190 C351.791,190 350,188.209 350,186 L350,150 C350,147.791 351.791,146 354,146 z" fill-opacity="0" stroke="#5A7394" stroke-width="1.2"/>
    </g>
    <text x="360" y="161" font-size="9" fill="#333333">Data</text>
    <text x="643" y="161" text-anchor="end" font-style="italic" font-size="7" fill="#5A7394">movement and pipelines</text>
    <text x="360" y="176" font-size="7.5" fill="#555555">W8 Ingestion W9 Transformation W10 Locality</text>
    <path d="M605,171 L635,171 C638.866,171 642,174.134 642,178 L642,178 C642,181.866 638.866,185 635,185 L605,185 C601.134,185 598,181.866 598,178 L598,178 C598,174.134 601.134,171 605,171 z" fill="#5A7394"/>
    <text x="620" y="180" text-anchor="middle" font-size="6.5" fill="#FFFFFF">3 walls</text>

    <!-- ── Algorithm domain ── -->
    <g>
      <path d="M354,198 L644,198 C646.209,198 648,199.791 648,202 L648,238 C648,240.209 646.209,242 644,242 L354,242 C351.791,242 350,240.209 350,238 L350,202 C350,199.791 351.791,198 354,198 z" fill="#F2F2F2"/>
      <path d="M354,198 L644,198 C646.209,198 648,199.791 648,202 L648,238 C648,240.209 646.209,242 644,242 L354,242 C351.791,242 350,240.209 350,238 L350,202 C350,199.791 351.791,198 354,198 z" fill-opacity="0" stroke="#999999" stroke-width="1.2"/>
    </g>
    <text x="360" y="213" font-size="9" fill="#333333">Algorithm</text>
    <text x="643" y="213" text-anchor="end" font-style="italic" font-size="7" fill="#888888">scaling and compression</text>
    <text x="360" y="228" font-size="7.5" fill="#555555">W11 Complexity W12 Reasoning W13 Fidelity</text>
    <path d="M605,223 L635,223 C638.866,223 642,226.134 642,230 L642,230 C642,233.866 638.866,237 635,237 L605,237 C601.134,237 598,233.866 598,230 L598,230 C598,226.134 601.134,223 605,223 z" fill="#888888"/>
    <text x="620" y="232" text-anchor="middle" font-size="6.5" fill="#FFFFFF">3 walls</text>

    <!-- ── Fleet domain ── -->
    <g>
      <path d="M36,226 L326,226 C328.209,226 330,227.791 330,230 L330,266 C330,268.209 328.209,270 326,270 L36,270 C33.791,270 32,268.209 32,266 L32,230 C32,227.791 33.791,226 36,226 z" fill="#F2F2F2"/>
      <path d="M36,226 L326,226 C328.209,226 330,227.791 330,230 L330,266 C330,268.209 328.209,270 326,270 L36,270 C33.791,270 32,268.209 32,266 L32,230 C32,227.791 33.791,226 36,226 z" fill-opacity="0" stroke="#888888" stroke-width="1.2"/>
    </g>
    <text x="42" y="241" font-size="9" fill="#333333">Fleet</text>
    <text x="325" y="241" text-anchor="end" font-style="italic" font-size="7" fill="#888888">multi-node coordination</text>
    <text x="42" y="256" font-size="7.5" fill="#555555">W14 Communication W15 Fragility W16 Multi-tenant</text>
    <path d="M287,251 L317,251 C320.866,251 324,254.134 324,258 L324,258 C324,261.866 320.866,265 317,265 L287,265 C283.134,265 280,261.866 280,258 L280,258 C280,254.134 283.134,251 287,251 z" fill="#888888"/>
    <text x="302" y="260" text-anchor="middle" font-size="6.5" fill="#FFFFFF">3 walls</text>

    <!-- ── Ops domain ── -->
    <g>
      <path d="M36,278 L326,278 C328.209,278 330,280.761 330,284.168 L330,339.678 C330,343.084 328.209,345.846 326,345.846 L36,345.846 C33.791,345.846 32,343.084 32,339.678 L32,284.168 C32,280.761 33.791,278 36,278 z" fill="#EEF3EE"/>
      <path d="M36,278 L326,278 C328.209,278 330,280.761 330,284.168 L330,339.678 C330,343.084 328.209,345.846 326,345.846 L36,345.846 C33.791,345.846 32,343.084 32,339.678 L32,284.168 C32,280.761 33.791,278 36,278 z" fill-opacity="0" stroke="#7A9E7A" stroke-width="1.2"/>
    </g>
    <text x="42" y="293" font-size="9" fill="#333333">Ops</text>
    <text x="325" y="293" text-anchor="end" font-style="italic" font-size="7" fill="#7A9E7A">economics, sustainability, safety</text>
    <text x="42" y="308" font-size="7.5" fill="#555555">W17 Capital W18 Sustainability</text>
    <text x="42" y="319" font-size="7.5" fill="#555555">W19 Checkpoint W20 Safety</text>
    <path d="M287,324 L317,324 C320.866,324 324,327.134 324,331 L324,331 C324,334.866 320.866,338 317,338 L287,338 C283.134,338 280,334.866 280,331 L280,331 C280,327.134 283.134,324 287,324 z" fill="#7A9E7A"/>
    <text x="302" y="333" text-anchor="middle" font-size="6.5" fill="#FFFFFF">4 walls</text>

    <!-- ── Analysis domain ── -->
    <g>
      <path d="M354,250 L644,250 C646.209,250 648,251.791 648,254 L648,318 C648,320.209 646.209,322 644,322 L354,322 C351.791,322 350,320.209 350,318 L350,254 C350,251.791 351.791,250 354,250 z" fill="#FFFFFF"/>
      <path d="M354,250 L644,250 C646.209,250 648,251.791 648,254 L648,318 C648,320.209 646.209,322 644,322 L354,322 C351.791,322 350,320.209 350,318 L350,254 C350,251.791 351.791,250 354,250 z" fill-opacity="0" stroke="#A31F34" stroke-width="1.5"/>
    </g>
    <text x="360" y="265" font-size="9" fill="#A31F34">Analysis</text>
    <text x="643" y="265" text-anchor="end" font-style="italic" font-size="7" fill="#A31F34">cross-cutting diagnostics</text>
    <text x="360" y="282" font-size="7.5" fill="#555555">W21 Sensitivity: partial derivatives to find binding constraint</text>
    <text x="360" y="294" font-size="7.5" fill="#555555">W22 Synthesis: inverse solve for hardware requirements</text>
    <path d="M605,301 L635,301 C638.866,301 642,304.134 642,308 L642,308 C642,311.866 638.866,315 635,315 L605,315 C601.134,315 598,311.866 598,308 L598,308 C598,304.134 601.134,301 605,301 z" fill="#A31F34"/>
    <text x="620" y="310" text-anchor="middle" font-size="6.5" fill="#FFFFFF">2 walls</text>

    <!-- Dimensional enforcement footnote -->
    <text x="37" y="360" font-style="italic" font-size="7" fill="#999999">Dimensional enforcement: every quantity carries SI units at runtime via pint</text>

    <!-- ===== (c) Stateless Resolver Composition ===== -->
    <text x="30" y="388" font-size="10" fill="#333333">(c) Stateless Resolver Composition</text>
    <text x="340" y="388" text-anchor="middle" font-style="italic" font-size="8" fill="#999999">each resolver: pure f(config) to metrics, full evaluation &lt;0.3s</text>

    <!-- Resolver pipeline container -->
    <g>
      <path d="M25,394 L655,394 C657.761,394 660,396.239 660,399 L660,457 C660,459.761 657.761,462 655,462 L25,462 C22.239,462 20,459.761 20,457 L20,399 C20,396.239 22.239,394 25,394 z" fill="#F7F7F7"/>
      <path d="M25,394 L655,394 C657.761,394 660,396.239 660,399 L660,457 C660,459.761 657.761,462 655,462 L25,462 C22.239,462 20,459.761 20,457 L20,399 C20,396.239 22.239,394 25,394 z" fill-opacity="0" stroke="#BBBBBB" stroke-width="1"/>
    </g>

    <!-- SingleNode resolver -->
    <g>
      <path d="M37,406 L103,406 C104.657,406 106,407.343 106,409 L106,431 C106,432.657 104.657,434 103,434 L37,434 C35.343,434 34,432.657 34,431 L34,409 C34,407.343 35.343,406 37,406 z" fill="#F0F4FA"/>
      <path d="M37,406 L103,406 C104.657,406 106,407.343 106,409 L106,431 C106,432.657 104.657,434 103,434 L37,434 C35.343,434 34,432.657 34,431 L34,409 C34,407.343 35.343,406 37,406 z" fill-opacity="0" stroke="#6B7B95" stroke-width="1"/>
    </g>
    <text x="70" y="424" text-anchor="middle" font-size="7.5" fill="#333333">SingleNode</text>

    <!-- Arrow -->
    <g>
      <path d="M106,420 L118,420" fill-opacity="0" stroke="#555555" stroke-width="1"/>
      <path d="M114.5,417.5 L121.5,420 L114.5,422.5 z" fill="#555555"/>
    </g>

    <!-- Data resolver -->
    <g>
      <path d="M124,406 L176,406 C177.657,406 179,407.343 179,409 L179,431 C179,432.657 177.657,434 176,434 L124,434 C122.343,434 121,432.657 121,431 L121,409 C121,407.343 122.343,406 124,406 z" fill="#E8EDF4"/>
      <path d="M124,406 L176,406 C177.657,406 179,407.343 179,409 L179,431 C179,432.657 177.657,434 176,434 L124,434 C122.343,434 121,432.657 121,431 L121,409 C121,407.343 122.343,406 124,406 z" fill-opacity="0" stroke="#5A7394" stroke-width="1"/>
    </g>
    <text x="150" y="424" text-anchor="middle" font-size="7.5" fill="#333333">Data</text>

    <!-- Arrow -->
    <g>
      <path d="M179,420 L191,420" fill-opacity="0" stroke="#555555" stroke-width="1"/>
      <path d="M187.5,417.5 L194.5,420 L187.5,422.5 z" fill="#555555"/>
    </g>

    <!-- Scaling resolver -->
    <g>
      <path d="M197,406 L253,406 C254.657,406 256,407.343 256,409 L256,431 C256,432.657 254.657,434 253,434 L197,434 C195.343,434 194,432.657 194,431 L194,409 C194,407.343 195.343,406 197,406 z" fill="#F2F2F2"/>
      <path d="M197,406 L253,406 C254.657,406 256,407.343 256,409 L256,431 C256,432.657 254.657,434 253,434 L197,434 C195.343,434 194,432.657 194,431 L194,409 C194,407.343 195.343,406 197,406 z" fill-opacity="0" stroke="#999999" stroke-width="1"/>
    </g>
    <text x="225" y="424" text-anchor="middle" font-size="7.5" fill="#333333">Scaling</text>

    <!-- Arrow -->
    <g>
      <path d="M256,420 L268,420" fill-opacity="0" stroke="#555555" stroke-width="1"/>
      <path d="M264.5,417.5 L271.5,420 L264.5,422.5 z" fill="#555555"/>
    </g>

    <!-- Distributed resolver -->
    <g>
      <path d="M274,406 L340,406 C341.657,406 343,407.343 343,409 L343,431 C343,432.657 341.657,434 340,434 L274,434 C272.343,434 271,432.657 271,431 L271,409 C271,407.343 272.343,406 274,406 z" fill="#F2F2F2"/>
      <path d="M274,406 L340,406 C341.657,406 343,407.343 343,409 L343,431 C343,432.657 341.657,434 340,434 L274,434 C272.343,434 271,432.657 271,431 L271,409 C271,407.343 272.343,406 274,406 z" fill-opacity="0" stroke="#888888" stroke-width="1"/>
    </g>
    <text x="307" y="424" text-anchor="middle" font-size="7.5" fill="#333333">Distributed</text>

    <!-- Arrow -->
    <g>
      <path d="M343,420 L355,420" fill-opacity="0" stroke="#555555" stroke-width="1"/>
      <path d="M351.5,417.5 L358.5,420 L351.5,422.5 z" fill="#555555"/>
    </g>

    <!-- Economics resolver -->
    <g>
      <path d="M361,406 L427,406 C428.657,406 430,407.343 430,409 L430,431 C430,432.657 428.657,434 427,434 L361,434 C359.343,434 358,432.657 358,431 L358,409 C358,407.343 359.343,406 361,406 z" fill="#EEF3EE"/>
      <path d="M361,406 L427,406 C428.657,406 430,407.343 430,409 L430,431 C430,432.657 428.657,434 427,434 L361,434 C359.343,434 358,432.657 358,431 L358,409 C358,407.343 359.343,406 361,406 z" fill-opacity="0" stroke="#7A9E7A" stroke-width="1"/>
    </g>
    <text x="394" y="424" text-anchor="middle" font-size="7.5" fill="#333333">Economics</text>

    <!-- Arrow -->
    <g>
      <path d="M430,420 L442,420" fill-opacity="0" stroke="#555555" stroke-width="1"/>
      <path d="M438.5,417.5 L445.5,420 L438.5,422.5 z" fill="#555555"/>
    </g>

    <!-- Sustain. resolver -->
    <g>
      <path d="M448,406 L514,406 C515.657,406 517,407.343 517,409 L517,431 C517,432.657 515.657,434 514,434 L448,434 C446.343,434 445,432.657 445,431 L445,409 C445,407.343 446.343,406 448,406 z" fill="#E8E8E8"/>
      <path d="M448,406 L514,406 C515.657,406 517,407.343 517,409 L517,431 C517,432.657 515.657,434 514,434 L448,434 C446.343,434 445,432.657 445,431 L445,409 C445,407.343 446.343,406 448,406 z" fill-opacity="0" stroke="#BBBBBB" stroke-width="1"/>
    </g>
    <text x="481" y="424" text-anchor="middle" font-size="7.5" fill="#333333">Sustain.</text>

    <!-- Arrow (red, to Binding Wall) -->
    <g>
      <path d="M517,420 L529,420" fill-opacity="0" stroke="#A31F34" stroke-width="1.5"/>
      <path d="M525.5,417.5 L532.5,420 L525.5,422.5 z" fill="#A31F34"/>
    </g>

    <!-- Binding Wall box -->
    <g>
      <path d="M536,402 L646,402 C648.209,402 650,403.791 650,406 L650,434 C650,436.209 648.209,438 646,438 L536,438 C533.791,438 532,436.209 532,434 L532,406 C532,403.791 533.791,402 536,402 z" fill="#FFFFFF"/>
      <path d="M536,402 L646,402 C648.209,402 650,403.791 650,406 L650,434 C650,436.209 648.209,438 646,438 L536,438 C533.791,438 532,436.209 532,434 L532,406 C532,403.791 533.791,402 536,402 z" fill-opacity="0" stroke="#A31F34" stroke-width="1.8"/>
    </g>
    <text x="591" y="418" text-anchor="middle" font-size="8.5" fill="#A31F34">Binding Wall</text>
    <text x="591" y="430" text-anchor="middle" font-size="7" fill="#555555">scorecard + synthesis</text>

    <!-- Three-level evaluation -->
    <text x="34" y="452" font-size="7.5" fill="#555555">Three-level evaluation:</text>

    <!-- Feasibility pill -->
    <g>
      <path d="M153,442 L199,442 C203.418,442 207,445.582 207,450 L207,450 C207,454.418 203.418,458 199,458 L153,458 C148.582,458 145,454.418 145,450 L145,450 C145,445.582 148.582,442 153,442 z" fill="#EEF3EE"/>
      <path d="M153,442 L199,442 C203.418,442 207,445.582 207,450 L207,450 C207,454.418 203.418,458 199,458 L153,458 C148.582,458 145,454.418 145,450 L145,450 C145,445.582 148.582,442 153,442 z" fill-opacity="0" stroke="#7A9E7A" stroke-width="0.8"/>
    </g>
    <text x="176" y="453" text-anchor="middle" font-size="7" fill="#333333">Feasibility</text>
    <text x="214" y="453" text-anchor="middle" font-size="7" fill="#555555">then</text>

    <!-- Profile pill -->
    <g>
      <path d="M240,442 L274,442 C278.418,442 282,445.582 282,450 L282,450 C282,454.418 278.418,458 274,458 L240,458 C235.582,458 232,454.418 232,450 L232,450 C232,445.582 235.582,442 240,442 z" fill="#F2F2F2"/>
      <path d="M240,442 L274,442 C278.418,442 282,445.582 282,450 L282,450 C282,454.418 278.418,458 274,458 L240,458 C235.582,458 232,454.418 232,450 L232,450 C232,445.582 235.582,442 240,442 z" fill-opacity="0" stroke="#999999" stroke-width="0.8"/>
    </g>
    <text x="257" y="453" text-anchor="middle" font-size="7" fill="#333333">Profile</text>
    <text x="289" y="453" text-anchor="middle" font-size="7" fill="#555555">then</text>

    <!-- Fleet pill -->
    <g>
      <path d="M315,442 L349,442 C353.418,442 357,445.582 357,450 L357,450 C357,454.418 353.418,458 349,458 L315,458 C310.582,458 307,454.418 307,450 L307,450 C307,445.582 310.582,442 315,442 z" fill="#F2F2F2"/>
      <path d="M315,442 L349,442 C353.418,442 357,445.582 357,450 L357,450 C357,454.418 353.418,458 349,458 L315,458 C310.582,458 307,454.418 307,450 L307,450 C307,445.582 310.582,442 315,442 z" fill-opacity="0" stroke="#888888" stroke-width="0.8"/>
    </g>
    <text x="332" y="453" text-anchor="middle" font-size="7" fill="#333333">Fleet</text>

    <!-- ===== (d) Example: LLaMA-3 70B on 1024x H100 ===== -->
    <text x="30" y="482" font-size="10" fill="#333333">(d) Example: LLaMA-3 70B on 1024x H100</text>

    <!-- Binding: Wall 2 box -->
    <g>
      <path d="M24,488 L216,488 C218.209,488 220,489.791 220,492 L220,528 C220,530.209 218.209,532 216,532 L24,532 C21.791,532 20,530.209 20,528 L20,492 C20,489.791 21.791,488 24,488 z" fill="#FFFFFF"/>
      <path d="M24,488 L216,488 C218.209,488 220,489.791 220,492 L220,528 C220,530.209 218.209,532 216,532 L24,532 C21.791,532 20,530.209 20,528 L20,492 C20,489.791 21.791,488 24,488 z" fill-opacity="0" stroke="#A31F34" stroke-width="1.5"/>
    </g>
    <text x="120" y="504" text-anchor="middle" font-size="8.5" fill="#A31F34">Binding: Wall 2</text>
    <text x="120" y="518" text-anchor="middle" font-size="7.5" fill="#555555">HBM BW = 3.35 TB/s ceiling</text>

    <!-- Sensitivity box -->
    <g>
      <path d="M244,488 L436,488 C438.209,488 440,489.791 440,492 L440,528 C440,530.209 438.209,532 436,532 L244,532 C241.791,532 240,530.209 240,528 L240,492 C240,489.791 241.791,488 244,488 z" fill="#F0F4FA"/>
      <path d="M244,488 L436,488 C438.209,488 440,489.791 440,492 L440,528 C440,530.209 438.209,532 436,532 L244,532 C241.791,532 240,530.209 240,528 L240,492 C240,489.791 241.791,488 244,488 z" fill-opacity="0" stroke="#6B7B95" stroke-width="1.2"/>
    </g>
    <text x="340" y="504" text-anchor="middle" font-size="8.5" fill="#333333">Sensitivity</text>
    <text x="340" y="518" text-anchor="middle" font-size="7.5" fill="#555555">dT/dBW = -0.42 dT/dFLOPS = -0.11</text>

    <!-- Synthesis box -->
    <g>
      <path d="M464,488 L656,488 C658.209,488 660,489.791 660,492 L660,528 C660,530.209 658.209,532 656,532 L464,532 C461.791,532 460,530.209 460,528 L460,492 C460,489.791 461.791,488 464,488 z" fill="#EEF3EE"/>
      <path d="M464,488 L656,488 C658.209,488 660,489.791 660,492 L660,528 C660,530.209 658.209,532 656,532 L464,532 C461.791,532 460,530.209 460,528 L460,492 C460,489.791 461.791,488 464,488 z" fill-opacity="0" stroke="#7A9E7A" stroke-width="1.2"/>
    </g>
    <text x="560" y="504" text-anchor="middle" font-size="8.5" fill="#333333">Synthesis</text>
    <text x="560" y="518" text-anchor="middle" font-size="7.5" fill="#555555">50ms TTFT SLA: need 4.8 TB/s BW</text>

    <!-- Sustainability result box -->
    <g>
      <path d="M24,540 L326,540 C328.209,540 330,541.791 330,544 L330,562 C330,564.209 328.209,566 326,566 L24,566 C21.791,566 20,564.209 20,562 L20,544 C20,541.791 21.791,540 24,540 z" fill="#EEF3EE"/>
      <path d="M24,540 L326,540 C328.209,540 330,541.791 330,544 L330,562 C330,564.209 328.209,566 326,566 L24,566 C21.791,566 20,564.209 20,562 L20,544 C20,541.791 21.791,540 24,540 z" fill-opacity="0" stroke="#7A9E7A" stroke-width="1.2"/>
    </g>
    <text x="175" y="557" text-anchor="middle" font-size="7.5" fill="#333333">Sustainability: 128 tCO2 + 2.1M L water + $4.2M TCO (3y)</text>

    <!-- Reliability result box -->
    <g>
      <path d="M354,540 L656,540 C658.209,540 660,541.791 660,544 L660,562 C660,564.209 658.209,566 656,566 L354,566 C351.791,566 350,564.209 350,562 L350,544 C350,541.791 351.791,540 354,540 z" fill="#E8E8E8"/>
      <path d="M354,540 L656,540 C658.209,540 660,541.791 660,544 L660,562 C660,564.209 658.209,566 656,566 L354,566 C351.791,566 350,564.209 350,562 L350,544 C350,541.791 351.791,540 354,540 z" fill-opacity="0" stroke="#BBBBBB" stroke-width="1.2"/>
    </g>
    <text x="505" y="557" text-anchor="middle" font-size="7.5" fill="#333333">Reliability: MTBF = 1.7h @ 1024 nodes, ckpt = 12 min</text>

    <!-- Bottom footnote -->
    <text x="340" y="578" text-anchor="middle" font-style="italic" font-size="8.5" fill="#999999">All outputs produced in &lt;0.3s on a laptop. No GPU required.</text>
  </g>
</svg>
