<?xml version="1.0" encoding="UTF-8" standalone="no"?>
<!-- Created with Inkscape (http://www.inkscape.org/) -->

<svg
   version="1.1"
   id="svg1"
   width="337.98666"
   height="198.78"
   viewBox="0 0 337.98666 198.78"
   xmlns="http://www.w3.org/2000/svg"
   xmlns:svg="http://www.w3.org/2000/svg">
  <defs
     id="defs1" />
  <g
     id="g1">
    <path
       id="path1"
       d="M 12.66847,0 C 12.66847,6.99669 6.99669,12.66847 0,12.66847 -6.99669,12.66847 -12.66847,6.99669 -12.66847,0 c 0,-6.99669 5.67178,-12.66847 12.66847,-12.66847 6.99669,0 12.66847,5.67178 12.66847,12.66847 z"
       style="fill:#dbfda6;fill-opacity:1;fill-rule:nonzero;stroke:#495938;stroke-width:0.74721;stroke-linecap:butt;stroke-linejoin:miter;stroke-miterlimit:10;stroke-dasharray:none;stroke-opacity:1"
       transform="matrix(1.1333333,0,0,-1.1333333,91.9428,38.659267)" />
    <path
       id="path2"
       d="m 4.6063419,-3.3790607 c 0.055147,-0.2205882 0.1516544,-0.5928308 0.1516544,-0.6479779 0,-0.1792279 -0.1378676,-0.2757353 -0.289522,-0.2757353 -0.1240809,0 -0.3033089,0.082721 -0.3722427,0.2895221 -0.027573,0.068934 -0.4963235,1.9715073 -0.5652573,2.2334558 -0.068934,0.2895221 -0.096507,0.46875 -0.096507,0.647978 0,0.1102941 0,0.13786763 0.013787,0.17922793 -0.2205883,0.53768382 -0.5238971,0.84099264 -0.9099265,0.84099264 -0.7996323,0 -0.7996323,-0.73069853 -0.7996323,-0.90992647 0,-0.3170956 0.04136,-0.703125 0.5101102,-1.9301471 0.1102942,-0.3033088 0.179228,-0.4411764 0.179228,-0.6341911 0,-0.4549633 -0.3308824,-0.8272059 -0.8272059,-0.8272059 -0.93749999,0 -1.30974264,1.4476103 -1.30974264,1.5441176 0,0.096507 0.0965073,0.096507 0.12408088,0.096507 0.0965073,0 0.11029412,-0.013787 0.15165441,-0.179228 0.2757353,-0.9237132 0.66176475,-1.2408088 1.00643385,-1.2408088 0.096507,0 0.2481617,0.013787 0.2481617,0.3308824 0,0.2481617 -0.1102941,0.5376838 -0.1792279,0.703125 -0.4411765,1.171875 -0.5514706,1.6268382 -0.5514706,2.0128676 0,0.90992649 0.6617647,1.25459561 1.40625,1.25459561 0.179228,0 0.647978,0 1.0477941,-0.703125 0.2481618,0.64797794 0.9375,0.703125 1.2408089,0.703125 0.7444852,0 1.1856617,-0.63419118 1.4476102,-1.22702211 0.3308824,-0.7720588 0.6617648,-2.109375 0.6617648,-2.5919117 0,-0.5514706 -0.2757353,-0.703125 -0.4411765,-0.703125 -0.2481618,0 -0.4963235,0.2619485 -0.4963235,0.4825367 0,0.1378677 0.055147,0.1930148 0.1378676,0.2757353 0.1102941,0.1102942 0.3722426,0.3584559 0.3722426,0.8409927 0,0.3446691 -0.289522,1.3235294 -0.5514705,1.81985293 -0.2619486,0.53768383 -0.6066177,0.88235294 -1.1029412,0.88235294 -0.46875,0 -0.7306985,-0.30330882 -0.7306985,-0.86856617 0,-0.2757353 0.068934,-0.5928309 0.1102941,-0.7306985 z m 0,0"
       style="fill:#000000;fill-opacity:1;fill-rule:nonzero;stroke:none"
       aria-label="w"
       transform="matrix(1.1333333,0,0,1.1333333,83.271667,39.474133)" />
    <path
       id="path3"
       d="m 2.3445165,-4.4387776 c 0,-0.1792279 -0.027573,-0.1930147 -0.2205882,-0.1930147 -0.4411765,0.4411765 -1.0753676,0.4411765 -1.3648897,0.4411765 v 0.2619485 c 0.16544118,0 0.6341912,0 1.0202206,-0.2068015 v 3.57077211 c 0,0.22058823 0,0.31709559 -0.703125,0.31709559 H 0.81418566 V 5.6066176e-4 C 0.93826654,-0.0132261 1.793046,-0.02701287 2.0549945,-0.02701287 c 0.2068015,0 1.0891544,0.01378677 1.2408088,0.0275735318 V -0.2476011 H 3.0338548 c -0.6893383,0 -0.6893383,-0.0965074 -0.6893383,-0.31709559 z m 0,0"
       style="fill:#000000;fill-opacity:1;fill-rule:nonzero;stroke:none"
       aria-label="1"
       transform="matrix(1.1333333,0,0,1.1333333,91.3546,41.167333)" />
    <path
       id="path4"
       d="m 3.0600165,-4.356057 c 0,-0.1240809 -0.082721,-0.2619485 -0.2757352,-0.2619485 -0.2068015,0 -0.3860295,0.1930147 -0.3860295,0.3722426 0,0.1102941 0.082721,0.2757353 0.2757353,0.2757353 0.179228,0 0.3860294,-0.1930147 0.3860294,-0.3860294 z M 1.5848327,0.34522978 C 1.4607518,0.82776654 1.0885092,1.2275827 0.68869301,1.2275827 c -0.0965074,0 -0.17922794,-0.013787 -0.26194852,-0.04136 0.1930147,-0.082721 0.24816176,-0.24816174 0.24816176,-0.35845586 0,-0.16544117 -0.13786765,-0.26194853 -0.27573529,-0.26194853 -0.22058824,0 -0.39981618059,0.19301471 -0.39981618059,0.41360295 0,0.27573524 0.27573529059,0.44117644 0.68933823059,0.44117644 0.41360299,0 1.24080879,-0.2481617 1.44761029,-1.10294115 L 2.7704945,-2.1777482 c 0.013787,-0.068934 0.027574,-0.1378676 0.027574,-0.2481617 0,-0.3722427 -0.3170956,-0.647978 -0.7444853,-0.647978 -0.7720588,0 -1.21323527,0.9650736 -1.21323527,1.0615809 0,0.096507 0.0965073,0.096507 0.11029411,0.096507 0.0827206,0 0.0965074,-0.027574 0.13786766,-0.1240809 0.1792279,-0.413603 0.5376838,-0.8409927 0.9512868,-0.8409927 0.1654411,0 0.234375,0.1240809 0.234375,0.3446692 0,0.068934 -0.013787,0.1654411 -0.027574,0.2068014 z m 0,0"
       style="fill:#000000;fill-opacity:1;fill-rule:nonzero;stroke:none"
       aria-label="j"
       transform="matrix(1.1333333,0,0,1.1333333,95.8562,41.167333)" />
    <path
       id="path5"
       d="m 12.66847,-37.4227 c 0,6.99669 -5.67178,12.66847 -12.66847,12.66847 -6.99669,0 -12.66847,-5.67178 -12.66847,-12.66847 0,-6.9967 5.67178,-12.66849 12.66847,-12.66849 6.99669,0 12.66847,5.67179 12.66847,12.66849 z"
       style="fill:#dbfda6;fill-opacity:1;fill-rule:nonzero;stroke:#495938;stroke-width:0.74721;stroke-linecap:butt;stroke-linejoin:miter;stroke-miterlimit:10;stroke-dasharray:none;stroke-opacity:1"
       transform="matrix(1.1333333,0,0,-1.1333333,91.9428,38.659267)" />
    <path
       id="path6"
       d="m 4.6063419,-3.3768879 c 0.055147,-0.2205882 0.1516544,-0.5928309 0.1516544,-0.6479779 0,-0.179228 -0.1378676,-0.2757353 -0.289522,-0.2757353 -0.1240809,0 -0.3033089,0.082721 -0.3722427,0.2895221 -0.027573,0.068934 -0.4963235,1.9715073 -0.5652573,2.2334558 -0.068934,0.2895221 -0.096507,0.46875 -0.096507,0.647978 0,0.1102941 0,0.13786763 0.013787,0.17922792 -0.2205883,0.53768382 -0.5238971,0.84099265 -0.9099265,0.84099265 -0.7996323,0 -0.7996323,-0.73069853 -0.7996323,-0.90992647 0,-0.3170956 0.04136,-0.703125 0.5101102,-1.9301471 0.1102942,-0.3033088 0.179228,-0.4411764 0.179228,-0.6341911 0,-0.4549633 -0.3308824,-0.8272059 -0.8272059,-0.8272059 -0.93749999,0 -1.30974264,1.4476103 -1.30974264,1.5441176 0,0.096507 0.0965073,0.096507 0.12408088,0.096507 0.0965073,0 0.11029412,-0.013787 0.15165441,-0.179228 0.2757353,-0.9237132 0.66176475,-1.2408088 1.00643385,-1.2408088 0.096507,0 0.2481617,0.013787 0.2481617,0.3308824 0,0.2481617 -0.1102941,0.5376838 -0.1792279,0.703125 -0.4411765,1.171875 -0.5514706,1.6268382 -0.5514706,2.0128676 0,0.90992649 0.6617647,1.2545956 1.40625,1.2545956 0.179228,0 0.647978,0 1.0477941,-0.703125 0.2481618,0.64797794 0.9375,0.703125 1.2408089,0.703125 0.7444852,0 1.1856617,-0.63419117 1.4476102,-1.2270221 0.3308824,-0.7720588 0.6617648,-2.109375 0.6617648,-2.5919117 0,-0.5514706 -0.2757353,-0.703125 -0.4411765,-0.703125 -0.2481618,0 -0.4963235,0.2619485 -0.4963235,0.4825367 0,0.1378677 0.055147,0.1930147 0.1378676,0.2757353 0.1102941,0.1102942 0.3722426,0.3584559 0.3722426,0.8409927 0,0.3446691 -0.289522,1.3235294 -0.5514705,1.81985293 -0.2619486,0.53768382 -0.6066177,0.88235294 -1.1029412,0.88235294 -0.46875,0 -0.7306985,-0.30330883 -0.7306985,-0.86856618 0,-0.27573529 0.068934,-0.59283089 0.1102941,-0.73069849 z m 0,0"
       style="fill:#000000;fill-opacity:1;fill-rule:nonzero;stroke:none"
       aria-label="w"
       transform="matrix(1.1333333,0,0,1.1333333,83.271667,81.885733)" />
    <path
       id="path7"
       d="M 3.5301783,-1.2700956 H 3.2820165 c -0.013787,0.1516544 -0.082721,0.56525736 -0.1792279,0.63419119 -0.055147,0.0413603 -0.5928309,0.0413603 -0.6893382,0.0413603 H 1.1312813 C 1.8619798,-1.2425221 2.1101415,-1.4355368 2.5237445,-1.7664191 c 0.523897,-0.413603 1.0064338,-0.8409927 1.0064338,-1.5027574 0,-0.8547794 -0.7444853,-1.3648897 -1.640625,-1.3648897 -0.8685662,0 -1.44761029,0.6066177 -1.44761029,1.2545956 0,0.3446691 0.30330883,0.3860294 0.37224265,0.3860294 0.16544118,0 0.37224264,-0.1240809 0.37224264,-0.3722426 0,-0.1240809 -0.055147,-0.3722427 -0.41360293,-0.3722427 C 0.97962684,-4.23425 1.4621636,-4.3859044 1.793046,-4.3859044 c 0.6893382,0 1.0477941,0.5514706 1.0477941,1.1167279 0,0.6066177 -0.4273897,1.0891544 -0.647978,1.3373162 l -1.68198526,1.65441177 c -0.0689338,0.0689338 -0.0689338,0.0827206 -0.0689338,0.27573529 H 3.3095901 Z m 0,0"
       style="fill:#000000;fill-opacity:1;fill-rule:nonzero;stroke:none"
       aria-label="2"
       transform="matrix(1.1333333,0,0,1.1333333,91.3546,83.580067)" />
    <path
       id="path8"
       d="m 3.0600165,-4.3583309 c 0,-0.1240809 -0.082721,-0.2619485 -0.2757352,-0.2619485 -0.2068015,0 -0.3860295,0.1930147 -0.3860295,0.3722426 0,0.1102942 0.082721,0.2757353 0.2757353,0.2757353 0.179228,0 0.3860294,-0.1930147 0.3860294,-0.3860294 z M 1.5848327,0.34295588 C 1.4607518,0.82549265 1.0885092,1.2253088 0.68869301,1.2253088 c -0.0965074,0 -0.17922794,-0.013787 -0.26194852,-0.04136 0.1930147,-0.082721 0.24816176,-0.24816174 0.24816176,-0.35845585 0,-0.16544118 -0.13786765,-0.26194853 -0.27573529,-0.26194853 -0.22058824,0 -0.39981618059,0.1930147 -0.39981618059,0.41360294 0,0.27573534 0.27573529059,0.44117644 0.68933823059,0.44117644 0.41360299,0 1.24080879,-0.2481617 1.44761029,-1.10294115 L 2.7704945,-2.1800221 c 0.013787,-0.068934 0.027574,-0.1378676 0.027574,-0.2481617 0,-0.3722427 -0.3170956,-0.647978 -0.7444853,-0.647978 -0.7720588,0 -1.21323527,0.9650736 -1.21323527,1.0615809 0,0.096507 0.0965073,0.096507 0.11029411,0.096507 0.0827206,0 0.0965074,-0.027574 0.13786766,-0.1240809 0.1792279,-0.413603 0.5376838,-0.8409927 0.9512868,-0.8409927 0.1654411,0 0.234375,0.1240809 0.234375,0.3446692 0,0.068934 -0.013787,0.1654411 -0.027574,0.2068014 z m 0,0"
       style="fill:#000000;fill-opacity:1;fill-rule:nonzero;stroke:none"
       aria-label="j"
       transform="matrix(1.1333333,0,0,1.1333333,95.8562,83.580067)" />
    <path
       id="path9"
       d="m 12.66847,-74.84541 c 0,6.99669 -5.67178,12.66847 -12.66847,12.66847 -6.99669,0 -12.66847,-5.67178 -12.66847,-12.66847 0,-6.99669 5.67178,-12.66848 12.66847,-12.66848 6.99669,0 12.66847,5.67179 12.66847,12.66848 z"
       style="fill:#dbfda6;fill-opacity:1;fill-rule:nonzero;stroke:#495938;stroke-width:0.74721;stroke-linecap:butt;stroke-linejoin:miter;stroke-miterlimit:10;stroke-dasharray:none;stroke-opacity:1"
       transform="matrix(1.1333333,0,0,-1.1333333,91.9428,38.659267)" />
    <path
       id="path10"
       d="m 4.6063419,-3.3791618 c 0.055147,-0.2205882 0.1516544,-0.5928308 0.1516544,-0.6479779 0,-0.1792279 -0.1378676,-0.2757353 -0.289522,-0.2757353 -0.1240809,0 -0.3033089,0.082721 -0.3722427,0.2895221 -0.027573,0.068934 -0.4963235,1.9715073 -0.5652573,2.2334558 -0.068934,0.2895221 -0.096507,0.46875 -0.096507,0.647978 0,0.1102941 0,0.13786763 0.013787,0.17922792 -0.2205883,0.53768383 -0.5238971,0.84099265 -0.9099265,0.84099265 -0.7996323,0 -0.7996323,-0.73069853 -0.7996323,-0.90992647 0,-0.3170956 0.04136,-0.703125 0.5101102,-1.9301471 0.1102942,-0.3033088 0.179228,-0.4411764 0.179228,-0.6341911 0,-0.4549633 -0.3308824,-0.8272059 -0.8272059,-0.8272059 -0.93749999,0 -1.30974264,1.4476103 -1.30974264,1.5441176 0,0.096507 0.0965073,0.096507 0.12408088,0.096507 0.0965073,0 0.11029412,-0.013787 0.15165441,-0.179228 0.2757353,-0.9237132 0.66176475,-1.2408088 1.00643385,-1.2408088 0.096507,0 0.2481617,0.013787 0.2481617,0.3308824 0,0.2481617 -0.1102941,0.5376838 -0.1792279,0.703125 -0.4411765,1.171875 -0.5514706,1.6268382 -0.5514706,2.0128676 0,0.90992649 0.6617647,1.25459561 1.40625,1.25459561 0.179228,0 0.647978,0 1.0477941,-0.703125 0.2481618,0.64797794 0.9375,0.703125 1.2408089,0.703125 0.7444852,0 1.1856617,-0.63419118 1.4476102,-1.22702211 0.3308824,-0.7720588 0.6617648,-2.109375 0.6617648,-2.5919117 0,-0.5514706 -0.2757353,-0.703125 -0.4411765,-0.703125 -0.2481618,0 -0.4963235,0.2619485 -0.4963235,0.4825367 0,0.1378677 0.055147,0.1930148 0.1378676,0.2757353 0.1102941,0.1102942 0.3722426,0.3584559 0.3722426,0.8409927 0,0.3446691 -0.289522,1.3235294 -0.5514705,1.81985293 -0.2619486,0.53768382 -0.6066177,0.88235294 -1.1029412,0.88235294 -0.46875,0 -0.7306985,-0.30330882 -0.7306985,-0.86856618 0,-0.27573529 0.068934,-0.59283089 0.1102941,-0.73069849 z m 0,0"
       style="fill:#000000;fill-opacity:1;fill-rule:nonzero;stroke:none"
       aria-label="w"
       transform="matrix(1.1333333,0,0,1.1333333,83.271667,124.29847)" />
    <path
       id="path11"
       d="m 1.9033401,-2.3295037 c 0.5514706,0 0.9375,0.3722427 0.9375,1.116728 0,0.86856614 -0.4963236,1.13051467 -0.9099265,1.13051467 -0.2757353,0 -0.8961397,-0.08272059 -1.18566176,-0.48253676 0.33088236,-0.0275735 0.39981616,-0.24816177 0.39981616,-0.39981618 0,-0.22058823 -0.16544116,-0.38602943 -0.37224263,-0.38602943 -0.20680147,0 -0.39981618,0.1240809 -0.39981618,0.41360296 0,0.64797794 0.73069851,1.07536765 1.57169121,1.07536765 0.9788603,0 1.640625,-0.64797795 1.640625,-1.35110291 0,-0.5376839 -0.4411765,-1.0753677 -1.2132353,-1.2408089 0.7306985,-0.2619485 0.992647,-0.7858455 0.992647,-1.2132353 0,-0.5514705 -0.6341911,-0.9650735 -1.40625,-0.9650735 -0.7720588,0 -1.36488967,0.3722427 -1.36488967,0.9375 0,0.234375 0.15165441,0.3722427 0.35845588,0.3722427 0.22058819,0 0.35845589,-0.1654412 0.35845589,-0.3584559 0,-0.2068015 -0.1378677,-0.3446691 -0.35845589,-0.3584559 0.24816179,-0.3170956 0.73069849,-0.3860294 0.99264709,-0.3860294 0.3033088,0 0.7444853,0.1516544 0.7444853,0.758272 0,0.2895221 -0.096507,0.6066177 -0.2757353,0.8272059 -0.234375,0.2619486 -0.4273897,0.2757353 -0.7720589,0.3033089 -0.1792279,0.013787 -0.1930147,0.013787 -0.2205882,0.013787 -0.013787,0 -0.068934,0.013787 -0.068934,0.096507 0,0.096507 0.055147,0.096507 0.1792279,0.096507 z m 0,0"
       style="fill:#000000;fill-opacity:1;fill-rule:nonzero;stroke:none"
       aria-label="3"
       transform="matrix(1.1333333,0,0,1.1333333,91.3546,125.99167)" />
    <path
       id="path12"
       d="m 3.0600165,-4.3561581 c 0,-0.1240809 -0.082721,-0.2619485 -0.2757352,-0.2619485 -0.2068015,0 -0.3860295,0.1930147 -0.3860295,0.3722426 0,0.1102941 0.082721,0.2757353 0.2757353,0.2757353 0.179228,0 0.3860294,-0.1930147 0.3860294,-0.3860294 z M 1.5848327,0.34512868 C 1.4607518,0.82766544 1.0885092,1.2274816 0.68869301,1.2274816 c -0.0965074,0 -0.17922794,-0.013787 -0.26194852,-0.04136 0.1930147,-0.082721 0.24816176,-0.24816174 0.24816176,-0.35845586 0,-0.16544118 -0.13786765,-0.26194853 -0.27573529,-0.26194853 -0.22058824,0 -0.39981618059,0.19301471 -0.39981618059,0.41360294 0,0.27573525 0.27573529059,0.44117645 0.68933823059,0.44117645 0.41360299,0 1.24080879,-0.2481617 1.44761029,-1.10294115 L 2.7704945,-2.1778493 c 0.013787,-0.068934 0.027574,-0.1378676 0.027574,-0.2481617 0,-0.3722427 -0.3170956,-0.647978 -0.7444853,-0.647978 -0.7720588,0 -1.21323527,0.9650736 -1.21323527,1.0615809 0,0.096507 0.0965073,0.096507 0.11029411,0.096507 0.0827206,0 0.0965074,-0.027574 0.13786766,-0.1240809 0.1792279,-0.413603 0.5376838,-0.8409927 0.9512868,-0.8409927 0.1654411,0 0.234375,0.1240809 0.234375,0.3446692 0,0.068934 -0.013787,0.1654411 -0.027574,0.2068014 z m 0,0"
       style="fill:#000000;fill-opacity:1;fill-rule:nonzero;stroke:none"
       aria-label="j"
       transform="matrix(1.1333333,0,0,1.1333333,95.8562,125.99167)" />
    <path
       id="path13"
       d="m 12.15184,-128.75977 c 0,6.71138 -5.44048,12.15186 -12.15184,12.15186 -6.71136,0 -12.15184,-5.44048 -12.15184,-12.15186 0,-6.71136 5.44048,-12.15185 12.15184,-12.15185 6.71136,0 12.15184,5.44049 12.15184,12.15185 z"
       style="fill:#dbfda6;fill-opacity:1;fill-rule:nonzero;stroke:#495938;stroke-width:0.74721;stroke-linecap:butt;stroke-linejoin:miter;stroke-miterlimit:10;stroke-dasharray:none;stroke-opacity:1"
       transform="matrix(1.1333333,0,0,-1.1333333,91.9428,38.659267)" />
    <path
       id="path14"
       d="m 4.6059393,-3.3790184 c 0.055147,-0.2205882 0.1516545,-0.5928309 0.1516545,-0.6479779 0,-0.179228 -0.1378677,-0.2757353 -0.2895221,-0.2757353 -0.1240809,0 -0.3033088,0.082721 -0.3722427,0.289522 -0.027573,0.068934 -0.4963235,1.9715074 -0.5652573,2.2334559 -0.068934,0.2895221 -0.096507,0.46875 -0.096507,0.647978 0,0.1102941 0,0.13786761 0.013787,0.17922791 -0.2205882,0.53768382 -0.5238971,0.84099264 -0.9099265,0.84099264 -0.7996323,0 -0.7996323,-0.73069853 -0.7996323,-0.90992645 0,-0.3170956 0.04136,-0.703125 0.5101103,-1.9301471 0.1102941,-0.3033088 0.1792279,-0.4411764 0.1792279,-0.6341912 0,-0.4549632 -0.3308823,-0.8272058 -0.8272059,-0.8272058 -0.93749997,0 -1.30974261,1.4476103 -1.30974261,1.5441176 0,0.096507 0.0965073,0.096507 0.12408088,0.096507 0.0965073,0 0.11029412,-0.013787 0.15165441,-0.179228 0.27573529,-0.9237132 0.66176472,-1.2408088 1.00643382,-1.2408088 0.096507,0 0.2481618,0.013787 0.2481618,0.3308824 0,0.2481617 -0.1102941,0.5376838 -0.179228,0.703125 -0.4411764,1.171875 -0.5514706,1.6268382 -0.5514706,2.0128676 0,0.90992647 0.6617647,1.25459559 1.40625,1.25459559 0.179228,0 0.647978,0 1.0477942,-0.703125 0.2481617,0.64797794 0.9375,0.703125 1.2408088,0.703125 0.7444853,0 1.1856617,-0.63419118 1.4476103,-1.22702209 0.3308823,-0.7720588 0.6617647,-2.109375 0.6617647,-2.5919117 0,-0.5514706 -0.2757353,-0.703125 -0.4411765,-0.703125 -0.2481618,0 -0.4963235,0.2619485 -0.4963235,0.4825367 0,0.1378677 0.055147,0.1930147 0.1378676,0.2757353 0.1102941,0.1102941 0.3722427,0.3584559 0.3722427,0.8409927 0,0.3446691 -0.2895221,1.3235294 -0.5514706,1.81985291 -0.2619485,0.53768383 -0.6066177,0.88235294 -1.1029412,0.88235294 -0.46875,0 -0.7306985,-0.30330882 -0.7306985,-0.86856617 0,-0.27573528 0.068934,-0.59283088 0.1102941,-0.73069858 z m 0,0"
       style="fill:#000000;fill-opacity:1;fill-rule:nonzero;stroke:none"
       aria-label="w"
       transform="matrix(1.1333333,0,0,1.1333333,83.924467,185.39987)" />
    <path
       id="path15"
       d="m 2.2603934,-4.3570147 c 0,-0.1102941 -0.082721,-0.2619485 -0.2757353,-0.2619485 -0.1930147,0 -0.3998162,0.1792279 -0.3998162,0.3722426 0,0.1240809 0.096507,0.2757353 0.2895221,0.2757353 0.1930147,0 0.3860294,-0.2068015 0.3860294,-0.3860294 z m -1.42003678,3.54319852 c -0.0275735,0.0827206 -0.0689338,0.16544118 -0.0689338,0.28952206 0,0.33088236 0.27573528,0.59283088 0.66176468,0.59283088 0.703125,0 1.0064338,-0.96507352 1.0064338,-1.06158088 0,-0.0965074 -0.082721,-0.0965074 -0.1102941,-0.0965074 -0.096507,0 -0.1102941,0.04136 -0.1378676,0.12408089 -0.1516545,0.55147059 -0.46875,0.84099265 -0.7306986,0.84099265 -0.1378676,0 -0.1792279,-0.0965074 -0.1792279,-0.24816177 0,-0.15165441 0.055147,-0.28952205 0.1102941,-0.44117647 0.068934,-0.1930147 0.1516544,-0.3860294 0.2205882,-0.5652573 0.068934,-0.1654412 0.3170956,-0.7996324 0.3446692,-0.882353 0.027574,-0.068934 0.04136,-0.1516544 0.04136,-0.2205882 0,-0.3308824 -0.2757353,-0.5928309 -0.6617648,-0.5928309 -0.68933816,0 -1.00643375,0.9512868 -1.00643375,1.0615809 0,0.096507 0.0965074,0.096507 0.11029412,0.096507 0.0965074,0 0.11029412,-0.04136 0.12408088,-0.1102941 0.19301471,-0.6066176 0.49632355,-0.8547794 0.75827205,-0.8547794 0.1102941,0 0.1654412,0.055147 0.1654412,0.2481618 0,0.1516544 -0.04136,0.2619485 -0.2068015,0.6893382 z M 5.8794191,-4.3570147 c 0,-0.1240809 -0.082721,-0.2619485 -0.2757353,-0.2619485 -0.2068014,0 -0.3860294,0.1930147 -0.3860294,0.3722426 0,0.1102941 0.082721,0.2757353 0.2757353,0.2757353 0.1792279,0 0.3860294,-0.1930147 0.3860294,-0.3860294 z M 4.4042353,0.34427206 C 4.2801544,0.82680882 3.9079118,1.226625 3.5080956,1.226625 c -0.096507,0 -0.179228,-0.013787 -0.2619485,-0.04136 0.1930147,-0.082721 0.2481617,-0.24816176 0.2481617,-0.35845588 0,-0.16544117 -0.1378676,-0.26194853 -0.2757353,-0.26194853 -0.2205882,0 -0.3998161,0.19301471 -0.3998161,0.41360295 0,0.27573526 0.2757352,0.44117646 0.6893382,0.44117646 0.4136029,0 1.2408088,-0.2481618 1.4476103,-1.10294117 L 5.5898971,-2.1787059 c 0.013787,-0.068934 0.027573,-0.1378676 0.027573,-0.2481617 0,-0.3722427 -0.3170956,-0.647978 -0.7444853,-0.647978 -0.7720588,0 -1.2132353,0.9650735 -1.2132353,1.0615809 0,0.096507 0.096507,0.096507 0.1102941,0.096507 0.082721,0 0.096507,-0.027573 0.1378677,-0.1240808 0.1792279,-0.413603 0.5376838,-0.8409927 0.9512867,-0.8409927 0.1654412,0 0.234375,0.1240809 0.234375,0.3446691 0,0.068934 -0.013787,0.1654412 -0.027573,0.2068015 z m 0,0"
       style="fill:#000000;fill-opacity:1;fill-rule:nonzero;stroke:none"
       aria-label="ij"
       transform="matrix(1.1333333,0,0,1.1333333,92.008533,187.0942)" />
    <path
       id="path16"
       d="m 3.0485037,-1.2395699 c 0,-0.6755514 -0.5514706,-1.2132352 -1.2132353,-1.2132352 -0.6755515,0 -1.21323531,0.5376838 -1.21323531,1.2132352 0,0.66176475 0.53768381,1.19944858 1.21323531,1.19944858 0.6617647,0 1.2132353,-0.53768383 1.2132353,-1.19944858 z m 6.0179228,0 c 0,-0.6755514 -0.5514706,-1.2132352 -1.2132353,-1.2132352 -0.6755515,0 -1.2132353,0.5376838 -1.2132353,1.2132352 0,0.66176475 0.5376838,1.19944858 1.2132353,1.19944858 0.6617647,0 1.2132353,-0.53768383 1.2132353,-1.19944858 z m 6.0179225,0 c 0,-0.6755514 -0.55147,-1.2132352 -1.213235,-1.2132352 -0.675551,0 -1.213235,0.5376838 -1.213235,1.2132352 0,0.66176475 0.537684,1.19944858 1.213235,1.19944858 0.661765,0 1.213235,-0.53768383 1.213235,-1.19944858 z m 0,0"
       style="fill:#000000;fill-opacity:1;fill-rule:nonzero;stroke:none"
       aria-label="•••"
       transform="matrix(0,-1.1333333,1.1333333,0,93.334533,162.93153)" />
    <path
       id="path17"
       d="M -18.24266,0 H -56.69362"
       style="fill:none;stroke:#808080;stroke-width:0.99628;stroke-linecap:butt;stroke-linejoin:miter;stroke-miterlimit:10;stroke-dasharray:none;stroke-opacity:1"
       transform="matrix(1.1333333,0,0,-1.1333333,91.9428,38.659267)" />
    <path
       id="path18"
       d="M 5.20058,0 C 3.65962,0.28891 1.15567,1.15567 -0.57784,2.1669 V -2.1669 C 1.15567,-1.15567 3.65962,-0.28891 5.20058,0"
       style="fill:#808080;fill-opacity:1;fill-rule:nonzero;stroke:none"
       transform="matrix(1.1333333,0,0,-1.1333333,71.267785,38.659267)" />
    <path
       id="path19"
       d="M 3.3219779,-3.0058199 C 3.3909118,-3.2677684 3.6115,-4.1914816 4.314625,-4.1914816 c 0.055147,0 0.2895221,0 0.4963235,0.1378676 -0.2757353,0.04136 -0.46875,0.2895221 -0.46875,0.5376839 0,0.1516544 0.096507,0.3446691 0.3722427,0.3446691 0.2205882,0 0.5376838,-0.179228 0.5376838,-0.5790441 0,-0.5101103 -0.5928309,-0.6617648 -0.9237132,-0.6617648 -0.5790442,0 -0.9237133,0.5376839 -1.0477942,0.7582721 C 3.0324559,-4.3017757 2.4947721,-4.4120699 2.20525,-4.4120699 c -1.0340074,0 -1.61305147,1.2959559 -1.61305147,1.5441177 0,0.096507 0.11029412,0.096507 0.12408088,0.096507 0.0827206,0 0.11029412,-0.013787 0.12408088,-0.1102941 0.34466911,-1.0615809 1.00643381,-1.3097426 1.33731621,-1.3097426 0.1930147,0 0.5376838,0.096507 0.5376838,0.6755515 0,0.3033088 -0.1654412,0.9788602 -0.5376838,2.3713235 -0.1516544,0.62040439 -0.5101103,1.03400734 -0.9375,1.03400734 -0.068934,0 -0.28952209,0 -0.49632356,-0.12408089 0.24816177,-0.0551471 0.45496326,-0.26194853 0.45496326,-0.53768382 0,-0.27573533 -0.20680149,-0.35845593 -0.35845591,-0.35845593 -0.30330882,0 -0.55147058,0.26194858 -0.55147058,0.57904416 0,0.45496324 0.49632353,0.66176471 0.93749999,0.66176471 0.6617647,0 1.0202206,-0.703125 1.0477941,-0.75827206 0.1240809,0.37224265 0.4825368,0.75827206 1.0753677,0.75827206 1.0202206,0 1.5992647,-1.28216907 1.5992647,-1.53033087 0,-0.1102941 -0.096507,-0.1102941 -0.1240809,-0.1102941 -0.096507,0 -0.1102941,0.04136 -0.1240809,0.1102941 -0.3308823,1.07536764 -1.0064338,1.30974264 -1.3373162,1.30974264 -0.3860294,0 -0.5376838,-0.31709559 -0.5376838,-0.66176471 0,-0.22058824 0.055147,-0.42738973 0.1654412,-0.86856613 z m 0,0"
       style="fill:#000000;fill-opacity:1;fill-rule:nonzero;stroke:none"
       aria-label="x"
       transform="matrix(1.1333333,0,0,1.1333333,11.844467,40.242533)" />
    <path
       id="path20"
       d="m 2.3430515,-4.4387794 c 0,-0.179228 -0.027574,-0.1930147 -0.2205883,-0.1930147 -0.4411764,0.4411765 -1.0753676,0.4411765 -1.36488967,0.4411765 v 0.2619485 c 0.16544118,0 0.63419117,0 1.02022057,-0.2068015 v 3.57077207 c 0,0.22058824 0,0.31709559 -0.703125,0.31709559 H 0.81272059 V 5.5882353e-4 C 0.93680147,-0.01322794 1.7915809,-0.02701471 2.0535294,-0.02701471 c 0.2068015,0 1.0891544,0.01378677 1.2408088,0.0275735335 V -0.24760294 H 3.0323897 c -0.6893382,0 -0.6893382,-0.0965073 -0.6893382,-0.31709559 z m 0,0"
       style="fill:#000000;fill-opacity:1;fill-rule:nonzero;stroke:none"
       aria-label="1"
       transform="matrix(1.1333333,0,0,1.1333333,18.297667,41.936867)" />
    <path
       id="path21"
       d="M -18.24266,-37.4227 H -56.69362"
       style="fill:none;stroke:#808080;stroke-width:0.99628;stroke-linecap:butt;stroke-linejoin:miter;stroke-miterlimit:10;stroke-dasharray:none;stroke-opacity:1"
       transform="matrix(1.1333333,0,0,-1.1333333,91.9428,38.659267)" />
    <path
       id="path22"
       d="M 5.20058,0 C 3.65962,0.28891 1.15567,1.15567 -0.57784,2.1669 V -2.1669 C 1.15567,-1.15567 3.65962,-0.28891 5.20058,0"
       style="fill:#808080;fill-opacity:1;fill-rule:nonzero;stroke:none"
       transform="matrix(1.1333333,0,0,-1.1333333,71.267785,81.07166)" />
    <path
       id="path23"
       d="M 3.3219779,-3.0070938 C 3.3909118,-3.2690423 3.6115,-4.1927555 4.314625,-4.1927555 c 0.055147,0 0.2895221,0 0.4963235,0.1378676 -0.2757353,0.04136 -0.46875,0.2895221 -0.46875,0.5376839 0,0.1516544 0.096507,0.3446691 0.3722427,0.3446691 0.2205882,0 0.5376838,-0.179228 0.5376838,-0.5790441 0,-0.5101103 -0.5928309,-0.6617648 -0.9237132,-0.6617648 -0.5790442,0 -0.9237133,0.5376839 -1.0477942,0.7582721 C 3.0324559,-4.3030496 2.4947721,-4.4133438 2.20525,-4.4133438 c -1.0340074,0 -1.61305147,1.2959559 -1.61305147,1.5441177 0,0.096507 0.11029412,0.096507 0.12408088,0.096507 0.0827206,0 0.11029412,-0.013787 0.12408088,-0.1102941 0.34466911,-1.0615809 1.00643381,-1.3097426 1.33731621,-1.3097426 0.1930147,0 0.5376838,0.096507 0.5376838,0.6755515 0,0.3033088 -0.1654412,0.9788602 -0.5376838,2.3713235 -0.1516544,0.6204044 -0.5101103,1.03400734 -0.9375,1.03400734 -0.068934,0 -0.28952209,0 -0.49632356,-0.12408088 0.24816177,-0.0551471 0.45496326,-0.26194853 0.45496326,-0.53768383 0,-0.27573533 -0.20680149,-0.35845593 -0.35845591,-0.35845593 -0.30330882,0 -0.55147058,0.26194858 -0.55147058,0.57904417 0,0.45496323 0.49632353,0.6617647 0.93749999,0.6617647 0.6617647,0 1.0202206,-0.703125 1.0477941,-0.75827206 0.1240809,0.37224265 0.4825368,0.75827206 1.0753677,0.75827206 1.0202206,0 1.5992647,-1.28216907 1.5992647,-1.53033087 0,-0.1102941 -0.096507,-0.1102941 -0.1240809,-0.1102941 -0.096507,0 -0.1102941,0.04136 -0.1240809,0.1102941 -0.3308823,1.07536764 -1.0064338,1.30974264 -1.3373162,1.30974264 -0.3860294,0 -0.5376838,-0.31709559 -0.5376838,-0.66176471 0,-0.22058823 0.055147,-0.42738973 0.1654412,-0.86856613 z m 0,0"
       style="fill:#000000;fill-opacity:1;fill-rule:nonzero;stroke:none"
       aria-label="x"
       transform="matrix(1.1333333,0,0,1.1333333,11.844467,82.654133)" />
    <path
       id="path24"
       d="M 3.5287132,-1.2690974 H 3.2805515 c -0.013787,0.1516544 -0.082721,0.56525733 -0.179228,0.63419115 -0.055147,0.0413603 -0.5928309,0.0413603 -0.6893382,0.0413603 H 1.1298162 C 1.8605147,-1.2415239 2.1086765,-1.4345386 2.5222794,-1.765421 c 0.5238971,-0.4136029 1.0064338,-0.8409926 1.0064338,-1.5027573 0,-0.8547794 -0.7444853,-1.3648897 -1.640625,-1.3648897 -0.8685661,0 -1.44761026,0.6066176 -1.44761026,1.2545956 0,0.3446691 0.30330882,0.3860294 0.37224265,0.3860294 0.16544117,0 0.37224261,-0.1240809 0.37224261,-0.3722427 0,-0.1240808 -0.055147,-0.3722426 -0.41360291,-0.3722426 0.20680147,-0.4963235 0.68933821,-0.647978 1.02022061,-0.647978 0.6893382,0 1.0477941,0.5514706 1.0477941,1.116728 0,0.6066176 -0.4273897,1.0891544 -0.6479779,1.3373162 l -1.68198534,1.65441173 c -0.0689338,0.0689338 -0.0689338,0.0827206 -0.0689338,0.27573529647 H 3.308125 Z m 0,0"
       style="fill:#000000;fill-opacity:1;fill-rule:nonzero;stroke:none"
       aria-label="2"
       transform="matrix(1.1333333,0,0,1.1333333,18.297667,84.348467)" />
    <path
       id="path25"
       d="M -18.24266,-74.84541 H -56.69362"
       style="fill:none;stroke:#808080;stroke-width:0.99628;stroke-linecap:butt;stroke-linejoin:miter;stroke-miterlimit:10;stroke-dasharray:none;stroke-opacity:1"
       transform="matrix(1.1333333,0,0,-1.1333333,91.9428,38.659267)" />
    <path
       id="path26"
       d="M 5.20058,0 C 3.65962,0.28891 1.15567,1.15567 -0.57784,2.1669 V -2.1669 C 1.15567,-1.15567 3.65962,-0.28891 5.20058,0"
       style="fill:#808080;fill-opacity:1;fill-rule:nonzero;stroke:none"
       transform="matrix(1.1333333,0,0,-1.1333333,71.267785,123.48406)" />
    <path
       id="path27"
       d="M 3.3219779,-3.005921 C 3.3909118,-3.2678695 3.6115,-4.1915827 4.314625,-4.1915827 c 0.055147,0 0.2895221,0 0.4963235,0.1378676 -0.2757353,0.04136 -0.46875,0.2895221 -0.46875,0.5376838 0,0.1516545 0.096507,0.3446692 0.3722427,0.3446692 0.2205882,0 0.5376838,-0.179228 0.5376838,-0.5790442 0,-0.5101102 -0.5928309,-0.6617647 -0.9237132,-0.6617647 -0.5790442,0 -0.9237133,0.5376839 -1.0477942,0.7582721 C 3.0324559,-4.3018768 2.4947721,-4.412171 2.20525,-4.412171 c -1.0340074,0 -1.61305147,1.2959559 -1.61305147,1.5441177 0,0.096507 0.11029412,0.096507 0.12408088,0.096507 0.0827206,0 0.11029412,-0.013787 0.12408088,-0.1102941 C 1.1850294,-3.9434213 1.8467941,-4.191583 2.1776765,-4.191583 c 0.1930147,0 0.5376838,0.096507 0.5376838,0.6755514 0,0.3033089 -0.1654412,0.9788603 -0.5376838,2.3713236 -0.1516544,0.62040439 -0.5101103,1.03400733 -0.9375,1.03400733 -0.068934,0 -0.28952209,0 -0.49632356,-0.12408088 0.24816177,-0.0551471 0.45496326,-0.26194853 0.45496326,-0.53768382 0,-0.27573533 -0.20680149,-0.35845593 -0.35845591,-0.35845593 -0.30330882,0 -0.55147058,0.26194857 -0.55147058,0.57904416 0,0.45496324 0.49632353,0.66176471 0.93749999,0.66176471 0.6617647,0 1.0202206,-0.703125 1.0477941,-0.75827206 0.1240809,0.37224265 0.4825368,0.75827206 1.0753677,0.75827206 1.0202206,0 1.5992647,-1.28216917 1.5992647,-1.53033087 0,-0.1102941 -0.096507,-0.1102941 -0.1240809,-0.1102941 -0.096507,0 -0.1102941,0.04136 -0.1240809,0.1102941 -0.3308823,1.07536763 -1.0064338,1.30974263 -1.3373162,1.30974263 -0.3860294,0 -0.5376838,-0.31709559 -0.5376838,-0.6617647 0,-0.22058824 0.055147,-0.42738973 0.1654412,-0.86856623 z m 0,0"
       style="fill:#000000;fill-opacity:1;fill-rule:nonzero;stroke:none"
       aria-label="x"
       transform="matrix(1.1333333,0,0,1.1333333,11.844467,125.06687)" />
    <path
       id="path28"
       d="m 1.901875,-2.3285055 c 0.5514706,0 0.9375,0.3722426 0.9375,1.1167279 0,0.8685662 -0.4963235,1.13051473 -0.9099265,1.13051473 -0.2757353,0 -0.8961397,-0.08272059 -1.18566174,-0.48253676 0.33088234,-0.0275735 0.39981614,-0.24816177 0.39981614,-0.39981618 0,-0.22058819 -0.16544114,-0.38602939 -0.37224261,-0.38602939 -0.20680147,0 -0.39981617,0.1240809 -0.39981617,0.41360292 0,0.64797794 0.73069848,1.07536765 1.57169118,1.07536765 0.9788603,0 1.640625,-0.64797794 1.640625,-1.35110297 0,-0.5376838 -0.4411765,-1.0753676 -1.2132353,-1.2408088 0.7306985,-0.2619485 0.9926471,-0.7858456 0.9926471,-1.2132353 0,-0.5514706 -0.6341912,-0.9650735 -1.40625,-0.9650735 -0.7720589,0 -1.36488975,0.3722426 -1.36488975,0.9375 0,0.234375 0.15165441,0.3722426 0.35845589,0.3722426 0.22058826,0 0.35845586,-0.1654412 0.35845586,-0.3584559 0,-0.2068014 -0.1378676,-0.3446691 -0.35845586,-0.3584558 C 1.19875,-4.3551599 1.6812868,-4.4240938 1.9432353,-4.4240938 c 0.3033088,0 0.7444853,0.1516545 0.7444853,0.7582721 0,0.2895221 -0.096507,0.6066177 -0.2757353,0.8272059 -0.234375,0.2619485 -0.4273897,0.2757353 -0.7720588,0.3033088 -0.179228,0.013787 -0.1930147,0.013787 -0.2205883,0.013787 -0.013787,0 -0.068934,0.013787 -0.068934,0.096507 0,0.096507 0.055147,0.096507 0.179228,0.096507 z m 0,0"
       style="fill:#000000;fill-opacity:1;fill-rule:nonzero;stroke:none"
       aria-label="3"
       transform="matrix(1.1333333,0,0,1.1333333,18.297667,126.76007)" />
    <path
       id="path29"
       d="M 6.6724301,-7.8860294e-4 8.3268419,-6.5357151 h -0.9375 L 6.1898934,-1.2278107 4.7009228,-6.5357151 H 3.8047831 L 2.3571728,-1.2278107 1.1301507,-6.5357151 H 0.19265074 L 1.874636,-7.8860294e-4 H 2.7845625 L 4.2459596,-5.3638401 5.7487169,-7.8860294e-4 Z M 12.78686,-2.0963768 c 0,-0.7169118 -0.04136,-1.1443015 -0.179228,-1.5027574 -0.303308,-0.7720588 -1.02022,-1.2270221 -1.902573,-1.2270221 -1.3097428,0 -2.1507355,0.9926471 -2.1507355,2.5367648 0,1.5441176 0.8134191,2.49540437 2.1369485,2.49540437 1.075368,0 1.819853,-0.60661765 1.999081,-1.62683827 h -0.744485 c -0.206802,0.62040444 -0.634192,0.93750003 -1.227022,0.93750003 -0.482537,0 -0.8823534,-0.22058823 -1.1305151,-0.60661763 C 9.4091029,-1.3656783 9.3401691,-1.6276268 9.3401691,-2.0963768 Z M 9.3539559,-2.7029945 c 0.055147,-0.8685662 0.5928309,-1.4338235 1.3373161,-1.4338235 0.744485,0 1.309743,0.6066176 1.309743,1.3786765 0,0.013787 0,0.027573 -0.01379,0.055147 z m 5.1631431,-1.9990809 h -0.730698 v 4.70128679706 h 0.730698 z m 0,-1.8336397 h -0.744485 v 0.9375 h 0.744485 z m 4.349725,1.8336397 v 0.6893383 c -0.38603,-0.5514706 -0.840993,-0.8134192 -1.433824,-0.8134192 -1.199449,0 -1.999081,1.0340074 -1.999081,2.5643383 0,0.758272 0.206802,1.39246322 0.592831,1.83363969 0.344669,0.39981618 0.840993,0.63419118 1.337316,0.63419118 0.592831,0 1.006434,-0.24816177 1.433824,-0.84099265 v 0.234375 c 0,0.64797794 -0.08272,1.02022059 -0.275736,1.28216912 C 18.32914,1.1572996 17.94311,1.3227408 17.488147,1.3227408 c -0.344669,0 -0.647978,-0.082721 -0.854779,-0.2481618 C 16.467926,0.9367114 16.385206,0.81263051 16.343846,0.53689522 h -0.758272 c 0.08272,0.88235298 0.772058,1.42003678 1.875,1.42003678 0.689338,0 1.295955,-0.234375 1.599264,-0.6066177 0.358456,-0.42738967 0.496324,-1.02022055 0.496324,-2.12316173 V -4.7020754 Z m -1.351103,0.5652574 c 0.799632,0 1.282169,0.6755515 1.282169,1.8474265 0,1.1305147 -0.496324,1.80606613 -1.282169,1.80606613 -0.81342,0 -1.309743,-0.68933823 -1.309743,-1.83363973 0,-1.1305147 0.51011,-1.8198529 1.309743,-1.8198529 z m 3.260569,-2.3988971 v 6.53492649706 h 0.744486 V -2.5927004 c 0,-0.9512867 0.51011,-1.5854779 1.282169,-1.5854779 0.234375,0 0.482537,0.082721 0.661765,0.2205882 0.206801,0.1516544 0.303308,0.3722427 0.303308,0.703125 v 3.25367649706 h 0.744486 V -3.5439871 c 0,-0.7996324 -0.565258,-1.2821692 -1.475184,-1.2821692 -0.661765,0 -1.075368,0.2068015 -1.516544,0.7720589 v -2.4816177 z m 6.641774,1.8336397 H 26.646006 V -5.9842445 H 25.90152 v 1.2821691 h -0.634191 v 0.6204044 h 0.634191 v 3.54319857 c 0,0.46875 0.330883,0.7444853 0.909927,0.7444853 0.179228,0 0.358456,-0.0137868 0.606617,-0.0689338 v -0.62040441 c -0.09651,0.0275735 -0.220588,0.0413603 -0.358456,0.0413603 -0.317095,0 -0.413602,-0.0965074 -0.413602,-0.42738971 V -4.081671 h 0.772058 z m 4.14637,1.3097427 c -0.01379,-0.9237133 -0.620405,-1.4338236 -1.709559,-1.4338236 -1.089154,0 -1.792279,0.5652574 -1.792279,1.4338236 0,0.7306985 0.372242,1.0753676 1.475183,1.3511029 l 0.703125,0.1654412 c 0.523897,0.1240809 0.730699,0.3170956 0.730699,0.6617647 0,0.42738971 -0.441177,0.73069853 -1.102941,0.73069853 -0.399816,0 -0.730699,-0.12408088 -0.923713,-0.31709559 C 28.820868,-0.9382886 28.779507,-1.0623695 28.72436,-1.3932518 h -0.785845 c 0.04136,1.07536761 0.647978,1.59926467 1.875,1.59926467 1.185661,0 1.930147,-0.57904412 1.930147,-1.48897057 0,-0.703125 -0.38603,-1.0891544 -1.32353,-1.3097427 l -0.716911,-0.1654411 c -0.606618,-0.1516545 -0.868567,-0.3446692 -0.868567,-0.6755515 0,-0.4273897 0.38603,-0.703125 0.992647,-0.703125 0.606618,0 0.923714,0.2619485 0.9375,0.7444853 z m 0,0"
       style="fill:#000000;fill-opacity:1;fill-rule:nonzero;stroke:none"
       aria-label="Weights"
       transform="matrix(1.1333333,0,0,1.1333333,73.7426,11.0048)" />
    <path
       id="path30"
       d="M 1.7387426,-6.534568 H 0.89775 V 3.5845588e-4 h 0.8409926 z m 1.3752298,1.8336397 V 3.5845588e-4 H 3.8722445 V -2.5915533 c 0,-0.9512868 0.4963235,-1.585478 1.2683823,-1.585478 0.5928309,0 0.9788603,0.3584559 0.9788603,0.9237133 V 3.5845588e-4 H 6.8639724 V -3.5428401 c 0,-0.7858456 -0.5928309,-1.2821691 -1.4889706,-1.2821691 -0.703125,0 -1.1580882,0.2619485 -1.5579044,0.9237132 V -4.7009283 Z M 7.9600202,1.958079 h 0.7582721 v -2.45404407 c 0.3860294,0.48253676 0.8272059,0.703125 1.4338237,0.703125 1.213235,0 2.012867,-0.9788603 2.012867,-2.46783093 0,-1.5854779 -0.772058,-2.5643382 -2.012867,-2.5643382 -0.6341914,0 -1.1580884,0.2757353 -1.5027575,0.8409927 V -4.7009283 H 7.9600202 Z m 2.0680148,-6.09375 c 0.813419,0 1.351103,0.7306986 1.351103,1.8474265 0,1.0753677 -0.537684,1.79227943 -1.351103,1.79227943 -0.7996324,0 -1.3097427,-0.71691173 -1.3097427,-1.81985293 0,-1.1029412 0.5101103,-1.819853 1.3097427,-1.819853 z M 16.780103,3.5845588e-4 V -4.7009283 h -0.744485 v 2.6608456 c 0,0.9650735 -0.496324,1.59926469 -1.282169,1.59926469 -0.592831,0 -0.965074,-0.35845589 -0.965074,-0.92371329 v -3.336397 H 13.04389 v 3.6259191 c 0,0.7858456 0.579044,1.28216913 1.502757,1.28216913 0.689338,0 1.130515,-0.24816177 1.571691,-0.85477942 V 3.5845588e-4 Z M 19.723577,-4.7009283 h -0.772059 v -1.2821691 h -0.744485 v 1.2821691 h -0.634191 v 0.6204044 h 0.634191 v 3.54319853 c 0,0.46875 0.330882,0.7444853 0.909927,0.7444853 0.179227,0 0.358455,-0.0137868 0.606617,-0.0689338 v -0.62040441 c -0.09651,0.0275735 -0.220588,0.0413603 -0.358456,0.0413603 -0.317095,0 -0.413603,-0.0965074 -0.413603,-0.42738971 V -4.0805239 h 0.772059 z m 4.14637,1.3097426 c -0.01379,-0.9237132 -0.620405,-1.4338235 -1.709559,-1.4338235 -1.089155,0 -1.79228,0.5652574 -1.79228,1.4338235 0,0.7306986 0.372243,1.0753677 1.475184,1.351103 l 0.703125,0.1654412 c 0.523897,0.1240808 0.730699,0.3170955 0.730699,0.6617647 0,0.42738967 -0.441177,0.73069849 -1.102941,0.73069849 -0.399817,0 -0.730699,-0.12408088 -0.923714,-0.31709559 -0.12408,-0.13786764 -0.165441,-0.2619485 -0.220588,-0.5928309 h -0.785845 c 0.04136,1.07536767 0.647978,1.59926473 1.875,1.59926473 1.185661,0 1.930147,-0.57904412 1.930147,-1.48897063 0,-0.703125 -0.38603,-1.0891544 -1.32353,-1.3097426 l -0.716912,-0.1654412 c -0.606617,-0.1516544 -0.868566,-0.3446691 -0.868566,-0.6755515 0,-0.4273897 0.38603,-0.703125 0.992647,-0.703125 0.606618,0 0.923714,0.2619486 0.9375,0.7444853 z m 0,0"
       style="fill:#000000;fill-opacity:1;fill-rule:nonzero;stroke:none"
       aria-label="Inputs"
       transform="matrix(1.1333333,0,0,1.1333333,3.7638,11.066)" />
    <path
       id="path31"
       d="M -17.72603,-128.75977 H -56.69362"
       style="fill:none;stroke:#808080;stroke-width:0.99628;stroke-linecap:butt;stroke-linejoin:miter;stroke-miterlimit:10;stroke-dasharray:none;stroke-opacity:1"
       transform="matrix(1.1333333,0,0,-1.1333333,91.9428,38.659267)" />
    <path
       id="path32"
       d="M 5.20058,0 C 3.65962,0.28891 1.15567,1.15567 -0.57784,2.1669 V -2.1669 C 1.15567,-1.15567 3.65962,-0.28891 5.20058,0"
       style="fill:#808080;fill-opacity:1;fill-rule:nonzero;stroke:none"
       transform="matrix(1.1333333,0,0,-1.1333333,71.853299,184.58701)" />
    <path
       id="path33"
       d="m 3.3211728,-3.0057776 c 0.068934,-0.2619485 0.2895221,-1.1856617 0.9926471,-1.1856617 0.055147,0 0.289522,0 0.4963235,0.1378676 -0.2757353,0.04136 -0.46875,0.2895221 -0.46875,0.5376838 0,0.1516544 0.096507,0.3446691 0.3722426,0.3446691 0.2205883,0 0.5376839,-0.1792279 0.5376839,-0.5790441 0,-0.5101103 -0.5928309,-0.6617647 -0.9237133,-0.6617647 -0.5790441,0 -0.9237132,0.5376838 -1.0477941,0.7582721 -0.2481618,-0.647978 -0.7858456,-0.7582721 -1.0753676,-0.7582721 -1.0340074,0 -1.61305152,1.2959559 -1.61305152,1.5441177 0,0.096507 0.11029412,0.096507 0.12408088,0.096507 0.0827206,0 0.11029412,-0.013787 0.12408089,-0.1102941 0.34466915,-1.0615809 1.00643385,-1.3097426 1.33731615,-1.3097426 0.1930147,0 0.5376838,0.096507 0.5376838,0.6755514 0,0.3033089 -0.1654411,0.9788603 -0.5376838,2.3713236 -0.1516544,0.62040437 -0.5101103,1.03400731 -0.9375,1.03400731 -0.068934,0 -0.28952204,0 -0.49632351,-0.12408088 0.24816177,-0.0551471 0.45496321,-0.26194853 0.45496321,-0.53768382 0,-0.27573531 -0.20680144,-0.35845591 -0.35845585,-0.35845591 -0.30330883,0 -0.55147059,0.26194856 -0.55147059,0.57904414 0,0.45496324 0.49632353,0.66176471 0.93750004,0.66176471 0.6617647,0 1.0202205,-0.703125 1.0477941,-0.75827206 0.1240809,0.37224265 0.4825367,0.75827206 1.0753676,0.75827206 1.0202206,0 1.5992647,-1.28216915 1.5992647,-1.53033085 0,-0.1102942 -0.096507,-0.1102942 -0.1240809,-0.1102942 -0.096507,0 -0.1102941,0.04136 -0.1240808,0.1102942 -0.3308824,1.07536761 -1.0064339,1.30974261 -1.3373162,1.30974261 -0.3860294,0 -0.5376838,-0.31709558 -0.5376838,-0.6617647 0,-0.22058824 0.055147,-0.42738971 0.1654411,-0.86856621 z m 0,0"
       style="fill:#000000;fill-opacity:1;fill-rule:nonzero;stroke:none"
       aria-label="x"
       transform="matrix(1.1333333,0,0,1.1333333,13.150067,186.16827)" />
    <path
       id="path34"
       d="m 2.2595257,-4.3560165 c 0,-0.1102942 -0.082721,-0.2619486 -0.2757353,-0.2619486 -0.1930147,0 -0.3998161,0.179228 -0.3998161,0.3722427 0,0.1240809 0.096507,0.2757353 0.289522,0.2757353 0.1930147,0 0.3860294,-0.2068015 0.3860294,-0.3860294 z m -1.42003673,3.54319849 c -0.0275735,0.0827206 -0.0689338,0.16544117 -0.0689338,0.28952205 0,0.33088236 0.27573523,0.59283089 0.66176473,0.59283089 0.703125,0 1.0064338,-0.96507353 1.0064338,-1.06158089 0,-0.0965073 -0.082721,-0.0965073 -0.1102941,-0.0965073 -0.096507,0 -0.1102942,0.04136 -0.1378677,0.12408091 -0.1516544,0.55147059 -0.46875,0.84099265 -0.7306985,0.84099265 -0.1378677,0 -0.179228,-0.0965074 -0.179228,-0.24816176 0,-0.15165442 0.055147,-0.28952206 0.1102942,-0.44117647 0.068934,-0.19301473 0.1516544,-0.38602943 0.2205882,-0.56525743 0.068934,-0.1654411 0.3170956,-0.7996323 0.3446691,-0.8823529 0.027573,-0.068934 0.04136,-0.1516544 0.04136,-0.2205882 0,-0.3308824 -0.2757353,-0.5928309 -0.6617647,-0.5928309 -0.68933822,0 -1.0064338,0.9512867 -1.0064338,1.0615809 0,0.096507 0.0965074,0.096507 0.11029411,0.096507 0.0965074,0 0.11029412,-0.04136 0.12408089,-0.1102941 0.1930147,-0.6066177 0.4963235,-0.8547794 0.758272,-0.8547794 0.1102942,0 0.1654412,0.055147 0.1654412,0.2481617 0,0.1516545 -0.04136,0.2619486 -0.2068015,0.6893383 z m 0,0"
       style="fill:#000000;fill-opacity:1;fill-rule:nonzero;stroke:none"
       aria-label="i"
       transform="matrix(1.1333333,0,0,1.1333333,19.603267,187.8626)" />
    <path
       id="path35"
       d="m 3.0485037,-1.2424743 c 0,-0.6755514 -0.5514706,-1.2132353 -1.2132353,-1.2132353 -0.6755515,0 -1.21323531,0.5376839 -1.21323531,1.2132353 0,0.66176474 0.53768381,1.19944856 1.21323531,1.19944856 0.6617647,0 1.2132353,-0.53768382 1.2132353,-1.19944856 z m 6.0179228,0 c 0,-0.6755514 -0.5514706,-1.2132353 -1.2132353,-1.2132353 -0.6755515,0 -1.2132353,0.5376839 -1.2132353,1.2132353 0,0.66176474 0.5376838,1.19944856 1.2132353,1.19944856 0.6617647,0 1.2132353,-0.53768382 1.2132353,-1.19944856 z m 6.0179225,0 c 0,-0.6755514 -0.55147,-1.2132353 -1.213235,-1.2132353 -0.675552,0 -1.213235,0.5376839 -1.213235,1.2132353 0,0.66176474 0.537683,1.19944856 1.213235,1.19944856 0.661765,0 1.213235,-0.53768382 1.213235,-1.19944856 z m 0,0"
       style="fill:#000000;fill-opacity:1;fill-rule:nonzero;stroke:none"
       aria-label="•••"
       transform="matrix(0,-1.1333333,1.1333333,0,19.3222,162.93153)" />
    <path
       id="path36"
       d="m 91.08337,-64.37987 c 0,9.39342 -7.61465,17.00807 -17.00807,17.00807 -9.39343,0 -17.00809,-7.61465 -17.00809,-17.00807 0,-9.39343 7.61466,-17.00808 17.00809,-17.00808 9.39342,0 17.00807,7.61465 17.00807,17.00808 z"
       style="fill:#fde2f0;fill-opacity:1;fill-rule:nonzero;stroke:#c9146e;stroke-width:0.74721;stroke-linecap:butt;stroke-linejoin:miter;stroke-miterlimit:10;stroke-dasharray:none;stroke-opacity:1"
       transform="matrix(1.1333333,0,0,-1.1333333,91.9428,38.659267)" />
    <path
       id="path37"
       d="M 4.1905827,5.3223051 0.66117096,9.6927096 c -0.0827206,0.1102941 -0.0965074,0.1240808 -0.0965074,0.1654411 0,0.1102942 0.0965074,0.1102942 0.2757353,0.1102942 H 9.098671 L 9.9534504,7.4868272 H 9.7052886 C 9.4571268,8.2313125 8.7953621,8.8379301 7.9405827,9.1274522 7.7889283,9.1825993 7.0995901,9.4169743 5.6244063,9.4169743 H 1.3918695 L 4.8523474,5.1430772 c 0.068934,-0.082721 0.096507,-0.1240809 0.096507,-0.1516544 0,-0.04136 -0.013787,-0.055147 -0.068934,-0.1516544 L 1.6400313,0.40043015 H 5.583046 c 1.1305147,0 3.4329044,0.0689338 4.1222426,1.93014705 H 9.9534504 L 9.098671,6.1397059e-4 H 0.8403989 c -0.2757353,0 -0.28952206,0.0137867694 -0.28952206,0.31709558941 z m 0,0"
       style="fill:#000000;fill-opacity:1;fill-rule:nonzero;stroke:none"
       aria-label="P"
       transform="matrix(1.1333333,0,0,1.1333333,169.93427,105.97587)" />
    <path
       id="path38"
       d="m 9.84364,-8.55527 47.18747,-41.0112"
       style="fill:none;stroke:#808080;stroke-width:0.99628;stroke-linecap:butt;stroke-linejoin:miter;stroke-miterlimit:10;stroke-dasharray:none;stroke-opacity:1"
       transform="matrix(1.1333333,0,0,-1.1333333,91.9428,38.659267)" />
    <path
       id="path39"
       d="M 5.20058,0 C 3.65962,0.28891 1.15567,1.15567 -0.57784,2.1669 V -2.1669 C 1.15567,-1.15567 3.65962,-0.28891 5.20058,0"
       style="fill:#808080;fill-opacity:1;fill-rule:nonzero;stroke:none"
       transform="matrix(0.85539467,0.743444,0.743444,-0.85539467,156.57805,94.834599)" />
    <path
       id="path40"
       d="M 12.2556,-41.88263 52.85483,-56.65755"
       style="fill:none;stroke:#808080;stroke-width:0.99628;stroke-linecap:butt;stroke-linejoin:miter;stroke-miterlimit:10;stroke-dasharray:none;stroke-opacity:1"
       transform="matrix(1.1333333,0,0,-1.1333333,91.9428,38.659267)" />
    <path
       id="path41"
       d="M 5.20058,0 C 3.65962,0.28891 1.15567,1.15567 -0.57784,2.1669 V -2.1669 C 1.15567,-1.15567 3.65962,-0.28891 5.20058,0"
       style="fill:#808080;fill-opacity:1;fill-rule:nonzero;stroke:none"
       transform="matrix(1.0649933,0.38755467,0.38755467,-1.0649933,151.84492,102.87113)" />
    <path
       id="path42"
       d="m 12.91351,-73.02113 38.80214,5.48237"
       style="fill:none;stroke:#808080;stroke-width:0.99628;stroke-linecap:butt;stroke-linejoin:miter;stroke-miterlimit:10;stroke-dasharray:none;stroke-opacity:1"
       transform="matrix(1.1333333,0,0,-1.1333333,91.9428,38.659267)" />
    <path
       id="path43"
       d="M 5.20058,0 C 3.65962,0.28891 1.15567,1.15567 -0.57784,2.1669 V -2.1669 C 1.15567,-1.15567 3.65962,-0.28891 5.20058,0"
       style="fill:#808080;fill-opacity:1;fill-rule:nonzero;stroke:none"
       transform="matrix(1.1221587,-0.15856467,-0.15856467,-1.1221587,150.55386,115.20319)" />
    <path
       id="path44"
       d="m 9.4537,-120.54338 47.57741,41.35011"
       style="fill:none;stroke:#808080;stroke-width:0.99628;stroke-linecap:butt;stroke-linejoin:miter;stroke-miterlimit:10;stroke-dasharray:none;stroke-opacity:1"
       transform="matrix(1.1333333,0,0,-1.1333333,91.9428,38.659267)" />
    <path
       id="path45"
       d="M 5.20058,0 C 3.65962,0.28891 1.15567,1.15567 -0.57784,2.1669 V -2.1669 C 1.15567,-1.15567 3.65962,-0.28891 5.20058,0"
       style="fill:#808080;fill-opacity:1;fill-rule:nonzero;stroke:none"
       transform="matrix(0.85539467,-0.743444,-0.743444,-0.85539467,156.57805,128.41164)" />
    <path
       id="path46"
       d="m 128.68152,-79.97061 h 31.18147 v 31.18147 h -31.18147 z"
       style="fill:#d1f3ff;fill-opacity:1;fill-rule:nonzero;stroke:#2294bd;stroke-width:0.74721;stroke-linecap:butt;stroke-linejoin:miter;stroke-miterlimit:10;stroke-dasharray:none;stroke-opacity:1"
       transform="matrix(1.1333333,0,0,-1.1333333,91.9428,38.659267)" />
    <path
       id="path47"
       d="m 10.490774,-7.788761 c 0.275735,0 0.951287,0 0.951287,-0.6617647 0,-0.4549633 -0.38603,-0.4549633 -0.758272,-0.4549633 H 6.1203695 c -3.1020221,0 -5.33547796,3.4466912 -5.33547796,5.8869486 0,1.7647058 1.13051476,3.2261029 2.99172796,3.2261029 2.4402573,0 5.1148897,-2.6194853 5.1148897,-5.7215074 0,-0.8134191 -0.1930147,-1.5992647 -0.6893382,-2.2748161 z m -6.686581,7.58272056 c -1.0615809,0 -1.8198529,-0.79963236 -1.8198529,-2.23345586 0,-1.2408088 0.7444853,-5.3492647 3.7775735,-5.3492647 0.8961397,0 1.8887868,0.4273897 1.8887868,2.0266544 0,0.7169117 -0.3308824,2.4540441 -1.0615809,3.6534926 -0.7444853,1.22702209 -1.8612132,1.90257356 -2.7849265,1.90257356 z m 0,0"
       style="fill:#000000;fill-opacity:1;fill-rule:nonzero;stroke:none"
       aria-label="σ"
       transform="matrix(1.1333333,0,0,1.1333333,248.5128,116.6632)" />
    <path
       id="path48"
       d="m 91.45699,-64.37987 h 31.65034"
       style="fill:none;stroke:#808080;stroke-width:0.99628;stroke-linecap:butt;stroke-linejoin:miter;stroke-miterlimit:10;stroke-dasharray:none;stroke-opacity:1"
       transform="matrix(1.1333333,0,0,-1.1333333,91.9428,38.659267)" />
    <path
       id="path49"
       d="M 5.20058,0 C 3.65962,0.28891 1.15567,1.15567 -0.57784,2.1669 V -2.1669 C 1.15567,-1.15567 3.65962,-0.28891 5.20058,0"
       style="fill:#808080;fill-opacity:1;fill-rule:nonzero;stroke:none"
       transform="matrix(1.1333333,0,0,-1.1333333,231.46444,111.62312)" />
    <path
       id="path50"
       d="M 1.3244963,-0.82805699 C 1.8621801,-1.4071011 2.1517022,-1.6552629 2.5101581,-1.9585717 c 0,-0.013787 0.6204044,-0.5376838 0.9788603,-0.9099265 0.9512867,-0.9237132 1.171875,-1.3924632 1.171875,-1.4338235 0,-0.1102941 -0.096507,-0.1102941 -0.1102941,-0.1102941 -0.068934,0 -0.1102942,0.027573 -0.1516544,0.1102941 -0.3033089,0.4825368 -0.5101103,0.6479779 -0.7444853,0.6479779 -0.2481618,0 -0.3584559,-0.1516544 -0.5101103,-0.3170955 -0.1930147,-0.234375 -0.3584559,-0.4411765 -0.6893383,-0.4411765 -0.7444853,0 -1.2132353,0.9375 -1.2132353,1.1443015 0,0.04136 0.04136,0.1102941 0.1240809,0.1102941 0.096507,0 0.1102941,-0.055147 0.1240809,-0.1102941 0.1930147,-0.4549633 0.7720588,-0.46875 0.8547794,-0.46875 0.2068015,0 0.3998162,0.068934 0.6204044,0.1516544 0.3998162,0.1516544 0.5101103,0.1516544 0.7720588,0.1516544 -0.3584558,0.4273897 -1.1994485,1.1443015 -1.3786764,1.2959559 L 1.462364,-1.296807 c -0.68933826,0.66176472 -1.03400738,1.24080884 -1.03400738,1.30974266 0,0.09650735 0.0965073,0.09650735 0.12408088,0.09650735 0.0827206,0 0.0965073,-0.01378676 0.15165441,-0.12408088 0.234375,-0.35845588 0.53768379,-0.62040441 0.85477939,-0.62040441 0.2205883,0 0.3308824,0.0827206 0.5790441,0.37224265 0.1654412,0.20680147 0.3446692,0.37224264 0.6341912,0.37224264 0.9926471,0 1.5716912,-1.26838231 1.5716912,-1.53033091 0,-0.055147 -0.04136,-0.1102941 -0.1240809,-0.1102941 -0.096507,0 -0.1102941,0.068934 -0.1378676,0.1378677 -0.234375,0.6479779 -0.8685662,0.84099261 -1.1994486,0.84099261 -0.2068014,0 -0.3860294,-0.0689338 -0.5928308,-0.13786765 -0.3308824,-0.12408088 -0.4825368,-0.16544117 -0.6893383,-0.16544117 -0.027574,0 -0.1792279,0 -0.2757353,0.0275735 z m 0,0"
       style="fill:#000000;fill-opacity:1;fill-rule:nonzero;stroke:none"
       aria-label="z"
       transform="matrix(1.1333333,0,0,1.1333333,213.60047,107.29393)" />
    <path
       id="path51"
       d="m 74.0753,-86.96213 v -27.02466"
       style="fill:none;stroke:#808080;stroke-width:0.99628;stroke-linecap:butt;stroke-linejoin:miter;stroke-miterlimit:10;stroke-dasharray:none;stroke-opacity:1"
       transform="matrix(1.1333333,0,0,-1.1333333,91.9428,38.659267)" />
    <path
       id="path52"
       d="M 5.20058,0 C 3.65962,0.28891 1.15567,1.15567 -0.57784,2.1669 V -2.1669 C 1.15567,-1.15567 3.65962,-0.28891 5.20058,0"
       style="fill:#808080;fill-opacity:1;fill-rule:nonzero;stroke:none"
       transform="matrix(0,-1.1333333,-1.1333333,0,175.89481,137.21635)" />
    <path
       id="path53"
       d="m 2.1379393,-5.9151324 c 0.04136,-0.1240808 0.04136,-0.1378676 0.04136,-0.1792279 0,-0.082721 -0.055147,-0.1240809 -0.1378676,-0.1240809 -0.1240809,0 -0.9099265,0.068934 -1.08915443,0.082721 -0.0965073,0.013787 -0.1930147,0.027573 -0.1930147,0.179228 0,0.1102941 0.0965073,0.1102941 0.24816173,0.1102941 0.413603,0 0.413603,0.068934 0.413603,0.1516544 0,0.055147 0,0.068934 -0.055147,0.3033088 l -0.48253675,1.9025735 c -0.12408088,0.4963236 -0.234375,0.9512868 -0.33088235,1.3786765 -0.0689338,0.2205882 -0.12408089,0.4825368 -0.12408089,0.7720588 0,0.77205885 0.42738971,1.43382356 1.19944849,1.43382356 1.0477942,0 2.1920956,-1.25459556 2.1920956,-2.60569856 0,-0.9099264 -0.5652573,-1.4476103 -1.2408088,-1.4476103 -0.4549632,0 -0.8547794,0.3033089 -1.0615809,0.5101103 z M 1.393454,-2.9371912 c 0.2619486,-0.3584559 0.7169118,-0.7996323 1.171875,-0.7996323 0.413603,0 0.5928309,0.4273897 0.5928309,0.8409926 0,0.3998162 -0.2481617,1.5165441 -0.5376838,1.98529414 -0.3308823,0.57904411 -0.7169118,0.78584558 -0.9926471,0.78584558 -0.4549632,0 -0.63419113,-0.45496323 -0.63419113,-0.90992642 0,-0.3033089 0.0689338,-0.5514706 0.27573533,-1.3648898 z m 0,0"
       style="fill:#000000;fill-opacity:1;fill-rule:nonzero;stroke:none"
       aria-label="b"
       transform="matrix(1.1333333,0,0,1.1333333,180.22153,153.11007)" />
    <path
       id="path54"
       d="M 0.70405331,-3.8602941e-5 H 3.654421 c 0.6204044,0 1.0753676,-0.165441177059 1.4338235,-0.551470587059 0.3170956,-0.33088235 0.4963235,-0.79963231 0.4963235,-1.30974261 0,-0.7858456 -0.3584559,-1.2683824 -1.1994485,-1.585478 0.5928309,-0.2757353 0.9099265,-0.758272 0.9099265,-1.4338235 0,-0.46875 -0.179228,-0.8961397 -0.5238971,-1.1994485 -0.3308824,-0.3033089 -0.7858456,-0.4549633 -1.40625,-0.4549633 H 0.70405331 Z M 1.545046,-3.7224651 v -2.0818014 h 1.6130514 c 0.46875,0 0.7169118,0.068934 0.9512868,0.234375 0.234375,0.1792279 0.3584559,0.4549632 0.3584559,0.8134191 0,0.3446691 -0.1240809,0.6204044 -0.3584559,0.7996323 -0.234375,0.179228 -0.4825368,0.234375 -0.9512868,0.234375 z m 0,2.99172797 V -2.9779798 h 2.0266544 c 0.4136029,0 0.6755514,0.096507 0.8685661,0.3033088 0.2068015,0.2068015 0.3033089,0.4963236 0.3033089,0.8134192 0,0.3170955 -0.096507,0.6066176 -0.3033089,0.8134191 -0.1930147,0.22058821 -0.4549632,0.31709557 -0.8685661,0.31709557 z M 7.3182537,-4.7013254 H 6.5875551 V -3.8602941e-5 h 0.7306986 z m 0,-1.8336397 H 6.5737684 v 0.9375 h 0.7444853 z m 5.4492183,6.09375003 c -0.08272,0.0137868 -0.12408,0.0137868 -0.165441,0.0137868 -0.261948,0 -0.399816,-0.12408088 -0.399816,-0.35845588 V -3.5432371 c 0,-0.8409927 -0.606618,-1.2821692 -1.764706,-1.2821692 -0.689338,0 -1.2545954,0.1930148 -1.5579042,0.5376839 -0.2205883,0.2481617 -0.3033088,0.5101103 -0.3308824,0.9788603 h 0.7582721 c 0.055147,-0.5652574 0.3998162,-0.8272059 1.1029415,-0.8272059 0.675551,0 1.047794,0.2481617 1.047794,0.6893382 v 0.2068015 c 0,0.3033088 -0.193015,0.4411765 -0.785846,0.5101103 -1.0477939,0.1378676 -1.2132351,0.1792279 -1.5027572,0.289522 -0.5514705,0.2205883 -0.8272058,0.647978 -0.8272058,1.2545956 0,0.85477944 0.5928308,1.39246327 1.5441176,1.39246327 0.5928304,0 1.0615804,-0.206801472941 1.5992644,-0.68933824 0.05515,0.46875 0.289522,0.68933824 0.772059,0.68933824 0.151655,0 0.261949,-0.0137868 0.51011,-0.0827206 z M 11.45773,-1.4752224 c 0,0.2481617 -0.06893,0.3998161 -0.303309,0.60661762 -0.303309,0.27573529 -0.661765,0.42738971 -1.102941,0.42738971 -0.5790443,0 -0.9237135,-0.28952206 -0.9237135,-0.75827203 0,-0.4963236 0.3308824,-0.7444853 1.1305145,-0.8547794 0.785846,-0.1102942 0.951287,-0.1516545 1.199449,-0.2619486 z m 5.428538,-1.9163603 c -0.01379,-0.9237133 -0.620404,-1.4338236 -1.709558,-1.4338236 -1.089155,0 -1.79228,0.5652574 -1.79228,1.4338236 0,0.7306985 0.372243,1.0753676 1.475184,1.3511029 l 0.703125,0.1654412 c 0.523897,0.1240809 0.730699,0.3170956 0.730699,0.6617647 0,0.42738971 -0.441177,0.73069853 -1.102942,0.73069853 -0.399816,0 -0.730698,-0.12408088 -0.923713,-0.31709559 C 14.142702,-0.9375386 14.101342,-1.0616195 14.046195,-1.3925018 h -0.785846 c 0.04136,1.07536761 0.647978,1.59926467 1.875,1.59926467 1.185662,0 1.930147,-0.57904412 1.930147,-1.48897057 0,-0.703125 -0.386029,-1.0891544 -1.323529,-1.3097427 l -0.716912,-0.1654411 c -0.606617,-0.1516545 -0.868566,-0.3446692 -0.868566,-0.6755515 0,-0.4273897 0.386029,-0.703125 0.992647,-0.703125 0.606618,0 0.923713,0.2619485 0.9375,0.7444853 z m 0,0"
       style="fill:#000000;fill-opacity:1;fill-rule:nonzero;stroke:none"
       aria-label="Bias"
       transform="matrix(1.1333333,0,0,1.1333333,166.01067,179.4102)" />
    <path
       id="path55"
       d="m 160.2366,-64.37987 h 28.44199"
       style="fill:none;stroke:#808080;stroke-width:0.99628;stroke-linecap:butt;stroke-linejoin:miter;stroke-miterlimit:10;stroke-dasharray:none;stroke-opacity:1"
       transform="matrix(1.1333333,0,0,-1.1333333,91.9428,38.659267)" />
    <path
       id="path56"
       d="M 5.20058,0 C 3.65962,0.28891 1.15567,1.15567 -0.57784,2.1669 V -2.1669 C 1.15567,-1.15567 3.65962,-0.28891 5.20058,0"
       style="fill:#808080;fill-opacity:1;fill-rule:nonzero;stroke:none"
       transform="matrix(1.1333333,0,0,-1.1333333,305.77854,111.62312)" />
    <path
       id="path57"
       d="m 2.4963787,-6.9199154 -1.3373162,1.3648897 0.1792279,0.1792279 1.1580883,-1.0202206 1.1443014,1.0202206 0.179228,-0.1792279 z m 0,0"
       style="fill:#000000;fill-opacity:1;fill-rule:nonzero;stroke:none"
       aria-label="ˆ"
       transform="matrix(1.1333333,0,0,1.1333333,316.77233,114.44413)" />
    <path
       id="path58"
       d="m 4.8382371,-3.7903199 c 0.04136,-0.1516544 0.04136,-0.1654411 0.04136,-0.234375 0,-0.1792279 -0.1378676,-0.2757352 -0.289522,-0.2757352 -0.096507,0 -0.2481618,0.068934 -0.3446691,0.2205882 -0.013787,0.04136 -0.096507,0.3584559 -0.1378677,0.5376838 -0.068934,0.2481618 -0.1378676,0.5238971 -0.2068015,0.7858456 l -0.4411764,1.80606618 c -0.04136,0.13786764 -0.46875,0.84099264 -1.1305147,0.84099264 -0.5101103,0 -0.6204045,-0.44117647 -0.6204045,-0.81341911 0,-0.45496321 0.179228,-1.07536761 0.5101103,-1.94393381 0.1654412,-0.413603 0.2068015,-0.5238971 0.2068015,-0.7169118 0,-0.4549632 -0.3170956,-0.8272059 -0.8272059,-0.8272059 -0.93749997,0 -1.30974262,1.4476103 -1.30974262,1.5441177 0,0.096507 0.0965073,0.096507 0.12408088,0.096507 0.0965073,0 0.11029412,-0.013787 0.15165441,-0.1792279 0.2757353,-0.9375 0.67555143,-1.2408088 1.00643383,-1.2408088 0.082721,0 0.2481618,0 0.2481618,0.3170956 0,0.2619485 -0.096507,0.5101103 -0.1654412,0.703125 -0.3998162,1.0615808 -0.5790441,1.6268382 -0.5790441,2.0955882 0,0.88235294 0.6341911,1.18566176 1.2132353,1.18566176 0.3860294,0 0.7306985,-0.16544118 1.0064338,-0.45496324 C 3.1700386,0.18026838 3.0459577,0.66280515 2.6461415,1.200489 2.3979798,1.5313713 2.0119504,1.8208934 1.5569871,1.8208934 c -0.1378676,0 -0.59283085,-0.027574 -0.75827203,-0.413603 0.15165442,0 0.28952203,0 0.42738973,-0.1240808 0.096507,-0.082721 0.1930147,-0.2205883 0.1930147,-0.39981622 0,-0.31709559 -0.2619485,-0.35845588 -0.3584559,-0.35845588 -0.234375,0 -0.56525735,0.16544118 -0.56525735,0.6479779 0,0.4963236 0.44117647,0.8685662 1.06158085,0.8685662 1.0202206,0 2.054228,-0.9099265 2.3299633,-2.02665439 z m 0,0"
       style="fill:#000000;fill-opacity:1;fill-rule:nonzero;stroke:none"
       aria-label="y"
       transform="matrix(1.1333333,0,0,1.1333333,315.99713,114.44413)" />
    <path
       id="path59"
       d="m 3.4877371,-6.6468768 c -1.875,0 -3.14338232,1.3786764 -3.14338232,3.4329044 0,2.0404411 1.26838232,3.41911762 3.14338232,3.41911762 0.7996324,0 1.5027574,-0.24816176 2.0266544,-0.68933823 0.7169118,-0.60661769 1.1305147,-1.61305149 1.1305147,-2.67463239 0,-2.109375 -1.2408088,-3.4880514 -3.1571691,-3.4880514 z m 0,0.7444853 c 1.4200368,0 2.3299633,1.0753676 2.3299633,2.7159926 0,1.5854779 -0.9375,2.66084559 -2.3299633,2.66084559 -1.3786764,0 -2.3161764,-1.07536769 -2.3161764,-2.68841909 0,-1.6130515 0.9375,-2.6884191 2.3161764,-2.6884191 z m 7.8033089,5.90073525 V -4.702943 h -0.744485 v 2.6608456 c 0,0.9650735 -0.496324,1.59926468 -1.2821695,1.59926468 -0.5928308,0 -0.9650735,-0.35845588 -0.9650735,-0.92371328 V -4.702943 H 7.5548327 v 3.6259191 c 0,0.78584559 0.5790441,1.28216912 1.5027574,1.28216912 0.6893382,0 1.1305149,-0.24816176 1.5716909,-0.85477941 v 0.64797794 z M 14.23452,-4.702943 h -0.772059 v -1.2821691 h -0.744485 v 1.2821691 h -0.634191 v 0.6204044 h 0.634191 v 3.54319853 c 0,0.46875 0.330882,0.74448529 0.909927,0.74448529 0.179228,0 0.358455,-0.0137868 0.606617,-0.0689338 v -0.62040441 c -0.09651,0.0275735 -0.220588,0.0413603 -0.358456,0.0413603 -0.317095,0 -0.413603,-0.0965073 -0.413603,-0.42738971 v -3.2123162 h 0.772059 z m 0.703125,6.6590073 h 0.758272 v -2.45404408 c 0.38603,0.48253677 0.827206,0.703125 1.433824,0.703125 1.213235,0 2.012867,-0.97886029 2.012867,-2.46783092 0,-1.5854779 -0.772058,-2.5643382 -2.012867,-2.5643382 -0.634191,0 -1.158088,0.2757353 -1.502758,0.8409926 V -4.702943 h -0.689338 z m 2.068015,-6.09375 c 0.813419,0 1.351103,0.7306986 1.351103,1.8474265 0,1.0753677 -0.537684,1.79227942 -1.351103,1.79227942 -0.799632,0 -1.309743,-0.71691172 -1.309743,-1.81985292 0,-1.1029412 0.510111,-1.819853 1.309743,-1.819853 z m 6.748621,4.13602945 V -4.702943 h -0.744485 v 2.6608456 c 0,0.9650735 -0.496324,1.59926468 -1.282169,1.59926468 -0.592831,0 -0.965074,-0.35845588 -0.965074,-0.92371328 v -3.336397 h -0.744485 v 3.6259191 c 0,0.78584559 0.579044,1.28216912 1.502757,1.28216912 0.689339,0 1.130515,-0.24816176 1.571692,-0.85477941 v 0.64797794 z M 26.697756,-4.702943 H 25.925697 V -5.9851121 H 25.181211 V -4.702943 H 24.54702 v 0.6204044 h 0.634191 v 3.54319853 c 0,0.46875 0.330883,0.74448529 0.909927,0.74448529 0.179228,0 0.358456,-0.0137868 0.606618,-0.0689338 v -0.62040441 c -0.09651,0.0275735 -0.220589,0.0413603 -0.358456,0.0413603 -0.317096,0 -0.413603,-0.0965073 -0.413603,-0.42738971 v -3.2123162 h 0.772059 z m 0,0"
       style="fill:#000000;fill-opacity:1;fill-rule:nonzero;stroke:none"
       aria-label="Output"
       transform="matrix(1.1333333,0,0,1.1333333,303.7152,83.099533)" />
    <path
       id="path60"
       d="m 4.2465423,-1.9590055 0.6755515,1.95772057 H 5.845807 L 3.557204,-6.5362114 H 2.4818364 L 0.15187316,-0.00128493 H 1.0342261 L 1.7235643,-1.9590055 Z m -0.234375,-0.703125 H 1.9303658 L 3.0057335,-5.6400717 Z M 10.198978,-3.1170938 C 10.171404,-3.572057 10.06111,-3.8753658 9.8818824,-4.1373143 9.5647868,-4.564704 8.9995294,-4.8266526 8.3515515,-4.8266526 c -1.2683824,0 -2.0955883,0.9926471 -2.0955883,2.5643383 0,1.50275731 0.8134192,2.46783084 2.0818015,2.46783084 1.1167279,0 1.8336393,-0.67555147 1.9163603,-1.81985294 H 9.4958529 c -0.1240808,0.75827206 -0.5101103,1.13051471 -1.1443014,1.13051471 -0.8272059,0 -1.3097427,-0.67555151 -1.3097427,-1.77849261 0,-1.1856618 0.4825368,-1.875 1.2959559,-1.875 0.6204044,0 1.0202206,0.3584558 1.1167279,1.0202205 z m 2.540211,-1.5854779 h -0.772058 v -1.2821691 h -0.744486 v 1.2821691 h -0.634191 v 0.6204044 h 0.634191 v 3.54319855 c 0,0.46875 0.330883,0.74448529 0.909927,0.74448529 0.179228,0 0.358456,-0.0137868 0.606617,-0.0689338 v -0.62040441 c -0.09651,0.0275735 -0.220588,0.0413603 -0.358456,0.0413603 -0.317095,0 -0.413602,-0.0965073 -0.413602,-0.4273897 V -4.0821673 h 0.772058 z m 1.554458,0 h -0.730698 v 4.70128677 h 0.730698 z m 0,-1.8336397 h -0.744485 v 0.9375 h 0.744485 z m 3.205423,6.53492647 1.806066,-4.70128677 h -0.840993 l -1.323529,3.81893383 -1.254596,-3.81893383 h -0.854779 l 1.654412,4.70128677 z m 6.503906,-0.44117647 c -0.08272,0.0137868 -0.124081,0.0137868 -0.165441,0.0137868 -0.261949,0 -0.399816,-0.12408088 -0.399816,-0.35845588 V -3.5444835 c 0,-0.8409926 -0.606618,-1.2821691 -1.764706,-1.2821691 -0.689338,0 -1.254596,0.1930147 -1.557905,0.5376838 -0.220588,0.2481618 -0.303308,0.5101103 -0.330882,0.9788603 h 0.758272 c 0.05515,-0.5652573 0.399816,-0.8272058 1.102941,-0.8272058 0.675552,0 1.047794,0.2481617 1.047794,0.6893382 v 0.2068015 c 0,0.3033088 -0.193014,0.4411764 -0.785845,0.5101103 -1.047794,0.1378676 -1.213235,0.1792279 -1.502757,0.289522 -0.551471,0.2205883 -0.827206,0.647978 -0.827206,1.2545956 0,0.85477942 0.592831,1.39246324 1.544117,1.39246324 0.592831,0 1.061581,-0.20680147 1.599265,-0.68933823 0.05515,0.46875 0.289522,0.68933823 0.772059,0.68933823 0.151654,0 0.261948,-0.0137868 0.51011,-0.0827206 z m -1.309743,-1.0340074 c 0,0.2481618 -0.06893,0.3998162 -0.303308,0.6066177 -0.303309,0.27573529 -0.661765,0.4273897 -1.102942,0.4273897 -0.579044,0 -0.923713,-0.28952206 -0.923713,-0.7582721 0,-0.4963235 0.330883,-0.7444853 1.130515,-0.8547794 0.785846,-0.1102941 0.951287,-0.1516544 1.199448,-0.2619485 z m 3.774127,-3.2261029 h -0.772059 v -1.2821691 h -0.744485 v 1.2821691 h -0.634191 v 0.6204044 h 0.634191 v 3.54319855 c 0,0.46875 0.330883,0.74448529 0.909927,0.74448529 0.179228,0 0.358456,-0.0137868 0.606617,-0.0689338 v -0.62040441 c -0.09651,0.0275735 -0.220588,0.0413603 -0.358456,0.0413603 -0.317095,0 -0.413603,-0.0965073 -0.413603,-0.4273897 V -4.0821673 h 0.772059 z m 1.554458,0 h -0.730699 v 4.70128677 h 0.730699 z m 0,-1.8336397 h -0.744485 v 0.9375 h 0.744485 z m 3.091682,1.7095588 c -1.323529,0 -2.123162,0.9375 -2.123162,2.5091912 0,1.58547794 0.799633,2.52297794 2.123162,2.52297794 1.323529,0 2.123162,-0.9375 2.123162,-2.48161764 0,-1.6268382 -0.772059,-2.5505515 -2.123162,-2.5505515 z m 0,0.6893383 c 0.854779,0 1.351103,0.6893382 1.351103,1.8474264 0,1.1029412 -0.523897,1.80606621 -1.351103,1.80606621 -0.827206,0 -1.337316,-0.68933821 -1.337316,-1.83363971 0,-1.1305147 0.51011,-1.8198529 1.337316,-1.8198529 z m 3.167509,-0.5652574 v 4.70128677 h 0.758272 V -2.5931967 c 0,-0.9512868 0.496324,-1.5854779 1.268383,-1.5854779 0.59283,0 0.97886,0.3584558 0.97886,0.9237132 v 3.25367647 h 0.744485 V -3.5444835 c 0,-0.7858455 -0.592831,-1.2821691 -1.48897,-1.2821691 -0.703125,0 -1.158089,0.2619486 -1.557905,0.9237133 v -0.7996324 z m 0,0"
       style="fill:#000000;fill-opacity:1;fill-rule:nonzero;stroke:none"
       aria-label="Activation"
       transform="matrix(1.1333333,0,0,1.1333333,233.55053,150.7788)" />
    <path
       id="path61"
       d="M 2.3168676,-4.7010938 H 1.5310221 v -0.7306985 c 0,-0.3170956 0.1792279,-0.46875 0.523897,-0.46875 0.055147,0 0.082721,0 0.2619485,0 v -0.6204044 c -0.1792279,-0.027573 -0.2757352,-0.04136 -0.4273897,-0.04136 -0.6893382,0 -1.10294114,0.3998162 -1.10294114,1.0753677 v 0.7858455 H 0.16613235 V -4.080689 H 0.78653676 V 1.9301471e-4 H 1.5310221 V -4.0806893 H 2.3168676 Z M 6.8079063,1.9301471e-4 V -4.7010938 H 6.063421 v 2.6608456 c 0,0.9650736 -0.4963236,1.59926474 -1.2821692,1.59926474 -0.5928308,0 -0.9650735,-0.35845588 -0.9650735,-0.92371324 V -4.7010938 H 3.071693 v 3.6259192 c 0,0.78584556 0.5790441,1.28216909 1.5027574,1.28216909 0.6893382,0 1.1305147,-0.24816177 1.5716911,-0.85477942 V 1.9301471e-4 Z M 8.0969688,-4.7010938 V 1.9301471e-4 h 0.758272 V -2.5917188 c 0,-0.9512867 0.4963235,-1.5854779 1.2683822,-1.5854779 0.592831,0 0.97886,0.3584559 0.97886,0.9237132 V 1.9301471e-4 h 0.744486 V -3.5430055 c 0,-0.7858456 -0.592831,-1.2821691 -1.488971,-1.2821691 -0.7031248,0 -1.1580881,0.2619485 -1.5579042,0.9237132 v -0.7996324 z m 8.5857072,1.585478 c -0.02757,-0.4549632 -0.137867,-0.7582721 -0.317095,-1.0202206 -0.317096,-0.4273897 -0.882353,-0.6893382 -1.530331,-0.6893382 -1.268382,0 -2.095588,0.992647 -2.095588,2.5643382 0,1.50275736 0.813419,2.46783089 2.081801,2.46783089 1.116728,0 1.83364,-0.67555148 1.916361,-1.81985299 h -0.758273 c -0.12408,0.7582721 -0.51011,1.13051475 -1.144301,1.13051475 -0.827206,0 -1.309743,-0.67555145 -1.309743,-1.77849265 0,-1.1856618 0.482537,-1.875 1.295956,-1.875 0.620405,0 1.020221,0.3584559 1.116728,1.0202206 z m 2.540212,-1.585478 h -0.772059 v -1.2821691 h -0.744485 v 1.2821691 h -0.634191 v 0.6204045 h 0.634191 v 3.54319849 c 0,0.46875 0.330882,0.7444853 0.909926,0.7444853 0.179228,0 0.358456,-0.0137868 0.606618,-0.0689338 v -0.62040441 c -0.09651,0.0275735 -0.220588,0.0413603 -0.358456,0.0413603 -0.317096,0 -0.413603,-0.0965073 -0.413603,-0.4273897 V -4.0806893 h 0.772059 z m 1.554458,0 H 20.046647 V 1.9301471e-4 h 0.730699 z m 0,-1.8336397 H 20.03286 v 0.9375 h 0.744486 z m 3.091682,1.7095589 c -1.32353,0 -2.123162,0.9375 -2.123162,2.5091911 0,1.58547799 0.799632,2.52297799 2.123162,2.52297799 1.323529,0 2.123161,-0.9375 2.123161,-2.48161769 0,-1.6268382 -0.772058,-2.5505514 -2.123161,-2.5505514 z m 0,0.6893382 c 0.854779,0 1.351103,0.6893382 1.351103,1.8474265 0,1.1029411 -0.523898,1.80606615 -1.351103,1.80606615 -0.827206,0 -1.337317,-0.68933825 -1.337317,-1.83363975 0,-1.1305147 0.510111,-1.8198529 1.337317,-1.8198529 z m 3.167509,-0.5652574 V 1.9301471e-4 h 0.758272 V -2.5917188 c 0,-0.9512867 0.496323,-1.5854779 1.268382,-1.5854779 0.592831,0 0.97886,0.3584559 0.97886,0.9237132 V 1.9301471e-4 h 0.744486 V -3.5430055 c 0,-0.7858456 -0.592831,-1.2821691 -1.488971,-1.2821691 -0.703125,0 -1.158088,0.2619485 -1.557904,0.9237132 v -0.7996324 z m 0,0"
       style="fill:#000000;fill-opacity:1;fill-rule:nonzero;stroke:none"
       aria-label="function"
       transform="matrix(1.1333333,0,0,1.1333333,237.65547,163.199)" />
  </g>
</svg>
