<?xml version="1.0" encoding="UTF-8" standalone="no"?>
<!-- Created with Inkscape (http://www.inkscape.org/) -->

<svg
   version="1.1"
   id="svg1"
   width="297.88934"
   height="69.152"
   viewBox="0 0 297.88934 69.152"
   xmlns="http://www.w3.org/2000/svg"
   xmlns:svg="http://www.w3.org/2000/svg">
  <defs
     id="defs1" />
  <g
     id="g1">
    <path
       id="path1"
       d="m -51.97307,-35.80711 h 323.177 v 74.44888 h -323.177 z"
       style="fill:#ffffcc;fill-opacity:1;fill-rule:nonzero;stroke:#aaaa33;stroke-width:0.74721;stroke-linecap:butt;stroke-linejoin:miter;stroke-miterlimit:10;stroke-dasharray:none;stroke-opacity:1"
       transform="matrix(0.91964,0,0,-0.91964,48.139475,35.879425)" />
    <path
       id="path2"
       d="m 33.44095,14.17339 h -66.8819 c -2.20094,0 -3.98511,-1.78417 -3.98511,-3.98511 v -20.37656 c 0,-2.20094 1.78417,-3.98511 3.98511,-3.98511 h 66.8819 c 2.20094,0 3.98511,1.78417 3.98511,3.98511 v 20.37656 c 0,2.20094 -1.78417,3.98511 -3.98511,3.98511 z"
       style="fill:#dbfda6;fill-opacity:1;fill-rule:nonzero;stroke:#495938;stroke-width:0.74721;stroke-linecap:butt;stroke-linejoin:miter;stroke-miterlimit:10;stroke-dasharray:none;stroke-opacity:1"
       transform="matrix(0.91964,0,0,-0.91964,48.139475,35.879425)" />
    <path
       id="path3"
       d="m 6.1503612,-3.0594574 c 0,-1.7669957 -1.2742758,-3.160204 -2.8373875,-3.160204 H 0.8663642 v 6.21846596 h 2.4466095 c 1.5631117,0 2.8373875,-1.35922756 2.8373875,-3.05826196 z m -0.8325269,0 c 0,1.5631117 -1.0024303,2.5315613 -2.225735,2.5315613 H 1.6988911 v -5.1650646 h 1.3932082 c 1.2233047,0 2.225735,1.0024303 2.225735,2.6335033 z m 5.1310837,3.05826196 V -2.6007181 c 0,-0.8834979 -0.6626232,-1.5291309 -1.5461211,-1.5291309 -0.5776717,0 -1.0194206,0.1529131 -1.4441792,0.3907779 l 0.050971,0.6286427 c 0.4587393,-0.3228165 0.8834979,-0.4587393 1.3762179,-0.4587393 0.5097103,0 0.8155365,0.4077683 0.8155365,0.98544 v 0.3737875 c -1.5461213,0.033981 -2.5485516,0.441749 -2.5485516,1.1723338 0,0.42475858 0.2718455,1.13835303 1.0534013,1.13835303 0.1699035,0 0.9514593,-0.01699034 1.529131,-0.44174895 v 0.33980688 z M 9.7013431,-1.2584809 c 0,0.1868938 0,0.40776826 -0.3228165,0.59466205 -0.2208745,0.13592275 -0.5267007,0.16990344 -0.6966041,0.16990344 -0.4587393,0 -0.8495172,-0.20388413 -0.8495172,-0.56068139 0,-0.645633 1.7500054,-0.6626234 1.8689378,-0.6626234 z m 4.4642129,1.01942065 -0.152913,-0.56068136 c -0.237865,0.18689379 -0.560681,0.28883585 -0.832527,0.28883585 -0.356797,0 -0.458739,-0.32281653 -0.458739,-0.78155584 v -2.1407833 h 1.291266 v -0.543691 H 12.721377 V -5.115289 h -0.679614 v 1.1383531 h -0.781556 v 0.543691 h 0.764566 v 2.2936964 c 0,0.54369102 0.118932,1.24029513 0.764565,1.24029513 0.407768,0 0.866508,-0.08495172 1.376218,-0.33980688 z m 4.039454,0.23786481 V -2.6007181 c 0,-0.8834979 -0.662623,-1.5291309 -1.546121,-1.5291309 -0.577672,0 -1.019421,0.1529131 -1.444179,0.3907779 l 0.05097,0.6286427 c 0.458739,-0.3228165 0.883498,-0.4587393 1.376218,-0.4587393 0.50971,0 0.815536,0.4077683 0.815536,0.98544 v 0.3737875 c -1.546121,0.033981 -2.548551,0.441749 -2.548551,1.1723338 0,0.42475858 0.271845,1.13835303 1.053401,1.13835303 0.169903,0 0.951459,-0.01699034 1.529131,-0.44174895 v 0.33980688 z M 17.457435,-1.2584809 c 0,0.1868938 0,0.40776826 -0.322816,0.59466205 -0.220875,0.13592275 -0.526701,0.16990344 -0.696604,0.16990344 -0.45874,0 -0.849518,-0.20388413 -0.849518,-0.56068139 0,-0.645633 1.750006,-0.6626234 1.868938,-0.6626234 z m 0,0"
       style="fill:#000000;fill-opacity:1;fill-rule:nonzero;stroke:none"
       aria-label="Data"
       transform="matrix(0.91964,0,0,0.91964,39.472788,32.856568)" />
    <path
       id="path4"
       d="M 5.8936059,-4.2352442e-4 3.480977,-6.2188894 H 2.6654405 L 0.25281165,-4.2352442e-4 H 0.9664061 L 1.6460199,-1.7844096 h 2.667484 L 5.010108,-4.2352442e-4 Z M 4.0926294,-2.3111103 H 1.8668943 L 2.9712667,-5.556266 Z M 10.009517,-3.976164 H 9.3129126 c -0.3907779,0.9854399 -0.4077682,0.9854399 -0.7135944,1.8179668 -0.1868938,0.4587393 -0.5097104,1.32524682 -0.5606814,1.6650537 h -0.01699 c -0.01699,-0.1529131 -0.050971,-0.32281654 -0.543691,-1.6140827 L 6.764361,-3.976164 H 6.0167859 l 1.580102,3.97574047558 h 0.8325268 z m 3.929017,3.97574047558 V -2.5999462 c 0,-0.8834979 -0.662624,-1.5291309 -1.546122,-1.5291309 -0.577671,0 -1.01942,0.1529131 -1.444179,0.3907779 l 0.05097,0.6286427 c 0.45874,-0.3228165 0.883498,-0.4587393 1.376218,-0.4587393 0.50971,0 0.815537,0.4077683 0.815537,0.98544 v 0.3737875 c -1.546122,0.033981 -2.548552,0.441749 -2.548552,1.1723338 0,0.42475859 0.271846,1.13835304 1.053401,1.13835304 0.169904,0 0.95146,-0.01699034 1.529131,-0.44174895 V -4.2352442e-4 Z M 13.190959,-1.257709 c 0,0.1868938 0,0.40776827 -0.322817,0.59466206 -0.220874,0.13592275 -0.526701,0.16990344 -0.696604,0.16990344 -0.458739,0 -0.849517,-0.20388413 -0.849517,-0.5606814 0,-0.645633 1.750005,-0.6626234 1.868938,-0.6626234 z m 2.85013,1.25728547558 V -3.976164 H 15.310504 V -4.2352442e-4 Z M 16.10905,-5.0465557 v -0.8665076 h -0.849517 v 0.8665076 z m 2.128041,5.04613217558 V -6.2188894 h -0.730585 v 6.21846587558 z m 4.523679,0 V -2.5999462 c 0,-0.8834979 -0.662623,-1.5291309 -1.546121,-1.5291309 -0.577672,0 -1.019421,0.1529131 -1.44418,0.3907779 l 0.05097,0.6286427 c 0.45874,-0.3228165 0.883498,-0.4587393 1.376218,-0.4587393 0.509711,0 0.815537,0.4077683 0.815537,0.98544 v 0.3737875 c -1.546122,0.033981 -2.548552,0.441749 -2.548552,1.1723338 0,0.42475859 0.271846,1.13835304 1.053402,1.13835304 0.169903,0 0.951459,-0.01699034 1.52913,-0.44174895 V -4.2352442e-4 Z M 22.013195,-1.257709 c 0,0.1868938 0,0.40776827 -0.322817,0.59466206 -0.220874,0.13592275 -0.5267,0.16990344 -0.696604,0.16990344 -0.458739,0 -0.849517,-0.20388413 -0.849517,-0.5606814 0,-0.645633 1.750005,-0.6626234 1.868938,-0.6626234 z m 5.82344,-0.7475751 c 0,-1.087382 -0.594662,-2.072822 -1.47816,-2.072822 -0.237865,0 -0.883498,0.033981 -1.49515,0.5097103 v -2.6504936 h -0.713594 v 6.21846587558 h 0.747575 V -0.42518213 c 0.118932,0.13592276 0.560681,0.52670067 1.240295,0.52670067 0.917478,0 1.699034,-0.91747858 1.699034,-2.10680264 z m -0.747575,0 c 0,1.15534337 -0.764565,1.5121406 -1.325247,1.5121406 -0.560681,0 -0.832527,-0.45873929 -0.866507,-0.543691 v -1.9538896 c 0.135922,-0.1868938 0.458739,-0.5097103 0.968449,-0.5097103 0.526701,0 1.223305,0.3737876 1.223305,1.4951503 z m 2.535809,2.00486057558 V -3.976164 H 28.894284 V -4.2352442e-4 Z M 29.69283,-5.0465557 v -0.8665076 h -0.849517 v 0.8665076 z m 2.128041,5.04613217558 V -6.2188894 h -0.730585 v 6.21846587558 z m 2.196002,0 V -3.976164 H 33.286288 V -4.2352442e-4 Z M 34.084834,-5.0465557 v -0.8665076 h -0.849517 v 0.8665076 z m 3.742124,4.80826736 -0.152914,-0.56068135 c -0.237864,0.18689378 -0.560681,0.28883584 -0.832526,0.28883584 -0.356798,0 -0.45874,-0.32281653 -0.45874,-0.78155585 V -3.432473 h 1.291266 v -0.543691 h -1.291266 v -1.1383531 h -0.679613 v 1.1383531 h -0.781556 v 0.543691 h 0.764565 v 2.2936964 c 0,0.54369103 0.118933,1.24029514 0.764566,1.24029514 0.407768,0 0.866507,-0.08495172 1.376218,-0.33980688 z M 41.930126,-3.976164 h -0.696605 c -0.679613,1.631073 -1.189324,2.8203971 -1.223304,3.44903981 -0.03398,-0.40776826 -0.407769,-1.34223721 -0.509711,-1.59709231 -0.373787,-0.9174786 -0.5267,-1.2233048 -0.798546,-1.8519475 H 37.937395 L 39.738371,-4.2352442e-4 39.398564,0.79812265 C 39.17769,1.307833 39.007786,1.307833 38.871864,1.307833 c -0.135923,0 -0.45874,-0.050971 -0.713595,-0.1529131 l 0.05097,0.6116524 c 0.01699,0.01699 0.356797,0.067961 0.662624,0.067961 0.237864,0 0.628642,0 1.070391,-1.07039164 z m 0,0"
       style="fill:#000000;fill-opacity:1;fill-rule:nonzero;stroke:none"
       aria-label="Availability"
       transform="matrix(0.91964,0,0,0.91964,28.794848,42.933983)" />
    <path
       id="path5"
       d="M 143.05638,14.17339 H 76.17445 c -2.20092,0 -3.9851,-1.78417 -3.9851,-3.98511 v -20.37656 c 0,-2.20094 1.78418,-3.98511 3.9851,-3.98511 h 66.88193 c 2.20094,0 3.98511,1.78417 3.98511,3.98511 v 20.37656 c 0,2.20094 -1.78417,3.98511 -3.98511,3.98511 z"
       style="fill:#b4def0;fill-opacity:1;fill-rule:nonzero;stroke:#495938;stroke-width:0.74721;stroke-linecap:butt;stroke-linejoin:miter;stroke-miterlimit:10;stroke-dasharray:none;stroke-opacity:1"
       transform="matrix(0.91964,0,0,-0.91964,48.139475,35.879425)" />
    <path
       id="path6"
       d="M 5.8974575,5.5969727e-4 3.4848286,-6.2179062 H 2.6692921 L 0.25666323,5.5969727e-4 H 0.97025768 L 1.6498714,-1.7834264 H 4.3173555 L 5.0139596,5.5969727e-4 Z M 4.096481,-2.3101271 H 1.8707459 L 2.9751183,-5.5552828 Z M 7.6219774,5.5969727e-4 V -6.2179062 H 6.8913926 V 5.5969727e-4 Z M 12.82527,-3.4824608 12.723328,-4.0771229 c -0.169903,0 -0.764565,0 -1.427189,0.2888359 -0.135922,-0.1019421 -0.475729,-0.2888359 -0.900488,-0.2888359 -0.8155365,0 -1.4781599,0.6626234 -1.4781599,1.4611696 0,0.2208745 0.050971,0.5606814 0.3058262,0.9004882 -0.1699034,0.2208745 -0.2548552,0.49272 -0.2548552,0.74757519 0,0.25485516 0.084952,0.50971032 0.2208745,0.67961376 -0.4587393,0.28883584727 -0.5776717,0.67961376 -0.5776717,0.91747858 0,0.66262337 0.8834979,1.22330477 2.0388411,1.22330477 1.155344,0 2.055832,-0.543691 2.055832,-1.22330477 0,-1.24029512 -1.49515,-1.25728546 -1.885928,-1.25728546 H 9.9878828 c -0.1189324,0 -0.5267007,0 -0.5267007,-0.47572967 0,-0.1868938 0.050971,-0.2378648 0.084952,-0.3058262 0.2378649,0.1699035 0.5436909,0.2548552 0.8495169,0.2548552 0.832527,0 1.49515,-0.6626234 1.49515,-1.4611696 0,-0.3058262 -0.101942,-0.543691 -0.237865,-0.7985462 -0.03398,-0.033981 -0.03398,-0.050971 -0.03398,-0.050971 0,-0.050971 0.441749,-0.050971 0.543691,-0.050971 0.08495,0 0.407768,0 0.662623,0.033981 z m -1.614082,0.8665075 c 0,0.7305848 -0.441749,0.9344689 -0.815537,0.9344689 -0.4077682,0 -0.8155365,-0.2718455 -0.8155365,-0.9344689 0,-0.7135944 0.4587395,-0.9344689 0.8155365,-0.9344689 0.424759,0 0.815537,0.2718455 0.815537,0.9344689 z m 0.815536,3.24515573 c 0,0.40776827 -0.645633,0.67961377 -1.359227,0.67961377 -0.6966046,0 -1.3932087,-0.2548552 -1.3932087,-0.67961377 0,0 0,-0.5776717 0.6966041,-0.5776717 H 10.82041 c 0.186893,0 1.206314,0 1.206314,0.5776717 z m 5.271254,-2.59952263 c 0,-1.1723338 -0.900488,-2.1577737 -2.038841,-2.1577737 -1.104372,0 -2.021851,0.9684496 -2.021851,2.1577737 0,1.18932407 0.934469,2.07282196 2.021851,2.07282196 1.121363,0 2.038841,-0.91747858 2.038841,-2.07282196 z m -0.747575,-0.084952 c 0,1.036411 -0.628643,1.54612128 -1.274276,1.54612128 -0.696604,0 -1.291266,-0.54369098 -1.291266,-1.54612128 0,-1.0534014 0.662624,-1.4951503 1.274276,-1.4951503 0.645633,0 1.291266,0.4587393 1.291266,1.4951503 z m 3.771857,-1.3762179 v -0.6456331 c -0.645634,0 -1.223305,0.3228166 -1.597093,0.8495172 V -4.0431422 H 18.062544 V 5.5969727e-4 h 0.713594 V -1.9023588 c 0,-0.9514593 0.730585,-1.529131 1.546122,-1.5291313 z M 21.923599,5.5969727e-4 V -3.9751808 H 21.193015 V 5.5969727e-4 Z M 21.991561,-5.0455725 V -5.91208 h -0.849517 v 0.8665075 z m 3.742123,4.80826738 -0.152913,-0.56068135 c -0.237865,0.18689378 -0.560681,0.28883585 -0.832527,0.28883585 -0.356797,0 -0.458739,-0.32281654 -0.458739,-0.78155588 v -2.1407833 h 1.291266 v -0.543691 h -1.291266 v -1.1383531 h -0.679614 v 1.1383531 h -0.781556 v 0.543691 h 0.764566 v 2.2936964 c 0,0.54369106 0.118932,1.24029516 0.764565,1.24029516 0.407769,0 0.866508,-0.08495172 1.376218,-0.33980688 z M 30.011003,5.5969727e-4 V -2.6669243 c 0,-0.6626234 -0.169903,-1.4101986 -1.257285,-1.4101986 -0.509711,0 -1.002431,0.2378648 -1.325247,0.6456331 V -6.2179062 H 26.714876 V 5.5969727e-4 h 0.747576 V -2.1911947 c 0,-0.594662 0.220874,-1.3082565 0.900488,-1.3082565 0.900488,0 0.900488,0.6456331 0.900488,0.9004883 V 5.5969727e-4 Z m 7.327086,0 V -2.6669243 c 0,-0.6626234 -0.186894,-1.4101986 -1.274276,-1.4101986 -0.747575,0 -1.172333,0.4587393 -1.393208,0.7305848 -0.05097,-0.1868938 -0.254855,-0.7305848 -1.155343,-0.7305848 -0.713595,0 -1.138353,0.4077683 -1.359228,0.6796138 V -4.0431422 H 31.47642 V 5.5969727e-4 h 0.747576 V -2.1911947 c 0,-0.594662 0.220874,-1.3082565 0.900488,-1.3082565 0.900488,0 0.900488,0.6456331 0.900488,0.9004883 V 5.5969727e-4 h 0.747575 V -2.1911947 c 0,-0.594662 0.237865,-1.3082565 0.917479,-1.3082565 0.900488,0 0.900488,0.6456331 0.900488,0.9004883 V 5.5969727e-4 Z m 2.183259,0 V -3.9751808 H 38.790764 V 5.5969727e-4 Z M 39.58931,-5.0455725 V -5.91208 h -0.849518 v 0.8665075 z m 4.493946,4.70632532 -0.05097,-0.62864273 c -0.424759,0.28883585 -0.900489,0.45873929 -1.44418,0.45873929 -0.764565,0 -1.257285,-0.64563308 -1.257285,-1.49515028 0,-0.6796138 0.339807,-1.529131 1.291266,-1.529131 0.577672,0 0.866508,0.1189324 1.308257,0.4247586 l 0.118932,-0.6286427 c -0.50971,-0.2888358 -0.781556,-0.3907779 -1.427189,-0.3907779 -1.274276,0 -2.038841,1.0703917 -2.038841,2.1407833 0,1.10437241 0.832527,2.08981236 2.00486,2.08981236 0.628643,0 1.104373,-0.18689378 1.49515,-0.44174894 z m 0,0"
       style="fill:#000000;fill-opacity:1;fill-rule:nonzero;stroke:none"
       aria-label="Algorithmic"
       transform="matrix(0.91964,0,0,0.91964,128.54912,33.655735)" />
    <path
       id="path7"
       d="M 1.7166783,3.3160802e-4 V -6.2181343 H 0.85017077 V 3.3160802e-4 Z m 4.8847239,0 V -2.6671524 c 0,-0.6626234 -0.1699034,-1.4101986 -1.2572854,-1.4101986 -0.7135945,0 -1.1383531,0.4077683 -1.3592275,0.6796138 V -4.0433703 H 3.3052755 V 3.3160802e-4 H 4.0528506 V -2.1914228 c 0,-0.594662 0.2208745,-1.3082565 0.9004883,-1.3082565 0.9004882,0 0.9004882,0.6456331 0.9004882,0.9004883 V 3.3160802e-4 Z m 4.7615438,0 V -2.6671524 c 0,-0.6626234 -0.169903,-1.4101986 -1.257285,-1.4101986 -0.7135948,0 -1.1383534,0.4077683 -1.3592278,0.6796138 V -4.0433703 H 8.0668194 V 3.3160802e-4 H 8.8143945 V -2.1914228 c 0,-0.594662 0.2208745,-1.3082565 0.9004883,-1.3082565 0.9004882,0 0.9004882,0.6456331 0.9004882,0.9004883 V 3.3160802e-4 Z M 16.426069,-1.9705483 c 0,-1.1723337 -0.900489,-2.1577737 -2.038842,-2.1577737 -1.104372,0 -2.021851,0.9684496 -2.021851,2.1577737 0,1.18932408 0.934469,2.07282197 2.021851,2.07282197 1.121363,0 2.038842,-0.91747858 2.038842,-2.07282197 z M 15.678494,-2.0555 c 0,1.036411 -0.628643,1.54612129 -1.274276,1.54612129 -0.696604,0 -1.291266,-0.54369099 -1.291266,-1.54612129 0,-1.0534014 0.662623,-1.4951503 1.274275,-1.4951503 0.645633,0 1.291267,0.4587393 1.291267,1.4951503 z m 5.139579,-1.9199089 h -0.696604 c -0.390778,0.98544 -0.407769,0.98544 -0.713595,1.8179668 -0.186894,0.4587393 -0.50971,1.32524685 -0.560681,1.66505373 h -0.01699 c -0.01699,-0.1529131 -0.05097,-0.32281654 -0.543691,-1.61408273 l -0.713594,-1.8689378 h -0.747575 l 1.580102,3.97574050802 h 0.832527 z M 24.742842,3.3160802e-4 V -2.599191 c 0,-0.8834979 -0.662623,-1.529131 -1.546121,-1.529131 -0.577672,0 -1.019421,0.1529131 -1.444179,0.3907779 l 0.05097,0.6286427 c 0.458739,-0.3228165 0.883497,-0.4587392 1.376217,-0.4587392 0.509711,0 0.815537,0.4077682 0.815537,0.9854399 v 0.3737876 c -1.546121,0.033981 -2.548552,0.4417489 -2.548552,1.1723337 0,0.42475862 0.271846,1.13835307 1.053402,1.13835307 0.169903,0 0.951459,-0.01699034 1.529131,-0.44174894 V 3.3160802e-4 Z M 23.995267,-1.2569539 c 0,0.1868938 0,0.40776831 -0.322817,0.59466209 -0.220874,0.13592275 -0.5267,0.16990344 -0.696604,0.16990344 -0.458739,0 -0.849517,-0.20388413 -0.849517,-0.56068133 0,-0.6456331 1.750006,-0.6626234 1.868938,-0.6626234 z m 4.464213,1.01942069 -0.152913,-0.56068135 c -0.237865,0.18689378 -0.560682,0.28883585 -0.832527,0.28883585 -0.356797,0 -0.458739,-0.32281654 -0.458739,-0.78155579 v -2.1407834 h 1.291266 v -0.543691 H 27.015301 V -5.113762 h -0.679614 v 1.1383531 h -0.781556 v 0.543691 h 0.764566 v 2.2936965 c 0,0.54369097 0.118932,1.24029507 0.764565,1.24029507 0.407768,0 0.866508,-0.08495172 1.376218,-0.33980688 z M 30.171257,3.3160802e-4 V -3.9754089 H 29.440672 V 3.3160802e-4 Z M 30.239218,-5.0458006 v -0.8665075 h -0.849517 v 0.8665075 z m 4.999409,3.0752523 c 0,-1.1723337 -0.900488,-2.1577737 -2.038841,-2.1577737 -1.104373,0 -2.021851,0.9684496 -2.021851,2.1577737 0,1.18932408 0.934469,2.07282197 2.021851,2.07282197 1.121363,0 2.038841,-0.91747858 2.038841,-2.07282197 z M 34.491052,-2.0555 c 0,1.036411 -0.628643,1.54612129 -1.274276,1.54612129 -0.696604,0 -1.291266,-0.54369099 -1.291266,-1.54612129 0,-1.0534014 0.662623,-1.4951503 1.274276,-1.4951503 0.645633,0 1.291266,0.4587393 1.291266,1.4951503 z m 5.05038,2.05583160802 V -2.6671524 c 0,-0.6626234 -0.169904,-1.4101986 -1.257286,-1.4101986 -0.713594,0 -1.138353,0.4077683 -1.359227,0.6796138 V -4.0433703 H 36.245305 V 3.3160802e-4 H 36.99288 V -2.1914228 c 0,-0.594662 0.220875,-1.3082565 0.900488,-1.3082565 0.900489,0 0.900489,0.6456331 0.900489,0.9004883 V 3.3160802e-4 Z M 43.589381,-1.1550118 c 0,-0.3228165 -0.118932,-0.6286427 -0.441749,-0.9004882 -0.288836,-0.2548552 -0.560681,-0.3058262 -1.121362,-0.4247586 -0.322817,-0.050971 -0.764566,-0.1359228 -0.764566,-0.5606814 0,-0.5267006 0.628643,-0.5267006 0.764566,-0.5267006 0.662623,0 1.036411,0.2038841 1.308256,0.3398068 l 0.101942,-0.6286427 c -0.543691,-0.2378648 -0.968449,-0.2718455 -1.325247,-0.2718455 -0.203884,0 -1.529131,0 -1.529131,1.1723337 0,0.441749 0.254855,0.6966041 0.356798,0.7985462 0.339806,0.3058262 0.577671,0.3398069 1.189324,0.4587393 0.288835,0.050971 0.798546,0.1529131 0.798546,0.6116524 0,0.57767169 -0.730585,0.57767169 -0.849517,0.57767169 -0.526701,0 -1.036411,-0.16990344 -1.427189,-0.44174895 l -0.118933,0.66262342 c 0.543691,0.2718455 1.087382,0.39077791 1.546122,0.39077791 0.577671,0 1.51214,-0.18689378 1.51214,-1.25728547 z m 0,0"
       style="fill:#000000;fill-opacity:1;fill-rule:nonzero;stroke:none"
       aria-label="Innovations"
       transform="matrix(0.91964,0,0,0.91964,128.80018,43.73407)" />
    <path
       id="path8"
       d="m 252.67181,14.17339 h -66.88192 c -2.20095,0 -3.98511,-1.78417 -3.98511,-3.98511 v -20.37656 c 0,-2.20094 1.78416,-3.98511 3.98511,-3.98511 h 66.88192 c 2.20095,0 3.98511,1.78417 3.98511,3.98511 v 20.37656 c 0,2.20094 -1.78416,3.98511 -3.98511,3.98511 z"
       style="fill:#faa0cd;fill-opacity:1;fill-rule:nonzero;stroke:#495938;stroke-width:0.74721;stroke-linecap:butt;stroke-linejoin:miter;stroke-miterlimit:10;stroke-dasharray:none;stroke-opacity:1"
       transform="matrix(0.91964,0,0,-0.91964,48.139475,35.879425)" />
    <path
       id="path9"
       d="M 5.4038386,-0.40623753 5.3528676,-1.0688609 c -0.2718455,0.18689374 -0.5267007,0.35679718 -0.8325269,0.45873924 -0.3058262,0.0849517 -0.6286427,0.10194207 -0.9514593,0.10194207 -0.5776717,0 -1.1213627,-0.30582619 -1.4951502,-0.76456551 -0.4247586,-0.5267006 -0.6116524,-1.1723337 -0.6116524,-1.8349571 0,-0.6796138 0.1868938,-1.3252469 0.6116524,-1.8349572 0.3737875,-0.4587393 0.9174785,-0.7645655 1.4951502,-0.7645655 0.2888359,0 0.5606814,0.01699 0.8325269,0.1019421 0.2888358,0.084952 0.5267007,0.2208745 0.7645655,0.3907779 L 5.3188869,-6.0130511 C 5.030051,-6.1149931 4.7412152,-6.1999448 4.4523793,-6.2509159 c -0.2888358,-0.050971 -0.5776717,-0.067961 -0.8834979,-0.067961 -0.7985461,0 -1.5631116,0.3398069 -2.1068026,0.934469 -0.56068137,0.6116524 -0.86650757,1.4271889 -0.86650757,2.2767061 0,0.8325268 0.3058262,1.6480633 0.86650757,2.25971573 0.543691,0.59466204 1.3082565,0.95145926 2.1068026,0.95145926 0.3228166,0 0.6456331,-0.01699034 0.9684497,-0.10194206 0.3058261,-0.08495172 0.594662,-0.23786482 0.8665075,-0.40776866 z M 10.224849,-1.9693492 c 0,-1.1723337 -0.9004885,-2.1577737 -2.0388416,-2.1577737 -1.1043723,0 -2.0218509,0.9684496 -2.0218509,2.1577737 0,1.1893241 0.9344689,2.07282199 2.0218509,2.07282199 1.1213627,0 2.0388416,-0.91747857 2.0388416,-2.07282199 z m -0.7475754,-0.084952 c 0,1.036411 -0.6286427,1.54612131 -1.2742758,1.54612131 -0.6966041,0 -1.2912662,-0.54369101 -1.2912662,-1.54612131 0,-1.0534013 0.6626235,-1.4951503 1.2742758,-1.4951503 0.6456331,0 1.2912662,0.4587393 1.2912662,1.4951503 z M 17.093195,0.00153073 V -2.6659533 c 0,-0.6626234 -0.186893,-1.4101985 -1.274275,-1.4101985 -0.747576,0 -1.172334,0.4587392 -1.393209,0.7305848 -0.05097,-0.1868938 -0.254855,-0.7305848 -1.155343,-0.7305848 -0.713595,0 -1.138353,0.4077682 -1.359228,0.6796137 v -0.6456331 h -0.679613 v 4.04370193 h 0.747575 V -2.1902237 c 0,-0.594662 0.220874,-1.3082564 0.900488,-1.3082564 0.900488,0 0.900488,0.645633 0.900488,0.9004882 v 2.59952263 h 0.747575 V -2.1902237 c 0,-0.594662 0.237865,-1.3082564 0.917479,-1.3082564 0.900488,0 0.900488,0.645633 0.900488,0.9004882 v 2.59952263 z m 5.15657,-2.00486063 c 0,-1.0703916 -0.560682,-2.0728219 -1.44418,-2.0728219 -0.237864,0 -0.917478,0.033981 -1.52913,0.5267006 V -3.9742098 H 18.56286 v 5.7087556 h 0.747575 v -2.14078333 c 0.322817,0.3058262 0.781556,0.50971032 1.240295,0.50971032 0.900489,0 1.699035,-0.88349789 1.699035,-2.10680269 z m -0.747575,0.01699 c 0,0.8495172 -0.628643,1.49515025 -1.325247,1.49515025 -0.288836,0 -0.611653,-0.10194206 -0.866508,-0.54369105 v -1.9368992 c 0.118933,-0.1699034 0.441749,-0.49272 0.951459,-0.49272 0.679614,0 1.240296,0.6286428 1.240296,1.47816 z m 5.10135,1.98787023 V -3.9742098 h -0.747575 v 2.5825323 c 0,0.71359447 -0.560681,0.96844963 -1.104372,0.96844963 -0.645633,0 -0.696604,-0.20388413 -0.696604,-0.59466203 v -2.9563199 h -0.747575 v 2.99030057 c 0,0.76456549 0.305826,1.08738202 0.934469,1.08738202 0.5267,0 1.223304,-0.15291309 1.648063,-0.52670066 v 0.4247586 z m 3.810085,-0.23786482 -0.152913,-0.56068135 c -0.237865,0.18689378 -0.560681,0.28883585 -0.832527,0.28883585 -0.356797,0 -0.458739,-0.32281654 -0.458739,-0.78155581 v -2.1407834 h 1.291266 v -0.543691 h -1.291266 v -1.138353 h -0.679614 v 1.138353 h -0.781556 v 0.543691 h 0.764566 v 2.2936965 c 0,0.54369099 0.118932,1.24029509 0.764565,1.24029509 0.407768,0 0.866508,-0.08495172 1.376218,-0.33980688 z m 1.711777,0.23786482 V -3.9742098 h -0.730585 v 3.97574053 z m 0.06796,-5.04613223 V -5.911109 h -0.849518 v 0.8665075 z m 4.693582,5.04613223 V -2.6659533 c 0,-0.6626234 -0.169903,-1.4101985 -1.257285,-1.4101985 -0.713595,0 -1.138353,0.4077682 -1.359228,0.6796137 v -0.6456331 h -0.679614 v 4.04370193 h 0.747576 V -2.1902237 c 0,-0.594662 0.220874,-1.3082564 0.900488,-1.3082564 0.900488,0 0.900488,0.645633 0.900488,0.9004882 v 2.59952263 z m 5.203293,-3.48302053 -0.101942,-0.594662 c -0.169904,0 -0.764566,0 -1.427189,0.2888358 -0.135923,-0.1019421 -0.47573,-0.2888358 -0.900488,-0.2888358 -0.815537,0 -1.47816,0.6626234 -1.47816,1.4611695 0,0.2208745 0.05097,0.5606814 0.305826,0.9004883 -0.169903,0.2208745 -0.254855,0.49272 -0.254855,0.74757512 0,0.25485516 0.08495,0.50971032 0.220874,0.67961376 -0.458739,0.28883585 -0.577671,0.67961376 -0.577671,0.91747858 0,0.66262344 0.883498,1.22330474 2.038841,1.22330474 1.155343,0 2.055832,-0.543691 2.055832,-1.22330474 0,-1.24029512 -1.495151,-1.25728546 -1.885929,-1.25728546 H 39.25285 c -0.118933,0 -0.526701,0 -0.526701,-0.4757296 0,-0.1868938 0.05097,-0.2378649 0.08495,-0.3058262 0.237864,0.1699034 0.543691,0.2548551 0.849517,0.2548551 0.832527,0 1.49515,-0.6626234 1.49515,-1.4611696 0,-0.3058261 -0.101942,-0.543691 -0.237865,-0.7985461 -0.03398,-0.033981 -0.03398,-0.050971 -0.03398,-0.050971 0,-0.050971 0.441749,-0.050971 0.543691,-0.050971 0.08495,0 0.407768,0 0.662623,0.033981 z m -1.614083,0.8665075 c 0,0.7305848 -0.441749,0.934469 -0.815536,0.934469 -0.407768,0 -0.815537,-0.2718455 -0.815537,-0.934469 0,-0.7135944 0.45874,-0.9344689 0.815537,-0.9344689 0.424758,0 0.815536,0.2718455 0.815536,0.9344689 z m 0.815537,3.24515576 c 0,0.40776824 -0.645633,0.67961374 -1.359228,0.67961374 -0.696604,0 -1.393208,-0.2548551 -1.393208,-0.67961374 0,0 0,-0.5776717 0.696604,-0.5776717 h 0.849517 c 0.186894,0 1.206315,0 1.206315,0.5776717 z m 0,0"
       style="fill:#000000;fill-opacity:1;fill-rule:nonzero;stroke:none"
       aria-label="Computing"
       transform="matrix(0.91964,0,0,0.91964,230.3312,33.701717)" />
    <path
       id="path10"
       d="M 1.7164383,0.00130264 V -6.2171633 H 0.84993076 v 6.21846594 z m 4.8847239,0 V -2.6661814 c 0,-0.6626234 -0.1699034,-1.4101985 -1.2572854,-1.4101985 -0.7135945,0 -1.1383531,0.4077682 -1.3592276,0.6796137 v -0.645633 H 3.3050355 V 0.00130264 H 4.0526106 V -2.1904517 c 0,-0.5946621 0.2208745,-1.3082565 0.9004882,-1.3082565 0.9004883,0 0.9004883,0.645633 0.9004883,0.9004882 V 0.00130264 Z M 10.530179,-5.5885206 v -0.6286427 c -0.101942,-0.033981 -0.390778,-0.101942 -0.7305845,-0.101942 -0.8834979,0 -1.5461213,0.645633 -1.5461213,1.5461213 v 0.7985461 H 7.5908498 v 0.543691 H 8.2534732 V 0.00130264 H 8.984058 V -3.4307469 h 0.9854399 v -0.543691 H 8.9500773 v -1.0534013 c 0,-0.6456331 0.5776717,-0.7135944 0.8325268,-0.7135944 0.084952,0 0.3737879,0 0.7475749,0.152913 z m 2.625008,2.1577737 v -0.645633 c -0.645633,0 -1.223304,0.3228165 -1.597092,0.8495172 v -0.8155365 h -0.662623 v 4.04370184 h 0.713594 V -1.9016159 c 0,-0.9514593 0.730585,-1.529131 1.546121,-1.529131 z m 3.929017,3.43204954 V -2.59822 c 0,-0.8834979 -0.662623,-1.529131 -1.546121,-1.529131 -0.577672,0 -1.01942,0.1529131 -1.444179,0.3907779 l 0.05097,0.6286428 c 0.458739,-0.3228166 0.883498,-0.4587393 1.376218,-0.4587393 0.50971,0 0.815536,0.4077682 0.815536,0.9854399 v 0.3737876 c -1.546121,0.033981 -2.548551,0.441749 -2.548551,1.1723338 0,0.42475855 0.271845,1.138353 1.053401,1.138353 0.169904,0 0.951459,-0.01699034 1.529131,-0.44174894 V 0.00130264 Z M 16.336629,-1.2559828 c 0,0.1868938 0,0.40776824 -0.322816,0.59466202 -0.220875,0.13592275 -0.526701,0.16990344 -0.696604,0.16990344 -0.45874,0 -0.849517,-0.20388413 -0.849517,-0.56068136 0,-0.6456331 1.750005,-0.6626234 1.868937,-0.6626234 z m 4.702078,0.101942 c 0,-0.3228165 -0.118932,-0.6286427 -0.441749,-0.9004882 -0.288836,-0.2548552 -0.560681,-0.3058262 -1.121363,-0.4247586 -0.322816,-0.050971 -0.764565,-0.1359227 -0.764565,-0.5606813 0,-0.5267007 0.628643,-0.5267007 0.764565,-0.5267007 0.662624,0 1.036411,0.2038841 1.308257,0.3398069 l 0.101942,-0.6286428 c -0.543691,-0.2378648 -0.96845,-0.2718455 -1.325247,-0.2718455 -0.203884,0 -1.529131,0 -1.529131,1.1723338 0,0.4417489 0.254855,0.6966041 0.356797,0.7985461 0.339807,0.3058262 0.577672,0.3398069 1.189324,0.4587393 0.288836,0.050971 0.798547,0.1529131 0.798547,0.6116524 0,0.57767172 -0.730585,0.57767172 -0.849518,0.57767172 -0.5267,0 -1.036411,-0.16990344 -1.427188,-0.44174895 l -0.118933,0.66262342 c 0.543691,0.27184551 1.087382,0.39077791 1.546121,0.39077791 0.577672,0 1.512141,-0.18689378 1.512141,-1.2572855 z m 3.296127,0.91747862 -0.152913,-0.56068135 c -0.237865,0.18689378 -0.560682,0.28883585 -0.832527,0.28883585 -0.356797,0 -0.458739,-0.32281654 -0.458739,-0.78155582 v -2.1407834 h 1.291266 v -0.543691 h -1.291266 v -1.138353 h -0.679614 v 1.138353 h -0.781556 v 0.543691 h 0.764565 v 2.2936965 c 0,0.543691 0.118933,1.2402951 0.764566,1.2402951 0.407768,0 0.866507,-0.08495172 1.376218,-0.33980688 z m 3.257898,-3.19418472 v -0.645633 c -0.645633,0 -1.223304,0.3228165 -1.597092,0.8495172 v -0.8155365 h -0.662623 v 4.04370184 h 0.713594 V -1.9016159 c 0,-0.9514593 0.730585,-1.529131 1.546121,-1.529131 z m 4.166882,3.43204954 V -3.9744379 h -0.747575 v 2.5825323 c 0,0.71359448 -0.560681,0.96844964 -1.104372,0.96844964 -0.645633,0 -0.696604,-0.20388413 -0.696604,-0.59466204 v -2.9563199 h -0.747576 v 2.99030059 c 0,0.76456548 0.305827,1.08738201 0.934469,1.08738201 0.526701,0 1.223305,-0.15291309 1.648064,-0.52670066 v 0.4247586 z m 4.55766,-0.33980688 -0.05097,-0.62864273 c -0.424759,0.28883585 -0.900488,0.45873929 -1.444179,0.45873929 -0.764566,0 -1.257286,-0.64563312 -1.257286,-1.49515032 0,-0.6796137 0.339807,-1.5291309 1.291266,-1.5291309 0.577672,0 0.866508,0.1189324 1.308257,0.4247586 l 0.118932,-0.6286428 c -0.50971,-0.2888358 -0.781556,-0.3907779 -1.427189,-0.3907779 -1.274275,0 -2.038841,1.0703917 -2.038841,2.1407834 0,1.10437235 0.832527,2.0898123 2.004861,2.0898123 0.628642,0 1.104372,-0.18689378 1.49515,-0.44174894 z m 3.351345,0.10194206 -0.152913,-0.56068135 c -0.237865,0.18689378 -0.560681,0.28883585 -0.832527,0.28883585 -0.356797,0 -0.458739,-0.32281654 -0.458739,-0.78155582 v -2.1407834 h 1.291266 v -0.543691 H 38.22444 v -1.138353 h -0.679614 v 1.138353 H 36.76327 v 0.543691 h 0.764566 v 2.2936965 c 0,0.543691 0.118932,1.2402951 0.764565,1.2402951 0.407769,0 0.866508,-0.08495172 1.376218,-0.33980688 z m 4.277319,0.23786482 V -3.9744379 h -0.747575 v 2.5825323 c 0,0.71359448 -0.560681,0.96844964 -1.104372,0.96844964 -0.645633,0 -0.696604,-0.20388413 -0.696604,-0.59466204 v -2.9563199 h -0.747575 v 2.99030059 c 0,0.76456548 0.305826,1.08738201 0.934469,1.08738201 0.5267,0 1.223304,-0.15291309 1.648063,-0.52670066 v 0.4247586 z m 3.742124,-3.43204954 v -0.645633 c -0.645633,0 -1.223305,0.3228165 -1.597093,0.8495172 V -4.0423992 H 45.428346 V 0.00130264 H 46.14194 V -1.9016159 c 0,-0.9514593 0.730585,-1.529131 1.546122,-1.529131 z m 3.962997,1.4611696 c 0,-0.2718455 0,-0.9514592 -0.356797,-1.4951502 -0.373787,-0.5606814 -0.951459,-0.6626235 -1.291266,-0.6626235 -1.036411,0 -1.868938,0.9514593 -1.868938,2.1068027 0,1.17233374 0.883498,2.123793 2.004861,2.123793 0.441749,0 0.951459,-0.1189324 1.47816,-0.44174894 l -0.05097,-0.61165239 c -0.577672,0.39077792 -1.104373,0.45873929 -1.410199,0.45873929 -0.747575,0 -1.325247,-0.64563306 -1.342237,-1.47815996 z m -0.5267,-0.5267006 h -2.259716 c 0.135923,-0.5776717 0.577672,-1.0534014 1.138353,-1.0534014 0.339807,0 0.951459,0.1529131 1.121363,1.0534014 z m 0,0"
       style="fill:#000000;fill-opacity:1;fill-rule:nonzero;stroke:none"
       aria-label="Infrastructure"
       transform="matrix(0.91964,0,0,0.91964,225.87462,43.780052)" />
    <path
       id="path11"
       d="M 37.79967,0 H 65.27025"
       style="fill:none;stroke:#808080;stroke-width:1.49442;stroke-linecap:butt;stroke-linejoin:miter;stroke-miterlimit:10;stroke-dasharray:none;stroke-opacity:1"
       transform="matrix(0.91964,0,0,-0.91964,48.139475,35.879425)" />
    <path
       id="path12"
       d="M 6.54549,0 C 4.60605,0.36362 1.45454,1.45454 -0.72726,2.72728 V -2.72728 C 1.45454,-1.45454 4.60605,-0.36362 6.54549,0"
       style="fill:#808080;fill-opacity:1;fill-rule:nonzero;stroke:none"
       transform="matrix(0.91964,0,0,-0.91964,108.16461,35.879425)" />
    <path
       id="path13"
       d="m 147.4151,0 h 27.47058"
       style="fill:none;stroke:#808080;stroke-width:1.49442;stroke-linecap:butt;stroke-linejoin:miter;stroke-miterlimit:10;stroke-dasharray:none;stroke-opacity:1"
       transform="matrix(0.91964,0,0,-0.91964,48.139475,35.879425)" />
    <path
       id="path14"
       d="M 6.54549,0 C 4.60605,0.36362 1.45454,1.45454 -0.72726,2.72728 V -2.72728 C 1.45454,-1.45454 4.60605,-0.36362 6.54549,0"
       style="fill:#808080;fill-opacity:1;fill-rule:nonzero;stroke:none"
       transform="matrix(0.91964,0,0,-0.91964,208.97134,35.879425)" />
    <path
       id="path15"
       d="M 219.23085,-14.547 V -28.3468 H 0 v 7.2543"
       style="fill:none;stroke:#808080;stroke-width:1.49442;stroke-linecap:butt;stroke-linejoin:miter;stroke-miterlimit:10;stroke-dasharray:none;stroke-opacity:1"
       transform="matrix(0.91964,0,0,-0.91964,48.139475,35.879425)" />
    <path
       id="path16"
       d="M 6.54549,0 C 4.60605,0.36362 1.45454,1.45454 -0.72726,2.72728 V -2.72728 C 1.45454,-1.45454 4.60605,-0.36362 6.54549,0"
       style="fill:#808080;fill-opacity:1;fill-rule:nonzero;stroke:none"
       transform="matrix(0,-0.91964,-0.91964,0,48.139475,55.276931)" />
    <path
       id="path17"
       d="M 6.016207,-4.750772e-4 3.4336747,-3.7723315 5.8802843,-6.218941 H 5.0137767 L 1.7006596,-2.9228143 V -6.218941 H 0.88512312 V -4.750772e-4 H 1.7006596 V -2.0393164 l 1.2063145,-1.2063144 2.225735,3.2451557228 z M 10.23406,-1.971355 c 0,-0.2718455 0,-0.9514593 -0.3567973,-1.4951503 -0.3737876,-0.5606813 -0.9514593,-0.6626234 -1.2912661,-0.6626234 -1.036411,0 -1.8689379,0.9514593 -1.8689379,2.1068027 0,1.17233372 0.8834979,2.12379299 2.0048606,2.12379299 0.441749,0 0.9514593,-0.11893241 1.4781597,-0.44174895 l -0.05097,-0.61165238 c -0.5776715,0.39077791 -1.1043721,0.45873929 -1.4101983,0.45873929 -0.7475752,0 -1.3252469,-0.64563305 -1.3422372,-1.47815995 z M 9.7073593,-2.4980557 H 7.4476435 c 0.1359228,-0.5776716 0.5776717,-1.0534013 1.1383531,-1.0534013 0.3398068,0 0.9514592,0.1529131 1.1213627,1.0534013 z m 4.9144567,-1.4781599 h -0.696604 c -0.679614,1.631073 -1.189324,2.8203971 -1.223305,3.44903986 C 12.667927,-0.934944 12.294139,-1.8694129 12.192197,-2.1242681 11.81841,-3.0417467 11.665496,-3.3475729 11.393651,-3.9762156 H 10.629085 L 12.430062,-4.750772e-4 12.090255,0.79807109 C 11.869381,1.3077814 11.699477,1.3077814 11.563554,1.3077814 c -0.135922,0 -0.458739,-0.050971 -0.713594,-0.1529131 l 0.05097,0.6116524 c 0.01699,0.01699 0.356797,0.067961 0.662623,0.067961 0.237865,0 0.628643,0 1.070392,-1.0703917 z m 8.85197,2.2936965 c 0,-0.7985462 -0.815537,-1.4271889 -1.783987,-1.580102 0.883498,-0.2208745 1.512141,-0.7475752 1.512141,-1.4101986 0,-0.8155365 -0.98544,-1.5461213 -2.276706,-1.5461213 h -2.208745 v 6.2184659228 h 2.44661 c 1.359227,0 2.310687,-0.8325268628 2.310687,-1.6820440228 z m -1.019421,-2.9733102 c 0,0.5267006 -0.645633,1.1213627 -1.885928,1.1213627 h -1.053402 v -2.1577737 h 1.155344 c 0.917478,0 1.783986,0.4247586 1.783986,1.036411 z m 0.237865,2.9563198 c 0,0.6456331 -0.781556,1.17233376 -1.783986,1.17233376 H 19.515035 V -2.9398046 h 1.325247 c 0.951459,0 1.851948,0.5267007 1.851948,1.2402951 z m 4.298557,-1.7330151 v -0.645633 c -0.645633,0 -1.223305,0.3228165 -1.597093,0.8495172 V -4.044177 h -0.662623 v 4.0437019228 h 0.713594 V -1.9033936 c 0,-0.9514593 0.730585,-1.529131 1.546122,-1.529131 z m 3.962998,1.4611696 c 0,-0.2718455 0,-0.9514593 -0.356798,-1.4951503 -0.373787,-0.5606813 -0.951459,-0.6626234 -1.291266,-0.6626234 -1.036411,0 -1.868938,0.9514593 -1.868938,2.1068027 0,1.17233372 0.883498,2.12379299 2.004861,2.12379299 0.441749,0 0.951459,-0.11893241 1.47816,-0.44174895 l -0.05097,-0.61165238 c -0.577672,0.39077791 -1.104373,0.45873929 -1.410199,0.45873929 -0.747575,0 -1.325247,-0.64563305 -1.342237,-1.47815995 z m -0.526701,-0.5267007 h -2.259716 c 0.135923,-0.5776716 0.577672,-1.0534013 1.138353,-1.0534013 0.339807,0 0.951459,0.1529131 1.121363,1.0534013 z m 4.59164,2.4975806228 V -2.5999977 c 0,-0.8834979 -0.662623,-1.529131 -1.546121,-1.529131 -0.577672,0 -1.019421,0.1529131 -1.444179,0.3907779 l 0.05097,0.6286428 c 0.458739,-0.3228166 0.883498,-0.4587393 1.376218,-0.4587393 0.50971,0 0.815536,0.4077682 0.815536,0.9854399 v 0.3737876 c -1.546121,0.033981 -2.548551,0.4417489 -2.548551,1.1723337 0,0.42475864 0.271845,1.13835309 1.053401,1.13835309 0.169903,0 0.951459,-0.01699035 1.529131,-0.44174895 V -4.750772e-4 Z M 34.271149,-1.2577605 c 0,0.1868937 0,0.40776822 -0.322816,0.594662 -0.220875,0.13592276 -0.526701,0.16990345 -0.696604,0.16990345 -0.45874,0 -0.849518,-0.20388413 -0.849518,-0.56068135 0,-0.6456331 1.750006,-0.6626234 1.868938,-0.6626234 z m 5.738489,1.2572854228 -1.750006,-2.4466095228 1.529131,-1.529131 h -0.849517 l -1.834957,1.8349572 V -6.218941 h -0.679614 v 6.2184659228 h 0.645633 V -1.2747509 l 0.730585,-0.7135944 1.427189,1.9878702228 z M 43.233556,-0.23833989 43.080643,-0.79902125 c -0.237865,0.18689379 -0.560682,0.28883585 -0.832527,0.28883585 -0.356798,0 -0.45874,-0.32281654 -0.45874,-0.7815558 v -2.1407834 h 1.291267 v -0.543691 h -1.291267 v -1.138353 h -0.679613 v 1.138353 h -0.781556 v 0.543691 h 0.764565 v 2.2936965 c 0,0.54369098 0.118933,1.24029509 0.764566,1.24029509 0.407768,0 0.866507,-0.08495172 1.376218,-0.33980688 z m 4.281566,0.2378648128 V -2.6679591 c 0,-0.6626234 -0.169903,-1.4101985 -1.257285,-1.4101985 -0.50971,0 -1.00243,0.2378648 -1.325247,0.645633 V -6.218941 h -0.713594 v 6.2184659228 h 0.747575 V -2.1922295 c 0,-0.594662 0.220874,-1.3082565 0.900488,-1.3082565 0.900488,0 0.900488,0.6456331 0.900488,0.9004883 V -4.750772e-4 Z M 51.257246,-3.4325246 v -0.645633 c -0.645633,0 -1.223305,0.3228165 -1.597093,0.8495172 V -4.044177 H 48.99753 v 4.0437019228 h 0.713594 V -1.9033936 c 0,-0.9514593 0.730585,-1.529131 1.546122,-1.529131 z m 4.46846,1.4611696 c 0,-1.1723337 -0.900488,-2.1577737 -2.038841,-2.1577737 -1.104373,0 -2.021851,0.9684496 -2.021851,2.1577737 0,1.1893241 0.934469,2.07282199 2.021851,2.07282199 1.121363,0 2.038841,-0.91747858 2.038841,-2.07282199 z m -0.747575,-0.084952 c 0,1.036411 -0.628643,1.5461213 -1.274276,1.5461213 -0.696604,0 -1.291266,-0.543691 -1.291266,-1.5461213 0,-1.0534013 0.662623,-1.4951503 1.274276,-1.4951503 0.645633,0 1.291266,0.4587393 1.291266,1.4951503 z m 5.054627,2.0558316228 V -3.9762156 h -0.747575 v 2.5825323 c 0,0.71359446 -0.560681,0.96844962 -1.104372,0.96844962 -0.645633,0 -0.696604,-0.20388413 -0.696604,-0.59466202 v -2.9563199 h -0.747575 v 2.99030057 c 0,0.76456548 0.305826,1.08738202 0.934469,1.08738202 0.5267,0 1.223304,-0.1529131 1.648063,-0.52670067 V -4.750772e-4 Z M 65.231804,-3.4834956 65.129862,-4.0781576 c -0.169904,0 -0.764566,0 -1.427189,0.2888358 -0.135923,-0.1019421 -0.47573,-0.2888358 -0.900489,-0.2888358 -0.815536,0 -1.47816,0.6626234 -1.47816,1.4611695 0,0.2208745 0.05097,0.5606814 0.305827,0.9004883 -0.169904,0.2208744 -0.254855,0.49272 -0.254855,0.74757511 0,0.25485516 0.08495,0.50971032 0.220874,0.67961376 -0.458739,0.2888358528 -0.577672,0.67961377 -0.577672,0.91747858 0,0.66262345 0.883498,1.22330475 2.038842,1.22330475 1.155343,0 2.055831,-0.543691 2.055831,-1.22330475 0,-1.24029511 -1.49515,-1.25728546 -1.885928,-1.25728546 h -0.832527 c -0.118932,0 -0.526701,0 -0.526701,-0.47572959 0,-0.1868938 0.05097,-0.2378649 0.08495,-0.3058262 0.237865,0.1699034 0.543691,0.2548551 0.849517,0.2548551 0.832527,0 1.495151,-0.6626234 1.495151,-1.4611696 0,-0.3058262 -0.101942,-0.543691 -0.237865,-0.7985461 -0.03398,-0.033981 -0.03398,-0.050971 -0.03398,-0.050971 0,-0.050971 0.441749,-0.050971 0.543691,-0.050971 0.08495,0 0.407768,0 0.662624,0.033981 z m -1.614083,0.8665075 c 0,0.7305848 -0.441749,0.934469 -0.815537,0.934469 -0.407768,0 -0.815536,-0.2718455 -0.815536,-0.934469 0,-0.7135944 0.458739,-0.9344689 0.815536,-0.9344689 0.424759,0 0.815537,0.2718455 0.815537,0.9344689 z m 0.815536,3.24515575 c 0,0.40776825 -0.645633,0.67961375 -1.359227,0.67961375 -0.696604,0 -1.393208,-0.2548551 -1.393208,-0.67961375 0,0 0,-0.5776717 0.696604,-0.5776717 h 0.849517 c 0.186894,0 1.206314,0 1.206314,0.5776717 z M 69.398685,-4.750772e-4 V -2.6679591 c 0,-0.6626234 -0.169903,-1.4101985 -1.257285,-1.4101985 -0.50971,0 -1.00243,0.2378648 -1.325247,0.645633 V -6.218941 h -0.713594 v 6.2184659228 h 0.747575 V -2.1922295 c 0,-0.594662 0.220874,-1.3082565 0.900488,-1.3082565 0.900488,0 0.900488,0.6456331 0.900488,0.9004883 V -4.750772e-4 Z M 73.446635,-1.1558185 c 0,-0.3228165 -0.118932,-0.6286427 -0.441749,-0.9004882 -0.288836,-0.2548552 -0.560681,-0.3058262 -1.121363,-0.4247586 -0.322816,-0.050971 -0.764565,-0.1359228 -0.764565,-0.5606814 0,-0.5267006 0.628643,-0.5267006 0.764565,-0.5267006 0.662624,0 1.036411,0.2038841 1.308257,0.3398069 l 0.101942,-0.6286428 c -0.543691,-0.2378648 -0.96845,-0.2718455 -1.325247,-0.2718455 -0.203884,0 -1.529131,0 -1.529131,1.1723338 0,0.4417489 0.254855,0.6966041 0.356797,0.7985461 0.339807,0.3058262 0.577672,0.3398069 1.189324,0.4587393 0.288836,0.050971 0.798547,0.1529131 0.798547,0.6116524 0,0.5776717 -0.730585,0.5776717 -0.849518,0.5776717 -0.5267,0 -1.036411,-0.16990344 -1.427189,-0.44174894 l -0.118932,0.66262341 c 0.543691,0.27184551 1.087382,0.39077792 1.546121,0.39077792 0.577672,0 1.512141,-0.18689379 1.512141,-1.25728549 z m 0,0"
       style="fill:#000000;fill-opacity:1;fill-rule:nonzero;stroke:none"
       aria-label="KeyBreakthroughs"
       transform="matrix(0.91964,0,0,0.91964,226.7446,11.867624)" />
  </g>
</svg>
