<?xml version="1.0" encoding="UTF-8" standalone="no"?>
<!-- Created with Inkscape (http://www.inkscape.org/) -->

<svg
   version="1.1"
   id="svg1"
   width="577.71069"
   height="235.65868"
   viewBox="0 0 577.71069 235.65868"
   xmlns="http://www.w3.org/2000/svg"
   xmlns:svg="http://www.w3.org/2000/svg">
  <defs
     id="defs1" />
  <g
     id="g1">
    <path
       id="path1"
       d="M -35.75227,127.56062 H 35.75227 L 0,175.75012 Z"
       style="fill:#f2d7d5;fill-opacity:1;fill-rule:nonzero;stroke:#d9534f;stroke-width:0.99628;stroke-linecap:round;stroke-linejoin:round;stroke-miterlimit:10;stroke-dasharray:none;stroke-opacity:1"
       transform="matrix(1.3333333,0,0,-1.3333333,292.32267,234.99467)" />
    <path
       id="path2"
       d="M -67.30074,85.04042 H 67.30074 l -31.54847,42.5202 h -71.50454 z"
       style="fill:#fef7e0;fill-opacity:1;fill-rule:nonzero;stroke:#fbbc04;stroke-width:0.99628;stroke-linecap:round;stroke-linejoin:round;stroke-miterlimit:10;stroke-dasharray:none;stroke-opacity:1"
       transform="matrix(1.3333333,0,0,-1.3333333,292.32267,234.99467)" />
    <path
       id="path3"
       d="M -98.84875,42.5202 H 98.84875 L 67.30074,85.04042 H -67.30074 Z"
       style="fill:#d6eaf8;fill-opacity:1;fill-rule:nonzero;stroke:#006395;stroke-width:0.99628;stroke-linecap:round;stroke-linejoin:round;stroke-miterlimit:10;stroke-dasharray:none;stroke-opacity:1"
       transform="matrix(1.3333333,0,0,-1.3333333,292.32267,234.99467)" />
    <path
       id="path4"
       d="M -130.39548,0 H 130.39548 L 98.84875,42.5202 h -197.6975 z"
       style="fill:#d5f5e3;fill-opacity:1;fill-rule:nonzero;stroke:#287528;stroke-width:0.99628;stroke-linecap:round;stroke-linejoin:round;stroke-miterlimit:10;stroke-dasharray:none;stroke-opacity:1"
       transform="matrix(1.3333333,0,0,-1.3333333,292.32267,234.99467)" />
    <path
       id="path5"
       d="m 5.4362422,-4.5461094 c 0,-0.5976562 -0.1289063,-0.9960937 -0.4570313,-1.3476562 -0.4335937,-0.4921875 -1.1601562,-0.75 -2.0976562,-0.75 -1.5703125,0 -2.48437501,0.7382812 -2.48437501,2.0039062 0,1.0195313 0.515625,1.5117188 1.83984371,1.7578125 l 0.9140625,0.1875 c 0.9023438,0.1640625 1.2304688,0.421875 1.2304688,0.9492188 0,0.5390625 -0.5039063,0.87890623 -1.3125,0.87890623 -0.9140625,0 -1.4296875,-0.38671873 -1.4765625,-1.08984373 H 0.27999219 c 0.0820313,1.40624998 1.04296871,2.16796873 2.71875001,2.16796873 1.6757812,0 2.671875,-0.796875 2.671875,-2.12109373 0,-1.03125 -0.515625,-1.5703125 -1.7226563,-1.8046875 l -1.03125,-0.1992188 c -0.9492187,-0.1875 -1.2304687,-0.375 -1.2304687,-0.84375 0,-0.4921875 0.4335937,-0.8085937 1.125,-0.8085937 0.8554687,0 1.3242187,0.3632812 1.3710937,1.0195312 z M 8.6764766,-4.7453281 H 7.9850703 v -1.3007813 h -1.265625 v 1.3007813 h -0.609375 v 0.8320312 h 0.609375 v 2.97656253 c 0,0.76171875 0.4101563,1.1484375 1.2304688,1.1484375 0.28125,0 0.5039062,-0.0351563 0.7265625,-0.10546875 v -0.87890625 c -0.1171875,0.0234375 -0.1992188,0.0351563 -0.28125,0.0351563 -0.3398438,0 -0.4101563,-0.10546875 -0.4101563,-0.53906253 v -2.6367188 h 0.6914063 z m 2.9853514,-0.1757813 c -1.476562,0 -2.3789061,0.9726563 -2.3789061,2.5664063 0,1.59374998 0.9023441,2.56640623 2.3906251,2.56640623 1.464844,0 2.390625,-0.984375 2.390625,-2.53125003 0,-1.640625 -0.878906,-2.6015625 -2.402344,-2.6015625 z m 0.01172,1.0078125 c 0.691406,0 1.136719,0.6210938 1.136719,1.5703125 0,0.9140625 -0.46875,1.53515628 -1.136719,1.53515628 -0.679688,0 -1.136719,-0.62109378 -1.136719,-1.54687498 0,-0.9257813 0.457031,-1.5585938 1.136719,-1.5585938 z m 3.333984,-0.9257812 V 7.65625e-4 h 1.253907 V -2.5773594 c 0,-0.7265625 0.375,-1.1015625 1.101562,-1.1015625 0.140625,0 0.234375,0.011719 0.398438,0.035156 v -1.265625 c -0.07031,-0.011719 -0.117188,-0.011719 -0.152344,-0.011719 -0.574219,0 -1.078125,0.375 -1.347656,1.03125 v -0.9492187 z m 7.623047,4.68749998 C 22.407923,-0.36251562 22.33761,-0.49142187 22.33761,-0.73751562 V -3.4328281 c 0,-0.984375 -0.667968,-1.4882813 -1.980468,-1.4882813 -1.300782,0 -1.992188,0.5507813 -2.0625,1.6757813 h 1.207031 c 0.05859,-0.5039063 0.269531,-0.6679688 0.890625,-0.6679688 0.480469,0 0.726562,0.1640625 0.726562,0.4921875 0,0.1640625 -0.08203,0.3046875 -0.222656,0.375 -0.164062,0.09375 -0.164062,0.09375 -0.785156,0.1875 l -0.503906,0.09375 c -0.960938,0.1523438 -1.429688,0.6445313 -1.429688,1.5234375 0,0.41015628 0.117188,0.75000003 0.339844,0.99609378 0.28125,0.28125 0.703125,0.45703125 1.136719,0.45703125 0.539062,0 1.03125,-0.234375 1.464843,-0.69140625 0,0.24609375 0.03516,0.33984375 0.152344,0.480468745 h 1.359375 z m -1.51172,-1.79296878 c 0,0.7265625 -0.363281,1.13671878 -0.996093,1.13671878 -0.421875,0 -0.679688,-0.22265628 -0.679688,-0.58593748 0,-0.375 0.1875,-0.5507813 0.714844,-0.65625 l 0.421875,-0.082031 c 0.339844,-0.058594 0.386719,-0.082031 0.539062,-0.1523437 z m 5.367188,-2.8945312 v 0.7382812 c -0.375,-0.5742187 -0.785156,-0.8203125 -1.347656,-0.8203125 -1.148438,0 -2.003907,1.125 -2.003907,2.6132813 0,1.51171873 0.785157,2.51953123 1.980469,2.51953123 0.5625,0 0.902344,-0.17578125 1.371094,-0.703125 v 0.65625 c 0,0.57421875 -0.433594,0.98437497 -1.066406,0.98437497 -0.46875,0 -0.785157,-0.19921872 -0.890625,-0.56249997 h -1.300782 c 0.01172,0.375 0.152344,0.63281247 0.480469,0.90234377 0.386719,0.3164062 0.925781,0.46875 1.664063,0.46875 1.464843,0 2.308593,-0.65625 2.308593,-1.79296877 V -4.8390781 Z m -1.078125,0.9726562 c 0.632812,0 1.101562,0.6445313 1.101562,1.546875 0,0.8789063 -0.457031,1.47656253 -1.113281,1.47656253 -0.597656,0 -1.007812,-0.59765623 -1.007812,-1.47656253 0,-0.9140625 0.410156,-1.546875 1.019531,-1.546875 z m 7.6875,1.8398438 c 0.01172,-0.1054688 0.01172,-0.1523438 0.01172,-0.2109375 0,-0.4921875 -0.07031,-0.9375 -0.1875,-1.2773438 -0.328125,-0.8789062 -1.113282,-1.40625 -2.085938,-1.40625 -1.382812,0 -2.238281,1.0078125 -2.238281,2.625 0,1.55859378 0.84375,2.50781253 2.214844,2.50781253 1.078125,0 1.957031,-0.62109375 2.238281,-1.57031253 H 31.80636 c -0.152343,0.38671878 -0.492187,0.60937503 -0.949218,0.60937503 -0.363282,0 -0.644532,-0.15234375 -0.832032,-0.42187503 -0.117187,-0.1875 -0.164062,-0.3984375 -0.175781,-0.8554687 z m -3.234375,-0.8320313 c 0.08203,-0.7382812 0.398437,-1.1015625 0.960937,-1.1015625 0.304688,0 0.597657,0.1523438 0.773438,0.3984375 0.117187,0.1875 0.175781,0.375 0.199219,0.703125 z m 7.831055,-3.6796875 c -1.03125,1.5585938 -1.453125,2.7890625 -1.453125,4.1601563 0,1.38281248 0.421875,2.62499998 1.453125,4.171875 h 0.902343 c -0.949218,-1.85156252 -1.253906,-2.8476563 -1.253906,-4.171875 0,-1.3007813 0.304688,-2.3320313 1.253906,-4.1601563 z m 6.606445,1.9921875 c 0,-0.5976562 -0.128906,-0.9960937 -0.457031,-1.3476562 -0.433594,-0.4921875 -1.160157,-0.75 -2.097657,-0.75 -1.570312,0 -2.484375,0.7382812 -2.484375,2.0039062 0,1.0195313 0.515625,1.5117188 1.839844,1.7578125 l 0.914063,0.1875 c 0.902343,0.1640625 1.230468,0.421875 1.230468,0.9492188 0,0.5390625 -0.503906,0.87890623 -1.3125,0.87890623 -0.914062,0 -1.429687,-0.38671873 -1.476562,-1.08984373 h -1.3125 c 0.08203,1.40624998 1.042969,2.16796873 2.71875,2.16796873 1.675781,0 2.671875,-0.796875 2.671875,-2.12109373 0,-1.03125 -0.515625,-1.5703125 -1.722656,-1.8046875 l -1.03125,-0.1992188 c -0.949219,-0.1875 -1.230469,-0.375 -1.230469,-0.84375 0,-0.4921875 0.433594,-0.8085937 1.125,-0.8085937 0.855469,0 1.324219,0.3632812 1.371094,1.0195312 z m 5.979492,0 c 0,-0.5976562 -0.128906,-0.9960937 -0.457031,-1.3476562 -0.433594,-0.4921875 -1.160156,-0.75 -2.097656,-0.75 -1.570313,0 -2.484375,0.7382812 -2.484375,2.0039062 0,1.0195313 0.515625,1.5117188 1.839843,1.7578125 l 0.914063,0.1875 c 0.902344,0.1640625 1.230469,0.421875 1.230469,0.9492188 0,0.5390625 -0.503907,0.87890623 -1.3125,0.87890623 -0.914063,0 -1.429688,-0.38671873 -1.476563,-1.08984373 h -1.3125 c 0.08203,1.40624998 1.042969,2.16796873 2.71875,2.16796873 1.675781,0 2.671875,-0.796875 2.671875,-2.12109373 0,-1.03125 -0.515625,-1.5703125 -1.722656,-1.8046875 l -1.03125,-0.1992188 c -0.949219,-0.1875 -1.230469,-0.375 -1.230469,-0.84375 0,-0.4921875 0.433594,-0.8085937 1.125,-0.8085937 0.855469,0 1.324219,0.3632812 1.371094,1.0195312 z m 1.233399,4.546875025 h 2.554687 c 0.996094,0 1.617188,-0.234374995 2.0625,-0.761718745 C 56.64425,-1.3703281 56.9255,-2.2609531 56.9255,-3.2687656 c 0,-1.0078125 -0.28125,-1.8984375 -0.796875,-2.5078125 -0.445312,-0.5390625 -1.054687,-0.7617188 -2.0625,-0.7617188 H 51.511438 Z M 52.859094,-1.1242344 v -4.2890625 h 1.207031 c 1.007813,0 1.511719,0.703125 1.511719,2.15625 0,1.4296875 -0.503906,2.1328125 -1.511719,2.1328125 z m 6.298828,-5.2734375 -1.839844,6.52734378 h 0.597656 l 1.839844,-6.52734378 z m 1.321289,6.398437525 h 2.554687 c 0.996094,0 1.617188,-0.234374995 2.0625,-0.761718745 0.515625,-0.60937498 0.796875,-1.49999998 0.796875,-2.50781248 0,-1.0078125 -0.28125,-1.8984375 -0.796875,-2.5078125 -0.445312,-0.5390625 -1.054687,-0.7617188 -2.0625,-0.7617188 H 60.479211 Z M 61.826867,-1.1242344 v -4.2890625 h 1.207031 c 1.007813,0 1.511719,0.703125 1.511719,2.15625 0,1.4296875 -0.503906,2.1328125 -1.511719,2.1328125 z m 6.28711,-3.7148437 H 66.86007 V 7.65625e-4 h 1.253907 z m 0,-1.6992188 H 66.86007 v 1.125 h 1.253907 z m 5.165039,3.2578125 c -0.01172,-1.0195312 -0.808594,-1.640625 -2.097657,-1.640625 -1.230468,0 -1.992187,0.6210938 -1.992187,1.6171875 0,0.3164063 0.09375,0.5976563 0.269531,0.7851563 0.164063,0.1757812 0.316406,0.2460937 0.785156,0.3984375 l 1.5,0.46875 c 0.316407,0.1054687 0.421875,0.1992187 0.421875,0.3984375 0,0.29296873 -0.351562,0.46874998 -0.9375,0.46874998 -0.316406,0 -0.585937,-0.0585938 -0.738281,-0.1640625 -0.140625,-0.10546878 -0.1875,-0.19921878 -0.246094,-0.45703128 h -1.230468 c 0.03516,1.05468753 0.820312,1.61718753 2.285156,1.61718753 0.679687,0 1.183594,-0.15234375 1.546875,-0.43359375 0.351562,-0.29296875 0.574219,-0.73828125 0.574219,-1.20703128 0,-0.6328125 -0.316407,-1.03125 -0.949219,-1.21875 l -1.59375,-0.4570312 c -0.351563,-0.1171875 -0.433594,-0.1875 -0.433594,-0.3867188 0,-0.2695312 0.28125,-0.4453125 0.726563,-0.4453125 0.597656,0 0.890625,0.2226563 0.902343,0.65625 z m 2.241211,0.328125 V -6.5382969 H 74.26632 V 7.65625e-4 h 1.253907 V -1.5812656 l 0.503906,-0.5507813 1.160156,2.132812525 h 1.464844 L 76.89132,-3.0109531 l 1.640625,-1.828125 h -1.417968 z m 4.294921,4.7460938 c 1.03125,-1.54687502 1.464844,-2.78906252 1.464844,-4.1601563 0,-1.3828125 -0.433594,-2.6132812 -1.464844,-4.171875 h -0.890625 c 0.949219,1.8515625 1.253907,2.859375 1.253907,4.171875 0,1.3125 -0.304688,2.33203128 -1.253907,4.1601563 z m 0,0"
       style="fill:#287528;fill-opacity:1;fill-rule:nonzero;stroke:none"
       aria-label="Storage(SSD/Disk)"
       transform="matrix(1.3333333,0,0,1.3333333,237.84933,209.67867)" />
    <path
       id="path6"
       d="M 4.5456953,-2.9642031 V 6.40625e-4 H 5.8933516 V -6.5384219 h -1.359375 v 2.4492188 H 1.9558516 V -6.5384219 H 0.60819531 V 6.40625e-4 H 1.9558516 V -2.9642031 Z M 7.2117109,6.40625e-4 h 2.9414061 c 0.75,0 1.253906,-0.140624995 1.640625,-0.480468745 0.398438,-0.328125 0.644531,-0.87890628 0.644531,-1.40624998 0,-0.6445313 -0.339843,-1.1484375 -1.078125,-1.5820313 0.644532,-0.4101562 0.890625,-0.7851562 0.890625,-1.3476562 0,-0.4453125 -0.222656,-0.9257813 -0.585937,-1.2421875 -0.386719,-0.328125 -0.84375,-0.4804688 -1.546875,-0.4804688 H 7.2117109 Z M 8.5476484,-5.4134219 h 1.4648436 c 0.621094,0 0.949219,0.2578125 0.949219,0.7382813 0,0.4804687 -0.328125,0.7382812 -0.949219,0.7382812 H 8.5476484 Z m 0,2.6015625 h 1.6054686 c 0.65625,0 0.996094,0.2929688 0.996094,0.84375 0,0.5507813 -0.339844,0.84375 -0.996094,0.84375 H 8.5476484 Z m 6.3339846,-2.2851562 1.171875,5.097656225 h 1.347656 L 18.56132,-5.0970156 V 6.40625e-4 h 1.347657 V -6.5384219 h -2.027344 l -1.148438,5.203125 -1.183593,-5.203125 H 13.533977 V 6.40625e-4 h 1.347656 z m 7.397461,-1.3007813 -1.839844,6.52734378 h 0.597656 L 22.87675,-6.3977969 Z m 1.321289,6.398437525 h 2.554687 c 0.996094,0 1.617188,-0.234374995 2.0625,-0.761718745 0.515625,-0.60937498 0.796875,-1.49999998 0.796875,-2.50781248 0,-1.0078125 -0.28125,-1.8984375 -0.796875,-2.5078125 -0.445312,-0.5390625 -1.054687,-0.7617188 -2.0625,-0.7617188 H 23.600383 Z M 24.948039,-1.1243594 v -4.2890625 h 1.207031 c 1.007813,0 1.511719,0.703125 1.511719,2.15625 0,1.4296875 -0.503906,2.1328125 -1.511719,2.1328125 z m 6.498047,-1.4648437 h 1.546875 c 0.574219,0 0.832031,0.234375 0.832031,0.7734375 0,0.058594 0,0.1523437 -0.01172,0.2695312 -0.01172,0.1640625 -0.01172,0.328125 -0.01172,0.421875 0,0.60937503 0.03516,0.80859378 0.210937,1.125000025 h 1.441406 V -0.24545312 c -0.210937,-0.1171875 -0.292968,-0.24609375 -0.292968,-0.5390625 -0.03516,-1.92187498 -0.07031,-2.01562498 -0.902344,-2.36718748 0.738281,-0.2929688 1.101562,-0.8203125 1.101562,-1.6171875 0,-0.515625 -0.175781,-0.9960938 -0.492187,-1.3125 -0.292969,-0.3046875 -0.703125,-0.4570313 -1.265625,-0.4570313 H 30.09843 V 6.40625e-4 h 1.347656 z m 0,-1.125 v -1.6992188 h 1.617187 c 0.386719,0 0.550782,0.035156 0.714844,0.1640625 0.164063,0.140625 0.246094,0.3632813 0.246094,0.6679688 0,0.3164062 -0.09375,0.5625 -0.246094,0.703125 -0.140625,0.1171875 -0.328125,0.1640625 -0.714844,0.1640625 z m 8.897461,2.4023437 0.433594,1.312500025 h 1.382812 L 39.898234,-6.5384219 H 38.409953 L 36.089641,6.40625e-4 h 1.371093 L 37.894328,-1.3118594 Z m -0.363281,-1.125 h -1.699219 l 0.84375,-2.5546875 z m 4.283203,-2.6601562 1.171875,5.097656225 H 46.783 L 47.943156,-5.0970156 V 6.40625e-4 h 1.347657 V -6.5384219 h -2.027344 l -1.148438,5.203125 -1.183593,-5.203125 H 42.915813 V 6.40625e-4 h 1.347656 z m 0,0"
       style="fill:#006395;fill-opacity:1;fill-rule:nonzero;stroke:none"
       aria-label="HBM/DRAM"
       transform="matrix(1.3333333,0,0,1.3333333,259.12267,154.24133)" />
    <path
       id="path7"
       d="M 2.0629375,-6.5399062 H 0.71528125 V -8.4375e-4 H 5.1918438 V -1.1258437 H 2.0629375 Z m 5.5488281,2.15625 V -8.4375e-4 H 8.8656719 V -6.3524062 H 8.0336406 c -0.1992187,0.75 -0.8554687,1.1367187 -1.9453125,1.1367187 v 0.8320313 z m 4.7138674,-2.015625 -1.839844,6.5273437 h 0.597656 l 1.839844,-6.5273437 z m 2.692383,-0.140625 h -1.347657 v 6.53906245 h 4.476563 V -1.1258437 h -3.128906 z m 8.009765,5.4140625 h -2.695312 c 0.164062,-0.3398438 0.363281,-0.515625 1.289062,-1.1953125 1.101563,-0.8085938 1.429688,-1.2890625 1.429688,-2.15625 0,-1.2304688 -0.84375,-2.015625 -2.179688,-2.015625 -1.3125,0 -2.085937,0.7851562 -2.085937,2.1210937 0,0.058594 0,0.1289063 0.01172,0.234375 h 1.195312 V -4.3485 c 0,-0.703125 0.328125,-1.125 0.902344,-1.125 0.5625,0 0.902344,0.3867188 0.902344,1.03125 0,0.6914063 -0.222657,0.9726563 -1.628907,1.96875 -1.066406,0.7382813 -1.40625,1.3007813 -1.464843,2.47265625 h 4.324218 z m 2.25586,-5.2734375 -1.839844,6.5273437 h 0.597656 l 1.839844,-6.5273437 z m 2.692382,-0.140625 H 26.628367 V -8.4375e-4 H 31.10493 V -1.1258437 H 27.976023 Z M 33.337352,-2.8485 c 0.433593,0 0.515625,0.011719 0.738281,0.070312 0.421875,0.1171875 0.691406,0.4804688 0.691406,0.9492188 0,0.5507812 -0.398437,0.96093745 -0.949219,0.96093745 -0.585937,0 -0.914062,-0.33984375 -0.949218,-0.99609375 h -1.21875 c 0.01172,1.27734375 0.84375,2.07421875 2.144531,2.07421875 1.359375,0 2.226562,-0.796875 2.226562,-2.03906245 0,-0.75 -0.328125,-1.2304688 -1.042968,-1.5820313 0.585937,-0.3632812 0.832031,-0.7617187 0.832031,-1.3476562 0,-1.0546875 -0.785156,-1.734375 -2.015625,-1.734375 -0.726563,0 -1.335938,0.2578125 -1.699219,0.7148437 -0.246094,0.3164063 -0.363281,0.75 -0.363281,1.3125 v 0.1054688 h 1.171875 c 0,-0.3398438 0.03516,-0.5039063 0.09375,-0.6679688 0.117187,-0.28125 0.398437,-0.4453125 0.773437,-0.4453125 0.503907,0 0.785157,0.3046875 0.785157,0.8320313 0,0.6328125 -0.363282,0.9609375 -1.113282,0.9609375 h -0.105468 z m 11.648437,-1.4765625 c -0.04687,-0.5625 -0.164062,-0.9257812 -0.445312,-1.2890625 -0.503907,-0.65625 -1.300782,-1.03125 -2.285157,-1.03125 -1.839843,0 -2.988281,1.3242188 -2.988281,3.4335938 0,2.0976562 1.136719,3.42187495 2.953125,3.42187495 1.628906,0 2.707031,-0.94921875 2.789063,-2.43749995 h -1.3125 c -0.08203,0.8320312 -0.609375,1.3007812 -1.441407,1.3007812 -1.042968,0 -1.652343,-0.84375 -1.652343,-2.2617187 0,-1.453125 0.644531,-2.3085938 1.699218,-2.3085938 0.46875,0 0.855469,0.1640625 1.101563,0.4804688 0.140625,0.1757812 0.210937,0.3398437 0.292969,0.6914062 z m 5.056641,4.171875 C 49.819773,-0.364125 49.749461,-0.49303125 49.749461,-0.739125 v -2.6953125 c 0,-0.984375 -0.667969,-1.4882812 -1.980469,-1.4882812 -1.300781,0 -1.992187,0.5507812 -2.0625,1.6757812 h 1.207031 c 0.05859,-0.5039062 0.269532,-0.6679687 0.890625,-0.6679687 0.480469,0 0.726563,0.1640625 0.726563,0.4921875 0,0.1640625 -0.08203,0.3046875 -0.222656,0.375 -0.164063,0.09375 -0.164063,0.09375 -0.785157,0.1875 l -0.503906,0.09375 c -0.960937,0.1523437 -1.429687,0.6445312 -1.429687,1.5234375 0,0.4101562 0.117187,0.74999995 0.339843,0.9960937 0.28125,0.28125 0.703125,0.45703125 1.136719,0.45703125 0.539063,0 1.03125,-0.234375 1.464844,-0.69140625 0,0.24609375 0.03516,0.33984375 0.152344,0.48046875 h 1.359375 z m -1.511719,-1.7929687 c 0,0.7265625 -0.363281,1.1367187 -0.996094,1.1367187 -0.421875,0 -0.679687,-0.2226562 -0.679687,-0.5859375 0,-0.375 0.1875,-0.5507812 0.714843,-0.65625 l 0.421875,-0.082031 C 48.331492,-2.19225 48.378367,-2.2156875 48.530711,-2.286 Z M 55.00532,-3.036 c -0.08203,-1.1835937 -0.878906,-1.8867187 -2.085937,-1.8867187 -1.441406,0 -2.285156,0.9492187 -2.285156,2.6015625 0,1.59374995 0.832031,2.53124995 2.273437,2.53124995 1.171875,0 1.980469,-0.7265625 2.097656,-1.88671875 h -1.195312 c -0.164063,0.6210938 -0.410156,0.8671875 -0.902344,0.8671875 -0.632812,0 -1.019531,-0.5742187 -1.019531,-1.5117187 0,-0.4570313 0.09375,-0.890625 0.246094,-1.171875 0.140625,-0.2695313 0.421875,-0.421875 0.773437,-0.421875 0.515625,0 0.761719,0.2460937 0.902344,0.8789062 z m 0.817383,-3.5039062 v 6.53906245 h 1.253906 V -2.9070937 c 0,-0.5507813 0.410157,-0.9492188 0.972657,-0.9492188 0.269531,0 0.480468,0.09375 0.632812,0.2929688 0.105469,0.1640625 0.140625,0.2929687 0.140625,0.609375 v 2.95312495 h 1.253906 V -3.2469375 c 0,-0.5976562 -0.164062,-1.03125 -0.492187,-1.3125 -0.28125,-0.234375 -0.679688,-0.3632812 -1.089844,-0.3632812 -0.621094,0 -1.066406,0.2460937 -1.417969,0.7851562 v -2.4023437 z m 9.580078,4.5117187 c 0.01172,-0.1054687 0.01172,-0.1523437 0.01172,-0.2109375 0,-0.4921875 -0.07031,-0.9375 -0.1875,-1.2773437 -0.328125,-0.8789063 -1.113281,-1.40625 -2.085937,-1.40625 -1.382813,0 -2.238282,1.0078125 -2.238282,2.625 0,1.5585937 0.84375,2.50781245 2.214844,2.50781245 1.078125,0 1.957031,-0.62109375 2.238281,-1.57031245 H 64.11372 c -0.152344,0.3867187 -0.492188,0.60937495 -0.949219,0.60937495 -0.363281,0 -0.644531,-0.15234375 -0.832031,-0.42187495 -0.117188,-0.1875 -0.164063,-0.3984375 -0.175781,-0.8554688 z m -3.234375,-0.8320312 c 0.08203,-0.7382813 0.398438,-1.1015625 0.960938,-1.1015625 0.304687,0 0.597656,0.1523437 0.773437,0.3984375 0.117188,0.1875 0.175782,0.375 0.199219,0.703125 z m 0,0"
       style="fill:#fbbc04;fill-opacity:1;fill-rule:nonzero;stroke:none"
       aria-label="L1/L2/L3Cache"
       transform="matrix(1.3333333,0,0,1.3333333,248.53067,97.548)" />
    <path
       id="path8"
       d="m 2.0624063,-2.5887734 h 1.546875 c 0.5742187,0 0.8320312,0.234375 0.8320312,0.7734375 0,0.058594 0,0.1523437 -0.011719,0.2695312 -0.011719,0.1640625 -0.011719,0.328125 -0.011719,0.421875 0,0.60937501 0.035156,0.80859376 0.2109375,1.12500001 H 6.0702188 V -0.24502344 C 5.8592813,-0.36221094 5.77725,-0.49111719 5.77725,-0.78408594 5.7420938,-2.7059609 5.7069375,-2.7997109 4.8749063,-3.1512734 c 0.7382812,-0.2929688 1.1015625,-0.8203125 1.1015625,-1.6171875 0,-0.515625 -0.1757813,-0.9960938 -0.4921875,-1.3125 -0.2929688,-0.3046875 -0.703125,-0.4570313 -1.265625,-0.4570313 H 0.71475 v 6.53906251 h 1.3476563 z m 0,-1.125 v -1.6992188 h 1.6171875 c 0.3867187,0 0.5507812,0.035156 0.7148437,0.1640625 0.1640625,0.140625 0.2460938,0.3632813 0.2460938,0.6679688 0,0.3164062 -0.09375,0.5625 -0.2460938,0.703125 -0.140625,0.1171875 -0.328125,0.1640625 -0.7148437,0.1640625 z m 9.1113277,1.6875 c 0.01172,-0.1054688 0.01172,-0.1523438 0.01172,-0.2109375 0,-0.4921875 -0.07031,-0.9375 -0.1875,-1.2773438 -0.328125,-0.8789062 -1.1132811,-1.40625 -2.0859374,-1.40625 -1.3828125,0 -2.2382812,1.0078125 -2.2382812,2.625 0,1.55859376 0.84375,2.50781251 2.2148437,2.50781251 1.078125,0 1.9570309,-0.62109375 2.2382809,-1.57031251 H 9.8846719 c -0.1523438,0.38671876 -0.4921875,0.60937501 -0.9492188,0.60937501 -0.3632812,0 -0.6445312,-0.15234375 -0.8320312,-0.42187501 -0.1171875,-0.1875 -0.1640625,-0.3984375 -0.1757813,-0.8554687 z M 7.9393594,-2.8583047 c 0.082031,-0.7382812 0.3984375,-1.1015625 0.9609375,-1.1015625 0.3046875,0 0.5976562,0.1523438 0.7734375,0.3984375 0.1171875,0.1875 0.1757812,0.375 0.1992187,0.703125 z m 7.1748046,-1.9804687 v 0.7382812 c -0.375,-0.5742187 -0.785156,-0.8203125 -1.347656,-0.8203125 -1.148438,0 -2.003906,1.125 -2.003906,2.6132813 0,1.51171871 0.785156,2.51953121 1.980468,2.51953121 0.5625,0 0.902344,-0.17578125 1.371094,-0.703125 v 0.65625 c 0,0.57421875 -0.433594,0.98437499 -1.066406,0.98437499 -0.46875,0 -0.785156,-0.19921874 -0.890625,-0.56249999 h -1.300781 c 0.01172,0.375 0.152343,0.63281249 0.480468,0.90234379 0.386719,0.3164062 0.925782,0.46875 1.664063,0.46875 1.464844,0 2.308594,-0.65625 2.308594,-1.79296879 V -4.8387734 Z m -1.078125,0.9726562 c 0.632813,0 1.101563,0.6445313 1.101563,1.546875 0,0.8789063 -0.457032,1.47656251 -1.113282,1.47656251 -0.597656,0 -1.007812,-0.59765621 -1.007812,-1.47656251 0,-0.9140625 0.410156,-1.546875 1.019531,-1.546875 z m 4.751953,-0.9726562 h -1.253906 v 4.83984371 h 1.253906 z m 0,-1.6992188 h -1.253906 v 1.125 h 1.253906 z m 5.165039,3.2578125 c -0.01172,-1.0195312 -0.808593,-1.640625 -2.097656,-1.640625 -1.230469,0 -1.992187,0.6210938 -1.992187,1.6171875 0,0.3164063 0.09375,0.5976563 0.269531,0.7851563 0.164062,0.1757812 0.316406,0.2460937 0.785156,0.3984375 l 1.5,0.46875 c 0.316406,0.1054687 0.421875,0.1992187 0.421875,0.3984375 0,0.29296871 -0.351562,0.46874996 -0.9375,0.46874996 -0.316406,0 -0.585937,-0.0585938 -0.738281,-0.1640625 -0.140625,-0.10546876 -0.1875,-0.19921876 -0.246094,-0.45703126 h -1.230469 c 0.03516,1.05468751 0.820313,1.61718751 2.285157,1.61718751 0.679687,0 1.183593,-0.15234375 1.546875,-0.43359375 0.351562,-0.29296875 0.574218,-0.73828125 0.574218,-1.20703126 0,-0.6328125 -0.316406,-1.03125 -0.949218,-1.21875 l -1.59375,-0.4570312 c -0.351563,-0.1171875 -0.433594,-0.1875 -0.433594,-0.3867188 0,-0.2695312 0.28125,-0.4453125 0.726562,-0.4453125 0.597657,0 0.890625,0.2226563 0.902344,0.65625 z m 3.158203,-1.4648437 h -0.691406 v -1.3007813 h -1.265625 v 1.3007813 h -0.609375 v 0.8320312 h 0.609375 v 2.97656251 c 0,0.76171875 0.410156,1.1484375 1.230469,1.1484375 0.28125,0 0.503906,-0.0351563 0.726562,-0.10546875 v -0.87890625 c -0.117187,0.0234375 -0.199218,0.0351563 -0.28125,0.0351563 -0.339843,0 -0.410156,-0.10546875 -0.410156,-0.53906251 v -2.6367188 h 0.691406 z m 4.989258,2.71875 c 0.01172,-0.1054688 0.01172,-0.1523438 0.01172,-0.2109375 0,-0.4921875 -0.07031,-0.9375 -0.1875,-1.2773438 -0.328125,-0.8789062 -1.113281,-1.40625 -2.085938,-1.40625 -1.382812,0 -2.238281,1.0078125 -2.238281,2.625 0,1.55859376 0.84375,2.50781251 2.214844,2.50781251 1.078125,0 1.957031,-0.62109375 2.238281,-1.57031251 H 30.81143 c -0.152344,0.38671876 -0.492188,0.60937501 -0.949219,0.60937501 -0.363281,0 -0.644531,-0.15234375 -0.832031,-0.42187501 -0.117188,-0.1875 -0.164063,-0.3984375 -0.175782,-0.8554687 z m -3.234375,-0.8320313 c 0.08203,-0.7382812 0.398438,-1.1015625 0.960938,-1.1015625 0.304687,0 0.597656,0.1523438 0.773437,0.3984375 0.117188,0.1875 0.175781,0.375 0.199219,0.703125 z m 4.083985,-1.9804687 v 4.83984371 h 1.253906 V -2.5770547 c 0,-0.7265625 0.375,-1.1015625 1.101562,-1.1015625 0.140625,0 0.234375,0.011719 0.398438,0.035156 v -1.265625 c -0.07031,-0.011719 -0.117188,-0.011719 -0.152344,-0.011719 -0.574219,0 -1.078125,0.375 -1.347656,1.03125 v -0.9492187 z m 7.3125,1.5585937 c -0.01172,-1.0195312 -0.808594,-1.640625 -2.097657,-1.640625 -1.230468,0 -1.992187,0.6210938 -1.992187,1.6171875 0,0.3164063 0.09375,0.5976563 0.269531,0.7851563 0.164063,0.1757812 0.316406,0.2460937 0.785156,0.3984375 l 1.5,0.46875 c 0.316407,0.1054687 0.421875,0.1992187 0.421875,0.3984375 0,0.29296871 -0.351562,0.46874996 -0.9375,0.46874996 -0.316406,0 -0.585937,-0.0585938 -0.738281,-0.1640625 -0.140625,-0.10546876 -0.1875,-0.19921876 -0.246094,-0.45703126 h -1.230468 c 0.03516,1.05468751 0.820312,1.61718751 2.285156,1.61718751 0.679687,0 1.183594,-0.15234375 1.546875,-0.43359375 0.351562,-0.29296875 0.574219,-0.73828125 0.574219,-1.20703126 0,-0.6328125 -0.316407,-1.03125 -0.949219,-1.21875 l -1.59375,-0.4570312 c -0.351563,-0.1171875 -0.433594,-0.1875 -0.433594,-0.3867188 0,-0.2695312 0.28125,-0.4453125 0.726563,-0.4453125 0.597656,0 0.890625,0.2226563 0.902343,0.65625 z m 0,0"
       style="fill:#d9534f;fill-opacity:1;fill-rule:nonzero;stroke:none"
       aria-label="Registers"
       transform="matrix(1.3333333,0,0,1.3333333,265.172,51.994667)" />
    <path
       id="path9"
       d="M 148.82072,0 V 168.77618"
       style="fill:none;stroke:#999999;stroke-width:0.99628;stroke-linecap:round;stroke-linejoin:round;stroke-miterlimit:10;stroke-dasharray:none;stroke-opacity:1"
       transform="matrix(1.3333333,0,0,-1.3333333,292.32267,234.99467)" />
    <path
       id="path10"
       d="M 4.92007,0 C 4.31586,0.15076 1.65996,1.00505 0,1.93475 v -3.8695 C 1.65996,-1.00505 4.31586,-0.15076 4.92007,0 Z"
       style="fill:#999999;fill-opacity:1;fill-rule:nonzero;stroke:#999999;stroke-width:0.99628;stroke-linecap:round;stroke-linejoin:miter;stroke-miterlimit:10;stroke-dasharray:none;stroke-opacity:1"
       transform="matrix(0,-1.3333333,-1.3333333,0,490.75029,9.95976)" />
    <path
       id="path11"
       d="M 1.6400469,-2.9774453 H 4.7572344 V -3.7157266 H 1.6400469 V -5.8016641 H 5.1908281 V -6.5399453 H 0.80801563 V -8.828125e-4 H 1.6400469 Z m 8.1826172,2.54296874 c -0.082031,0.0117188 -0.1171875,0.0117188 -0.1523438,0.0117188 -0.2695312,0 -0.4101562,-0.12890625 -0.4101562,-0.36328125 V -3.5516641 c 0,-0.8320312 -0.609375,-1.2773437 -1.7695313,-1.2773437 -0.6796875,0 -1.2421875,0.1875 -1.5585937,0.5390625 -0.2109375,0.2460937 -0.3046875,0.515625 -0.3164063,0.984375 h 0.75 c 0.058594,-0.5742188 0.3984375,-0.8320313 1.1015625,-0.8320313 0.6679688,0 1.0546875,0.2460938 1.0546875,0.6914063 v 0.1992187 c 0,0.3164063 -0.1875,0.4453125 -0.7851562,0.515625 -1.0546875,0.140625 -1.21875,0.1757813 -1.5,0.2929688 -0.5507813,0.2226562 -0.8320313,0.6445312 -0.8320313,1.2539062 0,0.85546879 0.5976563,1.39453129 1.546875,1.39453129 0.5859375,0 1.0664063,-0.2109375025 1.59375,-0.69140625 0.046875,0.46875 0.28125,0.69140625 0.7734375,0.69140625 0.1523438,0 0.2695313,-0.0234375 0.5039063,-0.0820313 z M 8.5218828,-1.4774453 c 0,0.2460937 -0.082031,0.3984375 -0.3046875,0.60937499 -0.3046875,0.28125 -0.6679687,0.421875 -1.1132812,0.421875 -0.5742188,0 -0.9140625,-0.28125 -0.9140625,-0.76171879 0,-0.4921875 0.328125,-0.7382812 1.125,-0.8554687 0.7851562,-0.1054688 0.9492187,-0.140625 1.2070312,-0.2578125 z m 5.4199222,-1.9101563 c -0.01172,-0.9257812 -0.621094,-1.4414062 -1.699219,-1.4414062 -1.101563,0 -1.804688,0.5625 -1.804688,1.4296875 0,0.7382812 0.375,1.0898437 1.488282,1.359375 l 0.703125,0.1640625 c 0.515625,0.1289062 0.726562,0.3164062 0.726562,0.65625 0,0.43359374 -0.445312,0.73828124 -1.101562,0.73828124 -0.398438,0 -0.738282,-0.1171875 -0.925782,-0.31640625 -0.117187,-0.140625 -0.175781,-0.26953129 -0.222656,-0.59765629 h -0.785156 c 0.03516,1.07812504 0.644531,1.60546879 1.875,1.60546879 1.183594,0 1.933594,-0.5859375 1.933594,-1.48828129 0,-0.703125 -0.398438,-1.0898437 -1.324219,-1.3125 l -0.714844,-0.1757812 c -0.609375,-0.140625 -0.867187,-0.3398438 -0.867187,-0.6679688 0,-0.4335937 0.375,-0.703125 0.984375,-0.703125 0.609375,0 0.925781,0.2578125 0.949218,0.75 z m 2.830078,-1.3125 h -0.761719 v -1.2890625 h -0.75 v 1.2890625 h -0.632812 v 0.609375 h 0.632812 v 3.55078129 c 0,0.48046875 0.328125,0.75 0.902344,0.75 0.1875,0 0.363281,-0.0234375 0.609375,-0.0703125 v -0.62109375 c -0.09375,0.0234375 -0.210938,0.0351563 -0.351563,0.0351563 -0.328125,0 -0.410156,-0.09375 -0.410156,-0.421875 V -4.0907266 h 0.761719 z m 4.813476,2.6015625 c 0,-0.7148437 -0.04687,-1.1484375 -0.1875,-1.5 -0.304687,-0.7734375 -1.019531,-1.2304687 -1.898437,-1.2304687 -1.300781,0 -2.144531,0.9960937 -2.144531,2.5429687 0,1.54687504 0.808593,2.49609379 2.132812,2.49609379 1.066406,0 1.816406,-0.609375 2.003906,-1.64062499 h -0.75 c -0.210937,0.62109374 -0.632812,0.94921874 -1.230468,0.94921874 -0.480469,0 -0.878907,-0.22265625 -1.125,-0.60937504 -0.1875,-0.2695312 -0.246094,-0.5390625 -0.257813,-1.0078125 z m -3.433593,-0.609375 c 0.05859,-0.8671875 0.585937,-1.4296875 1.335937,-1.4296875 0.738281,0 1.300781,0.609375 1.300781,1.3710938 0,0.023437 0,0.035156 0,0.058594 z m 4.447265,-1.9921875 v 4.6992187875 h 0.75 V -2.4383828 c 0,-0.6679688 0.175782,-1.1132813 0.527344,-1.3710938 0.234375,-0.1757812 0.457031,-0.2226562 0.984375,-0.234375 v -0.7617187 c -0.128906,-0.023437 -0.199219,-0.023437 -0.292969,-0.023437 -0.480468,0 -0.855468,0.28125 -1.277343,0.984375 v -0.8554688 z m 10.201172,0.082031 c -0.01172,-1.2773438 -0.890625,-2.0273438 -2.390625,-2.0273438 -1.441406,0 -2.320312,0.7382813 -2.320312,1.921875 0,0.796875 0.421875,1.3007813 1.277343,1.5234375 l 1.617188,0.4335938 c 0.832031,0.2109375 1.207031,0.5390625 1.207031,1.0546875 0,0.3515625 -0.1875,0.703125 -0.46875,0.90234374 -0.257812,0.17578125 -0.667969,0.28125 -1.195312,0.28125 -0.714844,0 -1.195313,-0.17578125 -1.511719,-0.55078124 -0.246094,-0.28125 -0.351563,-0.5976563 -0.339844,-0.9960938 h -0.785156 c 0,0.5976563 0.117187,0.984375 0.386719,1.34765629 0.445312,0.609375 1.195312,0.9375 2.191406,0.9375 0.785156,0 1.417969,-0.1875 1.839844,-0.50390625 0.433593,-0.3515625 0.714843,-0.93750004 0.714843,-1.50000004 0,-0.8085937 -0.503906,-1.3945312 -1.394531,-1.640625 l -1.640625,-0.4335937 c -0.785156,-0.2226563 -1.066406,-0.46875 -1.066406,-0.9726563 0,-0.6679687 0.574219,-1.1015625 1.453125,-1.1015625 1.042969,0 1.628906,0.46875 1.640625,1.3242188 z m 1.116211,6.5742187 h 0.761719 v -2.44921871 c 0.386719,0.48046875 0.832031,0.703125 1.441406,0.703125 1.207031,0 2.003906,-0.984375 2.003906,-2.48437499 0,-1.5703125 -0.773437,-2.5546875 -2.015625,-2.5546875 -0.632812,0 -1.148437,0.28125 -1.5,0.84375 v -0.7148438 h -0.691406 z m 2.0625,-6.09375 c 0.832031,0 1.371094,0.7265625 1.371094,1.8515625 0,1.0664063 -0.550781,1.79296879 -1.371094,1.79296879 -0.785156,0 -1.300781,-0.71484379 -1.300781,-1.81640629 0,-1.1015625 0.515625,-1.828125 1.300781,-1.828125 z m 7.037109,2.0390625 c 0,-0.7148437 -0.04687,-1.1484375 -0.1875,-1.5 -0.304687,-0.7734375 -1.019531,-1.2304687 -1.898437,-1.2304687 -1.300781,0 -2.144531,0.9960937 -2.144531,2.5429687 0,1.54687504 0.808593,2.49609379 2.132812,2.49609379 1.066406,0 1.816406,-0.609375 2.003906,-1.64062499 h -0.75 c -0.210937,0.62109374 -0.632812,0.94921874 -1.230468,0.94921874 -0.480469,0 -0.878907,-0.22265625 -1.125,-0.60937504 -0.1875,-0.2695312 -0.246094,-0.5390625 -0.257813,-1.0078125 z m -3.433593,-0.609375 c 0.05859,-0.8671875 0.585937,-1.4296875 1.335937,-1.4296875 0.738281,0 1.300781,0.609375 1.300781,1.3710938 0,0.023437 0,0.035156 0,0.058594 z m 8.416992,0.609375 c 0,-0.7148437 -0.04687,-1.1484375 -0.1875,-1.5 -0.304688,-0.7734375 -1.019531,-1.2304687 -1.898438,-1.2304687 -1.300781,0 -2.144531,0.9960937 -2.144531,2.5429687 0,1.54687504 0.808594,2.49609379 2.132813,2.49609379 1.066406,0 1.816406,-0.609375 2.003906,-1.64062499 h -0.75 c -0.210938,0.62109374 -0.632813,0.94921874 -1.230469,0.94921874 -0.480469,0 -0.878906,-0.22265625 -1.125,-0.60937504 -0.1875,-0.2695312 -0.246094,-0.5390625 -0.257812,-1.0078125 z m -3.433594,-0.609375 c 0.05859,-0.8671875 0.585938,-1.4296875 1.335938,-1.4296875 0.738281,0 1.300781,0.609375 1.300781,1.3710938 0,0.023437 0,0.035156 0,0.058594 z m 8.267578,-3.8320312 h -0.75 v 2.4375 C 51.767,-4.5829141 51.274813,-4.8290078 50.642,-4.8290078 c -1.21875,0 -2.015625,0.9726562 -2.015625,2.4726562 0,1.58203129 0.773438,2.56640629 2.039063,2.56640629 0.644531,0 1.101562,-0.24609375 1.5,-0.83203125 v 0.6210937475 h 0.667968 z m -2.0625,2.4023437 c 0.808594,0 1.3125,0.7265625 1.3125,1.8398438 0,1.0898437 -0.515625,1.80468749 -1.3125,1.80468749 -0.820312,0 -1.371093,-0.72656249 -1.371093,-1.81640629 0,-1.1015625 0.550781,-1.828125 1.371093,-1.828125 z m 0,0"
       style="fill:#000000;fill-opacity:1;fill-rule:nonzero;stroke:none"
       aria-label="FasterSpeed"
       transform="matrix(1.3333333,0,0,1.3333333,498.97733,113.66133)" />
    <path
       id="path12"
       d="M 1.5477578,-6.5389844 H 0.71572656 V 7.8125e-5 H 4.7821328 V -0.73820312 h -3.234375 z m 5.8740234,1.7109375 c -1.3125,0 -2.109375,0.9375 -2.109375,2.5195313 0,1.57031248 0.7851563,2.51953123 2.1210938,2.51953123 1.3125,0 2.1210937,-0.94921875 2.1210937,-2.48437503 0,-1.6289062 -0.7734375,-2.5546875 -2.1328125,-2.5546875 z M 7.4335,-4.1366406 c 0.84375,0 1.3476562,0.6796875 1.3476562,1.8515625 0,1.1015625 -0.5273437,1.80468748 -1.3476562,1.80468748 -0.8320313,0 -1.3476563,-0.69140628 -1.3476563,-1.82812498 0,-1.1367188 0.515625,-1.828125 1.3476563,-1.828125 z M 14.804594,7.8125e-5 16.187406,-4.6991406 h -0.84375 l -0.9375,3.65625 -0.925781,-3.65625 h -0.914063 l -0.890625,3.65625 -0.960937,-3.65625 H 9.8944375 L 11.253812,7.8125e-5 h 0.84375 L 12.999906,-3.6796094 13.949125,7.8125e-5 Z M 20.813383,-2.0975781 c 0,-0.7148438 -0.04687,-1.1484375 -0.1875,-1.5 -0.304688,-0.7734375 -1.019531,-1.2304688 -1.898438,-1.2304688 -1.300781,0 -2.144531,0.9960938 -2.144531,2.5429688 0,1.54687498 0.808594,2.49609373 2.132813,2.49609373 1.066406,0 1.816406,-0.609375 2.003906,-1.64062503 h -0.75 c -0.210938,0.62109378 -0.632813,0.94921878 -1.230469,0.94921878 -0.480469,0 -0.878906,-0.22265625 -1.125,-0.60937498 -0.1875,-0.2695313 -0.246094,-0.5390625 -0.257812,-1.0078125 z m -3.433594,-0.609375 c 0.05859,-0.8671875 0.585938,-1.4296875 1.335938,-1.4296875 0.738281,0 1.300781,0.609375 1.300781,1.3710937 0,0.023437 0,0.035156 0,0.058594 z m 4.447266,-1.9921875 V 7.8125e-5 h 0.75 V -2.4374219 c 0,-0.6679687 0.175781,-1.1132812 0.527343,-1.3710937 0.234375,-0.1757813 0.457032,-0.2226563 0.984375,-0.234375 v -0.7617188 c -0.128906,-0.023437 -0.199218,-0.023437 -0.292968,-0.023437 -0.480469,0 -0.855469,0.28125 -1.277344,0.984375 v -0.8554687 z m 6.404297,-1.8398438 H 27.39932 V 7.8125e-5 h 4.066407 V -0.73820312 h -3.234375 z m 8.229492,6.10546878 c -0.08203,0.0117188 -0.117188,0.0117188 -0.152344,0.0117188 -0.269531,0 -0.410156,-0.12890625 -0.410156,-0.36328125 V -3.5507031 c 0,-0.8320313 -0.609375,-1.2773438 -1.769532,-1.2773438 -0.679687,0 -1.242187,0.1875 -1.558593,0.5390625 -0.210938,0.2460938 -0.304688,0.515625 -0.316407,0.984375 h 0.75 c 0.05859,-0.5742187 0.398438,-0.8320312 1.101563,-0.8320312 0.667969,0 1.054687,0.2460937 1.054687,0.6914062 v 0.1992188 c 0,0.3164062 -0.1875,0.4453125 -0.785156,0.515625 -1.054687,0.140625 -1.21875,0.1757812 -1.5,0.2929687 -0.550781,0.2226563 -0.832031,0.6445313 -0.832031,1.2539063 0,0.85546873 0.597656,1.39453123 1.546875,1.39453123 0.585937,0 1.066406,-0.210937505 1.59375,-0.69140625 0.04687,0.46875 0.28125,0.69140625 0.773437,0.69140625 0.152344,0 0.269532,-0.0234375 0.503907,-0.0820313 z M 35.160062,-1.4764844 c 0,0.2460938 -0.08203,0.3984375 -0.304687,0.60937503 -0.304688,0.28125 -0.667969,0.421875 -1.113281,0.421875 -0.574219,0 -0.914063,-0.28125 -0.914063,-0.76171873 0,-0.4921875 0.328125,-0.7382813 1.125,-0.8554688 0.785156,-0.1054687 0.949219,-0.140625 1.207031,-0.2578125 z m 3.767579,-3.2226562 h -0.761719 v -1.2890625 h -0.75 v 1.2890625 h -0.632813 v 0.609375 h 0.632813 v 3.55078123 c 0,0.48046875 0.328125,0.75 0.902344,0.75 0.1875,0 0.363281,-0.0234375 0.609375,-0.0703125 v -0.62109375 c -0.09375,0.0234375 -0.210938,0.0351563 -0.351563,0.0351563 -0.328125,0 -0.410156,-0.09375 -0.410156,-0.421875 V -4.0897656 h 0.761719 z m 4.813476,2.6015625 c 0,-0.7148438 -0.04687,-1.1484375 -0.1875,-1.5 -0.304687,-0.7734375 -1.019531,-1.2304688 -1.898437,-1.2304688 -1.300782,0 -2.144532,0.9960938 -2.144532,2.5429688 0,1.54687498 0.808594,2.49609373 2.132813,2.49609373 1.066406,0 1.816406,-0.609375 2.003906,-1.64062503 h -0.75 c -0.210937,0.62109378 -0.632812,0.94921878 -1.230469,0.94921878 -0.480468,0 -0.878906,-0.22265625 -1.125,-0.60937498 -0.1875,-0.2695313 -0.246093,-0.5390625 -0.257812,-1.0078125 z m -3.433594,-0.609375 c 0.05859,-0.8671875 0.585938,-1.4296875 1.335938,-1.4296875 0.738281,0 1.300781,0.609375 1.300781,1.3710937 0,0.023437 0,0.035156 0,0.058594 z m 4.458985,-1.9921875 V 7.8125e-5 h 0.75 V -2.5897656 c 0,-0.9609375 0.503906,-1.5820313 1.265625,-1.5820313 0.597656,0 0.972656,0.3515625 0.972656,0.9140625 V 7.8125e-5 h 0.75 V -3.5507031 c 0,-0.7734375 -0.585937,-1.2773438 -1.488281,-1.2773438 -0.703125,0 -1.148438,0.2695313 -1.570313,0.9140625 v -0.7851562 z m 8.569336,1.5820312 c -0.03516,-0.4570312 -0.128907,-0.75 -0.304688,-1.0195312 -0.328125,-0.4335938 -0.890625,-0.6914063 -1.546875,-0.6914063 -1.265625,0 -2.085937,0.9960938 -2.085937,2.5546875 0,1.52343753 0.808593,2.48437503 2.074218,2.48437503 1.125,0 1.828125,-0.6796875 1.921875,-1.82812503 h -0.75 c -0.128906,0.76171878 -0.515625,1.13671878 -1.148437,1.13671878 -0.832031,0 -1.324219,-0.67968748 -1.324219,-1.79296878 0,-1.171875 0.492188,-1.8632812 1.300781,-1.8632812 0.632813,0 1.019532,0.3632812 1.113282,1.0195312 z m 3.74707,-1.5820312 -1.300781,3.65625 -1.207031,-3.65625 h -0.796875 l 1.59375,4.72265623 -0.292969,0.73828125 C 54.96182,1.0899219 54.797758,1.2188281 54.481352,1.2188281 c -0.105469,0 -0.234375,-0.011719 -0.398438,-0.058594 v 0.6796875 c 0.152344,0.082031 0.304688,0.1171875 0.503906,0.1171875 0.246094,0 0.503907,-0.082031 0.703125,-0.2226563 0.234375,-0.1757812 0.363282,-0.375 0.503907,-0.74999997 l 2.097656,-5.68359373 z m 0,0"
       style="fill:#000000;fill-opacity:1;fill-rule:nonzero;stroke:none"
       aria-label="LowerLatency"
       transform="matrix(1.3333333,0,0,1.3333333,495.83867,128.27333)" />
    <path
       id="path13"
       d="M -148.82072,175.75012 V 6.97394"
       style="fill:none;stroke:#999999;stroke-width:0.99628;stroke-linecap:round;stroke-linejoin:round;stroke-miterlimit:10;stroke-dasharray:none;stroke-opacity:1"
       transform="matrix(1.3333333,0,0,-1.3333333,292.32267,234.99467)" />
    <path
       id="path14"
       d="M 4.92007,0 C 4.31586,0.15076 1.65996,1.00505 0,1.93475 v -3.8695 C 1.65996,-1.00505 4.31586,-0.15076 4.92007,0 Z"
       style="fill:#999999;fill-opacity:1;fill-rule:nonzero;stroke:#999999;stroke-width:0.99628;stroke-linecap:round;stroke-linejoin:miter;stroke-miterlimit:10;stroke-dasharray:none;stroke-opacity:1"
       transform="matrix(0,1.3333333,1.3333333,0,93.89504,225.69608)" />
    <path
       id="path15"
       d="M 1.5481406,-6.5394062 H 0.71610938 V -3.4375e-4 H 4.7825156 V -0.738625 h -3.234375 z m 8.2294922,6.1054687 c -0.082031,0.0117188 -0.1171875,0.0117188 -0.1523437,0.0117188 -0.2695313,0 -0.4101563,-0.12890625 -0.4101563,-0.36328125 V -3.551125 c 0,-0.8320312 -0.609375,-1.2773437 -1.7695312,-1.2773437 -0.6796875,0 -1.2421875,0.1875 -1.5585938,0.5390625 -0.2109375,0.2460938 -0.3046875,0.515625 -0.3164062,0.984375 h 0.75 c 0.058594,-0.5742188 0.3984375,-0.8320312 1.1015625,-0.8320312 0.6679687,0 1.0546875,0.2460937 1.0546875,0.6914062 v 0.1992187 c 0,0.3164063 -0.1875,0.4453125 -0.7851563,0.515625 -1.0546875,0.140625 -1.21875,0.1757813 -1.5,0.2929688 -0.5507812,0.2226562 -0.8320312,0.6445312 -0.8320312,1.2539063 0,0.8554687 0.5976562,1.3945312 1.546875,1.3945312 0.5859375,0 1.0664062,-0.2109375 1.59375,-0.69140625 0.046875,0.46875 0.28125,0.69140625 0.7734375,0.69140625 0.1523437,0 0.2695312,-0.0234375 0.5039062,-0.0820313 z M 8.4768516,-1.4769062 c 0,0.2460937 -0.082031,0.3984375 -0.3046875,0.60937495 -0.3046875,0.28125 -0.6679688,0.421875 -1.1132813,0.421875 -0.5742187,0 -0.9140625,-0.28125 -0.9140625,-0.76171875 0,-0.4921875 0.328125,-0.7382812 1.125,-0.8554687 0.7851563,-0.1054688 0.9492188,-0.140625 1.2070313,-0.2578125 z m 2.1152344,-3.2226563 v 4.69921875 h 0.75 V -2.4378437 c 0,-0.6679688 0.175781,-1.1132813 0.527344,-1.3710938 0.234375,-0.1757812 0.457031,-0.2226562 0.984375,-0.234375 v -0.7617187 c -0.128907,-0.023437 -0.199219,-0.023437 -0.292969,-0.023437 -0.480469,0 -0.855469,0.28125 -1.277344,0.984375 V -4.699562 Z m 6.055664,0 v 0.6796875 c -0.375,-0.5507812 -0.832031,-0.8085937 -1.429687,-0.8085937 -1.195313,0 -2.003907,1.03125 -2.003907,2.5546875 0,0.7734375 0.210938,1.40624995 0.597657,1.85156245 0.351562,0.3984375 0.84375,0.6328125 1.335937,0.6328125 0.597656,0 1.007813,-0.2578125 1.429688,-0.84375 v 0.234375 c 0,0.64453125 -0.08203,1.03125 -0.269532,1.2890625 C 16.108688,1.1598125 15.721969,1.323875 15.264938,1.323875 c -0.339844,0 -0.644532,-0.082031 -0.84375,-0.2460937 C 14.245406,0.93715625 14.175094,0.81996875 14.128219,0.53871875 H 13.3665 c 0.08203,0.89062505 0.773438,1.41796875 1.875,1.41796875 0.703125,0 1.300781,-0.2226562 1.605469,-0.5976562 0.363281,-0.4335938 0.492187,-1.03125005 0.492187,-2.13281255 V -4.6995625 Z m -1.347656,0.5625 c 0.808594,0 1.277344,0.6796875 1.277344,1.8515625 0,1.125 -0.480469,1.8046875 -1.277344,1.8046875 -0.808594,0 -1.300781,-0.6914062 -1.300781,-1.828125 0,-1.1367187 0.503906,-1.828125 1.300781,-1.828125 z M 22.536422,-2.098 c 0,-0.7148437 -0.04687,-1.1484375 -0.1875,-1.5 -0.304688,-0.7734375 -1.019531,-1.2304687 -1.898438,-1.2304687 -1.300781,0 -2.144531,0.9960937 -2.144531,2.5429687 0,1.546875 0.808594,2.49609375 2.132813,2.49609375 1.066406,0 1.816406,-0.609375 2.003906,-1.64062495 h -0.75 c -0.210938,0.6210937 -0.632813,0.9492187 -1.230469,0.9492187 -0.480469,0 -0.878906,-0.22265625 -1.125,-0.609375 C 19.149703,-1.3597187 19.091109,-1.62925 19.079391,-2.098 Z m -3.433594,-0.609375 c 0.05859,-0.8671875 0.585938,-1.4296875 1.335938,-1.4296875 0.738281,0 1.300781,0.609375 1.300781,1.3710938 0,0.023437 0,0.035156 0,0.058594 z m 4.444336,-1.9921875 v 4.69921875 h 0.75 V -2.4378437 c 0,-0.6679688 0.175781,-1.1132813 0.527344,-1.3710938 0.234375,-0.1757812 0.457031,-0.2226562 0.984375,-0.234375 v -0.7617187 c -0.128906,-0.023437 -0.199219,-0.023437 -0.292969,-0.023437 -0.480469,0 -0.855469,0.28125 -1.277344,0.984375 V -4.699562 Z m 10.77832,0.1875 C 34.067672,-5.94175 33.247359,-6.644875 31.805953,-6.644875 c -0.878906,0 -1.582031,0.28125 -2.0625,0.8203125 -0.597656,0.6445313 -0.914062,1.5703125 -0.914062,2.6367188 0,1.0664062 0.328125,1.9921875 0.949218,2.6367187 0.503907,0.515625 1.148438,0.76171875 1.992188,0.76171875 1.605469,0 2.496094,-0.8671875 2.695312,-2.58984375 h -0.867187 c -0.07031,0.4453125 -0.152344,0.75 -0.292969,1.0078125 -0.269531,0.5390625 -0.820312,0.84375 -1.523437,0.84375 -1.300782,0 -2.121094,-1.0429687 -2.121094,-2.671875 0,-1.6757812 0.785156,-2.7070312 2.050781,-2.7070312 0.527344,0 1.019531,0.1640625 1.289063,0.4101562 0.246093,0.2226563 0.375,0.5039063 0.480468,0.984375 z m 5.337891,4.078125 c -0.08203,0.0117188 -0.117187,0.0117188 -0.152344,0.0117188 -0.269531,0 -0.410156,-0.12890625 -0.410156,-0.36328125 V -3.551125 c 0,-0.8320312 -0.609375,-1.2773437 -1.769531,-1.2773437 -0.679688,0 -1.242188,0.1875 -1.558594,0.5390625 -0.210937,0.2460938 -0.304687,0.515625 -0.316406,0.984375 h 0.75 c 0.05859,-0.5742188 0.398437,-0.8320312 1.101562,-0.8320312 0.667969,0 1.054688,0.2460937 1.054688,0.6914062 v 0.1992187 c 0,0.3164063 -0.1875,0.4453125 -0.785156,0.515625 -1.054688,0.140625 -1.21875,0.1757813 -1.5,0.2929688 -0.550782,0.2226562 -0.832032,0.6445312 -0.832032,1.2539063 0,0.8554687 0.597657,1.3945312 1.546875,1.3945312 0.585938,0 1.066407,-0.2109375 1.59375,-0.69140625 0.04687,0.46875 0.28125,0.69140625 0.773438,0.69140625 0.152344,0 0.269531,-0.0234375 0.503906,-0.0820313 z m -1.300781,-1.0429687 c 0,0.2460937 -0.08203,0.3984375 -0.304688,0.60937495 -0.304687,0.28125 -0.667968,0.421875 -1.113281,0.421875 -0.574219,0 -0.914062,-0.28125 -0.914062,-0.76171875 0,-0.4921875 0.328125,-0.7382812 1.125,-0.8554687 0.785156,-0.1054688 0.949218,-0.140625 1.207031,-0.2578125 z m 1.974609,3.4335937 h 0.761719 v -2.44921875 c 0.386719,0.48046875 0.832031,0.703125 1.441406,0.703125 1.207031,0 2.003906,-0.984375 2.003906,-2.48437495 0,-1.5703125 -0.773437,-2.5546875 -2.015625,-2.5546875 -0.632812,0 -1.148437,0.28125 -1.5,0.84375 v -0.7148438 h -0.691406 z m 2.0625,-6.09375 c 0.832031,0 1.371094,0.7265625 1.371094,1.8515625 0,1.0664063 -0.550781,1.79296875 -1.371094,1.79296875 -0.785156,0 -1.300781,-0.71484375 -1.300781,-1.81640625 0,-1.1015625 0.515625,-1.828125 1.300781,-1.828125 z m 7.233399,3.703125 c -0.08203,0.0117188 -0.117188,0.0117188 -0.152344,0.0117188 -0.269531,0 -0.410156,-0.12890625 -0.410156,-0.36328125 V -3.551125 c 0,-0.8320312 -0.609375,-1.2773437 -1.769532,-1.2773437 -0.679687,0 -1.242187,0.1875 -1.558593,0.5390625 -0.210938,0.2460938 -0.304688,0.515625 -0.316407,0.984375 h 0.75 c 0.05859,-0.5742188 0.398438,-0.8320312 1.101563,-0.8320312 0.667969,0 1.054687,0.2460937 1.054687,0.6914062 v 0.1992187 c 0,0.3164063 -0.1875,0.4453125 -0.785156,0.515625 -1.054687,0.140625 -1.21875,0.1757813 -1.5,0.2929688 -0.550781,0.2226562 -0.832031,0.6445312 -0.832031,1.2539063 0,0.8554687 0.597656,1.3945312 1.546875,1.3945312 0.585937,0 1.066406,-0.2109375 1.59375,-0.69140625 0.04687,0.46875 0.28125,0.69140625 0.773437,0.69140625 0.152344,0 0.269532,-0.0234375 0.503907,-0.0820313 z M 48.33232,-1.4769062 c 0,0.2460937 -0.08203,0.3984375 -0.304687,0.60937495 -0.304688,0.28125 -0.667969,0.421875 -1.113281,0.421875 -0.574219,0 -0.914063,-0.28125 -0.914063,-0.76171875 0,-0.4921875 0.328125,-0.7382812 1.125,-0.8554687 0.785156,-0.1054688 0.949219,-0.140625 1.207031,-0.2578125 z m 5.712891,-1.640625 c -0.03516,-0.4570313 -0.128906,-0.75 -0.304688,-1.0195313 -0.328125,-0.4335937 -0.890625,-0.6914062 -1.546875,-0.6914062 -1.265625,0 -2.085937,0.9960937 -2.085937,2.5546875 0,1.52343745 0.808594,2.48437495 2.074219,2.48437495 1.125,0 1.828125,-0.6796875 1.921875,-1.82812495 h -0.75 c -0.128907,0.7617187 -0.515625,1.1367187 -1.148438,1.1367187 -0.832031,0 -1.324219,-0.6796875 -1.324219,-1.7929687 0,-1.171875 0.492188,-1.8632813 1.300782,-1.8632813 0.632812,0 1.019531,0.3632813 1.113281,1.0195313 z m 1.611328,-1.5820313 h -0.75 v 4.69921875 h 0.75 z m 0,-1.8398437 H 54.89482 v 0.9492187 h 0.761719 z m 2.917969,1.8398437 H 57.812789 V -5.988625 h -0.75 v 1.2890625 h -0.632812 v 0.609375 h 0.632812 v 3.55078125 c 0,0.48046875 0.328125,0.75 0.902344,0.75 0.1875,0 0.363281,-0.0234375 0.609375,-0.0703125 V -0.4808125 c -0.09375,0.0234375 -0.210938,0.0351563 -0.351563,0.0351563 -0.328125,0 -0.410156,-0.09375 -0.410156,-0.421875 v -3.2226563 h 0.761719 z m 3.697265,0 -1.300781,3.65625 -1.207031,-3.65625 h -0.796875 l 1.59375,4.72265625 -0.292969,0.73828125 c -0.117187,0.328125 -0.28125,0.4570313 -0.597656,0.4570313 -0.105469,0 -0.234375,-0.011719 -0.398438,-0.058594 V 1.8395 c 0.152344,0.082031 0.304688,0.1171875 0.503907,0.1171875 0.246093,0 0.503906,-0.082031 0.703125,-0.2226562 0.234375,-0.1757813 0.363281,-0.375 0.503906,-0.75000005 l 2.097656,-5.68359375 z m 0,0"
       style="fill:#000000;fill-opacity:1;fill-rule:nonzero;stroke:none"
       aria-label="LargerCapacity"
       transform="matrix(1.3333333,0,0,1.3333333,4.428,114.79733)" />
    <path
       id="path16"
       d="M 1.5481719,-6.5384453 H 0.71614063 V 6.171875e-4 H 4.7825469 V -0.73766406 h -3.234375 z m 5.8740234,1.7109375 c -1.3125,0 -2.109375,0.9375 -2.109375,2.5195312 0,1.57031254 0.7851563,2.51953129 2.1210938,2.51953129 1.3125,0 2.1210937,-0.94921875 2.1210937,-2.48437499 0,-1.6289063 -0.7734375,-2.5546875 -2.1328125,-2.5546875 z m 0.011719,0.6914062 c 0.84375,0 1.3476562,0.6796875 1.3476562,1.8515625 0,1.1015625 -0.5273437,1.80468754 -1.3476562,1.80468754 -0.8320313,0 -1.3476563,-0.69140624 -1.3476563,-1.82812504 0,-1.1367187 0.515625,-1.828125 1.3476563,-1.828125 z M 14.805008,6.171875e-4 16.18782,-4.6986016 h -0.84375 l -0.9375,3.65625 -0.925781,-3.65625 h -0.914062 l -0.890625,3.65625 -0.960938,-3.65625 H 9.8948516 L 11.254227,6.171875e-4 h 0.84375 L 13.00032,-3.6790703 13.949539,6.171875e-4 Z M 20.813797,-2.0970391 c 0,-0.7148437 -0.04687,-1.1484375 -0.1875,-1.5 -0.304688,-0.7734375 -1.019531,-1.2304687 -1.898438,-1.2304687 -1.300781,0 -2.144531,0.9960937 -2.144531,2.5429687 0,1.54687504 0.808594,2.49609379 2.132813,2.49609379 1.066406,0 1.816406,-0.609375 2.003906,-1.64062499 h -0.75 c -0.210938,0.62109374 -0.632813,0.94921874 -1.230469,0.94921874 -0.480469,0 -0.878906,-0.22265625 -1.125,-0.60937504 -0.1875,-0.2695312 -0.246094,-0.5390625 -0.257812,-1.0078125 z m -3.433594,-0.609375 c 0.05859,-0.8671875 0.585938,-1.4296875 1.335938,-1.4296875 0.738281,0 1.300781,0.609375 1.300781,1.3710938 0,0.023437 0,0.035156 0,0.058594 z m 4.447266,-1.9921875 V 6.171875e-4 h 0.75 V -2.4368828 c 0,-0.6679688 0.175781,-1.1132813 0.527344,-1.3710938 0.234375,-0.1757812 0.457031,-0.2226562 0.984375,-0.234375 v -0.7617187 c -0.128907,-0.023437 -0.199219,-0.023437 -0.292969,-0.023437 -0.480469,0 -0.855469,0.28125 -1.277344,0.984375 v -0.8554688 z m 10.787109,0.1875 c -0.257812,-1.4296875 -1.078125,-2.1328125 -2.519531,-2.1328125 -0.878906,0 -1.582031,0.28125 -2.0625,0.8203125 -0.597656,0.6445313 -0.914063,1.5703125 -0.914063,2.6367188 0,1.0664062 0.328125,1.9921875 0.949219,2.63671874 0.503906,0.515625 1.148438,0.76171875 1.992188,0.76171875 1.605468,0 2.496093,-0.8671875 2.695312,-2.58984379 h -0.867187 c -0.07031,0.4453125 -0.152344,0.75 -0.292969,1.0078125 -0.269531,0.53906254 -0.820313,0.84375004 -1.523438,0.84375004 -1.300781,0 -2.121093,-1.04296874 -2.121093,-2.67187504 0,-1.6757812 0.785156,-2.7070312 2.050781,-2.7070312 0.527344,0 1.019531,0.1640625 1.289062,0.4101562 0.246094,0.2226563 0.375,0.5039063 0.480469,0.984375 z m 2.979492,-0.3164062 c -1.3125,0 -2.109375,0.9375 -2.109375,2.5195312 0,1.57031254 0.785157,2.51953129 2.121094,2.51953129 1.3125,0 2.121094,-0.94921875 2.121094,-2.48437499 0,-1.6289063 -0.773438,-2.5546875 -2.132813,-2.5546875 z m 0.01172,0.6914062 c 0.84375,0 1.347656,0.6796875 1.347656,1.8515625 0,1.1015625 -0.527343,1.80468754 -1.347656,1.80468754 -0.832031,0 -1.347656,-0.69140624 -1.347656,-1.82812504 0,-1.1367187 0.515625,-1.828125 1.347656,-1.828125 z m 6.462891,0.75 c -0.01172,-0.9257812 -0.621094,-1.4414062 -1.699219,-1.4414062 -1.101563,0 -1.804688,0.5625 -1.804688,1.4296875 0,0.7382812 0.375,1.0898437 1.488282,1.359375 l 0.703125,0.1640625 c 0.515625,0.1289062 0.726562,0.3164062 0.726562,0.65625 0,0.43359374 -0.445312,0.73828124 -1.101562,0.73828124 -0.398438,0 -0.738282,-0.1171875 -0.925782,-0.31640625 -0.117187,-0.140625 -0.175781,-0.26953129 -0.222656,-0.59765629 h -0.785156 c 0.03516,1.07812504 0.644531,1.60546879 1.875,1.60546879 1.183594,0 1.933594,-0.5859375 1.933594,-1.48828129 0,-0.703125 -0.398438,-1.0898437 -1.324219,-1.3125 l -0.714844,-0.1757812 c -0.609375,-0.140625 -0.867187,-0.3398438 -0.867187,-0.6679688 0,-0.4335937 0.375,-0.703125 0.984375,-0.703125 0.609375,0 0.925781,0.2578125 0.949218,0.75 z m 2.830078,-1.3125 H 44.13704 v -1.2890625 h -0.75 v 1.2890625 h -0.632812 v 0.609375 h 0.632812 v 3.55078129 c 0,0.48046875 0.328125,0.75 0.902344,0.75 0.1875,0 0.363281,-0.0234375 0.609375,-0.0703125 v -0.62109375 c -0.09375,0.0234375 -0.210938,0.0351563 -0.351563,0.0351563 -0.328125,0 -0.410156,-0.09375 -0.410156,-0.421875 V -4.0892266 h 0.761719 z m 0,0"
       style="fill:#000000;fill-opacity:1;fill-rule:nonzero;stroke:none"
       aria-label="LowerCost"
       transform="matrix(1.3333333,0,0,1.3333333,16.537333,129.40933)" />
  </g>
</svg>
