<?xml version="1.0" encoding="UTF-8" standalone="no"?>
<!-- Created with Inkscape (http://www.inkscape.org/) -->

<svg
   version="1.1"
   id="svg1"
   width="463.00134"
   height="167.59599"
   viewBox="0 0 463.00134 167.59599"
   xmlns="http://www.w3.org/2000/svg"
   xmlns:svg="http://www.w3.org/2000/svg">
  <defs
     id="defs1" />
  <g
     id="g1">
    <path
       id="path1"
       d="M 1.6418906,-2.9769766 H 4.7590781 V -3.7152578 H 1.6418906 V -5.8011953 H 5.1926719 V -6.5394766 H 0.80985938 V -4.140625e-4 H 1.6418906 Z m 5.4902344,0.2109375 h 2.0507813 c 0.515625,0 0.9140627,-0.1523437 1.2656247,-0.46875 0.386719,-0.3632812 0.5625,-0.7851562 0.5625,-1.3828125 0,-1.2304687 -0.726562,-1.921875 -2.0156247,-1.921875 H 6.3000938 V -4.140625e-4 H 7.132125 Z m 0,-0.7382812 v -2.296875 H 8.8665 c 0.796875,0 1.277344,0.4335937 1.277344,1.1484375 0,0.7148437 -0.480469,1.1484375 -1.277344,1.1484375 z m 6.307617,0.5859375 h 0.433594 c 0.867187,0 1.3125,0.3867187 1.3125,1.1484375 0,0.79687499 -0.492188,1.27734374 -1.3125,1.27734374 -0.867188,0 -1.289063,-0.43359375 -1.335938,-1.35937504 h -0.796875 c 0.04687,0.515625 0.128907,0.84375 0.28125,1.13671879 0.328125,0.609375 0.949219,0.92578125 1.816407,0.92578125 1.3125,0 2.15625,-0.78515625 2.15625,-1.98046874 0,-0.8085938 -0.316407,-1.265625 -1.078125,-1.5234375 0.597656,-0.234375 0.890625,-0.6796875 0.890625,-1.3125 0,-1.1015625 -0.726563,-1.7460938 -1.933594,-1.7460938 -1.289063,0 -1.96875,0.6914063 -1.992188,2.0507813 h 0.785157 c 0.01172,-0.3867188 0.04687,-0.5976563 0.152343,-0.796875 0.175782,-0.3515625 0.5625,-0.5625 1.066407,-0.5625 0.691406,0 1.113281,0.4101562 1.113281,1.078125 0,0.4453125 -0.164063,0.7148437 -0.503906,0.8671875 -0.222657,0.082031 -0.503907,0.1171875 -1.054688,0.1289062 z m 7.541016,2.13281249 h -3.339844 c 0.08203,-0.51562499 0.363281,-0.84374999 1.148438,-1.30078129 l 0.890625,-0.4921875 c 0.890625,-0.4804687 1.347656,-1.1367187 1.347656,-1.9101562 0,-0.5273438 -0.210938,-1.0195313 -0.597656,-1.3710938 -0.375,-0.3398437 -0.832032,-0.4921875 -1.441407,-0.4921875 -0.808593,0 -1.40625,0.28125 -1.757812,0.8203125 -0.222656,0.3398438 -0.316406,0.7382813 -0.339844,1.3828125 h 0.796875 c 0.02344,-0.4335937 0.07031,-0.6914062 0.1875,-0.9023437 0.199219,-0.3867188 0.609375,-0.609375 1.089844,-0.609375 0.714844,0 1.253906,0.5039062 1.253906,1.1835937 0,0.5039063 -0.292969,0.9375 -0.855469,1.2539063 l -0.832031,0.46875 c -1.324219,0.75 -1.710937,1.359375 -1.78125,2.7539062375 h 4.230469 z m 5.053711,-5.75390629 c -0.902344,1.1835938 -1.464844,2.8125 -1.464844,4.21875 0,1.41796879 0.5625,3.04687504 1.464844,4.21875 h 0.492187 c -0.796875,-1.27734371 -1.230468,-2.78906246 -1.230468,-4.21875 0,-1.4296875 0.433593,-2.9414062 1.230468,-4.21875 z m 2.844726,3.6210938 h 0.433594 c 0.867188,0 1.3125,0.3867187 1.3125,1.1484375 0,0.79687499 -0.492187,1.27734374 -1.3125,1.27734374 -0.867187,0 -1.289062,-0.43359375 -1.335937,-1.35937504 h -0.796875 c 0.04687,0.515625 0.128906,0.84375 0.28125,1.13671879 0.328125,0.609375 0.949218,0.92578125 1.816406,0.92578125 1.3125,0 2.15625,-0.78515625 2.15625,-1.98046874 0,-0.8085938 -0.316406,-1.265625 -1.078125,-1.5234375 0.597656,-0.234375 0.890625,-0.6796875 0.890625,-1.3125 0,-1.1015625 -0.726563,-1.7460938 -1.933594,-1.7460938 -1.289062,0 -1.96875,0.6914063 -1.992187,2.0507813 h 0.785156 c 0.01172,-0.3867188 0.04687,-0.5976563 0.152344,-0.796875 0.175781,-0.3515625 0.5625,-0.5625 1.066406,-0.5625 0.691406,0 1.113281,0.4101562 1.113281,1.078125 0,0.4453125 -0.164062,0.7148437 -0.503906,0.8671875 -0.222656,0.082031 -0.503906,0.1171875 -1.054688,0.1289062 z m 7.541016,2.13281249 h -3.339844 c 0.08203,-0.51562499 0.363281,-0.84374999 1.148438,-1.30078129 l 0.890625,-0.4921875 c 0.890625,-0.4804687 1.347656,-1.1367187 1.347656,-1.9101562 0,-0.5273438 -0.210938,-1.0195313 -0.597656,-1.3710938 -0.375,-0.3398437 -0.832032,-0.4921875 -1.441407,-0.4921875 -0.808593,0 -1.40625,0.28125 -1.757812,0.8203125 -0.222656,0.3398438 -0.316406,0.7382813 -0.339844,1.3828125 h 0.796875 c 0.02344,-0.4335937 0.07031,-0.6914062 0.1875,-0.9023437 0.199219,-0.3867188 0.609375,-0.609375 1.089844,-0.609375 0.714844,0 1.253906,0.5039062 1.253906,1.1835937 0,0.5039063 -0.292969,0.9375 -0.855469,1.2539063 l -0.832031,0.46875 c -1.324219,0.75 -1.710937,1.359375 -1.78125,2.7539062375 h 4.230469 z m 2.991211,-2.01562499 h -2.132813 v 0.6445312 h 2.132813 z m 0.925781,-3.7382813 v 6.5390625375 h 0.679688 V -0.59807031 c 0.351562,0.5390625 0.832031,0.80859375 1.488281,0.80859375 1.230469,0 2.039062,-1.01953125 2.039062,-2.57812504 0,-1.5234375 -0.773437,-2.4609375 -2.003906,-2.4609375 -0.644531,0 -1.101562,0.234375 -1.453125,0.7617188 v -2.4726563 z m 2.050781,2.4023438 c 0.84375,0 1.382813,0.7265625 1.382813,1.8515625 0,1.0664062 -0.5625,1.79296874 -1.382813,1.79296874 -0.785156,0 -1.300781,-0.71484374 -1.300781,-1.81640624 0,-1.1015625 0.515625,-1.828125 1.300781,-1.828125 z m 3.799805,-0.5625 h -0.75 v 4.6992187375 h 0.75 z m 0,-1.8398438 H 45.42607 v 0.9492188 h 0.761719 z m 2.917969,1.8398438 h -0.761719 v -1.2890625 h -0.75 v 1.2890625 h -0.632812 v 0.609375 h 0.632812 v 3.55078124 c 0,0.48046875 0.328125,0.75 0.902344,0.75 0.1875,0 0.363281,-0.0234375 0.609375,-0.0703125 v -0.62109375 c -0.09375,0.0234375 -0.210938,0.0351563 -0.351563,0.0351563 -0.328125,0 -0.410156,-0.09375 -0.410156,-0.421875 V -4.0902578 h 0.761719 z m 1.051758,6.5976562 c 0.902343,-1.17187496 1.464843,-2.80078121 1.464843,-4.2070312 0,-1.4179688 -0.5625,-3.046875 -1.464843,-4.2304688 h -0.492188 c 0.785156,1.2890625 1.230469,2.7890625 1.230469,4.2304688 0,1.41796874 -0.445313,2.94140624 -1.230469,4.2070312 z m 0,0"
       style="fill:#333333;fill-opacity:1;fill-rule:nonzero;stroke:none"
       aria-label="FP32(32-bit)"
       transform="matrix(1.3333333,0,0,1.3333333,4.428,22.301333)" />
    <path
       id="path2"
       d="M -1.3945,76.5363 H 9.8982 V 93.54454 H -1.3945 Z"
       style="fill:#d9534f;fill-opacity:1;fill-rule:nonzero;stroke:#ffffff;stroke-width:0.79701;stroke-linecap:butt;stroke-linejoin:miter;stroke-miterlimit:10;stroke-dasharray:none;stroke-opacity:1"
       transform="matrix(1.3333333,0,0,-1.3333333,86.437333,132.548)" />
    <path
       id="path3"
       d="m 4.1590859,-3.5847266 c -0.011719,-1.0078125 -0.6914062,-1.5820312 -1.8632812,-1.5820312 -1.1132813,0 -1.80468751,0.5742187 -1.80468751,1.4882812 0,0.6210938 0.328125,1.0195313 0.99609371,1.1953125 l 1.2539063,0.328125 c 0.6445312,0.1640625 0.9375,0.421875 0.9375,0.8203125 0,0.28125 -0.140625,0.55078129 -0.3632813,0.70312504 -0.1992187,0.140625 -0.515625,0.22265625 -0.9375,0.22265625 -0.5507812,0 -0.9257812,-0.12890625 -1.1601562,-0.421875 C 1.0184609,-1.0534766 0.93642969,-1.2995703 0.94814844,-1.6159766 h -0.609375 c 0,0.46875 0.09375,0.77343754 0.29296875,1.05468754 0.3515625,0.46875 0.93750001,0.7265625 1.71093751,0.7265625 0.609375,0 1.1015625,-0.140625 1.4296875,-0.3984375 0.3398437,-0.26953125 0.5507812,-0.7265625 0.5507812,-1.16015624 0,-0.6328125 -0.3867187,-1.0898438 -1.078125,-1.2773438 L 1.9676797,-3.0105078 c -0.609375,-0.1640625 -0.8320313,-0.3632813 -0.8320313,-0.75 0,-0.515625 0.4570313,-0.8554688 1.1367188,-0.8554688 0.8085937,0 1.265625,0.3632813 1.265625,1.03125 z m 0,0"
       style="fill:#ffffff;fill-opacity:1;fill-rule:nonzero;stroke:none"
       aria-label="S"
       transform="matrix(1.3333333,0,0,1.3333333,89.005333,22.486667)" />
    <path
       id="path4"
       d="m 10.69519,76.5363 h 68.0322 v 17.00824 h -68.0322 z"
       style="fill:#5bc0de;fill-opacity:1;fill-rule:nonzero;stroke:#ffffff;stroke-width:0.79701;stroke-linecap:butt;stroke-linejoin:miter;stroke-miterlimit:10;stroke-dasharray:none;stroke-opacity:1"
       transform="matrix(1.3333333,0,0,-1.3333333,86.437333,132.548)" />
    <path
       id="path5"
       d="m 1.2765391,-2.3192109 h 2.765625 v -0.5625 H 1.2765391 V -4.5106172 H 4.1476328 V -5.0848359 H 0.63200781 V 0.00110156 H 4.2765391 v -0.57421875 h -3 z m 5.4140625,0.4335937 1.21875,-1.7695312 H 7.2648203 L 6.3859141,-2.3309297 5.5070078,-3.6551484 H 4.8390391 l 1.21875,1.7929687 -1.2890625,1.86328126 H 5.4366953 L 6.3624766,-1.4051484 7.2765391,0.00110156 h 0.6679687 z m 1.8222656,3.4101563 h 0.5859375 v -1.91015629 c 0.3046875,0.375 0.6445312,0.55078125 1.1250003,0.55078125 0.9375,0 1.558593,-0.76171875 1.558593,-1.93359376 0,-1.21875 -0.597656,-1.9921875 -1.570312,-1.9921875 -0.4921876,0 -0.8906251,0.2226563 -1.1601563,0.65625 V -3.6551484 H 8.5128672 Z m 1.6054688,-4.734375 c 0.644531,0 1.054687,0.5625 1.054687,1.4296875 0,0.83203121 -0.421875,1.39453121 -1.054687,1.39453121 -0.6093751,0 -1.0195313,-0.55078125 -1.0195313,-1.41796871 0,-0.8554688 0.4101562,-1.40625 1.0195313,-1.40625 z m 3.796875,-0.5507813 c -1.03125,0 -1.652344,0.7382813 -1.652344,1.9570313 0,1.23046871 0.621094,1.96874996 1.652344,1.96874996 1.03125,0 1.652344,-0.73828125 1.652344,-1.93359376 0,-1.265625 -0.597657,-1.9921875 -1.652344,-1.9921875 z m 0,0.5390625 c 0.65625,0 1.054687,0.5390625 1.054687,1.4414063 0,0.85546871 -0.410156,1.40624996 -1.054687,1.40624996 -0.644531,0 -1.042969,-0.5390625 -1.042969,-1.42968746 0,-0.8671875 0.398438,-1.4179688 1.042969,-1.4179688 z m 2.469727,-0.4335937 v 3.65624996 h 0.585937 V -2.0145234 c 0,-0.75 0.386719,-1.2304688 0.984375,-1.2304688 0.457031,0 0.75,0.28125 0.75,0.7148438 v 2.53124996 h 0.585938 V -2.7645234 c 0,-0.5976563 -0.457032,-0.9960938 -1.160157,-0.9960938 -0.539062,0 -0.890625,0.2109375 -1.21875,0.7265625 v -0.6210937 z m 6.960937,2.0273437 c 0,-0.5625 -0.03516,-0.890625 -0.140625,-1.171875 -0.234375,-0.5976562 -0.796875,-0.9609375 -1.476562,-0.9609375 -1.019532,0 -1.675782,0.7851563 -1.675782,1.9804688 0,1.20703121 0.632813,1.94531246 1.652344,1.94531246 0.84375,0 1.417969,-0.48046875 1.570313,-1.27734376 h -0.585938 c -0.164062,0.48046876 -0.492187,0.73828126 -0.960937,0.73828126 -0.363282,0 -0.679688,-0.1640625 -0.878907,-0.48046875 -0.140625,-0.19921871 -0.1875,-0.41015621 -0.1875,-0.77343751 z M 20.674,-2.1082734 c 0.04687,-0.6679688 0.457031,-1.1132813 1.042969,-1.1132813 0.574219,0 1.007812,0.4804688 1.007812,1.078125 0,0.011719 0,0.023437 0,0.035156 z m 3.46582,-1.546875 v 3.65624996 h 0.585938 V -2.0145234 c 0,-0.75 0.386719,-1.2304688 0.984375,-1.2304688 0.457031,0 0.75,0.28125 0.75,0.7148438 V 0.00110156 H 27.04607 V -2.7645234 c 0,-0.5976563 -0.457031,-0.9960938 -1.160156,-0.9960938 -0.539062,0 -0.890625,0.2109375 -1.21875,0.7265625 v -0.6210937 z m 5.15625,0 h -0.597656 v -0.9960938 h -0.574219 v 0.9960938 h -0.503906 v 0.4804687 h 0.503906 v 2.75390626 c 0,0.375 0.246094,0.5859375 0.703125,0.5859375 0.140625,0 0.269532,-0.0234375 0.46875,-0.046875 v -0.4921875 c -0.07031,0.0234375 -0.164062,0.0234375 -0.28125,0.0234375 -0.246093,0 -0.316406,-0.0703125 -0.316406,-0.328125 V -3.1746797 h 0.597656 z m 3.741211,-1.4296875 c -0.691406,0.9140625 -1.136718,2.1796875 -1.136718,3.28125 0,1.10156246 0.445312,2.36718746 1.136718,3.28125 H 33.424 c -0.609375,-0.99609379 -0.949219,-2.16796879 -0.949219,-3.28125 0,-1.1132813 0.339844,-2.2851563 0.949219,-3.28125 z m 3.413086,2.484375 c 0.503906,-0.3046875 0.667969,-0.5625 0.667969,-1.0195313 0,-0.7734375 -0.597656,-1.3242187 -1.476563,-1.3242187 -0.878906,0 -1.488281,0.5507812 -1.488281,1.3242187 0,0.4570313 0.164063,0.703125 0.667969,1.0195313 -0.5625,0.2695312 -0.84375,0.6796875 -0.84375,1.2304687 0,0.90234376 0.679687,1.53515626 1.664062,1.53515626 0.972657,0 1.652344,-0.6328125 1.652344,-1.53515626 0,-0.5507812 -0.28125,-0.9609375 -0.84375,-1.2304687 z m -0.808594,-1.7929688 c 0.515625,0 0.855469,0.3046875 0.855469,0.7851563 0,0.4570312 -0.339844,0.7617187 -0.855469,0.7617187 -0.515625,0 -0.867187,-0.3046875 -0.867187,-0.7734375 0,-0.46875 0.351562,-0.7734375 0.867187,-0.7734375 z m 0,2.0625 c 0.609375,0 1.03125,0.3984375 1.03125,0.9726563 0,0.58593746 -0.421875,0.97265621 -1.054687,0.97265621 -0.597656,0 -1.007813,-0.3984375 -1.007813,-0.97265621 0,-0.5742188 0.410157,-0.9726563 1.03125,-0.9726563 z m 2.598633,3.8085938 c 0.703125,-0.91406254 1.136719,-2.17968754 1.136719,-3.28125 0,-1.1015625 -0.433594,-2.3671875 -1.136719,-3.28125 h -0.375 c 0.609375,0.9960937 0.949219,2.1679687 0.949219,3.28125 0,1.11328121 -0.339844,2.29687496 -0.949219,3.28125 z m 0,0"
       style="fill:#ffffff;fill-opacity:1;fill-rule:nonzero;stroke:none"
       aria-label="Exponent(8)"
       transform="matrix(1.3333333,0,0,1.3333333,119.43467,21.604)" />
    <path
       id="path6"
       d="M 79.5244,76.5363 H 275.11726 V 93.54454 H 79.5244 Z"
       style="fill:#f0ad4e;fill-opacity:1;fill-rule:nonzero;stroke:#ffffff;stroke-width:0.79701;stroke-linecap:butt;stroke-linejoin:miter;stroke-miterlimit:10;stroke-dasharray:none;stroke-opacity:1"
       transform="matrix(1.3333333,0,0,-1.3333333,86.437333,132.548)" />
    <path
       id="path7"
       d="M 3.2591563,0.00110156 4.6888438,-4.2645234 V 0.00110156 H 5.3099375 V -5.0848359 H 4.4075938 L 2.9310313,-0.65514844 1.4193125,-5.0848359 h -0.890625 v 5.08593746 h 0.609375 V -4.2645234 l 1.4414063,4.26562496 z m 6.2753906,-0.33984375 c -0.058594,0.0117188 -0.082031,0.0117188 -0.1171875,0.0117188 -0.2109375,0 -0.3164063,-0.10546875 -0.3164063,-0.28125 V -2.7645234 c 0,-0.6445313 -0.4804687,-0.9960938 -1.3710937,-0.9960938 -0.5390625,0 -0.9726563,0.1523438 -1.21875,0.4335938 -0.1640625,0.1875 -0.234375,0.3984375 -0.2460938,0.75 h 0.5859375 c 0.046875,-0.4453125 0.3046875,-0.6445313 0.8554688,-0.6445313 0.515625,0 0.8085937,0.1992188 0.8085937,0.5507813 v 0.1523437 c 0,0.234375 -0.140625,0.3398438 -0.5976562,0.3984375 -0.8320313,0.1054688 -0.9492188,0.1289063 -1.171875,0.2226563 -0.4335938,0.1757812 -0.6445313,0.5039062 -0.6445313,0.97265621 0,0.66796875 0.4570313,1.08984375 1.1953125,1.08984375 0.46875,0 0.8320313,-0.1640625 1.2421875,-0.5390625 0.046875,0.36328125 0.2226563,0.5390625 0.5976563,0.5390625 0.1289062,0 0.2109375,-0.0234375 0.3984375,-0.0703125 z M 8.5150156,-1.1473359 c 0,0.18749996 -0.046875,0.31640621 -0.2226562,0.46874996 -0.234375,0.22265625 -0.5273438,0.328125 -0.8671875,0.328125 -0.4570313,0 -0.7148438,-0.2109375 -0.7148438,-0.5859375 0,-0.37499996 0.2578125,-0.57421876 0.8789063,-0.66796876 0.609375,-0.082031 0.7382812,-0.1054687 0.9257812,-0.1992187 z m 1.6640624,-2.5078125 v 3.65624996 h 0.585938 V -2.0145234 c 0,-0.75 0.386718,-1.2304688 0.984375,-1.2304688 0.457031,0 0.75,0.28125 0.75,0.7148438 v 2.53124996 h 0.585937 V -2.7645234 c 0,-0.5976563 -0.457031,-0.9960938 -1.160156,-0.9960938 -0.539063,0 -0.890625,0.2109375 -1.21875,0.7265625 v -0.6210937 z m 5.15332,0 h -0.597656 v -0.9960938 h -0.574219 v 0.9960938 h -0.503906 v 0.4804687 h 0.503906 v 2.75390626 c 0,0.375 0.246094,0.5859375 0.703125,0.5859375 0.140625,0 0.269532,-0.0234375 0.46875,-0.046875 v -0.4921875 c -0.07031,0.0234375 -0.164062,0.0234375 -0.28125,0.0234375 -0.246093,0 -0.316406,-0.0703125 -0.316406,-0.328125 V -3.1746797 h 0.597656 z m 1.212891,0 H 15.97107 v 3.65624996 h 0.574219 z m 0,-1.4296875 h -0.585937 v 0.7382812 h 0.585937 z m 3.56543,2.4492187 c -0.01172,-0.7148437 -0.480469,-1.125 -1.324219,-1.125 -0.855469,0 -1.40625,0.4453125 -1.40625,1.1132813 0,0.5742187 0.292969,0.84375 1.160156,1.0546875 l 0.539063,0.140625 c 0.410156,0.09375 0.5625,0.234375 0.5625,0.50390621 0,0.33984375 -0.339844,0.57421875 -0.84375,0.57421875 -0.316406,0 -0.585938,-0.09375 -0.726563,-0.24609375 -0.09375,-0.10546875 -0.128906,-0.2109375 -0.164062,-0.46875001 H 17.2865 c 0.03516,0.84375001 0.503906,1.25390626 1.464844,1.25390626 0.914062,0 1.5,-0.45703125 1.5,-1.16015625 0,-0.53906251 -0.304688,-0.84375001 -1.03125,-1.01953121 l -0.5625,-0.1289063 c -0.46875,-0.1171875 -0.667969,-0.2695312 -0.667969,-0.5273437 0,-0.328125 0.292969,-0.5507813 0.773438,-0.5507813 0.46875,0 0.714843,0.1992188 0.726562,0.5859375 z m 3.486328,0 c -0.01172,-0.7148437 -0.480469,-1.125 -1.324219,-1.125 -0.855469,0 -1.40625,0.4453125 -1.40625,1.1132813 0,0.5742187 0.292969,0.84375 1.160156,1.0546875 l 0.539063,0.140625 c 0.410156,0.09375 0.5625,0.234375 0.5625,0.50390621 0,0.33984375 -0.339844,0.57421875 -0.84375,0.57421875 -0.316406,0 -0.585938,-0.09375 -0.726563,-0.24609375 -0.09375,-0.10546875 -0.128906,-0.2109375 -0.164062,-0.46875001 h -0.621094 c 0.03516,0.84375001 0.503906,1.25390626 1.464844,1.25390626 0.914062,0 1.5,-0.45703125 1.5,-1.16015625 0,-0.53906251 -0.304688,-0.84375001 -1.03125,-1.01953121 l -0.5625,-0.1289063 c -0.46875,-0.1171875 -0.667969,-0.2695312 -0.667969,-0.5273437 0,-0.328125 0.292969,-0.5507813 0.773438,-0.5507813 0.46875,0 0.714843,0.1992188 0.726562,0.5859375 z m 4.154297,2.29687501 c -0.05859,0.0117188 -0.08203,0.0117188 -0.117188,0.0117188 -0.210937,0 -0.316406,-0.10546875 -0.316406,-0.28125 V -2.7645234 c 0,-0.6445313 -0.480469,-0.9960938 -1.371094,-0.9960938 -0.539062,0 -0.972656,0.1523438 -1.21875,0.4335938 -0.164062,0.1875 -0.234375,0.3984375 -0.246093,0.75 h 0.585937 c 0.04687,-0.4453125 0.304688,-0.6445313 0.855469,-0.6445313 0.515625,0 0.808594,0.1992188 0.808594,0.5507813 v 0.1523437 c 0,0.234375 -0.140625,0.3398438 -0.597657,0.3984375 -0.832031,0.1054688 -0.949218,0.1289063 -1.171875,0.2226563 -0.433593,0.1757812 -0.644531,0.5039062 -0.644531,0.97265621 0,0.66796875 0.457031,1.08984375 1.195313,1.08984375 0.46875,0 0.832031,-0.1640625 1.242187,-0.5390625 0.04687,0.36328125 0.222656,0.5390625 0.597656,0.5390625 0.128907,0 0.210938,-0.0234375 0.398438,-0.0703125 z M 26.731813,-1.1473359 c 0,0.18749996 -0.04687,0.31640621 -0.222657,0.46874996 -0.234375,0.22265625 -0.527343,0.328125 -0.867187,0.328125 -0.457031,0 -0.714844,-0.2109375 -0.714844,-0.5859375 0,-0.37499996 0.257813,-0.57421876 0.878906,-0.66796876 0.609375,-0.082031 0.738282,-0.1054687 0.925782,-0.1992187 z m 4.749023,-3.9375 c -0.691406,0.9140625 -1.136719,2.1796875 -1.136719,3.28125 0,1.10156246 0.445313,2.36718746 1.136719,3.28125 h 0.386719 c -0.609375,-0.99609379 -0.949219,-2.16796879 -0.949219,-3.28125 0,-1.1132813 0.339844,-2.2851563 0.949219,-3.28125 z m 4.209961,4.47656246 h -2.601563 c 0.05859,-0.39843746 0.292969,-0.65624996 0.890625,-1.01953126 l 0.703125,-0.375 c 0.691407,-0.375 1.042969,-0.8789062 1.042969,-1.4882812 0,-0.4101563 -0.164062,-0.796875 -0.457031,-1.0664063 -0.292969,-0.2578125 -0.65625,-0.3867187 -1.125,-0.3867187 -0.632813,0 -1.089844,0.2226562 -1.371094,0.6445312 -0.175781,0.2578125 -0.246094,0.5742188 -0.257812,1.078125 h 0.609375 c 0.02344,-0.3398437 0.05859,-0.5390625 0.152343,-0.703125 0.152344,-0.3046875 0.480469,-0.4804687 0.84375,-0.4804687 0.5625,0 0.972657,0.3984375 0.972657,0.9257812 0,0.3867188 -0.222657,0.7265625 -0.667969,0.9726563 l -0.632813,0.3632812 c -1.03125,0.5859375 -1.335937,1.0546875 -1.394531,2.14453126 h 3.292969 z m 1.883789,-1.65234376 h 0.08203 l 0.257813,-0.011719 c 0.679687,0 1.03125,0.3046875 1.03125,0.9023437 0,0.62109376 -0.386719,0.98437501 -1.03125,0.98437501 -0.667969,0 -0.996094,-0.328125 -1.042969,-1.05468751 h -0.609375 c 0.02344,0.3984375 0.09375,0.65625001 0.210937,0.87890626 0.257813,0.48046875 0.75,0.7265625 1.417969,0.7265625 1.019531,0 1.675781,-0.609375 1.675781,-1.54687496 0,-0.6210938 -0.246093,-0.9726563 -0.832031,-1.171875 0.457031,-0.1875 0.691406,-0.5390625 0.691406,-1.03125 0,-0.84375 -0.574218,-1.359375 -1.511718,-1.359375 -0.996094,0 -1.523438,0.5507812 -1.546875,1.59375 h 0.609375 c 0.01172,-0.2929688 0.03516,-0.4570313 0.117187,-0.6210938 0.140625,-0.2695312 0.445313,-0.4335937 0.832031,-0.4335937 0.539063,0 0.867188,0.3164062 0.867188,0.84375 0,0.3515625 -0.128906,0.5625 -0.398438,0.6679687 -0.164062,0.070312 -0.386718,0.09375 -0.820312,0.1054688 z m 2.988281,3.7382813 c 0.703125,-0.91406254 1.136719,-2.17968754 1.136719,-3.28125 0,-1.1015625 -0.433594,-2.3671875 -1.136719,-3.28125 h -0.375 c 0.609375,0.9960937 0.949219,2.1679687 0.949219,3.28125 0,1.11328121 -0.339844,2.29687496 -0.949219,3.28125 z m 0,0"
       style="fill:#ffffff;fill-opacity:1;fill-rule:nonzero;stroke:none"
       aria-label="Mantissa(23)"
       transform="matrix(1.3333333,0,0,1.3333333,294.70133,21.604)" />
    <path
       id="path8"
       d="M 0.70439063,0.00124219 H 3.6575156 c 0.6210938,0 1.078125,-0.17578125 1.4296875,-0.55078125 0.3164063,-0.33984375 0.5039063,-0.80859374 0.5039063,-1.31250004 0,-0.7851562 -0.3632813,-1.265625 -1.1953125,-1.59375 0.5859375,-0.2695312 0.9023437,-0.7617187 0.9023437,-1.4179687 0,-0.4804688 -0.1757812,-0.9023438 -0.515625,-1.2070313 C 4.4426719,-6.3854766 3.9856406,-6.5378203 3.3645469,-6.5378203 H 0.70439063 Z M 1.5481406,-3.7136016 v -2.0859375 h 1.6054688 c 0.46875,0 0.7265625,0.058594 0.9492187,0.234375 0.234375,0.1757813 0.3632813,0.4453125 0.3632813,0.8085938 0,0.3515625 -0.1289063,0.6210937 -0.3632813,0.8085937 -0.2226562,0.1640625 -0.4804687,0.234375 -0.9492187,0.234375 z m 0,2.97656254 V -2.9870391 h 2.0273438 c 0.4101562,0 0.6796875,0.1054688 0.8671875,0.3164063 0.1992187,0.2109375 0.3046875,0.4921875 0.3046875,0.8203125 0,0.3046875 -0.1054688,0.5976562 -0.3046875,0.796875 -0.1875,0.22265624 -0.4570313,0.31640624 -0.8671875,0.31640624 z M 7.6213828,-2.9753203 H 10.73857 V -3.7136016 H 7.6213828 V -5.7995391 H 11.172164 V -6.5378203 H 6.7893516 v 6.53906249 h 0.8320312 z m 6.1582032,-1.546875 v 4.52343749 h 0.785156 V -6.3503203 h -0.515625 c -0.28125,0.9726562 -0.457031,1.1015625 -1.675781,1.2539062 v 0.5742188 z m 7.130859,-0.1757813 c -0.152343,-1.0429687 -0.832031,-1.6523437 -1.804687,-1.6523437 -0.691406,0 -1.324219,0.3398437 -1.699219,0.9023437 -0.398437,0.6210938 -0.574219,1.3945313 -0.574219,2.5546875 0,1.0664063 0.164063,1.7460938 0.539063,2.30859379 0.339844,0.515625 0.890625,0.796875 1.59375,0.796875 1.207031,0 2.074219,-0.90234375 2.074219,-2.14453129 0,-1.1835937 -0.796875,-2.015625 -1.945313,-2.015625 -0.621094,0 -1.113281,0.234375 -1.453125,0.703125 0.01172,-1.546875 0.503906,-2.4140625 1.417969,-2.4140625 0.550781,0 0.9375,0.3515625 1.066406,0.9609375 z m -1.910156,1.4414063 c 0.761719,0 1.242188,0.5273437 1.242188,1.3828125 0,0.796875 -0.539063,1.38281249 -1.265625,1.38281249 -0.738282,0 -1.289063,-0.60937499 -1.289063,-1.42968749 0,-0.7851563 0.527344,-1.3359375 1.3125,-1.3359375 z m 7.03418,-3.28125 c -0.902344,1.1835937 -1.464844,2.8125 -1.464844,4.21875 0,1.41796874 0.5625,3.04687499 1.464844,4.21875 h 0.492187 c -0.796875,-1.27734376 -1.230468,-2.78906251 -1.230468,-4.21875 0,-1.4296875 0.433593,-2.9414063 1.230468,-4.21875 z m 3.18457,2.015625 v 4.52343749 h 0.785156 V -6.3503203 H 29.48857 c -0.28125,0.9726562 -0.457031,1.1015625 -1.675781,1.2539062 v 0.5742188 z m 7.130859,-0.1757813 c -0.152343,-1.0429687 -0.832031,-1.6523437 -1.804687,-1.6523437 -0.691406,0 -1.324219,0.3398437 -1.699219,0.9023437 -0.398437,0.6210938 -0.574219,1.3945313 -0.574219,2.5546875 0,1.0664063 0.164063,1.7460938 0.539063,2.30859379 0.339844,0.515625 0.890625,0.796875 1.59375,0.796875 1.207031,0 2.074219,-0.90234375 2.074219,-2.14453129 0,-1.1835937 -0.796875,-2.015625 -1.945313,-2.015625 -0.621094,0 -1.113281,0.234375 -1.453125,0.703125 0.01172,-1.546875 0.503906,-2.4140625 1.417969,-2.4140625 0.550781,0 0.9375,0.3515625 1.066406,0.9609375 z m -1.910156,1.4414063 c 0.761719,0 1.242188,0.5273437 1.242188,1.3828125 0,0.796875 -0.539063,1.38281249 -1.265625,1.38281249 -0.738282,0 -1.289063,-0.60937499 -1.289063,-1.42968749 0,-0.7851563 0.527344,-1.3359375 1.3125,-1.3359375 z m 4.97168,0.4570312 h -2.132813 v 0.6445313 h 2.132813 z m 0.925781,-3.7382812 v 6.53906249 h 0.679688 v -0.59765625 c 0.351562,0.5390625 0.832031,0.80859375 1.488281,0.80859375 1.230469,0 2.039062,-1.01953125 2.039062,-2.57812499 0,-1.5234375 -0.773437,-2.4609375 -2.003906,-2.4609375 -0.644531,0 -1.101562,0.234375 -1.453125,0.7617187 v -2.4726562 z m 2.050781,2.4023437 c 0.84375,0 1.382813,0.7265625 1.382813,1.8515625 0,1.0664063 -0.5625,1.79296879 -1.382813,1.79296879 -0.785156,0 -1.300781,-0.71484379 -1.300781,-1.81640629 0,-1.1015625 0.515625,-1.828125 1.300781,-1.828125 z m 3.799805,-0.5625 h -0.75 v 4.69921879 h 0.75 z m 0,-1.8398437 H 45.42607 v 0.9492187 h 0.761719 z m 2.917969,1.8398437 h -0.761719 v -1.2890625 h -0.75 v 1.2890625 h -0.632812 v 0.609375 h 0.632812 v 3.55078129 c 0,0.48046875 0.328125,0.75 0.902344,0.75 0.1875,0 0.363281,-0.0234375 0.609375,-0.0703125 v -0.62109375 c -0.09375,0.0234375 -0.210938,0.0351563 -0.351563,0.0351563 -0.328125,0 -0.410156,-0.09375 -0.410156,-0.421875 V -4.0886016 h 0.761719 z m 1.051758,6.5976563 c 0.902343,-1.17187501 1.464843,-2.80078126 1.464843,-4.2070313 0,-1.4179687 -0.5625,-3.046875 -1.464843,-4.2304687 h -0.492188 c 0.785156,1.2890625 1.230469,2.7890625 1.230469,4.2304687 0,1.41796879 -0.445313,2.94140629 -1.230469,4.2070313 z m 0,0"
       style="fill:#333333;fill-opacity:1;fill-rule:nonzero;stroke:none"
       aria-label="BF16(16-bit)"
       transform="matrix(1.3333333,0,0,1.3333333,4.428,60.096)" />
    <path
       id="path9"
       d="M -1.3945,48.18948 H 9.8982 V 65.19772 H -1.3945 Z"
       style="fill:#d9534f;fill-opacity:1;fill-rule:nonzero;stroke:#ffffff;stroke-width:0.79701;stroke-linecap:butt;stroke-linejoin:miter;stroke-miterlimit:10;stroke-dasharray:none;stroke-opacity:1"
       transform="matrix(1.3333333,0,0,-1.3333333,86.437333,132.548)" />
    <path
       id="path10"
       d="m 4.1590859,-3.587 c -0.011719,-1.0078125 -0.6914062,-1.5820313 -1.8632812,-1.5820313 -1.1132813,0 -1.80468751,0.5742188 -1.80468751,1.4882813 0,0.6210937 0.328125,1.0195312 0.99609371,1.1953125 l 1.2539063,0.328125 c 0.6445312,0.1640625 0.9375,0.421875 0.9375,0.8203125 0,0.28125 -0.140625,0.55078125 -0.3632813,0.703125 -0.1992187,0.140625 -0.515625,0.22265625 -0.9375,0.22265625 -0.5507812,0 -0.9257812,-0.12890625 -1.1601562,-0.421875 C 1.0184609,-1.05575 0.93642969,-1.3018438 0.94814844,-1.61825 h -0.609375 c 0,0.46875 0.09375,0.7734375 0.29296875,1.0546875 C 0.98330469,-0.0948125 1.5692422,0.163 2.3426797,0.163 c 0.609375,0 1.1015625,-0.140625 1.4296875,-0.3984375 0.3398437,-0.26953125 0.5507812,-0.7265625 0.5507812,-1.1601563 0,-0.6328125 -0.3867187,-1.0898437 -1.078125,-1.2773437 L 1.9676797,-3.0127813 c -0.609375,-0.1640625 -0.8320313,-0.3632812 -0.8320313,-0.75 0,-0.515625 0.4570313,-0.8554687 1.1367188,-0.8554687 0.8085937,0 1.265625,0.3632812 1.265625,1.03125 z m 0,0"
       style="fill:#ffffff;fill-opacity:1;fill-rule:nonzero;stroke:none"
       aria-label="S"
       transform="matrix(1.3333333,0,0,1.3333333,89.005333,60.282667)" />
    <path
       id="path11"
       d="m 10.69519,48.18948 h 68.0322 v 17.00824 h -68.0322 z"
       style="fill:#5bc0de;fill-opacity:1;fill-rule:nonzero;stroke:#ffffff;stroke-width:0.79701;stroke-linecap:butt;stroke-linejoin:miter;stroke-miterlimit:10;stroke-dasharray:none;stroke-opacity:1"
       transform="matrix(1.3333333,0,0,-1.3333333,86.437333,132.548)" />
    <path
       id="path12"
       d="m 1.2765391,-2.3204844 h 2.765625 v -0.5625 H 1.2765391 V -4.5118906 H 4.1476328 V -5.0861094 H 0.63200781 V -1.71875e-4 H 4.2765391 V -0.57439063 h -3 z m 5.4140625,0.4335938 1.21875,-1.7695313 H 7.2648203 L 6.3859141,-2.3322031 5.5070078,-3.6564219 H 4.8390391 l 1.21875,1.7929688 -1.2890625,1.863281225 H 5.4366953 L 6.3624766,-1.4064219 7.2765391,-1.71875e-4 h 0.6679687 z m 1.8222656,3.4101562 h 0.5859375 v -1.91015623 c 0.3046875,0.375 0.6445312,0.55078125 1.1250003,0.55078125 0.9375,0 1.558593,-0.76171875 1.558593,-1.93359372 0,-1.21875 -0.597656,-1.9921875 -1.570312,-1.9921875 -0.4921876,0 -0.8906251,0.2226562 -1.1601563,0.65625 V -3.6564219 H 8.5128672 Z m 1.6054688,-4.734375 c 0.644531,0 1.054687,0.5625 1.054687,1.4296875 0,0.83203127 -0.421875,1.39453127 -1.054687,1.39453127 -0.6093751,0 -1.0195313,-0.55078125 -1.0195313,-1.41796877 0,-0.8554687 0.4101562,-1.40625 1.0195313,-1.40625 z m 3.796875,-0.5507812 c -1.03125,0 -1.652344,0.7382812 -1.652344,1.9570312 0,1.23046877 0.621094,1.96875002 1.652344,1.96875002 1.03125,0 1.652344,-0.73828125 1.652344,-1.93359372 0,-1.265625 -0.597657,-1.9921875 -1.652344,-1.9921875 z m 0,0.5390625 c 0.65625,0 1.054687,0.5390625 1.054687,1.4414062 0,0.85546877 -0.410156,1.40625002 -1.054687,1.40625002 -0.644531,0 -1.042969,-0.5390625 -1.042969,-1.42968752 0,-0.8671875 0.398438,-1.4179687 1.042969,-1.4179687 z m 2.469727,-0.4335938 v 3.656250025 h 0.585937 V -2.0157969 c 0,-0.75 0.386719,-1.2304687 0.984375,-1.2304687 0.457031,0 0.75,0.28125 0.75,0.7148437 v 2.531250025 h 0.585938 V -2.7657969 c 0,-0.5976562 -0.457032,-0.9960937 -1.160157,-0.9960937 -0.539062,0 -0.890625,0.2109375 -1.21875,0.7265625 v -0.6210938 z m 6.960937,2.0273438 c 0,-0.5625 -0.03516,-0.890625 -0.140625,-1.171875 -0.234375,-0.5976563 -0.796875,-0.9609375 -1.476562,-0.9609375 -1.019532,0 -1.675782,0.7851562 -1.675782,1.9804687 0,1.20703127 0.632813,1.94531252 1.652344,1.94531252 0.84375,0 1.417969,-0.48046875 1.570313,-1.27734372 h -0.585938 c -0.164062,0.48046872 -0.492187,0.73828122 -0.960937,0.73828122 -0.363282,0 -0.679688,-0.1640625 -0.878907,-0.48046875 -0.140625,-0.19921877 -0.1875,-0.41015627 -0.1875,-0.77343747 z M 20.674,-2.1095469 c 0.04687,-0.6679687 0.457031,-1.1132812 1.042969,-1.1132812 0.574219,0 1.007812,0.4804687 1.007812,1.078125 0,0.011719 0,0.023437 0,0.035156 z m 3.46582,-1.546875 v 3.656250025 h 0.585938 V -2.0157969 c 0,-0.75 0.386719,-1.2304687 0.984375,-1.2304687 0.457031,0 0.75,0.28125 0.75,0.7148437 V -1.71875e-4 H 27.04607 V -2.7657969 c 0,-0.5976562 -0.457031,-0.9960937 -1.160156,-0.9960937 -0.539062,0 -0.890625,0.2109375 -1.21875,0.7265625 v -0.6210938 z m 5.15625,0 h -0.597656 v -0.9960937 h -0.574219 v 0.9960937 h -0.503906 v 0.4804688 h 0.503906 v 2.75390622 c 0,0.375 0.246094,0.5859375 0.703125,0.5859375 0.140625,0 0.269532,-0.0234375 0.46875,-0.046875 v -0.4921875 c -0.07031,0.0234375 -0.164062,0.0234375 -0.28125,0.0234375 -0.246093,0 -0.316406,-0.0703125 -0.316406,-0.328125 V -3.1759531 h 0.597656 z m 3.741211,-1.4296875 c -0.691406,0.9140625 -1.136718,2.1796875 -1.136718,3.28125 0,1.10156252 0.445312,2.36718752 1.136718,3.28125 H 33.424 c -0.609375,-0.99609373 -0.949219,-2.16796873 -0.949219,-3.28125 0,-1.1132812 0.339844,-2.2851562 0.949219,-3.28125 z m 3.413086,2.484375 c 0.503906,-0.3046875 0.667969,-0.5625 0.667969,-1.0195312 0,-0.7734375 -0.597656,-1.3242188 -1.476563,-1.3242188 -0.878906,0 -1.488281,0.5507813 -1.488281,1.3242188 0,0.4570312 0.164063,0.703125 0.667969,1.0195312 -0.5625,0.2695313 -0.84375,0.6796875 -0.84375,1.2304688 0,0.90234372 0.679687,1.53515622 1.664062,1.53515622 0.972657,0 1.652344,-0.6328125 1.652344,-1.53515622 0,-0.5507813 -0.28125,-0.9609375 -0.84375,-1.2304688 z m -0.808594,-1.7929687 c 0.515625,0 0.855469,0.3046875 0.855469,0.7851562 0,0.4570313 -0.339844,0.7617188 -0.855469,0.7617188 -0.515625,0 -0.867187,-0.3046875 -0.867187,-0.7734375 0,-0.46875 0.351562,-0.7734375 0.867187,-0.7734375 z m 0,2.0625 c 0.609375,0 1.03125,0.3984375 1.03125,0.9726562 0,0.58593752 -0.421875,0.97265627 -1.054687,0.97265627 -0.597656,0 -1.007813,-0.3984375 -1.007813,-0.97265627 0,-0.5742187 0.410157,-0.9726562 1.03125,-0.9726562 z m 2.598633,3.8085937 c 0.703125,-0.91406248 1.136719,-2.17968748 1.136719,-3.28125 0,-1.1015625 -0.433594,-2.3671875 -1.136719,-3.28125 h -0.375 c 0.609375,0.9960938 0.949219,2.1679688 0.949219,3.28125 0,1.11328127 -0.339844,2.29687502 -0.949219,3.28125 z m 0,0"
       style="fill:#ffffff;fill-opacity:1;fill-rule:nonzero;stroke:none"
       aria-label="Exponent(8)"
       transform="matrix(1.3333333,0,0,1.3333333,119.43467,59.398667)" />
    <path
       id="path13"
       d="m 79.5244,48.18948 h 59.52847 V 65.19772 H 79.5244 Z"
       style="fill:#f0ad4e;fill-opacity:1;fill-rule:nonzero;stroke:#ffffff;stroke-width:0.79701;stroke-linecap:butt;stroke-linejoin:miter;stroke-miterlimit:10;stroke-dasharray:none;stroke-opacity:1"
       transform="matrix(1.3333333,0,0,-1.3333333,86.437333,132.548)" />
    <path
       id="path14"
       d="M 3.257625,-1.71875e-4 4.6873125,-4.2657969 V -1.71875e-4 H 5.3084063 V -5.0861094 H 4.4060625 L 2.9295,-0.65642188 1.4177813,-5.0861094 H 0.52715625 V -1.71875e-4 H 1.1365313 V -4.2657969 L 2.5779375,-1.71875e-4 Z M 9.5359453,-0.34001563 c -0.058594,0.0117188 -0.082031,0.0117188 -0.1171875,0.0117188 -0.2109375,0 -0.3164062,-0.10546875 -0.3164062,-0.28125 V -2.7657969 c 0,-0.6445312 -0.4804688,-0.9960937 -1.3710938,-0.9960937 -0.5390625,0 -0.9726562,0.1523437 -1.21875,0.4335937 -0.1640625,0.1875 -0.234375,0.3984375 -0.2460937,0.75 h 0.5859375 c 0.046875,-0.4453125 0.3046875,-0.6445312 0.8554687,-0.6445312 0.515625,0 0.8085938,0.1992187 0.8085938,0.5507812 v 0.1523438 c 0,0.234375 -0.140625,0.3398437 -0.5976563,0.3984375 -0.8320312,0.1054687 -0.9492187,0.1289062 -1.171875,0.2226562 -0.4335937,0.1757813 -0.6445312,0.5039063 -0.6445312,0.97265627 0,0.66796875 0.4570312,1.08984375 1.1953125,1.08984375 0.46875,0 0.8320312,-0.164062495 1.2421875,-0.5390625 0.046875,0.36328125 0.2226562,0.5390625 0.5976562,0.5390625 0.1289063,0 0.2109375,-0.0234375 0.3984375,-0.0703125 z M 8.5164141,-1.1486094 c 0,0.18750002 -0.046875,0.31640627 -0.2226563,0.46875002 -0.234375,0.22265625 -0.5273437,0.328125 -0.8671875,0.328125 -0.4570312,0 -0.7148437,-0.2109375 -0.7148437,-0.5859375 0,-0.37500002 0.2578125,-0.57421872 0.8789062,-0.66796872 0.609375,-0.082031 0.7382813,-0.1054688 0.9257813,-0.1992188 z m 1.6611329,-2.5078125 v 3.656250025 h 0.585937 V -2.0157969 c 0,-0.75 0.386719,-1.2304687 0.984375,-1.2304687 0.457032,0 0.75,0.28125 0.75,0.7148437 v 2.531250025 h 0.585938 V -2.7657969 c 0,-0.5976562 -0.457031,-0.9960937 -1.160156,-0.9960937 -0.539063,0 -0.890625,0.2109375 -1.21875,0.7265625 v -0.6210938 z m 5.15625,0 h -0.597656 v -0.9960937 h -0.574219 v 0.9960937 h -0.503906 v 0.4804688 h 0.503906 v 2.75390622 c 0,0.375 0.246094,0.5859375 0.703125,0.5859375 0.140625,0 0.269531,-0.0234375 0.46875,-0.046875 v -0.4921875 c -0.07031,0.0234375 -0.164063,0.0234375 -0.28125,0.0234375 -0.246094,0 -0.316406,-0.0703125 -0.316406,-0.328125 V -3.1759531 h 0.597656 z m 3.74707,-1.4296875 c -0.691406,0.9140625 -1.136719,2.1796875 -1.136719,3.28125 0,1.10156252 0.445313,2.36718752 1.136719,3.28125 h 0.386719 c -0.609375,-0.99609373 -0.949219,-2.16796873 -0.949219,-3.28125 0,-1.1132812 0.339844,-2.2851562 0.949219,-3.28125 z m 4.303711,0.140625 h -3.304687 v 0.609375 h 2.671875 c -1.171875,1.6757813 -1.652344,2.7070313 -2.027344,4.335937525 h 0.65625 C 21.650203,-1.5822031 22.271297,-2.9415781 23.384578,-4.4298594 Z m 0.902344,6.421875 c 0.703125,-0.91406248 1.136719,-2.17968748 1.136719,-3.28125 0,-1.1015625 -0.433594,-2.3671875 -1.136719,-3.28125 h -0.375 c 0.609375,0.9960938 0.949219,2.1679688 0.949219,3.28125 0,1.11328127 -0.339844,2.29687502 -0.949219,3.28125 z m 0,0"
       style="fill:#ffffff;fill-opacity:1;fill-rule:nonzero;stroke:none"
       aria-label="Mant(7)"
       transform="matrix(1.3333333,0,0,1.3333333,214.844,59.398667)" />
    <path
       id="path15"
       d="M 3.2576328,-0.00121875 4.6873203,-4.2668438 v 4.26562505 H 5.3084141 V -5.0871563 H 4.4060703 L 2.9295078,-0.65746875 1.4177891,-5.0871563 H 0.52716406 v 5.08593755 H 1.1365391 V -4.2668438 l 1.4414062,4.26562505 z M 9.5359531,-0.3410625 c -0.058594,0.0117188 -0.082031,0.0117188 -0.1171875,0.0117188 -0.2109375,0 -0.3164062,-0.10546875 -0.3164062,-0.28125 v -2.1562501 c 0,-0.6445312 -0.4804688,-0.9960937 -1.3710938,-0.9960937 -0.5390625,0 -0.9726562,0.1523437 -1.21875,0.4335937 -0.1640625,0.1875 -0.234375,0.3984375 -0.2460937,0.75 h 0.5859375 c 0.046875,-0.4453125 0.3046875,-0.6445312 0.8554687,-0.6445312 0.515625,0 0.8085938,0.1992187 0.8085938,0.5507812 V -2.52075 c 0,0.234375 -0.140625,0.3398437 -0.5976563,0.3984375 -0.8320312,0.1054687 -0.9492187,0.1289062 -1.171875,0.2226562 C 6.3132969,-1.723875 6.1023594,-1.39575 6.1023594,-0.927 c 0,0.66796875 0.4570312,1.08984375 1.1953125,1.08984375 0.46875,0 0.8320312,-0.1640625 1.2421875,-0.5390625 0.046875,0.36328125 0.2226562,0.5390625 0.5976562,0.5390625 0.1289063,0 0.2109375,-0.0234375 0.3984375,-0.0703125 z M 8.5164219,-1.1496563 c 0,0.18750005 -0.046875,0.3164063 -0.2226563,0.46875005 -0.234375,0.22265625 -0.5273437,0.328125 -0.8671875,0.328125 -0.4570312,0 -0.7148437,-0.2109375 -0.7148437,-0.5859375 0,-0.37500005 0.2578125,-0.57421875 0.8789062,-0.66796875 0.609375,-0.082031 0.7382813,-0.1054688 0.9257813,-0.1992188 z m 2.9384761,-2.5078125 h -0.597656 v -0.9960937 h -0.574219 v 0.9960937 H 9.7791172 V -3.177 h 0.5039058 v 2.75390625 c 0,0.375 0.246094,0.5859375 0.703125,0.5859375 0.140625,0 0.269532,-0.0234375 0.46875,-0.046875 v -0.4921875 c -0.07031,0.0234375 -0.164062,0.0234375 -0.28125,0.0234375 -0.246093,0 -0.316406,-0.0703125 -0.316406,-0.328125 V -3.177 h 0.597656 z M 14.90607,-2.427 C 14.882633,-2.7785625 14.800602,-3.0129375 14.659977,-3.2121563 14.413883,-3.552 13.980289,-3.7629375 13.464664,-3.7629375 c -0.984375,0 -1.628906,0.7851562 -1.628906,1.9921875 0,1.18359375 0.632812,1.93359375 1.617187,1.93359375 0.878907,0 1.429688,-0.52734375 1.5,-1.41796875 h -0.585937 c -0.09375,0.5859375 -0.398438,0.87890625 -0.890625,0.87890625 -0.644531,0 -1.03125,-0.52734375 -1.03125,-1.39453125 0,-0.9023438 0.375,-1.453125 1.007812,-1.453125 0.492188,0 0.796875,0.2929687 0.867188,0.796875 z m 0.697266,-2.6601563 v 5.08593755 h 0.574219 V -2.0168438 c 0,-0.75 0.386718,-1.2304687 0.996093,-1.2304687 0.1875,0 0.375,0.058594 0.515625,0.1640625 0.164063,0.1171875 0.234375,0.2929687 0.234375,0.5507812 v 2.53125005 h 0.574219 V -2.7668438 c 0,-0.609375 -0.433594,-0.9960937 -1.148437,-0.9960937 -0.515625,0 -0.832032,0.1640625 -1.171875,0.609375 v -1.9335938 z m 6.960937,3.4570313 c 0,-0.5625 -0.03516,-0.890625 -0.140625,-1.171875 -0.234375,-0.5976563 -0.796875,-0.9609375 -1.476562,-0.9609375 -1.019531,0 -1.675781,0.7851562 -1.675781,1.9804687 0,1.2070313 0.632812,1.94531255 1.652343,1.94531255 0.84375,0 1.417969,-0.48046875 1.570313,-1.27734375 h -0.585938 c -0.164062,0.48046875 -0.492187,0.73828125 -0.960937,0.73828125 -0.363281,0 -0.679688,-0.1640625 -0.878906,-0.48046875 -0.140625,-0.1992188 -0.1875,-0.4101563 -0.1875,-0.7734375 z m -2.671875,-0.4804688 c 0.04687,-0.6679687 0.457032,-1.1132812 1.042969,-1.1132812 0.574219,0 1.007813,0.4804687 1.007813,1.078125 0,0.011719 0,0.023437 0,0.035156 z m 6.032227,-0.5273437 c -0.01172,-0.7148438 -0.480469,-1.125 -1.324219,-1.125 -0.855469,0 -1.40625,0.4453125 -1.40625,1.1132812 0,0.5742188 0.292969,0.84375 1.160156,1.0546875 l 0.539063,0.140625 c 0.410156,0.09375 0.5625,0.234375 0.5625,0.5039063 0,0.33984375 -0.339844,0.57421875 -0.84375,0.57421875 -0.316406,0 -0.585938,-0.09375 -0.726563,-0.24609375 -0.09375,-0.10546875 -0.128906,-0.2109375 -0.164062,-0.46875 h -0.621094 c 0.03516,0.84375 0.503906,1.25390625 1.464844,1.25390625 0.914062,0 1.5,-0.45703125 1.5,-1.16015625 0,-0.5390625 -0.304688,-0.84375 -1.03125,-1.0195313 L 24.4715,-2.14575 c -0.46875,-0.1171875 -0.667969,-0.2695313 -0.667969,-0.5273438 0,-0.328125 0.292969,-0.5507812 0.773438,-0.5507812 0.46875,0 0.714843,0.1992187 0.726562,0.5859375 z m 3.644531,0.3164062 h 2.425781 v -0.5625 h -2.425781 v -1.6289062 h 2.765625 v -0.5742188 h -3.410156 v 5.08593755 h 0.644531 z m 4.262696,0.1640625 h 1.605468 c 0.398438,0 0.703125,-0.1171875 0.984375,-0.3632812 0.304688,-0.28125 0.433594,-0.609375 0.433594,-1.0664063 0,-0.9609375 -0.5625,-1.5 -1.570312,-1.5 H 33.18732 v 5.08593755 h 0.644532 z m 0,-0.5742187 v -1.78125 h 1.359375 c 0.621093,0 0.984375,0.3398437 0.984375,0.890625 0,0.5625 -0.363282,0.890625 -0.984375,0.890625 z m 4.910156,0.46875 h 0.08203 l 0.257813,-0.011719 c 0.679687,0 1.03125,0.3046875 1.03125,0.9023438 0,0.62109375 -0.386719,0.984375 -1.03125,0.984375 -0.667969,0 -0.996094,-0.328125 -1.042969,-1.0546875 h -0.609375 c 0.02344,0.3984375 0.09375,0.65625 0.210937,0.87890625 0.257813,0.48046875 0.75,0.7265625 1.417969,0.7265625 1.019531,0 1.675781,-0.609375 1.675781,-1.54687505 0,-0.6210937 -0.246093,-0.9726562 -0.832031,-1.171875 0.457031,-0.1875 0.691406,-0.5390625 0.691406,-1.03125 0,-0.84375 -0.574218,-1.359375 -1.511718,-1.359375 -0.996094,0 -1.523438,0.5507813 -1.546875,1.59375 h 0.609375 c 0.01172,-0.2929687 0.03516,-0.4570312 0.117187,-0.6210937 0.140625,-0.2695313 0.445313,-0.4335938 0.832031,-0.4335938 0.539063,0 0.867188,0.3164063 0.867188,0.84375 0,0.3515625 -0.128906,0.5625 -0.398438,0.6679688 -0.164062,0.070312 -0.386718,0.09375 -0.820312,0.1054687 z m 5.868164,1.65234375 h -2.601563 c 0.05859,-0.39843755 0.292969,-0.65625005 0.890625,-1.01953125 l 0.703125,-0.375 c 0.691407,-0.375 1.042969,-0.8789063 1.042969,-1.4882813 0,-0.4101562 -0.164062,-0.796875 -0.457031,-1.0664062 -0.292969,-0.2578125 -0.65625,-0.3867188 -1.125,-0.3867188 -0.632813,0 -1.089844,0.2226563 -1.371094,0.6445313 -0.175781,0.2578125 -0.246094,0.5742187 -0.257812,1.078125 h 0.609375 c 0.02344,-0.3398438 0.05859,-0.5390625 0.152343,-0.703125 0.152344,-0.3046875 0.480469,-0.4804688 0.84375,-0.4804688 0.5625,0 0.972657,0.3984375 0.972657,0.9257813 0,0.3867187 -0.222657,0.7265625 -0.667969,0.9726562 L 42.711734,-2.14575 c -1.03125,0.5859375 -1.335937,1.0546875 -1.394531,2.14453125 h 3.292969 z M 48.19318,-2.192625 h 1.664062 c 0.585938,0 0.84375,0.28125 0.84375,0.9140625 l -0.01172,0.4453125 c 0,0.31640625 0.05859,0.62109375 0.152344,0.83203125 h 0.785156 v -0.1640625 C 51.38068,-0.32934375 51.333805,-0.505125 51.322086,-1.1848125 c -0.01172,-0.84375 -0.140625,-1.0898438 -0.691406,-1.3242188 0.574218,-0.28125 0.796875,-0.6328125 0.796875,-1.21875 0,-0.8789062 -0.550782,-1.359375 -1.546875,-1.359375 h -2.34375 v 5.08593755 h 0.65625 z m 0,-0.5742188 v -1.7460937 h 1.570312 c 0.351563,0 0.5625,0.058594 0.726563,0.1992187 0.175781,0.140625 0.269531,0.375 0.269531,0.6796875 0,0.5976563 -0.316406,0.8671875 -0.996094,0.8671875 z m 7.461914,2.4257813 c -0.05859,0.0117188 -0.08203,0.0117188 -0.117188,0.0117188 -0.210937,0 -0.316406,-0.10546875 -0.316406,-0.28125 v -2.1562501 c 0,-0.6445312 -0.480469,-0.9960937 -1.371094,-0.9960937 -0.539062,0 -0.972656,0.1523437 -1.21875,0.4335937 -0.164062,0.1875 -0.234375,0.3984375 -0.246094,0.75 H 52.9715 c 0.04687,-0.4453125 0.304687,-0.6445312 0.855469,-0.6445312 0.515625,0 0.808593,0.1992187 0.808593,0.5507812 V -2.52075 c 0,0.234375 -0.140625,0.3398437 -0.597656,0.3984375 -0.832031,0.1054687 -0.949219,0.1289062 -1.171875,0.2226562 C 52.432437,-1.723875 52.2215,-1.39575 52.2215,-0.927 c 0,0.66796875 0.457031,1.08984375 1.195312,1.08984375 0.46875,0 0.832032,-0.1640625 1.242188,-0.5390625 0.04687,0.36328125 0.222656,0.5390625 0.597656,0.5390625 0.128906,0 0.210938,-0.0234375 0.398438,-0.0703125 z m -1.019532,-0.8085938 c 0,0.18750005 -0.04687,0.3164063 -0.222656,0.46875005 -0.234375,0.22265625 -0.527344,0.328125 -0.867187,0.328125 -0.457032,0 -0.714844,-0.2109375 -0.714844,-0.5859375 0,-0.37500005 0.257812,-0.57421875 0.878906,-0.66796875 0.609375,-0.082031 0.738281,-0.1054688 0.925781,-0.1992188 z m 1.661133,-2.5078125 v 3.65625005 h 0.585938 V -2.0168438 c 0,-0.75 0.386719,-1.2304687 0.984375,-1.2304687 0.457031,0 0.75,0.28125 0.75,0.7148437 v 2.53125005 h 0.585937 V -2.7668438 c 0,-0.5976562 -0.457031,-0.9960937 -1.160156,-0.9960937 -0.539062,0 -0.890625,0.2109375 -1.21875,0.7265625 v -0.6210938 z m 6.257813,0 V -3.130125 C 62.261539,-3.552 61.909977,-3.7629375 61.441227,-3.7629375 c -0.925782,0 -1.558594,0.8085937 -1.558594,1.9921875 0,0.609375 0.164062,1.08984375 0.46875,1.44140625 0.269531,0.3046875 0.65625,0.4921875 1.042969,0.4921875 0.457031,0 0.773437,-0.19921875 1.101562,-0.65625 v 0.1875 c 0,0.4921875 -0.05859,0.796875 -0.199219,0.99609375 -0.164062,0.2109375 -0.457031,0.3398437 -0.808593,0.3398437 -0.269532,0 -0.503907,-0.0703125 -0.667969,-0.1992187 -0.128906,-0.10546875 -0.1875,-0.19921875 -0.222656,-0.41015625 H 59.99982 c 0.07031,0.69140625 0.609375,1.10156245 1.464844,1.10156245 0.539063,0 1.007813,-0.1757812 1.242188,-0.46875 C 62.988102,0.713625 63.09357,0.25659375 63.09357,-0.598875 V -3.6574688 Z M 61.49982,-3.223875 c 0.632813,0 0.996094,0.5273437 0.996094,1.4414062 0,0.8789063 -0.375,1.40625005 -0.984375,1.40625005 -0.632812,0 -1.019531,-0.5390625 -1.019531,-1.42968755 0,-0.8671875 0.386719,-1.4179687 1.007812,-1.4179687 z m 5.633789,1.59375 c 0,-0.5625 -0.03516,-0.890625 -0.140625,-1.171875 -0.234375,-0.5976563 -0.796875,-0.9609375 -1.476562,-0.9609375 -1.019531,0 -1.675781,0.7851562 -1.675781,1.9804687 0,1.2070313 0.632812,1.94531255 1.652343,1.94531255 0.84375,0 1.417969,-0.48046875 1.570313,-1.27734375 h -0.585938 c -0.164062,0.48046875 -0.492187,0.73828125 -0.960937,0.73828125 -0.363281,0 -0.679688,-0.1640625 -0.878906,-0.48046875 -0.140625,-0.1992188 -0.1875,-0.4101563 -0.1875,-0.7734375 z m -2.671875,-0.4804688 c 0.04687,-0.6679687 0.457032,-1.1132812 1.042969,-1.1132812 0.574219,0 1.007813,0.4804687 1.007813,1.078125 0,0.011719 0,0.023437 0,0.035156 z m 0,0"
       style="fill:#808080;fill-opacity:1;fill-rule:nonzero;stroke:none"
       aria-label="MatchesFP32Range"
       transform="matrix(1.3333333,0,0,1.3333333,284.62133,59.236)" />
    <path
       id="path16"
       d="M 1.6418906,-2.9775937 H 4.7590781 V -3.715875 H 1.6418906 V -5.8018125 H 5.1926719 V -6.5400937 H 0.80985938 v 6.53906245 H 1.6418906 Z m 5.4902344,0.2109375 h 2.0507813 c 0.515625,0 0.9140627,-0.1523438 1.2656247,-0.46875 0.386719,-0.3632813 0.5625,-0.7851563 0.5625,-1.3828125 0,-1.2304688 -0.726562,-1.921875 -2.0156247,-1.921875 H 6.3000938 v 6.53906245 H 7.132125 Z m 0,-0.7382813 v -2.296875 H 8.8665 c 0.796875,0 1.277344,0.4335938 1.277344,1.1484375 0,0.7148438 -0.480469,1.1484375 -1.277344,1.1484375 z m 6.647461,-1.0195312 v 4.52343745 h 0.785156 V -6.3525937 h -0.515625 c -0.28125,0.9726562 -0.457031,1.1015625 -1.675781,1.2539062 v 0.5742188 z M 20.910445,-4.70025 c -0.152343,-1.0429687 -0.832031,-1.6523437 -1.804687,-1.6523437 -0.691406,0 -1.324219,0.3398437 -1.699219,0.9023437 -0.398437,0.6210938 -0.574219,1.3945313 -0.574219,2.5546875 0,1.0664063 0.164063,1.7460938 0.539063,2.30859375 0.339844,0.515625 0.890625,0.796875 1.59375,0.796875 1.207031,0 2.074219,-0.90234375 2.074219,-2.14453125 0,-1.1835937 -0.796875,-2.015625 -1.945313,-2.015625 -0.621094,0 -1.113281,0.234375 -1.453125,0.703125 0.01172,-1.546875 0.503906,-2.4140625 1.417969,-2.4140625 0.550781,0 0.9375,0.3515625 1.066406,0.9609375 z m -1.910156,1.4414063 c 0.761719,0 1.242188,0.5273437 1.242188,1.3828125 0,0.796875 -0.539063,1.38281245 -1.265625,1.38281245 -0.738282,0 -1.289063,-0.60937495 -1.289063,-1.42968745 0,-0.7851563 0.527344,-1.3359375 1.3125,-1.3359375 z m 7.03418,-3.28125 c -0.902344,1.1835937 -1.464844,2.8125 -1.464844,4.21875 0,1.4179687 0.5625,3.04687495 1.464844,4.21875 h 0.492187 c -0.796875,-1.2773438 -1.230468,-2.78906255 -1.230468,-4.21875 0,-1.4296875 0.433593,-2.9414063 1.230468,-4.21875 z m 3.18457,2.015625 v 4.52343745 h 0.785156 V -6.3525937 H 29.48857 c -0.28125,0.9726562 -0.457031,1.1015625 -1.675781,1.2539062 v 0.5742188 z M 36.349898,-4.70025 c -0.152343,-1.0429687 -0.832031,-1.6523437 -1.804687,-1.6523437 -0.691406,0 -1.324219,0.3398437 -1.699219,0.9023437 -0.398437,0.6210938 -0.574219,1.3945313 -0.574219,2.5546875 0,1.0664063 0.164063,1.7460938 0.539063,2.30859375 0.339844,0.515625 0.890625,0.796875 1.59375,0.796875 1.207031,0 2.074219,-0.90234375 2.074219,-2.14453125 0,-1.1835937 -0.796875,-2.015625 -1.945313,-2.015625 -0.621094,0 -1.113281,0.234375 -1.453125,0.703125 0.01172,-1.546875 0.503906,-2.4140625 1.417969,-2.4140625 0.550781,0 0.9375,0.3515625 1.066406,0.9609375 z m -1.910156,1.4414063 c 0.761719,0 1.242188,0.5273437 1.242188,1.3828125 0,0.796875 -0.539063,1.38281245 -1.265625,1.38281245 -0.738282,0 -1.289063,-0.60937495 -1.289063,-1.42968745 0,-0.7851563 0.527344,-1.3359375 1.3125,-1.3359375 z m 4.97168,0.4570312 h -2.132813 v 0.6445313 h 2.132813 z m 0.925781,-3.7382812 v 6.53906245 h 0.679688 V -0.5986875 c 0.351562,0.5390625 0.832031,0.80859375 1.488281,0.80859375 1.230469,0 2.039062,-1.01953125 2.039062,-2.57812495 0,-1.5234375 -0.773437,-2.4609375 -2.003906,-2.4609375 -0.644531,0 -1.101562,0.234375 -1.453125,0.7617187 v -2.4726562 z m 2.050781,2.4023437 c 0.84375,0 1.382813,0.7265625 1.382813,1.8515625 0,1.0664063 -0.5625,1.79296875 -1.382813,1.79296875 -0.785156,0 -1.300781,-0.71484375 -1.300781,-1.81640625 0,-1.1015625 0.515625,-1.828125 1.300781,-1.828125 z m 3.799805,-0.5625 h -0.75 v 4.69921875 h 0.75 z m 0,-1.8398437 H 45.42607 v 0.9492187 h 0.761719 z m 2.917969,1.8398437 h -0.761719 v -1.2890625 h -0.75 V -4.70025 h -0.632812 v 0.609375 h 0.632812 v 3.55078125 c 0,0.48046875 0.328125,0.75 0.902344,0.75 0.1875,0 0.363281,-0.0234375 0.609375,-0.0703125 V -0.4815 c -0.09375,0.0234375 -0.210938,0.0351563 -0.351563,0.0351563 -0.328125,0 -0.410156,-0.09375 -0.410156,-0.421875 V -4.090875 h 0.761719 z m 1.051758,6.5976563 c 0.902343,-1.17187505 1.464843,-2.8007813 1.464843,-4.2070313 0,-1.4179687 -0.5625,-3.046875 -1.464843,-4.2304687 h -0.492188 c 0.785156,1.2890625 1.230469,2.7890625 1.230469,4.2304687 0,1.41796875 -0.445313,2.94140625 -1.230469,4.2070313 z m 0,0"
       style="fill:#333333;fill-opacity:1;fill-rule:nonzero;stroke:none"
       aria-label="FP16(16-bit)"
       transform="matrix(1.3333333,0,0,1.3333333,4.428,97.892)" />
    <path
       id="path17"
       d="M -1.3945,19.84268 H 9.8982 V 36.85092 H -1.3945 Z"
       style="fill:#d9534f;fill-opacity:1;fill-rule:nonzero;stroke:#ffffff;stroke-width:0.79701;stroke-linecap:butt;stroke-linejoin:miter;stroke-miterlimit:10;stroke-dasharray:none;stroke-opacity:1"
       transform="matrix(1.3333333,0,0,-1.3333333,86.437333,132.548)" />
    <path
       id="path18"
       d="M 4.1590859,-3.5853438 C 4.1473672,-4.5931563 3.4676797,-5.167375 2.2958047,-5.167375 c -1.1132813,0 -1.80468751,0.5742187 -1.80468751,1.4882812 0,0.6210938 0.328125,1.0195313 0.99609371,1.1953125 l 1.2539063,0.328125 c 0.6445312,0.1640625 0.9375,0.421875 0.9375,0.8203125 0,0.28125 -0.140625,0.5507813 -0.3632813,0.70312505 -0.1992187,0.140625 -0.515625,0.22265625 -0.9375,0.22265625 -0.5507812,0 -0.9257812,-0.12890625 -1.1601562,-0.421875 -0.1992188,-0.2226563 -0.28125001,-0.46875 -0.26953126,-0.7851563 h -0.609375 c 0,0.46875 0.09375,0.77343755 0.29296875,1.05468755 0.3515625,0.46875 0.93750001,0.7265625 1.71093751,0.7265625 0.609375,0 1.1015625,-0.140625 1.4296875,-0.3984375 0.3398437,-0.26953125 0.5507812,-0.7265625 0.5507812,-1.16015625 0,-0.6328125 -0.3867187,-1.0898438 -1.078125,-1.2773438 L 1.9676797,-3.011125 c -0.609375,-0.1640625 -0.8320313,-0.3632813 -0.8320313,-0.75 0,-0.515625 0.4570313,-0.8554688 1.1367188,-0.8554688 0.8085937,0 1.265625,0.3632813 1.265625,1.03125 z m 0,0"
       style="fill:#ffffff;fill-opacity:1;fill-rule:nonzero;stroke:none"
       aria-label="S"
       transform="matrix(1.3333333,0,0,1.3333333,89.005333,98.077333)" />
    <path
       id="path19"
       d="m 10.69519,19.84268 h 42.5202 v 17.00824 h -42.5202 z"
       style="fill:#5bc0de;fill-opacity:1;fill-rule:nonzero;stroke:#ffffff;stroke-width:0.79701;stroke-linecap:butt;stroke-linejoin:miter;stroke-miterlimit:10;stroke-dasharray:none;stroke-opacity:1"
       transform="matrix(1.3333333,0,0,-1.3333333,86.437333,132.548)" />
    <path
       id="path20"
       d="m 1.2772891,-2.3198281 h 2.765625 v -0.5625 H 1.2772891 V -4.5112344 H 4.1483828 V -5.0854531 H 0.63275781 V 4.84375e-4 H 4.2772891 V -0.57373438 h -3 z m 5.4140625,0.4335937 1.21875,-1.7695312 H 7.2655703 L 6.3866641,-2.3315469 5.5077578,-3.6557656 H 4.8397891 l 1.21875,1.7929687 L 4.7694766,4.84375e-4 H 5.4374453 L 6.3632266,-1.4057656 7.2772891,4.84375e-4 h 0.6679687 z m 1.8222656,3.4101563 h 0.5859375 v -1.91015628 c 0.3046875,0.375 0.6445312,0.55078125 1.1250003,0.55078125 0.9375,0 1.558593,-0.76171875 1.558593,-1.93359377 0,-1.21875 -0.597656,-1.9921875 -1.570312,-1.9921875 -0.4921876,0 -0.8906251,0.2226563 -1.1601563,0.65625 V -3.6557656 H 8.5136172 Z m 1.6054688,-4.734375 c 0.644531,0 1.054687,0.5625 1.054687,1.4296875 0,0.83203122 -0.421875,1.39453122 -1.054687,1.39453122 -0.6093751,0 -1.0195313,-0.55078125 -1.0195313,-1.41796872 0,-0.8554688 0.4101562,-1.40625 1.0195313,-1.40625 z m 5.475586,-1.875 c -0.691406,0.9140625 -1.136719,2.1796875 -1.136719,3.28125 0,1.10156247 0.445313,2.36718747 1.136719,3.28125 h 0.386719 c -0.609375,-0.99609378 -0.949219,-2.16796878 -0.949219,-3.28125 0,-1.1132813 0.339844,-2.2851563 0.949219,-3.28125 z m 3.999023,0.140625 h -2.554687 l -0.363281,2.6953125 h 0.5625 c 0.292968,-0.3398438 0.527343,-0.4570313 0.902343,-0.4570313 0.667969,0 1.089844,0.4453125 1.089844,1.1835938 0,0.70312497 -0.410156,1.13671872 -1.089844,1.13671872 -0.527343,0 -0.855468,-0.26953125 -1.007812,-0.83203122 h -0.609375 c 0.08203,0.41015622 0.152344,0.60937497 0.292969,0.78515622 0.28125,0.375 0.785156,0.59765625 1.347656,0.59765625 0.996094,0 1.6875,-0.7265625 1.6875,-1.76953127 0,-0.984375 -0.644531,-1.6523437 -1.59375,-1.6523437 -0.351563,0 -0.632813,0.09375 -0.914063,0.3046875 l 0.199219,-1.3828125 h 2.050781 z m 1.204102,6.421875 c 0.703125,-0.91406253 1.136719,-2.17968753 1.136719,-3.28125 0,-1.1015625 -0.433594,-2.3671875 -1.136719,-3.28125 h -0.375 c 0.609375,0.9960937 0.949219,2.1679687 0.949219,3.28125 0,1.11328122 -0.339844,2.29687497 -0.949219,3.28125 z m 0,0"
       style="fill:#ffffff;fill-opacity:1;fill-rule:nonzero;stroke:none"
       aria-label="Exp(5)"
       transform="matrix(1.3333333,0,0,1.3333333,114.05867,97.194667)" />
    <path
       id="path21"
       d="m 54.0124,19.84268 h 85.04044 V 36.85092 H 54.0124 Z"
       style="fill:#f0ad4e;fill-opacity:1;fill-rule:nonzero;stroke:#ffffff;stroke-width:0.79701;stroke-linecap:butt;stroke-linejoin:miter;stroke-miterlimit:10;stroke-dasharray:none;stroke-opacity:1"
       transform="matrix(1.3333333,0,0,-1.3333333,86.437333,132.548)" />
    <path
       id="path22"
       d="M 3.2570937,4.84375e-4 4.6867812,-4.2651406 V 4.84375e-4 H 5.307875 V -5.0854531 H 4.4055312 L 2.9289687,-0.65576563 1.41725,-5.0854531 H 0.526625 V 4.84375e-4 H 1.136 V -4.2651406 L 2.5774062,4.84375e-4 Z M 9.5354141,-0.33935938 c -0.058594,0.0117188 -0.082031,0.0117188 -0.1171875,0.0117188 -0.2109375,0 -0.3164063,-0.10546875 -0.3164063,-0.28125 V -2.7651406 c 0,-0.6445313 -0.4804687,-0.9960938 -1.3710937,-0.9960938 -0.5390625,0 -0.9726563,0.1523438 -1.21875,0.4335938 -0.1640625,0.1875 -0.234375,0.3984375 -0.2460938,0.75 h 0.5859375 c 0.046875,-0.4453125 0.3046875,-0.6445313 0.8554688,-0.6445313 0.515625,0 0.8085937,0.1992188 0.8085937,0.5507813 v 0.1523437 c 0,0.234375 -0.140625,0.3398438 -0.5976562,0.3984375 -0.8320313,0.1054688 -0.9492188,0.1289063 -1.171875,0.2226563 -0.4335938,0.1757812 -0.6445313,0.5039062 -0.6445313,0.97265622 0,0.66796875 0.4570313,1.08984375 1.1953125,1.08984375 0.46875,0 0.8320313,-0.164062495 1.2421875,-0.5390625 0.046875,0.36328125 0.2226563,0.5390625 0.5976563,0.5390625 0.1289062,0 0.2109375,-0.0234375 0.3984375,-0.0703125 z M 8.5158828,-1.1479531 c 0,0.18749997 -0.046875,0.31640622 -0.2226562,0.46874997 -0.234375,0.22265625 -0.5273438,0.328125 -0.8671875,0.328125 -0.4570313,0 -0.7148438,-0.2109375 -0.7148438,-0.5859375 0,-0.37499997 0.2578125,-0.57421877 0.8789063,-0.66796877 0.609375,-0.082031 0.7382812,-0.1054687 0.9257812,-0.1992187 z M 10.179945,-3.6557656 V 4.84375e-4 h 0.585938 V -2.0151406 c 0,-0.75 0.386719,-1.2304688 0.984375,-1.2304688 0.457031,0 0.75,0.28125 0.75,0.7148438 V 4.84375e-4 h 0.585937 V -2.7651406 c 0,-0.5976563 -0.457031,-0.9960938 -1.160156,-0.9960938 -0.539062,0 -0.890625,0.2109375 -1.21875,0.7265625 v -0.6210937 z m 5.153321,0 h -0.597657 v -0.9960938 h -0.574218 v 0.9960938 h -0.503907 v 0.4804687 h 0.503907 v 2.75390627 c 0,0.375 0.246093,0.5859375 0.703125,0.5859375 0.140625,0 0.269531,-0.0234375 0.46875,-0.046875 v -0.4921875 c -0.07031,0.0234375 -0.164063,0.0234375 -0.28125,0.0234375 -0.246094,0 -0.316407,-0.0703125 -0.316407,-0.328125 V -3.1752969 h 0.597657 z m 1.21289,0 H 15.971937 V 4.84375e-4 h 0.574219 z m 0,-1.4296875 h -0.585937 v 0.7382812 h 0.585937 z m 3.5625,2.4492187 c -0.01172,-0.7148437 -0.480469,-1.125 -1.324219,-1.125 -0.855468,0 -1.40625,0.4453125 -1.40625,1.1132813 0,0.5742187 0.292969,0.84375 1.160157,1.0546875 l 0.539062,0.140625 c 0.410156,0.09375 0.5625,0.234375 0.5625,0.50390622 0,0.33984375 -0.339844,0.57421875 -0.84375,0.57421875 -0.316406,0 -0.585937,-0.09375 -0.726562,-0.24609375 -0.09375,-0.10546875 -0.128907,-0.2109375 -0.164063,-0.46875002 h -0.621094 c 0.03516,0.84375002 0.503907,1.25390627 1.464844,1.25390627 0.914063,0 1.5,-0.45703125 1.5,-1.16015625 0,-0.53906252 -0.304687,-0.84375002 -1.03125,-1.01953122 l -0.5625,-0.1289063 c -0.46875,-0.1171875 -0.667969,-0.2695312 -0.667969,-0.5273437 0,-0.328125 0.292969,-0.5507813 0.773438,-0.5507813 0.46875,0 0.714844,0.1992188 0.726562,0.5859375 z m 3.489258,0 c -0.01172,-0.7148437 -0.480469,-1.125 -1.324219,-1.125 -0.855468,0 -1.40625,0.4453125 -1.40625,1.1132813 0,0.5742187 0.292969,0.84375 1.160157,1.0546875 l 0.539062,0.140625 c 0.410156,0.09375 0.5625,0.234375 0.5625,0.50390622 0,0.33984375 -0.339844,0.57421875 -0.84375,0.57421875 -0.316406,0 -0.585937,-0.09375 -0.726562,-0.24609375 -0.09375,-0.10546875 -0.128907,-0.2109375 -0.164063,-0.46875002 h -0.621094 c 0.03516,0.84375002 0.503907,1.25390627 1.464844,1.25390627 0.914063,0 1.5,-0.45703125 1.5,-1.16015625 0,-0.53906252 -0.304687,-0.84375002 -1.03125,-1.01953122 l -0.5625,-0.1289063 c -0.46875,-0.1171875 -0.667969,-0.2695312 -0.667969,-0.5273437 0,-0.328125 0.292969,-0.5507813 0.773438,-0.5507813 0.46875,0 0.714844,0.1992188 0.726562,0.5859375 z m 4.154297,2.29687502 c -0.05859,0.0117188 -0.08203,0.0117188 -0.117188,0.0117188 -0.210937,0 -0.316406,-0.10546875 -0.316406,-0.28125 V -2.7651406 c 0,-0.6445313 -0.480469,-0.9960938 -1.371094,-0.9960938 -0.539062,0 -0.972656,0.1523438 -1.21875,0.4335938 -0.164062,0.1875 -0.234375,0.3984375 -0.246093,0.75 h 0.585937 c 0.04687,-0.4453125 0.304688,-0.6445313 0.855469,-0.6445313 0.515625,0 0.808594,0.1992188 0.808594,0.5507813 v 0.1523437 c 0,0.234375 -0.140625,0.3398438 -0.597657,0.3984375 -0.832031,0.1054688 -0.949218,0.1289063 -1.171875,0.2226563 -0.433593,0.1757812 -0.644531,0.5039062 -0.644531,0.97265622 0,0.66796875 0.457031,1.08984375 1.195313,1.08984375 0.46875,0 0.832031,-0.164062495 1.242187,-0.5390625 0.04687,0.36328125 0.222656,0.5390625 0.597656,0.5390625 0.128907,0 0.210938,-0.0234375 0.398438,-0.0703125 z M 26.73268,-1.1479531 c 0,0.18749997 -0.04687,0.31640622 -0.222657,0.46874997 -0.234375,0.22265625 -0.527343,0.328125 -0.867187,0.328125 -0.457031,0 -0.714844,-0.2109375 -0.714844,-0.5859375 0,-0.37499997 0.257813,-0.57421877 0.878906,-0.66796877 0.609375,-0.082031 0.738282,-0.1054687 0.925782,-0.1992187 z m 4.743164,-3.9375 c -0.691407,0.9140625 -1.136719,2.1796875 -1.136719,3.28125 0,1.10156247 0.445312,2.36718747 1.136719,3.28125 h 0.386718 c -0.609375,-0.99609378 -0.949218,-2.16796878 -0.949218,-3.28125 0,-1.1132813 0.339843,-2.2851563 0.949218,-3.28125 z m 2.484375,1.5703125 V 4.84375e-4 h 0.609375 V -4.9448281 h -0.398438 c -0.210937,0.7617187 -0.351562,0.8671875 -1.300781,0.984375 v 0.4453125 z m 3.996093,-1.4296875 c -0.46875,0 -0.878906,0.1992187 -1.136718,0.5507812 -0.328125,0.421875 -0.480469,1.0898438 -0.480469,2.0039063 0,1.66406247 0.550781,2.55468747 1.617187,2.55468747 1.042969,0 1.617188,-0.890625 1.617188,-2.51953127 0,-0.9609375 -0.152344,-1.59375 -0.480469,-2.0390625 -0.257812,-0.3515625 -0.679687,-0.5507812 -1.136719,-0.5507812 z m 0,0.5507812 c 0.65625,0 0.984375,0.6679688 0.984375,1.9921875 0,1.3945313 -0.316406,2.05078127 -1.007812,2.05078127 -0.644531,0 -0.972656,-0.67968747 -0.972656,-2.02734377 0,-1.359375 0.328125,-2.015625 0.996093,-2.015625 z m 2.598633,5.8710938 c 0.703125,-0.91406253 1.136719,-2.17968753 1.136719,-3.28125 0,-1.1015625 -0.433594,-2.3671875 -1.136719,-3.28125 h -0.375 c 0.609375,0.9960937 0.949219,2.1679687 0.949219,3.28125 0,1.11328122 -0.339844,2.29687497 -0.949219,3.28125 z m 0,0"
       style="fill:#ffffff;fill-opacity:1;fill-rule:nonzero;stroke:none"
       aria-label="Mantissa(10)"
       transform="matrix(1.3333333,0,0,1.3333333,186.98533,97.194667)" />
    <path
       id="path23"
       d="M 1.7330859,-6.5384375 H 0.88933594 V 6.25e-4 H 1.7330859 Z m 6.5478516,0 H 7.4957813 v 5.34375 l -3.421875,-5.34375 H 3.1715625 V 6.25e-4 H 3.9567188 V -5.29625 L 7.3434375,6.25e-4 h 0.9375 z m 3.8613285,0.7382812 h 2.144531 V -6.5384375 H 9.1539844 v 0.7382812 H 11.310234 V 6.25e-4 h 0.832032 z m 5.80664,2.4609375 c 0.65625,-0.3984375 0.867188,-0.7265625 0.867188,-1.3242187 0,-0.9960938 -0.773438,-1.6875 -1.910156,-1.6875 -1.113282,0 -1.910157,0.6914062 -1.910157,1.6875 0,0.5976562 0.222657,0.9140625 0.867188,1.3242187 -0.726563,0.3398438 -1.089844,0.8789063 -1.089844,1.5703125 0,1.17187505 0.878906,1.9804688 2.132813,1.9804688 1.253906,0 2.132812,-0.80859375 2.132812,-1.96875 0,-0.703125 -0.351562,-1.2421875 -1.089844,-1.5820313 z m -1.042968,-2.3203125 c 0.679687,0 1.101562,0.3984375 1.101562,1.0195313 0,0.5859375 -0.433594,0.984375 -1.101562,0.984375 -0.65625,0 -1.101563,-0.3984375 -1.101563,-0.9960938 0,-0.609375 0.445313,-1.0078125 1.101563,-1.0078125 z m 0,2.6601563 c 0.796875,0 1.335937,0.5039062 1.335937,1.2539062 0,0.75000005 -0.539062,1.2539063 -1.347656,1.2539063 -0.773438,0 -1.3125,-0.515625 -1.3125,-1.2539063 0,-0.75 0.539062,-1.2539062 1.324219,-1.2539062 z m 7.136718,-3.5390625 c -0.902343,1.1835937 -1.464843,2.8125 -1.464843,4.21875 0,1.41796875 0.5625,3.046875 1.464843,4.21875 h 0.492188 C 23.737969,0.62171875 23.304375,-0.89 23.304375,-2.3196875 c 0,-1.4296875 0.433594,-2.9414063 1.230469,-4.21875 z m 4.371094,3.1992187 c 0.65625,-0.3984375 0.867188,-0.7265625 0.867188,-1.3242187 0,-0.9960938 -0.773438,-1.6875 -1.910157,-1.6875 -1.113281,0 -1.910156,0.6914062 -1.910156,1.6875 0,0.5976562 0.222656,0.9140625 0.867188,1.3242187 -0.726563,0.3398438 -1.089844,0.8789063 -1.089844,1.5703125 0,1.17187505 0.878906,1.9804688 2.132812,1.9804688 1.253907,0 2.132813,-0.80859375 2.132813,-1.96875 0,-0.703125 -0.351563,-1.2421875 -1.089844,-1.5820313 z m -1.042969,-2.3203125 c 0.679688,0 1.101563,0.3984375 1.101563,1.0195313 0,0.5859375 -0.433594,0.984375 -1.101563,0.984375 -0.65625,0 -1.101562,-0.3984375 -1.101562,-0.9960938 0,-0.609375 0.445312,-1.0078125 1.101562,-1.0078125 z m 0,2.6601563 c 0.796875,0 1.335938,0.5039062 1.335938,1.2539062 0,0.75000005 -0.539063,1.2539063 -1.347656,1.2539063 -0.773438,0 -1.3125,-0.515625 -1.3125,-1.2539063 0,-0.75 0.539062,-1.2539062 1.324218,-1.2539062 z m 5.06543,0.1992187 h -2.132813 v 0.6445313 h 2.132813 z m 0.922852,-3.7382812 V 6.25e-4 h 0.679687 v -0.59765625 c 0.351563,0.5390625 0.832031,0.80859375 1.488281,0.80859375 1.230469,0 2.039063,-1.01953125 2.039063,-2.578125 0,-1.5234375 -0.773438,-2.4609375 -2.003906,-2.4609375 -0.644532,0 -1.101563,0.234375 -1.453125,0.7617187 v -2.4726562 z m 2.050781,2.4023437 c 0.84375,0 1.382812,0.7265625 1.382812,1.8515625 0,1.0664063 -0.5625,1.7929688 -1.382812,1.7929688 -0.785156,0 -1.300781,-0.7148438 -1.300781,-1.8164063 0,-1.1015625 0.515625,-1.828125 1.300781,-1.828125 z m 3.802734,-0.5625 h -0.75 V 6.25e-4 h 0.75 z m 0,-1.8398437 h -0.761719 v 0.9492187 h 0.761719 z m 2.915039,1.8398437 h -0.761719 v -1.2890625 h -0.75 v 1.2890625 h -0.632812 v 0.609375 h 0.632812 v 3.5507813 c 0,0.48046875 0.328125,0.75 0.902344,0.75 0.1875,0 0.363281,-0.0234375 0.609375,-0.0703125 v -0.62109375 c -0.09375,0.0234375 -0.210937,0.0351563 -0.351562,0.0351563 -0.328125,0 -0.410157,-0.09375 -0.410157,-0.421875 V -4.0892187 h 0.761719 z m 1.051758,6.5976563 c 0.902344,-1.171875 1.464844,-2.80078125 1.464844,-4.2070313 0,-1.4179687 -0.5625,-3.046875 -1.464844,-4.2304687 h -0.492187 c 0.785156,1.2890625 1.230468,2.7890625 1.230468,4.2304687 0,1.4179688 -0.445312,2.9414063 -1.230468,4.2070313 z m 0,0"
       style="fill:#333333;fill-opacity:1;fill-rule:nonzero;stroke:none"
       aria-label="INT8(8-bit)"
       transform="matrix(1.3333333,0,0,1.3333333,13.74,135.68667)" />
    <path
       id="path24"
       d="M 0,-8.50412 H 68.0322 V 8.50412 H 0 Z"
       style="fill:#5cb85c;fill-opacity:1;fill-rule:nonzero;stroke:#ffffff;stroke-width:0.79701;stroke-linecap:butt;stroke-linejoin:miter;stroke-miterlimit:10;stroke-dasharray:none;stroke-opacity:1"
       transform="matrix(1.3333333,0,0,-1.3333333,86.437333,132.548)" />
    <path
       id="path25"
       d="M 1.3474688,-5.0857422 H 0.7029375 V 1.953125e-4 h 0.6445313 z m 1.0839843,1.4296875 V 1.953125e-4 H 3.0173906 V -2.0154297 c 0,-0.75 0.3867188,-1.2304687 0.984375,-1.2304687 0.4570313,0 0.75,0.28125 0.75,0.7148437 V 1.953125e-4 H 5.3377031 V -2.7654297 c 0,-0.5976562 -0.4570312,-0.9960937 -1.1601562,-0.9960937 -0.5390625,0 -0.890625,0.2109375 -1.21875,0.7265625 v -0.6210938 z m 5.1533203,0 H 6.9871172 V -4.6521484 H 6.4128984 v 0.9960937 H 5.9089922 v 0.4804688 h 0.5039062 v 2.75390621 c 0,0.375 0.2460938,0.5859375 0.703125,0.5859375 0.140625,0 0.2695313,-0.0234375 0.46875,-0.046875 v -0.4921875 c -0.070312,0.0234375 -0.1640625,0.0234375 -0.28125,0.0234375 -0.2460937,0 -0.3164062,-0.0703125 -0.3164062,-0.328125 V -3.1755859 h 0.5976562 z m 3.7441406,2.0273438 c 0,-0.5625 -0.03516,-0.890625 -0.140625,-1.171875 -0.234375,-0.5976563 -0.796875,-0.9609375 -1.4765624,-0.9609375 -1.0195313,0 -1.6757813,0.7851562 -1.6757813,1.9804687 0,1.20703126 0.6328125,1.94531251 1.6523438,1.94531251 0.8437499,0 1.4179689,-0.48046875 1.5703129,-1.27734371 h -0.585938 c -0.164062,0.48046871 -0.492187,0.73828121 -0.9609374,0.73828121 -0.3632813,0 -0.6796875,-0.1640625 -0.8789063,-0.48046875 -0.140625,-0.19921876 -0.1875,-0.41015626 -0.1875,-0.77343746 z M 8.6570391,-2.1091797 c 0.046875,-0.6679687 0.4570312,-1.1132812 1.0429687,-1.1132812 0.5742192,0 1.0078122,0.4804687 1.0078122,1.078125 0,0.011719 0,0.023437 0,0.035156 z m 5.8476559,-1.546875 v 0.5273438 c -0.292968,-0.421875 -0.644531,-0.6328125 -1.113281,-0.6328125 -0.925781,0 -1.558594,0.8085937 -1.558594,1.9921875 0,0.609375 0.164063,1.08984371 0.46875,1.44140621 0.269532,0.3046875 0.65625,0.4921875 1.042969,0.4921875 0.457031,0 0.773438,-0.19921875 1.101563,-0.65625 v 0.1875 c 0,0.4921875 -0.05859,0.796875 -0.199219,0.99609375 -0.164063,0.2109375 -0.457031,0.33984374 -0.808594,0.33984374 -0.269531,0 -0.503906,-0.0703125 -0.667969,-0.19921874 -0.128906,-0.10546875 -0.1875,-0.19921875 -0.222656,-0.41015625 h -0.597656 c 0.07031,0.69140629 0.609375,1.10156249 1.464844,1.10156249 0.539062,0 1.007812,-0.1757812 1.242187,-0.46875 0.28125,-0.33984374 0.386719,-0.79687499 0.386719,-1.65234374 V -3.6560547 Z m -1.054687,0.4335938 c 0.632812,0 0.996094,0.5273437 0.996094,1.4414062 0,0.87890626 -0.375,1.40625001 -0.984375,1.40625001 -0.632813,0 -1.019532,-0.5390625 -1.019532,-1.42968751 0,-0.8671875 0.386719,-1.4179687 1.007813,-1.4179687 z m 5.633789,1.59375 c 0,-0.5625 -0.03516,-0.890625 -0.140625,-1.171875 -0.234375,-0.5976563 -0.796875,-0.9609375 -1.476563,-0.9609375 -1.019531,0 -1.675781,0.7851562 -1.675781,1.9804687 0,1.20703126 0.632813,1.94531251 1.652344,1.94531251 0.84375,0 1.417969,-0.48046875 1.570312,-1.27734371 h -0.585937 c -0.164063,0.48046871 -0.492188,0.73828121 -0.960938,0.73828121 -0.363281,0 -0.679687,-0.1640625 -0.878906,-0.48046875 -0.140625,-0.19921876 -0.1875,-0.41015626 -0.1875,-0.77343746 z m -2.671875,-0.4804688 c 0.04687,-0.6679687 0.457031,-1.1132812 1.042969,-1.1132812 0.574218,0 1.007812,0.4804687 1.007812,1.078125 0,0.011719 0,0.023437 0,0.035156 z m 3.457031,-1.546875 V 1.953125e-4 h 0.585938 V -1.8982422 c 0,-0.515625 0.128906,-0.8671875 0.410156,-1.0664062 0.1875,-0.1289063 0.351562,-0.1757813 0.761719,-0.1757813 v -0.5976562 c -0.09375,-0.011719 -0.140625,-0.023437 -0.222657,-0.023437 -0.375,0 -0.667968,0.2226562 -0.996093,0.7734375 v -0.6679688 z m 5.419922,-1.4296875 c -0.691406,0.9140625 -1.136719,2.1796875 -1.136719,3.28125 0,1.10156251 0.445313,2.36718751 1.136719,3.28125 h 0.386719 c -0.609375,-0.99609374 -0.949219,-2.16796874 -0.949219,-3.28125 0,-1.1132812 0.339844,-2.2851562 0.949219,-3.28125 z m 3.413086,2.484375 c 0.503906,-0.3046875 0.667969,-0.5625 0.667969,-1.0195312 0,-0.7734375 -0.597657,-1.3242188 -1.476563,-1.3242188 -0.878906,0 -1.488281,0.5507813 -1.488281,1.3242188 0,0.4570312 0.164062,0.703125 0.667969,1.0195312 -0.5625,0.2695313 -0.84375,0.6796875 -0.84375,1.2304688 0,0.90234371 0.679687,1.53515621 1.664062,1.53515621 0.972656,0 1.652344,-0.6328125 1.652344,-1.53515621 0,-0.5507813 -0.28125,-0.9609375 -0.84375,-1.2304688 z m -0.808594,-1.7929687 c 0.515625,0 0.855469,0.3046875 0.855469,0.7851562 0,0.4570313 -0.339844,0.7617188 -0.855469,0.7617188 -0.515625,0 -0.867187,-0.3046875 -0.867187,-0.7734375 0,-0.46875 0.351562,-0.7734375 0.867187,-0.7734375 z m 0,2.0625 c 0.609375,0 1.03125,0.3984375 1.03125,0.9726562 0,0.58593751 -0.421875,0.97265626 -1.054687,0.97265626 -0.597657,0 -1.007813,-0.3984375 -1.007813,-0.97265626 0,-0.5742187 0.410156,-0.9726562 1.03125,-0.9726562 z M 30.492,1.4767578 c 0.703125,-0.91406249 1.136719,-2.17968749 1.136719,-3.28125 0,-1.1015625 -0.433594,-2.3671875 -1.136719,-3.28125 h -0.375 c 0.609375,0.9960938 0.949219,2.1679688 0.949219,3.28125 0,1.11328126 -0.339844,2.29687501 -0.949219,3.28125 z m 0,0"
       style="fill:#ffffff;fill-opacity:1;fill-rule:nonzero;stroke:none"
       aria-label="Integer(8)"
       transform="matrix(1.3333333,0,0,1.3333333,110.344,134.93333)" />
    <path
       id="path26"
       d="M 0,-14.17339 V 99.21382"
       style="fill:none;stroke:#d9d9d9;stroke-width:0.3985;stroke-linecap:butt;stroke-linejoin:miter;stroke-miterlimit:10;stroke-dasharray:2.98883, 2.98883;stroke-dashoffset:0;stroke-opacity:1"
       transform="matrix(1.3333333,0,0,-1.3333333,86.437333,132.548)" />
    <path
       id="path27"
       d="M 272.12953,-14.17339 V 99.21382"
       style="fill:none;stroke:#d9d9d9;stroke-width:0.3985;stroke-linecap:butt;stroke-linejoin:miter;stroke-miterlimit:10;stroke-dasharray:2.98883, 2.98883;stroke-dashoffset:0;stroke-opacity:1"
       transform="matrix(1.3333333,0,0,-1.3333333,86.437333,132.548)" />
    <path
       id="path28"
       d="M 0.55198438,0.00135156 H 2.8488594 c 0.4804687,0 0.8320312,-0.12890625 1.1015625,-0.421875 0.2578125,-0.26953125 0.3984375,-0.63281246 0.3984375,-1.03124996 0,-0.609375 -0.28125,-0.984375 -0.9257813,-1.2304688 0.4570313,-0.2226562 0.703125,-0.5976562 0.703125,-1.1132812 0,-0.3632813 -0.140625,-0.6914063 -0.4101562,-0.9257813 C 3.4582344,-4.9673984 3.1066719,-5.0845859 2.6144844,-5.0845859 H 0.55198438 Z M 1.1965156,-2.8931797 v -1.6171875 h 1.2539063 c 0.3632812,0 0.5742187,0.046875 0.75,0.1875 0.1757812,0.1289063 0.2695312,0.3398438 0.2695312,0.6210938 0,0.2695312 -0.09375,0.4921875 -0.2695312,0.6328125 -0.1757813,0.1289062 -0.3867188,0.1757812 -0.75,0.1757812 z m 0,2.32031251 V -2.3189609 h 1.5820313 c 0.3164062,0 0.5273437,0.070312 0.6796875,0.2460937 0.1523437,0.1523438 0.234375,0.375 0.234375,0.6328125 0,0.2460938 -0.082031,0.46875001 -0.234375,0.62109376 -0.1523438,0.17578125 -0.3632813,0.24609375 -0.6796875,0.24609375 z M 5.6935859,-3.6548984 H 5.1193672 v 3.65624996 h 0.5742187 z m 0,-1.4296875 H 5.1076484 v 0.7382812 h 0.5859375 z m 2.2763672,1.4296875 H 7.3722969 V -4.6509922 H 6.7980781 v 0.9960938 H 6.2941719 v 0.4804687 h 0.5039062 v 2.75390626 c 0,0.375 0.2460938,0.5859375 0.703125,0.5859375 0.140625,0 0.2695313,-0.0234375 0.46875,-0.046875 v -0.4921875 c -0.070312,0.0234375 -0.1640625,0.0234375 -0.28125,0.0234375 -0.2460937,0 -0.3164062,-0.0703125 -0.3164062,-0.328125 V -3.1744297 h 0.5976562 z m 3.6357419,1.3945312 h 0.08203 l 0.257812,-0.011719 c 0.679688,0 1.03125,0.3046875 1.03125,0.9023437 0,0.62109376 -0.386719,0.98437501 -1.03125,0.98437501 -0.667969,0 -0.996094,-0.328125 -1.042969,-1.05468751 h -0.609375 c 0.02344,0.3984375 0.09375,0.65625001 0.210938,0.87890626 0.257812,0.48046875 0.75,0.7265625 1.417969,0.7265625 1.019531,0 1.675781,-0.609375 1.675781,-1.54687496 0,-0.6210938 -0.246094,-0.9726563 -0.832031,-1.171875 0.457031,-0.1875 0.691406,-0.5390625 0.691406,-1.03125 0,-0.84375 -0.574219,-1.359375 -1.511719,-1.359375 -0.996094,0 -1.523437,0.5507812 -1.546875,1.59375 h 0.609375 c 0.01172,-0.2929688 0.03516,-0.4570313 0.117188,-0.6210938 0.140625,-0.2695312 0.445312,-0.4335937 0.832031,-0.4335937 0.539062,0 0.867187,0.3164062 0.867187,0.84375 0,0.3515625 -0.128906,0.5625 -0.398437,0.6679687 -0.164063,0.070312 -0.386719,0.09375 -0.820313,0.1054688 z m 4.145508,-1.2539062 v 3.51562496 h 0.609375 V -4.9439609 h -0.398437 c -0.210938,0.7617187 -0.351563,0.8671875 -1.300782,0.984375 v 0.4453125 z m 3.667969,-1.5703125 -1.652344,5.22656246 h 0.386719 l 1.652344,-5.22656246 z m 2.150391,1.5703125 v 3.51562496 h 0.609375 V -4.9439609 H 21.7805 c -0.210937,0.7617187 -0.351562,0.8671875 -1.300781,0.984375 v 0.4453125 z m 5.387695,-1.4296875 H 24.40257 l -0.363281,2.6953125 h 0.5625 c 0.292969,-0.3398438 0.527344,-0.4570313 0.902344,-0.4570313 0.667969,0 1.089844,0.4453125 1.089844,1.1835938 0,0.70312496 -0.410157,1.13671871 -1.089844,1.13671871 -0.527344,0 -0.855469,-0.26953125 -1.007813,-0.83203121 h -0.609375 c 0.08203,0.41015621 0.152344,0.60937496 0.292969,0.78515621 0.28125,0.375 0.785156,0.59765625 1.347656,0.59765625 0.996094,0 1.6875,-0.7265625 1.6875,-1.76953126 0,-0.984375 -0.644531,-1.6523437 -1.59375,-1.6523437 -0.351562,0 -0.632812,0.09375 -0.914062,0.3046875 l 0.199219,-1.3828125 h 2.050781 z m 2.15625,-0.140625 -1.652344,5.22656246 h 0.386719 l 1.652344,-5.22656246 z m 3.963867,0.140625 h -3.304687 v 0.609375 h 2.671875 c -1.171875,1.6757812 -1.652344,2.7070312 -2.027344,4.33593746 h 0.65625 C 31.343,-1.5806797 31.964094,-2.9400547 33.077375,-4.4283359 Z m 0,0"
       style="fill:#808080;fill-opacity:1;fill-rule:nonzero;stroke:none"
       aria-label="Bit31/15/7"
       transform="matrix(1.3333333,0,0,1.3333333,64.209333,162.97867)" />
    <path
       id="path29"
       d="M 0.55134375,0.00121875 H 2.8482188 c 0.4804687,0 0.8320312,-0.12890625 1.1015625,-0.421875 0.2578125,-0.26953125 0.3984375,-0.63281255 0.3984375,-1.03125005 0,-0.609375 -0.28125,-0.984375 -0.9257813,-1.2304687 0.4570313,-0.2226563 0.703125,-0.5976563 0.703125,-1.1132813 0,-0.3632812 -0.140625,-0.6914062 -0.4101562,-0.9257812 C 3.4575938,-4.9675313 3.1060313,-5.0847188 2.6138438,-5.0847188 H 0.55134375 Z M 1.195875,-2.8933125 V -4.5105 h 1.2539063 c 0.3632812,0 0.5742187,0.046875 0.75,0.1875 0.1757812,0.1289062 0.2695312,0.3398437 0.2695312,0.6210937 0,0.2695313 -0.09375,0.4921875 -0.2695312,0.6328125 -0.1757813,0.1289063 -0.3867188,0.1757813 -0.75,0.1757813 z m 0,2.3203125 v -1.7460938 h 1.5820313 c 0.3164062,0 0.5273437,0.070312 0.6796875,0.2460938 0.1523437,0.1523437 0.234375,0.375 0.234375,0.6328125 0,0.2460937 -0.082031,0.46875 -0.234375,0.62109375 C 3.30525,-0.6433125 3.0943125,-0.573 2.7779063,-0.573 Z m 4.5,-3.0820313 H 5.1216563 V 0.00121875 H 5.695875 Z m 0,-1.4296875 H 5.1099375 v 0.7382813 H 5.695875 Z m 2.2734375,1.4296875 H 7.3716563 V -4.651125 H 6.7974375 v 0.9960937 H 6.2935313 v 0.4804688 h 0.5039062 v 2.75390625 c 0,0.375 0.2460938,0.5859375 0.703125,0.5859375 0.140625,0 0.2695313,-0.0234375 0.46875,-0.046875 v -0.4921875 c -0.070312,0.0234375 -0.1640625,0.0234375 -0.28125,0.0234375 -0.2460937,0 -0.3164062,-0.0703125 -0.3164062,-0.328125 V -3.1745625 h 0.5976562 z m 4.0283205,-1.2890625 c -0.46875,0 -0.878906,0.1992188 -1.136719,0.5507813 -0.328125,0.421875 -0.480469,1.0898437 -0.480469,2.0039062 0,1.66406255 0.550782,2.55468755 1.617188,2.55468755 1.042969,0 1.617187,-0.890625 1.617187,-2.51953125 0,-0.9609375 -0.152343,-1.59375 -0.480468,-2.0390625 -0.257813,-0.3515625 -0.679688,-0.5507813 -1.136719,-0.5507813 z m 0,0.5507813 c 0.65625,0 0.984375,0.6679687 0.984375,1.9921875 0,1.3945312 -0.316406,2.05078125 -1.007813,2.05078125 -0.644531,0 -0.972656,-0.67968755 -0.972656,-2.02734375 0,-1.359375 0.328125,-2.015625 0.996094,-2.015625 z m 0,0"
       style="fill:#808080;fill-opacity:1;fill-rule:nonzero;stroke:none"
       aria-label="Bit0"
       transform="matrix(1.3333333,0,0,1.3333333,439.968,162.764)" />
  </g>
</svg>
