<?xml version="1.0" encoding="UTF-8" standalone="no"?>
<!-- Created with Inkscape (http://www.inkscape.org/) -->

<svg
   version="1.1"
   id="svg1"
   width="331.20801"
   height="165.90134"
   viewBox="0 0 331.20801 165.90134"
   xmlns="http://www.w3.org/2000/svg"
   xmlns:svg="http://www.w3.org/2000/svg">
  <defs
     id="defs1" />
  <g
     id="g1">
    <path
       id="path1"
       d="M 0,0 H 75.11885 C 75.11885,41.48752 41.48752,75.11885 0,75.11885 -41.48752,75.11885 -75.11885,41.48752 -75.11885,0 c 0,-15.85683 5.0262,-31.32053 14.34499,-44.14905 z"
       style="fill:#98d286;fill-opacity:1;fill-rule:nonzero;stroke:none"
       transform="matrix(1.0666667,0,0,-1.0666667,80.125867,80.1264)" />
    <path
       id="path2"
       d="m 4.466123,-4.7023184 c -0.1611328,-1.040039 -0.8349609,-1.6552734 -1.8017578,-1.6552734 -0.703125,0 -1.3330078,0.3369141 -1.71386715,0.9082031 -0.38085938,0.6152344 -0.57128907,1.3916016 -0.57128907,2.5488282 0,1.0693359 0.16113282,1.7578125 0.54199219,2.31445308 0.33691403,0.51269531 0.89355473,0.79101562 1.59667973,0.79101562 1.2158203,0 2.0800781,-0.89355468 2.0800781,-2.1386719 0,-1.1865234 -0.8056641,-2.0214843 -1.9482422,-2.0214843 -0.6298828,0 -1.1132813,0.2490234 -1.4648438,0.703125 0.014648,-1.538086 0.5126954,-2.4023438 1.4208985,-2.4023438 0.5566406,0 0.9375,0.3515625 1.0693359,0.9521484 z M 2.5471777,-3.252123 c 0.7617188,0 1.2451172,0.5273437 1.2451172,1.3769531 0,0.805664 -0.5419922,1.3769531 -1.2597656,1.3769531 -0.7470703,0 -1.3037109,-0.6005859 -1.3037109,-1.4208984 0,-0.7910157 0.5419921,-1.3330078 1.3183593,-1.3330078 z m 4.8999024,-3.1054688 c -0.5859375,0 -1.1279297,0.2636719 -1.4501953,0.703125 -0.4248047,0.5566406 -0.6298828,1.40625 -0.6298828,2.578125 0,2.13867188 0.7177734,3.28125 2.0800781,3.28125 1.3476562,0 2.0800781,-1.14257812 2.0800781,-3.2226562 0,-1.2451172 -0.1904297,-2.0654297 -0.6152344,-2.6367188 -0.336914,-0.4541016 -0.8642578,-0.703125 -1.4648437,-0.703125 z m 0,0.703125 c 0.8496094,0 1.274414,0.8642578 1.274414,2.5634766 0,1.8017578 -0.4101562,2.63671872 -1.2890625,2.63671872 -0.8349609,0 -1.2597656,-0.87890622 -1.2597656,-2.60742192 0,-1.743164 0.4248047,-2.5927734 1.2744141,-2.5927734 z m 4.3103029,-0.4833984 c -0.834961,0 -1.523438,0.6884765 -1.523438,1.5234375 0,0.8496093 0.688477,1.5380859 1.523438,1.5380859 0.834961,0 1.523437,-0.6884766 1.523437,-1.5087891 0,-0.8789062 -0.659179,-1.5527343 -1.523437,-1.5527343 z m 0,0.6298828 c 0.512695,0 0.908203,0.3955078 0.908203,0.9082031 0,0.4980469 -0.410156,0.8935547 -0.908203,0.8935547 -0.498047,0 -0.908203,-0.4101563 -0.908203,-0.9082031 0,-0.4980469 0.410156,-0.8935547 0.908203,-0.8935547 z m 3.676758,-0.8496094 -3.544922,6.53320313 h 0.585937 l 3.544922,-6.53320313 z m 0.703125,3.4716797 c -0.834961,0 -1.523438,0.6884766 -1.523438,1.5234375 0,0.84960937 0.688477,1.53808593 1.538086,1.53808593 0.820313,0 1.523438,-0.68847656 1.523438,-1.52343753 0,-0.8642578 -0.673829,-1.5380859 -1.538086,-1.5380859 z m 0,0.6298828 c 0.512695,0 0.908203,0.3955078 0.908203,0.9082031 0,0.48339847 -0.410157,0.89355472 -0.893555,0.89355472 -0.512695,0 -0.922852,-0.41015625 -0.922852,-0.90820312 0,-0.4980469 0.410157,-0.8935547 0.908204,-0.8935547 z m 0,0"
       style="fill:#000000;fill-opacity:1;fill-rule:nonzero;stroke:none"
       aria-label="60%"
       transform="matrix(1.0666667,0,0,1.0666667,63.130667,60.5744)" />
    <path
       id="path3"
       d="m 0,0 -60.77373,-44.14871 c 18.10572,-24.92461 49.61081,-36.26649 79.44927,-28.60744 z"
       style="fill:#fa4c3d;fill-opacity:1;fill-rule:nonzero;stroke:none"
       transform="matrix(1.0666667,0,0,-1.0666667,80.125867,80.1264)" />
    <path
       id="path4"
       d="M 2.3284102,-4.5252285 V 0.00113867 H 3.1047773 V -6.3562832 H 2.592082 C 2.3137617,-5.3748379 2.1379805,-5.243002 0.90751172,-5.0965176 v 0.5712891 z m 3.1274414,3.0761719 c 0.1611328,1.04003902 0.8349609,1.6552734 1.8017578,1.6552734 0.703125,0 1.3476562,-0.33691407 1.7138672,-0.90820313 0.3955078,-0.61523437 0.5859375,-1.39160157 0.5859375,-2.54882817 0,-1.0693359 -0.1757813,-1.743164 -0.5419922,-2.3144531 -0.3515625,-0.5126953 -0.9082031,-0.7910156 -1.6113281,-0.7910156 -1.2011719,0 -2.0800782,0.8935547 -2.0800782,2.1386719 0,1.1865234 0.8056641,2.0214843 1.9628907,2.0214843 0.6005859,0 1.040039,-0.2197265 1.4501953,-0.703125 -0.014649,1.5527344 -0.5126953,2.4023438 -1.4208985,2.4023438 -0.5566406,0 -0.9375,-0.3515625 -1.0693359,-0.9521484 z m 1.9482422,-4.21875 c 0.7324218,0 1.2890625,0.6152343 1.2890625,1.4355468 0,0.7763672 -0.5566407,1.3330078 -1.3183594,1.3330078 -0.7617188,0 -1.2451172,-0.5273437 -1.2451172,-1.3769531 0,-0.805664 0.5419922,-1.3916015 1.2744141,-1.3916015 z m 4.3542482,-0.46875 c -0.834961,0 -1.523438,0.6884765 -1.523438,1.5234375 0,0.8496093 0.688477,1.5380859 1.523438,1.5380859 0.834961,0 1.523437,-0.6884766 1.523437,-1.5087891 0,-0.8789062 -0.659179,-1.5527343 -1.523437,-1.5527343 z m 0,0.6298828 c 0.512695,0 0.908203,0.3955078 0.908203,0.9082031 0,0.4980469 -0.410156,0.8935547 -0.908203,0.8935547 -0.498047,0 -0.908203,-0.4101563 -0.908203,-0.9082031 0,-0.4980469 0.410156,-0.8935547 0.908203,-0.8935547 z M 15.4351,-6.3562832 11.890178,0.17691992 h 0.585937 l 3.544922,-6.53320312 z m 0.703125,3.4716797 c -0.834961,0 -1.523438,0.6884765 -1.523438,1.5234375 0,0.84960936 0.688477,1.53808592 1.538086,1.53808592 0.820313,0 1.523438,-0.68847656 1.523438,-1.52343752 0,-0.8642578 -0.673829,-1.5380859 -1.538086,-1.5380859 z m 0,0.6298828 c 0.512695,0 0.908203,0.3955078 0.908203,0.9082031 0,0.48339846 -0.410157,0.89355471 -0.893555,0.89355471 -0.512695,0 -0.922852,-0.41015625 -0.922852,-0.90820311 0,-0.4980469 0.410157,-0.8935547 0.908204,-0.8935547 z m 0,0"
       style="fill:#000000;fill-opacity:1;fill-rule:nonzero;stroke:none"
       aria-label="19%"
       transform="matrix(1.0666667,0,0,1.0666667,53.1648,131.73707)" />
    <path
       id="path5"
       d="m 0,0 18.67525,-72.75635 c 13.80279,3.54183 26.32187,10.9453 36.07736,21.33237 z"
       style="fill:#ff9d23;fill-opacity:1;fill-rule:nonzero;stroke:none"
       transform="matrix(1.0666667,0,0,-1.0666667,80.125867,80.1264)" />
    <path
       id="path6"
       d="m 0.46983984,-1.4508223 c 0.16113282,1.0400391 0.83496096,1.65527347 1.80175786,1.65527347 0.703125,0 1.3476562,-0.33691406 1.7138671,-0.90820312 0.3955079,-0.61523435 0.5859375,-1.39160155 0.5859375,-2.54882815 0,-1.0693359 -0.1757812,-1.743164 -0.5419921,-2.3144531 C 3.6778477,-6.0797285 3.121207,-6.3580488 2.418082,-6.3580488 c -1.2011718,0 -2.08007809,0.8935547 -2.08007809,2.1386718 0,1.1865235 0.80566409,2.0214844 1.96289059,2.0214844 0.600586,0 1.0400391,-0.2197265 1.4501953,-0.703125 -0.014648,1.5527344 -0.5126953,2.40234377 -1.4208984,2.40234377 -0.5566406,0 -0.9375,-0.3515625 -1.0693359,-0.95214847 z m 1.94824216,-4.21875 c 0.7324219,0 1.2890625,0.6152344 1.2890625,1.4355469 0,0.7763672 -0.5566406,1.3330078 -1.3183593,1.3330078 -0.7617188,0 -1.2451172,-0.5273437 -1.2451172,-1.3769531 0,-0.8056641 0.5419922,-1.3916016 1.274414,-1.3916016 z m 4.3542481,-0.46875 c -0.834961,0 -1.5234375,0.6884766 -1.5234375,1.5234375 0,0.8496094 0.6884765,1.538086 1.5234375,1.538086 0.8349609,0 1.5234375,-0.6884766 1.5234375,-1.5087891 0,-0.8789062 -0.6591797,-1.5527344 -1.5234375,-1.5527344 z m 0,0.6298828 c 0.5126953,0 0.9082031,0.3955079 0.9082031,0.9082032 0,0.4980468 -0.4101562,0.8935547 -0.9082031,0.8935547 -0.4980469,0 -0.9082031,-0.4101563 -0.9082031,-0.9082032 0,-0.4980468 0.4101562,-0.8935547 0.9082031,-0.8935547 z M 10.449088,-6.3580488 6.904166,0.1751543 h 0.5859375 l 3.5449215,-6.5332031 z m 0.703125,3.4716797 c -0.834961,0 -1.5234376,0.6884765 -1.5234376,1.5234375 0,0.84960933 0.6884766,1.5380859 1.5380856,1.5380859 0.820313,0 1.523438,-0.68847657 1.523438,-1.5234375 0,-0.8642578 -0.673828,-1.5380859 -1.538086,-1.5380859 z m 0,0.6298828 c 0.512695,0 0.908203,0.3955078 0.908203,0.9082031 0,0.48339843 -0.410156,0.89355468 -0.893555,0.89355468 -0.512695,0 -0.922851,-0.41015625 -0.922851,-0.90820308 0,-0.4980469 0.410156,-0.8935547 0.908203,-0.8935547 z m 0,0"
       style="fill:#000000;fill-opacity:1;fill-rule:nonzero;stroke:none"
       aria-label="9%"
       transform="matrix(1.0666667,0,0,1.0666667,103.3504,134.3952)" />
    <path
       id="path7"
       d="m 0,0 54.75238,-51.424 c 5.39298,5.74256 9.85866,12.31044 13.21251,19.43879 z"
       style="fill:#3381b9;fill-opacity:1;fill-rule:nonzero;stroke:none"
       transform="matrix(1.0666667,0,0,-1.0666667,80.125867,80.1264)" />
    <path
       id="path8"
       d="M 4.2621172,-6.3558203 H 0.98086719 l -0.46875,3.4570312 H 1.2298906 c 0.3808594,-0.4394531 0.6738281,-0.5859375 1.171875,-0.5859375 0.8496094,0 1.3916016,0.5859375 1.3916016,1.5234375 0,0.9082032 -0.5273438,1.46484379 -1.3916016,1.46484379 -0.6884765,0 -1.1132812,-0.3515625 -1.3037109,-1.05468749 H 0.30703906 c 0.1171875,0.5126953 0.20507813,0.76171874 0.39550781,0.99609374 0.35156253,0.48339844 0.99609373,0.76171875 1.71386723,0.76171875 1.2890625,0 2.1826171,-0.9375 2.1826171,-2.27050779 0,-1.2597656 -0.8349609,-2.1240235 -2.0507812,-2.1240235 -0.4541016,0 -0.8056641,0.1171875 -1.171875,0.3955079 l 0.2490234,-1.7871094 h 2.6367188 z m 2.5085449,0.2197266 c -0.8349609,0 -1.5234375,0.6884765 -1.5234375,1.5234375 0,0.8496093 0.6884766,1.5380859 1.5234375,1.5380859 0.8349609,0 1.5234375,-0.6884766 1.5234375,-1.5087891 0,-0.8789062 -0.6591797,-1.5527343 -1.5234375,-1.5527343 z m 0,0.6298828 c 0.5126953,0 0.9082031,0.3955078 0.9082031,0.9082031 0,0.4980469 -0.4101562,0.8935547 -0.9082031,0.8935547 -0.4980469,0 -0.9082031,-0.4101563 -0.9082031,-0.9082031 0,-0.4980469 0.4101562,-0.8935547 0.9082031,-0.8935547 z M 10.44742,-6.3558203 6.902498,0.17738281 H 7.4884355 L 11.033357,-6.3558203 Z m 0.703125,3.4716797 c -0.834961,0 -1.5234376,0.6884765 -1.5234376,1.5234375 0,0.84960935 0.6884766,1.53808591 1.5380856,1.53808591 0.820313,0 1.523438,-0.68847656 1.523438,-1.52343751 0,-0.8642578 -0.673828,-1.5380859 -1.538086,-1.5380859 z m 0,0.6298828 c 0.512695,0 0.908203,0.3955078 0.908203,0.9082031 0,0.48339845 -0.410156,0.8935547 -0.893555,0.8935547 -0.512695,0 -0.922851,-0.41015625 -0.922851,-0.9082031 0,-0.4980469 0.410156,-0.8935547 0.908203,-0.8935547 z m 0,0"
       style="fill:#000000;fill-opacity:1;fill-rule:nonzero;stroke:none"
       aria-label="5%"
       transform="matrix(1.0666667,0,0,1.0666667,124.78187,118.48267)" />
    <path
       id="path9"
       d="m 0,0 67.96512,-31.9853 c 2.681,5.69787 4.63876,11.71784 5.81936,17.904 z"
       style="fill:#ffd24c;fill-opacity:1;fill-rule:nonzero;stroke:none"
       transform="matrix(1.0666667,0,0,-1.0666667,80.125867,80.1264)" />
    <path
       id="path10"
       d="M 2.9285488,-1.5240449 V -6.0742187e-4 H 3.7195645 V -1.5240449 h 0.9375 v -0.703125 h -0.9375 V -6.3580293 H 3.133627 l -2.88574223,3.9990234 v 0.834961 z m 0,-0.703125 H 0.93636133 L 2.9285488,-5.010373 Z m 3.8452149,-3.9111328 c -0.834961,0 -1.5234375,0.6884765 -1.5234375,1.5234375 0,0.8496093 0.6884765,1.5380859 1.5234375,1.5380859 0.8349609,0 1.5234375,-0.6884766 1.5234375,-1.5087891 0,-0.8789062 -0.6591797,-1.5527343 -1.5234375,-1.5527343 z m 0,0.6298828 c 0.5126953,0 0.9082031,0.3955078 0.9082031,0.9082031 0,0.4980469 -0.4101563,0.8935547 -0.9082031,0.8935547 -0.4980469,0 -0.9082032,-0.4101563 -0.9082032,-0.9082031 0,-0.4980469 0.4101563,-0.8935547 0.9082032,-0.8935547 z M 10.450521,-6.3580293 6.9055996,0.17517383 H 7.4915371 L 11.036459,-6.3580293 Z m 0.703125,3.4716797 c -0.83496,0 -1.523437,0.6884766 -1.523437,1.5234375 0,0.84960937 0.688477,1.53808593 1.538086,1.53808593 0.820312,0 1.523437,-0.68847656 1.523437,-1.52343753 0,-0.8642578 -0.673828,-1.5380859 -1.538086,-1.5380859 z m 0,0.6298828 c 0.512696,0 0.908204,0.3955078 0.908204,0.9082031 0,0.48339847 -0.410157,0.89355472 -0.893555,0.89355472 -0.512695,0 -0.922852,-0.41015625 -0.922852,-0.90820312 0,-0.4980469 0.410157,-0.8935547 0.908203,-0.8935547 z m 0,0"
       style="fill:#000000;fill-opacity:1;fill-rule:nonzero;stroke:none"
       aria-label="4%"
       transform="matrix(1.0666667,0,0,1.0666667,133.26293,102.94987)" />
    <path
       id="path11"
       d="M 0,0 73.78448,-14.08127 C 74.66936,-9.4425 75.1187,-4.72351 75.1187,5e-5 Z"
       style="fill:#b26cba;fill-opacity:1;fill-rule:nonzero;stroke:none"
       transform="matrix(1.0666667,0,0,-1.0666667,80.125867,80.1264)" />
    <path
       id="path12"
       d="M 1.9758789,-2.9142344 H 2.078418 l 0.336914,-0.014648 c 0.8642578,0 1.3183594,0.3955078 1.3183594,1.1572266 0,0.80566401 -0.4980469,1.27441401 -1.3183594,1.27441401 -0.8642578,0 -1.2890625,-0.42480468 -1.3476562,-1.34765621 H 0.29130859 c 0.0292969,0.5126953 0.1171875,0.8349609 0.27832032,1.12792965 0.32226562,0.61523438 0.93749999,0.92285156 1.81640629,0.92285156 1.3037109,0 2.1533203,-0.77636718 2.1533203,-1.97753901 0,-0.8056641 -0.3222657,-1.2597657 -1.0839844,-1.5234375 0.6005859,-0.234375 0.8935547,-0.6738282 0.8935547,-1.3183594 0,-1.0839844 -0.7324219,-1.7431641 -1.9335938,-1.7431641 -1.2890625,0 -1.96289059,0.703125 -1.99218747,2.0507813 H 1.2141602 c 0,-0.3808594 0.043945,-0.600586 0.1318359,-0.7910157 0.1904297,-0.3515625 0.5859375,-0.571289 1.0693359,-0.571289 0.703125,0 1.1279297,0.4101562 1.1279297,1.0839844 0,0.4541015 -0.1611328,0.7177734 -0.5126953,0.8642578 -0.2197266,0.087891 -0.4980469,0.1318359 -1.0546875,0.1318359 z m 4.7973633,-3.2226562 c -0.8349609,0 -1.5234375,0.6884765 -1.5234375,1.5234375 0,0.8496094 0.6884766,1.5380859 1.5234375,1.5380859 0.8349609,0 1.5234375,-0.6884765 1.5234375,-1.508789 0,-0.8789063 -0.6591797,-1.5527344 -1.5234375,-1.5527344 z m 0,0.6298828 c 0.5126953,0 0.9082031,0.3955078 0.9082031,0.9082031 0,0.4980469 -0.4101562,0.8935547 -0.9082031,0.8935547 -0.4980469,0 -0.9082031,-0.4101562 -0.9082031,-0.9082031 0,-0.4980469 0.4101562,-0.8935547 0.9082031,-0.8935547 z M 10.45,-6.3566172 6.9050781,0.17658594 H 7.4910156 L 11.035938,-6.3566172 Z m 0.703125,3.4716797 c -0.834961,0 -1.5234375,0.6884766 -1.5234375,1.5234375 0,0.84960938 0.6884765,1.53808594 1.5380855,1.53808594 0.820313,0 1.523438,-0.68847656 1.523438,-1.52343754 0,-0.8642578 -0.673828,-1.5380859 -1.538086,-1.5380859 z m 0,0.6298828 c 0.512695,0 0.908203,0.3955078 0.908203,0.9082031 0,0.48339848 -0.410156,0.89355473 -0.893555,0.89355473 -0.512695,0 -0.922851,-0.41015625 -0.922851,-0.90820313 0,-0.4980469 0.410156,-0.8935547 0.908203,-0.8935547 z m 0,0"
       style="fill:#000000;fill-opacity:1;fill-rule:nonzero;stroke:none"
       aria-label="3%"
       transform="matrix(1.0666667,0,0,1.0666667,136.85333,89.452267)" />
    <path
       id="path13"
       d="m 124.68452,42.2652 c 0,3.89113 -3.15432,7.04545 -7.04545,7.04545 -3.89113,0 -7.04544,-3.15432 -7.04544,-7.04545 0,-3.89113 3.15431,-7.04544 7.04544,-7.04544 3.89113,0 7.04545,3.15431 7.04545,7.04544 z"
       style="fill:#98d286;fill-opacity:1;fill-rule:nonzero;stroke:none"
       transform="matrix(1.0666667,0,0,-1.0666667,80.125867,80.1264)" />
    <path
       id="path14"
       d="M 5.275166,-4.0149316 C 5.040791,-5.2893457 4.3083691,-5.9045801 3.0339551,-5.9045801 c -0.7763672,0 -1.40625,0.2490235 -1.8310547,0.7177735 -0.52734376,0.5859375 -0.82031251,1.40625 -0.82031251,2.34375 0,0.9667968 0.29296875,1.7871093 0.84960941,2.34374996 0.4394531,0.46875 1.0107422,0.68847656 1.7724609,0.68847656 1.4208984,0 2.2119141,-0.77636719 2.3876953,-2.31445312 H 4.6306348 c -0.058594,0.3955078 -0.1464844,0.6738281 -0.2636719,0.9082031 -0.234375,0.46875002 -0.7324219,0.74707033 -1.3476563,0.74707033 -1.1572265,0 -1.8896484,-0.92285153 -1.8896484,-2.37304683 0,-1.4941407 0.703125,-2.4169922 1.8164063,-2.4169922 0.46875,0 0.9082031,0.1464843 1.1572265,0.3808593 0.2050781,0.1904297 0.3222656,0.4394532 0.4101563,0.8642579 z M 6.9707227,-5.8166895 H 6.2968945 v 5.81542973 h 0.6738282 z m 4.6398923,3.9550782 c 0,-0.6445313 -0.04394,-1.0253907 -0.161133,-1.3330078 -0.27832,-0.6884766 -0.908203,-1.0986329 -1.6992183,-1.0986329 -1.1572266,0 -1.9042969,0.8935547 -1.9042969,2.2558594 0,1.37695315 0.7177734,2.22656252 1.8896484,2.22656252 0.9667968,0 1.6259768,-0.54199219 1.7871098,-1.45019532 h -0.673829 c -0.175781,0.5419922 -0.55664,0.83496095 -1.0839839,0.83496095 -0.4248047,0 -0.7763672,-0.19042969 -1.0107422,-0.54199219 C 8.5930371,-1.2170801 8.5490918,-1.4514551 8.5344434,-1.8616113 Z M 8.5490918,-2.4036035 c 0.058594,-0.7763672 0.5273437,-1.2744141 1.2011719,-1.2744141 0.6445313,0 1.1572263,0.5419922 1.1572263,1.2158203 0,0.029297 0,0.043945 -0.01465,0.058594 z m 7.6684572,2.00683592 c -0.07324,0.0146484 -0.102539,0.0146484 -0.146485,0.0146484 -0.234375,0 -0.351562,-0.1171875 -0.351562,-0.32226563 V -3.1506738 c 0,-0.7470703 -0.541992,-1.1425782 -1.567383,-1.1425782 -0.615234,0 -1.113281,0.1757813 -1.391601,0.4833985 -0.19043,0.2197265 -0.278321,0.4541015 -0.292969,0.8642578 h 0.673828 c 0.05859,-0.5126953 0.366211,-0.7324219 0.981445,-0.7324219 0.600586,0 0.9375,0.2197266 0.9375,0.6152344 v 0.1757812 c 0,0.2783204 -0.175781,0.3955079 -0.703125,0.46875 -0.9375,0.1171875 -1.083984,0.1464844 -1.333008,0.2490235 -0.483398,0.2050781 -0.732421,0.571289 -0.732421,1.1132812 0,0.76171878 0.527343,1.24511722 1.362304,1.24511722 0.527344,0 0.952149,-0.19042969 1.420899,-0.61523437 0.05859,0.41015625 0.263672,0.61523437 0.688476,0.61523437 0.131836,0 0.234375,-0.0292969 0.454102,-0.0732422 z M 15.060322,-1.3196191 c 0,0.2197265 -0.07324,0.3662109 -0.263672,0.54199215 -0.27832,0.24902343 -0.600586,0.38085937 -0.996093,0.38085937 -0.512696,0 -0.820313,-0.24902344 -0.820313,-0.67382812 0,-0.4394531 0.292969,-0.6591797 1.010742,-0.7617188 0.703125,-0.102539 0.834961,-0.1318359 1.069336,-0.234375 z m 1.882324,-2.8564454 v 4.17480473 h 0.673829 V -2.3010645 c 0,-0.8496093 0.439453,-1.4208984 1.127929,-1.4208984 0.527344,0 0.864258,0.3222656 0.864258,0.8349609 v 2.88574223 h 0.65918 V -3.1506738 c 0,-0.703125 -0.512696,-1.1425782 -1.31836,-1.1425782 -0.629882,0 -1.02539,0.234375 -1.391601,0.8203125 v -0.703125 z m 5.075684,0 h -0.673828 v 4.17480473 h 0.673828 z m 0,-1.640625 h -0.673828 v 0.8496094 h 0.673828 z m 1.124268,1.640625 v 4.17480473 h 0.673828 V -2.3010645 c 0,-0.8496093 0.439453,-1.4208984 1.127929,-1.4208984 0.527344,0 0.864258,0.3222656 0.864258,0.8349609 v 2.88574223 h 0.65918 V -3.1506738 c 0,-0.703125 -0.512695,-1.1425782 -1.318359,-1.1425782 -0.629883,0 -1.025391,0.234375 -1.391602,0.8203125 v -0.703125 z m 7.155761,0 v 0.600586 C 29.961445,-4.058877 29.565937,-4.293252 29.023945,-4.293252 c -1.054687,0 -1.772461,0.9228516 -1.772461,2.2705079 0,0.6884765 0.175782,1.24511715 0.527344,1.64062496 0.307617,0.3515625 0.74707,0.57128906 1.186524,0.57128906 0.527343,0 0.893554,-0.234375 1.274414,-0.76171875 v 0.21972656 c 0,0.57128907 -0.07324,0.90820313 -0.249024,1.14257813 -0.175781,0.24902344 -0.512695,0.39550784 -0.922851,0.39550784 -0.292969,0 -0.571289,-0.087891 -0.747071,-0.23437503 -0.161133,-0.1171875 -0.219726,-0.21972656 -0.263672,-0.46875 H 27.38332 c 0.07324,0.77636723 0.688477,1.25976563 1.669922,1.25976563 0.615235,0 1.157227,-0.2050781 1.420899,-0.5419922 0.322265,-0.38085937 0.439453,-0.90820312 0.439453,-1.88964843 V -4.1760645 Z m -1.201172,0.4980469 c 0.717774,0 1.142579,0.600586 1.142579,1.640625 0,0.9960938 -0.439454,1.61132815 -1.12793,1.61132815 -0.732422,0 -1.171875,-0.61523435 -1.171875,-1.62597655 0,-1.0107422 0.454101,-1.6259766 1.157226,-1.6259766 z m 8.822022,3.28125002 c -0.07324,0.0146484 -0.102539,0.0146484 -0.146484,0.0146484 -0.234375,0 -0.351563,-0.1171875 -0.351563,-0.32226563 V -3.1506738 c 0,-0.7470703 -0.541992,-1.1425782 -1.567383,-1.1425782 -0.615234,0 -1.113281,0.1757813 -1.391601,0.4833985 -0.19043,0.2197265 -0.278321,0.4541015 -0.292969,0.8642578 h 0.673828 c 0.05859,-0.5126953 0.366211,-0.7324219 0.981445,-0.7324219 0.600586,0 0.9375,0.2197266 0.9375,0.6152344 v 0.1757812 c 0,0.2783204 -0.175781,0.3955079 -0.703125,0.46875 -0.9375,0.1171875 -1.083984,0.1464844 -1.333007,0.2490235 -0.483399,0.2050781 -0.732422,0.571289 -0.732422,1.1132812 0,0.76171878 0.527343,1.24511722 1.362304,1.24511722 0.527344,0 0.952149,-0.19042969 1.420899,-0.61523437 0.05859,0.41015625 0.263672,0.61523437 0.688476,0.61523437 0.131836,0 0.234375,-0.0292969 0.454102,-0.0732422 z M 36.761982,-1.3196191 c 0,0.2197265 -0.07324,0.3662109 -0.263671,0.54199215 -0.278321,0.24902343 -0.600586,0.38085937 -0.996094,0.38085937 -0.512696,0 -0.820313,-0.24902344 -0.820313,-0.67382812 0,-0.4394531 0.292969,-0.6591797 1.010742,-0.7617188 0.703125,-0.102539 0.834961,-0.1318359 1.069336,-0.234375 z m 1.882325,-2.8564454 v 4.17480473 h 0.673828 V -2.3010645 c 0,-0.8496093 0.439453,-1.4208984 1.127929,-1.4208984 0.527344,0 0.864258,0.3222656 0.864258,0.8349609 v 2.88574223 h 0.65918 V -3.1506738 c 0,-0.703125 -0.512695,-1.1425782 -1.318359,-1.1425782 -0.629883,0 -1.025391,0.234375 -1.391602,0.8203125 v -0.703125 z m 7.814941,-1.640625 h -0.65918 v 2.1679688 c -0.27832,-0.4248047 -0.717773,-0.6445313 -1.274414,-0.6445313 -1.083984,0 -1.801758,0.8642579 -1.801758,2.1972657 0,1.40624997 0.688477,2.28515622 1.816407,2.28515622 0.571289,0 0.981445,-0.21972656 1.333008,-0.74707031 v 0.55664062 h 0.585937 z m -1.831055,2.1386719 c 0.717774,0 1.171875,0.6445313 1.171875,1.640625 0,0.9667969 -0.454101,1.59667971 -1.157226,1.59667971 -0.732422,0 -1.230469,-0.64453121 -1.230469,-1.61132811 0,-0.9814453 0.498047,-1.6259766 1.21582,-1.6259766 z m 6.708985,-0.6152344 c -1.171875,0 -1.875,0.834961 -1.875,2.241211 0,1.39160155 0.688476,2.24121092 1.889648,2.24121092 1.157227,0 1.875,-0.84960937 1.875,-2.21191402 0,-1.4501954 -0.688476,-2.2705079 -1.889648,-2.2705079 z m 0.01465,0.6152344 c 0.74707,0 1.186524,0.6152344 1.186524,1.640625 0,0.9814453 -0.454102,1.61132815 -1.186524,1.61132815 -0.74707,0 -1.201172,-0.61523435 -1.201172,-1.62597655 0,-1.0107422 0.454102,-1.6259766 1.201172,-1.6259766 z m 2.805176,-0.4980469 v 4.17480473 h 0.65918 V -2.1692285 c 0,-0.600586 0.161132,-0.9814453 0.46875,-1.2158203 0.205078,-0.1611328 0.410156,-0.2050782 0.878906,-0.2050782 v -0.6884765 c -0.117188,-0.014648 -0.175781,-0.014648 -0.263672,-0.014648 -0.424805,0 -0.74707,0.2490235 -1.142578,0.8789063 V -4.176064 Z m 5.375977,0 v 0.600586 C 59.196064,-4.058877 58.800557,-4.293252 58.258564,-4.293252 c -1.054687,0 -1.77246,0.9228516 -1.77246,2.2705079 0,0.6884765 0.175781,1.24511715 0.527343,1.64062496 0.307617,0.3515625 0.747071,0.57128906 1.186524,0.57128906 0.527343,0 0.893554,-0.234375 1.274414,-0.76171875 v 0.21972656 c 0,0.57128907 -0.07324,0.90820313 -0.249024,1.14257813 C 59.04958,1.0387793 58.712666,1.1852637 58.30251,1.1852637 c -0.292969,0 -0.571289,-0.087891 -0.747071,-0.23437503 -0.161132,-0.1171875 -0.219726,-0.21972656 -0.263671,-0.46875 h -0.673829 c 0.07324,0.77636723 0.688477,1.25976563 1.669922,1.25976563 0.615235,0 1.157227,-0.2050781 1.420899,-0.5419922 0.322265,-0.38085937 0.439453,-0.90820312 0.439453,-1.88964843 V -4.1760645 Z m -1.201172,0.4980469 c 0.717773,0 1.142578,0.600586 1.142578,1.640625 0,0.9960938 -0.439453,1.61132815 -1.12793,1.61132815 -0.732422,0 -1.171875,-0.61523435 -1.171875,-1.62597655 0,-1.0107422 0.454102,-1.6259766 1.157227,-1.6259766 z m 6.613769,3.28125002 c -0.07324,0.0146484 -0.102539,0.0146484 -0.146484,0.0146484 -0.234375,0 -0.351563,-0.1171875 -0.351563,-0.32226563 V -3.1506738 c 0,-0.7470703 -0.541992,-1.1425782 -1.567383,-1.1425782 -0.615234,0 -1.113281,0.1757813 -1.391601,0.4833985 -0.19043,0.2197265 -0.27832,0.4541015 -0.292969,0.8642578 h 0.673828 c 0.05859,-0.5126953 0.366211,-0.7324219 0.981446,-0.7324219 0.600586,0 0.9375,0.2197266 0.9375,0.6152344 v 0.1757812 c 0,0.2783204 -0.175782,0.3955079 -0.703125,0.46875 -0.9375,0.1171875 -1.083985,0.1464844 -1.333008,0.2490235 -0.483399,0.2050781 -0.732422,0.571289 -0.732422,1.1132812 0,0.76171878 0.527344,1.24511722 1.362305,1.24511722 0.527343,0 0.952148,-0.19042969 1.420898,-0.61523437 0.05859,0.41015625 0.263672,0.61523437 0.688477,0.61523437 0.131836,0 0.234375,-0.0292969 0.454101,-0.0732422 z M 63.78835,-1.3196191 c 0,0.2197265 -0.07324,0.3662109 -0.263672,0.54199215 -0.278321,0.24902343 -0.600586,0.38085937 -0.996094,0.38085937 -0.512695,0 -0.820313,-0.24902344 -0.820313,-0.67382812 0,-0.4394531 0.292969,-0.6591797 1.010743,-0.7617188 0.703125,-0.102539 0.834961,-0.1318359 1.069336,-0.234375 z m 1.882324,-2.8564454 v 4.17480473 h 0.673828 V -2.3010645 c 0,-0.8496093 0.439453,-1.4208984 1.12793,-1.4208984 0.527343,0 0.864257,0.3222656 0.864257,0.8349609 v 2.88574223 h 0.65918 V -3.1506738 c 0,-0.703125 -0.512695,-1.1425782 -1.318359,-1.1425782 -0.629883,0 -1.025391,0.234375 -1.391602,0.8203125 v -0.703125 z m 5.079346,0 h -0.673829 v 4.17480473 h 0.673829 z m 0,-1.640625 h -0.673829 v 0.8496094 h 0.673829 z m 4.0979,1.640625 h -3.120117 v 0.5859375 h 2.329101 l -2.490234,2.9882813 v 0.60058593 h 3.398437 v -0.5859375 H 72.372334 L 74.84792,-3.590127 Z m 1.655273,0 h -0.673828 v 4.17480473 h 0.673828 z m 0,-1.640625 h -0.673828 v 0.8496094 h 0.673828 z m 1.124268,1.640625 v 4.17480473 h 0.673828 V -2.3010645 c 0,-0.8496093 0.439453,-1.4208984 1.12793,-1.4208984 0.527343,0 0.864258,0.3222656 0.864258,0.8349609 v 2.88574223 h 0.659179 V -3.1506738 c 0,-0.703125 -0.512695,-1.1425782 -1.318359,-1.1425782 -0.629883,0 -1.025391,0.234375 -1.391602,0.8203125 v -0.703125 z m 7.155762,0 v 0.600586 C 84.446309,-4.058877 84.050801,-4.293252 83.508809,-4.293252 c -1.054688,0 -1.772461,0.9228516 -1.772461,2.2705079 0,0.6884765 0.175781,1.24511715 0.527343,1.64062496 0.307618,0.3515625 0.747071,0.57128906 1.186524,0.57128906 0.527344,0 0.893555,-0.234375 1.274414,-0.76171875 v 0.21972656 c 0,0.57128907 -0.07324,0.90820313 -0.249024,1.14257813 -0.175781,0.24902344 -0.512695,0.39550784 -0.922851,0.39550784 -0.292969,0 -0.571289,-0.087891 -0.74707,-0.23437503 -0.161133,-0.1171875 -0.219727,-0.21972656 -0.263672,-0.46875 h -0.673828 c 0.07324,0.77636723 0.688476,1.25976563 1.669921,1.25976563 0.615235,0 1.157227,-0.2050781 1.420899,-0.5419922 0.322266,-0.38085937 0.439453,-0.90820312 0.439453,-1.88964843 V -4.1760645 Z m -1.201172,0.4980469 c 0.717773,0 1.142578,0.600586 1.142578,1.640625 0,0.9960938 -0.439453,1.61132815 -1.12793,1.61132815 -0.732422,0 -1.171875,-0.61523435 -1.171875,-1.62597655 0,-1.0107422 0.454102,-1.6259766 1.157227,-1.6259766 z m 8.50708,-2.1386719 h -0.65918 v 2.1679688 c -0.27832,-0.4248047 -0.717773,-0.6445313 -1.274414,-0.6445313 -1.083984,0 -1.801758,0.8642579 -1.801758,2.1972657 0,1.40624997 0.688477,2.28515622 1.816407,2.28515622 0.571289,0 0.981445,-0.21972656 1.333007,-0.74707031 v 0.55664062 h 0.585938 z m -1.831055,2.1386719 c 0.717774,0 1.171875,0.6445313 1.171875,1.640625 0,0.9667969 -0.454101,1.59667971 -1.157226,1.59667971 -0.732422,0 -1.230469,-0.64453121 -1.230469,-1.61132811 0,-0.9814453 0.498047,-1.6259766 1.21582,-1.6259766 z m 6.584473,3.28125002 c -0.07324,0.0146484 -0.102539,0.0146484 -0.146485,0.0146484 -0.234375,0 -0.351562,-0.1171875 -0.351562,-0.32226563 V -3.1506738 c 0,-0.7470703 -0.541992,-1.1425782 -1.567383,-1.1425782 -0.615234,0 -1.113281,0.1757813 -1.391601,0.4833985 -0.19043,0.2197265 -0.278321,0.4541015 -0.292969,0.8642578 h 0.673828 c 0.05859,-0.5126953 0.366211,-0.7324219 0.981445,-0.7324219 0.600586,0 0.9375,0.2197266 0.9375,0.6152344 v 0.1757812 c 0,0.2783204 -0.175781,0.3955079 -0.703125,0.46875 -0.9375,0.1171875 -1.083984,0.1464844 -1.333008,0.2490235 -0.483398,0.2050781 -0.732421,0.571289 -0.732421,1.1132812 0,0.76171878 0.527343,1.24511722 1.362304,1.24511722 0.527344,0 0.952149,-0.19042969 1.420899,-0.61523437 0.05859,0.41015625 0.263672,0.61523437 0.688476,0.61523437 0.131836,0 0.234375,-0.0292969 0.454102,-0.0732422 z M 95.685322,-1.3196191 c 0,0.2197265 -0.07324,0.3662109 -0.263672,0.54199215 -0.27832,0.24902343 -0.600586,0.38085937 -0.996093,0.38085937 -0.512696,0 -0.820313,-0.24902344 -0.820313,-0.67382812 0,-0.4394531 0.292969,-0.6591797 1.010742,-0.7617188 0.703125,-0.102539 0.834961,-0.1318359 1.069336,-0.234375 z m 3.347168,-2.8564454 h -0.688476 v -1.1425781 h -0.65918 v 1.1425781 h -0.556641 v 0.5419922 h 0.556641 v 3.1494141 c 0,0.42480468 0.292969,0.67382812 0.805664,0.67382812 0.161133,0 0.322266,-0.0292969 0.541992,-0.0585938 V -0.4260645 c -0.08789,0.0146484 -0.190429,0.0292969 -0.322265,0.0292969 -0.278321,0 -0.366211,-0.0878906 -0.366211,-0.38085937 V -3.6340723 h 0.688476 z m 4.45679,3.77929692 c -0.0732,0.0146484 -0.10254,0.0146484 -0.14649,0.0146484 -0.23437,0 -0.35156,-0.1171875 -0.35156,-0.32226563 V -3.1506738 c 0,-0.7470703 -0.54199,-1.1425782 -1.56738,-1.1425782 -0.61524,0 -1.11328,0.1757813 -1.3916,0.4833985 -0.190434,0.2197265 -0.278324,0.4541015 -0.292973,0.8642578 h 0.673833 c 0.0586,-0.5126953 0.36621,-0.7324219 0.98144,-0.7324219 0.60059,0 0.9375,0.2197266 0.9375,0.6152344 v 0.1757812 c 0,0.2783204 -0.17578,0.3955079 -0.70312,0.46875 -0.9375,0.1171875 -1.08399,0.1464844 -1.33301,0.2490235 -0.4834,0.2050781 -0.732424,0.571289 -0.732424,1.1132812 0,0.76171878 0.527344,1.24511722 1.362304,1.24511722 0.52734,0 0.95215,-0.19042969 1.4209,-0.61523437 0.0586,0.41015625 0.26367,0.61523437 0.68848,0.61523437 0.13183,0 0.23437,-0.0292969 0.4541,-0.0732422 z m -1.15723,-0.92285152 c 0,0.2197265 -0.0732,0.3662109 -0.26367,0.54199215 -0.27832,0.24902343 -0.60059,0.38085937 -0.99609,0.38085937 -0.5127,0 -0.82032,-0.24902344 -0.82032,-0.67382812 0,-0.4394531 0.29297,-0.6591797 1.01074,-0.7617188 0.70313,-0.102539 0.83497,-0.1318359 1.06934,-0.234375 z m 0,0"
       style="fill:#000000;fill-opacity:1;fill-rule:nonzero;stroke:none"
       aria-label="Cleaningandorganizingdata"
       transform="matrix(1.0666667,0,0,1.0666667,217.088,37.224)" />
    <path
       id="path15"
       d="m 124.68452,23.24031 c 0,3.89113 -3.15432,7.04544 -7.04545,7.04544 -3.89113,0 -7.04544,-3.15431 -7.04544,-7.04544 0,-3.89113 3.15431,-7.04546 7.04544,-7.04546 3.89113,0 7.04545,3.15433 7.04545,7.04546 z"
       style="fill:#fa4c3d;fill-opacity:1;fill-rule:nonzero;stroke:none"
       transform="matrix(1.0666667,0,0,-1.0666667,80.125867,80.1264)" />
    <path
       id="path16"
       d="M 5.275166,-4.0152734 C 5.040791,-5.2896875 4.3083691,-5.9049219 3.0339551,-5.9049219 c -0.7763672,0 -1.40625,0.2490235 -1.8310547,0.7177735 -0.52734376,0.5859375 -0.82031251,1.40625 -0.82031251,2.34375 0,0.9667968 0.29296875,1.7871093 0.84960941,2.34374996 0.4394531,0.46875 1.0107422,0.68847657 1.7724609,0.68847657 1.4208984,0 2.2119141,-0.77636719 2.3876953,-2.31445313 H 4.6306348 c -0.058594,0.3955078 -0.1464844,0.6738281 -0.2636719,0.9082031 -0.234375,0.46875003 -0.7324219,0.74707034 -1.3476563,0.74707034 -1.1572265,0 -1.8896484,-0.92285154 -1.8896484,-2.37304684 0,-1.4941407 0.703125,-2.4169922 1.8164063,-2.4169922 0.46875,0 0.9082031,0.1464844 1.1572265,0.3808594 0.2050781,0.1904296 0.3222656,0.4394531 0.4101563,0.8642578 z m 2.6477051,-0.2783203 c -1.171875,0 -1.875,0.8349609 -1.875,2.2412109 0,1.39160155 0.6884766,2.24121093 1.8896484,2.24121093 1.1572266,0 1.875,-0.84960938 1.875,-2.21191403 0,-1.4501953 -0.6884765,-2.2705078 -1.8896484,-2.2705078 z m 0.014648,0.6152343 c 0.7470703,0 1.1865235,0.6152344 1.1865235,1.640625 0,0.9814453 -0.4541016,1.61132815 -1.1865235,1.61132815 -0.7470703,0 -1.2011718,-0.61523435 -1.2011718,-1.62597655 0,-1.0107422 0.4541015,-1.6259766 1.2011718,-1.6259766 z m 3.4643559,-2.1386718 h -0.673828 v 5.81542964 h 0.673828 z m 1.768799,0 h -0.673828 v 5.81542964 h 0.673828 z m 4.639892,3.9550781 c 0,-0.6445313 -0.04395,-1.0253906 -0.161132,-1.3330078 -0.278321,-0.6884766 -0.908204,-1.0986328 -1.699219,-1.0986328 -1.157227,0 -1.904297,0.8935546 -1.904297,2.2558593 0,1.37695315 0.717773,2.22656253 1.889648,2.22656253 0.966797,0 1.625977,-0.54199219 1.78711,-1.45019533 h -0.673828 c -0.175782,0.5419922 -0.556641,0.83496095 -1.083985,0.83496095 -0.424804,0 -0.776367,-0.19042969 -1.010742,-0.54199219 C 14.792988,-1.2174219 14.749043,-1.4517969 14.734395,-1.8619531 Z m -3.061523,-0.5419922 c 0.05859,-0.7763672 0.527344,-1.2744141 1.201172,-1.2744141 0.644531,0 1.157226,0.5419922 1.157226,1.2158203 0,0.029297 0,0.043945 -0.01465,0.058594 z m 7.155762,-0.3662109 c -0.0293,-0.4101563 -0.117188,-0.6738282 -0.278321,-0.9082032 -0.27832,-0.3808593 -0.791015,-0.6152343 -1.362304,-0.6152343 -1.12793,0 -1.860352,0.8935546 -1.860352,2.2705078 0,1.34765621 0.717774,2.21191403 1.845703,2.21191403 0.996094,0 1.625977,-0.60058594 1.699219,-1.62597653 h -0.65918 c -0.117187,0.67382809 -0.454101,1.01074215 -1.02539,1.01074215 -0.732422,0 -1.171875,-0.60058595 -1.171875,-1.59667965 0,-1.0400391 0.439453,-1.6552735 1.157226,-1.6552735 0.556641,0 0.908203,0.3222657 0.996094,0.9082032 z m 2.255859,-1.40625 h -0.688477 v -1.1425782 h -0.659179 v 1.1425782 h -0.556641 v 0.5419921 h 0.556641 V -0.485 c 0,0.42480469 0.292969,0.67382813 0.805664,0.67382813 0.161133,0 0.322265,-0.0292969 0.541992,-0.0585938 V -0.4264063 c -0.08789,0.0146484 -0.19043,0.0292969 -0.322266,0.0292969 -0.27832,0 -0.366211,-0.0878906 -0.366211,-0.38085938 V -3.6344141 h 0.688477 z m 1.398926,0 h -0.673828 v 4.17480464 h 0.673828 z m 0,-1.640625 h -0.673828 v 0.8496093 h 0.673828 z m 1.124267,1.640625 v 4.17480464 h 0.673829 V -2.3014062 c 0,-0.8496094 0.439453,-1.4208985 1.127929,-1.4208985 0.527344,0 0.864258,0.3222656 0.864258,0.834961 v 2.88574214 h 0.65918 V -3.1510156 c 0,-0.703125 -0.512696,-1.1425781 -1.31836,-1.1425781 -0.629882,0 -1.02539,0.234375 -1.391601,0.8203125 v -0.703125 z m 7.155762,0 v 0.6005859 c -0.336914,-0.4833984 -0.732422,-0.7177734 -1.274414,-0.7177734 -1.054687,0 -1.772461,0.9228515 -1.772461,2.2705078 0,0.6884765 0.175781,1.24511715 0.527344,1.64062496 0.307617,0.3515625 0.74707,0.57128907 1.186523,0.57128907 0.527344,0 0.893555,-0.234375 1.274414,-0.76171875 v 0.21972656 c 0,0.57128906 -0.07324,0.90820312 -0.249023,1.14257812 -0.175781,0.24902344 -0.512695,0.39550784 -0.922852,0.39550784 -0.292968,0 -0.571289,-0.087891 -0.74707,-0.23437502 -0.161133,-0.1171875 -0.219726,-0.21972657 -0.263672,-0.46875 H 30.92458 c 0.07324,0.77636722 0.688477,1.25976562 1.669922,1.25976562 0.615234,0 1.157227,-0.2050781 1.420898,-0.5419922 0.322266,-0.38085936 0.439454,-0.90820311 0.439454,-1.88964842 V -4.1764062 Z m -1.201172,0.4980468 c 0.717774,0 1.142578,0.600586 1.142578,1.640625 0,0.9960938 -0.439453,1.61132815 -1.127929,1.61132815 -0.732422,0 -1.171875,-0.61523435 -1.171875,-1.62597655 0,-1.0107422 0.454101,-1.6259766 1.157226,-1.6259766 z m 8.499756,-2.1386718 h -0.65918 v 2.1679687 c -0.27832,-0.4248047 -0.717773,-0.6445312 -1.274414,-0.6445312 -1.083984,0 -1.801757,0.8642578 -1.801757,2.1972656 0,1.40624998 0.688476,2.28515623 1.816406,2.28515623 0.571289,0 0.981445,-0.21972657 1.333008,-0.74707032 v 0.55664063 h 0.585937 z m -1.831055,2.1386718 c 0.717774,0 1.171875,0.6445313 1.171875,1.640625 0,0.9667969 -0.454101,1.59667971 -1.157226,1.59667971 -0.732422,0 -1.230469,-0.64453121 -1.230469,-1.61132811 0,-0.9814453 0.498047,-1.6259766 1.21582,-1.6259766 z m 6.584473,3.28125003 c -0.07324,0.0146484 -0.102539,0.0146484 -0.146484,0.0146484 -0.234375,0 -0.351563,-0.1171875 -0.351563,-0.32226562 V -3.1510156 c 0,-0.7470703 -0.541992,-1.1425781 -1.567383,-1.1425781 -0.615234,0 -1.113281,0.1757812 -1.391601,0.4833984 -0.19043,0.2197266 -0.27832,0.4541016 -0.292969,0.8642578 h 0.673828 c 0.05859,-0.5126953 0.366211,-0.7324219 0.981446,-0.7324219 0.600585,0 0.9375,0.2197266 0.9375,0.6152344 v 0.1757813 c 0,0.2783203 -0.175782,0.3955078 -0.703125,0.46875 -0.9375,0.1171875 -1.083985,0.1464843 -1.333008,0.2490234 -0.483399,0.2050781 -0.732422,0.5712891 -0.732422,1.1132812 0,0.76171879 0.527344,1.24511723 1.362305,1.24511723 0.527343,0 0.952148,-0.19042969 1.420898,-0.61523438 0.05859,0.41015625 0.263672,0.61523438 0.688477,0.61523438 0.131835,0 0.234375,-0.0292969 0.454101,-0.0732422 z M 44.734395,-1.3199609 c 0,0.2197265 -0.07324,0.3662109 -0.263672,0.54199215 -0.278321,0.24902344 -0.600586,0.38085938 -0.996094,0.38085938 -0.512695,0 -0.820313,-0.24902344 -0.820313,-0.67382813 0,-0.4394531 0.292969,-0.6591797 1.010743,-0.7617187 0.703125,-0.1025391 0.834961,-0.131836 1.069336,-0.234375 z m 3.347167,-2.8564453 h -0.688476 v -1.1425782 h -0.65918 v 1.1425782 h -0.55664 v 0.5419921 h 0.55664 V -0.485 c 0,0.42480469 0.292969,0.67382813 0.805664,0.67382813 0.161133,0 0.322266,-0.0292969 0.541992,-0.0585938 V -0.4264063 c -0.08789,0.0146484 -0.190429,0.0292969 -0.322265,0.0292969 -0.27832,0 -0.366211,-0.0878906 -0.366211,-0.38085938 V -3.6344141 h 0.688476 z m 4.456788,3.77929683 c -0.07324,0.0146484 -0.102539,0.0146484 -0.146485,0.0146484 -0.234375,0 -0.351562,-0.1171875 -0.351562,-0.32226562 V -3.1510156 c 0,-0.7470703 -0.541992,-1.1425781 -1.567383,-1.1425781 -0.615234,0 -1.113281,0.1757812 -1.391602,0.4833984 -0.190429,0.2197266 -0.27832,0.4541016 -0.292968,0.8642578 h 0.673828 c 0.05859,-0.5126953 0.366211,-0.7324219 0.981445,-0.7324219 0.600586,0 0.9375,0.2197266 0.9375,0.6152344 v 0.1757813 c 0,0.2783203 -0.175781,0.3955078 -0.703125,0.46875 -0.9375,0.1171875 -1.083984,0.1464843 -1.333008,0.2490234 -0.483398,0.2050781 -0.732422,0.5712891 -0.732422,1.1132812 0,0.76171879 0.527344,1.24511723 1.362305,1.24511723 0.527344,0 0.952148,-0.19042969 1.420898,-0.61523438 0.05859,0.41015625 0.263672,0.61523438 0.688477,0.61523438 0.131836,0 0.234375,-0.0292969 0.454102,-0.0732422 z M 51.381123,-1.3199609 c 0,0.2197265 -0.07324,0.3662109 -0.263672,0.54199215 -0.27832,0.24902344 -0.600586,0.38085938 -0.996094,0.38085938 -0.512695,0 -0.820312,-0.24902344 -0.820312,-0.67382813 0,-0.4394531 0.292969,-0.6591797 1.010742,-0.7617187 0.703125,-0.1025391 0.834961,-0.131836 1.069336,-0.234375 z m 7.027588,-1.6992188 c 0,-0.8203125 -0.541992,-1.274414 -1.508789,-1.274414 -0.966797,0 -1.59668,0.4980468 -1.59668,1.274414 0,0.6445313 0.322266,0.9667969 1.31836,1.2011719 l 0.615234,0.1464844 c 0.46875,0.1171875 0.644531,0.2783203 0.644531,0.5859375 0,0.39550778 -0.380859,0.65917965 -0.966797,0.65917965 -0.351562,0 -0.659179,-0.10253906 -0.834961,-0.27832031 C 55.97707,-0.8365625 55.933125,-0.95375 55.88918,-1.2467187 h -0.703125 c 0.04394,0.96679683 0.585937,1.43554683 1.669922,1.43554683 1.054687,0 1.728515,-0.52734375 1.728515,-1.33300783 0,-0.6152344 -0.351562,-0.9667969 -1.186523,-1.1572265 l -0.629883,-0.1611329 c -0.541992,-0.1171875 -0.776367,-0.2929687 -0.776367,-0.5859375 0,-0.3808593 0.336914,-0.6298828 0.878906,-0.6298828 0.541992,0 0.820312,0.2197266 0.834961,0.6591797 z m 4.584961,1.1572266 c 0,-0.6445313 -0.04394,-1.0253906 -0.161133,-1.3330078 -0.27832,-0.6884766 -0.908203,-1.0986328 -1.699219,-1.0986328 -1.157226,0 -1.904297,0.8935546 -1.904297,2.2558593 0,1.37695315 0.717774,2.22656253 1.889649,2.22656253 0.966797,0 1.625976,-0.54199219 1.787109,-1.45019533 h -0.673828 c -0.175781,0.5419922 -0.556641,0.83496095 -1.083984,0.83496095 -0.424805,0 -0.776367,-0.19042969 -1.010742,-0.54199219 C 59.976094,-1.2174219 59.932148,-1.4517969 59.9175,-1.8619531 Z m -3.061524,-0.5419922 c 0.05859,-0.7763672 0.527344,-1.2744141 1.201172,-1.2744141 0.644532,0 1.157227,0.5419922 1.157227,1.2158203 0,0.029297 0,0.043945 -0.01465,0.058594 z m 5.427247,-1.7724609 h -0.688477 v -1.1425782 h -0.65918 v 1.1425782 h -0.55664 v 0.5419921 h 0.55664 V -0.485 c 0,0.42480469 0.292969,0.67382813 0.805664,0.67382813 0.161133,0 0.322266,-0.0292969 0.541993,-0.0585938 V -0.4264063 c -0.08789,0.0146484 -0.19043,0.0292969 -0.322266,0.0292969 -0.27832,0 -0.366211,-0.0878906 -0.366211,-0.38085938 V -3.6344141 h 0.688477 z m 3.680419,1.1572265 c 0,-0.8203125 -0.541992,-1.274414 -1.508789,-1.274414 -0.966796,0 -1.596679,0.4980468 -1.596679,1.274414 0,0.6445313 0.322265,0.9667969 1.318359,1.2011719 l 0.615234,0.1464844 c 0.46875,0.1171875 0.644532,0.2783203 0.644532,0.5859375 0,0.39550778 -0.38086,0.65917965 -0.966797,0.65917965 -0.351563,0 -0.65918,-0.10253906 -0.834961,-0.27832031 C 66.608174,-0.8365625 66.564229,-0.95375 66.520283,-1.2467187 h -0.703125 c 0.04395,0.96679683 0.585938,1.43554683 1.669922,1.43554683 1.054688,0 1.728516,-0.52734375 1.728516,-1.33300783 0,-0.6152344 -0.351563,-0.9667969 -1.186524,-1.1572265 l -0.629883,-0.1611329 c -0.541992,-0.1171875 -0.776367,-0.2929687 -0.776367,-0.5859375 0,-0.3808593 0.336914,-0.6298828 0.878907,-0.6298828 0.541992,0 0.820312,0.2197266 0.83496,0.6591797 z m 0,0"
       style="fill:#000000;fill-opacity:1;fill-rule:nonzero;stroke:none"
       aria-label="Collectingdatasets"
       transform="matrix(1.0666667,0,0,1.0666667,217.088,57.517333)" />
    <path
       id="path17"
       d="m 124.68452,4.21541 c 0,3.89113 -3.15432,7.04545 -7.04545,7.04545 -3.89113,0 -7.04544,-3.15432 -7.04544,-7.04545 0,-3.89113 3.15431,-7.04543 7.04544,-7.04543 3.89113,0 7.04545,3.1543 7.04545,7.04543 z"
       style="fill:#ff9d23;fill-opacity:1;fill-rule:nonzero;stroke:none"
       transform="matrix(1.0666667,0,0,-1.0666667,80.125867,80.1264)" />
    <path
       id="path18"
       d="M 3.7370801,0.00171875 5.3630566,-4.8615625 v 4.86328125 h 0.703125 V -5.8137109 H 5.040791 L 3.3415723,-0.74535156 1.6277051,-5.8137109 H 0.60231445 V 0.00171875 H 1.3054395 V -4.8615625 l 1.640625,4.86328125 z M 7.8386426,-4.1730859 H 7.1648145 v 4.17480465 h 0.6738281 z m 0,-1.640625 H 7.1648145 v 0.8496093 h 0.6738281 z m 1.1279297,1.640625 V 0.00171875 H 9.6404004 V -2.2980859 c 0,-0.8496094 0.4394536,-1.4208985 1.1279296,-1.4208985 0.527344,0 0.864258,0.3222657 0.864258,0.834961 v 2.88574215 h 0.65918 V -3.1476953 c 0,-0.703125 -0.512696,-1.1425781 -1.31836,-1.1425781 -0.629883,0 -1.0253904,0.234375 -1.3916014,0.8203125 v -0.703125 z m 5.0756837,0 h -0.673828 v 4.17480465 h 0.673828 z m 0,-1.640625 h -0.673828 v 0.8496093 h 0.673828 z m 1.124267,1.640625 v 4.17480465 h 0.673829 V -2.2980859 c 0,-0.8496094 0.439453,-1.4208985 1.127929,-1.4208985 0.527344,0 0.864258,0.3222657 0.864258,0.834961 v 2.88574215 h 0.65918 V -3.1476953 c 0,-0.703125 -0.512696,-1.1425781 -1.31836,-1.1425781 -0.629882,0 -1.02539,0.234375 -1.391601,0.8203125 v -0.703125 z m 7.155762,0 V -3.5725 c -0.336914,-0.4833984 -0.732422,-0.7177734 -1.274414,-0.7177734 -1.054687,0 -1.772461,0.9228515 -1.772461,2.2705078 0,0.6884765 0.175781,1.24511716 0.527344,1.64062498 0.307617,0.3515625 0.74707,0.57128906 1.186523,0.57128906 0.527344,0 0.893555,-0.234375 1.274414,-0.76171875 v 0.21972656 c 0,0.57128906 -0.07324,0.90820313 -0.249023,1.14257813 -0.175781,0.24902342 -0.512695,0.39550782 -0.922852,0.39550782 -0.292968,0 -0.571289,-0.087891 -0.74707,-0.23437501 -0.161133,-0.1171875 -0.219726,-0.21972656 -0.263672,-0.46875 h -0.673828 c 0.07324,0.77636721 0.688477,1.25976561 1.669922,1.25976561 0.615234,0 1.157227,-0.2050781 1.420898,-0.5419922 0.322266,-0.38085935 0.439454,-0.9082031 0.439454,-1.88964841 V -4.1730859 Z m -1.201172,0.4980468 c 0.717774,0 1.142578,0.600586 1.142578,1.640625 0,0.9960938 -0.439453,1.61132816 -1.127929,1.61132816 -0.732422,0 -1.171875,-0.61523436 -1.171875,-1.62597656 0,-1.0107422 0.454101,-1.6259766 1.157226,-1.6259766 z m 8.499756,-2.1386718 h -0.65918 v 2.1679687 c -0.27832,-0.4248047 -0.717773,-0.6445312 -1.274414,-0.6445312 -1.083984,0 -1.801757,0.8642578 -1.801757,2.1972656 0,1.40624999 0.688476,2.28515624 1.816406,2.28515624 0.571289,0 0.981445,-0.21972656 1.333008,-0.74707031 v 0.55664062 h 0.585937 z m -1.831055,2.1386718 c 0.717774,0 1.171875,0.6445313 1.171875,1.640625 0,0.9667969 -0.454101,1.59667973 -1.157226,1.59667973 -0.732422,0 -1.230469,-0.64453123 -1.230469,-1.61132813 0,-0.9814453 0.498047,-1.6259766 1.21582,-1.6259766 z m 6.584473,3.28125004 c -0.07324,0.0146484 -0.102539,0.0146484 -0.146484,0.0146484 -0.234375,0 -0.351563,-0.1171875 -0.351563,-0.32226563 V -3.1476953 c 0,-0.7470703 -0.541992,-1.1425781 -1.567383,-1.1425781 -0.615234,0 -1.113281,0.1757812 -1.391601,0.4833984 -0.19043,0.2197266 -0.27832,0.4541016 -0.292969,0.8642578 h 0.673828 c 0.05859,-0.5126953 0.366211,-0.7324219 0.981446,-0.7324219 0.600585,0 0.9375,0.2197266 0.9375,0.6152344 v 0.1757813 c 0,0.2783203 -0.175782,0.3955078 -0.703125,0.46875 -0.9375,0.1171875 -1.083985,0.1464843 -1.333008,0.2490234 -0.483399,0.2050781 -0.732422,0.5712891 -0.732422,1.1132813 0,0.7617187 0.527344,1.24511714 1.362305,1.24511714 0.527343,0 0.952148,-0.19042969 1.420898,-0.61523438 0.05859,0.41015625 0.263672,0.61523438 0.688477,0.61523438 0.131835,0 0.234375,-0.0292969 0.454101,-0.0732422 z M 33.217061,-1.3166406 c 0,0.2197265 -0.07324,0.36621091 -0.263672,0.54199216 -0.278321,0.24902344 -0.600586,0.38085938 -0.996094,0.38085938 -0.512695,0 -0.820313,-0.24902344 -0.820313,-0.67382814 0,-0.4394531 0.292969,-0.6591797 1.010743,-0.7617187 0.703125,-0.1025391 0.834961,-0.131836 1.069336,-0.234375 z m 3.347168,-2.8564453 h -0.688477 v -1.1425782 h -0.65918 v 1.1425782 h -0.55664 v 0.5419922 h 0.55664 v 3.14941401 c 0,0.42480469 0.292969,0.67382813 0.805664,0.67382813 0.161133,0 0.322266,-0.0292969 0.541993,-0.0585938 v -0.55664063 c -0.08789,0.0146484 -0.19043,0.0292969 -0.322266,0.0292969 -0.27832,0 -0.366211,-0.0878906 -0.366211,-0.38085938 V -3.6310937 h 0.688477 z m 4.456787,3.77929684 c -0.07324,0.0146484 -0.102539,0.0146484 -0.146485,0.0146484 -0.234375,0 -0.351562,-0.1171875 -0.351562,-0.32226563 V -3.1476953 c 0,-0.7470703 -0.541992,-1.1425781 -1.567383,-1.1425781 -0.615234,0 -1.113281,0.1757812 -1.391602,0.4833984 -0.190429,0.2197266 -0.27832,0.4541016 -0.292968,0.8642578 h 0.673828 c 0.05859,-0.5126953 0.366211,-0.7324219 0.981445,-0.7324219 0.600586,0 0.9375,0.2197266 0.9375,0.6152344 v 0.1757813 c 0,0.2783203 -0.175781,0.3955078 -0.703125,0.46875 -0.9375,0.1171875 -1.083984,0.1464843 -1.333008,0.2490234 -0.483398,0.2050781 -0.732422,0.5712891 -0.732422,1.1132813 0,0.7617187 0.527344,1.24511714 1.362305,1.24511714 0.527344,0 0.952148,-0.19042969 1.420898,-0.61523438 0.05859,0.41015625 0.263672,0.61523438 0.688477,0.61523438 0.131836,0 0.234375,-0.0292969 0.454102,-0.0732422 z M 39.863789,-1.3166406 c 0,0.2197265 -0.07324,0.36621091 -0.263672,0.54199216 -0.27832,0.24902344 -0.600586,0.38085938 -0.996094,0.38085938 -0.512695,0 -0.820312,-0.24902344 -0.820312,-0.67382814 0,-0.4394531 0.292969,-0.6591797 1.010742,-0.7617187 0.703125,-0.1025391 0.834961,-0.131836 1.069336,-0.234375 z m 5.592041,-2.8564453 h -0.688476 v -0.6591797 c 0,-0.2783203 0.161132,-0.4248047 0.46875,-0.4248047 0.04395,0 0.07324,0 0.219726,0.014648 v -0.5419922 c -0.146484,-0.043945 -0.234375,-0.043945 -0.366211,-0.043945 -0.615234,0 -0.981445,0.3515625 -0.981445,0.9521485 v 0.703125 h -0.556641 v 0.5419922 h 0.556641 v 3.63281245 h 0.65918 V -3.6310937 h 0.688476 z m 2.102051,-0.1171875 c -1.171875,0 -1.875,0.8349609 -1.875,2.2412109 0,1.39160156 0.688476,2.24121094 1.889648,2.24121094 1.157227,0 1.875,-0.84960938 1.875,-2.21191404 0,-1.4501953 -0.688476,-2.2705078 -1.889648,-2.2705078 z m 0.01465,0.6152343 c 0.747071,0 1.186524,0.6152344 1.186524,1.640625 0,0.9814454 -0.454102,1.61132816 -1.186524,1.61132816 -0.74707,0 -1.201172,-0.61523436 -1.201172,-1.62597656 0,-1.0107422 0.454102,-1.6259766 1.201172,-1.6259766 z m 2.805176,-0.4980468 v 4.17480465 h 0.65918 V -2.16625 c 0,-0.6005859 0.161133,-0.9814453 0.46875,-1.2158203 0.205078,-0.1611328 0.410156,-0.2050781 0.878906,-0.2050781 V -4.275625 c -0.117187,-0.014648 -0.175781,-0.014648 -0.263672,-0.014648 -0.424805,0 -0.74707,0.2490234 -1.142578,0.8789062 v -0.7617187 z m 4.731445,5.9179687 h 0.673829 v -2.18261717 c 0.351562,0.42480468 0.74707,0.62988281 1.289062,0.62988281 1.069336,0 1.787109,-0.87890625 1.787109,-2.21191404 0,-1.3916016 -0.688476,-2.2705078 -1.801757,-2.2705078 -0.571289,0 -1.025391,0.2490234 -1.333008,0.7470703 V -4.1730859 H 55.10915 Z m 1.831055,-5.4199219 c 0.74707,0 1.21582,0.6445313 1.21582,1.640625 0,0.9521485 -0.483398,1.59667973 -1.21582,1.59667973 -0.688476,0 -1.157226,-0.62988283 -1.157226,-1.61132813 0,-0.9814453 0.46875,-1.6259766 1.157226,-1.6259766 z m 6.437988,3.28125004 c -0.07324,0.0146484 -0.102539,0.0146484 -0.146484,0.0146484 -0.234375,0 -0.351563,-0.1171875 -0.351563,-0.32226563 V -3.1476953 c 0,-0.7470703 -0.541992,-1.1425781 -1.567382,-1.1425781 -0.615235,0 -1.113282,0.1757812 -1.391602,0.4833984 -0.19043,0.2197266 -0.27832,0.4541016 -0.292969,0.8642578 h 0.673828 c 0.05859,-0.5126953 0.366211,-0.7324219 0.981446,-0.7324219 0.600586,0 0.9375,0.2197266 0.9375,0.6152344 v 0.1757813 c 0,0.2783203 -0.175781,0.3955078 -0.703125,0.46875 -0.9375,0.1171875 -1.083985,0.1464843 -1.333008,0.2490234 -0.483398,0.2050781 -0.732422,0.5712891 -0.732422,1.1132813 0,0.7617187 0.527344,1.24511714 1.362305,1.24511714 0.527344,0 0.952148,-0.19042969 1.420898,-0.61523438 0.05859,0.41015625 0.263672,0.61523438 0.688477,0.61523438 0.131836,0 0.234375,-0.0292969 0.454101,-0.0732422 z M 62.220967,-1.3166406 c 0,0.2197265 -0.07324,0.36621091 -0.263672,0.54199216 -0.27832,0.24902344 -0.600586,0.38085938 -0.996094,0.38085938 -0.512695,0 -0.820312,-0.24902344 -0.820312,-0.67382814 0,-0.4394531 0.292968,-0.6591797 1.010742,-0.7617187 0.703125,-0.1025391 0.834961,-0.131836 1.069336,-0.234375 z m 3.347168,-2.8564453 h -0.688477 v -1.1425782 h -0.659179 v 1.1425782 h -0.556641 v 0.5419922 h 0.556641 v 3.14941401 c 0,0.42480469 0.292968,0.67382813 0.805664,0.67382813 0.161132,0 0.322265,-0.0292969 0.541992,-0.0585938 v -0.55664063 c -0.08789,0.0146484 -0.19043,0.0292969 -0.322266,0.0292969 -0.27832,0 -0.366211,-0.0878906 -0.366211,-0.38085938 V -3.6310937 h 0.688477 z m 2.215576,0 h -0.688477 v -1.1425782 h -0.659179 v 1.1425782 h -0.556641 v 0.5419922 h 0.556641 v 3.14941401 c 0,0.42480469 0.292968,0.67382813 0.805664,0.67382813 0.161133,0 0.322265,-0.0292969 0.541992,-0.0585938 v -0.55664063 c -0.08789,0.0146484 -0.19043,0.0292969 -0.322266,0.0292969 -0.27832,0 -0.366211,-0.0878906 -0.366211,-0.38085938 V -3.6310937 h 0.688477 z m 4.281006,2.3144531 c 0,-0.6445313 -0.04395,-1.0253906 -0.161133,-1.3330078 -0.27832,-0.6884766 -0.908203,-1.0986328 -1.699219,-1.0986328 -1.157226,0 -1.904297,0.8935547 -1.904297,2.2558593 0,1.37695316 0.717774,2.22656254 1.889649,2.22656254 0.966797,0 1.625976,-0.54199219 1.787109,-1.45019534 h -0.673828 c -0.175781,0.54199221 -0.556641,0.83496096 -1.083984,0.83496096 -0.424805,0 -0.776368,-0.19042968 -1.010743,-0.54199218 C 69.047139,-1.2141016 69.003193,-1.4484766 68.988545,-1.8586328 Z M 69.003193,-2.400625 c 0.05859,-0.7763672 0.527344,-1.2744141 1.201172,-1.2744141 0.644531,0 1.157227,0.5419922 1.157227,1.2158204 0,0.029297 0,0.043945 -0.01465,0.058594 z m 3.962403,-1.7724609 v 4.17480465 h 0.659179 V -2.16625 c 0,-0.6005859 0.161133,-0.9814453 0.46875,-1.2158203 0.205079,-0.1611328 0.410157,-0.2050781 0.878907,-0.2050781 V -4.275625 c -0.117188,-0.014648 -0.175782,-0.014648 -0.263672,-0.014648 -0.424805,0 -0.747071,0.2490234 -1.142578,0.8789062 v -0.7617187 z m 2.852783,0 v 4.17480465 h 0.673828 V -2.2980859 c 0,-0.8496094 0.439453,-1.4208985 1.12793,-1.4208985 0.527343,0 0.864258,0.3222657 0.864258,0.834961 v 2.88574215 h 0.659179 V -3.1476953 c 0,-0.703125 -0.512695,-1.1425781 -1.318359,-1.1425781 -0.629883,0 -1.025391,0.234375 -1.391602,0.8203125 v -0.703125 z m 7.36084,1.1572265 c 0,-0.8203125 -0.541992,-1.274414 -1.508789,-1.274414 -0.966797,0 -1.59668,0.4980468 -1.59668,1.274414 0,0.6445313 0.322266,0.9667969 1.318359,1.2011719 l 0.615235,0.1464844 c 0.46875,0.1171875 0.644531,0.2783203 0.644531,0.5859375 0,0.39550779 -0.380859,0.65917966 -0.966797,0.65917966 -0.351562,0 -0.65918,-0.10253906 -0.834961,-0.27832031 -0.102539,-0.13183594 -0.146484,-0.24902344 -0.19043,-0.54199215 h -0.703125 c 0.04395,0.96679684 0.585938,1.43554684 1.669922,1.43554684 1.054688,0 1.728516,-0.52734375 1.728516,-1.33300784 0,-0.6152343 -0.351563,-0.9667968 -1.186523,-1.1572265 l -0.629883,-0.1611328 c -0.541992,-0.1171875 -0.776367,-0.2929688 -0.776367,-0.5859375 0,-0.3808594 0.336914,-0.6298829 0.878906,-0.6298829 0.541992,0 0.820312,0.2197266 0.834961,0.6591797 z m 0,0"
       style="fill:#000000;fill-opacity:1;fill-rule:nonzero;stroke:none"
       aria-label="Miningdataforpatterns"
       transform="matrix(1.0666667,0,0,1.0666667,217.088,77.810667)" />
    <path
       id="path19"
       d="m 124.68452,-14.80946 c 0,3.89113 -3.15432,7.04544 -7.04545,7.04544 -3.89113,0 -7.04544,-3.15431 -7.04544,-7.04544 0,-3.89113 3.15431,-7.04546 7.04544,-7.04546 3.89113,0 7.04545,3.15433 7.04545,7.04546 z"
       style="fill:#3381b9;fill-opacity:1;fill-rule:nonzero;stroke:none"
       transform="matrix(1.0666667,0,0,-1.0666667,80.125867,80.1264)" />
    <path
       id="path20"
       d="M 0.63161133,0.00182422 H 3.2536816 c 0.5419922,0 0.9521485,-0.14648438 1.2597657,-0.48339844 0.2929687,-0.30761719 0.4541015,-0.71777348 0.4541015,-1.17187498 0,-0.703125 -0.3222656,-1.1279297 -1.0546875,-1.40625 0.5126953,-0.2490235 0.8056641,-0.6884766 0.8056641,-1.2744141 0,-0.4248047 -0.1611328,-0.7910156 -0.46875,-1.0693359 C 3.9421582,-5.6817695 3.5466504,-5.8136055 2.9900098,-5.8136055 H 0.63161133 Z M 1.3786816,-3.3087227 v -1.8457031 h 1.4208985 c 0.4248047,0 0.6591797,0.058594 0.8496094,0.2050781 0.2050781,0.1611329 0.3222656,0.3955079 0.3222656,0.7177735 0,0.3076172 -0.1171875,0.5566406 -0.3222656,0.7177734 -0.1904297,0.1464844 -0.4248047,0.2050781 -0.8496094,0.2050781 z m 0,2.65136723 V -2.649543 h 1.8017579 c 0.3662109,0 0.6005859,0.087891 0.7763671,0.2783203 0.1757813,0.1757813 0.2636719,0.4394532 0.2636719,0.7177735 0,0.2783203 -0.087891,0.5419922 -0.2636719,0.71777342 -0.1757812,0.19042969 -0.4101562,0.27832031 -0.7763671,0.27832031 z M 9.1533398,0.00182422 V -4.1729805 H 8.4941602 v 2.3730469 c 0,0.84960938 -0.4394532,1.40625001 -1.1425782,1.40625001 -0.5273437,0 -0.8496093,-0.32226563 -0.8496093,-0.82031251 V -4.1729805 H 5.8281445 v 3.22265628 c 0,0.68847656 0.5273438,1.14257813 1.3330078,1.14257813 0.6152344,0 1.0107422,-0.21972657 1.3916016,-0.77636719 v 0.5859375 z M 10.947773,-4.1729805 h -0.673828 v 4.17480472 h 0.673828 z m 0,-1.640625 h -0.673828 v 0.8496094 h 0.673828 z m 1.783448,0 h -0.673828 v 5.81542972 h 0.673828 z m 4.49707,0 h -0.65918 v 2.1679688 c -0.27832,-0.4248047 -0.717773,-0.6445313 -1.274414,-0.6445313 -1.083984,0 -1.801758,0.8642578 -1.801758,2.1972657 0,1.40624996 0.688477,2.28515621 1.816407,2.28515621 0.571289,0 0.981445,-0.21972657 1.333008,-0.74707032 v 0.55664063 h 0.585937 z m -1.831055,2.1386719 c 0.717774,0 1.171875,0.6445313 1.171875,1.640625 0,0.9667969 -0.454101,1.59667969 -1.157226,1.59667969 -0.732422,0 -1.230469,-0.64453129 -1.230469,-1.61132809 0,-0.9814453 0.498047,-1.6259766 1.21582,-1.6259766 z m 3.52295,-0.4980469 h -0.673829 v 4.17480472 h 0.673829 z m 0,-1.640625 h -0.673829 v 0.8496094 h 0.673829 z m 1.124267,1.640625 v 4.17480472 h 0.673828 V -2.2979805 c 0,-0.8496093 0.439453,-1.4208984 1.12793,-1.4208984 0.527344,0 0.864258,0.3222656 0.864258,0.8349609 v 2.88574222 h 0.659179 V -3.1475898 c 0,-0.703125 -0.512695,-1.1425782 -1.318359,-1.1425782 -0.629883,0 -1.025391,0.234375 -1.391602,0.8203125 v -0.703125 z m 7.155762,0 v 0.600586 C 26.863301,-4.055793 26.467793,-4.290168 25.925801,-4.290168 c -1.054688,0 -1.772461,0.9228516 -1.772461,2.2705078 0,0.6884766 0.175781,1.24511723 0.527344,1.64062504 0.307617,0.3515625 0.74707,0.57128907 1.186523,0.57128907 0.527344,0 0.893555,-0.234375 1.274414,-0.76171875 v 0.21972656 c 0,0.57128906 -0.07324,0.90820312 -0.249023,1.14257812 -0.175782,0.24902346 -0.512696,0.39550786 -0.922852,0.39550786 -0.292969,0 -0.571289,-0.087891 -0.74707,-0.23437504 -0.161133,-0.1171875 -0.219727,-0.21972657 -0.263672,-0.46875 h -0.673828 c 0.07324,0.77636714 0.688476,1.25976564 1.669922,1.25976564 0.615234,0 1.157226,-0.2050781 1.420898,-0.5419922 0.322266,-0.38085938 0.439453,-0.90820313 0.439453,-1.88964844 V -4.1729805 Z m -1.201172,0.4980469 c 0.717773,0 1.142578,0.6005859 1.142578,1.640625 0,0.9960938 -0.439453,1.61132813 -1.12793,1.61132813 -0.732421,0 -1.171875,-0.61523433 -1.171875,-1.62597653 0,-1.0107422 0.454102,-1.6259766 1.157227,-1.6259766 z m 6.580811,-0.4980469 h -0.688477 v -1.1425781 h -0.65918 v 1.1425781 h -0.55664 v 0.5419922 h 0.55664 v 3.14941408 c 0,0.42480469 0.292969,0.67382813 0.805664,0.67382813 0.161133,0 0.322266,-0.0292969 0.541993,-0.0585938 v -0.55664063 c -0.08789,0.0146484 -0.19043,0.0292969 -0.322266,0.0292969 -0.27832,0 -0.366211,-0.0878906 -0.366211,-0.38085938 v -2.8564453 h 0.688477 z m 0.750732,0 v 4.17480472 h 0.65918 V -2.1661445 c 0,-0.600586 0.161132,-0.9814453 0.46875,-1.2158203 0.205078,-0.1611329 0.410156,-0.2050782 0.878906,-0.2050782 v -0.6884765 c -0.117188,-0.014649 -0.175781,-0.014649 -0.263672,-0.014649 -0.424805,0 -0.74707,0.2490235 -1.142578,0.8789063 V -4.172981 Z m 6.287842,3.77929691 c -0.07324,0.0146484 -0.102539,0.0146484 -0.146485,0.0146484 -0.234375,0 -0.351562,-0.1171875 -0.351562,-0.32226562 V -3.1475898 c 0,-0.7470704 -0.541992,-1.1425782 -1.567383,-1.1425782 -0.615234,0 -1.113281,0.1757813 -1.391602,0.4833985 -0.190429,0.2197265 -0.27832,0.4541015 -0.292968,0.8642578 h 0.673828 c 0.05859,-0.5126953 0.366211,-0.7324219 0.981445,-0.7324219 0.600586,0 0.9375,0.2197266 0.9375,0.6152344 v 0.1757812 c 0,0.2783203 -0.175781,0.3955078 -0.703125,0.46875 -0.9375,0.1171875 -1.083984,0.1464844 -1.333008,0.2490235 -0.483398,0.2050781 -0.732422,0.571289 -0.732422,1.1132812 0,0.76171877 0.527344,1.24511721 1.362305,1.24511721 0.527344,0 0.952149,-0.19042969 1.420899,-0.61523438 0.05859,0.41015625 0.263671,0.61523438 0.688476,0.61523438 0.131836,0 0.234375,-0.0292969 0.454102,-0.0732422 z M 38.461201,-1.3165352 c 0,0.2197266 -0.07324,0.36621098 -0.263672,0.54199223 -0.27832,0.24902344 -0.600586,0.38085938 -0.996093,0.38085938 -0.512696,0 -0.820313,-0.24902344 -0.820313,-0.67382811 0,-0.4394531 0.292969,-0.6591797 1.010742,-0.7617188 0.703125,-0.102539 0.834961,-0.1318359 1.069336,-0.234375 z m 2.526856,-2.8564453 h -0.673828 v 4.17480472 h 0.673828 z m 0,-1.640625 h -0.673828 v 0.8496094 h 0.673828 z m 1.124267,1.640625 v 4.17480472 h 0.673828 V -2.2979805 c 0,-0.8496093 0.439453,-1.4208984 1.12793,-1.4208984 0.527344,0 0.864258,0.3222656 0.864258,0.8349609 v 2.88574222 h 0.65918 V -3.1475898 c 0,-0.703125 -0.512696,-1.1425782 -1.31836,-1.1425782 -0.629883,0 -1.02539,0.234375 -1.391601,0.8203125 v -0.703125 z m 5.075684,0 H 46.51418 v 4.17480472 h 0.673828 z m 0,-1.640625 H 46.51418 v 0.8496094 h 0.673828 z m 1.124267,1.640625 v 4.17480472 h 0.673829 V -2.2979805 c 0,-0.8496093 0.439453,-1.4208984 1.127929,-1.4208984 0.527344,0 0.864258,0.3222656 0.864258,0.8349609 v 2.88574222 h 0.65918 V -3.1475898 c 0,-0.703125 -0.512696,-1.1425782 -1.31836,-1.1425782 -0.629882,0 -1.02539,0.234375 -1.391601,0.8203125 v -0.703125 z m 7.155762,0 v 0.600586 C 55.131123,-4.055793 54.735615,-4.290168 54.193623,-4.290168 c -1.054687,0 -1.772461,0.9228516 -1.772461,2.2705078 0,0.6884766 0.175781,1.24511723 0.527344,1.64062504 0.307617,0.3515625 0.74707,0.57128907 1.186523,0.57128907 0.527344,0 0.893555,-0.234375 1.274414,-0.76171875 v 0.21972656 c 0,0.57128906 -0.07324,0.90820312 -0.249023,1.14257812 -0.175781,0.24902346 -0.512695,0.39550786 -0.922852,0.39550786 -0.292968,0 -0.571289,-0.087891 -0.74707,-0.23437504 -0.161133,-0.1171875 -0.219727,-0.21972657 -0.263672,-0.46875 h -0.673828 c 0.07324,0.77636714 0.688477,1.25976564 1.669922,1.25976564 0.615234,0 1.157226,-0.2050781 1.420898,-0.5419922 0.322266,-0.38085938 0.439453,-0.90820313 0.439453,-1.88964844 V -4.1729805 Z m -1.201172,0.4980469 c 0.717774,0 1.142578,0.6005859 1.142578,1.640625 0,0.9960938 -0.439453,1.61132813 -1.127929,1.61132813 -0.732422,0 -1.171875,-0.61523433 -1.171875,-1.62597653 0,-1.0107422 0.454101,-1.6259766 1.157226,-1.6259766 z m 8.045655,0.6591797 c 0,-0.8203125 -0.541993,-1.2744141 -1.50879,-1.2744141 -0.966796,0 -1.596679,0.4980469 -1.596679,1.2744141 0,0.6445312 0.322265,0.9667969 1.318359,1.2011719 l 0.615235,0.1464843 c 0.46875,0.1171875 0.644531,0.2783204 0.644531,0.5859375 0,0.39550786 -0.38086,0.65917973 -0.966797,0.65917973 -0.351563,0 -0.65918,-0.10253906 -0.834961,-0.27832031 -0.102539,-0.13183594 -0.146484,-0.24902344 -0.19043,-0.54199222 h -0.703125 c 0.04395,0.96679691 0.585938,1.43554691 1.669922,1.43554691 1.054688,0 1.728516,-0.52734375 1.728516,-1.33300781 0,-0.6152344 -0.351563,-0.9667969 -1.186524,-1.1572266 l -0.629882,-0.1611328 c -0.541993,-0.1171875 -0.776368,-0.2929687 -0.776368,-0.5859375 0,-0.3808594 0.336914,-0.6298828 0.878907,-0.6298828 0.541992,0 0.820312,0.2197266 0.834961,0.6591797 z m 4.588623,1.1572266 c 0,-0.6445313 -0.04395,-1.0253907 -0.161133,-1.3330079 -0.278321,-0.6884765 -0.908203,-1.0986328 -1.699219,-1.0986328 -1.157227,0 -1.904297,0.8935547 -1.904297,2.2558594 0,1.37695313 0.717774,2.22656251 1.889649,2.22656251 0.966796,0 1.625976,-0.54199219 1.787109,-1.45019531 h -0.673828 c -0.175781,0.54199218 -0.556641,0.83496093 -1.083985,0.83496093 -0.424804,0 -0.776367,-0.19042969 -1.010742,-0.54199219 C 63.883564,-1.2139961 63.839619,-1.4483711 63.824971,-1.8585273 Z m -3.061524,-0.5419922 c 0.05859,-0.7763672 0.527344,-1.2744141 1.201172,-1.2744141 0.644531,0 1.157227,0.5419922 1.157227,1.2158203 0,0.029297 0,0.043945 -0.01465,0.058594 z m 5.427246,-1.772461 h -0.688476 v -1.1425781 h -0.65918 v 1.1425781 h -0.556641 v 0.5419922 h 0.556641 v 3.14941408 c 0,0.42480469 0.292969,0.67382813 0.805664,0.67382813 0.161133,0 0.322266,-0.0292969 0.541992,-0.0585938 v -0.55664063 c -0.08789,0.0146484 -0.190429,0.0292969 -0.322265,0.0292969 -0.278321,0 -0.366211,-0.0878906 -0.366211,-0.38085938 v -2.8564453 h 0.688476 z m 3.68042,1.1572266 c 0,-0.8203125 -0.541992,-1.2744141 -1.508789,-1.2744141 -0.966797,0 -1.59668,0.4980469 -1.59668,1.2744141 0,0.6445312 0.322266,0.9667969 1.31836,1.2011719 l 0.615234,0.1464843 c 0.46875,0.1171875 0.644531,0.2783204 0.644531,0.5859375 0,0.39550786 -0.380859,0.65917973 -0.966796,0.65917973 -0.351563,0 -0.65918,-0.10253906 -0.834961,-0.27832031 -0.102539,-0.13183594 -0.146485,-0.24902344 -0.19043,-0.54199222 h -0.703125 c 0.04395,0.96679691 0.585937,1.43554691 1.669922,1.43554691 1.054687,0 1.728515,-0.52734375 1.728515,-1.33300781 0,-0.6152344 -0.351562,-0.9667969 -1.186523,-1.1572266 L 71.30666,-2.4591133 c -0.541992,-0.1171875 -0.776367,-0.2929687 -0.776367,-0.5859375 0,-0.3808594 0.336914,-0.6298828 0.878906,-0.6298828 0.541992,0 0.820313,0.2197266 0.834961,0.6591797 z m 0,0"
       style="fill:#000000;fill-opacity:1;fill-rule:nonzero;stroke:none"
       aria-label="Buildingtrainingsets"
       transform="matrix(1.0666667,0,0,1.0666667,217.088,98.005867)" />
    <path
       id="path21"
       d="m 124.68452,-33.83437 c 0,3.89113 -3.15432,7.04544 -7.04545,7.04544 -3.89113,0 -7.04544,-3.15431 -7.04544,-7.04544 0,-3.89113 3.15431,-7.04545 7.04544,-7.04545 3.89113,0 7.04545,3.15432 7.04545,7.04545 z"
       style="fill:#ffd24c;fill-opacity:1;fill-rule:nonzero;stroke:none"
       transform="matrix(1.0666667,0,0,-1.0666667,80.125867,80.1264)" />
    <path
       id="path22"
       d="M 1.4812207,-2.5065098 H 3.400166 c 0.6591797,0 0.9521485,0.3222657 0.9521485,1.0400391 l -0.014649,0.51269531 c 0,0.36621094 0.073242,0.71777344 0.1757813,0.95214844 H 5.407002 V -0.19205664 C 5.1286816,-0.38248633 5.0847363,-0.58756445 5.0554395,-1.3492832 c 0,-0.9667969 -0.1464844,-1.2451172 -0.7763672,-1.5234375 0.6445312,-0.3222656 0.9082031,-0.7177734 0.9082031,-1.3769531 0,-1.0107422 -0.6298828,-1.5673828 -1.7724609,-1.5673828 H 0.74879883 v 5.81542965 H 1.4812207 Z m 0,-0.6445312 v -2.006836 h 1.8017578 c 0.4101563,0 0.6445313,0.058594 0.834961,0.2197266 0.1904296,0.1757813 0.2929687,0.4394531 0.2929687,0.7910156 0,0.6738282 -0.3515625,0.9960938 -1.1279297,0.9960938 z m 8.3605957,1.2890625 c 0,-0.6445313 -0.043945,-1.0253906 -0.1611328,-1.3330078 -0.2783203,-0.6884766 -0.9082031,-1.0986328 -1.6992188,-1.0986328 -1.1572265,0 -1.9042968,0.8935546 -1.9042968,2.2558593 0,1.37695316 0.7177734,2.22656253 1.8896484,2.22656253 0.9667969,0 1.6259766,-0.54199218 1.7871094,-1.45019533 H 9.0800977 c -0.1757813,0.54199221 -0.5566407,0.83496096 -1.0839844,0.83496096 -0.4248047,0 -0.7763672,-0.19042969 -1.0107422,-0.54199219 C 6.8242383,-1.2174473 6.780293,-1.4518223 6.7656445,-1.8619785 Z M 6.780293,-2.4039707 c 0.058594,-0.7763672 0.5273437,-1.2744141 1.2011718,-1.2744141 0.6445313,0 1.1572266,0.5419922 1.1572266,1.2158203 0,0.029297 0,0.043945 -0.014648,0.058594 z m 5.412598,-1.7724609 h -0.688477 v -0.6591797 c 0,-0.2783203 0.161133,-0.4248047 0.454102,-0.4248047 0.05859,0 0.08789,0 0.234375,0.014648 v -0.5419922 c -0.146485,-0.043945 -0.234375,-0.043945 -0.366211,-0.043945 -0.615235,0 -0.981446,0.3515625 -0.981446,0.9521485 v 0.703125 h -0.55664 v 0.5419921 h 0.55664 v 3.63281255 h 0.65918 V -3.6344395 h 0.688477 z m 1.464843,0 h -0.659179 v 4.17480465 h 0.659179 z m 0,-1.640625 h -0.659179 v 0.8496093 h 0.659179 z m 1.069336,1.640625 v 4.17480465 h 0.673828 V -2.3014316 c 0,-0.8496094 0.439454,-1.4208985 1.12793,-1.4208985 0.527344,0 0.864258,0.3222656 0.864258,0.834961 v 2.88574215 h 0.65918 V -3.151041 c 0,-0.703125 -0.512696,-1.1425781 -1.31836,-1.1425781 -0.629883,0 -1.02539,0.234375 -1.391601,0.8203125 v -0.703125 z m 5.075684,0 h -0.673828 v 4.17480465 h 0.673828 z m 0,-1.640625 h -0.673828 v 0.8496093 h 0.673828 z m 1.124267,1.640625 v 4.17480465 H 21.60085 V -2.3014316 c 0,-0.8496094 0.439453,-1.4208985 1.127929,-1.4208985 0.527344,0 0.864258,0.3222656 0.864258,0.834961 v 2.88574215 h 0.65918 V -3.151041 c 0,-0.703125 -0.512696,-1.1425781 -1.31836,-1.1425781 -0.629882,0 -1.02539,0.234375 -1.391601,0.8203125 v -0.703125 z m 7.155762,0 v 0.6005859 c -0.336914,-0.4833984 -0.732422,-0.7177734 -1.274414,-0.7177734 -1.054687,0 -1.772461,0.9228515 -1.772461,2.2705078 0,0.6884765 0.175781,1.24511716 0.527344,1.64062497 0.307617,0.3515625 0.74707,0.57128906 1.186523,0.57128906 0.527344,0 0.893555,-0.234375 1.274414,-0.76171875 v 0.21972657 c 0,0.57128906 -0.07324,0.90820312 -0.249023,1.14257812 -0.175781,0.24902343 -0.512695,0.39550783 -0.922852,0.39550783 -0.292968,0 -0.571289,-0.087891 -0.74707,-0.23437502 -0.161133,-0.1171875 -0.219726,-0.21972656 -0.263672,-0.46875 h -0.673828 c 0.07324,0.77636722 0.688477,1.25976562 1.669922,1.25976562 0.615234,0 1.157227,-0.2050781 1.420898,-0.5419922 0.322266,-0.38085935 0.439454,-0.9082031 0.439454,-1.88964842 V -4.1764316 Z m -1.201172,0.4980468 c 0.717774,0 1.142578,0.600586 1.142578,1.640625 0,0.9960938 -0.439453,1.61132816 -1.127929,1.61132816 -0.732422,0 -1.171875,-0.61523436 -1.171875,-1.62597656 0,-1.0107422 0.454101,-1.6259766 1.157226,-1.6259766 z m 8.822022,3.28125003 c -0.07324,0.0146484 -0.102539,0.0146484 -0.146485,0.0146484 -0.234375,0 -0.351562,-0.1171875 -0.351562,-0.32226562 V -3.151041 c 0,-0.7470703 -0.541992,-1.1425781 -1.567383,-1.1425781 -0.615234,0 -1.113281,0.1757812 -1.391601,0.4833984 -0.19043,0.2197266 -0.278321,0.4541016 -0.292969,0.8642578 h 0.673828 c 0.05859,-0.5126953 0.366211,-0.7324219 0.981445,-0.7324219 0.600586,0 0.9375,0.2197266 0.9375,0.6152344 v 0.1757813 c 0,0.2783203 -0.175781,0.3955078 -0.703125,0.46875 -0.9375,0.1171875 -1.083984,0.1464843 -1.333008,0.2490234 -0.483398,0.2050781 -0.732421,0.5712891 -0.732421,1.1132812 0,0.7617188 0.527343,1.24511723 1.362304,1.24511723 0.527344,0 0.952149,-0.19042968 1.420899,-0.61523437 0.05859,0.41015625 0.263672,0.61523437 0.688476,0.61523437 0.131836,0 0.234375,-0.0292969 0.454102,-0.0732422 z M 34.546406,-1.3199863 c 0,0.2197265 -0.07324,0.36621091 -0.263672,0.54199216 -0.27832,0.24902344 -0.600586,0.38085937 -0.996093,0.38085937 -0.512696,0 -0.820313,-0.24902343 -0.820313,-0.67382813 0,-0.4394531 0.292969,-0.6591797 1.010742,-0.7617187 0.703125,-0.1025391 0.834961,-0.131836 1.069336,-0.234375 z m 2.541504,-4.4970703 h -0.673828 v 5.81542965 h 0.673828 z m 3.837891,1.640625 v 0.6005859 c -0.336914,-0.4833984 -0.732422,-0.7177734 -1.274414,-0.7177734 -1.054688,0 -1.772461,0.9228515 -1.772461,2.2705078 0,0.6884765 0.175781,1.24511716 0.527344,1.64062497 0.307617,0.3515625 0.74707,0.57128906 1.186523,0.57128906 0.527344,0 0.893555,-0.234375 1.274414,-0.76171875 v 0.21972657 c 0,0.57128906 -0.07324,0.90820312 -0.249023,1.14257812 -0.175782,0.24902343 -0.512696,0.39550783 -0.922852,0.39550783 -0.292969,0 -0.571289,-0.087891 -0.74707,-0.23437502 -0.161133,-0.1171875 -0.219727,-0.21972656 -0.263672,-0.46875 h -0.673828 c 0.07324,0.77636722 0.688476,1.25976562 1.669922,1.25976562 0.615234,0 1.157226,-0.2050781 1.420898,-0.5419922 0.322266,-0.38085935 0.439453,-0.9082031 0.439453,-1.88964842 V -4.1764316 Z m -1.201172,0.4980468 c 0.717773,0 1.142578,0.600586 1.142578,1.640625 0,0.9960938 -0.439453,1.61132816 -1.12793,1.61132816 -0.732422,0 -1.171875,-0.61523436 -1.171875,-1.62597656 0,-1.0107422 0.454102,-1.6259766 1.157227,-1.6259766 z m 4.519043,-0.6152343 c -1.171875,0 -1.875,0.8349609 -1.875,2.2412109 0,1.39160156 0.688476,2.24121093 1.889648,2.24121093 1.157227,0 1.875,-0.84960937 1.875,-2.21191403 0,-1.4501953 -0.688476,-2.2705078 -1.889648,-2.2705078 z m 0.01465,0.6152343 c 0.747071,0 1.186524,0.6152344 1.186524,1.640625 0,0.9814453 -0.454102,1.61132816 -1.186524,1.61132816 -0.74707,0 -1.201172,-0.61523436 -1.201172,-1.62597656 0,-1.0107422 0.454102,-1.6259766 1.201172,-1.6259766 z m 2.805176,-0.4980468 v 4.17480465 h 0.65918 V -2.1695957 c 0,-0.6005859 0.161133,-0.9814453 0.46875,-1.2158203 0.205078,-0.1611328 0.410156,-0.2050781 0.878906,-0.2050781 v -0.6884766 c -0.117187,-0.014648 -0.175781,-0.014648 -0.263672,-0.014648 -0.424805,0 -0.74707,0.2490234 -1.142578,0.8789062 v -0.7617187 z m 3.416748,0 h -0.673828 v 4.17480465 h 0.673828 z m 0,-1.640625 h -0.673828 v 0.8496093 h 0.673828 z m 2.589111,1.640625 h -0.688476 v -1.1425782 h -0.65918 v 1.1425782 h -0.55664 v 0.5419921 h 0.55664 v 3.14941411 c 0,0.42480469 0.292969,0.67382812 0.805664,0.67382812 0.161133,0 0.322266,-0.0292969 0.541992,-0.0585938 v -0.55664062 c -0.08789,0.0146484 -0.190429,0.0292969 -0.322265,0.0292969 -0.27832,0 -0.366211,-0.0878906 -0.366211,-0.38085937 V -3.6344395 h 0.688476 z m 0.750733,-1.640625 v 5.81542965 h 0.65918 V -2.3014316 c 0,-0.8496094 0.454101,-1.4208985 1.127929,-1.4208985 0.219727,0 0.439453,0.073242 0.600586,0.2050781 0.19043,0.131836 0.263672,0.3222657 0.263672,0.6298829 v 2.88574215 h 0.65918 V -3.151041 c 0,-0.703125 -0.498047,-1.1425781 -1.303711,-1.1425781 -0.600586,0 -0.952149,0.1757812 -1.347656,0.6884765 v -2.211914 z m 4.431152,1.640625 v 4.17480465 H 58.92507 V -2.6236973 c 0,-0.6005859 0.439453,-1.0986328 0.981446,-1.0986328 0.483398,0 0.761718,0.3076172 0.761718,0.8496094 v 2.87109375 h 0.673829 V -2.6236973 c 0,-0.6005859 0.439453,-1.0986328 0.981445,-1.0986328 0.483398,0 0.776367,0.3222656 0.776367,0.8496094 v 2.87109375 h 0.673828 V -3.1363926 c 0,-0.7470703 -0.439453,-1.1572265 -1.21582,-1.1572265 -0.556641,0 -0.893555,0.1611328 -1.289063,0.6298828 -0.249023,-0.4394532 -0.571289,-0.6298828 -1.113281,-0.6298828 -0.571289,0 -0.9375,0.2050781 -1.289062,0.703125 v -0.5859375 z m 9.569092,1.1572265 c 0,-0.8203125 -0.541992,-1.274414 -1.508789,-1.274414 -0.966797,0 -1.59668,0.4980468 -1.59668,1.274414 0,0.6445313 0.322266,0.9667969 1.31836,1.2011719 l 0.615234,0.1464844 c 0.46875,0.1171875 0.644531,0.2783203 0.644531,0.5859375 0,0.39550778 -0.380859,0.65917966 -0.966797,0.65917966 -0.351562,0 -0.659179,-0.10253906 -0.834961,-0.27832031 -0.102539,-0.13183594 -0.146484,-0.24902344 -0.190429,-0.54199215 h -0.703125 c 0.04394,0.96679683 0.585937,1.43554683 1.669922,1.43554683 1.054687,0 1.728515,-0.52734375 1.728515,-1.33300783 0,-0.6152344 -0.351562,-0.9667969 -1.186523,-1.1572265 L 66.179707,-2.4625645 C 65.637715,-2.579752 65.40334,-2.7555332 65.40334,-3.048502 c 0,-0.3808593 0.336914,-0.6298828 0.878906,-0.6298828 0.541992,0 0.820313,0.2197266 0.834961,0.6591797 z m 0,0"
       style="fill:#000000;fill-opacity:1;fill-rule:nonzero;stroke:none"
       aria-label="Refningalgorithms"
       transform="matrix(1.0666667,0,0,1.0666667,217.088,118.39627)" />
    <path
       id="path23"
       d="m 124.68452,-52.85927 c 0,3.89113 -3.15432,7.04546 -7.04545,7.04546 -3.89113,0 -7.04544,-3.15433 -7.04544,-7.04546 0,-3.89113 3.15431,-7.04544 7.04544,-7.04544 3.89113,0 7.04545,3.15431 7.04545,7.04544 z"
       style="fill:#b26cba;fill-opacity:1;fill-rule:nonzero;stroke:none"
       transform="matrix(1.0666667,0,0,-1.0666667,80.125867,80.1264)" />
    <path
       id="path24"
       d="m 3.1071973,-5.904625 c -1.6699219,0 -2.7978516,1.2304688 -2.7978516,3.046875 0,1.8164063 1.1279297,3.046875 2.7978516,3.046875 0.703125,0 1.3330078,-0.21972656 1.8017578,-0.61523437 0.6298828,-0.54199219 1.0107422,-1.43554683 1.0107422,-2.38769533 0,-1.875 -1.1132813,-3.0908203 -2.8125,-3.0908203 z m 0,0.6445313 c 1.2597656,0 2.0654297,0.9667968 2.0654297,2.4316406 0,1.40625 -0.834961,2.35839841 -2.0654297,2.35839841 -1.2304688,0 -2.0654297,-0.95214841 -2.0654297,-2.38769531 0,-1.4355469 0.8349609,-2.4023437 2.0654297,-2.4023437 z m 5.1159668,1.0839843 H 7.5346875 V -5.3186875 H 6.8755078 v 1.1425781 H 6.3188672 v 0.5419922 h 0.5566406 v 3.14941408 c 0,0.42480468 0.2929688,0.67382812 0.8056641,0.67382812 0.1611328,0 0.3222656,-0.0292969 0.5419922,-0.0585938 v -0.55664062 c -0.087891,0.0146484 -0.1904297,0.0292969 -0.3222657,0.0292969 -0.2783203,0 -0.3662109,-0.0878906 -0.3662109,-0.38085937 V -3.6341172 h 0.6884766 z m 0.7507324,-1.640625 v 5.81542971 H 9.6330762 V -2.3011094 c 0,-0.8496093 0.4541018,-1.4208984 1.1279298,-1.4208984 0.219726,0 0.439453,0.073242 0.600586,0.2050781 0.190429,0.131836 0.263672,0.3222656 0.263672,0.6298828 v 2.88574221 h 0.659179 V -3.1507187 c 0,-0.703125 -0.498047,-1.1425782 -1.303711,-1.1425782 -0.600586,0 -0.952148,0.1757813 -1.3476558,0.6884766 v -2.2119141 z m 7.9614255,3.9550782 c 0,-0.6445313 -0.04395,-1.0253907 -0.161133,-1.3330079 -0.27832,-0.6884765 -0.908203,-1.0986328 -1.699218,-1.0986328 -1.157227,0 -1.904297,0.8935547 -1.904297,2.2558594 0,1.37695313 0.717773,2.2265625 1.889648,2.2265625 0.966797,0 1.625977,-0.54199219 1.78711,-1.4501953 h -0.673828 c -0.175782,0.54199218 -0.556641,0.83496093 -1.083985,0.83496093 -0.424805,0 -0.776367,-0.19042969 -1.010742,-0.54199219 C 13.917744,-1.217125 13.873799,-1.4515 13.85915,-1.8616562 Z m -3.061523,-0.5419922 c 0.05859,-0.7763672 0.527344,-1.2744141 1.201172,-1.2744141 0.644531,0 1.157226,0.5419922 1.157226,1.2158203 0,0.029297 0,0.043945 -0.01465,0.058594 z m 3.962402,-1.772461 v 4.17480471 h 0.65918 V -2.1692734 c 0,-0.600586 0.161133,-0.9814453 0.46875,-1.2158203 0.205078,-0.1611329 0.410156,-0.2050782 0.878906,-0.2050782 v -0.6884765 c -0.117187,-0.014648 -0.175781,-0.014648 -0.263672,-0.014648 -0.424804,0 -0.74707,0.2490235 -1.142578,0.8789063 v -0.7617188 z m 0,0"
       style="fill:#000000;fill-opacity:1;fill-rule:nonzero;stroke:none"
       aria-label="Other"
       transform="matrix(1.0666667,0,0,1.0666667,217.088,139.54827)" />
  </g>
</svg>
