<?xml version="1.0" encoding="UTF-8" standalone="no"?>
<!-- Created with Inkscape (http://www.inkscape.org/) -->

<svg
   version="1.1"
   id="svg1"
   width="320.07733"
   height="165.90134"
   viewBox="0 0 320.07733 165.90134"
   xmlns="http://www.w3.org/2000/svg"
   xmlns:svg="http://www.w3.org/2000/svg">
  <defs
     id="defs1" />
  <g
     id="g1">
    <path
       id="path1"
       d="M 0,0 H 75.11885 C 75.11885,41.48752 41.48752,75.11885 0,75.11885 -41.48752,75.11885 -75.11885,41.48752 -75.11885,0 c 0,-15.85683 5.0262,-31.32053 14.34499,-44.14905 z"
       style="fill:#98d286;fill-opacity:1;fill-rule:nonzero;stroke:none"
       transform="matrix(1.0666667,0,0,-1.0666667,80.125867,80.1264)" />
    <path
       id="path2"
       d="m 4.466123,-4.7023184 c -0.1611328,-1.040039 -0.8349609,-1.6552734 -1.8017578,-1.6552734 -0.703125,0 -1.3330078,0.3369141 -1.71386715,0.9082031 -0.38085938,0.6152344 -0.57128907,1.3916016 -0.57128907,2.5488282 0,1.0693359 0.16113282,1.7578125 0.54199219,2.31445308 0.33691403,0.51269531 0.89355473,0.79101562 1.59667973,0.79101562 1.2158203,0 2.0800781,-0.89355468 2.0800781,-2.1386719 0,-1.1865234 -0.8056641,-2.0214843 -1.9482422,-2.0214843 -0.6298828,0 -1.1132813,0.2490234 -1.4648438,0.703125 0.014648,-1.538086 0.5126954,-2.4023438 1.4208985,-2.4023438 0.5566406,0 0.9375,0.3515625 1.0693359,0.9521484 z M 2.5471777,-3.252123 c 0.7617188,0 1.2451172,0.5273437 1.2451172,1.3769531 0,0.805664 -0.5419922,1.3769531 -1.2597656,1.3769531 -0.7470703,0 -1.3037109,-0.6005859 -1.3037109,-1.4208984 0,-0.7910157 0.5419921,-1.3330078 1.3183593,-1.3330078 z m 4.8999024,-3.1054688 c -0.5859375,0 -1.1279297,0.2636719 -1.4501953,0.703125 -0.4248047,0.5566406 -0.6298828,1.40625 -0.6298828,2.578125 0,2.13867188 0.7177734,3.28125 2.0800781,3.28125 1.3476562,0 2.0800781,-1.14257812 2.0800781,-3.2226562 0,-1.2451172 -0.1904297,-2.0654297 -0.6152344,-2.6367188 -0.336914,-0.4541016 -0.8642578,-0.703125 -1.4648437,-0.703125 z m 0,0.703125 c 0.8496094,0 1.274414,0.8642578 1.274414,2.5634766 0,1.8017578 -0.4101562,2.63671872 -1.2890625,2.63671872 -0.8349609,0 -1.2597656,-0.87890622 -1.2597656,-2.60742192 0,-1.743164 0.4248047,-2.5927734 1.2744141,-2.5927734 z m 4.3103029,-0.4833984 c -0.834961,0 -1.523438,0.6884765 -1.523438,1.5234375 0,0.8496093 0.688477,1.5380859 1.523438,1.5380859 0.834961,0 1.523437,-0.6884766 1.523437,-1.5087891 0,-0.8789062 -0.659179,-1.5527343 -1.523437,-1.5527343 z m 0,0.6298828 c 0.512695,0 0.908203,0.3955078 0.908203,0.9082031 0,0.4980469 -0.410156,0.8935547 -0.908203,0.8935547 -0.498047,0 -0.908203,-0.4101563 -0.908203,-0.9082031 0,-0.4980469 0.410156,-0.8935547 0.908203,-0.8935547 z m 3.676758,-0.8496094 -3.544922,6.53320313 h 0.585937 l 3.544922,-6.53320313 z m 0.703125,3.4716797 c -0.834961,0 -1.523438,0.6884766 -1.523438,1.5234375 0,0.84960937 0.688477,1.53808593 1.538086,1.53808593 0.820313,0 1.523438,-0.68847656 1.523438,-1.52343753 0,-0.8642578 -0.673829,-1.5380859 -1.538086,-1.5380859 z m 0,0.6298828 c 0.512695,0 0.908203,0.3955078 0.908203,0.9082031 0,0.48339847 -0.410157,0.89355472 -0.893555,0.89355472 -0.512695,0 -0.922852,-0.41015625 -0.922852,-0.90820312 0,-0.4980469 0.410157,-0.8935547 0.908204,-0.8935547 z m 0,0"
       style="fill:#000000;fill-opacity:1;fill-rule:nonzero;stroke:none"
       aria-label="60%"
       transform="matrix(1.0666667,0,0,1.0666667,63.130667,60.5744)" />
    <path
       id="path3"
       d="m 0,0 -60.77373,-44.14871 c 18.10572,-24.92461 49.61081,-36.26649 79.44927,-28.60744 z"
       style="fill:#fa4c3d;fill-opacity:1;fill-rule:nonzero;stroke:none"
       transform="matrix(1.0666667,0,0,-1.0666667,80.125867,80.1264)" />
    <path
       id="path4"
       d="M 2.3284102,-4.5252285 V 0.00113867 H 3.1047773 V -6.3562832 H 2.592082 C 2.3137617,-5.3748379 2.1379805,-5.243002 0.90751172,-5.0965176 v 0.5712891 z m 3.1274414,3.0761719 c 0.1611328,1.04003902 0.8349609,1.6552734 1.8017578,1.6552734 0.703125,0 1.3476562,-0.33691407 1.7138672,-0.90820313 0.3955078,-0.61523437 0.5859375,-1.39160157 0.5859375,-2.54882817 0,-1.0693359 -0.1757813,-1.743164 -0.5419922,-2.3144531 -0.3515625,-0.5126953 -0.9082031,-0.7910156 -1.6113281,-0.7910156 -1.2011719,0 -2.0800782,0.8935547 -2.0800782,2.1386719 0,1.1865234 0.8056641,2.0214843 1.9628907,2.0214843 0.6005859,0 1.040039,-0.2197265 1.4501953,-0.703125 -0.014649,1.5527344 -0.5126953,2.4023438 -1.4208985,2.4023438 -0.5566406,0 -0.9375,-0.3515625 -1.0693359,-0.9521484 z m 1.9482422,-4.21875 c 0.7324218,0 1.2890625,0.6152343 1.2890625,1.4355468 0,0.7763672 -0.5566407,1.3330078 -1.3183594,1.3330078 -0.7617188,0 -1.2451172,-0.5273437 -1.2451172,-1.3769531 0,-0.805664 0.5419922,-1.3916015 1.2744141,-1.3916015 z m 4.3542482,-0.46875 c -0.834961,0 -1.523438,0.6884765 -1.523438,1.5234375 0,0.8496093 0.688477,1.5380859 1.523438,1.5380859 0.834961,0 1.523437,-0.6884766 1.523437,-1.5087891 0,-0.8789062 -0.659179,-1.5527343 -1.523437,-1.5527343 z m 0,0.6298828 c 0.512695,0 0.908203,0.3955078 0.908203,0.9082031 0,0.4980469 -0.410156,0.8935547 -0.908203,0.8935547 -0.498047,0 -0.908203,-0.4101563 -0.908203,-0.9082031 0,-0.4980469 0.410156,-0.8935547 0.908203,-0.8935547 z M 15.4351,-6.3562832 11.890178,0.17691992 h 0.585937 l 3.544922,-6.53320312 z m 0.703125,3.4716797 c -0.834961,0 -1.523438,0.6884765 -1.523438,1.5234375 0,0.84960936 0.688477,1.53808592 1.538086,1.53808592 0.820313,0 1.523438,-0.68847656 1.523438,-1.52343752 0,-0.8642578 -0.673829,-1.5380859 -1.538086,-1.5380859 z m 0,0.6298828 c 0.512695,0 0.908203,0.3955078 0.908203,0.9082031 0,0.48339846 -0.410157,0.89355471 -0.893555,0.89355471 -0.512695,0 -0.922852,-0.41015625 -0.922852,-0.90820311 0,-0.4980469 0.410157,-0.8935547 0.908204,-0.8935547 z m 0,0"
       style="fill:#000000;fill-opacity:1;fill-rule:nonzero;stroke:none"
       aria-label="19%"
       transform="matrix(1.0666667,0,0,1.0666667,53.1648,131.73707)" />
    <path
       id="path5"
       d="m 0,0 18.67525,-72.75635 c 13.80279,3.54183 26.32187,10.9453 36.07736,21.33237 z"
       style="fill:#ff9d23;fill-opacity:1;fill-rule:nonzero;stroke:none"
       transform="matrix(1.0666667,0,0,-1.0666667,80.125867,80.1264)" />
    <path
       id="path6"
       d="m 0.46983984,-1.4508223 c 0.16113282,1.0400391 0.83496096,1.65527347 1.80175786,1.65527347 0.703125,0 1.3476562,-0.33691406 1.7138671,-0.90820312 0.3955079,-0.61523435 0.5859375,-1.39160155 0.5859375,-2.54882815 0,-1.0693359 -0.1757812,-1.743164 -0.5419921,-2.3144531 C 3.6778477,-6.0797285 3.121207,-6.3580488 2.418082,-6.3580488 c -1.2011718,0 -2.08007809,0.8935547 -2.08007809,2.1386718 0,1.1865235 0.80566409,2.0214844 1.96289059,2.0214844 0.600586,0 1.0400391,-0.2197265 1.4501953,-0.703125 -0.014648,1.5527344 -0.5126953,2.40234377 -1.4208984,2.40234377 -0.5566406,0 -0.9375,-0.3515625 -1.0693359,-0.95214847 z m 1.94824216,-4.21875 c 0.7324219,0 1.2890625,0.6152344 1.2890625,1.4355469 0,0.7763672 -0.5566406,1.3330078 -1.3183593,1.3330078 -0.7617188,0 -1.2451172,-0.5273437 -1.2451172,-1.3769531 0,-0.8056641 0.5419922,-1.3916016 1.274414,-1.3916016 z m 4.3542481,-0.46875 c -0.834961,0 -1.5234375,0.6884766 -1.5234375,1.5234375 0,0.8496094 0.6884765,1.538086 1.5234375,1.538086 0.8349609,0 1.5234375,-0.6884766 1.5234375,-1.5087891 0,-0.8789062 -0.6591797,-1.5527344 -1.5234375,-1.5527344 z m 0,0.6298828 c 0.5126953,0 0.9082031,0.3955079 0.9082031,0.9082032 0,0.4980468 -0.4101562,0.8935547 -0.9082031,0.8935547 -0.4980469,0 -0.9082031,-0.4101563 -0.9082031,-0.9082032 0,-0.4980468 0.4101562,-0.8935547 0.9082031,-0.8935547 z M 10.449088,-6.3580488 6.904166,0.1751543 h 0.5859375 l 3.5449215,-6.5332031 z m 0.703125,3.4716797 c -0.834961,0 -1.5234376,0.6884765 -1.5234376,1.5234375 0,0.84960933 0.6884766,1.5380859 1.5380856,1.5380859 0.820313,0 1.523438,-0.68847657 1.523438,-1.5234375 0,-0.8642578 -0.673828,-1.5380859 -1.538086,-1.5380859 z m 0,0.6298828 c 0.512695,0 0.908203,0.3955078 0.908203,0.9082031 0,0.48339843 -0.410156,0.89355468 -0.893555,0.89355468 -0.512695,0 -0.922851,-0.41015625 -0.922851,-0.90820308 0,-0.4980469 0.410156,-0.8935547 0.908203,-0.8935547 z m 0,0"
       style="fill:#000000;fill-opacity:1;fill-rule:nonzero;stroke:none"
       aria-label="9%"
       transform="matrix(1.0666667,0,0,1.0666667,103.3504,134.3952)" />
    <path
       id="path7"
       d="m 0,0 54.75238,-51.424 c 5.39298,5.74256 9.85866,12.31044 13.21251,19.43879 z"
       style="fill:#3381b9;fill-opacity:1;fill-rule:nonzero;stroke:none"
       transform="matrix(1.0666667,0,0,-1.0666667,80.125867,80.1264)" />
    <path
       id="path8"
       d="M 4.2621172,-6.3558203 H 0.98086719 l -0.46875,3.4570312 H 1.2298906 c 0.3808594,-0.4394531 0.6738281,-0.5859375 1.171875,-0.5859375 0.8496094,0 1.3916016,0.5859375 1.3916016,1.5234375 0,0.9082032 -0.5273438,1.46484379 -1.3916016,1.46484379 -0.6884765,0 -1.1132812,-0.3515625 -1.3037109,-1.05468749 H 0.30703906 c 0.1171875,0.5126953 0.20507813,0.76171874 0.39550781,0.99609374 0.35156253,0.48339844 0.99609373,0.76171875 1.71386723,0.76171875 1.2890625,0 2.1826171,-0.9375 2.1826171,-2.27050779 0,-1.2597656 -0.8349609,-2.1240235 -2.0507812,-2.1240235 -0.4541016,0 -0.8056641,0.1171875 -1.171875,0.3955079 l 0.2490234,-1.7871094 h 2.6367188 z m 2.5085449,0.2197266 c -0.8349609,0 -1.5234375,0.6884765 -1.5234375,1.5234375 0,0.8496093 0.6884766,1.5380859 1.5234375,1.5380859 0.8349609,0 1.5234375,-0.6884766 1.5234375,-1.5087891 0,-0.8789062 -0.6591797,-1.5527343 -1.5234375,-1.5527343 z m 0,0.6298828 c 0.5126953,0 0.9082031,0.3955078 0.9082031,0.9082031 0,0.4980469 -0.4101562,0.8935547 -0.9082031,0.8935547 -0.4980469,0 -0.9082031,-0.4101563 -0.9082031,-0.9082031 0,-0.4980469 0.4101562,-0.8935547 0.9082031,-0.8935547 z M 10.44742,-6.3558203 6.902498,0.17738281 H 7.4884355 L 11.033357,-6.3558203 Z m 0.703125,3.4716797 c -0.834961,0 -1.5234376,0.6884765 -1.5234376,1.5234375 0,0.84960935 0.6884766,1.53808591 1.5380856,1.53808591 0.820313,0 1.523438,-0.68847656 1.523438,-1.52343751 0,-0.8642578 -0.673828,-1.5380859 -1.538086,-1.5380859 z m 0,0.6298828 c 0.512695,0 0.908203,0.3955078 0.908203,0.9082031 0,0.48339845 -0.410156,0.8935547 -0.893555,0.8935547 -0.512695,0 -0.922851,-0.41015625 -0.922851,-0.9082031 0,-0.4980469 0.410156,-0.8935547 0.908203,-0.8935547 z m 0,0"
       style="fill:#000000;fill-opacity:1;fill-rule:nonzero;stroke:none"
       aria-label="5%"
       transform="matrix(1.0666667,0,0,1.0666667,124.78187,118.48267)" />
    <path
       id="path9"
       d="m 0,0 67.96512,-31.9853 c 2.681,5.69787 4.63876,11.71784 5.81936,17.904 z"
       style="fill:#ffd24c;fill-opacity:1;fill-rule:nonzero;stroke:none"
       transform="matrix(1.0666667,0,0,-1.0666667,80.125867,80.1264)" />
    <path
       id="path10"
       d="M 2.9285488,-1.5240449 V -6.0742187e-4 H 3.7195645 V -1.5240449 h 0.9375 v -0.703125 h -0.9375 V -6.3580293 H 3.133627 l -2.88574223,3.9990234 v 0.834961 z m 0,-0.703125 H 0.93636133 L 2.9285488,-5.010373 Z m 3.8452149,-3.9111328 c -0.834961,0 -1.5234375,0.6884765 -1.5234375,1.5234375 0,0.8496093 0.6884765,1.5380859 1.5234375,1.5380859 0.8349609,0 1.5234375,-0.6884766 1.5234375,-1.5087891 0,-0.8789062 -0.6591797,-1.5527343 -1.5234375,-1.5527343 z m 0,0.6298828 c 0.5126953,0 0.9082031,0.3955078 0.9082031,0.9082031 0,0.4980469 -0.4101563,0.8935547 -0.9082031,0.8935547 -0.4980469,0 -0.9082032,-0.4101563 -0.9082032,-0.9082031 0,-0.4980469 0.4101563,-0.8935547 0.9082032,-0.8935547 z M 10.450521,-6.3580293 6.9055996,0.17517383 H 7.4915371 L 11.036459,-6.3580293 Z m 0.703125,3.4716797 c -0.83496,0 -1.523437,0.6884766 -1.523437,1.5234375 0,0.84960937 0.688477,1.53808593 1.538086,1.53808593 0.820312,0 1.523437,-0.68847656 1.523437,-1.52343753 0,-0.8642578 -0.673828,-1.5380859 -1.538086,-1.5380859 z m 0,0.6298828 c 0.512696,0 0.908204,0.3955078 0.908204,0.9082031 0,0.48339847 -0.410157,0.89355472 -0.893555,0.89355472 -0.512695,0 -0.922852,-0.41015625 -0.922852,-0.90820312 0,-0.4980469 0.410157,-0.8935547 0.908203,-0.8935547 z m 0,0"
       style="fill:#000000;fill-opacity:1;fill-rule:nonzero;stroke:none"
       aria-label="4%"
       transform="matrix(1.0666667,0,0,1.0666667,133.26293,102.94987)" />
    <path
       id="path11"
       d="M 0,0 73.78448,-14.08127 C 74.66936,-9.4425 75.1187,-4.72351 75.1187,5e-5 Z"
       style="fill:#b26cba;fill-opacity:1;fill-rule:nonzero;stroke:none"
       transform="matrix(1.0666667,0,0,-1.0666667,80.125867,80.1264)" />
    <path
       id="path12"
       d="M 1.9758789,-2.9142344 H 2.078418 l 0.336914,-0.014648 c 0.8642578,0 1.3183594,0.3955078 1.3183594,1.1572266 0,0.80566401 -0.4980469,1.27441401 -1.3183594,1.27441401 -0.8642578,0 -1.2890625,-0.42480468 -1.3476562,-1.34765621 H 0.29130859 c 0.0292969,0.5126953 0.1171875,0.8349609 0.27832032,1.12792965 0.32226562,0.61523438 0.93749999,0.92285156 1.81640629,0.92285156 1.3037109,0 2.1533203,-0.77636718 2.1533203,-1.97753901 0,-0.8056641 -0.3222657,-1.2597657 -1.0839844,-1.5234375 0.6005859,-0.234375 0.8935547,-0.6738282 0.8935547,-1.3183594 0,-1.0839844 -0.7324219,-1.7431641 -1.9335938,-1.7431641 -1.2890625,0 -1.96289059,0.703125 -1.99218747,2.0507813 H 1.2141602 c 0,-0.3808594 0.043945,-0.600586 0.1318359,-0.7910157 0.1904297,-0.3515625 0.5859375,-0.571289 1.0693359,-0.571289 0.703125,0 1.1279297,0.4101562 1.1279297,1.0839844 0,0.4541015 -0.1611328,0.7177734 -0.5126953,0.8642578 -0.2197266,0.087891 -0.4980469,0.1318359 -1.0546875,0.1318359 z m 4.7973633,-3.2226562 c -0.8349609,0 -1.5234375,0.6884765 -1.5234375,1.5234375 0,0.8496094 0.6884766,1.5380859 1.5234375,1.5380859 0.8349609,0 1.5234375,-0.6884765 1.5234375,-1.508789 0,-0.8789063 -0.6591797,-1.5527344 -1.5234375,-1.5527344 z m 0,0.6298828 c 0.5126953,0 0.9082031,0.3955078 0.9082031,0.9082031 0,0.4980469 -0.4101562,0.8935547 -0.9082031,0.8935547 -0.4980469,0 -0.9082031,-0.4101562 -0.9082031,-0.9082031 0,-0.4980469 0.4101562,-0.8935547 0.9082031,-0.8935547 z M 10.45,-6.3566172 6.9050781,0.17658594 H 7.4910156 L 11.035938,-6.3566172 Z m 0.703125,3.4716797 c -0.834961,0 -1.5234375,0.6884766 -1.5234375,1.5234375 0,0.84960938 0.6884765,1.53808594 1.5380855,1.53808594 0.820313,0 1.523438,-0.68847656 1.523438,-1.52343754 0,-0.8642578 -0.673828,-1.5380859 -1.538086,-1.5380859 z m 0,0.6298828 c 0.512695,0 0.908203,0.3955078 0.908203,0.9082031 0,0.48339848 -0.410156,0.89355473 -0.893555,0.89355473 -0.512695,0 -0.922851,-0.41015625 -0.922851,-0.90820313 0,-0.4980469 0.410156,-0.8935547 0.908203,-0.8935547 z m 0,0"
       style="fill:#000000;fill-opacity:1;fill-rule:nonzero;stroke:none"
       aria-label="3%"
       transform="matrix(1.0666667,0,0,1.0666667,136.85333,89.452267)" />
    <path
       id="path13"
       d="m 94.47581,36.55144 h 6.64113 v 6.64113 h -6.64113 z"
       style="fill:#98d286;fill-opacity:1;fill-rule:nonzero;stroke:none"
       transform="matrix(1.0666667,0,0,-1.0666667,80.125867,80.1264)" />
    <path
       id="path14"
       d="M 5.933791,-4.5106113 C 5.6701191,-5.9461582 4.8498066,-6.6346348 3.4142598,-6.6346348 c -0.8789063,0 -1.5820313,0.2636719 -2.0654297,0.8056641 -0.60058596,0.6445312 -0.92285158,1.5820312 -0.92285158,2.6367187 0,1.0839844 0.33691406,2.006836 0.95214848,2.6367188 0.5126953,0.52734375 1.1572265,0.76171875 2.0068359,0.76171875 1.5966797,0 2.4902344,-0.86425782 2.6806641,-2.59277345 H 5.2160176 c -0.073242,0.4541016 -0.1611328,0.7617188 -0.3076172,1.0107422 -0.2636719,0.54199218 -0.8203125,0.84960937 -1.5234375,0.84960937 -1.2890625,0 -2.1240234,-1.04003907 -2.1240234,-2.66601567 0,-1.6845703 0.7910156,-2.7099609 2.0507812,-2.7099609 0.5419922,0 1.0253906,0.1611328 1.3037109,0.4101563 0.234375,0.2197265 0.366211,0.4980468 0.46875,0.9814453 z M 7.8344258,-6.5320957 H 7.0873555 v 6.53320312 h 0.7470703 z m 5.2294922,4.4384766 c 0,-0.7177735 -0.05859,-1.1572266 -0.19043,-1.4941407 -0.307617,-0.7763672 -1.02539,-1.2451172 -1.904297,-1.2451172 -1.3037105,0 -2.1533199,1.0107422 -2.1533199,2.5488282 0,1.53808591 0.8203125,2.49023435 2.1386719,2.49023435 1.083984,0 1.816406,-0.61523438 2.006836,-1.62597655 h -0.74707 c -0.205079,0.61523436 -0.629883,0.93749998 -1.230469,0.93749998 -0.46875,0 -0.878906,-0.21972656 -1.1279298,-0.61523438 C 9.6801289,-1.3611973 9.6068867,-1.6248691 9.6068867,-2.0936191 Z M 9.6215352,-2.7088535 c 0.058594,-0.8642578 0.5859378,-1.4355469 1.3476558,-1.4355469 0.732422,0 1.289063,0.6152344 1.289063,1.3916016 0,0.014648 0,0.029297 0,0.043945 z m 8.6169438,2.2705078 c -0.07324,0.0146484 -0.117188,0.0146484 -0.161133,0.0146484 -0.249024,0 -0.395508,-0.13183593 -0.395508,-0.36621093 V -3.5438145 c 0,-0.8349609 -0.615234,-1.2890625 -1.772461,-1.2890625 -0.673828,0 -1.245117,0.2050782 -1.552734,0.5419922 -0.219727,0.2490235 -0.307618,0.5126953 -0.322266,0.9814453 h 0.74707 c 0.05859,-0.571289 0.410157,-0.8349609 1.098633,-0.8349609 0.673828,0 1.054688,0.2490234 1.054688,0.703125 v 0.1904297 c 0,0.3222656 -0.19043,0.4541016 -0.776368,0.5273437 -1.054687,0.131836 -1.21582,0.1757813 -1.508789,0.2929688 -0.541992,0.2197266 -0.820312,0.6445312 -0.820312,1.2451172 0,0.84960933 0.585937,1.39160152 1.538086,1.39160152 0.585937,0 1.069336,-0.20507813 1.596679,-0.68847657 0.05859,0.46875 0.278321,0.68847657 0.776368,0.68847657 0.146484,0 0.263672,-0.0146484 0.498047,-0.0732422 z m -1.303711,-1.0400391 c 0,0.2490235 -0.07324,0.4101563 -0.292969,0.61523441 -0.307617,0.27832031 -0.673828,0.41015625 -1.113281,0.41015625 -0.585938,0 -0.922852,-0.27832031 -0.922852,-0.74707036 0,-0.4980468 0.336914,-0.7470703 1.12793,-0.8642578 0.791015,-0.102539 0.952148,-0.1464843 1.201172,-0.2636718 z m 2.131347,-3.2226562 v 4.70214842 h 0.747071 V -2.591666 c 0,-0.9521485 0.512695,-1.5820313 1.274414,-1.5820313 0.600586,0 0.966796,0.3515625 0.966796,0.9228516 v 3.25195312 h 0.747071 V -3.5438145 c 0,-0.7910156 -0.585938,-1.2890625 -1.494141,-1.2890625 -0.688476,0 -1.142578,0.2636719 -1.552734,0.9228516 V -4.701041 Z m 5.701905,0 h -0.747071 v 4.70214842 h 0.747071 z m 0,-1.8310547 h -0.761719 v 0.9375 h 0.761719 z m 1.274414,1.8310547 v 4.70214842 h 0.74707 V -2.591666 c 0,-0.9521485 0.512695,-1.5820313 1.274414,-1.5820313 0.600586,0 0.966797,0.3515625 0.966797,0.9228516 v 3.25195312 h 0.74707 V -3.5438145 c 0,-0.7910156 -0.585937,-1.2890625 -1.49414,-1.2890625 -0.688477,0 -1.142579,0.2636719 -1.552735,0.9228516 V -4.701041 Z m 8.045654,0 v 0.6884765 c -0.380859,-0.5566406 -0.834961,-0.8203125 -1.435547,-0.8203125 -1.186523,0 -1.992187,1.0400391 -1.992187,2.5634766 0,0.7763672 0.205078,1.40625001 0.585937,1.84570313 0.351563,0.39550782 0.849609,0.62988282 1.347656,0.62988282 0.585938,0 0.996094,-0.24902344 1.420899,-0.83496094 v 0.234375 c 0,0.64453125 -0.07324,1.02539062 -0.263672,1.2890625 -0.205078,0.27832029 -0.585938,0.43945309 -1.040039,0.43945309 -0.336914,0 -0.644531,-0.102539 -0.84961,-0.2636718 C 31.685744,0.93860742 31.612502,0.82141992 31.568557,0.54309961 h -0.761719 c 0.08789,0.87890629 0.776367,1.40624999 1.875,1.40624999 0.703125,0 1.303711,-0.2197266 1.611328,-0.6005859 0.351563,-0.42480472 0.483398,-1.01074222 0.483398,-2.12402347 V -4.701041 Z m -1.347656,0.5566406 c 0.805664,0 1.274414,0.6884766 1.274414,1.8603516 0,1.1132812 -0.483399,1.80175778 -1.274414,1.80175778 -0.805664,0 -1.303711,-0.68847658 -1.303711,-1.83105468 0,-1.1279297 0.498047,-1.8310547 1.303711,-1.8310547 z m 9.91333,3.7060547 c -0.07324,0.0146484 -0.117188,0.0146484 -0.161133,0.0146484 -0.249024,0 -0.395508,-0.13183593 -0.395508,-0.36621093 V -3.5438145 c 0,-0.8349609 -0.615234,-1.2890625 -1.772461,-1.2890625 -0.673828,0 -1.245117,0.2050782 -1.552734,0.5419922 -0.219727,0.2490235 -0.307617,0.5126953 -0.322266,0.9814453 h 0.74707 c 0.05859,-0.571289 0.410157,-0.8349609 1.098633,-0.8349609 0.673828,0 1.054688,0.2490234 1.054688,0.703125 v 0.1904297 c 0,0.3222656 -0.19043,0.4541016 -0.776367,0.5273437 -1.054688,0.131836 -1.215821,0.1757813 -1.508789,0.2929688 -0.541993,0.2197266 -0.820313,0.6445312 -0.820313,1.2451172 0,0.84960933 0.585938,1.39160152 1.538086,1.39160152 0.585937,0 1.069336,-0.20507813 1.59668,-0.68847657 0.05859,0.46875 0.27832,0.68847657 0.776367,0.68847657 0.146484,0 0.263672,-0.0146484 0.498047,-0.0732422 z m -1.303711,-1.0400391 c 0,0.2490235 -0.07324,0.4101563 -0.292969,0.61523441 -0.307617,0.27832031 -0.673828,0.41015625 -1.113281,0.41015625 -0.585938,0 -0.922852,-0.27832031 -0.922852,-0.74707036 0,-0.4980468 0.336914,-0.7470703 1.12793,-0.8642578 0.791016,-0.102539 0.952148,-0.1464843 1.201172,-0.2636718 z m 2.131347,-3.2226562 v 4.70214842 h 0.747071 V -2.591666 c 0,-0.9521485 0.512695,-1.5820313 1.274414,-1.5820313 0.600586,0 0.966797,0.3515625 0.966797,0.9228516 v 3.25195312 h 0.74707 V -3.5438145 c 0,-0.7910156 -0.585938,-1.2890625 -1.494141,-1.2890625 -0.688476,0 -1.142578,0.2636719 -1.552734,0.9228516 V -4.701041 Z m 8.792725,-1.8310547 h -0.74707 v 2.4316406 C 51.219436,-4.5838535 50.70674,-4.832877 50.091506,-4.832877 c -1.230469,0 -2.021485,0.9814454 -2.021485,2.475586 0,1.58203123 0.776368,2.56347655 2.036133,2.56347655 0.65918,0 1.098633,-0.234375 1.508789,-0.8203125 v 0.61523437 h 0.65918 z m -2.06543,2.4023437 c 0.805664,0 1.31836,0.7177735 1.31836,1.8310547 0,1.0839844 -0.512696,1.80175785 -1.303711,1.80175785 -0.834961,0 -1.376953,-0.71777345 -1.376953,-1.81640625 0,-1.0986328 0.541992,-1.8164063 1.362304,-1.8164063 z m 7.536621,-0.703125 c -1.318359,0 -2.109375,0.9375 -2.109375,2.5195313 0,1.58203125 0.791016,2.51953125 2.124024,2.51953125 1.318359,0 2.124023,-0.9375 2.124023,-2.47558595 0,-1.6259766 -0.776367,-2.5634766 -2.138672,-2.5634766 z m 0.01465,0.6884766 c 0.849609,0 1.347656,0.6884766 1.347656,1.8603516 0,1.0986328 -0.527344,1.80175778 -1.347656,1.80175778 -0.834961,0 -1.347656,-0.68847658 -1.347656,-1.83105468 0,-1.1279297 0.512695,-1.8310547 1.347656,-1.8310547 z M 60.91304,-4.701041 v 4.70214842 h 0.761719 V -2.4305332 c 0,-0.6738281 0.161133,-1.1132813 0.527344,-1.3769531 0.234375,-0.1757813 0.454101,-0.2197266 0.966796,-0.234375 v -0.7617188 c -0.117187,-0.014648 -0.175781,-0.029297 -0.27832,-0.029297 -0.483398,0 -0.849609,0.2929688 -1.289062,0.9814454 V -4.701041 Z m 6.064453,0 v 0.6884765 c -0.380859,-0.5566406 -0.834961,-0.8203125 -1.435547,-0.8203125 -1.186523,0 -1.992187,1.0400391 -1.992187,2.5634766 0,0.7763672 0.205078,1.40625001 0.585937,1.84570313 0.351563,0.39550782 0.84961,0.62988282 1.347657,0.62988282 0.585937,0 0.996093,-0.24902344 1.420898,-0.83496094 v 0.234375 c 0,0.64453125 -0.07324,1.02539062 -0.263672,1.2890625 -0.205079,0.27832029 -0.585938,0.43945309 -1.04004,0.43945309 -0.336914,0 -0.644531,-0.102539 -0.849609,-0.2636718 C 64.575148,0.93860742 64.501906,0.82141992 64.457961,0.54309961 h -0.761719 c 0.08789,0.87890629 0.776367,1.40624999 1.875,1.40624999 0.703125,0 1.303711,-0.2197266 1.611328,-0.6005859 0.351563,-0.42480472 0.483399,-1.01074222 0.483399,-2.12402347 V -4.701041 Z m -1.347656,0.5566406 c 0.805664,0 1.274414,0.6884766 1.274414,1.8603516 0,1.1132812 -0.483398,1.80175778 -1.274414,1.80175778 -0.805664,0 -1.303711,-0.68847658 -1.303711,-1.83105468 0,-1.1279297 0.498047,-1.8310547 1.303711,-1.8310547 z m 7.43042,3.7060547 c -0.07324,0.0146484 -0.117188,0.0146484 -0.161133,0.0146484 -0.249023,0 -0.395508,-0.13183593 -0.395508,-0.36621093 V -3.5438145 c 0,-0.8349609 -0.615234,-1.2890625 -1.772461,-1.2890625 -0.673828,0 -1.245117,0.2050782 -1.552734,0.5419922 -0.219727,0.2490235 -0.307617,0.5126953 -0.322266,0.9814453 h 0.747071 c 0.05859,-0.571289 0.410156,-0.8349609 1.098632,-0.8349609 0.673829,0 1.054688,0.2490234 1.054688,0.703125 v 0.1904297 c 0,0.3222656 -0.19043,0.4541016 -0.776367,0.5273437 -1.054688,0.131836 -1.215821,0.1757813 -1.508789,0.2929688 -0.541993,0.2197266 -0.820313,0.6445312 -0.820313,1.2451172 0,0.84960933 0.585938,1.39160152 1.538086,1.39160152 0.585938,0 1.069336,-0.20507813 1.59668,-0.68847657 0.05859,0.46875 0.27832,0.68847657 0.776367,0.68847657 0.146484,0 0.263672,-0.0146484 0.498047,-0.0732422 z m -1.303711,-1.0400391 c 0,0.2490235 -0.07324,0.4101563 -0.292969,0.61523441 -0.307617,0.27832031 -0.673828,0.41015625 -1.113281,0.41015625 -0.585938,0 -0.922852,-0.27832031 -0.922852,-0.74707036 0,-0.4980468 0.336914,-0.7470703 1.12793,-0.8642578 0.791016,-0.102539 0.952148,-0.1464843 1.201172,-0.2636718 z M 73.88423,-4.701041 v 4.70214842 h 0.747071 V -2.591666 c 0,-0.9521485 0.512695,-1.5820313 1.274414,-1.5820313 0.600586,0 0.966797,0.3515625 0.966797,0.9228516 v 3.25195312 h 0.74707 V -3.5438145 c 0,-0.7910156 -0.585937,-1.2890625 -1.494141,-1.2890625 -0.688476,0 -1.142578,0.2636719 -1.552734,0.9228516 V -4.701041 Z m 5.705567,0 h -0.74707 v 4.70214842 h 0.74707 z m 0,-1.8310547 h -0.761719 v 0.9375 h 0.761719 z m 4.610596,1.8310547 h -3.500977 v 0.6591797 h 2.62207 l -2.8125,3.3691406 v 0.67382812 h 3.823243 v -0.65917969 h -2.91504 l 2.783204,-3.36914063 z m 1.860351,0 h -0.74707 v 4.70214842 h 0.74707 z m 0,-1.8310547 h -0.761719 v 0.9375 h 0.761719 z m 1.274414,1.8310547 v 4.70214842 h 0.747071 V -2.591666 c 0,-0.9521485 0.512695,-1.5820313 1.274414,-1.5820313 0.600586,0 0.966796,0.3515625 0.966796,0.9228516 V 0.00110742 H 91.07051 V -3.5438145 c 0,-0.7910156 -0.585938,-1.2890625 -1.494141,-1.2890625 -0.688476,0 -1.142578,0.2636719 -1.552734,0.9228516 V -4.701041 Z m 8.045654,0 v 0.6884765 c -0.380859,-0.5566406 -0.83496,-0.8203125 -1.435546,-0.8203125 -1.186524,0 -1.992188,1.0400391 -1.992188,2.5634766 0,0.7763672 0.205078,1.40625001 0.585938,1.84570313 0.351562,0.39550782 0.849609,0.62988282 1.347656,0.62988282 0.585937,0 0.996094,-0.24902344 1.420898,-0.83496094 v 0.234375 c 0,0.64453125 -0.07324,1.02539062 -0.263672,1.2890625 -0.205078,0.27832029 -0.585937,0.43945309 -1.040039,0.43945309 -0.336914,0 -0.644531,-0.102539 -0.849609,-0.2636718 C 92.978469,0.93860742 92.905227,0.82141992 92.861281,0.54309961 h -0.761719 c 0.08789,0.87890629 0.776368,1.40624999 1.875,1.40624999 0.703125,0 1.303711,-0.2197266 1.611329,-0.6005859 0.351562,-0.42480472 0.483398,-1.01074222 0.483398,-2.12402347 V -4.701041 Z m -1.347656,0.5566406 c 0.805664,0 1.274414,0.6884766 1.274414,1.8603516 0,1.1132812 -0.483398,1.80175778 -1.274414,1.80175778 -0.805664,0 -1.303711,-0.68847658 -1.303711,-1.83105468 0,-1.1279297 0.498047,-1.8310547 1.303711,-1.8310547 z m 9.572754,-2.3876953 h -0.74707 v 2.4316406 c -0.30762,-0.4833984 -0.82031,-0.7324219 -1.43555,-0.7324219 -1.23047,0 -2.021481,0.9814454 -2.021481,2.475586 0,1.58203123 0.776371,2.56347655 2.036131,2.56347655 0.65918,0 1.09863,-0.234375 1.50879,-0.8203125 v 0.61523437 h 0.65918 z m -2.06543,2.4023437 c 0.80566,0 1.31836,0.7177735 1.31836,1.8310547 0,1.0839844 -0.5127,1.80175785 -1.30371,1.80175785 -0.83496,0 -1.37695,-0.71777345 -1.37695,-1.81640625 0,-1.0986328 0.54199,-1.8164063 1.3623,-1.8164063 z m 7.40479,3.6914063 c -0.0732,0.0146484 -0.11719,0.0146484 -0.16114,0.0146484 -0.24902,0 -0.39551,-0.13183593 -0.39551,-0.36621093 V -3.5438145 c 0,-0.8349609 -0.61523,-1.2890625 -1.77246,-1.2890625 -0.67382,0 -1.24511,0.2050782 -1.55273,0.5419922 -0.21973,0.2490235 -0.30762,0.5126953 -0.32227,0.9814453 h 0.74707 c 0.0586,-0.571289 0.41016,-0.8349609 1.09864,-0.8349609 0.67383,0 1.05468,0.2490234 1.05468,0.703125 v 0.1904297 c 0,0.3222656 -0.19043,0.4541016 -0.77636,0.5273437 -1.05469,0.131836 -1.21582,0.1757813 -1.50879,0.2929688 -0.54199,0.2197266 -0.82031,0.6445312 -0.82031,1.2451172 0,0.84960933 0.58593,1.39160152 1.53808,1.39160152 0.58594,0 1.06934,-0.20507813 1.59668,-0.68847657 0.0586,0.46875 0.27832,0.68847657 0.77637,0.68847657 0.14648,0 0.26367,-0.0146484 0.49805,-0.0732422 z m -1.30372,-1.0400391 c 0,0.2490235 -0.0732,0.4101563 -0.29296,0.61523441 -0.30762,0.27832031 -0.67383,0.41015625 -1.11329,0.41015625 -0.58593,0 -0.92285,-0.27832031 -0.92285,-0.74707036 0,-0.4980468 0.33692,-0.7470703 1.12793,-0.8642578 0.79102,-0.102539 0.95215,-0.1464843 1.20117,-0.2636718 z m 3.76832,-3.2226562 h -0.76172 v -1.2890625 h -0.74707 v 1.2890625 h -0.62989 v 0.6152344 h 0.62989 v 3.54492183 c 0,0.48339844 0.32226,0.74707032 0.9082,0.74707032 0.17578,0 0.35156,-0.0146484 0.60059,-0.0585938 v -0.62988282 c -0.0879,0.0292969 -0.20508,0.0292969 -0.35157,0.0292969 -0.32226,0 -0.41015,-0.0878906 -0.41015,-0.41015625 V -4.0858066 h 0.76172 z m 5.01342,4.2626953 c -0.0732,0.0146484 -0.11718,0.0146484 -0.16113,0.0146484 -0.24902,0 -0.39551,-0.13183593 -0.39551,-0.36621093 V -3.5438145 c 0,-0.8349609 -0.61523,-1.2890625 -1.77246,-1.2890625 -0.67383,0 -1.24512,0.2050782 -1.55273,0.5419922 -0.21973,0.2490235 -0.30762,0.5126953 -0.32227,0.9814453 h 0.74707 c 0.0586,-0.571289 0.41016,-0.8349609 1.09863,-0.8349609 0.67383,0 1.05469,0.2490234 1.05469,0.703125 v 0.1904297 c 0,0.3222656 -0.19043,0.4541016 -0.77637,0.5273437 -1.05468,0.131836 -1.21582,0.1757813 -1.50878,0.2929688 -0.542,0.2197266 -0.82032,0.6445312 -0.82032,1.2451172 0,0.84960933 0.58594,1.39160152 1.53809,1.39160152 0.58594,0 1.06934,-0.20507813 1.59668,-0.68847657 0.0586,0.46875 0.27832,0.68847657 0.77637,0.68847657 0.14648,0 0.26367,-0.0146484 0.49804,-0.0732422 z m -1.30371,-1.0400391 c 0,0.2490235 -0.0732,0.4101563 -0.29297,0.61523441 -0.30761,0.27832031 -0.67382,0.41015625 -1.11328,0.41015625 -0.58594,0 -0.92285,-0.27832031 -0.92285,-0.74707036 0,-0.4980468 0.33691,-0.7470703 1.12793,-0.8642578 0.79102,-0.102539 0.95215,-0.1464843 1.20117,-0.2636718 z m 0,0"
       style="fill:#000000;fill-opacity:1;fill-rule:nonzero;stroke:none"
       aria-label="Cleaningandorganizingdata"
       transform="matrix(1.0666667,0,0,1.0666667,192.13547,40.0496)" />
    <path
       id="path15"
       d="m 94.47581,22.37804 h 6.64113 v 6.64113 h -6.64113 z"
       style="fill:#fa4c3d;fill-opacity:1;fill-rule:nonzero;stroke:none"
       transform="matrix(1.0666667,0,0,-1.0666667,80.125867,80.1264)" />
    <path
       id="path16"
       d="M 5.933791,-4.511248 C 5.6701191,-5.9467949 4.8498066,-6.6352715 3.4142598,-6.6352715 c -0.8789063,0 -1.5820313,0.2636719 -2.0654297,0.8056641 -0.60058596,0.6445312 -0.92285158,1.5820312 -0.92285158,2.6367187 0,1.0839844 0.33691406,2.006836 0.95214848,2.63671878 0.5126953,0.52734375 1.1572265,0.76171875 2.0068359,0.76171875 1.5966797,0 2.4902344,-0.86425781 2.6806641,-2.59277343 H 5.2160176 c -0.073242,0.4541016 -0.1611328,0.7617187 -0.3076172,1.0107422 -0.2636719,0.54199217 -0.8203125,0.84960935 -1.5234375,0.84960935 -1.2890625,0 -2.1240234,-1.04003905 -2.1240234,-2.66601565 0,-1.6845703 0.7910156,-2.7099609 2.0507812,-2.7099609 0.5419922,0 1.0253906,0.1611328 1.3037109,0.4101562 0.234375,0.2197266 0.366211,0.4980469 0.46875,0.9814454 z m 2.9699707,-0.3222657 c -1.3183594,0 -2.109375,0.9375 -2.109375,2.5195313 0,1.58203123 0.7910156,2.51953123 2.1240235,2.51953123 1.3183598,0 2.1240238,-0.9375 2.1240238,-2.47558593 0,-1.6259766 -0.776368,-2.5634766 -2.1386723,-2.5634766 z m 0.014648,0.6884766 c 0.8496093,0 1.3476563,0.6884766 1.3476563,1.8603516 0,1.0986328 -0.5273438,1.80175777 -1.3476563,1.80175777 -0.834961,0 -1.3476563,-0.68847657 -1.3476563,-1.83105467 0,-1.1279297 0.5126953,-1.8310547 1.3476563,-1.8310547 z M 12.822219,-6.5327324 H 12.075148 V 4.7070313e-4 h 0.747071 z m 1.988525,0 h -0.74707 V 4.7070313e-4 h 0.74707 z m 5.229492,4.4384765 c 0,-0.7177734 -0.05859,-1.1572265 -0.190429,-1.4941406 -0.307618,-0.7763672 -1.025391,-1.2451172 -1.904297,-1.2451172 -1.303711,0 -2.153321,1.0107422 -2.153321,2.5488282 0,1.53808589 0.820313,2.49023433 2.138672,2.49023433 1.083985,0 1.816407,-0.61523438 2.006836,-1.62597653 h -0.74707 c -0.205078,0.61523434 -0.629883,0.93749997 -1.230469,0.93749997 -0.46875,0 -0.878906,-0.21972657 -1.127929,-0.61523437 -0.175782,-0.2636719 -0.249024,-0.5273438 -0.249024,-0.9960938 z m -3.442382,-0.6152343 c 0.05859,-0.8642578 0.585937,-1.4355469 1.347656,-1.4355469 0.732422,0 1.289062,0.6152344 1.289062,1.3916016 0,0.014648 0,0.029297 0,0.043945 z m 8.045654,-0.4101563 c -0.0293,-0.4541015 -0.131836,-0.7470703 -0.307617,-1.0107422 -0.322266,-0.4394531 -0.893555,-0.703125 -1.538086,-0.703125 -1.274414,0 -2.094727,1.0107422 -2.094727,2.5634766 0,1.52343749 0.805664,2.47558593 2.080078,2.47558593 1.113281,0 1.831055,-0.67382813 1.918946,-1.81640623 h -0.747071 c -0.131836,0.74707029 -0.512695,1.12792967 -1.157226,1.12792967 -0.820313,0 -1.31836,-0.67382817 -1.31836,-1.78710937 0,-1.171875 0.483399,-1.875 1.303711,-1.875 0.629883,0 1.025391,0.3662109 1.113281,1.0253906 z m 2.534179,-1.5820312 h -0.761718 v -1.2890625 h -0.747071 v 1.2890625 h -0.629882 v 0.6152343 h 0.629882 v 3.54492192 c 0,0.48339843 0.322266,0.74707031 0.908204,0.74707031 0.175781,0 0.351562,-0.0146484 0.600585,-0.0585938 v -0.62988281 c -0.08789,0.0292969 -0.205078,0.0292969 -0.351562,0.0292969 -0.322266,0 -0.410156,-0.0878906 -0.410156,-0.41015625 V -4.0864434 h 0.761718 z m 1.571045,0 h -0.74707 V 4.7070313e-4 h 0.74707 z m 0,-1.8310547 h -0.761718 v 0.9375 h 0.761718 z m 1.274414,1.8310547 V 4.7070313e-4 h 0.747071 V -2.5923027 c 0,-0.9521485 0.512695,-1.5820313 1.274414,-1.5820313 0.600586,0 0.966797,0.3515625 0.966797,0.9228516 V 4.7070313e-4 h 0.74707 V -3.5444512 c 0,-0.7910156 -0.585937,-1.2890625 -1.494141,-1.2890625 -0.688476,0 -1.142578,0.2636719 -1.552734,0.9228516 v -0.7910156 z m 8.045655,0 v 0.6884765 c -0.38086,-0.5566406 -0.834961,-0.8203125 -1.435547,-0.8203125 -1.186524,0 -1.992188,1.0400391 -1.992188,2.5634766 0,0.7763672 0.205079,1.40624999 0.585938,1.84570312 0.351562,0.39550781 0.849609,0.62988281 1.347656,0.62988281 0.585938,0 0.996094,-0.24902344 1.420899,-0.83496094 v 0.234375 c 0,0.64453125 -0.07324,1.02539063 -0.263672,1.2890625 -0.205078,0.27832031 -0.585938,0.43945311 -1.040039,0.43945311 -0.336914,0 -0.644532,-0.102539 -0.84961,-0.2636719 C 35.666457,0.9379707 35.593215,0.8207832 35.54927,0.54246289 h -0.761719 c 0.08789,0.87890621 0.776367,1.40625001 1.875,1.40625001 0.703125,0 1.303711,-0.2197266 1.611328,-0.6005859 0.351562,-0.42480473 0.483398,-1.01074223 0.483398,-2.12402348 V -4.7016777 Z m -1.347656,0.5566406 c 0.805664,0 1.274414,0.6884766 1.274414,1.8603516 0,1.1132812 -0.483399,1.80175777 -1.274414,1.80175777 -0.805665,0 -1.303711,-0.68847657 -1.303711,-1.83105467 0,-1.1279297 0.498046,-1.8310547 1.303711,-1.8310547 z m 9.561767,-2.3876953 h -0.74707 v 2.4316406 c -0.307617,-0.4833984 -0.820313,-0.7324219 -1.435547,-0.7324219 -1.230469,0 -2.021484,0.9814453 -2.021484,2.475586 0,1.58203122 0.776367,2.56347653 2.036132,2.56347653 0.65918,0 1.098633,-0.234375 1.508789,-0.8203125 V 4.7070313e-4 h 0.65918 z m -2.06543,2.4023437 c 0.805664,0 1.31836,0.7177735 1.31836,1.8310547 0,1.0839844 -0.512696,1.80175783 -1.303711,1.80175783 -0.834961,0 -1.376953,-0.71777343 -1.376953,-1.81640623 0,-1.0986328 0.541992,-1.8164063 1.362304,-1.8164063 z m 7.404786,3.69140628 c -0.07324,0.0146484 -0.117188,0.0146484 -0.161133,0.0146484 -0.249024,0 -0.395508,-0.13183594 -0.395508,-0.36621094 V -3.5444512 c 0,-0.8349609 -0.615234,-1.2890625 -1.772461,-1.2890625 -0.673828,0 -1.245117,0.2050782 -1.552734,0.5419922 -0.219727,0.2490235 -0.307618,0.5126953 -0.322266,0.9814453 h 0.74707 c 0.05859,-0.571289 0.410157,-0.8349609 1.098633,-0.8349609 0.673828,0 1.054688,0.2490234 1.054688,0.703125 v 0.1904297 c 0,0.3222656 -0.19043,0.4541015 -0.776368,0.5273437 -1.054687,0.131836 -1.21582,0.1757813 -1.508789,0.2929688 -0.541992,0.2197265 -0.820312,0.6445312 -0.820312,1.2451172 0,0.84960934 0.585937,1.39160153 1.538086,1.39160153 0.585937,0 1.069336,-0.20507812687 1.59668,-0.68847656 0.05859,0.46875 0.27832,0.68847656 0.776367,0.68847656 0.146484,0 0.263672,-0.0146484 0.498047,-0.0732422 z M 50.318557,-1.4790215 c 0,0.2490235 -0.07324,0.4101563 -0.292969,0.61523439 -0.307617,0.27832031 -0.673828,0.41015625 -1.113281,0.41015625 -0.585938,0 -0.922852,-0.27832031 -0.922852,-0.74707034 0,-0.4980468 0.336914,-0.7470703 1.12793,-0.8642578 0.791015,-0.102539 0.952148,-0.1464844 1.201172,-0.2636719 z m 3.76831,-3.2226562 h -0.761719 v -1.2890625 h -0.74707 v 1.2890625 h -0.629883 v 0.6152343 h 0.629883 v 3.54492192 c 0,0.48339843 0.322266,0.74707031 0.908203,0.74707031 0.175781,0 0.351563,-0.0146484 0.600586,-0.0585938 v -0.62988281 c -0.08789,0.0292969 -0.205078,0.0292969 -0.351562,0.0292969 -0.322266,0 -0.410157,-0.0878906 -0.410157,-0.41015625 V -4.0864434 h 0.761719 z m 5.013428,4.26269528 c -0.07324,0.0146484 -0.117188,0.0146484 -0.161133,0.0146484 -0.249023,0 -0.395508,-0.13183594 -0.395508,-0.36621094 V -3.5444512 c 0,-0.8349609 -0.615234,-1.2890625 -1.772461,-1.2890625 -0.673828,0 -1.245117,0.2050782 -1.552734,0.5419922 -0.219727,0.2490235 -0.307617,0.5126953 -0.322266,0.9814453 h 0.747071 c 0.05859,-0.571289 0.410156,-0.8349609 1.098632,-0.8349609 0.673829,0 1.054688,0.2490234 1.054688,0.703125 v 0.1904297 c 0,0.3222656 -0.19043,0.4541015 -0.776367,0.5273437 -1.054688,0.131836 -1.215821,0.1757813 -1.508789,0.2929688 -0.541992,0.2197265 -0.820313,0.6445312 -0.820313,1.2451172 0,0.84960934 0.585938,1.39160153 1.538086,1.39160153 0.585938,0 1.069336,-0.20507812687 1.59668,-0.68847656 0.05859,0.46875 0.27832,0.68847656 0.776367,0.68847656 0.146484,0 0.263672,-0.0146484 0.498047,-0.0732422 z M 57.796584,-1.4790215 c 0,0.2490235 -0.07324,0.4101563 -0.292969,0.61523439 -0.307617,0.27832031 -0.673828,0.41015625 -1.113281,0.41015625 -0.585938,0 -0.922852,-0.27832031 -0.922852,-0.74707034 0,-0.4980468 0.336914,-0.7470703 1.12793,-0.8642578 0.791016,-0.102539 0.952149,-0.1464844 1.201172,-0.2636719 z m 7.91748,-1.9042969 c -0.01465,-0.9228515 -0.615234,-1.4501953 -1.699218,-1.4501953 -1.098633,0 -1.801758,0.5712891 -1.801758,1.4355469 0,0.7324219 0.366211,1.0839844 1.479492,1.3476563 l 0.703125,0.1757812 c 0.527344,0.1318359 0.732422,0.3222656 0.732422,0.6591797 0,0.43945312 -0.439453,0.73242187 -1.098633,0.73242187 -0.410156,0 -0.74707,-0.1171875 -0.9375,-0.30761719 C 62.974807,-0.9370293 62.930861,-1.0688652 62.886916,-1.3911309 H 62.0959 c 0.0293,1.08398442 0.644532,1.59667973 1.875,1.59667973 1.171875,0 1.933594,-0.5859375 1.933594,-1.49414063 0,-0.6884766 -0.395508,-1.0839844 -1.333008,-1.3037109 l -0.717773,-0.1611328 c -0.600586,-0.1464844 -0.864258,-0.3515625 -0.864258,-0.6738282 0,-0.4394531 0.380859,-0.7177734 0.996094,-0.7177734 0.600586,0 0.922851,0.2636719 0.9375,0.7617187 z m 5.15625,1.2890625 c 0,-0.7177734 -0.05859,-1.1572265 -0.190429,-1.4941406 -0.307617,-0.7763672 -1.025391,-1.2451172 -1.904297,-1.2451172 -1.303711,0 -2.15332,1.0107422 -2.15332,2.5488282 0,1.53808589 0.820312,2.49023433 2.138671,2.49023433 1.083985,0 1.816407,-0.61523438 2.006836,-1.62597653 h -0.74707 c -0.205078,0.61523434 -0.629883,0.93749997 -1.230469,0.93749997 -0.46875,0 -0.878906,-0.21972657 -1.127929,-0.61523437 -0.175782,-0.2636719 -0.249024,-0.5273438 -0.249024,-0.9960938 z m -3.442382,-0.6152343 c 0.05859,-0.8642578 0.585937,-1.4355469 1.347656,-1.4355469 0.732422,0 1.289062,0.6152344 1.289062,1.3916016 0,0.014648 0,0.029297 0,0.043945 z m 6.097412,-1.9921875 h -0.761719 v -1.2890625 h -0.74707 v 1.2890625 h -0.629883 v 0.6152343 h 0.629883 v 3.54492192 c 0,0.48339843 0.322265,0.74707031 0.908203,0.74707031 0.175781,0 0.351562,-0.0146484 0.600586,-0.0585938 v -0.62988281 c -0.08789,0.0292969 -0.205078,0.0292969 -0.351563,0.0292969 -0.322265,0 -0.410156,-0.0878906 -0.410156,-0.41015625 V -4.0864434 h 0.761719 z m 4.14917,1.3183593 c -0.01465,-0.9228515 -0.615235,-1.4501953 -1.699219,-1.4501953 -1.098633,0 -1.801758,0.5712891 -1.801758,1.4355469 0,0.7324219 0.366211,1.0839844 1.479492,1.3476563 l 0.703125,0.1757812 c 0.527344,0.1318359 0.732422,0.3222656 0.732422,0.6591797 0,0.43945312 -0.439453,0.73242187 -1.098633,0.73242187 -0.410156,0 -0.74707,-0.1171875 -0.9375,-0.30761719 C 74.935256,-0.9370293 74.891311,-1.0688652 74.847365,-1.3911309 H 74.05635 c 0.0293,1.08398442 0.644531,1.59667973 1.875,1.59667973 1.171875,0 1.933593,-0.5859375 1.933593,-1.49414063 0,-0.6884766 -0.395507,-1.0839844 -1.333007,-1.3037109 l -0.717774,-0.1611328 c -0.600586,-0.1464844 -0.864258,-0.3515625 -0.864258,-0.6738282 0,-0.4394531 0.38086,-0.7177734 0.996094,-0.7177734 0.600586,0 0.922852,0.2636719 0.9375,0.7617187 z m 0,0"
       style="fill:#000000;fill-opacity:1;fill-rule:nonzero;stroke:none"
       aria-label="Collectingdatasets"
       transform="matrix(1.0666667,0,0,1.0666667,192.13547,55.167467)" />
    <path
       id="path17"
       d="m 94.47581,8.20464 h 6.64113 v 6.64113 h -6.64113 z"
       style="fill:#ff9d23;fill-opacity:1;fill-rule:nonzero;stroke:none"
       transform="matrix(1.0666667,0,0,-1.0666667,80.125867,80.1264)" />
    <path
       id="path18"
       d="M 4.190627,-0.00116602 6.0363301,-5.4796816 v 5.47851558 H 6.8273457 V -6.5343691 H 5.6701191 L 3.7658223,-0.85077539 1.8322285,-6.5343691 H 0.67500195 v 6.53320308 H 1.4660176 V -5.4796816 l 1.8457031,5.47851558 z M 8.8158711,-4.7033145 H 8.0688008 v 4.70214848 h 0.7470703 z m 0,-1.8310546 H 8.0541523 v 0.9375 h 0.7617188 z m 1.2744139,1.8310546 v 4.70214848 h 0.74707 V -2.5939395 c 0,-0.9521484 0.512696,-1.5820312 1.274415,-1.5820312 0.600585,0 0.966796,0.3515625 0.966796,0.9228516 v 3.25195308 h 0.747071 V -3.5460879 c 0,-0.7910156 -0.585938,-1.2890625 -1.494141,-1.2890625 -0.688476,0 -1.142578,0.2636719 -1.552734,0.9228516 v -0.7910157 z m 5.701904,0 h -0.74707 v 4.70214848 h 0.74707 z m 0,-1.8310546 h -0.761718 v 0.9375 h 0.761718 z m 1.274415,1.8310546 v 4.70214848 h 0.74707 V -2.5939395 c 0,-0.9521484 0.512695,-1.5820312 1.274414,-1.5820312 0.600586,0 0.966797,0.3515625 0.966797,0.9228516 v 3.25195308 h 0.74707 V -3.5460879 c 0,-0.7910156 -0.585937,-1.2890625 -1.494141,-1.2890625 -0.688476,0 -1.142578,0.2636719 -1.552734,0.9228516 v -0.7910157 z m 8.045654,0 v 0.6884766 c -0.38086,-0.5566406 -0.834961,-0.8203125 -1.435547,-0.8203125 -1.186524,0 -1.992188,1.0400391 -1.992188,2.5634766 0,0.7763672 0.205079,1.40624997 0.585938,1.8457031 0.351562,0.39550781 0.849609,0.62988281 1.347656,0.62988281 0.585938,0 0.996094,-0.24902344 1.420899,-0.83496094 v 0.234375 c 0,0.64453125 -0.07324,1.02539063 -0.263672,1.2890625 -0.205078,0.27832033 -0.585938,0.43945313 -1.040039,0.43945313 -0.336914,0 -0.644532,-0.1025391 -0.84961,-0.2636719 C 22.709914,0.93633398 22.636672,0.81914648 22.592727,0.54082617 h -0.761719 c 0.08789,0.87890623 0.776367,1.40625003 1.875,1.40625003 0.703125,0 1.303711,-0.2197266 1.611328,-0.600586 0.351562,-0.42480465 0.483398,-1.01074215 0.483398,-2.1240234 v -3.9257813 z m -1.347656,0.5566407 c 0.805664,0 1.274414,0.6884765 1.274414,1.8603515 0,1.1132813 -0.483399,1.80175785 -1.274414,1.80175785 -0.805665,0 -1.303711,-0.68847655 -1.303711,-1.83105465 0,-1.1279297 0.498046,-1.8310547 1.303711,-1.8310547 z m 9.561767,-2.3876953 h -0.74707 v 2.4316406 c -0.307617,-0.4833985 -0.820313,-0.7324219 -1.435547,-0.7324219 -1.230469,0 -2.021484,0.9814453 -2.021484,2.4755859 0,1.5820313 0.776367,2.56347661 2.036132,2.56347661 0.65918,0 1.098633,-0.234375 1.508789,-0.8203125 v 0.61523437 h 0.65918 z m -2.06543,2.4023437 c 0.805665,0 1.31836,0.7177734 1.31836,1.8310547 0,1.0839844 -0.512695,1.80175781 -1.303711,1.80175781 -0.834961,0 -1.376953,-0.71777341 -1.376953,-1.81640621 0,-1.0986329 0.541992,-1.8164063 1.362304,-1.8164063 z m 7.404786,3.69140626 c -0.07324,0.0146484 -0.117188,0.0146484 -0.161133,0.0146484 -0.249024,0 -0.395508,-0.13183594 -0.395508,-0.36621094 V -3.5460879 c 0,-0.8349609 -0.615234,-1.2890625 -1.772461,-1.2890625 -0.673828,0 -1.245117,0.2050781 -1.552734,0.5419922 -0.219727,0.2490234 -0.307618,0.5126953 -0.322266,0.9814453 h 0.74707 c 0.05859,-0.5712891 0.410157,-0.8349609 1.098633,-0.8349609 0.673828,0 1.054688,0.2490234 1.054688,0.703125 v 0.1904297 c 0,0.3222656 -0.19043,0.4541015 -0.776368,0.5273437 -1.054687,0.1318359 -1.21582,0.1757813 -1.508789,0.2929688 -0.541992,0.2197265 -0.820312,0.6445312 -0.820312,1.2451171 0,0.84960942 0.585937,1.39160161 1.538086,1.39160161 0.585937,0 1.069336,-0.20507813 1.59668,-0.68847656 0.05859,0.46875 0.27832,0.68847656 0.776367,0.68847656 0.146484,0 0.263672,-0.0146484 0.498047,-0.0732422 z M 37.362014,-1.4806582 c 0,0.2490234 -0.07324,0.4101562 -0.292969,0.61523437 -0.307617,0.27832031 -0.673828,0.41015625 -1.113281,0.41015625 -0.585938,0 -0.922852,-0.27832031 -0.922852,-0.74707032 0,-0.4980469 0.336914,-0.7470703 1.12793,-0.8642578 0.791015,-0.1025391 0.952148,-0.1464844 1.201172,-0.2636719 z m 3.76831,-3.2226563 H 40.368605 V -5.992377 h -0.74707 v 1.2890625 h -0.629883 v 0.6152344 h 0.629883 v 3.5449219 c 0,0.48339843 0.322266,0.74707031 0.908203,0.74707031 0.175782,0 0.351563,-0.0146484 0.600586,-0.0585938 V -0.4845645 c -0.08789,0.0292969 -0.205078,0.0292969 -0.351562,0.0292969 -0.322266,0 -0.410157,-0.0878906 -0.410157,-0.41015625 V -4.0880801 h 0.761719 z m 5.013428,4.26269536 c -0.07324,0.0146484 -0.117188,0.0146484 -0.161133,0.0146484 -0.249023,0 -0.395508,-0.13183594 -0.395508,-0.36621094 V -3.5460879 c 0,-0.8349609 -0.615234,-1.2890625 -1.772461,-1.2890625 -0.673828,0 -1.245117,0.2050781 -1.552734,0.5419922 -0.219727,0.2490234 -0.307617,0.5126953 -0.322266,0.9814453 h 0.747071 c 0.05859,-0.5712891 0.410156,-0.8349609 1.098633,-0.8349609 0.673828,0 1.054687,0.2490234 1.054687,0.703125 v 0.1904297 c 0,0.3222656 -0.19043,0.4541015 -0.776367,0.5273437 -1.054688,0.1318359 -1.21582,0.1757813 -1.508789,0.2929688 -0.541992,0.2197265 -0.820313,0.6445312 -0.820313,1.2451171 0,0.84960942 0.585938,1.39160161 1.538086,1.39160161 0.585938,0 1.069336,-0.20507813 1.59668,-0.68847656 0.05859,0.46875 0.27832,0.68847656 0.776367,0.68847656 0.146484,0 0.263672,-0.0146484 0.498047,-0.0732422 z M 44.840041,-1.4806582 c 0,0.2490234 -0.07324,0.4101562 -0.292969,0.61523437 -0.307617,0.27832031 -0.673828,0.41015625 -1.113281,0.41015625 -0.585937,0 -0.922852,-0.27832031 -0.922852,-0.74707032 0,-0.4980469 0.336915,-0.7470703 1.12793,-0.8642578 0.791016,-0.1025391 0.952149,-0.1464844 1.201172,-0.2636719 z m 6.306152,-3.2226563 h -0.776367 v -0.7324218 c 0,-0.3076172 0.175781,-0.46875 0.512695,-0.46875 0.05859,0 0.08789,0 0.263672,0 v -0.6152344 c -0.175781,-0.029297 -0.263672,-0.043945 -0.424804,-0.043945 -0.688477,0 -1.098633,0.3955078 -1.098633,1.0693359 v 0.7910156 h -0.629883 v 0.6152344 h 0.629883 v 4.08691408 h 0.74707 V -4.0880801 h 0.776367 z m 2.347412,-0.1318359 c -1.318359,0 -2.109375,0.9375 -2.109375,2.5195313 0,1.58203121 0.791016,2.51953121 2.124024,2.51953121 1.318359,0 2.124023,-0.9375 2.124023,-2.47558591 0,-1.6259766 -0.776367,-2.5634766 -2.138672,-2.5634766 z m 0.01465,0.6884766 c 0.849609,0 1.347656,0.6884765 1.347656,1.8603515 0,1.0986328 -0.527344,1.80175785 -1.347656,1.80175785 -0.834961,0 -1.347656,-0.68847655 -1.347656,-1.83105465 0,-1.1279297 0.512695,-1.8310547 1.347656,-1.8310547 z m 3.156738,-0.5566407 v 4.70214848 h 0.761719 V -2.4328066 c 0,-0.6738282 0.161133,-1.1132813 0.527344,-1.3769532 0.234375,-0.1757812 0.454101,-0.2197265 0.966797,-0.234375 v -0.7617187 c -0.117188,-0.014649 -0.175782,-0.029297 -0.278321,-0.029297 -0.483398,0 -0.849609,0.2929688 -1.289062,0.9814453 v -0.8496094 z m 5.335694,6.6503907 h 0.74707 v -2.44628909 c 0.395508,0.48339844 0.834961,0.703125 1.450195,0.703125 1.21582,0 2.006836,-0.98144531 2.006836,-2.47558591 0,-1.5820313 -0.776367,-2.5634766 -2.021484,-2.5634766 -0.629883,0 -1.142578,0.2929688 -1.494141,0.8496094 v -0.7177735 h -0.688476 z m 2.065429,-6.0791016 c 0.820313,0 1.362305,0.7177734 1.362305,1.8457031 0,1.069336 -0.556641,1.78710941 -1.362305,1.78710941 -0.791015,0 -1.318359,-0.71777341 -1.318359,-1.81640621 0,-1.0986329 0.527344,-1.8164063 1.318359,-1.8164063 z m 7.229004,3.69140626 c -0.07324,0.0146484 -0.117187,0.0146484 -0.161133,0.0146484 -0.249023,0 -0.395507,-0.13183594 -0.395507,-0.36621094 V -3.5460879 c 0,-0.8349609 -0.615235,-1.2890625 -1.772461,-1.2890625 -0.673829,0 -1.245118,0.2050781 -1.552735,0.5419922 -0.219726,0.2490234 -0.307617,0.5126953 -0.322265,0.9814453 h 0.74707 c 0.05859,-0.5712891 0.410156,-0.8349609 1.098633,-0.8349609 0.673828,0 1.054687,0.2490234 1.054687,0.703125 v 0.1904297 c 0,0.3222656 -0.190429,0.4541015 -0.776367,0.5273437 -1.054687,0.1318359 -1.21582,0.1757813 -1.508789,0.2929688 -0.541992,0.2197265 -0.820313,0.6445312 -0.820313,1.2451171 0,0.84960942 0.585938,1.39160161 1.538086,1.39160161 0.585938,0 1.069336,-0.20507813 1.59668,-0.68847656 0.05859,0.46875 0.27832,0.68847656 0.776367,0.68847656 0.146485,0 0.263672,-0.0146484 0.498047,-0.0732422 z M 69.991408,-1.4806582 c 0,0.2490234 -0.07324,0.4101562 -0.292969,0.61523437 -0.307617,0.27832031 -0.673828,0.41015625 -1.113281,0.41015625 -0.585937,0 -0.922851,-0.27832031 -0.922851,-0.74707032 0,-0.4980469 0.336914,-0.7470703 1.127929,-0.8642578 0.791016,-0.1025391 0.952149,-0.1464844 1.201172,-0.2636719 z m 3.768311,-3.2226563 H 72.998 V -5.992377 h -0.74707 v 1.2890625 h -0.629883 v 0.6152344 h 0.629883 v 3.5449219 c 0,0.48339843 0.322265,0.74707031 0.908203,0.74707031 0.175781,0 0.351562,-0.0146484 0.600586,-0.0585938 V -0.4845645 c -0.08789,0.0292969 -0.205078,0.0292969 -0.351563,0.0292969 -0.322265,0 -0.410156,-0.0878906 -0.410156,-0.41015625 V -4.0880801 h 0.761719 z m 2.493896,0 H 75.491896 V -5.992377 h -0.74707 v 1.2890625 h -0.629883 v 0.6152344 h 0.629883 v 3.5449219 c 0,0.48339843 0.322266,0.74707031 0.908203,0.74707031 0.175782,0 0.351563,-0.0146484 0.600586,-0.0585938 V -0.4845645 c -0.08789,0.0292969 -0.205078,0.0292969 -0.351562,0.0292969 -0.322266,0 -0.410157,-0.0878906 -0.410157,-0.41015625 V -4.0880801 h 0.761719 z m 4.819336,2.6074219 c 0,-0.7177734 -0.05859,-1.1572265 -0.19043,-1.4941406 -0.307617,-0.7763672 -1.02539,-1.2451172 -1.904296,-1.2451172 -1.303711,0 -2.153321,1.0107422 -2.153321,2.5488281 0,1.53808597 0.820313,2.49023441 2.138672,2.49023441 1.083985,0 1.816406,-0.61523438 2.006836,-1.62597661 h -0.74707 c -0.205078,0.61523442 -0.629883,0.93750005 -1.230469,0.93750005 -0.46875,0 -0.878906,-0.21972657 -1.12793,-0.61523435 C 77.689162,-1.3634707 77.61592,-1.6271426 77.61592,-2.0958926 Z M 77.630568,-2.711127 c 0.05859,-0.8642578 0.585938,-1.4355468 1.347657,-1.4355468 0.732421,0 1.289062,0.6152343 1.289062,1.3916015 0,0.014649 0,0.029297 0,0.043945 z m 4.445801,-1.9921875 v 4.70214848 h 0.761719 V -2.4328066 c 0,-0.6738282 0.161133,-1.1132813 0.527344,-1.3769532 0.234375,-0.1757812 0.454101,-0.2197265 0.966797,-0.234375 v -0.7617187 c -0.117188,-0.014649 -0.175782,-0.029297 -0.278321,-0.029297 -0.483398,0 -0.849609,0.2929688 -1.289062,0.9814453 v -0.8496094 z m 3.222656,0 v 4.70214848 h 0.747071 V -2.5939395 c 0,-0.9521484 0.512695,-1.5820312 1.274414,-1.5820312 0.600586,0 0.966797,0.3515625 0.966797,0.9228516 v 3.25195308 h 0.74707 V -3.5460879 c 0,-0.7910156 -0.585938,-1.2890625 -1.494141,-1.2890625 -0.688476,0 -1.142578,0.2636719 -1.552734,0.9228516 v -0.7910157 z m 8.28003,1.3183594 c -0.01465,-0.9228515 -0.615235,-1.4501953 -1.699219,-1.4501953 -1.098633,0 -1.801758,0.5712891 -1.801758,1.4355469 0,0.7324219 0.366211,1.0839844 1.479492,1.3476562 l 0.703125,0.1757813 c 0.527344,0.1318359 0.732422,0.3222656 0.732422,0.6591797 0,0.4394531 -0.439453,0.73242185 -1.098633,0.73242185 -0.410156,0 -0.74707,-0.1171875 -0.9375,-0.30761719 C 90.839797,-0.93866602 90.795852,-1.070502 90.751906,-1.3927676 h -0.791015 c 0.0293,1.0839844 0.644531,1.59667971 1.875,1.59667971 1.171875,0 1.933593,-0.5859375 1.933593,-1.49414061 0,-0.6884766 -0.395507,-1.0839844 -1.333007,-1.303711 l -0.717774,-0.1611328 c -0.600586,-0.1464843 -0.864258,-0.3515625 -0.864258,-0.6738281 0,-0.4394531 0.38086,-0.7177734 0.996094,-0.7177734 0.600586,0 0.922852,0.2636718 0.9375,0.7617187 z m 0,0"
       style="fill:#000000;fill-opacity:1;fill-rule:nonzero;stroke:none"
       aria-label="Miningdataforpatterns"
       transform="matrix(1.0666667,0,0,1.0666667,192.13547,70.2864)" />
    <path
       id="path19"
       d="m 94.47581,-5.96875 h 6.64113 v 6.64113 h -6.64113 z"
       style="fill:#3381b9;fill-opacity:1;fill-rule:nonzero;stroke:none"
       transform="matrix(1.0666667,0,0,-1.0666667,80.125867,80.1264)" />
    <path
       id="path20"
       d="M 0.70429883,-0.0013418 H 3.6632832 c 0.6152344,0 1.0693359,-0.17578125 1.4208984,-0.54199218 0.3222657,-0.3515625 0.4980469,-0.80566402 0.4980469,-1.31835942 0,-0.7910156 -0.3515625,-1.274414 -1.1865234,-1.5966796 0.5859375,-0.2783204 0.9082031,-0.7617188 0.9082031,-1.4208985 0,-0.46875 -0.1904297,-0.8935547 -0.5273437,-1.2011719 C 4.4396504,-6.3880605 3.9855488,-6.5345449 3.355666,-6.5345449 H 0.70429883 Z M 1.5392598,-3.7220449 V -5.802123 h 1.6113281 c 0.46875,0 0.7324219,0.058594 0.9521484,0.234375 0.234375,0.1757812 0.366211,0.4541015 0.366211,0.805664 0,0.3515625 -0.131836,0.6298828 -0.366211,0.8056641 -0.2197265,0.1757812 -0.4833984,0.234375 -0.9521484,0.234375 z m 0,2.98828123 V -2.989623 h 2.0361328 c 0.4101562,0 0.6738281,0.102539 0.8789062,0.3222656 0.1904297,0.2050781 0.2929688,0.4833984 0.2929688,0.805664 0,0.3222657 -0.1025391,0.600586 -0.2929688,0.8056641 -0.2050781,0.21972657 -0.46875,0.32226563 -0.8789062,0.32226563 z M 10.302687,-0.0013418 V -4.7034902 H 9.5556172 v 2.6660156 c 0,0.9667969 -0.4980469,1.58203124 -1.2744141,1.58203124 -0.6005859,0 -0.9667969,-0.3515625 -0.9667969,-0.92285154 V -4.7034902 H 6.5673359 v 3.6328125 c 0,0.77636715 0.5859375,1.27441403 1.4941407,1.27441403 0.6884765,0 1.1279296,-0.234375 1.5673828,-0.86425781 v 0.65917968 z m 2.010499,-4.7021484 h -0.747071 v 4.7021484 h 0.747071 z m 0,-1.8310547 h -0.761719 v 0.9375 h 0.761719 z m 2.006835,0 h -0.74707 v 6.5332031 h 0.74707 z m 5.064698,0 h -0.747071 v 2.4316406 c -0.307617,-0.4833984 -0.820312,-0.7324219 -1.435546,-0.7324219 -1.230469,0 -2.021485,0.9814453 -2.021485,2.475586 0,1.58203122 0.776367,2.56347653 2.036133,2.56347653 0.65918,0 1.098633,-0.234375 1.508789,-0.8203125 v 0.61523437 h 0.65918 z m -2.06543,2.4023437 c 0.805664,0 1.318359,0.7177735 1.318359,1.8310547 0,1.0839844 -0.512695,1.80175783 -1.303711,1.80175783 -0.83496,0 -1.376953,-0.71777343 -1.376953,-1.81640623 0,-1.0986328 0.541993,-1.8164063 1.362305,-1.8164063 z m 3.962402,-0.571289 h -0.74707 v 4.7021484 h 0.74707 z m 0,-1.8310547 h -0.761718 v 0.9375 h 0.761718 z m 1.270752,1.8310547 v 4.7021484 h 0.747071 v -2.5927734 c 0,-0.9521485 0.512695,-1.5820313 1.274414,-1.5820313 0.600586,0 0.966797,0.3515625 0.966797,0.9228516 v 3.2519531 h 0.74707 v -3.5449219 c 0,-0.7910156 -0.585938,-1.2890625 -1.494141,-1.2890625 -0.688476,0 -1.142578,0.2636719 -1.552734,0.9228516 v -0.7910156 z m 8.045655,0 v 0.6884765 c -0.38086,-0.5566406 -0.834961,-0.8203125 -1.435547,-0.8203125 -1.186524,0 -1.992188,1.0400391 -1.992188,2.5634766 0,0.7763672 0.205078,1.40624999 0.585938,1.84570312 0.351562,0.39550781 0.849609,0.62988281 1.347656,0.62988281 0.585938,0 0.996094,-0.24902344 1.420898,-0.83496094 v 0.234375 c 0,0.64453125 -0.07324,1.02539063 -0.263671,1.2890625 C 30.056105,1.1705332 29.675246,1.331666 29.221145,1.331666 c -0.336915,0 -0.644532,-0.102539 -0.84961,-0.2636719 C 28.195754,0.9361582 28.122512,0.8189707 28.078566,0.54065039 h -0.761718 c 0.08789,0.87890621 0.776367,1.40625001 1.875,1.40625001 0.703125,0 1.303711,-0.2197266 1.611328,-0.6005859 0.351562,-0.42480473 0.483398,-1.01074223 0.483398,-2.12402348 V -4.7034902 Z m -1.347657,0.5566406 c 0.805664,0 1.274414,0.6884766 1.274414,1.8603516 0,1.1132812 -0.483398,1.80175777 -1.274414,1.80175777 -0.805664,0 -1.303711,-0.68847657 -1.303711,-1.83105467 0,-1.1279297 0.498047,-1.8310547 1.303711,-1.8310547 z m 7.397461,-0.5566406 h -0.761718 v -1.2890625 h -0.747071 v 1.2890625 H 34.50923 v 0.6152343 h 0.629883 v 3.54492192 c 0,0.48339843 0.322266,0.74707031 0.908203,0.74707031 0.175782,0 0.351563,-0.0146484 0.600586,-0.0585938 v -0.62988281 c -0.08789,0.0292969 -0.205078,0.0292969 -0.351562,0.0292969 -0.322266,0 -0.410156,-0.0878906 -0.410156,-0.41015625 V -4.0882559 h 0.761718 z m 0.838623,0 v 4.7021484 h 0.761719 v -2.4316406 c 0,-0.6738281 0.161133,-1.1132813 0.527344,-1.3769531 0.234375,-0.1757813 0.454101,-0.2197266 0.966797,-0.234375 v -0.7617188 c -0.117188,-0.014648 -0.175781,-0.029297 -0.278321,-0.029297 -0.483398,0 -0.849609,0.2929688 -1.289062,0.9814453 v -0.8496093 z m 7.078858,4.26269528 c -0.07324,0.0146484 -0.117188,0.0146484 -0.161133,0.0146484 -0.249023,0 -0.395508,-0.13183594 -0.395508,-0.36621094 V -3.5462637 c 0,-0.8349609 -0.615234,-1.2890625 -1.772461,-1.2890625 -0.673828,0 -1.245117,0.2050782 -1.552734,0.5419922 -0.219727,0.2490235 -0.307617,0.5126953 -0.322266,0.9814453 h 0.747071 c 0.05859,-0.571289 0.410156,-0.8349609 1.098632,-0.8349609 0.673828,0 1.054688,0.2490234 1.054688,0.703125 v 0.1904297 c 0,0.3222656 -0.19043,0.4541015 -0.776367,0.5273437 -1.054688,0.131836 -1.215821,0.1757813 -1.508789,0.2929688 -0.541993,0.2197265 -0.820313,0.6445312 -0.820313,1.2451172 0,0.84960934 0.585938,1.39160153 1.538086,1.39160153 0.585938,0 1.069336,-0.20507813 1.59668,-0.68847656 0.05859,0.46875 0.27832,0.68847656 0.776367,0.68847656 0.146484,0 0.263672,-0.0146484 0.498047,-0.0732422 z M 43.261672,-1.480834 c 0,0.2490235 -0.07324,0.4101563 -0.292969,0.61523439 -0.307617,0.27832031 -0.673828,0.41015625 -1.113281,0.41015625 -0.585938,0 -0.922852,-0.27832031 -0.922852,-0.74707034 0,-0.4980468 0.336914,-0.7470703 1.12793,-0.8642578 0.791016,-0.102539 0.952148,-0.1464844 1.201172,-0.2636719 z m 2.845459,-3.2226562 h -0.74707 v 4.7021484 h 0.74707 z m 0,-1.8310547 h -0.761719 v 0.9375 h 0.761719 z m 1.274414,1.8310547 v 4.7021484 h 0.74707 v -2.5927734 c 0,-0.9521485 0.512696,-1.5820313 1.274414,-1.5820313 0.600586,0 0.966797,0.3515625 0.966797,0.9228516 v 3.2519531 h 0.74707 v -3.5449219 c 0,-0.7910156 -0.585937,-1.2890625 -1.49414,-1.2890625 -0.688477,0 -1.142578,0.2636719 -1.552735,0.9228516 v -0.7910156 z m 5.701904,0 h -0.74707 v 4.7021484 h 0.74707 z m 0,-1.8310547 H 52.32173 v 0.9375 h 0.761719 z m 1.274414,1.8310547 v 4.7021484 h 0.747071 v -2.5927734 c 0,-0.9521485 0.512695,-1.5820313 1.274414,-1.5820313 0.600586,0 0.966797,0.3515625 0.966797,0.9228516 v 3.2519531 h 0.74707 v -3.5449219 c 0,-0.7910156 -0.585938,-1.2890625 -1.494141,-1.2890625 -0.688476,0 -1.142578,0.2636719 -1.552734,0.9228516 v -0.7910156 z m 8.045655,0 v 0.6884765 c -0.38086,-0.5566406 -0.834961,-0.8203125 -1.435547,-0.8203125 -1.186524,0 -1.992188,1.0400391 -1.992188,2.5634766 0,0.7763672 0.205078,1.40624999 0.585938,1.84570312 0.351562,0.39550781 0.849609,0.62988281 1.347656,0.62988281 0.585937,0 0.996094,-0.24902344 1.420898,-0.83496094 v 0.234375 c 0,0.64453125 -0.07324,1.02539063 -0.263671,1.2890625 C 61.861525,1.1705332 61.480666,1.331666 61.026564,1.331666 60.68965,1.331666 60.382033,1.229127 60.176955,1.0679941 60.001174,0.9361582 59.927932,0.8189707 59.883986,0.54065039 h -0.761718 c 0.08789,0.87890621 0.776367,1.40625001 1.875,1.40625001 0.703125,0 1.303711,-0.2197266 1.611328,-0.6005859 0.351562,-0.42480473 0.483398,-1.01074223 0.483398,-2.12402348 V -4.7034902 Z m -1.347657,0.5566406 c 0.805664,0 1.274414,0.6884766 1.274414,1.8603516 0,1.1132812 -0.483398,1.80175777 -1.274414,1.80175777 -0.805664,0 -1.303711,-0.68847657 -1.303711,-1.83105467 0,-1.1279297 0.498047,-1.8310547 1.303711,-1.8310547 z m 9.049073,0.7617187 c -0.01465,-0.9228515 -0.615235,-1.4501953 -1.699219,-1.4501953 -1.098633,0 -1.801758,0.5712891 -1.801758,1.4355469 0,0.7324219 0.366211,1.0839844 1.479492,1.3476563 l 0.703125,0.1757812 c 0.527344,0.1318359 0.732422,0.3222656 0.732422,0.6591797 0,0.43945312 -0.439453,0.73242187 -1.098633,0.73242187 -0.410156,0 -0.74707,-0.1171875 -0.9375,-0.30761719 C 67.365676,-0.9388418 67.32173,-1.0706777 67.277785,-1.3929434 H 66.48677 c 0.0293,1.08398442 0.644531,1.59667973 1.875,1.59667973 1.171875,0 1.933593,-0.5859375 1.933593,-1.49414063 0,-0.6884766 -0.395508,-1.0839844 -1.333008,-1.3037109 L 68.244582,-2.755248 c -0.600586,-0.1464844 -0.864258,-0.3515625 -0.864258,-0.6738282 0,-0.4394531 0.38086,-0.7177734 0.996094,-0.7177734 0.600586,0 0.922852,0.2636719 0.9375,0.7617187 z m 5.159912,1.2890625 c 0,-0.7177734 -0.05859,-1.1572265 -0.19043,-1.4941406 -0.307617,-0.7763672 -1.025391,-1.2451172 -1.904297,-1.2451172 -1.303711,0 -2.15332,1.0107422 -2.15332,2.5488282 0,1.53808589 0.820312,2.49023433 2.138672,2.49023433 1.083984,0 1.816406,-0.61523438 2.006836,-1.62597653 h -0.747071 c -0.205078,0.61523434 -0.629882,0.93749997 -1.230468,0.93749997 -0.46875,0 -0.878907,-0.21972657 -1.12793,-0.61523437 -0.175781,-0.2636719 -0.249024,-0.5273438 -0.249024,-0.9960938 z m -3.442383,-0.6152343 c 0.05859,-0.8642578 0.585937,-1.4355469 1.347656,-1.4355469 0.732422,0 1.289063,0.6152344 1.289063,1.3916016 0,0.014648 0,0.029297 0,0.043945 z m 6.097412,-1.9921875 h -0.761719 v -1.2890625 h -0.74707 v 1.2890625 h -0.629883 v 0.6152343 h 0.629883 v 3.54492192 c 0,0.48339843 0.322266,0.74707031 0.908203,0.74707031 0.175781,0 0.351563,-0.0146484 0.600586,-0.0585938 v -0.62988281 c -0.08789,0.0292969 -0.205078,0.0292969 -0.351563,0.0292969 -0.322265,0 -0.410156,-0.0878906 -0.410156,-0.41015625 V -4.0882559 h 0.761719 z m 4.14917,1.3183593 c -0.01465,-0.9228515 -0.615234,-1.4501953 -1.699219,-1.4501953 -1.098633,0 -1.801758,0.5712891 -1.801758,1.4355469 0,0.7324219 0.366211,1.0839844 1.479493,1.3476563 l 0.703125,0.1757812 c 0.527343,0.1318359 0.732421,0.3222656 0.732421,0.6591797 0,0.43945312 -0.439453,0.73242187 -1.098632,0.73242187 -0.410157,0 -0.747071,-0.1171875 -0.9375,-0.30761719 C 79.329787,-0.9388418 79.285842,-1.0706777 79.241896,-1.3929434 h -0.791015 c 0.0293,1.08398442 0.644531,1.59667973 1.875,1.59667973 1.171875,0 1.933594,-0.5859375 1.933594,-1.49414063 0,-0.6884766 -0.395508,-1.0839844 -1.333008,-1.3037109 L 80.208693,-2.755248 c -0.600586,-0.1464844 -0.864257,-0.3515625 -0.864257,-0.6738282 0,-0.4394531 0.380859,-0.7177734 0.996093,-0.7177734 0.600586,0 0.922852,0.2636719 0.9375,0.7617187 z m 0,0"
       style="fill:#000000;fill-opacity:1;fill-rule:nonzero;stroke:none"
       aria-label="Buildingtrainingsets"
       transform="matrix(1.0666667,0,0,1.0666667,192.13547,85.2944)" />
    <path
       id="path21"
       d="m 94.47581,-20.14214 h 6.64113 v 6.64113 h -6.64113 z"
       style="fill:#ffd24c;fill-opacity:1;fill-rule:nonzero;stroke:none"
       transform="matrix(1.0666667,0,0,-1.0666667,80.125867,80.1264)" />
    <path
       id="path22"
       d="M 1.6710957,-2.8112773 H 3.824416 c 0.7470703,0 1.069336,0.3515625 1.069336,1.1572265 v 0.5859375 c 0,0.41015627 0.058594,0.80566408 0.1757812,1.06933596 H 6.0949238 V -0.20385547 C 5.7726582,-0.42358203 5.7140645,-0.65795703 5.699416,-1.5222148 5.6847676,-2.5915508 5.5089863,-2.9284648 4.8058613,-3.2214336 5.5382832,-3.5876445 5.831252,-4.0417461 5.831252,-4.7888164 c 0,-1.1279297 -0.703125,-1.7431641 -1.9775391,-1.7431641 H 0.83613477 V 0.00122266 H 1.6710957 Z m 0,-0.7324219 v -2.2558594 h 2.0214844 c 0.4541015,0 0.7324219,0.073242 0.9375,0.2490234 0.2197265,0.1904297 0.336914,0.4833985 0.336914,0.8789063 0,0.7763672 -0.3955078,1.1279297 -1.274414,1.1279297 z m 9.4006343,1.4501953 c 0,-0.7177734 -0.05859,-1.1572266 -0.190429,-1.4941406 -0.307617,-0.7763672 -1.0253908,-1.2451172 -1.9042971,-1.2451172 -1.3037109,0 -2.1533203,1.0107422 -2.1533203,2.5488281 0,1.53808594 0.8203125,2.49023438 2.1386719,2.49023438 1.0839845,0 1.8164065,-0.61523437 2.0068355,-1.62597658 h -0.74707 c -0.205078,0.61523439 -0.6298827,0.93750002 -1.2304687,0.93750002 -0.46875,0 -0.8789062,-0.21972656 -1.1279296,-0.61523442 C 7.6879414,-1.361082 7.6146992,-1.6247539 7.6146992,-2.0935039 Z M 7.6293477,-2.7087383 c 0.058594,-0.8642578 0.5859375,-1.4355469 1.3476562,-1.4355469 0.7324219,0 1.2890621,0.6152344 1.2890621,1.3916016 0,0.014648 0,0.029297 0,0.043945 z m 6.0864253,-1.9921875 h -0.776367 v -0.7324219 c 0,-0.3076171 0.175781,-0.46875 0.512696,-0.46875 0.07324,0 0.102539,0 0.263671,0 V -6.517332 c -0.161132,-0.029297 -0.263671,-0.043945 -0.424804,-0.043945 -0.688477,0 -1.098633,0.3955078 -1.098633,1.0693359 v 0.7910156 h -0.629883 v 0.6152344 h 0.629883 v 4.08691406 h 0.74707 V -4.0856914 h 0.776367 z m 1.655274,0 h -0.74707 v 4.70214846 h 0.74707 z m 0,-1.8310547 h -0.74707 v 0.9375 h 0.74707 z m 1.201172,1.8310547 v 4.70214846 h 0.74707 V -2.5915508 c 0,-0.9521484 0.512695,-1.5820312 1.274414,-1.5820312 0.600586,0 0.966797,0.3515625 0.966797,0.9228515 v 3.25195316 h 0.74707 V -3.5436992 c 0,-0.7910156 -0.585937,-1.2890625 -1.49414,-1.2890625 -0.688477,0 -1.142578,0.2636719 -1.552735,0.9228515 v -0.7910156 z m 5.701904,0 h -0.74707 v 4.70214846 h 0.74707 z m 0,-1.8310547 h -0.761719 v 0.9375 h 0.761719 z m 1.274414,1.8310547 v 4.70214846 h 0.74707 V -2.5915508 c 0,-0.9521484 0.512696,-1.5820312 1.274414,-1.5820312 0.600586,0 0.966797,0.3515625 0.966797,0.9228515 v 3.25195316 h 0.747071 V -3.5436992 c 0,-0.7910156 -0.585938,-1.2890625 -1.494141,-1.2890625 -0.688477,0 -1.142578,0.2636719 -1.552734,0.9228515 v -0.7910156 z m 8.045654,0 v 0.6884766 c -0.380859,-0.5566406 -0.834961,-0.8203125 -1.435546,-0.8203125 -1.186524,0 -1.992188,1.040039 -1.992188,2.5634765 0,0.7763672 0.205078,1.40625004 0.585938,1.84570317 0.351562,0.39550781 0.849609,0.62988281 1.347656,0.62988281 0.585937,0 0.996094,-0.24902344 1.420898,-0.83496094 v 0.234375 c 0,0.64453125 -0.07324,1.02539063 -0.263672,1.2890625 -0.205078,0.27832036 -0.585937,0.43945316 -1.040039,0.43945316 -0.336914,0 -0.644531,-0.1025391 -0.849609,-0.2636719 C 29.191848,0.93872266 29.118605,0.82153516 29.07466,0.54321484 h -0.761719 c 0.08789,0.87890626 0.776368,1.40624996 1.875,1.40624996 0.703125,0 1.303711,-0.2197265 1.611329,-0.6005859 0.351562,-0.42480468 0.483398,-1.01074218 0.483398,-2.12402343 V -4.7009258 Z m -1.347656,0.5566406 c 0.805664,0 1.274414,0.6884766 1.274414,1.8603516 0,1.1132813 -0.483398,1.80175782 -1.274414,1.80175782 -0.805664,0 -1.303711,-0.68847652 -1.303711,-1.83105472 0,-1.1279297 0.498047,-1.8310547 1.303711,-1.8310547 z m 9.916992,3.70605473 c -0.07324,0.0146484 -0.117187,0.0146484 -0.161132,0.0146484 -0.249024,0 -0.395508,-0.13183594 -0.395508,-0.36621094 V -3.5436992 c 0,-0.834961 -0.615235,-1.2890625 -1.772461,-1.2890625 -0.673828,0 -1.245117,0.2050781 -1.552735,0.5419922 -0.219726,0.2490234 -0.307617,0.5126953 -0.322265,0.9814453 h 0.74707 c 0.05859,-0.5712891 0.410156,-0.834961 1.098633,-0.834961 0.673828,0 1.054687,0.2490235 1.054687,0.703125 v 0.1904297 c 0,0.3222657 -0.190429,0.4541016 -0.776367,0.5273438 -1.054687,0.1318359 -1.21582,0.1757812 -1.508789,0.2929687 -0.541992,0.2197266 -0.820312,0.6445313 -0.820312,1.2451172 0,0.84960939 0.585937,1.39160158 1.538086,1.39160158 0.585937,0 1.069336,-0.20507812 1.596679,-0.68847656 0.05859,0.46875 0.278321,0.68847656 0.776367,0.68847656 0.146485,0 0.263672,-0.0146484 0.498047,-0.0732422 z M 38.859816,-1.4782695 c 0,0.2490234 -0.07324,0.4101562 -0.292968,0.61523434 -0.307618,0.27832032 -0.673828,0.41015625 -1.113282,0.41015625 -0.585937,0 -0.922851,-0.27832031 -0.922851,-0.74707029 0,-0.4980469 0.336914,-0.7470703 1.12793,-0.8642578 0.791015,-0.1025391 0.952148,-0.1464844 1.201171,-0.2636719 z m 2.860108,-5.053711 h -0.74707 v 6.53320316 h 0.74707 z m 4.321289,1.8310547 v 0.6884766 c -0.380859,-0.5566406 -0.834961,-0.8203125 -1.435547,-0.8203125 -1.186523,0 -1.992187,1.040039 -1.992187,2.5634765 0,0.7763672 0.205078,1.40625004 0.585937,1.84570317 0.351563,0.39550781 0.849609,0.62988281 1.347656,0.62988281 0.585938,0 0.996094,-0.24902344 1.420899,-0.83496094 v 0.234375 c 0,0.64453125 -0.07324,1.02539063 -0.263672,1.2890625 -0.205078,0.27832036 -0.585938,0.43945316 -1.040039,0.43945316 -0.336914,0 -0.644531,-0.1025391 -0.84961,-0.2636719 C 43.638869,0.93872266 43.565627,0.82153516 43.521682,0.54321484 h -0.761719 c 0.08789,0.87890626 0.776367,1.40624996 1.875,1.40624996 0.703125,0 1.303711,-0.2197265 1.611328,-0.6005859 0.351563,-0.42480468 0.483398,-1.01074218 0.483398,-2.12402343 V -4.7009258 Z m -1.347656,0.5566406 c 0.805664,0 1.274414,0.6884766 1.274414,1.8603516 0,1.1132813 -0.483399,1.80175782 -1.274414,1.80175782 -0.805664,0 -1.303711,-0.68847652 -1.303711,-1.83105472 0,-1.1279297 0.498047,-1.8310547 1.303711,-1.8310547 z m 5.072021,-0.6884765 c -1.318359,0 -2.109375,0.9375 -2.109375,2.5195312 0,1.58203128 0.791016,2.51953128 2.124024,2.51953128 1.318359,0 2.124023,-0.9375 2.124023,-2.47558598 0,-1.6259765 -0.776367,-2.5634765 -2.138672,-2.5634765 z m 0.01465,0.6884765 c 0.849609,0 1.347656,0.6884766 1.347656,1.8603516 0,1.0986328 -0.527344,1.80175782 -1.347656,1.80175782 -0.834961,0 -1.347657,-0.68847652 -1.347657,-1.83105472 0,-1.1279297 0.512696,-1.8310547 1.347657,-1.8310547 z m 3.153076,-0.5566406 v 4.70214846 h 0.761718 V -2.430418 c 0,-0.6738281 0.161133,-1.1132812 0.527344,-1.3769531 0.234375,-0.1757812 0.454102,-0.2197266 0.966797,-0.234375 v -0.7617187 c -0.117187,-0.014648 -0.175781,-0.029297 -0.27832,-0.029297 -0.483399,0 -0.84961,0.2929687 -1.289063,0.9814453 v -0.8496094 z m 3.852539,0 h -0.747071 v 4.70214846 h 0.747071 z m 0,-1.8310547 h -0.761719 v 0.9375 h 0.761719 z m 2.915039,1.8310547 h -0.761719 v -1.2890625 h -0.74707 v 1.2890625 H 57.56221 v 0.6152344 h 0.629883 v 3.54492187 c 0,0.48339844 0.322265,0.74707031 0.908203,0.74707031 0.175781,0 0.351562,-0.0146484 0.600586,-0.0585938 v -0.62988281 c -0.08789,0.0292969 -0.205078,0.0292969 -0.351563,0.0292969 -0.322265,0 -0.410156,-0.0878906 -0.410156,-0.41015625 V -4.0856914 h 0.761719 z m 0.849609,-1.8310547 v 6.53320316 h 0.747071 V -2.5915508 c 0,-0.9521484 0.498046,-1.5820312 1.274414,-1.5820312 0.234375,0 0.483398,0.073242 0.659179,0.2050781 0.219727,0.1611328 0.307617,0.3808594 0.307617,0.7177734 v 3.25195316 h 0.732422 V -3.5436992 c 0,-0.7910156 -0.55664,-1.2890625 -1.479492,-1.2890625 -0.65918,0 -1.054687,0.2050781 -1.49414,0.7763672 v -2.475586 z m 4.987793,1.8310547 v 4.70214846 h 0.747071 V -2.9431133 c 0,-0.6884765 0.498046,-1.2304687 1.113281,-1.2304687 0.541992,0 0.864258,0.336914 0.864258,0.9375 v 3.23730466 h 0.74707 V -2.9431133 c 0,-0.6884765 0.498047,-1.2304687 1.113281,-1.2304687 0.541992,0 0.864258,0.3515625 0.864258,0.9375 v 3.23730466 h 0.74707 V -3.5290508 c 0,-0.8349609 -0.483398,-1.3037109 -1.362304,-1.3037109 -0.629883,0 -0.996094,0.1904297 -1.435547,0.7177734 -0.278321,-0.4980469 -0.65918,-0.7177734 -1.274414,-0.7177734 -0.615235,0 -1.025391,0.234375 -1.435547,0.805664 v -0.6738281 z m 10.76294,1.3183594 c -0.01465,-0.9228516 -0.615235,-1.4501953 -1.699219,-1.4501953 -1.098633,0 -1.801758,0.571289 -1.801758,1.4355469 0,0.7324218 0.366211,1.0839843 1.479492,1.3476562 l 0.703125,0.1757813 c 0.527344,0.1318359 0.732422,0.3222656 0.732422,0.6591796 0,0.43945317 -0.439453,0.73242192 -1.098633,0.73242192 -0.410156,0 -0.74707,-0.1171875 -0.9375,-0.30761719 C 73.561965,-0.93627734 73.51802,-1.0681133 73.474074,-1.3903789 h -0.791015 c 0.0293,1.08398437 0.644531,1.59667968 1.875,1.59667968 1.171875,0 1.933593,-0.5859375 1.933593,-1.49414058 0,-0.6884766 -0.395507,-1.0839844 -1.333007,-1.303711 l -0.717774,-0.1611328 c -0.600586,-0.1464844 -0.864258,-0.3515625 -0.864258,-0.6738281 0,-0.4394531 0.38086,-0.7177735 0.996094,-0.7177735 0.600586,0 0.922852,0.2636719 0.9375,0.7617188 z m 0,0"
       style="fill:#000000;fill-opacity:1;fill-rule:nonzero;stroke:none"
       aria-label="Refningalgorithms"
       transform="matrix(1.0666667,0,0,1.0666667,192.13547,100.52213)" />
    <path
       id="path23"
       d="m 94.47581,-34.31554 h 6.64113 v 6.64113 h -6.64113 z"
       style="fill:#b26cba;fill-opacity:1;fill-rule:nonzero;stroke:none"
       transform="matrix(1.0666667,0,0,-1.0666667,80.125867,80.1264)" />
    <path
       id="path24"
       d="m 3.487502,-6.6366152 c -1.875,0 -3.14941411,1.3769531 -3.14941411,3.4130859 0,2.0507813 1.27441411,3.42773438 3.16406251,3.42773438 0.7910156,0 1.4941406,-0.234375 2.0214844,-0.68847656 0.703125,-0.60058592 1.1279297,-1.61132812 1.1279297,-2.68066402 0,-2.109375 -1.2451172,-3.4716797 -3.1640625,-3.4716797 z m 0,0.7324218 c 1.4208984,0 2.3291015,1.069336 2.3291015,2.7246094 0,1.5673828 -0.9375,2.6513672 -2.3144531,2.6513672 -1.3916016,0 -2.3291016,-1.0839844 -2.3291016,-2.6953125 0,-1.6113281 0.9375,-2.6806641 2.3144532,-2.6806641 z M 9.248,-4.7030215 H 8.4862812 V -5.992084 H 7.7392109 v 1.2890625 H 7.1093281 v 0.6152344 h 0.6298828 v 3.54492187 c 0,0.48339843 0.3222657,0.74707031 0.9082032,0.74707031 0.1757812,0 0.3515625,-0.0146484 0.6005859,-0.0585938 v -0.62988281 c -0.087891,0.0292969 -0.2050781,0.0292969 -0.3515625,0.0292969 -0.3222656,0 -0.4101563,-0.0878906 -0.4101563,-0.41015625 V -4.0877871 H 9.248 Z m 0.849609,-1.8310547 V -8.7304687e-4 H 10.84468 V -2.5936465 c 0,-0.9521484 0.498047,-1.5820312 1.274414,-1.5820312 0.234375,0 0.483398,0.073242 0.659179,0.2050781 0.219727,0.1611328 0.307618,0.3808594 0.307618,0.7177734 v 3.25195315313 h 0.732421 V -3.5457949 c 0,-0.7910156 -0.55664,-1.2890625 -1.479492,-1.2890625 -0.659179,0 -1.054687,0.2050781 -1.49414,0.7763672 v -2.475586 z m 8.95752,4.4384766 c 0,-0.7177734 -0.05859,-1.1572266 -0.19043,-1.4941406 -0.307617,-0.7763672 -1.02539,-1.2451172 -1.904297,-1.2451172 -1.303711,0 -2.15332,1.0107422 -2.15332,2.5488281 0,1.53808594 0.820313,2.49023438 2.138672,2.49023438 1.083984,0 1.816406,-0.61523438 2.006836,-1.62597658 h -0.74707 c -0.205079,0.61523439 -0.629883,0.93750002 -1.230469,0.93750002 -0.46875,0 -0.878906,-0.21972657 -1.12793,-0.61523442 -0.175781,-0.2636718 -0.249023,-0.5273437 -0.249023,-0.9960937 z M 15.612746,-2.710834 c 0.05859,-0.8642578 0.585938,-1.4355469 1.347656,-1.4355469 0.732422,0 1.289063,0.6152344 1.289063,1.3916016 0,0.014648 0,0.029297 0,0.043945 z m 4.442139,-1.9921875 v 4.70214845313 h 0.761719 V -2.4325137 c 0,-0.6738281 0.161132,-1.1132812 0.527343,-1.3769531 0.234375,-0.1757812 0.454102,-0.2197266 0.966797,-0.234375 v -0.7617187 c -0.117187,-0.014648 -0.175781,-0.029297 -0.27832,-0.029297 -0.483399,0 -0.84961,0.2929687 -1.289063,0.9814453 v -0.8496094 z m 0,0"
       style="fill:#000000;fill-opacity:1;fill-rule:nonzero;stroke:none"
       aria-label="Other"
       transform="matrix(1.0666667,0,0,1.0666667,192.13547,116.6064)" />
  </g>
</svg>
