<?xml version="1.0" encoding="UTF-8" standalone="no"?>
<!-- Created with Inkscape (http://www.inkscape.org/) -->

<svg
   version="1.1"
   id="svg1"
   width="320.79599"
   height="69.597336"
   viewBox="0 0 320.79599 69.597336"
   xmlns="http://www.w3.org/2000/svg"
   xmlns:svg="http://www.w3.org/2000/svg">
  <defs
     id="defs1" />
  <g
     id="g1">
    <path
       id="path1"
       d="M -63.3118,-35.80711 H 282.54266 V 38.64177 H -63.3118 Z"
       style="fill:#ffffed;fill-opacity:1;fill-rule:nonzero;stroke:#b5b548;stroke-width:0.74721;stroke-linecap:butt;stroke-linejoin:miter;stroke-miterlimit:10;stroke-dasharray:none;stroke-opacity:1"
       transform="matrix(0.92556,0,0,-0.92556,58.944289,36.110573)" />
    <path
       id="path2"
       d="M -37.42606,-14.17339 H 37.42607 V 14.1734 h -74.85213 z"
       style="fill:#dbfda6;fill-opacity:1;fill-rule:nonzero;stroke:#495938;stroke-width:0.74721;stroke-linecap:butt;stroke-linejoin:miter;stroke-miterlimit:10;stroke-dasharray:none;stroke-opacity:1"
       transform="matrix(0.92556,0,0,-0.92556,58.944289,36.110573)" />
    <path
       id="path3"
       d="M 0.79292703,-9.1354783e-4 H 3.3082961 c 1.6544038,0 2.6673041,-1.23236205217 2.6673041,-3.27504425217 0,-2.0258006 -0.9960186,-3.2581627 -2.6673041,-3.2581627 H 0.79292703 Z M 1.6370106,-0.7437071 v -5.0645015 h 1.5362321 c 1.2830071,0 1.9751556,0.8778469 1.9751556,2.5491324 0,1.6375222 -0.6921485,2.5153691 -1.9751556,2.5153691 z m 9.6309934,0.30387009 c -0.08441,0.0168817 -0.118171,0.0168817 -0.151935,0.0168817 -0.270107,0 -0.40516,-0.13505337 -0.40516,-0.37139677 V -3.5460646 c 0,-0.8440836 -0.60774,-1.283007 -1.7725754,-1.283007 -0.6752669,0 -1.2492437,0.1856984 -1.5531138,0.5402135 -0.2194617,0.253225 -0.3038701,0.5064501 -0.3207518,0.9791369 h 0.7427936 c 0.067527,-0.5739768 0.4051601,-0.8272019 1.0973086,-0.8272019 0.6752669,0 1.0635454,0.2532251 1.0635454,0.6921485 v 0.2025801 c 0,0.3038701 -0.2025801,0.4389235 -0.7934386,0.5233318 -1.0466636,0.1350534 -1.2154804,0.1688167 -1.5024688,0.2869884 -0.5402135,0.2194618 -0.8272019,0.6415036 -0.8272019,1.2492437 0,0.84408362 0.5908585,1.38429711 1.5531138,1.38429711 0.5908585,0 1.0635453,-0.20258005783 1.5868771,-0.69214854 0.050645,0.47268681 0.2869888,0.69214854 0.7765568,0.69214854 0.151935,0 0.270107,-0.0168817 0.50645,-0.0844084 z M 9.9681156,-1.4865007 c 0,0.2532251 -0.084408,0.4051602 -0.3038701,0.60774023 -0.3038701,0.28698841 -0.6752669,0.42204179 -1.1141904,0.42204179 -0.5739768,0 -0.9284919,-0.27010675 -0.9284919,-0.74279352 0,-0.4895685 0.3376334,-0.7427936 1.131072,-0.8609653 0.7934386,-0.1181717 0.9622553,-0.151935 1.2154804,-0.2701067 z M 13.736949,-4.6940183 H 12.960392 V -5.993907 h -0.742794 v 1.2998887 h -0.641503 v 0.6077402 h 0.641503 v 3.54515106 c 0,0.47268681 0.320752,0.74279355 0.911611,0.74279355 0.168816,0 0.354515,-0.0168817 0.60774,-0.0675267 v -0.62462186 c -0.10129,0.0337634 -0.219462,0.0337634 -0.354515,0.0337634 -0.320752,0 -0.422042,-0.0844084 -0.422042,-0.42204179 V -4.0862781 h 0.776557 z m 5.009636,4.25418129 c -0.08441,0.0168817 -0.118172,0.0168817 -0.151935,0.0168817 -0.270107,0 -0.40516,-0.13505337 -0.40516,-0.37139677 V -3.5460646 c 0,-0.8440836 -0.607741,-1.283007 -1.772576,-1.283007 -0.675267,0 -1.249244,0.1856984 -1.553114,0.5402135 -0.219461,0.253225 -0.30387,0.5064501 -0.320751,0.9791369 h 0.742793 c 0.06753,-0.5739768 0.40516,-0.8272019 1.097309,-0.8272019 0.675267,0 1.063545,0.2532251 1.063545,0.6921485 v 0.2025801 c 0,0.3038701 -0.20258,0.4389235 -0.793438,0.5233318 -1.046664,0.1350534 -1.215481,0.1688167 -1.502469,0.2869884 -0.540214,0.2194618 -0.827202,0.6415036 -0.827202,1.2492437 0,0.84408362 0.590858,1.38429711 1.553114,1.38429711 0.590858,0 1.063545,-0.20258005783 1.586877,-0.69214854 0.05065,0.47268681 0.286988,0.69214854 0.776557,0.69214854 0.151935,0 0.270106,-0.0168817 0.50645,-0.0844084 z M 17.446696,-1.4865007 c 0,0.2532251 -0.08441,0.4051602 -0.30387,0.60774023 -0.30387,0.28698841 -0.675267,0.42204179 -1.11419,0.42204179 -0.573977,0 -0.928492,-0.27010675 -0.928492,-0.74279352 0,-0.4895685 0.337633,-0.7427936 1.131072,-0.8609653 0.793438,-0.1181717 0.962255,-0.151935 1.21548,-0.2701067 z m 0,0"
       style="fill:#000000;fill-opacity:1;fill-rule:nonzero;stroke:none"
       aria-label="Data"
       transform="matrix(0.92556,0,0,0.92556,50.180161,33.121939)" />
    <path
       id="path4"
       d="M 4.2556597,-1.9577621 4.9309266,5.1176225e-4 H 5.8594185 L 3.5635112,-6.5326952 H 2.4830842 L 0.15341348,5.1176225e-4 H 1.0481421 L 1.7234089,-1.9577621 Z M 4.0193163,-2.6667924 H 1.9428707 L 3.006416,-5.6379666 Z M 8.1722075,5.1176225e-4 9.9785464,-4.692593 H 9.1344628 L 7.8176924,-0.89421683 6.551567,-4.692593 H 5.7074834 L 7.3618873,5.1176225e-4 Z M 14.675872,-0.4384117 C 14.591462,-0.42153 14.5577,-0.42153 14.523936,-0.42153 c -0.270106,0 -0.40516,-0.13505337 -0.40516,-0.37139677 V -3.5446393 c 0,-0.8440836 -0.60774,-1.283007 -1.772575,-1.283007 -0.675267,0 -1.249244,0.1856984 -1.553114,0.5402135 -0.219462,0.253225 -0.30387,0.5064501 -0.320752,0.9791369 h 0.742794 c 0.06753,-0.5739768 0.40516,-0.8272019 1.097308,-0.8272019 0.675267,0 1.063546,0.2532251 1.063546,0.6921485 v 0.2025801 c 0,0.3038701 -0.20258,0.4389235 -0.793439,0.5233318 -1.046663,0.1350534 -1.21548,0.1688167 -1.502469,0.2869884 -0.540213,0.2194618 -0.827201,0.6415036 -0.827201,1.2492437 0,0.84408366 0.590858,1.38429715 1.553113,1.38429715 0.590859,0 1.063546,-0.20258005775 1.586877,-0.69214854 0.05065,0.47268681 0.286989,0.69214854 0.776557,0.69214854 0.151935,0 0.270107,-0.0168817 0.506451,-0.0844084 z m -1.299889,-1.0466636 c 0,0.253225 -0.08441,0.4051601 -0.30387,0.60774014 -0.30387,0.28698841 -0.675267,0.42204179 -1.114191,0.42204179 -0.573976,0 -0.928492,-0.27010675 -0.928492,-0.74279353 0,-0.4895685 0.337634,-0.7427936 1.131072,-0.8609653 0.793439,-0.1181717 0.962256,-0.151935 1.215481,-0.2701067 z M 16.216324,-4.692593 H 15.47353 V 5.1176225e-4 h 0.742794 z m 0,-1.8401022 h -0.759675 v 0.9453737 h 0.759675 z m 2.008919,0 H 17.465568 V 5.1176225e-4 h 0.759675 z m 5.414796,6.0942835 c -0.08441,0.0168817 -0.118172,0.0168817 -0.151935,0.0168817 -0.270107,0 -0.40516,-0.13505337 -0.40516,-0.37139677 V -3.5446393 c 0,-0.8440836 -0.60774,-1.283007 -1.772576,-1.283007 -0.675266,0 -1.249243,0.1856984 -1.553113,0.5402135 -0.219462,0.253225 -0.30387,0.5064501 -0.320752,0.9791369 h 0.742793 c 0.06753,-0.5739768 0.405161,-0.8272019 1.097309,-0.8272019 0.675267,0 1.063545,0.2532251 1.063545,0.6921485 v 0.2025801 c 0,0.3038701 -0.20258,0.4389235 -0.793438,0.5233318 -1.046664,0.1350534 -1.21548,0.1688167 -1.502469,0.2869884 -0.540213,0.2194618 -0.827202,0.6415036 -0.827202,1.2492437 0,0.84408366 0.590859,1.38429715 1.553114,1.38429715 0.590858,0 1.063545,-0.20258005775 1.586877,-0.69214854 0.05064,0.47268681 0.286989,0.69214854 0.776557,0.69214854 0.151935,0 0.270107,-0.0168817 0.50645,-0.0844084 z M 22.34015,-1.4850753 c 0,0.253225 -0.08441,0.4051601 -0.30387,0.60774014 -0.30387,0.28698841 -0.675267,0.42204179 -1.11419,0.42204179 -0.573977,0 -0.928492,-0.27010675 -0.928492,-0.74279353 0,-0.4895685 0.337634,-0.7427936 1.131072,-0.8609653 0.793439,-0.1181717 0.962255,-0.151935 1.21548,-0.2701067 z m 1.983597,-5.0476199 V 5.1176225e-4 h 0.658385 V -0.60722842 c 0.371397,0.55709517 0.844084,0.81032024 1.502469,0.81032024 1.232362,0 2.042682,-1.0129003 2.042682,-2.56601412 0,-1.5193504 -0.776557,-2.464724 -2.008919,-2.464724 -0.641503,0 -1.11419,0.2363434 -1.451824,0.7596752 v -2.4647241 z m 2.042682,2.3971974 c 0.844084,0 1.384297,0.7259119 1.384297,1.8569839 0,1.0635453 -0.557095,1.78945718 -1.384297,1.78945718 -0.776557,0 -1.299889,-0.72591188 -1.299889,-1.82322058 0,-1.0973086 0.523332,-1.8232205 1.299889,-1.8232205 z M 30.169026,-4.692593 H 29.426232 V 5.1176225e-4 h 0.742794 z m 0,-1.8401022 H 29.40935 v 0.9453737 h 0.759676 z m 2.008919,0 H 31.418269 V 5.1176225e-4 h 0.759676 z M 34.14888,-4.692593 H 33.406086 V 5.1176225e-4 h 0.742794 z m 0,-1.8401022 h -0.759675 v 0.9453737 h 0.759675 z m 2.920529,1.8401022 h -0.776557 v -1.2998887 h -0.742794 v 1.2998887 h -0.641503 v 0.6077402 h 0.641503 v 3.54515107 c 0,0.47268681 0.320752,0.74279355 0.911611,0.74279355 0.168816,0 0.354515,-0.0168817 0.60774,-0.0675267 v -0.62462186 c -0.10129,0.0337634 -0.219462,0.0337634 -0.354515,0.0337634 -0.320752,0 -0.422042,-0.0844084 -0.422042,-0.42204179 V -4.0848528 h 0.776557 z m 3.688645,0 -1.299889,3.6464411 -1.198598,-3.6464411 h -0.793439 l 1.586877,4.70998643 -0.286988,0.74279356 c -0.118172,0.33763341 -0.286988,0.45580511 -0.60774,0.45580511 -0.10129,0 -0.236344,-0.016882 -0.388279,-0.050645 V 1.840614 c 0.151935,0.084408 0.30387,0.1181717 0.489569,0.1181717 0.253225,0 0.50645,-0.084408 0.70903,-0.2363434 0.236343,-0.1688167 0.371397,-0.3545151 0.50645,-0.74279358 L 41.568374,-4.692593 Z m 0,0"
       style="fill:#000000;fill-opacity:1;fill-rule:nonzero;stroke:none"
       aria-label="Availability"
       transform="matrix(0.92556,0,0,0.92556,39.615819,43.265151)" />
    <path
       id="path5"
       d="m 72.18935,-14.17339 h 74.85213 V 14.1734 H 72.18935 Z"
       style="fill:#d1f3ff;fill-opacity:1;fill-rule:nonzero;stroke:#2294bd;stroke-width:0.74721;stroke-linecap:butt;stroke-linejoin:miter;stroke-miterlimit:10;stroke-dasharray:none;stroke-opacity:1"
       transform="matrix(0.92556,0,0,-0.92556,58.944289,36.110573)" />
    <path
       id="path6"
       d="m 4.2535995,-1.9564589 0.6752668,1.95827395 h 0.928492 L 3.5614509,-6.5313919 H 2.481024 L 0.15135327,0.00181505 H 1.0460819 L 1.7213487,-1.9564589 Z M 4.0172561,-2.6654891 H 1.9408105 L 3.0043558,-5.6366633 Z M 7.3471658,-6.5313919 H 6.5874906 v 6.53320695 h 0.7596752 z m 4.3217082,1.8401022 v 0.6752669 C 11.280595,-4.573118 10.82479,-4.826343 10.233932,-4.826343 c -1.198599,0 -2.0089193,1.0297819 -2.0089193,2.566014 0,0.7596753 0.2194618,1.38429712 0.5908585,1.84010226 0.3545151,0.38827845 0.8609653,0.62462185 1.3505338,0.62462185 0.590858,0 1.0129,-0.25322508 1.434942,-0.84408358 v 0.25322507 c 0,0.62462185 -0.08441,1.0129003 -0.270107,1.28300705 -0.20258,0.27010675 -0.590858,0.43892345 -1.046663,0.43892345 -0.3376338,0 -0.6415039,-0.10129 -0.8440839,-0.2532251 C 9.2547947,0.94718866 9.187268,0.81213529 9.1535047,0.54202854 H 8.3769478 C 8.4613561,1.4198755 9.1535047,1.960089 10.250813,1.960089 c 0.709031,0 1.299889,-0.2363434 1.603759,-0.6077402 0.371397,-0.42204181 0.50645,-1.01290032 0.50645,-2.12709065 V -4.6912897 Z m -1.350534,0.5570952 c 0.793439,0 1.283007,0.6752669 1.283007,1.8569839 0,1.1141903 -0.489568,1.78945717 -1.283007,1.78945717 -0.8103202,0 -1.2998887,-0.69214857 -1.2998887,-1.82322057 0,-1.131072 0.4895685,-1.8232205 1.2998887,-1.8232205 z m 5.068722,-0.6921485 c -1.31677,0 -2.110209,0.9453736 -2.110209,2.515369 0,1.5699955 0.793439,2.51536911 2.127091,2.51536911 1.31677,0 2.12709,-0.94537361 2.12709,-2.48160571 0,-1.6206405 -0.776557,-2.5491324 -2.143972,-2.5491324 z m 0.01688,0.6921485 c 0.844083,0 1.350533,0.6921485 1.350533,1.8569839 0,1.0973086 -0.523331,1.78945717 -1.350533,1.78945717 -0.827202,0 -1.350534,-0.69214857 -1.350534,-1.82322057 0,-1.131072 0.523332,-1.8232205 1.350534,-1.8232205 z m 3.161093,-0.5570952 V 0.00181505 H 19.30783 V -2.4291457 c 0,-0.6752668 0.168817,-1.1141903 0.540214,-1.384297 0.219461,-0.1688168 0.455805,-0.2194618 0.962255,-0.2194618 v -0.7765569 c -0.118172,-0.016882 -0.185698,-0.016882 -0.286988,-0.016882 -0.472687,0 -0.844084,0.2869884 -1.266126,0.9791369 v -0.8440836 z m 3.849021,0 h -0.742794 v 4.69310475 h 0.742794 z m 0,-1.8401022 h -0.759675 v 0.9453736 h 0.759675 z m 2.916309,1.8401022 H 24.55381 v -1.2998887 h -0.742794 v 1.2998887 h -0.641503 v 0.6077402 h 0.641503 v 3.54515106 c 0,0.4726868 0.320752,0.74279355 0.91161,0.74279355 0.168817,0 0.354515,-0.0168817 0.607741,-0.0675267 v -0.62462185 c -0.101291,0.0337633 -0.219462,0.0337633 -0.354516,0.0337633 -0.320751,0 -0.422041,-0.0844084 -0.422041,-0.42204179 V -4.0835495 h 0.776557 z m 0.839863,-1.8401022 v 6.53320695 h 0.742793 V -2.5810807 c 0,-0.9622553 0.50645,-1.5868771 1.283007,-1.5868771 0.236344,0 0.472687,0.067527 0.658385,0.20258 0.219462,0.1519351 0.303871,0.3882785 0.303871,0.7090302 v 3.25816265 h 0.742793 V -3.543336 c 0,-0.7934386 -0.557095,-1.283007 -1.485587,-1.283007 -0.658385,0 -1.063545,0.20258 -1.502469,0.7765569 v -2.4816058 z m 4.984313,1.8401022 v 4.69310475 h 0.759675 V -2.9524775 c 0,-0.6752669 0.489569,-1.2154803 1.097309,-1.2154803 0.557095,0 0.877847,0.3376334 0.877847,0.9284919 v 3.24128095 h 0.742794 V -2.9524775 c 0,-0.6752669 0.489568,-1.2154803 1.11419,-1.2154803 0.540213,0 0.860965,0.3376334 0.860965,0.9284919 v 3.24128095 h 0.759675 V -3.5264543 c 0,-0.8440836 -0.489568,-1.2998887 -1.367415,-1.2998887 -0.624622,0 -1.0129,0.1856983 -1.451824,0.7090302 -0.270107,-0.4895685 -0.641503,-0.7090302 -1.249243,-0.7090302 -0.641504,0 -1.046664,0.2363434 -1.451824,0.7934385 v -0.6583852 z m 8.196052,0 h -0.742794 v 4.69310475 h 0.742794 z m 0,-1.8401022 H 38.59092 v 0.9453736 h 0.759675 z m 4.861921,3.4100977 c -0.03376,-0.4558051 -0.135053,-0.7427936 -0.30387,-1.0129003 -0.337633,-0.4389235 -0.894728,-0.6921485 -1.553114,-0.6921485 -1.266125,0 -2.093327,0.9960186 -2.093327,2.566014 0,1.50246883 0.81032,2.46472411 2.093327,2.46472411 1.114191,0 1.823221,-0.67526687 1.907629,-1.82322051 h -0.742793 c -0.135054,0.7596752 -0.523332,1.13107197 -1.147954,1.13107197 -0.827202,0 -1.31677,-0.65838517 -1.31677,-1.77257557 0,-1.181717 0.472686,-1.8738655 1.299888,-1.8738655 0.624622,0 1.012901,0.3545151 1.097309,1.0129003 z m 0,0"
       style="fill:#000000;fill-opacity:1;fill-rule:nonzero;stroke:none"
       aria-label="Algorithmic"
       transform="matrix(0.92556,0,0,0.92556,139.81694,33.947539)" />
    <path
       id="path7"
       d="M 1.7385598,-6.534187 H 0.89447625 V -9.8005892e-4 H 1.7385598 Z m 1.3800767,1.8401022 V -9.8005892e-4 H 3.8783117 V -2.5838758 c 0,-0.9622553 0.5064502,-1.5868772 1.2661254,-1.5868772 0.5908585,0 0.9791369,0.3545152 0.9791369,0.9116103 V -9.8005892e-4 H 6.8663676 V -3.5461311 c 0,-0.7765569 -0.5908585,-1.283007 -1.5024688,-1.283007 -0.6921485,0 -1.1479537,0.2701067 -1.5531138,0.9116102 v -0.7765569 z m 4.9843135,0 V -9.8005892e-4 H 8.8626253 V -2.5838758 c 0,-0.9622553 0.5064501,-1.5868772 1.2661257,-1.5868772 0.590858,0 0.979137,0.3545152 0.979137,0.9116103 v 3.25816264108 h 0.742793 V -3.5461311 c 0,-0.7765569 -0.590858,-1.283007 -1.502469,-1.283007 -0.6921482,0 -1.1479533,0.2701067 -1.5531134,0.9116102 v -0.7765569 z m 6.790652,-0.1350533 c -1.31677,0 -2.110208,0.9453736 -2.110208,2.515369 0,1.56999549 0.793438,2.5153691 2.12709,2.5153691 1.316771,0 2.127091,-0.94537361 2.127091,-2.4816057 0,-1.6206405 -0.776557,-2.5491324 -2.143973,-2.5491324 z m 0.01688,0.6921485 c 0.844084,0 1.350534,0.6921485 1.350534,1.8569839 0,1.0973086 -0.523332,1.78945716 -1.350534,1.78945716 -0.827202,0 -1.350534,-0.69214856 -1.350534,-1.82322056 0,-1.131072 0.523332,-1.8232205 1.350534,-1.8232205 z M 19.865255,-9.8005892e-4 21.671594,-4.6940848 H 20.82751 l -1.31677,3.79837614 -1.266126,-3.79837614 h -0.844083 l 1.654404,4.69310474108 z M 26.368919,-0.43990352 c -0.08441,0.0168817 -0.118172,0.0168817 -0.151935,0.0168817 -0.270107,0 -0.40516,-0.13505337 -0.40516,-0.37139678 v -2.7517125 c 0,-0.8440836 -0.607741,-1.283007 -1.772576,-1.283007 -0.675267,0 -1.249244,0.1856983 -1.553114,0.5402134 -0.219461,0.2532251 -0.30387,0.5064502 -0.320751,0.979137 h 0.742793 c 0.06753,-0.5739768 0.40516,-0.8272019 1.097309,-0.8272019 0.675267,0 1.063545,0.2532251 1.063545,0.6921485 v 0.2025801 c 0,0.3038701 -0.20258,0.4389234 -0.793439,0.5233318 -1.046663,0.1350534 -1.21548,0.1688167 -1.502468,0.2869884 -0.540214,0.2194618 -0.827202,0.6415035 -0.827202,1.2492437 0,0.84408361 0.590858,1.3842971 1.553114,1.3842971 0.590858,0 1.063545,-0.20258005892 1.586877,-0.69214854 C 25.136557,-0.01786173 25.3729,0.2016 25.862469,0.2016 c 0.151935,0 0.270106,-0.0168817 0.50645,-0.0844084 z M 25.06903,-1.4865672 c 0,0.2532251 -0.08441,0.4051602 -0.30387,0.60774022 -0.30387,0.28698841 -0.675267,0.42204179 -1.11419,0.42204179 -0.573977,0 -0.928492,-0.27010675 -0.928492,-0.74279351 0,-0.4895685 0.337633,-0.7427936 1.131072,-0.8609653 0.793438,-0.1181717 0.962255,-0.151935 1.21548,-0.2701067 z m 3.768833,-3.2075176 h -0.776557 v -1.2998887 h -0.742793 v 1.2998887 h -0.641504 v 0.6077402 h 0.641504 v 3.54515105 c 0,0.4726868 0.320752,0.74279355 0.91161,0.74279355 0.168817,0 0.354515,-0.0168817 0.60774,-0.0675267 v -0.62462185 c -0.10129,0.0337633 -0.219462,0.0337633 -0.354515,0.0337633 -0.320752,0 -0.422042,-0.0844084 -0.422042,-0.42204179 V -4.0863446 h 0.776557 z m 1.565775,0 h -0.742793 v 4.69310474108 h 0.742793 z m 0,-1.8401022 h -0.759675 v 0.9453736 h 0.759675 z m 3.068244,1.7050489 c -1.31677,0 -2.110209,0.9453736 -2.110209,2.515369 0,1.56999549 0.793439,2.5153691 2.127091,2.5153691 1.31677,0 2.12709,-0.94537361 2.12709,-2.4816057 0,-1.6206405 -0.776557,-2.5491324 -2.143972,-2.5491324 z m 0.01688,0.6921485 c 0.844083,0 1.350533,0.6921485 1.350533,1.8569839 0,1.0973086 -0.523331,1.78945716 -1.350533,1.78945716 -0.827202,0 -1.350534,-0.69214856 -1.350534,-1.82322056 0,-1.131072 0.523332,-1.8232205 1.350534,-1.8232205 z m 3.161093,-0.5570952 V -9.8005892e-4 H 37.40953 V -2.5838758 c 0,-0.9622553 0.50645,-1.5868772 1.266125,-1.5868772 0.590859,0 0.979137,0.3545152 0.979137,0.9116103 v 3.25816264108 h 0.742794 V -3.5461311 c 0,-0.7765569 -0.590859,-1.283007 -1.502469,-1.283007 -0.692148,0 -1.147954,0.2701067 -1.553114,0.9116102 v -0.7765569 z m 8.297341,1.2998887 c -0.01688,-0.9116102 -0.624621,-1.434942 -1.705048,-1.434942 -1.097309,0 -1.806339,0.5570951 -1.806339,1.434942 0,0.7259119 0.371396,1.080427 1.485587,1.3505338 l 0.70903,0.1688167 c 0.50645,0.1181717 0.725912,0.3207518 0.725912,0.6583852 0,0.43892345 -0.438924,0.72591186 -1.097309,0.72591186 -0.40516,0 -0.742793,-0.1181717 -0.928492,-0.30387009 C 42.212368,-0.929472 42.144841,-1.0645254 42.111078,-1.4021588 h -0.793439 c 0.03376,1.08042698 0.641504,1.6037588 1.873866,1.6037588 1.181717,0 1.941392,-0.57397683 1.941392,-1.4855871 0,-0.6921485 -0.40516,-1.080427 -1.333652,-1.2998887 l -0.70903,-0.1856984 c -0.607741,-0.1350534 -0.877847,-0.3376334 -0.877847,-0.6583852 0,-0.4389235 0.388278,-0.7090302 0.996018,-0.7090302 0.60774,0 0.928492,0.2532251 0.945374,0.7427935 z m 0,0"
       style="fill:#000000;fill-opacity:1;fill-rule:nonzero;stroke:none"
       aria-label="Innovations"
       transform="matrix(0.92556,0,0,0.92556,139.34398,44.090751)" />
    <path
       id="path8"
       d="m 181.80478,-14.17339 h 74.85213 V 14.1734 h -74.85213 z"
       style="fill:#fde2f0;fill-opacity:1;fill-rule:nonzero;stroke:#c9146e;stroke-width:0.74721;stroke-linecap:butt;stroke-linejoin:miter;stroke-miterlimit:10;stroke-dasharray:none;stroke-opacity:1"
       transform="matrix(0.92556,0,0,-0.92556,58.944289,36.110573)" />
    <path
       id="path9"
       d="M 5.9407762,-4.5073012 C 5.6706694,-5.9422433 4.8434675,-6.6343919 3.4085254,-6.6343919 c -0.8778469,0 -1.5868771,0.2701068 -2.0595639,0.8103203 -0.59085854,0.6415035 -0.92849197,1.5699954 -0.92849197,2.6335407 0,1.080427 0.33763343,1.9920373 0.96225527,2.63354081 0.5064502,0.52333183 1.1479537,0.75967523 1.9920373,0.75967523 1.6037588,0 2.4984874,-0.86096526 2.6841858,-2.58289574 H 5.2148643 c -0.084408,0.4389234 -0.1688167,0.7427935 -0.3038701,1.0129003 -0.2701068,0.54021347 -0.8272019,0.84408356 -1.5193505,0.84408356 -1.2998887,0 -2.1270906,-1.04666366 -2.1270906,-2.68418576 0,-1.6712855 0.7934386,-2.7010675 2.0426823,-2.7010675 0.5402135,0 1.029782,0.1688167 1.2998887,0.4051601 0.2363434,0.2363434 0.3713968,0.5064502 0.4726868,0.9960187 z M 8.9035095,-4.828053 c -1.3167704,0 -2.1102089,0.9453736 -2.1102089,2.5153691 0,1.56999543 0.7934385,2.51536904 2.1270906,2.51536904 1.3167708,0 2.1270908,-0.94537361 2.1270908,-2.48160574 0,-1.6206405 -0.776557,-2.5491324 -2.1439725,-2.5491324 z m 0.016882,0.6921485 c 0.8440836,0 1.3505335,0.6921486 1.3505335,1.8569839 0,1.0973087 -0.5233316,1.7894572 -1.3505335,1.7894572 -0.8272019,0 -1.3505337,-0.6921485 -1.3505337,-1.8232205 0,-1.131072 0.5233318,-1.8232206 1.3505337,-1.8232206 z M 12.085705,-4.6929996 V 1.0507873e-4 H 12.84538 V -2.9541875 c 0,-0.6752668 0.489568,-1.2154803 1.097309,-1.2154803 0.557095,0 0.877846,0.3376334 0.877846,0.9284919 V 1.0507873e-4 h 0.742794 V -2.9541875 c 0,-0.6752668 0.489568,-1.2154803 1.11419,-1.2154803 0.540214,0 0.860966,0.3376334 0.860966,0.9284919 V 1.0507873e-4 H 18.29816 V -3.5281643 c 0,-0.8440836 -0.489569,-1.2998887 -1.367416,-1.2998887 -0.624621,0 -1.0129,0.1856984 -1.451823,0.7090302 -0.270107,-0.4895685 -0.641504,-0.7090302 -1.249244,-0.7090302 -0.641504,0 -1.046664,0.2363434 -1.451824,0.7934386 v -0.6583852 z m 7.330866,6.6513786 h 0.742793 v -2.4478424 c 0.40516,0.47268681 0.844084,0.69214854 1.451824,0.69214854 1.198599,0 2.008919,-0.97913696 2.008919,-2.46472404 0,-1.5868772 -0.776557,-2.5660141 -2.025801,-2.5660141 -0.624622,0 -1.147953,0.2869884 -1.485587,0.8440836 v -0.7090302 h -0.692148 z m 2.059563,-6.0942835 c 0.827202,0 1.367416,0.7259119 1.367416,1.8569839 0,1.0635453 -0.557095,1.7894572 -1.367416,1.7894572 -0.793438,0 -1.31677,-0.7259119 -1.31677,-1.8232205 0,-1.0973087 0.523332,-1.8232206 1.31677,-1.8232206 z m 6.75689,4.13600957873 V -4.6929996 H 27.49023 v 2.6504224 c 0,0.9622553 -0.50645,1.58687714 -1.283007,1.58687714 -0.590859,0 -0.962255,-0.3545151 -0.962255,-0.91161024 v -3.3256893 h -0.742794 v 3.6126777 c 0,0.77655689 0.573977,1.28300704 1.485587,1.28300704 0.692149,0 1.131072,-0.2363434 1.569996,-0.86096526 V 1.0507873e-4 Z M 31.178875,-4.6929996 h -0.776557 v -1.2998888 h -0.742793 v 1.2998888 h -0.641504 v 0.6077401 h 0.641504 v 3.54515109 c 0,0.4726868 0.320752,0.74279355 0.91161,0.74279355 0.168817,0 0.354515,-0.0168817 0.60774,-0.0675267 V -0.4894634 c -0.10129,0.0337633 -0.219461,0.0337633 -0.354515,0.0337633 -0.320752,0 -0.422042,-0.0844083 -0.422042,-0.42204179 V -4.0852595 h 0.776557 z m 1.561555,0 H 31.997636 V 1.0507873e-4 h 0.742794 z m 0,-1.8401022 h -0.759675 v 0.9453736 h 0.759675 z m 1.266125,1.8401022 V 1.0507873e-4 H 34.76623 V -2.5827907 c 0,-0.9622553 0.506451,-1.5868771 1.266126,-1.5868771 0.590858,0 0.979137,0.3545151 0.979137,0.9116103 V 1.0507873e-4 h 0.742793 V -3.545046 c 0,-0.7765569 -0.590858,-1.283007 -1.502468,-1.283007 -0.692149,0 -1.147954,0.2701067 -1.553114,0.9116103 v -0.7765569 z m 8.056778,0 v 0.6752668 c -0.388278,-0.5570951 -0.844084,-0.8103202 -1.434942,-0.8103202 -1.198599,0 -2.008919,1.029782 -2.008919,2.5660141 0,0.7596752 0.219462,1.38429705 0.590859,1.84010219 0.354515,0.38827845 0.860965,0.62462185 1.350533,0.62462185 0.590859,0 1.012901,-0.25322508 1.434942,-0.84408358 v 0.25322507 c 0,0.62462185 -0.08441,1.0129003 -0.270106,1.28300705 -0.20258,0.27010672 -0.590859,0.43892342 -1.046664,0.43892342 -0.337633,0 -0.641504,-0.10129 -0.844084,-0.253225 C 39.649254,0.94547869 39.581727,0.81042532 39.547964,0.54031857 h -0.776557 c 0.08441,0.87784693 0.776557,1.41806043 1.873866,1.41806043 0.70903,0 1.299888,-0.2363434 1.603758,-0.6077402 0.371397,-0.42204178 0.506451,-1.01290029 0.506451,-2.12709062 V -4.6929996 Z m -1.350534,0.5570951 c 0.793439,0 1.283007,0.6752669 1.283007,1.8569839 0,1.1141903 -0.489568,1.7894572 -1.283007,1.7894572 -0.81032,0 -1.299888,-0.6921485 -1.299888,-1.8232205 0,-1.131072 0.489568,-1.8232206 1.299888,-1.8232206 z m 0,0"
       style="fill:#000000;fill-opacity:1;fill-rule:nonzero;stroke:none"
       aria-label="Computing"
       transform="matrix(0.92556,0,0,0.92556,241.79052,34.042871)" />
    <path
       id="path10"
       d="M 1.7378289,-6.5316765 H 0.89374535 V 0.00153039 H 1.7378289 Z m 1.3800767,1.8401022 V 0.00153039 H 3.8775808 V -2.5813654 c 0,-0.9622553 0.5064502,-1.5868771 1.2661254,-1.5868771 0.5908585,0 0.9791369,0.3545151 0.9791369,0.9116103 V 0.00153039 H 6.8656367 V -3.5436207 c 0,-0.7765569 -0.5908585,-1.283007 -1.5024688,-1.283007 -0.6921485,0 -1.1479537,0.2701067 -1.5531138,0.9116103 v -0.7765569 z m 6.6724807,0 H 9.0138294 v -0.7427936 c 0,-0.3038701 0.1688167,-0.4726868 0.5233318,-0.4726868 0.050645,0 0.084408,0 0.2532251,0.016882 v -0.6246219 c -0.1688167,-0.033763 -0.2701067,-0.050645 -0.4220418,-0.050645 -0.6921485,0 -1.0973086,0.4051601 -1.0973086,1.0635453 V -4.691574 H 7.646414 v 0.6077402 H 8.2710359 V 0.00153039 H 9.0138294 V -4.0838341 h 0.7765569 z m 0.8060997,0 V 0.00153039 H 11.33928 V -2.4294303 c 0,-0.6752669 0.168816,-1.1141904 0.540213,-1.3842971 0.219462,-0.1688167 0.455805,-0.2194617 0.962255,-0.2194617 V -4.809746 c -0.118171,-0.016882 -0.185698,-0.016882 -0.286988,-0.016882 -0.472687,0 -0.844084,0.2869884 -1.266125,0.979137 v -0.8440836 z m 7.06498,4.25418123 c -0.08441,0.0168817 -0.118172,0.0168817 -0.151935,0.0168817 -0.270107,0 -0.40516,-0.13505338 -0.40516,-0.37139678 V -3.5436207 c 0,-0.8440835 -0.607741,-1.283007 -1.772576,-1.283007 -0.675267,0 -1.249244,0.1856984 -1.553114,0.5402135 -0.219462,0.2532251 -0.30387,0.5064501 -0.320752,0.9791369 h 0.742794 c 0.06753,-0.5739768 0.40516,-0.8272019 1.097309,-0.8272019 0.675267,0 1.063545,0.2532251 1.063545,0.6921486 v 0.20258 c 0,0.3038701 -0.20258,0.4389235 -0.793439,0.5233319 -1.046663,0.1350533 -1.21548,0.1688167 -1.502468,0.2869884 -0.540214,0.2194617 -0.827202,0.6415035 -0.827202,1.2492437 0,0.84408356 0.590858,1.38429705 1.553114,1.38429705 0.590858,0 1.063545,-0.20258006 1.586877,-0.69214854 0.05064,0.47268681 0.286988,0.69214854 0.776557,0.69214854 0.151935,0 0.270106,-0.0168817 0.50645,-0.0844084 z M 16.361577,-1.4840567 c 0,0.2532251 -0.08441,0.4051601 -0.30387,0.60774016 -0.30387,0.28698842 -0.675267,0.42204179 -1.11419,0.42204179 -0.573977,0 -0.928492,-0.27010674 -0.928492,-0.74279355 0,-0.4895685 0.337633,-0.7427935 1.131072,-0.8609653 0.793438,-0.1181717 0.962255,-0.151935 1.21548,-0.2701067 z m 5.423237,-1.9076289 c -0.01688,-0.9116103 -0.624622,-1.4349421 -1.705049,-1.4349421 -1.097308,0 -1.806339,0.5570952 -1.806339,1.4349421 0,0.7259119 0.371397,1.080427 1.485587,1.3505337 l 0.709031,0.1688167 c 0.50645,0.1181717 0.725911,0.3207518 0.725911,0.6583852 0,0.43892349 -0.438923,0.72591191 -1.097308,0.72591191 -0.40516,0 -0.742794,-0.1181717 -0.928492,-0.30387009 -0.118172,-0.13505337 -0.185698,-0.27010672 -0.219462,-0.60774022 h -0.793438 c 0.03376,1.08042703 0.641503,1.60375885 1.873865,1.60375885 1.181717,0 1.941392,-0.57397684 1.941392,-1.48558715 0,-0.6921485 -0.40516,-1.0804269 -1.333652,-1.2998887 l -0.70903,-0.1856984 c -0.60774,-0.1350533 -0.877847,-0.3376334 -0.877847,-0.6583852 0,-0.4389234 0.388279,-0.7090302 0.996019,-0.7090302 0.60774,0 0.928492,0.2532251 0.945373,0.7427936 z m 2.82768,-1.2998887 H 23.835937 V -5.991463 h -0.742793 v 1.2998887 H 22.45164 v 0.6077402 h 0.641504 v 3.545151 c 0,0.4726868 0.320751,0.74279355 0.91161,0.74279355 0.168817,0 0.354515,-0.0168817 0.60774,-0.0675267 V -0.4880381 c -0.10129,0.0337633 -0.219462,0.0337633 -0.354515,0.0337633 -0.320752,0 -0.422042,-0.0844083 -0.422042,-0.42204179 V -4.0838341 h 0.776557 z m 0.839863,0 v 4.69310469 h 0.742794 V -2.4294303 c 0,-0.6752669 0.168816,-1.1141904 0.540213,-1.3842971 0.219462,-0.1688167 0.455805,-0.2194617 0.962255,-0.2194617 V -4.809746 c -0.118171,-0.016882 -0.185698,-0.016882 -0.286988,-0.016882 -0.472687,0 -0.844084,0.2869884 -1.266125,0.979137 v -0.8440836 z m 6.815975,4.69310469 V -4.6915743 h -0.742793 v 2.6504224 c 0,0.9622553 -0.506451,1.58687715 -1.283008,1.58687715 -0.590858,0 -0.962255,-0.3545151 -0.962255,-0.91161025 v -3.3256893 h -0.742793 v 3.6126777 c 0,0.7765569 0.573976,1.28300705 1.485587,1.28300705 0.692148,0 1.131072,-0.2363434 1.569995,-0.86096526 v 0.6583852 z m 4.887244,-3.12310929 c -0.03376,-0.4558051 -0.135053,-0.7427935 -0.30387,-1.0129003 -0.337633,-0.4389234 -0.894729,-0.6921485 -1.553114,-0.6921485 -1.266125,0 -2.093327,0.9960186 -2.093327,2.5660141 0,1.50246877 0.81032,2.46472405 2.093327,2.46472405 1.11419,0 1.823221,-0.67526687 1.907629,-1.82322055 h -0.742794 c -0.135053,0.75967524 -0.523331,1.13107201 -1.147953,1.13107201 -0.827202,0 -1.316771,-0.65838521 -1.316771,-1.77257551 0,-1.181717 0.472687,-1.8738656 1.299889,-1.8738656 0.624622,0 1.0129,0.3545151 1.097309,1.0129003 z m 2.540692,-1.5699954 H 38.919711 V -5.991463 h -0.742794 v 1.2998887 h -0.641503 v 0.6077402 h 0.641503 v 3.545151 c 0,0.4726868 0.320752,0.74279355 0.91161,0.74279355 0.168817,0 0.354516,-0.0168817 0.607741,-0.0675267 V -0.4880381 c -0.10129,0.0337633 -0.219462,0.0337633 -0.354515,0.0337633 -0.320752,0 -0.422042,-0.0844083 -0.422042,-0.42204179 V -4.0838341 h 0.776557 z m 4.532728,4.69310469 V -4.6915743 h -0.742793 v 2.6504224 c 0,0.9622553 -0.50645,1.58687715 -1.283007,1.58687715 -0.590859,0 -0.962255,-0.3545151 -0.962255,-0.91161025 v -3.3256893 h -0.742794 v 3.6126777 c 0,0.7765569 0.573977,1.28300705 1.485587,1.28300705 0.692149,0 1.131072,-0.2363434 1.569996,-0.86096526 v 0.6583852 z m 1.291448,-4.69310469 v 4.69310469 h 0.742794 V -2.4294303 c 0,-0.6752669 0.168817,-1.1141904 0.540213,-1.3842971 0.219462,-0.1688167 0.455806,-0.2194617 0.962256,-0.2194617 V -4.809746 c -0.118172,-0.016882 -0.185699,-0.016882 -0.286989,-0.016882 -0.472687,0 -0.844083,0.2869884 -1.266125,0.979137 v -0.8440836 z m 6.951029,2.5997774 c 0,-0.7259119 -0.05065,-1.1479537 -0.185699,-1.5024688 -0.30387,-0.7765569 -1.0129,-1.232362 -1.890747,-1.232362 -1.31677,0 -2.160854,0.9960186 -2.160854,2.5491324 0,1.53623214 0.827202,2.48160575 2.143972,2.48160575 1.063546,0 1.806339,-0.60774018 2.008919,-1.62064045 h -0.759675 c -0.20258,0.60774015 -0.624622,0.92849191 -1.232362,0.92849191 -0.472687,0 -0.877847,-0.20258006 -1.131072,-0.60774021 -0.168817,-0.2701067 -0.236343,-0.5402135 -0.253225,-0.9960186 z m -3.443861,-0.6077402 c 0.06753,-0.8778469 0.60774,-1.4349421 1.350533,-1.4349421 0.742794,0 1.299889,0.6077402 1.299889,1.3674154 0,0.033763 0,0.050645 0,0.067527 z m 0,0"
       style="fill:#000000;fill-opacity:1;fill-rule:nonzero;stroke:none"
       aria-label="Infrastructure"
       transform="matrix(0.92556,0,0,0.92556,237.38763,44.186084)" />
    <path
       id="path11"
       d="m 37.79967,0 h 28.8155"
       style="fill:none;stroke:#808080;stroke-width:0.99628;stroke-linecap:butt;stroke-linejoin:miter;stroke-miterlimit:10;stroke-dasharray:none;stroke-opacity:1"
       transform="matrix(0.92556,0,0,-0.92556,58.944289,36.110573)" />
    <path
       id="path12"
       d="M 5.20058,0 C 3.65962,0.28891 1.15567,1.15567 -0.57784,2.1669 V -2.1669 C 1.15567,-1.15567 3.65962,-0.28891 5.20058,0"
       style="fill:#808080;fill-opacity:1;fill-rule:nonzero;stroke:none"
       transform="matrix(0.92556,0,0,-0.92556,120.60063,36.110573)" />
    <path
       id="path13"
       d="m 147.4151,0 h 28.8155"
       style="fill:none;stroke:#808080;stroke-width:0.99628;stroke-linecap:butt;stroke-linejoin:miter;stroke-miterlimit:10;stroke-dasharray:none;stroke-opacity:1"
       transform="matrix(0.92556,0,0,-0.92556,58.944289,36.110573)" />
    <path
       id="path14"
       d="M 5.20058,0 C 3.65962,0.28891 1.15567,1.15567 -0.57784,2.1669 V -2.1669 C 1.15567,-1.15567 3.65962,-0.28891 5.20058,0"
       style="fill:#808080;fill-opacity:1;fill-rule:nonzero;stroke:none"
       transform="matrix(0.92556,0,0,-0.92556,222.05628,36.110573)" />
    <path
       id="path15"
       d="M 219.23085,-14.547 V -28.3468 H 0 v 8.59923"
       style="fill:none;stroke:#808080;stroke-width:0.99628;stroke-linecap:butt;stroke-linejoin:miter;stroke-miterlimit:10;stroke-dasharray:none;stroke-opacity:1"
       transform="matrix(0.92556,0,0,-0.92556,58.944289,36.110573)" />
    <path
       id="path16"
       d="M 5.20058,0 C 3.65962,0.28891 1.15567,1.15567 -0.57784,2.1669 V -2.1669 C 1.15567,-1.15567 3.65962,-0.28891 5.20058,0"
       style="fill:#808080;fill-opacity:1;fill-rule:nonzero;stroke:none"
       transform="matrix(0,-0.92556,-0.92556,0,58.944289,54.388133)" />
    <path
       id="path17"
       d="m 1.5379271,-2.2782655 1.080427,-1.080427 2.2959073,3.3594526308 h 0.979137 L 3.2092126,-3.8651427 5.8765167,-6.5324468 H 4.7960897 L 1.5379271,-3.2236392 V -6.5324468 H 0.71072517 V 7.601308e-4 H 1.5379271 Z m 8.6771789,0.1856983 c 0,-0.7259118 -0.05065,-1.1479536 -0.185698,-1.5024687 C 9.7255378,-4.3715928 9.0165076,-4.827398 8.1386607,-4.827398 c -1.3167704,0 -2.160854,0.9960187 -2.160854,2.5491325 0,1.53623208 0.8272019,2.48160569 2.1439723,2.48160569 1.0635453,0 1.8063389,-0.60774018 2.008919,-1.62064049 H 9.3710227 c -0.20258,0.60774019 -0.6246218,0.92849195 -1.232362,0.92849195 -0.4726868,0 -0.8778469,-0.20258006 -1.131072,-0.60774015 C 6.838772,-1.3666553 6.7712453,-1.636762 6.7543636,-2.0925672 Z M 6.7712453,-2.7003073 c 0.067527,-0.877847 0.6077402,-1.4349421 1.3505337,-1.4349421 0.7427936,0 1.2998887,0.6077402 1.2998887,1.3674154 0,0.033763 0,0.050645 0,0.067527 z m 7.1325067,-1.9920373 -1.299889,3.6464411 -1.198599,-3.6464411 h -0.793438 l 1.586877,4.7099864 -0.286989,0.74279355 c -0.118171,0.33763345 -0.286988,0.45580515 -0.60774,0.45580515 -0.10129,0 -0.236343,-0.016882 -0.388278,-0.050645 v 0.6752668 c 0.151935,0.084408 0.30387,0.1181717 0.489568,0.1181717 0.253225,0 0.50645,-0.084408 0.70903,-0.2363434 0.236344,-0.1688167 0.371397,-0.3545151 0.506451,-0.74279351 l 2.093327,-5.67224169 z m 4.207756,4.6931047308 h 2.954293 c 0.60774,0 1.063545,-0.1688167208 1.41806,-0.5402134908 0.320752,-0.35451511 0.50645,-0.81032024 0.50645,-1.31677034 0,-0.7934386 -0.354515,-1.2661254 -1.198598,-1.5868772 0.590858,-0.2869884 0.91161,-0.7765569 0.91161,-1.4349421 0,-0.4726868 -0.185698,-0.8947286 -0.523332,-1.1985987 -0.337633,-0.3207517 -0.793438,-0.4558051 -1.41806,-0.4558051 H 18.111508 Z M 18.93871,-3.7132076 v -2.0933273 h 1.620641 c 0.472686,0 0.725911,0.067527 0.945373,0.2363434 0.236344,0.1856984 0.354515,0.4558051 0.354515,0.8103202 0,0.3545151 -0.118171,0.6246219 -0.354515,0.8103203 -0.219462,0.1688167 -0.472687,0.2363434 -0.945373,0.2363434 z m 0,2.97117418 V -2.9872957 h 2.042682 c 0.405161,0 0.675267,0.10129 0.860966,0.3207517 0.20258,0.2025801 0.30387,0.4895685 0.30387,0.8103203 0,0.3207517 -0.10129,0.6077401 -0.30387,0.8103202 -0.185699,0.21946172 -0.455805,0.30387008 -0.860966,0.30387008 z M 24.007432,-4.6923446 V 7.601308e-4 h 0.742794 V -2.4302006 c 0,-0.6752669 0.168816,-1.1141903 0.540213,-1.3842971 0.219462,-0.1688167 0.455805,-0.2194617 0.962255,-0.2194617 v -0.7765569 c -0.118171,-0.016882 -0.185698,-0.016882 -0.286988,-0.016882 -0.472687,0 -0.844084,0.2869885 -1.266125,0.979137 v -0.8440836 z m 6.955249,2.5997774 c 0,-0.7259118 -0.05064,-1.1479536 -0.185699,-1.5024687 -0.30387,-0.7765569 -1.0129,-1.2323621 -1.890747,-1.2323621 -1.31677,0 -2.160854,0.9960187 -2.160854,2.5491325 0,1.53623208 0.827202,2.48160569 2.143972,2.48160569 1.063546,0 1.806339,-0.60774018 2.008919,-1.62064049 h -0.759675 c -0.20258,0.60774019 -0.624622,0.92849195 -1.232362,0.92849195 -0.472687,0 -0.877847,-0.20258006 -1.131072,-0.60774015 C 27.586346,-1.3666553 27.51882,-1.636762 27.501938,-2.0925672 Z M 27.51882,-2.7003073 c 0.06753,-0.877847 0.60774,-1.4349421 1.350533,-1.4349421 0.742794,0 1.299889,0.6077402 1.299889,1.3674154 0,0.033763 0,0.050645 0,0.067527 z m 8.630754,2.26214397 c -0.08441,0.0168817 -0.118171,0.0168817 -0.151935,0.0168817 -0.270106,0 -0.40516,-0.13505337 -0.40516,-0.37139678 V -3.5443909 c 0,-0.8440836 -0.60774,-1.2830071 -1.772575,-1.2830071 -0.675267,0 -1.249244,0.1856984 -1.553114,0.5402135 -0.219462,0.2532251 -0.30387,0.5064502 -0.320752,0.979137 h 0.742794 c 0.06753,-0.5739768 0.40516,-0.8272019 1.097308,-0.8272019 0.675267,0 1.063546,0.2532251 1.063546,0.6921485 v 0.2025801 c 0,0.3038701 -0.20258,0.4389234 -0.793439,0.5233318 -1.046664,0.1350534 -1.21548,0.1688167 -1.502469,0.2869884 -0.540213,0.2194617 -0.827202,0.6415035 -0.827202,1.2492437 0,0.8440836 0.590859,1.38429709 1.553114,1.38429709 0.590859,0 1.063545,-0.2025800592 1.586877,-0.69214854 0.05064,0.47268681 0.286989,0.69214854 0.776557,0.69214854 0.151935,0 0.270107,-0.0168817 0.50645,-0.0844084 z M 34.849686,-1.484827 c 0,0.2532251 -0.08441,0.4051601 -0.30387,0.60774021 -0.303871,0.28698841 -0.675267,0.42204179 -1.114191,0.42204179 -0.573977,0 -0.928492,-0.27010675 -0.928492,-0.7427936 0,-0.4895684 0.337634,-0.7427935 1.131072,-0.8609652 0.793439,-0.1181717 0.962256,-0.1519351 1.215481,-0.2701068 z m 2.755933,-5.0476198 H 36.862825 V 7.601308e-4 h 0.742794 V -1.8224604 l 0.725911,-0.7259119 1.586878,2.5491324308 h 0.928491 L 38.922389,-3.0717041 40.559911,-4.6923446 h -0.962255 l -1.992037,1.9920373 z m 5.499204,1.8401022 h -0.776557 v -1.2998887 h -0.742793 v 1.2998887 h -0.641504 v 0.6077402 h 0.641504 v 3.54515104 c 0,0.4726868 0.320751,0.74279355 0.91161,0.74279355 0.168817,0 0.354515,-0.0168817 0.60774,-0.0675267 v -0.62462185 c -0.10129,0.0337634 -0.219462,0.0337634 -0.354515,0.0337634 -0.320752,0 -0.422042,-0.0844084 -0.422042,-0.42204179 V -4.0846044 h 0.776557 z m 0.835643,-1.8401022 V 7.601308e-4 h 0.742793 V -2.5821356 c 0,-0.9622553 0.506451,-1.5868772 1.283007,-1.5868772 0.236344,0 0.472687,0.067527 0.658386,0.2025801 0.219461,0.151935 0.30387,0.3882784 0.30387,0.7090302 V 7.601308e-4 h 0.742793 V -3.5443909 c 0,-0.7934386 -0.557095,-1.2830071 -1.485587,-1.2830071 -0.658385,0 -1.063545,0.2025801 -1.502469,0.7765569 v -2.4816057 z m 4.984313,1.8401022 V 7.601308e-4 h 0.742794 V -2.4302006 c 0,-0.6752669 0.168817,-1.1141903 0.540213,-1.3842971 0.219462,-0.1688167 0.455806,-0.2194617 0.962256,-0.2194617 v -0.7765569 c -0.118172,-0.016882 -0.185699,-0.016882 -0.286989,-0.016882 -0.472687,0 -0.844083,0.2869885 -1.266125,0.979137 v -0.8440836 z m 4.794395,-0.1350534 c -1.31677,0 -2.110209,0.9453737 -2.110209,2.5153691 0,1.56999548 0.793439,2.51536909 2.127091,2.51536909 1.31677,0 2.12709,-0.94537361 2.12709,-2.48160569 0,-1.6206405 -0.776556,-2.5491325 -2.143972,-2.5491325 z m 0.01688,0.6921486 c 0.844083,0 1.350534,0.6921485 1.350534,1.8569839 0,1.0973086 -0.523332,1.78945715 -1.350534,1.78945715 -0.827202,0 -1.350534,-0.69214855 -1.350534,-1.82322055 0,-1.131072 0.523332,-1.8232205 1.350534,-1.8232205 z M 60.594235,7.601308e-4 V -4.6923446 h -0.742794 v 2.6504225 c 0,0.9622552 -0.50645,1.5868771 -1.283007,1.5868771 -0.590858,0 -0.962255,-0.35451511 -0.962255,-0.9116103 v -3.3256893 h -0.742794 v 3.6126777 c 0,0.77655694 0.573977,1.28300709 1.485588,1.28300709 0.692148,0 1.131072,-0.2363434 1.569995,-0.86096525 V 7.601308e-4 Z M 64.953927,-4.6923446 v 0.6752669 c -0.388279,-0.5570952 -0.844084,-0.8103203 -1.434943,-0.8103203 -1.198598,0 -2.008918,1.029782 -2.008918,2.5660141 0,0.7596753 0.219461,1.38429711 0.590858,1.84010224 0.354515,0.38827845 0.860965,0.62462185 1.350534,0.62462185 0.590858,0 1.0129,-0.25322507 1.434942,-0.84408358 v 0.25322507 c 0,0.62462185 -0.08441,1.0129003 -0.270107,1.28300705 -0.20258,0.27010677 -0.590858,0.43892347 -1.046663,0.43892347 -0.337634,0 -0.641504,-0.10129 -0.844084,-0.2532251 C 62.539848,0.94613374 62.472321,0.81108037 62.438558,0.54097362 h -0.776557 c 0.08441,0.87784688 0.776557,1.41806038 1.873865,1.41806038 0.70903,0 1.299889,-0.2363434 1.603759,-0.6077401 0.371397,-0.42204183 0.50645,-1.01290034 0.50645,-2.12709066 V -4.6923446 Z m -1.350534,0.5570952 c 0.793438,0 1.283007,0.6752668 1.283007,1.8569839 0,1.1141903 -0.489569,1.78945715 -1.283007,1.78945715 -0.81032,0 -1.299889,-0.69214855 -1.299889,-1.82322055 0,-1.131072 0.489569,-1.8232205 1.299889,-1.8232205 z m 3.266603,-2.3971974 V 7.601308e-4 H 67.61279 V -2.5821356 c 0,-0.9622553 0.50645,-1.5868772 1.283007,-1.5868772 0.236343,0 0.472687,0.067527 0.658385,0.2025801 0.219462,0.151935 0.30387,0.3882784 0.30387,0.7090302 V 7.601308e-4 h 0.742794 V -3.5443909 c 0,-0.7934386 -0.557095,-1.2830071 -1.485587,-1.2830071 -0.658386,0 -1.063546,0.2025801 -1.502469,0.7765569 v -2.4816057 z m 8.293122,3.1399909 c -0.01688,-0.9116102 -0.624622,-1.4349421 -1.705049,-1.4349421 -1.097309,0 -1.806339,0.5570952 -1.806339,1.4349421 0,0.7259119 0.371397,1.080427 1.485587,1.3505338 l 0.70903,0.1688167 c 0.50645,0.1181717 0.725912,0.3207517 0.725912,0.6583852 0,0.43892344 -0.438923,0.72591185 -1.097309,0.72591185 -0.40516,0 -0.742793,-0.1181717 -0.928492,-0.30387009 C 72.428287,-0.92773181 72.36076,-1.0627852 72.326997,-1.4004186 h -0.793439 c 0.03376,1.08042697 0.641504,1.60375879 1.873866,1.60375879 1.181717,0 1.941392,-0.57397684 1.941392,-1.48558709 0,-0.6921486 -0.40516,-1.080427 -1.333652,-1.2998887 l -0.70903,-0.1856984 c -0.607741,-0.1350534 -0.877847,-0.3376335 -0.877847,-0.6583852 0,-0.4389235 0.388278,-0.7090302 0.996018,-0.7090302 0.607741,0 0.928492,0.2532251 0.945374,0.7427935 z m 0,0"
       style="fill:#000000;fill-opacity:1;fill-rule:nonzero;stroke:none"
       aria-label="KeyBreakthroughs"
       transform="matrix(0.92556,0,0,0.92556,247.46327,11.936796)" />
  </g>
</svg>
