<?xml version="1.0" encoding="UTF-8" standalone="no"?>
<!-- Created with Inkscape (http://www.inkscape.org/) -->

<svg
   version="1.1"
   id="svg1"
   width="532.98669"
   height="318.96799"
   viewBox="0 0 532.98669 318.96799"
   xmlns="http://www.w3.org/2000/svg"
   xmlns:svg="http://www.w3.org/2000/svg">
  <defs
     id="defs1">
    <linearGradient
       x1="0"
       y1="0"
       x2="0"
       y2="100.00128"
       gradientUnits="userSpaceOnUse"
       id="linearGradient7">
      <stop
         style="stop-opacity:1;stop-color:#287528"
         offset="0"
         id="stop3" />
      <stop
         style="stop-opacity:1;stop-color:#287528"
         offset="0.25"
         id="stop4" />
      <stop
         style="stop-opacity:1;stop-color:#539153"
         offset="0.5"
         id="stop5" />
      <stop
         style="stop-opacity:1;stop-color:#7eac7e"
         offset="0.75"
         id="stop6" />
      <stop
         style="stop-opacity:1;stop-color:#7eac7e"
         offset="1"
         id="stop7" />
    </linearGradient>
    <clipPath
       clipPathUnits="userSpaceOnUse"
       id="clipPath8">
      <path
         d="m -47.90617,-47.90617 -8.78745,-8.78745 -14.17338,-1.70073 -17.00827,-26.64607 -25.51197,-23.8112 7.93708,-13.89011 -6.51964,-4.81889 31.18124,-40.25243 -4.25186,-3.94041 32.88242,-36.34055 H 53.85875 l 47.62286,53.60401 -6.51963,25.22863 15.87412,30.04755 -11.62228,9.07118 -19.27562,30.33087 -16.1579,1.70075 -11.33854,10.20485 z"
         transform="matrix(1.3333333,0,0,-1.3333333,266.49333,40.516)"
         id="path8" />
    </clipPath>
  </defs>
  <g
     id="g1">
    <path
       id="path1"
       d="m 1.9133,13.64897 c 5.85892,3.38263 12.1657,-4.34865 17.34814,0 V 25.76712 C 13.37968,22.37129 7.11597,30.38771 1.9133,26.02208 Z"
       style="fill:#287528;fill-opacity:1;fill-rule:nonzero;stroke:none"
       transform="matrix(1.3333333,0,0,-1.3333333,266.49333,40.516)" />
    <path
       id="path2"
       d="M 0.63782,0 V 26.78761 H -0.63782 V 0 Z"
       style="fill:#287528;fill-opacity:1;fill-rule:nonzero;stroke:none"
       transform="matrix(1.3333333,0,0,-1.3333333,266.49333,40.516)" />
    <path
       id="path3"
       d="m 1.34496,26.78761 c 0,0.7428 -0.60216,1.34496 -1.34496,1.34496 -0.7428,0 -1.34496,-0.60216 -1.34496,-1.34496 0,-0.74279 0.60216,-1.34497 1.34496,-1.34497 0.7428,0 1.34496,0.60218 1.34496,1.34497 z"
       style="fill:#287528;fill-opacity:1;fill-rule:nonzero;stroke:none"
       transform="matrix(1.3333333,0,0,-1.3333333,266.49333,40.516)" />
    <g
       id="g7"
       clip-path="url(#clipPath8)">
      <path
         d="M 0,0 H 100 V 100 H 0 Z"
         transform="matrix(5.9800267,0,0,-4.2722,-34.208747,424.79279)"
         style="fill:url(#linearGradient7);stroke:none"
         id="path7" />
    </g>
    <path
       id="path9"
       d="m -32.03201,-32.31532 -24.66161,-24.3783 -14.17338,-1.70073 -17.00827,-26.64607 -25.51197,-23.8112 7.93708,-13.89011 -6.51964,-4.81889 31.18124,-40.25243 -4.25186,-3.94041 32.88242,-36.34055 H 53.85875 l 47.62286,53.60401 -6.51963,25.22863 15.87412,30.04755 -11.62228,9.07118 -19.27562,30.33087 -16.1579,1.70075 -29.76422,25.7957"
       style="fill:none;stroke:#287528;stroke-width:1.49442;stroke-linecap:butt;stroke-linejoin:round;stroke-miterlimit:10;stroke-dasharray:none;stroke-opacity:1"
       transform="matrix(1.3333333,0,0,-1.3333333,266.49333,40.516)" />
    <path
       id="path10"
       d="m -198.62698,-48.18947 c 2.24162,0 3.36242,1.79329 5.60405,1.79329 1.62293,0 3.02168,-0.87512 4.48324,-1.79329 1.46155,-0.91815 2.86032,-1.7933 4.48325,-1.7933 1.62294,0 3.02168,0.87513 4.48324,1.7933 1.46155,0.91815 2.86032,1.79329 4.48325,1.79329 1.62294,0 3.02168,-0.87512 4.48325,-1.79329 1.46154,-0.91815 2.86032,-1.7933 4.48324,-1.7933 1.62294,0 3.02168,0.87513 4.48325,1.7933 1.46154,0.91815 2.86032,1.79329 4.48324,1.79329 1.62294,0 3.02169,-0.87512 4.48325,-1.79329 1.46155,-0.91815 2.86032,-1.7933 4.48324,-1.7933 1.62294,0 3.02168,0.87513 4.48325,1.7933 1.46155,0.91815 2.86032,1.79329 4.48325,1.79329 1.62294,0 3.02168,-0.87512 4.48324,-1.79329 1.46155,-0.91815 2.86032,-1.7933 4.48325,-1.7933 1.62294,0 3.02168,0.87513 4.48324,1.7933 1.46155,0.91815 2.86032,1.79329 4.48325,1.79329 1.62294,0 3.02168,-0.87512 4.48325,-1.79329 1.46155,-0.91815 2.86032,-1.7933 4.48324,-1.7933 1.62294,0 3.02168,0.87513 4.48325,1.7933 1.46155,0.91815 2.86032,1.79329 4.48324,1.79329 1.62294,0 3.02169,-0.87512 4.48325,-1.79329 1.46155,-0.91815 2.86032,-1.7933 4.48324,-1.7933 1.62294,0 3.02169,0.87513 4.48325,1.7933 1.46155,0.91815 2.86032,1.79329 4.48325,1.79329 1.62293,0 3.02168,-0.87512 4.48324,-1.79329 1.46155,-0.91815 2.86032,-1.7933 4.48325,-1.7933 1.62294,0 3.02168,0.87513 4.48324,1.7933 1.46155,0.91815 2.86033,1.79329 4.48325,1.79329 1.62294,0 3.02168,-0.87512 4.48325,-1.79329 1.46154,-0.91815 2.86032,-1.7933 4.48324,-1.7933 1.62294,0 3.02168,0.87513 4.48325,1.7933 1.46155,0.91815 2.86032,1.79329 4.48324,1.79329 1.62294,0 3.02169,-0.87512 4.48325,-1.79329 1.46155,-0.91815 2.86032,-1.7933 4.48324,-1.7933 1.62294,0 3.02169,0.87513 4.48325,1.7933 1.46155,0.91815 2.86032,1.79329 4.48325,1.79329 1.62294,0 3.02168,-0.87512 4.48324,-1.79329 1.46155,-0.91815 2.86032,-1.7933 4.48325,-1.7933 1.62294,0 3.02168,0.87513 4.48324,1.7933 1.46155,0.91815 2.86033,1.79329 4.48325,1.79329 1.62294,0 3.02168,-0.87512 4.48325,-1.79329 1.46155,-0.91815 2.86032,-1.7933 4.48324,-1.7933 1.62294,0 3.02168,0.87513 4.48325,1.7933 1.46153,0.91815 2.8603,1.79329 4.48323,1.79329 1.62294,0 3.02168,-0.87512 4.48324,-1.79329 1.46155,-0.91815 2.86033,-1.7933 4.48325,-1.7933 1.62294,0 3.02168,0.87513 4.48324,1.7933 1.46155,0.91815 2.86033,1.79329 4.48325,1.79329 1.62294,0 3.02168,-0.87512 4.48325,-1.79329 1.46155,-0.91815 2.86032,-1.7933 4.48324,-1.7933 1.62294,0 3.02169,0.87513 4.48325,1.7933 1.46155,0.91815 2.86032,1.79329 4.48324,1.79329 1.62295,0 3.02169,-0.87512 4.48325,-1.79329 1.46155,-0.91815 2.86032,-1.7933 4.48325,-1.7933 1.62294,0 3.02168,0.87513 4.48324,1.7933 1.46155,0.91815 2.86033,1.79329 4.48325,1.79329 1.62294,0 3.02168,-0.87512 4.48324,-1.79329 1.46155,-0.91815 2.86033,-1.7933 4.48325,-1.7933 1.62294,0 3.02169,0.87513 4.48325,1.7933 1.46154,0.91815 2.86032,1.79329 4.48324,1.79329 1.62294,0 3.02168,-0.87512 4.48325,-1.79329 1.46155,-0.91815 2.86032,-1.7933 4.48325,-1.7933 1.62293,0 3.02168,0.87513 4.48324,1.7933 1.46155,0.91815 2.86032,1.79329 4.48325,1.79329 1.62294,0 3.02168,-0.87512 4.48324,-1.79329 1.46155,-0.91815 2.86032,-1.7933 4.48325,-1.7933 1.62294,0 3.02168,0.87513 4.48324,1.7933 1.46155,0.91815 2.86032,1.79329 4.48325,1.79329 1.62294,0 3.02168,-0.87512 4.48324,-1.79329 1.46155,-0.91815 2.86033,-1.7933 4.48325,-1.7933 1.62294,0 3.02168,0.87513 4.48324,1.7933 1.46155,0.91815 2.86033,1.79329 4.48325,1.79329 1.62294,0 3.02168,-0.87512 4.48325,-1.79329 1.46155,-0.91815 2.86032,-1.7933 4.48324,-1.7933 1.62294,0 3.02169,0.87513 4.48325,1.7933 1.46155,0.91815 2.86032,1.79329 4.48325,1.79329 1.62294,0 3.02168,-0.87512 4.48324,-1.79329 1.46155,-0.91815 2.86032,-1.7933 4.48325,-1.7933 1.62294,0 3.02168,0.87513 4.48324,1.7933 1.46155,0.91815 2.86033,1.79329 4.48325,1.79329 1.62294,0 3.02168,-0.87512 4.48324,-1.79329 1.46155,-0.91815 2.86033,-1.7933 4.48325,-1.7933 1.62294,0 3.02169,0.87513 4.48325,1.7933 1.46154,0.91815 2.86032,1.79329 4.48324,1.79329 1.62294,0 3.02168,-0.87512 4.48325,-1.79329 1.46155,-0.91815 2.86032,-1.7933 4.48325,-1.7933 2.24162,0 3.36244,1.7933 5.60406,1.7933 h 0.48672"
       style="fill:none;stroke:#287528;stroke-width:2.49069;stroke-linecap:butt;stroke-linejoin:round;stroke-miterlimit:10;stroke-dasharray:none;stroke-opacity:1"
       transform="matrix(1.3333333,0,0,-1.3333333,266.49333,40.516)" />
    <path
       id="path11"
       d="M 0,0 -17.00824,-17.85861"
       style="fill:none;stroke:#287528;stroke-width:1.49442;stroke-linecap:butt;stroke-linejoin:round;stroke-miterlimit:10;stroke-dasharray:none;stroke-opacity:1"
       transform="matrix(1.3333333,0,0,-1.3333333,266.49333,40.516)" />
    <path
       id="path12"
       d="M -12.75595,-18.42523 -23.8112,-17.00824 -35.71681,-39.9691"
       style="fill:none;stroke:#287528;stroke-width:1.49442;stroke-linecap:butt;stroke-linejoin:round;stroke-miterlimit:10;stroke-dasharray:none;stroke-opacity:1"
       transform="matrix(1.3333333,0,0,-1.3333333,266.49333,40.516)" />
    <path
       id="path13"
       d="M 0,0 16.15787,-15.59082"
       style="fill:none;stroke:#287528;stroke-width:1.49442;stroke-linecap:butt;stroke-linejoin:round;stroke-miterlimit:10;stroke-dasharray:none;stroke-opacity:1"
       transform="matrix(1.3333333,0,0,-1.3333333,266.49333,40.516)" />
    <path
       id="path14"
       d="m 12.75595,-17.29156 11.05525,6.80339 15.30753,-32.31534"
       style="fill:none;stroke:#287528;stroke-width:1.49442;stroke-linecap:butt;stroke-linejoin:round;stroke-miterlimit:10;stroke-dasharray:none;stroke-opacity:1"
       transform="matrix(1.3333333,0,0,-1.3333333,266.49333,40.516)" />
    <path
       id="path15"
       d="m 4.9459297,-6.5382031 v 4.59375 c 0,0.8789062 -0.6328125,1.41796873 -1.6875,1.41796873 -0.4804688,0 -0.8789063,-0.1171875 -1.1835938,-0.33984375 C 1.7467109,-1.1241406 1.5943672,-1.4522656 1.5943672,-1.9444531 v -4.59375 H 0.76233594 v 4.59375 c 0,1.32421873 0.94921876,2.15624998 2.49609376,2.15624998 1.5351562,0 2.5195312,-0.84375 2.5195312,-2.15624998 v -4.59375 z m 3.1787109,3.7734375 h 2.0507814 c 0.515625,0 0.914062,-0.1523438 1.265625,-0.46875 0.386719,-0.3632813 0.5625,-0.7851563 0.5625,-1.3828125 0,-1.2304688 -0.726563,-1.921875 -2.0156251,-1.921875 H 7.2926094 V 8.59375e-4 h 0.8320312 z m 0,-0.7382813 v -2.296875 h 1.734375 c 0.7968754,0 1.2773434,0.4335938 1.2773434,1.1484375 0,0.7148438 -0.480468,1.1484375 -1.2773434,1.1484375 z M 15.6305,-5.7999219 h 2.144531 v -0.7382812 h -5.132812 v 0.7382812 h 2.15625 V 8.59375e-4 H 15.6305 Z m 4.037109,-0.7382812 h -0.84375 V 8.59375e-4 h 0.84375 z M 24.621711,8.59375e-4 26.461555,-5.4717969 V 8.59375e-4 h 0.785156 V -6.5382031 H 26.086555 L 24.188117,-0.84289062 22.254523,-6.5382031 H 21.094367 V 8.59375e-4 h 0.796875 V -5.4717969 L 23.742805,8.59375e-4 Z M 29.534797,-2.9757031 h 3.5625 v -0.7382813 h -3.5625 v -2.0859375 h 3.691406 V -6.5382031 H 28.702766 V 8.59375e-4 h 4.6875 V -0.73742187 h -3.855469 z m 0,0"
       style="fill:#287528;fill-opacity:1;fill-rule:nonzero;stroke:none"
       aria-label="UPTIME"
       transform="matrix(1.3333333,0,0,1.3333333,243.90933,90.006667)" />
    <path
       id="path16"
       d="M 4.1938828,0.001 6.0337266,-5.4716562 V 0.001 H 6.8188828 V -6.5380625 H 5.6587266 L 3.7602891,-0.84275 1.8266953,-6.5380625 H 0.66653906 V 0.001 H 1.4634141 V -5.4716562 L 3.3149766,0.001 Z m 6.7675782,-6.6445312 c -1.8750001,0 -3.1523438,1.3828125 -3.1523438,3.421875 0,2.0507812 1.2773437,3.4335937 3.1523438,3.4335937 0.796875,0 1.5,-0.24609375 2.027344,-0.69140625 0.714843,-0.60937495 1.136718,-1.61718745 1.136718,-2.68359375 0,-2.109375 -1.253906,-3.4804687 -3.164062,-3.4804687 z m 0,0.7382812 c 1.40625,0 2.320312,1.078125 2.320312,2.71875 0,1.5820313 -0.9375,2.66015625 -2.320312,2.66015625 -1.3828126,0 -2.3203126,-1.07812495 -2.3203126,-2.69531245 0,-1.6054688 0.9375,-2.6835938 2.3203126,-2.6835938 z M 15.241734,0.001 h 2.519532 c 1.652343,0 2.660156,-1.2421875 2.660156,-3.2695312 0,-2.0273438 -0.996094,-3.2695313 -2.660156,-3.2695313 h -2.519532 z m 0.832032,-0.73828125 V -5.7997812 h 1.546875 c 1.289062,0 1.96875,0.8671875 1.96875,2.5429687 0,1.640625 -0.679688,2.51953125 -1.96875,2.51953125 z m 6.486328,-2.23828125 h 3.5625 v -0.7382812 h -3.5625 V -5.7997812 H 26.2515 V -6.5380625 H 21.728063 V 0.001 h 4.6875 v -0.73828125 h -3.855469 z m 5.885742,-3.5625 H 27.613805 V 0.001 h 4.066406 V -0.73728125 H 28.445836 Z M 38.632359,-1.96775 39.300328,0.001 h 0.9375 L 37.940953,-6.5380625 H 36.862828 L 34.530797,0.001 h 0.890625 l 0.691406,-1.96875 z m -0.234375,-0.6914062 h -2.085937 l 1.078125,-2.9765625 z m 7.620118,-1.8515625 c -0.257813,-1.4296875 -1.078125,-2.1328125 -2.519532,-2.1328125 -0.878906,0 -1.582031,0.28125 -2.0625,0.8203125 -0.597656,0.6445312 -0.914062,1.5703125 -0.914062,2.6367187 0,1.0664063 0.328125,1.9921875 0.949219,2.63671875 0.503906,0.515625 1.148437,0.76171875 1.992187,0.76171875 1.605469,0 2.496094,-0.8671875 2.695313,-2.5898437 h -0.867188 c -0.07031,0.4453125 -0.152344,0.75 -0.292969,1.0078125 -0.269531,0.53906245 -0.820312,0.84374995 -1.523437,0.84374995 -1.300781,0 -2.121094,-1.04296875 -2.121094,-2.67187495 0,-1.6757813 0.785156,-2.7070313 2.050781,-2.7070313 0.527344,0 1.019532,0.1640625 1.289063,0.4101563 0.246094,0.2226562 0.375,0.5039062 0.480469,0.984375 z m 6.474609,0 c -0.257813,-1.4296875 -1.078125,-2.1328125 -2.519531,-2.1328125 -0.878907,0 -1.582032,0.28125 -2.0625,0.8203125 -0.597657,0.6445312 -0.914063,1.5703125 -0.914063,2.6367187 0,1.0664063 0.328125,1.9921875 0.949219,2.63671875 0.503906,0.515625 1.148437,0.76171875 1.992187,0.76171875 1.605469,0 2.496094,-0.8671875 2.695313,-2.5898437 h -0.867188 c -0.07031,0.4453125 -0.152343,0.75 -0.292968,1.0078125 -0.269532,0.53906245 -0.820313,0.84374995 -1.523438,0.84374995 -1.300781,0 -2.121094,-1.04296875 -2.121094,-2.67187495 0,-1.6757813 0.785157,-2.7070313 2.050782,-2.7070313 0.527343,0 1.019531,0.1640625 1.289062,0.4101563 0.246094,0.2226562 0.375,0.5039062 0.480469,0.984375 z m 5.487305,-2.0273438 v 4.59375 c 0,0.8789063 -0.632813,1.41796875 -1.6875,1.41796875 -0.480469,0 -0.878907,-0.1171875 -1.183594,-0.33984375 C 54.780797,-1.124 54.628453,-1.452125 54.628453,-1.9443125 v -4.59375 h -0.832031 v 4.59375 c 0,1.32421875 0.949219,2.15625 2.496094,2.15625 1.535156,0 2.519531,-0.84375 2.519531,-2.15625 v -4.59375 z M 61.173375,-2.8115 h 2.15625 c 0.738281,0 1.078125,0.3515625 1.078125,1.1601563 l -0.01172,0.5859375 c 0,0.39843745 0.07031,0.79687495 0.1875,1.0664062 h 1.007813 v -0.2109375 c -0.304688,-0.2109375 -0.375,-0.4453125 -0.386719,-1.3125 -0.01172,-1.078125 -0.1875,-1.3945312 -0.890625,-1.6992187 0.738281,-0.3632813 1.03125,-0.8203125 1.03125,-1.5703125 0,-1.125 -0.703125,-1.7460938 -1.992187,-1.7460938 H 60.341344 V 0.001 h 0.832031 z m 0,-0.7382812 v -2.25 H 63.189 c 0.46875,0 0.738281,0.070312 0.949219,0.2460937 0.222656,0.1992188 0.339844,0.4921875 0.339844,0.8789063 0,0.7734375 -0.398438,1.125 -1.289063,1.125 z M 70.237828,-1.96775 70.905797,0.001 h 0.9375 L 69.546422,-6.5380625 H 68.468297 L 66.136266,0.001 h 0.890625 l 0.691406,-1.96875 z m -0.234375,-0.6914062 h -2.085937 l 1.078125,-2.9765625 z m 7.620117,-1.8515625 c -0.257812,-1.4296875 -1.078125,-2.1328125 -2.519531,-2.1328125 -0.878906,0 -1.582031,0.28125 -2.0625,0.8203125 -0.597656,0.6445312 -0.914062,1.5703125 -0.914062,2.6367187 0,1.0664063 0.328125,1.9921875 0.949218,2.63671875 0.503907,0.515625 1.148438,0.76171875 1.992188,0.76171875 1.605469,0 2.496094,-0.8671875 2.695312,-2.5898437 h -0.867187 c -0.07031,0.4453125 -0.152344,0.75 -0.292969,1.0078125 -0.269531,0.53906245 -0.820312,0.84374995 -1.523437,0.84374995 -1.300782,0 -2.121094,-1.04296875 -2.121094,-2.67187495 0,-1.6757813 0.785156,-2.7070313 2.050781,-2.7070313 0.527344,0 1.019531,0.1640625 1.289063,0.4101563 0.246093,0.2226562 0.375,0.5039062 0.480468,0.984375 z m 4.013672,1.9453125 2.460938,-3.9726563 h -0.996094 l -1.863281,3.1875 -1.921875,-3.1875 h -1.03125 l 2.519531,3.9726563 V 0.001 h 0.832031 z m 0,0"
       style="fill:#ffffff;fill-opacity:1;fill-rule:nonzero;stroke:none"
       aria-label="MODELACCURACY"
       transform="matrix(1.3333333,0,0,1.3333333,255.748,135.49867)" />
    <path
       id="path17"
       d="M 0.79710937,-7.96875e-4 H 3.3166406 c 1.6523438,0 2.6601563,-1.242187525 2.6601563,-3.269531225 0,-2.0273438 -0.9960938,-3.2695313 -2.6601563,-3.2695313 H 0.79710937 Z M 1.6291406,-0.73907812 V -5.8015781 h 1.546875 c 1.2890625,0 1.96875,0.8671875 1.96875,2.5429687 0,1.640625 -0.6796875,2.51953128 -1.96875,2.51953128 z m 8.7392574,-1.23046878 0.667969,1.968750025 h 0.9375 L 9.6769922,-6.5398594 H 8.5988672 L 6.2668359,-7.96875e-4 h 0.890625 L 7.8488672,-1.9695469 Z M 10.134023,-2.6609531 H 8.0480859 l 1.078125,-2.9765625 z m 4.060547,-3.140625 h 2.144532 v -0.7382813 h -5.132813 v 0.7382813 h 2.15625 v 5.800781225 h 0.832031 z m 5.481446,3.8320312 0.667968,1.968750025 h 0.9375 L 18.984609,-6.5398594 h -1.078125 l -2.332031,6.539062525 h 0.890625 L 17.156484,-1.9695469 Z m -0.234375,-0.6914062 h -2.085938 l 1.078125,-2.9765625 z m 5.241211,2.660156225 h 2.519531 c 1.652344,0 2.660156,-1.242187525 2.660156,-3.269531225 0,-2.0273438 -0.996094,-3.2695313 -2.660156,-3.2695313 H 24.682852 Z M 25.514883,-0.73907812 V -5.8015781 h 1.546875 c 1.289062,0 1.96875,0.8671875 1.96875,2.5429687 0,1.640625 -0.679688,2.51953128 -1.96875,2.51953128 z m 6.509765,-2.07421878 h 2.15625 c 0.738282,0 1.078125,0.3515625 1.078125,1.1601563 l -0.01172,0.5859375 c 0,0.39843748 0.07031,0.79687498 0.1875,1.066406225 h 1.007812 V -0.21173437 c -0.304687,-0.2109375 -0.375,-0.4453125 -0.386719,-1.31250003 -0.01172,-1.078125 -0.1875,-1.3945312 -0.890625,-1.6992187 0.738282,-0.3632813 1.03125,-0.8203125 1.03125,-1.5703125 0,-1.125 -0.703125,-1.7460938 -1.992187,-1.7460938 h -3.011719 v 6.539062525 h 0.832031 z m 0,-0.7382812 v -2.25 h 2.015625 c 0.46875,0 0.738282,0.070312 0.949219,0.2460937 0.222656,0.1992188 0.339844,0.4921875 0.339844,0.8789063 0,0.7734375 -0.398438,1.125 -1.289063,1.125 z m 6.544922,-2.9882813 h -0.84375 v 6.539062525 h 0.84375 z m 2.396485,3.5625 h 3.117187 v -0.7382812 h -3.117187 v -2.0859375 h 3.550781 v -0.7382813 h -4.382813 v 6.539062525 h 0.832032 z m 7.013672,-2.8242187 h 2.144531 v -0.7382813 h -5.132813 v 0.7382813 h 2.15625 v 5.800781225 h 0.832032 z m 0,0"
       style="fill:#ffffff;fill-opacity:1;fill-rule:nonzero;stroke:none"
       aria-label="DATADRIFT"
       transform="matrix(1.3333333,0,0,1.3333333,182.32,148.712)" />
    <path
       id="path18"
       d="m 5.9288672,-4.5110312 c -0.2578125,-1.4296875 -1.078125,-2.1328125 -2.5195313,-2.1328125 -0.8789062,0 -1.5820312,0.28125 -2.0625,0.8203125 -0.59765621,0.6445312 -0.91406246,1.5703125 -0.91406246,2.6367187 0,1.0664063 0.328125,1.9921875 0.94921876,2.63671875 0.5039062,0.515625 1.1484375,0.76171875 1.9921875,0.76171875 1.6054687,0 2.4960937,-0.8671875 2.6953125,-2.5898437 H 5.2023047 c -0.070312,0.4453125 -0.1523438,0.75 -0.2929688,1.0078125 -0.2695312,0.53906245 -0.8203125,0.84374995 -1.5234375,0.84374995 -1.3007812,0 -2.1210937,-1.04296875 -2.1210937,-2.67187495 0,-1.6757813 0.7851562,-2.7070313 2.0507812,-2.7070313 0.5273438,0 1.0195313,0.1640625 1.2890625,0.4101563 0.2460938,0.2226562 0.375,0.5039062 0.4804688,0.984375 z m 4.0371094,-2.1328125 c -1.875,0 -3.1523438,1.3828125 -3.1523438,3.421875 0,2.0507812 1.2773438,3.4335937 3.1523438,3.4335937 0.7968754,0 1.5000004,-0.24609375 2.0273434,-0.69140625 0.714844,-0.60937495 1.136719,-1.61718745 1.136719,-2.68359375 0,-2.109375 -1.253906,-3.4804687 -3.1640624,-3.4804687 z m 0,0.7382812 c 1.4062504,0 2.3203124,1.078125 2.3203124,2.71875 0,1.5820313 -0.9375,2.66015625 -2.3203124,2.66015625 -1.3828125,0 -2.3203125,-1.07812495 -2.3203125,-2.69531245 0,-1.6054688 0.9375,-2.6835938 2.3203125,-2.6835938 z M 19.238438,-6.538375 h -0.785157 v 5.34375 l -3.421875,-5.34375 H 14.129063 V 6.875e-4 h 0.785156 v -5.296875 l 3.386719,5.296875 h 0.9375 z m 6.615234,2.0273438 c -0.257813,-1.4296875 -1.078125,-2.1328125 -2.519531,-2.1328125 -0.878907,0 -1.582032,0.28125 -2.0625,0.8203125 -0.597657,0.6445312 -0.914063,1.5703125 -0.914063,2.6367187 0,1.0664063 0.328125,1.9921875 0.949219,2.63671875 0.503906,0.515625 1.148437,0.76171875 1.992187,0.76171875 1.605469,0 2.496094,-0.8671875 2.695313,-2.5898437 h -0.867188 c -0.07031,0.4453125 -0.152343,0.75 -0.292968,1.0078125 -0.269532,0.53906245 -0.820313,0.84374995 -1.523438,0.84374995 -1.300781,0 -2.121094,-1.04296875 -2.121094,-2.67187495 0,-1.6757813 0.785157,-2.7070313 2.050782,-2.7070313 0.527343,0 1.019531,0.1640625 1.289062,0.4101563 0.246094,0.2226562 0.375,0.5039062 0.480469,0.984375 z m 2.182617,1.5351562 h 3.5625 v -0.7382812 h -3.5625 v -2.0859375 h 3.691406 V -6.538375 H 27.204258 V 6.875e-4 h 4.6875 v -0.73828125 h -3.855469 z m 5.994141,0.2109375 h 2.050781 c 0.515625,0 0.914062,-0.1523437 1.265625,-0.46875 0.386719,-0.3632812 0.5625,-0.7851562 0.5625,-1.3828125 0,-1.2304687 -0.726563,-1.921875 -2.015625,-1.921875 H 33.198398 V 6.875e-4 h 0.832032 z m 0,-0.7382812 v -2.296875 h 1.734375 c 0.796875,0 1.277343,0.4335937 1.277343,1.1484375 0,0.7148437 -0.480468,1.1484375 -1.277343,1.1484375 z m 7.502929,-2.296875 h 2.144532 V -6.538375 h -5.132813 v 0.7382813 h 2.15625 V 6.875e-4 h 0.832031 z m 5.583985,5.8007812 h 2.519531 c 1.652344,0 2.660156,-1.2421875 2.660156,-3.2695312 0,-2.0273438 -0.996093,-3.2695313 -2.660156,-3.2695313 h -2.519531 z m 0.832031,-0.73828125 V -5.8000937 h 1.546875 c 1.289063,0 1.96875,0.8671875 1.96875,2.5429687 0,1.640625 -0.679687,2.51953125 -1.96875,2.51953125 z m 6.509766,-2.07421875 h 2.15625 c 0.738281,0 1.078125,0.3515625 1.078125,1.1601563 l -0.01172,0.5859375 c 0,0.39843745 0.07031,0.79687495 0.1875,1.0664062 h 1.007812 V -0.21025 c -0.304687,-0.2109375 -0.375,-0.4453125 -0.386718,-1.3125 -0.01172,-1.078125 -0.1875,-1.3945312 -0.890625,-1.6992187 0.738281,-0.3632813 1.03125,-0.8203125 1.03125,-1.5703125 0,-1.125 -0.703125,-1.7460938 -1.992188,-1.7460938 H 53.627109 V 6.875e-4 h 0.832032 z m 0,-0.7382812 v -2.25 h 2.015625 c 0.46875,0 0.738281,0.070312 0.949218,0.2460937 0.222657,0.1992188 0.339844,0.4921875 0.339844,0.8789063 0,0.7734375 -0.398437,1.125 -1.289062,1.125 z m 6.541992,-2.9882813 h -0.84375 V 6.875e-4 h 0.84375 z m 2.399414,3.5625 h 3.117187 v -0.7382812 h -3.117187 v -2.0859375 h 3.550781 V -6.538375 H 62.568516 V 6.875e-4 h 0.832031 z m 7.013672,-2.8242187 H 72.55875 V -6.538375 h -5.132812 v 0.7382813 h 2.15625 V 6.875e-4 h 0.832031 z m 0,0"
       style="fill:#ffffff;fill-opacity:1;fill-rule:nonzero;stroke:none"
       aria-label="CONCEPTDRIFT"
       transform="matrix(1.3333333,0,0,1.3333333,297.38,171.40533)" />
    <path
       id="path19"
       d="M 0.70216406,5.78125e-4 H 3.6552891 c 0.6210937,0 1.078125,-0.175781245 1.4296875,-0.550781245 0.3164062,-0.33984375 0.5039062,-0.80859378 0.5039062,-1.31249998 0,-0.7851563 -0.3632812,-1.265625 -1.1953125,-1.59375 0.5859375,-0.2695313 0.9023438,-0.7617188 0.9023438,-1.4179688 0,-0.4804687 -0.1757813,-0.9023437 -0.515625,-1.2070312 C 4.4404453,-6.3861406 3.9834141,-6.5384844 3.3623203,-6.5384844 H 0.70216406 Z M 1.5459141,-3.7142656 v -2.0859375 h 1.6054687 c 0.46875,0 0.7265625,0.058594 0.9492188,0.234375 0.234375,0.1757812 0.3632812,0.4453125 0.3632812,0.8085937 0,0.3515625 -0.1289062,0.6210938 -0.3632812,0.8085938 -0.2226563,0.1640625 -0.4804688,0.234375 -0.9492188,0.234375 z m 0,2.97656248 V -2.9877031 h 2.0273437 c 0.4101563,0 0.6796875,0.1054687 0.8671875,0.3164062 0.1992188,0.2109375 0.3046875,0.4921875 0.3046875,0.8203125 0,0.3046875 -0.1054687,0.5976563 -0.3046875,0.796875 -0.1875,0.22265628 -0.4570312,0.31640628 -0.8671875,0.31640628 z M 7.6455234,-2.8119219 h 2.15625 c 0.7382816,0 1.0781246,0.3515625 1.0781246,1.1601563 l -0.01172,0.5859375 c 0,0.39843748 0.07031,0.79687498 0.1875,1.066406225 H 12.06349 V -0.21035937 c -0.304687,-0.2109375 -0.375,-0.4453125 -0.386719,-1.31250003 -0.01172,-1.078125 -0.1875,-1.3945312 -0.890625,-1.6992187 0.738282,-0.3632813 1.03125,-0.8203125 1.03125,-1.5703125 0,-1.125 -0.703125,-1.7460938 -1.9921871,-1.7460938 H 6.8134922 V 5.78125e-4 h 0.8320312 z m 0,-0.7382812 v -2.25 h 2.015625 c 0.4687496,0 0.7382816,0.070312 0.9492186,0.2460937 0.222656,0.1992188 0.339844,0.4921875 0.339844,0.8789063 0,0.7734375 -0.398438,1.125 -1.2890626,1.125 z m 8.1210936,-3.09375 c -1.875,0 -3.152344,1.3828125 -3.152344,3.421875 0,2.0507812 1.277344,3.43359373 3.152344,3.43359373 0.796875,0 1.5,-0.24609375 2.027344,-0.69140625 0.714844,-0.60937498 1.136719,-1.61718748 1.136719,-2.68359378 0,-2.109375 -1.253907,-3.4804687 -3.164063,-3.4804687 z m 0,0.7382812 c 1.40625,0 2.320313,1.078125 2.320313,2.71875 0,1.5820313 -0.9375,2.66015628 -2.320313,2.66015628 -1.382812,0 -2.320312,-1.07812498 -2.320312,-2.69531248 0,-1.6054688 0.9375,-2.6835938 2.320312,-2.6835938 z m 5.030274,3.6210938 1.066406,-1.0664063 2.296875,3.351562525 h 0.984375 l -2.683594,-3.867187525 2.660156,-2.671875 h -1.078125 l -3.246093,3.3164063 v -3.3164063 h -0.84375 V 5.78125e-4 h 0.84375 z m 6.076172,-0.6914063 h 3.5625 v -0.7382812 h -3.5625 v -2.0859375 h 3.691406 V -6.5384844 H 26.041031 V 5.78125e-4 h 4.6875 V -0.73770312 h -3.855468 z m 10.127929,-3.5625 h -0.785156 v 5.34375 l -3.421875,-5.34375 H 31.891617 V 5.78125e-4 h 0.785156 V -5.2962969 l 3.386719,5.296875025 h 0.9375 z m 4.831055,3.7734375 h 2.050781 c 0.515625,0 0.914063,-0.1523437 1.265625,-0.46875 0.386719,-0.3632812 0.5625,-0.7851562 0.5625,-1.3828125 0,-1.2304687 -0.726562,-1.921875 -2.015625,-1.921875 H 41.000016 V 5.78125e-4 h 0.832031 z m 0,-0.7382812 v -2.296875 h 1.734375 c 0.796875,0 1.277344,0.4335937 1.277344,1.1484375 0,0.7148437 -0.480469,1.1484375 -1.277344,1.1484375 z M 47.89357,-6.5384844 H 47.04982 V 5.78125e-4 h 0.84375 z m 2.411133,3.7734375 h 2.050781 c 0.515625,0 0.914063,-0.1523437 1.265625,-0.46875 0.386719,-0.3632812 0.5625,-0.7851562 0.5625,-1.3828125 0,-1.2304687 -0.726562,-1.921875 -2.015625,-1.921875 H 49.472672 V 5.78125e-4 h 0.832031 z m 0,-0.7382812 v -2.296875 h 1.734375 c 0.796875,0 1.277344,0.4335937 1.277344,1.1484375 0,0.7148437 -0.480469,1.1484375 -1.277344,1.1484375 z m 5.967774,0.5273437 h 3.5625 v -0.7382812 h -3.5625 v -2.0859375 h 3.691406 V -6.5384844 H 55.440445 V 5.78125e-4 h 4.6875 V -0.73770312 h -3.855468 z m 5.885742,-3.5625 H 61.326188 V 5.78125e-4 h 4.066406 V -0.73770312 h -3.234375 z m 5.173828,0 h -0.84375 V 5.78125e-4 h 0.84375 z m 6.547851,0 h -0.785156 v 5.34375 l -3.421875,-5.34375 H 68.770523 V 5.78125e-4 H 69.55568 V -5.2962969 l 3.386718,5.296875025 h 0.9375 z m 2.326172,3.5625 h 3.5625 v -0.7382812 h -3.5625 v -2.0859375 h 3.691407 V -6.5384844 H 75.374039 V 5.78125e-4 h 4.6875 V -0.73770312 H 76.20607 Z m 9.682618,-1.640625 c -0.01172,-1.2773437 -0.890625,-2.0273437 -2.390625,-2.0273437 -1.441407,0 -2.320313,0.7382812 -2.320313,1.921875 0,0.796875 0.421875,1.3007812 1.277344,1.5234375 l 1.617187,0.4335937 c 0.832032,0.2109375 1.207032,0.5390625 1.207032,1.0546875 0,0.3515625 -0.1875,0.703125 -0.46875,0.90234378 -0.257813,0.17578125 -0.667969,0.28125 -1.195313,0.28125 -0.714844,0 -1.195312,-0.17578125 -1.511719,-0.55078128 -0.246093,-0.28125 -0.351562,-0.5976562 -0.339843,-0.9960937 h -0.785157 c 0,0.5976562 0.117188,0.984375 0.386719,1.34765623 0.445313,0.609375 1.195313,0.9375 2.191406,0.9375 0.785157,0 1.417969,-0.1875 1.839844,-0.50390625 0.433594,-0.3515625 0.714844,-0.93749998 0.714844,-1.49999998 0,-0.8085938 -0.503906,-1.3945313 -1.394531,-1.640625 l -1.640625,-0.4335938 c -0.785157,-0.2226562 -1.066407,-0.46875 -1.066407,-0.9726562 0,-0.6679688 0.574219,-1.1015625 1.453125,-1.1015625 1.042969,0 1.628907,0.46875 1.640625,1.3242187 z m 0,0"
       style="fill:#ffffff;fill-opacity:1;fill-rule:nonzero;stroke:none"
       aria-label="BROKENPIPELINES"
       transform="matrix(1.3333333,0,0,1.3333333,138.888,186.52267)" />
    <path
       id="path20"
       d="m 5.3434062,-4.6158672 c -0.011719,-1.2773437 -0.890625,-2.0273437 -2.390625,-2.0273437 -1.4414062,0 -2.32031245,0.7382812 -2.32031245,1.921875 0,0.796875 0.42187495,1.3007812 1.27734375,1.5234375 L 3.527,-2.7643047 c 0.8320312,0.2109375 1.2070312,0.5390625 1.2070312,1.0546875 0,0.3515625 -0.1875,0.703125 -0.46875,0.90234376 -0.2578125,0.17578125 -0.6679687,0.28125 -1.1953125,0.28125 -0.7148437,0 -1.1953125,-0.17578125 -1.5117187,-0.55078126 -0.2460938,-0.28125 -0.3515625,-0.5976562 -0.3398438,-0.9960937 H 0.43325 c 0,0.5976562 0.1171875,0.984375 0.38671875,1.34765621 0.44531245,0.609375 1.19531245,0.9375 2.19140625,0.9375 0.7851562,0 1.4179687,-0.1875 1.8398437,-0.50390625 0.4335938,-0.3515625 0.7148438,-0.93749996 0.7148438,-1.49999996 0,-0.8085938 -0.5039063,-1.3945313 -1.3945313,-1.640625 L 2.5309062,-3.8658672 C 1.74575,-4.0885234 1.4645,-4.3346172 1.4645,-4.8385234 c 0,-0.6679688 0.5742187,-1.1015625 1.453125,-1.1015625 1.0429687,0 1.6289062,0.46875 1.640625,1.3242187 z m 6.5654298,0.1054688 c -0.257813,-1.4296875 -1.078125,-2.1328125 -2.5195313,-2.1328125 -0.8789063,0 -1.5820313,0.28125 -2.0625,0.8203125 -0.5976563,0.6445312 -0.9140625,1.5703125 -0.9140625,2.6367187 0,1.0664063 0.328125,1.9921875 0.9492187,2.63671876 0.5039063,0.515625 1.1484375,0.76171875 1.9921875,0.76171875 1.6054686,0 2.4960936,-0.8671875 2.6953126,-2.58984371 h -0.867188 c -0.07031,0.4453125 -0.152343,0.75 -0.292968,1.0078125 -0.269532,0.53906246 -0.820313,0.84374996 -1.5234378,0.84374996 -1.3007813,0 -2.1210938,-1.04296876 -2.1210938,-2.67187496 0,-1.6757813 0.7851563,-2.7070313 2.0507813,-2.7070313 0.5273437,0 1.0195313,0.1640625 1.2890623,0.4101563 0.246094,0.2226562 0.375,0.5039062 0.480469,0.984375 z m 5.490234,1.5351562 v 2.97656251 h 0.832032 V -6.5377422 H 17.39907 v 2.8242188 h -3.363281 v -2.8242188 h -0.84375 v 6.53906251 h 0.84375 V -2.9752422 Z m 3.169922,0 h 3.5625 v -0.7382812 h -3.5625 v -2.0859375 h 3.691406 v -0.7382813 h -4.523437 v 6.53906251 h 4.6875 v -0.73828125 h -3.855469 z m 8.53418,2.97656251 1.839844,-5.47265621 v 5.47265621 h 0.785156 V -6.5377422 h -1.160156 l -1.898438,5.69531251 -1.933594,-5.69531251 h -1.160156 v 6.53906251 h 0.796875 V -5.4713359 l 1.851563,5.47265621 z m 7.529297,-1.96875001 0.667968,1.96875001 h 0.9375 L 35.941062,-6.5377422 h -1.078125 l -2.332031,6.53906251 h 0.890625 l 0.691406,-1.96875001 z m -0.234375,-0.6914062 h -2.085938 l 1.078125,-2.9765625 z m 10.382812,-1.8515625 c -0.257812,-1.4296875 -1.078125,-2.1328125 -2.519531,-2.1328125 -0.878906,0 -1.582031,0.28125 -2.0625,0.8203125 -0.597656,0.6445312 -0.914063,1.5703125 -0.914063,2.6367187 0,1.0664063 0.328125,1.9921875 0.949219,2.63671876 0.503906,0.515625 1.148438,0.76171875 1.992188,0.76171875 1.605468,0 2.496093,-0.8671875 2.695312,-2.58984371 h -0.867187 c -0.07031,0.4453125 -0.152344,0.75 -0.292969,1.0078125 -0.269531,0.53906246 -0.820313,0.84374996 -1.523438,0.84374996 -1.300781,0 -2.121093,-1.04296876 -2.121093,-2.67187496 0,-1.6757813 0.785156,-2.7070313 2.050781,-2.7070313 0.527344,0 1.019531,0.1640625 1.289062,0.4101563 0.246094,0.2226562 0.375,0.5039062 0.480469,0.984375 z m 5.490235,1.5351562 v 2.97656251 h 0.832031 V -6.5377422 h -0.832031 v 2.8242188 h -3.363282 v -2.8242188 h -0.84375 v 6.53906251 h 0.84375 V -2.9752422 Z m 5.780273,1.0078125 0.667969,1.96875001 h 0.9375 L 57.360008,-6.5377422 h -1.078125 l -2.332031,6.53906251 h 0.890625 l 0.691406,-1.96875001 z m -0.234375,-0.6914062 h -2.085937 l 1.078125,-2.9765625 z m 7.751953,-3.8789063 h -0.785156 v 5.34375 l -3.421875,-5.34375 h -0.902344 v 6.53906251 h 0.785156 V -5.2955547 l 3.386719,5.29687501 h 0.9375 z m 7.03418,3.0820313 h -2.71875 v 0.7382812 h 1.992187 v 0.1875 c 0,1.1601563 -0.867187,2.00390626 -2.0625,2.00390626 -0.65625,0 -1.253906,-0.24609375 -1.640625,-0.66796876 -0.433593,-0.46875 -0.691406,-1.2421875 -0.691406,-2.0507812 0,-1.6054688 0.914063,-2.6601563 2.296875,-2.6601563 0.996094,0 1.710938,0.5039063 1.886719,1.3476563 h 0.855469 c -0.234375,-1.3242188 -1.242188,-2.0859375 -2.742188,-2.0859375 -0.796875,0 -1.441406,0.2109375 -1.945312,0.6328125 -0.761719,0.6210937 -1.183594,1.640625 -1.183594,2.8125 0,2.0039062 1.21875,3.41015621 2.988281,3.41015621 0.890625,0 1.59375,-0.33984375 2.238281,-1.04296875 l 0.199219,0.8671875 h 0.527344 z m 2.264648,0.4804687 h 3.5625 v -0.7382812 h -3.5625 v -2.0859375 h 3.691407 v -0.7382813 h -4.523438 v 6.53906251 h 4.6875 V -0.73696094 H 74.86782 Z m 0,0"
       style="fill:#ffffff;fill-opacity:1;fill-rule:nonzero;stroke:none"
       aria-label="SCHEMACHANGE"
       transform="matrix(1.3333333,0,0,1.3333333,211.79733,214.86933)" />
    <path
       id="path21"
       d="M 4.1955937,-8.359375e-4 6.0354375,-5.4734922 V -8.359375e-4 H 6.8205937 V -6.5398984 H 5.6604375 L 3.762,-0.84458594 1.8284062,-6.5398984 H 0.66825 V -8.359375e-4 H 1.465125 V -5.4734922 L 3.3166875,-8.359375e-4 Z M 10.960242,-6.6453672 c -1.8749998,0 -3.1523436,1.3828125 -3.1523436,3.421875 0,2.0507813 1.2773438,3.43359376 3.1523436,3.43359376 0.796875,0 1.5,-0.24609375 2.027344,-0.69140625 0.714844,-0.60937501 1.136719,-1.61718751 1.136719,-2.68359371 0,-2.109375 -1.253907,-3.4804688 -3.164063,-3.4804688 z m 0,0.7382813 c 1.40625,0 2.320313,1.078125 2.320313,2.71875 0,1.5820312 -0.9375,2.66015621 -2.320313,2.66015621 -1.3828123,0 -2.3203123,-1.07812501 -2.3203123,-2.69531251 0,-1.6054687 0.9375,-2.6835937 2.3203123,-2.6835937 z m 4.280274,5.9062499625 h 2.519531 c 1.652344,0 2.660156,-1.2421874625 2.660156,-3.2695312625 0,-2.0273437 -0.996094,-3.2695312 -2.660156,-3.2695312 H 15.240516 Z M 16.072547,-0.73911719 V -5.8016172 h 1.546875 c 1.289062,0 1.96875,0.8671875 1.96875,2.5429688 0,1.640625 -0.679688,2.51953121 -1.96875,2.51953121 z m 6.486328,-2.23828121 h 3.5625 v -0.7382813 h -3.5625 v -2.0859375 h 3.691406 v -0.7382812 h -4.523437 v 6.5390624625 h 4.6875 V -0.73911719 h -3.855469 z m 5.885742,-3.5625 h -0.832031 v 6.5390624625 h 4.066406 V -0.73911719 h -3.234375 z m 6.635742,6.5390624625 h 2.953125 c 0.621094,0 1.078125,-0.1757812525 1.429688,-0.5507812525 0.316406,-0.33984375 0.503906,-0.80859371 0.503906,-1.31250001 0,-0.7851562 -0.363281,-1.265625 -1.195312,-1.59375 0.585937,-0.2695312 0.902343,-0.7617187 0.902343,-1.4179687 0,-0.4804688 -0.175781,-0.9023438 -0.515625,-1.2070313 -0.339843,-0.3046875 -0.796875,-0.4570312 -1.417968,-0.4570312 H 35.080359 Z M 35.924109,-3.7156797 v -2.0859375 h 1.605469 c 0.46875,0 0.726563,0.058594 0.949219,0.234375 0.234375,0.1757813 0.363281,0.4453125 0.363281,0.8085938 0,0.3515625 -0.128906,0.6210937 -0.363281,0.8085937 -0.222656,0.1640625 -0.480469,0.234375 -0.949219,0.234375 z m 0,2.97656251 V -2.9891172 h 2.027344 c 0.410156,0 0.679688,0.1054688 0.867188,0.3164063 0.199218,0.2109375 0.304687,0.4921875 0.304687,0.8203125 0,0.3046875 -0.105469,0.5976562 -0.304687,0.796875 -0.1875,0.22265621 -0.457032,0.31640621 -0.867188,0.31640621 z m 6.166993,-5.80078121 h -0.84375 v 6.5390624625 h 0.84375 z m 5.012695,4.5703125 0.667969,1.9687499625 h 0.9375 L 46.412391,-6.5398984 h -1.078125 l -2.332032,6.5390624625 h 0.890625 L 44.584266,-1.9695859 Z m -0.234375,-0.6914063 h -2.085938 l 1.078125,-2.9765625 z m 7.30664,-1.9570312 c -0.01172,-1.2773438 -0.890625,-2.0273438 -2.390625,-2.0273438 -1.441406,0 -2.320312,0.7382813 -2.320312,1.921875 0,0.796875 0.421875,1.3007813 1.277344,1.5234375 l 1.617187,0.4335938 c 0.832031,0.2109375 1.207031,0.5390625 1.207031,1.0546875 0,0.3515625 -0.1875,0.703125 -0.46875,0.90234371 -0.257812,0.17578125 -0.667968,0.28125 -1.195312,0.28125 -0.714844,0 -1.195313,-0.17578125 -1.511719,-0.55078121 -0.246094,-0.28125 -0.351562,-0.5976563 -0.339844,-0.9960938 h -0.785156 c 0,0.5976563 0.117188,0.984375 0.386719,1.34765626 0.445312,0.609375 1.195312,0.9375 2.191406,0.9375 0.785156,0 1.417969,-0.1875 1.839844,-0.50390625 0.433594,-0.3515625 0.714844,-0.93750001 0.714844,-1.50000001 0,-0.8085937 -0.503907,-1.3945312 -1.394532,-1.640625 l -1.640625,-0.4335937 c -0.785156,-0.2226563 -1.066406,-0.46875 -1.066406,-0.9726563 0,-0.6679687 0.574219,-1.1015625 1.453125,-1.1015625 1.042969,0 1.628906,0.46875 1.640625,1.3242188 z m 0,0"
       style="fill:#ffffff;fill-opacity:1;fill-rule:nonzero;stroke:none"
       aria-label="MODELBIAS"
       transform="matrix(1.3333333,0,0,1.3333333,297.984,241.32533)" />
    <path
       id="path22"
       d="M 0.79645312,0.00103906 H 3.3159844 c 1.6523437,0 2.6601562,-1.24218746 2.6601562,-3.26953126 0,-2.0273437 -0.9960937,-3.2695312 -2.6601562,-3.2695312 H 0.79645312 Z M 1.6284844,-0.73724219 V -5.7997422 h 1.546875 c 1.2890625,0 1.96875,0.8671875 1.96875,2.5429688 0,1.640625 -0.6796875,2.51953121 -1.96875,2.51953121 z m 8.7392576,-1.23046871 0.667969,1.96874996 h 0.9375 L 9.6763359,-6.5380234 H 8.5982109 L 6.2661797,0.00103906 h 0.890625 L 7.8482109,-1.9677109 Z M 10.133367,-2.6591172 H 8.0474297 l 1.078125,-2.9765625 z m 4.063477,-3.140625 h 2.144531 v -0.7382812 h -5.132813 v 0.7382812 h 2.15625 v 5.80078126 h 0.832032 z m 5.478515,3.8320313 0.667969,1.96874996 h 0.9375 L 18.983953,-6.5380234 h -1.078125 l -2.332031,6.53906246 h 0.890625 l 0.691406,-1.96874996 z m -0.234375,-0.6914063 h -2.085937 l 1.078125,-2.9765625 z m 7.936524,-3.984375 c -1.875,0 -3.152344,1.3828125 -3.152344,3.421875 0,2.0507813 1.277344,3.43359376 3.152344,3.43359376 0.796875,0 1.5,-0.24609375 2.027344,-0.69140625 0.714843,-0.60937501 1.136718,-1.61718751 1.136718,-2.68359371 0,-2.109375 -1.253906,-3.4804688 -3.164062,-3.4804688 z m 0,0.7382813 c 1.40625,0 2.320312,1.078125 2.320312,2.71875 0,1.5820312 -0.9375,2.66015621 -2.320312,2.66015621 -1.382813,0 -2.320313,-1.07812501 -2.320313,-2.69531251 0,-1.6054687 0.9375,-2.6835937 2.320313,-2.6835937 z m 8.428711,-0.6328125 v 4.59375 c 0,0.8789062 -0.632813,1.41796871 -1.6875,1.41796871 -0.480469,0 -0.878907,-0.1171875 -1.183594,-0.33984375 C 32.607,-1.1239609 32.454656,-1.4520859 32.454656,-1.9442734 v -4.59375 h -0.832031 v 4.59375 c 0,1.32421871 0.949219,2.15624996 2.496094,2.15624996 1.535156,0 2.519531,-0.84375 2.519531,-2.15624996 v -4.59375 z m 4.705078,0.7382812 h 2.144531 v -0.7382812 h -5.132812 v 0.7382812 h 2.15625 v 5.80078126 h 0.832031 z m 5.490234,3.8320313 0.667969,1.96874996 H 47.607 L 45.310125,-6.5380234 H 44.232 l -2.332031,6.53906246 h 0.890625 L 43.482,-1.9677109 Z m -0.234375,-0.6914063 h -2.085937 l 1.078125,-2.9765625 z m 8.041992,-0.796875 h -2.71875 v 0.7382813 h 1.992188 v 0.1875 c 0,1.1601562 -0.867188,2.00390621 -2.0625,2.00390621 -0.65625,0 -1.253906,-0.24609375 -1.640625,-0.66796871 -0.433594,-0.46875 -0.691406,-1.2421875 -0.691406,-2.0507813 0,-1.6054687 0.914062,-2.6601562 2.296875,-2.6601562 0.996093,0 1.710937,0.5039062 1.886718,1.3476562 h 0.855469 c -0.234375,-1.3242187 -1.242187,-2.0859375 -2.742187,-2.0859375 -0.796875,0 -1.441407,0.2109375 -1.945313,0.6328125 -0.761719,0.6210938 -1.183594,1.640625 -1.183594,2.8125 0,2.0039063 1.21875,3.41015626 2.988282,3.41015626 0.890625,0 1.59375,-0.33984375 2.238281,-1.04296875 l 0.199219,0.8671875 h 0.527343 z m 2.267579,0.4804688 h 3.5625 v -0.7382813 h -3.5625 v -2.0859375 h 3.691406 v -0.7382812 h -4.523438 v 6.53906246 h 4.6875 v -0.73828125 h -3.855468 z m 0,0"
       style="fill:#ffffff;fill-opacity:1;fill-rule:nonzero;stroke:none"
       aria-label="DATAOUTAGE"
       transform="matrix(1.3333333,0,0,1.3333333,169.524,248.88533)" />
    <path
       id="path23"
       d="m 4.9442109,-6.5388125 v 4.59375 c 0,0.8789063 -0.6328125,1.41796875 -1.6875,1.41796875 -0.4804687,0 -0.8789062,-0.1171875 -1.1835937,-0.33984375 C 1.7449922,-1.12475 1.5926484,-1.452875 1.5926484,-1.9450625 v -4.59375 H 0.76061719 v 4.59375 c 0,1.32421875 0.94921871,2.15625 2.49609371,2.15625 1.5351563,0 2.5195313,-0.84375 2.5195313,-2.15625 v -4.59375 z m 7.3183591,0 h -0.785156 v 5.34375 l -3.4218749,-5.34375 H 7.1531953 V 2.5e-4 H 7.9383516 V -5.296625 L 11.32507,2.5e-4 h 0.9375 z M 13.744992,2.5e-4 h 2.519531 c 1.652344,0 2.660157,-1.2421875 2.660157,-3.2695312 0,-2.0273438 -0.996094,-3.2695313 -2.660157,-3.2695313 h -2.519531 z m 0.832031,-0.73828125 V -5.8005312 h 1.546875 c 1.289063,0 1.96875,0.8671875 1.96875,2.5429687 0,1.640625 -0.679687,2.51953125 -1.96875,2.51953125 z m 6.483399,-2.23828125 h 3.5625 v -0.7382812 h -3.5625 v -2.0859375 h 3.691406 V -6.5388125 H 20.228391 V 2.5e-4 h 4.6875 v -0.73828125 h -3.855469 z m 6.005859,0.1640625 h 2.15625 c 0.738281,0 1.078125,0.3515625 1.078125,1.1601563 l -0.01172,0.5859375 c 0,0.39843745 0.07031,0.79687495 0.1875,1.0664062 h 1.007813 v -0.2109375 c -0.304688,-0.2109375 -0.375,-0.4453125 -0.386719,-1.3125 -0.01172,-1.078125 -0.1875,-1.3945312 -0.890625,-1.6992187 0.738281,-0.3632813 1.03125,-0.8203125 1.03125,-1.5703125 0,-1.125 -0.703125,-1.7460938 -1.992187,-1.7460938 H 26.23425 V 2.5e-4 h 0.832031 z m 0,-0.7382812 v -2.25 h 2.015625 c 0.46875,0 0.738281,0.070312 0.949219,0.2460937 0.222656,0.1992188 0.339844,0.4921875 0.339844,0.8789063 0,0.7734375 -0.398438,1.125 -1.289063,1.125 z m 6.462891,0.7851562 h 2.050781 c 0.515625,0 0.914063,-0.1523437 1.265625,-0.46875 0.386719,-0.3632812 0.5625,-0.7851562 0.5625,-1.3828125 0,-1.2304687 -0.726562,-1.921875 -2.015625,-1.921875 H 32.697141 V 2.5e-4 h 0.832031 z m 0,-0.7382812 v -2.296875 h 1.734375 c 0.796875,0 1.277344,0.4335937 1.277344,1.1484375 0,0.7148437 -0.480469,1.1484375 -1.277344,1.1484375 z m 5.967773,0.5273437 h 3.5625 v -0.7382812 h -3.5625 v -2.0859375 h 3.691407 V -6.5388125 H 38.664914 V 2.5e-4 h 4.6875 v -0.73828125 h -3.855469 z m 6.00293,0.1640625 h 2.15625 c 0.738281,0 1.078125,0.3515625 1.078125,1.1601563 l -0.01172,0.5859375 c 0,0.39843745 0.07031,0.79687495 0.1875,1.0664062 h 1.007813 v -0.2109375 c -0.304688,-0.2109375 -0.375,-0.4453125 -0.386719,-1.3125 -0.01172,-1.078125 -0.1875,-1.3945312 -0.890625,-1.6992187 0.738281,-0.3632813 1.03125,-0.8203125 1.03125,-1.5703125 0,-1.125 -0.703125,-1.7460938 -1.992188,-1.7460938 H 44.667844 V 2.5e-4 h 0.832031 z m 0,-0.7382812 v -2.25 H 47.5155 c 0.46875,0 0.738281,0.070312 0.949219,0.2460937 0.222656,0.1992188 0.339843,0.4921875 0.339843,0.8789063 0,0.7734375 -0.398437,1.125 -1.289062,1.125 z m 6.451172,0.5742187 h 3.117187 v -0.7382812 h -3.117187 v -2.0859375 h 3.550781 V -6.5388125 H 51.119016 V 2.5e-4 h 0.832031 z m 7.330078,-3.6679687 c -1.875,0 -3.152344,1.3828125 -3.152344,3.421875 0,2.0507812 1.277344,3.4335937 3.152344,3.4335937 0.796875,0 1.5,-0.24609375 2.027344,-0.69140625 0.714843,-0.60937495 1.136718,-1.61718745 1.136718,-2.68359375 0,-2.109375 -1.253906,-3.4804687 -3.164062,-3.4804687 z m 0,0.7382812 c 1.40625,0 2.320312,1.078125 2.320312,2.71875 0,1.5820313 -0.9375,2.66015625 -2.320312,2.66015625 -1.382813,0 -2.320313,-1.07812495 -2.320313,-2.69531245 0,-1.6054688 0.9375,-2.6835938 2.320313,-2.6835938 z m 5.147461,3.09375 h 2.15625 c 0.738281,0 1.078125,0.3515625 1.078125,1.1601563 l -0.01172,0.5859375 c 0,0.39843745 0.07031,0.79687495 0.1875,1.0664062 h 1.007813 v -0.2109375 c -0.304688,-0.2109375 -0.375,-0.4453125 -0.386719,-1.3125 -0.01172,-1.078125 -0.1875,-1.3945312 -0.890625,-1.6992187 0.738281,-0.3632813 1.03125,-0.8203125 1.03125,-1.5703125 0,-1.125 -0.703125,-1.7460938 -1.992188,-1.7460938 H 63.596555 V 2.5e-4 h 0.832031 z m 0,-0.7382812 v -2.25 h 2.015625 c 0.46875,0 0.738281,0.070312 0.949219,0.2460937 0.222656,0.1992188 0.339843,0.4921875 0.339843,0.8789063 0,0.7734375 -0.398437,1.125 -1.289062,1.125 z M 73.434445,2.5e-4 75.274289,-5.4724062 V 2.5e-4 h 0.785156 V -6.5388125 H 74.899289 L 73.000852,-0.8435 71.067258,-6.5388125 H 69.907102 V 2.5e-4 h 0.796875 V -5.4724062 L 72.555539,2.5e-4 Z m 5.006836,-6.5390625 h -0.84375 V 2.5e-4 h 0.84375 z m 6.547852,0 h -0.785156 v 5.34375 l -3.421875,-5.34375 H 79.879758 V 2.5e-4 h 0.785156 V -5.296625 L 84.051633,2.5e-4 h 0.9375 z m 7.037109,3.0820313 h -2.71875 V -2.7185 h 1.992188 v 0.1875 c 0,1.1601563 -0.867188,2.00390625 -2.0625,2.00390625 -0.65625,0 -1.253907,-0.24609375 -1.640625,-0.66796875 -0.433594,-0.46875 -0.691407,-1.2421875 -0.691407,-2.0507812 0,-1.6054688 0.914063,-2.6601563 2.296875,-2.6601563 0.996094,0 1.710938,0.5039063 1.886719,1.3476563 h 0.855469 c -0.234375,-1.3242188 -1.242188,-2.0859375 -2.742188,-2.0859375 -0.796875,0 -1.441406,0.2109375 -1.945312,0.6328125 -0.761719,0.6210937 -1.183594,1.640625 -1.183594,2.8125 0,2.0039062 1.21875,3.4101562 2.988281,3.4101562 0.890625,0 1.59375,-0.33984375 2.238282,-1.04296875 l 0.199218,0.8671875 h 0.527344 z m 0,0"
       style="fill:#ffffff;fill-opacity:1;fill-rule:nonzero;stroke:none"
       aria-label="UNDERPERFORMING"
       transform="matrix(1.3333333,0,0,1.3333333,210.396,279.37467)" />
    <path
       id="path24"
       d="M 5.3446406,-4.6179062 C 5.3329219,-5.89525 4.4540156,-6.64525 2.9540156,-6.64525 c -1.4414062,0 -2.32031248,0.7382813 -2.32031248,1.921875 0,0.796875 0.42187498,1.3007813 1.27734378,1.5234375 l 1.6171875,0.4335938 c 0.8320312,0.2109375 1.2070312,0.5390625 1.2070312,1.0546875 0,0.3515625 -0.1875,0.703125 -0.46875,0.9023437 -0.2578125,0.17578125 -0.6679687,0.28125 -1.1953125,0.28125 -0.7148437,0 -1.1953125,-0.17578125 -1.5117187,-0.5507812 C 1.3133906,-1.3600937 1.2079219,-1.6765 1.2196406,-2.0749375 H 0.43448437 c 0,0.5976563 0.1171875,0.984375 0.38671875,1.34765625 0.44531248,0.609375 1.19531248,0.9375 2.19140628,0.9375 0.7851562,0 1.4179687,-0.1875 1.8398437,-0.50390625 0.4335938,-0.3515625 0.7148438,-0.9375 0.7148438,-1.5 0,-0.8085937 -0.5039063,-1.3945312 -1.3945313,-1.640625 l -1.640625,-0.4335937 c -0.7851562,-0.2226563 -1.0664062,-0.46875 -1.0664062,-0.9726563 0,-0.6679687 0.5742187,-1.1015625 1.453125,-1.1015625 1.0429687,0 1.6289062,0.46875 1.640625,1.3242188 z m 2.2763672,1.640625 H 11.183508 V -3.7155625 H 7.6210078 V -5.8015 H 11.312414 V -6.5397812 H 6.7889766 V -7.1875e-4 H 11.476477 V -0.739 H 7.6210078 Z M 18.311437,-3.45775 h -2.71875 v 0.7382813 h 1.992188 v 0.1875 c 0,1.1601562 -0.867188,2.0039062 -2.0625,2.0039062 -0.65625,0 -1.253906,-0.24609375 -1.640625,-0.6679687 -0.433594,-0.46875 -0.691406,-1.2421875 -0.691406,-2.0507813 0,-1.6054687 0.914062,-2.6601562 2.296875,-2.6601562 0.996093,0 1.710937,0.5039062 1.886718,1.3476562 h 0.855469 C 17.995031,-5.8835312 16.987219,-6.64525 15.487219,-6.64525 c -0.796875,0 -1.441407,0.2109375 -1.945313,0.6328125 -0.761719,0.6210938 -1.183594,1.640625 -1.183594,2.8125 0,2.0039063 1.21875,3.41015625 2.988282,3.41015625 0.890625,0 1.59375,-0.33984375 2.238281,-1.04296875 l 0.199219,0.8671875 h 0.527343 z m 4.822266,3.45703125 1.839844,-5.47265625 v 5.47265625 h 0.785156 V -6.5397812 h -1.160156 l -1.898438,5.69531245 -1.933593,-5.69531245 h -1.160157 v 6.53906245 h 0.796875 V -5.473375 l 1.851563,5.47265625 z m 4.913086,-2.97656245 h 3.5625 v -0.7382813 h -3.5625 V -5.8015 h 3.691406 v -0.7382812 h -4.523437 v 6.53906245 h 4.6875 V -0.739 h -3.855469 z m 10.12793,-3.5625 h -0.785157 v 5.34375 l -3.421875,-5.34375 H 33.065344 V -7.1875e-4 H 33.8505 V -5.2975937 l 3.386719,5.29687495 h 0.9375 z M 42.036047,-5.8015 h 2.144531 V -6.5397812 H 39.047766 V -5.8015 h 2.15625 v 5.80078125 h 0.832031 z m 7.646484,1.1835938 C 49.670812,-5.89525 48.791906,-6.64525 47.291906,-6.64525 c -1.441406,0 -2.320312,0.7382813 -2.320312,1.921875 0,0.796875 0.421875,1.3007813 1.277343,1.5234375 l 1.617188,0.4335938 c 0.832031,0.2109375 1.207031,0.5390625 1.207031,1.0546875 0,0.3515625 -0.1875,0.703125 -0.46875,0.9023437 -0.257812,0.17578125 -0.667969,0.28125 -1.195312,0.28125 -0.714844,0 -1.195313,-0.17578125 -1.511719,-0.5507812 -0.246094,-0.28125 -0.351563,-0.5976563 -0.339844,-0.9960938 h -0.785156 c 0,0.5976563 0.117187,0.984375 0.386719,1.34765625 0.445312,0.609375 1.195312,0.9375 2.191406,0.9375 0.785156,0 1.417969,-0.1875 1.839844,-0.50390625 0.433593,-0.3515625 0.714843,-0.9375 0.714843,-1.5 0,-0.8085937 -0.503906,-1.3945312 -1.394531,-1.640625 l -1.640625,-0.4335937 c -0.785156,-0.2226563 -1.066406,-0.46875 -1.066406,-0.9726563 0,-0.6679687 0.574219,-1.1015625 1.453125,-1.1015625 1.042969,0 1.628906,0.46875 1.640625,1.3242188 z m 0,0"
       style="fill:#ffffff;fill-opacity:1;fill-rule:nonzero;stroke:none"
       aria-label="SEGMENTS"
       transform="matrix(1.3333333,0,0,1.3333333,238.616,293.98533)" />
    <path
       id="path25"
       d="M 0.79778906,-5.390625e-4 H 3.3173203 c 1.6523438,0 2.6601563,-1.2421875375 2.6601563,-3.2695312375 0,-2.0273438 -0.9960938,-3.2695313 -2.6601563,-3.2695313 H 0.79778906 Z M 1.6298203,-0.73882031 V -5.8013203 h 1.546875 c 1.2890625,0 1.96875,0.8671875 1.96875,2.5429687 0,1.640625 -0.6796875,2.51953129 -1.96875,2.51953129 z m 9.6357417,0.3046875 c -0.08203,0.0117188 -0.117187,0.0117188 -0.152343,0.0117188 -0.269532,0 -0.410157,-0.12890625 -0.410157,-0.36328125 V -3.5513203 c 0,-0.8320313 -0.609375,-1.2773438 -1.7695308,-1.2773438 -0.6796875,0 -1.2421875,0.1875 -1.5585937,0.5390625 C 7.164,-4.0435078 7.07025,-3.7739766 7.0585312,-3.3052266 h 0.75 c 0.058594,-0.5742187 0.3984375,-0.8320312 1.1015625,-0.8320312 0.6679688,0 1.0546875,0.2460937 1.0546875,0.6914062 v 0.1992188 c 0,0.3164062 -0.1875,0.4453125 -0.7851562,0.515625 -1.0546875,0.140625 -1.21875,0.1757812 -1.5,0.2929687 -0.5507813,0.2226563 -0.8320313,0.6445313 -0.8320313,1.2539063 0,0.85546874 0.5976563,1.39453124 1.546875,1.39453124 0.5859375,0 1.0664063,-0.2109375025 1.59375,-0.69140625 0.046875,0.46875 0.2812503,0.69140625 0.7734373,0.69140625 0.152344,0 0.269531,-0.0234375 0.503906,-0.0820313 z M 9.9647812,-1.4771016 c 0,0.2460938 -0.082031,0.3984375 -0.3046875,0.60937504 -0.3046875,0.28125 -0.6679687,0.421875 -1.1132812,0.421875 -0.5742188,0 -0.9140625,-0.28125 -0.9140625,-0.76171874 0,-0.4921875 0.328125,-0.7382813 1.125,-0.8554688 0.7851562,-0.1054687 0.9492187,-0.140625 1.2070312,-0.2578125 z m 3.7675778,-3.2226562 h -0.761718 v -1.2890625 h -0.75 v 1.2890625 h -0.632813 v 0.609375 h 0.632813 v 3.55078124 c 0,0.48046875 0.328125,0.75 0.902343,0.75 0.1875,0 0.363282,-0.0234375 0.609375,-0.0703125 v -0.62109375 c -0.09375,0.0234375 -0.210937,0.0351563 -0.351562,0.0351563 -0.328125,0 -0.410156,-0.09375 -0.410156,-0.421875 V -4.0903828 h 0.761718 z m 5.012696,4.26562499 c -0.08203,0.0117188 -0.117188,0.0117188 -0.152344,0.0117188 -0.269531,0 -0.410156,-0.12890625 -0.410156,-0.36328125 V -3.5513203 c 0,-0.8320313 -0.609375,-1.2773438 -1.769532,-1.2773438 -0.679687,0 -1.242187,0.1875 -1.558593,0.5390625 -0.210938,0.2460938 -0.304688,0.515625 -0.316407,0.984375 h 0.75 c 0.05859,-0.5742187 0.398438,-0.8320312 1.101563,-0.8320312 0.667969,0 1.054687,0.2460937 1.054687,0.6914062 v 0.1992188 c 0,0.3164062 -0.1875,0.4453125 -0.785156,0.515625 -1.054687,0.140625 -1.21875,0.1757812 -1.5,0.2929687 -0.550781,0.2226563 -0.832031,0.6445313 -0.832031,1.2539063 0,0.85546874 0.597656,1.39453124 1.546875,1.39453124 0.585937,0 1.066406,-0.2109375025 1.59375,-0.69140625 0.04687,0.46875 0.28125,0.69140625 0.773437,0.69140625 0.152344,0 0.269532,-0.0234375 0.503907,-0.0820313 z M 17.444273,-1.4771016 c 0,0.2460938 -0.08203,0.3984375 -0.304687,0.60937504 -0.304688,0.28125 -0.667969,0.421875 -1.113281,0.421875 -0.574219,0 -0.914063,-0.28125 -0.914063,-0.76171874 0,-0.4921875 0.328125,-0.7382813 1.125,-0.8554688 0.785156,-0.1054687 0.949219,-0.140625 1.207031,-0.2578125 z m 4.608399,-5.0625 v 6.5390625375 h 0.738281 V -2.5903828 c 0,-0.9609375 0.503906,-1.5820313 1.277344,-1.5820313 0.234375,0 0.480469,0.070312 0.65625,0.2109375 0.222656,0.1523438 0.304687,0.375 0.304687,0.703125 v 3.2578125375 h 0.75 V -3.5513203 c 0,-0.7851563 -0.5625,-1.2773438 -1.476562,-1.2773438 -0.667969,0 -1.066406,0.1992188 -1.511719,0.7734375 v -2.484375 z m 8.947265,4.4414063 c 0,-0.7148438 -0.04687,-1.1484375 -0.1875,-1.5 -0.304687,-0.7734375 -1.019531,-1.2304688 -1.898437,-1.2304688 -1.300781,0 -2.144531,0.9960938 -2.144531,2.5429688 0,1.54687499 0.808593,2.49609374 2.132812,2.49609374 1.066406,0 1.816406,-0.609375 2.003906,-1.64062504 h -0.75 c -0.210937,0.62109379 -0.632812,0.94921879 -1.230468,0.94921879 -0.480469,0 -0.878907,-0.22265625 -1.125,-0.60937499 -0.1875,-0.2695313 -0.246094,-0.5390625 -0.257813,-1.0078125 z m -3.433593,-0.609375 c 0.05859,-0.8671875 0.585937,-1.4296875 1.335937,-1.4296875 0.738281,0 1.300781,0.609375 1.300781,1.3710937 0,0.023437 0,0.035156 0,0.058594 z m 8.61914,2.27343749 c -0.08203,0.0117188 -0.117187,0.0117188 -0.152343,0.0117188 -0.269532,0 -0.410157,-0.12890625 -0.410157,-0.36328125 V -3.5513203 c 0,-0.8320313 -0.609375,-1.2773438 -1.769531,-1.2773438 -0.679687,0 -1.242187,0.1875 -1.558594,0.5390625 -0.210937,0.2460938 -0.304687,0.515625 -0.316406,0.984375 h 0.75 c 0.05859,-0.5742187 0.398438,-0.8320312 1.101563,-0.8320312 0.667968,0 1.054687,0.2460937 1.054687,0.6914062 v 0.1992188 c 0,0.3164062 -0.1875,0.4453125 -0.785156,0.515625 -1.054688,0.140625 -1.21875,0.1757812 -1.5,0.2929687 -0.550781,0.2226563 -0.832031,0.6445313 -0.832031,1.2539063 0,0.85546874 0.597656,1.39453124 1.546875,1.39453124 0.585937,0 1.066406,-0.2109375025 1.59375,-0.69140625 0.04687,0.46875 0.28125,0.69140625 0.773437,0.69140625 0.152344,0 0.269531,-0.0234375 0.503906,-0.0820313 z M 34.884703,-1.4771016 c 0,0.2460938 -0.08203,0.3984375 -0.304687,0.60937504 -0.304688,0.28125 -0.667969,0.421875 -1.113282,0.421875 -0.574218,0 -0.914062,-0.28125 -0.914062,-0.76171874 0,-0.4921875 0.328125,-0.7382813 1.125,-0.8554688 0.785156,-0.1054687 0.949219,-0.140625 1.207031,-0.2578125 z m 2.850586,-5.0625 h -0.75 v 6.5390625375 h 0.75 z m 2.90625,1.8398438 H 39.87982 v -1.2890625 h -0.75 v 1.2890625 h -0.632812 v 0.609375 h 0.632812 v 3.55078124 c 0,0.48046875 0.328125,0.75 0.902344,0.75 0.1875,0 0.363281,-0.0234375 0.609375,-0.0703125 v -0.62109375 c -0.09375,0.0234375 -0.210937,0.0351563 -0.351562,0.0351563 -0.328125,0 -0.410157,-0.09375 -0.410157,-0.421875 V -4.0903828 h 0.761719 z m 0.849609,-1.8398438 V -5.390625e-4 H 42.22943 V -2.5903828 c 0,-0.9609375 0.503906,-1.5820313 1.277343,-1.5820313 0.234375,0 0.480469,0.070312 0.65625,0.2109375 0.222657,0.1523438 0.304688,0.375 0.304688,0.703125 v 3.2578125375 h 0.75 V -3.5513203 c 0,-0.7851563 -0.5625,-1.2773438 -1.476563,-1.2773438 -0.667968,0 -1.066406,0.1992188 -1.511718,0.7734375 v -2.484375 z m 0,0"
       style="fill:#287528;fill-opacity:1;fill-rule:nonzero;stroke:none"
       aria-label="Datahealth"
       transform="matrix(1.3333333,0,0,1.3333333,46.948,144.864)" />
    <path
       id="path26"
       d="M 4.1938828,0.00142188 6.0337266,-5.4712344 V 0.00142188 H 6.8188828 V -6.5376406 H 5.6587266 L 3.7602891,-0.84232812 1.8266953,-6.5376406 H 0.66653906 V 0.00142188 H 1.4634141 V -5.4712344 L 3.3149766,0.00142188 Z M 9.9067734,-4.8267031 c -1.3125,0 -2.109375,0.9375 -2.109375,2.5195312 0,1.57031253 0.7851563,2.51953128 2.1210938,2.51953128 1.3124998,0 2.1210938,-0.94921875 2.1210938,-2.48437498 0,-1.6289063 -0.773438,-2.5546875 -2.1328126,-2.5546875 z m 0.011719,0.6914062 c 0.8437496,0 1.3476556,0.6796875 1.3476556,1.8515625 0,1.1015625 -0.527343,1.80468753 -1.3476556,1.80468753 -0.8320313,0 -1.3476563,-0.69140623 -1.3476563,-1.82812503 0,-1.1367187 0.515625,-1.828125 1.3476563,-1.828125 z m 6.9785156,-2.4023437 h -0.75 v 2.4375 c -0.316406,-0.4804688 -0.808594,-0.7265625 -1.441406,-0.7265625 -1.21875,0 -2.015625,0.9726562 -2.015625,2.4726562 0,1.58203128 0.773437,2.56640628 2.039062,2.56640628 0.644531,0 1.101563,-0.24609375 1.5,-0.83203125 v 0.62109375 h 0.667969 z m -2.0625,2.4023437 c 0.808594,0 1.3125,0.7265625 1.3125,1.8398438 0,1.0898437 -0.515625,1.80468748 -1.3125,1.80468748 -0.820313,0 -1.371094,-0.72656248 -1.371094,-1.81640628 0,-1.1015625 0.550781,-1.828125 1.371094,-1.828125 z m 7.198242,2.0390625 c 0,-0.7148437 -0.04687,-1.1484375 -0.1875,-1.5 -0.304687,-0.7734375 -1.019531,-1.2304687 -1.898437,-1.2304687 -1.300782,0 -2.144532,0.9960937 -2.144532,2.5429687 0,1.54687503 0.808594,2.49609378 2.132813,2.49609378 1.066406,0 1.816406,-0.609375 2.003906,-1.64062498 h -0.75 c -0.210937,0.62109373 -0.632812,0.94921873 -1.230469,0.94921873 -0.480468,0 -0.878906,-0.22265625 -1.125,-0.60937503 -0.1875,-0.2695312 -0.246093,-0.5390625 -0.257812,-1.0078125 z m -3.433594,-0.609375 c 0.05859,-0.8671875 0.585938,-1.4296875 1.335938,-1.4296875 0.738281,0 1.300781,0.609375 1.300781,1.3710938 0,0.023437 0,0.035156 0,0.058594 z m 5.185547,-3.8320312 h -0.75 v 6.53906248 h 0.75 z m 3.75586,0 v 6.53906248 h 0.738281 V -2.5884219 c 0,-0.9609375 0.503906,-1.5820312 1.277344,-1.5820312 0.234375,0 0.480468,0.070312 0.65625,0.2109375 0.222656,0.1523437 0.304687,0.375 0.304687,0.703125 v 3.25781248 h 0.75 V -3.5493594 c 0,-0.7851562 -0.5625,-1.2773437 -1.476562,-1.2773437 -0.667969,0 -1.066407,0.1992187 -1.511719,0.7734375 v -2.484375 z m 8.947265,4.4414062 c 0,-0.7148437 -0.04687,-1.1484375 -0.1875,-1.5 -0.304687,-0.7734375 -1.019531,-1.2304687 -1.898437,-1.2304687 -1.300782,0 -2.144532,0.9960937 -2.144532,2.5429687 0,1.54687503 0.808594,2.49609378 2.132813,2.49609378 1.066406,0 1.816406,-0.609375 2.003906,-1.64062498 h -0.75 c -0.210937,0.62109373 -0.632812,0.94921873 -1.230469,0.94921873 -0.480468,0 -0.878906,-0.22265625 -1.125,-0.60937503 -0.1875,-0.2695312 -0.246093,-0.5390625 -0.257812,-1.0078125 z m -3.433594,-0.609375 c 0.05859,-0.8671875 0.585938,-1.4296875 1.335938,-1.4296875 0.738281,0 1.300781,0.609375 1.300781,1.3710938 0,0.023437 0,0.035156 0,0.058594 z m 8.616211,2.27343753 c -0.08203,0.0117188 -0.117187,0.0117188 -0.152343,0.0117188 -0.269532,0 -0.410157,-0.12890625 -0.410157,-0.36328125 V -3.5493594 c 0,-0.8320312 -0.609375,-1.2773437 -1.769531,-1.2773437 -0.679687,0 -1.242187,0.1875 -1.558594,0.5390625 -0.210937,0.2460937 -0.304687,0.515625 -0.316406,0.984375 h 0.75 c 0.05859,-0.5742188 0.398438,-0.8320313 1.101563,-0.8320313 0.667968,0 1.054687,0.2460938 1.054687,0.6914063 v 0.1992187 c 0,0.3164063 -0.1875,0.4453125 -0.785156,0.515625 -1.054688,0.140625 -1.21875,0.1757813 -1.5,0.2929688 -0.550781,0.2226562 -0.832031,0.6445312 -0.832031,1.2539062 0,0.85546878 0.597656,1.39453128 1.546875,1.39453128 0.585937,0 1.066406,-0.2109375 1.59375,-0.69140625 0.04687,0.46875 0.28125,0.69140625 0.773437,0.69140625 0.152344,0 0.269531,-0.0234375 0.503906,-0.0820313 z M 40.369664,-1.4751406 c 0,0.2460937 -0.08203,0.3984375 -0.304687,0.60937498 -0.304688,0.28125 -0.667969,0.421875 -1.113282,0.421875 -0.574218,0 -0.914062,-0.28125 -0.914062,-0.76171878 0,-0.4921875 0.328125,-0.7382812 1.125,-0.8554687 0.785156,-0.1054688 0.949219,-0.140625 1.207031,-0.2578125 z m 2.853516,-5.0625 h -0.75 v 6.53906248 h 0.75 z m 2.90625,1.8398437 h -0.761719 v -1.2890625 h -0.75 v 1.2890625 h -0.632813 v 0.609375 h 0.632813 v 3.55078128 c 0,0.48046875 0.328125,0.75 0.902344,0.75 0.1875,0 0.363281,-0.0234375 0.609375,-0.0703125 v -0.62109375 c -0.09375,0.0234375 -0.210938,0.0351563 -0.351563,0.0351563 -0.328125,0 -0.410156,-0.09375 -0.410156,-0.421875 V -4.0884219 h 0.761719 z m 0.849609,-1.8398437 V 0.00142188 H 47.71732 V -2.5884219 c 0,-0.9609375 0.503907,-1.5820312 1.277344,-1.5820312 0.234375,0 0.480469,0.070312 0.65625,0.2109375 0.222656,0.1523437 0.304688,0.375 0.304688,0.703125 v 3.25781248 h 0.75 V -3.5493594 c 0,-0.7851562 -0.5625,-1.2773437 -1.476563,-1.2773437 -0.667969,0 -1.066406,0.1992187 -1.511719,0.7734375 v -2.484375 z m 0,0"
       style="fill:#287528;fill-opacity:1;fill-rule:nonzero;stroke:none"
       aria-label="Modelhealth"
       transform="matrix(1.3333333,0,0,1.3333333,421.248,142.97467)" />
    <path
       id="path27"
       d="m 5.3429688,-4.6163984 c -0.011719,-1.2773438 -0.890625,-2.0273438 -2.390625,-2.0273438 -1.4414063,0 -2.32031255,0.7382813 -2.32031255,1.921875 0,0.796875 0.42187505,1.3007813 1.27734375,1.5234375 l 1.6171875,0.4335938 c 0.8320313,0.2109375 1.2070313,0.5390625 1.2070313,1.0546875 0,0.3515625 -0.1875,0.703125 -0.46875,0.90234371 -0.2578125,0.17578125 -0.6679688,0.28125 -1.1953125,0.28125 -0.7148438,0 -1.1953125,-0.17578125 -1.5117188,-0.55078121 C 1.3117188,-1.3585859 1.20625,-1.6749922 1.2179688,-2.0734297 H 0.4328125 c 0,0.5976563 0.1171875,0.984375 0.38671875,1.34765626 0.44531255,0.609375 1.19531255,0.9375 2.19140625,0.9375 0.7851563,0 1.4179688,-0.1875 1.8398438,-0.50390625 0.4335937,-0.3515625 0.7148437,-0.93750001 0.7148437,-1.50000001 0,-0.8085937 -0.5039062,-1.3945312 -1.3945312,-1.640625 l -1.640625,-0.4335937 c -0.7851563,-0.2226563 -1.0664063,-0.46875 -1.0664063,-0.9726563 0,-0.6679687 0.5742188,-1.1015625 1.453125,-1.1015625 1.0429688,0 1.6289063,0.46875 1.640625,1.3242188 z m 5.2324222,2.5195312 c 0,-0.7148437 -0.04687,-1.1484375 -0.1875,-1.5 -0.304688,-0.7734375 -1.0195316,-1.2304687 -1.8984379,-1.2304687 -1.3007812,0 -2.1445312,0.9960937 -2.1445312,2.5429687 0,1.54687501 0.8085937,2.49609376 2.1328125,2.49609376 1.0664062,0 1.8164066,-0.609375 2.0039066,-1.64062496 H 9.7316406 c -0.2109375,0.62109371 -0.6328125,0.94921871 -1.2304687,0.94921871 -0.4804688,0 -0.8789063,-0.22265625 -1.125,-0.60937501 -0.1875,-0.2695312 -0.2460938,-0.5390625 -0.2578125,-1.0078125 z m -3.4335941,-0.609375 c 0.058594,-0.8671875 0.5859375,-1.4296875 1.3359375,-1.4296875 0.7382812,0 1.3007812,0.609375 1.3007812,1.3710938 0,0.023437 0,0.035156 0,0.058594 z M 11.586133,-4.6984297 V 7.890625e-4 h 0.75 V -2.4367109 c 0,-0.6679688 0.175781,-1.1132813 0.527344,-1.3710938 0.234375,-0.1757812 0.457031,-0.2226562 0.984375,-0.234375 v -0.7617187 c -0.128907,-0.023437 -0.199219,-0.023437 -0.292969,-0.023437 -0.480469,0 -0.855469,0.28125 -1.277344,0.984375 V -4.6984297 Z M 16.774609,7.890625e-4 18.579297,-4.6984297 h -0.84375 l -1.324219,3.80859376 -1.253906,-3.80859376 h -0.84375 L 15.954297,7.890625e-4 Z M 20.05293,-4.6984297 h -0.75 V 7.890625e-4 h 0.75 z m 0,-1.8398437 h -0.761719 v 0.9492187 h 0.761719 z m 4.860351,3.421875 c -0.03516,-0.4570313 -0.128906,-0.75 -0.304687,-1.0195313 -0.328125,-0.4335937 -0.890625,-0.6914062 -1.546875,-0.6914062 -1.265625,0 -2.085938,0.9960937 -2.085938,2.5546875 0,1.52343746 0.808594,2.48437496 2.074219,2.48437496 1.125,0 1.828125,-0.6796875 1.921875,-1.82812496 h -0.75 c -0.128906,0.76171871 -0.515625,1.13671871 -1.148437,1.13671871 -0.832032,0 -1.324219,-0.67968751 -1.324219,-1.79296871 0,-1.171875 0.492187,-1.8632813 1.300781,-1.8632813 0.632813,0 1.019531,0.3632813 1.113281,1.0195313 z m 4.857422,1.0195312 c 0,-0.7148437 -0.04687,-1.1484375 -0.1875,-1.5 -0.304687,-0.7734375 -1.019531,-1.2304687 -1.898437,-1.2304687 -1.300782,0 -2.144532,0.9960937 -2.144532,2.5429687 0,1.54687501 0.808594,2.49609376 2.132813,2.49609376 1.066406,0 1.816406,-0.609375 2.003906,-1.64062496 h -0.75 c -0.210937,0.62109371 -0.632812,0.94921871 -1.230469,0.94921871 -0.480468,0 -0.878906,-0.22265625 -1.125,-0.60937501 -0.1875,-0.2695312 -0.246093,-0.5390625 -0.257812,-1.0078125 z m -3.433594,-0.609375 c 0.05859,-0.8671875 0.585938,-1.4296875 1.335938,-1.4296875 0.738281,0 1.300781,0.609375 1.300781,1.3710938 0,0.023437 0,0.035156 0,0.058594 z m 6.952149,-3.8320312 V 7.890625e-4 h 0.738281 V -2.5890547 c 0,-0.9609375 0.503906,-1.5820312 1.277344,-1.5820312 0.234375,0 0.480469,0.070312 0.65625,0.2109375 0.222656,0.1523437 0.304687,0.375 0.304687,0.703125 V 7.890625e-4 h 0.75 V -3.5499922 c 0,-0.7851562 -0.5625,-1.2773437 -1.476562,-1.2773437 -0.667969,0 -1.066406,0.1992187 -1.511719,0.7734375 v -2.484375 z m 8.944336,4.4414062 c 0,-0.7148437 -0.04687,-1.1484375 -0.1875,-1.5 -0.304688,-0.7734375 -1.019531,-1.2304687 -1.898438,-1.2304687 -1.300781,0 -2.144531,0.9960937 -2.144531,2.5429687 0,1.54687501 0.808594,2.49609376 2.132813,2.49609376 1.066406,0 1.816406,-0.609375 2.003906,-1.64062496 h -0.75 c -0.210938,0.62109371 -0.632813,0.94921871 -1.230469,0.94921871 -0.480469,0 -0.878906,-0.22265625 -1.125,-0.60937501 -0.1875,-0.2695312 -0.246094,-0.5390625 -0.257812,-1.0078125 z M 38.8,-2.7062422 c 0.05859,-0.8671875 0.585938,-1.4296875 1.335938,-1.4296875 0.738281,0 1.300781,0.609375 1.300781,1.3710938 0,0.023437 0,0.035156 0,0.058594 z m 8.619141,2.27343751 c -0.08203,0.0117188 -0.117188,0.0117188 -0.152344,0.0117188 -0.269531,0 -0.410156,-0.12890625 -0.410156,-0.36328125 V -3.5499922 c 0,-0.8320312 -0.609375,-1.2773437 -1.769532,-1.2773437 -0.679687,0 -1.242187,0.1875 -1.558593,0.5390625 -0.210938,0.2460937 -0.304688,0.515625 -0.316407,0.984375 h 0.75 c 0.05859,-0.5742188 0.398438,-0.8320313 1.101563,-0.8320313 0.667969,0 1.054687,0.2460938 1.054687,0.6914063 v 0.1992187 c 0,0.3164063 -0.1875,0.4453125 -0.785156,0.515625 -1.054687,0.140625 -1.21875,0.1757813 -1.5,0.2929688 -0.550781,0.2226562 -0.832031,0.6445312 -0.832031,1.2539062 0,0.85546876 0.597656,1.39453126 1.546875,1.39453126 0.585937,0 1.066406,-0.2109374975 1.59375,-0.69140625 0.04687,0.46875 0.28125,0.69140625 0.773437,0.69140625 0.152344,0 0.269532,-0.0234375 0.503907,-0.0820313 z M 46.118359,-1.4757734 c 0,0.2460937 -0.08203,0.3984375 -0.304687,0.60937496 -0.304688,0.28125 -0.667969,0.421875 -1.113281,0.421875 -0.574219,0 -0.914063,-0.28125 -0.914063,-0.76171876 0,-0.4921875 0.328125,-0.7382812 1.125,-0.8554687 0.785156,-0.1054688 0.949219,-0.140625 1.207031,-0.2578125 z m 2.853516,-5.0625 h -0.75 V 7.890625e-4 h 0.75 z m 2.90332,1.8398437 h -0.761718 v -1.2890625 h -0.75 v 1.2890625 h -0.632813 v 0.609375 h 0.632813 v 3.55078126 c 0,0.48046875 0.328125,0.75 0.902343,0.75 0.1875,0 0.363282,-0.0234375 0.609375,-0.0703125 v -0.62109375 c -0.09375,0.0234375 -0.210937,0.0351563 -0.351562,0.0351563 -0.328125,0 -0.410156,-0.09375 -0.410156,-0.421875 V -4.0890547 h 0.761718 z m 0.852539,-1.8398437 V 7.890625e-4 h 0.738282 V -2.5890547 c 0,-0.9609375 0.503906,-1.5820312 1.277343,-1.5820312 0.234375,0 0.480469,0.070312 0.65625,0.2109375 0.222657,0.1523437 0.304688,0.375 0.304688,0.703125 V 7.890625e-4 h 0.75 V -3.5499922 c 0,-0.7851562 -0.5625,-1.2773437 -1.476563,-1.2773437 -0.667968,0 -1.066406,0.1992187 -1.511718,0.7734375 v -2.484375 z m 0,0"
       style="fill:#287528;fill-opacity:1;fill-rule:nonzero;stroke:none"
       aria-label="Servicehealth"
       transform="matrix(1.3333333,0,0,1.3333333,334.26667,41.010667)" />
  </g>
</svg>
