<?xml version="1.0" encoding="UTF-8" standalone="no"?>
<!DOCTYPE svg PUBLIC "-//W3C//DTD SVG 1.1//EN"
 "http://www.w3.org/Graphics/SVG/1.1/DTD/svg11.dtd">
<!-- Title: G Pages: 1 -->
<svg width="284pt" height="285pt"
 viewBox="0.00 0.00 284.00 285.00" xmlns="http://www.w3.org/2000/svg" xmlns:xlink="http://www.w3.org/1999/xlink" font-family="Helvetica Neue, Helvetica, Arial, sans-serif">
<g id="graph0" class="graph" transform="scale(1 1) rotate(0) translate(4 280.5)">
<title>G</title>
<polygon fill="white" stroke="none" points="-4,4 -4,-280.5 280,-280.5 280,4 -4,4"/>
<g id="clust1" class="cluster">
<title>cluster_0</title>
<polygon fill="none" stroke="black" points="8,-81 8,-268.5 134,-268.5 134,-81 8,-81"/>
<text xml:space="preserve" text-anchor="middle" x="71" y="-251.2" font-family="Times,serif" font-size="14.00">Node 0 (NVSwitch)</text>
</g>
<g id="clust2" class="cluster">
<title>cluster_1</title>
<polygon fill="none" stroke="black" points="142,-8 142,-157.5 268,-157.5 268,-8 142,-8"/>
<text xml:space="preserve" text-anchor="middle" x="205" y="-140.2" font-family="Times,serif" font-size="14.00">Node 1 (NVSwitch)</text>
</g>
<!-- G0 -->
<g id="node1" class="node">
<title>G0</title>
<ellipse fill="#cfe2f3" stroke="#4a90c4" cx="99" cy="-218" rx="27" ry="18"/>
<text xml:space="preserve" text-anchor="middle" x="99" y="-212.95" font-family="Times,serif" font-size="14.00">G0</text>
</g>
<!-- G1 -->
<g id="node2" class="node">
<title>G1</title>
<ellipse fill="#cfe2f3" stroke="#4a90c4" cx="99" cy="-107" rx="27" ry="18"/>
<text xml:space="preserve" text-anchor="middle" x="99" y="-101.95" font-family="Times,serif" font-size="14.00">G1</text>
</g>
<!-- G0&#45;&gt;G1 -->
<g id="edge1" class="edge">
<title>G0&#45;&gt;G1</title>
<path fill="none" stroke="#3d9e5a" stroke-width="3" d="M99,-185.53C99,-171.13 99,-154.09 99,-139.66"/>
<polygon fill="#3d9e5a" stroke="#3d9e5a" stroke-width="3" points="95.5,-185.43 99,-195.43 102.5,-185.43 95.5,-185.43"/>
<polygon fill="#3d9e5a" stroke="#3d9e5a" stroke-width="3" points="102.5,-139.81 99,-129.81 95.5,-139.81 102.5,-139.81"/>
</g>
<!-- G2 -->
<g id="node3" class="node">
<title>G2</title>
<ellipse fill="#cfe2f3" stroke="#4a90c4" cx="177" cy="-107" rx="27" ry="18"/>
<text xml:space="preserve" text-anchor="middle" x="177" y="-101.95" font-family="Times,serif" font-size="14.00">G2</text>
</g>
<!-- G0&#45;&gt;G2 -->
<g id="edge3" class="edge">
<title>G0&#45;&gt;G2</title>
<path fill="none" stroke="#c87b2a" stroke-dasharray="5,2" d="M116.83,-192.09C129.55,-174.3 146.59,-150.49 159.29,-132.75"/>
<polygon fill="#c87b2a" stroke="#c87b2a" points="114.03,-189.98 111.06,-200.15 119.72,-194.06 114.03,-189.98"/>
<polygon fill="#c87b2a" stroke="#c87b2a" points="161.99,-134.99 164.96,-124.82 156.3,-130.91 161.99,-134.99"/>
<text xml:space="preserve" text-anchor="middle" x="142.41" y="-168.7" font-family="Times,serif" font-size="14.00">IB</text>
</g>
<!-- G3 -->
<g id="node4" class="node">
<title>G3</title>
<ellipse fill="#cfe2f3" stroke="#4a90c4" cx="177" cy="-34" rx="27" ry="18"/>
<text xml:space="preserve" text-anchor="middle" x="177" y="-28.95" font-family="Times,serif" font-size="14.00">G3</text>
</g>
<!-- G2&#45;&gt;G3 -->
<g id="edge2" class="edge">
<title>G2&#45;&gt;G3</title>
<path fill="none" stroke="#3d9e5a" stroke-width="3" d="M177,-74.31C177,-71.67 177,-69.01 177,-66.37"/>
<polygon fill="#3d9e5a" stroke="#3d9e5a" stroke-width="3" points="173.5,-74.27 177,-84.27 180.5,-74.27 173.5,-74.27"/>
<polygon fill="#3d9e5a" stroke="#3d9e5a" stroke-width="3" points="180.5,-66.57 177,-56.57 173.5,-66.57 180.5,-66.57"/>
</g>
</g>
</svg>
