<?xml version="1.0" encoding="UTF-8" standalone="no"?>
<!-- Created with Inkscape (http://www.inkscape.org/) -->

<svg
   version="1.1"
   id="svg1"
   width="597.69733"
   height="387.06934"
   viewBox="0 0 597.69733 387.06934"
   xmlns="http://www.w3.org/2000/svg"
   xmlns:svg="http://www.w3.org/2000/svg">
  <defs
     id="defs1" />
  <g
     id="g1">
    <path
       id="path1"
       d="M 0,0 V 66.61517"
       style="fill:none;stroke:#8f7874;stroke-width:1.0959;stroke-linecap:butt;stroke-linejoin:miter;stroke-miterlimit:10;stroke-dasharray:none;stroke-opacity:1"
       transform="matrix(1.3333333,0,0,-1.3333333,263.66933,245.036)" />
    <path
       id="path2"
       d="M 13.32303,0 V 66.61517"
       style="fill:none;stroke:#8f7874;stroke-width:1.0959;stroke-linecap:butt;stroke-linejoin:miter;stroke-miterlimit:10;stroke-dasharray:none;stroke-opacity:1"
       transform="matrix(1.3333333,0,0,-1.3333333,263.66933,245.036)" />
    <path
       id="path3"
       d="M 26.64606,0 V 66.61517"
       style="fill:none;stroke:#8f7874;stroke-width:1.0959;stroke-linecap:butt;stroke-linejoin:miter;stroke-miterlimit:10;stroke-dasharray:none;stroke-opacity:1"
       transform="matrix(1.3333333,0,0,-1.3333333,263.66933,245.036)" />
    <path
       id="path4"
       d="M 39.9691,0 V 66.61517"
       style="fill:none;stroke:#8f7874;stroke-width:1.0959;stroke-linecap:butt;stroke-linejoin:miter;stroke-miterlimit:10;stroke-dasharray:none;stroke-opacity:1"
       transform="matrix(1.3333333,0,0,-1.3333333,263.66933,245.036)" />
    <path
       id="path5"
       d="M 53.29213,0 V 66.61517"
       style="fill:none;stroke:#8f7874;stroke-width:1.0959;stroke-linecap:butt;stroke-linejoin:miter;stroke-miterlimit:10;stroke-dasharray:none;stroke-opacity:1"
       transform="matrix(1.3333333,0,0,-1.3333333,263.66933,245.036)" />
    <path
       id="path6"
       d="M 66.61517,0 V 66.61517"
       style="fill:none;stroke:#8f7874;stroke-width:1.0959;stroke-linecap:butt;stroke-linejoin:miter;stroke-miterlimit:10;stroke-dasharray:none;stroke-opacity:1"
       transform="matrix(1.3333333,0,0,-1.3333333,263.66933,245.036)" />
    <path
       id="path7"
       d="M 0,0 H 66.61517"
       style="fill:none;stroke:#8f7874;stroke-width:1.0959;stroke-linecap:butt;stroke-linejoin:miter;stroke-miterlimit:10;stroke-dasharray:none;stroke-opacity:1"
       transform="matrix(1.3333333,0,0,-1.3333333,263.66933,245.036)" />
    <path
       id="path8"
       d="M 0,26.64606 H 66.61517"
       style="fill:none;stroke:#8f7874;stroke-width:1.0959;stroke-linecap:butt;stroke-linejoin:miter;stroke-miterlimit:10;stroke-dasharray:none;stroke-opacity:1"
       transform="matrix(1.3333333,0,0,-1.3333333,263.66933,245.036)" />
    <path
       id="path9"
       d="M 0,39.9691 H 66.61517"
       style="fill:none;stroke:#8f7874;stroke-width:1.0959;stroke-linecap:butt;stroke-linejoin:miter;stroke-miterlimit:10;stroke-dasharray:none;stroke-opacity:1"
       transform="matrix(1.3333333,0,0,-1.3333333,263.66933,245.036)" />
    <path
       id="path10"
       d="M 0,53.29213 H 66.61517"
       style="fill:none;stroke:#8f7874;stroke-width:1.0959;stroke-linecap:butt;stroke-linejoin:miter;stroke-miterlimit:10;stroke-dasharray:none;stroke-opacity:1"
       transform="matrix(1.3333333,0,0,-1.3333333,263.66933,245.036)" />
    <path
       id="path11"
       d="M 0,66.61517 H 66.61517"
       style="fill:none;stroke:#8f7874;stroke-width:1.0959;stroke-linecap:butt;stroke-linejoin:miter;stroke-miterlimit:10;stroke-dasharray:none;stroke-opacity:1"
       transform="matrix(1.3333333,0,0,-1.3333333,263.66933,245.036)" />
    <path
       id="path12"
       d="m 4.2531875,-1.9693516 0.6679688,1.9687500375 h 0.9375 L 3.5617813,-6.5396641 H 2.4836563 L 0.151625,-6.015625e-4 H 1.04225 L 1.7336563,-1.9693516 Z M 4.0188125,-2.6607578 H 1.932875 L 3.011,-5.6373203 Z M 8.2551406,-4.6998203 H 7.4934219 v -1.2890625 h -0.75 v 1.2890625 H 6.1106094 v 0.609375 h 0.6328125 v 3.55078124 c 0,0.48046875 0.328125,0.75 0.9023437,0.75 0.1875,0 0.3632813,-0.0234375 0.609375,-0.0703125 v -0.62109375 c -0.09375,0.0234375 -0.2109375,0.0351563 -0.3515625,0.0351563 -0.328125,0 -0.4101562,-0.09375 -0.4101562,-0.421875 V -4.0904453 h 0.7617187 z m 2.4902344,0 H 9.9836563 v -1.2890625 h -0.75 v 1.2890625 H 8.6008438 v 0.609375 h 0.6328125 v 3.55078124 c 0,0.48046875 0.328125,0.75 0.9023437,0.75 0.1875,0 0.363281,-0.0234375 0.609375,-0.0703125 v -0.62109375 c -0.09375,0.0234375 -0.210937,0.0351563 -0.351562,0.0351563 -0.328125,0 -0.4101567,-0.09375 -0.4101567,-0.421875 V -4.0904453 h 0.7617187 z m 4.813477,2.6015625 c 0,-0.7148438 -0.04687,-1.1484375 -0.1875,-1.5 -0.304688,-0.7734375 -1.019532,-1.2304688 -1.898438,-1.2304688 -1.300781,0 -2.144531,0.9960938 -2.144531,2.5429688 0,1.54687499 0.808594,2.49609374 2.132812,2.49609374 1.066407,0 1.816407,-0.609375 2.003907,-1.64062504 h -0.75 c -0.210938,0.62109379 -0.632813,0.94921879 -1.230469,0.94921879 -0.480469,0 -0.878906,-0.22265625 -1.125,-0.60937499 -0.1875,-0.2695313 -0.246094,-0.5390625 -0.257813,-1.0078125 z m -3.433594,-0.609375 c 0.05859,-0.8671875 0.585937,-1.4296875 1.335937,-1.4296875 0.738282,0 1.300782,0.609375 1.300782,1.3710937 0,0.023437 0,0.035156 0,0.058594 z m 4.458984,-1.9921875 v 4.6992187375 h 0.75 V -2.5904453 c 0,-0.9609375 0.503906,-1.5820313 1.265625,-1.5820313 0.597656,0 0.972656,0.3515625 0.972656,0.9140625 v 3.2578125375 h 0.75 V -3.5513828 c 0,-0.7734375 -0.585937,-1.2773438 -1.488281,-1.2773438 -0.703125,0 -1.148437,0.2695313 -1.570312,0.9140625 v -0.7851562 z m 6.626953,0 h -0.761718 v -1.2890625 h -0.75 v 1.2890625 h -0.632813 v 0.609375 h 0.632813 v 3.55078124 c 0,0.48046875 0.328125,0.75 0.902343,0.75 0.1875,0 0.363282,-0.0234375 0.609375,-0.0703125 v -0.62109375 c -0.09375,0.0234375 -0.210937,0.0351563 -0.351562,0.0351563 -0.328125,0 -0.410156,-0.09375 -0.410156,-0.421875 V -4.0904453 h 0.761718 z m 1.564453,0 h -0.75 v 4.6992187375 h 0.75 z m 0,-1.8398438 H 24.01393 v 0.9492188 h 0.761718 z m 3.082032,1.7109375 c -1.3125,0 -2.109375,0.9375 -2.109375,2.5195313 0,1.57031249 0.785156,2.51953124 2.121093,2.51953124 1.3125,0 2.121094,-0.94921875 2.121094,-2.48437504 0,-1.6289062 -0.773437,-2.5546875 -2.132812,-2.5546875 z m 0.01172,0.6914063 c 0.84375,0 1.347657,0.6796875 1.347657,1.8515625 0,1.1015625 -0.527344,1.80468749 -1.347657,1.80468749 -0.832031,0 -1.347656,-0.69140629 -1.347656,-1.82812499 0,-1.1367188 0.515625,-1.828125 1.347656,-1.828125 z m 3.166993,-0.5625 v 4.6992187375 h 0.75 V -2.5904453 c 0,-0.9609375 0.503906,-1.5820313 1.265625,-1.5820313 0.597656,0 0.972656,0.3515625 0.972656,0.9140625 v 3.2578125375 h 0.75 V -3.5513828 c 0,-0.7734375 -0.585938,-1.2773438 -1.488281,-1.2773438 -0.703125,0 -1.148438,0.2695313 -1.570313,0.9140625 v -0.7851562 z m 0,0"
       style="fill:#000000;fill-opacity:1;fill-rule:nonzero;stroke:none"
       aria-label="Attention"
       transform="matrix(1.3333333,0,0,1.3333333,284.48533,277.14533)" />
    <path
       id="path13"
       d="M 0,0 H -141.73404"
       style="fill:none;stroke:#03aced;stroke-width:1.0959;stroke-linecap:butt;stroke-linejoin:miter;stroke-miterlimit:10;stroke-dasharray:none;stroke-opacity:1"
       transform="matrix(1.3333333,0,0,-1.3333333,263.66933,245.036)" />
    <path
       id="path14"
       d="M 2.2723125,-4.6986406 H 1.5105937 V -5.9877031 H 0.76059375 v 1.2890625 h -0.6328125 v 0.609375 h 0.6328125 v 3.55078122 c 0,0.48046875 0.32812495,0.75 0.90234375,0.75 0.1875,0 0.3632812,-0.0234375 0.609375,-0.0703125 v -0.62109375 c -0.09375,0.0234375 -0.2109375,0.0351563 -0.3515625,0.0351563 -0.328125,0 -0.4101563,-0.09375 -0.4101563,-0.421875 V -4.0892656 h 0.7617188 z m 2.6572266,-0.1289063 c -1.3125,0 -2.109375,0.9375 -2.109375,2.5195313 0,1.57031247 0.7851562,2.51953122 2.1210937,2.51953122 1.3125,0 2.1210938,-0.94921875 2.1210938,-2.48437502 0,-1.6289062 -0.7734375,-2.5546875 -2.1328125,-2.5546875 z m 0.011719,0.6914063 c 0.84375,0 1.3476563,0.6796875 1.3476563,1.8515625 0,1.1015625 -0.5273438,1.80468747 -1.3476563,1.80468747 -0.8320312,0 -1.3476562,-0.69140627 -1.3476562,-1.82812497 0,-1.1367188 0.515625,-1.828125 1.3476562,-1.828125 z m 0,0"
       style="fill:#000000;fill-opacity:1;fill-rule:nonzero;stroke:none"
       aria-label="to"
       transform="matrix(1.3333333,0,0,1.3333333,59.564,249.02267)" />
    <path
       id="path15"
       d="m -125.53088,0 h -16.20316"
       style="fill:none;stroke:#03aced;stroke-width:1.99255;stroke-linecap:butt;stroke-linejoin:miter;stroke-miterlimit:10;stroke-dasharray:none;stroke-opacity:1"
       transform="matrix(1.3333333,0,0,-1.3333333,263.66933,245.036)" />
    <path
       id="path16"
       d="M 4.3243672,-0.00110156 V -4.7003203 h -0.75 v 2.6601562 c 0,0.9609375 -0.5039063,1.59375004 -1.2773438,1.59375004 -0.5976562,0 -0.9726562,-0.36328125 -0.9726562,-0.92578124 v -3.328125 H 0.58608594 v 3.6210937 c 0,0.78515629 0.57421876,1.28906254 1.48828126,1.28906254 0.6914062,0 1.1367187,-0.24609375 1.5703125,-0.8671875 v 0.65625 z M 8.9122578,-3.3878203 c -0.011719,-0.9257813 -0.6210937,-1.4414063 -1.6992187,-1.4414063 -1.1015625,0 -1.8046875,0.5625 -1.8046875,1.4296875 0,0.7382813 0.375,1.0898438 1.4882812,1.359375 l 0.703125,0.1640625 c 0.515625,0.1289063 0.7265625,0.3164063 0.7265625,0.65625 0,0.43359379 -0.4453125,0.73828129 -1.1015625,0.73828129 -0.3984375,0 -0.7382812,-0.1171875 -0.9257812,-0.31640625 C 6.1817891,-0.93860156 6.1231953,-1.0675078 6.0763203,-1.3956328 H 5.2911641 c 0.035156,1.07812499 0.6445312,1.60546874 1.875,1.60546874 1.1835937,0 1.9335937,-0.5859375 1.9335937,-1.48828124 0,-0.703125 -0.3984375,-1.0898438 -1.3242187,-1.3125 L 7.0606953,-2.7667266 c -0.609375,-0.140625 -0.8671875,-0.3398437 -0.8671875,-0.6679687 0,-0.4335938 0.375,-0.703125 0.984375,-0.703125 0.609375,0 0.9257813,0.2578125 0.9492188,0.75 z m 5.1503902,1.2890625 c 0,-0.7148438 -0.04687,-1.1484375 -0.1875,-1.5 -0.304687,-0.7734375 -1.019531,-1.2304688 -1.898437,-1.2304688 -1.300781,0 -2.1445313,0.9960938 -2.1445313,2.5429688 0,1.54687499 0.8085933,2.49609374 2.1328123,2.49609374 1.066406,0 1.816406,-0.609375 2.003906,-1.64062504 h -0.75 c -0.210937,0.62109379 -0.632812,0.94921879 -1.230468,0.94921879 -0.480469,0 -0.878907,-0.22265625 -1.125,-0.60937499 -0.1875,-0.2695313 -0.246094,-0.5390625 -0.257813,-1.0078125 z m -3.433593,-0.609375 c 0.05859,-0.8671875 0.585937,-1.4296875 1.335937,-1.4296875 0.738281,0 1.300781,0.609375 1.300781,1.3710937 0,0.023437 0,0.035156 0,0.058594 z m 4.447265,-1.9921875 v 4.69921874 h 0.75 V -2.4386016 c 0,-0.6679687 0.175782,-1.1132812 0.527344,-1.3710937 0.234375,-0.1757813 0.457031,-0.2226563 0.984375,-0.234375 v -0.7617188 c -0.128906,-0.023437 -0.199219,-0.023437 -0.292969,-0.023437 -0.480468,0 -0.855468,0.28125 -1.277343,0.984375 v -0.8554687 z m 6.290039,1.3125 c -0.01172,-0.9257813 -0.621093,-1.4414063 -1.699218,-1.4414063 -1.101563,0 -1.804688,0.5625 -1.804688,1.4296875 0,0.7382813 0.375,1.0898438 1.488281,1.359375 l 0.703125,0.1640625 c 0.515625,0.1289063 0.726563,0.3164063 0.726563,0.65625 0,0.43359379 -0.445313,0.73828129 -1.101563,0.73828129 -0.398437,0 -0.738281,-0.1171875 -0.925781,-0.31640625 -0.117187,-0.140625 -0.175781,-0.26953124 -0.222656,-0.59765624 h -0.785156 c 0.03516,1.07812499 0.644531,1.60546874 1.875,1.60546874 1.183593,0 1.933593,-0.5859375 1.933593,-1.48828124 0,-0.703125 -0.398437,-1.0898438 -1.324218,-1.3125 l -0.714844,-0.1757813 c -0.609375,-0.140625 -0.867188,-0.3398437 -0.867188,-0.6679687 0,-0.4335938 0.375,-0.703125 0.984375,-0.703125 0.609375,0 0.925782,0.2578125 0.949219,0.75 z m 0,0"
       style="fill:#000000;fill-opacity:1;fill-rule:nonzero;stroke:none"
       aria-label="users"
       transform="matrix(1.3333333,0,0,1.3333333,40.769333,230.396)" />
    <path
       id="path17"
       d="m -125.53088,13.32303 h -16.20316"
       style="fill:none;stroke:#03aced;stroke-width:1.99255;stroke-linecap:butt;stroke-linejoin:miter;stroke-miterlimit:10;stroke-dasharray:none;stroke-opacity:1"
       transform="matrix(1.3333333,0,0,-1.3333333,263.66933,245.036)" />
    <path
       id="path18"
       d="M 0,26.64606 H -141.73404"
       style="fill:none;stroke:#03aced;stroke-width:1.0959;stroke-linecap:butt;stroke-linejoin:miter;stroke-miterlimit:10;stroke-dasharray:none;stroke-opacity:1"
       transform="matrix(1.3333333,0,0,-1.3333333,263.66933,245.036)" />
    <path
       id="path19"
       d="M 0.47905469,1.9560859 H 1.2407734 v -2.44921871 c 0.3867188,0.48046875 0.8320313,0.703125 1.4414063,0.703125 1.2070312,0 2.0039062,-0.984375 2.0039062,-2.48437499 0,-1.5703125 -0.7734375,-2.5546875 -2.015625,-2.5546875 -0.6328125,0 -1.1484375,0.28125 -1.5,0.84375 V -4.7001641 H 0.47905469 Z m 2.06250001,-6.09375 c 0.8320312,0 1.3710937,0.7265625 1.3710937,1.8515625 0,1.0664063 -0.5507812,1.79296879 -1.3710937,1.79296879 -0.7851563,0 -1.3007813,-0.71484379 -1.3007813,-1.81640629 0,-1.1015625 0.515625,-1.828125 1.3007813,-1.828125 z m 4.8808594,-0.6914062 c -1.3125,0 -2.109375,0.9375 -2.109375,2.5195312 0,1.57031254 0.7851562,2.51953129 2.1210937,2.51953129 1.3125,0 2.1210938,-0.94921875 2.1210938,-2.48437499 0,-1.6289063 -0.7734375,-2.5546875 -2.1328125,-2.5546875 z m 0.011719,0.6914062 c 0.84375,0 1.3476563,0.6796875 1.3476563,1.8515625 0,1.1015625 -0.5273438,1.80468754 -1.3476563,1.80468754 -0.8320312,0 -1.3476562,-0.69140624 -1.3476562,-1.82812504 0,-1.1367187 0.515625,-1.828125 1.3476562,-1.828125 z M 14.805227,-9.453125e-4 16.188039,-4.7001641 h -0.84375 l -0.9375,3.65625 -0.925781,-3.65625 h -0.914063 l -0.890625,3.65625 -0.960937,-3.65625 H 9.8950703 l 1.3593747,4.6992187875 h 0.84375 L 13.000539,-3.6806328 13.949758,-9.453125e-4 Z M 20.814016,-2.0986016 c 0,-0.7148437 -0.04687,-1.1484375 -0.1875,-1.5 -0.304688,-0.7734375 -1.019532,-1.2304687 -1.898438,-1.2304687 -1.300781,0 -2.144531,0.9960937 -2.144531,2.5429687 0,1.54687504 0.808594,2.49609379 2.132812,2.49609379 1.066407,0 1.816407,-0.609375 2.003907,-1.64062499 h -0.75 c -0.210938,0.62109374 -0.632813,0.94921874 -1.230469,0.94921874 -0.480469,0 -0.878906,-0.22265625 -1.125,-0.60937504 -0.1875,-0.2695312 -0.246094,-0.5390625 -0.257813,-1.0078125 z m -3.433594,-0.609375 c 0.05859,-0.8671875 0.585937,-1.4296875 1.335937,-1.4296875 0.738282,0 1.300782,0.609375 1.300782,1.3710938 0,0.023437 0,0.035156 0,0.058594 z m 4.447265,-1.9921875 v 4.6992187875 h 0.75 V -2.4384453 c 0,-0.6679688 0.175782,-1.1132813 0.527344,-1.3710938 0.234375,-0.1757812 0.457031,-0.2226562 0.984375,-0.234375 v -0.7617187 c -0.128906,-0.023437 -0.199219,-0.023437 -0.292969,-0.023437 -0.480468,0 -0.855468,0.28125 -1.277343,0.984375 v -0.8554688 z m 6.29004,1.3125 c -0.01172,-0.9257812 -0.621094,-1.4414062 -1.699219,-1.4414062 -1.101563,0 -1.804688,0.5625 -1.804688,1.4296875 0,0.7382812 0.375,1.0898437 1.488282,1.359375 l 0.703125,0.1640625 c 0.515625,0.1289062 0.726562,0.3164062 0.726562,0.65625 0,0.43359374 -0.445312,0.73828124 -1.101562,0.73828124 -0.398438,0 -0.738282,-0.1171875 -0.925782,-0.31640625 -0.117187,-0.140625 -0.175781,-0.26953129 -0.222656,-0.59765629 h -0.785156 c 0.03516,1.07812504 0.644531,1.60546879 1.875,1.60546879 1.183594,0 1.933594,-0.5859375 1.933594,-1.48828129 0,-0.703125 -0.398438,-1.0898437 -1.324219,-1.3125 l -0.714844,-0.1757812 c -0.609375,-0.140625 -0.867187,-0.3398438 -0.867187,-0.6679688 0,-0.4335937 0.375,-0.703125 0.984375,-0.703125 0.609375,0 0.925781,0.2578125 0.949218,0.75 z m 0,0"
       style="fill:#000000;fill-opacity:1;fill-rule:nonzero;stroke:none"
       aria-label="powers"
       transform="matrix(1.3333333,0,0,1.3333333,31.302667,211.44267)" />
    <path
       id="path20"
       d="m -125.53088,26.64606 h -16.20316"
       style="fill:none;stroke:#03aced;stroke-width:1.99255;stroke-linecap:butt;stroke-linejoin:miter;stroke-miterlimit:10;stroke-dasharray:none;stroke-opacity:1"
       transform="matrix(1.3333333,0,0,-1.3333333,263.66933,245.036)" />
    <path
       id="path21"
       d="M 0,39.9691 H -141.73404"
       style="fill:none;stroke:#03aced;stroke-width:1.0959;stroke-linecap:butt;stroke-linejoin:miter;stroke-miterlimit:10;stroke-dasharray:none;stroke-opacity:1"
       transform="matrix(1.3333333,0,0,-1.3333333,263.66933,245.036)" />
    <path
       id="path22"
       d="m 4.5940156,-2.0982656 c 0,-0.7148438 -0.046875,-1.1484375 -0.1875,-1.5 -0.3046875,-0.7734375 -1.0195312,-1.2304688 -1.8984375,-1.2304688 -1.3007812,0 -2.14453122,0.9960938 -2.14453122,2.5429688 0,1.54687497 0.80859372,2.49609372 2.13281252,2.49609372 1.0664062,0 1.8164062,-0.609375 2.0039062,-1.64062502 h -0.75 c -0.2109375,0.62109377 -0.6328125,0.94921877 -1.2304687,0.94921877 -0.4804688,0 -0.8789063,-0.22265625 -1.125,-0.60937497 -0.1875,-0.2695313 -0.2460938,-0.5390625 -0.2578125,-1.0078125 z m -3.4335937,-0.609375 c 0.058594,-0.8671875 0.5859375,-1.4296875 1.3359375,-1.4296875 0.7382812,0 1.3007812,0.609375 1.3007812,1.3710937 0,0.023437 0,0.035156 0,0.058594 z m 4.4589844,-1.9921875 v 4.699218725 h 0.75 V -2.9537344 c 0,-0.6796875 0.4921875,-1.21875 1.1015625,-1.21875 0.5507812,0 0.8671875,0.3398438 0.8671875,0.9375 v 3.234375025 h 0.75 V -2.9537344 c 0,-0.6796875 0.4921875,-1.21875 1.1015627,-1.21875 0.550781,0 0.878906,0.3398438 0.878906,0.9375 v 3.234375025 h 0.75 V -3.5279531 c 0,-0.84375 -0.480469,-1.3007813 -1.359375,-1.3007813 -0.6328125,0 -1.0078125,0.1875 -1.453125,0.7148438 -0.2695312,-0.5039063 -0.6445312,-0.7148438 -1.2539062,-0.7148438 -0.6328125,0 -1.0429688,0.234375 -1.453125,0.796875 v -0.6679687 z m 0,0"
       style="fill:#000000;fill-opacity:1;fill-rule:nonzero;stroke:none"
       aria-label="em"
       transform="matrix(1.3333333,0,0,1.3333333,52.929333,194.868)" />
    <path
       id="path23"
       d="m -125.53088,39.9691 h -16.20316"
       style="fill:none;stroke:#03aced;stroke-width:1.99255;stroke-linecap:butt;stroke-linejoin:miter;stroke-miterlimit:10;stroke-dasharray:none;stroke-opacity:1"
       transform="matrix(1.3333333,0,0,-1.3333333,263.66933,245.036)" />
    <path
       id="path24"
       d="M 0,53.29213 H -141.73404"
       style="fill:none;stroke:#03aced;stroke-width:1.0959;stroke-linecap:butt;stroke-linejoin:miter;stroke-miterlimit:10;stroke-dasharray:none;stroke-opacity:1"
       transform="matrix(1.3333333,0,0,-1.3333333,263.66933,245.036)" />
    <path
       id="path25"
       d="M 2.5559531,9.0625e-4 4.3606406,-4.6983125 h -0.84375 L 2.1926719,-0.88971875 0.93876563,-4.6983125 h -0.84375 L 1.7356406,9.0625e-4 Z M 5.8313438,-4.6983125 h -0.75 V 9.0625e-4 h 0.75 z m 0,-1.8398438 H 5.069625 v 0.9492188 h 0.7617188 z m 4.5673832,3.1523438 c -0.01172,-0.9257813 -0.6210942,-1.4414063 -1.6992192,-1.4414063 -1.1015625,0 -1.8046875,0.5625 -1.8046875,1.4296875 0,0.7382813 0.375,1.0898438 1.4882813,1.359375 l 0.703125,0.1640625 c 0.515625,0.1289063 0.7265625,0.3164063 0.7265625,0.65625 0,0.4335938 -0.4453125,0.7382813 -1.1015625,0.7382813 -0.3984375,0 -0.7382813,-0.1171875 -0.9257813,-0.31640625 C 7.6682578,-0.93659375 7.6096641,-1.0655 7.5627891,-1.393625 H 6.7776328 c 0.035156,1.078125 0.6445313,1.60546875 1.875,1.60546875 1.1835938,0 1.9335942,-0.5859375 1.9335942,-1.48828125 0,-0.703125 -0.398438,-1.0898438 -1.3242192,-1.3125 L 8.5471641,-2.7647188 c -0.609375,-0.140625 -0.8671875,-0.3398437 -0.8671875,-0.6679687 0,-0.4335938 0.375,-0.703125 0.984375,-0.703125 0.609375,0 0.9257812,0.2578125 0.9492187,0.75 z M 15.282516,9.0625e-4 V -4.6983125 h -0.75 v 2.6601562 c 0,0.9609375 -0.503907,1.59375005 -1.277344,1.59375005 -0.597656,0 -0.972656,-0.36328125 -0.972656,-0.92578125 v -3.328125 h -0.738282 v 3.6210937 c 0,0.7851563 0.574219,1.28906255 1.488282,1.28906255 0.691406,0 1.136718,-0.24609375 1.570312,-0.8671875 v 0.65625 z m 5.452148,-0.43359375 c -0.08203,0.0117188 -0.117187,0.0117188 -0.152344,0.0117188 -0.269531,0 -0.410156,-0.12890625 -0.410156,-0.36328125 V -3.549875 c 0,-0.8320312 -0.609375,-1.2773437 -1.769531,-1.2773437 -0.679688,0 -1.242188,0.1875 -1.558594,0.5390625 -0.210937,0.2460937 -0.304687,0.5156249 -0.316406,0.9843749 h 0.75 c 0.05859,-0.5742187 0.398437,-0.8320312 1.101562,-0.8320312 0.667969,0 1.054688,0.2460937 1.054688,0.6914062 v 0.1992188 c 0,0.3164062 -0.1875,0.4453125 -0.785156,0.515625 -1.054688,0.140625 -1.21875,0.1757812 -1.5,0.2929687 -0.550782,0.2226563 -0.832032,0.6445313 -0.832032,1.2539063 0,0.8554688 0.597657,1.3945313 1.546875,1.3945313 0.585938,0 1.066407,-0.2109375 1.59375,-0.69140625 0.04687,0.46875 0.28125,0.69140625 0.773438,0.69140625 0.152344,0 0.269531,-0.0234375 0.503906,-0.0820313 z m -1.300781,-1.0429688 c 0,0.2460938 -0.08203,0.3984375 -0.304688,0.60937505 -0.304687,0.28125 -0.667968,0.421875 -1.113281,0.421875 -0.574219,0 -0.914062,-0.28125 -0.914062,-0.76171875 0,-0.4921875 0.328125,-0.7382813 1.125,-0.8554688 0.785156,-0.1054687 0.949218,-0.140625 1.207031,-0.2578125 z m 2.853515,-5.0625 h -0.75 V 9.0625e-4 h 0.75 z m 1.97754,1.8398438 h -0.75 V 9.0625e-4 h 0.75 z m 0,-1.8398438 h -0.761719 v 0.9492188 h 0.761719 z m 4.617187,1.8398438 h -3.503906 v 0.65625 H 27.9915 l -2.800781,3.375 V 9.0625e-4 h 3.820312 v -0.65625 h -2.917968 l 2.789062,-3.37500005 z m 5.302734,4.265625 c -0.08203,0.0117188 -0.117187,0.0117188 -0.152343,0.0117188 -0.269532,0 -0.410157,-0.12890625 -0.410157,-0.36328125 V -3.549875 c 0,-0.8320312 -0.609375,-1.2773437 -1.769531,-1.2773437 -0.679687,0 -1.242187,0.1875 -1.558594,0.5390625 -0.210937,0.2460937 -0.304687,0.5156249 -0.316406,0.9843749 h 0.75 c 0.05859,-0.5742187 0.398438,-0.8320312 1.101563,-0.8320312 0.667968,0 1.054687,0.2460937 1.054687,0.6914062 v 0.1992188 c 0,0.3164062 -0.1875,0.4453125 -0.785156,0.515625 -1.054688,0.140625 -1.21875,0.1757812 -1.5,0.2929687 -0.550781,0.2226563 -0.832031,0.6445313 -0.832031,1.2539063 0,0.8554688 0.597656,1.3945313 1.546875,1.3945313 0.585937,0 1.066406,-0.2109375 1.59375,-0.69140625 0.04687,0.46875 0.28125,0.69140625 0.773437,0.69140625 0.152344,0 0.269531,-0.0234375 0.503906,-0.0820313 z m -1.300781,-1.0429688 c 0,0.2460938 -0.08203,0.3984375 -0.304687,0.60937505 -0.304688,0.28125 -0.667969,0.421875 -1.113282,0.421875 -0.574218,0 -0.914062,-0.28125 -0.914062,-0.76171875 0,-0.4921875 0.328125,-0.7382813 1.125,-0.8554688 0.785156,-0.1054687 0.949219,-0.140625 1.207031,-0.2578125 z m 3.767578,-3.2226562 H 35.889938 V -5.987375 h -0.75 v 1.2890625 h -0.632813 v 0.609375 h 0.632813 v 3.55078125 c 0,0.48046875 0.328125,0.75 0.902343,0.75 0.1875,0 0.363282,-0.0234375 0.609375,-0.0703125 V -0.4795625 c -0.09375,0.0234375 -0.210937,0.0351563 -0.351562,0.0351563 -0.328125,0 -0.410156,-0.09375 -0.410156,-0.421875 v -3.2226563 h 0.761718 z m 1.564453,0 h -0.75 V 9.0625e-4 h 0.75 z m 0,-1.8398438 h -0.761718 v 0.9492188 h 0.761718 z m 3.082032,1.7109375 c -1.3125,0 -2.109375,0.9375 -2.109375,2.5195313 0,1.5703125 0.785156,2.51953125 2.121093,2.51953125 1.3125,0 2.121094,-0.94921875 2.121094,-2.48437505 0,-1.6289062 -0.773437,-2.5546875 -2.132812,-2.5546875 z m 0.01172,0.6914063 c 0.84375,0 1.347657,0.6796875 1.347657,1.8515625 0,1.1015625 -0.527344,1.8046875 -1.347657,1.8046875 -0.832031,0 -1.347656,-0.6914063 -1.347656,-1.828125 0,-1.1367188 0.515625,-1.828125 1.347656,-1.828125 z m 3.169922,-0.5625 V 9.0625e-4 h 0.75 V -2.5889375 c 0,-0.9609375 0.503907,-1.5820313 1.265625,-1.5820313 0.597657,0 0.972657,0.3515625 0.972657,0.9140625 V 9.0625e-4 h 0.75 V -3.549875 c 0,-0.7734375 -0.585938,-1.2773438 -1.488282,-1.2773438 -0.703125,0 -1.148437,0.2695313 -1.570312,0.9140625 v -0.7851562 z m 0,0"
       style="fill:#000000;fill-opacity:1;fill-rule:nonzero;stroke:none"
       aria-label="visualization"
       transform="matrix(1.3333333,0,0,1.3333333,4.428,178.17067)" />
    <path
       id="path26"
       d="m -125.53088,53.29213 h -16.20316"
       style="fill:none;stroke:#03aced;stroke-width:1.99255;stroke-linecap:butt;stroke-linejoin:miter;stroke-miterlimit:10;stroke-dasharray:none;stroke-opacity:1"
       transform="matrix(1.3333333,0,0,-1.3333333,263.66933,245.036)" />
    <path
       id="path27"
       d="M 0,66.61517 H -141.73404"
       style="fill:none;stroke:#03aced;stroke-width:1.0959;stroke-linecap:butt;stroke-linejoin:miter;stroke-miterlimit:10;stroke-dasharray:none;stroke-opacity:1"
       transform="matrix(1.3333333,0,0,-1.3333333,263.66933,245.036)" />
    <path
       id="path28"
       d="M 0.79674219,-0.0013125 H 3.3162734 c 1.6523438,0 2.6601563,-1.2421875 2.6601563,-3.2695313 0,-2.0273437 -0.9960938,-3.2695312 -2.6601563,-3.2695312 H 0.79674219 Z M 1.6287734,-0.73959375 V -5.8020938 h 1.546875 c 1.2890625,0 1.96875,0.8671875 1.96875,2.5429688 0,1.640625 -0.6796875,2.51953125 -1.96875,2.51953125 z m 9.6386716,0.3046875 c -0.08203,0.0117188 -0.117187,0.0117188 -0.152343,0.0117188 -0.269532,0 -0.410157,-0.12890625 -0.410157,-0.36328125 v -2.7656251 c 0,-0.8320312 -0.609375,-1.2773437 -1.7695309,-1.2773437 -0.6796875,0 -1.2421875,0.1875 -1.5585938,0.5390625 C 7.1658828,-4.0442813 7.0721328,-3.77475 7.0604141,-3.306 h 0.75 c 0.058594,-0.5742188 0.3984375,-0.8320313 1.1015625,-0.8320313 0.6679687,0 1.0546875,0.2460938 1.0546875,0.6914063 v 0.1992187 c 0,0.3164063 -0.1875,0.4453125 -0.7851563,0.515625 -1.0546875,0.140625 -1.21875,0.1757813 -1.5,0.2929688 -0.5507812,0.2226562 -0.8320312,0.6445312 -0.8320312,1.2539062 0,0.8554688 0.5976562,1.3945313 1.546875,1.3945313 0.5859375,0 1.0664062,-0.2109375 1.59375,-0.69140625 0.046875,0.46875 0.2812504,0.69140625 0.7734374,0.69140625 0.152344,0 0.269531,-0.0234375 0.503906,-0.0820313 z M 9.9666641,-1.477875 c 0,0.2460937 -0.082031,0.3984375 -0.3046875,0.609375 -0.3046875,0.28125 -0.6679688,0.421875 -1.1132813,0.421875 -0.5742187,0 -0.9140625,-0.28125 -0.9140625,-0.7617188 0,-0.4921875 0.328125,-0.7382812 1.125,-0.8554687 0.7851563,-0.1054688 0.9492188,-0.140625 1.2070313,-0.2578125 z m 3.7646489,-3.2226563 h -0.761719 v -1.2890625 h -0.75 v 1.2890625 h -0.632813 v 0.609375 h 0.632813 v 3.5507813 c 0,0.48046875 0.328125,0.75 0.902344,0.75 0.1875,0 0.363281,-0.0234375 0.609375,-0.0703125 v -0.62109375 c -0.09375,0.0234375 -0.210938,0.0351563 -0.351563,0.0351563 -0.328125,0 -0.410156,-0.09375 -0.410156,-0.421875 V -4.0911562 h 0.761719 z m 5.012695,4.26562505 c -0.08203,0.0117188 -0.117188,0.0117188 -0.152344,0.0117188 -0.269531,0 -0.410156,-0.12890625 -0.410156,-0.36328125 v -2.7656251 c 0,-0.8320312 -0.609375,-1.2773437 -1.769531,-1.2773437 -0.679688,0 -1.242188,0.1875 -1.558594,0.5390625 -0.210938,0.2460937 -0.304688,0.515625 -0.316406,0.984375 h 0.75 c 0.05859,-0.5742188 0.398437,-0.8320313 1.101562,-0.8320313 0.667969,0 1.054688,0.2460938 1.054688,0.6914063 v 0.1992187 c 0,0.3164063 -0.1875,0.4453125 -0.785157,0.515625 -1.054687,0.140625 -1.21875,0.1757813 -1.5,0.2929688 -0.550781,0.2226562 -0.832031,0.6445312 -0.832031,1.2539062 0,0.8554688 0.597656,1.3945313 1.546875,1.3945313 0.585938,0 1.066406,-0.2109375 1.59375,-0.69140625 0.04687,0.46875 0.28125,0.69140625 0.773438,0.69140625 0.152343,0 0.269531,-0.0234375 0.503906,-0.0820313 z M 17.443227,-1.477875 c 0,0.2460937 -0.08203,0.3984375 -0.304688,0.609375 -0.304687,0.28125 -0.667969,0.421875 -1.113281,0.421875 -0.574219,0 -0.914063,-0.28125 -0.914063,-0.7617188 0,-0.4921875 0.328125,-0.7382812 1.125,-0.8554687 0.785157,-0.1054688 0.949219,-0.140625 1.207032,-0.2578125 z m 0,0"
       style="fill:#000000;fill-opacity:1;fill-rule:nonzero;stroke:none"
       aria-label="Data"
       transform="matrix(1.3333333,0,0,1.3333333,44.285333,160.408)" />
    <path
       id="path29"
       d="m -125.53088,66.61517 h -16.20316"
       style="fill:none;stroke:#03aced;stroke-width:1.99255;stroke-linecap:butt;stroke-linejoin:miter;stroke-miterlimit:10;stroke-dasharray:none;stroke-opacity:1"
       transform="matrix(1.3333333,0,0,-1.3333333,263.66933,245.036)" />
    <path
       id="path30"
       d="M -141.73404,102.04868 H -6.97394 C -3.12228,102.04868 0,98.92638 0,95.07474 V 66.61517"
       style="fill:none;stroke:#fc0000;stroke-width:1.0959;stroke-linecap:butt;stroke-linejoin:miter;stroke-miterlimit:10;stroke-dasharray:none;stroke-opacity:1"
       transform="matrix(1.3333333,0,0,-1.3333333,263.66933,245.036)" />
    <path
       id="path31"
       d="M -141.73404,114.80463 H 6.34909 c 3.85164,0 6.97394,-3.12229 6.97394,-6.97394 V 66.61517"
       style="fill:none;stroke:#fc0000;stroke-width:1.0959;stroke-linecap:butt;stroke-linejoin:miter;stroke-miterlimit:10;stroke-dasharray:none;stroke-opacity:1"
       transform="matrix(1.3333333,0,0,-1.3333333,263.66933,245.036)" />
    <path
       id="path32"
       d="M -141.73404,127.56061 H 19.67212 c 3.85164,0 6.97394,-3.12229 6.97394,-6.97394 v -53.9715"
       style="fill:none;stroke:#fc0000;stroke-width:1.0959;stroke-linecap:butt;stroke-linejoin:miter;stroke-miterlimit:10;stroke-dasharray:none;stroke-opacity:1"
       transform="matrix(1.3333333,0,0,-1.3333333,263.66933,245.036)" />
    <path
       id="path33"
       d="m -141.73404,140.31703 h 174.7292 c 3.85164,0 6.97394,-3.12228 6.97394,-6.97393 V 66.61517"
       style="fill:none;stroke:#fc0000;stroke-width:1.0959;stroke-linecap:butt;stroke-linejoin:miter;stroke-miterlimit:10;stroke-dasharray:none;stroke-opacity:1"
       transform="matrix(1.3333333,0,0,-1.3333333,263.66933,245.036)" />
    <path
       id="path34"
       d="M -141.73404,153.073 H 46.31819 c 3.85164,0 6.97394,-3.12229 6.97394,-6.97394 V 66.61517"
       style="fill:none;stroke:#fc0000;stroke-width:1.0959;stroke-linecap:butt;stroke-linejoin:miter;stroke-miterlimit:10;stroke-dasharray:none;stroke-opacity:1"
       transform="matrix(1.3333333,0,0,-1.3333333,263.66933,245.036)" />
    <path
       id="path35"
       d="M -141.73404,165.82898 H 59.64124 c 3.85163,0 6.97393,-3.12228 6.97393,-6.97394 V 66.61517"
       style="fill:none;stroke:#fc0000;stroke-width:1.0959;stroke-linecap:butt;stroke-linejoin:miter;stroke-miterlimit:10;stroke-dasharray:none;stroke-opacity:1"
       transform="matrix(1.3333333,0,0,-1.3333333,263.66933,245.036)" />
    <path
       id="path36"
       d="M 5.66927,0 C 5.66927,3.13109 3.13109,5.66927 0,5.66927 -3.13109,5.66927 -5.66927,3.13109 -5.66927,0 c 0,-3.13109 2.53818,-5.66927 5.66927,-5.66927 3.13109,0 5.66927,2.53818 5.66927,5.66927 z"
       style="fill:#1f71ff;fill-opacity:1;fill-rule:nonzero;stroke:none"
       transform="matrix(1.3333333,0,0,-1.3333333,263.66933,245.036)" />
    <path
       id="path37"
       d="m 18.9923,0 c 0,3.13109 -2.53818,5.66927 -5.66927,5.66927 -3.1311,0 -5.66928,-2.53818 -5.66928,-5.66927 0,-3.13109 2.53818,-5.66927 5.66928,-5.66927 3.13109,0 5.66927,2.53818 5.66927,5.66927 z"
       style="fill:#326bff;fill-opacity:1;fill-rule:nonzero;stroke:none"
       transform="matrix(1.3333333,0,0,-1.3333333,263.66933,245.036)" />
    <path
       id="path38"
       d="m 32.31532,0 c 0,3.13109 -2.53817,5.66927 -5.66926,5.66927 -3.13111,0 -5.66928,-2.53818 -5.66928,-5.66927 0,-3.13109 2.53817,-5.66927 5.66928,-5.66927 3.13109,0 5.66926,2.53818 5.66926,5.66927 z"
       style="fill:#4267f0;fill-opacity:1;fill-rule:nonzero;stroke:none"
       transform="matrix(1.3333333,0,0,-1.3333333,263.66933,245.036)" />
    <path
       id="path39"
       d="m 45.63837,0 c 0,3.13109 -2.53818,5.66927 -5.66927,5.66927 -3.1311,0 -5.66928,-2.53818 -5.66928,-5.66927 0,-3.13109 2.53818,-5.66927 5.66928,-5.66927 3.13109,0 5.66927,2.53818 5.66927,5.66927 z"
       style="fill:#4f63e3;fill-opacity:1;fill-rule:nonzero;stroke:none"
       transform="matrix(1.3333333,0,0,-1.3333333,263.66933,245.036)" />
    <path
       id="path40"
       d="m 58.9614,0 c 0,3.13109 -2.53818,5.66927 -5.66927,5.66927 -3.1311,0 -5.66928,-2.53818 -5.66928,-5.66927 0,-3.13109 2.53818,-5.66927 5.66928,-5.66927 3.13109,0 5.66927,2.53818 5.66927,5.66927 z"
       style="fill:#5761db;fill-opacity:1;fill-rule:nonzero;stroke:none"
       transform="matrix(1.3333333,0,0,-1.3333333,263.66933,245.036)" />
    <path
       id="path41"
       d="m 72.28444,0 c 0,3.13109 -2.53818,5.66927 -5.66927,5.66927 -3.1311,0 -5.66928,-2.53818 -5.66928,-5.66927 0,-3.13109 2.53818,-5.66927 5.66928,-5.66927 3.13109,0 5.66927,2.53818 5.66927,5.66927 z"
       style="fill:#5a60d8;fill-opacity:1;fill-rule:nonzero;stroke:none"
       transform="matrix(1.3333333,0,0,-1.3333333,263.66933,245.036)" />
    <path
       id="path42"
       d="m 5.66927,13.32303 c 0,3.13109 -2.53818,5.66927 -5.66927,5.66927 -3.13109,0 -5.66927,-2.53818 -5.66927,-5.66927 0,-3.1311 2.53818,-5.66928 5.66927,-5.66928 3.13109,0 5.66927,2.53818 5.66927,5.66928 z"
       style="fill:#326bff;fill-opacity:1;fill-rule:nonzero;stroke:none"
       transform="matrix(1.3333333,0,0,-1.3333333,263.66933,245.036)" />
    <path
       id="path43"
       d="m 18.9923,13.32303 c 0,3.13109 -2.53818,5.66927 -5.66927,5.66927 -3.1311,0 -5.66928,-2.53818 -5.66928,-5.66927 0,-3.1311 2.53818,-5.66928 5.66928,-5.66928 3.13109,0 5.66927,2.53818 5.66927,5.66928 z"
       style="fill:#4765eb;fill-opacity:1;fill-rule:nonzero;stroke:none"
       transform="matrix(1.3333333,0,0,-1.3333333,263.66933,245.036)" />
    <path
       id="path44"
       d="m 32.31532,13.32303 c 0,3.13109 -2.53817,5.66927 -5.66926,5.66927 -3.13111,0 -5.66928,-2.53818 -5.66928,-5.66927 0,-3.1311 2.53817,-5.66928 5.66928,-5.66928 3.13109,0 5.66926,2.53818 5.66926,5.66928 z"
       style="fill:#5a60d8;fill-opacity:1;fill-rule:nonzero;stroke:none"
       transform="matrix(1.3333333,0,0,-1.3333333,263.66933,245.036)" />
    <path
       id="path45"
       d="m 45.63837,13.32303 c 0,3.13109 -2.53818,5.66927 -5.66927,5.66927 -3.1311,0 -5.66928,-2.53818 -5.66928,-5.66927 0,-3.1311 2.53818,-5.66928 5.66928,-5.66928 3.13109,0 5.66927,2.53818 5.66927,5.66928 z"
       style="fill:#6a5cc8;fill-opacity:1;fill-rule:nonzero;stroke:none"
       transform="matrix(1.3333333,0,0,-1.3333333,263.66933,245.036)" />
    <path
       id="path46"
       d="m 58.9614,13.32303 c 0,3.13109 -2.53818,5.66927 -5.66927,5.66927 -3.1311,0 -5.66928,-2.53818 -5.66928,-5.66927 0,-3.1311 2.53818,-5.66928 5.66928,-5.66928 3.13109,0 5.66927,2.53818 5.66927,5.66928 z"
       style="fill:#7459be;fill-opacity:1;fill-rule:nonzero;stroke:none"
       transform="matrix(1.3333333,0,0,-1.3333333,263.66933,245.036)" />
    <path
       id="path47"
       d="m 72.28444,13.32303 c 0,3.13109 -2.53818,5.66927 -5.66927,5.66927 -3.1311,0 -5.66928,-2.53818 -5.66928,-5.66927 0,-3.1311 2.53818,-5.66928 5.66928,-5.66928 3.13109,0 5.66927,2.53818 5.66927,5.66928 z"
       style="fill:#7758bb;fill-opacity:1;fill-rule:nonzero;stroke:none"
       transform="matrix(1.3333333,0,0,-1.3333333,263.66933,245.036)" />
    <path
       id="path48"
       d="m 5.66927,26.64606 c 0,3.13109 -2.53818,5.66926 -5.66927,5.66926 -3.13109,0 -5.66927,-2.53817 -5.66927,-5.66926 0,-3.13111 2.53818,-5.66928 5.66927,-5.66928 3.13109,0 5.66927,2.53817 5.66927,5.66928 z"
       style="fill:#4267f0;fill-opacity:1;fill-rule:nonzero;stroke:none"
       transform="matrix(1.3333333,0,0,-1.3333333,263.66933,245.036)" />
    <path
       id="path49"
       d="m 18.9923,26.64606 c 0,3.13109 -2.53818,5.66926 -5.66927,5.66926 -3.1311,0 -5.66928,-2.53817 -5.66928,-5.66926 0,-3.13111 2.53818,-5.66928 5.66928,-5.66928 3.13109,0 5.66927,2.53817 5.66927,5.66928 z"
       style="fill:#5a60d8;fill-opacity:1;fill-rule:nonzero;stroke:none"
       transform="matrix(1.3333333,0,0,-1.3333333,263.66933,245.036)" />
    <path
       id="path50"
       d="m 32.31532,26.64606 c 0,3.13109 -2.53817,5.66926 -5.66926,5.66926 -3.13111,0 -5.66928,-2.53817 -5.66928,-5.66926 0,-3.13111 2.53817,-5.66928 5.66928,-5.66928 3.13109,0 5.66926,2.53817 5.66926,5.66928 z"
       style="fill:#705ac2;fill-opacity:1;fill-rule:nonzero;stroke:none"
       transform="matrix(1.3333333,0,0,-1.3333333,263.66933,245.036)" />
    <path
       id="path51"
       d="m 45.63837,26.64606 c 0,3.13109 -2.53818,5.66926 -5.66927,5.66926 -3.1311,0 -5.66928,-2.53817 -5.66928,-5.66926 0,-3.13111 2.53818,-5.66928 5.66928,-5.66928 3.13109,0 5.66927,2.53817 5.66927,5.66928 z"
       style="fill:#8355af;fill-opacity:1;fill-rule:nonzero;stroke:none"
       transform="matrix(1.3333333,0,0,-1.3333333,263.66933,245.036)" />
    <path
       id="path52"
       d="m 58.9614,26.64606 c 0,3.13109 -2.53818,5.66926 -5.66927,5.66926 -3.1311,0 -5.66928,-2.53817 -5.66928,-5.66926 0,-3.13111 2.53818,-5.66928 5.66928,-5.66928 3.13109,0 5.66927,2.53817 5.66927,5.66928 z"
       style="fill:#8f52a3;fill-opacity:1;fill-rule:nonzero;stroke:none"
       transform="matrix(1.3333333,0,0,-1.3333333,263.66933,245.036)" />
    <path
       id="path53"
       d="m 72.28444,26.64606 c 0,3.13109 -2.53818,5.66926 -5.66927,5.66926 -3.1311,0 -5.66928,-2.53817 -5.66928,-5.66926 0,-3.13111 2.53818,-5.66928 5.66928,-5.66928 3.13109,0 5.66927,2.53817 5.66927,5.66928 z"
       style="fill:#94509e;fill-opacity:1;fill-rule:nonzero;stroke:none"
       transform="matrix(1.3333333,0,0,-1.3333333,263.66933,245.036)" />
    <path
       id="path54"
       d="m 5.66927,39.9691 c 0,3.13109 -2.53818,5.66927 -5.66927,5.66927 -3.13109,0 -5.66927,-2.53818 -5.66927,-5.66927 0,-3.1311 2.53818,-5.66928 5.66927,-5.66928 3.13109,0 5.66927,2.53818 5.66927,5.66928 z"
       style="fill:#4f63e3;fill-opacity:1;fill-rule:nonzero;stroke:none"
       transform="matrix(1.3333333,0,0,-1.3333333,263.66933,245.036)" />
    <path
       id="path55"
       d="m 18.9923,39.9691 c 0,3.13109 -2.53818,5.66927 -5.66927,5.66927 -3.1311,0 -5.66928,-2.53818 -5.66928,-5.66927 0,-3.1311 2.53818,-5.66928 5.66928,-5.66928 3.13109,0 5.66927,2.53818 5.66927,5.66928 z"
       style="fill:#6a5cc8;fill-opacity:1;fill-rule:nonzero;stroke:none"
       transform="matrix(1.3333333,0,0,-1.3333333,263.66933,245.036)" />
    <path
       id="path56"
       d="m 32.31532,39.9691 c 0,3.13109 -2.53817,5.66927 -5.66926,5.66927 -3.13111,0 -5.66928,-2.53818 -5.66928,-5.66927 0,-3.1311 2.53817,-5.66928 5.66928,-5.66928 3.13109,0 5.66926,2.53818 5.66926,5.66928 z"
       style="fill:#8355af;fill-opacity:1;fill-rule:nonzero;stroke:none"
       transform="matrix(1.3333333,0,0,-1.3333333,263.66933,245.036)" />
    <path
       id="path57"
       d="m 45.63837,39.9691 c 0,3.13109 -2.53818,5.66927 -5.66927,5.66927 -3.1311,0 -5.66928,-2.53818 -5.66928,-5.66927 0,-3.1311 2.53818,-5.66928 5.66928,-5.66928 3.13109,0 5.66927,2.53818 5.66927,5.66928 z"
       style="fill:#994f99;fill-opacity:1;fill-rule:nonzero;stroke:none"
       transform="matrix(1.3333333,0,0,-1.3333333,263.66933,245.036)" />
    <path
       id="path58"
       d="m 58.9614,39.9691 c 0,3.13109 -2.53818,5.66927 -5.66927,5.66927 -3.1311,0 -5.66928,-2.53818 -5.66928,-5.66927 0,-3.1311 2.53818,-5.66928 5.66928,-5.66928 3.13109,0 5.66927,2.53818 5.66927,5.66928 z"
       style="fill:#aa4a88;fill-opacity:1;fill-rule:nonzero;stroke:none"
       transform="matrix(1.3333333,0,0,-1.3333333,263.66933,245.036)" />
    <path
       id="path59"
       d="m 72.28444,39.9691 c 0,3.13109 -2.53818,5.66927 -5.66927,5.66927 -3.1311,0 -5.66928,-2.53818 -5.66928,-5.66927 0,-3.1311 2.53818,-5.66928 5.66928,-5.66928 3.13109,0 5.66927,2.53818 5.66927,5.66928 z"
       style="fill:#b14881;fill-opacity:1;fill-rule:nonzero;stroke:none"
       transform="matrix(1.3333333,0,0,-1.3333333,263.66933,245.036)" />
    <path
       id="path60"
       d="m 5.66927,53.29213 c 0,3.13109 -2.53818,5.66927 -5.66927,5.66927 -3.13109,0 -5.66927,-2.53818 -5.66927,-5.66927 0,-3.1311 2.53818,-5.66928 5.66927,-5.66928 3.13109,0 5.66927,2.53818 5.66927,5.66928 z"
       style="fill:#5761db;fill-opacity:1;fill-rule:nonzero;stroke:none"
       transform="matrix(1.3333333,0,0,-1.3333333,263.66933,245.036)" />
    <path
       id="path61"
       d="m 18.9923,53.29213 c 0,3.13109 -2.53818,5.66927 -5.66927,5.66927 -3.1311,0 -5.66928,-2.53818 -5.66928,-5.66927 0,-3.1311 2.53818,-5.66928 5.66928,-5.66928 3.13109,0 5.66927,2.53818 5.66927,5.66928 z"
       style="fill:#7459be;fill-opacity:1;fill-rule:nonzero;stroke:none"
       transform="matrix(1.3333333,0,0,-1.3333333,263.66933,245.036)" />
    <path
       id="path62"
       d="m 32.31532,53.29213 c 0,3.13109 -2.53817,5.66927 -5.66926,5.66927 -3.13111,0 -5.66928,-2.53818 -5.66928,-5.66927 0,-3.1311 2.53817,-5.66928 5.66928,-5.66928 3.13109,0 5.66926,2.53818 5.66926,5.66928 z"
       style="fill:#8f52a3;fill-opacity:1;fill-rule:nonzero;stroke:none"
       transform="matrix(1.3333333,0,0,-1.3333333,263.66933,245.036)" />
    <path
       id="path63"
       d="m 45.63837,53.29213 c 0,3.13109 -2.53818,5.66927 -5.66927,5.66927 -3.1311,0 -5.66928,-2.53818 -5.66928,-5.66927 0,-3.1311 2.53818,-5.66928 5.66928,-5.66928 3.13109,0 5.66927,2.53818 5.66927,5.66928 z"
       style="fill:#aa4a88;fill-opacity:1;fill-rule:nonzero;stroke:none"
       transform="matrix(1.3333333,0,0,-1.3333333,263.66933,245.036)" />
    <path
       id="path64"
       d="m 58.9614,53.29213 c 0,3.13109 -2.53818,5.66927 -5.66927,5.66927 -3.1311,0 -5.66928,-2.53818 -5.66928,-5.66927 0,-3.1311 2.53818,-5.66928 5.66928,-5.66928 3.13109,0 5.66927,2.53818 5.66927,5.66928 z"
       style="fill:#c24470;fill-opacity:1;fill-rule:nonzero;stroke:none"
       transform="matrix(1.3333333,0,0,-1.3333333,263.66933,245.036)" />
    <path
       id="path65"
       d="m 72.28444,53.29213 c 0,3.13109 -2.53818,5.66927 -5.66927,5.66927 -3.1311,0 -5.66928,-2.53818 -5.66928,-5.66927 0,-3.1311 2.53818,-5.66928 5.66928,-5.66928 3.13109,0 5.66927,2.53818 5.66927,5.66928 z"
       style="fill:#ce4164;fill-opacity:1;fill-rule:nonzero;stroke:none"
       transform="matrix(1.3333333,0,0,-1.3333333,263.66933,245.036)" />
    <path
       id="path66"
       d="m 5.66927,66.61517 c 0,3.13109 -2.53818,5.66927 -5.66927,5.66927 -3.13109,0 -5.66927,-2.53818 -5.66927,-5.66927 0,-3.1311 2.53818,-5.66928 5.66927,-5.66928 3.13109,0 5.66927,2.53818 5.66927,5.66928 z"
       style="fill:#5a60d8;fill-opacity:1;fill-rule:nonzero;stroke:none"
       transform="matrix(1.3333333,0,0,-1.3333333,263.66933,245.036)" />
    <path
       id="path67"
       d="m 18.9923,66.61517 c 0,3.13109 -2.53818,5.66927 -5.66927,5.66927 -3.1311,0 -5.66928,-2.53818 -5.66928,-5.66927 0,-3.1311 2.53818,-5.66928 5.66928,-5.66928 3.13109,0 5.66927,2.53818 5.66927,5.66928 z"
       style="fill:#7758bb;fill-opacity:1;fill-rule:nonzero;stroke:none"
       transform="matrix(1.3333333,0,0,-1.3333333,263.66933,245.036)" />
    <path
       id="path68"
       d="m 32.31532,66.61517 c 0,3.13109 -2.53817,5.66927 -5.66926,5.66927 -3.13111,0 -5.66928,-2.53818 -5.66928,-5.66927 0,-3.1311 2.53817,-5.66928 5.66928,-5.66928 3.13109,0 5.66926,2.53818 5.66926,5.66928 z"
       style="fill:#94509e;fill-opacity:1;fill-rule:nonzero;stroke:none"
       transform="matrix(1.3333333,0,0,-1.3333333,263.66933,245.036)" />
    <path
       id="path69"
       d="m 45.63837,66.61517 c 0,3.13109 -2.53818,5.66927 -5.66927,5.66927 -3.1311,0 -5.66928,-2.53818 -5.66928,-5.66927 0,-3.1311 2.53818,-5.66928 5.66928,-5.66928 3.13109,0 5.66927,2.53818 5.66927,5.66928 z"
       style="fill:#b14881;fill-opacity:1;fill-rule:nonzero;stroke:none"
       transform="matrix(1.3333333,0,0,-1.3333333,263.66933,245.036)" />
    <path
       id="path70"
       d="m 58.9614,66.61517 c 0,3.13109 -2.53818,5.66927 -5.66927,5.66927 -3.1311,0 -5.66928,-2.53818 -5.66928,-5.66927 0,-3.1311 2.53818,-5.66928 5.66928,-5.66928 3.13109,0 5.66927,2.53818 5.66927,5.66928 z"
       style="fill:#ce4164;fill-opacity:1;fill-rule:nonzero;stroke:none"
       transform="matrix(1.3333333,0,0,-1.3333333,263.66933,245.036)" />
    <path
       id="path71"
       d="m 72.28444,66.61517 c 0,3.13109 -2.53818,5.66927 -5.66927,5.66927 -3.1311,0 -5.66928,-2.53818 -5.66928,-5.66927 0,-3.1311 2.53818,-5.66928 5.66928,-5.66928 3.13109,0 5.66927,2.53818 5.66927,5.66928 z"
       style="fill:#eb3947;fill-opacity:1;fill-rule:nonzero;stroke:none"
       transform="matrix(1.3333333,0,0,-1.3333333,263.66933,245.036)" />
    <path
       id="path72"
       d="m 6.5728281,0.01064062 -0.84375,-0.69140625 C 6.3501719,-1.3604531 6.6548594,-2.2042031 6.6548594,-3.2354531 c 0,-2.0273438 -1.2773438,-3.4101563 -3.1640625,-3.4101563 -1.875,0 -3.15234377,1.3828125 -3.15234377,3.421875 0,2.0507813 1.27734377,3.43359377 3.15234377,3.43359377 0.6445312,0 1.1835937,-0.15234375 1.7109375,-0.45703125 l 0.9492187,0.7734375 z m -2.2617187,-1.85156252 -0.4101563,0.5039063 0.65625,0.55078122 c -0.3867187,0.1875 -0.6796875,0.2578125 -1.0664062,0.2578125 -1.3945313,0 -2.3203125,-1.07812502 -2.3203125,-2.69531252 0,-1.6054687 0.9375,-2.6835937 2.3203125,-2.6835937 1.3945312,0 2.3203125,1.078125 2.3203125,2.6835937 0,0.84375 -0.2226563,1.4882813 -0.703125,2.0390625 z m 6.9902346,1.83984377 V -4.7002969 h -0.75 v 2.6601563 c 0,0.9609375 -0.503906,1.59374997 -1.277344,1.59374997 -0.5976562,0 -0.9726562,-0.36328125 -0.9726562,-0.92578127 v -3.328125 H 7.5630625 v 3.6210938 c 0,0.78515622 0.5742188,1.28906247 1.4882813,1.28906247 0.6914062,0 1.1367192,-0.24609375 1.5703122,-0.8671875 v 0.65625 z m 5.252929,-2.09765627 c 0,-0.7148437 -0.04687,-1.1484375 -0.1875,-1.5 -0.304687,-0.7734375 -1.019531,-1.2304687 -1.898437,-1.2304687 -1.300781,0 -2.144531,0.9960937 -2.144531,2.5429687 0,1.54687502 0.808593,2.49609377 2.132812,2.49609377 1.066406,0 1.816406,-0.609375 2.003906,-1.64062497 h -0.75 c -0.210937,0.62109372 -0.632812,0.94921872 -1.230468,0.94921872 -0.480469,0 -0.878907,-0.22265625 -1.125,-0.60937502 -0.1875,-0.2695312 -0.246094,-0.5390625 -0.257813,-1.0078125 z m -3.433593,-0.609375 c 0.05859,-0.8671875 0.585937,-1.4296875 1.335937,-1.4296875 0.738281,0 1.300781,0.609375 1.300781,1.3710938 0,0.023437 0,0.035156 0,0.058594 z m 4.447265,-1.9921875 v 4.69921877 h 0.75 V -2.4385781 c 0,-0.6679688 0.175782,-1.1132813 0.527344,-1.3710938 0.234375,-0.1757812 0.457031,-0.2226562 0.984375,-0.234375 v -0.7617187 c -0.128906,-0.023437 -0.199219,-0.023437 -0.292969,-0.023437 -0.480468,0 -0.855468,0.28125 -1.277343,0.984375 v -0.8554688 z m 6.105469,0 -1.300781,3.65625 -1.207031,-3.65625 h -0.796875 l 1.59375,4.72265627 -0.292969,0.73828125 C 21.55232,1.0887656 21.388258,1.2176719 21.071852,1.2176719 c -0.105469,0 -0.234375,-0.011719 -0.398438,-0.058594 v 0.6796875 c 0.152344,0.082031 0.304688,0.1171875 0.503906,0.1171875 0.246094,0 0.503907,-0.082031 0.703125,-0.2226562 0.234375,-0.1757813 0.363282,-0.375 0.503907,-0.75000003 l 2.097656,-5.68359377 z m 0,0"
       style="fill:#17a5dc;fill-opacity:1;fill-rule:nonzero;stroke:none"
       aria-label="Query"
       transform="matrix(1.3333333,0,0,1.3333333,139.13467,145.228)" />
    <path
       id="path73"
       d="M 2.274875,-4.6977734 H 1.5131562 V -5.9868359 H 0.76315625 v 1.2890625 h -0.6328125 v 0.609375 h 0.6328125 v 3.55078121 c 0,0.48046875 0.32812495,0.75 0.90234375,0.75 0.1875,0 0.3632812,-0.0234375 0.609375,-0.0703125 v -0.62109375 c -0.09375,0.0234375 -0.2109375,0.0351563 -0.3515625,0.0351563 -0.328125,0 -0.4101563,-0.09375 -0.4101563,-0.421875 V -4.0883984 H 2.274875 Z m 2.6542969,-0.1289063 c -1.3125,0 -2.109375,0.9375 -2.109375,2.5195313 0,1.57031246 0.7851562,2.51953121 2.1210937,2.51953121 1.3125,0 2.1210938,-0.94921875 2.1210938,-2.48437501 0,-1.6289062 -0.7734375,-2.5546875 -2.1328125,-2.5546875 z m 0.011719,0.6914063 c 0.84375,0 1.3476563,0.6796875 1.3476563,1.8515625 0,1.1015625 -0.5273438,1.80468746 -1.3476563,1.80468746 -0.8320312,0 -1.3476562,-0.69140626 -1.3476562,-1.82812496 0,-1.1367188 0.515625,-1.828125 1.3476562,-1.828125 z m 0,0"
       style="fill:#000000;fill-opacity:1;fill-rule:nonzero;stroke:none"
       aria-label="to"
       transform="matrix(1.3333333,0,0,1.3333333,60.029333,381.30667)" />
    <path
       id="path74"
       d="m -125.53088,-99.2138 h -16.20316"
       style="fill:none;stroke:#287528;stroke-width:1.99255;stroke-linecap:butt;stroke-linejoin:round;stroke-miterlimit:10;stroke-dasharray:none;stroke-opacity:1"
       transform="matrix(1.3333333,0,0,-1.3333333,263.66933,245.036)" />
    <path
       id="path75"
       d="M 4.3243672,-8.046875e-4 V -4.7000234 h -0.75 v 2.6601562 c 0,0.9609375 -0.5039063,1.59375001 -1.2773438,1.59375001 -0.5976562,0 -0.9726562,-0.36328125 -0.9726562,-0.92578121 v -3.328125 H 0.58608594 v 3.6210937 c 0,0.78515626 0.57421876,1.28906251 1.48828126,1.28906251 0.6914062,0 1.1367187,-0.24609375 1.5703125,-0.8671875 V -8.046875e-4 Z M 8.9122578,-3.3875234 c -0.011719,-0.9257813 -0.6210937,-1.4414063 -1.6992187,-1.4414063 -1.1015625,0 -1.8046875,0.5625 -1.8046875,1.4296875 0,0.7382813 0.375,1.0898438 1.4882812,1.359375 l 0.703125,0.1640625 c 0.515625,0.1289063 0.7265625,0.3164063 0.7265625,0.65625 0,0.43359376 -0.4453125,0.73828126 -1.1015625,0.73828126 -0.3984375,0 -0.7382812,-0.1171875 -0.9257812,-0.31640625 C 6.1817891,-0.93830469 6.1231953,-1.0672109 6.0763203,-1.3953359 H 5.2911641 c 0.035156,1.07812496 0.6445312,1.60546871 1.875,1.60546871 1.1835937,0 1.9335937,-0.5859375 1.9335937,-1.48828121 0,-0.703125 -0.3984375,-1.0898438 -1.3242187,-1.3125 L 7.0606953,-2.7664297 c -0.609375,-0.140625 -0.8671875,-0.3398437 -0.8671875,-0.6679687 0,-0.4335938 0.375,-0.703125 0.984375,-0.703125 0.609375,0 0.9257813,0.2578125 0.9492188,0.75 z m 5.1503902,1.2890625 c 0,-0.7148438 -0.04687,-1.1484375 -0.1875,-1.5 -0.304687,-0.7734375 -1.019531,-1.2304688 -1.898437,-1.2304688 -1.300781,0 -2.1445313,0.9960938 -2.1445313,2.5429688 0,1.54687496 0.8085933,2.49609371 2.1328123,2.49609371 1.066406,0 1.816406,-0.609375 2.003906,-1.64062501 h -0.75 c -0.210937,0.62109376 -0.632812,0.94921876 -1.230468,0.94921876 -0.480469,0 -0.878907,-0.22265625 -1.125,-0.60937496 -0.1875,-0.2695313 -0.246094,-0.5390625 -0.257813,-1.0078125 z m -3.433593,-0.609375 c 0.05859,-0.8671875 0.585937,-1.4296875 1.335937,-1.4296875 0.738281,0 1.300781,0.609375 1.300781,1.3710937 0,0.023437 0,0.035156 0,0.058594 z m 4.447265,-1.9921875 v 4.6992187125 h 0.75 V -2.4383047 c 0,-0.6679687 0.175782,-1.1132812 0.527344,-1.3710937 0.234375,-0.1757813 0.457031,-0.2226563 0.984375,-0.234375 v -0.7617188 c -0.128906,-0.023437 -0.199219,-0.023437 -0.292969,-0.023437 -0.480468,0 -0.855468,0.28125 -1.277343,0.984375 v -0.8554687 z m 6.290039,1.3125 c -0.01172,-0.9257813 -0.621093,-1.4414063 -1.699218,-1.4414063 -1.101563,0 -1.804688,0.5625 -1.804688,1.4296875 0,0.7382813 0.375,1.0898438 1.488281,1.359375 l 0.703125,0.1640625 c 0.515625,0.1289063 0.726563,0.3164063 0.726563,0.65625 0,0.43359376 -0.445313,0.73828126 -1.101563,0.73828126 -0.398437,0 -0.738281,-0.1171875 -0.925781,-0.31640625 -0.117187,-0.140625 -0.175781,-0.26953121 -0.222656,-0.59765621 h -0.785156 c 0.03516,1.07812496 0.644531,1.60546871 1.875,1.60546871 1.183593,0 1.933593,-0.5859375 1.933593,-1.48828121 0,-0.703125 -0.398437,-1.0898438 -1.324218,-1.3125 l -0.714844,-0.1757813 c -0.609375,-0.140625 -0.867188,-0.3398437 -0.867188,-0.6679687 0,-0.4335938 0.375,-0.703125 0.984375,-0.703125 0.609375,0 0.925782,0.2578125 0.949219,0.75 z m 0,0"
       style="fill:#000000;fill-opacity:1;fill-rule:nonzero;stroke:none"
       aria-label="users"
       transform="matrix(1.3333333,0,0,1.3333333,40.769333,363.43467)" />
    <path
       id="path76"
       d="m -125.53088,-86.45782 h -16.20316"
       style="fill:none;stroke:#287528;stroke-width:1.99255;stroke-linecap:butt;stroke-linejoin:round;stroke-miterlimit:10;stroke-dasharray:none;stroke-opacity:1"
       transform="matrix(1.3333333,0,0,-1.3333333,263.66933,245.036)" />
    <path
       id="path77"
       d="m 0.4796875,1.9577422 h 0.7617188 v -2.44921876 c 0.3867187,0.48046875 0.8320312,0.703125 1.4414062,0.703125 1.2070313,0 2.0039063,-0.984375 2.0039063,-2.48437504 0,-1.5703125 -0.7734375,-2.5546875 -2.015625,-2.5546875 -0.6328125,0 -1.1484375,0.28125 -1.5,0.84375 V -4.6985078 H 0.4796875 Z m 2.0625,-6.09375 c 0.8320313,0 1.3710938,0.7265625 1.3710938,1.8515625 0,1.0664062 -0.5507813,1.79296874 -1.3710938,1.79296874 -0.7851562,0 -1.3007812,-0.71484374 -1.3007812,-1.81640624 0,-1.1015625 0.515625,-1.828125 1.3007812,-1.828125 z m 4.8808594,-0.6914063 c -1.3125,0 -2.109375,0.9375 -2.109375,2.5195313 0,1.57031249 0.7851562,2.51953124 2.1210937,2.51953124 1.3125,0 2.1210938,-0.94921875 2.1210938,-2.48437504 0,-1.6289062 -0.7734375,-2.5546875 -2.1328125,-2.5546875 z m 0.011719,0.6914063 c 0.84375,0 1.3476563,0.6796875 1.3476563,1.8515625 0,1.1015625 -0.5273438,1.80468749 -1.3476563,1.80468749 -0.8320312,0 -1.3476562,-0.69140629 -1.3476562,-1.82812499 0,-1.1367188 0.515625,-1.828125 1.3476562,-1.828125 z M 14.805859,7.109375e-4 16.188672,-4.6985078 h -0.84375 l -0.9375,3.65625 -0.925781,-3.65625 h -0.914063 l -0.890625,3.65625 -0.960937,-3.65625 H 9.8957031 L 11.255078,7.109375e-4 h 0.84375 L 13.001172,-3.6789766 13.950391,7.109375e-4 Z M 20.814648,-2.0969453 c 0,-0.7148438 -0.04687,-1.1484375 -0.1875,-1.5 -0.304687,-0.7734375 -1.019531,-1.2304688 -1.898437,-1.2304688 -1.300781,0 -2.144531,0.9960938 -2.144531,2.5429688 0,1.54687499 0.808593,2.49609374 2.132812,2.49609374 1.066406,0 1.816406,-0.609375 2.003906,-1.64062504 h -0.75 c -0.210937,0.62109379 -0.632812,0.94921879 -1.230468,0.94921879 -0.480469,0 -0.878907,-0.22265625 -1.125,-0.60937499 -0.1875,-0.2695313 -0.246094,-0.5390625 -0.257813,-1.0078125 z m -3.433593,-0.609375 c 0.05859,-0.8671875 0.585937,-1.4296875 1.335937,-1.4296875 0.738281,0 1.300781,0.609375 1.300781,1.3710937 0,0.023437 0,0.035156 0,0.058594 z m 4.444336,-1.9921875 V 7.109375e-4 h 0.75 V -2.4367891 c 0,-0.6679687 0.175781,-1.1132812 0.527343,-1.3710937 0.234375,-0.1757813 0.457032,-0.2226563 0.984375,-0.234375 v -0.7617188 c -0.128906,-0.023437 -0.199218,-0.023437 -0.292968,-0.023437 -0.480469,0 -0.855469,0.28125 -1.277344,0.984375 v -0.8554687 z m 6.292968,1.3125 c -0.01172,-0.9257813 -0.621093,-1.4414063 -1.699218,-1.4414063 -1.101563,0 -1.804688,0.5625 -1.804688,1.4296875 0,0.7382813 0.375,1.0898438 1.488281,1.359375 l 0.703125,0.1640625 c 0.515625,0.1289063 0.726563,0.3164063 0.726563,0.65625 0,0.43359379 -0.445313,0.73828129 -1.101563,0.73828129 -0.398437,0 -0.738281,-0.1171875 -0.925781,-0.31640625 -0.117187,-0.140625 -0.175781,-0.26953124 -0.222656,-0.59765624 h -0.785156 c 0.03516,1.07812499 0.644531,1.60546874 1.875,1.60546874 1.183593,0 1.933593,-0.5859375 1.933593,-1.48828124 0,-0.703125 -0.398437,-1.0898438 -1.324218,-1.3125 l -0.714844,-0.1757813 c -0.609375,-0.140625 -0.867188,-0.3398437 -0.867188,-0.6679687 0,-0.4335938 0.375,-0.703125 0.984375,-0.703125 0.609375,0 0.925782,0.2578125 0.949219,0.75 z m 0,0"
       style="fill:#000000;fill-opacity:1;fill-rule:nonzero;stroke:none"
       aria-label="powers"
       transform="matrix(1.3333333,0,0,1.3333333,31.766667,345.23733)" />
    <path
       id="path78"
       d="m -125.53088,-73.70186 h -16.20316"
       style="fill:none;stroke:#287528;stroke-width:1.99255;stroke-linecap:butt;stroke-linejoin:round;stroke-miterlimit:10;stroke-dasharray:none;stroke-opacity:1"
       transform="matrix(1.3333333,0,0,-1.3333333,263.66933,245.036)" />
    <path
       id="path79"
       d="m 4.5946484,-2.0981797 c 0,-0.7148437 -0.046875,-1.1484375 -0.1875,-1.5 -0.3046875,-0.7734375 -1.0195312,-1.2304687 -1.8984375,-1.2304687 -1.3007812,0 -2.14453121,0.9960937 -2.14453121,2.5429687 0,1.54687501 0.80859371,2.49609376 2.13281251,2.49609376 1.0664062,0 1.8164062,-0.609375 2.0039062,-1.64062496 h -0.75 c -0.2109375,0.62109371 -0.6328125,0.94921871 -1.2304687,0.94921871 -0.4804688,0 -0.8789063,-0.22265625 -1.125,-0.60937501 -0.1875,-0.2695312 -0.2460938,-0.5390625 -0.2578125,-1.0078125 z m -3.4335937,-0.609375 c 0.058594,-0.8671875 0.5859375,-1.4296875 1.3359375,-1.4296875 0.7382812,0 1.3007812,0.609375 1.3007812,1.3710938 0,0.023437 0,0.035156 0,0.058594 z m 4.4560547,-1.9921875 v 4.6992187625 h 0.75 V -2.9536484 c 0,-0.6796875 0.4921875,-1.21875 1.1015625,-1.21875 0.5507812,0 0.8671875,0.3398437 0.8671875,0.9375 v 3.2343749625 h 0.75 V -2.9536484 c 0,-0.6796875 0.4921875,-1.21875 1.1015626,-1.21875 0.550781,0 0.878906,0.3398437 0.878906,0.9375 v 3.2343749625 h 0.75 V -3.5278672 c 0,-0.84375 -0.480469,-1.3007812 -1.359375,-1.3007812 -0.6328124,0 -1.0078124,0.1875 -1.4531249,0.7148437 -0.2695312,-0.5039062 -0.6445312,-0.7148437 -1.2539062,-0.7148437 -0.6328125,0 -1.0429688,0.234375 -1.453125,0.796875 v -0.6679688 z m 0,0"
       style="fill:#000000;fill-opacity:1;fill-rule:nonzero;stroke:none"
       aria-label="em"
       transform="matrix(1.3333333,0,0,1.3333333,53.393333,329.41867)" />
    <path
       id="path80"
       d="m -125.53088,-60.94543 h -16.20316"
       style="fill:none;stroke:#287528;stroke-width:1.99255;stroke-linecap:butt;stroke-linejoin:round;stroke-miterlimit:10;stroke-dasharray:none;stroke-opacity:1"
       transform="matrix(1.3333333,0,0,-1.3333333,263.66933,245.036)" />
    <path
       id="path81"
       d="M 2.5536563,0.00135156 4.3583438,-4.6978672 h -0.84375 L 2.190375,-0.88927344 0.93646875,-4.6978672 h -0.84375 L 1.7333438,0.00135156 Z M 5.8319766,-4.6978672 h -0.75 v 4.69921876 h 0.75 z m 0,-1.8398437 H 5.0702578 v 0.9492187 h 0.7617188 z m 4.5673824,3.1523437 c -0.01172,-0.9257812 -0.6210934,-1.4414062 -1.6992184,-1.4414062 -1.1015625,0 -1.8046875,0.5625 -1.8046875,1.4296875 0,0.7382812 0.375,1.0898437 1.4882813,1.359375 l 0.703125,0.1640625 c 0.515625,0.1289062 0.7265625,0.3164062 0.7265625,0.65625 0,0.43359371 -0.4453125,0.73828121 -1.1015625,0.73828121 -0.3984375,0 -0.7382813,-0.1171875 -0.9257813,-0.31640625 C 7.6688906,-0.93614844 7.6102969,-1.0650547 7.5634219,-1.3931797 H 6.7782656 c 0.035156,1.07812501 0.6445313,1.60546876 1.875,1.60546876 1.1835938,0 1.9335934,-0.5859375 1.9335934,-1.48828126 0,-0.703125 -0.398437,-1.0898437 -1.3242184,-1.3125 L 8.5477969,-2.7642734 c -0.609375,-0.140625 -0.8671875,-0.3398438 -0.8671875,-0.6679688 0,-0.4335937 0.375,-0.703125 0.984375,-0.703125 0.609375,0 0.9257812,0.2578125 0.9492187,0.75 z m 4.88086,3.38671876 V -4.6978672 h -0.75 v 2.6601563 c 0,0.9609375 -0.503906,1.59374996 -1.277344,1.59374996 -0.597656,0 -0.972656,-0.36328125 -0.972656,-0.92578126 v -3.328125 h -0.738281 v 3.6210938 c 0,0.78515621 0.574218,1.28906246 1.488281,1.28906246 0.691406,0 1.136719,-0.24609375 1.570312,-0.8671875 v 0.65625 z m 5.455078,-0.43359375 c -0.08203,0.0117188 -0.117188,0.0117188 -0.152344,0.0117188 -0.269531,0 -0.410156,-0.12890625 -0.410156,-0.36328125 V -3.5494297 c 0,-0.8320312 -0.609375,-1.2773437 -1.769531,-1.2773437 -0.679688,0 -1.242188,0.1875 -1.558594,0.5390625 -0.210938,0.2460937 -0.304688,0.515625 -0.316406,0.984375 h 0.75 c 0.05859,-0.5742188 0.398437,-0.8320313 1.101562,-0.8320313 0.667969,0 1.054688,0.2460938 1.054688,0.6914063 v 0.1992187 c 0,0.3164063 -0.1875,0.4453125 -0.785157,0.515625 -1.054687,0.140625 -1.21875,0.1757813 -1.5,0.2929688 -0.550781,0.2226562 -0.832031,0.6445312 -0.832031,1.2539062 0,0.85546876 0.597656,1.39453126 1.546875,1.39453126 0.585938,0 1.066406,-0.2109375 1.59375,-0.69140625 0.04687,0.46875 0.28125,0.69140625 0.773438,0.69140625 0.152343,0 0.269531,-0.0234375 0.503906,-0.0820313 z M 19.434516,-1.4752109 c 0,0.2460937 -0.08203,0.3984375 -0.304688,0.60937496 -0.304687,0.28125 -0.667969,0.421875 -1.113281,0.421875 -0.574219,0 -0.914063,-0.28125 -0.914063,-0.76171876 0,-0.4921875 0.328125,-0.7382812 1.125,-0.8554687 0.785157,-0.1054688 0.949219,-0.140625 1.207032,-0.2578125 z m 2.853515,-5.0625 h -0.75 v 6.53906246 h 0.75 z m 1.977539,1.8398437 h -0.75 v 4.69921876 h 0.75 z m 0,-1.8398437 h -0.761718 v 0.9492187 h 0.761718 z m 4.614258,1.8398437 h -3.503906 v 0.65625 h 2.613281 l -2.800781,3.37500001 v 0.66796875 h 3.820312 v -0.65625 h -2.917968 l 2.789062,-3.37499996 z m 5.305664,4.26562501 c -0.08203,0.0117188 -0.117187,0.0117188 -0.152344,0.0117188 -0.269531,0 -0.410156,-0.12890625 -0.410156,-0.36328125 V -3.5494297 c 0,-0.8320312 -0.609375,-1.2773437 -1.769531,-1.2773437 -0.679688,0 -1.242188,0.1875 -1.558594,0.5390625 -0.210937,0.2460937 -0.304687,0.515625 -0.316406,0.984375 h 0.75 c 0.05859,-0.5742188 0.398437,-0.8320313 1.101562,-0.8320313 0.667969,0 1.054688,0.2460938 1.054688,0.6914063 v 0.1992187 c 0,0.3164063 -0.1875,0.4453125 -0.785156,0.515625 -1.054688,0.140625 -1.21875,0.1757813 -1.5,0.2929688 -0.550782,0.2226562 -0.832032,0.6445312 -0.832032,1.2539062 0,0.85546876 0.597657,1.39453126 1.546875,1.39453126 0.585938,0 1.066407,-0.2109375 1.59375,-0.69140625 0.04687,0.46875 0.28125,0.69140625 0.773438,0.69140625 0.152344,0 0.269531,-0.0234375 0.503906,-0.0820313 z M 32.884711,-1.4752109 c 0,0.2460937 -0.08203,0.3984375 -0.304688,0.60937496 -0.304687,0.28125 -0.667968,0.421875 -1.113281,0.421875 -0.574219,0 -0.914062,-0.28125 -0.914062,-0.76171876 0,-0.4921875 0.328125,-0.7382812 1.125,-0.8554687 0.785156,-0.1054688 0.949218,-0.140625 1.207031,-0.2578125 z m 3.764648,-3.2226563 h -0.761718 v -1.2890625 h -0.75 v 1.2890625 h -0.632813 v 0.609375 h 0.632813 v 3.55078126 c 0,0.48046875 0.328125,0.75 0.902343,0.75 0.1875,0 0.363282,-0.0234375 0.609375,-0.0703125 v -0.62109375 c -0.09375,0.0234375 -0.210937,0.0351563 -0.351562,0.0351563 -0.328125,0 -0.410156,-0.09375 -0.410156,-0.421875 V -4.0884922 h 0.761718 z m 1.567383,0 h -0.75 v 4.69921876 h 0.75 z m 0,-1.8398437 h -0.761719 v 0.9492187 h 0.761719 z m 3.082031,1.7109375 c -1.3125,0 -2.109375,0.9375 -2.109375,2.5195312 0,1.57031251 0.785157,2.51953126 2.121094,2.51953126 1.3125,0 2.121094,-0.94921875 2.121094,-2.48437496 0,-1.6289063 -0.773438,-2.5546875 -2.132813,-2.5546875 z m 0.01172,0.6914062 c 0.84375,0 1.347656,0.6796875 1.347656,1.8515625 0,1.1015625 -0.527343,1.80468751 -1.347656,1.80468751 -0.832031,0 -1.347656,-0.69140621 -1.347656,-1.82812501 0,-1.1367187 0.515625,-1.828125 1.347656,-1.828125 z m 3.166992,-0.5625 v 4.69921876 h 0.75 V -2.5884922 c 0,-0.9609375 0.503907,-1.5820312 1.265625,-1.5820312 0.597657,0 0.972657,0.3515625 0.972657,0.9140625 v 3.25781246 h 0.75 V -3.5494297 c 0,-0.7734375 -0.585938,-1.2773437 -1.488282,-1.2773437 -0.703125,0 -1.148437,0.2695312 -1.570312,0.9140625 v -0.7851563 z m 0,0"
       style="fill:#000000;fill-opacity:1;fill-rule:nonzero;stroke:none"
       aria-label="visualization"
       transform="matrix(1.3333333,0,0,1.3333333,4.892,313.47867)" />
    <path
       id="path82"
       d="m -125.53088,-48.18945 h -16.20316"
       style="fill:none;stroke:#287528;stroke-width:1.99255;stroke-linecap:butt;stroke-linejoin:round;stroke-miterlimit:10;stroke-dasharray:none;stroke-opacity:1"
       transform="matrix(1.3333333,0,0,-1.3333333,263.66933,245.036)" />
    <path
       id="path83"
       d="m 0.796375,-0.0014375 h 2.5195312 c 1.6523438,0 2.6601563,-1.2421875 2.6601563,-3.2695313 0,-2.0273437 -0.9960938,-3.2695312 -2.6601563,-3.2695312 H 0.796375 Z M 1.6284062,-0.73971875 V -5.8022188 h 1.546875 c 1.2890625,0 1.96875,0.8671875 1.96875,2.5429688 0,1.640625 -0.6796875,2.51953125 -1.96875,2.51953125 z m 9.6386718,0.3046875 c -0.08203,0.0117188 -0.117187,0.0117188 -0.152344,0.0117188 -0.269531,0 -0.410156,-0.12890625 -0.410156,-0.36328125 v -2.7656251 c 0,-0.8320312 -0.609375,-1.2773437 -1.7695311,-1.2773437 -0.6796875,0 -1.2421875,0.1875 -1.5585938,0.5390625 -0.2109375,0.2460937 -0.3046875,0.515625 -0.3164062,0.984375 h 0.75 c 0.058594,-0.5742188 0.3984375,-0.8320313 1.1015625,-0.8320313 0.6679687,0 1.0546875,0.2460938 1.0546875,0.6914063 v 0.1992187 c 0,0.3164063 -0.1875,0.4453125 -0.7851563,0.515625 -1.0546875,0.140625 -1.21875,0.1757813 -1.5,0.2929688 -0.5507812,0.2226562 -0.8320312,0.6445312 -0.8320312,1.2539062 0,0.8554688 0.5976562,1.3945313 1.546875,1.3945313 0.5859375,0 1.0664062,-0.2109375 1.59375,-0.69140625 0.046875,0.46875 0.2812496,0.69140625 0.7734376,0.69140625 0.152344,0 0.269531,-0.0234375 0.503906,-0.0820313 z M 9.9662969,-1.478 c 0,0.2460937 -0.082031,0.3984375 -0.3046875,0.609375 -0.3046875,0.28125 -0.6679688,0.421875 -1.1132813,0.421875 -0.5742187,0 -0.9140625,-0.28125 -0.9140625,-0.7617188 0,-0.4921875 0.328125,-0.7382812 1.125,-0.8554687 0.7851563,-0.1054688 0.9492188,-0.140625 1.2070313,-0.2578125 z m 3.7675781,-3.2226563 h -0.761719 v -1.2890625 h -0.75 v 1.2890625 h -0.632812 v 0.609375 h 0.632812 V -0.5405 c 0,0.48046875 0.328125,0.75 0.902344,0.75 0.1875,0 0.363281,-0.0234375 0.609375,-0.0703125 v -0.62109375 c -0.09375,0.0234375 -0.210938,0.0351563 -0.351563,0.0351563 -0.328125,0 -0.410156,-0.09375 -0.410156,-0.421875 V -4.0912812 h 0.761719 z m 5.009766,4.26562505 c -0.08203,0.0117188 -0.117188,0.0117188 -0.152344,0.0117188 -0.269531,0 -0.410156,-0.12890625 -0.410156,-0.36328125 v -2.7656251 c 0,-0.8320312 -0.609375,-1.2773437 -1.769532,-1.2773437 -0.679687,0 -1.242187,0.1875 -1.558593,0.5390625 -0.210938,0.2460937 -0.304688,0.515625 -0.316407,0.984375 h 0.75 c 0.05859,-0.5742188 0.398438,-0.8320313 1.101563,-0.8320313 0.667969,0 1.054687,0.2460938 1.054687,0.6914063 v 0.1992187 c 0,0.3164063 -0.1875,0.4453125 -0.785156,0.515625 -1.054687,0.140625 -1.21875,0.1757813 -1.5,0.2929688 -0.550781,0.2226562 -0.832031,0.6445312 -0.832031,1.2539062 0,0.8554688 0.597656,1.3945313 1.546875,1.3945313 0.585937,0 1.066406,-0.2109375 1.59375,-0.69140625 0.04687,0.46875 0.28125,0.69140625 0.773437,0.69140625 0.152344,0 0.269532,-0.0234375 0.503907,-0.0820313 z M 17.442859,-1.478 c 0,0.2460937 -0.08203,0.3984375 -0.304687,0.609375 -0.304688,0.28125 -0.667969,0.421875 -1.113281,0.421875 -0.574219,0 -0.914063,-0.28125 -0.914063,-0.7617188 0,-0.4921875 0.328125,-0.7382812 1.125,-0.8554687 0.785156,-0.1054688 0.949219,-0.140625 1.207031,-0.2578125 z m 0,0"
       style="fill:#000000;fill-opacity:1;fill-rule:nonzero;stroke:none"
       aria-label="Data"
       transform="matrix(1.3333333,0,0,1.3333333,44.750667,296.47067)" />
    <path
       id="path84"
       d="m -125.53088,-35.43349 h -16.20316"
       style="fill:none;stroke:#287528;stroke-width:1.99255;stroke-linecap:butt;stroke-linejoin:round;stroke-miterlimit:10;stroke-dasharray:none;stroke-opacity:1"
       transform="matrix(1.3333333,0,0,-1.3333333,263.66933,245.036)" />
    <path
       id="path85"
       d="M 3.5169297,9.0625e-4 5.7786484,-6.5381563 H 4.8997422 l -1.8164063,5.53125 -1.921875,-5.53125 H 0.27083594 L 2.6145859,9.0625e-4 Z M 10.146813,-0.4326875 c -0.08203,0.0117188 -0.117188,0.0117188 -0.1523442,0.0117188 -0.2695313,0 -0.4101563,-0.12890625 -0.4101563,-0.36328125 V -3.549875 c 0,-0.8320312 -0.609375,-1.2773437 -1.7695312,-1.2773437 -0.6796875,0 -1.2421875,0.1875 -1.5585938,0.5390625 C 6.04525,-4.0420625 5.9515,-3.7725313 5.9397813,-3.3037813 h 0.75 C 6.748375,-3.878 7.0882188,-4.1358125 7.7913438,-4.1358125 c 0.6679687,0 1.0546875,0.2460937 1.0546875,0.6914062 v 0.1992188 c 0,0.3164062 -0.1875,0.4453125 -0.7851563,0.515625 -1.0546875,0.140625 -1.21875,0.1757812 -1.5,0.2929687 -0.5507812,0.2226563 -0.8320312,0.6445313 -0.8320312,1.2539063 0,0.85546875 0.5976562,1.39453125 1.546875,1.39453125 0.5859375,0 1.0664062,-0.2109375 1.59375,-0.69140625 0.046875,0.46875 0.28125,0.69140625 0.7734375,0.69140625 0.1523437,0 0.2695312,-0.0234375 0.5039067,-0.0820313 z M 8.8460313,-1.4756563 c 0,0.2460938 -0.082031,0.3984375 -0.3046875,0.60937505 -0.3046875,0.28125 -0.6679688,0.421875 -1.1132813,0.421875 -0.5742187,0 -0.9140625,-0.28125 -0.9140625,-0.76171875 0,-0.4921875 0.328125,-0.7382813 1.125,-0.8554688 0.7851563,-0.1054687 0.9492188,-0.140625 1.2070313,-0.2578125 z m 2.8505857,-5.0625 h -0.75 V 9.0625e-4 h 0.75 z M 16.653648,9.0625e-4 V -4.6983125 h -0.75 v 2.6601562 c 0,0.9609375 -0.503906,1.59375005 -1.277343,1.59375005 -0.597657,0 -0.972657,-0.36328125 -0.972657,-0.92578125 v -3.328125 h -0.738281 v 3.6210937 c 0,0.7851563 0.574219,1.28906255 1.488281,1.28906255 0.691407,0 1.136719,-0.24609375 1.570313,-0.8671875 v 0.65625 z M 21.906578,-2.09675 c 0,-0.7148438 -0.04687,-1.1484375 -0.1875,-1.5 -0.304687,-0.7734375 -1.019531,-1.2304688 -1.898437,-1.2304688 -1.300782,0 -2.144532,0.9960938 -2.144532,2.5429688 0,1.546875 0.808594,2.49609375 2.132813,2.49609375 1.066406,0 1.816406,-0.609375 2.003906,-1.64062505 h -0.75 c -0.210937,0.6210938 -0.632812,0.9492188 -1.230469,0.9492188 -0.480468,0 -0.878906,-0.22265625 -1.125,-0.609375 C 18.519859,-1.3584688 18.461266,-1.628 18.449547,-2.09675 Z m -3.433594,-0.609375 c 0.05859,-0.8671875 0.585938,-1.4296875 1.335938,-1.4296875 0.738281,0 1.300781,0.609375 1.300781,1.3710937 0,0.023437 0,0.035156 0,0.058594 z m 0,0"
       style="fill:#287528;fill-opacity:1;fill-rule:nonzero;stroke:none"
       aria-label="Value"
       transform="matrix(1.3333333,0,0,1.3333333,142.31467,283.67067)" />
    <path
       id="path86"
       d="M 2.274875,-4.6985156 H 1.5131562 V -5.9875781 H 0.76315625 v 1.2890625 h -0.6328125 v 0.609375 h 0.6328125 v 3.55078122 c 0,0.48046875 0.32812495,0.75 0.90234375,0.75 0.1875,0 0.3632812,-0.0234375 0.609375,-0.0703125 v -0.62109375 c -0.09375,0.0234375 -0.2109375,0.0351563 -0.3515625,0.0351563 -0.328125,0 -0.4101563,-0.09375 -0.4101563,-0.421875 V -4.0891406 H 2.274875 Z m 2.6542969,-0.1289063 c -1.3125,0 -2.109375,0.9375 -2.109375,2.5195313 0,1.57031247 0.7851562,2.51953122 2.1210937,2.51953122 1.3125,0 2.1210938,-0.94921875 2.1210938,-2.48437502 0,-1.6289062 -0.7734375,-2.5546875 -2.1328125,-2.5546875 z m 0.011719,0.6914063 c 0.84375,0 1.3476563,0.6796875 1.3476563,1.8515625 0,1.1015625 -0.5273438,1.80468747 -1.3476563,1.80468747 -0.8320312,0 -1.3476562,-0.69140627 -1.3476562,-1.82812497 0,-1.1367188 0.515625,-1.828125 1.3476562,-1.828125 z m 0,0"
       style="fill:#000000;fill-opacity:1;fill-rule:nonzero;stroke:none"
       aria-label="to"
       transform="matrix(1.3333333,0,0,1.3333333,60.029333,112.96)" />
    <path
       id="path87"
       d="m -125.53088,102.04868 h -16.20316"
       style="fill:none;stroke:#fc0000;stroke-width:1.99255;stroke-linecap:butt;stroke-linejoin:round;stroke-miterlimit:10;stroke-dasharray:none;stroke-opacity:1"
       transform="matrix(1.3333333,0,0,-1.3333333,263.66933,245.036)" />
    <path
       id="path88"
       d="M 4.3243672,0.00138281 V -4.6978359 h -0.75 v 2.6601562 c 0,0.9609375 -0.5039063,1.59375001 -1.2773438,1.59375001 -0.5976562,0 -0.9726562,-0.36328125 -0.9726562,-0.92578121 v -3.328125 H 0.58608594 v 3.6210937 c 0,0.78515626 0.57421876,1.28906251 1.48828126,1.28906251 0.6914062,0 1.1367187,-0.24609375 1.5703125,-0.8671875 v 0.65625 z M 8.9122578,-3.3853359 c -0.011719,-0.9257813 -0.6210937,-1.4414063 -1.6992187,-1.4414063 -1.1015625,0 -1.8046875,0.5625 -1.8046875,1.4296875 0,0.7382813 0.375,1.0898438 1.4882812,1.359375 l 0.703125,0.1640625 c 0.515625,0.1289063 0.7265625,0.3164063 0.7265625,0.65625 0,0.43359376 -0.4453125,0.73828126 -1.1015625,0.73828126 -0.3984375,0 -0.7382812,-0.1171875 -0.9257812,-0.31640625 C 6.1817891,-0.93611719 6.1231953,-1.0650234 6.0763203,-1.3931484 H 5.2911641 c 0.035156,1.07812496 0.6445312,1.60546871 1.875,1.60546871 1.1835937,0 1.9335937,-0.5859375 1.9335937,-1.48828121 0,-0.703125 -0.3984375,-1.0898438 -1.3242187,-1.3125 L 7.0606953,-2.7642422 c -0.609375,-0.140625 -0.8671875,-0.3398437 -0.8671875,-0.6679687 0,-0.4335938 0.375,-0.703125 0.984375,-0.703125 0.609375,0 0.9257813,0.2578125 0.9492188,0.75 z m 5.1503902,1.2890625 c 0,-0.7148438 -0.04687,-1.1484375 -0.1875,-1.5 -0.304687,-0.7734375 -1.019531,-1.2304688 -1.898437,-1.2304688 -1.300781,0 -2.1445313,0.9960938 -2.1445313,2.5429688 0,1.54687496 0.8085933,2.49609371 2.1328123,2.49609371 1.066406,0 1.816406,-0.609375 2.003906,-1.64062501 h -0.75 c -0.210937,0.62109376 -0.632812,0.94921876 -1.230468,0.94921876 -0.480469,0 -0.878907,-0.22265625 -1.125,-0.60937496 -0.1875,-0.2695313 -0.246094,-0.5390625 -0.257813,-1.0078125 z m -3.433593,-0.609375 c 0.05859,-0.8671875 0.585937,-1.4296875 1.335937,-1.4296875 0.738281,0 1.300781,0.609375 1.300781,1.3710937 0,0.023437 0,0.035156 0,0.058594 z m 4.447265,-1.9921875 v 4.69921871 h 0.75 V -2.4361172 c 0,-0.6679687 0.175782,-1.1132812 0.527344,-1.3710937 0.234375,-0.1757813 0.457031,-0.2226563 0.984375,-0.234375 v -0.7617188 c -0.128906,-0.023437 -0.199219,-0.023437 -0.292969,-0.023437 -0.480468,0 -0.855468,0.28125 -1.277343,0.984375 v -0.8554687 z m 6.290039,1.3125 c -0.01172,-0.9257813 -0.621093,-1.4414063 -1.699218,-1.4414063 -1.101563,0 -1.804688,0.5625 -1.804688,1.4296875 0,0.7382813 0.375,1.0898438 1.488281,1.359375 l 0.703125,0.1640625 c 0.515625,0.1289063 0.726563,0.3164063 0.726563,0.65625 0,0.43359376 -0.445313,0.73828126 -1.101563,0.73828126 -0.398437,0 -0.738281,-0.1171875 -0.925781,-0.31640625 -0.117187,-0.140625 -0.175781,-0.26953121 -0.222656,-0.59765621 h -0.785156 c 0.03516,1.07812496 0.644531,1.60546871 1.875,1.60546871 1.183593,0 1.933593,-0.5859375 1.933593,-1.48828121 0,-0.703125 -0.398437,-1.0898438 -1.324218,-1.3125 l -0.714844,-0.1757813 c -0.609375,-0.140625 -0.867188,-0.3398437 -0.867188,-0.6679687 0,-0.4335938 0.375,-0.703125 0.984375,-0.703125 0.609375,0 0.925782,0.2578125 0.949219,0.75 z m 0,0"
       style="fill:#000000;fill-opacity:1;fill-rule:nonzero;stroke:none"
       aria-label="users"
       transform="matrix(1.3333333,0,0,1.3333333,40.769333,95.088)" />
    <path
       id="path89"
       d="m -125.53088,114.80463 h -16.20316"
       style="fill:none;stroke:#fc0000;stroke-width:1.99255;stroke-linecap:butt;stroke-linejoin:round;stroke-miterlimit:10;stroke-dasharray:none;stroke-opacity:1"
       transform="matrix(1.3333333,0,0,-1.3333333,263.66933,245.036)" />
    <path
       id="path90"
       d="m 0.4796875,1.956 h 0.7617188 v -2.44921875 c 0.3867187,0.48046875 0.8320312,0.703125 1.4414062,0.703125 1.2070313,0 2.0039063,-0.984375 2.0039063,-2.48437505 0,-1.5703125 -0.7734375,-2.5546875 -2.015625,-2.5546875 -0.6328125,0 -1.1484375,0.28125 -1.5,0.84375 V -4.70025 H 0.4796875 Z m 2.0625,-6.09375 c 0.8320313,0 1.3710938,0.7265625 1.3710938,1.8515625 0,1.0664062 -0.5507813,1.79296875 -1.3710938,1.79296875 -0.7851562,0 -1.3007812,-0.71484375 -1.3007812,-1.81640625 0,-1.1015625 0.515625,-1.828125 1.3007812,-1.828125 z m 4.8808594,-0.6914063 c -1.3125,0 -2.109375,0.9375 -2.109375,2.5195313 0,1.5703125 0.7851562,2.51953125 2.1210937,2.51953125 1.3125,0 2.1210938,-0.94921875 2.1210938,-2.48437505 0,-1.6289062 -0.7734375,-2.5546875 -2.1328125,-2.5546875 z m 0.011719,0.6914063 c 0.84375,0 1.3476563,0.6796875 1.3476563,1.8515625 0,1.1015625 -0.5273438,1.8046875 -1.3476563,1.8046875 -0.8320312,0 -1.3476562,-0.6914063 -1.3476562,-1.828125 0,-1.1367188 0.515625,-1.828125 1.3476562,-1.828125 z M 14.805859,-0.00103125 16.188672,-4.70025 h -0.84375 l -0.9375,3.65625 -0.925781,-3.65625 H 12.567578 L 11.676953,-1.044 10.716016,-4.70025 H 9.8957031 l 1.3593749,4.69921875 h 0.84375 l 0.902344,-3.67968755 0.949219,3.67968755 z m 6.008789,-2.09765625 c 0,-0.7148438 -0.04687,-1.1484375 -0.1875,-1.5 -0.304687,-0.7734375 -1.019531,-1.2304688 -1.898437,-1.2304688 -1.300781,0 -2.144531,0.9960938 -2.144531,2.5429688 0,1.546875 0.808593,2.49609375 2.132812,2.49609375 1.066406,0 1.816406,-0.609375 2.003906,-1.64062505 h -0.75 C 19.759961,-0.809625 19.338086,-0.4815 18.74043,-0.4815 c -0.480469,0 -0.878907,-0.22265625 -1.125,-0.609375 -0.1875,-0.2695313 -0.246094,-0.5390625 -0.257813,-1.0078125 z m -3.433593,-0.609375 c 0.05859,-0.8671875 0.585937,-1.4296875 1.335937,-1.4296875 0.738281,0 1.300781,0.609375 1.300781,1.3710937 0,0.023437 0,0.035156 0,0.058594 z M 21.825391,-4.70025 v 4.69921875 h 0.75 V -2.4385313 c 0,-0.6679687 0.175781,-1.1132812 0.527343,-1.3710937 0.234375,-0.1757813 0.457032,-0.2226563 0.984375,-0.234375 v -0.7617188 c -0.128906,-0.023437 -0.199218,-0.023437 -0.292968,-0.023437 -0.480469,0 -0.855469,0.28125 -1.277344,0.984375 V -4.70025 Z m 6.292968,1.3125 c -0.01172,-0.9257813 -0.621093,-1.4414063 -1.699218,-1.4414063 -1.101563,0 -1.804688,0.5625 -1.804688,1.4296875 0,0.7382813 0.375,1.0898438 1.488281,1.359375 l 0.703125,0.1640625 c 0.515625,0.1289063 0.726563,0.3164063 0.726563,0.65625 0,0.4335938 -0.445313,0.7382813 -1.101563,0.7382813 -0.398437,0 -0.738281,-0.1171875 -0.925781,-0.31640625 -0.117187,-0.140625 -0.175781,-0.26953125 -0.222656,-0.59765625 h -0.785156 c 0.03516,1.078125 0.644531,1.60546875 1.875,1.60546875 1.183593,0 1.933593,-0.5859375 1.933593,-1.48828125 0,-0.703125 -0.398437,-1.0898438 -1.324218,-1.3125 L 26.266797,-2.7666563 C 25.657422,-2.9072813 25.399609,-3.1065 25.399609,-3.434625 c 0,-0.4335938 0.375,-0.703125 0.984375,-0.703125 0.609375,0 0.925782,0.2578125 0.949219,0.75 z m 0,0"
       style="fill:#000000;fill-opacity:1;fill-rule:nonzero;stroke:none"
       aria-label="powers"
       transform="matrix(1.3333333,0,0,1.3333333,31.766667,76.892)" />
    <path
       id="path91"
       d="m -125.53088,127.56061 h -16.20316"
       style="fill:none;stroke:#fc0000;stroke-width:1.99255;stroke-linecap:butt;stroke-linejoin:round;stroke-miterlimit:10;stroke-dasharray:none;stroke-opacity:1"
       transform="matrix(1.3333333,0,0,-1.3333333,263.66933,245.036)" />
    <path
       id="path92"
       d="m 4.5946484,-2.0989219 c 0,-0.7148437 -0.046875,-1.1484375 -0.1875,-1.5 -0.3046875,-0.7734375 -1.0195312,-1.2304687 -1.8984375,-1.2304687 -1.3007812,0 -2.14453121,0.9960937 -2.14453121,2.5429687 0,1.54687502 0.80859371,2.49609377 2.13281251,2.49609377 1.0664062,0 1.8164062,-0.609375 2.0039062,-1.64062497 h -0.75 c -0.2109375,0.62109372 -0.6328125,0.94921872 -1.2304687,0.94921872 -0.4804688,0 -0.8789063,-0.22265625 -1.125,-0.60937502 -0.1875,-0.2695312 -0.2460938,-0.5390625 -0.2578125,-1.0078125 z m -3.4335937,-0.609375 c 0.058594,-0.8671875 0.5859375,-1.4296875 1.3359375,-1.4296875 0.7382812,0 1.3007812,0.609375 1.3007812,1.3710938 0,0.023437 0,0.035156 0,0.058594 z m 4.4560547,-1.9921875 v 4.69921877 h 0.75 V -2.9543906 c 0,-0.6796875 0.4921875,-1.21875 1.1015625,-1.21875 0.5507812,0 0.8671875,0.3398437 0.8671875,0.9375 v 3.23437497 h 0.75 V -2.9543906 c 0,-0.6796875 0.4921875,-1.21875 1.1015626,-1.21875 0.550781,0 0.878906,0.3398437 0.878906,0.9375 v 3.23437497 h 0.75 V -3.5286094 c 0,-0.84375 -0.480469,-1.3007812 -1.359375,-1.3007812 -0.6328124,0 -1.0078124,0.1875 -1.4531249,0.7148437 -0.2695312,-0.5039062 -0.6445312,-0.7148437 -1.2539062,-0.7148437 -0.6328125,0 -1.0429688,0.234375 -1.453125,0.796875 v -0.6679688 z m 0,0"
       style="fill:#000000;fill-opacity:1;fill-rule:nonzero;stroke:none"
       aria-label="em"
       transform="matrix(1.3333333,0,0,1.3333333,53.393333,61.072)" />
    <path
       id="path93"
       d="m -125.53088,140.31703 h -16.20316"
       style="fill:none;stroke:#fc0000;stroke-width:1.99255;stroke-linecap:butt;stroke-linejoin:round;stroke-miterlimit:10;stroke-dasharray:none;stroke-opacity:1"
       transform="matrix(1.3333333,0,0,-1.3333333,263.66933,245.036)" />
    <path
       id="path94"
       d="M 2.5536563,6.09375e-4 4.3583438,-4.6986094 h -0.84375 L 2.190375,-0.89001563 0.93646875,-4.6986094 h -0.84375 L 1.7333438,6.09375e-4 Z M 5.8319766,-4.6986094 h -0.75 V 6.09375e-4 h 0.75 z m 0,-1.8398437 H 5.0702578 v 0.9492187 h 0.7617188 z m 4.5673824,3.1523437 c -0.01172,-0.9257812 -0.6210934,-1.4414062 -1.6992184,-1.4414062 -1.1015625,0 -1.8046875,0.5625 -1.8046875,1.4296875 0,0.7382812 0.375,1.0898437 1.4882813,1.359375 l 0.703125,0.1640625 c 0.515625,0.1289062 0.7265625,0.3164062 0.7265625,0.65625 0,0.43359372 -0.4453125,0.73828122 -1.1015625,0.73828122 -0.3984375,0 -0.7382813,-0.1171875 -0.9257813,-0.31640625 C 7.6688906,-0.93689063 7.6102969,-1.0657969 7.5634219,-1.3939219 H 6.7782656 c 0.035156,1.07812502 0.6445313,1.60546877 1.875,1.60546877 1.1835938,0 1.9335934,-0.5859375 1.9335934,-1.48828127 0,-0.703125 -0.398437,-1.0898437 -1.3242184,-1.3125 L 8.5477969,-2.7650156 c -0.609375,-0.140625 -0.8671875,-0.3398438 -0.8671875,-0.6679688 0,-0.4335937 0.375,-0.703125 0.984375,-0.703125 0.609375,0 0.9257812,0.2578125 0.9492187,0.75 z m 4.88086,3.386718775 V -4.6986094 h -0.75 v 2.6601563 c 0,0.9609375 -0.503906,1.59374997 -1.277344,1.59374997 -0.597656,0 -0.972656,-0.36328125 -0.972656,-0.92578127 v -3.328125 h -0.738281 v 3.6210938 c 0,0.78515622 0.574218,1.28906247 1.488281,1.28906247 0.691406,0 1.136719,-0.24609375 1.570312,-0.8671875 V 6.09375e-4 Z m 5.455078,-0.433593755 c -0.08203,0.0117188 -0.117188,0.0117188 -0.152344,0.0117188 -0.269531,0 -0.410156,-0.12890625 -0.410156,-0.36328125 V -3.5501719 c 0,-0.8320312 -0.609375,-1.2773437 -1.769531,-1.2773437 -0.679688,0 -1.242188,0.1875 -1.558594,0.5390625 -0.210938,0.2460937 -0.304688,0.515625 -0.316406,0.984375 h 0.75 c 0.05859,-0.5742188 0.398437,-0.8320313 1.101562,-0.8320313 0.667969,0 1.054688,0.2460938 1.054688,0.6914063 v 0.1992187 c 0,0.3164063 -0.1875,0.4453125 -0.785157,0.515625 -1.054687,0.140625 -1.21875,0.1757813 -1.5,0.2929688 -0.550781,0.2226562 -0.832031,0.6445312 -0.832031,1.2539062 0,0.85546877 0.597656,1.39453127 1.546875,1.39453127 0.585938,0 1.066406,-0.210937495 1.59375,-0.69140625 0.04687,0.46875 0.28125,0.69140625 0.773438,0.69140625 0.152343,0 0.269531,-0.0234375 0.503906,-0.0820313 z M 19.434516,-1.4759531 c 0,0.2460937 -0.08203,0.3984375 -0.304688,0.60937497 -0.304687,0.28125 -0.667969,0.421875 -1.113281,0.421875 -0.574219,0 -0.914063,-0.28125 -0.914063,-0.76171877 0,-0.4921875 0.328125,-0.7382812 1.125,-0.8554687 0.785157,-0.1054688 0.949219,-0.140625 1.207032,-0.2578125 z m 2.853515,-5.0625 h -0.75 V 6.09375e-4 h 0.75 z m 1.977539,1.8398437 h -0.75 V 6.09375e-4 h 0.75 z m 0,-1.8398437 h -0.761718 v 0.9492187 h 0.761718 z m 4.614258,1.8398437 h -3.503906 v 0.65625 h 2.613281 l -2.800781,3.37500002 V 6.09375e-4 h 3.820312 V -0.65564063 h -2.917968 l 2.789062,-3.37499997 z m 5.305664,4.26562502 c -0.08203,0.0117188 -0.117187,0.0117188 -0.152344,0.0117188 -0.269531,0 -0.410156,-0.12890625 -0.410156,-0.36328125 V -3.5501719 c 0,-0.8320312 -0.609375,-1.2773437 -1.769531,-1.2773437 -0.679688,0 -1.242188,0.1875 -1.558594,0.5390625 -0.210937,0.2460937 -0.304687,0.515625 -0.316406,0.984375 h 0.75 c 0.05859,-0.5742188 0.398437,-0.8320313 1.101562,-0.8320313 0.667969,0 1.054688,0.2460938 1.054688,0.6914063 v 0.1992187 c 0,0.3164063 -0.1875,0.4453125 -0.785156,0.515625 -1.054688,0.140625 -1.21875,0.1757813 -1.5,0.2929688 -0.550782,0.2226562 -0.832032,0.6445312 -0.832032,1.2539062 0,0.85546877 0.597657,1.39453127 1.546875,1.39453127 0.585938,0 1.066407,-0.210937495 1.59375,-0.69140625 0.04687,0.46875 0.28125,0.69140625 0.773438,0.69140625 0.152344,0 0.269531,-0.0234375 0.503906,-0.0820313 z M 32.884711,-1.4759531 c 0,0.2460937 -0.08203,0.3984375 -0.304688,0.60937497 -0.304687,0.28125 -0.667968,0.421875 -1.113281,0.421875 -0.574219,0 -0.914062,-0.28125 -0.914062,-0.76171877 0,-0.4921875 0.328125,-0.7382812 1.125,-0.8554687 0.785156,-0.1054688 0.949218,-0.140625 1.207031,-0.2578125 z m 3.764648,-3.2226563 h -0.761718 v -1.2890625 h -0.75 v 1.2890625 h -0.632813 v 0.609375 h 0.632813 v 3.55078127 c 0,0.48046875 0.328125,0.75 0.902343,0.75 0.1875,0 0.363282,-0.0234375 0.609375,-0.0703125 v -0.62109375 c -0.09375,0.0234375 -0.210937,0.0351563 -0.351562,0.0351563 -0.328125,0 -0.410156,-0.09375 -0.410156,-0.421875 V -4.0892344 h 0.761718 z m 1.567383,0 h -0.75 V 6.09375e-4 h 0.75 z m 0,-1.8398437 h -0.761719 v 0.9492187 h 0.761719 z m 3.082031,1.7109375 c -1.3125,0 -2.109375,0.9375 -2.109375,2.5195312 0,1.57031252 0.785157,2.51953127 2.121094,2.51953127 1.3125,0 2.121094,-0.94921875 2.121094,-2.48437497 0,-1.6289063 -0.773438,-2.5546875 -2.132813,-2.5546875 z m 0.01172,0.6914062 c 0.84375,0 1.347656,0.6796875 1.347656,1.8515625 0,1.1015625 -0.527343,1.80468752 -1.347656,1.80468752 -0.832031,0 -1.347656,-0.69140622 -1.347656,-1.82812502 0,-1.1367187 0.515625,-1.828125 1.347656,-1.828125 z m 3.166992,-0.5625 V 6.09375e-4 h 0.75 V -2.5892344 c 0,-0.9609375 0.503907,-1.5820312 1.265625,-1.5820312 0.597657,0 0.972657,0.3515625 0.972657,0.9140625 V 6.09375e-4 h 0.75 V -3.5501719 c 0,-0.7734375 -0.585938,-1.2773437 -1.488282,-1.2773437 -0.703125,0 -1.148437,0.2695312 -1.570312,0.9140625 v -0.7851563 z m 0,0"
       style="fill:#000000;fill-opacity:1;fill-rule:nonzero;stroke:none"
       aria-label="visualization"
       transform="matrix(1.3333333,0,0,1.3333333,4.892,45.132)" />
    <path
       id="path95"
       d="m -125.53088,153.073 h -16.20316"
       style="fill:none;stroke:#fc0000;stroke-width:1.99255;stroke-linecap:butt;stroke-linejoin:round;stroke-miterlimit:10;stroke-dasharray:none;stroke-opacity:1"
       transform="matrix(1.3333333,0,0,-1.3333333,263.66933,245.036)" />
    <path
       id="path96"
       d="m 0.796375,7.5e-4 h 2.5195312 c 1.6523438,0 2.6601563,-1.2421875 2.6601563,-3.2695313 0,-2.0273437 -0.9960938,-3.2695312 -2.6601563,-3.2695312 H 0.796375 Z M 1.6284062,-0.73753125 V -5.8000313 h 1.546875 c 1.2890625,0 1.96875,0.8671875 1.96875,2.5429688 0,1.640625 -0.6796875,2.51953125 -1.96875,2.51953125 z m 9.6386718,0.3046875 c -0.08203,0.0117188 -0.117187,0.0117188 -0.152344,0.0117188 -0.269531,0 -0.410156,-0.12890625 -0.410156,-0.36328125 v -2.7656251 c 0,-0.8320312 -0.609375,-1.2773437 -1.7695311,-1.2773437 -0.6796875,0 -1.2421875,0.1875 -1.5585938,0.5390625 -0.2109375,0.2460937 -0.3046875,0.515625 -0.3164062,0.984375 h 0.75 c 0.058594,-0.5742188 0.3984375,-0.8320313 1.1015625,-0.8320313 0.6679687,0 1.0546875,0.2460938 1.0546875,0.6914063 v 0.1992187 c 0,0.3164063 -0.1875,0.4453125 -0.7851563,0.515625 -1.0546875,0.140625 -1.21875,0.1757813 -1.5,0.2929688 -0.5507812,0.2226562 -0.8320312,0.6445312 -0.8320312,1.2539062 0,0.8554688 0.5976562,1.3945313 1.546875,1.3945313 0.5859375,0 1.0664062,-0.2109375 1.59375,-0.69140625 0.046875,0.46875 0.2812496,0.69140625 0.7734376,0.69140625 0.152344,0 0.269531,-0.0234375 0.503906,-0.0820313 z M 9.9662969,-1.4758125 c 0,0.2460937 -0.082031,0.3984375 -0.3046875,0.609375 -0.3046875,0.28125 -0.6679688,0.421875 -1.1132813,0.421875 -0.5742187,0 -0.9140625,-0.28125 -0.9140625,-0.7617188 0,-0.4921875 0.328125,-0.7382812 1.125,-0.8554687 0.7851563,-0.1054688 0.9492188,-0.140625 1.2070313,-0.2578125 z m 3.7675781,-3.2226563 h -0.761719 v -1.2890625 h -0.75 v 1.2890625 h -0.632812 v 0.609375 h 0.632812 v 3.5507813 c 0,0.48046875 0.328125,0.75 0.902344,0.75 0.1875,0 0.363281,-0.0234375 0.609375,-0.0703125 v -0.62109375 c -0.09375,0.0234375 -0.210938,0.0351563 -0.351563,0.0351563 -0.328125,0 -0.410156,-0.09375 -0.410156,-0.421875 V -4.0890938 h 0.761719 z m 5.009766,4.26562505 c -0.08203,0.0117188 -0.117188,0.0117188 -0.152344,0.0117188 -0.269531,0 -0.410156,-0.12890625 -0.410156,-0.36328125 v -2.7656251 c 0,-0.8320312 -0.609375,-1.2773437 -1.769532,-1.2773437 -0.679687,0 -1.242187,0.1875 -1.558593,0.5390625 -0.210938,0.2460937 -0.304688,0.515625 -0.316407,0.984375 h 0.75 c 0.05859,-0.5742188 0.398438,-0.8320313 1.101563,-0.8320313 0.667969,0 1.054687,0.2460938 1.054687,0.6914063 v 0.1992187 c 0,0.3164063 -0.1875,0.4453125 -0.785156,0.515625 -1.054687,0.140625 -1.21875,0.1757813 -1.5,0.2929688 -0.550781,0.2226562 -0.832031,0.6445312 -0.832031,1.2539062 0,0.8554688 0.597656,1.3945313 1.546875,1.3945313 0.585937,0 1.066406,-0.2109375 1.59375,-0.69140625 0.04687,0.46875 0.28125,0.69140625 0.773437,0.69140625 0.152344,0 0.269532,-0.0234375 0.503907,-0.0820313 z M 17.442859,-1.4758125 c 0,0.2460937 -0.08203,0.3984375 -0.304687,0.609375 -0.304688,0.28125 -0.667969,0.421875 -1.113281,0.421875 -0.574219,0 -0.914063,-0.28125 -0.914063,-0.7617188 0,-0.4921875 0.328125,-0.7382812 1.125,-0.8554687 0.785156,-0.1054688 0.949219,-0.140625 1.207031,-0.2578125 z m 0,0"
       style="fill:#000000;fill-opacity:1;fill-rule:nonzero;stroke:none"
       aria-label="Data"
       transform="matrix(1.3333333,0,0,1.3333333,44.750667,28.124)" />
    <path
       id="path97"
       d="m -125.53088,165.82898 h -16.20316"
       style="fill:none;stroke:#fc0000;stroke-width:1.99255;stroke-linecap:butt;stroke-linejoin:round;stroke-miterlimit:10;stroke-dasharray:none;stroke-opacity:1"
       transform="matrix(1.3333333,0,0,-1.3333333,263.66933,245.036)" />
    <path
       id="path98"
       d="m 1.5459219,-2.2851719 1.0664062,-1.0664062 2.296875,3.351562475 h 0.984375 L 3.2099844,-3.8672031 5.8701406,-6.5390781 H 4.7920156 L 1.5459219,-3.2226719 V -6.5390781 H 0.70217187 V -1.5625e-5 H 1.5459219 Z m 8.6689451,0.1875 c 0,-0.7148437 -0.04687,-1.1484375 -0.1875,-1.5 -0.3046873,-0.7734375 -1.0195311,-1.2304687 -1.8984373,-1.2304687 -1.3007813,0 -2.1445313,0.9960937 -2.1445313,2.5429687 0,1.54687502 0.8085938,2.49609377 2.1328125,2.49609377 1.0664063,0 1.8164063,-0.609375 2.0039061,-1.64062497 H 9.3711172 c -0.2109375,0.62109372 -0.6328125,0.94921872 -1.2304688,0.94921872 -0.4804687,0 -0.8789062,-0.22265625 -1.125,-0.60937502 -0.1875,-0.2695312 -0.2460937,-0.5390625 -0.2578125,-1.0078125 z m -3.4335936,-0.609375 c 0.058594,-0.8671875 0.5859375,-1.4296875 1.3359375,-1.4296875 0.7382813,0 1.3007813,0.609375 1.3007813,1.3710938 0,0.023437 0,0.035156 0,0.058594 z m 7.1279296,-1.9921875 -1.300781,3.65625 -1.207031,-3.65625 h -0.796875 l 1.59375,4.72265627 -0.292969,0.73828125 c -0.117188,0.32812498 -0.28125,0.45703128 -0.597656,0.45703128 -0.105469,0 -0.234375,-0.011719 -0.398438,-0.058594 v 0.6796875 c 0.152344,0.082031 0.304688,0.1171875 0.503906,0.1171875 0.246094,0 0.503907,-0.082031 0.703125,-0.2226562 0.234375,-0.1757813 0.363282,-0.375 0.503907,-0.75000003 l 2.097656,-5.68359377 z m 0,0"
       style="fill:#fc0000;fill-opacity:1;fill-rule:nonzero;stroke:none"
       aria-label="Key"
       transform="matrix(1.3333333,0,0,1.3333333,152.16533,12.945333)" />
    <path
       id="path99"
       d="M 73.70186,66.61517 C 122.69531,57.97655 250.52467,55.49722 200.7759,55.49722 V 8.72517 C 151.2169,4.38918 122.69531,8.63861 73.70186,0 Z"
       style="fill:#e6e6ff;fill-opacity:0.4;fill-rule:nonzero;stroke:none"
       transform="matrix(1.3333333,0,0,-1.3333333,263.66933,245.036)" />
    <path
       id="path100"
       d="M 200.7759,55.49722 C 164.43347,-22.43883 85.99261,-35.43349 0,-35.43349 h -121.89136 v -65.19775 c 133.08045,0 256.12703,-5.89496 322.66726,109.35641 z"
       style="fill:#ccffcc;fill-opacity:0.4;fill-rule:nonzero;stroke:none"
       transform="matrix(1.3333333,0,0,-1.3333333,263.66933,245.036)" />
    <path
       id="path101"
       d="m 200.77588,55.02974 h 14.1734"
       style="fill:none;stroke:#8f7874;stroke-width:1.99255;stroke-linecap:butt;stroke-linejoin:round;stroke-miterlimit:10;stroke-dasharray:none;stroke-opacity:1"
       transform="matrix(1.3333333,0,0,-1.3333333,263.66933,245.036)" />
    <path
       id="path102"
       d="m 200.77588,46.14294 h 14.1734"
       style="fill:none;stroke:#8f7874;stroke-width:1.99255;stroke-linecap:butt;stroke-linejoin:round;stroke-miterlimit:10;stroke-dasharray:none;stroke-opacity:1"
       transform="matrix(1.3333333,0,0,-1.3333333,263.66933,245.036)" />
    <path
       id="path103"
       d="m 200.77588,36.78868 h 14.1734"
       style="fill:none;stroke:#8f7874;stroke-width:1.99255;stroke-linecap:butt;stroke-linejoin:round;stroke-miterlimit:10;stroke-dasharray:none;stroke-opacity:1"
       transform="matrix(1.3333333,0,0,-1.3333333,263.66933,245.036)" />
    <path
       id="path104"
       d="m 200.77588,27.43369 h 14.1734"
       style="fill:none;stroke:#8f7874;stroke-width:1.99255;stroke-linecap:butt;stroke-linejoin:round;stroke-miterlimit:10;stroke-dasharray:none;stroke-opacity:1"
       transform="matrix(1.3333333,0,0,-1.3333333,263.66933,245.036)" />
    <path
       id="path105"
       d="m 200.77588,18.07942 h 14.1734"
       style="fill:none;stroke:#8f7874;stroke-width:1.99255;stroke-linecap:butt;stroke-linejoin:round;stroke-miterlimit:10;stroke-dasharray:none;stroke-opacity:1"
       transform="matrix(1.3333333,0,0,-1.3333333,263.66933,245.036)" />
    <path
       id="path106"
       d="m 200.77588,9.19261 h 14.1734"
       style="fill:none;stroke:#8f7874;stroke-width:1.99255;stroke-linecap:butt;stroke-linejoin:round;stroke-miterlimit:10;stroke-dasharray:none;stroke-opacity:1"
       transform="matrix(1.3333333,0,0,-1.3333333,263.66933,245.036)" />
    <path
       id="path107"
       d="m 3.4928672,-6.6455469 c -1.875,0 -3.15234376,1.3828125 -3.15234376,3.421875 0,2.0507813 1.27734376,3.43359377 3.15234376,3.43359377 0.796875,0 1.5,-0.24609375 2.0273437,-0.69140625 0.7148438,-0.60937502 1.1367188,-1.61718752 1.1367188,-2.68359372 0,-2.109375 -1.2539063,-3.4804688 -3.1640625,-3.4804688 z m 0,0.7382813 c 1.40625,0 2.3203125,1.078125 2.3203125,2.71875 0,1.5820312 -0.9375,2.66015622 -2.3203125,2.66015622 -1.3828125,0 -2.3203125,-1.07812502 -2.3203125,-2.69531252 0,-1.6054687 0.9375,-2.6835937 2.3203125,-2.6835937 z m 7.8076168,5.90624997 V -4.7002344 h -0.75 v 2.6601563 c 0,0.9609375 -0.503906,1.59374997 -1.2773434,1.59374997 -0.5976562,0 -0.9726562,-0.36328125 -0.9726562,-0.92578127 v -3.328125 H 7.5622031 v 3.6210938 c 0,0.78515622 0.5742188,1.28906247 1.4882813,1.28906247 0.6914062,0 1.1367186,-0.24609375 1.5703126,-0.8671875 v 0.65625 z m 2.935547,-4.69921877 h -0.761718 v -1.2890625 h -0.75 v 1.2890625 H 12.0915 v 0.609375 h 0.632813 v 3.55078127 c 0,0.48046875 0.328125,0.75 0.902343,0.75 0.1875,0 0.363282,-0.0234375 0.609375,-0.0703125 v -0.62109375 c -0.09375,0.0234375 -0.210937,0.0351563 -0.351562,0.0351563 -0.328125,0 -0.410156,-0.09375 -0.410156,-0.421875 V -4.0908594 h 0.761718 z m 0,0"
       style="fill:#000000;fill-opacity:1;fill-rule:nonzero;stroke:none"
       aria-label="Out"
       transform="matrix(1.3333333,0,0,1.3333333,540.628,162.94667)" />
  </g>
</svg>
