<?xml version="1.0" encoding="UTF-8" standalone="no"?>
<!-- Created with Inkscape (http://www.inkscape.org/) -->

<svg
   version="1.1"
   id="svg1"
   width="486.02933"
   height="231.944"
   viewBox="0 0 486.02933 231.944"
   xmlns="http://www.w3.org/2000/svg"
   xmlns:svg="http://www.w3.org/2000/svg">
  <defs
     id="defs1">
    <clipPath
       clipPathUnits="userSpaceOnUse"
       id="clipPath16">
      <path
         d="M 0,-18.425548 H 298.87851 V 128.97891 H 0 Z"
         id="path16" />
    </clipPath>
    <clipPath
       clipPathUnits="userSpaceOnUse"
       id="clipPath19">
      <path
         d="M -88.586005,153.27855 H 210.2925 V 5.8741001 H -88.586005 Z"
         id="path19" />
    </clipPath>
  </defs>
  <g
     id="g1">
    <path
       id="path1"
       d="M 0,-18.42555 V 128.9789 M 70.32434,-18.42555 V 128.9789 M 140.6487,-18.42555 V 128.9789 M 210.97305,-18.42555 V 128.9789 M 281.2974,-18.42555 V 128.9789"
       style="fill:none;stroke:#bfbfbf;stroke-width:0.3985;stroke-linecap:butt;stroke-linejoin:miter;stroke-miterlimit:10;stroke-dasharray:2.98883, 2.98883;stroke-dashoffset:0;stroke-opacity:1"
       transform="matrix(1.3333333,0,0,-1.3333333,68.184,172.23467)" />
    <path
       id="path2"
       d="m 0,-18.42555 v 4.25207 m 70.32434,-4.25207 v 4.25207 m 70.32436,-4.25207 v 4.25207 m 70.32435,-4.25207 v 4.25207 m 70.32435,-4.25207 v 4.25207"
       style="fill:none;stroke:#808080;stroke-width:0.19925;stroke-linecap:butt;stroke-linejoin:miter;stroke-miterlimit:10;stroke-dasharray:none;stroke-opacity:1"
       transform="matrix(1.3333333,0,0,-1.3333333,68.184,172.23467)" />
    <path
       id="path3"
       d="M 0,0 H 4.252 M 0,36.8511 H 4.252 M 0,73.70222 H 4.252 M 0,110.55334 h 4.252"
       style="fill:none;stroke:#808080;stroke-width:0.19925;stroke-linecap:butt;stroke-linejoin:miter;stroke-miterlimit:10;stroke-dasharray:none;stroke-opacity:1"
       transform="matrix(1.3333333,0,0,-1.3333333,68.184,172.23467)" />
    <path
       id="path4"
       d="M 0,-18.42555 H 298.8785"
       style="fill:none;stroke:#000000;stroke-width:0.3985;stroke-linecap:butt;stroke-linejoin:miter;stroke-miterlimit:10;stroke-dasharray:none;stroke-opacity:1"
       transform="matrix(1.3333333,0,0,-1.3333333,68.184,172.23467)" />
    <path
       id="path5"
       d="M 0,-18.42555 V 128.9789"
       style="fill:none;stroke:#000000;stroke-width:0.3985;stroke-linecap:butt;stroke-linejoin:miter;stroke-miterlimit:10;stroke-dasharray:none;stroke-opacity:1"
       transform="matrix(1.3333333,0,0,-1.3333333,68.184,172.23467)" />
    <path
       id="path6"
       d="m 3.901875,-2.5431562 c 0,-0.8554688 -0.09375,-1.3710938 -0.3515625,-1.875 -0.3515625,-0.703125 -0.9960937,-0.8789063 -1.4414062,-0.8789063 -0.9960938,0 -1.3710938,0.75 -1.47656255,0.9726563 -0.29296875,0.5742187 -0.3046875,1.3710937 -0.3046875,1.78125 0,0.5273437 0.0234375,1.3359375 0.41015625,1.96874995 C 1.1010938,0.01153125 1.6870313,0.163875 2.1089063,0.163875 2.495625,0.163875 3.1753125,0.0466875 3.57375,-0.73846875 3.8667188,-1.3126875 3.901875,-2.0275312 3.901875,-2.5431562 Z m -1.7929687,2.48437495 c -0.2695313,0 -0.8203125,-0.12890625 -0.984375,-0.96093745 -0.09375,-0.4570313 -0.09375,-1.2070313 -0.09375,-1.6171875 0,-0.5507813 0,-1.1132813 0.09375,-1.546875 0.1640625,-0.8085938 0.7851562,-0.890625 0.984375,-0.890625 0.2695312,0 0.8203125,0.1289062 0.984375,0.8554687 0.09375,0.4453125 0.09375,1.0429688 0.09375,1.5820313 0,0.46875 0,1.1835937 -0.09375,1.6289062 -0.1640625,0.84375 -0.7148438,0.94921875 -0.984375,0.94921875 z m 0,0"
       style="fill:#000000;fill-opacity:1;fill-rule:nonzero;stroke:none"
       aria-label="0"
       transform="matrix(1.3333333,0,0,1.3333333,65.36,208.344)" />
    <path
       id="path7"
       d="m 2.2485859,-1.6290937 c 0.1289063,-0.1171875 0.4570313,-0.375 0.5859375,-0.4921875 0.4921875,-0.4570313 0.9609375,-0.890625 0.9609375,-1.6171875 0,-0.9492188 -0.796875,-1.5585938 -1.7929687,-1.5585938 -0.9492188,0 -1.58203126,0.7265625 -1.58203126,1.4296875 0,0.3984375 0.31640625,0.4453125 0.421875,0.4453125 0.16406246,0 0.41015626,-0.1171875 0.41015626,-0.421875 0,-0.4101562 -0.39843751,-0.4101562 -0.49218751,-0.4101562 0.234375,-0.5859375 0.77343751,-0.7851563 1.16015621,-0.7851563 0.7382813,0 1.125,0.6328125 1.125,1.3007813 0,0.8320312 -0.5859375,1.4296875 -1.5234375,2.4023437 l -1.00781246,1.03125 c -0.09375,0.09375 -0.09375,0.10546875 -0.09375,0.3046875 H 3.5728047 L 3.7954609,-1.429875 H 3.5493672 c -0.023437,0.1640625 -0.082031,0.5625 -0.1757813,0.71484375 -0.046875,0.0585938 -0.65625,0.0585938 -0.7851562,0.0585938 H 1.1704609 Z m 5.8886719,-0.9140625 c 0,-0.8554688 -0.09375,-1.3710938 -0.3515625,-1.875 -0.3515625,-0.703125 -0.9960937,-0.8789063 -1.4414062,-0.8789063 -0.9960938,0 -1.3710938,0.75 -1.4765625,0.9726563 -0.2929688,0.5742187 -0.3046875,1.3710937 -0.3046875,1.78125 0,0.5273437 0.023437,1.3359375 0.4101562,1.96874995 0.3632813,0.5859375 0.9492188,0.73828125 1.3710938,0.73828125 0.3867187,0 1.0664062,-0.1171875 1.4648437,-0.90234375 0.2929688,-0.57421875 0.328125,-1.28906245 0.328125,-1.80468745 z m -1.7929687,2.48437495 c -0.2695313,0 -0.8203125,-0.12890625 -0.984375,-0.96093745 -0.09375,-0.4570313 -0.09375,-1.2070313 -0.09375,-1.6171875 0,-0.5507813 0,-1.1132813 0.09375,-1.546875 0.1640625,-0.8085938 0.7851562,-0.890625 0.984375,-0.890625 0.2695312,0 0.8203125,0.1289062 0.984375,0.8554687 0.09375,0.4453125 0.09375,1.0429688 0.09375,1.5820313 0,0.46875 0,1.1835937 -0.09375,1.6289062 -0.1640625,0.84375 -0.7148438,0.94921875 -0.984375,0.94921875 z m 0,0"
       style="fill:#000000;fill-opacity:1;fill-rule:nonzero;stroke:none"
       aria-label="20"
       transform="matrix(1.3333333,0,0,1.3333333,156.30267,208.344)" />
    <path
       id="path8"
       d="m 3.1404297,-5.1564375 c 0,-0.1640625 0,-0.2226562 -0.1640625,-0.2226562 -0.1054688,0 -0.1171875,0.011719 -0.1992188,0.1171875 L 0.23417969,-1.5705 v 0.2578125 H 2.4841797 v 0.66796875 C 2.4841797,-0.35175 2.4607422,-0.258 1.8513672,-0.258 h -0.1875 V -1.875e-4 C 2.3435547,-0.023625 2.3552734,-0.023625 2.8123047,-0.023625 c 0.4570312,0 0.46875,0 1.1484375,0.0234375 V -0.258 h -0.1875 c -0.609375,0 -0.6328125,-0.09375 -0.6328125,-0.38671875 V -1.3126875 h 0.84375 V -1.5705 h -0.84375 z M 2.5427734,-4.5119062 V -1.5705 H 0.51542969 Z m 5.5927735,1.96875 c 0,-0.8554688 -0.09375,-1.3710938 -0.3515625,-1.875 -0.3515625,-0.703125 -0.9960938,-0.8789063 -1.4414063,-0.8789063 -0.9960937,0 -1.3710937,0.75 -1.4765625,0.9726563 -0.2929687,0.5742187 -0.3046875,1.3710937 -0.3046875,1.78125 0,0.5273437 0.023437,1.3359375 0.4101563,1.96874995 0.3632812,0.5859375 0.9492187,0.73828125 1.3710937,0.73828125 0.3867188,0 1.0664063,-0.1171875 1.4648438,-0.90234375 0.2929687,-0.57421875 0.328125,-1.28906245 0.328125,-1.80468745 z m -1.7929688,2.48437495 c -0.2695312,0 -0.8203125,-0.12890625 -0.984375,-0.96093745 -0.09375,-0.4570313 -0.09375,-1.2070313 -0.09375,-1.6171875 0,-0.5507813 0,-1.1132813 0.09375,-1.546875 0.1640625,-0.8085938 0.7851563,-0.890625 0.984375,-0.890625 0.2695313,0 0.8203125,0.1289062 0.984375,0.8554687 0.09375,0.4453125 0.09375,1.0429688 0.09375,1.5820313 0,0.46875 0,1.1835937 -0.09375,1.6289062 -0.1640625,0.84375 -0.7148437,0.94921875 -0.984375,0.94921875 z m 0,0"
       style="fill:#000000;fill-opacity:1;fill-rule:nonzero;stroke:none"
       aria-label="40"
       transform="matrix(1.3333333,0,0,1.3333333,250.06667,208.344)" />
    <path
       id="path9"
       d="m 1.1015859,-2.6369062 c 0,-0.6679688 0.058594,-1.2421875 0.3398438,-1.734375 0.234375,-0.3984375 0.6445312,-0.7265625 1.1484375,-0.7265625 0.1640625,0 0.5273437,0.035156 0.7148437,0.3046875 -0.3632812,0.023437 -0.3984375,0.2929687 -0.3984375,0.375 0,0.2460937 0.1875,0.375 0.375,0.375 0.140625,0 0.375,-0.082031 0.375,-0.3867188 0,-0.4804687 -0.3515625,-0.8671875 -1.078125,-0.8671875 -1.1015625,0 -2.22656246,1.0546875 -2.22656246,2.765625 0,2.16796875 1.00781246,2.6953125 1.78124996,2.6953125 0.375,0 0.796875,-0.10546875 1.1484375,-0.4453125 0.3164063,-0.3046875 0.5859375,-0.64453125 0.5859375,-1.3359375 0,-1.0429687 -0.7851562,-1.78125 -1.6640625,-1.78125 -0.5742187,0 -0.9257812,0.375 -1.1015625,0.7617188 z m 1.03125,2.5664062 c -0.421875,0 -0.6914062,-0.29296875 -0.8085937,-0.515625 -0.1875,-0.36328125 -0.1992188,-0.9023437 -0.1992188,-1.2070312 0,-0.7851563 0.4335938,-1.3828125 1.0429688,-1.3828125 0.3984375,0 0.6328125,0.2109375 0.7851562,0.4921875 0.1757813,0.2929687 0.1757813,0.65625 0.1757813,1.0546875 0,0.4101562 0,0.7617187 -0.1640625,1.0429687 -0.2109375,0.375 -0.4921875,0.515625 -0.8320313,0.515625 z m 6.0029297,-2.4726562 c 0,-0.8554688 -0.09375,-1.3710938 -0.3515625,-1.875 -0.3515625,-0.703125 -0.9960937,-0.8789063 -1.4414062,-0.8789063 -0.9960938,0 -1.3710938,0.75 -1.4765625,0.9726563 -0.2929688,0.5742187 -0.3046875,1.3710937 -0.3046875,1.78125 0,0.5273437 0.023437,1.3359375 0.4101562,1.96874995 0.3632813,0.5859375 0.9492188,0.73828125 1.3710938,0.73828125 0.3867187,0 1.0664062,-0.1171875 1.4648437,-0.90234375 0.2929688,-0.57421875 0.328125,-1.28906245 0.328125,-1.80468745 z m -1.7929687,2.48437495 c -0.2695313,0 -0.8203125,-0.12890625 -0.984375,-0.96093745 -0.09375,-0.4570313 -0.09375,-1.2070313 -0.09375,-1.6171875 0,-0.5507813 0,-1.1132813 0.09375,-1.546875 0.1640625,-0.8085938 0.7851562,-0.890625 0.984375,-0.890625 0.2695312,0 0.8203125,0.1289062 0.984375,0.8554687 0.09375,0.4453125 0.09375,1.0429688 0.09375,1.5820313 0,0.46875 0,1.1835937 -0.09375,1.6289062 -0.1640625,0.84375 -0.7148438,0.94921875 -0.984375,0.94921875 z m 0,0"
       style="fill:#000000;fill-opacity:1;fill-rule:nonzero;stroke:none"
       aria-label="60"
       transform="matrix(1.3333333,0,0,1.3333333,343.832,208.344)" />
    <path
       id="path10"
       d="m 2.6496797,-2.8712812 c 0.4453125,-0.2226563 0.984375,-0.6210938 0.984375,-1.2421875 0,-0.75 -0.7734375,-1.1835938 -1.5117188,-1.1835938 -0.84375,0 -1.53515621,0.5742188 -1.53515621,1.3242188 0,0.3046875 0.10546875,0.5742187 0.3046875,0.796875 0.14062501,0.1757812 0.16406251,0.1875 0.66796871,0.5039062 -0.99609371,0.4335938 -1.20703121,1.0195313 -1.20703121,1.4648438 0,0.86718745 0.87890621,1.3710937 1.75781251,1.3710937 0.9726562,0 1.7578125,-0.65625 1.7578125,-1.5 0,-0.5039062 -0.2695313,-0.84375 -0.3984375,-0.9726562 -0.1289063,-0.1289063 -0.140625,-0.140625 -0.8203125,-0.5625 z m -1.2421875,-0.75 c -0.2226563,-0.140625 -0.42187501,-0.375 -0.42187501,-0.6445313 0,-0.5039062 0.55078121,-0.8320312 1.12500001,-0.8320312 0.6210937,0 1.125,0.4335937 1.125,0.984375 0,0.46875 -0.3632813,0.8554687 -0.8320313,1.0898437 z m 0.3984375,1.0898437 c 0.023437,0.011719 0.9375,0.5742188 1.0664062,0.65625 0.1289063,0.070312 0.5507813,0.328125 0.5507813,0.8085938 0,0.60937495 -0.6445313,0.9960937 -1.3007813,0.9960937 -0.7148437,0 -1.31249996,-0.4921875 -1.31249996,-1.1367187 0,-0.5976563 0.44531246,-1.0664063 0.99609376,-1.3242188 z m 6.3310547,-0.011719 c 0,-0.8554688 -0.09375,-1.3710938 -0.3515625,-1.875 -0.3515625,-0.703125 -0.9960938,-0.8789063 -1.4414063,-0.8789063 -0.9960937,0 -1.3710937,0.75 -1.4765625,0.9726563 -0.2929687,0.5742187 -0.3046875,1.3710937 -0.3046875,1.78125 0,0.5273437 0.023437,1.3359375 0.4101563,1.96874995 0.3632812,0.5859375 0.9492187,0.73828125 1.3710937,0.73828125 0.3867188,0 1.0664063,-0.1171875 1.4648438,-0.90234375 0.2929687,-0.57421875 0.328125,-1.28906245 0.328125,-1.80468745 z m -1.7929688,2.48437495 c -0.2695312,0 -0.8203125,-0.12890625 -0.984375,-0.96093745 -0.09375,-0.4570313 -0.09375,-1.2070313 -0.09375,-1.6171875 0,-0.5507813 0,-1.1132813 0.09375,-1.546875 0.1640625,-0.8085938 0.7851563,-0.890625 0.984375,-0.890625 0.2695313,0 0.8203125,0.1289062 0.984375,0.8554687 0.09375,0.4453125 0.09375,1.0429688 0.09375,1.5820313 0,0.46875 0,1.1835937 -0.09375,1.6289062 -0.1640625,0.84375 -0.7148437,0.94921875 -0.984375,0.94921875 z m 0,0"
       style="fill:#000000;fill-opacity:1;fill-rule:nonzero;stroke:none"
       aria-label="80"
       transform="matrix(1.3333333,0,0,1.3333333,437.596,208.344)" />
    <path
       id="path11"
       d="m 3.1184531,-2.9751953 c 0.5859375,-0.3515625 0.7734375,-0.6328125 0.7734375,-1.171875 0,-0.8789063 -0.6914062,-1.5 -1.6992187,-1.5 -0.9960938,0 -1.69921878,0.6210937 -1.69921878,1.5 0,0.5273437 0.1875,0.8203125 0.76171878,1.171875 -0.64453128,0.3164062 -0.96093753,0.7851562 -0.96093753,1.40625 0,1.03124999 0.78515623,1.75781249 1.89843753,1.75781249 1.1132812,0 1.8984375,-0.7265625 1.8984375,-1.74609379 0,-0.6328125 -0.3164063,-1.1015625 -0.9726563,-1.4179687 z M 2.1926719,-5.0259766 c 0.5976562,0 0.984375,0.3515625 0.984375,0.9023438 0,0.5273437 -0.3984375,0.8789062 -0.984375,0.8789062 -0.5859375,0 -0.984375,-0.3515625 -0.984375,-0.890625 0,-0.5390625 0.3984375,-0.890625 0.984375,-0.890625 z m 0,2.3671875 c 0.703125,0 1.1835937,0.4453125 1.1835937,1.1015625 0,0.67968754 -0.4804687,1.12500004 -1.1953125,1.12500004 -0.6914062,0 -1.171875,-0.45703125 -1.171875,-1.12500004 0,-0.65625 0.4804688,-1.1015625 1.1835938,-1.1015625 z m 4.5,0.1757813 H 4.7942344 v 0.5742187 h 1.8984375 z m 0.8261718,-3.328125 V 0.00136719 H 8.1165 v -0.5390625 c 0.3164062,0.4921875 0.7382812,0.7265625 1.3242187,0.7265625 1.0898433,0 1.8164063,-0.90234375 1.8164063,-2.29687499 0,-1.3476563 -0.691406,-2.1914063 -1.7929688,-2.1914063 -0.5742187,0 -0.9726562,0.2226563 -1.2890625,0.6914063 v -2.203125 z M 9.33525,-3.6666016 c 0.75,0 1.21875,0.6445313 1.21875,1.640625 0,0.9492188 -0.492188,1.59375004 -1.21875,1.59375004 -0.6914063,0 -1.1601563,-0.64453124 -1.1601563,-1.61718754 0,-0.984375 0.46875,-1.6171875 1.1601563,-1.6171875 z m 3.37793,-0.5039062 h -0.65625 v 4.17187499 h 0.65625 z m 0,-1.640625 h -0.667969 v 0.84375 h 0.667969 z m 2.601562,1.640625 h -0.691406 v -1.1484375 h -0.65625 v 1.1484375 h -0.5625 v 0.5390625 h 0.5625 v 3.15234374 c 0,0.421875 0.28125,0.66796875 0.796875,0.66796875 0.164062,0 0.328125,-0.0234375 0.550781,-0.0585938 v -0.5625 c -0.09375,0.0234375 -0.199219,0.0351563 -0.316406,0.0351563 -0.292969,0 -0.375,-0.0820313 -0.375,-0.375 V -3.6314453 h 0.691406 z m 8.041992,1.1015625 h -2.425781 v 0.65625 h 1.769531 v 0.1640625 c 0,1.03125 -0.761718,1.78124999 -1.816406,1.78124999 -0.597656,0 -1.125,-0.2109375 -1.464844,-0.58593749 -0.386718,-0.421875 -0.621093,-1.1132813 -0.621093,-1.828125 0,-1.4296875 0.820312,-2.3671875 2.039062,-2.3671875 0.890625,0 1.523438,0.4570312 1.6875,1.2070312 h 0.75 c -0.199219,-1.1835937 -1.101562,-1.8632812 -2.425781,-1.8632812 -0.714844,0 -1.289063,0.1875 -1.734375,0.5625 -0.667969,0.5507812 -1.054688,1.453125 -1.054688,2.4960937 0,1.7929688 1.089844,3.03515629 2.660157,3.03515629 0.785156,0 1.417968,-0.3046875 1.980468,-0.92578125 l 0.1875,0.7734375 h 0.46875 z m 4.819336,2.68359374 c -0.07031,0.0117188 -0.105468,0.0117188 -0.140625,0.0117188 -0.234375,0 -0.363281,-0.1171875 -0.363281,-0.328125 V -3.1509766 c 0,-0.75 -0.539062,-1.1484375 -1.570312,-1.1484375 -0.609375,0 -1.113282,0.1757813 -1.382813,0.4921875 -0.199219,0.2109375 -0.269531,0.4570313 -0.292969,0.8671875 h 0.667969 c 0.05859,-0.5039062 0.363281,-0.7382812 0.984375,-0.7382812 0.597656,0 0.9375,0.2226562 0.9375,0.6210937 v 0.1757813 c 0,0.28125 -0.175781,0.3984375 -0.703125,0.4570312 -0.9375,0.1171875 -1.078125,0.1523438 -1.335937,0.2578125 -0.480469,0.1992188 -0.726563,0.5742188 -0.726563,1.1132813 0,0.76171874 0.515625,1.24218749 1.371094,1.24218749 0.515625,0 0.9375,-0.1875 1.417969,-0.62109375 0.04687,0.421875 0.246093,0.62109375 0.679687,0.62109375 0.140625,0 0.234375,-0.0234375 0.457031,-0.0703125 z M 27.015914,-1.3111328 c 0,0.2226562 -0.07031,0.35156249 -0.269531,0.53906249 -0.269531,0.24609375 -0.597656,0.375 -0.984375,0.375 -0.515625,0 -0.820313,-0.24609375 -0.820313,-0.66796879 0,-0.4453125 0.292969,-0.6679687 0.996094,-0.7617187 0.703125,-0.1054688 0.84375,-0.1289063 1.078125,-0.234375 z m 2.709961,-4.5 h -0.75 v 5.81249999 h 3.609375 v -0.65625 h -2.859375 z m 5.214844,1.5117187 c -1.171875,0 -1.886719,0.84375 -1.886719,2.25 0,1.39453129 0.703125,2.23828129 1.898437,2.23828129 1.171875,0 1.886719,-0.84375 1.886719,-2.21484379 0,-1.4414062 -0.691406,-2.2734375 -1.898437,-2.2734375 z m 0.01172,0.6210938 c 0.75,0 1.195313,0.609375 1.195313,1.6523437 0,0.9726563 -0.46875,1.59375004 -1.195313,1.59375004 -0.75,0 -1.195312,-0.60937504 -1.195312,-1.61718754 0,-1.0078125 0.445312,-1.6289062 1.195312,-1.6289062 z m 2.803711,-0.4921875 v 4.17187499 h 0.667969 V -2.1666016 c 0,-0.5976562 0.152344,-0.984375 0.46875,-1.21875 0.210938,-0.1523437 0.410156,-0.1992187 0.867188,-0.2109375 v -0.6679687 c -0.105469,-0.023437 -0.164063,-0.035156 -0.246094,-0.035156 -0.433594,0 -0.761719,0.2578125 -1.148438,0.8789063 v -0.75 z m 6.19336,2.3085937 c 0,-0.6445312 -0.04687,-1.0195312 -0.164063,-1.3359375 -0.28125,-0.6796875 -0.914062,-1.1015625 -1.699218,-1.1015625 -1.160157,0 -1.910157,0.9023438 -1.910157,2.2734375 0,1.37109379 0.726563,2.21484379 1.898438,2.21484379 0.960937,0 1.617187,-0.55078125 1.78125,-1.45312499 h -0.667969 c -0.175781,0.55078124 -0.550781,0.83203124 -1.089844,0.83203124 -0.421875,0 -0.785156,-0.1875 -1.007812,-0.5390625 -0.152346,-0.23437504 -0.21094,-0.48046874 -0.222658,-0.89062504 z m -3.058594,-0.5390625 c 0.04687,-0.7734375 0.527344,-1.2773437 1.195313,-1.2773437 0.644531,0 1.148437,0.5390625 1.148437,1.2304687 0,0.011719 0,0.023437 0,0.046875 z m 0,0"
       style="fill:#000000;fill-opacity:1;fill-rule:nonzero;stroke:none"
       aria-label="8-bitGaLore"
       transform="matrix(1.3333333,0,0,1.3333333,4.428,176.03333)" />
    <path
       id="path12"
       d="m 3.1162187,-2.9765547 c 0.5859375,-0.3515625 0.7734376,-0.6328125 0.7734376,-1.171875 0,-0.8789062 -0.6914063,-1.5 -1.6992188,-1.5 -0.9960938,0 -1.69921875,0.6210938 -1.69921875,1.5 0,0.5273438 0.1875,0.8203125 0.76171875,1.171875 C 0.60840625,-2.6601484 0.292,-2.1913984 0.292,-1.5703047 c 0,1.03125001 0.7851562,1.75781251 1.8984375,1.75781251 1.1132812,0 1.8984375,-0.7265625 1.8984375,-1.74609371 0,-0.6328125 -0.3164063,-1.1015625 -0.9726563,-1.4179688 z M 2.1904375,-5.0273359 c 0.5976562,0 0.984375,0.3515625 0.984375,0.9023437 0,0.5273438 -0.3984375,0.8789063 -0.984375,0.8789063 -0.5859375,0 -0.984375,-0.3515625 -0.984375,-0.890625 0,-0.5390625 0.3984375,-0.890625 0.984375,-0.890625 z m 0,2.3671875 c 0.703125,0 1.1835937,0.4453125 1.1835937,1.1015625 0,0.67968746 -0.4804687,1.12499996 -1.1953125,1.12499996 -0.6914062,0 -1.171875,-0.45703125 -1.171875,-1.12499996 0,-0.65625 0.4804688,-1.1015625 1.1835938,-1.1015625 z m 4.5029297,0.1757812 H 4.7949297 v 0.5742188 h 1.8984375 z m 0.8261719,-3.328125 V 7.8125e-6 H 8.1171953 V -0.53905469 c 0.3164063,0.4921875 0.7382813,0.7265625 1.3242188,0.7265625 1.0898439,0 1.8164059,-0.90234375 1.8164059,-2.29687501 0,-1.3476562 -0.691406,-2.1914062 -1.7929684,-2.1914062 -0.5742188,0 -0.9726563,0.2226562 -1.2890625,0.6914062 v -2.203125 z m 1.8164062,2.1445313 c 0.7499997,0 1.2187497,0.6445312 1.2187497,1.640625 0,0.9492187 -0.492187,1.59374996 -1.2187497,1.59374996 -0.6914062,0 -1.1601562,-0.64453126 -1.1601562,-1.61718746 0,-0.984375 0.46875,-1.6171875 1.1601562,-1.6171875 z m 3.3749997,-0.5039063 h -0.65625 V 7.8125e-6 h 0.65625 z m 0,-1.640625 h -0.667968 v 0.84375 h 0.667968 z m 2.601563,1.640625 h -0.691406 v -1.1484375 h -0.65625 v 1.1484375 h -0.5625 v 0.5390625 h 0.5625 v 3.15234376 c 0,0.421875 0.28125,0.66796875 0.796875,0.66796875 0.164062,0 0.328125,-0.0234375 0.550781,-0.0585938 v -0.5625 c -0.09375,0.0234375 -0.199219,0.0351563 -0.316406,0.0351563 -0.292969,0 -0.375,-0.0820313 -0.375,-0.375 V -3.6328047 h 0.691406 z M 21.48243,-1.7460859 22.080086,7.8125e-6 h 0.832031 L 20.873055,-5.8124922 H 19.912117 L 17.849617,7.8125e-6 h 0.785156 L 19.244148,-1.7460859 Z m -0.199219,-0.6210938 h -1.851563 l 0.949219,-2.6484375 z m 5.692383,-3.4453125 h -0.667969 v 2.1679688 c -0.28125,-0.421875 -0.726562,-0.65625 -1.277344,-0.65625 -1.089843,0 -1.792968,0.8789062 -1.792968,2.203125 0,1.41796871 0.691406,2.28515621 1.816406,2.28515621 0.574219,0 0.972656,-0.22265625 1.324219,-0.73828125 V 7.8125e-6 h 0.597656 z m -1.839844,2.1445313 c 0.714844,0 1.171875,0.6328125 1.171875,1.6289062 0,0.9609375 -0.457031,1.60546876 -1.160156,1.60546876 -0.738281,0 -1.21875,-0.64453126 -1.21875,-1.61718746 0,-0.9726563 0.480469,-1.6171875 1.207031,-1.6171875 z m 6.585938,3.28124996 c -0.07031,0.0117188 -0.105469,0.0117188 -0.140625,0.0117188 -0.234375,0 -0.363282,-0.1171875 -0.363282,-0.328125 V -3.1523359 c 0,-0.75 -0.539062,-1.1484375 -1.570312,-1.1484375 -0.609375,0 -1.113281,0.1757812 -1.382813,0.4921875 -0.199218,0.2109375 -0.269531,0.4570312 -0.292968,0.8671875 h 0.667968 c 0.05859,-0.5039063 0.363282,-0.7382813 0.984375,-0.7382813 0.597657,0 0.9375,0.2226563 0.9375,0.6210938 v 0.1757812 c 0,0.28125 -0.175781,0.3984375 -0.703125,0.4570313 -0.9375,0.1171875 -1.078125,0.1523437 -1.335937,0.2578125 -0.480469,0.1992187 -0.726563,0.5742187 -0.726563,1.1132812 0,0.76171876 0.515625,1.24218751 1.371094,1.24218751 0.515625,0 0.9375,-0.1874999975 1.417969,-0.62109375 0.04687,0.421875 0.246094,0.62109375 0.679687,0.62109375 0.140625,0 0.234375,-0.0234375 0.457032,-0.0703125 z M 30.561531,-1.3124922 c 0,0.2226563 -0.07031,0.35156251 -0.269531,0.53906251 -0.269531,0.24609375 -0.597656,0.375 -0.984375,0.375 -0.515625,0 -0.820312,-0.24609375 -0.820312,-0.66796871 0,-0.4453125 0.292968,-0.6679688 0.996093,-0.7617188 0.703125,-0.1054687 0.84375,-0.1289062 1.078125,-0.234375 z m 1.889649,-2.859375 V 7.8125e-6 h 0.667968 V -2.6249922 c 0,-0.5976562 0.433594,-1.0898437 0.972657,-1.0898437 0.503906,0 0.773437,0.3046875 0.773437,0.84375 V 7.8125e-6 h 0.667969 V -2.6249922 c 0,-0.5976562 0.445312,-1.0898437 0.984375,-1.0898437 0.492187,0 0.773437,0.3164062 0.773437,0.84375 V 7.8125e-6 h 0.667969 V -3.1288984 c 0,-0.75 -0.433594,-1.171875 -1.207031,-1.171875 -0.5625,0 -0.890625,0.1757812 -1.289063,0.6445312 -0.246093,-0.4453125 -0.574218,-0.6445312 -1.125,-0.6445312 -0.550781,0 -0.914062,0.2109375 -1.277343,0.7148437 v -0.5859375 z m 0,0"
       style="fill:#000000;fill-opacity:1;fill-rule:nonzero;stroke:none"
       aria-label="8-bitAdam"
       transform="matrix(1.3333333,0,0,1.3333333,12.110667,126.77733)" />
    <path
       id="path13"
       d="M 3.7745312,-1.7467187 4.3721875,-6.25e-4 h 0.8320312 l -2.0390625,-5.8125 H 2.2042187 l -2.06249995,5.8125 H 0.926875 L 1.53625,-1.7467187 Z M 3.5753125,-2.3678125 H 1.72375 L 2.6729687,-5.01625 Z M 9.2647656,-5.813125 H 8.5967969 v 2.1679688 c -0.28125,-0.421875 -0.7265625,-0.65625 -1.2773438,-0.65625 -1.0898437,0 -1.7929687,0.8789062 -1.7929687,2.203125 0,1.4179687 0.6914062,2.2851562 1.8164062,2.2851562 0.5742188,0 0.9726563,-0.22265625 1.3242188,-0.73828125 V -6.25e-4 h 0.5976562 z m -1.8398437,2.1445313 c 0.7148437,0 1.171875,0.6328125 1.171875,1.6289062 0,0.9609375 -0.4570313,1.60546875 -1.1601563,1.60546875 -0.7382812,0 -1.21875,-0.64453125 -1.21875,-1.61718745 0,-0.9726563 0.4804688,-1.6171875 1.2070313,-1.6171875 z m 6.5888671,3.28124995 c -0.07031,0.0117188 -0.105469,0.0117188 -0.140625,0.0117188 -0.234375,0 -0.363281,-0.1171875 -0.363281,-0.328125 V -3.1529687 c 0,-0.75 -0.539063,-1.1484374 -1.570313,-1.1484374 -0.609375,0 -1.113281,0.1757812 -1.382812,0.4921874 -0.199219,0.2109375 -0.269531,0.4570312 -0.292969,0.8671875 h 0.667969 c 0.05859,-0.5039063 0.363281,-0.7382813 0.984375,-0.7382813 0.597656,0 0.9375,0.2226563 0.9375,0.6210938 v 0.1757812 c 0,0.28125 -0.175781,0.3984375 -0.703125,0.4570313 -0.9375,0.1171875 -1.078125,0.1523437 -1.335938,0.2578125 -0.480468,0.1992188 -0.726562,0.5742187 -0.726562,1.1132813 0,0.7617187 0.515625,1.24218745 1.371094,1.24218745 0.515625,0 0.9375,-0.1875 1.417968,-0.62109375 0.04687,0.421875 0.246094,0.62109375 0.679688,0.62109375 0.140625,0 0.234375,-0.0234375 0.457031,-0.0703125 z M 12.853633,-1.313125 c 0,0.2226563 -0.07031,0.3515625 -0.269531,0.5390625 -0.269532,0.24609375 -0.597657,0.375 -0.984375,0.375 -0.515625,0 -0.820313,-0.24609375 -0.820313,-0.6679687 0,-0.4453125 0.292969,-0.6679688 0.996094,-0.7617188 0.703125,-0.1054687 0.84375,-0.1289062 1.078125,-0.234375 z m 3.375,-2.859375 h -0.691406 v -0.65625 c 0,-0.28125 0.164062,-0.421875 0.46875,-0.421875 0.04687,0 0.08203,0 0.222656,0.011719 v -0.5507813 c -0.140625,-0.035156 -0.234375,-0.046875 -0.375,-0.046875 -0.609375,0 -0.972656,0.3515625 -0.972656,0.9492188 V -4.1725 h -0.5625 v 0.5390625 h 0.5625 V -6.25e-4 h 0.65625 v -3.6328125 h 0.691406 z m 4.192383,3.78515625 c -0.07031,0.0117188 -0.105469,0.0117188 -0.140625,0.0117188 -0.234375,0 -0.363282,-0.1171875 -0.363282,-0.328125 V -3.1529687 c 0,-0.75 -0.539062,-1.1484374 -1.570312,-1.1484374 -0.609375,0 -1.113281,0.1757812 -1.382813,0.4921874 -0.199218,0.2109375 -0.269531,0.4570312 -0.292968,0.8671875 h 0.667968 c 0.05859,-0.5039063 0.363282,-0.7382813 0.984375,-0.7382813 0.597657,0 0.9375,0.2226563 0.9375,0.6210938 v 0.1757812 c 0,0.28125 -0.175781,0.3984375 -0.703125,0.4570313 -0.9375,0.1171875 -1.078125,0.1523437 -1.335937,0.2578125 -0.480469,0.1992188 -0.726563,0.5742187 -0.726563,1.1132813 0,0.7617187 0.515625,1.24218745 1.371094,1.24218745 0.515625,0 0.9375,-0.1875 1.417969,-0.62109375 0.04687,0.421875 0.246094,0.62109375 0.679687,0.62109375 0.140625,0 0.234375,-0.0234375 0.457032,-0.0703125 z M 19.260859,-1.313125 c 0,0.2226563 -0.07031,0.3515625 -0.269531,0.5390625 -0.269531,0.24609375 -0.597656,0.375 -0.984375,0.375 -0.515625,0 -0.820312,-0.24609375 -0.820312,-0.6679687 0,-0.4453125 0.292968,-0.6679688 0.996093,-0.7617188 0.703125,-0.1054687 0.84375,-0.1289062 1.078125,-0.234375 z m 5.077149,-1.4648437 c -0.02344,-0.3984375 -0.117188,-0.6679688 -0.28125,-0.890625 -0.28125,-0.3984375 -0.785156,-0.6328125 -1.359375,-0.6328125 -1.125,0 -1.863281,0.9023437 -1.863281,2.2851562 0,1.34765625 0.714843,2.203125 1.851562,2.203125 0.996094,0 1.628906,-0.59765625 1.699219,-1.6171875 h -0.667969 c -0.105469,0.66796875 -0.457031,0.99609375 -1.019531,0.99609375 -0.726563,0 -1.171875,-0.59765625 -1.171875,-1.58203125 0,-1.0429687 0.433594,-1.6640625 1.160156,-1.6640625 0.550781,0 0.902344,0.328125 0.984375,0.9023438 z M 26.599727,-4.1725 H 25.90832 V -5.3209375 H 25.25207 V -4.1725 h -0.5625 v 0.5390625 h 0.5625 v 3.15234375 c 0,0.421875 0.28125,0.66796875 0.796875,0.66796875 0.164063,0 0.328125,-0.0234375 0.550782,-0.0585938 v -0.5625 c -0.09375,0.0234375 -0.199219,0.0351563 -0.316407,0.0351563 -0.292968,0 -0.375,-0.0820313 -0.375,-0.375 v -2.859375 h 0.691407 z m 2.355468,-0.1289062 c -1.171875,0 -1.886718,0.84375 -1.886718,2.25 0,1.3945312 0.703125,2.2382812 1.898437,2.2382812 1.171875,0 1.886719,-0.84375 1.886719,-2.2148437 0,-1.4414063 -0.691406,-2.2734375 -1.898438,-2.2734375 z m 0.01172,0.6210937 c 0.75,0 1.195313,0.609375 1.195313,1.6523438 0,0.9726562 -0.46875,1.59374995 -1.195313,1.59374995 -0.75,0 -1.195312,-0.60937495 -1.195312,-1.61718745 0,-1.0078125 0.445312,-1.6289063 1.195312,-1.6289063 z M 31.770625,-4.1725 v 4.171875 h 0.667969 v -2.1679687 c 0,-0.5976563 0.152343,-0.984375 0.46875,-1.21875 0.210937,-0.1523438 0.410156,-0.1992188 0.867187,-0.2109375 V -4.26625 c -0.105469,-0.023437 -0.164062,-0.035156 -0.246094,-0.035156 -0.433593,0 -0.761718,0.2578125 -1.148437,0.8789062 v -0.75 z m 0,0"
       style="fill:#000000;fill-opacity:1;fill-rule:nonzero;stroke:none"
       aria-label="Adafactor"
       transform="matrix(1.3333333,0,0,1.3333333,18.326667,77.813333)" />
    <path
       id="path14"
       d="m 0.634125,-0.00114062 h 2.6132813 c 0.5507812,0 0.9609375,-0.15234375 1.2773437,-0.48046875 0.28125,-0.3046875 0.4453125,-0.72656253 0.4453125,-1.17187503 0,-0.703125 -0.328125,-1.125 -1.0664062,-1.4179687 C 4.431,-3.3175469 4.71225,-3.7511406 4.71225,-4.3370781 c 0,-0.421875 -0.1640625,-0.796875 -0.46875,-1.0664063 -0.2929687,-0.28125 -0.6914062,-0.4101562 -1.2539062,-0.4101562 H 0.634125 Z M 1.3724063,-3.3058281 v -1.8515625 h 1.4296875 c 0.421875,0 0.6445312,0.058594 0.84375,0.2109375 0.2109375,0.1523437 0.328125,0.3984375 0.328125,0.7148437 0,0.3046875 -0.1171875,0.5625 -0.328125,0.7148438 -0.1992188,0.1523437 -0.421875,0.2109375 -0.84375,0.2109375 z m 0,2.64843748 V -2.6495781 h 1.8046875 c 0.3632812,0 0.5976562,0.082031 0.7734375,0.2695312 0.1757812,0.1875 0.2695312,0.4453125 0.2695312,0.7265625 0,0.28125 -0.09375,0.5390625 -0.2695312,0.71484378 -0.1757813,0.19921875 -0.4101563,0.28125 -0.7734375,0.28125 z M 6.7688906,-2.6495781 h 2.7773438 v -0.65625 H 6.7688906 v -1.8515625 h 3.1640625 v -0.65625 H 6.0306094 v 5.81249998 h 0.7382812 z m 5.4785154,-1.3710938 v 4.01953128 h 0.703125 V -5.6495781 H 12.4935 c -0.257812,0.8671875 -0.410156,0.984375 -1.5,1.125 v 0.5039062 z m 6.342774,-0.1523437 c -0.140625,-0.9257813 -0.75,-1.4765625 -1.605469,-1.4765625 -0.621094,0 -1.183594,0.3046875 -1.511719,0.8085937 -0.351562,0.5390625 -0.515625,1.2421875 -0.515625,2.2617188 0,0.9492187 0.140625,1.5585937 0.480469,2.06249998 0.304687,0.45703125 0.796875,0.703125 1.417969,0.703125 1.078125,0 1.851562,-0.796875 1.851562,-1.91015628 0,-1.0546875 -0.714844,-1.7929687 -1.734375,-1.7929687 -0.550781,0 -0.996094,0.2109375 -1.300781,0.6328125 0.01172,-1.3828125 0.457031,-2.1445313 1.265625,-2.1445313 0.492187,0 0.832031,0.3046875 0.949219,0.8554688 z m -1.699219,1.2773437 c 0.679687,0 1.101562,0.46875 1.101562,1.2304688 0,0.70312498 -0.480468,1.23046873 -1.125,1.23046873 -0.65625,0 -1.148437,-0.55078125 -1.148437,-1.27734373 0,-0.6914063 0.480469,-1.1835938 1.171875,-1.1835938 z m 0,0"
       style="fill:#000000;fill-opacity:1;fill-rule:nonzero;stroke:none"
       aria-label="BF16"
       transform="matrix(1.3333333,0,0,1.3333333,38.092,28.509333)" />
    <path
       id="path15"
       d="M 84.38922,-18.42555 V 128.9789"
       style="fill:none;stroke:#cb202d;stroke-width:1.59404;stroke-linecap:butt;stroke-linejoin:miter;stroke-miterlimit:10;stroke-dasharray:2.98883, 2.98883;stroke-dashoffset:0;stroke-opacity:1"
       transform="matrix(1.3333333,0,0,-1.3333333,68.184,172.23467)"
       clip-path="url(#clipPath16)" />
    <path
       id="path17"
       d="m 86.59518,131.18488 h 88.78711 v 11.52483 H 86.59518 Z"
       style="fill:#ffffff;fill-opacity:0.85;fill-rule:nonzero;stroke:none"
       transform="matrix(1.3333333,0,0,-1.3333333,68.184,172.23467)"
       clip-path="url(#clipPath16)" />
    <path
       id="path18"
       d="M 4.0299063,-0.69214063 H 1.0533438 C 1.135375,-1.1608906 1.3814688,-1.4538594 2.072875,-1.8522969 L 2.86975,-2.2858906 c 0.796875,-0.4335938 1.1953125,-1.0195313 1.1953125,-1.7109375 0,-0.46875 -0.1875,-0.9023438 -0.515625,-1.2070313 -0.3398437,-0.3046875 -0.75,-0.4453125 -1.2890625,-0.4453125 -0.7148437,0 -1.2539062,0.2578125 -1.55859375,0.7265625 -0.19921875,0.3046875 -0.29296875,0.65625 -0.3046875,1.2304688 H 1.1002188 c 0.023437,-0.375 0.070312,-0.609375 0.1640625,-0.796875 0.1875,-0.3398438 0.5507812,-0.5507813 0.9726562,-0.5507813 0.6328125,0 1.1132813,0.4570313 1.1132813,1.0664063 0,0.4453125 -0.2578125,0.8203125 -0.7617188,1.1132812 L 1.8502188,-2.4499531 C 0.67834375,-1.7819844 0.3385,-1.2429219 0.2681875,-7.34375e-4 H 4.0299063 Z M 7.0328359,-1.3601094 v 1.359375025 h 0.703125 V -1.3601094 h 0.84375 v -0.6210937 h -0.84375 v -3.6679688 h -0.515625 l -2.5664062,3.5507813 v 0.7382812 z m 0,-0.6210937 H 5.2633047 l 1.7695312,-2.4726563 z m 9.6943361,-1.0898438 h -2.425781 v 0.65625 h 1.769531 v 0.1640625 c 0,1.03125 -0.761719,1.78125002 -1.816406,1.78125002 -0.597657,0 -1.125,-0.2109375 -1.464844,-0.58593752 -0.386719,-0.421875 -0.621094,-1.1132812 -0.621094,-1.828125 0,-1.4296875 0.820313,-2.3671875 2.039063,-2.3671875 0.890625,0 1.523437,0.4570313 1.6875,1.2070313 h 0.75 c -0.199219,-1.1835938 -1.101563,-1.8632813 -2.425782,-1.8632813 -0.714843,0 -1.289062,0.1875 -1.734375,0.5625 -0.667968,0.5507813 -1.054687,1.453125 -1.054687,2.4960938 0,1.7929687 1.089844,3.03515622 2.660156,3.03515622 0.785156,0 1.417969,-0.3046875 1.980469,-0.92578125 l 0.1875,0.7734375 h 0.46875 z m 1.183594,3.070312525 h 2.613281 c 0.550781,0 0.960937,-0.152343755 1.277344,-0.480468755 0.28125,-0.3046875 0.445312,-0.72656247 0.445312,-1.17187497 0,-0.703125 -0.328125,-1.125 -1.066406,-1.4179688 0.527344,-0.2460937 0.808594,-0.6796875 0.808594,-1.265625 0,-0.421875 -0.164063,-0.796875 -0.46875,-1.0664062 -0.292969,-0.28125 -0.691407,-0.4101563 -1.253907,-0.4101563 H 17.910766 Z M 18.649047,-3.3054219 v -1.8515625 h 1.429687 c 0.421875,0 0.644532,0.058594 0.84375,0.2109375 0.210938,0.1523438 0.328125,0.3984375 0.328125,0.7148438 0,0.3046875 -0.117187,0.5625 -0.328125,0.7148437 -0.199218,0.1523438 -0.421875,0.2109375 -0.84375,0.2109375 z m 0,2.64843752 V -2.6491719 h 1.804687 c 0.363282,0 0.597657,0.082031 0.773438,0.2695313 0.175781,0.1875 0.269531,0.4453125 0.269531,0.7265625 0,0.28125 -0.09375,0.5390625 -0.269531,0.71484372 -0.175781,0.19921875 -0.410156,0.28125 -0.773438,0.28125 z m 7.543945,-5.15625002 h -0.75 v 5.812500025 h 3.609375 V -0.65698438 h -2.859375 z m 4.245117,1.640625 h -0.65625 v 4.171875025 h 0.65625 z m 0,-1.640625 h -0.667968 v 0.84375 h 0.667968 z m 1.136719,1.640625 v 4.171875025 h 0.667969 V -2.6257344 c 0,-0.5976562 0.433594,-1.0898437 0.972656,-1.0898437 0.503906,0 0.773438,0.3046875 0.773438,0.84375 v 2.871093725 h 0.667968 V -2.6257344 c 0,-0.5976562 0.445313,-1.0898437 0.984375,-1.0898437 0.492188,0 0.773438,0.3164062 0.773438,0.84375 v 2.871093725 h 0.667969 V -3.1296406 c 0,-0.75 -0.433594,-1.171875 -1.207032,-1.171875 -0.5625,0 -0.890625,0.1757812 -1.289062,0.6445312 -0.246094,-0.4453125 -0.574219,-0.6445312 -1.125,-0.6445312 -0.550781,0 -0.914063,0.2109375 -1.277344,0.7148437 v -0.5859375 z m 7.271485,0 h -0.65625 v 4.171875025 h 0.65625 z m 0,-1.640625 h -0.667969 v 0.84375 h 0.667969 z m 2.601562,1.640625 h -0.691406 v -1.1484375 h -0.65625 v 1.1484375 h -0.5625 v 0.5390625 h 0.5625 v 3.15234377 c 0,0.421875 0.28125,0.66796875 0.796875,0.66796875 0.164062,0 0.328125,-0.0234375 0.550781,-0.0585938 v -0.5625 c -0.09375,0.0234375 -0.199219,0.0351563 -0.316406,0.0351563 -0.292969,0 -0.375,-0.0820313 -0.375,-0.375 V -3.6335469 h 0.691406 z m 4.271484,-1.640625 c -0.796875,1.0429688 -1.289062,2.4960938 -1.289062,3.75 0,1.25390627 0.492187,2.70703127 1.289062,3.75 h 0.445313 c -0.703125,-1.13671873 -1.089844,-2.47265623 -1.089844,-3.75 0,-1.265625 0.386719,-2.6132812 1.089844,-3.75 z m 2.25586,3.3046875 h 1.921875 c 0.65625,0 0.949219,0.328125 0.949219,1.0429688 v 0.51562497 c 0,0.36328125 0.05859,0.71484375 0.164062,0.949218755 h 0.902344 V -0.18823438 c -0.28125,-0.1875 -0.339844,-0.3984375 -0.351563,-1.17187502 -0.01172,-0.9492187 -0.164062,-1.2421875 -0.796875,-1.5117187 0.65625,-0.3164063 0.925782,-0.7265625 0.925782,-1.3828125 0,-1.0078125 -0.632813,-1.5585938 -1.769532,-1.5585938 h -2.683593 v 5.812500025 h 0.738281 z m 0,-0.6445312 v -2.0039063 h 1.792969 c 0.421875,0 0.65625,0.058594 0.84375,0.2226563 0.199218,0.1640625 0.304687,0.4335937 0.304687,0.7851562 0,0.6796875 -0.351562,0.9960938 -1.148437,0.9960938 z m 6.870117,-2.0039063 h 1.898437 v -0.65625 H 52.18518 v 0.65625 h 1.910156 v 5.156250025 h 0.75 z m 5.162109,2.1796875 1.957032,-2.8359375 H 61.08557 l -1.5,2.2851563 -1.488281,-2.2851563 h -0.902344 l 1.921875,2.8359375 -2.050781,2.976562525 h 0.902344 l 1.59375,-2.425781225 1.582031,2.425781225 h 0.914063 z m 7.007813,1.6171875 v 1.359375025 h 0.703125 V -1.3601094 h 0.84375 v -0.6210937 h -0.84375 v -3.6679688 h -0.515625 l -2.566406,3.5507813 v 0.7382812 z m 0,-0.6210937 h -1.769531 l 1.769531,-2.4726563 z m 4.022461,-3.6679688 c -0.527344,0 -1.007813,0.234375 -1.300781,0.6210938 -0.363282,0.4921875 -0.550782,1.2539062 -0.550782,2.296875 0,1.89843747 0.644532,2.91796872 1.851563,2.91796872 1.195312,0 1.851562,-1.01953125 1.851562,-2.87109372 0,-1.1015625 -0.175781,-1.8398438 -0.550781,-2.34375 -0.292969,-0.3984375 -0.761719,-0.6210938 -1.300781,-0.6210938 z m 0,0.6210938 c 0.761719,0 1.136719,0.7617187 1.136719,2.2734375 0,1.6054687 -0.375,2.35546872 -1.148438,2.35546872 -0.75,0 -1.125,-0.78515622 -1.125,-2.33203122 0,-1.5351563 0.375,-2.296875 1.136719,-2.296875 z m 2.660156,3.7382812 c 0.140625,0.92578127 0.738281,1.47656252 1.605469,1.47656252 0.621094,0 1.183594,-0.3046875 1.511719,-0.80859375 0.363281,-0.55078127 0.515625,-1.24218747 0.515625,-2.27343747 0,-0.9492188 -0.140625,-1.546875 -0.480469,-2.0507813 -0.304688,-0.4570312 -0.796875,-0.703125 -1.417969,-0.703125 -1.078125,0 -1.851562,0.796875 -1.851562,1.8984375 0,1.0546875 0.714843,1.7929688 1.734375,1.7929688 0.539062,0 0.925781,-0.1875 1.289062,-0.6210938 0,1.3710938 -0.457031,2.14453127 -1.253906,2.14453127 -0.492188,0 -0.84375,-0.31640625 -0.949219,-0.85546877 z m 1.722656,-3.75 c 0.65625,0 1.148438,0.5390625 1.148438,1.2773438 0,0.6914062 -0.492188,1.1835937 -1.171875,1.1835937 -0.679688,0 -1.101563,-0.46875 -1.101563,-1.21875 0,-0.7265625 0.480469,-1.2421875 1.125,-1.2421875 z m 4.479492,-0.609375 c -0.527343,0 -1.007812,0.234375 -1.300781,0.6210938 -0.363281,0.4921875 -0.550781,1.2539062 -0.550781,2.296875 0,1.89843747 0.644531,2.91796872 1.851562,2.91796872 1.195313,0 1.851563,-1.01953125 1.851563,-2.87109372 0,-1.1015625 -0.175781,-1.8398438 -0.550781,-2.34375 -0.292969,-0.3984375 -0.761719,-0.6210938 -1.300782,-0.6210938 z m 0,0.6210938 c 0.761719,0 1.136719,0.7617187 1.136719,2.2734375 0,1.6054687 -0.375,2.35546872 -1.148437,2.35546872 -0.75,0 -1.125,-0.78515622 -1.125,-2.33203122 0,-1.5351563 0.375,-2.296875 1.136718,-2.296875 z m 2.979493,6.7148437 c 0.796875,-1.04296873 1.300781,-2.49609373 1.300781,-3.7382812 0,-1.265625 -0.503906,-2.71875 -1.300781,-3.7617188 h -0.433594 c 0.703125,1.1484375 1.089844,2.484375 1.089844,3.7617188 0,1.26562497 -0.386719,2.61328122 -1.089844,3.7382812 z m 0,0"
       style="fill:#cb202d;fill-opacity:1;fill-rule:nonzero;stroke:none"
       aria-label="24GBLimit(RTX4090)"
       transform="matrix(1.3333333,0,0,1.3333333,186.29867,-7.5693333)"
       clip-path="url(#clipPath19)" />
    <path
       id="path20"
       d="m 80.873,-9.92137 h 28.12973 V 9.92139 H 80.873 Z m 28.12973,36.8511 h 35.16217 v 19.84276 h -35.16217 z m 35.16219,36.85112 h 52.74326 v 19.84276 h -52.74326 z m 49.22705,36.85112 h 70.32434 v 19.84276 h -70.32434 z"
       style="fill:#d9b3d9;fill-opacity:1;fill-rule:nonzero;stroke:#a64ca6;stroke-width:0.3985;stroke-linecap:butt;stroke-linejoin:miter;stroke-miterlimit:10;stroke-dasharray:none;stroke-opacity:1"
       transform="matrix(1.3333333,0,0,-1.3333333,68.184,172.23467)" />
    <path
       id="path21"
       d="M 38.67839,-9.92137 H 80.873 V 9.92139 H 38.67839 Z m 17.58109,36.8511 h 52.74326 V 46.77249 H 56.25948 Z M 73.84056,63.78085 H 144.1649 V 83.62361 H 73.84056 Z m 31.64597,36.85112 h 87.90543 v 19.84276 h -87.90543 z"
       style="fill:#d1e6f3;fill-opacity:1;fill-rule:nonzero;stroke:#006395;stroke-width:0.3985;stroke-linecap:butt;stroke-linejoin:miter;stroke-miterlimit:10;stroke-dasharray:none;stroke-opacity:1"
       transform="matrix(1.3333333,0,0,-1.3333333,68.184,172.23467)" />
    <path
       id="path22"
       d="m 17.58109,-9.92137 h 21.0973 V 9.92139 h -21.0973 z m 10.54864,36.8511 H 56.25946 V 46.77249 H 28.12973 Z M 38.67839,63.78085 H 73.84056 V 83.62361 H 38.67839 Z m 14.06487,36.85112 h 52.74326 v 19.84276 H 52.74326 Z"
       style="fill:#d4efdf;fill-opacity:1;fill-rule:nonzero;stroke:#008f45;stroke-width:0.3985;stroke-linecap:butt;stroke-linejoin:miter;stroke-miterlimit:10;stroke-dasharray:none;stroke-opacity:1"
       transform="matrix(1.3333333,0,0,-1.3333333,68.184,172.23467)" />
    <path
       id="path23"
       d="M 3.5162,-9.92137 H 17.58107 V 9.92139 H 3.5162 Z m 3.51622,36.8511 h 21.0973 V 46.77249 H 7.03242 Z m 3.51623,36.85112 H 38.67838 V 83.62361 H 10.54865 Z m 7.03244,36.85112 h 35.16217 v 19.84276 H 17.58109 Z"
       style="fill:#ffe5cc;fill-opacity:1;fill-rule:nonzero;stroke:#cc5500;stroke-width:0.3985;stroke-linecap:butt;stroke-linejoin:miter;stroke-miterlimit:10;stroke-dasharray:none;stroke-opacity:1"
       transform="matrix(1.3333333,0,0,-1.3333333,68.184,172.23467)" />
    <path
       id="path24"
       d="M 0,-9.92137 H 3.5162 V 9.92139 H 0 Z m 0,36.8511 H 7.03242 V 46.77249 H 0 Z M 0,63.78085 H 10.54865 V 83.62361 H 0 Z m 0,36.85112 h 17.58109 v 19.84276 H 0 Z"
       style="fill:#e0e0e0;fill-opacity:1;fill-rule:nonzero;stroke:#666666;stroke-width:0.3985;stroke-linecap:butt;stroke-linejoin:miter;stroke-miterlimit:10;stroke-dasharray:none;stroke-opacity:1"
       transform="matrix(1.3333333,0,0,-1.3333333,68.184,172.23467)" />
    <path
       id="path25"
       d="m 3.7267031,9.375e-4 1.640625,-4.8632813 V 9.375e-4 h 0.6914063 v -5.8125 H 5.0392031 l -1.6875,5.0625 -1.7226562,-5.0625 H 0.59779688 v 5.8125 H 1.3009219 V -4.8623438 L 2.9532656,9.375e-4 Z m 7.0019529,-1.8632813 c 0,-0.6445312 -0.04687,-1.0195312 -0.164062,-1.3359375 -0.28125,-0.6796875 -0.9140627,-1.1015625 -1.699219,-1.1015625 -1.1601563,0 -1.9101563,0.9023438 -1.9101563,2.2734375 0,1.3710938 0.7265625,2.2148438 1.8984376,2.2148438 0.9609375,0 1.6171877,-0.55078125 1.7812497,-1.453125 H 9.9669375 c -0.1757812,0.55078125 -0.5507812,0.83203125 -1.0898437,0.83203125 -0.421875,0 -0.7851563,-0.1875 -1.0078126,-0.5390625 C 7.7169375,-1.2060938 7.6583437,-1.4521875 7.646625,-1.8623438 Z M 7.6700625,-2.4014063 C 7.7169375,-3.1748438 8.1974063,-3.67875 8.865375,-3.67875 c 0.6445313,0 1.148438,0.5390625 1.148438,1.2304687 0,0.011719 0,0.023437 0,0.046875 z M 11.63393,-4.1709375 v 4.171875 h 0.667968 v -2.625 c 0,-0.5976563 0.433594,-1.0898438 0.972657,-1.0898438 0.503906,0 0.773437,0.3046875 0.773437,0.84375 V 9.375e-4 h 0.667969 v -2.625 c 0,-0.5976563 0.445312,-1.0898438 0.984375,-1.0898438 0.492187,0 0.773437,0.3164063 0.773437,0.84375 V 9.375e-4 h 0.667969 v -3.1289063 c 0,-0.75 -0.433594,-1.171875 -1.207031,-1.171875 -0.5625,0 -0.890625,0.1757813 -1.289063,0.6445313 -0.246093,-0.4453125 -0.574218,-0.6445313 -1.125,-0.6445313 -0.550781,0 -0.914062,0.2109375 -1.277343,0.7148438 v -0.5859375 z m 8.24414,-0.1289063 c -1.171875,0 -1.886718,0.84375 -1.886718,2.25 0,1.3945313 0.703125,2.2382813 1.898437,2.2382813 1.171875,0 1.886719,-0.84375 1.886719,-2.2148438 0,-1.4414062 -0.691406,-2.2734375 -1.898438,-2.2734375 z m 0.01172,0.6210938 c 0.75,0 1.195313,0.609375 1.195313,1.6523437 0,0.9726563 -0.46875,1.59375005 -1.195313,1.59375005 -0.75,0 -1.195312,-0.60937505 -1.195312,-1.61718755 0,-1.0078125 0.445312,-1.6289062 1.195312,-1.6289062 z m 2.800781,-0.4921875 v 4.171875 h 0.667969 v -2.1679688 c 0,-0.5976562 0.152344,-0.984375 0.46875,-1.21875 0.210938,-0.1523437 0.410156,-0.1992187 0.867188,-0.2109375 v -0.6679687 c -0.105469,-0.023437 -0.164063,-0.035156 -0.246094,-0.035156 -0.433594,0 -0.761719,0.2578125 -1.148438,0.8789063 v -0.75 z m 5.4375,0 -1.160156,3.24609375 -1.066406,-3.24609375 H 25.198383 L 26.604633,0.01265625 26.34682,0.680625 c -0.105468,0.29296875 -0.257812,0.3984375 -0.527343,0.3984375 -0.105469,0 -0.210938,-0.011719 -0.351563,-0.046875 v 0.5976562 c 0.128906,0.082031 0.269531,0.1054688 0.445313,0.1054688 0.210937,0 0.445312,-0.070312 0.621093,-0.1992188 0.210938,-0.1523437 0.328125,-0.328125 0.457032,-0.65624995 l 1.851562,-5.05078125 z m 8.378907,0.1640625 c -0.234375,-1.2773438 -0.960938,-1.8984375 -2.238282,-1.8984375 -0.785156,0 -1.40625,0.2460937 -1.839843,0.7265625 -0.527344,0.5742187 -0.808594,1.40625 -0.808594,2.34375 0,0.9609375 0.292969,1.78125 0.84375,2.34375 0.445312,0.45703125 1.019531,0.6796875 1.769531,0.6796875 1.417969,0 2.214844,-0.7734375 2.390625,-2.3085938 h -0.761719 c -0.05859,0.3984375 -0.140625,0.6679688 -0.257812,0.9023438 -0.246094,0.48046875 -0.738281,0.75 -1.359375,0.75 -1.160156,0 -1.886719,-0.9257813 -1.886719,-2.3789063 0,-1.4882812 0.703125,-2.4023437 1.828125,-2.4023437 0.46875,0 0.902344,0.140625 1.148438,0.3632812 0.210937,0.1992188 0.328125,0.4453125 0.421875,0.8789063 z m 2.651367,-0.2929688 c -1.171875,0 -1.886719,0.84375 -1.886719,2.25 0,1.3945313 0.703125,2.2382813 1.898437,2.2382813 1.171875,0 1.886719,-0.84375 1.886719,-2.2148438 0,-1.4414062 -0.691406,-2.2734375 -1.898437,-2.2734375 z m 0.01172,0.6210938 c 0.75,0 1.195313,0.609375 1.195313,1.6523437 0,0.9726563 -0.46875,1.59375005 -1.195313,1.59375005 -0.75,0 -1.195312,-0.60937505 -1.195312,-1.61718755 0,-1.0078125 0.445312,-1.6289062 1.195312,-1.6289062 z m 5.742188,0.6679687 c -0.01172,-0.8203125 -0.550781,-1.2890625 -1.511719,-1.2890625 -0.972656,0 -1.605469,0.5039063 -1.605469,1.2773438 0,0.65625 0.339844,0.9726562 1.324219,1.2070312 l 0.621094,0.1523438 c 0.457031,0.1054687 0.644531,0.28125 0.644531,0.5859375 0,0.38671875 -0.386719,0.64453125 -0.972656,0.64453125 -0.363281,0 -0.65625,-0.10546875 -0.832031,-0.28125 -0.105469,-0.1171875 -0.152344,-0.234375 -0.1875,-0.52734375 h -0.703125 c 0.03516,0.9609375 0.574218,1.4296875 1.664062,1.4296875 1.054688,0 1.722656,-0.52734375 1.722656,-1.3242188 0,-0.6210937 -0.351562,-0.9726562 -1.183593,-1.171875 l -0.632813,-0.140625 c -0.539062,-0.1289062 -0.773437,-0.3046875 -0.773437,-0.5976562 0,-0.3867188 0.339843,-0.6328125 0.890625,-0.6328125 0.527343,0 0.820312,0.234375 0.832031,0.6679687 z m 2.519531,-1.1601562 H 46.740375 V -5.319375 h -0.65625 v 1.1484375 h -0.5625 v 0.5390625 h 0.5625 v 3.15234375 c 0,0.421875 0.28125,0.66796875 0.796875,0.66796875 0.164062,0 0.328125,-0.0234375 0.550781,-0.0585938 v -0.5625 c -0.09375,0.0234375 -0.199219,0.0351563 -0.316406,0.0351563 -0.292969,0 -0.375,-0.0820313 -0.375,-0.375 v -2.859375 h 0.691406 z m 4.280274,-1.640625 c -0.796875,1.0429687 -1.289063,2.4960937 -1.289063,3.75 0,1.25390625 0.492188,2.70703125 1.289063,3.75 h 0.445312 c -0.703125,-1.13671875 -1.089844,-2.47265625 -1.089844,-3.75 0,-1.265625 0.386719,-2.6132813 1.089844,-3.75 z m 6.427734,2.7421875 h -2.425781 v 0.65625 h 1.769531 v 0.1640625 c 0,1.03125 -0.761719,1.78125 -1.816406,1.78125 -0.597656,0 -1.125,-0.2109375 -1.464844,-0.5859375 -0.386719,-0.421875 -0.621094,-1.1132813 -0.621094,-1.828125 0,-1.4296875 0.820313,-2.3671875 2.039063,-2.3671875 0.890625,0 1.523437,0.4570312 1.6875,1.2070312 h 0.75 c -0.199219,-1.1835937 -1.101563,-1.8632812 -2.425781,-1.8632812 -0.714844,0 -1.289063,0.1875 -1.734375,0.5625 -0.667969,0.5507812 -1.054688,1.453125 -1.054688,2.4960937 0,1.7929688 1.089844,3.0351563 2.660156,3.0351563 0.785157,0 1.417969,-0.3046875 1.980469,-0.92578125 l 0.1875,0.7734375 h 0.46875 z m 1.183594,3.0703125 h 2.613281 c 0.550781,0 0.960938,-0.15234375 1.277344,-0.48046875 0.28125,-0.3046875 0.445312,-0.72656255 0.445312,-1.17187505 0,-0.703125 -0.328125,-1.125 -1.066406,-1.4179687 0.527344,-0.2460938 0.808594,-0.6796875 0.808594,-1.265625 0,-0.421875 -0.164063,-0.796875 -0.46875,-1.0664063 -0.292969,-0.28125 -0.691406,-0.4101562 -1.253906,-0.4101562 H 59.323383 Z M 60.061664,-3.30375 v -1.8515625 h 1.429688 c 0.421875,0 0.644531,0.058594 0.84375,0.2109375 0.210937,0.1523437 0.328125,0.3984375 0.328125,0.7148437 0,0.3046875 -0.117188,0.5625 -0.328125,0.7148438 -0.199219,0.1523437 -0.421875,0.2109375 -0.84375,0.2109375 z m 0,2.6484375 V -2.6475 h 1.804688 c 0.363281,0 0.597656,0.082031 0.773437,0.2695312 0.175781,0.1875 0.269531,0.4453125 0.269531,0.7265625 0,0.28125 -0.09375,0.5390625 -0.269531,0.7148438 -0.175781,0.19921875 -0.410156,0.28125 -0.773437,0.28125 z m 4.68457,2.34375 c 0.796875,-1.04296875 1.300782,-2.49609375 1.300782,-3.7382813 0,-1.265625 -0.503907,-2.71875 -1.300782,-3.7617187 h -0.433593 c 0.703125,1.1484375 1.089843,2.484375 1.089843,3.7617187 0,1.26562505 -0.386718,2.6132813 -1.089843,3.7382813 z m 0,0"
       style="fill:#000000;fill-opacity:1;fill-rule:nonzero;stroke:none"
       aria-label="MemoryCost(GB)"
       transform="matrix(1.3333333,0,0,1.3333333,222.992,225.28)" />
    <path
       id="path26"
       d="m 228.75339,31.60246 h 84.63478 v 60.32607 h -84.63478 z"
       style="fill:#ffffff;fill-opacity:1;fill-rule:nonzero;stroke:none"
       transform="matrix(1.3333333,0,0,-1.3333333,68.184,172.23467)" />
    <path
       id="path27"
       d="M 0,-2.83484 V 2.83484 H 17.00826 V -2.83484 Z"
       style="fill:#e0e0e0;fill-opacity:1;fill-rule:nonzero;stroke:#666666;stroke-width:0.3985;stroke-linecap:butt;stroke-linejoin:miter;stroke-miterlimit:10;stroke-dasharray:none;stroke-opacity:1"
       transform="matrix(1.3333333,0,0,-1.3333333,377.43467,59.882667)" />
    <path
       id="path28"
       d="m 3.1058359,-5.9075234 c -1.6757812,0 -2.80078121,1.2304687 -2.80078121,3.046875 0,1.8164062 1.12500001,3.04687496 2.80078121,3.04687496 0.703125,0 1.3359375,-0.22265625 1.8046875,-0.62109375 0.6328125,-0.52734375 1.0078125,-1.42968751 1.0078125,-2.37890621 0,-1.875 -1.1132812,-3.09375 -2.8125,-3.09375 z m 0,0.65625 c 1.2539063,0 2.0625,0.9492187 2.0625,2.4257812 0,1.3945313 -0.8320312,2.35546876 -2.0625,2.35546876 -1.2304687,0 -2.0625,-0.96093746 -2.0625,-2.39062496 0,-1.4414063 0.8320313,-2.390625 2.0625,-2.390625 z m 5.1210938,1.078125 H 7.5355234 v -1.1484375 h -0.65625 v 1.1484375 h -0.5625 v 0.5390625 h 0.5625 v 3.15234371 c 0,0.421875 0.28125,0.66796875 0.796875,0.66796875 0.1640625,0 0.328125,-0.0234375 0.5507813,-0.0585938 v -0.5625 c -0.09375,0.0234375 -0.1992188,0.0351563 -0.3164063,0.0351563 -0.2929687,0 -0.375,-0.0820313 -0.375,-0.375 V -3.6340859 h 0.6914063 z m 0.7529297,-1.640625 v 5.81249996 h 0.65625 V -2.3098672 c 0,-0.84375 0.4453126,-1.40625 1.1367186,-1.40625 0.210938,0 0.421875,0.070312 0.585938,0.1875 0.1875,0.140625 0.269531,0.3398438 0.269531,0.6328125 v 2.89453126 h 0.65625 V -3.1536172 c 0,-0.703125 -0.492188,-1.1484375 -1.3125,-1.1484375 -0.585938,0 -0.949219,0.1875 -1.3359376,0.703125 v -2.2148437 z m 7.9570316,3.9492187 c 0,-0.6445312 -0.04687,-1.0195312 -0.164063,-1.3359375 -0.28125,-0.6796875 -0.914062,-1.1015625 -1.699219,-1.1015625 -1.160156,0 -1.910156,0.9023438 -1.910156,2.2734375 0,1.37109376 0.726563,2.21484376 1.898438,2.21484376 0.960937,0 1.617187,-0.55078125 1.78125,-1.45312496 h -0.667969 c -0.175781,0.55078121 -0.550781,0.83203121 -1.089844,0.83203121 -0.421875,0 -0.785156,-0.1875 -1.007812,-0.5390625 C 13.925172,-1.2083047 13.866578,-1.4543984 13.854859,-1.8645547 Z m -3.058594,-0.5390625 c 0.04687,-0.7734375 0.527344,-1.2773437 1.195312,-1.2773437 0.644532,0 1.148438,0.5390625 1.148438,1.2304687 0,0.011719 0,0.023437 0,0.046875 z m 3.952148,-1.7695312 v 4.17187496 h 0.667969 V -2.1692422 c 0,-0.5976562 0.152344,-0.984375 0.46875,-1.21875 0.210938,-0.1523437 0.410156,-0.1992187 0.867188,-0.2109375 v -0.6679687 c -0.105469,-0.023437 -0.164063,-0.035156 -0.246094,-0.035156 -0.433594,0 -0.761719,0.2578125 -1.148438,0.8789063 v -0.75 z m 5.595703,1.1601562 c -0.01172,-0.8203125 -0.550781,-1.2890625 -1.511718,-1.2890625 -0.972657,0 -1.605469,0.5039063 -1.605469,1.2773438 0,0.65625 0.339844,0.9726562 1.324219,1.2070312 l 0.621093,0.1523438 c 0.457032,0.1054687 0.644532,0.28125 0.644532,0.5859375 0,0.38671871 -0.386719,0.64453121 -0.972657,0.64453121 -0.363281,0 -0.65625,-0.10546875 -0.832031,-0.28125 -0.105469,-0.1171875 -0.152344,-0.234375 -0.1875,-0.52734371 h -0.703125 c 0.03516,0.96093746 0.574219,1.42968746 1.664063,1.42968746 1.054687,0 1.722656,-0.52734375 1.722656,-1.32421876 0,-0.6210937 -0.351563,-0.9726562 -1.183594,-1.171875 l -0.632812,-0.140625 c -0.539063,-0.1289062 -0.773438,-0.3046875 -0.773438,-0.5976562 0,-0.3867188 0.339844,-0.6328125 0.890625,-0.6328125 0.527344,0 0.820313,0.234375 0.832031,0.6679687 z m 0,0"
       style="fill:#000000;fill-opacity:1;fill-rule:nonzero;stroke:none"
       aria-label="Others"
       transform="matrix(1.3333333,0,0,1.3333333,403.03467,62.794667)" />
    <path
       id="path29"
       d="M 0,-2.83484 V 2.83484 H 17.00826 V -2.83484 Z"
       style="fill:#ffe5cc;fill-opacity:1;fill-rule:nonzero;stroke:#cc5500;stroke-width:0.3985;stroke-linecap:butt;stroke-linejoin:miter;stroke-miterlimit:10;stroke-dasharray:none;stroke-opacity:1"
       transform="matrix(1.3333333,0,0,-1.3333333,377.43467,75.004)" />
    <path
       id="path30"
       d="M 5.9300547,-0.00145313 7.4066172,-5.8139531 H 6.5745859 L 5.5081797,-1.0912969 4.1839609,-5.8139531 H 3.3870859 L 2.0980234,-1.0912969 1.0081797,-5.8139531 H 0.17614844 L 1.6644297,-0.00145313 H 2.4730234 L 3.7738047,-4.7709844 5.1214609,-0.00145313 Z M 11.373414,-1.8647344 c 0,-0.6445312 -0.04687,-1.0195312 -0.164062,-1.3359375 -0.28125,-0.6796875 -0.914063,-1.1015625 -1.6992192,-1.1015625 -1.1601562,0 -1.9101562,0.9023438 -1.9101562,2.2734375 0,1.37109377 0.7265625,2.21484377 1.8984375,2.21484377 0.9609379,0 1.6171879,-0.55078125 1.7812499,-1.45312497 h -0.667969 c -0.175781,0.55078122 -0.550781,0.83203122 -1.0898434,0.83203122 -0.421875,0 -0.7851563,-0.1875 -1.0078125,-0.5390625 C 8.3616953,-1.2084844 8.3031016,-1.4545781 8.2913828,-1.8647344 Z M 8.3148203,-2.4037969 c 0.046875,-0.7734375 0.5273438,-1.2773437 1.1953125,-1.2773437 0.6445312,0 1.1484372,0.5390625 1.1484372,1.2304687 0,0.011719 0,0.023437 0,0.046875 z M 12.9115,-4.1733281 h -0.65625 v 4.17187497 h 0.65625 z m 0,-1.640625 h -0.667969 v 0.84375 H 12.9115 Z m 3.855469,1.640625 v 0.5976562 c -0.328125,-0.4921875 -0.738281,-0.7265625 -1.277344,-0.7265625 -1.054687,0 -1.769531,0.9257813 -1.769531,2.2851563 0,0.6796875 0.175781,1.24218747 0.527344,1.64062497 0.304687,0.3515625 0.75,0.5625 1.195312,0.5625 0.515625,0 0.890625,-0.22265625 1.265625,-0.75 v 0.2109375 c 0,0.5625 -0.07031,0.9140625 -0.246094,1.13671875 C 16.2865,1.0297969 15.946656,1.1821406 15.5365,1.1821406 c -0.292969,0 -0.574219,-0.082031 -0.75,-0.22265623 -0.152344,-0.12890625 -0.222656,-0.234375 -0.257812,-0.48046875 H 13.849 c 0.07031,0.78515628 0.691406,1.25390628 1.664063,1.25390628 0.621093,0 1.160156,-0.1992188 1.429687,-0.5273438 0.316406,-0.38671873 0.445313,-0.91406248 0.445313,-1.88671873 V -4.1733281 Z m -1.207031,0.4921875 c 0.726562,0 1.148437,0.609375 1.148437,1.6523437 0,0.9960938 -0.433594,1.59375002 -1.136719,1.59375002 -0.726562,0 -1.160156,-0.60937502 -1.160156,-1.61718752 0,-1.0078125 0.445313,-1.6289062 1.148438,-1.6289062 z m 2.917968,-2.1328125 v 5.81249997 h 0.65625 V -2.3100469 c 0,-0.84375 0.445313,-1.40625 1.136719,-1.40625 0.210938,0 0.421875,0.070312 0.585938,0.1875 0.1875,0.140625 0.269531,0.3398438 0.269531,0.6328125 v 2.89453127 h 0.65625 V -3.1537969 c 0,-0.703125 -0.492188,-1.1484375 -1.3125,-1.1484375 -0.585938,0 -0.949219,0.1875 -1.335938,0.703125 v -2.2148437 z m 5.897461,1.640625 h -0.691406 v -1.1484375 h -0.65625 v 1.1484375 h -0.5625 v 0.5390625 h 0.5625 v 3.15234372 c 0,0.421875 0.28125,0.66796875 0.796875,0.66796875 0.164062,0 0.328125,-0.0234375 0.550781,-0.0585938 v -0.5625 c -0.09375,0.0234375 -0.199219,0.0351563 -0.316406,0.0351563 -0.292969,0 -0.375,-0.0820313 -0.375,-0.375 V -3.6342656 h 0.691406 z m 8.044922,1.1015625 h -2.425781 v 0.65625 h 1.769531 v 0.1640625 c 0,1.03125 -0.761719,1.78124997 -1.816406,1.78124997 -0.597656,0 -1.125,-0.2109375 -1.464844,-0.58593747 -0.386719,-0.421875 -0.621094,-1.1132813 -0.621094,-1.828125 0,-1.4296875 0.820313,-2.3671875 2.039063,-2.3671875 0.890625,0 1.523437,0.4570312 1.6875,1.2070312 h 0.75 c -0.199219,-1.1835937 -1.101563,-1.8632812 -2.425781,-1.8632812 -0.714844,0 -1.289063,0.1875 -1.734375,0.5625 -0.667969,0.5507812 -1.054688,1.453125 -1.054688,2.4960937 0,1.7929688 1.089844,3.03515627 2.660156,3.03515627 0.785157,0 1.417969,-0.3046875 1.980469,-0.92578125 l 0.1875,0.7734375 h 0.46875 z m 1.101563,-1.1015625 v 4.17187497 H 34.18982 V -2.1694219 c 0,-0.5976562 0.152344,-0.984375 0.46875,-1.21875 0.210938,-0.1523437 0.410157,-0.1992187 0.867188,-0.2109375 v -0.6679687 c -0.105469,-0.023437 -0.164063,-0.035156 -0.246094,-0.035156 -0.433594,0 -0.761719,0.2578125 -1.148437,0.8789063 v -0.75 z m 6.298828,3.78515622 c -0.07031,0.0117188 -0.105469,0.0117188 -0.140625,0.0117188 -0.234375,0 -0.363282,-0.1171875 -0.363282,-0.328125 V -3.1537969 c 0,-0.75 -0.539062,-1.1484375 -1.570312,-1.1484375 -0.609375,0 -1.113281,0.1757813 -1.382813,0.4921875 -0.199218,0.2109375 -0.269531,0.4570313 -0.292968,0.8671875 h 0.667968 c 0.05859,-0.5039062 0.363282,-0.7382812 0.984375,-0.7382812 0.597657,0 0.9375,0.2226562 0.9375,0.6210937 v 0.1757813 c 0,0.28125 -0.175781,0.3984375 -0.703125,0.4570312 -0.9375,0.1171875 -1.078125,0.1523438 -1.335937,0.2578125 -0.480469,0.1992188 -0.726563,0.5742188 -0.726563,1.1132813 0,0.76171872 0.515625,1.24218747 1.371094,1.24218747 0.515625,0 0.9375,-0.1875 1.417969,-0.62109375 0.04687,0.421875 0.246094,0.62109375 0.679687,0.62109375 0.140625,0 0.234375,-0.0234375 0.457032,-0.0703125 z M 38.660523,-1.3139531 c 0,0.2226562 -0.07031,0.35156247 -0.269531,0.53906247 -0.269531,0.24609375 -0.597656,0.375 -0.984375,0.375 -0.515625,0 -0.820312,-0.24609375 -0.820312,-0.66796877 0,-0.4453125 0.292968,-0.6679687 0.996093,-0.7617187 0.703125,-0.1054688 0.84375,-0.1289063 1.078125,-0.234375 z m 5.273438,-4.5 h -0.667969 v 2.1679687 c -0.28125,-0.421875 -0.726562,-0.65625 -1.277344,-0.65625 -1.089843,0 -1.792968,0.8789063 -1.792968,2.203125 0,1.41796877 0.691406,2.28515627 1.816406,2.28515627 0.574219,0 0.972656,-0.22265625 1.324219,-0.73828125 v 0.55078125 h 0.597656 z m -1.839844,2.1445312 c 0.714844,0 1.171875,0.6328125 1.171875,1.6289063 0,0.9609375 -0.457031,1.60546872 -1.160156,1.60546872 -0.738281,0 -1.21875,-0.64453122 -1.21875,-1.61718752 0,-0.9726562 0.480469,-1.6171875 1.207031,-1.6171875 z m 3.518555,-0.5039062 h -0.65625 v 4.17187497 h 0.65625 z m 0,-1.640625 h -0.667969 v 0.84375 h 0.667969 z m 4.664062,3.9492187 c 0,-0.6445312 -0.04687,-1.0195312 -0.164062,-1.3359375 -0.28125,-0.6796875 -0.914063,-1.1015625 -1.699219,-1.1015625 -1.160156,0 -1.910156,0.9023438 -1.910156,2.2734375 0,1.37109377 0.726562,2.21484377 1.898437,2.21484377 0.960938,0 1.617188,-0.55078125 1.78125,-1.45312497 h -0.667968 c -0.175782,0.55078122 -0.550782,0.83203122 -1.089844,0.83203122 -0.421875,0 -0.785156,-0.1875 -1.007813,-0.5390625 C 47.265016,-1.2084844 47.206422,-1.4545781 47.194703,-1.8647344 Z m -3.058593,-0.5390625 c 0.04687,-0.7734375 0.527343,-1.2773437 1.195312,-1.2773437 0.644531,0 1.148438,0.5390625 1.148438,1.2304687 0,0.011719 0,0.023437 0,0.046875 z m 3.963867,-1.7695312 v 4.17187497 h 0.667969 V -2.3100469 c 0,-0.84375 0.445312,-1.40625 1.125,-1.40625 0.527343,0 0.867187,0.3164063 0.867187,0.8203125 v 2.89453127 h 0.65625 V -3.1537969 c 0,-0.6914062 -0.515625,-1.1484375 -1.324219,-1.1484375 -0.621093,0 -1.019531,0.2460938 -1.382812,0.8320313 v -0.703125 z m 5.894531,0 h -0.691406 v -1.1484375 h -0.65625 v 1.1484375 h -0.5625 v 0.5390625 h 0.5625 v 3.15234372 c 0,0.421875 0.28125,0.66796875 0.796875,0.66796875 0.164062,0 0.328125,-0.0234375 0.550781,-0.0585938 v -0.5625 c -0.09375,0.0234375 -0.199219,0.0351563 -0.316406,0.0351563 -0.292969,0 -0.375,-0.0820313 -0.375,-0.375 V -3.6342656 h 0.691406 z m 0,0"
       style="fill:#000000;fill-opacity:1;fill-rule:nonzero;stroke:none"
       aria-label="WeightGradient"
       transform="matrix(1.3333333,0,0,1.3333333,403.03467,77.916)" />
    <path
       id="path31"
       d="M 0,-2.83484 V 2.83484 H 17.00826 V -2.83484 Z"
       style="fill:#d4efdf;fill-opacity:1;fill-rule:nonzero;stroke:#008f45;stroke-width:0.3985;stroke-linecap:butt;stroke-linejoin:miter;stroke-miterlimit:10;stroke-dasharray:none;stroke-opacity:1"
       transform="matrix(1.3333333,0,0,-1.3333333,377.43467,90.126667)" />
    <path
       id="path32"
       d="m 3.1058359,-5.9059531 c -1.6757812,0 -2.80078121,1.2304687 -2.80078121,3.046875 0,1.8164062 1.12500001,3.04687498 2.80078121,3.04687498 0.703125,0 1.3359375,-0.22265625 1.8046875,-0.62109375 0.6328125,-0.52734375 1.0078125,-1.42968753 1.0078125,-2.37890623 0,-1.875 -1.1132812,-3.09375 -2.8125,-3.09375 z m 0,0.65625 c 1.2539063,0 2.0625,0.9492187 2.0625,2.4257812 0,1.3945313 -0.8320312,2.35546878 -2.0625,2.35546878 -1.2304687,0 -2.0625,-0.96093748 -2.0625,-2.39062498 0,-1.4414063 0.8320313,-2.390625 2.0625,-2.390625 z m 3.5273438,6.984375 h 0.6679687 v -2.16796877 c 0.3515625,0.421875 0.7382813,0.62109375 1.2773438,0.62109375 1.078125,0 1.7929688,-0.8671875 1.7929688,-2.20312498 0,-1.40625 -0.6914063,-2.2851563 -1.7929688,-2.2851563 -0.5742188,0 -1.0195313,0.2578125 -1.3359375,0.75 v -0.6210937 h -0.609375 z m 1.828125,-5.4023438 c 0.7382812,0 1.2070312,0.6445313 1.2070312,1.640625 0,0.9492188 -0.4804687,1.59375003 -1.2070312,1.59375003 -0.703125,0 -1.1601563,-0.64453123 -1.1601563,-1.61718753 0,-0.984375 0.4570313,-1.6171875 1.1601563,-1.6171875 z m 4.1982423,-0.5039062 h -0.691406 v -1.1484375 h -0.65625 v 1.1484375 h -0.5625 v 0.5390625 h 0.5625 v 3.15234373 c 0,0.421875 0.28125,0.66796875 0.796875,0.66796875 0.164062,0 0.328125,-0.0234375 0.550781,-0.0585938 v -0.5625 c -0.09375,0.0234375 -0.199219,0.0351563 -0.316406,0.0351563 -0.292969,0 -0.375,-0.0820313 -0.375,-0.375 V -3.6325156 h 0.691406 z m 1.382812,0 h -0.65625 V 2.96875e-4 h 0.65625 z m 0,-1.640625 h -0.667968 v 0.84375 h 0.667968 z m 1.136719,1.640625 V 2.96875e-4 h 0.667969 V -2.6247031 c 0,-0.5976563 0.433594,-1.0898438 0.972656,-1.0898438 0.503906,0 0.773438,0.3046875 0.773438,0.84375 V 2.96875e-4 h 0.667968 V -2.6247031 c 0,-0.5976563 0.445313,-1.0898438 0.984375,-1.0898438 0.492188,0 0.773438,0.3164063 0.773438,0.84375 V 2.96875e-4 h 0.667969 V -3.1286094 c 0,-0.75 -0.433594,-1.171875 -1.207032,-1.171875 -0.5625,0 -0.890625,0.1757813 -1.289062,0.6445313 -0.246094,-0.4453125 -0.574219,-0.6445313 -1.125,-0.6445313 -0.550781,0 -0.914063,0.2109375 -1.277344,0.7148438 v -0.5859375 z m 7.271485,0 h -0.65625 V 2.96875e-4 h 0.65625 z m 0,-1.640625 h -0.667969 v 0.84375 h 0.667969 z m 4.101562,1.640625 h -3.117187 v 0.5742187 h 2.332031 l -2.496094,3.00000003 V 2.96875e-4 h 3.398438 V -0.58564062 h -2.589844 l 2.472656,-2.99999998 z m 4.429688,2.3085937 c 0,-0.6445312 -0.04687,-1.0195312 -0.164063,-1.3359375 -0.28125,-0.6796875 -0.914062,-1.1015625 -1.699219,-1.1015625 -1.160156,0 -1.910156,0.9023438 -1.910156,2.2734375 0,1.37109378 0.726563,2.21484378 1.898438,2.21484378 0.960937,0 1.617187,-0.55078125 1.78125,-1.45312498 h -0.667969 c -0.175781,0.55078123 -0.550781,0.83203123 -1.089844,0.83203123 -0.421875,0 -0.785156,-0.1875 -1.007812,-0.5390625 C 27.970094,-1.2067344 27.9115,-1.4528281 27.899781,-1.8629844 Z m -3.058594,-0.5390625 c 0.04687,-0.7734375 0.527344,-1.2773437 1.195312,-1.2773437 0.644532,0 1.148438,0.5390625 1.148438,1.2304687 0,0.011719 0,0.023437 0,0.046875 z m 3.949219,-1.7695312 V 2.96875e-4 h 0.667968 V -2.1676719 c 0,-0.5976562 0.152344,-0.984375 0.46875,-1.21875 0.210938,-0.1523437 0.410157,-0.1992187 0.867188,-0.2109375 v -0.6679687 c -0.105469,-0.023437 -0.164063,-0.035156 -0.246094,-0.035156 -0.433594,0 -0.761719,0.2578125 -1.148437,0.8789063 v -0.75 z m 9.058593,0.070312 c 0,-1.1367188 -0.785156,-1.8046875 -2.121093,-1.8046875 -1.277344,0 -2.0625,0.65625 -2.0625,1.7109375 0,0.703125 0.375,1.1484375 1.136718,1.3476562 l 1.441407,0.3867188 c 0.726562,0.1875 1.066406,0.4804687 1.066406,0.9375 0,0.3164062 -0.164063,0.63281248 -0.410156,0.80859373 -0.234375,0.15234375 -0.597657,0.24609375 -1.066407,0.24609375 -0.632812,0 -1.066406,-0.15234375 -1.347656,-0.4921875 C 37.356813,-1.2067344 37.263063,-1.4879844 37.263063,-1.8512656 h -0.691407 c 0,0.5390625 0.105469,0.89062498 0.339844,1.20703123 0.398438,0.5390625 1.066406,0.83203125 1.945313,0.83203125 0.703125,0 1.265625,-0.1640625 1.640625,-0.4453125 0.386718,-0.31640625 0.632812,-0.83203128 0.632812,-1.33593748 0,-0.7148438 -0.445312,-1.2421875 -1.230469,-1.453125 l -1.464843,-0.3984375 c -0.691407,-0.1875 -0.949219,-0.4101563 -0.949219,-0.8554688 0,-0.5976562 0.515625,-0.984375 1.300781,-0.984375 0.925781,0 1.441406,0.421875 1.441406,1.1835938 z m 2.595703,-0.070312 h -0.691406 v -1.1484375 h -0.65625 v 1.1484375 h -0.5625 v 0.5390625 h 0.5625 v 3.15234373 c 0,0.421875 0.28125,0.66796875 0.796875,0.66796875 0.164063,0 0.328125,-0.0234375 0.550781,-0.0585938 v -0.5625 c -0.09375,0.0234375 -0.199218,0.0351563 -0.316406,0.0351563 -0.292969,0 -0.375,-0.0820313 -0.375,-0.375 V -3.6325156 h 0.691406 z m 4.456055,3.78515623 c -0.07031,0.0117188 -0.105469,0.0117188 -0.140625,0.0117188 -0.234375,0 -0.363281,-0.1171875 -0.363281,-0.328125 V -3.1520469 c 0,-0.75 -0.539063,-1.1484375 -1.570313,-1.1484375 -0.609375,0 -1.113281,0.1757813 -1.382812,0.4921875 -0.199219,0.2109375 -0.269531,0.4570313 -0.292969,0.8671875 h 0.667969 c 0.05859,-0.5039062 0.363281,-0.7382812 0.984375,-0.7382812 0.597656,0 0.9375,0.2226562 0.9375,0.6210937 v 0.1757813 c 0,0.28125 -0.175781,0.3984375 -0.703125,0.4570312 -0.9375,0.1171875 -1.078125,0.1523438 -1.335938,0.2578125 -0.480468,0.1992188 -0.726562,0.5742188 -0.726562,1.1132813 0,0.76171873 0.515625,1.24218748 1.371094,1.24218748 0.515625,0 0.9375,-0.187500005 1.417968,-0.62109375 0.04687,0.421875 0.246094,0.62109375 0.679688,0.62109375 0.140625,0 0.234375,-0.0234375 0.457031,-0.0703125 z M 46.822633,-1.3122031 c 0,0.2226562 -0.07031,0.35156248 -0.269531,0.53906248 -0.269532,0.24609375 -0.597657,0.375 -0.984375,0.375 -0.515625,0 -0.820313,-0.24609375 -0.820313,-0.66796878 0,-0.4453125 0.292969,-0.6679687 0.996094,-0.7617187 0.703125,-0.1054688 0.84375,-0.1289063 1.078125,-0.234375 z m 3.351562,-2.859375 h -0.691406 v -1.1484375 h -0.65625 v 1.1484375 h -0.5625 v 0.5390625 h 0.5625 v 3.15234373 c 0,0.421875 0.28125,0.66796875 0.796875,0.66796875 0.164063,0 0.328125,-0.0234375 0.550781,-0.0585938 v -0.5625 c -0.09375,0.0234375 -0.199218,0.0351563 -0.316406,0.0351563 -0.292969,0 -0.375,-0.0820313 -0.375,-0.375 V -3.6325156 h 0.691406 z m 4.277344,2.3085937 c 0,-0.6445312 -0.04687,-1.0195312 -0.164062,-1.3359375 -0.28125,-0.6796875 -0.914063,-1.1015625 -1.699219,-1.1015625 -1.160156,0 -1.910156,0.9023438 -1.910156,2.2734375 0,1.37109378 0.726562,2.21484378 1.898437,2.21484378 0.960938,0 1.617188,-0.55078125 1.78125,-1.45312498 H 53.68982 c -0.175781,0.55078123 -0.550781,0.83203123 -1.089843,0.83203123 -0.421875,0 -0.785157,-0.1875 -1.007813,-0.5390625 C 51.43982,-1.2067344 51.381227,-1.4528281 51.369508,-1.8629844 Z m -3.058594,-0.5390625 c 0.04687,-0.7734375 0.527344,-1.2773437 1.195313,-1.2773437 0.644531,0 1.148437,0.5390625 1.148437,1.2304687 0,0.011719 0,0.023437 0,0.046875 z m 0,0"
       style="fill:#000000;fill-opacity:1;fill-rule:nonzero;stroke:none"
       aria-label="OptimizerState"
       transform="matrix(1.3333333,0,0,1.3333333,403.03467,93.038667)" />
    <path
       id="path33"
       d="M 0,-2.83484 V 2.83484 H 17.00826 V -2.83484 Z"
       style="fill:#d1e6f3;fill-opacity:1;fill-rule:nonzero;stroke:#006395;stroke-width:0.3985;stroke-linecap:butt;stroke-linejoin:miter;stroke-miterlimit:10;stroke-dasharray:none;stroke-opacity:1"
       transform="matrix(1.3333333,0,0,-1.3333333,377.43467,105.12533)" />
    <path
       id="path34"
       d="m 3.7738047,-1.7475469 0.5976562,1.74609378 H 5.2034922 L 3.1644297,-5.8139531 H 2.2034922 L 0.14099219,-0.00145312 H 0.92614844 L 1.5355234,-1.7475469 Z M 3.5745859,-2.3686406 H 1.7230234 l 0.9492188,-2.6484375 z m 5.4902344,-0.4101563 c -0.023437,-0.3984375 -0.1171875,-0.6679687 -0.28125,-0.890625 -0.28125,-0.3984375 -0.7851562,-0.6328125 -1.359375,-0.6328125 -1.125,0 -1.8632812,0.9023438 -1.8632812,2.2851563 0,1.34765623 0.7148437,2.20312498 1.8515625,2.20312498 0.9960937,0 1.6289062,-0.59765625 1.6992187,-1.61718748 H 8.4437266 c -0.1054688,0.66796873 -0.4570313,0.99609373 -1.0195313,0.99609373 -0.7265625,0 -1.171875,-0.59765623 -1.171875,-1.58203123 0,-1.0429688 0.4335938,-1.6640625 1.1601563,-1.6640625 0.5507812,0 0.9023437,0.328125 0.984375,0.9023437 z M 11.329469,-4.1733281 H 10.638063 V -5.3217656 H 9.9818125 v 1.1484375 h -0.5625 v 0.5390625 h 0.5625 v 3.15234373 c 0,0.421875 0.2812505,0.66796875 0.7968755,0.66796875 0.164062,0 0.328125,-0.0234375 0.550781,-0.0585938 v -0.5625 c -0.09375,0.0234375 -0.199219,0.0351563 -0.316406,0.0351563 -0.292969,0 -0.375,-0.0820313 -0.375,-0.375 V -3.6342656 h 0.691406 z m 1.382812,0 h -0.65625 v 4.17187498 h 0.65625 z m 0,-1.640625 h -0.667968 v 0.84375 h 0.667968 z m 2.847657,5.81249998 1.59375,-4.17187498 h -0.738282 l -1.183593,3.38671873 -1.113282,-3.38671873 h -0.75 l 1.464844,4.17187498 z m 5.777343,-0.38671875 c -0.07031,0.0117188 -0.105468,0.0117188 -0.140625,0.0117188 -0.234375,0 -0.363281,-0.1171875 -0.363281,-0.328125 V -3.1537969 c 0,-0.75 -0.539062,-1.1484375 -1.570312,-1.1484375 -0.609375,0 -1.113282,0.1757813 -1.382813,0.4921875 -0.199219,0.2109375 -0.269531,0.4570313 -0.292969,0.8671875 h 0.667969 c 0.05859,-0.5039062 0.363281,-0.7382812 0.984375,-0.7382812 0.597656,0 0.9375,0.2226562 0.9375,0.6210937 v 0.1757813 c 0,0.28125 -0.175781,0.3984375 -0.703125,0.4570312 -0.9375,0.1171875 -1.078125,0.1523438 -1.335937,0.2578125 -0.480469,0.1992188 -0.726563,0.5742188 -0.726563,1.1132813 0,0.76171873 0.515625,1.24218748 1.371094,1.24218748 0.515625,0 0.9375,-0.1875 1.417969,-0.62109375 0.04687,0.421875 0.246093,0.62109375 0.679687,0.62109375 0.140625,0 0.234375,-0.0234375 0.457031,-0.0703125 z M 20.177125,-1.3139531 c 0,0.2226562 -0.07031,0.35156248 -0.269531,0.53906248 -0.269531,0.24609375 -0.597656,0.375 -0.984375,0.375 -0.515625,0 -0.820313,-0.24609375 -0.820313,-0.66796878 0,-0.4453125 0.292969,-0.6679687 0.996094,-0.7617187 0.703125,-0.1054688 0.84375,-0.1289063 1.078125,-0.234375 z m 3.354492,-2.859375 h -0.691406 v -1.1484375 h -0.65625 v 1.1484375 h -0.5625 v 0.5390625 h 0.5625 v 3.15234373 c 0,0.421875 0.28125,0.66796875 0.796875,0.66796875 0.164062,0 0.328125,-0.0234375 0.550781,-0.0585938 v -0.5625 c -0.09375,0.0234375 -0.199219,0.0351563 -0.316406,0.0351563 -0.292969,0 -0.375,-0.0820313 -0.375,-0.375 V -3.6342656 h 0.691406 z m 1.382813,0 h -0.65625 v 4.17187498 h 0.65625 z m 0,-1.640625 h -0.667969 v 0.84375 h 0.667969 z m 2.742187,1.5117187 c -1.171875,0 -1.886719,0.84375 -1.886719,2.25 0,1.39453128 0.703125,2.23828128 1.898438,2.23828128 1.171875,0 1.886719,-0.84375 1.886719,-2.21484378 0,-1.4414062 -0.691407,-2.2734375 -1.898438,-2.2734375 z m 0.01172,0.6210938 c 0.75,0 1.195312,0.609375 1.195312,1.6523437 0,0.9726563 -0.46875,1.59375003 -1.195312,1.59375003 -0.75,0 -1.195313,-0.60937503 -1.195313,-1.61718753 0,-1.0078125 0.445313,-1.6289062 1.195313,-1.6289062 z m 2.8125,-0.4921875 v 4.17187498 h 0.667969 V -2.3100469 c 0,-0.84375 0.445312,-1.40625 1.125,-1.40625 0.527343,0 0.867187,0.3164063 0.867187,0.8203125 v 2.89453128 h 0.65625 V -3.1537969 c 0,-0.6914062 -0.515625,-1.1484375 -1.324219,-1.1484375 -0.621093,0 -1.019531,0.2460938 -1.382812,0.8320313 v -0.703125 z m 0,0"
       style="fill:#000000;fill-opacity:1;fill-rule:nonzero;stroke:none"
       aria-label="Activation"
       transform="matrix(1.3333333,0,0,1.3333333,403.03467,107.916)" />
    <path
       id="path35"
       d="M 0,-2.83484 V 2.83484 H 17.00826 V -2.83484 Z"
       style="fill:#d9b3d9;fill-opacity:1;fill-rule:nonzero;stroke:#a64ca6;stroke-width:0.3985;stroke-linecap:butt;stroke-linejoin:miter;stroke-miterlimit:10;stroke-dasharray:none;stroke-opacity:1"
       transform="matrix(1.3333333,0,0,-1.3333333,377.43467,120.004)" />
    <path
       id="path36"
       d="M 5.9300547,-2.734375e-4 7.4066172,-5.8127734 H 6.5745859 L 5.5081797,-1.0901172 4.1839609,-5.8127734 H 3.3870859 L 2.0980234,-1.0901172 1.0081797,-5.8127734 H 0.17614844 L 1.6644297,-2.734375e-4 H 2.4730234 L 3.7738047,-4.7698047 5.1214609,-2.734375e-4 Z M 11.373414,-1.8635547 c 0,-0.6445312 -0.04687,-1.0195312 -0.164062,-1.3359375 -0.28125,-0.6796875 -0.914063,-1.1015625 -1.6992192,-1.1015625 -1.1601562,0 -1.9101562,0.9023438 -1.9101562,2.2734375 0,1.37109376 0.7265625,2.21484376 1.8984375,2.21484376 0.9609379,0 1.6171879,-0.55078125 1.7812499,-1.45312496 h -0.667969 c -0.175781,0.55078121 -0.550781,0.83203121 -1.0898434,0.83203121 -0.421875,0 -0.7851563,-0.1875 -1.0078125,-0.5390625 C 8.3616953,-1.2073047 8.3031016,-1.4533984 8.2913828,-1.8635547 Z M 8.3148203,-2.4026172 c 0.046875,-0.7734375 0.5273438,-1.2773437 1.1953125,-1.2773437 0.6445312,0 1.1484372,0.5390625 1.1484372,1.2304687 0,0.011719 0,0.023437 0,0.046875 z M 12.9115,-4.1721484 h -0.65625 v 4.1718749625 h 0.65625 z m 0,-1.640625 h -0.667969 v 0.84375 H 12.9115 Z m 3.855469,1.640625 v 0.5976562 c -0.328125,-0.4921875 -0.738281,-0.7265625 -1.277344,-0.7265625 -1.054687,0 -1.769531,0.9257813 -1.769531,2.2851563 0,0.6796875 0.175781,1.24218746 0.527344,1.64062496 0.304687,0.3515625 0.75,0.5625 1.195312,0.5625 0.515625,0 0.890625,-0.22265625 1.265625,-0.75 v 0.2109375 c 0,0.5625 -0.07031,0.9140625 -0.246094,1.13671875 C 16.2865,1.0309766 15.946656,1.1833203 15.5365,1.1833203 c -0.292969,0 -0.574219,-0.082031 -0.75,-0.22265624 -0.152344,-0.12890625 -0.222656,-0.234375 -0.257812,-0.48046875 H 13.849 c 0.07031,0.78515629 0.691406,1.25390629 1.664063,1.25390629 0.621093,0 1.160156,-0.1992188 1.429687,-0.5273438 0.316406,-0.38671874 0.445313,-0.91406249 0.445313,-1.88671874 V -4.1721484 Z m -1.207031,0.4921875 c 0.726562,0 1.148437,0.609375 1.148437,1.6523437 0,0.9960938 -0.433594,1.59375001 -1.136719,1.59375001 -0.726562,0 -1.160156,-0.60937501 -1.160156,-1.61718751 0,-1.0078125 0.445313,-1.6289062 1.148438,-1.6289062 z m 2.917968,-2.1328125 v 5.8124999625 h 0.65625 V -2.3088672 c 0,-0.84375 0.445313,-1.40625 1.136719,-1.40625 0.210938,0 0.421875,0.070312 0.585938,0.1875 0.1875,0.140625 0.269531,0.3398438 0.269531,0.6328125 v 2.8945312625 h 0.65625 V -3.1526172 c 0,-0.703125 -0.492188,-1.1484375 -1.3125,-1.1484375 -0.585938,0 -0.949219,0.1875 -1.335938,0.703125 v -2.2148437 z m 5.897461,1.640625 h -0.691406 v -1.1484375 h -0.65625 v 1.1484375 h -0.5625 v 0.5390625 h 0.5625 v 3.15234371 c 0,0.421875 0.28125,0.66796875 0.796875,0.66796875 0.164062,0 0.328125,-0.0234375 0.550781,-0.0585938 v -0.5625 c -0.09375,0.0234375 -0.199219,0.0351563 -0.316406,0.0351563 -0.292969,0 -0.375,-0.0820313 -0.375,-0.375 V -3.6330859 h 0.691406 z m 3.679688,1.1601562 c -0.01172,-0.8203125 -0.550782,-1.2890625 -1.511719,-1.2890625 -0.972656,0 -1.605469,0.5039063 -1.605469,1.2773438 0,0.65625 0.339844,0.9726562 1.324219,1.2070312 l 0.621094,0.1523438 c 0.457031,0.1054687 0.644531,0.28125 0.644531,0.5859375 0,0.38671871 -0.386719,0.64453121 -0.972656,0.64453121 -0.363282,0 -0.65625,-0.10546875 -0.832032,-0.28125 -0.105468,-0.1171875 -0.152343,-0.234375 -0.1875,-0.52734371 h -0.703125 c 0.03516,0.96093746 0.574219,1.42968746 1.664063,1.42968746 1.054687,0 1.722656,-0.52734375 1.722656,-1.32421876 0,-0.6210937 -0.351562,-0.9726562 -1.183594,-1.171875 l -0.632812,-0.140625 c -0.539063,-0.1289062 -0.773438,-0.3046875 -0.773438,-0.5976562 0,-0.3867188 0.339844,-0.6328125 0.890625,-0.6328125 0.527344,0 0.820313,0.234375 0.832032,0.6679687 z m 0,0"
       style="fill:#000000;fill-opacity:1;fill-rule:nonzero;stroke:none"
       aria-label="Weights"
       transform="matrix(1.3333333,0,0,1.3333333,403.03467,122.79333)" />
  </g>
</svg>
