<?xml version="1.0" encoding="UTF-8" standalone="no"?>
<!-- Created with Inkscape (http://www.inkscape.org/) -->

<svg
   version="1.1"
   id="svg1"
   width="590.93732"
   height="170.744"
   viewBox="0 0 590.93732 170.744"
   xmlns="http://www.w3.org/2000/svg"
   xmlns:svg="http://www.w3.org/2000/svg">
  <defs
     id="defs1" />
  <g
     id="g1">
    <path
       id="path1"
       d="M 0,-10.20468 V 107.15085"
       style="fill:none;stroke:#dfdfdf;stroke-width:0.19925;stroke-linecap:butt;stroke-linejoin:miter;stroke-miterlimit:10;stroke-dasharray:none;stroke-opacity:1"
       transform="matrix(1.3333333,0,0,-1.3333333,45.293333,143.032)" />
    <path
       id="path2"
       d="M 33.07121,-10.20468 V 107.15085"
       style="fill:none;stroke:#dfdfdf;stroke-width:0.19925;stroke-linecap:butt;stroke-linejoin:miter;stroke-miterlimit:10;stroke-dasharray:none;stroke-opacity:1"
       transform="matrix(1.3333333,0,0,-1.3333333,45.293333,143.032)" />
    <path
       id="path3"
       d="M 66.14243,-10.20468 V 107.15085"
       style="fill:none;stroke:#dfdfdf;stroke-width:0.19925;stroke-linecap:butt;stroke-linejoin:miter;stroke-miterlimit:10;stroke-dasharray:none;stroke-opacity:1"
       transform="matrix(1.3333333,0,0,-1.3333333,45.293333,143.032)" />
    <path
       id="path4"
       d="M 99.21365,-10.20468 V 107.15085"
       style="fill:none;stroke:#dfdfdf;stroke-width:0.19925;stroke-linecap:butt;stroke-linejoin:miter;stroke-miterlimit:10;stroke-dasharray:none;stroke-opacity:1"
       transform="matrix(1.3333333,0,0,-1.3333333,45.293333,143.032)" />
    <path
       id="path5"
       d="M 132.28487,-10.20468 V 107.15085"
       style="fill:none;stroke:#dfdfdf;stroke-width:0.19925;stroke-linecap:butt;stroke-linejoin:miter;stroke-miterlimit:10;stroke-dasharray:none;stroke-opacity:1"
       transform="matrix(1.3333333,0,0,-1.3333333,45.293333,143.032)" />
    <path
       id="path6"
       d="M 165.3561,-10.20468 V 107.15085"
       style="fill:none;stroke:#dfdfdf;stroke-width:0.19925;stroke-linecap:butt;stroke-linejoin:miter;stroke-miterlimit:10;stroke-dasharray:none;stroke-opacity:1"
       transform="matrix(1.3333333,0,0,-1.3333333,45.293333,143.032)" />
    <path
       id="path7"
       d="M 198.4273,-10.20468 V 107.15085"
       style="fill:none;stroke:#dfdfdf;stroke-width:0.19925;stroke-linecap:butt;stroke-linejoin:miter;stroke-miterlimit:10;stroke-dasharray:none;stroke-opacity:1"
       transform="matrix(1.3333333,0,0,-1.3333333,45.293333,143.032)" />
    <path
       id="path8"
       d="M 231.49854,-10.20468 V 107.15085"
       style="fill:none;stroke:#dfdfdf;stroke-width:0.19925;stroke-linecap:butt;stroke-linejoin:miter;stroke-miterlimit:10;stroke-dasharray:none;stroke-opacity:1"
       transform="matrix(1.3333333,0,0,-1.3333333,45.293333,143.032)" />
    <path
       id="path9"
       d="M 264.56975,-10.20468 V 107.15085"
       style="fill:none;stroke:#dfdfdf;stroke-width:0.19925;stroke-linecap:butt;stroke-linejoin:miter;stroke-miterlimit:10;stroke-dasharray:none;stroke-opacity:1"
       transform="matrix(1.3333333,0,0,-1.3333333,45.293333,143.032)" />
    <path
       id="path10"
       d="M 297.64098,-10.20468 V 107.15085"
       style="fill:none;stroke:#dfdfdf;stroke-width:0.19925;stroke-linecap:butt;stroke-linejoin:miter;stroke-miterlimit:10;stroke-dasharray:none;stroke-opacity:1"
       transform="matrix(1.3333333,0,0,-1.3333333,45.293333,143.032)" />
    <path
       id="path11"
       d="M 330.71219,-10.20468 V 107.15085"
       style="fill:none;stroke:#dfdfdf;stroke-width:0.19925;stroke-linecap:butt;stroke-linejoin:miter;stroke-miterlimit:10;stroke-dasharray:none;stroke-opacity:1"
       transform="matrix(1.3333333,0,0,-1.3333333,45.293333,143.032)" />
    <path
       id="path12"
       d="M 363.78342,-10.20468 V 107.15085"
       style="fill:none;stroke:#dfdfdf;stroke-width:0.19925;stroke-linecap:butt;stroke-linejoin:miter;stroke-miterlimit:10;stroke-dasharray:none;stroke-opacity:1"
       transform="matrix(1.3333333,0,0,-1.3333333,45.293333,143.032)" />
    <path
       id="path13"
       d="M 396.85463,-10.20468 V 107.15085"
       style="fill:none;stroke:#dfdfdf;stroke-width:0.19925;stroke-linecap:butt;stroke-linejoin:miter;stroke-miterlimit:10;stroke-dasharray:none;stroke-opacity:1"
       transform="matrix(1.3333333,0,0,-1.3333333,45.293333,143.032)" />
    <path
       id="path14"
       d="M 0,-10.20468 V 107.15085"
       style="fill:none;stroke:#bfbfbf;stroke-width:0.24907;stroke-linecap:butt;stroke-linejoin:miter;stroke-miterlimit:10;stroke-dasharray:none;stroke-opacity:1"
       transform="matrix(1.3333333,0,0,-1.3333333,45.293333,143.032)" />
    <path
       id="path15"
       d="M 99.21365,-10.20468 V 107.15085"
       style="fill:none;stroke:#bfbfbf;stroke-width:0.24907;stroke-linecap:butt;stroke-linejoin:miter;stroke-miterlimit:10;stroke-dasharray:none;stroke-opacity:1"
       transform="matrix(1.3333333,0,0,-1.3333333,45.293333,143.032)" />
    <path
       id="path16"
       d="M 198.4273,-10.20468 V 107.15085"
       style="fill:none;stroke:#bfbfbf;stroke-width:0.24907;stroke-linecap:butt;stroke-linejoin:miter;stroke-miterlimit:10;stroke-dasharray:none;stroke-opacity:1"
       transform="matrix(1.3333333,0,0,-1.3333333,45.293333,143.032)" />
    <path
       id="path17"
       d="M 297.64098,-10.20468 V 107.15085"
       style="fill:none;stroke:#bfbfbf;stroke-width:0.24907;stroke-linecap:butt;stroke-linejoin:miter;stroke-miterlimit:10;stroke-dasharray:none;stroke-opacity:1"
       transform="matrix(1.3333333,0,0,-1.3333333,45.293333,143.032)" />
    <path
       id="path18"
       d="M 396.85463,-10.20468 V 107.15085"
       style="fill:none;stroke:#bfbfbf;stroke-width:0.24907;stroke-linecap:butt;stroke-linejoin:miter;stroke-miterlimit:10;stroke-dasharray:none;stroke-opacity:1"
       transform="matrix(1.3333333,0,0,-1.3333333,45.293333,143.032)" />
    <path
       id="path19"
       d="m 3.4919375,-6.6436406 c -1.875,0 -3.15234375,1.3828125 -3.15234375,3.421875 0,2.0507812 1.27734375,3.43359372 3.15234375,3.43359372 0.796875,0 1.5,-0.24609375 2.0273437,-0.69140625 C 6.234125,-1.0889531 6.656,-2.0967656 6.656,-3.1631719 c 0,-2.109375 -1.2539063,-3.4804687 -3.1640625,-3.4804687 z m 0,0.7382812 c 1.40625,0 2.3203125,1.078125 2.3203125,2.71875 0,1.5820313 -0.9375,2.66015627 -2.3203125,2.66015627 -1.3828125,0 -2.3203125,-1.07812497 -2.3203125,-2.69531247 0,-1.6054688 0.9375,-2.6835938 2.3203125,-2.6835938 z m 3.9638672,7.8632813 h 0.7617187 v -2.44921878 c 0.3867188,0.48046875 0.8320313,0.703125 1.4414063,0.703125 1.2070313,0 2.0039063,-0.984375 2.0039063,-2.48437502 0,-1.5703125 -0.773438,-2.5546875 -2.0156251,-2.5546875 -0.6328125,0 -1.1484375,0.28125 -1.5,0.84375 V -4.6983281 H 7.4558047 Z m 2.0625,-6.09375 c 0.8320313,0 1.3710933,0.7265625 1.3710933,1.8515625 0,1.0664062 -0.550781,1.79296872 -1.3710933,1.79296872 -0.7851563,0 -1.3007813,-0.71484372 -1.3007813,-1.81640622 0,-1.1015625 0.515625,-1.828125 1.3007813,-1.828125 z m 7.0371093,2.0390625 c 0,-0.7148438 -0.04687,-1.1484375 -0.1875,-1.5 -0.304687,-0.7734375 -1.019531,-1.2304688 -1.898437,-1.2304688 -1.300782,0 -2.144532,0.9960938 -2.144532,2.5429688 0,1.54687497 0.808594,2.49609372 2.132813,2.49609372 1.066406,0 1.816406,-0.609375 2.003906,-1.64062502 h -0.75 c -0.210937,0.62109377 -0.632812,0.94921877 -1.230469,0.94921877 -0.480468,0 -0.878906,-0.22265625 -1.125,-0.60937497 -0.1875,-0.2695313 -0.246093,-0.5390625 -0.257812,-1.0078125 z m -3.433594,-0.609375 c 0.05859,-0.8671875 0.585938,-1.4296875 1.335938,-1.4296875 0.738281,0 1.300781,0.609375 1.300781,1.3710937 0,0.023437 0,0.035156 0,0.058594 z m 4.456055,-1.9921875 V 8.90625e-4 h 0.75 V -2.5889531 c 0,-0.9609375 0.503906,-1.5820313 1.265625,-1.5820313 0.597656,0 0.972656,0.3515625 0.972656,0.9140625 V 8.90625e-4 h 0.75 V -3.5498906 c 0,-0.7734375 -0.585937,-1.2773438 -1.488281,-1.2773438 -0.703125,0 -1.148438,0.2695313 -1.570313,0.9140625 v -0.7851562 z m 0,0"
       style="fill:#000000;fill-opacity:1;fill-rule:nonzero;stroke:none"
       aria-label="Open"
       transform="matrix(1.3333333,0,0,1.3333333,11.125333,27.116)" />
    <path
       id="path20"
       d="m 1.6627891,-2.8118047 h 2.15625 c 0.7382812,0 1.078125,0.3515625 1.078125,1.1601563 l -0.011719,0.5859375 c 0,0.39843746 0.070312,0.79687496 0.1875,1.0664062125 H 6.0807578 V -0.21024219 c -0.3046875,-0.2109375 -0.375,-0.4453125 -0.3867187,-1.31250001 -0.011719,-1.078125 -0.1875,-1.3945312 -0.890625,-1.6992187 0.7382812,-0.3632813 1.03125,-0.8203125 1.03125,-1.5703125 0,-1.125 -0.703125,-1.7460938 -1.9921875,-1.7460938 H 0.83075781 V 6.953125e-4 H 1.6627891 Z m 0,-0.7382812 v -2.25 h 2.015625 c 0.46875,0 0.7382812,0.070312 0.9492187,0.2460937 0.2226563,0.1992188 0.3398438,0.4921875 0.3398438,0.8789063 0,0.7734375 -0.3984375,1.125 -1.2890625,1.125 z m 9.4042969,1.453125 c 0,-0.7148438 -0.04687,-1.1484375 -0.1875,-1.5 -0.304688,-0.7734375 -1.0195313,-1.2304688 -1.8984376,-1.2304688 -1.3007812,0 -2.1445312,0.9960938 -2.1445312,2.5429688 0,1.54687496 0.8085937,2.49609371 2.1328125,2.49609371 1.0664063,0 1.8164063,-0.609375 2.0039063,-1.64062501 h -0.75 c -0.210938,0.62109376 -0.6328126,0.94921876 -1.2304688,0.94921876 -0.4804688,0 -0.8789063,-0.22265625 -1.125,-0.60937496 -0.1875,-0.2695313 -0.2460938,-0.5390625 -0.2578125,-1.0078125 z m -3.4335938,-0.609375 c 0.058594,-0.8671875 0.5859375,-1.4296875 1.3359375,-1.4296875 0.7382812,0 1.3007813,0.609375 1.3007813,1.3710937 0,0.023437 0,0.035156 0,0.058594 z m 8.6191408,2.27343746 c -0.08203,0.0117188 -0.117188,0.0117188 -0.152344,0.0117188 -0.269531,0 -0.410156,-0.12890625 -0.410156,-0.36328125 V -3.5500859 c 0,-0.8320313 -0.609375,-1.2773438 -1.769531,-1.2773438 -0.679688,0 -1.242188,0.1875 -1.558594,0.5390625 -0.210938,0.2460938 -0.304688,0.515625 -0.316406,0.984375 h 0.75 c 0.05859,-0.5742187 0.398437,-0.8320312 1.101562,-0.8320312 0.667969,0 1.054688,0.2460937 1.054688,0.6914062 v 0.1992188 c 0,0.3164062 -0.1875,0.4453125 -0.785157,0.515625 -1.054687,0.140625 -1.21875,0.1757812 -1.5,0.2929687 -0.550781,0.2226563 -0.832031,0.6445313 -0.832031,1.2539063 0,0.85546871 0.597656,1.39453121 1.546875,1.39453121 0.585938,0 1.066406,-0.2109374975 1.59375,-0.69140625 0.04687,0.46875 0.28125,0.69140625 0.773438,0.69140625 0.152343,0 0.269531,-0.0234375 0.503906,-0.0820313 z M 14.951852,-1.4758672 c 0,0.2460938 -0.08203,0.3984375 -0.304688,0.60937501 -0.304687,0.28125 -0.667969,0.421875 -1.113281,0.421875 -0.574219,0 -0.914063,-0.28125 -0.914063,-0.76171871 0,-0.4921875 0.328125,-0.7382813 1.125,-0.8554688 0.785157,-0.1054687 0.949219,-0.140625 1.207032,-0.2578125 z m 5.932617,-5.0625 h -0.75 v 2.4375 c -0.316406,-0.4804687 -0.808594,-0.7265625 -1.441406,-0.7265625 -1.21875,0 -2.015625,0.9726563 -2.015625,2.4726563 0,1.58203121 0.773437,2.56640621 2.039062,2.56640621 0.644531,0 1.101563,-0.24609375 1.5,-0.83203125 V 6.953125e-4 h 0.667969 z m -2.0625,2.4023438 c 0.808594,0 1.3125,0.7265625 1.3125,1.8398437 0,1.0898438 -0.515625,1.80468751 -1.3125,1.80468751 -0.820313,0 -1.371094,-0.72656251 -1.371094,-1.81640621 0,-1.1015625 0.550781,-1.828125 1.371094,-1.828125 z m 0,0"
       style="fill:#000000;fill-opacity:1;fill-rule:nonzero;stroke:none"
       aria-label="Read"
       transform="matrix(1.3333333,0,0,1.3333333,11.794667,62.182667)" />
    <path
       id="path21"
       d="M 3.1754063,-5.8003672 H 5.3199375 V -6.5386484 H 0.187125 v 0.7382812 h 2.15625 V 4.140625e-4 h 0.8320313 z m 1.8486328,1.1015625 V 4.140625e-4 h 0.75 V -2.4370859 c 0,-0.6679688 0.1757812,-1.1132813 0.5273437,-1.3710938 0.234375,-0.1757812 0.4570313,-0.2226562 0.984375,-0.234375 v -0.7617187 c -0.1289062,-0.023437 -0.1992187,-0.023437 -0.2929687,-0.023437 -0.4804688,0 -0.8554688,0.28125 -1.2773438,0.984375 v -0.8554688 z m 7.0664059,4.26562501 c -0.08203,0.0117188 -0.117187,0.0117188 -0.152343,0.0117188 -0.269532,0 -0.410157,-0.12890625 -0.410157,-0.36328125 V -3.5503672 c 0,-0.8320312 -0.609375,-1.2773437 -1.7695309,-1.2773437 -0.6796875,0 -1.2421875,0.1875 -1.5585938,0.5390625 -0.2109375,0.2460937 -0.3046875,0.515625 -0.3164062,0.984375 h 0.75 c 0.058594,-0.5742188 0.3984375,-0.8320313 1.1015625,-0.8320313 0.6679684,0 1.0546874,0.2460938 1.0546874,0.6914063 v 0.1992187 c 0,0.3164063 -0.1875,0.4453125 -0.785156,0.515625 -1.0546877,0.140625 -1.2187502,0.1757813 -1.5000002,0.2929688 -0.5507812,0.2226562 -0.8320312,0.6445312 -0.8320312,1.2539062 0,0.85546876 0.5976562,1.39453126 1.546875,1.39453126 0.5859375,0 1.0664064,-0.2109374975 1.5937504,-0.69140625 0.04687,0.46875 0.28125,0.69140625 0.773437,0.69140625 0.152344,0 0.269531,-0.0234375 0.503906,-0.0820313 z M 10.789664,-1.4761484 c 0,0.2460937 -0.08203,0.3984375 -0.304687,0.60937496 -0.304688,0.28125 -0.6679692,0.421875 -1.1132817,0.421875 -0.5742187,0 -0.9140625,-0.28125 -0.9140625,-0.76171876 0,-0.4921875 0.328125,-0.7382812 1.125,-0.8554687 0.7851562,-0.1054688 0.9492192,-0.140625 1.2070312,-0.2578125 z m 2.841797,-3.2226563 h -0.75 V 4.140625e-4 h 0.75 z m 0,-1.8398437 h -0.761719 v 0.9492187 h 0.761719 z m 1.274414,1.8398437 V 4.140625e-4 h 0.75 V -2.5894297 c 0,-0.9609375 0.503906,-1.5820312 1.265625,-1.5820312 0.597656,0 0.972656,0.3515625 0.972656,0.9140625 V 4.140625e-4 h 0.75 V -3.5503672 c 0,-0.7734375 -0.585937,-1.2773437 -1.488281,-1.2773437 -0.703125,0 -1.148437,0.2695312 -1.570312,0.9140625 v -0.7851563 z m 0,0"
       style="fill:#000000;fill-opacity:1;fill-rule:nonzero;stroke:none"
       aria-label="Train"
       transform="matrix(1.3333333,0,0,1.3333333,14.688,96.198667)" />
    <path
       id="path22"
       d="m 1.6420469,-2.9779844 h 3.5625 v -0.7382812 h -3.5625 V -5.8022031 H 5.3334531 V -6.5404844 H 0.81001563 v 6.53906252 H 5.4975156 V -0.73970313 H 1.6420469 Z m 4.8193359,4.9335938 h 0.7617188 v -2.44921878 c 0.3867187,0.48046875 0.8320312,0.703125 1.4414062,0.703125 1.2070313,0 2.0039062,-0.984375 2.0039062,-2.48437502 0,-1.5703125 -0.7734374,-2.5546875 -2.0156249,-2.5546875 -0.6328125,0 -1.1484375,0.28125 -1.5,0.84375 V -4.7006406 H 6.4613828 Z m 2.0625,-6.09375 c 0.8320313,0 1.3710938,0.7265625 1.3710938,1.8515625 0,1.0664062 -0.5507813,1.79296872 -1.3710938,1.79296872 -0.7851562,0 -1.3007812,-0.71484372 -1.3007812,-1.81640622 0,-1.1015625 0.515625,-1.828125 1.3007812,-1.828125 z m 4.8808592,-0.6914063 c -1.3125,0 -2.109375,0.9375 -2.109375,2.5195313 0,1.57031247 0.785156,2.51953122 2.121094,2.51953122 1.3125,0 2.121094,-0.94921875 2.121094,-2.48437502 0,-1.6289062 -0.773438,-2.5546875 -2.132813,-2.5546875 z m 0.01172,0.6914063 c 0.84375,0 1.347656,0.6796875 1.347656,1.8515625 0,1.1015625 -0.527344,1.80468747 -1.347656,1.80468747 -0.832031,0 -1.347656,-0.69140627 -1.347656,-1.82812497 0,-1.1367188 0.515625,-1.828125 1.347656,-1.828125 z m 6.75293,1.0195312 c -0.03516,-0.4570312 -0.128907,-0.75 -0.304688,-1.0195312 -0.328125,-0.4335938 -0.890625,-0.6914063 -1.546875,-0.6914063 -1.265625,0 -2.085937,0.9960938 -2.085937,2.5546875 0,1.52343752 0.808593,2.48437502 2.074218,2.48437502 1.125,0 1.828125,-0.6796875 1.921875,-1.82812502 h -0.75 c -0.128906,0.76171877 -0.515625,1.13671877 -1.148437,1.13671877 -0.832031,0 -1.324219,-0.67968747 -1.324219,-1.79296877 0,-1.171875 0.492188,-1.8632812 1.300781,-1.8632812 0.632813,0 1.019532,0.3632812 1.113282,1.0195312 z m 0.896484,-3.421875 v 6.53906252 h 0.738281 V -2.5912656 c 0,-0.9609375 0.503907,-1.5820313 1.277344,-1.5820313 0.234375,0 0.480469,0.070312 0.65625,0.2109375 0.222656,0.1523438 0.304688,0.375 0.304688,0.703125 v 3.25781252 h 0.75 V -3.5522031 c 0,-0.7851563 -0.5625,-1.2773438 -1.476563,-1.2773438 -0.667969,0 -1.066406,0.1992188 -1.511719,0.7734375 v -2.484375 z m 0,0"
       style="fill:#000000;fill-opacity:1;fill-rule:nonzero;stroke:none"
       aria-label="Epoch"
       transform="matrix(1.3333333,0,0,1.3333333,6.4746667,129.02533)" />
    <path
       id="path23"
       d="M 0,81.12836 V 97.4565 H 49.60681 V 81.12836 Z"
       style="fill:#e6e6e6;fill-opacity:1;fill-rule:nonzero;stroke:#999999;stroke-width:0.49814;stroke-linecap:butt;stroke-linejoin:miter;stroke-miterlimit:10;stroke-dasharray:none;stroke-opacity:1"
       transform="matrix(1.3333333,0,0,-1.3333333,45.293333,143.032)" />
    <path
       id="path24"
       d="m 2.7059922,-5.1684922 c -1.453125,0 -2.43750001,1.078125 -2.43750001,2.6601563 0,1.59374996 0.98437501,2.67187496 2.44921871,2.67187496 0.609375,0 1.1601563,-0.1875 1.5820313,-0.5390625 0.5507812,-0.46875 0.8671875,-1.25390626 0.8671875,-2.08593746 0,-1.640625 -0.9609375,-2.7070313 -2.4609375,-2.7070313 z m 0,0.5742188 c 1.1015625,0 1.8164062,0.8320312 1.8164062,2.1210937 0,1.21875 -0.7265625,2.06250001 -1.8046875,2.06250001 -1.078125,0 -1.80468746,-0.84375001 -1.80468746,-2.09765621 0,-1.2539063 0.72656246,-2.0859375 1.79296876,-2.0859375 z m 3.09375,6.1171875 h 0.5859375 v -1.91015629 c 0.3046875,0.375 0.6445312,0.55078125 1.125,0.55078125 0.9375,0 1.5585937,-0.76171875 1.5585937,-1.93359376 0,-1.21875 -0.5976562,-1.9921875 -1.5703125,-1.9921875 -0.4921875,0 -0.890625,0.2226563 -1.1601562,0.65625 V -3.6567734 H 5.7997422 Z m 1.6054687,-4.734375 c 0.6445313,0 1.0546875,0.5625 1.0546875,1.4296875 0,0.83203121 -0.421875,1.39453121 -1.0546875,1.39453121 -0.609375,0 -1.0195312,-0.55078125 -1.0195312,-1.41796871 0,-0.8554688 0.4101562,-1.40625 1.0195312,-1.40625 z m 5.4726561,1.5820312 c 0,-0.5625 -0.03516,-0.890625 -0.140625,-1.171875 -0.234375,-0.5976562 -0.796875,-0.9609375 -1.476562,-0.9609375 -1.019532,0 -1.6757816,0.7851563 -1.6757816,1.9804688 0,1.20703121 0.6328126,1.94531246 1.6523436,1.94531246 0.84375,0 1.417969,-0.48046875 1.570313,-1.27734376 h -0.585938 c -0.164062,0.48046876 -0.492187,0.73828126 -0.960937,0.73828126 -0.363282,0 -0.679688,-0.1640625 -0.878907,-0.48046875 -0.140625,-0.19921871 -0.1875,-0.41015621 -0.1875,-0.77343751 z m -2.671875,-0.4804687 c 0.04687,-0.6679688 0.457031,-1.1132813 1.042969,-1.1132813 0.574219,0 1.007812,0.4804688 1.007812,1.078125 0,0.011719 0,0.023437 0,0.035156 z m 3.465821,-1.546875 V -5.234375e-4 H 14.25775 V -2.0161484 c 0,-0.75 0.386719,-1.2304688 0.984375,-1.2304688 0.457031,0 0.75,0.28125 0.75,0.7148438 v 2.5312499625 h 0.585938 V -2.7661484 c 0,-0.5976563 -0.457032,-0.9960938 -1.160157,-0.9960938 -0.539062,0 -0.890625,0.2109375 -1.21875,0.7265625 v -0.6210937 z m 7.130859,0.140625 v 3.5156249625 h 0.609375 V -4.9458359 h -0.398438 c -0.210937,0.7617187 -0.351562,0.8671875 -1.300781,0.984375 v 0.4453125 z m 0,0"
       style="fill:#000000;fill-opacity:1;fill-rule:nonzero;stroke:none"
       aria-label="Open1"
       transform="matrix(1.3333333,0,0,1.3333333,63.114667,26.418667)" />
    <path
       id="path25"
       d="m 49.60681,55.61623 v 16.32814 h 82.67806 V 55.61623 Z"
       style="fill:#d9f3fd;fill-opacity:1;fill-rule:nonzero;stroke:#006395;stroke-width:0.49814;stroke-linecap:butt;stroke-linejoin:miter;stroke-miterlimit:10;stroke-dasharray:none;stroke-opacity:1"
       transform="matrix(1.3333333,0,0,-1.3333333,45.293333,143.032)" />
    <path
       id="path26"
       d="m 1.2996562,-2.1899766 h 1.6640625 c 0.5859375,0 0.84375,0.28125 0.84375,0.9140625 L 3.79575,-0.83060156 c 0,0.31640625 0.058594,0.62109375 0.1523437,0.83203125 H 4.73325 v -0.1640625 C 4.4871562,-0.32669531 4.4402812,-0.50247656 4.4285625,-1.1821641 c -0.011719,-0.84375 -0.140625,-1.0898437 -0.6914063,-1.3242187 0.5742188,-0.28125 0.796875,-0.6328125 0.796875,-1.21875 0,-0.8789063 -0.5507812,-1.359375 -1.546875,-1.359375 H 0.64340625 V 0.00142969 H 1.2996562 Z m 0,-0.5742187 v -1.7460938 h 1.5703125 c 0.3515625,0 0.5625,0.058594 0.7265625,0.1992188 0.1757813,0.140625 0.2695313,0.375 0.2695313,0.6796875 0,0.5976562 -0.3164063,0.8671875 -0.9960938,0.8671875 z m 7.3095704,1.1367187 c 0,-0.5625 -0.035156,-0.890625 -0.140625,-1.171875 -0.234375,-0.5976562 -0.796875,-0.9609375 -1.4765625,-0.9609375 -1.0195313,0 -1.6757813,0.7851563 -1.6757813,1.9804688 0,1.20703124 0.6328125,1.94531249 1.6523438,1.94531249 0.84375,0 1.4179687,-0.48046875 1.5703125,-1.27734379 H 7.9529766 c -0.1640625,0.48046879 -0.4921875,0.73828129 -0.9609375,0.73828129 -0.3632813,0 -0.6796875,-0.1640625 -0.8789063,-0.48046875 -0.140625,-0.19921874 -0.1875,-0.41015624 -0.1875,-0.77343754 z m -2.671875,-0.4804687 c 0.046875,-0.6679688 0.4570312,-1.1132813 1.0429687,-1.1132813 0.5742188,0 1.0078125,0.4804688 1.0078125,1.078125 0,0.011719 0,0.023437 0,0.035156 z m 6.7031254,1.76953124 c -0.05859,0.0117188 -0.08203,0.0117188 -0.117188,0.0117188 -0.210937,0 -0.316406,-0.10546875 -0.316406,-0.28125 V -2.7641953 c 0,-0.6445313 -0.480469,-0.9960938 -1.371094,-0.9960938 -0.539062,0 -0.9726562,0.1523438 -1.2187499,0.4335938 -0.1640625,0.1875 -0.234375,0.3984375 -0.2460938,0.75 h 0.5859375 c 0.046875,-0.4453125 0.3046872,-0.6445313 0.8554692,-0.6445313 0.515625,0 0.808593,0.1992188 0.808593,0.5507813 v 0.1523437 c 0,0.234375 -0.140625,0.3398438 -0.597656,0.3984375 -0.832031,0.1054688 -0.949219,0.1289063 -1.1718749,0.2226563 -0.4335938,0.1757812 -0.6445313,0.5039062 -0.6445313,0.97265624 0,0.66796875 0.4570313,1.08984375 1.1953122,1.08984375 0.46875,0 0.832032,-0.1640625 1.242188,-0.5390625 0.04687,0.36328125 0.222656,0.5390625 0.597656,0.5390625 0.128906,0 0.210938,-0.0234375 0.398438,-0.0703125 z M 11.620945,-1.1470078 c 0,0.18749999 -0.04687,0.31640624 -0.222656,0.46874999 -0.234375,0.22265625 -0.527344,0.328125 -0.867187,0.328125 -0.457032,0 -0.7148442,-0.2109375 -0.7148442,-0.5859375 0,-0.37499999 0.2578122,-0.57421879 0.8789062,-0.66796879 0.609375,-0.082031 0.738281,-0.1054687 0.925781,-0.1992187 z m 4.625977,-3.9375 h -0.585938 v 1.8867187 c -0.246093,-0.3632812 -0.632812,-0.5625 -1.125,-0.5625 -0.949218,0 -1.570312,0.7617188 -1.570312,1.9335938 0,1.23046874 0.609375,1.99218749 1.59375,1.99218749 0.503906,0 0.855469,-0.1875 1.160156,-0.64453125 v 0.48046875 h 0.527344 z m -1.605469,1.875 c 0.621094,0 1.019531,0.5507812 1.019531,1.4296875 0,0.84374999 -0.398437,1.39453124 -1.019531,1.39453124 -0.632812,0 -1.066406,-0.5625 -1.066406,-1.41796874 0,-0.84375 0.433594,-1.40625 1.066406,-1.40625 z m 5.768555,-0.3046875 v 3.51562499 h 0.609375 V -4.9438828 h -0.398438 c -0.210937,0.7617187 -0.351562,0.8671875 -1.300781,0.984375 v 0.4453125 z m 0,0"
       style="fill:#000000;fill-opacity:1;fill-rule:nonzero;stroke:none"
       aria-label="Read1"
       transform="matrix(1.3333333,0,0,1.3333333,151.564,61.252)" />
    <path
       id="path27"
       d="m 132.28487,55.61623 v 16.32814 h 82.67805 V 55.61623 Z"
       style="fill:#d9f3fd;fill-opacity:1;fill-rule:nonzero;stroke:#006395;stroke-width:0.49814;stroke-linecap:butt;stroke-linejoin:miter;stroke-miterlimit:10;stroke-dasharray:none;stroke-opacity:1"
       transform="matrix(1.3333333,0,0,-1.3333333,45.293333,143.032)" />
    <path
       id="path28"
       d="m 1.3013672,-2.1899766 h 1.6640625 c 0.5859375,0 0.84375,0.28125 0.84375,0.9140625 l -0.011719,0.44531254 c 0,0.31640625 0.058594,0.62109375 0.1523438,0.83203125 h 0.7851562 v -0.1640625 C 4.4888672,-0.32669531 4.4419922,-0.50247656 4.4302734,-1.1821641 c -0.011719,-0.84375 -0.140625,-1.0898437 -0.6914062,-1.3242187 0.5742187,-0.28125 0.796875,-0.6328125 0.796875,-1.21875 0,-0.8789063 -0.5507813,-1.359375 -1.546875,-1.359375 H 0.64511719 V 0.00142969 H 1.3013672 Z m 0,-0.5742187 v -1.7460938 h 1.5703125 c 0.3515625,0 0.5625,0.058594 0.7265625,0.1992188 0.1757812,0.140625 0.2695312,0.375 0.2695312,0.6796875 0,0.5976562 -0.3164062,0.8671875 -0.9960937,0.8671875 z m 7.3066406,1.1367187 c 0,-0.5625 -0.035156,-0.890625 -0.140625,-1.171875 -0.234375,-0.5976562 -0.796875,-0.9609375 -1.4765625,-0.9609375 -1.0195312,0 -1.6757812,0.7851563 -1.6757812,1.9804688 0,1.20703124 0.6328125,1.94531249 1.6523437,1.94531249 0.84375,0 1.4179688,-0.48046875 1.5703125,-1.27734379 H 7.9517578 c -0.1640625,0.48046879 -0.4921875,0.73828129 -0.9609375,0.73828129 -0.3632812,0 -0.6796875,-0.1640625 -0.8789062,-0.48046875 -0.140625,-0.19921874 -0.1875,-0.41015624 -0.1875,-0.77343754 z m -2.671875,-0.4804687 c 0.046875,-0.6679688 0.4570313,-1.1132813 1.0429688,-1.1132813 0.5742187,0 1.0078125,0.4804688 1.0078125,1.078125 0,0.011719 0,0.023437 0,0.035156 z m 6.7031252,1.76953124 c -0.05859,0.0117188 -0.08203,0.0117188 -0.117188,0.0117188 -0.210937,0 -0.316406,-0.10546875 -0.316406,-0.28125 V -2.7641953 c 0,-0.6445313 -0.480469,-0.9960938 -1.371094,-0.9960938 -0.539062,0 -0.9726559,0.1523438 -1.2187497,0.4335938 -0.1640625,0.1875 -0.234375,0.3984375 -0.2460937,0.75 h 0.5859375 c 0.046875,-0.4453125 0.3046879,-0.6445313 0.8554689,-0.6445313 0.515625,0 0.808594,0.1992188 0.808594,0.5507813 v 0.1523437 c 0,0.234375 -0.140625,0.3398438 -0.597657,0.3984375 -0.832031,0.1054688 -0.949218,0.1289063 -1.1718747,0.2226563 -0.4335937,0.1757812 -0.6445312,0.5039062 -0.6445312,0.97265624 0,0.66796875 0.4570312,1.08984375 1.1953129,1.08984375 0.46875,0 0.832031,-0.1640625 1.242187,-0.5390625 0.04687,0.36328125 0.222656,0.5390625 0.597656,0.5390625 0.128907,0 0.210938,-0.0234375 0.398438,-0.0703125 z M 11.619727,-1.1470078 c 0,0.18749999 -0.04687,0.31640624 -0.222657,0.46874999 -0.234375,0.22265625 -0.527343,0.328125 -0.867187,0.328125 -0.457031,0 -0.7148439,-0.2109375 -0.7148439,-0.5859375 0,-0.37499999 0.2578129,-0.57421879 0.8789059,-0.66796879 0.609375,-0.082031 0.738282,-0.1054687 0.925782,-0.1992187 z m 4.625976,-3.9375 h -0.585937 v 1.8867187 c -0.246094,-0.3632812 -0.632813,-0.5625 -1.125,-0.5625 -0.949219,0 -1.570313,0.7617188 -1.570313,1.9335938 0,1.23046874 0.609375,1.99218749 1.59375,1.99218749 0.503906,0 0.855469,-0.1875 1.160156,-0.64453125 v 0.48046875 h 0.527344 z m -1.605469,1.875 c 0.621094,0 1.019532,0.5507812 1.019532,1.4296875 0,0.84374999 -0.398438,1.39453124 -1.019532,1.39453124 -0.632812,0 -1.066406,-0.5625 -1.066406,-1.41796874 0,-0.84375 0.433594,-1.40625 1.066406,-1.40625 z m 7.494141,2.60156249 h -2.601563 c 0.05859,-0.39843749 0.292969,-0.65624999 0.890625,-1.01953129 l 0.703125,-0.375 c 0.691407,-0.375 1.042969,-0.8789062 1.042969,-1.4882812 0,-0.4101563 -0.164062,-0.796875 -0.457031,-1.0664063 -0.292969,-0.2578125 -0.65625,-0.3867187 -1.125,-0.3867187 -0.632813,0 -1.089844,0.2226562 -1.371094,0.6445312 -0.175781,0.2578125 -0.246094,0.5742188 -0.257812,1.078125 h 0.609375 c 0.02344,-0.3398437 0.05859,-0.5390625 0.152343,-0.703125 0.152344,-0.3046875 0.480469,-0.4804687 0.84375,-0.4804687 0.5625,0 0.972657,0.3984375 0.972657,0.9257812 0,0.3867188 -0.222657,0.7265625 -0.667969,0.9726563 l -0.632813,0.3632812 C 19.204687,-1.5571641 18.9,-1.0884141 18.841406,0.00142969 h 3.292969 z m 0,0"
       style="fill:#000000;fill-opacity:1;fill-rule:nonzero;stroke:none"
       aria-label="Read2"
       transform="matrix(1.3333333,0,0,1.3333333,261.8,61.252)" />
    <path
       id="path29"
       d="m 214.96292,55.61623 v 16.32814 h 76.06381 V 55.61623 Z"
       style="fill:#d9f3fd;fill-opacity:1;fill-rule:nonzero;stroke:#006395;stroke-width:0.49814;stroke-linecap:butt;stroke-linejoin:miter;stroke-miterlimit:10;stroke-dasharray:none;stroke-opacity:1"
       transform="matrix(1.3333333,0,0,-1.3333333,45.293333,143.032)" />
    <path
       id="path30"
       d="m 1.2995312,-2.1912031 h 1.6640625 c 0.5859375,0 0.84375,0.28125 0.84375,0.9140625 l -0.011719,0.44531247 c 0,0.31640625 0.058594,0.62109375 0.1523437,0.832031255 H 4.733125 V -0.16385938 C 4.4870312,-0.32792188 4.4401562,-0.50370313 4.4284375,-1.1833906 c -0.011719,-0.84375 -0.140625,-1.0898438 -0.6914063,-1.3242188 0.5742188,-0.28125 0.796875,-0.6328125 0.796875,-1.21875 0,-0.8789062 -0.5507812,-1.359375 -1.546875,-1.359375 H 0.64328125 V 2.03125e-4 H 1.2995312 Z m 0,-0.5742188 v -1.7460937 h 1.5703125 c 0.3515625,0 0.5625,0.058594 0.7265625,0.1992187 0.1757813,0.140625 0.2695313,0.375 0.2695313,0.6796875 0,0.5976563 -0.3164063,0.8671875 -0.9960938,0.8671875 z m 7.3095704,1.1367188 c 0,-0.5625 -0.035156,-0.890625 -0.140625,-1.171875 -0.234375,-0.5976563 -0.796875,-0.9609375 -1.4765625,-0.9609375 -1.0195313,0 -1.6757813,0.7851562 -1.6757813,1.9804687 0,1.20703127 0.6328125,1.94531252 1.6523438,1.94531252 0.84375,0 1.4179687,-0.48046875 1.5703125,-1.27734372 H 7.9528516 c -0.1640625,0.48046872 -0.4921875,0.73828122 -0.9609375,0.73828122 -0.3632813,0 -0.6796875,-0.1640625 -0.8789063,-0.48046875 -0.140625,-0.19921877 -0.1875,-0.41015627 -0.1875,-0.77343747 z m -2.671875,-0.4804688 c 0.046875,-0.6679687 0.4570312,-1.1132812 1.0429687,-1.1132812 0.5742188,0 1.0078125,0.4804687 1.0078125,1.078125 0,0.011719 0,0.023437 0,0.035156 z m 6.7031254,1.76953127 c -0.05859,0.0117188 -0.08203,0.0117188 -0.117188,0.0117188 -0.210937,0 -0.316406,-0.10546875 -0.316406,-0.28125 V -2.7654219 c 0,-0.6445312 -0.480469,-0.9960937 -1.371094,-0.9960937 -0.539062,0 -0.9726562,0.1523437 -1.2187499,0.4335937 -0.1640625,0.1875 -0.234375,0.3984375 -0.2460938,0.75 h 0.5859375 c 0.046875,-0.4453125 0.3046872,-0.6445312 0.8554692,-0.6445312 0.515625,0 0.808593,0.1992187 0.808593,0.5507812 v 0.1523438 c 0,0.234375 -0.140625,0.3398437 -0.597656,0.3984375 -0.832031,0.1054687 -0.949219,0.1289062 -1.1718749,0.2226562 -0.4335938,0.1757813 -0.6445313,0.5039063 -0.6445313,0.97265627 0,0.66796875 0.4570313,1.08984375 1.1953122,1.08984375 0.46875,0 0.832032,-0.164062495 1.242188,-0.5390625 0.04687,0.36328125 0.222656,0.5390625 0.597656,0.5390625 0.128906,0 0.210938,-0.0234375 0.398438,-0.0703125 z M 11.62082,-1.1482344 c 0,0.18750002 -0.04687,0.31640627 -0.222656,0.46875002 -0.234375,0.22265625 -0.527344,0.328125 -0.867187,0.328125 -0.457032,0 -0.7148442,-0.2109375 -0.7148442,-0.5859375 0,-0.37500002 0.2578122,-0.57421872 0.8789062,-0.66796872 0.609375,-0.082031 0.738281,-0.1054688 0.925781,-0.1992188 z m 4.625977,-3.9375 h -0.585938 v 1.8867188 c -0.246093,-0.3632813 -0.632812,-0.5625 -1.125,-0.5625 -0.949218,0 -1.570312,0.7617187 -1.570312,1.9335937 0,1.23046877 0.609375,1.99218752 1.59375,1.99218752 0.503906,0 0.855469,-0.1875 1.160156,-0.64453125 V 2.03125e-4 h 0.527344 z m -1.605469,1.875 c 0.621094,0 1.019531,0.5507813 1.019531,1.4296875 0,0.84375002 -0.398437,1.39453127 -1.019531,1.39453127 -0.632812,0 -1.066406,-0.5625 -1.066406,-1.41796877 0,-0.84375 0.433594,-1.40625 1.066406,-1.40625 z m 5.493164,0.9492188 h 0.08203 l 0.257813,-0.011719 c 0.679687,0 1.03125,0.3046875 1.03125,0.9023438 0,0.62109372 -0.386719,0.98437497 -1.03125,0.98437497 -0.667969,0 -0.996094,-0.328125 -1.042969,-1.05468747 h -0.609375 c 0.02344,0.3984375 0.09375,0.65624997 0.210938,0.87890622 0.257812,0.48046875 0.75,0.7265625 1.417968,0.7265625 1.019532,0 1.675782,-0.609375 1.675782,-1.54687502 0,-0.6210937 -0.246094,-0.9726562 -0.832032,-1.171875 0.457032,-0.1875 0.691407,-0.5390625 0.691407,-1.03125 0,-0.84375 -0.574219,-1.359375 -1.511719,-1.359375 -0.996094,0 -1.523438,0.5507813 -1.546875,1.59375 h 0.609375 c 0.01172,-0.2929687 0.03516,-0.4570312 0.117187,-0.6210937 0.140625,-0.2695313 0.445313,-0.4335938 0.832032,-0.4335938 0.539062,0 0.867187,0.3164063 0.867187,0.84375 0,0.3515625 -0.128906,0.5625 -0.398437,0.6679688 -0.164063,0.070312 -0.386719,0.09375 -0.820313,0.1054687 z m 0,0"
       style="fill:#000000;fill-opacity:1;fill-rule:nonzero;stroke:none"
       aria-label="Read3"
       transform="matrix(1.3333333,0,0,1.3333333,367.62667,61.210667)" />
    <path
       id="path31"
       d="m 132.28487,30.10411 v 16.32814 h 82.67805 V 30.10411 Z"
       style="fill:#ddf2e5;fill-opacity:1;fill-rule:nonzero;stroke:#008f45;stroke-width:0.49814;stroke-linecap:butt;stroke-linejoin:miter;stroke-miterlimit:10;stroke-dasharray:none;stroke-opacity:1"
       transform="matrix(1.3333333,0,0,-1.3333333,45.293333,143.032)" />
    <path
       id="path32"
       d="M 2.4729922,-4.5105703 H 4.1370547 V -5.0847891 H 0.14096094 v 0.5742188 H 1.8167422 v 4.51171874 h 0.65625 z m 1.4326172,0.8554687 V 0.00114844 H 4.4915469 V -1.8972891 c 0,-0.515625 0.1289062,-0.8671875 0.4101562,-1.0664062 0.1875,-0.1289063 0.3515625,-0.1757813 0.7617188,-0.1757813 v -0.5976562 c -0.09375,-0.011719 -0.140625,-0.023437 -0.2226563,-0.023437 -0.375,0 -0.6679687,0.2226562 -0.9960937,0.7734375 v -0.6679688 z m 5.4990234,3.31640629 c -0.058594,0.0117188 -0.082031,0.0117188 -0.1171875,0.0117188 -0.2109375,0 -0.3164062,-0.10546875 -0.3164062,-0.28125 V -2.7644766 c 0,-0.6445312 -0.4804688,-0.9960937 -1.3710938,-0.9960937 -0.5390625,0 -0.9726562,0.1523437 -1.21875,0.4335937 -0.1640625,0.1875 -0.234375,0.3984375 -0.2460937,0.75 h 0.5859375 c 0.046875,-0.4453125 0.3046875,-0.6445312 0.8554687,-0.6445312 0.515625,0 0.8085938,0.1992187 0.8085938,0.5507812 v 0.1523438 c 0,0.234375 -0.140625,0.3398437 -0.5976563,0.3984375 -0.8320312,0.1054687 -0.9492187,0.1289062 -1.171875,0.2226562 -0.4335937,0.1757813 -0.6445312,0.5039063 -0.6445312,0.97265629 0,0.66796875 0.4570312,1.08984375 1.1953125,1.08984375 0.46875,0 0.8320312,-0.1640625 1.2421875,-0.5390625 0.046875,0.36328125 0.2226562,0.5390625 0.5976562,0.5390625 0.1289063,0 0.2109375,-0.0234375 0.3984375,-0.0703125 z M 8.3851016,-1.1472891 c 0,0.18750004 -0.046875,0.31640629 -0.2226563,0.46875004 -0.234375,0.22265625 -0.5273437,0.328125 -0.8671875,0.328125 -0.4570312,0 -0.7148437,-0.2109375 -0.7148437,-0.5859375 0,-0.37500004 0.2578125,-0.57421874 0.8789062,-0.66796874 0.609375,-0.082031 0.7382813,-0.1054688 0.9257813,-0.1992188 z m 2.2119144,-2.5078125 h -0.574219 v 3.65625004 h 0.574219 z m 0,-1.4296875 h -0.585938 v 0.7382813 h 0.585938 z m 0.996093,1.4296875 v 3.65625004 h 0.585938 V -2.0144766 c 0,-0.75 0.386719,-1.2304687 0.984375,-1.2304687 0.457031,0 0.75,0.28125 0.75,0.7148437 v 2.53125004 h 0.585937 V -2.7644766 c 0,-0.5976562 -0.457031,-0.9960937 -1.160156,-0.9960937 -0.539062,0 -0.890625,0.2109375 -1.21875,0.7265625 v -0.6210938 z m 7.122071,0.140625 v 3.51562504 h 0.609375 V -4.9441641 h -0.398438 c -0.210937,0.7617188 -0.351562,0.8671875 -1.300781,0.984375 v 0.4453125 z m 0,0"
       style="fill:#000000;fill-opacity:1;fill-rule:nonzero;stroke:none"
       aria-label="Train1"
       transform="matrix(1.3333333,0,0,1.3333333,262.92533,95.268)" />
    <path
       id="path33"
       d="m 214.96292,30.10411 v 16.32814 h 76.06381 V 30.10411 Z"
       style="fill:#ddf2e5;fill-opacity:1;fill-rule:nonzero;stroke:#008f45;stroke-width:0.49814;stroke-linecap:butt;stroke-linejoin:miter;stroke-miterlimit:10;stroke-dasharray:none;stroke-opacity:1"
       transform="matrix(1.3333333,0,0,-1.3333333,45.293333,143.032)" />
    <path
       id="path34"
       d="M 2.4740859,-4.5105703 H 4.1381484 V -5.0847891 H 0.14205469 v 0.5742188 H 1.8178359 v 4.51171874 h 0.65625 z m 1.4296875,0.8554687 V 0.00114844 H 4.4897109 V -1.8972891 c 0,-0.515625 0.1289063,-0.8671875 0.4101563,-1.0664062 0.1875,-0.1289063 0.3515625,-0.1757813 0.7617187,-0.1757813 v -0.5976562 c -0.09375,-0.011719 -0.140625,-0.023437 -0.2226562,-0.023437 -0.375,0 -0.6679688,0.2226562 -0.9960938,0.7734375 v -0.6679688 z m 5.4990235,3.31640629 c -0.058594,0.0117188 -0.082031,0.0117188 -0.1171875,0.0117188 -0.2109375,0 -0.3164063,-0.10546875 -0.3164063,-0.28125 V -2.7644766 c 0,-0.6445312 -0.4804687,-0.9960937 -1.3710937,-0.9960937 -0.5390625,0 -0.9726563,0.1523437 -1.21875,0.4335937 -0.1640625,0.1875 -0.234375,0.3984375 -0.2460938,0.75 h 0.5859375 c 0.046875,-0.4453125 0.3046875,-0.6445312 0.8554688,-0.6445312 0.515625,0 0.8085937,0.1992187 0.8085937,0.5507812 v 0.1523438 c 0,0.234375 -0.140625,0.3398437 -0.5976562,0.3984375 -0.8320313,0.1054687 -0.9492188,0.1289062 -1.171875,0.2226562 -0.4335938,0.1757813 -0.6445313,0.5039063 -0.6445313,0.97265629 0,0.66796875 0.4570313,1.08984375 1.1953125,1.08984375 0.46875,0 0.8320313,-0.1640625 1.2421875,-0.5390625 0.046875,0.36328125 0.2226563,0.5390625 0.5976563,0.5390625 0.1289062,0 0.2109375,-0.0234375 0.3984375,-0.0703125 z M 8.3832656,-1.1472891 c 0,0.18750004 -0.046875,0.31640629 -0.2226562,0.46875004 -0.234375,0.22265625 -0.5273438,0.328125 -0.8671875,0.328125 -0.4570313,0 -0.7148438,-0.2109375 -0.7148438,-0.5859375 0,-0.37500004 0.2578125,-0.57421874 0.8789063,-0.66796874 0.609375,-0.082031 0.7382812,-0.1054688 0.9257812,-0.1992188 z m 2.2148434,-2.5078125 h -0.574218 v 3.65625004 h 0.574218 z m 0,-1.4296875 h -0.585937 v 0.7382813 h 0.585937 z m 0.996094,1.4296875 v 3.65625004 h 0.585938 V -2.0144766 c 0,-0.75 0.386718,-1.2304687 0.984375,-1.2304687 0.457031,0 0.75,0.28125 0.75,0.7148437 v 2.53125004 h 0.585937 V -2.7644766 c 0,-0.5976562 -0.457031,-0.9960937 -1.160156,-0.9960937 -0.539063,0 -0.890625,0.2109375 -1.21875,0.7265625 v -0.6210938 z m 8.844727,3.04687504 h -2.601563 c 0.05859,-0.39843754 0.292969,-0.65625004 0.890625,-1.01953124 l 0.703125,-0.375 c 0.691406,-0.375 1.042969,-0.8789063 1.042969,-1.4882813 0,-0.4101562 -0.164063,-0.796875 -0.457031,-1.0664062 -0.292969,-0.2578125 -0.65625,-0.3867188 -1.125,-0.3867188 -0.632813,0 -1.089844,0.2226563 -1.371094,0.6445313 -0.175781,0.2578125 -0.246094,0.5742187 -0.257813,1.078125 h 0.609375 c 0.02344,-0.3398438 0.05859,-0.5390625 0.152344,-0.703125 0.152344,-0.3046875 0.480469,-0.4804688 0.84375,-0.4804688 0.5625,0 0.972656,0.3984375 0.972656,0.9257813 0,0.3867187 -0.222656,0.7265625 -0.667968,0.9726562 l -0.632813,0.3632813 c -1.03125,0.5859375 -1.335937,1.0546875 -1.394531,2.14453124 h 3.292969 z m 0,0"
       style="fill:#000000;fill-opacity:1;fill-rule:nonzero;stroke:none"
       aria-label="Train2"
       transform="matrix(1.3333333,0,0,1.3333333,368.752,95.268)" />
    <path
       id="path35"
       d="m 291.02673,30.10411 v 16.32814 h 72.75669 V 30.10411 Z"
       style="fill:#ddf2e5;fill-opacity:1;fill-rule:nonzero;stroke:#008f45;stroke-width:0.49814;stroke-linecap:butt;stroke-linejoin:miter;stroke-miterlimit:10;stroke-dasharray:none;stroke-opacity:1"
       transform="matrix(1.3333333,0,0,-1.3333333,45.293333,143.032)" />
    <path
       id="path36"
       d="M 2.4732891,-4.5107969 H 4.1373516 V -5.0850156 H 0.14125781 v 0.5742187 H 1.8170391 V 9.21875e-4 h 0.65625 z m 1.4326171,0.8554688 V 9.21875e-4 H 4.4918437 V -1.8975156 c 0,-0.515625 0.1289063,-0.8671875 0.4101563,-1.0664063 0.1875,-0.1289062 0.3515625,-0.1757812 0.7617187,-0.1757812 v -0.5976563 c -0.09375,-0.011719 -0.140625,-0.023437 -0.2226562,-0.023437 -0.375,0 -0.6679688,0.2226563 -0.9960938,0.7734375 V -3.6553281 Z M 9.402,-0.33892188 c -0.058594,0.0117188 -0.082031,0.0117188 -0.1171875,0.0117188 -0.2109375,0 -0.3164063,-0.10546875 -0.3164063,-0.28125 V -2.7647031 c 0,-0.6445313 -0.4804687,-0.9960938 -1.3710937,-0.9960938 -0.5390625,0 -0.9726563,0.1523438 -1.21875,0.4335938 -0.1640625,0.1875 -0.234375,0.3984375 -0.2460938,0.75 h 0.5859375 c 0.046875,-0.4453125 0.3046875,-0.6445313 0.8554688,-0.6445313 0.515625,0 0.8085937,0.1992188 0.8085937,0.5507813 v 0.1523437 c 0,0.234375 -0.140625,0.3398438 -0.5976562,0.3984375 -0.8320313,0.1054688 -0.9492188,0.1289063 -1.171875,0.2226563 -0.4335938,0.1757812 -0.6445313,0.5039062 -0.6445313,0.97265622 0,0.66796875 0.4570313,1.08984375 1.1953125,1.08984375 0.46875,0 0.8320313,-0.164062495 1.2421875,-0.5390625 0.046875,0.36328125 0.2226563,0.5390625 0.5976563,0.5390625 0.1289062,0 0.2109375,-0.0234375 0.3984375,-0.0703125 z M 8.3824687,-1.1475156 c 0,0.18749997 -0.046875,0.31640622 -0.2226562,0.46874997 -0.234375,0.22265625 -0.5273438,0.328125 -0.8671875,0.328125 -0.4570313,0 -0.7148438,-0.2109375 -0.7148438,-0.5859375 0,-0.37499997 0.2578125,-0.57421877 0.8789063,-0.66796877 0.609375,-0.082031 0.7382812,-0.1054687 0.9257812,-0.1992187 z M 10.597312,-3.6553281 H 10.023094 V 9.21875e-4 h 0.574218 z m 0,-1.4296875 h -0.585937 v 0.7382812 h 0.585937 z m 0.996094,1.4296875 V 9.21875e-4 h 0.585938 V -2.0147031 c 0,-0.75 0.386718,-1.2304688 0.984375,-1.2304688 0.457031,0 0.75,0.28125 0.75,0.7148438 V 9.21875e-4 h 0.585937 V -2.7647031 c 0,-0.5976563 -0.457031,-0.9960938 -1.160156,-0.9960938 -0.539063,0 -0.890625,0.2109375 -1.21875,0.7265625 v -0.6210937 z m 6.861328,1.3945312 h 0.08203 l 0.257812,-0.011719 c 0.679688,0 1.03125,0.3046875 1.03125,0.9023437 0,0.62109377 -0.386719,0.98437502 -1.03125,0.98437502 -0.667969,0 -0.996094,-0.328125 -1.042969,-1.05468752 h -0.609375 c 0.02344,0.3984375 0.09375,0.65625002 0.210938,0.87890627 0.257812,0.48046875 0.75,0.7265625 1.417969,0.7265625 1.019531,0 1.675781,-0.609375 1.675781,-1.54687497 0,-0.6210938 -0.246094,-0.9726563 -0.832031,-1.171875 0.457031,-0.1875 0.691406,-0.5390625 0.691406,-1.03125 0,-0.84375 -0.574219,-1.359375 -1.511719,-1.359375 -0.996094,0 -1.523437,0.5507812 -1.546875,1.59375 h 0.609375 c 0.01172,-0.2929688 0.03516,-0.4570313 0.117188,-0.6210938 0.140625,-0.2695312 0.445312,-0.4335937 0.832031,-0.4335937 0.539062,0 0.867187,0.3164062 0.867187,0.84375 0,0.3515625 -0.128906,0.5625 -0.398437,0.6679687 -0.164063,0.070312 -0.386719,0.09375 -0.820313,0.1054688 z m 0,0"
       style="fill:#000000;fill-opacity:1;fill-rule:nonzero;stroke:none"
       aria-label="Train3"
       transform="matrix(1.3333333,0,0,1.3333333,467.964,95.225333)" />
    <path
       id="path37"
       d="M 0,4.59198 V 20.92012 H 363.78342 V 4.59198 Z"
       style="fill:#fff2e6;fill-opacity:1;fill-rule:nonzero;stroke:#cc5500;stroke-width:0.49814;stroke-linecap:butt;stroke-linejoin:miter;stroke-miterlimit:10;stroke-dasharray:none;stroke-opacity:1"
       transform="matrix(1.3333333,0,0,-1.3333333,45.293333,143.032)" />
    <path
       id="path38"
       d="m 1.2775391,-2.3206797 h 2.765625 v -0.5625 H 1.2775391 V -4.5120859 H 4.1486328 V -5.0863047 H 0.63300781 V -3.671875e-4 H 4.2775391 V -0.57458594 h -3 z m 3.75,3.84375 h 0.5859375 v -1.91015624 c 0.3046875,0.375 0.6445312,0.55078125 1.125,0.55078125 0.9375,0 1.5585937,-0.76171875 1.5585937,-1.93359371 0,-1.21875 -0.5976562,-1.9921875 -1.5703125,-1.9921875 -0.4921875,0 -0.890625,0.2226562 -1.1601562,0.65625 V -3.6566172 H 5.0275391 Z m 1.6054687,-4.734375 c 0.6445313,0 1.0546875,0.5625 1.0546875,1.4296875 0,0.83203126 -0.421875,1.39453126 -1.0546875,1.39453126 -0.609375,0 -1.0195312,-0.55078125 -1.0195312,-1.41796876 0,-0.8554687 0.4101562,-1.40625 1.0195312,-1.40625 z m 3.7939452,-0.5507812 c -1.0312499,0 -1.6523436,0.7382812 -1.6523436,1.9570312 0,1.23046876 0.6210937,1.96875001 1.6523436,1.96875001 1.03125,0 1.652344,-0.73828125 1.652344,-1.93359371 0,-1.265625 -0.597656,-1.9921875 -1.652344,-1.9921875 z m 0,0.5390625 c 0.65625,0 1.054688,0.5390625 1.054688,1.4414062 0,0.85546876 -0.410157,1.40625001 -1.054688,1.40625001 -0.6445311,0 -1.0429686,-0.5390625 -1.0429686,-1.42968751 0,-0.8671875 0.3984375,-1.4179687 1.0429686,-1.4179687 z m 5.261719,0.796875 c -0.02344,-0.3515625 -0.105469,-0.5859375 -0.246094,-0.7851563 -0.246094,-0.3398437 -0.679687,-0.5507812 -1.195312,-0.5507812 -0.984375,0 -1.628907,0.7851562 -1.628907,1.9921875 0,1.18359371 0.632813,1.93359371 1.617188,1.93359371 0.878906,0 1.429687,-0.52734375 1.5,-1.41796871 h -0.585938 c -0.09375,0.58593746 -0.398437,0.87890621 -0.890625,0.87890621 -0.644531,0 -1.03125,-0.52734375 -1.03125,-1.39453121 0,-0.9023438 0.375,-1.453125 1.007813,-1.453125 0.492187,0 0.796875,0.2929687 0.867187,0.796875 z m 0.697266,-2.6601563 v 5.0859375125 h 0.574218 V -2.0159922 c 0,-0.75 0.386719,-1.2304687 0.996094,-1.2304687 0.1875,0 0.375,0.058594 0.515625,0.1640625 0.164063,0.1171875 0.234375,0.2929687 0.234375,0.5507812 v 2.5312500125 h 0.574219 V -2.7659922 c 0,-0.609375 -0.433594,-0.9960937 -1.148438,-0.9960937 -0.515625,0 -0.832031,0.1640625 -1.171875,0.609375 v -1.9335938 z m 6.442382,2.4492188 c -0.01172,-0.7148438 -0.480468,-1.125 -1.324218,-1.125 -0.855469,0 -1.40625,0.4453125 -1.40625,1.1132812 0,0.5742188 0.292968,0.84375 1.160156,1.0546875 l 0.539062,0.140625 c 0.410157,0.09375 0.5625,0.234375 0.5625,0.50390626 0,0.33984375 -0.339843,0.57421875 -0.84375,0.57421875 -0.316406,0 -0.585937,-0.09375 -0.726562,-0.24609375 -0.09375,-0.10546875 -0.128906,-0.2109375 -0.164063,-0.46874996 h -0.621093 c 0.03516,0.84374996 0.503906,1.25390621 1.464843,1.25390621 0.914063,0 1.5,-0.45703125 1.5,-1.16015625 0,-0.53906246 -0.304687,-0.84374996 -1.03125,-1.01953126 l -0.5625,-0.1289062 c -0.46875,-0.1171875 -0.667968,-0.2695313 -0.667968,-0.5273438 0,-0.328125 0.292968,-0.5507812 0.773437,-0.5507812 0.46875,0 0.714844,0.1992187 0.726563,0.5859375 z m 4.007813,-2.4492188 c -0.691406,0.9140625 -1.136719,2.1796875 -1.136719,3.28125 0,1.10156251 0.445313,2.36718751 1.136719,3.28125 h 0.386719 c -0.609375,-0.99609374 -0.949219,-2.16796874 -0.949219,-3.28125 0,-1.1132812 0.339844,-2.2851562 0.949219,-3.28125 z m 3.389648,-0.082031 c -1.453125,0 -2.4375,1.078125 -2.4375,2.6601562 0,1.59375001 0.984375,2.67187501 2.449219,2.67187501 0.609375,0 1.160156,-0.1875 1.582031,-0.5390625 0.550782,-0.46875 0.867188,-1.25390621 0.867188,-2.08593751 0,-1.640625 -0.960938,-2.7070312 -2.460938,-2.7070312 z m 0,0.5742187 c 1.101563,0 1.816407,0.8320313 1.816407,2.1210938 0,1.21875 -0.726563,2.06249996 -1.804688,2.06249996 -1.078125,0 -1.804687,-0.84374996 -1.804687,-2.09765626 0,-1.2539062 0.726562,-2.0859375 1.792968,-2.0859375 z M 34.936719,-3.671875e-4 36.33125,-3.6566172 H 35.675 l -1.03125,2.96484376 -0.972656,-2.96484376 h -0.65625 l 1.277344,3.6562500125 z M 39.832227,-1.6292734 c 0,-0.5625 -0.03516,-0.890625 -0.140625,-1.171875 -0.234375,-0.5976563 -0.796875,-0.9609375 -1.476563,-0.9609375 -1.019531,0 -1.675781,0.7851562 -1.675781,1.9804687 0,1.20703126 0.632812,1.94531251 1.652344,1.94531251 0.84375,0 1.417968,-0.48046875 1.570312,-1.27734371 h -0.585937 c -0.164063,0.48046871 -0.492188,0.73828121 -0.960938,0.73828121 -0.363281,0 -0.679687,-0.1640625 -0.878906,-0.48046875 -0.140625,-0.19921876 -0.1875,-0.41015626 -0.1875,-0.77343746 z m -2.671875,-0.4804688 c 0.04687,-0.6679687 0.457031,-1.1132812 1.042968,-1.1132812 0.574219,0 1.007813,0.4804687 1.007813,1.078125 0,0.011719 0,0.023437 0,0.035156 z m 3.454101,-1.546875 v 3.6562500125 h 0.585938 V -1.8988047 c 0,-0.515625 0.128906,-0.8671875 0.410156,-1.0664062 0.1875,-0.1289063 0.351562,-0.1757813 0.761719,-0.1757813 v -0.5976562 c -0.09375,-0.011719 -0.140625,-0.023437 -0.222657,-0.023437 -0.375,0 -0.667968,0.2226562 -0.996093,0.7734375 v -0.6679688 z m 2.994141,-1.4296875 h -0.585938 v 5.0859375125 h 0.585938 z m 4.221679,4.74609376 c -0.05859,0.0117188 -0.08203,0.0117188 -0.117187,0.0117188 -0.210938,0 -0.316406,-0.10546875 -0.316406,-0.28125 V -2.7659922 c 0,-0.6445312 -0.480469,-0.9960937 -1.371094,-0.9960937 -0.539063,0 -0.972656,0.1523437 -1.21875,0.4335937 -0.164063,0.1875 -0.234375,0.3984375 -0.246094,0.75 h 0.585938 c 0.04687,-0.4453125 0.304687,-0.6445312 0.855468,-0.6445312 0.515625,0 0.808594,0.1992187 0.808594,0.5507812 v 0.1523438 c 0,0.234375 -0.140625,0.3398437 -0.597656,0.3984375 -0.832031,0.1054687 -0.949219,0.1289062 -1.171875,0.2226562 -0.433594,0.1757813 -0.644531,0.5039063 -0.644531,0.97265626 0,0.66796875 0.457031,1.08984375 1.195312,1.08984375 0.46875,0 0.832031,-0.1640624975 1.242188,-0.5390625 0.04687,0.36328125 0.222656,0.5390625 0.597656,0.5390625 0.128906,0 0.210937,-0.0234375 0.398437,-0.0703125 z M 46.810742,-1.1488047 c 0,0.18750001 -0.04687,0.31640626 -0.222656,0.46875001 -0.234375,0.22265625 -0.527344,0.328125 -0.867188,0.328125 -0.457031,0 -0.714843,-0.2109375 -0.714843,-0.5859375 0,-0.37500001 0.257812,-0.57421871 0.878906,-0.66796871 0.609375,-0.082031 0.738281,-0.1054688 0.925781,-0.1992188 z m 1.543946,2.671875 h 0.585937 v -1.91015624 c 0.304688,0.375 0.644531,0.55078125 1.125,0.55078125 0.9375,0 1.558594,-0.76171875 1.558594,-1.93359371 0,-1.21875 -0.597656,-1.9921875 -1.570313,-1.9921875 -0.492187,0 -0.890625,0.2226562 -1.160156,0.65625 v -0.5507813 h -0.539062 z m 1.605468,-4.734375 c 0.644532,0 1.054688,0.5625 1.054688,1.4296875 0,0.83203126 -0.421875,1.39453126 -1.054688,1.39453126 -0.609375,0 -1.019531,-0.55078125 -1.019531,-1.41796876 0,-0.8554687 0.410156,-1.40625 1.019531,-1.40625 z m 2.273438,4.734375 h 0.585937 v -1.91015624 c 0.304688,0.375 0.644532,0.55078125 1.125,0.55078125 0.9375,0 1.558594,-0.76171875 1.558594,-1.93359371 0,-1.21875 -0.597656,-1.9921875 -1.570312,-1.9921875 -0.492188,0 -0.890625,0.2226562 -1.160157,0.65625 v -0.5507813 h -0.539062 z m 1.605469,-4.734375 c 0.644531,0 1.054687,0.5625 1.054687,1.4296875 0,0.83203126 -0.421875,1.39453126 -1.054687,1.39453126 -0.609375,0 -1.019532,-0.55078125 -1.019532,-1.41796876 0,-0.8554687 0.410157,-1.40625 1.019532,-1.40625 z m 5.469726,1.5820313 c 0,-0.5625 -0.03516,-0.890625 -0.140625,-1.171875 -0.234375,-0.5976563 -0.796875,-0.9609375 -1.476562,-0.9609375 -1.019532,0 -1.675782,0.7851562 -1.675782,1.9804687 0,1.20703126 0.632813,1.94531251 1.652344,1.94531251 0.84375,0 1.417969,-0.48046875 1.570313,-1.27734371 h -0.585938 c -0.164062,0.48046871 -0.492187,0.73828121 -0.960937,0.73828121 -0.363282,0 -0.679688,-0.1640625 -0.878907,-0.48046875 -0.140625,-0.19921876 -0.1875,-0.41015626 -0.1875,-0.77343746 z m -2.671875,-0.4804688 c 0.04687,-0.6679687 0.457031,-1.1132812 1.042969,-1.1132812 0.574219,0 1.007812,0.4804687 1.007812,1.078125 0,0.011719 0,0.023437 0,0.035156 z m 6.433594,-2.9765625 H 62.48457 v 1.8867188 c -0.246093,-0.3632813 -0.632812,-0.5625 -1.125,-0.5625 -0.949218,0 -1.570312,0.7617187 -1.570312,1.9335937 0,1.23046876 0.609375,1.99218751 1.59375,1.99218751 0.503906,0 0.855469,-0.1875 1.160156,-0.64453125 v 0.4804687525 h 0.527344 z m -1.605469,1.875 c 0.621094,0 1.019531,0.5507813 1.019531,1.4296875 0,0.84375001 -0.398437,1.39453126 -1.019531,1.39453126 -0.632812,0 -1.066406,-0.5625 -1.066406,-1.41796876 0,-0.84375 0.433594,-1.40625 1.066406,-1.40625 z m 2.668945,4.6875 c 0.703125,-0.91406249 1.136719,-2.17968749 1.136719,-3.28125 0,-1.1015625 -0.433594,-2.3671875 -1.136719,-3.28125 h -0.375 c 0.609375,0.9960938 0.949219,2.1679688 0.949219,3.28125 0,1.11328126 -0.339844,2.29687501 -0.949219,3.28125 z m 0,0"
       style="fill:#000000;fill-opacity:1;fill-rule:nonzero;stroke:none"
       aria-label="Epochs(Overlapped)"
       transform="matrix(1.3333333,0,0,1.3333333,243.93333,128.46533)" />
    <path
       id="path39"
       d="m 3.5988594,-2.2252656 c 0,-0.7617188 -0.09375,-1.3125 -0.4101563,-1.8046875 -0.2226562,-0.3164063 -0.6445312,-0.5976563 -1.2070312,-0.5976563 -1.61718753,0 -1.61718753,1.8984375 -1.61718753,2.4023438 0,0.5039062 0,2.36718747 1.61718753,2.36718747 1.6171875,0 1.6171875,-1.86328127 1.6171875,-2.36718747 z m -0.6328125,-0.09375 c 0,0.515625 0,1.0429687 -0.09375,1.47656247 -0.140625,0.6328125 -0.609375,0.78515625 -0.890625,0.78515625 -0.3164063,0 -0.75,-0.1875 -0.890625,-0.76171875 -0.09375,-0.41015627 -0.09375,-0.98437497 -0.09375,-1.49999997 0,-0.5039063 0,-1.03125 0.1054687,-1.4179688 0.1523438,-0.5507812 0.5976563,-0.6914062 0.8789063,-0.6914062 0.375,0 0.7382812,0.2226562 0.8671875,0.6328125 0.1054687,0.375 0.1171875,0.8789062 0.1171875,1.4765625 z m 4.5996093,0.09375 c 0,-0.7617188 -0.09375,-1.3125 -0.4101562,-1.8046875 -0.2226563,-0.3164063 -0.6445313,-0.5976563 -1.2070313,-0.5976563 -1.6171875,0 -1.6171875,1.8984375 -1.6171875,2.4023438 0,0.5039062 0,2.36718747 1.6171875,2.36718747 1.6171875,0 1.6171875,-1.86328127 1.6171875,-2.36718747 z m -0.6328125,-0.09375 c 0,0.515625 0,1.0429687 -0.09375,1.47656247 -0.140625,0.6328125 -0.609375,0.78515625 -0.890625,0.78515625 -0.3164062,0 -0.75,-0.1875 -0.890625,-0.76171875 -0.09375,-0.41015627 -0.09375,-0.98437497 -0.09375,-1.49999997 0,-0.5039063 0,-1.03125 0.1054688,-1.4179688 0.1523437,-0.5507812 0.5976562,-0.6914062 0.8789062,-0.6914062 0.375,0 0.7382813,0.2226562 0.8671875,0.6328125 0.1054688,0.375 0.1171875,0.8789062 0.1171875,1.4765625 z m 2.5253907,-0.28125 c 0,-0.2460938 -0.1875,-0.3984375 -0.3984375,-0.3984375 -0.234375,0 -0.3984375,0.1875 -0.3984375,0.3867187 0,0.2460938 0.1992187,0.4101563 0.3984375,0.4101563 0.2460937,0 0.3984375,-0.1992188 0.3984375,-0.3984375 z m 0,2.20312497 c 0,-0.24609375 -0.1875,-0.3984375 -0.3984375,-0.3984375 -0.234375,0 -0.3984375,0.1875 -0.3984375,0.38671875 0,0.24609375 0.1992187,0.41015625 0.3984375,0.41015625 0.2460937,0 0.3984375,-0.19921875 0.3984375,-0.3984375 z M 13.785383,-2.2252656 c 0,-0.7617188 -0.09375,-1.3125 -0.410156,-1.8046875 -0.222657,-0.3164063 -0.644532,-0.5976563 -1.207032,-0.5976563 -1.617187,0 -1.617187,1.8984375 -1.617187,2.4023438 0,0.5039062 0,2.36718747 1.617187,2.36718747 1.617188,0 1.617188,-1.86328127 1.617188,-2.36718747 z m -0.632813,-0.09375 c 0,0.515625 0,1.0429687 -0.09375,1.47656247 -0.140625,0.6328125 -0.609375,0.78515625 -0.890625,0.78515625 -0.316406,0 -0.75,-0.1875 -0.890625,-0.76171875 -0.09375,-0.41015627 -0.09375,-0.98437497 -0.09375,-1.49999997 0,-0.5039063 0,-1.03125 0.105469,-1.4179688 0.152344,-0.5507812 0.597656,-0.6914062 0.878906,-0.6914062 0.375,0 0.738282,0.2226562 0.867188,0.6328125 0.105469,0.375 0.117187,0.8789062 0.117187,1.4765625 z m 4.602539,0.09375 c 0,-0.7617188 -0.09375,-1.3125 -0.410156,-1.8046875 -0.222656,-0.3164063 -0.644531,-0.5976563 -1.207031,-0.5976563 -1.617188,0 -1.617188,1.8984375 -1.617188,2.4023438 0,0.5039062 0,2.36718747 1.617188,2.36718747 1.617187,0 1.617187,-1.86328127 1.617187,-2.36718747 z m -0.632812,-0.09375 c 0,0.515625 0,1.0429687 -0.09375,1.47656247 -0.140625,0.6328125 -0.609375,0.78515625 -0.890625,0.78515625 -0.316406,0 -0.75,-0.1875 -0.890625,-0.76171875 -0.09375,-0.41015627 -0.09375,-0.98437497 -0.09375,-1.49999997 0,-0.5039063 0,-1.03125 0.105469,-1.4179688 0.152343,-0.5507812 0.597656,-0.6914062 0.878906,-0.6914062 0.375,0 0.738281,0.2226562 0.867187,0.6328125 0.105469,0.375 0.117188,0.8789062 0.117188,1.4765625 z m 0,0"
       style="fill:#000000;fill-opacity:1;fill-rule:nonzero;stroke:none"
       aria-label="00:00"
       transform="matrix(1.3333333,0,0,1.3333333,33.209333,166.03733)" />
    <path
       id="path40"
       d="m 3.5967969,-2.2252656 c 0,-0.7617188 -0.09375,-1.3125 -0.4101563,-1.8046875 -0.2226562,-0.3164063 -0.6445312,-0.5976563 -1.2070312,-0.5976563 -1.61718752,0 -1.61718752,1.8984375 -1.61718752,2.4023438 0,0.5039062 0,2.36718747 1.61718752,2.36718747 1.6171875,0 1.6171875,-1.86328127 1.6171875,-2.36718747 z m -0.6328125,-0.09375 c 0,0.515625 0,1.0429687 -0.09375,1.47656247 -0.140625,0.6328125 -0.609375,0.78515625 -0.890625,0.78515625 -0.3164063,0 -0.75,-0.1875 -0.890625,-0.76171875 -0.09375,-0.41015627 -0.09375,-0.98437497 -0.09375,-1.49999997 0,-0.5039063 0,-1.03125 0.1054687,-1.4179688 0.1523438,-0.5507812 0.5976563,-0.6914062 0.8789063,-0.6914062 0.375,0 0.7382812,0.2226562 0.8671875,0.6328125 0.1054687,0.375 0.1171875,0.8789062 0.1171875,1.4765625 z m 4.602539,0.09375 c 0,-0.7617188 -0.09375,-1.3125 -0.4101562,-1.8046875 -0.2226563,-0.3164063 -0.6445313,-0.5976563 -1.2070313,-0.5976563 -1.6171875,0 -1.6171875,1.8984375 -1.6171875,2.4023438 0,0.5039062 0,2.36718747 1.6171875,2.36718747 1.6171875,0 1.6171875,-1.86328127 1.6171875,-2.36718747 z m -0.6328125,-0.09375 c 0,0.515625 0,1.0429687 -0.09375,1.47656247 -0.140625,0.6328125 -0.609375,0.78515625 -0.890625,0.78515625 -0.3164062,0 -0.75,-0.1875 -0.890625,-0.76171875 -0.09375,-0.41015627 -0.09375,-0.98437497 -0.09375,-1.49999997 0,-0.5039063 0,-1.03125 0.1054688,-1.4179688 0.1523437,-0.5507812 0.5976562,-0.6914062 0.8789062,-0.6914062 0.375,0 0.7382813,0.2226562 0.8671875,0.6328125 0.1054688,0.375 0.1171875,0.8789062 0.1171875,1.4765625 z m 2.5253907,-0.28125 c 0,-0.2460938 -0.1875,-0.3984375 -0.3984375,-0.3984375 -0.234375,0 -0.3984375,0.1875 -0.3984375,0.3867187 0,0.2460938 0.1992187,0.4101563 0.3984375,0.4101563 0.2460937,0 0.3984375,-0.1992188 0.3984375,-0.3984375 z m 0,2.20312497 c 0,-0.24609375 -0.1875,-0.3984375 -0.3984375,-0.3984375 -0.234375,0 -0.3984375,0.1875 -0.3984375,0.38671875 0,0.24609375 0.1992187,0.41015625 0.3984375,0.41015625 0.2460937,0 0.3984375,-0.19921875 0.3984375,-0.3984375 z m 4.0224614,0.3984375 V -0.24479688 H 13.22375 c -0.703125,0 -0.703125,-0.09375 -0.703125,-0.328125 V -4.4283906 c 0,-0.1875 -0.01172,-0.1992188 -0.210937,-0.1992188 -0.445313,0.4335938 -1.078125,0.4453125 -1.359375,0.4453125 v 0.2460938 c 0.164062,0 0.621093,0 1.007812,-0.1875 v 3.55078122 c 0,0.234375 0,0.328125 -0.691406,0.328125 h -0.269531 v 0.24609375 l 1.242187,-0.0234375 z m 4.192382,-1.40624997 c 0,-0.7851563 -0.597656,-1.5117188 -1.453125,-1.5117188 -0.316406,0 -0.679687,0.082031 -0.984375,0.3398438 v -1.3125 c 0.363282,0.09375 0.5625,0.09375 0.679688,0.09375 0.914062,0 1.464844,-0.6328125 1.464844,-0.7382813 0,-0.070312 -0.04687,-0.09375 -0.08203,-0.09375 0,0 -0.03516,0 -0.05859,0.023437 -0.164063,0.058594 -0.539063,0.1992188 -1.054688,0.1992188 -0.199219,0 -0.5625,-0.011719 -1.019531,-0.1875 -0.07031,-0.035156 -0.08203,-0.035156 -0.08203,-0.035156 -0.09375,0 -0.09375,0.070312 -0.09375,0.1875 v 2.0625 c 0,0.1171875 0,0.1992188 0.105468,0.1992188 0.07031,0 0.07031,-0.011719 0.140625,-0.1054688 0.304688,-0.375 0.726563,-0.4335937 0.972657,-0.4335937 0.421875,0 0.609375,0.3398437 0.644531,0.3867187 0.117187,0.234375 0.164062,0.5039063 0.164062,0.9023438 0,0.2109375 0,0.62109372 -0.210937,0.92578122 -0.175781,0.2578125 -0.46875,0.421875 -0.820313,0.421875 -0.445312,0 -0.914062,-0.2578125 -1.089843,-0.71484375 0.269531,0.0234375 0.398437,-0.15234375 0.398437,-0.33984377 0,-0.3046875 -0.257812,-0.3515625 -0.351562,-0.3515625 0,0 -0.351563,0 -0.351563,0.375 0,0.62109377 0.574219,1.25390627 1.417969,1.25390627 0.890625,0 1.664062,-0.66796875 1.664062,-1.54687497 z m 0,0"
       style="fill:#000000;fill-opacity:1;fill-rule:nonzero;stroke:none"
       aria-label="00:15"
       transform="matrix(1.3333333,0,0,1.3333333,165.49333,166.03733)" />
    <path
       id="path41"
       d="m 3.5986641,-2.2252656 c 0,-0.7617188 -0.09375,-1.3125 -0.4101563,-1.8046875 -0.2226562,-0.3164063 -0.6445312,-0.5976563 -1.2070312,-0.5976563 -1.61718754,0 -1.61718754,1.8984375 -1.61718754,2.4023438 0,0.5039062 0,2.36718747 1.61718754,2.36718747 1.6171875,0 1.6171875,-1.86328127 1.6171875,-2.36718747 z m -0.6328125,-0.09375 c 0,0.515625 0,1.0429687 -0.09375,1.47656247 -0.140625,0.6328125 -0.609375,0.78515625 -0.890625,0.78515625 -0.3164063,0 -0.75,-0.1875 -0.890625,-0.76171875 -0.09375,-0.41015627 -0.09375,-0.98437497 -0.09375,-1.49999997 0,-0.5039063 0,-1.03125 0.1054687,-1.4179688 0.1523438,-0.5507812 0.5976563,-0.6914062 0.8789063,-0.6914062 0.375,0 0.7382812,0.2226562 0.8671875,0.6328125 0.1054687,0.375 0.1171875,0.8789062 0.1171875,1.4765625 z m 4.5996093,0.09375 c 0,-0.7617188 -0.09375,-1.3125 -0.4101562,-1.8046875 -0.2226563,-0.3164063 -0.6445313,-0.5976563 -1.2070313,-0.5976563 -1.6171875,0 -1.6171875,1.8984375 -1.6171875,2.4023438 0,0.5039062 0,2.36718747 1.6171875,2.36718747 1.6171875,0 1.6171875,-1.86328127 1.6171875,-2.36718747 z m -0.6328125,-0.09375 c 0,0.515625 0,1.0429687 -0.09375,1.47656247 -0.140625,0.6328125 -0.609375,0.78515625 -0.890625,0.78515625 -0.3164062,0 -0.75,-0.1875 -0.890625,-0.76171875 -0.09375,-0.41015627 -0.09375,-0.98437497 -0.09375,-1.49999997 0,-0.5039063 0,-1.03125 0.1054688,-1.4179688 0.1523437,-0.5507812 0.5976562,-0.6914062 0.8789062,-0.6914062 0.375,0 0.7382813,0.2226562 0.8671875,0.6328125 0.1054688,0.375 0.1171875,0.8789062 0.1171875,1.4765625 z m 2.5283204,-0.28125 c 0,-0.2460938 -0.1875,-0.3984375 -0.3984375,-0.3984375 -0.234375,0 -0.3984375,0.1875 -0.3984375,0.3867187 0,0.2460938 0.1992187,0.4101563 0.3984375,0.4101563 0.2460937,0 0.3984375,-0.1992188 0.3984375,-0.3984375 z m 0,2.20312497 c 0,-0.24609375 -0.1875,-0.3984375 -0.3984375,-0.3984375 -0.234375,0 -0.3984375,0.1875 -0.3984375,0.38671875 0,0.24609375 0.1992187,0.41015625 0.3984375,0.41015625 0.2460937,0 0.3984375,-0.19921875 0.3984375,-0.3984375 z M 13.773469,-1.2057344 c 0,-0.5390625 -0.445313,-1.0898437 -1.21875,-1.2421875 0.738281,-0.2695312 0.996094,-0.796875 0.996094,-1.21875 0,-0.5507812 -0.632813,-0.9609375 -1.40625,-0.9609375 -0.773438,0 -1.359375,0.375 -1.359375,0.9375 0,0.234375 0.152343,0.3632813 0.363281,0.3632813 0.210937,0 0.351562,-0.1640625 0.351562,-0.3515625 0,-0.1992188 -0.140625,-0.3515625 -0.351562,-0.3632813 0.234375,-0.3046875 0.714844,-0.3867187 0.972656,-0.3867187 0.316406,0 0.761719,0.1523437 0.761719,0.7617187 0,0.2929688 -0.105469,0.609375 -0.28125,0.8320313 -0.234375,0.2578125 -0.421875,0.28125 -0.773438,0.2929687 -0.175781,0.023437 -0.1875,0.023437 -0.222656,0.023437 0,0 -0.07031,0.011719 -0.07031,0.09375 0,0.09375 0.05859,0.09375 0.175781,0.09375 h 0.375 c 0.550781,0 0.9375,0.375 0.9375,1.125 0,0.86718752 -0.503906,1.12500002 -0.902344,1.12500002 -0.28125,0 -0.890625,-0.08203125 -1.183594,-0.4921875 0.328125,-0.0117188 0.398438,-0.24609375 0.398438,-0.38671875 0,-0.22265627 -0.164063,-0.38671877 -0.386719,-0.38671877 -0.1875,0 -0.386719,0.1171875 -0.386719,0.41015627 0,0.65625 0.726563,1.078125 1.570313,1.078125 0.972656,0 1.640625,-0.64453125 1.640625,-1.34765627 z m 3.981445,-1.0195312 c 0,-0.7617188 -0.09375,-1.3125 -0.410156,-1.8046875 -0.222656,-0.3164063 -0.644531,-0.5976563 -1.207031,-0.5976563 -1.617188,0 -1.617188,1.8984375 -1.617188,2.4023438 0,0.5039062 0,2.36718747 1.617188,2.36718747 1.617187,0 1.617187,-1.86328127 1.617187,-2.36718747 z m -0.632812,-0.09375 c 0,0.515625 0,1.0429687 -0.09375,1.47656247 -0.140625,0.6328125 -0.609375,0.78515625 -0.890625,0.78515625 -0.316407,0 -0.75,-0.1875 -0.890625,-0.76171875 -0.09375,-0.41015627 -0.09375,-0.98437497 -0.09375,-1.49999997 0,-0.5039063 0,-1.03125 0.105468,-1.4179688 0.152344,-0.5507812 0.597657,-0.6914062 0.878907,-0.6914062 0.375,0 0.738281,0.2226562 0.867187,0.6328125 0.105469,0.375 0.117188,0.8789062 0.117188,1.4765625 z m 0,0"
       style="fill:#000000;fill-opacity:1;fill-rule:nonzero;stroke:none"
       aria-label="00:30"
       transform="matrix(1.3333333,0,0,1.3333333,297.776,166.03733)" />
    <path
       id="path42"
       d="m 3.5966016,-2.2278828 c 0,-0.7617188 -0.09375,-1.3125 -0.4101563,-1.8046875 -0.2226562,-0.3164063 -0.6445312,-0.5976563 -1.2070312,-0.5976563 -1.61718754,0 -1.61718754,1.8984375 -1.61718754,2.4023438 0,0.5039062 0,2.36718749 1.61718754,2.36718749 1.6171875,0 1.6171875,-1.86328129 1.6171875,-2.36718749 z m -0.6328125,-0.09375 c 0,0.515625 0,1.0429687 -0.09375,1.47656249 -0.140625,0.6328125 -0.609375,0.78515625 -0.890625,0.78515625 -0.3164063,0 -0.75,-0.1875 -0.890625,-0.76171875 -0.09375,-0.41015629 -0.09375,-0.98437499 -0.09375,-1.49999999 0,-0.5039063 0,-1.03125 0.1054687,-1.4179688 0.1523438,-0.5507812 0.5976563,-0.6914062 0.8789063,-0.6914062 0.375,0 0.7382812,0.2226562 0.8671875,0.6328125 0.1054687,0.375 0.1171875,0.8789062 0.1171875,1.4765625 z m 4.602539,0.09375 c 0,-0.7617188 -0.09375,-1.3125 -0.4101562,-1.8046875 -0.2226563,-0.3164063 -0.6445313,-0.5976563 -1.2070313,-0.5976563 -1.6171875,0 -1.6171875,1.8984375 -1.6171875,2.4023438 0,0.5039062 0,2.36718749 1.6171875,2.36718749 1.6171875,0 1.6171875,-1.86328129 1.6171875,-2.36718749 z m -0.6328125,-0.09375 c 0,0.515625 0,1.0429687 -0.09375,1.47656249 -0.140625,0.6328125 -0.609375,0.78515625 -0.890625,0.78515625 -0.3164062,0 -0.75,-0.1875 -0.890625,-0.76171875 -0.09375,-0.41015629 -0.09375,-0.98437499 -0.09375,-1.49999999 0,-0.5039063 0,-1.03125 0.1054688,-1.4179688 0.1523437,-0.5507812 0.5976562,-0.6914062 0.8789062,-0.6914062 0.375,0 0.7382813,0.2226562 0.8671875,0.6328125 0.1054688,0.375 0.1171875,0.8789062 0.1171875,1.4765625 z m 2.5253906,-0.28125 c 0,-0.2460938 -0.1875,-0.3984375 -0.3984375,-0.3984375 -0.234375,0 -0.3984375,0.1875 -0.3984375,0.3867187 0,0.2460938 0.1992188,0.4101563 0.3984375,0.4101563 0.2460938,0 0.3984375,-0.1992188 0.3984375,-0.3984375 z m 0,2.20312499 c 0,-0.24609375 -0.1875,-0.3984375 -0.3984375,-0.3984375 -0.234375,0 -0.3984375,0.1875 -0.3984375,0.38671875 0,0.24609375 0.1992188,0.41015625 0.3984375,0.41015625 0.2460938,0 0.3984375,-0.19921875 0.3984375,-0.3984375 z M 13.879805,-1.1497578 v -0.2460938 h -0.773438 v -3.1054687 c 0,-0.1523438 0,-0.1992188 -0.152344,-0.1992188 -0.09375,0 -0.117187,0 -0.1875,0.09375 l -2.308593,3.2109375 v 0.2460938 h 2.050781 v 0.57421874 c 0,0.234375 0,0.328125 -0.5625,0.328125 h -0.1875 v 0.24609375 l 1.042969,-0.0234375 1.054687,0.0234375 v -0.24609375 h -0.1875 c -0.5625,0 -0.5625,-0.09375 -0.5625,-0.328125 V -1.1497578 Z m -1.324219,-0.2460938 h -1.839844 l 1.839844,-2.5546875 z m 5.118164,-0.011719 c 0,-0.7851563 -0.597656,-1.5117188 -1.453125,-1.5117188 -0.316406,0 -0.679688,0.082031 -0.984375,0.3398438 v -1.3125 c 0.363281,0.09375 0.5625,0.09375 0.679687,0.09375 0.914063,0 1.464844,-0.6328125 1.464844,-0.7382813 0,-0.070312 -0.04687,-0.09375 -0.08203,-0.09375 0,0 -0.03516,0 -0.05859,0.023437 -0.164062,0.058594 -0.539062,0.1992188 -1.054687,0.1992188 -0.199219,0 -0.5625,-0.011719 -1.019532,-0.1875 -0.07031,-0.035156 -0.08203,-0.035156 -0.08203,-0.035156 -0.09375,0 -0.09375,0.070312 -0.09375,0.1875 v 2.0625 c 0,0.1171875 0,0.1992188 0.105469,0.1992188 0.07031,0 0.07031,-0.011719 0.140625,-0.1054688 0.304687,-0.375 0.726562,-0.4335937 0.972656,-0.4335937 0.421875,0 0.609375,0.3398437 0.644531,0.3867187 0.117188,0.234375 0.164063,0.5039063 0.164063,0.9023438 0,0.2109375 0,0.62109374 -0.210938,0.92578124 -0.175781,0.2578125 -0.46875,0.421875 -0.820312,0.421875 -0.445313,0 -0.914063,-0.2578125 -1.089844,-0.71484375 0.269531,0.0234375 0.398438,-0.15234375 0.398438,-0.33984379 0,-0.3046875 -0.257813,-0.3515625 -0.351563,-0.3515625 0,0 -0.351562,0 -0.351562,0.375 0,0.62109379 0.574218,1.25390629 1.417968,1.25390629 0.890625,0 1.664063,-0.66796875 1.664063,-1.54687499 z m 0,0"
       style="fill:#000000;fill-opacity:1;fill-rule:nonzero;stroke:none"
       aria-label="00:45"
       transform="matrix(1.3333333,0,0,1.3333333,430.06,166.13067)" />
    <path
       id="path43"
       d="m 3.5984688,-2.2252656 c 0,-0.7617188 -0.09375,-1.3125 -0.4101563,-1.8046875 -0.2226562,-0.3164063 -0.6445312,-0.5976563 -1.2070312,-0.5976563 -1.61718755,0 -1.61718755,1.8984375 -1.61718755,2.4023438 0,0.5039062 0,2.36718747 1.61718755,2.36718747 1.6171875,0 1.6171875,-1.86328127 1.6171875,-2.36718747 z m -0.6328125,-0.09375 c 0,0.515625 0,1.0429687 -0.09375,1.47656247 -0.140625,0.6328125 -0.609375,0.78515625 -0.890625,0.78515625 -0.3164063,0 -0.75,-0.1875 -0.890625,-0.76171875 C 0.9969062,-1.2291719 0.9969062,-1.8033906 0.9969062,-2.3190156 c 0,-0.5039063 0,-1.03125 0.1054687,-1.4179688 0.1523438,-0.5507812 0.5976563,-0.6914062 0.8789063,-0.6914062 0.3750001,0 0.7382812,0.2226562 0.8671876,0.6328125 0.1054686,0.375 0.1171875,0.8789062 0.1171875,1.4765625 z M 7.2605781,0.00129687 V -0.24479688 H 7.0027656 c -0.703125,0 -0.703125,-0.09375 -0.703125,-0.328125 V -4.4283906 c 0,-0.1875 -0.011719,-0.1992188 -0.2109375,-0.1992188 -0.4453125,0.4335938 -1.078125,0.4453125 -1.359375,0.4453125 v 0.2460938 c 0.1640625,0 0.6210938,0 1.0078125,-0.1875 v 3.55078122 c 0,0.234375 0,0.328125 -0.6914062,0.328125 H 4.7762031 v 0.24609375 l 1.2421875,-0.0234375 z M 9.4607734,-2.6002656 c 0,-0.2460938 -0.1875,-0.3984375 -0.3984375,-0.3984375 -0.234375,0 -0.3984375,0.1875 -0.3984375,0.3867187 0,0.2460938 0.1992188,0.4101563 0.3984375,0.4101563 0.2460938,0 0.3984375,-0.1992188 0.3984375,-0.3984375 z m 0,2.20312497 c 0,-0.24609375 -0.1875,-0.3984375 -0.3984375,-0.3984375 -0.234375,0 -0.3984375,0.1875 -0.3984375,0.38671875 0,0.24609375 0.1992188,0.41015625 0.3984375,0.41015625 0.2460938,0 0.3984375,-0.19921875 0.3984375,-0.3984375 z M 13.784992,-2.2252656 c 0,-0.7617188 -0.09375,-1.3125 -0.410156,-1.8046875 -0.222656,-0.3164063 -0.644531,-0.5976563 -1.207031,-0.5976563 -1.617188,0 -1.617188,1.8984375 -1.617188,2.4023438 0,0.5039062 0,2.36718747 1.617188,2.36718747 1.617187,0 1.617187,-1.86328127 1.617187,-2.36718747 z m -0.632812,-0.09375 c 0,0.515625 0,1.0429687 -0.09375,1.47656247 -0.140625,0.6328125 -0.609375,0.78515625 -0.890625,0.78515625 -0.316407,0 -0.75,-0.1875 -0.890625,-0.76171875 -0.09375,-0.41015627 -0.09375,-0.98437497 -0.09375,-1.49999997 0,-0.5039063 0,-1.03125 0.105468,-1.4179688 0.152344,-0.5507812 0.597657,-0.6914062 0.878907,-0.6914062 0.375,0 0.738281,0.2226562 0.867187,0.6328125 0.105469,0.375 0.117188,0.8789062 0.117188,1.4765625 z m 4.602539,0.09375 c 0,-0.7617188 -0.09375,-1.3125 -0.410156,-1.8046875 -0.222657,-0.3164063 -0.644532,-0.5976563 -1.207032,-0.5976563 -1.617187,0 -1.617187,1.8984375 -1.617187,2.4023438 0,0.5039062 0,2.36718747 1.617187,2.36718747 1.617188,0 1.617188,-1.86328127 1.617188,-2.36718747 z m -0.632813,-0.09375 c 0,0.515625 0,1.0429687 -0.09375,1.47656247 -0.140625,0.6328125 -0.609375,0.78515625 -0.890625,0.78515625 -0.316406,0 -0.75,-0.1875 -0.890625,-0.76171875 -0.09375,-0.41015627 -0.09375,-0.98437497 -0.09375,-1.49999997 0,-0.5039063 0,-1.03125 0.105469,-1.4179688 0.152344,-0.5507812 0.597656,-0.6914062 0.878906,-0.6914062 0.375,0 0.738282,0.2226562 0.867188,0.6328125 0.105469,0.375 0.117187,0.8789062 0.117187,1.4765625 z m 0,0"
       style="fill:#000000;fill-opacity:1;fill-rule:nonzero;stroke:none"
       aria-label="01:00"
       transform="matrix(1.3333333,0,0,1.3333333,562.34267,166.03733)" />
  </g>
</svg>
