<?xml version="1.0" encoding="UTF-8" standalone="no"?>
<!-- Created with Inkscape (http://www.inkscape.org/) -->

<svg
   version="1.1"
   id="svg1"
   width="257.91333"
   height="96.417336"
   viewBox="0 0 257.91333 96.417336"
   xmlns="http://www.w3.org/2000/svg"
   xmlns:svg="http://www.w3.org/2000/svg">
  <defs
     id="defs1" />
  <g
     id="g1">
    <path
       id="path1"
       d="M 0,0 H 113.38724 V 24.09494 H 0 Z"
       style="fill:#fce1fc;fill-opacity:1;fill-rule:nonzero;stroke:#800080;stroke-width:0.74721;stroke-linecap:butt;stroke-linejoin:round;stroke-miterlimit:10;stroke-dasharray:none;stroke-opacity:1"
       transform="matrix(1.1333333,0,0,-1.1333333,0.45106667,48.9556)" />
    <path
       id="path2"
       d="m 0.7986489,-2.8676471e-4 h 2.5091912 c 1.6544117,0 2.6746323,-1.24080883529 2.6746323,-3.26746323529 0,-2.0266544 -1.0064338,-3.2674632 -2.6746323,-3.2674632 H 0.7986489 Z M 1.6258548,-0.73098529 V -5.8045147 h 1.5441176 c 1.2959559,0 1.9715074,0.8823529 1.9715074,2.5367647 0,1.6544118 -0.6755515,2.53676471 -1.9715074,2.53676471 z M 10.35977,-1.9580074 11.035322,-2.8676471e-4 h 0.923713 L 9.670432,-6.5352132 H 8.5950643 L 6.2651011,-2.8676471e-4 H 7.147454 L 7.8367923,-1.9580074 Z m -0.234375,-0.703125 H 8.0435937 l 1.0753677,-2.9779411 z m 4.063649,-3.1433823 h 2.136949 v -0.7306985 h -5.11489 v 0.7306985 h 2.150735 v 5.80422793529 h 0.827206 z m 5.480239,3.8465073 0.675552,1.95772063529 h 0.923713 L 18.979945,-6.5352132 h -1.075368 l -2.329963,6.53492643529 h 0.882353 L 17.146305,-1.9580074 Z m -0.234375,-0.703125 h -2.081801 l 1.075367,-2.9779411 z m 0,0"
       style="fill:#000000;fill-opacity:1;fill-rule:nonzero;stroke:none"
       aria-label="DATA"
       transform="matrix(1.1333333,0,0,1.1333333,52.575333,38.9222)" />
    <path
       id="path3"
       d="M 113.38724,0 H 226.77448 V 24.09494 H 113.38724 Z"
       style="fill:#fce1fc;fill-opacity:1;fill-rule:nonzero;stroke:#800080;stroke-width:0.74721;stroke-linecap:butt;stroke-linejoin:round;stroke-miterlimit:10;stroke-dasharray:none;stroke-opacity:1"
       transform="matrix(1.1333333,0,0,-1.1333333,0.45106667,48.9556)" />
    <path
       id="path4"
       d="m 1.6543327,-2.7714265 h 2.0404412 c 0.5101103,0 0.9237132,-0.1516544 1.2683823,-0.46875 0.3998162,-0.3584559 0.5652574,-0.7720588 0.5652574,-1.3786764 0,-1.2270221 -0.7306985,-1.9163603 -2.0128676,-1.9163603 H 0.81334007 V -2.8676471e-4 H 1.6543327 Z m 0,-0.7306985 v -2.3023897 h 1.7371324 c 0.7996323,0 1.2683823,0.4411765 1.2683823,1.1580882 0,0.7169118 -0.46875,1.1443015 -1.2683823,1.1443015 z M 9.150886,-1.9580074 9.8264375,-2.8676471e-4 H 10.750151 L 8.4615478,-6.5352132 H 7.3861801 L 5.0562169,-2.8676471e-4 h 0.882353 L 6.6279081,-1.9580074 Z M 8.916511,-2.6611324 H 6.8347096 l 1.0753676,-2.9779411 z m 3.636259,-0.1516544 h 2.150736 c 0.744485,0 1.075367,0.3584559 1.075367,1.1580883 l -0.01379,0.5928309 c 0,0.39981613 0.06893,0.79963231 0.193015,1.06158083529 h 1.006434 V -0.20708824 c -0.303309,-0.22058823 -0.372243,-0.44117647 -0.386029,-1.30974266 -0.01379,-1.0753676 -0.179228,-1.40625 -0.89614,-1.7095588 0.744485,-0.3584559 1.034007,-0.8134191 1.034007,-1.5579044 0,-1.1305147 -0.703125,-1.7509191 -1.985294,-1.7509191 h -3.019301 v 6.53492643529 h 0.840992 z m 0,-0.7306985 v -2.2610294 h 2.012868 c 0.46875,0 0.730698,0.082721 0.9375,0.2619485 0.234375,0.179228 0.344669,0.4825368 0.344669,0.8685662 0,0.7720588 -0.399816,1.1305147 -1.282169,1.1305147 z m 6.54182,-2.9917279 h -0.840993 v 6.53492643529 h 0.840993 z m 3.929228,0.7306985 h 2.136949 v -0.7306985 h -5.11489 v 0.7306985 h 2.150735 v 5.80422793529 h 0.827206 z m 5.780101,3.2398897 2.454044,-3.9705882 h -1.006434 l -1.861213,3.1847426 -1.91636,-3.1847426 h -1.034007 l 2.522977,3.9705882 v 2.56433823529 h 0.840993 z m 0,0"
       style="fill:#000000;fill-opacity:1;fill-rule:nonzero;stroke:none"
       aria-label="PARITY"
       transform="matrix(1.1333333,0,0,1.1333333,175.46493,38.9222)" />
    <path
       id="path5"
       d="M 1.545829,-2.2869154 2.6074099,-3.3484963 4.9097996,0.0016875 H 5.9024467 L 3.2140276,-3.8723934 5.8748732,-6.533239 H 4.7995055 L 1.545829,-3.2244154 V -6.533239 H 0.7048364 V 0.0016875 H 1.545829 Z m 0,0"
       style="fill:#000000;fill-opacity:1;fill-rule:nonzero;stroke:none"
       aria-label="K"
       transform="matrix(1.1333333,0,0,1.1333333,61.314467,62.4434)" />
    <path
       id="path6"
       d="M 4.5349779,-0.78415809 H 1.1847941 C 1.2675147,-1.2942684 1.5570368,-1.6251507 2.3428824,-2.080114 l 0.8961397,-0.4963235 c 0.8823529,-0.4825368 1.3373161,-1.1305147 1.3373161,-1.9163603 0,-0.5238971 -0.2068014,-1.0202206 -0.5928308,-1.3511029 C 3.6112647,-6.1885699 3.1425147,-6.354011 2.5496838,-6.354011 c -0.8134191,0 -1.40625,0.289522 -1.76470586,0.8272059 -0.22058823,0.3446691 -0.31709559,0.7306985 -0.34466912,1.3786764 H 1.2399412 c 0.027573,-0.4273897 0.082721,-0.6893382 0.1792279,-0.8961397 0.2068015,-0.3860294 0.6204044,-0.6204044 1.1029412,-0.6204044 0.7169118,0 1.2545956,0.5101103 1.2545956,1.1994485 0,0.4963236 -0.3033088,0.9237133 -0.8685662,1.2545956 L 2.0809338,-2.7556654 C 0.75740441,-1.9973934 0.371375,-1.3907757 0.30244118,0.0016875 H 4.5349779 Z M 7.2613107,-4.6995993 H 6.4892518 V -5.9817684 H 5.7447665 v 1.2821691 H 5.1105754 v 0.6204044 h 0.6341911 v 3.54319858 c 0,0.46875 0.3308824,0.74448529 0.9099265,0.74448529 0.179228,0 0.3584559,-0.0137868 0.6066177,-0.0689338 v -0.62040441 c -0.096507,0.0275735 -0.2205883,0.0413603 -0.3584559,0.0413603 -0.3170956,0 -0.413603,-0.0965073 -0.413603,-0.42738971 V -4.0791949 h 0.7720589 z m 0,0"
       style="fill:#000000;fill-opacity:1;fill-rule:nonzero;stroke:none"
       aria-label="2t"
       transform="matrix(1.1333333,0,0,1.1333333,188.96973,62.4434)" />
    <path
       id="path7"
       d="m 1.6699099,-2.8132886 h 2.1507353 c 0.7444853,0 1.0753677,0.3584559 1.0753677,1.1580882 l -0.013787,0.5928309 c 0,0.39981619 0.068934,0.79963237 0.1930147,1.06158089706 h 1.006434 V -0.20759007 C 5.7783658,-0.42817831 5.709432,-0.64876654 5.6956452,-1.5173327 5.6818585,-2.5927004 5.5164173,-2.9235827 4.7995055,-3.2268915 5.5439908,-3.5853474 5.8335129,-4.0403107 5.8335129,-4.784796 c 0,-1.1305147 -0.703125,-1.7509191 -1.9852942,-1.7509191 H 0.82891728 V -7.8860294e-4 H 1.6699099 Z m 0,-0.7306985 v -2.2610294 h 2.0128677 c 0.46875,0 0.7306985,0.08272 0.9375,0.2619485 0.234375,0.1792279 0.3446691,0.4825367 0.3446691,0.8685662 0,0.7720588 -0.3998162,1.1305147 -1.2821691,1.1305147 z m 9.3956801,1.4476103 c 0,-0.7169118 -0.04136,-1.1443015 -0.179228,-1.5027574 -0.303309,-0.7720588 -1.0202205,-1.2270221 -1.9025734,-1.2270221 -1.3097426,0 -2.1507353,0.9926471 -2.1507353,2.5367648 0,1.5441176 0.8134191,2.49540437 2.1369485,2.49540437 1.0753672,0 1.8198532,-0.60661765 1.9990812,-1.62683827 h -0.744486 c -0.206801,0.62040444 -0.6341908,0.93750003 -1.2270216,0.93750003 -0.4825368,0 -0.882353,-0.22058823 -1.1305147,-0.60661763 C 7.6878327,-1.3656783 7.6188989,-1.6276268 7.6188989,-2.0963768 Z M 7.6326857,-2.7029945 c 0.055147,-0.8685662 0.5928308,-1.4338235 1.3373161,-1.4338235 0.7444853,0 1.3097422,0.6066176 1.3097422,1.3786765 0,0.013787 0,0.027573 -0.01379,0.055147 z M 11.94105,1.956932 h 0.758272 v -2.45404413 c 0.386029,0.48253676 0.827206,0.703125 1.433823,0.703125 1.213236,0 2.012868,-0.9788603 2.012868,-2.46783087 0,-1.585478 -0.772059,-2.5643383 -2.012868,-2.5643383 -0.634191,0 -1.158088,0.2757353 -1.502757,0.8409927 V -4.7020754 H 11.94105 Z m 2.068014,-6.09375 c 0.813419,0 1.351103,0.7306985 1.351103,1.8474265 0,1.0753676 -0.537684,1.79227937 -1.351103,1.79227937 -0.799632,0 -1.309742,-0.71691177 -1.309742,-1.81985297 0,-1.1029412 0.51011,-1.8198529 1.309742,-1.8198529 z m 3.057215,-0.5652574 v 4.70128679706 h 0.744486 V -2.441046 c 0,-0.6755514 0.179228,-1.1029411 0.537684,-1.3648897 0.234375,-0.1792279 0.454963,-0.2205882 0.97886,-0.234375 v -0.758272 c -0.124081,-0.027574 -0.193015,-0.027574 -0.289522,-0.027574 -0.482537,0 -0.85478,0.2757353 -1.282169,0.9788603 v -0.8547794 z m 6.955423,2.6056986 c 0,-0.7169118 -0.04136,-1.1443015 -0.179228,-1.5027574 -0.303309,-0.7720588 -1.02022,-1.2270221 -1.902573,-1.2270221 -1.309743,0 -2.150736,0.9926471 -2.150736,2.5367648 0,1.5441176 0.81342,2.49540437 2.136949,2.49540437 1.075368,0 1.819853,-0.60661765 1.999081,-1.62683827 H 23.18071 c -0.206802,0.62040444 -0.634192,0.93750003 -1.227023,0.93750003 -0.482536,0 -0.882352,-0.22058823 -1.130514,-0.60661763 -0.179228,-0.2757353 -0.248162,-0.5376838 -0.248162,-1.0064338 z m -3.432904,-0.6066177 c 0.05515,-0.8685662 0.592831,-1.4338235 1.337316,-1.4338235 0.744485,0 1.309743,0.6066176 1.309743,1.3786765 0,0.013787 0,0.027573 -0.01379,0.055147 z m 7.755055,-0.6893382 c -0.01379,-0.9237133 -0.620404,-1.4338236 -1.709559,-1.4338236 -1.089154,0 -1.792279,0.5652574 -1.792279,1.4338236 0,0.7306985 0.372242,1.0753676 1.475184,1.3511029 l 0.703125,0.1654412 c 0.523897,0.1240809 0.730698,0.3170956 0.730698,0.6617647 0,0.42738971 -0.441176,0.73069853 -1.102941,0.73069853 -0.399816,0 -0.730699,-0.12408088 -0.923713,-0.31709559 C 25.600287,-0.9382886 25.558926,-1.0623695 25.503779,-1.3932518 h -0.785845 c 0.04136,1.07536761 0.647978,1.59926467 1.875,1.59926467 1.185662,0 1.930147,-0.57904412 1.930147,-1.48897057 0,-0.703125 -0.38603,-1.0891544 -1.32353,-1.3097427 L 26.48264,-2.7581415 c -0.606618,-0.1516545 -0.868566,-0.3446692 -0.868566,-0.6755515 0,-0.4273897 0.386029,-0.703125 0.992647,-0.703125 0.606617,0 0.923713,0.2619485 0.9375,0.7444853 z m 5.14591,1.2959559 c 0,-0.7169118 -0.04136,-1.1443015 -0.179228,-1.5027574 -0.303309,-0.7720588 -1.020221,-1.2270221 -1.902574,-1.2270221 -1.309742,0 -2.150735,0.9926471 -2.150735,2.5367648 0,1.5441176 0.813419,2.49540437 2.136949,2.49540437 1.075367,0 1.819853,-0.60661765 1.999081,-1.62683827 H 32.64877 c -0.206801,0.62040444 -0.634191,0.93750003 -1.227022,0.93750003 -0.482537,0 -0.882353,-0.22058823 -1.130515,-0.60661763 -0.179227,-0.2757353 -0.248161,-0.5376838 -0.248161,-1.0064338 z m -3.432905,-0.6066177 c 0.05515,-0.8685662 0.592831,-1.4338235 1.337317,-1.4338235 0.744485,0 1.309742,0.6066176 1.309742,1.3786765 0,0.013787 0,0.027573 -0.01379,0.055147 z m 4.446232,-1.9990809 v 4.70128679706 h 0.758272 V -2.5927004 c 0,-0.9512867 0.496324,-1.5854779 1.268382,-1.5854779 0.592831,0 0.978861,0.3584559 0.978861,0.9237132 V -7.8860294e-4 H 38.25309 V -3.5439871 c 0,-0.7858456 -0.592831,-1.2821692 -1.488971,-1.2821692 -0.703125,0 -1.158088,0.2619486 -1.557904,0.9237133 v -0.7996324 z m 6.641774,0 H 40.372805 V -5.9842445 H 39.62832 v 1.2821691 h -0.634191 v 0.6204044 h 0.634191 v 3.54319857 c 0,0.46875 0.330882,0.7444853 0.909926,0.7444853 0.179228,0 0.358456,-0.0137868 0.606618,-0.0689338 v -0.62040441 c -0.09651,0.0275735 -0.220588,0.0413603 -0.358456,0.0413603 -0.317096,0 -0.413603,-0.0965074 -0.413603,-0.42738971 V -4.081671 h 0.772059 z m 5.014936,4.26011033 c -0.08272,0.0137868 -0.124081,0.0137868 -0.165442,0.0137868 -0.261948,0 -0.399816,-0.12408088 -0.399816,-0.35845588 V -3.5439871 c 0,-0.8409927 -0.606617,-1.2821692 -1.764706,-1.2821692 -0.689338,0 -1.254595,0.1930148 -1.557904,0.5376839 -0.220588,0.2481617 -0.303309,0.5101103 -0.330882,0.9788603 h 0.758272 c 0.05515,-0.5652574 0.399816,-0.8272059 1.102941,-0.8272059 0.675551,0 1.047794,0.2481617 1.047794,0.6893382 v 0.2068015 c 0,0.3033088 -0.193015,0.4411765 -0.785846,0.5101103 -1.047794,0.1378676 -1.213235,0.1792279 -1.502757,0.289522 -0.551471,0.2205883 -0.827206,0.647978 -0.827206,1.2545956 0,0.85477944 0.592831,1.39246327 1.544118,1.39246327 0.592831,0 1.061581,-0.20680147294 1.599265,-0.68933824 0.05515,0.46875 0.289522,0.68933824 0.772058,0.68933824 0.151655,0 0.261949,-0.0137868 0.510111,-0.0827206 z M 44.850057,-1.4759724 c 0,0.2481617 -0.06893,0.3998161 -0.303309,0.60661762 -0.303309,0.27573529 -0.661765,0.42738971 -1.102941,0.42738971 -0.579044,0 -0.923713,-0.28952206 -0.923713,-0.75827203 0,-0.4963236 0.330882,-0.7444853 1.130514,-0.8547794 0.785846,-0.1102942 0.951287,-0.1516545 1.199449,-0.2619486 z m 3.77068,-3.226103 h -0.772059 v -1.2821691 h -0.744485 v 1.2821691 h -0.634191 v 0.6204044 h 0.634191 v 3.54319857 c 0,0.46875 0.330882,0.7444853 0.909926,0.7444853 0.179228,0 0.358456,-0.0137868 0.606618,-0.0689338 v -0.62040441 c -0.09651,0.0275735 -0.220588,0.0413603 -0.358456,0.0413603 -0.317095,0 -0.413603,-0.0965074 -0.413603,-0.42738971 V -4.081671 h 0.772059 z m 1.557905,0 h -0.730699 v 4.70128679706 h 0.730699 z m 0,-1.8336397 h -0.744486 v 0.9375 h 0.744486 z m 3.091682,1.7095588 c -1.32353,0 -2.123162,0.9375 -2.123162,2.5091912 0,1.58547797 0.799632,2.52297797 2.123162,2.52297797 1.323529,0 2.123161,-0.9375 2.123161,-2.48161767 0,-1.6268382 -0.772059,-2.5505515 -2.123161,-2.5505515 z m 0,0.6893383 c 0.854779,0 1.351102,0.6893382 1.351102,1.8474265 0,1.1029411 -0.523897,1.80606613 -1.351102,1.80606613 -0.827206,0 -1.337317,-0.68933823 -1.337317,-1.83363973 0,-1.1305147 0.510111,-1.8198529 1.337317,-1.8198529 z m 3.167509,-0.5652574 v 4.70128679706 h 0.758272 V -2.5927004 c 0,-0.9512867 0.496323,-1.5854779 1.268382,-1.5854779 0.592831,0 0.97886,0.3584559 0.97886,0.9237132 v 3.25367649706 h 0.744486 V -3.5439871 c 0,-0.7858456 -0.592831,-1.2821692 -1.488971,-1.2821692 -0.703125,0 -1.158088,0.2619486 -1.557904,0.9237133 v -0.7996324 z m 9.288832,-0.1240809 c -1.323529,0 -2.123161,0.9375 -2.123161,2.5091912 0,1.58547797 0.799632,2.52297797 2.123161,2.52297797 1.32353,0 2.123162,-0.9375 2.123162,-2.48161767 0,-1.6268382 -0.772059,-2.5505515 -2.123162,-2.5505515 z m 0,0.6893383 c 0.85478,0 1.351103,0.6893382 1.351103,1.8474265 0,1.1029411 -0.523897,1.80606613 -1.351103,1.80606613 -0.827205,0 -1.337316,-0.68933823 -1.337316,-1.83363973 0,-1.1305147 0.510111,-1.8198529 1.337316,-1.8198529 z m 3.164063,-0.5652574 V -7.8860294e-4 H 69.649 V -2.5927004 c 0,-0.9512867 0.496324,-1.5854779 1.268382,-1.5854779 0.592831,0 0.978861,0.3584559 0.978861,0.9237132 v 3.25367649706 h 0.744485 V -3.5439871 c 0,-0.7858456 -0.592831,-1.2821692 -1.488971,-1.2821692 -0.703125,0 -1.158088,0.2619486 -1.557904,0.9237133 v -0.7996324 z m 0,0"
       style="fill:#000000;fill-opacity:1;fill-rule:nonzero;stroke:none"
       aria-label="Representationon"
       transform="matrix(1.1333333,0,0,1.1333333,37.939467,11.0048)" />
    <path
       id="path8"
       d="M 1.627375,-4.7020754 0.62094118,-7.8860294e-4 H 1.3792132 L 1.9306838,-2.5927004 c 0.2068015,-0.9788603 0.8409927,-1.5992647 1.640625,-1.5992647 0.4549633,0 0.7858456,0.3170956 0.7858456,0.7306986 0,0.055147 -0.013787,0.1930147 -0.055147,0.3308823 L 3.6402426,-7.8860294e-4 H 4.3847279 L 5.1016397,-3.3647592 c 0.027573,-0.1240809 0.04136,-0.234375 0.04136,-0.3446691 0,-0.6755515 -0.46875,-1.116728 -1.2132353,-1.116728 -0.6893382,0 -1.2821691,0.234375 -1.7371323,0.7169118 l 0.1102941,-0.5928309 z m 0,0"
       style="fill:#000000;fill-opacity:1;fill-rule:nonzero;stroke:none"
       aria-label="n"
       transform="matrix(1.1333333,0,0,1.1333333,123.79627,11.0048)" />
    <path
       id="path9"
       d="M 2.5502114,-2.7995018 H 0.41326287 v 0.6479779 H 2.5502114 Z M 3.4670313,-6.5357151 V -7.8860294e-4 H 4.1425827 V -0.60740625 c 0.3584559,0.55147059 0.8272059,0.81341912 1.4889706,0.81341912 1.2270221,0 2.0404412,-1.00643383 2.0404412,-2.57812497 0,-1.5165442 -0.7720588,-2.4540442 -2.0128677,-2.4540442 -0.6341911,0 -1.1029411,0.234375 -1.4476103,0.7720589 v -2.4816177 z m 2.0542279,2.3988971 c 0.8272059,0 1.3648897,0.7306985 1.3648897,1.8474265 0,1.0753676 -0.5514706,1.79227937 -1.3648897,1.79227937 -0.7858456,0 -1.3097427,-0.71691177 -1.3097427,-1.81985297 0,-1.1029412 0.5238971,-1.8198529 1.3097427,-1.8198529 z M 9.3091728,-4.7020754 H 8.5784743 v 4.70128679706 h 0.7306985 z m 0,-1.8336397 H 8.5646875 v 0.9375 h 0.7444853 z m 2.9262412,1.8336397 h -0.772059 v -1.2821691 h -0.744486 v 1.2821691 h -0.634191 v 0.6204044 h 0.634191 v 3.54319857 c 0,0.46875 0.330883,0.7444853 0.909927,0.7444853 0.179228,0 0.358456,-0.0137868 0.606618,-0.0689338 v -0.62040441 c -0.09651,0.0275735 -0.220589,0.0413603 -0.358456,0.0413603 -0.317096,0 -0.413603,-0.0965074 -0.413603,-0.42738971 V -4.081671 h 0.772059 z m 4.149816,1.3097427 c -0.01379,-0.9237133 -0.620405,-1.4338236 -1.709559,-1.4338236 -1.089154,0 -1.792279,0.5652574 -1.792279,1.4338236 0,0.7306985 0.372242,1.0753676 1.475183,1.3511029 l 0.703125,0.1654412 c 0.523897,0.1240809 0.730699,0.3170956 0.730699,0.6617647 0,0.42738971 -0.441177,0.73069853 -1.102941,0.73069853 -0.399816,0 -0.730699,-0.12408088 -0.923714,-0.31709559 -0.12408,-0.13786764 -0.165441,-0.26194854 -0.220588,-0.59283084 h -0.785845 c 0.04136,1.07536761 0.647978,1.59926467 1.875,1.59926467 1.185661,0 1.930147,-0.57904412 1.930147,-1.48897057 0,-0.703125 -0.38603,-1.0891544 -1.32353,-1.3097427 L 14.524017,-2.7581415 C 13.917399,-2.909796 13.65545,-3.1028107 13.65545,-3.433693 c 0,-0.4273897 0.38603,-0.703125 0.992647,-0.703125 0.606618,0 0.923714,0.2619485 0.9375,0.7444853 z m 6.965763,0 c -0.01379,-0.9237133 -0.620405,-1.4338236 -1.709559,-1.4338236 -1.089155,0 -1.79228,0.5652574 -1.79228,1.4338236 0,0.7306985 0.372243,1.0753676 1.475184,1.3511029 l 0.703125,0.1654412 c 0.523897,0.1240809 0.730699,0.3170956 0.730699,0.6617647 0,0.42738971 -0.441177,0.73069853 -1.102941,0.73069853 -0.399817,0 -0.730699,-0.12408088 -0.923714,-0.31709559 C 20.607426,-0.9382886 20.566066,-1.0623695 20.510919,-1.3932518 h -0.785845 c 0.04136,1.07536761 0.647977,1.59926467 1.875,1.59926467 1.185661,0 1.930147,-0.57904412 1.930147,-1.48897057 0,-0.703125 -0.38603,-1.0891544 -1.32353,-1.3097427 l -0.716912,-0.1654411 c -0.606617,-0.1516545 -0.868566,-0.3446692 -0.868566,-0.6755515 0,-0.4273897 0.38603,-0.703125 0.992647,-0.703125 0.606618,0 0.923714,0.2619485 0.9375,0.7444853 z m 2.995174,-1.4338236 c -1.323529,0 -2.123161,0.9375 -2.123161,2.5091912 0,1.58547797 0.799632,2.52297797 2.123161,2.52297797 1.32353,0 2.123162,-0.9375 2.123162,-2.48161767 0,-1.6268382 -0.772059,-2.5505515 -2.123162,-2.5505515 z m 0,0.6893383 c 0.85478,0 1.351103,0.6893382 1.351103,1.8474265 0,1.1029411 -0.523897,1.80606613 -1.351103,1.80606613 -0.827206,0 -1.337316,-0.68933823 -1.337316,-1.83363973 0,-1.1305147 0.51011,-1.8198529 1.337316,-1.8198529 z m 3.908548,-2.3988971 h -0.758272 v 6.53492649706 h 0.758272 z m 3.064109,1.7095588 c -1.32353,0 -2.123162,0.9375 -2.123162,2.5091912 0,1.58547797 0.799632,2.52297797 2.123162,2.52297797 1.323529,0 2.123161,-0.9375 2.123161,-2.48161767 0,-1.6268382 -0.772059,-2.5505515 -2.123161,-2.5505515 z m 0,0.6893383 c 0.854779,0 1.351102,0.6893382 1.351102,1.8474265 0,1.1029411 -0.523897,1.80606613 -1.351102,1.80606613 -0.827206,0 -1.337317,-0.68933823 -1.337317,-1.83363973 0,-1.1305147 0.510111,-1.8198529 1.337317,-1.8198529 z m 3.167509,-0.5652574 v 4.70128679706 h 0.758272 V -2.9511563 c 0,-0.6755514 0.496323,-1.227022 1.102941,-1.227022 0.551471,0 0.868566,0.3446691 0.868566,0.9375 v 3.23988969706 h 0.758272 V -2.9511563 c 0,-0.6755514 0.482537,-1.227022 1.102941,-1.227022 0.537684,0 0.868567,0.3446691 0.868567,0.9375 v 3.23988969706 h 0.744485 V -3.5164136 c 0,-0.8547794 -0.482537,-1.3097427 -1.36489,-1.3097427 -0.620404,0 -0.992647,0.179228 -1.433823,0.7169118 -0.275736,-0.5101103 -0.661765,-0.7169118 -1.268383,-0.7169118 -0.620404,0 -1.034007,0.234375 -1.433823,0.7996324 v -0.6755515 z m 9.288832,-0.1240809 c -1.323529,0 -2.123161,0.9375 -2.123161,2.5091912 0,1.58547797 0.799632,2.52297797 2.123161,2.52297797 1.32353,0 2.123162,-0.9375 2.123162,-2.48161767 0,-1.6268382 -0.772059,-2.5505515 -2.123162,-2.5505515 z m 0,0.6893383 c 0.85478,0 1.351103,0.6893382 1.351103,1.8474265 0,1.1029411 -0.523897,1.80606613 -1.351103,1.80606613 -0.827205,0 -1.337316,-0.68933823 -1.337316,-1.83363973 0,-1.1305147 0.510111,-1.8198529 1.337316,-1.8198529 z m 3.164063,-0.5652574 V -7.8860294e-4 H 49.6975 V -2.5927004 c 0,-0.9512867 0.496324,-1.5854779 1.268382,-1.5854779 0.592831,0 0.978861,0.3584559 0.978861,0.9237132 v 3.25367649706 h 0.744485 V -3.5439871 c 0,-0.7858456 -0.592831,-1.2821692 -1.488971,-1.2821692 -0.703125,0 -1.158088,0.2619486 -1.557904,0.9237133 v -0.7996324 z m 11.077665,1.585478 c -0.02757,-0.4549633 -0.137867,-0.7582721 -0.317095,-1.0202206 -0.317096,-0.4273897 -0.882353,-0.6893383 -1.530331,-0.6893383 -1.268382,0 -2.095588,0.9926471 -2.095588,2.5643383 0,1.50275734 0.813419,2.46783087 2.081801,2.46783087 1.116728,0 1.83364,-0.67555147 1.91636,-1.81985297 h -0.758272 c -0.12408,0.75827209 -0.51011,1.13051473 -1.144301,1.13051473 -0.827206,0 -1.309743,-0.67555143 -1.309743,-1.77849263 0,-1.1856618 0.482537,-1.875 1.295956,-1.875 0.620405,0 1.020221,0.3584559 1.116728,1.0202206 z m 2.705653,-1.7095589 c -1.323529,0 -2.123162,0.9375 -2.123162,2.5091912 0,1.58547797 0.799633,2.52297797 2.123162,2.52297797 1.323529,0 2.123162,-0.9375 2.123162,-2.48161767 0,-1.6268382 -0.772059,-2.5505515 -2.123162,-2.5505515 z m 0,0.6893383 c 0.854779,0 1.351103,0.6893382 1.351103,1.8474265 0,1.1029411 -0.523897,1.80606613 -1.351103,1.80606613 -0.827206,0 -1.337316,-0.68933823 -1.337316,-1.83363973 0,-1.1305147 0.51011,-1.8198529 1.337316,-1.8198529 z m 6.982996,-2.3988971 h -0.744485 v 2.4264706 c -0.317096,-0.46875 -0.813419,-0.7169118 -1.44761,-0.7169118 -1.213236,0 -2.012868,0.9788603 -2.012868,2.4678309 0,1.58547797 0.772059,2.56433827 2.040441,2.56433827 0.647978,0 1.089155,-0.24816177 1.502758,-0.82720588 v 0.62040440706 h 0.661764 z m -2.068014,2.3988971 c 0.813419,0 1.323529,0.7169117 1.323529,1.8474265 0,1.0753676 -0.523897,1.79227937 -1.309743,1.79227937 -0.827206,0 -1.378676,-0.71691177 -1.378676,-1.81985297 0,-1.0891544 0.55147,-1.8198529 1.36489,-1.8198529 z m 7.203584,2.0404412 c 0,-0.7169118 -0.04136,-1.1443015 -0.179228,-1.5027574 -0.303309,-0.7720588 -1.02022,-1.2270221 -1.902573,-1.2270221 -1.309743,0 -2.150736,0.9926471 -2.150736,2.5367648 0,1.5441176 0.813419,2.49540437 2.136949,2.49540437 1.075368,0 1.819853,-0.60661765 1.999081,-1.62683827 h -0.744486 c -0.206801,0.62040444 -0.634191,0.93750003 -1.227022,0.93750003 -0.482536,0 -0.882353,-0.22058823 -1.130514,-0.60661763 -0.179228,-0.2757353 -0.248162,-0.5376838 -0.248162,-1.0064338 z m -3.432904,-0.6066177 c 0.05515,-0.8685662 0.592831,-1.4338235 1.337316,-1.4338235 0.744485,0 1.309743,0.6066176 1.309743,1.3786765 0,0.013787 0,0.027573 -0.01379,0.055147 z m 7.758502,-0.6893382 c -0.01379,-0.9237133 -0.620405,-1.4338236 -1.709559,-1.4338236 -1.089155,0 -1.79228,0.5652574 -1.79228,1.4338236 0,0.7306985 0.372243,1.0753676 1.475184,1.3511029 l 0.703125,0.1654412 c 0.523897,0.1240809 0.730699,0.3170956 0.730699,0.6617647 0,0.42738971 -0.441177,0.73069853 -1.102941,0.73069853 -0.399817,0 -0.730699,-0.12408088 -0.923714,-0.31709559 C 76.423143,-0.9382886 76.381783,-1.0623695 76.326636,-1.3932518 H 75.54079 c 0.04136,1.07536761 0.647978,1.59926467 1.875,1.59926467 1.185662,0 1.930148,-0.57904412 1.930148,-1.48897057 0,-0.703125 -0.38603,-1.0891544 -1.32353,-1.3097427 L 77.305496,-2.7581415 C 76.698879,-2.909796 76.43693,-3.1028107 76.43693,-3.433693 c 0,-0.4273897 0.38603,-0.703125 0.992647,-0.703125 0.606618,0 0.923713,0.2619485 0.9375,0.7444853 z m 0,0"
       style="fill:#000000;fill-opacity:1;fill-rule:nonzero;stroke:none"
       aria-label="-bitssolomoncodes"
       transform="matrix(1.1333333,0,0,1.1333333,129.61367,11.0048)" />
    <path
       id="path10"
       d="m 0,-19.84276 c 0.8966,-1.79332 2.98883,-2.98883 5.97766,-2.98883 h 101.43192 c 2.98882,0 5.08104,-1.19551 5.97766,-2.98883 0.8966,1.79332 2.98883,2.98883 5.97766,2.98883 h 101.43191 c 2.98883,0 5.08104,1.19551 5.97767,2.98883"
       style="fill:none;stroke:#800080;stroke-width:0.79701;stroke-linecap:butt;stroke-linejoin:round;stroke-miterlimit:10;stroke-dasharray:none;stroke-opacity:1"
       transform="matrix(1.1333333,0,0,-1.1333333,0.45106667,48.9556)" />
    <path
       id="path11"
       d="M 1.6271489,-4.7027371 0.62071507,-0.00145037 H 1.3789871 L 1.9304577,-2.5933621 c 0.2068015,-0.9788603 0.8409927,-1.5992647 1.640625,-1.5992647 0.4549633,0 0.7858456,0.3170956 0.7858456,0.7306985 0,0.055147 -0.013787,0.1930147 -0.055147,0.3308823 L 3.6400165,-0.00145037 H 4.3845018 L 5.1014136,-3.365421 c 0.027573,-0.1240808 0.04136,-0.234375 0.04136,-0.3446691 0,-0.6755514 -0.46875,-1.1167279 -1.2132353,-1.1167279 -0.6893382,0 -1.2821691,0.234375 -1.7371323,0.7169118 l 0.1102941,-0.5928309 z m 0,0"
       style="fill:#000000;fill-opacity:1;fill-rule:nonzero;stroke:none"
       aria-label="n"
       transform="matrix(1.1333333,0,0,1.1333333,116.44887,92.5368)" />
    <path
       id="path12"
       d="M 2.5499853,-2.8001636 H 0.41303676 v 0.6479779 H 2.5499853 Z m 0.9168198,-3.7362132 v 6.53492643 h 0.6755515 v -0.60661764 c 0.3584559,0.55147058 0.8272059,0.81341911 1.4889706,0.81341911 1.2270221,0 2.0404412,-1.00643382 2.0404412,-2.578125 0,-1.5165441 -0.7720588,-2.4540441 -2.0128677,-2.4540441 -0.6341911,0 -1.1029411,0.234375 -1.4476103,0.7720588 v -2.4816176 z m 2.054228,2.398897 c 0.8272059,0 1.3648897,0.7306986 1.3648897,1.8474265 0,1.0753676 -0.5514706,1.7922794 -1.3648897,1.7922794 -0.7858456,0 -1.3097427,-0.7169118 -1.3097427,-1.8198529 0,-1.1029412 0.5238971,-1.819853 1.3097427,-1.819853 z M 9.3089467,-4.7027371 H 8.5782482 v 4.70128673 h 0.7306985 z m 0,-1.8336397 H 8.5644614 v 0.9375 h 0.7444853 z m 2.9262413,1.8336397 h -0.772059 v -1.2821691 h -0.744486 v 1.2821691 h -0.634191 v 0.6204044 h 0.634191 v 3.54319851 c 0,0.46875 0.330883,0.74448529 0.909927,0.74448529 0.179228,0 0.358456,-0.0137868 0.606618,-0.0689338 v -0.62040441 c -0.09651,0.0275735 -0.220589,0.0413603 -0.358456,0.0413603 -0.317096,0 -0.413603,-0.0965073 -0.413603,-0.4273897 V -4.0823327 h 0.772059 z m 4.149816,1.3097426 c -0.01379,-0.9237132 -0.620405,-1.4338235 -1.709559,-1.4338235 -1.089155,0 -1.79228,0.5652573 -1.79228,1.4338235 0,0.7306985 0.372243,1.0753677 1.475184,1.351103 l 0.703125,0.1654411 c 0.523897,0.1240809 0.730699,0.3170956 0.730699,0.6617647 0,0.42738974 -0.441177,0.73069857 -1.102941,0.73069857 -0.399817,0 -0.730699,-0.12408088 -0.923714,-0.31709559 -0.12408,-0.13786765 -0.165441,-0.26194848 -0.220588,-0.59283088 h -0.785845 c 0.04136,1.07536764 0.647978,1.5992647 1.875,1.5992647 1.185661,0 1.930147,-0.57904411 1.930147,-1.4889706 0,-0.703125 -0.38603,-1.0891544 -1.32353,-1.3097426 L 14.52379,-2.7588033 c -0.606617,-0.1516544 -0.868566,-0.3446691 -0.868566,-0.6755515 0,-0.4273897 0.38603,-0.703125 0.992647,-0.703125 0.606618,0 0.923714,0.2619486 0.9375,0.7444853 z m 0,0"
       style="fill:#000000;fill-opacity:1;fill-rule:nonzero;stroke:none"
       aria-label="-bits"
       transform="matrix(1.1333333,0,0,1.1333333,122.26627,92.5368)" />
  </g>
</svg>
