<?xml version="1.0" encoding="UTF-8" standalone="no"?>
<!-- Created with Inkscape (http://www.inkscape.org/) -->

<svg
   version="1.1"
   id="svg1"
   width="481.97333"
   height="220.97067"
   viewBox="0 0 481.97333 220.97067"
   xmlns="http://www.w3.org/2000/svg"
   xmlns:svg="http://www.w3.org/2000/svg">
  <defs
     id="defs1" />
  <g
     id="g1">
    <path
       id="path1"
       d="m 8.2380938,-3.125e-5 v -0.46875 H 7.2771563 L 4.7224688,-6.6914375 C 4.617,-6.94925 4.4880938,-6.94925 4.3240313,-6.94925 c -0.28125,0 -0.3164063,0.070312 -0.3867188,0.2578125 l -2.4726562,5.98828125 c -0.058594,0.15234375 -0.09375,0.234375 -0.84375005,0.234375 h -0.2109375 v 0.46875 L 1.570125,-0.0351875 c 0.3867188,0 0.9492188,0 1.3242188,0.03515625 v -0.46875 c 0,0 -0.890625,0 -0.890625,-0.12890625 L 2.038875,-0.714875 2.5427813,-1.9219063 h 2.671875 l 0.5976562,1.45312505 H 4.8630938 v 0.46875 c 0.375,-0.03515625 1.3242187,-0.03515625 1.7460937,-0.03515625 0.3984375,0 1.2773438,0 1.6289063,0.03515625 z M 5.0154375,-2.3906563 H 2.742 l 1.1367188,-2.765625 z m 8.7275395,-4.7695312 c 0,-0.1992188 -0.164063,-0.3164063 -0.304688,-0.3164063 -0.210937,0 -0.257812,0.140625 -0.316406,0.28125 l -3.7734377,9.1875 c -0.058594,0.1171875 -0.058594,0.1875 -0.058594,0.1875 0,0.1992188 0.1640625,0.3164063 0.3046875,0.3164063 0.2109375,0 0.2578125,-0.140625 0.3164062,-0.28125 l 3.773438,-9.1875 c 0.05859,-0.1171875 0.05859,-0.1875 0.05859,-0.1875 z m 8.144531,5.3085937 c 0,-0.9609375 -0.855469,-1.6289062 -2.039063,-1.7109375 1.078125,-0.1875 1.722657,-0.7851562 1.722657,-1.5585937 0,-0.9140625 -0.867188,-1.7109375 -2.472657,-1.7109375 h -4.324218 v 0.46875 h 1.078125 v 5.89453125 h -1.078125 v 0.46875 h 4.628906 c 1.652344,0 2.484375,-0.87890625 2.484375,-1.85156255 z M 20.153133,-5.121125 c 0,0.7734375 -0.480469,1.3828125 -1.441406,1.3828125 h -1.558594 v -2.625 h 1.816406 c 1.007813,0 1.183594,0.7851562 1.183594,1.2421875 z m 0.269531,3.2578125 c 0,0.1171875 0,1.39453125 -1.429687,1.39453125 H 17.153133 V -3.3750313 h 1.933594 c 0.199218,0 0.667968,0 1.007812,0.421875 0.328125,0.421875 0.328125,0.984375 0.328125,1.0898438 z M 33.887508,-4.32425 33.688289,-6.7265938 H 26.985164 L 26.774227,-4.32425 h 0.46875 c 0.08203,-1.125 0.1875,-1.9335938 1.617187,-1.9335938 h 0.773438 v 5.78906255 h -1.523438 v 0.46875 c 0.539063,-0.03515625 1.640625,-0.03515625 2.226563,-0.03515625 0.585937,0 1.699218,0 2.226562,0.03515625 v -0.46875 H 31.039852 V -6.2578438 h 0.761718 c 1.429688,0 1.523438,0.796875 1.628907,1.9335938 z m 4.40039,3.1640625 c 0,-0.1875 -0.1875,-0.1875 -0.234375,-0.1875 -0.175781,0 -0.199218,0.046875 -0.257812,0.2109375 -0.210938,0.48046875 -0.773438,0.796875 -1.417969,0.796875 -1.40625,0 -1.417969,-1.3242188 -1.417969,-1.828125 h 3.011719 c 0.210938,0 0.316406,0 0.316406,-0.2695313 0,-0.3164062 -0.05859,-1.0429687 -0.5625,-1.5351562 -0.363281,-0.3632813 -0.890625,-0.5390625 -1.582031,-0.5390625 -1.59375,0 -2.460937,1.0195312 -2.460937,2.2734375 0,1.3359375 0.996093,2.296875 2.601562,2.296875 1.570313,0 2.003906,-1.0546875 2.003906,-1.21875 z M 37.33868,-2.496125 h -2.378907 c 0.02344,-0.3984375 0.03516,-0.8085938 0.234375,-1.1367188 0.269532,-0.3984375 0.667969,-0.515625 0.949219,-0.515625 1.171875,0 1.183594,1.3007813 1.195313,1.6523438 z m 5.414062,1.1015625 C 42.752742,-1.8281563 42.553523,-2.168 42.201961,-2.44925 41.815242,-2.7422188 41.498836,-2.8008125 40.71368,-2.9297188 40.350398,-3.0000313 39.705867,-3.1055 39.705867,-3.57425 c 0,-0.6210938 0.925781,-0.6210938 1.113281,-0.6210938 0.75,0 1.125,0.2929688 1.171875,0.84375 0.01172,0.140625 0.02344,0.1992188 0.234375,0.1992188 0.234375,0 0.234375,-0.058594 0.234375,-0.28125 V -4.2305 c 0,-0.1875 0,-0.28125 -0.175781,-0.28125 -0.04687,0 -0.05859,0 -0.445312,0.1875 -0.269532,-0.1289063 -0.609375,-0.1875 -1.007813,-0.1875 -0.304687,0 -1.839844,0 -1.839844,1.3007812 0,0.3984375 0.199219,0.6679688 0.398438,0.84375 0.398437,0.3398438 0.785156,0.4101563 1.546875,0.5390625 0.363281,0.070312 1.101562,0.1992188 1.101562,0.7851563 0,0.73828125 -0.914062,0.73828125 -1.125,0.73828125 -1.066406,0 -1.324218,-0.72656255 -1.441406,-1.14843755 -0.04687,-0.140625 -0.09375,-0.140625 -0.234375,-0.140625 -0.246094,0 -0.246094,0.058594 -0.246094,0.2929688 v 1.078125 c 0,0.1875 0,0.28125 0.1875,0.28125 0.07031,0 0.08203,0 0.292969,-0.15234375 l 0.257813,-0.1640625 c 0.457031,0.31640625 0.984375,0.31640625 1.183593,0.31640625 0.304688,0 1.839844,0 1.839844,-1.453125 z M 46.948055,-1.2305 v -0.5273438 h -0.46875 v 0.5039063 c 0,0.6796875 -0.316407,0.9140625 -0.597657,0.9140625 -0.585937,0 -0.585937,-0.6328125 -0.585937,-0.8671875 V -3.94925 h 1.464844 V -4.418 H 45.295711 V -6.3281563 H 44.83868 c -0.01172,0.9960938 -0.503907,1.9804688 -1.488282,2.015625 V -3.94925 h 0.820313 v 2.71875 c 0,1.06640625 0.867187,1.2890625 1.570312,1.2890625 0.75,0 1.207032,-0.5625 1.207032,-1.2890625 z m 3.492187,1.23046875 v -0.46875 H 49.819148 V -4.4883125 l -1.722656,0.082031 v 0.46875 c 0.585938,0 0.65625,0 0.65625,0.3867188 v 3.08203125 h -0.691406 v 0.46875 l 1.21875,-0.03515625 z M 49.959773,-6.0469063 c 0,-0.4335937 -0.339843,-0.7734375 -0.773437,-0.7734375 -0.433594,0 -0.773438,0.3398438 -0.773438,0.7734375 0,0.4335938 0.339844,0.7734375 0.773438,0.7734375 0.433594,0 0.773437,-0.3398437 0.773437,-0.7734375 z m 6.9375,6.04687505 v -0.46875 H 56.205867 V -3.0469063 c 0,-1.0429687 -0.539062,-1.4414062 -1.535156,-1.4414062 -0.949219,0 -1.476563,0.5742187 -1.746094,1.078125 v -1.078125 l -1.710937,0.082031 v 0.46875 c 0.621093,0 0.691406,0 0.691406,0.3867188 v 3.08203125 H 51.21368 v 0.46875 l 1.253906,-0.03515625 1.253906,0.03515625 v -0.46875 H 53.041805 V -2.5547188 c 0,-1.078125 0.855468,-1.5703125 1.476562,-1.5703125 0.339844,0 0.550781,0.2109375 0.550781,0.9726563 v 2.68359375 h -0.679687 v 0.46875 L 55.643367,-0.0351875 Z M 62.689266,-3.94925 c 0,-0.234375 -0.164063,-0.5859375 -0.621094,-0.5859375 -0.152344,0 -0.621094,0.035156 -1.054688,0.3867187 -0.1875,-0.1289062 -0.597656,-0.3398437 -1.335937,-0.3398437 -1.441406,0 -1.980469,0.7851562 -1.980469,1.4765625 0,0.4101562 0.199219,0.8203125 0.515625,1.0546875 -0.28125,0.3398437 -0.339844,0.6679687 -0.339844,0.8789062 0,0.1523438 0.03516,0.6445313 0.433594,0.96093755 -0.128906,0.0234375 -0.855469,0.234375 -0.855469,0.8671875 0,0.50390625 0.550782,1.25390625 2.542969,1.25390625 1.757813,0 2.542969,-0.5859375 2.542969,-1.2890625 0,-0.29296875 -0.08203,-0.92578125 -0.75,-1.265625 -0.5625,-0.28125 -1.160156,-0.28125 -2.109375,-0.28125 -0.257813,0 -0.714844,0 -0.773438,0 -0.433593,-0.0703125 -0.539062,-0.4570313 -0.539062,-0.6328125 0,-0.09375 0.03516,-0.2460938 0.09375,-0.328125 0.457031,0.234375 0.972656,0.2578125 1.21875,0.2578125 1.429687,0 1.980469,-0.7734375 1.980469,-1.4765625 0,-0.46875 -0.246094,-0.796875 -0.398438,-0.9492188 0.292969,-0.1640625 0.503906,-0.1875 0.621094,-0.1875 -0.02344,0.046875 -0.04687,0.1289063 -0.04687,0.1992188 0,0.2460937 0.175781,0.421875 0.433594,0.421875 0.257812,0 0.421875,-0.1875 0.421875,-0.421875 z m -2.132813,0.9375 c 0,0.4570312 0,1.1132812 -0.878906,1.1132812 -0.878906,0 -0.878906,-0.65625 -0.878906,-1.1132812 0,-0.4453125 0,-1.1132813 0.878906,-1.1132813 0.878906,0 0.878906,0.6679688 0.878906,1.1132813 z m 1.125,3.76171875 c 0,0.35156245 -0.398437,0.89062495 -1.6875,0.89062495 -1.195312,0 -1.6875,-0.4570312 -1.6875,-0.91406245 0,-0.59765625 0.632813,-0.59765625 0.773438,-0.59765625 h 1.160156 c 0.316406,0 1.441406,0 1.441406,0.62109375 z m 0,0"
       style="fill:#000000;fill-opacity:1;fill-rule:nonzero;stroke:none"
       aria-label="A/BTesting"
       transform="matrix(1.3333333,0,0,1.3333333,84.844,14.390667)" />
    <path
       id="path2"
       d="m 4.9458203,-6.5402734 v 4.59375 c 0,0.8789062 -0.6328125,1.41796871 -1.6875,1.41796871 -0.4804687,0 -0.8789062,-0.1171875 -1.1835937,-0.33984375 C 1.7466016,-1.1262109 1.5942578,-1.4543359 1.5942578,-1.9465234 v -4.59375 H 0.76222656 v 4.59375 c 0,1.32421871 0.94921874,2.15624996 2.49609374,2.15624996 1.5351563,0 2.5195313,-0.84375 2.5195313,-2.15624996 v -4.59375 z m 5.4550777,3.1523437 c -0.01172,-0.9257812 -0.6210933,-1.4414062 -1.6992183,-1.4414062 -1.1015625,0 -1.8046875,0.5625 -1.8046875,1.4296875 0,0.7382812 0.375,1.0898437 1.4882812,1.359375 l 0.703125,0.1640625 c 0.515625,0.1289062 0.7265625,0.3164062 0.7265625,0.65625 0,0.43359371 -0.4453125,0.73828121 -1.1015625,0.73828121 -0.3984375,0 -0.7382812,-0.1171875 -0.9257812,-0.31640625 C 7.6704297,-0.93871094 7.6118359,-1.0676172 7.5649609,-1.3957422 H 6.7798047 c 0.035156,1.07812501 0.6445312,1.60546876 1.875,1.60546876 1.1835937,0 1.9335933,-0.5859375 1.9335933,-1.48828126 0,-0.703125 -0.398437,-1.0898437 -1.3242183,-1.3125 L 8.5493359,-2.7668359 c -0.609375,-0.140625 -0.8671875,-0.3398438 -0.8671875,-0.6679688 0,-0.4335937 0.375,-0.703125 0.984375,-0.703125 0.609375,0 0.9257813,0.2578125 0.9492188,0.75 z m 5.150391,1.2890625 c 0,-0.7148437 -0.04687,-1.1484375 -0.1875,-1.5 -0.304687,-0.7734375 -1.019531,-1.2304687 -1.898437,-1.2304687 -1.300782,0 -2.144532,0.9960937 -2.144532,2.5429687 0,1.54687501 0.808594,2.49609376 2.132813,2.49609376 1.066406,0 1.816406,-0.609375 2.003906,-1.64062496 h -0.75 c -0.210937,0.62109371 -0.632812,0.94921871 -1.230469,0.94921871 -0.480468,0 -0.878906,-0.22265625 -1.125,-0.60937501 -0.1875,-0.2695312 -0.246093,-0.5390625 -0.257812,-1.0078125 z m -3.433594,-0.609375 c 0.05859,-0.8671875 0.585938,-1.4296875 1.335938,-1.4296875 0.738281,0 1.300781,0.609375 1.300781,1.3710938 0,0.023437 0,0.035156 0,0.058594 z m 4.444336,-1.9921875 v 4.69921876 h 0.75 V -2.4387109 c 0,-0.6679688 0.175781,-1.1132813 0.527344,-1.3710938 0.234375,-0.1757812 0.457031,-0.2226562 0.984375,-0.234375 v -0.7617187 c -0.128906,-0.023437 -0.199219,-0.023437 -0.292969,-0.023437 -0.480469,0 -0.855469,0.28125 -1.277344,0.984375 v -0.8554688 z m 9.102539,2.7304688 0.667969,1.96874996 h 0.9375 L 24.973164,-6.5402734 h -1.078125 l -2.332031,6.53906246 h 0.890625 l 0.691406,-1.96874996 z m -0.234375,-0.6914063 h -2.085937 l 1.078125,-2.9765625 z m 0,0"
       style="fill:#000000;fill-opacity:1;fill-rule:nonzero;stroke:none"
       aria-label="UserA"
       transform="matrix(1.3333333,0,0,1.3333333,20.026667,54.513333)" />
    <path
       id="path3"
       d="m 4.9442969,-6.5402734 v 4.59375 c 0,0.8789062 -0.6328125,1.41796871 -1.6875,1.41796871 -0.4804688,0 -0.8789063,-0.1171875 -1.1835938,-0.33984375 C 1.7450781,-1.1262109 1.5927344,-1.4543359 1.5927344,-1.9465234 v -4.59375 H 0.76070313 v 4.59375 c 0,1.32421871 0.94921877,2.15624996 2.49609377,2.15624996 1.5351562,0 2.5195312,-0.84375 2.5195312,-2.15624996 v -4.59375 z m 5.4550781,3.1523437 c -0.01172,-0.9257812 -0.6210937,-1.4414062 -1.6992187,-1.4414062 -1.1015625,0 -1.8046875,0.5625 -1.8046875,1.4296875 0,0.7382812 0.375,1.0898437 1.4882812,1.359375 l 0.703125,0.1640625 c 0.515625,0.1289062 0.7265625,0.3164062 0.7265625,0.65625 0,0.43359371 -0.4453125,0.73828121 -1.1015625,0.73828121 -0.3984375,0 -0.7382812,-0.1171875 -0.9257812,-0.31640625 C 7.6689063,-0.93871094 7.6103125,-1.0676172 7.5634375,-1.3957422 H 6.7782813 c 0.035156,1.07812501 0.6445312,1.60546876 1.875,1.60546876 1.1835937,0 1.9335937,-0.5859375 1.9335937,-1.48828126 0,-0.703125 -0.398437,-1.0898437 -1.3242187,-1.3125 L 8.5478125,-2.7668359 C 7.9384375,-2.9074609 7.680625,-3.1066797 7.680625,-3.4348047 c 0,-0.4335937 0.375,-0.703125 0.984375,-0.703125 0.609375,0 0.9257813,0.2578125 0.9492188,0.75 z m 5.150391,1.2890625 c 0,-0.7148437 -0.04687,-1.1484375 -0.1875,-1.5 -0.304688,-0.7734375 -1.019532,-1.2304687 -1.898438,-1.2304687 -1.300781,0 -2.144531,0.9960937 -2.144531,2.5429687 0,1.54687501 0.808594,2.49609376 2.132812,2.49609376 1.066407,0 1.816407,-0.609375 2.003907,-1.64062496 h -0.75 c -0.210938,0.62109371 -0.632813,0.94921871 -1.230469,0.94921871 -0.480469,0 -0.878906,-0.22265625 -1.125,-0.60937501 -0.1875,-0.2695312 -0.246094,-0.5390625 -0.257813,-1.0078125 z m -3.433594,-0.609375 c 0.05859,-0.8671875 0.585937,-1.4296875 1.335937,-1.4296875 0.738282,0 1.300782,0.609375 1.300782,1.3710938 0,0.023437 0,0.035156 0,0.058594 z m 4.447266,-1.9921875 v 4.69921876 h 0.75 V -2.4387109 c 0,-0.6679688 0.175781,-1.1132813 0.527343,-1.3710938 0.234375,-0.1757812 0.457032,-0.2226562 0.984375,-0.234375 v -0.7617187 c -0.128906,-0.023437 -0.199218,-0.023437 -0.292968,-0.023437 -0.480469,0 -0.855469,0.28125 -1.277344,0.984375 v -0.8554688 z m 5.560546,4.69921876 h 2.953125 c 0.621094,0 1.078125,-0.17578125 1.429688,-0.55078125 0.316406,-0.33984375 0.503906,-0.80859371 0.503906,-1.31250001 0,-0.7851562 -0.363281,-1.265625 -1.195312,-1.59375 0.585937,-0.2695312 0.902343,-0.7617187 0.902343,-1.4179687 0,-0.4804688 -0.175781,-0.9023438 -0.515625,-1.2070313 -0.339843,-0.3046875 -0.796875,-0.4570312 -1.417968,-0.4570312 h -2.660157 z m 0.84375,-3.71484376 v -2.0859375 h 1.605469 c 0.46875,0 0.726563,0.058594 0.949219,0.234375 0.234375,0.1757813 0.363281,0.4453125 0.363281,0.8085938 0,0.3515625 -0.128906,0.6210937 -0.363281,0.8085937 -0.222656,0.1640625 -0.480469,0.234375 -0.949219,0.234375 z m 0,2.97656251 V -2.9894922 h 2.027344 c 0.410156,0 0.679688,0.1054688 0.867188,0.3164063 0.199218,0.2109375 0.304687,0.4921875 0.304687,0.8203125 0,0.3046875 -0.105469,0.5976562 -0.304687,0.796875 -0.1875,0.22265621 -0.457032,0.31640621 -0.867188,0.31640621 z m 0,0"
       style="fill:#000000;fill-opacity:1;fill-rule:nonzero;stroke:none"
       aria-label="UserB"
       transform="matrix(1.3333333,0,0,1.3333333,196.94667,54.513333)" />
    <path
       id="path4"
       d="m -94.69301,-48.00162 h 56.69362 v 14.17337 h -56.69362 z"
       style="fill:#d1e6f3;fill-opacity:1;fill-rule:nonzero;stroke:#808080;stroke-width:0.74721;stroke-linecap:butt;stroke-linejoin:miter;stroke-miterlimit:10;stroke-dasharray:none;stroke-opacity:1"
       transform="matrix(1.3333333,0,0,-1.3333333,126.75333,22.404)" />
    <path
       id="path5"
       d="M 4.196,0.00132813 6.0358438,-5.4713281 V 0.00132813 H 6.821 V -6.5377344 H 5.6608438 L 3.7624063,-0.84242187 1.8288125,-6.5377344 H 0.66865625 V 0.00132813 H 1.4655313 V -5.4713281 L 3.3170938,0.00132813 Z M 9.9059609,-4.8267969 c -1.3125,0 -2.109375,0.9375 -2.109375,2.5195313 0,1.57031248 0.7851563,2.51953123 2.1210938,2.51953123 1.3125003,0 2.1210933,-0.94921875 2.1210933,-2.48437503 0,-1.6289062 -0.773437,-2.5546875 -2.1328121,-2.5546875 z m 0.011719,0.6914063 c 0.8437501,0 1.3476561,0.6796875 1.3476561,1.8515625 0,1.1015625 -0.527344,1.80468748 -1.3476561,1.80468748 -0.8320313,0 -1.3476563,-0.69140628 -1.3476563,-1.82812498 0,-1.1367188 0.515625,-1.828125 1.3476563,-1.828125 z m 6.9785151,-2.4023438 h -0.75 v 2.4375 c -0.316406,-0.4804687 -0.808593,-0.7265625 -1.441406,-0.7265625 -1.21875,0 -2.015625,0.9726563 -2.015625,2.4726563 0,1.58203123 0.773438,2.56640623 2.039063,2.56640623 0.644531,0 1.101562,-0.24609375 1.5,-0.83203125 v 0.62109375 h 0.667968 z m -2.0625,2.4023438 c 0.808594,0 1.3125,0.7265625 1.3125,1.8398437 0,1.0898438 -0.515625,1.80468753 -1.3125,1.80468753 -0.820312,0 -1.371093,-0.72656253 -1.371093,-1.81640623 0,-1.1015625 0.550781,-1.828125 1.371093,-1.828125 z m 7.198243,2.0390625 c 0,-0.7148438 -0.04687,-1.1484375 -0.1875,-1.5 -0.304688,-0.7734375 -1.019532,-1.2304688 -1.898438,-1.2304688 -1.300781,0 -2.144531,0.9960938 -2.144531,2.5429688 0,1.54687498 0.808594,2.49609373 2.132812,2.49609373 1.066407,0 1.816407,-0.609375 2.003907,-1.64062503 h -0.75 c -0.210938,0.62109378 -0.632813,0.94921878 -1.230469,0.94921878 -0.480469,0 -0.878906,-0.22265625 -1.125,-0.60937498 -0.1875,-0.2695313 -0.246094,-0.5390625 -0.257813,-1.0078125 z m -3.433594,-0.609375 c 0.05859,-0.8671875 0.585937,-1.4296875 1.335937,-1.4296875 0.738282,0 1.300782,0.609375 1.300782,1.3710937 0,0.023437 0,0.035156 0,0.058594 z m 5.185547,-3.8320313 h -0.75 v 6.53906253 h 0.75 z m 7.368164,4.5703125 0.667968,1.96875003 h 0.9375 L 30.460648,-6.5377344 h -1.078125 l -2.332031,6.53906253 h 0.890625 L 28.632523,-1.9674219 Z M 30.91768,-2.6588281 h -2.085938 l 1.078125,-2.9765625 z m 6.002929,-3.8789063 h -0.832031 v 6.53906253 h 4.066406 v -0.73828125 h -3.234375 z m 4.78418,1.8398438 h -0.75 v 4.69921873 h 0.75 z m 0,-1.8398438 H 40.94307 v 0.9492188 h 0.761719 z m 4.570313,3.1523438 c -0.01172,-0.9257813 -0.621094,-1.4414063 -1.699219,-1.4414063 -1.101563,0 -1.804688,0.5625 -1.804688,1.4296875 0,0.7382813 0.375,1.0898438 1.488282,1.359375 l 0.703125,0.1640625 c 0.515625,0.1289063 0.726562,0.3164063 0.726562,0.65625 0,0.43359378 -0.445312,0.73828128 -1.101562,0.73828128 -0.398438,0 -0.738282,-0.1171875 -0.925782,-0.31640625 -0.117187,-0.140625 -0.175781,-0.26953123 -0.222656,-0.59765623 h -0.785156 c 0.03516,1.07812498 0.644531,1.60546873 1.875,1.60546873 1.183594,0 1.933594,-0.5859375 1.933594,-1.48828123 0,-0.703125 -0.398438,-1.0898438 -1.324219,-1.3125 l -0.714844,-0.1757813 c -0.609375,-0.140625 -0.867187,-0.3398437 -0.867187,-0.6679687 0,-0.4335938 0.375,-0.703125 0.984375,-0.703125 0.609375,0 0.925781,0.2578125 0.949218,0.75 z m 2.830078,-1.3125 h -0.761719 v -1.2890625 h -0.75 v 1.2890625 h -0.632813 v 0.609375 h 0.632813 v 3.55078123 c 0,0.48046875 0.328125,0.75 0.902344,0.75 0.1875,0 0.363281,-0.0234375 0.609375,-0.0703125 v -0.62109375 c -0.09375,0.0234375 -0.210938,0.0351563 -0.351563,0.0351563 -0.328125,0 -0.410156,-0.09375 -0.410156,-0.421875 V -4.0885156 h 0.761719 z m 0,0"
       style="fill:#000000;fill-opacity:1;fill-rule:nonzero;stroke:none"
       aria-label="ModelAList"
       transform="matrix(1.3333333,0,0,1.3333333,5.4053333,81.146667)" />
    <path
       id="path6"
       d="m 37.99939,-48.00162 h 56.69362 v 14.17337 H 37.99939 Z"
       style="fill:#fce4cc;fill-opacity:1;fill-rule:nonzero;stroke:#808080;stroke-width:0.74721;stroke-linecap:butt;stroke-linejoin:miter;stroke-miterlimit:10;stroke-dasharray:none;stroke-opacity:1"
       transform="matrix(1.3333333,0,0,-1.3333333,126.75333,22.404)" />
    <path
       id="path7"
       d="M 4.1964062,0.00132813 6.03625,-5.4713281 V 0.00132813 H 6.8214062 V -6.5377344 H 5.66125 L 3.7628125,-0.84242187 1.8292187,-6.5377344 H 0.6690625 v 6.53906253 h 0.796875 V -5.4713281 L 3.3175,0.00132813 Z m 5.709961,-4.82812503 c -1.3125,0 -2.109375,0.9375 -2.109375,2.5195313 0,1.57031248 0.7851562,2.51953123 2.1210937,2.51953123 1.3125001,0 2.1210941,-0.94921875 2.1210941,-2.48437503 0,-1.6289062 -0.773438,-2.5546875 -2.1328128,-2.5546875 z m 0.011719,0.6914063 c 0.8437498,0 1.3476558,0.6796875 1.3476558,1.8515625 0,1.1015625 -0.527344,1.80468748 -1.3476558,1.80468748 -0.8320312,0 -1.3476562,-0.69140628 -1.3476562,-1.82812498 0,-1.1367188 0.515625,-1.828125 1.3476562,-1.828125 z m 6.9785158,-2.4023438 h -0.75 v 2.4375 c -0.316407,-0.4804687 -0.808594,-0.7265625 -1.441407,-0.7265625 -1.21875,0 -2.015625,0.9726563 -2.015625,2.4726563 0,1.58203123 0.773438,2.56640623 2.039063,2.56640623 0.644531,0 1.101562,-0.24609375 1.5,-0.83203125 v 0.62109375 h 0.667969 z m -2.0625,2.4023438 c 0.808593,0 1.3125,0.7265625 1.3125,1.8398437 0,1.0898438 -0.515625,1.80468753 -1.3125,1.80468753 -0.820313,0 -1.371094,-0.72656253 -1.371094,-1.81640623 0,-1.1015625 0.550781,-1.828125 1.371094,-1.828125 z m 7.198242,2.0390625 c 0,-0.7148438 -0.04687,-1.1484375 -0.1875,-1.5 -0.304688,-0.7734375 -1.019532,-1.2304688 -1.898438,-1.2304688 -1.300781,0 -2.144531,0.9960938 -2.144531,2.5429688 0,1.54687498 0.808594,2.49609373 2.132812,2.49609373 1.066407,0 1.816407,-0.609375 2.003907,-1.64062503 h -0.75 c -0.210938,0.62109378 -0.632813,0.94921878 -1.230469,0.94921878 -0.480469,0 -0.878906,-0.22265625 -1.125,-0.60937498 -0.1875,-0.2695313 -0.246094,-0.5390625 -0.257813,-1.0078125 z m -3.433594,-0.609375 c 0.05859,-0.8671875 0.585937,-1.4296875 1.335937,-1.4296875 0.738282,0 1.300782,0.609375 1.300782,1.3710937 0,0.023437 0,0.035156 0,0.058594 z m 5.185547,-3.8320313 h -0.75 v 6.53906253 h 0.75 z m 3.817383,6.53906253 h 2.953125 c 0.621093,0 1.078125,-0.17578125 1.429687,-0.55078125 0.316406,-0.33984375 0.503906,-0.80859378 0.503906,-1.31249998 0,-0.7851563 -0.363281,-1.265625 -1.195312,-1.59375 0.585937,-0.2695313 0.902344,-0.7617188 0.902344,-1.4179688 0,-0.4804687 -0.175782,-0.9023437 -0.515625,-1.2070312 -0.339844,-0.3046875 -0.796875,-0.4570313 -1.417969,-0.4570313 H 27.60168 Z m 0.84375,-3.71484373 v -2.0859375 h 1.605468 c 0.46875,0 0.726563,0.058594 0.949219,0.234375 0.234375,0.1757812 0.363281,0.4453125 0.363281,0.8085937 0,0.3515625 -0.128906,0.6210938 -0.363281,0.8085938 -0.222656,0.1640625 -0.480469,0.234375 -0.949219,0.234375 z m 0,2.97656248 V -2.9869531 h 2.027343 c 0.410157,0 0.679688,0.1054687 0.867188,0.3164062 0.199219,0.2109375 0.304687,0.4921875 0.304687,0.8203125 0,0.3046875 -0.105468,0.5976563 -0.304687,0.796875 -0.1875,0.22265628 -0.457031,0.31640628 -0.867188,0.31640628 z m 8.472656,-5.80078128 h -0.832031 v 6.53906253 h 4.066406 v -0.73828125 h -3.234375 z m 4.787109,1.8398438 h -0.75 v 4.69921873 h 0.75 z m 0,-1.8398438 h -0.761718 v 0.9492188 h 0.761718 z m 4.567383,3.1523438 c -0.01172,-0.9257813 -0.621094,-1.4414063 -1.699219,-1.4414063 -1.101562,0 -1.804687,0.5625 -1.804687,1.4296875 0,0.7382813 0.375,1.0898438 1.488281,1.359375 l 0.703125,0.1640625 c 0.515625,0.1289063 0.726563,0.3164063 0.726563,0.65625 0,0.43359378 -0.445313,0.73828128 -1.101563,0.73828128 -0.398437,0 -0.738281,-0.1171875 -0.925781,-0.31640625 -0.117188,-0.140625 -0.175781,-0.26953123 -0.222656,-0.59765623 h -0.785157 c 0.03516,1.07812498 0.644532,1.60546873 1.875,1.60546873 1.183594,0 1.933594,-0.5859375 1.933594,-1.48828123 0,-0.703125 -0.398437,-1.0898438 -1.324219,-1.3125 l -0.714843,-0.1757813 c -0.609375,-0.140625 -0.867188,-0.3398437 -0.867188,-0.6679687 0,-0.4335938 0.375,-0.703125 0.984375,-0.703125 0.609375,0 0.925781,0.2578125 0.949219,0.75 z m 2.833008,-1.3125 h -0.761719 v -1.2890625 h -0.75 v 1.2890625 h -0.632812 v 0.609375 h 0.632812 v 3.55078123 c 0,0.48046875 0.328125,0.75 0.902344,0.75 0.1875,0 0.363281,-0.0234375 0.609375,-0.0703125 v -0.62109375 c -0.09375,0.0234375 -0.210938,0.0351563 -0.351563,0.0351563 -0.328125,0 -0.410156,-0.09375 -0.410156,-0.421875 V -4.0885156 h 0.761719 z m 0,0"
       style="fill:#000000;fill-opacity:1;fill-rule:nonzero;stroke:none"
       aria-label="ModelBList"
       transform="matrix(1.3333333,0,0,1.3333333,182.32667,81.146667)" />
    <path
       id="path8"
       d="m 3.9022969,-1.2886719 c 0,-0.6328125 -0.4335938,-1.21875 -1.1367188,-1.3828125 l -1.03125,-0.234375 c -0.609375,-0.140625 -0.79687497,-0.5859375 -0.79687497,-0.8671875 0,-0.46875 0.42187497,-0.9023437 1.05468747,-0.9023437 0.9375,0 1.3476563,0.6210937 1.4648438,1.359375 0.011719,0.1054687 0.011719,0.140625 0.1171875,0.140625 0.1171875,0 0.1171875,-0.046875 0.1171875,-0.1875 v -1.359375 c 0,-0.1171875 0,-0.1757813 -0.09375,-0.1757813 -0.058594,0 -0.070312,0.011719 -0.1171875,0.09375 l -0.2578125,0.3867188 c -0.4570313,-0.46875 -1.03125,-0.4804688 -1.2304688,-0.4804688 -0.8789062,0 -1.49999997,0.6210938 -1.49999997,1.3242188 0,0.3984375 0.17578125,0.6914062 0.421875,0.9257812 0.28124997,0.28125 0.50390627,0.328125 1.26562497,0.4921875 0.6328125,0.140625 0.7734375,0.1640625 0.9726563,0.3632813 0.1640625,0.1640625 0.3046875,0.3867187 0.3046875,0.703125 0,0.48046872 -0.3984375,0.97265622 -1.078125,0.97265622 -0.6679688,0 -1.60546877,-0.2578125 -1.65234377,-1.31250002 -0.0117188,-0.1054687 -0.0117188,-0.1523437 -0.1171875,-0.1523437 -0.1171875,0 -0.1171875,0.046875 -0.1171875,0.1875 v 1.34765622 c 0,0.12890625 0,0.1875 0.09375,0.1875 0.0585938,0 0.0703125,-0.0234375 0.1171875,-0.08203125 0.0585938,-0.08203125 0.19921875,-0.3046875 0.2578125,-0.3984375 0.43359377,0.38671875 0.97265627,0.48046875 1.41796877,0.48046875 0.9257812,0 1.5234375,-0.69140625 1.5234375,-1.42968752 z M 8.46675,-1.5113281 c 0,-0.8554688 -0.703125,-1.5585938 -1.59375,-1.5585938 -0.3984375,0 -0.796875,0.140625 -1.0898437,0.421875 v -0.421875 l -1.0429688,0.070312 v 0.2578125 c 0.4921875,0 0.5273438,0.035156 0.5273438,0.328125 v 3.21093752 c 0,0.30468748 -0.070312,0.30468748 -0.5273438,0.30468748 v 0.2460938 c 0,0 0.5039063,-0.023437 0.796875,-0.023437 0.2578125,0 0.7382813,0.023437 0.796875,0.023437 V 1.1019531 c -0.4453125,0 -0.515625,0 -0.515625,-0.30468748 v -1.13671875 c 0.035156,0.0351563 0.3632813,0.41015625 0.9492188,0.41015625 0.9140625,0 1.6992187,-0.69140625 1.6992187,-1.58203122 z m -0.6328125,0 c 0,0.79687497 -0.515625,1.38281247 -1.1132812,1.38281247 -0.609375,0 -0.8789063,-0.5390625 -0.9023438,-0.57421875 V -2.3199219 c 0.2109375,-0.3515625 0.609375,-0.5273437 0.984375,-0.5273437 0.5859375,0 1.03125,0.609375 1.03125,1.3359375 z M 10.757766,3.90625e-4 V -0.24570313 c -0.445313,0 -0.515625,0 -0.515625,-0.3046875 V -4.8394531 l -1.0546879,0.082031 v 0.2460938 c 0.46875,0 0.5273438,0.046875 0.5273438,0.3867187 v 3.57421877 c 0,0.3046875 -0.070312,0.3046875 -0.5273438,0.3046875 V 3.90625e-4 c 0,0 0.5039063,-0.023437505 0.7851563,-0.023437505 0.2695316,0 0.5273436,0 0.7851566,0.023437505 z m 2.206054,0 V -0.24570313 c -0.398437,0 -0.46875,0 -0.46875,-0.29296875 V -3.0699219 l -1.03125,0.070312 v 0.2578125 c 0.445313,0 0.503907,0.035156 0.503907,0.375 v 1.81640627 c 0,0.3046875 -0.07031,0.3046875 -0.527344,0.3046875 V 3.90625e-4 c 0,0 0.503906,-0.023437505 0.785156,-0.023437505 0.246094,0 0.492188,0 0.738281,0.023437505 z M 12.577102,-4.1949219 c 0,-0.2226562 -0.175782,-0.4101562 -0.398438,-0.4101562 -0.234375,0 -0.398437,0.1992187 -0.398437,0.3984375 0,0.2226562 0.175781,0.4101562 0.398437,0.4101562 0.246094,0 0.398438,-0.1992187 0.398438,-0.3984375 z m 3.342773,3.31640627 V -1.2652344 H 15.6855 v 0.37500002 c 0,0.48046875 -0.222656,0.73828125 -0.492187,0.73828125 -0.480469,0 -0.480469,-0.5859375 -0.480469,-0.71484375 V -2.7535156 h 1.078125 V -2.9996094 H 14.712844 V -4.2886719 H 14.46675 c 0,0.6328125 -0.292969,1.3242188 -0.960937,1.3359375 v 0.1992188 h 0.65625 v 1.88671872 c 0,0.7734375 0.585937,0.9375 0.972656,0.9375 0.46875,0 0.785156,-0.3984375 0.785156,-0.94921875 z m 8.525391,-2.22656247 -0.152344,-1.6054688 h -4.710938 l -0.140625,1.6054688 h 0.234375 c 0.09375,-1.2070313 0.292969,-1.359375 1.371094,-1.359375 0.140625,0 0.339844,0 0.410156,0.011719 0.152344,0.023437 0.152344,0.1054688 0.152344,0.2578125 v 3.62109377 c 0,0.234375 0,0.328125 -0.726562,0.328125 H 20.589797 V 3.90625e-4 c 0.339844,-0.023437505 0.996094,-0.023437505 1.359375,-0.023437505 0.363281,0 0.996094,0 1.347656,0.023437505 V -0.24570313 h -0.292969 c -0.726562,0 -0.726562,-0.09375 -0.726562,-0.328125 V -4.1949219 c 0,-0.1523437 0,-0.234375 0.152344,-0.2578125 0.07031,-0.011719 0.269531,-0.011719 0.410156,-0.011719 0.386719,0 0.691406,0 0.9375,0.140625 0.304687,0.1875 0.363281,0.6328125 0.363281,0.6679687 l 0.07031,0.5507813 z m 2.540039,0.4804687 c 0,-0.2460937 -0.222657,-0.4453125 -0.550782,-0.4453125 -0.351562,0 -0.726562,0.2109375 -0.9375,0.7382813 h -0.01172 v -0.7382813 l -0.996094,0.070312 v 0.2578125 c 0.46875,0 0.527344,0.046875 0.527344,0.3867188 v 1.80468747 c 0,0.3046875 -0.07031,0.3046875 -0.527344,0.3046875 V 3.90625e-4 c 0.03516,0 0.515625,-0.023437505 0.796875,-0.023437505 L 26.18843,3.90625e-4 V -0.24570313 h -0.140625 c -0.515625,0 -0.515625,-0.0820313 -0.515625,-0.31640625 V -1.5933594 c 0,-0.5859375 0.28125,-1.2890625 0.9375,-1.2890625 -0.05859,0.046875 -0.117188,0.140625 -0.117188,0.2578125 0,0.2226563 0.175781,0.3164063 0.316406,0.3164063 0.164063,0 0.316407,-0.1054688 0.316407,-0.3164063 z m 4.072265,1.99218752 V -1.0074219 h -0.246093 v 0.37500002 c 0,0.0703125 0,0.3984375 -0.257813,0.3984375 -0.257812,0 -0.257812,-0.328125 -0.257812,-0.41015625 V -1.8628906 c 0,-0.375 0,-0.6445313 -0.316407,-0.9023438 -0.28125,-0.234375 -0.621093,-0.3398437 -1.03125,-0.3398437 -0.667968,0 -1.125,0.2460937 -1.125,0.6679687 0,0.2226563 0.152344,0.3398438 0.328125,0.3398438 0.1875,0 0.328125,-0.1289063 0.328125,-0.3164063 0,-0.1289062 -0.05859,-0.2695312 -0.246093,-0.328125 0.257812,-0.1757812 0.65625,-0.1757812 0.703125,-0.1757812 0.386718,0 0.808593,0.2578125 0.808593,0.84375 v 0.2226562 c -0.375,0.011719 -0.84375,0.035156 -1.347656,0.2226563 -0.632812,0.2226562 -0.820312,0.609375 -0.820312,0.92578122 0,0.59765625 0.726562,0.7734375 1.21875,0.7734375 0.5625,0 0.878906,-0.31640625 1.03125,-0.5859375 0.02344,0.28125 0.210937,0.55078125 0.539062,0.55078125 0,0 0.691406,0 0.691406,-0.66796875 z m -1.3125,-0.3515625 c 0,0.66796875 -0.585937,0.85546875 -0.890625,0.85546875 -0.363281,0 -0.691406,-0.234375 -0.691406,-0.57421875 0,-0.38671872 0.328125,-0.92578122 1.582031,-0.97265622 z M 37.637648,3.90625e-4 V -0.24570313 c -0.445312,0 -0.515625,0 -0.515625,-0.3046875 V -3.0933594 l -0.925781,0.070312 c -0.07031,0 -0.105469,0 -0.117187,0.011719 -0.02344,0.011719 -0.03516,0.011719 -0.128907,0.011719 h -1.113281 v -0.7617187 c 0,-0.6914063 0.714844,-0.9492188 1.207031,-0.9492188 0.234375,0 0.46875,0.046875 0.644532,0.1875 -0.246094,0.058594 -0.269532,0.2578125 -0.269532,0.3398438 0,0.2109375 0.175782,0.3398437 0.339844,0.3398437 0.128906,0 0.351563,-0.082031 0.351563,-0.3515625 0,-0.3867187 -0.398438,-0.7148437 -1.042969,-0.7148437 -0.550781,0 -1.042969,0.1640625 -1.324219,0.3984375 -0.257812,-0.3515625 -0.703125,-0.3984375 -0.949219,-0.3984375 -0.714843,0 -1.699218,0.328125 -1.699218,1.1367187 v 0.7734375 h -0.597657 v 0.2460938 h 0.597657 v 2.20312497 c 0,0.3046875 -0.07031,0.3046875 -0.527344,0.3046875 V 3.90625e-4 c 0,0 0.503906,-0.023437505 0.785156,-0.023437505 0.257813,0 0.515625,0 0.785156,0.023437505 V -0.24570313 c -0.457031,0 -0.527343,0 -0.527343,-0.3046875 V -2.7535156 h 1.734375 v 2.20312497 c 0,0.3046875 -0.07031,0.3046875 -0.527344,0.3046875 V 3.90625e-4 c 0,0 0.503906,-0.023437505 0.785156,-0.023437505 0.269531,0 0.527344,0 0.785156,0.023437505 V -0.24570313 c -0.445312,0 -0.515625,0 -0.515625,-0.3046875 V -2.7535156 h 1.382813 c 0.28125,0 0.339844,0.070312 0.339844,0.375 v 1.82812497 c 0,0.3046875 -0.07031,0.3046875 -0.515625,0.3046875 V 3.90625e-4 c 0,0 0.492187,-0.023437505 0.773437,-0.023437505 0.269531,0 0.527344,0 0.785156,0.023437505 z M 34.426711,-4.5230469 c -0.222656,0.046875 -0.28125,0.2109375 -0.28125,0.3398438 0,0.058594 0.01172,0.234375 0.199219,0.3046875 v 0.8789062 h -1.757813 v -0.7617187 c 0,-0.6914063 0.703125,-0.9492188 1.195313,-0.9492188 0.1875,0 0.445312,0.035156 0.644531,0.1875 z m 6.823242,3.69140627 c 0,-0.09375 -0.08203,-0.09375 -0.117187,-0.09375 -0.08203,0 -0.09375,0.0234375 -0.128907,0.12890625 -0.152343,0.421875 -0.527343,0.64453125 -0.949218,0.64453125 -0.480469,0 -1.101563,-0.3515625 -1.101563,-1.35937497 0,-0.890625 0.421875,-1.3710938 1.078125,-1.3710938 0.08203,0 0.421875,0 0.667969,0.1054688 -0.117188,0.046875 -0.1875,0.1640625 -0.1875,0.3046875 0,0.1875 0.128906,0.328125 0.328125,0.328125 0.1875,0 0.328125,-0.1171875 0.328125,-0.3398438 0,-0.6210937 -0.960938,-0.6210937 -1.160156,-0.6210937 -1.042969,0 -1.699219,0.796875 -1.699219,1.59375 0,0.87890622 0.75,1.58203122 1.664062,1.58203122 1.042969,0 1.277344,-0.8203125 1.277344,-0.90234375 z m 5.583985,2.48437503 c 0,-0.046875 -0.02344,-0.058594 -0.07031,-0.1054688 C 45.837844,0.71523437 45.498,-0.46835938 45.498,-1.7457031 c 0,-1.875 0.714844,-2.8007813 1.289063,-3.3164063 0.02344,-0.023437 0.04687,-0.046875 0.04687,-0.082031 0,-0.082031 -0.08203,-0.082031 -0.140625,-0.082031 -1.324219,0.9257813 -1.675782,2.4140625 -1.675782,3.4804688 0,0.98437497 0.292969,2.50781247 1.675782,3.4804687 0.05859,0 0.140625,0 0.140625,-0.082031 z m 5.033203,-3.4804688 h -0.234375 c -0.07031,0.6796875 -0.175782,1.58203127 -1.5,1.58203127 h -0.691407 c -0.328125,0 -0.339843,-0.0585938 -0.339843,-0.28125 V -4.1949219 c 0,-0.2226562 0,-0.3164062 0.65625,-0.3164062 h 0.246093 v -0.2460938 l -1.21875,0.023437 -1.066406,-0.023437 v 0.2460938 h 0.175781 c 0.527344,0 0.550782,0.070312 0.550782,0.3164062 v 3.63281252 c 0,0.234375 -0.02344,0.31640625 -0.550782,0.31640625 H 47.718703 V 3.90625e-4 h 3.9375 z m 4.078125,0.3398438 c 0,-0.8671875 -0.75,-1.6171875 -1.710938,-1.6171875 -0.960937,0 -1.710937,0.75 -1.710937,1.6171875 0,0.86718747 0.773437,1.55859372 1.710937,1.55859372 0.9375,0 1.710938,-0.69140625 1.710938,-1.55859372 z m -0.632813,-0.058594 c 0,0.328125 -0.02344,0.70312502 -0.222656,0.98437502 -0.1875,0.26953125 -0.515625,0.41015625 -0.855469,0.41015625 -0.257812,0 -0.632812,-0.0820313 -0.867187,-0.421875 -0.1875,-0.29296875 -0.210938,-0.65624997 -0.210938,-0.97265627 0,-0.3046875 0.01172,-0.7148437 0.257813,-1.0078125 0.175781,-0.2109375 0.46875,-0.3632812 0.820312,-0.3632812 0.410156,0 0.703125,0.1992187 0.855469,0.4101562 0.199219,0.28125 0.222656,0.6210938 0.222656,0.9609375 z m 6.155274,-1.2070312 v -0.2460938 c -0.1875,0.011719 -0.292969,0.023437 -0.492188,0.023437 -0.210937,0 -0.480469,-0.011719 -0.691406,-0.023437 v 0.2460938 c 0.246094,0.011719 0.363281,0.140625 0.363281,0.3046875 0,0.058594 0,0.070312 -0.03516,0.1640625 l -0.679688,1.74609372 -0.75,-1.91015622 c -0.01172,-0.035156 -0.03516,-0.09375 -0.03516,-0.1289063 0,-0.1523437 0.175781,-0.1757812 0.375,-0.1757812 v -0.2460938 c -0.257812,0.011719 -0.503906,0.023437 -0.75,0.023437 -0.210937,0 -0.410156,-0.011719 -0.621094,-0.023437 v 0.2460938 c 0.164063,0 0.304688,0 0.398438,0.058594 0.105469,0.070312 0.164062,0.3046875 0.164062,0.3046875 0,0 -0.01172,0.058594 -0.03516,0.082031 l -0.644531,1.66406247 -0.714844,-1.80468747 c -0.03516,-0.09375 -0.03516,-0.1054688 -0.03516,-0.1289063 0,-0.1757812 0.246094,-0.1757812 0.375,-0.1757812 v -0.2460938 c 0,0 -0.503906,0.023437 -0.785156,0.023437 -0.222657,0 -0.445313,-0.011719 -0.65625,-0.023437 v 0.2460938 c 0.269531,0 0.421875,0 0.503906,0.1992187 l 0.960937,2.46093752 c 0.04687,0.10546875 0.07031,0.1640625 0.1875,0.1640625 0.128907,0 0.152344,-0.05859375 0.1875,-0.15234375 l 0.785157,-1.99218747 0.773437,1.98046872 c 0.04687,0.10546875 0.07031,0.1640625 0.199219,0.1640625 0.128906,0 0.140625,-0.046875 0.1875,-0.1640625 l 0.890625,-2.23828122 c 0.128906,-0.3398438 0.363281,-0.4101563 0.574219,-0.421875 z m 6.817382,1.4648437 c 0,-0.6328125 -0.433593,-1.21875 -1.136718,-1.3828125 l -1.03125,-0.234375 c -0.609375,-0.140625 -0.796875,-0.5859375 -0.796875,-0.8671875 0,-0.46875 0.421875,-0.9023437 1.054687,-0.9023437 0.9375,0 1.347656,0.6210937 1.464844,1.359375 0.01172,0.1054687 0.01172,0.140625 0.117187,0.140625 0.117188,0 0.117188,-0.046875 0.117188,-0.1875 v -1.359375 c 0,-0.1171875 0,-0.1757813 -0.09375,-0.1757813 -0.05859,0 -0.07031,0.011719 -0.117188,0.09375 l -0.257812,0.3867188 c -0.457031,-0.46875 -1.03125,-0.4804688 -1.230469,-0.4804688 -0.878906,0 -1.5,0.6210938 -1.5,1.3242188 0,0.3984375 0.175781,0.6914062 0.421875,0.9257812 0.28125,0.28125 0.503906,0.328125 1.265625,0.4921875 0.632813,0.140625 0.773438,0.1640625 0.972656,0.3632813 0.164063,0.1640625 0.304688,0.3867187 0.304688,0.703125 0,0.48046872 -0.398438,0.97265622 -1.078125,0.97265622 -0.667969,0 -1.605469,-0.2578125 -1.652344,-1.31250002 -0.01172,-0.1054687 -0.01172,-0.1523437 -0.117187,-0.1523437 -0.117188,0 -0.117188,0.046875 -0.117188,0.1875 v 1.34765622 c 0,0.12890625 0,0.1875 0.09375,0.1875 0.05859,0 0.07031,-0.0234375 0.117188,-0.08203125 0.05859,-0.08203125 0.199218,-0.3046875 0.257812,-0.3984375 0.433594,0.38671875 0.972656,0.48046875 1.417969,0.48046875 0.925781,0 1.523437,-0.69140625 1.523437,-1.42968752 z m 3.75586,0.45703127 c 0,-0.0351563 -0.01172,-0.10546875 -0.117188,-0.10546875 -0.08203,0 -0.105468,0.046875 -0.117187,0.1171875 -0.222656,0.5625 -0.75,0.66796875 -0.996094,0.66796875 -0.328125,0 -0.644531,-0.15234375 -0.855469,-0.41015625 C 69.697219,-0.89023438 69.6855,-1.3121094 69.6855,-1.5933594 h 2.167969 c 0.140625,0 0.1875,0 0.1875,-0.1523437 0,-0.609375 -0.339844,-1.359375 -1.371094,-1.359375 -0.914062,0 -1.617187,0.7265625 -1.617187,1.5820312 0,0.87890627 0.773437,1.59375002 1.699218,1.59375002 0.949219,0 1.289063,-0.75 1.289063,-0.90234395 z M 71.5605,-1.7691406 h -1.863281 c 0.07031,-0.984375 0.703125,-1.1484375 0.972656,-1.1484375 0.855469,0 0.878906,0.9726562 0.890625,1.1484375 z M 76.43843,3.90625e-4 V -0.24570313 c -0.457032,0 -0.527344,0 -0.527344,-0.3046875 V -2.1089844 c 0,-0.609375 -0.292969,-0.9609375 -1.042969,-0.9609375 -0.574219,0 -0.9375,0.3046875 -1.136719,0.6679688 v -0.6679688 l -1.03125,0.070312 v 0.2578125 c 0.46875,0 0.527344,0.046875 0.527344,0.3867188 v 1.80468747 c 0,0.3046875 -0.07031,0.3046875 -0.527344,0.3046875 V 3.90625e-4 c 0,0 0.503907,-0.023437505 0.796875,-0.023437505 0.257813,0 0.738282,0.01171875 0.796875,0.023437505 V -0.24570313 c -0.445312,0 -0.515625,0 -0.515625,-0.3046875 V -1.8042969 c 0,-0.7382812 0.574219,-1.078125 1.03125,-1.078125 0.492188,0 0.550782,0.3867188 0.550782,0.7382813 v 1.59374997 c 0,0.3046875 -0.07031,0.3046875 -0.515625,0.3046875 V 3.90625e-4 c 0,0 0.503906,-0.023437505 0.796875,-0.023437505 0.257812,0 0.738281,0.01171875 0.796875,0.023437505 z m 3.123047,-0.914062505 c 0,-0.26953122 -0.117188,-0.46875002 -0.292969,-0.64453122 -0.269531,-0.2460938 -0.585938,-0.2929688 -0.832031,-0.3398438 -0.5625,-0.09375 -1.007813,-0.1757812 -1.007813,-0.5507812 0,-0.2226563 0.1875,-0.4921875 0.84375,-0.4921875 0.808594,0 0.84375,0.5625 0.855469,0.7617187 0.01172,0.082031 0.09375,0.082031 0.117187,0.082031 0.128907,0 0.128907,-0.046875 0.128907,-0.1875 v -0.6445313 c 0,-0.1171875 0,-0.1757812 -0.105469,-0.1757812 -0.03516,0 -0.04687,0 -0.140625,0.082031 -0.01172,0 -0.08203,0.070312 -0.117188,0.1054688 -0.210937,-0.1523438 -0.480468,-0.1875 -0.738281,-0.1875 -0.996094,0 -1.230469,0.515625 -1.230469,0.8671875 0,0.2226562 0.09375,0.4101562 0.257813,0.5390625 0.269531,0.234375 0.539062,0.28125 0.960937,0.3515625 0.351563,0.070312 0.914063,0.1640625 0.914063,0.63281247 0,0.26953125 -0.1875,0.5859375 -0.855469,0.5859375 -0.667969,0 -0.914062,-0.43359375 -1.03125,-0.91406247 -0.02344,-0.082031 -0.03516,-0.1171875 -0.128906,-0.1171875 -0.117188,0 -0.117188,0.046875 -0.117188,0.18749997 v 0.85546875 c 0,0.12890625 0,0.1875 0.09375,0.1875 0.05859,0 0.199219,-0.15234375 0.339844,-0.3046875 0.304688,0.29296875 0.679688,0.3046875 0.84375,0.3046875 0.914063,0 1.242188,-0.4921875 1.242188,-0.9843745 z M 81.796828,3.90625e-4 V -0.24570313 c -0.398437,0 -0.46875,0 -0.46875,-0.29296875 V -3.0699219 l -1.03125,0.070312 v 0.2578125 c 0.445313,0 0.503906,0.035156 0.503906,0.375 v 1.81640627 c 0,0.3046875 -0.07031,0.3046875 -0.527343,0.3046875 V 3.90625e-4 c 0,0 0.503906,-0.023437505 0.785156,-0.023437505 0.246094,0 0.492187,0 0.738281,0.023437505 z M 81.410109,-4.1949219 c 0,-0.2226562 -0.175781,-0.4101562 -0.398437,-0.4101562 -0.234375,0 -0.398438,0.1992187 -0.398438,0.3984375 0,0.2226562 0.175782,0.4101562 0.398438,0.4101562 0.246094,0 0.398437,-0.1992187 0.398437,-0.3984375 z m 3.339844,3.31640627 V -1.2652344 h -0.234375 v 0.37500002 c 0,0.48046875 -0.222656,0.73828125 -0.492187,0.73828125 -0.480469,0 -0.480469,-0.5859375 -0.480469,-0.71484375 V -2.7535156 h 1.078125 v -0.2460938 h -1.078125 v -1.2890625 h -0.246094 c 0,0.6328125 -0.292969,1.3242188 -0.960937,1.3359375 v 0.1992188 h 0.65625 v 1.88671872 c 0,0.7734375 0.585937,0.9375 0.972656,0.9375 0.46875,0 0.785156,-0.3984375 0.785156,-0.94921875 z M 87.158156,3.90625e-4 V -0.24570313 c -0.398437,0 -0.46875,0 -0.46875,-0.29296875 V -3.0699219 l -1.03125,0.070312 v 0.2578125 c 0.445313,0 0.503907,0.035156 0.503907,0.375 v 1.81640627 c 0,0.3046875 -0.07031,0.3046875 -0.527344,0.3046875 V 3.90625e-4 c 0,0 0.503906,-0.023437505 0.785156,-0.023437505 0.246094,0 0.492188,0 0.738281,0.023437505 z M 86.771438,-4.1949219 c 0,-0.2226562 -0.175782,-0.4101562 -0.398438,-0.4101562 -0.234375,0 -0.398437,0.1992187 -0.398437,0.3984375 0,0.2226562 0.175781,0.4101562 0.398437,0.4101562 0.246094,0 0.398438,-0.1992187 0.398438,-0.3984375 z m 4.690429,1.4414063 v -0.2460938 c -0.175781,0.011719 -0.351562,0.023437 -0.527344,0.023437 -0.1875,0 -0.445312,-0.011719 -0.632812,-0.023437 v 0.2460938 c 0.292969,0.011719 0.292969,0.2460937 0.292969,0.2695312 0,0.035156 -0.01172,0.1054688 -0.05859,0.1992188 l -0.78516,1.72265622 -0.867188,-1.89843752 c 0,0 -0.04687,-0.082031 -0.04687,-0.1289062 0,-0.1640625 0.234375,-0.1640625 0.363281,-0.1640625 v -0.2460938 c 0,0 -0.515625,0.023437 -0.796875,0.023437 -0.210937,0 -0.480468,-0.011719 -0.691406,-0.023437 v 0.2460938 c 0.386719,0 0.46875,0.011719 0.574219,0.2460937 l 1.101562,2.42578127 c 0.03516,0.09375 0.08203,0.15234375 0.199219,0.15234375 0.128906,0 0.164063,-0.05859375 0.199219,-0.140625 l 1.019531,-2.25000002 c 0.199219,-0.421875 0.539063,-0.4335937 0.65625,-0.4335937 z M 93.59468,3.90625e-4 V -0.24570313 c -0.398438,0 -0.46875,0 -0.46875,-0.29296875 V -3.0699219 l -1.03125,0.070312 v 0.2578125 c 0.445312,0 0.503906,0.035156 0.503906,0.375 v 1.81640627 c 0,0.3046875 -0.07031,0.3046875 -0.527344,0.3046875 V 3.90625e-4 c 0,0 0.503906,-0.023437505 0.785156,-0.023437505 0.246094,0 0.492188,0 0.738282,0.023437505 z M 93.207961,-4.1949219 c 0,-0.2226562 -0.175781,-0.4101562 -0.398438,-0.4101562 -0.234375,0 -0.398437,0.1992187 -0.398437,0.3984375 0,0.2226562 0.175781,0.4101562 0.398437,0.4101562 0.246094,0 0.398438,-0.1992187 0.398438,-0.3984375 z m 3.342773,3.31640627 V -1.2652344 h -0.234375 v 0.37500002 c 0,0.48046875 -0.222656,0.73828125 -0.492187,0.73828125 -0.480469,0 -0.480469,-0.5859375 -0.480469,-0.71484375 V -2.7535156 h 1.078125 v -0.2460938 h -1.078125 v -1.2890625 h -0.246094 c 0,0.6328125 -0.292968,1.3242188 -0.960937,1.3359375 v 0.1992188 h 0.65625 v 1.88671872 c 0,0.7734375 0.585937,0.9375 0.972656,0.9375 0.46875,0 0.785156,-0.3984375 0.785156,-0.94921875 z m 4.242186,-1.87499997 v -0.2460938 c -0.19922,0.011719 -0.32812,0.023437 -0.52734,0.023437 -0.1875,0 -0.445314,-0.011719 -0.632814,-0.023437 v 0.2460938 c 0.222656,0.011719 0.28125,0.1523437 0.28125,0.2695312 0,0.082031 -0.03516,0.140625 -0.05859,0.2109375 l -0.773438,1.65234377 -0.867187,-1.83984377 c -0.01172,-0.046875 -0.03516,-0.082031 -0.03516,-0.1289062 0,-0.1640625 0.234375,-0.1640625 0.351562,-0.1640625 v -0.2460938 l -0.796875,0.023437 c -0.210937,0 -0.480469,-0.011719 -0.691406,-0.023437 v 0.2460938 c 0.398437,0 0.46875,0.023437 0.574219,0.2460937 l 1.171875,2.507812525 c -0.05859,0.140624995 -0.128907,0.269531245 -0.1875,0.410156245 -0.164063,0.33984375 -0.386719,0.82031253 -0.855469,0.82031253 -0.175781,0 -0.234375,-0.035156 -0.304688,-0.082031 0,0 0.210938,-0.070312 0.210938,-0.30468748 0,-0.17578125 -0.128906,-0.3046875 -0.304688,-0.3046875 -0.175781,0 -0.304687,0.12890625 -0.304687,0.31640625 0,0.32812503 0.328125,0.56250003 0.703125,0.56250003 0.597656,0 0.9375,-0.62109378 1.03125,-0.82031253 l 1.347653,-2.91796877 c 0.19922,-0.421875 0.55078,-0.4335937 0.66797,-0.433594 z m 2.51953,1.0078125 c 0,-0.984375 -0.29297,-2.5078125 -1.66406,-3.4804688 -0.0586,0 -0.14062,0 -0.14062,0.082031 0,0.035156 0.0234,0.058594 0.0703,0.1054687 0.59765,0.5507813 1.26562,1.4882813 1.26562,3.2929688 0,1.45312497 -0.45703,2.55468747 -1.20703,3.234375 -0.11719,0.1171875 -0.1289,0.1289062 -0.1289,0.1640625 0,0.035156 0.0234,0.082031 0.0937,0.082031 0.082,0 0.75,-0.4570312 1.20703,-1.32421873 0.30468,-0.5859375 0.5039,-1.3359375 0.5039,-2.15624997 z m 0,0"
       style="fill:#666666;fill-opacity:1;fill-rule:nonzero;stroke:none"
       aria-label="SplitTrafc(LowSensitivity)"
       transform="matrix(1.3333333,0,0,1.3333333,57.336,71.866667)" />
    <path
       id="path9"
       d="m 4.0205156,0.00122656 v -0.46875 H 2.8837969 V -6.3620547 h 1.1367187 v -0.46875 c -0.4101562,0.023437 -1.3945312,0.023437 -1.8515625,0.023437 -0.4570312,0 -1.42968747,0 -1.83984372,-0.023437 v 0.46875 H 1.4658281 v 5.89453126 H 0.32910938 v 0.46875 c 0.41015625,-0.03515625 1.38281252,-0.03515625 1.83984372,-0.03515625 0.4570313,0 1.4414063,0 1.8515625,0.03515625 z m 6.4511724,0 v -0.46875 H 9.7802813 V -3.0456484 c 0,-1.0429688 -0.5390625,-1.4414063 -1.5351563,-1.4414063 -0.9492187,0 -1.4765625,0.5742188 -1.7460937,1.078125 v -1.078125 l -1.7109375,0.082031 v 0.46875 c 0.6210937,0 0.6914062,0 0.6914062,0.3867187 v 3.08203126 H 4.7880938 v 0.46875 L 6.042,-0.03392969 7.2959063,0.00122656 v -0.46875 H 6.6162188 V -2.5534609 c 0,-1.078125 0.8554687,-1.5703125 1.4765625,-1.5703125 0.3398437,0 0.5507812,0.2109375 0.5507812,0.9726562 v 2.68359376 H 7.963875 v 0.46875 L 9.2177813,-0.03392969 Z M 14.19825,-1.2292422 V -1.7565859 H 13.7295 v 0.5039062 c 0,0.67968751 -0.316406,0.91406251 -0.597656,0.91406251 -0.585938,0 -0.585938,-0.6328125 -0.585938,-0.86718751 v -2.7421875 h 1.464844 v -0.46875 h -1.464844 v -1.9101562 h -0.457031 c -0.01172,0.9960937 -0.503906,1.9804687 -1.488281,2.015625 v 0.3632812 h 0.820312 v 2.71875 c 0,1.06640626 0.867188,1.28906251 1.570313,1.28906251 0.75,0 1.207031,-0.5625 1.207031,-1.28906251 z m 5.569336,0.070312 c 0,-0.1875 -0.1875,-0.1875 -0.234375,-0.1875 -0.175781,0 -0.199219,0.046875 -0.257813,0.2109375 -0.210937,0.48046876 -0.773437,0.79687501 -1.417968,0.79687501 -1.40625,0 -1.417969,-1.32421871 -1.417969,-1.82812501 h 3.011719 c 0.210937,0 0.316406,0 0.316406,-0.2695312 0,-0.3164063 -0.05859,-1.0429688 -0.5625,-1.5351563 -0.363281,-0.3632812 -0.890625,-0.5390625 -1.582031,-0.5390625 -1.59375,0 -2.460938,1.0195313 -2.460938,2.2734375 0,1.33593751 0.996094,2.29687501 2.601563,2.29687501 1.570312,0 2.003906,-1.0546875 2.003906,-1.21875001 z m -0.949219,-1.3359375 h -2.378906 c 0.02344,-0.3984375 0.03516,-0.8085937 0.234375,-1.1367187 0.269531,-0.3984375 0.667969,-0.515625 0.949219,-0.515625 1.171875,0 1.183593,1.3007812 1.195312,1.6523437 z m 5.683594,-1.171875 c 0,-0.5273437 -0.539063,-0.8203125 -1.054688,-0.8203125 -0.703125,0 -1.101562,0.5039063 -1.324218,1.1367188 v -1.1367188 l -1.664063,0.082031 v 0.46875 c 0.621094,0 0.691406,0 0.691406,0.3867187 v 3.08203126 h -0.691406 v 0.46875 l 1.265625,-0.03515625 c 0.375,0 1.007813,0 1.371094,0.03515625 v -0.46875 H 22.228523 V -2.2136172 c 0,-0.6914062 0.246094,-1.9101562 1.242188,-1.9101562 0,0 -0.1875,0.1757812 -0.1875,0.4570312 0,0.4101563 0.316406,0.609375 0.609375,0.609375 0.292969,0 0.609375,-0.2109375 0.609375,-0.6093755 z m 3.234375,3.66796876 v -0.46875 H 27.04493 V -6.9128359 l -1.757813,0.082031 v 0.46875 c 0.621094,0 0.691406,0 0.691406,0.3867188 v 5.50781246 h -0.691406 v 0.46875 l 1.230469,-0.03515625 z m 5.179687,-1.16015626 c 0,-0.1875 -0.1875,-0.1875 -0.234375,-0.1875 -0.175781,0 -0.199218,0.046875 -0.257812,0.2109375 -0.210938,0.48046876 -0.773438,0.79687501 -1.417969,0.79687501 -1.40625,0 -1.417969,-1.32421871 -1.417969,-1.82812501 h 3.011719 c 0.210938,0 0.316406,0 0.316406,-0.2695312 0,-0.3164063 -0.05859,-1.0429688 -0.5625,-1.5351563 -0.363281,-0.3632812 -0.890625,-0.5390625 -1.582031,-0.5390625 -1.59375,0 -2.460937,1.0195313 -2.460937,2.2734375 0,1.33593751 0.996093,2.29687501 2.601562,2.29687501 1.570313,0 2.003906,-1.0546875 2.003906,-1.21875001 z m -0.949218,-1.3359375 h -2.378907 c 0.02344,-0.3984375 0.03516,-0.8085937 0.234375,-1.1367187 0.269532,-0.3984375 0.667969,-0.515625 0.949219,-0.515625 1.171875,0 1.183594,1.3007812 1.195313,1.6523437 z m 6.785156,2.26171876 c 0,-0.234375 -0.128906,-0.234375 -0.257813,-0.234375 -0.609375,-0.0117188 -0.609375,-0.140625 -0.609375,-0.36328125 V -2.9753359 c 0,-0.890625 -0.703125,-1.5351563 -2.191406,-1.5351563 -0.5625,0 -1.78125,0.035156 -1.78125,0.9140625 0,0.4453125 0.351563,0.6328125 0.621094,0.6328125 0.304687,0 0.621094,-0.2109375 0.621094,-0.6328125 0,-0.2929687 -0.1875,-0.46875 -0.210938,-0.4921875 0.269531,-0.058594 0.597656,-0.058594 0.714844,-0.058594 0.738281,0 1.089844,0.4101562 1.089844,1.171875 v 0.3398437 c -0.703125,0.023437 -3.234375,0.1171875 -3.234375,1.5585938 0,0.96093746 1.230468,1.13671871 1.921875,1.13671871 0.796875,0 1.265625,-0.41015625 1.488281,-0.8203125 0,0.3046875 0,0.76171875 1.03125,0.76171875 h 0.480469 c 0.199218,0 0.316406,0 0.316406,-0.2343752 z M 36.748055,-1.3815859 c 0,0.94921871 -0.914063,1.07812496 -1.160157,1.07812496 -0.515625,0 -0.914062,-0.33984375 -0.914062,-0.78515626 0,-1.0664062 1.582031,-1.2070312 2.074219,-1.2421875 z m 7.526367,-2.5664063 v -0.46875 c -0.246094,0.011719 -0.539063,0.023437 -0.785156,0.023437 l -0.902344,-0.023437 v 0.46875 c 0.1875,0 0.46875,0.023437 0.46875,0.1054688 0,0 0,0.023437 -0.04687,0.1171875 l -1.160156,2.4960937 -1.253907,-2.71875 h 0.527344 v -0.46875 l -1.230469,0.023437 -1.136718,-0.023437 v 0.46875 h 0.644531 l 1.734375,3.73828126 c 0.117187,0.24609375 0.257812,0.24609375 0.386719,0.24609375 0.164062,0 0.269531,-0.0234375 0.363281,-0.234375 l 1.652344,-3.55078121 c 0.05859,-0.140625 0.105468,-0.1992188 0.738281,-0.1992188 z m 3.117187,3.94921876 v -0.46875 H 46.770516 V -4.4870547 l -1.722657,0.082031 v 0.46875 c 0.585938,0 0.65625,0 0.65625,0.3867187 v 3.08203126 h -0.691406 v 0.46875 l 1.21875,-0.03515625 z M 46.911141,-6.0456484 c 0,-0.4335938 -0.339844,-0.7734375 -0.773438,-0.7734375 -0.433594,0 -0.773437,0.3398437 -0.773437,0.7734375 0,0.4335937 0.339843,0.7734375 0.773437,0.7734375 0.433594,0 0.773438,-0.3398438 0.773438,-0.7734375 z m 6.9375,6.04687496 v -0.46875 H 53.157234 V -3.0456484 c 0,-1.0429688 -0.539062,-1.4414063 -1.535156,-1.4414063 -0.949219,0 -1.476562,0.5742188 -1.746094,1.078125 v -1.078125 l -1.710937,0.082031 v 0.46875 c 0.621094,0 0.691406,0 0.691406,0.3867187 v 3.08203126 h -0.691406 v 0.46875 l 1.253906,-0.03515625 1.253906,0.03515625 v -0.46875 H 49.993172 V -2.5534609 c 0,-1.078125 0.855469,-1.5703125 1.476562,-1.5703125 0.339844,0 0.550782,0.2109375 0.550782,0.9726562 v 2.68359376 h -0.679688 v 0.46875 l 1.253906,-0.03515625 z m 5.791992,-3.94921876 c 0,-0.234375 -0.164063,-0.5859375 -0.621094,-0.5859375 -0.152344,0 -0.621094,0.035156 -1.054687,0.3867188 -0.1875,-0.1289063 -0.597657,-0.3398438 -1.335938,-0.3398438 -1.441406,0 -1.980469,0.7851563 -1.980469,1.4765625 0,0.4101563 0.199219,0.8203125 0.515625,1.0546875 -0.28125,0.3398438 -0.339843,0.6679688 -0.339843,0.8789063 0,0.15234371 0.03516,0.64453121 0.433593,0.96093746 -0.128906,0.0234375 -0.855468,0.234375 -0.855468,0.8671875 0,0.50390624 0.550781,1.25390624 2.542968,1.25390624 1.757813,0 2.542969,-0.5859375 2.542969,-1.28906249 0,-0.29296875 -0.08203,-0.92578125 -0.75,-1.265625 -0.5625,-0.28125 -1.160156,-0.28125 -2.109375,-0.28125 -0.257812,0 -0.714844,0 -0.773437,0 -0.433594,-0.0703125 -0.539063,-0.45703121 -0.539063,-0.63281251 0,-0.09375 0.03516,-0.2460937 0.09375,-0.328125 0.457031,0.234375 0.972656,0.2578125 1.21875,0.2578125 1.429688,0 1.980469,-0.7734375 1.980469,-1.4765625 0,-0.46875 -0.246094,-0.796875 -0.398438,-0.9492187 0.292969,-0.1640625 0.503907,-0.1875 0.621094,-0.1875 -0.02344,0.046875 -0.04687,0.1289062 -0.04687,0.1992187 0,0.2460938 0.175781,0.421875 0.433594,0.421875 0.257812,0 0.421875,-0.1875 0.421875,-0.421875 z m -2.132813,0.9375 c 0,0.4570313 0,1.1132813 -0.878906,1.1132813 -0.878906,0 -0.878906,-0.65625 -0.878906,-1.1132813 0,-0.4453125 0,-1.1132812 0.878906,-1.1132812 0.878906,0 0.878906,0.6679687 0.878906,1.1132812 z m 1.125,3.76171876 c 0,0.35156254 -0.398437,0.89062504 -1.6875,0.89062504 -1.195312,0 -1.6875,-0.4570313 -1.6875,-0.91406254 0,-0.59765625 0.632813,-0.59765625 0.773438,-0.59765625 h 1.160156 c 0.316406,0 1.441406,0 1.441406,0.62109375 z m 0,0"
       style="fill:#000000;fill-opacity:1;fill-rule:nonzero;stroke:none"
       aria-label="Interleaving"
       transform="matrix(1.3333333,0,0,1.3333333,351.444,15.041333)" />
    <path
       id="path10"
       d="m 4.2549297,-1.9699609 0.6679687,1.96874996 h 0.9375 L 3.5635234,-6.5402734 H 2.4853984 L 0.15336719,-0.00121094 H 1.0439922 L 1.7353984,-1.9699609 Z M 4.0205547,-2.6613672 H 1.9346172 l 1.078125,-2.9765625 z m 2.5927734,-2.0390625 v 4.69921876 h 0.75 V -2.5910547 c 0,-0.9609375 0.5039063,-1.5820312 1.265625,-1.5820312 0.5976563,0 0.9726563,0.3515625 0.9726563,0.9140625 v 3.25781246 H 10.351609 V -3.5519922 c 0,-0.7734375 -0.5859371,-1.2773437 -1.4882809,-1.2773437 -0.703125,0 -1.1484375,0.2695312 -1.5703125,0.9140625 v -0.7851563 z m 7.6992189,0 -1.300781,3.65625 -1.207032,-3.65625 h -0.796875 l 1.59375,4.72265626 -0.292968,0.73828125 c -0.117188,0.32812499 -0.28125,0.45703129 -0.597657,0.45703129 -0.105468,0 -0.234375,-0.011719 -0.398437,-0.058594 v 0.6796875 c 0.152344,0.082031 0.304687,0.1171875 0.503906,0.1171875 0.246094,0 0.503906,-0.082031 0.703125,-0.2226562 0.234375,-0.1757813 0.363281,-0.375 0.503906,-0.75000004 l 2.097657,-5.68359376 z m 8.44043,-1.8398437 v 4.59375 c 0,0.8789062 -0.632813,1.41796871 -1.6875,1.41796871 -0.480469,0 -0.878907,-0.1171875 -1.183594,-0.33984375 C 19.553758,-1.1262109 19.401414,-1.4543359 19.401414,-1.9465234 v -4.59375 h -0.832031 v 4.59375 c 0,1.32421871 0.949219,2.15624996 2.496094,2.15624996 1.535156,0 2.519531,-0.84375 2.519531,-2.15624996 v -4.59375 z m 5.455078,3.1523437 c -0.01172,-0.9257812 -0.621094,-1.4414062 -1.699219,-1.4414062 -1.101563,0 -1.804688,0.5625 -1.804688,1.4296875 0,0.7382812 0.375,1.0898437 1.488282,1.359375 l 0.703125,0.1640625 c 0.515625,0.1289062 0.726562,0.3164062 0.726562,0.65625 0,0.43359371 -0.445312,0.73828121 -1.101562,0.73828121 -0.398438,0 -0.738282,-0.1171875 -0.925782,-0.31640625 -0.117187,-0.140625 -0.175781,-0.26953126 -0.222656,-0.59765626 h -0.785156 c 0.03516,1.07812501 0.644531,1.60546876 1.875,1.60546876 1.183594,0 1.933594,-0.5859375 1.933594,-1.48828126 0,-0.703125 -0.398438,-1.0898437 -1.324219,-1.3125 l -0.714844,-0.1757812 c -0.609375,-0.140625 -0.867187,-0.3398438 -0.867187,-0.6679688 0,-0.4335937 0.375,-0.703125 0.984375,-0.703125 0.609375,0 0.925781,0.2578125 0.949218,0.75 z m 5.15039,1.2890625 c 0,-0.7148437 -0.04687,-1.1484375 -0.1875,-1.5 -0.304687,-0.7734375 -1.019531,-1.2304687 -1.898437,-1.2304687 -1.300781,0 -2.144531,0.9960937 -2.144531,2.5429687 0,1.54687501 0.808593,2.49609376 2.132812,2.49609376 1.066406,0 1.816406,-0.609375 2.003906,-1.64062496 h -0.75 c -0.210937,0.62109371 -0.632812,0.94921871 -1.230468,0.94921871 -0.480469,0 -0.878907,-0.22265625 -1.125,-0.60937501 -0.1875,-0.2695312 -0.246094,-0.5390625 -0.257813,-1.0078125 z m -3.433593,-0.609375 c 0.05859,-0.8671875 0.585937,-1.4296875 1.335937,-1.4296875 0.738281,0 1.300781,0.609375 1.300781,1.3710938 0,0.023437 0,0.035156 0,0.058594 z m 4.444336,-1.9921875 v 4.69921876 h 0.75 V -2.4387109 c 0,-0.6679688 0.175781,-1.1132813 0.527343,-1.3710938 0.234375,-0.1757812 0.457032,-0.2226562 0.984375,-0.234375 v -0.7617187 c -0.128906,-0.023437 -0.199218,-0.023437 -0.292968,-0.023437 -0.480469,0 -0.855469,0.28125 -1.277344,0.984375 v -0.8554688 z m 0,0"
       style="fill:#000000;fill-opacity:1;fill-rule:nonzero;stroke:none"
       aria-label="AnyUser"
       transform="matrix(1.3333333,0,0,1.3333333,366.83067,54.513333)" />
    <path
       id="path11"
       d="m 130.81154,-49.70522 h 42.5202 v 14.17337 h -42.5202 z"
       style="fill:#d1e6f3;fill-opacity:1;fill-rule:nonzero;stroke:#808080;stroke-width:0.74721;stroke-linecap:butt;stroke-linejoin:miter;stroke-miterlimit:10;stroke-dasharray:none;stroke-opacity:1"
       transform="matrix(1.3333333,0,0,-1.3333333,126.75333,22.404)" />
    <path
       id="path12"
       d="M 4.25425,-1.9685391 4.9222187,2.109375e-4 h 0.9375 L 3.5628437,-6.5388516 H 2.4847187 L 0.1526875,2.109375e-4 h 0.890625 L 1.7347187,-1.9685391 Z M 4.019875,-2.6599453 H 1.9339375 l 1.078125,-2.9765625 z M 8.3001484,-4.5232266 V 2.109375e-4 H 9.0853047 V -6.3513516 h -0.515625 c -0.28125,0.9726563 -0.4570313,1.1015625 -1.6757813,1.2539063 v 0.5742187 z m 0,0"
       style="fill:#000000;fill-opacity:1;fill-rule:nonzero;stroke:none"
       aria-label="A1"
       transform="matrix(1.3333333,0,0,1.3333333,322.20267,83.488)" />
    <path
       id="path13"
       d="m 223.52373,-49.70522 h 42.5202 v 14.17337 h -42.5202 z"
       style="fill:#fce4cc;fill-opacity:1;fill-rule:nonzero;stroke:#808080;stroke-width:0.74721;stroke-linecap:butt;stroke-linejoin:miter;stroke-miterlimit:10;stroke-dasharray:none;stroke-opacity:1"
       transform="matrix(1.3333333,0,0,-1.3333333,126.75333,22.404)" />
    <path
       id="path14"
       d="M 0.70242969,2.109375e-4 H 3.6555547 c 0.6210937,0 1.078125,-0.1757812475 1.4296875,-0.5507812475 0.3164062,-0.33984375 0.5039062,-0.80859379 0.5039062,-1.31249999 0,-0.7851563 -0.3632812,-1.265625 -1.1953125,-1.59375 0.5859375,-0.2695313 0.9023438,-0.7617188 0.9023438,-1.4179688 0,-0.4804687 -0.1757813,-0.9023437 -0.515625,-1.2070312 C 4.4407109,-6.3865078 3.9836797,-6.5388516 3.3625859,-6.5388516 H 0.70242969 Z M 1.5461797,-3.7146328 v -2.0859375 h 1.6054687 c 0.46875,0 0.7265625,0.058594 0.9492188,0.234375 0.234375,0.1757812 0.3632812,0.4453125 0.3632812,0.8085937 0,0.3515625 -0.1289062,0.6210938 -0.3632812,0.8085938 -0.2226563,0.1640625 -0.4804688,0.234375 -0.9492188,0.234375 z m 0,2.97656249 V -2.9880703 h 2.0273437 c 0.4101563,0 0.6796875,0.1054687 0.8671875,0.3164062 0.1992188,0.2109375 0.3046875,0.4921875 0.3046875,0.8203125 0,0.3046875 -0.1054687,0.5976563 -0.3046875,0.796875 -0.1875,0.22265629 -0.4570312,0.31640629 -0.8671875,0.31640629 z M 8.3020391,-4.5232266 V 2.109375e-4 H 9.0871953 V -6.3513516 h -0.515625 c -0.28125,0.9726563 -0.4570312,1.1015625 -1.6757812,1.2539063 v 0.5742187 z m 0,0"
       style="fill:#000000;fill-opacity:1;fill-rule:nonzero;stroke:none"
       aria-label="B1"
       transform="matrix(1.3333333,0,0,1.3333333,445.81733,83.488)" />
    <path
       id="path15"
       d="m 167.24629,-129.0764 h 62.36288 v 56.69362 h -62.36288 z"
       style="fill:#f2f2f2;fill-opacity:1;fill-rule:nonzero;stroke:#000000;stroke-width:0.74721;stroke-linecap:butt;stroke-linejoin:miter;stroke-miterlimit:10;stroke-dasharray:none;stroke-opacity:1"
       transform="matrix(1.3333333,0,0,-1.3333333,126.75333,22.404)" />
    <path
       id="path16"
       d="M 4.194625,-1.71875e-4 6.0344687,-5.4728281 V -1.71875e-4 H 6.819625 V -6.5392344 H 5.6594687 L 3.7610312,-0.84392187 1.8274375,-6.5392344 H 0.66728125 V -1.71875e-4 H 1.4641562 V -5.4728281 L 3.3157187,-1.71875e-4 Z M 8.8176719,-4.6993906 h -0.75 v 4.699218725 h 0.75 z m 0,-1.8398438 H 8.0559531 v 0.9492188 h 0.7617188 z m 3.2548831,4.1132813 1.582031,-2.2734375 h -0.84375 l -1.125,1.6992187 -1.136719,-1.6992187 H 9.7053672 L 11.27568,-2.3907969 9.6116172,-1.71875e-4 H 10.467086 L 11.65068,-1.8048594 12.834273,-1.71875e-4 h 0.867188 z m 6.196289,0.328125 c 0,-0.7148438 -0.04687,-1.1484375 -0.1875,-1.5 -0.304688,-0.7734375 -1.019532,-1.2304688 -1.898438,-1.2304688 -1.300781,0 -2.144531,0.9960938 -2.144531,2.5429688 0,1.54687498 0.808594,2.49609373 2.132812,2.49609373 1.066407,0 1.816407,-0.609375 2.003907,-1.64062503 h -0.75 c -0.210938,0.62109378 -0.632813,0.94921878 -1.230469,0.94921878 -0.480469,0 -0.878906,-0.22265625 -1.125,-0.60937498 -0.1875,-0.2695313 -0.246094,-0.5390625 -0.257813,-1.0078125 z m -3.433594,-0.609375 c 0.05859,-0.8671875 0.585937,-1.4296875 1.335937,-1.4296875 0.738282,0 1.300782,0.609375 1.300782,1.3710937 0,0.023437 0,0.035156 0,0.058594 z m 8.264648,-3.8320313 h -0.75 v 2.4375 c -0.316406,-0.4804687 -0.808593,-0.7265625 -1.441406,-0.7265625 -1.21875,0 -2.015625,0.9726563 -2.015625,2.4726563 0,1.58203123 0.773438,2.56640623 2.039063,2.56640623 0.644531,0 1.101562,-0.24609375 1.5,-0.83203125 v 0.621093745 h 0.667968 z m -2.0625,2.4023438 c 0.808594,0 1.3125,0.7265625 1.3125,1.8398437 0,1.0898438 -0.515625,1.80468753 -1.3125,1.80468753 -0.820312,0 -1.371093,-0.72656253 -1.371093,-1.81640623 0,-1.1015625 0.550781,-1.828125 1.371093,-1.828125 z m 6.647461,-2.4023438 h -0.832031 v 6.539062525 h 4.066406 V -0.73845312 h -3.234375 z m 4.78418,1.8398438 h -0.75 v 4.699218725 h 0.75 z m 0,-1.8398438 H 31.70732 v 0.9492188 h 0.761719 z m 4.570313,3.1523438 c -0.01172,-0.9257813 -0.621094,-1.4414063 -1.699219,-1.4414063 -1.101563,0 -1.804688,0.5625 -1.804688,1.4296875 0,0.7382813 0.375,1.0898438 1.488282,1.359375 l 0.703125,0.1640625 c 0.515625,0.1289063 0.726562,0.3164063 0.726562,0.65625 0,0.43359378 -0.445312,0.73828128 -1.101562,0.73828128 -0.398438,0 -0.738282,-0.1171875 -0.925782,-0.31640625 -0.117187,-0.140625 -0.175781,-0.26953123 -0.222656,-0.59765623 h -0.785156 c 0.03516,1.07812498 0.644531,1.60546873 1.875,1.60546873 1.183594,0 1.933594,-0.5859375 1.933594,-1.48828123 0,-0.703125 -0.398438,-1.0898438 -1.324219,-1.3125 l -0.714844,-0.1757813 c -0.609375,-0.140625 -0.867187,-0.3398437 -0.867187,-0.6679687 0,-0.4335938 0.375,-0.703125 0.984375,-0.703125 0.609375,0 0.925781,0.2578125 0.949218,0.75 z m 2.830078,-1.3125 h -0.761719 v -1.2890625 h -0.75 v 1.2890625 h -0.632813 v 0.609375 h 0.632813 v 3.55078123 c 0,0.48046875 0.328125,0.75 0.902344,0.75 0.1875,0 0.363281,-0.0234375 0.609375,-0.0703125 v -0.62109375 c -0.09375,0.0234375 -0.210938,0.0351563 -0.351563,0.0351563 -0.328125,0 -0.410156,-0.09375 -0.410156,-0.421875 V -4.0900156 h 0.761719 z m 0,0"
       style="fill:#000000;fill-opacity:1;fill-rule:nonzero;stroke:none"
       aria-label="MixedList"
       transform="matrix(1.3333333,0,0,1.3333333,364.59467,160.89867)" />
    <path
       id="path17"
       d="M 172.91556,-100.72957 H 223.9399 V -86.5562 H 172.91556 Z"
       style="fill:#d1e6f3;fill-opacity:1;fill-rule:nonzero;stroke:#808080;stroke-width:0.74721;stroke-linecap:butt;stroke-linejoin:miter;stroke-miterlimit:10;stroke-dasharray:none;stroke-opacity:1"
       transform="matrix(1.3333333,0,0,-1.3333333,126.75333,22.404)" />
    <path
       id="path18"
       d="M 4.2546953,-1.9681016 4.9226641,6.484375e-4 h 0.9375 L 3.5632891,-6.5384141 H 2.4851641 L 0.15313281,6.484375e-4 H 1.0437578 L 1.7351641,-1.9681016 Z M 4.0203203,-2.6595078 H 1.9343828 l 1.078125,-2.9765625 z M 8.3005938,-4.5227891 V 6.484375e-4 H 9.08575 V -6.3509141 H 8.570125 c -0.28125,0.9726563 -0.4570312,1.1015625 -1.6757812,1.2539063 v 0.5742187 z m 0,0"
       style="fill:#000000;fill-opacity:1;fill-rule:nonzero;stroke:none"
       aria-label="A1"
       transform="matrix(1.3333333,0,0,1.3333333,384.01067,151.51867)" />
    <path
       id="path19"
       d="m 172.91556,-115.65015 h 51.02434 v 14.17337 h -51.02434 z"
       style="fill:#fce4cc;fill-opacity:1;fill-rule:nonzero;stroke:#808080;stroke-width:0.74721;stroke-linecap:butt;stroke-linejoin:miter;stroke-miterlimit:10;stroke-dasharray:none;stroke-opacity:1"
       transform="matrix(1.3333333,0,0,-1.3333333,126.75333,22.404)" />
    <path
       id="path20"
       d="M 0.70391406,5.46875e-4 H 3.6570391 c 0.6210937,0 1.078125,-0.175781255 1.4296875,-0.550781255 0.3164062,-0.33984375 0.5039062,-0.80859372 0.5039062,-1.31250002 0,-0.7851562 -0.3632812,-1.265625 -1.1953125,-1.59375 0.5859375,-0.2695312 0.9023438,-0.7617187 0.9023438,-1.4179687 0,-0.4804688 -0.1757813,-0.9023438 -0.515625,-1.2070313 C 4.4421953,-6.3861719 3.9851641,-6.5385156 3.3640703,-6.5385156 H 0.70391406 Z M 1.5476641,-3.7142969 v -2.0859375 h 1.6054687 c 0.46875,0 0.7265625,0.058594 0.9492188,0.234375 0.234375,0.1757813 0.3632812,0.4453125 0.3632812,0.8085938 0,0.3515625 -0.1289062,0.6210937 -0.3632812,0.8085937 -0.2226563,0.1640625 -0.4804688,0.234375 -0.9492188,0.234375 z m 0,2.97656252 V -2.9877344 h 2.0273437 c 0.4101563,0 0.6796875,0.1054688 0.8671875,0.3164063 0.1992188,0.2109375 0.3046875,0.4921875 0.3046875,0.8203125 0,0.3046875 -0.1054687,0.5976562 -0.3046875,0.796875 -0.1875,0.22265622 -0.4570312,0.31640622 -0.8671875,0.31640622 z M 8.3005938,-4.5228906 V 5.46875e-4 H 9.08575 V -6.3510156 H 8.570125 c -0.28125,0.9726562 -0.4570312,1.1015625 -1.6757812,1.2539062 v 0.5742188 z m 0,0"
       style="fill:#000000;fill-opacity:1;fill-rule:nonzero;stroke:none"
       aria-label="B1"
       transform="matrix(1.3333333,0,0,1.3333333,384.01067,171.41333)" />
    <path
       id="path21"
       d="m 172.91556,-130.57074 h 51.02434 v 14.17337 h -51.02434 z"
       style="fill:#d1e6f3;fill-opacity:1;fill-rule:nonzero;stroke:#808080;stroke-width:0.74721;stroke-linecap:butt;stroke-linejoin:miter;stroke-miterlimit:10;stroke-dasharray:none;stroke-opacity:1"
       transform="matrix(1.3333333,0,0,-1.3333333,126.75333,22.404)" />
    <path
       id="path22"
       d="m 4.2546953,-1.9673047 0.6679688,1.96875001 h 0.9375 L 3.5632891,-6.5376172 H 2.4851641 L 0.15313281,0.00144531 H 1.0437578 L 1.7351641,-1.9673047 Z M 4.0203203,-2.6587109 H 1.9343828 l 1.078125,-2.9765625 z m 6.4951177,1.87499996 H 7.1755938 C 7.257625,-1.2993359 7.538875,-1.6274609 8.3240313,-2.0844922 l 0.890625,-0.4921875 c 0.8906247,-0.4804687 1.3476567,-1.1367187 1.3476567,-1.9101562 0,-0.5273438 -0.210938,-1.0195313 -0.5976567,-1.3710938 -0.375,-0.3398437 -0.8320313,-0.4921875 -1.4414063,-0.4921875 -0.8085937,0 -1.40625,0.28125 -1.7578125,0.8203125 -0.2226562,0.3398438 -0.3164062,0.7382813 -0.3398437,1.3828125 h 0.796875 c 0.023437,-0.4335937 0.070312,-0.6914062 0.1875,-0.9023437 0.1992187,-0.3867188 0.609375,-0.609375 1.0898437,-0.609375 0.7148438,0 1.2539063,0.5039062 1.2539063,1.1835937 0,0.5039063 -0.2929688,0.9375 -0.8554688,1.2539063 l -0.8320312,0.46875 c -1.3242188,0.75 -1.7109375,1.359375 -1.78125,2.75390621 h 4.2304692 z m 0,0"
       style="fill:#000000;fill-opacity:1;fill-rule:nonzero;stroke:none"
       aria-label="A2"
       transform="matrix(1.3333333,0,0,1.3333333,384.01067,191.30667)" />
    <path
       id="path23"
       d="m 158.02441,-50.07883 16.88301,-21.15173"
       style="fill:none;stroke:#000000;stroke-width:0.99628;stroke-linecap:butt;stroke-linejoin:miter;stroke-miterlimit:10;stroke-dasharray:none;stroke-opacity:1"
       transform="matrix(1.3333333,0,0,-1.3333333,126.75333,22.404)" />
    <path
       id="path24"
       d="M -2.78957,3.47087 C -2.27992,1.38832 -1.14423,0.40492 0,0 -1.14423,-0.40492 -2.27992,-1.38832 -2.78957,-3.47087"
       style="fill:none;stroke:#000000;stroke-width:0.99628;stroke-linecap:round;stroke-linejoin:round;stroke-miterlimit:10;stroke-dasharray:none;stroke-opacity:1"
       transform="matrix(0.83173333,1.0420267,1.0420267,-0.83173333,360.37753,117.89716)" />
    <path
       id="path25"
       d="M 238.83105,-50.07883 221.94806,-71.23056"
       style="fill:none;stroke:#000000;stroke-width:0.99628;stroke-linecap:butt;stroke-linejoin:miter;stroke-miterlimit:10;stroke-dasharray:none;stroke-opacity:1"
       transform="matrix(1.3333333,0,0,-1.3333333,126.75333,22.404)" />
    <path
       id="path26"
       d="M -2.78957,3.47087 C -2.27992,1.38832 -1.14423,0.40492 0,0 -1.14423,-0.40492 -2.27992,-1.38832 -2.78957,-3.47087"
       style="fill:none;stroke:#000000;stroke-width:0.99628;stroke-linecap:round;stroke-linejoin:round;stroke-miterlimit:10;stroke-dasharray:none;stroke-opacity:1"
       transform="matrix(-0.83173333,1.0420267,1.0420267,0.83173333,422.26975,117.89716)" />
    <path
       id="path27"
       d="m 5.0734844,-1.2784219 c 0,-0.609375 -0.609375,-1.125 -1.4648438,-1.2070312 0.6914063,-0.1289063 1.2539063,-0.5507813 1.2539063,-1.0898438 0,-0.6328125 -0.7265625,-1.1835937 -1.6992188,-1.1835937 H 0.42114063 v 0.2460937 h 0.1640625 c 0.53906247,0 0.55078127,0.070312 0.55078127,0.3164063 v 3.63281248 c 0,0.234375 -0.011719,0.31640625 -0.55078127,0.31640625 h -0.1640625 v 0.24609375 H 3.3742656 c 0.984375,0 1.6992188,-0.609375 1.6992188,-1.27734378 z m -0.9023438,-2.296875 c 0,0.4921875 -0.46875,0.9960938 -1.265625,0.9960938 H 1.7453594 v -1.6640625 c 0,-0.2109375 0.011719,-0.2695313 0.3398437,-0.2695313 h 1.03125 c 0.6914063,0 1.0546875,0.4921875 1.0546875,0.9375 z m 0.1875,2.2851563 c 0,0.51562498 -0.4570312,1.04296873 -1.2304687,1.04296873 H 2.0852031 c -0.328125,0 -0.3398437,-0.0585938 -0.3398437,-0.28125 V -2.3799844 h 1.4882812 c 0.7382813,0 1.125,0.5976563 1.125,1.0898438 z m 3.1699219,1.28906248 v -0.24609375 c -0.4453125,0 -0.515625,0 -0.515625,-0.3046875 V -4.8409219 L 5.95825,-4.7588906 v 0.2460937 c 0.46875,0 0.5273438,0.046875 0.5273438,0.3867188 v 3.57421873 c 0,0.3046875 -0.070312,0.3046875 -0.5273438,0.3046875 v 0.24609375 c 0,0 0.5039063,-0.0234375 0.7851563,-0.0234375 0.2695312,0 0.5273437,0 0.7851562,0.0234375 z m 3.5537105,-0.83203125 c 0,-0.0351563 -0.01172,-0.10546875 -0.117187,-0.10546875 -0.08203,0 -0.105469,0.046875 -0.117188,0.1171875 -0.222656,0.5625 -0.75,0.66796875 -0.9960933,0.66796875 -0.328125,0 -0.6445313,-0.15234375 -0.8554688,-0.41015625 C 8.7385234,-0.89170312 8.7268047,-1.3135781 8.7268047,-1.5948281 h 2.1679683 c 0.140625,0 0.1875,0 0.1875,-0.1523438 0,-0.609375 -0.339843,-1.359375 -1.3710933,-1.359375 -0.9140625,0 -1.6171875,0.7265625 -1.6171875,1.5820313 0,0.87890623 0.7734375,1.59374998 1.6992187,1.59374998 0.9492191,0 1.2890621,-0.75 1.2890621,-0.90234375 z M 10.601805,-1.7706094 H 8.7385234 c 0.070312,-0.984375 0.703125,-1.1484375 0.9726563,-1.1484375 0.8554683,0 0.8789063,0.9726563 0.8906253,1.1484375 z m 4.877929,1.76953128 v -0.24609375 c -0.457031,0 -0.527343,0 -0.527343,-0.3046875 V -2.1104531 c 0,-0.609375 -0.292969,-0.9609375 -1.042969,-0.9609375 -0.574219,0 -0.9375,0.3046875 -1.136719,0.6679687 v -0.6679687 l -1.03125,0.070312 v 0.2578125 c 0.46875,0 0.527344,0.046875 0.527344,0.3867187 v 1.80468753 c 0,0.3046875 -0.07031,0.3046875 -0.527344,0.3046875 v 0.24609375 c 0,0 0.503906,-0.0234375 0.796875,-0.0234375 0.257813,0 0.738281,0.01171875 0.796875,0.0234375 v -0.24609375 c -0.445312,0 -0.515625,0 -0.515625,-0.3046875 V -1.8057656 c 0,-0.7382813 0.574219,-1.078125 1.03125,-1.078125 0.492188,0 0.550781,0.3867187 0.550781,0.7382812 v 1.59375003 c 0,0.3046875 -0.07031,0.3046875 -0.515625,0.3046875 v 0.24609375 c 0,0 0.503907,-0.0234375 0.796875,-0.0234375 0.257813,0 0.738282,0.01171875 0.796875,0.0234375 z m 4.341797,0 v -0.24609375 c -0.46875,0 -0.527343,-0.0585938 -0.527343,-0.3984375 V -4.8409219 l -1.042969,0.082031 v 0.2460937 c 0.46875,0 0.515625,0.046875 0.515625,0.3867188 v 1.453125 c -0.257813,-0.2578125 -0.585938,-0.3984375 -0.972656,-0.3984375 -0.925782,0 -1.710938,0.6914062 -1.710938,1.5703125 0,0.86718748 0.738281,1.57031248 1.628906,1.57031248 0.574219,0 0.914063,-0.3046875 1.03125,-0.43359375 v 0.43359375 z m -1.078125,-0.7265625 c -0.175781,0.31640625 -0.539062,0.59765625 -0.984375,0.59765625 -0.398437,0 -0.679687,-0.22265625 -0.808593,-0.43359375 -0.140625,-0.19921875 -0.222657,-0.48046878 -0.222657,-0.92578128 0,-0.1640625 0,-0.6914062 0.28125,-1.0195312 0.28125,-0.3046875 0.621094,-0.375 0.820313,-0.375 0.339844,0 0.632812,0.1523437 0.832031,0.4101562 0.08203,0.1054688 0.08203,0.1171875 0.08203,0.2460938 z m 4.681641,-0.10546875 c 0,-0.0351563 -0.01172,-0.10546875 -0.117188,-0.10546875 -0.08203,0 -0.105468,0.046875 -0.117187,0.1171875 -0.222656,0.5625 -0.75,0.66796875 -0.996094,0.66796875 -0.328125,0 -0.644531,-0.15234375 -0.855469,-0.41015625 -0.257812,-0.328125 -0.269531,-0.74999998 -0.269531,-1.03124998 h 2.167969 c 0.140625,0 0.1875,0 0.1875,-0.1523438 0,-0.609375 -0.339844,-1.359375 -1.371094,-1.359375 -0.914062,0 -1.617187,0.7265625 -1.617187,1.5820313 0,0.87890623 0.773437,1.59374998 1.699218,1.59374998 0.949219,0 1.289063,-0.75 1.289063,-0.90234375 z M 22.944578,-1.7706094 h -1.863281 c 0.07031,-0.984375 0.703125,-1.1484375 0.972656,-1.1484375 0.855469,0 0.878906,0.9726563 0.890625,1.1484375 z m 4.822266,1.76953128 v -0.24609375 c -0.46875,0 -0.527344,-0.0585938 -0.527344,-0.3984375 V -4.8409219 l -1.042969,0.082031 v 0.2460937 c 0.46875,0 0.515625,0.046875 0.515625,0.3867188 v 1.453125 c -0.257812,-0.2578125 -0.585937,-0.3984375 -0.972656,-0.3984375 -0.925781,0 -1.710937,0.6914062 -1.710937,1.5703125 0,0.86718748 0.738281,1.57031248 1.628906,1.57031248 0.574219,0 0.914062,-0.3046875 1.03125,-0.43359375 v 0.43359375 z m -1.078125,-0.7265625 c -0.175781,0.31640625 -0.539063,0.59765625 -0.984375,0.59765625 -0.398438,0 -0.679688,-0.22265625 -0.808594,-0.43359375 -0.140625,-0.19921875 -0.222656,-0.48046878 -0.222656,-0.92578128 0,-0.1640625 0,-0.6914062 0.28125,-1.0195312 0.28125,-0.3046875 0.621094,-0.375 0.820312,-0.375 0.339844,0 0.632813,0.1523437 0.832032,0.4101562 0.08203,0.1054688 0.08203,0.1171875 0.08203,0.2460938 z m 6.714844,2.37890622 c 0,-0.046875 -0.02344,-0.058594 -0.07031,-0.1054687 -0.925781,-0.83203127 -1.265625,-2.01562502 -1.265625,-3.2929688 0,-1.875 0.714844,-2.8007812 1.289063,-3.3164062 0.02344,-0.023437 0.04687,-0.046875 0.04687,-0.082031 0,-0.082031 -0.08203,-0.082031 -0.140625,-0.082031 -1.324219,0.9257812 -1.675782,2.4140625 -1.675782,3.4804687 0,0.98437503 0.292969,2.50781253 1.675782,3.4804688 0.05859,0 0.140625,0 0.140625,-0.082031 z m 5.979492,-1.65234372 v -0.24609375 h -0.175782 c -0.527343,0 -0.550781,-0.0703125 -0.550781,-0.31640625 V -4.1963906 c 0,-0.234375 0.02344,-0.3164063 0.550781,-0.3164063 h 0.175782 v -0.2460937 l -1.054688,0.023437 -1.042969,-0.023437 v 0.2460937 h 0.164063 c 0.539062,0 0.550781,0.070312 0.550781,0.3164063 v 1.59375 h -2.332031 v -1.59375 c 0,-0.234375 0.01172,-0.3164063 0.550781,-0.3164063 h 0.164063 v -0.2460937 l -1.042969,0.023437 -1.054688,-0.023437 v 0.2460937 h 0.175782 c 0.527343,0 0.550781,0.070312 0.550781,0.3164063 v 3.63281248 c 0,0.234375 -0.02344,0.31640625 -0.550781,0.31640625 h -0.175782 v 0.24609375 l 1.054688,-0.0234375 1.042969,0.0234375 v -0.24609375 h -0.164063 c -0.539062,0 -0.550781,-0.0703125 -0.550781,-0.31640625 V -2.3565469 h 2.332031 v 1.79296878 c 0,0.234375 -0.01172,0.31640625 -0.550781,0.31640625 h -0.164063 v 0.24609375 l 1.042969,-0.0234375 z m 2.305664,0 v -0.24609375 c -0.398438,0 -0.46875,0 -0.46875,-0.29296875 V -3.0713906 l -1.03125,0.070312 v 0.2578125 c 0.445312,0 0.503906,0.035156 0.503906,0.375 v 1.81640623 c 0,0.3046875 -0.07031,0.3046875 -0.527344,0.3046875 v 0.24609375 c 0,0 0.503907,-0.0234375 0.785157,-0.0234375 0.246093,0 0.492187,0 0.738281,0.023438 z M 41.302,-4.1963906 c 0,-0.2226563 -0.175781,-0.4101563 -0.398437,-0.4101563 -0.234375,0 -0.398438,0.1992188 -0.398438,0.3984375 0,0.2226563 0.175781,0.4101563 0.398438,0.4101563 0.246093,0 0.398437,-0.1992188 0.398437,-0.3984375 z m 4.526367,1.40625 c 0,-0.1640625 -0.128906,-0.3515625 -0.410156,-0.3515625 -0.105469,0 -0.480469,0.011719 -0.808594,0.3164062 -0.210937,-0.1523437 -0.503906,-0.2460937 -0.808594,-0.2460937 -0.714843,0 -1.242187,0.4804687 -1.242187,1.0195312 0,0.2695313 0.140625,0.5273438 0.339844,0.703125 -0.05859,0.070312 -0.210938,0.2929688 -0.210938,0.56250003 0,0.09375 0.02344,0.421875 0.292969,0.62109375 -0.316406,0.10546875 -0.679688,0.33984375 -0.679688,0.703125 0,0.50390622 0.773438,0.89062502 1.710938,0.89062502 0.890625,0 1.710937,-0.3515625 1.710937,-0.90234377 0,-0.2109375 -0.08203,-0.5859375 -0.46875,-0.796875 -0.410156,-0.22265625 -0.820312,-0.22265625 -1.5,-0.22265625 -0.152343,0 -0.410156,0 -0.457031,0 -0.222656,-0.046875 -0.351562,-0.2578125 -0.351562,-0.46875 0,-0.16406248 0.04687,-0.22265628 0.09375,-0.28124998 0.105468,0.058594 0.351562,0.2226562 0.761718,0.2226562 0.714844,0 1.230469,-0.4921875 1.230469,-1.03125 0,-0.2695312 -0.117187,-0.4921875 -0.292969,-0.6679687 0.316407,-0.2226563 0.585938,-0.234375 0.714844,-0.234375 -0.03516,0.035156 -0.07031,0.058594 -0.07031,0.1757812 0,0.1289063 0.105468,0.2226563 0.222656,0.2226563 0.105469,0 0.222656,-0.070312 0.222656,-0.234375 z m -1.347656,0.7382812 c 0,0.1171875 0,0.3867188 -0.140625,0.5742188 -0.09375,0.1171875 -0.28125,0.2460937 -0.539063,0.2460937 -0.679687,0 -0.679687,-0.6679687 -0.679687,-0.8203125 0,-0.1054687 0,-0.3867187 0.140625,-0.5742187 0.09375,-0.1171875 0.28125,-0.2460938 0.539062,-0.2460938 0.679688,0 0.679688,0.6796875 0.679688,0.8203125 z m 0.808594,2.57812503 c 0,0.375 -0.550782,0.69140627 -1.277344,0.69140627 -0.726563,0 -1.277344,-0.32812502 -1.277344,-0.69140627 0,-0.24609375 0.222656,-0.5390625 0.667969,-0.55078125 h 0.398437 c 0.621094,0 1.488282,0 1.488282,0.55078125 z m 4.822265,-0.52734375 v -0.24609375 c -0.457031,0 -0.527343,0 -0.527343,-0.3046875 V -2.1104531 c 0,-0.609375 -0.292969,-0.9609375 -1.042969,-0.9609375 -0.621094,0 -0.960938,0.3632812 -1.113281,0.6328125 h -0.01172 v -2.4023438 l -1.042969,0.082031 v 0.2460937 c 0.46875,0 0.527344,0.046875 0.527344,0.3867188 v 3.57421873 c 0,0.3046875 -0.07031,0.3046875 -0.527344,0.3046875 v 0.24609375 c 0,0 0.503906,-0.0234375 0.796875,-0.0234375 0.257813,0 0.738281,0.01171875 0.796875,0.0234375 v -0.24609375 c -0.445312,0 -0.515625,0 -0.515625,-0.3046875 V -1.8057656 c 0,-0.7382813 0.574219,-1.078125 1.03125,-1.078125 0.492188,0 0.550781,0.3867187 0.550781,0.7382812 v 1.59375003 c 0,0.3046875 -0.07031,0.3046875 -0.515625,0.3046875 v 0.24609375 c 0,0 0.503907,-0.0234375 0.796875,-0.0234375 0.257813,0 0.738282,0.01171875 0.796876,0.0234375 z m 6.875977,-1.28906248 c 0,-0.6328125 -0.433594,-1.21875 -1.136719,-1.3828125 l -1.03125,-0.234375 c -0.609375,-0.140625 -0.796875,-0.5859375 -0.796875,-0.8671875 0,-0.46875 0.421875,-0.9023438 1.054688,-0.9023438 0.9375,0 1.347656,0.6210938 1.464843,1.359375 0.01172,0.1054688 0.01172,0.140625 0.117188,0.140625 0.117187,0 0.117187,-0.046875 0.117187,-0.1875 v -1.359375 c 0,-0.1171875 0,-0.1757812 -0.09375,-0.1757812 -0.05859,0 -0.07031,0.011719 -0.117187,0.09375 l -0.257813,0.3867187 c -0.457031,-0.46875 -1.03125,-0.4804687 -1.230468,-0.4804687 -0.878907,0 -1.5,0.6210937 -1.5,1.3242187 0,0.3984375 0.175781,0.6914063 0.421875,0.9257813 0.28125,0.28125 0.503906,0.328125 1.265625,0.4921875 0.632812,0.140625 0.773437,0.1640625 0.972656,0.3632812 0.164062,0.1640625 0.304687,0.3867188 0.304687,0.703125 0,0.48046878 -0.398437,0.97265628 -1.078125,0.97265628 -0.667968,0 -1.605468,-0.2578125 -1.652343,-1.31249998 -0.01172,-0.1054688 -0.01172,-0.1523438 -0.117188,-0.1523438 -0.117187,0 -0.117187,0.046875 -0.117187,0.1875 v 1.34765628 c 0,0.12890625 0,0.1875 0.09375,0.1875 0.05859,0 0.07031,-0.0234375 0.117187,-0.08203125 0.05859,-0.08203125 0.199219,-0.3046875 0.257813,-0.3984375 0.433593,0.38671875 0.972656,0.48046875 1.417968,0.48046875 0.925782,0 1.523438,-0.69140625 1.523438,-1.42968748 z m 3.755859,0.45703123 c 0,-0.0351563 -0.01172,-0.10546875 -0.117187,-0.10546875 -0.08203,0 -0.105469,0.046875 -0.117188,0.1171875 -0.222656,0.5625 -0.75,0.66796875 -0.996093,0.66796875 -0.328125,0 -0.644532,-0.15234375 -0.855469,-0.41015625 -0.257813,-0.328125 -0.269531,-0.74999998 -0.269531,-1.03124998 h 2.167968 c 0.140625,0 0.1875,0 0.1875,-0.1523438 0,-0.609375 -0.339843,-1.359375 -1.371093,-1.359375 -0.914063,0 -1.617188,0.7265625 -1.617188,1.5820313 0,0.87890623 0.773438,1.59374998 1.699219,1.59374998 0.949219,0 1.289062,-0.75 1.289062,-0.90234375 z M 60.262938,-1.7706094 h -1.863282 c 0.07031,-0.984375 0.703125,-1.1484375 0.972657,-1.1484375 0.855468,0 0.878906,0.9726563 0.890625,1.1484375 z m 4.877929,1.76953128 v -0.24609375 c -0.457031,0 -0.527344,0 -0.527344,-0.3046875 V -2.1104531 c 0,-0.609375 -0.292968,-0.9609375 -1.042968,-0.9609375 -0.574219,0 -0.9375,0.3046875 -1.136719,0.6679687 v -0.6679687 l -1.03125,0.070312 v 0.2578125 c 0.46875,0 0.527344,0.046875 0.527344,0.3867187 v 1.80468753 c 0,0.3046875 -0.07031,0.3046875 -0.527344,0.3046875 v 0.24609375 c 0,0 0.503906,-0.0234375 0.796875,-0.0234375 0.257812,0 0.738281,0.01171875 0.796875,0.0234375 v -0.24609375 c -0.445313,0 -0.515625,0 -0.515625,-0.3046875 V -1.8057656 c 0,-0.7382813 0.574219,-1.078125 1.03125,-1.078125 0.492187,0 0.550781,0.3867187 0.550781,0.7382812 v 1.59375003 c 0,0.3046875 -0.07031,0.3046875 -0.515625,0.3046875 v 0.24609375 c 0,0 0.503906,-0.0234375 0.796875,-0.0234375 0.257813,0 0.738281,0.01171875 0.796875,0.0234375 z m 3.123047,-0.9140625 c 0,-0.26953128 -0.117187,-0.46874998 -0.292969,-0.64453128 -0.269531,-0.2460937 -0.585937,-0.2929687 -0.832031,-0.3398437 -0.5625,-0.09375 -1.007812,-0.1757813 -1.007812,-0.5507813 0,-0.2226562 0.1875,-0.4921875 0.84375,-0.4921875 0.808593,0 0.84375,0.5625 0.855468,0.7617188 0.01172,0.082031 0.09375,0.082031 0.117188,0.082031 0.128906,0 0.128906,-0.046875 0.128906,-0.1875 v -0.6445312 c 0,-0.1171875 0,-0.1757813 -0.105469,-0.1757813 -0.03516,0 -0.04687,0 -0.140625,0.082031 -0.01172,0 -0.08203,0.070312 -0.117187,0.1054687 -0.210938,-0.1523437 -0.480469,-0.1875 -0.738281,-0.1875 -0.996094,0 -1.230469,0.515625 -1.230469,0.8671875 0,0.2226563 0.09375,0.4101563 0.257812,0.5390625 0.269532,0.234375 0.539063,0.28125 0.960938,0.3515625 0.351562,0.070312 0.914062,0.1640625 0.914062,0.63281253 0,0.26953125 -0.1875,0.5859375 -0.855468,0.5859375 -0.667969,0 -0.914063,-0.43359375 -1.03125,-0.91406253 -0.02344,-0.082031 -0.03516,-0.1171875 -0.128907,-0.1171875 -0.117187,0 -0.117187,0.046875 -0.117187,0.18750003 v 0.85546875 c 0,0.12890625 0,0.1875 0.09375,0.1875 0.05859,0 0.199219,-0.15234375 0.339844,-0.3046875 0.304687,0.29296875 0.679687,0.3046875 0.84375,0.3046875 0.914062,0 1.242187,-0.4921875 1.242187,-0.9843745 z m 2.241211,0.9140625 v -0.24609375 c -0.398437,0 -0.46875,0 -0.46875,-0.29296875 V -3.0713906 l -1.03125,0.070312 v 0.2578125 c 0.445313,0 0.503906,0.035156 0.503906,0.375 v 1.81640623 c 0,0.3046875 -0.07031,0.3046875 -0.527343,0.3046875 v 0.24609375 c 0,0 0.503906,-0.0234375 0.785156,-0.0234375 0.246094,0 0.492187,0 0.738281,0.023438 z M 70.118406,-4.1963906 c 0,-0.2226563 -0.175781,-0.4101563 -0.398437,-0.4101563 -0.234375,0 -0.398438,0.1992188 -0.398438,0.3984375 0,0.2226563 0.175782,0.4101563 0.398438,0.4101563 0.246094,0 0.398437,-0.1992188 0.398437,-0.3984375 z m 3.342774,3.31640623 V -1.2667031 h -0.234375 v 0.37499998 c 0,0.48046875 -0.222657,0.73828125 -0.492188,0.73828125 -0.480469,0 -0.480469,-0.5859375 -0.480469,-0.71484375 V -2.7549844 h 1.078125 v -0.2460937 h -1.078125 v -1.2890625 h -0.246093 c 0,0.6328125 -0.292969,1.3242187 -0.960938,1.3359375 v 0.1992187 h 0.65625 v 1.88671878 c 0,0.7734375 0.585938,0.9375 0.972656,0.9375 0.46875,0 0.785157,-0.3984375 0.785157,-0.94921875 z m 2.405273,0.87890625 v -0.24609375 c -0.398437,0 -0.46875,0 -0.46875,-0.29296875 V -3.0713906 l -1.03125,0.070312 v 0.2578125 c 0.445313,0 0.503906,0.035156 0.503906,0.375 v 1.81640623 c 0,0.3046875 -0.07031,0.3046875 -0.527343,0.3046875 v 0.24609375 c 0,0 0.503906,-0.0234375 0.785156,-0.0234375 0.246094,0 0.492187,0 0.738281,0.023438 z M 75.479734,-4.1963906 c 0,-0.2226563 -0.175781,-0.4101563 -0.398437,-0.4101563 -0.234375,0 -0.398438,0.1992188 -0.398438,0.3984375 0,0.2226563 0.175782,0.4101563 0.398438,0.4101563 0.246094,0 0.398437,-0.1992188 0.398437,-0.3984375 z m 4.69043,1.4414062 v -0.2460937 c -0.175781,0.011719 -0.351562,0.023437 -0.527344,0.023437 -0.1875,0 -0.445312,-0.011719 -0.632812,-0.023437 v 0.2460937 c 0.292969,0.011719 0.292969,0.2460938 0.292969,0.2695313 0,0.035156 -0.01172,0.1054687 -0.05859,0.1992187 l -0.785156,1.72265628 -0.867188,-1.89843748 c 0,0 -0.04687,-0.082031 -0.04687,-0.1289063 0,-0.1640625 0.234375,-0.1640625 0.363281,-0.1640625 v -0.2460937 c 0,0 -0.515625,0.023437 -0.796875,0.023437 -0.210937,0 -0.480468,-0.011719 -0.691406,-0.023437 v 0.2460937 c 0.386719,0 0.46875,0.011719 0.574219,0.2460938 l 1.101562,2.42578123 c 0.03516,0.09375 0.08203,0.15234375 0.199219,0.15234375 0.128906,0 0.164063,-0.05859375 0.199219,-0.140625 l 1.019531,-2.24999998 c 0.199219,-0.421875 0.539063,-0.4335938 0.65625,-0.4335938 z m 2.135742,2.75390628 v -0.24609375 c -0.398437,0 -0.46875,0 -0.46875,-0.29296875 V -3.0713906 l -1.03125,0.070312 v 0.2578125 c 0.445313,0 0.503907,0.035156 0.503907,0.375 v 1.81640623 c 0,0.3046875 -0.07031,0.3046875 -0.527344,0.3046875 v 0.24609375 c 0,0 0.503906,-0.0234375 0.785156,-0.0234375 0.246094,0 0.492188,0 0.738281,0.023438 z M 81.919188,-4.1963906 c 0,-0.2226563 -0.175782,-0.4101563 -0.398438,-0.4101563 -0.234375,0 -0.398437,0.1992188 -0.398437,0.3984375 0,0.2226563 0.175781,0.4101563 0.398437,0.4101563 0.246094,0 0.398438,-0.1992188 0.398438,-0.3984375 z m 3.339843,3.31640623 V -1.2667031 h -0.234375 v 0.37499998 c 0,0.48046875 -0.222656,0.73828125 -0.492187,0.73828125 -0.480469,0 -0.480469,-0.5859375 -0.480469,-0.71484375 V -2.7549844 h 1.078125 V -3.0010781 H 84.052 v -1.2890625 h -0.246094 c 0,0.6328125 -0.292968,1.3242187 -0.960937,1.3359375 v 0.1992187 h 0.65625 v 1.88671878 c 0,0.7734375 0.585937,0.9375 0.972656,0.9375 0.46875,0 0.785156,-0.3984375 0.785156,-0.94921875 z m 4.242188,-1.87500003 v -0.2460937 c -0.199219,0.011719 -0.328125,0.023437 -0.527344,0.023437 -0.1875,0 -0.445312,-0.011719 -0.632812,-0.023437 v 0.2460937 c 0.222656,0.011719 0.28125,0.1523438 0.28125,0.2695313 0,0.082031 -0.03516,0.140625 -0.05859,0.2109375 l -0.773438,1.65234373 -0.867187,-1.83984373 c -0.01172,-0.046875 -0.03516,-0.082031 -0.03516,-0.1289063 0,-0.1640625 0.234375,-0.1640625 0.351562,-0.1640625 v -0.2460937 l -0.796875,0.023437 c -0.210937,0 -0.480469,-0.011719 -0.691406,-0.023437 v 0.2460937 c 0.398437,0 0.46875,0.023437 0.574219,0.2460938 l 1.171875,2.50781248 c -0.05859,0.140625 -0.128907,0.26953125 -0.1875,0.41015625 -0.164063,0.33984375 -0.386719,0.82031247 -0.855469,0.82031247 -0.175781,0 -0.234375,-0.035156 -0.304688,-0.082031 0,0 0.210938,-0.070312 0.210938,-0.30468752 0,-0.17578125 -0.128906,-0.3046875 -0.304688,-0.3046875 -0.175781,0 -0.304687,0.12890625 -0.304687,0.31640625 0,0.32812497 0.328125,0.56249997 0.703125,0.56249997 0.597656,0 0.9375,-0.62109372 1.03125,-0.82031247 L 88.83325,-2.3213906 c 0.199219,-0.421875 0.550781,-0.4335938 0.667969,-0.4335938 z m 2.522461,1.0078125 c 0,-0.984375 -0.292969,-2.5078125 -1.664063,-3.4804687 -0.05859,0 -0.140625,0 -0.140625,0.082031 0,0.035156 0.02344,0.058594 0.07031,0.1054688 0.597656,0.5507812 1.265625,1.4882812 1.265625,3.2929687 0,1.45312503 -0.457032,2.55468753 -1.207032,3.234375 -0.117187,0.1171875 -0.128906,0.1289063 -0.128906,0.1640625 0,0.035156 0.02344,0.082031 0.09375,0.082031 0.08203,0 0.75,-0.4570313 1.207031,-1.32421877 0.304688,-0.5859375 0.503907,-1.3359375 0.503907,-2.15625003 z m 0,0"
       style="fill:#666666;fill-opacity:1;fill-rule:nonzero;stroke:none"
       aria-label="Blended(HighSensitivity)"
       transform="matrix(1.3333333,0,0,1.3333333,329.43067,214.228)" />
  </g>
</svg>
