<?xml version="1.0" encoding="UTF-8" standalone="no"?>
<!-- Created with Inkscape (http://www.inkscape.org/) -->

<svg
   version="1.1"
   id="svg1"
   width="759.89069"
   height="175.468"
   viewBox="0 0 759.89069 175.468"
   xmlns="http://www.w3.org/2000/svg"
   xmlns:svg="http://www.w3.org/2000/svg">
  <defs
     id="defs1" />
  <g
     id="g1">
    <path
       id="path1"
       d="m 6.7974219,-4.8033437 c -0.058594,-0.6210938 -0.1875,-1.0195313 -0.4921875,-1.4296875 -0.5625,-0.7382813 -1.453125,-1.1484375 -2.5429688,-1.1484375 -2.0507812,0 -3.32812498,1.4648437 -3.32812498,3.8203125 0,2.3320312 1.26562498,3.79687495 3.29296878,3.79687495 1.8046875,0 3.0117187,-1.0546875 3.09375,-2.71874995 h -1.453125 c -0.082031,0.9257812 -0.6796875,1.453125 -1.6054688,1.453125 -1.1484375,0 -1.828125,-0.9257813 -1.828125,-2.5195313 0,-1.59375 0.703125,-2.5546875 1.8867188,-2.5546875 0.515625,0 0.9375,0.1757813 1.21875,0.5273438 0.1640625,0.1992187 0.2460937,0.3867187 0.328125,0.7734375 z m 5.6103511,2.5546875 c 0.01172,-0.1171875 0.01172,-0.1757813 0.01172,-0.2460938 0,-0.5273437 -0.08203,-1.03125 -0.210937,-1.40625 -0.351563,-0.984375 -1.21875,-1.5703125 -2.3085941,-1.5703125 -1.546875,0 -2.484375,1.125 -2.484375,2.9179688 0,1.7226562 0.9375,2.78906245 2.4609375,2.78906245 1.2070316,0 2.1796876,-0.69140625 2.4843746,-1.74609375 h -1.371093 c -0.175782,0.421875 -0.5625,0.6796875 -1.0664066,0.6796875 -0.3984375,0 -0.7148437,-0.1757812 -0.9140625,-0.46875 C 8.8804297,-1.4986562 8.8218359,-1.74475 8.8101172,-2.2486562 Z M 8.8218359,-3.1744375 c 0.09375,-0.8203125 0.4453125,-1.2304687 1.0664063,-1.2304687 0.3398438,0 0.6562498,0.1757812 0.8554688,0.4570312 0.140625,0.1992188 0.199219,0.3984375 0.222656,0.7734375 z m 4.5439451,-2.203125 v 5.37890625 h 1.394531 V -3.2213125 c 0,-0.6445312 0.445313,-1.0664062 1.125,-1.0664062 0.597657,0 0.890625,0.3398437 0.890625,0.9726562 v 3.31640625 h 1.394532 V -3.6080312 c 0,-1.1835938 -0.65625,-1.8632813 -1.804688,-1.8632813 -0.726562,0 -1.207031,0.2695313 -1.605469,0.8671875 v -0.7734375 z m 8.455078,0.1054688 H 21.047422 V -6.7135 h -1.394531 v 1.4414063 h -0.691407 v 0.9257812 h 0.691407 v 3.3164063 c 0,0.84374995 0.445312,1.26562495 1.359375,1.26562495 0.304687,0 0.5625,-0.0351563 0.808593,-0.1171875 V -0.854125 c -0.140625,0.0234375 -0.222656,0.0234375 -0.316406,0.0234375 -0.375,0 -0.457031,-0.10546875 -0.457031,-0.5859375 v -2.9296875 h 0.773437 z m 0.949219,-0.1054688 v 5.37890625 h 1.394531 V -2.8580312 c 0,-0.8203125 0.398438,-1.2304688 1.21875,-1.2304688 0.152344,0 0.246094,0.011719 0.445313,0.046875 v -1.4179687 c -0.08203,-0.011719 -0.140625,-0.011719 -0.175781,-0.011719 -0.632813,0 -1.195313,0.421875 -1.488282,1.1484375 v -1.0546875 z m 8.458008,5.21484375 C 30.981992,-0.39709375 30.91168,-0.5494375 30.91168,-0.8306875 v -2.9882812 c 0,-1.0898438 -0.75,-1.6523438 -2.203125,-1.6523438 -1.453125,0 -2.203125,0.6210938 -2.296875,1.8632813 h 1.347656 c 0.07031,-0.5507813 0.292969,-0.7382813 0.984375,-0.7382813 0.539062,0 0.808594,0.1875 0.808594,0.5390625 0,0.1875 -0.09375,0.3398438 -0.246094,0.421875 -0.1875,0.09375 -0.1875,0.09375 -0.867188,0.2109375 l -0.5625,0.09375 c -1.066406,0.1875 -1.582031,0.7265625 -1.582031,1.6992188 0,0.4570312 0.128906,0.8320312 0.375,1.10156245 0.304688,0.31640625 0.773438,0.515625 1.253906,0.515625 0.597657,0 1.148438,-0.26953125 1.640625,-0.7734375 0,0.28125 0.02344,0.375 0.152344,0.5390625 h 1.511719 z M 29.552305,-2.1549062 c 0,0.796875 -0.398438,1.2539062 -1.113282,1.2539062 -0.46875,0 -0.75,-0.2460937 -0.75,-0.6445312 0,-0.4101563 0.222657,-0.609375 0.796875,-0.7382813 l 0.480469,-0.082031 c 0.363281,-0.070312 0.421875,-0.09375 0.585938,-0.1757813 z m 4.060547,-5.109375 H 32.21832 v 7.26562495 h 1.394532 z m 2.771484,1.8867187 h -1.394531 v 5.37890625 h 1.394531 z m 0,-1.8867187 h -1.394531 v 1.2539062 h 1.394531 z m 5.276367,1.8867187 h -4.183594 v 1.125 h 2.484375 l -2.660156,3.1289063 v 1.12499995 h 4.453125 V -1.1236562 h -2.730469 l 2.636719,-3.1289063 z m 5.71582,3.1289063 c 0.01172,-0.1171875 0.01172,-0.1757813 0.01172,-0.2460938 0,-0.5273437 -0.08203,-1.03125 -0.210937,-1.40625 -0.351563,-0.984375 -1.21875,-1.5703125 -2.308594,-1.5703125 -1.546875,0 -2.484375,1.125 -2.484375,2.9179688 0,1.7226562 0.9375,2.78906245 2.460937,2.78906245 1.207032,0 2.179688,-0.69140625 2.484375,-1.74609375 h -1.371093 c -0.175782,0.421875 -0.5625,0.6796875 -1.066407,0.6796875 -0.398437,0 -0.714843,-0.1757812 -0.914062,-0.46875 -0.128906,-0.1992187 -0.1875,-0.4453125 -0.199219,-0.9492187 z m -3.585937,-0.9257813 c 0.09375,-0.8203125 0.445312,-1.2304687 1.066406,-1.2304687 0.339844,0 0.65625,0.1757812 0.855469,0.4570312 0.140625,0.1992188 0.199219,0.3984375 0.222656,0.7734375 z m 7.942383,3.17578125 H 53.1275 V -7.2642812 h -1.394531 v 2.578125 C 51.393125,-5.2135 50.924375,-5.4713125 50.256406,-5.4713125 c -1.289062,0 -2.261719,1.2421875 -2.261719,2.859375 0,0.7265625 0.210938,1.4648438 0.574219,1.98046875 0.363281,0.52734375 1.03125,0.8671875 1.6875,0.8671875 0.667969,0 1.136719,-0.2578125 1.476563,-0.78515625 z M 50.561094,-4.2994375 c 0.703125,0 1.171875,0.6796875 1.171875,1.7109375 0,0.9726563 -0.480469,1.65234375 -1.171875,1.65234375 -0.703125,0 -1.171875,-0.69140625 -1.171875,-1.67578125 0,-0.9960937 0.46875,-1.6875 1.171875,-1.6875 z m 0,0"
       style="fill:#000000;fill-opacity:1;fill-rule:nonzero;stroke:none"
       aria-label="Centralized"
       transform="matrix(1.3333333,0,0,1.3333333,97.913333,16.701333)" />
    <path
       id="path2"
       d="M -42.52022,-37.22452 H 42.52022 V -14.547 h -85.04044 z"
       style="fill:#d1e6f3;fill-opacity:1;fill-rule:nonzero;stroke:#4c4c4c;stroke-width:0.74721;stroke-linecap:butt;stroke-linejoin:miter;stroke-miterlimit:10;stroke-dasharray:none;stroke-opacity:1"
       transform="matrix(1.3333333,0,0,-1.3333333,133.77733,21.56)" />
    <path
       id="path3"
       d="M 0.91353906,-1.5338047 H 2.0619766 c 0.28125,0 0.5039062,-0.09375 0.6914062,-0.2578125 0.2226563,-0.1992187 0.3164063,-0.4335937 0.3164063,-0.7734375 0,-0.6796875 -0.3984375,-1.0664062 -1.1132813,-1.0664062 H 0.45650781 v 3.63281246 h 0.45703125 z m 0,-0.4101562 V -3.2213047 H 1.8861953 c 0.4335938,0 0.703125,0.234375 0.703125,0.6328125 0,0.3984375 -0.2695312,0.6445313 -0.703125,0.6445313 z m 3.16992184,-1.6875 h -0.421875 v 3.63281246 h 0.421875 z m 3.0058594,3.38671871 c -0.035156,0.0117188 -0.058594,0.0117188 -0.082031,0.0117188 -0.1523438,0 -0.2226563,-0.0703125 -0.2226563,-0.19921875 V -1.9673984 c 0,-0.46875 -0.3398437,-0.7148438 -0.984375,-0.7148438 -0.375,0 -0.6914062,0.1054688 -0.8671875,0.3046875 -0.1171875,0.1289063 -0.1757812,0.28125 -0.1757812,0.5390625 h 0.4101562 c 0.035156,-0.3164062 0.2226563,-0.4570312 0.6210938,-0.4570312 0.3632812,0 0.5742187,0.140625 0.5742187,0.3867187 v 0.1054688 c 0,0.1757812 -0.1054687,0.2460937 -0.4335937,0.2929687 -0.5859375,0.070312 -0.6679688,0.09375 -0.8320313,0.1523438 -0.3046875,0.1289062 -0.4570312,0.36328121 -0.4570312,0.70312496 0,0.46875 0.328125,0.7734375 0.8554687,0.7734375 0.328125,0 0.5976563,-0.1171875 0.890625,-0.38671875 0.023437,0.26953125 0.1523438,0.38671875 0.421875,0.38671875 0.082031,0 0.1523438,-0.0117188 0.28125,-0.046875 z M 6.3627578,-0.81896094 c 0,0.140625 -0.035156,0.22265625 -0.1640625,0.33984375 -0.1640625,0.15234375 -0.375,0.234375 -0.609375,0.234375 -0.328125,0 -0.515625,-0.15234375 -0.515625,-0.421875 0,-0.26953125 0.1875,-0.41015621 0.6210938,-0.48046871 0.4453125,-0.058594 0.5273437,-0.082031 0.6679687,-0.140625 z M 8.4633438,-2.6119297 H 8.02975 V -3.3267734 H 7.6195938 v 0.7148437 H 7.2680313 v 0.3398438 h 0.3515625 v 1.96874996 c 0,0.26953125 0.1757812,0.421875 0.5039062,0.421875 0.1054688,0 0.1992188,-0.0117188 0.3398438,-0.03515625 v -0.3515625 c -0.058594,0.0117188 -0.1171875,0.0234375 -0.1992188,0.0234375 -0.1757812,0 -0.234375,-0.0585938 -0.234375,-0.234375 V -2.2720859 h 0.4335938 z m 1.4091796,0 H 9.4389297 v -0.4101562 c 0,-0.1640625 0.09375,-0.2578125 0.28125,-0.2578125 0.035156,0 0.058594,0 0.1523437,0 v -0.3398438 c -0.09375,-0.023437 -0.1523437,-0.023437 -0.234375,-0.023437 -0.3867187,0 -0.6210937,0.2226563 -0.6210937,0.5859375 v 0.4453125 H 8.6772109 v 0.3398438 h 0.3398438 v 2.27343746 h 0.421875 V -2.2720859 h 0.4335937 z m 1.3037106,-0.070312 c -0.738281,0 -1.1835934,0.5273438 -1.1835934,1.3945313 0,0.87890621 0.4453124,1.40624996 1.1835934,1.40624996 0.738282,0 1.183594,-0.52734375 1.183594,-1.38281246 0,-0.9023438 -0.433594,-1.4179688 -1.183594,-1.4179688 z m 0,0.3867188 c 0.46875,0 0.75,0.375 0.75,1.03125 0,0.60937496 -0.292968,0.99609371 -0.75,0.99609371 -0.457031,0 -0.75,-0.38671875 -0.75,-1.01953121 0,-0.6210938 0.292969,-1.0078125 0.75,-1.0078125 z m 1.751954,-0.3164063 v 2.61328126 h 0.421875 V -1.3580234 c 0,-0.3632813 0.09375,-0.609375 0.292968,-0.7617188 0.128907,-0.09375 0.257813,-0.1171875 0.539063,-0.1289062 v -0.421875 c -0.07031,-0.011719 -0.09375,-0.011719 -0.152344,-0.011719 -0.269531,0 -0.480469,0.1640625 -0.714844,0.5507813 v -0.4804688 z m 1.790039,0 v 2.61328126 h 0.410156 V -1.6392734 c 0,-0.375 0.28125,-0.6796875 0.621094,-0.6796875 0.304687,0 0.480468,0.1875 0.480468,0.5273437 V 0.00135156 H 16.65182 V -1.6392734 c 0,-0.375 0.269532,-0.6796875 0.609375,-0.6796875 0.304688,0 0.480469,0.1992187 0.480469,0.5273437 v 1.79296876 h 0.421875 V -1.9556797 c 0,-0.46875 -0.269531,-0.7265625 -0.761719,-0.7265625 -0.339843,0 -0.550781,0.1054688 -0.796875,0.3984375 -0.152343,-0.28125 -0.363281,-0.3984375 -0.703125,-0.3984375 -0.351562,0 -0.574218,0.1289063 -0.808593,0.4453125 v -0.375 z m 6.940429,-0.609375 h 1.195313 v -0.4101562 h -2.847656 v 0.4101562 h 1.195312 v 3.22265626 h 0.457031 z m 3.246094,2.0625 c 0,-0.3984375 -0.03516,-0.6445312 -0.105469,-0.8320312 -0.164062,-0.4335938 -0.5625,-0.6914063 -1.054687,-0.6914063 -0.726563,0 -1.195313,0.5625 -1.195313,1.4179688 0,0.85546871 0.457032,1.38281246 1.183594,1.38281246 0.597656,0 1.007813,-0.33984375 1.113281,-0.9140625 H 24.436 c -0.117187,0.3515625 -0.351562,0.52734375 -0.691406,0.52734375 -0.257813,0 -0.480469,-0.1171875 -0.621094,-0.33984375 -0.105469,-0.15234375 -0.140625,-0.29296875 -0.140625,-0.55078126 z m -1.910156,-0.3398437 c 0.03516,-0.4921875 0.328125,-0.796875 0.75,-0.796875 0.398437,0 0.714844,0.3398437 0.714844,0.7617187 0,0.011719 0,0.023437 0,0.035156 z m 4.787109,1.25390621 c -0.03516,0.0117188 -0.05859,0.0117188 -0.08203,0.0117188 -0.152344,0 -0.222656,-0.0703125 -0.222656,-0.19921875 V -1.9673984 c 0,-0.46875 -0.339844,-0.7148438 -0.984375,-0.7148438 -0.375,0 -0.691407,0.1054688 -0.867188,0.3046875 -0.117187,0.1289063 -0.175781,0.28125 -0.175781,0.5390625 h 0.410156 c 0.03516,-0.3164062 0.222656,-0.4570312 0.621094,-0.4570312 0.363281,0 0.574219,0.140625 0.574219,0.3867187 v 0.1054688 c 0,0.1757812 -0.105469,0.2460937 -0.433594,0.2929687 -0.585938,0.070312 -0.667969,0.09375 -0.832031,0.1523438 -0.304688,0.1289062 -0.457032,0.36328121 -0.457032,0.70312496 0,0.46875 0.328125,0.7734375 0.855469,0.7734375 0.328125,0 0.597656,-0.1171875 0.890625,-0.38671875 0.02344,0.26953125 0.152344,0.38671875 0.421875,0.38671875 0.08203,0 0.152344,-0.0117188 0.28125,-0.046875 z m -0.726562,-0.57421875 c 0,0.140625 -0.03516,0.22265625 -0.164063,0.33984375 -0.164062,0.15234375 -0.375,0.234375 -0.609375,0.234375 -0.328125,0 -0.515625,-0.15234375 -0.515625,-0.421875 0,-0.26953125 0.1875,-0.41015621 0.621094,-0.48046871 0.445312,-0.058594 0.527344,-0.082031 0.667969,-0.140625 z M 28.241664,-2.6119297 V 0.00135156 H 28.65182 V -1.6392734 c 0,-0.375 0.28125,-0.6796875 0.621094,-0.6796875 0.304688,0 0.480469,0.1875 0.480469,0.5273437 v 1.79296876 h 0.421875 V -1.6392734 c 0,-0.375 0.269531,-0.6796875 0.609375,-0.6796875 0.304687,0 0.480469,0.1992187 0.480469,0.5273437 v 1.79296876 h 0.421875 V -1.9556797 c 0,-0.46875 -0.269532,-0.7265625 -0.761719,-0.7265625 -0.339844,0 -0.550781,0.1054688 -0.796875,0.3984375 -0.152344,-0.28125 -0.363281,-0.3984375 -0.703125,-0.3984375 -0.351563,0 -0.574219,0.1289063 -0.808594,0.4453125 v -0.375 z m 0,0"
       style="fill:#000000;fill-opacity:1;fill-rule:nonzero;stroke:none"
       aria-label="PlatformTeam"
       transform="matrix(1.3333333,0,0,1.3333333,112.41867,58.478667)" />
    <path
       id="path4"
       d="m -99.96103,-88.99605 h 42.5202 v 22.67752 h -42.5202 z"
       style="fill:#fce4cc;fill-opacity:1;fill-rule:nonzero;stroke:#4c4c4c;stroke-width:0.74721;stroke-linecap:butt;stroke-linejoin:miter;stroke-miterlimit:10;stroke-dasharray:none;stroke-opacity:1"
       transform="matrix(1.3333333,0,0,-1.3333333,133.77733,21.56)" />
    <path
       id="path5"
       d="m 2.3308828,5.625e-4 1.0195313,-3.046875 V 5.625e-4 H 3.7840078 V -3.63225 H 3.1511953 L 2.0965078,-0.4681875 1.0183828,-3.63225 H 0.37385156 V 5.625e-4 h 0.43359375 v -3.046875 L 1.8386953,5.625e-4 Z M 5.4392812,-2.5189687 V 5.625e-4 H 5.872875 v -3.5273437 h -0.28125 c -0.1523438,0.5390625 -0.2578125,0.609375 -0.9375,0.703125 v 0.3046875 z m 0,0"
       style="fill:#000000;fill-opacity:1;fill-rule:nonzero;stroke:none"
       aria-label="M1"
       transform="matrix(1.3333333,0,0,1.3333333,24.232,127.468)" />
    <path
       id="path6"
       d="M -42.52022,-88.99605 H -2e-5 v 22.67752 h -42.5202 z"
       style="fill:#fce4cc;fill-opacity:1;fill-rule:nonzero;stroke:#4c4c4c;stroke-width:0.74721;stroke-linecap:butt;stroke-linejoin:miter;stroke-miterlimit:10;stroke-dasharray:none;stroke-opacity:1"
       transform="matrix(1.3333333,0,0,-1.3333333,133.77733,21.56)" />
    <path
       id="path7"
       d="m 2.3332656,5.625e-4 1.0195313,-3.046875 V 5.625e-4 H 3.7863906 V -3.63225 H 3.1535781 L 2.0988906,-0.4681875 1.0207656,-3.63225 H 0.37623437 V 5.625e-4 h 0.43359375 v -3.046875 L 1.8410781,5.625e-4 Z M 6.6692031,-0.43303125 H 4.8176406 C 4.8527969,-0.726 5.0168594,-0.90178125 5.4504531,-1.1595937 L 5.9426406,-1.429125 c 0.5039063,-0.2695312 0.75,-0.6328125 0.75,-1.0664062 0,-0.2929688 -0.1171875,-0.5625 -0.328125,-0.7617188 -0.2109375,-0.1875 -0.46875,-0.2695312 -0.796875,-0.2695312 -0.4570312,0 -0.7851562,0.1523437 -0.984375,0.4570312 -0.1171875,0.1875 -0.1757812,0.4101563 -0.1875,0.7617188 h 0.4453125 c 0.011719,-0.234375 0.035156,-0.3867188 0.1054688,-0.4921875 0.1054687,-0.2226563 0.3398437,-0.3515625 0.5976562,-0.3515625 0.3984375,0 0.703125,0.2929687 0.703125,0.6679687 0,0.28125 -0.1640625,0.515625 -0.4804687,0.6914063 L 5.3098281,-1.522875 c -0.7382812,0.4101563 -0.9492187,0.75 -0.9960937,1.5234375 h 2.3554687 z m 0,0"
       style="fill:#000000;fill-opacity:1;fill-rule:nonzero;stroke:none"
       aria-label="M2"
       transform="matrix(1.3333333,0,0,1.3333333,100.81867,127.468)" />
    <path
       id="path8"
       d="m 14.92058,-88.99605 h 42.5202 v 22.67752 h -42.5202 z"
       style="fill:#fce4cc;fill-opacity:1;fill-rule:nonzero;stroke:#4c4c4c;stroke-width:0.74721;stroke-linecap:butt;stroke-linejoin:miter;stroke-miterlimit:10;stroke-dasharray:none;stroke-opacity:1"
       transform="matrix(1.3333333,0,0,-1.3333333,133.77733,21.56)" />
    <path
       id="path9"
       d="M 2.3327188,-0.00117187 3.35225,-3.0480469 v 3.04687503 H 3.7858438 V -3.6339844 H 3.1530313 L 2.0983438,-0.46992187 1.0202188,-3.6339844 H 0.3756875 v 3.63281253 H 0.80928125 V -3.0480469 L 1.8405313,-0.00117187 Z M 5.2506875,-1.6183594 h 0.058594 l 0.1757812,-0.011719 c 0.4921875,0 0.7382813,0.2226562 0.7382813,0.64453123 0,0.4453125 -0.28125,0.71484375 -0.7382813,0.71484375 -0.46875,0 -0.703125,-0.24609375 -0.7382812,-0.76171878 h -0.433594 c 0.011719,0.29296878 0.070312,0.46875003 0.1523438,0.63281253 0.1757812,0.33984375 0.5273437,0.515625 1.0078125,0.515625 0.7265625,0 1.1953125,-0.43359375 1.1953125,-1.1015625 0,-0.44531253 -0.1757813,-0.70312503 -0.5976563,-0.84375003 0.328125,-0.1289062 0.4921875,-0.375 0.4921875,-0.7265625 0,-0.609375 -0.3984375,-0.9726562 -1.078125,-0.9726562 -0.703125,0 -1.0898437,0.3867187 -1.1015625,1.1367187 h 0.4335938 c 0.011719,-0.2109375 0.035156,-0.328125 0.082031,-0.4453125 0.1054688,-0.1875 0.3164063,-0.3164062 0.5976563,-0.3164062 0.3867187,0 0.6210937,0.234375 0.6210937,0.609375 0,0.2460937 -0.09375,0.3984375 -0.28125,0.4804687 -0.1289062,0.046875 -0.28125,0.070313 -0.5859375,0.070313 z m 0,0"
       style="fill:#000000;fill-opacity:1;fill-rule:nonzero;stroke:none"
       aria-label="M3"
       transform="matrix(1.3333333,0,0,1.3333333,177.40533,127.4)" />
    <path
       id="path10"
       d="m -60.90541,-65.94493 42.27075,27.79942"
       style="fill:none;stroke:#000000;stroke-width:0.99628;stroke-linecap:butt;stroke-linejoin:miter;stroke-miterlimit:10;stroke-dasharray:none;stroke-opacity:1"
       transform="matrix(1.3333333,0,0,-1.3333333,133.77733,21.56)" />
    <path
       id="path11"
       d="M -2.78957,3.47087 C -2.27992,1.38832 -1.14423,0.40492 0,0 -1.14423,-0.40492 -2.27992,-1.38832 -2.78957,-3.47087"
       style="fill:none;stroke:#000000;stroke-width:0.99628;stroke-linecap:round;stroke-linejoin:round;stroke-miterlimit:10;stroke-dasharray:none;stroke-opacity:1"
       transform="matrix(1.1139467,-0.73258667,-0.73258667,-1.1139467,109.48603,72.055747)" />
    <path
       id="path12"
       d="m -16.453,-65.94493 11.26542,27.42529"
       style="fill:none;stroke:#000000;stroke-width:0.99628;stroke-linecap:butt;stroke-linejoin:miter;stroke-miterlimit:10;stroke-dasharray:none;stroke-opacity:1"
       transform="matrix(1.3333333,0,0,-1.3333333,133.77733,21.56)" />
    <path
       id="path13"
       d="M -2.78957,3.47087 C -2.27992,1.38832 -1.14423,0.40492 0,0 -1.14423,-0.40492 -2.27992,-1.38832 -2.78957,-3.47087"
       style="fill:none;stroke:#000000;stroke-width:0.99628;stroke-linecap:round;stroke-linejoin:round;stroke-miterlimit:10;stroke-dasharray:none;stroke-opacity:1"
       transform="matrix(0.50657333,-1.23328,-1.23328,-0.50657333,127.11291,72.30516)" />
    <path
       id="path14"
       d="M 27.99977,-65.94493 8.7549,-38.41464"
       style="fill:none;stroke:#000000;stroke-width:0.99628;stroke-linecap:butt;stroke-linejoin:miter;stroke-miterlimit:10;stroke-dasharray:none;stroke-opacity:1"
       transform="matrix(1.3333333,0,0,-1.3333333,133.77733,21.56)" />
    <path
       id="path15"
       d="M -2.78957,3.47087 C -2.27992,1.38832 -1.14423,0.40492 0,0 -1.14423,-0.40492 -2.27992,-1.38832 -2.78957,-3.47087"
       style="fill:none;stroke:#000000;stroke-width:0.99628;stroke-linecap:round;stroke-linejoin:round;stroke-miterlimit:10;stroke-dasharray:none;stroke-opacity:1"
       transform="matrix(-0.76386667,-1.0927733,-1.0927733,0.76386667,145.07001,72.235173)" />
    <path
       id="path16"
       d="m 1.2998203,-2.1912109 h 1.6640625 c 0.5859375,0 0.84375,0.28125 0.84375,0.9140625 l -0.011719,0.44531246 c 0,0.31640625 0.058594,0.62109375 0.1523437,0.8320312525 H 4.7334141 V -0.16386719 C 4.4873203,-0.32792969 4.4404453,-0.50371094 4.4287266,-1.1833984 c -0.011719,-0.84375 -0.140625,-1.0898438 -0.6914063,-1.3242188 0.5742188,-0.28125 0.796875,-0.6328125 0.796875,-1.21875 0,-0.8789062 -0.5507812,-1.359375 -1.546875,-1.359375 H 0.64357031 V 1.953125e-4 H 1.2998203 Z m 0,-0.5742188 v -1.7460937 h 1.5703125 c 0.3515625,0 0.5625,0.058594 0.7265625,0.1992187 0.1757813,0.140625 0.2695313,0.375 0.2695313,0.6796875 0,0.5976563 -0.3164063,0.8671875 -0.9960938,0.8671875 z m 4.7783203,-0.890625 H 5.5039219 V 1.953125e-4 h 0.5742187 z m 0,-1.4296875 H 5.4922031 v 0.7382813 h 0.5859375 z m 3.5625,2.4492188 c -0.011719,-0.7148438 -0.4804687,-1.125 -1.3242187,-1.125 -0.8554688,0 -1.40625,0.4453125 -1.40625,1.1132812 0,0.5742188 0.2929687,0.84375 1.1601562,1.0546875 l 0.5390625,0.140625 c 0.4101563,0.09375 0.5625,0.234375 0.5625,0.50390626 0,0.33984375 -0.3398437,0.57421875 -0.84375,0.57421875 -0.3164062,0 -0.5859375,-0.09375 -0.7265625,-0.24609375 -0.09375,-0.10546875 -0.1289062,-0.2109375 -0.1640625,-0.46874996 H 6.8164219 c 0.035156,0.84374996 0.5039062,1.25390621 1.4648437,1.25390621 0.9140625,0 1.5,-0.45703125 1.5,-1.16015625 0,-0.53906246 -0.3046875,-0.84374996 -1.03125,-1.01953126 l -0.5625,-0.1289062 c -0.46875,-0.1171875 -0.6679687,-0.2695313 -0.6679687,-0.5273438 0,-0.328125 0.2929687,-0.5507812 0.7734375,-0.5507812 0.46875,0 0.7148437,0.1992187 0.7265625,0.5859375 z M 11.05568,-5.0857422 H 10.481461 V 1.953125e-4 H 11.05568 V -1.4177734 l 0.5625,-0.5625 1.230468,1.9804687125 h 0.726563 l -1.5,-2.3906250125 1.277344,-1.265625 h -0.75 l -1.546875,1.546875 z m 3.990234,4.35937501 H 14.319352 V 1.953125e-4 h 0.726562 z m 0,-2.92968751 h -0.726562 v 0.7265625 h 0.726562 z m 3.392578,3.6562500125 h 2.296875 c 0.480469,0 0.832031,-0.1289062525 1.101563,-0.4218750025 0.257812,-0.26953125 0.398437,-0.63281251 0.398437,-1.03125001 0,-0.609375 -0.28125,-0.984375 -0.925781,-1.2304687 0.457031,-0.2226563 0.703125,-0.5976563 0.703125,-1.1132813 0,-0.3632812 -0.140625,-0.6914062 -0.410156,-0.9257812 -0.257813,-0.2460938 -0.609375,-0.3632813 -1.101563,-0.3632813 h -2.0625 z M 19.083023,-2.8943359 v -1.6171875 h 1.253907 c 0.363281,0 0.574218,0.046875 0.75,0.1875 0.175781,0.1289062 0.269531,0.3398437 0.269531,0.6210937 0,0.2695313 -0.09375,0.4921875 -0.269531,0.6328125 -0.175782,0.1289063 -0.386719,0.1757813 -0.75,0.1757813 z m 0,2.32031246 V -2.3201172 h 1.582032 c 0.316406,0 0.527343,0.070312 0.679687,0.2460938 0.152344,0.1523437 0.234375,0.375 0.234375,0.6328125 0,0.2460937 -0.08203,0.46874996 -0.234375,0.62109371 -0.152344,0.17578125 -0.363281,0.24609375 -0.679687,0.24609375 z m 5.355469,-3.18749996 c -1.03125,0 -1.652344,0.7382812 -1.652344,1.9570312 0,1.23046876 0.621094,1.96875001 1.652344,1.96875001 1.03125,0 1.652344,-0.73828125 1.652344,-1.93359371 0,-1.265625 -0.597656,-1.9921875 -1.652344,-1.9921875 z m 0,0.5390625 c 0.65625,0 1.054688,0.5390625 1.054688,1.4414062 0,0.85546876 -0.410157,1.40625001 -1.054688,1.40625001 -0.644531,0 -1.042969,-0.5390625 -1.042969,-1.42968751 0,-0.8671875 0.398438,-1.4179687 1.042969,-1.4179687 z m 3.74707,-0.4335938 h -0.597656 v -0.9960937 h -0.574219 v 0.9960937 h -0.503906 v 0.4804688 h 0.503906 v 2.75390621 c 0,0.375 0.246094,0.5859375 0.703125,0.5859375 0.140625,0 0.269532,-0.0234375 0.46875,-0.046875 v -0.4921875 c -0.07031,0.0234375 -0.164062,0.0234375 -0.28125,0.0234375 -0.246093,0 -0.316406,-0.0703125 -0.316406,-0.328125 V -3.1755859 h 0.597656 z m 1.939454,0 h -0.597657 v -0.9960937 h -0.574218 v 0.9960937 h -0.503907 v 0.4804688 h 0.503907 v 2.75390621 c 0,0.375 0.246093,0.5859375 0.703125,0.5859375 0.140625,0 0.269531,-0.0234375 0.46875,-0.046875 v -0.4921875 c -0.07031,0.0234375 -0.164063,0.0234375 -0.28125,0.0234375 -0.246094,0 -0.316407,-0.0703125 -0.316407,-0.328125 V -3.1755859 h 0.597657 z m 1.224609,-1.4296875 H 30.763687 V 1.953125e-4 h 0.585938 z m 4.066406,3.4570313 c 0,-0.5625 -0.03516,-0.890625 -0.140625,-1.171875 -0.234375,-0.5976563 -0.796875,-0.9609375 -1.476562,-0.9609375 -1.019532,0 -1.675782,0.7851562 -1.675782,1.9804687 0,1.20703126 0.632813,1.94531251 1.652344,1.94531251 0.84375,0 1.417969,-0.48046875 1.570313,-1.27734371 h -0.585938 c -0.164062,0.48046871 -0.492187,0.73828121 -0.960937,0.73828121 -0.363282,0 -0.679688,-0.1640625 -0.878907,-0.48046875 -0.140625,-0.19921876 -0.1875,-0.41015626 -0.1875,-0.77343746 z m -2.671875,-0.4804688 c 0.04687,-0.6679687 0.457031,-1.1132812 1.042969,-1.1132812 0.574219,0 1.007812,0.4804687 1.007812,1.078125 0,0.011719 0,0.023437 0,0.035156 z m 3.46875,-1.546875 V 1.953125e-4 h 0.585938 V -2.0154297 c 0,-0.75 0.386718,-1.2304687 0.984375,-1.2304687 0.457031,0 0.75,0.28125 0.75,0.7148437 V 1.953125e-4 h 0.585937 V -2.7654297 c 0,-0.5976562 -0.457031,-0.9960937 -1.160156,-0.9960937 -0.539063,0 -0.890625,0.2109375 -1.21875,0.7265625 v -0.6210938 z m 6.958008,2.0273438 c 0,-0.5625 -0.03516,-0.890625 -0.140625,-1.171875 -0.234375,-0.5976563 -0.796875,-0.9609375 -1.476562,-0.9609375 -1.019532,0 -1.675782,0.7851562 -1.675782,1.9804687 0,1.20703126 0.632813,1.94531251 1.652344,1.94531251 0.84375,0 1.417969,-0.48046875 1.570313,-1.27734371 h -0.585938 c -0.164062,0.48046871 -0.492187,0.73828121 -0.960937,0.73828121 -0.363282,0 -0.679688,-0.1640625 -0.878907,-0.48046875 -0.140625,-0.19921876 -0.1875,-0.41015626 -0.1875,-0.77343746 z m -2.671875,-0.4804688 c 0.04687,-0.6679687 0.457031,-1.1132812 1.042969,-1.1132812 0.574219,0 1.007812,0.4804687 1.007812,1.078125 0,0.011719 0,0.023437 0,0.035156 z m 6.257813,-0.3164062 c -0.02344,-0.3515625 -0.105469,-0.5859375 -0.246094,-0.7851563 -0.246094,-0.3398437 -0.679688,-0.5507812 -1.195313,-0.5507812 -0.984375,0 -1.628906,0.7851562 -1.628906,1.9921875 0,1.18359371 0.632813,1.93359371 1.617188,1.93359371 0.878906,0 1.429687,-0.52734375 1.5,-1.41796871 h -0.585938 c -0.09375,0.58593746 -0.398437,0.87890621 -0.890625,0.87890621 -0.644531,0 -1.03125,-0.52734375 -1.03125,-1.39453121 0,-0.9023438 0.375,-1.453125 1.007813,-1.453125 0.492187,0 0.796875,0.2929687 0.867187,0.796875 z m 1.057617,-2.6601563 H 47.24025 V 1.953125e-4 h 0.574219 V -1.4177734 l 0.5625,-0.5625 1.230468,1.9804687125 H 50.334 l -1.5,-2.3906250125 1.277344,-1.265625 h -0.75 l -1.546875,1.546875 z m 0,0"
       style="fill:#ff0000;fill-opacity:1;fill-rule:nonzero;stroke:none"
       aria-label="Risk:Bottleneck"
       transform="matrix(1.3333333,0,0,1.3333333,71.888,170.93333)" />
    <path
       id="path17"
       d="m 2.2852031,-3.1275625 h 3.46875 V -4.36975 h -3.46875 v -1.640625 h 3.75 V -7.2642812 H 0.78520313 V 0.00134375 H 6.2109844 V -1.2408437 H 2.2852031 Z m 4.9570313,-2.25 V 0.00134375 H 8.6367656 V -3.2213125 c 0,-0.6679687 0.3632813,-1.0664062 0.9609375,-1.0664062 0.4687499,0 0.7499999,0.2695312 0.7499999,0.703125 v 3.58593745 h 1.394531 V -3.2213125 c 0,-0.6679687 0.363282,-1.0664062 0.960938,-1.0664062 0.46875,0 0.75,0.2695312 0.75,0.703125 v 3.58593745 h 1.394531 V -3.80725 c 0,-1.0429687 -0.632812,-1.6640625 -1.710937,-1.6640625 -0.679688,0 -1.148438,0.2460938 -1.570313,0.796875 -0.257812,-0.5039062 -0.796875,-0.796875 -1.464844,-0.796875 -0.6210934,0 -1.0195309,0.2109375 -1.4765621,0.7617188 v -0.6679688 z m 8.8447266,-1.8867187 v 7.26562495 h 1.394531 V -0.5494375 c 0.339844,0.52734375 0.808594,0.78515625 1.488281,0.78515625 1.277344,0 2.261719,-1.23046875 2.261719,-2.85937495 0,-0.7265625 -0.222656,-1.4648438 -0.585937,-1.9804688 -0.363282,-0.5273437 -1.019532,-0.8671875 -1.675782,-0.8671875 -0.667968,0 -1.148437,0.2578125 -1.488281,0.7851563 v -2.578125 z m 2.566406,2.9648437 c 0.691406,0 1.183594,0.6914063 1.183594,1.6875 0,0.984375 -0.492188,1.67578125 -1.183594,1.67578125 -0.703125,0 -1.171875,-0.67968745 -1.171875,-1.69921875 0,-0.984375 0.480469,-1.6640625 1.171875,-1.6640625 z m 8.150391,2.0507813 c 0.01172,-0.1171875 0.01172,-0.1757813 0.01172,-0.2460938 0,-0.5273437 -0.08203,-1.03125 -0.210938,-1.40625 -0.351562,-0.984375 -1.21875,-1.5703125 -2.308594,-1.5703125 -1.546875,0 -2.484375,1.125 -2.484375,2.9179688 0,1.7226562 0.9375,2.78906245 2.460938,2.78906245 1.207031,0 2.179687,-0.69140625 2.484375,-1.74609375 H 25.38579 c -0.175781,0.421875 -0.5625,0.6796875 -1.066406,0.6796875 -0.398438,0 -0.714844,-0.1757812 -0.914063,-0.46875 -0.128906,-0.1992187 -0.1875,-0.4453125 -0.199218,-0.9492187 z M 23.21782,-3.1744375 c 0.09375,-0.8203125 0.445313,-1.2304687 1.066407,-1.2304687 0.339843,0 0.65625,0.1757812 0.855468,0.4570312 0.140625,0.1992188 0.199219,0.3984375 0.222657,0.7734375 z m 7.942383,3.17578125 h 1.394531 V -7.2642812 h -1.394531 v 2.578125 C 30.820359,-5.2135 30.351609,-5.4713125 29.683641,-5.4713125 c -1.289063,0 -2.261719,1.2421875 -2.261719,2.859375 0,0.7265625 0.210937,1.4648438 0.574219,1.98046875 0.363281,0.52734375 1.03125,0.8671875 1.6875,0.8671875 0.667968,0 1.136718,-0.2578125 1.476562,-0.78515625 z M 29.988328,-4.2994375 c 0.703125,0 1.171875,0.6796875 1.171875,1.7109375 0,0.9726563 -0.480469,1.65234375 -1.171875,1.65234375 -0.703125,0 -1.171875,-0.69140625 -1.171875,-1.67578125 0,-0.9960937 0.46875,-1.6875 1.171875,-1.6875 z m 7.160156,4.30078125 h 1.394532 V -7.2642812 h -1.394532 v 2.578125 C 36.808641,-5.2135 36.339891,-5.4713125 35.671922,-5.4713125 c -1.289063,0 -2.261719,1.2421875 -2.261719,2.859375 0,0.7265625 0.210938,1.4648438 0.574219,1.98046875 0.363281,0.52734375 1.03125,0.8671875 1.6875,0.8671875 0.667969,0 1.136719,-0.2578125 1.476562,-0.78515625 z M 35.976609,-4.2994375 c 0.703125,0 1.171875,0.6796875 1.171875,1.7109375 0,0.9726563 -0.480468,1.65234375 -1.171875,1.65234375 -0.703125,0 -1.171875,-0.69140625 -1.171875,-1.67578125 0,-0.9960937 0.46875,-1.6875 1.171875,-1.6875 z m 8.44043,2.0507813 c 0.01172,-0.1171875 0.01172,-0.1757813 0.01172,-0.2460938 0,-0.5273437 -0.08203,-1.03125 -0.210938,-1.40625 -0.351562,-0.984375 -1.21875,-1.5703125 -2.308593,-1.5703125 -1.546875,0 -2.484375,1.125 -2.484375,2.9179688 0,1.7226562 0.9375,2.78906245 2.460937,2.78906245 1.207031,0 2.179688,-0.69140625 2.484375,-1.74609375 H 42.99907 c -0.175781,0.421875 -0.5625,0.6796875 -1.066406,0.6796875 -0.398437,0 -0.714844,-0.1757812 -0.914062,-0.46875 -0.128907,-0.1992187 -0.1875,-0.4453125 -0.199219,-0.9492187 z m -3.585937,-0.9257813 c 0.09375,-0.8203125 0.445312,-1.2304687 1.066406,-1.2304687 0.339844,0 0.65625,0.1757812 0.855469,0.4570312 0.140625,0.1992188 0.199218,0.3984375 0.222656,0.7734375 z m 7.942382,3.17578125 h 1.394532 V -7.2642812 h -1.394532 v 2.578125 C 48.433641,-5.2135 47.964891,-5.4713125 47.296922,-5.4713125 c -1.289063,0 -2.261719,1.2421875 -2.261719,2.859375 0,0.7265625 0.210938,1.4648438 0.574219,1.98046875 0.363281,0.52734375 1.03125,0.8671875 1.6875,0.8671875 0.667969,0 1.136719,-0.2578125 1.476562,-0.78515625 z M 47.601609,-4.2994375 c 0.703125,0 1.171875,0.6796875 1.171875,1.7109375 0,0.9726563 -0.480468,1.65234375 -1.171875,1.65234375 -0.703125,0 -1.171875,-0.69140625 -1.171875,-1.67578125 0,-0.9960937 0.46875,-1.6875 1.171875,-1.6875 z m 0,0"
       style="fill:#000000;fill-opacity:1;fill-rule:nonzero;stroke:none"
       aria-label="Embedded"
       transform="matrix(1.3333333,0,0,1.3333333,326.664,16.701333)" />
    <path
       id="path18"
       d="m 106.30058,-37.22452 h 42.5202 V -14.547 h -42.5202 z"
       style="fill:#fce4cc;fill-opacity:1;fill-rule:nonzero;stroke:#4c4c4c;stroke-width:0.74721;stroke-linecap:butt;stroke-linejoin:miter;stroke-miterlimit:10;stroke-dasharray:none;stroke-opacity:1"
       transform="matrix(1.3333333,0,0,-1.3333333,133.77733,21.56)" />
    <path
       id="path19"
       d="M 2.3306719,0.00105469 3.3502031,-3.0458203 V 0.00105469 H 3.7837969 V -3.6317578 H 3.1509844 L 2.0962969,-0.46769531 1.0181719,-3.6317578 H 0.37364063 V 0.00105469 H 0.80723438 V -3.0458203 L 1.8384844,0.00105469 Z M 5.4390703,-2.5184766 V 0.00105469 H 5.8726641 V -3.5262891 h -0.28125 c -0.1523438,0.5390625 -0.2578125,0.609375 -0.9375,0.703125 v 0.3046875 z m 0,0"
       style="fill:#000000;fill-opacity:1;fill-rule:nonzero;stroke:none"
       aria-label="M1"
       transform="matrix(1.3333333,0,0,1.3333333,299.244,58.44)" />
    <path
       id="path20"
       d="m 163.7414,-37.22452 h 14.17337 V -14.547 H 163.7414 Z"
       style="fill:#d1e6f3;fill-opacity:1;fill-rule:nonzero;stroke:#4c4c4c;stroke-width:0.74721;stroke-linecap:butt;stroke-linejoin:miter;stroke-miterlimit:10;stroke-dasharray:none;stroke-opacity:1"
       transform="matrix(1.3333333,0,0,-1.3333333,133.77733,21.56)" />
    <path
       id="path21"
       d="M 0.91508594,-1.5341016 H 2.0635234 c 0.28125,0 0.5039063,-0.09375 0.6914063,-0.2578125 0.2226562,-0.1992187 0.3164062,-0.4335937 0.3164062,-0.7734375 0,-0.6796875 -0.3984375,-1.0664062 -1.1132812,-1.0664062 H 0.45805469 v 3.63281249 h 0.45703125 z m 0,-0.4101562 V -3.2216016 H 1.8877422 c 0.4335937,0 0.703125,0.234375 0.703125,0.6328125 0,0.3984375 -0.2695313,0.6445313 -0.703125,0.6445313 z m 0,0"
       style="fill:#000000;fill-opacity:1;fill-rule:nonzero;stroke:none"
       aria-label="P"
       transform="matrix(1.3333333,0,0,1.3333333,359.33067,58.44)" />
    <path
       id="path22"
       d="m 148.82082,-65.57133 h 42.5202 v 22.67752 h -42.5202 z"
       style="fill:#fce4cc;fill-opacity:1;fill-rule:nonzero;stroke:#4c4c4c;stroke-width:0.74721;stroke-linecap:butt;stroke-linejoin:miter;stroke-miterlimit:10;stroke-dasharray:none;stroke-opacity:1"
       transform="matrix(1.3333333,0,0,-1.3333333,133.77733,21.56)" />
    <path
       id="path23"
       d="M 2.3321563,-2.1875e-4 3.3516875,-3.0470937 V -2.1875e-4 H 3.7852813 V -3.6330312 H 3.1524688 L 2.0977813,-0.46896875 1.0196563,-3.6330312 H 0.375125 V -2.1875e-4 H 0.80871875 V -3.0470937 L 1.8399688,-2.1875e-4 Z M 6.6680938,-0.4338125 H 4.8165313 c 0.035156,-0.29296875 0.1992187,-0.46875 0.6328125,-0.7265625 l 0.4921875,-0.2695312 c 0.5039062,-0.2695313 0.75,-0.6328125 0.75,-1.0664063 0,-0.2929687 -0.1171875,-0.5625 -0.328125,-0.7617187 -0.2109375,-0.1875 -0.46875,-0.2695313 -0.796875,-0.2695313 -0.4570313,0 -0.7851563,0.1523438 -0.984375,0.4570313 -0.1171875,0.1875 -0.1757813,0.4101562 -0.1875,0.7617187 h 0.4453125 c 0.011719,-0.234375 0.035156,-0.3867187 0.1054687,-0.4921875 0.1054688,-0.2226562 0.3398438,-0.3515625 0.5976563,-0.3515625 0.3984375,0 0.703125,0.2929688 0.703125,0.6679688 0,0.28125 -0.1640625,0.515625 -0.4804688,0.6914062 L 5.3087188,-1.5236562 C 4.5704375,-1.1135 4.3595,-0.77365625 4.312625,-2.1875e-4 h 2.3554688 z m 0,0"
       style="fill:#000000;fill-opacity:1;fill-rule:nonzero;stroke:none"
       aria-label="M2"
       transform="matrix(1.3333333,0,0,1.3333333,355.93733,96.234667)" />
    <path
       id="path24"
       d="M 206.26163,-65.57133 H 220.435 v 22.67752 h -14.17337 z"
       style="fill:#d1e6f3;fill-opacity:1;fill-rule:nonzero;stroke:#4c4c4c;stroke-width:0.74721;stroke-linecap:butt;stroke-linejoin:miter;stroke-miterlimit:10;stroke-dasharray:none;stroke-opacity:1"
       transform="matrix(1.3333333,0,0,-1.3333333,133.77733,21.56)" />
    <path
       id="path25"
       d="M 0.91364062,-1.535375 H 2.0620781 c 0.28125,0 0.5039063,-0.09375 0.6914063,-0.2578125 0.2226562,-0.1992187 0.3164062,-0.4335937 0.3164062,-0.7734375 0,-0.6796875 -0.3984375,-1.0664062 -1.1132812,-1.0664062 H 0.45660937 v 3.63281245 h 0.45703125 z m 0,-0.4101562 V -3.222875 H 1.8862969 c 0.4335937,0 0.703125,0.234375 0.703125,0.6328125 0,0.3984375 -0.2695313,0.6445313 -0.703125,0.6445313 z m 0,0"
       style="fill:#000000;fill-opacity:1;fill-rule:nonzero;stroke:none"
       aria-label="P"
       transform="matrix(1.3333333,0,0,1.3333333,416.024,96.234667)" />
    <path
       id="path26"
       d="m 191.34103,-37.22452 h 42.5202 V -14.547 h -42.5202 z"
       style="fill:#fce4cc;fill-opacity:1;fill-rule:nonzero;stroke:#4c4c4c;stroke-width:0.74721;stroke-linecap:butt;stroke-linejoin:miter;stroke-miterlimit:10;stroke-dasharray:none;stroke-opacity:1"
       transform="matrix(1.3333333,0,0,-1.3333333,133.77733,21.56)" />
    <path
       id="path27"
       d="M 2.3317109,-6.796875e-4 3.3512422,-3.0475547 V -6.796875e-4 H 3.7848359 V -3.6334922 H 3.1520234 L 2.0973359,-0.46942969 1.0192109,-3.6334922 H 0.37467969 V -6.796875e-4 H 0.80827344 V -3.0475547 L 1.8395234,-6.796875e-4 Z M 5.2496797,-1.6178672 h 0.058594 l 0.1757813,-0.011719 c 0.4921875,0 0.7382812,0.2226562 0.7382812,0.64453121 0,0.4453125 -0.28125,0.71484375 -0.7382812,0.71484375 -0.46875,0 -0.703125,-0.24609375 -0.7382813,-0.76171876 h -0.433594 c 0.011719,0.29296876 0.070312,0.46875001 0.1523437,0.63281251 0.1757813,0.33984375 0.5273438,0.515625 1.0078125,0.515625 0.7265625,0 1.1953125,-0.43359375 1.1953125,-1.1015625 0,-0.44531251 -0.1757812,-0.70312501 -0.5976562,-0.84375001 0.328125,-0.1289062 0.4921875,-0.375 0.4921875,-0.7265625 0,-0.609375 -0.3984375,-0.9726562 -1.078125,-0.9726562 -0.703125,0 -1.0898438,0.3867187 -1.1015625,1.1367187 h 0.4335937 c 0.011719,-0.2109375 0.035156,-0.328125 0.082031,-0.4453125 0.1054687,-0.1875 0.3164062,-0.3164062 0.5976562,-0.3164062 0.3867188,0 0.6210938,0.234375 0.6210938,0.609375 0,0.2460937 -0.09375,0.3984375 -0.28125,0.4804687 -0.1289063,0.046875 -0.28125,0.070312 -0.5859375,0.070312 z m 0,0"
       style="fill:#000000;fill-opacity:1;fill-rule:nonzero;stroke:none"
       aria-label="M3"
       transform="matrix(1.3333333,0,0,1.3333333,412.62933,58.372)" />
    <path
       id="path28"
       d="m 248.78185,-37.22452 h 14.17337 V -14.547 h -14.17337 z"
       style="fill:#d1e6f3;fill-opacity:1;fill-rule:nonzero;stroke:#4c4c4c;stroke-width:0.74721;stroke-linecap:butt;stroke-linejoin:miter;stroke-miterlimit:10;stroke-dasharray:none;stroke-opacity:1"
       transform="matrix(1.3333333,0,0,-1.3333333,133.77733,21.56)" />
    <path
       id="path29"
       d="M 0.91319531,-1.5341016 H 2.0616328 c 0.28125,0 0.5039063,-0.09375 0.6914063,-0.2578125 0.2226562,-0.1992187 0.3164062,-0.4335937 0.3164062,-0.7734375 0,-0.6796875 -0.3984375,-1.0664062 -1.1132812,-1.0664062 H 0.45616406 v 3.63281249 h 0.45703125 z m 0,-0.4101562 V -3.2216016 H 1.8858516 c 0.4335937,0 0.703125,0.234375 0.703125,0.6328125 0,0.3984375 -0.2695313,0.6445313 -0.703125,0.6445313 z m 0,0"
       style="fill:#000000;fill-opacity:1;fill-rule:nonzero;stroke:none"
       aria-label="P"
       transform="matrix(1.3333333,0,0,1.3333333,472.716,58.44)" />
    <path
       id="path30"
       d="m 1.3005391,-2.1900625 h 1.6640625 c 0.5859375,0 0.84375,0.28125 0.84375,0.9140625 l -0.011719,0.4453125 c 0,0.31640625 0.058594,0.62109375 0.1523438,0.83203125 h 0.7851562 v -0.1640625 C 4.4880391,-0.32678125 4.4411641,-0.5025625 4.4294453,-1.18225 4.4177266,-2.026 4.2888203,-2.2720937 3.7380391,-2.5064687 c 0.5742187,-0.28125 0.796875,-0.6328125 0.796875,-1.21875 0,-0.8789063 -0.5507813,-1.359375 -1.546875,-1.359375 H 0.64428906 V 0.00134375 H 1.3005391 Z m 0,-0.5742187 V -4.510375 h 1.5703125 c 0.3515625,0 0.5625,0.058594 0.7265625,0.1992188 0.1757812,0.140625 0.2695312,0.375 0.2695312,0.6796875 0,0.5976562 -0.3164062,0.8671875 -0.9960937,0.8671875 z m 4.7783203,-0.890625 H 5.5046406 v 3.65624995 h 0.5742188 z m 0,-1.4296875 H 5.4929219 v 0.7382812 h 0.5859375 z m 3.5625,2.4492187 c -0.011719,-0.7148437 -0.4804688,-1.125 -1.3242188,-1.125 -0.8554687,0 -1.40625,0.4453125 -1.40625,1.1132813 0,0.5742187 0.2929688,0.84375 1.1601563,1.0546875 l 0.5390625,0.140625 c 0.4101562,0.09375 0.5625,0.234375 0.5625,0.5039062 0,0.33984375 -0.3398438,0.57421875 -0.84375,0.57421875 -0.3164063,0 -0.5859375,-0.09375 -0.7265625,-0.24609375 C 7.5085469,-0.72521875 7.4733906,-0.8306875 7.4382344,-1.0885 H 6.8171406 c 0.035156,0.84375 0.5039063,1.25390625 1.4648438,1.25390625 0.9140625,0 1.5,-0.45703125 1.5,-1.16015625 0,-0.5390625 -0.3046875,-0.84375 -1.03125,-1.0195312 l -0.5625,-0.1289063 c -0.46875,-0.1171875 -0.6679688,-0.2695312 -0.6679688,-0.5273437 0,-0.328125 0.2929688,-0.5507813 0.7734375,-0.5507813 0.46875,0 0.7148438,0.1992188 0.7265625,0.5859375 z M 11.053469,-5.0845937 H 10.47925 v 5.08593745 h 0.574219 V -1.416625 l 0.5625,-0.5625 1.230469,1.98046875 H 13.573 l -1.5,-2.39062495 1.277344,-1.265625 h -0.75 l -1.546875,1.546875 z m 3.993164,4.35937495 H 14.32007 v 0.7265625 h 0.726563 z m 0,-2.92968745 H 14.32007 v 0.7265625 h 0.726563 z m 4.11914,1.3359375 h 2.425782 v -0.5625 H 19.165773 V -4.510375 h 2.765625 v -0.5742187 h -3.410156 v 5.08593745 h 0.644531 z m 3.158204,-1.3359375 v 3.65624995 h 0.585937 V -1.8970937 c 0,-0.515625 0.128906,-0.8671875 0.410156,-1.0664063 0.1875,-0.1289062 0.351563,-0.1757812 0.761719,-0.1757812 v -0.5976563 c -0.09375,-0.011719 -0.140625,-0.023437 -0.222656,-0.023437 -0.375,0 -0.667969,0.2226563 -0.996094,0.7734375 V -3.6549062 Z M 27.82007,-0.3385 c -0.05859,0.0117188 -0.08203,0.0117188 -0.117187,0.0117188 -0.210938,0 -0.316406,-0.10546875 -0.316406,-0.28125 v -2.15625 c 0,-0.6445313 -0.480469,-0.9960938 -1.371094,-0.9960938 -0.539063,0 -0.972656,0.1523438 -1.21875,0.4335938 -0.164063,0.1875 -0.234375,0.3984375 -0.246094,0.75 h 0.585938 c 0.04687,-0.4453125 0.304687,-0.6445313 0.855468,-0.6445313 0.515625,0 0.808594,0.1992188 0.808594,0.5507813 v 0.1523437 c 0,0.234375 -0.140625,0.3398438 -0.597656,0.3984375 -0.832031,0.1054688 -0.949219,0.1289063 -1.171875,0.2226563 -0.433594,0.1757812 -0.644531,0.5039062 -0.644531,0.9726562 0,0.66796875 0.457031,1.08984375 1.195312,1.08984375 0.46875,0 0.832031,-0.1640625 1.242188,-0.5390625 0.04687,0.36328125 0.222656,0.5390625 0.597656,0.5390625 0.128906,0 0.210937,-0.0234375 0.398437,-0.0703125 z m -1.019531,-0.8085937 c 0,0.18749995 -0.04687,0.3164062 -0.222656,0.46874995 -0.234375,0.22265625 -0.527344,0.328125 -0.867188,0.328125 -0.457031,0 -0.714843,-0.2109375 -0.714843,-0.5859375 0,-0.37499995 0.257812,-0.57421875 0.878906,-0.66796875 0.609375,-0.082031 0.738281,-0.1054687 0.925781,-0.1992187 z m 4.042969,-2.5078125 v 0.5273437 c -0.292969,-0.421875 -0.644531,-0.6328125 -1.113281,-0.6328125 -0.925782,0 -1.558594,0.8085938 -1.558594,1.9921875 0,0.609375 0.164062,1.08984375 0.46875,1.44140625 0.269531,0.3046875 0.65625,0.4921875 1.042969,0.4921875 0.457031,0 0.773437,-0.19921875 1.101562,-0.65625 v 0.1875 c 0,0.4921875 -0.05859,0.796875 -0.199219,0.99609375 -0.164062,0.2109375 -0.457031,0.3398438 -0.808593,0.3398438 -0.269532,0 -0.503907,-0.0703125 -0.667969,-0.1992188 -0.128906,-0.10546875 -0.1875,-0.19921875 -0.222656,-0.41015625 H 28.28882 c 0.07031,0.69140625 0.609375,1.10156255 1.464844,1.10156255 0.539063,0 1.007813,-0.1757813 1.242188,-0.46875 0.28125,-0.3398438 0.386718,-0.79687505 0.386718,-1.6523438 v -3.0585937 z m -1.054688,0.4335937 c 0.632813,0 0.996094,0.5273438 0.996094,1.4414063 0,0.8789062 -0.375,1.40624995 -0.984375,1.40624995 -0.632812,0 -1.019531,-0.5390625 -1.019531,-1.42968745 0,-0.8671875 0.386719,-1.4179688 1.007812,-1.4179688 z m 2.551758,-0.4335937 v 3.65624995 h 0.585938 V -2.2955312 c 0,-0.5273438 0.375,-0.9492188 0.855468,-0.9492188 0.433594,0 0.679688,0.2578125 0.679688,0.7265625 v 2.51953125 h 0.585937 V -2.2955312 c 0,-0.5273438 0.375,-0.9492188 0.855469,-0.9492188 0.421875,0 0.667969,0.2695313 0.667969,0.7265625 v 2.51953125 h 0.585937 V -2.7408437 c 0,-0.65625 -0.375,-1.0195313 -1.054687,-1.0195313 -0.492188,0 -0.785156,0.1523438 -1.125,0.5625 -0.210938,-0.3867187 -0.503906,-0.5625 -0.984375,-0.5625 -0.480469,0 -0.808594,0.1875 -1.125,0.6210938 v -0.515625 z m 8.891602,2.0273437 c 0,-0.5625 -0.03516,-0.890625 -0.140625,-1.171875 -0.234375,-0.5976562 -0.796875,-0.9609375 -1.476563,-0.9609375 -1.019531,0 -1.675781,0.7851563 -1.675781,1.9804688 0,1.2070312 0.632812,1.94531245 1.652344,1.94531245 0.84375,0 1.417968,-0.48046875 1.570312,-1.27734375 H 40.57593 c -0.164063,0.48046875 -0.492188,0.73828125 -0.960938,0.73828125 -0.363281,0 -0.679687,-0.1640625 -0.878906,-0.48046875 -0.140625,-0.1992187 -0.1875,-0.4101562 -0.1875,-0.7734375 z m -2.671875,-0.4804687 c 0.04687,-0.6679688 0.457031,-1.1132813 1.042968,-1.1132813 0.574219,0 1.007813,0.4804688 1.007813,1.078125 0,0.011719 0,0.023437 0,0.035156 z m 3.46875,-1.546875 v 3.65624995 h 0.585937 V -2.0142812 c 0,-0.75 0.386719,-1.2304688 0.984375,-1.2304688 0.457031,0 0.75,0.28125 0.75,0.7148438 v 2.53124995 h 0.585938 V -2.7642812 c 0,-0.5976563 -0.457032,-0.9960938 -1.160157,-0.9960938 -0.539062,0 -0.890625,0.2109375 -1.21875,0.7265625 v -0.6210937 z m 5.15332,0 H 46.584719 V -4.651 H 46.0105 v 0.9960938 h -0.503906 v 0.4804687 H 46.0105 v 2.75390625 c 0,0.375 0.246094,0.5859375 0.703125,0.5859375 0.140625,0 0.269531,-0.0234375 0.46875,-0.046875 v -0.4921875 c -0.07031,0.0234375 -0.164062,0.0234375 -0.28125,0.0234375 -0.246094,0 -0.316406,-0.0703125 -0.316406,-0.328125 V -3.1744375 h 0.597656 z M 51.078859,-0.3385 c -0.05859,0.0117188 -0.08203,0.0117188 -0.117187,0.0117188 -0.210938,0 -0.316406,-0.10546875 -0.316406,-0.28125 v -2.15625 c 0,-0.6445313 -0.480469,-0.9960938 -1.371094,-0.9960938 -0.539063,0 -0.972656,0.1523438 -1.21875,0.4335938 -0.164063,0.1875 -0.234375,0.3984375 -0.246094,0.75 h 0.585938 c 0.04687,-0.4453125 0.304687,-0.6445313 0.855468,-0.6445313 0.515625,0 0.808594,0.1992188 0.808594,0.5507813 v 0.1523437 c 0,0.234375 -0.140625,0.3398438 -0.597656,0.3984375 -0.832031,0.1054688 -0.949219,0.1289063 -1.171875,0.2226563 -0.433594,0.1757812 -0.644531,0.5039062 -0.644531,0.9726562 0,0.66796875 0.457031,1.08984375 1.195312,1.08984375 0.46875,0 0.832031,-0.1640625 1.242188,-0.5390625 0.04687,0.36328125 0.222656,0.5390625 0.597656,0.5390625 0.128906,0 0.210937,-0.0234375 0.398437,-0.0703125 z m -1.019531,-0.8085937 c 0,0.18749995 -0.04687,0.3164062 -0.222656,0.46874995 -0.234375,0.22265625 -0.527344,0.328125 -0.867188,0.328125 -0.457031,0 -0.714843,-0.2109375 -0.714843,-0.5859375 0,-0.37499995 0.257812,-0.57421875 0.878906,-0.66796875 0.609375,-0.082031 0.738281,-0.1054687 0.925781,-0.1992187 z m 2.941406,-2.5078125 H 52.403078 V -4.651 h -0.574219 v 0.9960938 h -0.503906 v 0.4804687 h 0.503906 v 2.75390625 c 0,0.375 0.246094,0.5859375 0.703125,0.5859375 0.140625,0 0.269532,-0.0234375 0.46875,-0.046875 v -0.4921875 c -0.07031,0.0234375 -0.164062,0.0234375 -0.28125,0.0234375 -0.246093,0 -0.316406,-0.0703125 -0.316406,-0.328125 V -3.1744375 h 0.597656 z m 1.209961,0 h -0.574218 v 3.65624995 h 0.574218 z m 0,-1.4296875 h -0.585937 v 0.7382812 h 0.585937 z m 2.405274,1.3242187 c -1.03125,0 -1.652344,0.7382813 -1.652344,1.9570313 0,1.2304687 0.621094,1.96874995 1.652344,1.96874995 1.03125,0 1.652344,-0.73828125 1.652344,-1.93359375 0,-1.265625 -0.597657,-1.9921875 -1.652344,-1.9921875 z m 0,0.5390625 c 0.65625,0 1.054687,0.5390625 1.054687,1.4414063 0,0.8554687 -0.410156,1.40624995 -1.054687,1.40624995 -0.644531,0 -1.042969,-0.5390625 -1.042969,-1.42968745 0,-0.8671875 0.398438,-1.4179688 1.042969,-1.4179688 z m 2.469726,-0.4335937 v 3.65624995 h 0.585938 V -2.0142812 c 0,-0.75 0.386719,-1.2304688 0.984375,-1.2304688 0.457031,0 0.75,0.28125 0.75,0.7148438 v 2.53124995 h 0.585937 V -2.7642812 c 0,-0.5976563 -0.457031,-0.9960938 -1.160156,-0.9960938 -0.539062,0 -0.890625,0.2109375 -1.21875,0.7265625 v -0.6210937 z m 0,0"
       style="fill:#ff0000;fill-opacity:1;fill-rule:nonzero;stroke:none"
       aria-label="Risk:Fragmentation"
       transform="matrix(1.3333333,0,0,1.3333333,318.90267,139.70133)" />
    <path
       id="path31"
       d="M 5.0496484,-3.2930781 V -1.09375e-4 H 6.5379297 V -7.2657344 h -1.5 v 2.71875 H 2.1668359 v -2.71875 H 0.67855469 V -1.09375e-4 H 2.1668359 V -3.2930781 Z M 11.119961,-5.3790156 10.00668,-1.4649531 8.8230859,-5.3790156 H 7.2879297 l 2.0039062,5.60156248 v 0.0351563 c 0,0.50390625 -0.3867187,0.90234382 -0.8671875,0.90234382 -0.1171875,0 -0.1992187,-0.011719 -0.375,-0.058594 v 1.0429688 c 0.2109375,0.023437 0.328125,0.035156 0.5039063,0.035156 0.3398437,0 0.7617187,-0.070312 0.9960937,-0.1640625 C 9.9480859,1.8514531 10.112148,1.6287969 10.346523,0.98426563 l 2.203125,-6.36328123 z m 2.197266,-1.8867188 v 7.265625025 h 1.394531 V -0.55089062 c 0.339844,0.52734375 0.808594,0.78515625 1.488281,0.78515625 1.277344,0 2.261719,-1.23046875 2.261719,-2.85937503 0,-0.7265625 -0.222656,-1.4648437 -0.585938,-1.9804687 -0.363281,-0.5273438 -1.019531,-0.8671875 -1.675781,-0.8671875 -0.667969,0 -1.148437,0.2578125 -1.488281,0.7851562 v -2.578125 z m 2.566406,2.9648438 c 0.691406,0 1.183594,0.6914062 1.183594,1.6875 0,0.984375 -0.492188,1.67578123 -1.183594,1.67578123 -0.703125,0 -1.171875,-0.67968753 -1.171875,-1.69921873 0,-0.984375 0.480469,-1.6640625 1.171875,-1.6640625 z m 3.568359,-1.078125 v 5.378906225 h 1.394531 V -2.8594844 c 0,-0.8203125 0.398438,-1.2304687 1.21875,-1.2304687 0.152344,0 0.246094,0.011719 0.445313,0.046875 v -1.4179688 c -0.08203,-0.011719 -0.140625,-0.011719 -0.175781,-0.011719 -0.632813,0 -1.195313,0.421875 -1.488282,1.1484375 v -1.0546875 z m 5.305664,0 h -1.394531 v 5.378906225 h 1.394531 z m 0,-1.8867188 h -1.394531 v 1.2539063 h 1.394531 z m 4.737305,7.265625025 h 1.394531 V -7.2657344 h -1.394531 v 2.578125 c -0.339844,-0.5273437 -0.808594,-0.7851562 -1.476563,-0.7851562 -1.289062,0 -2.261718,1.2421875 -2.261718,2.859375 0,0.7265625 0.210937,1.4648437 0.574218,1.98046873 0.363282,0.52734375 1.03125,0.8671875 1.6875,0.8671875 0.667969,0 1.136719,-0.2578125 1.476563,-0.78515625 z M 28.323086,-4.3008906 c 0.703125,0 1.171875,0.6796875 1.171875,1.7109375 0,0.9726562 -0.480469,1.65234373 -1.171875,1.65234373 -0.703125,0 -1.171875,-0.69140623 -1.171875,-1.67578123 0,-0.9960938 0.46875,-1.6875 1.171875,-1.6875 z m 0,0"
       style="fill:#000000;fill-opacity:1;fill-rule:nonzero;stroke:none"
       aria-label="Hybrid"
       transform="matrix(1.3333333,0,0,1.3333333,566.28667,14.117333)" />
    <path
       id="path32"
       d="m 297.64163,-37.22452 h 85.04044 V -14.547 h -85.04044 z"
       style="fill:#d1e6f3;fill-opacity:1;fill-rule:nonzero;stroke:#4c4c4c;stroke-width:0.74721;stroke-linecap:butt;stroke-linejoin:miter;stroke-miterlimit:10;stroke-dasharray:none;stroke-opacity:1"
       transform="matrix(1.3333333,0,0,-1.3333333,133.77733,21.56)" />
    <path
       id="path33"
       d="m 3.2935703,-2.5068984 c -0.140625,-0.796875 -0.5976562,-1.1835938 -1.3945312,-1.1835938 -0.4921875,0 -0.8789063,0.1523438 -1.14843754,0.4570313 -0.328125,0.3515625 -0.515625,0.8789062 -0.515625,1.4648437 0,0.5976563 0.1875,1.10156251 0.52734375,1.46484376 0.28124999,0.28125 0.64453129,0.421875 1.11328129,0.421875 0.890625,0 1.3828125,-0.48046875 1.5,-1.44140626 H 2.8951328 c -0.035156,0.2460938 -0.09375,0.42187501 -0.1640625,0.56250001 -0.1523437,0.29296875 -0.4570312,0.46875 -0.84375,0.46875 -0.7265625,0 -1.18359374,-0.57421875 -1.18359374,-1.48828121 0,-0.9257813 0.43359374,-1.5 1.13671874,-1.5 0.2929688,0 0.5742188,0.09375 0.7148438,0.2226562 0.140625,0.1289063 0.2109375,0.28125 0.2695312,0.5507813 z m 1.6611328,-0.1757813 c -0.7382812,0 -1.1835937,0.5273438 -1.1835937,1.3945313 0,0.87890621 0.4453125,1.40624996 1.1835937,1.40624996 0.7382813,0 1.1835938,-0.52734375 1.1835938,-1.38281246 0,-0.9023438 -0.4335938,-1.4179688 -1.1835938,-1.4179688 z m 0,0.3867188 c 0.46875,0 0.75,0.375 0.75,1.03125 0,0.60937496 -0.2929687,0.99609371 -0.75,0.99609371 -0.4570312,0 -0.75,-0.38671875 -0.75,-1.01953121 0,-0.6210938 0.2929688,-1.0078125 0.75,-1.0078125 z M 6.7066563,-2.6123672 V 9.140625e-4 h 0.421875 V -1.3584609 c 0,-0.3632813 0.09375,-0.609375 0.2929687,-0.7617188 0.1289063,-0.09375 0.2578125,-0.1171875 0.5390625,-0.1289062 v -0.421875 c -0.070312,-0.011719 -0.09375,-0.011719 -0.1523437,-0.011719 -0.2695313,0 -0.4804688,0.1640625 -0.7148438,0.5507813 v -0.4804688 z m 3.8730467,1.453125 c 0,-0.3984375 -0.03516,-0.6445312 -0.105469,-0.8320312 -0.164062,-0.4335938 -0.5624996,-0.6914063 -1.0546871,-0.6914063 -0.7265625,0 -1.1953125,0.5625 -1.1953125,1.4179688 0,0.85546871 0.4570312,1.38281246 1.1835937,1.38281246 0.5976559,0 1.0078129,-0.33984375 1.1132809,-0.9140625 h -0.410156 c -0.1171874,0.3515625 -0.3515624,0.52734375 -0.6914061,0.52734375 -0.2578125,0 -0.4804688,-0.1171875 -0.6210938,-0.33984375 C 8.6929844,-0.76080469 8.6578281,-0.90142969 8.6578281,-1.1592422 Z M 8.6695469,-1.4990859 c 0.035156,-0.4921875 0.328125,-0.796875 0.75,-0.796875 0.3984375,0 0.7148441,0.3398437 0.7148441,0.7617187 0,0.011719 0,0.023437 0,0.035156 z m 4.4238281,-0.035156 h 1.148438 c 0.28125,0 0.503906,-0.09375 0.691406,-0.2578125 0.222656,-0.1992187 0.316406,-0.4335937 0.316406,-0.7734375 0,-0.6796875 -0.398437,-1.0664062 -1.113281,-1.0664062 h -1.5 V 9.140625e-4 h 0.457031 z m 0,-0.4101562 v -1.2773438 h 0.972656 c 0.433594,0 0.703125,0.234375 0.703125,0.6328125 0,0.3984375 -0.269531,0.6445313 -0.703125,0.6445313 z m 3.169922,-1.6875 H 15.841422 V 9.140625e-4 h 0.421875 z m 3.005859,3.38671871 c -0.03516,0.0117188 -0.05859,0.0117188 -0.08203,0.0117188 -0.152344,0 -0.222656,-0.0703125 -0.222656,-0.19921875 V -1.9678359 c 0,-0.46875 -0.339844,-0.7148438 -0.984375,-0.7148438 -0.375,0 -0.691406,0.1054688 -0.867188,0.3046875 -0.117187,0.1289063 -0.175781,0.28125 -0.175781,0.5390625 h 0.410156 c 0.03516,-0.3164062 0.222657,-0.4570312 0.621094,-0.4570312 0.363281,0 0.574219,0.140625 0.574219,0.3867187 v 0.1054688 c 0,0.1757812 -0.105469,0.2460937 -0.433594,0.2929687 -0.585937,0.070312 -0.667969,0.09375 -0.832031,0.1523438 -0.304688,0.1289062 -0.457031,0.36328121 -0.457031,0.70312496 0,0.46875 0.328125,0.7734375 0.855468,0.7734375 0.328125,0 0.597657,-0.1171874975 0.890625,-0.38671875 0.02344,0.2695312525 0.152344,0.38671875 0.421875,0.38671875 0.08203,0 0.152344,-0.0117188 0.28125,-0.046875 z m -0.726562,-0.57421875 c 0,0.140625 -0.03516,0.22265625 -0.164063,0.33984375 -0.164062,0.15234375 -0.375,0.234375 -0.609375,0.234375 -0.328125,0 -0.515625,-0.15234375 -0.515625,-0.421875 0,-0.26953125 0.1875,-0.41015621 0.621094,-0.48046871 0.445313,-0.058594 0.527344,-0.082031 0.667969,-0.140625 z M 20.64318,-2.6123672 H 20.209586 V -3.3272109 H 19.79943 v 0.7148437 h -0.351563 v 0.3398438 h 0.351563 v 1.96874996 c 0,0.26953125 0.175781,0.421875 0.503906,0.421875 0.105469,0 0.199219,-0.0117188 0.339844,-0.03515625 v -0.3515625 c -0.05859,0.0117188 -0.117188,0.0234375 -0.199219,0.0234375 -0.175781,0 -0.234375,-0.0585938 -0.234375,-0.234375 V -2.2725234 h 0.433594 z m 1.409179,0 h -0.433593 v -0.4101562 c 0,-0.1640625 0.09375,-0.2578125 0.28125,-0.2578125 0.03516,0 0.05859,0 0.152343,0 v -0.3398438 c -0.09375,-0.023437 -0.152343,-0.023437 -0.234375,-0.023437 -0.386718,0 -0.621093,0.2226563 -0.621093,0.5859375 v 0.4453125 h -0.339844 v 0.3398438 h 0.339844 V 9.140625e-4 h 0.421875 V -2.2725234 h 0.433593 z m 1.303711,-0.070312 c -0.738281,0 -1.183593,0.5273438 -1.183593,1.3945313 0,0.87890621 0.445312,1.40624996 1.183593,1.40624996 0.738282,0 1.183594,-0.52734375 1.183594,-1.38281246 0,-0.9023438 -0.433594,-1.4179688 -1.183594,-1.4179688 z m 0,0.3867188 c 0.46875,0 0.75,0.375 0.75,1.03125 0,0.60937496 -0.292968,0.99609371 -0.75,0.99609371 -0.457031,0 -0.75,-0.38671875 -0.75,-1.01953121 0,-0.6210938 0.292969,-1.0078125 0.75,-1.0078125 z m 1.751953,-0.3164063 V 9.140625e-4 h 0.421875 V -1.3584609 c 0,-0.3632813 0.09375,-0.609375 0.292969,-0.7617188 0.128906,-0.09375 0.257813,-0.1171875 0.539063,-0.1289062 v -0.421875 c -0.07031,-0.011719 -0.09375,-0.011719 -0.152344,-0.011719 -0.269531,0 -0.480469,0.1640625 -0.714844,0.5507813 v -0.4804688 z m 1.79004,0 V 9.140625e-4 h 0.410156 V -1.6397109 c 0,-0.375 0.28125,-0.6796875 0.621094,-0.6796875 0.304687,0 0.480468,0.1875 0.480468,0.5273437 V 9.140625e-4 h 0.421875 V -1.6397109 c 0,-0.375 0.269532,-0.6796875 0.609375,-0.6796875 0.304688,0 0.480469,0.1992187 0.480469,0.5273437 V 9.140625e-4 h 0.421875 V -1.9561172 c 0,-0.46875 -0.269531,-0.7265625 -0.761719,-0.7265625 -0.339843,0 -0.550781,0.1054688 -0.796875,0.3984375 -0.152343,-0.28125 -0.363281,-0.3984375 -0.703125,-0.3984375 -0.351562,0 -0.574218,0.1289063 -0.808593,0.4453125 v -0.375 z m 0,0"
       style="fill:#000000;fill-opacity:1;fill-rule:nonzero;stroke:none"
       aria-label="CorePlatform"
       transform="matrix(1.3333333,0,0,1.3333333,566.85467,58.448)" />
    <path
       id="path34"
       d="m 240.2008,-88.99605 h 42.5202 v 22.67752 h -42.5202 z"
       style="fill:#fce4cc;fill-opacity:1;fill-rule:nonzero;stroke:#4c4c4c;stroke-width:0.74721;stroke-linecap:butt;stroke-linejoin:miter;stroke-miterlimit:10;stroke-dasharray:none;stroke-opacity:1"
       transform="matrix(1.3333333,0,0,-1.3333333,133.77733,21.56)" />
    <path
       id="path35"
       d="m 2.3311094,5.625e-4 1.0195312,-3.046875 V 5.625e-4 H 3.7842344 V -3.63225 H 3.1514219 L 2.0967344,-0.4681875 1.0186094,-3.63225 H 0.37407813 V 5.625e-4 h 0.43359375 v -3.046875 L 1.8389219,5.625e-4 Z M 5.4395078,-2.5189687 V 5.625e-4 h 0.4335938 v -3.5273437 h -0.28125 c -0.1523438,0.5390625 -0.2578125,0.609375 -0.9375,0.703125 v 0.3046875 z m 0,0"
       style="fill:#000000;fill-opacity:1;fill-rule:nonzero;stroke:none"
       aria-label="M1"
       transform="matrix(1.3333333,0,0,1.3333333,477.77467,127.468)" />
    <path
       id="path36"
       d="M 297.64163,-88.99605 H 311.815 v 22.67752 h -14.17337 z"
       style="fill:#d1e6f3;fill-opacity:1;fill-rule:nonzero;stroke:#4c4c4c;stroke-width:0.74721;stroke-linecap:butt;stroke-linejoin:miter;stroke-miterlimit:10;stroke-dasharray:none;stroke-opacity:1"
       transform="matrix(1.3333333,0,0,-1.3333333,133.77733,21.56)" />
    <path
       id="path37"
       d="M 0.91552344,-1.5345937 H 2.0639609 c 0.28125,0 0.5039063,-0.09375 0.6914063,-0.2578125 C 2.9780234,-1.991625 3.0717734,-2.226 3.0717734,-2.5658437 3.0717734,-3.2455312 2.6733359,-3.63225 1.9584922,-3.63225 H 0.45849219 V 5.625e-4 h 0.45703125 z m 0,-0.4101563 V -3.2220937 H 1.8881797 c 0.4335937,0 0.703125,0.234375 0.703125,0.6328125 0,0.3984375 -0.2695313,0.6445312 -0.703125,0.6445312 z m 0,0"
       style="fill:#000000;fill-opacity:1;fill-rule:nonzero;stroke:none"
       aria-label="P"
       transform="matrix(1.3333333,0,0,1.3333333,537.86133,127.468)" />
    <path
       id="path38"
       d="m 397.60268,-88.99605 h 42.5202 v 22.67752 h -42.5202 z"
       style="fill:#fce4cc;fill-opacity:1;fill-rule:nonzero;stroke:#4c4c4c;stroke-width:0.74721;stroke-linecap:butt;stroke-linejoin:miter;stroke-miterlimit:10;stroke-dasharray:none;stroke-opacity:1"
       transform="matrix(1.3333333,0,0,-1.3333333,133.77733,21.56)" />
    <path
       id="path39"
       d="m 2.3315,5.625e-4 1.0195313,-3.046875 V 5.625e-4 H 3.784625 V -3.63225 H 3.1518125 L 2.097125,-0.4681875 1.019,-3.63225 H 0.37446875 V 5.625e-4 H 0.8080625 v -3.046875 l 1.03125,3.046875 z M 6.6703672,-0.43303125 H 4.8188047 C 4.8539609,-0.726 5.0180234,-0.90178125 5.4516172,-1.1595937 L 5.9438047,-1.429125 c 0.5039062,-0.2695312 0.75,-0.6328125 0.75,-1.0664062 0,-0.2929688 -0.1171875,-0.5625 -0.328125,-0.7617188 -0.2109375,-0.1875 -0.46875,-0.2695312 -0.796875,-0.2695312 -0.4570313,0 -0.7851563,0.1523437 -0.984375,0.4570312 -0.1171875,0.1875 -0.1757813,0.4101563 -0.1875,0.7617188 h 0.4453125 c 0.011719,-0.234375 0.035156,-0.3867188 0.1054687,-0.4921875 0.1054688,-0.2226563 0.3398438,-0.3515625 0.5976563,-0.3515625 0.3984375,0 0.703125,0.2929687 0.703125,0.6679687 0,0.28125 -0.1640625,0.515625 -0.4804688,0.6914063 L 5.3109922,-1.522875 c -0.7382813,0.4101563 -0.9492188,0.75 -0.9960938,1.5234375 h 2.3554688 z m 0,0"
       style="fill:#000000;fill-opacity:1;fill-rule:nonzero;stroke:none"
       aria-label="M2"
       transform="matrix(1.3333333,0,0,1.3333333,687.64133,127.468)" />
    <path
       id="path40"
       d="m 455.04349,-88.99605 h 14.17337 v 22.67752 h -14.17337 z"
       style="fill:#d1e6f3;fill-opacity:1;fill-rule:nonzero;stroke:#4c4c4c;stroke-width:0.74721;stroke-linecap:butt;stroke-linejoin:miter;stroke-miterlimit:10;stroke-dasharray:none;stroke-opacity:1"
       transform="matrix(1.3333333,0,0,-1.3333333,133.77733,21.56)" />
    <path
       id="path41"
       d="M 0.91298438,-1.5345937 H 2.0614219 c 0.28125,0 0.5039062,-0.09375 0.6914062,-0.2578125 C 2.9754844,-1.991625 3.0692344,-2.226 3.0692344,-2.5658437 3.0692344,-3.2455312 2.6707969,-3.63225 1.9559531,-3.63225 H 0.45595313 V 5.625e-4 h 0.45703125 z m 0,-0.4101563 V -3.2220937 H 1.8856406 c 0.4335938,0 0.703125,0.234375 0.703125,0.6328125 0,0.3984375 -0.2695312,0.6445312 -0.703125,0.6445312 z m 0,0"
       style="fill:#000000;fill-opacity:1;fill-rule:nonzero;stroke:none"
       aria-label="P"
       transform="matrix(1.3333333,0,0,1.3333333,747.728,127.468)" />
    <path
       id="path42"
       d="m 312.18861,-66.75906 19.39549,28.33883"
       style="fill:none;stroke:#000000;stroke-width:0.99628;stroke-linecap:butt;stroke-linejoin:miter;stroke-miterlimit:10;stroke-dasharray:2.98883, 2.98883;stroke-dashoffset:0;stroke-opacity:1"
       transform="matrix(1.3333333,0,0,-1.3333333,133.77733,21.56)" />
    <path
       id="path43"
       d="M -2.78957,3.47087 C -2.27992,1.38832 -1.14423,0.40492 0,0 -1.14423,-0.40492 -2.27992,-1.38832 -2.78957,-3.47087"
       style="fill:none;stroke:#000000;stroke-width:0.99628;stroke-linecap:round;stroke-linejoin:round;stroke-miterlimit:10;stroke-dasharray:none;stroke-opacity:1"
       transform="matrix(0.75302667,-1.10024,-1.10024,-0.75302667,576.2646,72.23892)" />
    <path
       id="path44"
       d="m 454.66988,-74.4945 -86.00145,36.5071"
       style="fill:none;stroke:#000000;stroke-width:0.99628;stroke-linecap:butt;stroke-linejoin:miter;stroke-miterlimit:10;stroke-dasharray:2.98883, 2.98883;stroke-dashoffset:0;stroke-opacity:1"
       transform="matrix(1.3333333,0,0,-1.3333333,133.77733,21.56)" />
    <path
       id="path45"
       d="M -2.78957,3.47087 C -2.27992,1.38832 -1.14423,0.40492 0,0 -1.14423,-0.40492 -2.27992,-1.38832 -2.78957,-3.47087"
       style="fill:none;stroke:#000000;stroke-width:0.99628;stroke-linecap:round;stroke-linejoin:round;stroke-miterlimit:10;stroke-dasharray:none;stroke-opacity:1"
       transform="matrix(-1.22732,-0.52097333,-0.52097333,1.22732,624.72389,71.950347)" />
    <path
       id="path46"
       d="M 0.55036719,1.953125e-4 H 2.8472422 c 0.4804687,0 0.8320312,-0.1289062525 1.1015625,-0.4218750025 0.2578125,-0.26953125 0.3984375,-0.63281251 0.3984375,-1.03125001 0,-0.609375 -0.28125,-0.984375 -0.9257813,-1.2304687 0.4570313,-0.2226563 0.703125,-0.5976563 0.703125,-1.1132813 0,-0.3632812 -0.140625,-0.6914062 -0.4101562,-0.9257812 C 3.4566172,-4.9685547 3.1050547,-5.0857422 2.6128672,-5.0857422 H 0.55036719 Z M 1.1948984,-2.8943359 v -1.6171875 h 1.2539063 c 0.3632812,0 0.5742187,0.046875 0.75,0.1875 0.1757812,0.1289062 0.2695312,0.3398437 0.2695312,0.6210937 0,0.2695313 -0.09375,0.4921875 -0.2695312,0.6328125 -0.1757813,0.1289063 -0.3867188,0.1757813 -0.75,0.1757813 z m 0,2.32031246 V -2.3201172 h 1.5820313 c 0.3164062,0 0.5273437,0.070312 0.6796875,0.2460938 0.1523437,0.1523437 0.234375,0.375 0.234375,0.6328125 0,0.2460937 -0.082031,0.46874996 -0.234375,0.62109371 -0.1523438,0.17578125 -0.3632813,0.24609375 -0.6796875,0.24609375 z m 7.1835938,0.234375 c -0.058594,0.0117188 -0.082031,0.0117188 -0.1171875,0.0117188 -0.2109375,0 -0.3164063,-0.10546875 -0.3164063,-0.28125 V -2.7654297 c 0,-0.6445312 -0.4804687,-0.9960937 -1.3710937,-0.9960937 -0.5390625,0 -0.9726563,0.1523437 -1.21875,0.4335937 -0.1640625,0.1875 -0.234375,0.3984375 -0.2460938,0.75 h 0.5859375 c 0.046875,-0.4453125 0.3046875,-0.6445312 0.8554688,-0.6445312 0.515625,0 0.8085937,0.1992187 0.8085937,0.5507812 v 0.1523438 c 0,0.234375 -0.140625,0.3398437 -0.5976562,0.3984375 -0.8320313,0.1054687 -0.9492188,0.1289062 -1.171875,0.2226562 -0.4335938,0.1757813 -0.6445313,0.5039063 -0.6445313,0.97265626 0,0.66796875 0.4570313,1.08984375 1.1953125,1.08984375 0.46875,0 0.8320313,-0.1640624975 1.2421875,-0.5390625 0.046875,0.36328125 0.2226563,0.5390625 0.5976563,0.5390625 0.1289062,0 0.2109375,-0.0234375 0.3984375,-0.0703125 z M 7.3589609,-1.1482422 c 0,0.18750001 -0.046875,0.31640626 -0.2226562,0.46875001 -0.234375,0.22265625 -0.5273438,0.328125 -0.8671875,0.328125 -0.4570313,0 -0.7148438,-0.2109375 -0.7148438,-0.5859375 0,-0.37500001 0.2578125,-0.57421871 0.8789063,-0.66796871 0.609375,-0.082031 0.7382812,-0.1054688 0.9257812,-0.1992188 z m 2.2236329,-3.9375 H 8.9966563 V 1.953125e-4 h 0.5859375 z m 4.2216792,4.74609376 c -0.05859,0.0117188 -0.08203,0.0117188 -0.117187,0.0117188 -0.210938,0 -0.316406,-0.10546875 -0.316406,-0.28125 V -2.7654297 c 0,-0.6445312 -0.480469,-0.9960937 -1.371094,-0.9960937 -0.539063,0 -0.972656,0.1523437 -1.21875,0.4335937 -0.164063,0.1875 -0.234375,0.3984375 -0.246094,0.75 h 0.585938 c 0.04687,-0.4453125 0.304687,-0.6445312 0.855468,-0.6445312 0.515625,0 0.808594,0.1992187 0.808594,0.5507812 v 0.1523438 c 0,0.234375 -0.140625,0.3398437 -0.597656,0.3984375 -0.832031,0.1054687 -0.949219,0.1289062 -1.171875,0.2226562 -0.433594,0.1757813 -0.644531,0.5039063 -0.644531,0.97265626 0,0.66796875 0.457031,1.08984375 1.195312,1.08984375 0.46875,0 0.832031,-0.1640624975 1.242188,-0.5390625 0.04687,0.36328125 0.222656,0.5390625 0.597656,0.5390625 0.128906,0 0.210937,-0.0234375 0.398437,-0.0703125 z M 12.784742,-1.1482422 c 0,0.18750001 -0.04687,0.31640626 -0.222656,0.46875001 -0.234375,0.22265625 -0.527344,0.328125 -0.867188,0.328125 -0.457031,0 -0.714843,-0.2109375 -0.714843,-0.5859375 0,-0.37500001 0.257812,-0.57421871 0.878906,-0.66796871 0.609375,-0.082031 0.738281,-0.1054688 0.925781,-0.1992188 z m 1.661133,-2.5078125 V 1.953125e-4 h 0.585938 V -2.0154297 c 0,-0.75 0.386718,-1.2304687 0.984375,-1.2304687 0.457031,0 0.75,0.28125 0.75,0.7148437 V 1.953125e-4 h 0.585937 V -2.7654297 c 0,-0.5976562 -0.457031,-0.9960937 -1.160156,-0.9960937 -0.539063,0 -0.890625,0.2109375 -1.21875,0.7265625 v -0.6210938 z m 6.667969,1.2304688 c -0.02344,-0.3515625 -0.105469,-0.5859375 -0.246094,-0.7851563 -0.246094,-0.3398437 -0.679687,-0.5507812 -1.195312,-0.5507812 -0.984375,0 -1.628907,0.7851562 -1.628907,1.9921875 0,1.18359371 0.632813,1.93359371 1.617188,1.93359371 0.878906,0 1.429687,-0.52734375 1.5,-1.41796871 h -0.585938 c -0.09375,0.58593746 -0.398437,0.87890621 -0.890625,0.87890621 -0.644531,0 -1.03125,-0.52734375 -1.03125,-1.39453121 0,-0.9023438 0.375,-1.453125 1.007813,-1.453125 0.492187,0 0.796875,0.2929687 0.867187,0.796875 z m 3.779297,0.796875 c 0,-0.5625 -0.03516,-0.890625 -0.140625,-1.171875 -0.234375,-0.5976563 -0.796875,-0.9609375 -1.476563,-0.9609375 -1.019531,0 -1.675781,0.7851562 -1.675781,1.9804687 0,1.20703126 0.632812,1.94531251 1.652344,1.94531251 0.84375,0 1.417968,-0.48046875 1.570312,-1.27734371 h -0.585937 c -0.164063,0.48046871 -0.492188,0.73828121 -0.960938,0.73828121 -0.363281,0 -0.679687,-0.1640625 -0.878906,-0.48046875 -0.140625,-0.19921876 -0.1875,-0.41015626 -0.1875,-0.77343746 z m -2.671875,-0.4804688 c 0.04687,-0.6679687 0.457031,-1.1132812 1.042968,-1.1132812 0.574219,0 1.007813,0.4804687 1.007813,1.078125 0,0.011719 0,0.023437 0,0.035156 z m 6.433593,-2.9765625 h -0.585937 v 1.8867188 c -0.246094,-0.3632813 -0.632813,-0.5625 -1.125,-0.5625 -0.949219,0 -1.570313,0.7617187 -1.570313,1.9335937 0,1.23046876 0.609375,1.99218751 1.59375,1.99218751 0.503907,0 0.855469,-0.1875 1.160157,-0.64453125 V 1.953125e-4 h 0.527343 z m -1.605468,1.875 c 0.621093,0 1.019531,0.5507813 1.019531,1.4296875 0,0.84375001 -0.398438,1.39453126 -1.019531,1.39453126 -0.632813,0 -1.066407,-0.5625 -1.066407,-1.41796876 0,-0.84375 0.433594,-1.40625 1.066407,-1.40625 z m 0,0"
       style="fill:#00ff00;fill-opacity:1;fill-rule:nonzero;stroke:none"
       aria-label="Balanced"
       transform="matrix(1.3333333,0,0,1.3333333,500.80133,170.93333)" />
  </g>
</svg>
