<?xml version="1.0" encoding="UTF-8"?>
<svg xmlns="http://www.w3.org/2000/svg" viewBox="0 0 1000 648" font-family='"Helvetica Neue", Helvetica, Arial, sans-serif'>
<rect width="1000" height="648" fill="#ffffff"/>
<text x="500.0" y="28" text-anchor="middle" font-size="18" font-weight="700" fill="#1a1a1a">The Periodic Table of Machine Learning Systems</text>
<text x="500.0" y="44" text-anchor="middle" font-size="9" font-weight="400" fill="#555">90 primitives — abstraction layers (rows) × information-processing roles (columns)</text>
<rect x="80" y="70" width="116" height="18" rx="3" fill="#42a5f5"/>
<text x="138.0" y="82" text-anchor="middle" font-size="10" font-weight="700" fill="#ffffff" letter-spacing="0.5">REPRESENT</text>
<rect x="200" y="70" width="356" height="18" rx="3" fill="#ef6c00"/>
<text x="378.0" y="82" text-anchor="middle" font-size="10" font-weight="700" fill="#ffffff" letter-spacing="0.5">COMPUTE</text>
<rect x="560" y="70" width="176" height="18" rx="3" fill="#26a69a"/>
<text x="648.0" y="82" text-anchor="middle" font-size="10" font-weight="700" fill="#ffffff" letter-spacing="0.5">COMMUNICATE</text>
<rect x="740" y="70" width="176" height="18" rx="3" fill="#fdd835"/>
<text x="828.0" y="82" text-anchor="middle" font-size="10" font-weight="700" fill="#ffffff" letter-spacing="0.5">CONTROL</text>
<rect x="920" y="70" width="56" height="18" rx="3" fill="#78909c"/>
<text x="948.0" y="82" text-anchor="middle" font-size="10" font-weight="700" fill="#ffffff" letter-spacing="0.5">MEASURE</text>
<text x="66" y="130.0" text-anchor="end" font-size="11" font-weight="700" fill="#1a1a1a">Data</text>
<text x="66" y="190.0" text-anchor="end" font-size="11" font-weight="700" fill="#1a1a1a">Math</text>
<text x="66" y="250.0" text-anchor="end" font-size="11" font-weight="700" fill="#1a1a1a">Algorithms</text>
<text x="66" y="310.0" text-anchor="end" font-size="11" font-weight="700" fill="#1a1a1a">Architecture</text>
<text x="66" y="370.0" text-anchor="end" font-size="11" font-weight="700" fill="#1a1a1a">Optimization</text>
<text x="66" y="430.0" text-anchor="end" font-size="11" font-weight="700" fill="#1a1a1a">Runtime</text>
<text x="66" y="490.0" text-anchor="end" font-size="11" font-weight="700" fill="#1a1a1a">Hardware</text>
<text x="66" y="550.0" text-anchor="end" font-size="11" font-weight="700" fill="#1a1a1a">Production</text>
<rect x="80" y="98" width="56" height="56" rx="4" fill="#d9edfd" stroke="#388cd0" stroke-width="1.3"/>
<text x="132" y="109" text-anchor="end" font-size="7" font-weight="400" fill="#888">70</text>
<text x="108.0" y="134.0" text-anchor="middle" font-size="22" font-weight="700" fill="#1a1a1a">Rc</text>
<rect x="140" y="98" width="56" height="56" rx="4" fill="#d9edfd" stroke="#388cd0" stroke-width="1.3"/>
<text x="192" y="109" text-anchor="end" font-size="7" font-weight="400" fill="#888">71</text>
<text x="168.0" y="134.0" text-anchor="middle" font-size="22" font-weight="700" fill="#1a1a1a">Ds</text>
<rect x="260" y="98" width="56" height="56" rx="4" fill="#fce2cc" stroke="#cb5c00" stroke-width="1.3"/>
<text x="312" y="109" text-anchor="end" font-size="7" font-weight="400" fill="#888">72</text>
<text x="288.0" y="134.0" text-anchor="middle" font-size="22" font-weight="700" fill="#1a1a1a">Tr</text>
<rect x="320" y="98" width="56" height="56" rx="4" fill="#fce2cc" stroke="#cb5c00" stroke-width="1.3"/>
<text x="372" y="109" text-anchor="end" font-size="7" font-weight="400" fill="#888">73</text>
<text x="348.0" y="134.0" text-anchor="middle" font-size="22" font-weight="700" fill="#1a1a1a">Ag</text>
<rect x="560" y="98" width="56" height="56" rx="4" fill="#d4edeb" stroke="#208d83" stroke-width="1.3"/>
<text x="612" y="109" text-anchor="end" font-size="7" font-weight="400" fill="#888">74</text>
<text x="588.0" y="134.0" text-anchor="middle" font-size="22" font-weight="700" fill="#1a1a1a">Fl</text>
<rect x="620" y="98" width="56" height="56" rx="4" fill="#d4edeb" stroke="#208d83" stroke-width="1.3"/>
<text x="672" y="109" text-anchor="end" font-size="7" font-weight="400" fill="#888">75</text>
<text x="648.0" y="134.0" text-anchor="middle" font-size="22" font-weight="700" fill="#1a1a1a">Fm</text>
<rect x="740" y="98" width="56" height="56" rx="4" fill="#fff7d7" stroke="#d7b82d" stroke-width="1.3"/>
<text x="792" y="109" text-anchor="end" font-size="7" font-weight="400" fill="#888">76</text>
<text x="768.0" y="134.0" text-anchor="middle" font-size="22" font-weight="700" fill="#1a1a1a">Fi</text>
<rect x="800" y="98" width="56" height="56" rx="4" fill="#fff7d7" stroke="#d7b82d" stroke-width="1.3"/>
<text x="852" y="109" text-anchor="end" font-size="7" font-weight="400" fill="#888">77</text>
<text x="828.0" y="134.0" text-anchor="middle" font-size="22" font-weight="700" fill="#1a1a1a">Sm</text>
<rect x="860" y="98" width="56" height="56" rx="4" fill="#e4e9eb" stroke="#667a85" stroke-width="1.3"/>
<text x="912" y="109" text-anchor="end" font-size="7" font-weight="400" fill="#888">80</text>
<text x="888.0" y="134.0" text-anchor="middle" font-size="22" font-weight="700" fill="#1a1a1a">En</text>
<rect x="920" y="98" width="56" height="56" rx="4" fill="#e4e9eb" stroke="#667a85" stroke-width="1.3"/>
<text x="972" y="109" text-anchor="end" font-size="7" font-weight="400" fill="#888">78</text>
<text x="948.0" y="134.0" text-anchor="middle" font-size="22" font-weight="700" fill="#1a1a1a">Vl</text>
<rect x="80" y="158" width="56" height="56" rx="4" fill="#d9edfd" stroke="#388cd0" stroke-width="1.3"/>
<text x="132" y="169" text-anchor="end" font-size="7" font-weight="400" fill="#888">1</text>
<text x="108.0" y="194.0" text-anchor="middle" font-size="22" font-weight="700" fill="#1a1a1a">Tn</text>
<rect x="140" y="158" width="56" height="56" rx="4" fill="#d9edfd" stroke="#388cd0" stroke-width="1.3"/>
<text x="192" y="169" text-anchor="end" font-size="7" font-weight="400" fill="#888">2</text>
<text x="168.0" y="194.0" text-anchor="middle" font-size="22" font-weight="700" fill="#1a1a1a">Pr</text>
<rect x="200" y="158" width="56" height="56" rx="4" fill="#d9edfd" stroke="#388cd0" stroke-width="1.3"/>
<text x="252" y="169" text-anchor="end" font-size="7" font-weight="400" fill="#888">87</text>
<text x="228.0" y="194.0" text-anchor="middle" font-size="22" font-weight="700" fill="#1a1a1a">St</text>
<rect x="260" y="158" width="56" height="56" rx="4" fill="#fce2cc" stroke="#cb5c00" stroke-width="1.3"/>
<text x="312" y="169" text-anchor="end" font-size="7" font-weight="400" fill="#888">3</text>
<text x="288.0" y="194.0" text-anchor="middle" font-size="22" font-weight="700" fill="#1a1a1a">Op</text>
<rect x="560" y="158" width="56" height="56" rx="4" fill="#d4edeb" stroke="#208d83" stroke-width="1.3"/>
<text x="612" y="169" text-anchor="end" font-size="7" font-weight="400" fill="#888">4</text>
<text x="588.0" y="194.0" text-anchor="middle" font-size="22" font-weight="700" fill="#1a1a1a">Cr</text>
<rect x="740" y="158" width="56" height="56" rx="4" fill="#fff7d7" stroke="#d7b82d" stroke-width="1.3"/>
<text x="792" y="169" text-anchor="end" font-size="7" font-weight="400" fill="#888">5</text>
<text x="768.0" y="194.0" text-anchor="middle" font-size="22" font-weight="700" fill="#1a1a1a">Ob</text>
<rect x="800" y="158" width="56" height="56" rx="4" fill="#fff7d7" stroke="#d7b82d" stroke-width="1.3"/>
<text x="852" y="169" text-anchor="end" font-size="7" font-weight="400" fill="#888">6</text>
<text x="828.0" y="194.0" text-anchor="middle" font-size="22" font-weight="700" fill="#1a1a1a">Cs</text>
<rect x="920" y="158" width="56" height="56" rx="4" fill="#e4e9eb" stroke="#667a85" stroke-width="1.3"/>
<text x="972" y="169" text-anchor="end" font-size="7" font-weight="400" fill="#888">7</text>
<text x="948.0" y="194.0" text-anchor="middle" font-size="22" font-weight="700" fill="#1a1a1a">Dv</text>
<rect x="80" y="218" width="56" height="56" rx="4" fill="#d9edfd" stroke="#388cd0" stroke-width="1.3"/>
<text x="132" y="229" text-anchor="end" font-size="7" font-weight="400" fill="#888">8</text>
<text x="108.0" y="254.0" text-anchor="middle" font-size="22" font-weight="700" fill="#1a1a1a">Pm</text>
<rect x="140" y="218" width="56" height="56" rx="4" fill="#d9edfd" stroke="#388cd0" stroke-width="1.3"/>
<text x="192" y="229" text-anchor="end" font-size="7" font-weight="400" fill="#888">9</text>
<text x="168.0" y="254.0" text-anchor="middle" font-size="22" font-weight="700" fill="#1a1a1a">Eb</text>
<rect x="200" y="218" width="56" height="56" rx="4" fill="#d9edfd" stroke="#388cd0" stroke-width="1.3"/>
<text x="252" y="229" text-anchor="end" font-size="7" font-weight="400" fill="#888">10</text>
<text x="228.0" y="254.0" text-anchor="middle" font-size="22" font-weight="700" fill="#1a1a1a">Sp</text>
<rect x="260" y="218" width="56" height="56" rx="4" fill="#fce2cc" stroke="#cb5c00" stroke-width="1.3"/>
<text x="312" y="229" text-anchor="end" font-size="7" font-weight="400" fill="#888">11</text>
<text x="288.0" y="254.0" text-anchor="middle" font-size="22" font-weight="700" fill="#1a1a1a">Dd</text>
<rect x="320" y="218" width="56" height="56" rx="4" fill="#fce2cc" stroke="#cb5c00" stroke-width="1.3"/>
<text x="372" y="229" text-anchor="end" font-size="7" font-weight="400" fill="#888">12</text>
<text x="348.0" y="254.0" text-anchor="middle" font-size="22" font-weight="700" fill="#1a1a1a">Cv</text>
<rect x="380" y="218" width="56" height="56" rx="4" fill="#fce2cc" stroke="#cb5c00" stroke-width="1.3"/>
<text x="432" y="229" text-anchor="end" font-size="7" font-weight="400" fill="#888">13</text>
<text x="408.0" y="254.0" text-anchor="middle" font-size="22" font-weight="700" fill="#1a1a1a">Po</text>
<rect x="440" y="218" width="56" height="56" rx="4" fill="#fce2cc" stroke="#cb5c00" stroke-width="1.3"/>
<text x="492" y="229" text-anchor="end" font-size="7" font-weight="400" fill="#888">14</text>
<text x="468.0" y="254.0" text-anchor="middle" font-size="22" font-weight="700" fill="#1a1a1a">Sm</text>
<rect x="500" y="218" width="56" height="56" rx="4" fill="#fce2cc" stroke="#cb5c00" stroke-width="1.3"/>
<text x="552" y="229" text-anchor="end" font-size="7" font-weight="400" fill="#888">86</text>
<text x="528.0" y="254.0" text-anchor="middle" font-size="22" font-weight="700" fill="#1a1a1a">Ac</text>
<rect x="560" y="218" width="56" height="56" rx="4" fill="#d4edeb" stroke="#208d83" stroke-width="1.3"/>
<text x="612" y="229" text-anchor="end" font-size="7" font-weight="400" fill="#888">15</text>
<text x="588.0" y="254.0" text-anchor="middle" font-size="22" font-weight="700" fill="#1a1a1a">Ad</text>
<rect x="620" y="218" width="56" height="56" rx="4" fill="#d4edeb" stroke="#208d83" stroke-width="1.3"/>
<text x="672" y="229" text-anchor="end" font-size="7" font-weight="400" fill="#888">16</text>
<text x="648.0" y="254.0" text-anchor="middle" font-size="22" font-weight="700" fill="#1a1a1a">Tk</text>
<rect x="680" y="218" width="56" height="56" rx="4" fill="#fff7d7" stroke="#d7b82d" stroke-width="1.3"/>
<text x="732" y="229" text-anchor="end" font-size="7" font-weight="400" fill="#888">90</text>
<text x="708.0" y="254.0" text-anchor="middle" font-size="22" font-weight="700" fill="#1a1a1a">Ct</text>
<rect x="740" y="218" width="56" height="56" rx="4" fill="#fff7d7" stroke="#d7b82d" stroke-width="1.3"/>
<text x="792" y="229" text-anchor="end" font-size="7" font-weight="400" fill="#888">17</text>
<text x="768.0" y="254.0" text-anchor="middle" font-size="22" font-weight="700" fill="#1a1a1a">Gd</text>
<rect x="800" y="218" width="56" height="56" rx="4" fill="#fff7d7" stroke="#d7b82d" stroke-width="1.3"/>
<text x="852" y="229" text-anchor="end" font-size="7" font-weight="400" fill="#888">18</text>
<text x="828.0" y="254.0" text-anchor="middle" font-size="22" font-weight="700" fill="#1a1a1a">Rw</text>
<rect x="860" y="218" width="56" height="56" rx="4" fill="#fff7d7" stroke="#d7b82d" stroke-width="1.3"/>
<text x="912" y="229" text-anchor="end" font-size="7" font-weight="400" fill="#888">19</text>
<text x="888.0" y="254.0" text-anchor="middle" font-size="22" font-weight="700" fill="#1a1a1a">Iz</text>
<rect x="920" y="218" width="56" height="56" rx="4" fill="#e4e9eb" stroke="#667a85" stroke-width="1.3"/>
<text x="972" y="229" text-anchor="end" font-size="7" font-weight="400" fill="#888">20</text>
<text x="948.0" y="254.0" text-anchor="middle" font-size="22" font-weight="700" fill="#1a1a1a">Lf</text>
<rect x="80" y="278" width="56" height="56" rx="4" fill="#d9edfd" stroke="#388cd0" stroke-width="1.3"/>
<text x="132" y="289" text-anchor="end" font-size="7" font-weight="400" fill="#888">21</text>
<text x="108.0" y="314.0" text-anchor="middle" font-size="22" font-weight="700" fill="#1a1a1a">Tp</text>
<rect x="140" y="278" width="56" height="56" rx="4" fill="#d9edfd" stroke="#388cd0" stroke-width="1.3"/>
<text x="192" y="289" text-anchor="end" font-size="7" font-weight="400" fill="#888">22</text>
<text x="168.0" y="314.0" text-anchor="middle" font-size="22" font-weight="700" fill="#1a1a1a">Hs</text>
<rect x="200" y="278" width="56" height="56" rx="4" fill="#d9edfd" stroke="#388cd0" stroke-width="1.3"/>
<text x="252" y="289" text-anchor="end" font-size="7" font-weight="400" fill="#888">81</text>
<text x="228.0" y="314.0" text-anchor="middle" font-size="22" font-weight="700" fill="#1a1a1a">Ix</text>
<rect x="260" y="278" width="56" height="56" rx="4" fill="#fce2cc" stroke="#cb5c00" stroke-width="1.3"/>
<text x="312" y="289" text-anchor="end" font-size="7" font-weight="400" fill="#888">23</text>
<text x="288.0" y="314.0" text-anchor="middle" font-size="22" font-weight="700" fill="#1a1a1a">At</text>
<rect x="320" y="278" width="56" height="56" rx="4" fill="#fce2cc" stroke="#cb5c00" stroke-width="1.3"/>
<text x="372" y="289" text-anchor="end" font-size="7" font-weight="400" fill="#888">24</text>
<text x="348.0" y="314.0" text-anchor="middle" font-size="22" font-weight="700" fill="#1a1a1a">Gt</text>
<rect x="380" y="278" width="56" height="56" rx="4" fill="#fce2cc" stroke="#cb5c00" stroke-width="1.3"/>
<text x="432" y="289" text-anchor="end" font-size="7" font-weight="400" fill="#888">25</text>
<text x="408.0" y="314.0" text-anchor="middle" font-size="22" font-weight="700" fill="#1a1a1a">Nm</text>
<rect x="440" y="278" width="56" height="56" rx="4" fill="#fce2cc" stroke="#cb5c00" stroke-width="1.3"/>
<text x="492" y="289" text-anchor="end" font-size="7" font-weight="400" fill="#888">26</text>
<text x="468.0" y="314.0" text-anchor="middle" font-size="22" font-weight="700" fill="#1a1a1a">Ro</text>
<rect x="560" y="278" width="56" height="56" rx="4" fill="#d4edeb" stroke="#208d83" stroke-width="1.3"/>
<text x="612" y="289" text-anchor="end" font-size="7" font-weight="400" fill="#888">27</text>
<text x="588.0" y="314.0" text-anchor="middle" font-size="22" font-weight="700" fill="#1a1a1a">Sk</text>
<rect x="620" y="278" width="56" height="56" rx="4" fill="#d4edeb" stroke="#208d83" stroke-width="1.3"/>
<text x="672" y="289" text-anchor="end" font-size="7" font-weight="400" fill="#888">28</text>
<text x="648.0" y="314.0" text-anchor="middle" font-size="22" font-weight="700" fill="#1a1a1a">Fb</text>
<rect x="740" y="278" width="56" height="56" rx="4" fill="#fff7d7" stroke="#d7b82d" stroke-width="1.3"/>
<text x="792" y="289" text-anchor="end" font-size="7" font-weight="400" fill="#888">29</text>
<text x="768.0" y="314.0" text-anchor="middle" font-size="22" font-weight="700" fill="#1a1a1a">Mk</text>
<rect x="800" y="278" width="56" height="56" rx="4" fill="#fff7d7" stroke="#d7b82d" stroke-width="1.3"/>
<text x="852" y="289" text-anchor="end" font-size="7" font-weight="400" fill="#888">82</text>
<text x="828.0" y="314.0" text-anchor="middle" font-size="22" font-weight="700" fill="#1a1a1a">Ro</text>
<rect x="920" y="278" width="56" height="56" rx="4" fill="#e4e9eb" stroke="#667a85" stroke-width="1.3"/>
<text x="972" y="289" text-anchor="end" font-size="7" font-weight="400" fill="#888">30</text>
<text x="948.0" y="314.0" text-anchor="middle" font-size="22" font-weight="700" fill="#1a1a1a">Rf</text>
<rect x="80" y="338" width="56" height="56" rx="4" fill="#d9edfd" stroke="#388cd0" stroke-width="1.3"/>
<text x="132" y="349" text-anchor="end" font-size="7" font-weight="400" fill="#888">31</text>
<text x="108.0" y="374.0" text-anchor="middle" font-size="22" font-weight="700" fill="#1a1a1a">Fc</text>
<rect x="140" y="338" width="56" height="56" rx="4" fill="#d9edfd" stroke="#388cd0" stroke-width="1.3"/>
<text x="192" y="349" text-anchor="end" font-size="7" font-weight="400" fill="#888">32</text>
<text x="168.0" y="374.0" text-anchor="middle" font-size="22" font-weight="700" fill="#1a1a1a">Os</text>
<rect x="260" y="338" width="56" height="56" rx="4" fill="#fce2cc" stroke="#cb5c00" stroke-width="1.3"/>
<text x="312" y="349" text-anchor="end" font-size="7" font-weight="400" fill="#888">33</text>
<text x="288.0" y="374.0" text-anchor="middle" font-size="22" font-weight="700" fill="#1a1a1a">Qz</text>
<rect x="320" y="338" width="56" height="56" rx="4" fill="#fce2cc" stroke="#cb5c00" stroke-width="1.3"/>
<text x="372" y="349" text-anchor="end" font-size="7" font-weight="400" fill="#888">34</text>
<text x="348.0" y="374.0" text-anchor="middle" font-size="22" font-weight="700" fill="#1a1a1a">Sp</text>
<rect x="500" y="338" width="56" height="56" rx="4" fill="#fce2cc" stroke="#cb5c00" stroke-width="1.3"/>
<text x="552" y="349" text-anchor="end" font-size="7" font-weight="400" fill="#888">89</text>
<text x="528.0" y="374.0" text-anchor="middle" font-size="22" font-weight="700" fill="#1a1a1a">Wa</text>
<rect x="560" y="338" width="56" height="56" rx="4" fill="#d4edeb" stroke="#208d83" stroke-width="1.3"/>
<text x="612" y="349" text-anchor="end" font-size="7" font-weight="400" fill="#888">35</text>
<text x="588.0" y="374.0" text-anchor="middle" font-size="22" font-weight="700" fill="#1a1a1a">Ws</text>
<rect x="620" y="338" width="56" height="56" rx="4" fill="#d4edeb" stroke="#208d83" stroke-width="1.3"/>
<text x="672" y="349" text-anchor="end" font-size="7" font-weight="400" fill="#888">36</text>
<text x="648.0" y="374.0" text-anchor="middle" font-size="22" font-weight="700" fill="#1a1a1a">En</text>
<rect x="680" y="338" width="56" height="56" rx="4" fill="#d4edeb" stroke="#208d83" stroke-width="1.3"/>
<text x="732" y="349" text-anchor="end" font-size="7" font-weight="400" fill="#888">88</text>
<text x="708.0" y="374.0" text-anchor="middle" font-size="22" font-weight="700" fill="#1a1a1a">Re</text>
<rect x="740" y="338" width="56" height="56" rx="4" fill="#fff7d7" stroke="#d7b82d" stroke-width="1.3"/>
<text x="792" y="349" text-anchor="end" font-size="7" font-weight="400" fill="#888">37</text>
<text x="768.0" y="374.0" text-anchor="middle" font-size="22" font-weight="700" fill="#1a1a1a">Sc</text>
<rect x="800" y="338" width="56" height="56" rx="4" fill="#fff7d7" stroke="#d7b82d" stroke-width="1.3"/>
<text x="852" y="349" text-anchor="end" font-size="7" font-weight="400" fill="#888">38</text>
<text x="828.0" y="374.0" text-anchor="middle" font-size="22" font-weight="700" fill="#1a1a1a">Rg</text>
<rect x="860" y="338" width="56" height="56" rx="4" fill="#fff7d7" stroke="#d7b82d" stroke-width="1.3"/>
<text x="912" y="349" text-anchor="end" font-size="7" font-weight="400" fill="#888">39</text>
<text x="888.0" y="374.0" text-anchor="middle" font-size="22" font-weight="700" fill="#1a1a1a">Tm</text>
<rect x="920" y="338" width="56" height="56" rx="4" fill="#e4e9eb" stroke="#667a85" stroke-width="1.3"/>
<text x="972" y="349" text-anchor="end" font-size="7" font-weight="400" fill="#888">40</text>
<text x="948.0" y="374.0" text-anchor="middle" font-size="22" font-weight="700" fill="#1a1a1a">Id</text>
<rect x="80" y="398" width="56" height="56" rx="4" fill="#d9edfd" stroke="#388cd0" stroke-width="1.3"/>
<text x="132" y="409" text-anchor="end" font-size="7" font-weight="400" fill="#888">41</text>
<text x="108.0" y="434.0" text-anchor="middle" font-size="22" font-weight="700" fill="#1a1a1a">Cc</text>
<rect x="140" y="398" width="56" height="56" rx="4" fill="#d9edfd" stroke="#388cd0" stroke-width="1.3"/>
<text x="192" y="409" text-anchor="end" font-size="7" font-weight="400" fill="#888">42</text>
<text x="168.0" y="434.0" text-anchor="middle" font-size="22" font-weight="700" fill="#1a1a1a">Cp</text>
<rect x="200" y="398" width="56" height="56" rx="4" fill="#d9edfd" stroke="#388cd0" stroke-width="1.3"/>
<text x="252" y="409" text-anchor="end" font-size="7" font-weight="400" fill="#888">43</text>
<text x="228.0" y="434.0" text-anchor="middle" font-size="22" font-weight="700" fill="#1a1a1a">Ir</text>
<rect x="260" y="398" width="56" height="56" rx="4" fill="#fce2cc" stroke="#cb5c00" stroke-width="1.3"/>
<text x="312" y="409" text-anchor="end" font-size="7" font-weight="400" fill="#888">44</text>
<text x="288.0" y="434.0" text-anchor="middle" font-size="22" font-weight="700" fill="#1a1a1a">Fs</text>
<rect x="320" y="398" width="56" height="56" rx="4" fill="#fce2cc" stroke="#cb5c00" stroke-width="1.3"/>
<text x="372" y="409" text-anchor="end" font-size="7" font-weight="400" fill="#888">45</text>
<text x="348.0" y="434.0" text-anchor="middle" font-size="22" font-weight="700" fill="#1a1a1a">Bt</text>
<rect x="380" y="398" width="56" height="56" rx="4" fill="#fce2cc" stroke="#cb5c00" stroke-width="1.3"/>
<text x="432" y="409" text-anchor="end" font-size="7" font-weight="400" fill="#888">46</text>
<text x="408.0" y="434.0" text-anchor="middle" font-size="22" font-weight="700" fill="#1a1a1a">Ti</text>
<rect x="440" y="398" width="56" height="56" rx="4" fill="#fce2cc" stroke="#cb5c00" stroke-width="1.3"/>
<text x="492" y="409" text-anchor="end" font-size="7" font-weight="400" fill="#888">47</text>
<text x="468.0" y="434.0" text-anchor="middle" font-size="22" font-weight="700" fill="#1a1a1a">Cl</text>
<rect x="500" y="398" width="56" height="56" rx="4" fill="#d9edfd" stroke="#388cd0" stroke-width="1.3"/>
<text x="552" y="409" text-anchor="end" font-size="7" font-weight="400" fill="#888">83</text>
<text x="528.0" y="434.0" text-anchor="middle" font-size="22" font-weight="700" fill="#1a1a1a">Vr</text>
<rect x="560" y="398" width="56" height="56" rx="4" fill="#d4edeb" stroke="#208d83" stroke-width="1.3"/>
<text x="612" y="409" text-anchor="end" font-size="7" font-weight="400" fill="#888">48</text>
<text x="588.0" y="434.0" text-anchor="middle" font-size="22" font-weight="700" fill="#1a1a1a">Pl</text>
<rect x="620" y="398" width="56" height="56" rx="4" fill="#d4edeb" stroke="#208d83" stroke-width="1.3"/>
<text x="672" y="409" text-anchor="end" font-size="7" font-weight="400" fill="#888">49</text>
<text x="648.0" y="434.0" text-anchor="middle" font-size="22" font-weight="700" fill="#1a1a1a">Sy</text>
<rect x="680" y="398" width="56" height="56" rx="4" fill="#d4edeb" stroke="#208d83" stroke-width="1.3"/>
<text x="732" y="409" text-anchor="end" font-size="7" font-weight="400" fill="#888">50</text>
<text x="708.0" y="434.0" text-anchor="middle" font-size="22" font-weight="700" fill="#1a1a1a">Pf</text>
<rect x="740" y="398" width="56" height="56" rx="4" fill="#fff7d7" stroke="#d7b82d" stroke-width="1.3"/>
<text x="792" y="409" text-anchor="end" font-size="7" font-weight="400" fill="#888">51</text>
<text x="768.0" y="434.0" text-anchor="middle" font-size="22" font-weight="700" fill="#1a1a1a">Al</text>
<rect x="920" y="398" width="56" height="56" rx="4" fill="#e4e9eb" stroke="#667a85" stroke-width="1.3"/>
<text x="972" y="409" text-anchor="end" font-size="7" font-weight="400" fill="#888">52</text>
<text x="948.0" y="434.0" text-anchor="middle" font-size="22" font-weight="700" fill="#1a1a1a">Ut</text>
<rect x="80" y="458" width="56" height="56" rx="4" fill="#d9edfd" stroke="#388cd0" stroke-width="1.3"/>
<text x="132" y="469" text-anchor="end" font-size="7" font-weight="400" fill="#888">53</text>
<text x="108.0" y="494.0" text-anchor="middle" font-size="22" font-weight="700" fill="#1a1a1a">Sr</text>
<rect x="140" y="458" width="56" height="56" rx="4" fill="#d9edfd" stroke="#388cd0" stroke-width="1.3"/>
<text x="192" y="469" text-anchor="end" font-size="7" font-weight="400" fill="#888">54</text>
<text x="168.0" y="494.0" text-anchor="middle" font-size="22" font-weight="700" fill="#1a1a1a">Dr</text>
<rect x="260" y="458" width="56" height="56" rx="4" fill="#fce2cc" stroke="#cb5c00" stroke-width="1.3"/>
<text x="312" y="469" text-anchor="end" font-size="7" font-weight="400" fill="#888">55</text>
<text x="288.0" y="494.0" text-anchor="middle" font-size="22" font-weight="700" fill="#1a1a1a">Ma</text>
<rect x="320" y="458" width="56" height="56" rx="4" fill="#fce2cc" stroke="#cb5c00" stroke-width="1.3"/>
<text x="372" y="469" text-anchor="end" font-size="7" font-weight="400" fill="#888">56</text>
<text x="348.0" y="494.0" text-anchor="middle" font-size="22" font-weight="700" fill="#1a1a1a">Vu</text>
<rect x="380" y="458" width="56" height="56" rx="4" fill="#fce2cc" stroke="#cb5c00" stroke-width="1.3"/>
<text x="432" y="469" text-anchor="end" font-size="7" font-weight="400" fill="#888">79</text>
<text x="408.0" y="494.0" text-anchor="middle" font-size="22" font-weight="700" fill="#1a1a1a">An</text>
<rect x="560" y="458" width="56" height="56" rx="4" fill="#d4edeb" stroke="#208d83" stroke-width="1.3"/>
<text x="612" y="469" text-anchor="end" font-size="7" font-weight="400" fill="#888">57</text>
<text x="588.0" y="494.0" text-anchor="middle" font-size="22" font-weight="700" fill="#1a1a1a">Ic</text>
<rect x="620" y="458" width="56" height="56" rx="4" fill="#d4edeb" stroke="#208d83" stroke-width="1.3"/>
<text x="672" y="469" text-anchor="end" font-size="7" font-weight="400" fill="#888">58</text>
<text x="648.0" y="494.0" text-anchor="middle" font-size="22" font-weight="700" fill="#1a1a1a">Rt</text>
<rect x="740" y="458" width="56" height="56" rx="4" fill="#fff7d7" stroke="#d7b82d" stroke-width="1.3"/>
<text x="792" y="469" text-anchor="end" font-size="7" font-weight="400" fill="#888">59</text>
<text x="768.0" y="494.0" text-anchor="middle" font-size="22" font-weight="700" fill="#1a1a1a">Ar</text>
<rect x="800" y="458" width="56" height="56" rx="4" fill="#fff7d7" stroke="#d7b82d" stroke-width="1.3"/>
<text x="852" y="469" text-anchor="end" font-size="7" font-weight="400" fill="#888">60</text>
<text x="828.0" y="494.0" text-anchor="middle" font-size="22" font-weight="700" fill="#1a1a1a">Ck</text>
<rect x="860" y="458" width="56" height="56" rx="4" fill="#e4e9eb" stroke="#667a85" stroke-width="1.3"/>
<text x="912" y="469" text-anchor="end" font-size="7" font-weight="400" fill="#888">84</text>
<text x="888.0" y="494.0" text-anchor="middle" font-size="22" font-weight="700" fill="#1a1a1a">Td</text>
<rect x="920" y="458" width="56" height="56" rx="4" fill="#e4e9eb" stroke="#667a85" stroke-width="1.3"/>
<text x="972" y="469" text-anchor="end" font-size="7" font-weight="400" fill="#888">61</text>
<text x="948.0" y="494.0" text-anchor="middle" font-size="22" font-weight="700" fill="#1a1a1a">Ew</text>
<rect x="80" y="518" width="56" height="56" rx="4" fill="#d9edfd" stroke="#388cd0" stroke-width="1.3"/>
<text x="132" y="529" text-anchor="end" font-size="7" font-weight="400" fill="#888">62</text>
<text x="108.0" y="554.0" text-anchor="middle" font-size="22" font-weight="700" fill="#1a1a1a">As</text>
<rect x="260" y="518" width="56" height="56" rx="4" fill="#fce2cc" stroke="#cb5c00" stroke-width="1.3"/>
<text x="312" y="529" text-anchor="end" font-size="7" font-weight="400" fill="#888">63</text>
<text x="288.0" y="554.0" text-anchor="middle" font-size="22" font-weight="700" fill="#1a1a1a">Ex</text>
<rect x="560" y="518" width="56" height="56" rx="4" fill="#d4edeb" stroke="#208d83" stroke-width="1.3"/>
<text x="612" y="529" text-anchor="end" font-size="7" font-weight="400" fill="#888">64</text>
<text x="588.0" y="554.0" text-anchor="middle" font-size="22" font-weight="700" fill="#1a1a1a">Rp</text>
<rect x="620" y="518" width="56" height="56" rx="4" fill="#d4edeb" stroke="#208d83" stroke-width="1.3"/>
<text x="672" y="529" text-anchor="end" font-size="7" font-weight="400" fill="#888">65</text>
<text x="648.0" y="554.0" text-anchor="middle" font-size="22" font-weight="700" fill="#1a1a1a">Mq</text>
<rect x="680" y="518" width="56" height="56" rx="4" fill="#fff7d7" stroke="#d7b82d" stroke-width="1.3"/>
<text x="732" y="529" text-anchor="end" font-size="7" font-weight="400" fill="#888">85</text>
<text x="708.0" y="554.0" text-anchor="middle" font-size="22" font-weight="700" fill="#1a1a1a">Rs</text>
<rect x="740" y="518" width="56" height="56" rx="4" fill="#fff7d7" stroke="#d7b82d" stroke-width="1.3"/>
<text x="792" y="529" text-anchor="end" font-size="7" font-weight="400" fill="#888">66</text>
<text x="768.0" y="554.0" text-anchor="middle" font-size="22" font-weight="700" fill="#1a1a1a">Ld</text>
<rect x="800" y="518" width="56" height="56" rx="4" fill="#fff7d7" stroke="#d7b82d" stroke-width="1.3"/>
<text x="852" y="529" text-anchor="end" font-size="7" font-weight="400" fill="#888">67</text>
<text x="828.0" y="554.0" text-anchor="middle" font-size="22" font-weight="700" fill="#1a1a1a">Oc</text>
<rect x="860" y="518" width="56" height="56" rx="4" fill="#e4e9eb" stroke="#667a85" stroke-width="1.3"/>
<text x="912" y="529" text-anchor="end" font-size="7" font-weight="400" fill="#888">68</text>
<text x="888.0" y="554.0" text-anchor="middle" font-size="22" font-weight="700" fill="#1a1a1a">La</text>
<rect x="920" y="518" width="56" height="56" rx="4" fill="#e4e9eb" stroke="#667a85" stroke-width="1.3"/>
<text x="972" y="529" text-anchor="end" font-size="7" font-weight="400" fill="#888">69</text>
<text x="948.0" y="554.0" text-anchor="middle" font-size="22" font-weight="700" fill="#1a1a1a">Av</text>
<rect x="151.79999999999995" y="598" width="14" height="14" rx="2" fill="#42a5f5"/>
<text x="170.79999999999995" y="609" font-size="9" font-weight="700" fill="#1a1a1a">Represent <tspan font-weight="400" fill="#555" font-size="8.5">— what holds information</tspan></text>
<rect x="329.4" y="598" width="14" height="14" rx="2" fill="#ef6c00"/>
<text x="348.4" y="609" font-size="9" font-weight="700" fill="#1a1a1a">Compute <tspan font-weight="400" fill="#555" font-size="8.5">— what transforms</tspan></text>
<rect x="468.2" y="598" width="14" height="14" rx="2" fill="#26a69a"/>
<text x="487.2" y="609" font-size="9" font-weight="700" fill="#1a1a1a">Communicate <tspan font-weight="400" fill="#555" font-size="8.5">— what moves</tspan></text>
<rect x="608.6" y="598" width="14" height="14" rx="2" fill="#fdd835"/>
<text x="627.6" y="609" font-size="9" font-weight="700" fill="#1a1a1a">Control <tspan font-weight="400" fill="#555" font-size="8.5">— what decides</tspan></text>
<rect x="735.4000000000001" y="598" width="14" height="14" rx="2" fill="#78909c"/>
<text x="754.4000000000001" y="609" font-size="9" font-weight="700" fill="#1a1a1a">Measure <tspan font-weight="400" fill="#555" font-size="8.5">— what observes</tspan></text>
<text x="500.0" y="636" text-anchor="middle" font-size="8" font-style="italic" fill="#888">Each element satisfies the formal irreducibility criterion (Section 2.3); the table is the input to the Constraint-Driven Lowering Heuristic.</text>
</svg>