<?xml version="1.0" encoding="UTF-8" standalone="no"?>
<!DOCTYPE svg PUBLIC "-//W3C//DTD SVG 1.1//EN"
 "http://www.w3.org/Graphics/SVG/1.1/DTD/svg11.dtd">
<!-- Title: G Pages: 1 -->
<svg width="590pt" height="130pt"
 viewBox="0.00 0.00 590.00 130.00" xmlns="http://www.w3.org/2000/svg" xmlns:xlink="http://www.w3.org/1999/xlink" font-family="Helvetica Neue, Helvetica, Arial, sans-serif">
<g id="graph0" class="graph" transform="scale(1 1) rotate(0) translate(4 126.5)">
<title>G</title>
<polygon fill="white" stroke="none" points="-4,4 -4,-126.5 585.89,-126.5 585.89,4 -4,4"/>
<!-- Hub -->
<g id="node1" class="node">
<title>Hub</title>
<polygon fill="#fdebd0" stroke="#c87b2a" points="312.64,-36 258.64,-36 258.64,0 312.64,0 312.64,-36"/>
<text xml:space="preserve" text-anchor="middle" x="285.64" y="-12.95" font-family="Times,serif" font-size="14.00">Hub</text>
</g>
<!-- S1 -->
<g id="node2" class="node">
<title>S1</title>
<ellipse fill="#cfe2f3" stroke="#4a90c4" cx="20.64" cy="-97.25" rx="20.64" ry="20.64"/>
<text xml:space="preserve" text-anchor="middle" x="20.64" y="-92.2" font-family="Times,serif" font-size="14.00">S1</text>
</g>
<!-- S1&#45;&gt;Hub -->
<g id="edge1" class="edge">
<title>S1&#45;&gt;Hub</title>
<path fill="none" stroke="black" d="M35.03,-81.93C39.42,-78.22 44.46,-74.56 49.64,-72 114.52,-39.97 198.97,-27.04 247.26,-22.02"/>
<polygon fill="black" stroke="black" points="247.31,-25.53 256.93,-21.08 246.63,-18.56 247.31,-25.53"/>
</g>
<!-- S2 -->
<g id="node3" class="node">
<title>S2</title>
<ellipse fill="#cfe2f3" stroke="#4a90c4" cx="79.64" cy="-97.25" rx="20.64" ry="20.64"/>
<text xml:space="preserve" text-anchor="middle" x="79.64" y="-92.2" font-family="Times,serif" font-size="14.00">S2</text>
</g>
<!-- S2&#45;&gt;Hub -->
<g id="edge2" class="edge">
<title>S2&#45;&gt;Hub</title>
<path fill="none" stroke="black" d="M94.15,-82.16C98.54,-78.46 103.56,-74.74 108.64,-72 153.31,-47.96 210.34,-33.4 247.41,-25.78"/>
<polygon fill="black" stroke="black" points="247.62,-29.3 256.75,-23.92 246.26,-22.43 247.62,-29.3"/>
</g>
<!-- S3 -->
<g id="node4" class="node">
<title>S3</title>
<ellipse fill="#cfe2f3" stroke="#4a90c4" cx="138.64" cy="-97.25" rx="20.64" ry="20.64"/>
<text xml:space="preserve" text-anchor="middle" x="138.64" y="-92.2" font-family="Times,serif" font-size="14.00">S3</text>
</g>
<!-- S3&#45;&gt;Hub -->
<g id="edge3" class="edge">
<title>S3&#45;&gt;Hub</title>
<path fill="none" stroke="black" d="M153.39,-82.59C157.79,-78.89 162.75,-75.06 167.64,-72 193.06,-56.09 224.08,-42.35 247.93,-32.86"/>
<polygon fill="black" stroke="black" points="248.88,-36.24 256.92,-29.35 246.34,-29.72 248.88,-36.24"/>
</g>
<!-- S4 -->
<g id="node5" class="node">
<title>S4</title>
<ellipse fill="#cfe2f3" stroke="#4a90c4" cx="197.64" cy="-97.25" rx="20.64" ry="20.64"/>
<text xml:space="preserve" text-anchor="middle" x="197.64" y="-92.2" font-family="Times,serif" font-size="14.00">S4</text>
</g>
<!-- S4&#45;&gt;Hub -->
<g id="edge4" class="edge">
<title>S4&#45;&gt;Hub</title>
<path fill="none" stroke="black" d="M212.97,-82.79C225.24,-72.03 242.77,-56.63 257.54,-43.67"/>
<polygon fill="black" stroke="black" points="259.52,-46.59 264.72,-37.36 254.9,-41.33 259.52,-46.59"/>
</g>
<!-- S5 -->
<g id="node6" class="node">
<title>S5</title>
<ellipse fill="#cfe2f3" stroke="#4a90c4" cx="256.64" cy="-97.25" rx="20.64" ry="20.64"/>
<text xml:space="preserve" text-anchor="middle" x="256.64" y="-92.2" font-family="Times,serif" font-size="14.00">S5</text>
</g>
<!-- S5&#45;&gt;Hub -->
<g id="edge5" class="edge">
<title>S5&#45;&gt;Hub</title>
<path fill="none" stroke="black" d="M263.66,-77.55C267.11,-68.37 271.33,-57.12 275.15,-46.94"/>
<polygon fill="black" stroke="black" points="278.32,-48.48 278.55,-37.89 271.76,-46.02 278.32,-48.48"/>
</g>
<!-- S6 -->
<g id="node7" class="node">
<title>S6</title>
<ellipse fill="#cfe2f3" stroke="#4a90c4" cx="315.64" cy="-97.25" rx="20.64" ry="20.64"/>
<text xml:space="preserve" text-anchor="middle" x="315.64" y="-92.2" font-family="Times,serif" font-size="14.00">S6</text>
</g>
<!-- S6&#45;&gt;Hub -->
<g id="edge6" class="edge">
<title>S6&#45;&gt;Hub</title>
<path fill="none" stroke="black" d="M308.38,-77.55C304.82,-68.37 300.45,-57.12 296.49,-46.94"/>
<polygon fill="black" stroke="black" points="299.86,-45.93 292.97,-37.88 293.33,-48.47 299.86,-45.93"/>
</g>
<!-- S7 -->
<g id="node8" class="node">
<title>S7</title>
<ellipse fill="#cfe2f3" stroke="#4a90c4" cx="374.64" cy="-97.25" rx="20.64" ry="20.64"/>
<text xml:space="preserve" text-anchor="middle" x="374.64" y="-92.2" font-family="Times,serif" font-size="14.00">S7</text>
</g>
<!-- S7&#45;&gt;Hub -->
<g id="edge7" class="edge">
<title>S7&#45;&gt;Hub</title>
<path fill="none" stroke="black" d="M359.55,-83.14C347.11,-72.35 329.12,-56.74 314.01,-43.62"/>
<polygon fill="black" stroke="black" points="316.5,-41.15 306.65,-37.24 311.91,-46.43 316.5,-41.15"/>
</g>
<!-- S8 -->
<g id="node9" class="node">
<title>S8</title>
<ellipse fill="#cfe2f3" stroke="#4a90c4" cx="433.64" cy="-97.25" rx="20.64" ry="20.64"/>
<text xml:space="preserve" text-anchor="middle" x="433.64" y="-92.2" font-family="Times,serif" font-size="14.00">S8</text>
</g>
<!-- S8&#45;&gt;Hub -->
<g id="edge8" class="edge">
<title>S8&#45;&gt;Hub</title>
<path fill="none" stroke="black" d="M418.9,-82.58C414.5,-78.88 409.54,-75.06 404.64,-72 378.85,-55.91 347.34,-42.11 323.22,-32.62"/>
<polygon fill="black" stroke="black" points="324.71,-29.45 314.12,-29.12 322.19,-35.98 324.71,-29.45"/>
</g>
<!-- S9 -->
<g id="node10" class="node">
<title>S9</title>
<ellipse fill="#cfe2f3" stroke="#4a90c4" cx="492.64" cy="-97.25" rx="20.64" ry="20.64"/>
<text xml:space="preserve" text-anchor="middle" x="492.64" y="-92.2" font-family="Times,serif" font-size="14.00">S9</text>
</g>
<!-- S9&#45;&gt;Hub -->
<g id="edge9" class="edge">
<title>S9&#45;&gt;Hub</title>
<path fill="none" stroke="black" d="M478.14,-82.16C473.75,-78.45 468.73,-74.73 463.64,-72 418.59,-47.8 361.05,-33.25 323.78,-25.67"/>
<polygon fill="black" stroke="black" points="324.87,-22.32 314.38,-23.83 323.52,-29.19 324.87,-22.32"/>
</g>
<!-- S10 -->
<g id="node11" class="node">
<title>S10</title>
<ellipse fill="#cfe2f3" stroke="#4a90c4" cx="556.64" cy="-97.25" rx="25.25" ry="25.25"/>
<text xml:space="preserve" text-anchor="middle" x="556.64" y="-92.2" font-family="Times,serif" font-size="14.00">S10</text>
</g>
<!-- S10&#45;&gt;Hub -->
<g id="edge10" class="edge">
<title>S10&#45;&gt;Hub</title>
<path fill="none" stroke="black" d="M537.32,-80.47C532.72,-77.3 527.67,-74.25 522.64,-72 456.48,-42.47 372.36,-28.71 324.2,-22.84"/>
<polygon fill="black" stroke="black" points="324.89,-19.4 314.55,-21.73 324.08,-26.36 324.89,-19.4"/>
</g>
</g>
</svg>
