<?xml version="1.0" encoding="UTF-8" standalone="no"?>
<!DOCTYPE svg PUBLIC "-//W3C//DTD SVG 1.1//EN"
 "http://www.w3.org/Graphics/SVG/1.1/DTD/svg11.dtd">
<!-- Title: G Pages: 1 -->
<svg width="278pt" height="199pt"
 viewBox="0.00 0.00 278.00 199.00" xmlns="http://www.w3.org/2000/svg" xmlns:xlink="http://www.w3.org/1999/xlink" font-family="Helvetica Neue, Helvetica, Arial, sans-serif">
<g id="graph0" class="graph" transform="scale(1 1) rotate(0) translate(4 195.08)">
<title>G</title>
<polygon fill="white" stroke="none" points="-4,4 -4,-195.08 274,-195.08 274,4 -4,4"/>
<!-- Collision -->
<g id="node1" class="node">
<title>Collision</title>
<ellipse fill="#fdebd0" stroke="#4a90c4" cx="135" cy="-59.54" rx="59.54" ry="59.54"/>
<text xml:space="preserve" text-anchor="middle" x="135" y="-54.49" font-family="Times,serif" font-size="14.00">RF Airwaves</text>
</g>
<!-- R1 -->
<g id="node2" class="node">
<title>R1</title>
<ellipse fill="#cfe2f3" stroke="#4a90c4" cx="27" cy="-173.08" rx="27" ry="18"/>
<text xml:space="preserve" text-anchor="middle" x="27" y="-168.03" font-family="Times,serif" font-size="14.00">R1</text>
</g>
<!-- R1&#45;&gt;Collision -->
<g id="edge1" class="edge">
<title>R1&#45;&gt;Collision</title>
<path fill="none" stroke="#c87b2a" d="M41.12,-157.5C52.62,-145.62 69.57,-128.12 85.91,-111.24"/>
<polygon fill="#c87b2a" stroke="#c87b2a" points="88.36,-113.74 92.8,-104.12 83.33,-108.87 88.36,-113.74"/>
</g>
<!-- R2 -->
<g id="node3" class="node">
<title>R2</title>
<ellipse fill="#cfe2f3" stroke="#4a90c4" cx="99" cy="-173.08" rx="27" ry="18"/>
<text xml:space="preserve" text-anchor="middle" x="99" y="-168.03" font-family="Times,serif" font-size="14.00">R2</text>
</g>
<!-- R2&#45;&gt;Collision -->
<g id="edge2" class="edge">
<title>R2&#45;&gt;Collision</title>
<path fill="none" stroke="#c87b2a" d="M104.47,-155.14C106.98,-147.36 110.14,-137.58 113.46,-127.28"/>
<polygon fill="#c87b2a" stroke="#c87b2a" points="116.76,-128.45 116.5,-117.86 110.1,-126.3 116.76,-128.45"/>
</g>
<!-- R3 -->
<g id="node4" class="node">
<title>R3</title>
<ellipse fill="#cfe2f3" stroke="#4a90c4" cx="171" cy="-173.08" rx="27" ry="18"/>
<text xml:space="preserve" text-anchor="middle" x="171" y="-168.03" font-family="Times,serif" font-size="14.00">R3</text>
</g>
<!-- R3&#45;&gt;Collision -->
<g id="edge3" class="edge">
<title>R3&#45;&gt;Collision</title>
<path fill="none" stroke="#c87b2a" d="M165.53,-155.14C163.02,-147.36 159.86,-137.58 156.54,-127.28"/>
<polygon fill="#c87b2a" stroke="#c87b2a" points="159.9,-126.3 153.5,-117.86 153.24,-128.45 159.9,-126.3"/>
</g>
<!-- R4 -->
<g id="node5" class="node">
<title>R4</title>
<ellipse fill="#cfe2f3" stroke="#4a90c4" cx="243" cy="-173.08" rx="27" ry="18"/>
<text xml:space="preserve" text-anchor="middle" x="243" y="-168.03" font-family="Times,serif" font-size="14.00">R4</text>
</g>
<!-- R4&#45;&gt;Collision -->
<g id="edge4" class="edge">
<title>R4&#45;&gt;Collision</title>
<path fill="none" stroke="#c87b2a" d="M228.88,-157.5C217.38,-145.62 200.43,-128.12 184.09,-111.24"/>
<polygon fill="#c87b2a" stroke="#c87b2a" points="186.67,-108.87 177.2,-104.12 181.64,-113.74 186.67,-108.87"/>
</g>
</g>
</svg>
