<?xml version="1.0" encoding="UTF-8" standalone="no"?>
<!DOCTYPE svg PUBLIC "-//W3C//DTD SVG 1.1//EN"
 "http://www.w3.org/Graphics/SVG/1.1/DTD/svg11.dtd">
<!-- Title: G Pages: 1 -->
<svg width="454pt" height="49pt"
 viewBox="0.00 0.00 454.00 49.00" xmlns="http://www.w3.org/2000/svg" xmlns:xlink="http://www.w3.org/1999/xlink" font-family="Helvetica Neue, Helvetica, Arial, sans-serif">
<g id="graph0" class="graph" transform="scale(1 1) rotate(0) translate(4 45)">
<title>G</title>
<polygon fill="white" stroke="none" points="-4,4 -4,-45 450,-45 450,4 -4,4"/>
<!-- A -->
<g id="node1" class="node">
<title>A</title>
<polygon fill="#cfe2f3" stroke="#4a90c4" points="76,-38.5 0,-38.5 0,-2.5 76,-2.5 76,-38.5"/>
<text xml:space="preserve" text-anchor="middle" x="38" y="-15.45" font-family="Times,serif" font-size="14.00">M4 Sensor</text>
</g>
<!-- B -->
<g id="node2" class="node">
<title>B</title>
<polygon fill="#fdebd0" stroke="#c87b2a" points="263.75,-41 161.5,-41 161.5,0 263.75,0 263.75,-41"/>
<text xml:space="preserve" text-anchor="middle" x="212.62" y="-23.7" font-family="Times,serif" font-size="14.00">BLE 4.2 Link</text>
<text xml:space="preserve" text-anchor="middle" x="212.62" y="-7.2" font-family="Times,serif" font-size="14.00">(250 kbps max)</text>
</g>
<!-- A&#45;&gt;B -->
<g id="edge1" class="edge">
<title>A&#45;&gt;B</title>
<path fill="none" stroke="black" d="M76.46,-20.5C97.86,-20.5 125.23,-20.5 149.75,-20.5"/>
<polygon fill="black" stroke="black" points="149.63,-24 159.63,-20.5 149.63,-17 149.63,-24"/>
<text xml:space="preserve" text-anchor="middle" x="118.75" y="-23.7" font-family="Times,serif" font-size="14.00">256 kbps</text>
</g>
<!-- C -->
<g id="node3" class="node">
<title>C</title>
<polygon fill="#cfe2f3" stroke="#4a90c4" points="446,-38.5 392,-38.5 392,-2.5 446,-2.5 446,-38.5"/>
<text xml:space="preserve" text-anchor="middle" x="419" y="-15.45" font-family="Times,serif" font-size="14.00">Phone</text>
</g>
<!-- B&#45;&gt;C -->
<g id="edge2" class="edge">
<title>B&#45;&gt;C</title>
<path fill="none" stroke="black" d="M264.14,-20.5C300.15,-20.5 347.77,-20.5 380.44,-20.5"/>
<polygon fill="black" stroke="black" points="380.24,-24 390.24,-20.5 380.24,-17 380.24,-24"/>
<text xml:space="preserve" text-anchor="middle" x="327.88" y="-23.7" font-family="Times,serif" font-size="14.00">Dropped Packets</text>
</g>
</g>
</svg>
