<?xml version="1.0" encoding="UTF-8" standalone="no"?>
<!DOCTYPE svg PUBLIC "-//W3C//DTD SVG 1.1//EN"
 "http://www.w3.org/Graphics/SVG/1.1/DTD/svg11.dtd">
<!-- Title: G Pages: 1 -->
<svg width="350pt" height="116pt"
 viewBox="0.00 0.00 350.00 116.00" xmlns="http://www.w3.org/2000/svg" xmlns:xlink="http://www.w3.org/1999/xlink" font-family="Helvetica Neue, Helvetica, Arial, sans-serif">
<g id="graph0" class="graph" transform="scale(1 1) rotate(0) translate(4 112)">
<title>G</title>
<polygon fill="white" stroke="none" points="-4,4 -4,-112 346,-112 346,4 -4,4"/>
<!-- L -->
<g id="node1" class="node">
<title>L</title>
<ellipse fill="#fdebd0" stroke="#c87b2a" cx="171" cy="-18" rx="36.51" ry="18"/>
<text xml:space="preserve" text-anchor="middle" x="171" y="-12.95" font-family="Times,serif" font-size="14.00">Leader</text>
</g>
<!-- D1 -->
<g id="node2" class="node">
<title>D1</title>
<ellipse fill="#cfe2f3" stroke="#4a90c4" cx="27" cy="-90" rx="27" ry="18"/>
<text xml:space="preserve" text-anchor="middle" x="27" y="-84.95" font-family="Times,serif" font-size="14.00">D1</text>
</g>
<!-- D1&#45;&gt;L -->
<g id="edge1" class="edge">
<title>D1&#45;&gt;L</title>
<path fill="none" stroke="black" d="M48.56,-78.52C71.55,-67.34 108.35,-49.46 135.6,-36.21"/>
<polygon fill="black" stroke="black" points="137.07,-39.38 144.54,-31.86 134.01,-33.09 137.07,-39.38"/>
</g>
<!-- D2 -->
<g id="node3" class="node">
<title>D2</title>
<ellipse fill="#cfe2f3" stroke="#4a90c4" cx="99" cy="-90" rx="27" ry="18"/>
<text xml:space="preserve" text-anchor="middle" x="99" y="-84.95" font-family="Times,serif" font-size="14.00">D2</text>
</g>
<!-- D2&#45;&gt;L -->
<g id="edge2" class="edge">
<title>D2&#45;&gt;L</title>
<path fill="none" stroke="black" d="M113.92,-74.5C123.5,-65.18 136.17,-52.87 147.13,-42.21"/>
<polygon fill="black" stroke="black" points="149.29,-44.99 154.02,-35.51 144.41,-39.97 149.29,-44.99"/>
</g>
<!-- D3 -->
<g id="node4" class="node">
<title>D3</title>
<ellipse fill="#cfe2f3" stroke="#4a90c4" cx="171" cy="-90" rx="27" ry="18"/>
<text xml:space="preserve" text-anchor="middle" x="171" y="-84.95" font-family="Times,serif" font-size="14.00">D3</text>
</g>
<!-- D3&#45;&gt;L -->
<g id="edge3" class="edge">
<title>D3&#45;&gt;L</title>
<path fill="none" stroke="black" d="M171,-71.7C171,-64.41 171,-55.73 171,-47.54"/>
<polygon fill="black" stroke="black" points="174.5,-47.62 171,-37.62 167.5,-47.62 174.5,-47.62"/>
</g>
<!-- D4 -->
<g id="node5" class="node">
<title>D4</title>
<ellipse fill="#cfe2f3" stroke="#4a90c4" cx="243" cy="-90" rx="27" ry="18"/>
<text xml:space="preserve" text-anchor="middle" x="243" y="-84.95" font-family="Times,serif" font-size="14.00">D4</text>
</g>
<!-- D4&#45;&gt;L -->
<g id="edge4" class="edge">
<title>D4&#45;&gt;L</title>
<path fill="none" stroke="black" d="M228.08,-74.5C218.5,-65.18 205.83,-52.87 194.87,-42.21"/>
<polygon fill="black" stroke="black" points="197.59,-39.97 187.98,-35.51 192.71,-44.99 197.59,-39.97"/>
</g>
<!-- D5 -->
<g id="node6" class="node">
<title>D5</title>
<ellipse fill="#cfe2f3" stroke="#4a90c4" cx="315" cy="-90" rx="27" ry="18"/>
<text xml:space="preserve" text-anchor="middle" x="315" y="-84.95" font-family="Times,serif" font-size="14.00">D5</text>
</g>
<!-- D5&#45;&gt;L -->
<g id="edge5" class="edge">
<title>D5&#45;&gt;L</title>
<path fill="none" stroke="black" d="M293.44,-78.52C270.45,-67.34 233.65,-49.46 206.4,-36.21"/>
<polygon fill="black" stroke="black" points="207.99,-33.09 197.46,-31.86 204.93,-39.38 207.99,-33.09"/>
</g>
</g>
</svg>
