<?xml version="1.0" encoding="UTF-8" standalone="no"?>
<!DOCTYPE svg PUBLIC "-//W3C//DTD SVG 1.1//EN"
 "http://www.w3.org/Graphics/SVG/1.1/DTD/svg11.dtd">
<!-- Title: G Pages: 1 -->
<svg width="206pt" height="188pt"
 viewBox="0.00 0.00 206.00 188.00" xmlns="http://www.w3.org/2000/svg" xmlns:xlink="http://www.w3.org/1999/xlink" font-family="Helvetica Neue, Helvetica, Arial, sans-serif">
<g id="graph0" class="graph" transform="scale(1 1) rotate(0) translate(4 184)">
<title>G</title>
<polygon fill="white" stroke="none" points="-4,4 -4,-184 202,-184 202,4 -4,4"/>
<!-- CPU -->
<g id="node1" class="node">
<title>CPU</title>
<polygon fill="#fdebd0" stroke="#4a90c4" points="126,-180 72,-180 72,-144 126,-144 126,-180"/>
<text xml:space="preserve" text-anchor="middle" x="99" y="-156.95" font-family="Times,serif" font-size="14.00">CPU</text>
</g>
<!-- Switch -->
<g id="node2" class="node">
<title>Switch</title>
<ellipse fill="#d4edda" stroke="#4a90c4" cx="99" cy="-90" rx="36.51" ry="18"/>
<text xml:space="preserve" text-anchor="middle" x="99" y="-84.95" font-family="Times,serif" font-size="14.00">Switch</text>
</g>
<!-- CPU&#45;&gt;Switch -->
<g id="edge1" class="edge">
<title>CPU&#45;&gt;Switch</title>
<path fill="none" stroke="black" stroke-width="2" d="M99,-130.81C99,-127.53 99,-124.19 99,-120.92"/>
<polygon fill="black" stroke="black" stroke-width="2" points="95.5,-130.67 99,-140.67 102.5,-130.67 95.5,-130.67"/>
<polygon fill="black" stroke="black" stroke-width="2" points="102.5,-121.13 99,-111.13 95.5,-121.13 102.5,-121.13"/>
</g>
<!-- H1 -->
<g id="node3" class="node">
<title>H1</title>
<ellipse fill="#cfe2f3" stroke="#4a90c4" cx="27" cy="-18" rx="27" ry="18"/>
<text xml:space="preserve" text-anchor="middle" x="27" y="-12.95" font-family="Times,serif" font-size="14.00">H1</text>
</g>
<!-- Switch&#45;&gt;H1 -->
<g id="edge2" class="edge">
<title>Switch&#45;&gt;H1</title>
<path fill="none" stroke="black" d="M74.95,-65.62C66.8,-57.7 57.73,-48.88 49.69,-41.06"/>
<polygon fill="black" stroke="black" points="72.33,-67.95 81.94,-72.41 77.21,-62.93 72.33,-67.95"/>
<polygon fill="black" stroke="black" points="52.16,-38.58 42.55,-34.12 47.28,-43.6 52.16,-38.58"/>
</g>
<!-- H2 -->
<g id="node4" class="node">
<title>H2</title>
<ellipse fill="#cfe2f3" stroke="#4a90c4" cx="99" cy="-18" rx="27" ry="18"/>
<text xml:space="preserve" text-anchor="middle" x="99" y="-12.95" font-family="Times,serif" font-size="14.00">H2</text>
</g>
<!-- Switch&#45;&gt;H2 -->
<g id="edge3" class="edge">
<title>Switch&#45;&gt;H2</title>
<path fill="none" stroke="black" d="M99,-60.24C99,-56.01 99,-51.66 99,-47.44"/>
<polygon fill="black" stroke="black" points="95.5,-60.18 99,-70.18 102.5,-60.18 95.5,-60.18"/>
<polygon fill="black" stroke="black" points="102.5,-47.62 99,-37.62 95.5,-47.62 102.5,-47.62"/>
</g>
<!-- H3 -->
<g id="node5" class="node">
<title>H3</title>
<ellipse fill="#cfe2f3" stroke="#4a90c4" cx="171" cy="-18" rx="27" ry="18"/>
<text xml:space="preserve" text-anchor="middle" x="171" y="-12.95" font-family="Times,serif" font-size="14.00">H3</text>
</g>
<!-- Switch&#45;&gt;H3 -->
<g id="edge4" class="edge">
<title>Switch&#45;&gt;H3</title>
<path fill="none" stroke="black" d="M123.05,-65.62C131.2,-57.7 140.27,-48.88 148.31,-41.06"/>
<polygon fill="black" stroke="black" points="120.79,-62.93 116.06,-72.41 125.67,-67.95 120.79,-62.93"/>
<polygon fill="black" stroke="black" points="150.72,-43.6 155.45,-34.12 145.84,-38.58 150.72,-43.6"/>
</g>
</g>
</svg>
