<?xml version="1.0" encoding="UTF-8" standalone="no"?>
<!DOCTYPE svg PUBLIC "-//W3C//DTD SVG 1.1//EN"
 "http://www.w3.org/Graphics/SVG/1.1/DTD/svg11.dtd">
<!-- Title: G Pages: 1 -->
<svg width="122pt" height="260pt"
 viewBox="0.00 0.00 122.00 260.00" xmlns="http://www.w3.org/2000/svg" xmlns:xlink="http://www.w3.org/1999/xlink" font-family="Helvetica Neue, Helvetica, Arial, sans-serif">
<g id="graph0" class="graph" transform="scale(1 1) rotate(0) translate(4 256)">
<title>G</title>
<polygon fill="white" stroke="none" points="-4,4 -4,-256 118.47,-256 118.47,4 -4,4"/>
<!-- A -->
<g id="node1" class="node">
<title>A</title>
<ellipse fill="#cfe2f3" stroke="#4a90c4" cx="73" cy="-234" rx="27" ry="18"/>
<text xml:space="preserve" text-anchor="middle" x="73" y="-228.95" font-family="Times,serif" font-size="14.00">A</text>
</g>
<!-- B -->
<g id="node2" class="node">
<title>B</title>
<ellipse fill="#cfe2f3" stroke="#4a90c4" cx="73" cy="-162" rx="27" ry="18"/>
<text xml:space="preserve" text-anchor="middle" x="73" y="-156.95" font-family="Times,serif" font-size="14.00">B</text>
</g>
<!-- A&#45;&#45;B -->
<g id="edge1" class="edge">
<title>A&#45;&#45;B</title>
<path fill="none" stroke="black" d="M73,-215.7C73,-204.85 73,-190.92 73,-180.1"/>
</g>
<!-- C -->
<g id="node3" class="node">
<title>C</title>
<ellipse fill="#cfe2f3" stroke="#4a90c4" cx="27" cy="-90" rx="27" ry="18"/>
<text xml:space="preserve" text-anchor="middle" x="27" y="-84.95" font-family="Times,serif" font-size="14.00">C</text>
</g>
<!-- A&#45;&#45;C -->
<g id="edge2" class="edge">
<title>A&#45;&#45;C</title>
<path fill="none" stroke="black" d="M59.79,-217.89C51.79,-207.85 42.17,-193.98 37,-180 28.21,-156.23 26.56,-126.65 26.52,-108.29"/>
</g>
<!-- D -->
<g id="node4" class="node">
<title>D</title>
<ellipse fill="#cfe2f3" stroke="#4a90c4" cx="82" cy="-18" rx="27" ry="18"/>
<text xml:space="preserve" text-anchor="middle" x="82" y="-12.95" font-family="Times,serif" font-size="14.00">D</text>
</g>
<!-- A&#45;&#45;D -->
<g id="edge3" class="edge">
<title>A&#45;&#45;D</title>
<path fill="none" stroke="black" d="M86.75,-218.07C94.96,-208.1 104.62,-194.25 109,-180 124.83,-128.53 102.29,-64.77 89.61,-35.32"/>
</g>
<!-- B&#45;&#45;C -->
<g id="edge4" class="edge">
<title>B&#45;&#45;C</title>
<path fill="none" stroke="black" d="M62.56,-145.12C55.03,-133.66 44.92,-118.26 37.4,-106.82"/>
</g>
<!-- B&#45;&#45;D -->
<g id="edge5" class="edge">
<title>B&#45;&#45;D</title>
<path fill="none" stroke="black" d="M74.1,-143.59C75.84,-116.19 79.19,-63.32 80.92,-36.11"/>
</g>
<!-- C&#45;&#45;D -->
<g id="edge6" class="edge">
<title>C&#45;&#45;D</title>
<path fill="none" stroke="black" d="M39.21,-73.46C48.32,-61.86 60.72,-46.08 69.83,-34.49"/>
</g>
</g>
</svg>
