<?xml version="1.0" encoding="UTF-8" standalone="no"?>
<!DOCTYPE svg PUBLIC "-//W3C//DTD SVG 1.1//EN"
 "http://www.w3.org/Graphics/SVG/1.1/DTD/svg11.dtd">
<!-- Title: G Pages: 1 -->
<svg width="291pt" height="133pt"
 viewBox="0.00 0.00 291.00 133.00" xmlns="http://www.w3.org/2000/svg" xmlns:xlink="http://www.w3.org/1999/xlink" font-family="Helvetica Neue, Helvetica, Arial, sans-serif">
<g id="graph0" class="graph" transform="scale(1 1) rotate(0) translate(4 128.5)">
<title>G</title>
<polygon fill="white" stroke="none" points="-4,4 -4,-128.5 287,-128.5 287,4 -4,4"/>
<!-- Switch -->
<g id="node1" class="node">
<title>Switch</title>
<ellipse fill="#d4edda" stroke="#4a90c4" cx="172" cy="-106.5" rx="36.51" ry="18"/>
<text xml:space="preserve" text-anchor="middle" x="172" y="-101.45" font-family="Times,serif" font-size="14.00">Switch</text>
</g>
<!-- N1 -->
<g id="node2" class="node">
<title>N1</title>
<polygon fill="#cfe2f3" stroke="#4a90c4" points="54,-36 0,-36 0,0 54,0 54,-36"/>
<text xml:space="preserve" text-anchor="middle" x="27" y="-12.95" font-family="Times,serif" font-size="14.00">N1</text>
</g>
<!-- Switch&#45;&gt;N1 -->
<g id="edge8" class="edge">
<title>Switch&#45;&gt;N1</title>
<path fill="none" stroke="black" d="M136.56,-101.57C111.29,-97.18 77.99,-88.2 54,-70.5 45.29,-64.08 37.93,-54.9 32.7,-46.07"/>
<polygon fill="black" stroke="black" points="35.93,-44.71 28.27,-37.39 29.7,-47.89 35.93,-44.71"/>
</g>
<!-- N2 -->
<g id="node3" class="node">
<title>N2</title>
<polygon fill="#cfe2f3" stroke="#4a90c4" points="135,-36 81,-36 81,0 135,0 135,-36"/>
<text xml:space="preserve" text-anchor="middle" x="108" y="-12.95" font-family="Times,serif" font-size="14.00">N2</text>
</g>
<!-- Switch&#45;&gt;N2 -->
<g id="edge2" class="edge">
<title>Switch&#45;&gt;N2</title>
<path fill="none" stroke="black" d="M135.69,-103.36C112.72,-99.9 84.64,-91.34 69.75,-70.5 63.58,-61.87 67.3,-52.53 74.4,-44.21"/>
<polygon fill="black" stroke="black" points="76.68,-46.88 81.31,-37.35 71.75,-41.91 76.68,-46.88"/>
<text xml:space="preserve" text-anchor="middle" x="105.38" y="-57.2" font-family="Times,serif" font-size="14.00">Logical Ring</text>
</g>
<!-- N3 -->
<g id="node4" class="node">
<title>N3</title>
<polygon fill="#cfe2f3" stroke="#4a90c4" points="211,-36 157,-36 157,0 211,0 211,-36"/>
<text xml:space="preserve" text-anchor="middle" x="184" y="-12.95" font-family="Times,serif" font-size="14.00">N3</text>
</g>
<!-- Switch&#45;&gt;N3 -->
<g id="edge4" class="edge">
<title>Switch&#45;&gt;N3</title>
<path fill="none" stroke="black" d="M168.87,-88.41C169.21,-76.76 171.09,-61.05 173.65,-47.52"/>
<polygon fill="black" stroke="black" points="177.06,-48.34 175.74,-37.83 170.21,-46.87 177.06,-48.34"/>
</g>
<!-- N4 -->
<g id="node5" class="node">
<title>N4</title>
<polygon fill="#cfe2f3" stroke="#4a90c4" points="283,-36 229,-36 229,0 283,0 283,-36"/>
<text xml:space="preserve" text-anchor="middle" x="256" y="-12.95" font-family="Times,serif" font-size="14.00">N4</text>
</g>
<!-- Switch&#45;&gt;N4 -->
<g id="edge6" class="edge">
<title>Switch&#45;&gt;N4</title>
<path fill="none" stroke="black" d="M182.74,-88.82C193.69,-76.06 210.73,-58.27 225.71,-43.84"/>
<polygon fill="black" stroke="black" points="227.8,-46.67 232.66,-37.26 222.99,-41.59 227.8,-46.67"/>
</g>
<!-- N1&#45;&gt;Switch -->
<g id="edge1" class="edge">
<title>N1&#45;&gt;Switch</title>
<path fill="none" stroke="black" d="M42.76,-36.04C50.37,-47.29 59.89,-61.56 72,-70.5 88.36,-82.57 109.04,-90.58 127.41,-95.85"/>
<polygon fill="black" stroke="black" points="126.46,-99.22 137.03,-98.4 128.26,-92.46 126.46,-99.22"/>
</g>
<!-- N2&#45;&gt;Switch -->
<g id="edge3" class="edge">
<title>N2&#45;&gt;Switch</title>
<path fill="none" stroke="black" d="M125.56,-36.15C130.79,-41.64 136.36,-47.88 141,-54 146.85,-61.72 152.54,-70.61 157.4,-78.81"/>
<polygon fill="black" stroke="black" points="154.31,-80.45 162.33,-87.37 160.38,-76.96 154.31,-80.45"/>
</g>
<!-- N3&#45;&gt;Switch -->
<g id="edge5" class="edge">
<title>N3&#45;&gt;Switch</title>
<path fill="none" stroke="black" d="M187.13,-36.22C186.77,-48.04 184.84,-64 182.22,-77.62"/>
<polygon fill="black" stroke="black" points="178.81,-76.83 180.1,-87.34 185.65,-78.32 178.81,-76.83"/>
</g>
<!-- N4&#45;&gt;Switch -->
<g id="edge7" class="edge">
<title>N4&#45;&gt;Switch</title>
<path fill="none" stroke="black" d="M244.61,-36.43C232.97,-49.91 214.91,-68.66 199.62,-83.23"/>
<polygon fill="black" stroke="black" points="197.5,-80.41 192.57,-89.79 202.27,-85.53 197.5,-80.41"/>
</g>
</g>
</svg>
