<?xml version="1.0" encoding="UTF-8" standalone="no"?>
<!DOCTYPE svg PUBLIC "-//W3C//DTD SVG 1.1//EN"
 "http://www.w3.org/Graphics/SVG/1.1/DTD/svg11.dtd">
<!-- Title: G Pages: 1 -->
<svg width="350pt" height="116pt"
 viewBox="0.00 0.00 350.00 116.00" xmlns="http://www.w3.org/2000/svg" xmlns:xlink="http://www.w3.org/1999/xlink" font-family="Helvetica Neue, Helvetica, Arial, sans-serif">
<g id="graph0" class="graph" transform="scale(1 1) rotate(0) translate(4 112)">
<title>G</title>
<polygon fill="white" stroke="none" points="-4,4 -4,-112 346,-112 346,4 -4,4"/>
<!-- Host -->
<g id="node1" class="node">
<title>Host</title>
<polygon fill="#fdebd0" stroke="#c87b2a" points="198,-108 144,-108 144,-72 198,-72 198,-108"/>
<text xml:space="preserve" text-anchor="middle" x="171" y="-84.95" font-family="Times,serif" font-size="14.00">Host</text>
</g>
<!-- H1 -->
<g id="node2" class="node">
<title>H1</title>
<ellipse fill="#cfe2f3" stroke="#4a90c4" cx="27" cy="-18" rx="27" ry="18"/>
<text xml:space="preserve" text-anchor="middle" x="27" y="-12.95" font-family="Times,serif" font-size="14.00">H1</text>
</g>
<!-- Host&#45;&gt;H1 -->
<g id="edge1" class="edge">
<title>Host&#45;&gt;H1</title>
<path fill="none" stroke="black" d="M143.58,-75.67C119.3,-63.87 83.88,-46.65 58.46,-34.29"/>
<polygon fill="black" stroke="black" points="60.12,-31.21 49.6,-29.98 57.06,-37.5 60.12,-31.21"/>
</g>
<!-- H2 -->
<g id="node3" class="node">
<title>H2</title>
<ellipse fill="#cfe2f3" stroke="#4a90c4" cx="99" cy="-18" rx="27" ry="18"/>
<text xml:space="preserve" text-anchor="middle" x="99" y="-12.95" font-family="Times,serif" font-size="14.00">H2</text>
</g>
<!-- Host&#45;&gt;H2 -->
<g id="edge2" class="edge">
<title>Host&#45;&gt;H2</title>
<path fill="none" stroke="black" d="M153.2,-71.7C143.7,-62.46 131.91,-50.99 121.75,-41.12"/>
<polygon fill="black" stroke="black" points="124.38,-38.8 114.77,-34.33 119.5,-43.81 124.38,-38.8"/>
</g>
<!-- H3 -->
<g id="node4" class="node">
<title>H3</title>
<ellipse fill="#cfe2f3" stroke="#4a90c4" cx="171" cy="-18" rx="27" ry="18"/>
<text xml:space="preserve" text-anchor="middle" x="171" y="-12.95" font-family="Times,serif" font-size="14.00">H3</text>
</g>
<!-- Host&#45;&gt;H3 -->
<g id="edge3" class="edge">
<title>Host&#45;&gt;H3</title>
<path fill="none" stroke="black" d="M171,-71.7C171,-64.41 171,-55.73 171,-47.54"/>
<polygon fill="black" stroke="black" points="174.5,-47.62 171,-37.62 167.5,-47.62 174.5,-47.62"/>
</g>
<!-- ...  -->
<g id="node5" class="node">
<title>... </title>
<ellipse fill="#cfe2f3" stroke="#4a90c4" cx="243" cy="-18" rx="27" ry="18"/>
<text xml:space="preserve" text-anchor="middle" x="243" y="-12.95" font-family="Times,serif" font-size="14.00">... </text>
</g>
<!-- Host&#45;&gt;...  -->
<g id="edge4" class="edge">
<title>Host&#45;&gt;... </title>
<path fill="none" stroke="black" d="M188.8,-71.7C198.3,-62.46 210.09,-50.99 220.25,-41.12"/>
<polygon fill="black" stroke="black" points="222.5,-43.81 227.23,-34.33 217.62,-38.8 222.5,-43.81"/>
</g>
<!-- H10 -->
<g id="node6" class="node">
<title>H10</title>
<ellipse fill="#cfe2f3" stroke="#4a90c4" cx="315" cy="-18" rx="27" ry="18"/>
<text xml:space="preserve" text-anchor="middle" x="315" y="-12.95" font-family="Times,serif" font-size="14.00">H10</text>
</g>
<!-- Host&#45;&gt;H10 -->
<g id="edge5" class="edge">
<title>Host&#45;&gt;H10</title>
<path fill="none" stroke="black" d="M198.42,-75.67C222.7,-63.87 258.12,-46.65 283.54,-34.29"/>
<polygon fill="black" stroke="black" points="284.94,-37.5 292.4,-29.98 281.88,-31.21 284.94,-37.5"/>
</g>
</g>
</svg>
