<?xml version="1.0" encoding="UTF-8" standalone="no"?>
<!DOCTYPE svg PUBLIC "-//W3C//DTD SVG 1.1//EN"
 "http://www.w3.org/Graphics/SVG/1.1/DTD/svg11.dtd">
<!-- Title: G Pages: 1 -->
<svg width="170pt" height="206pt"
 viewBox="0.00 0.00 170.00 206.00" xmlns="http://www.w3.org/2000/svg" xmlns:xlink="http://www.w3.org/1999/xlink" font-family="Helvetica Neue, Helvetica, Arial, sans-serif">
<g id="graph0" class="graph" transform="scale(1 1) rotate(0) translate(4 202)">
<title>G</title>
<polygon fill="white" stroke="none" points="-4,4 -4,-202 165.99,-202 165.99,4 -4,4"/>
<!-- C1 -->
<g id="node1" class="node">
<title>C1</title>
<ellipse fill="#cfe2f3" stroke="#4a90c4" cx="36" cy="-180" rx="36" ry="18"/>
<text xml:space="preserve" text-anchor="middle" x="36" y="-174.95" font-family="Times,serif" font-size="14.00">Cam 1</text>
</g>
<!-- Switch -->
<g id="node5" class="node">
<title>Switch</title>
<polygon fill="#fdebd0" stroke="#c87b2a" points="161.99,-117 107.99,-117 107.99,-81 161.99,-81 161.99,-117"/>
<text xml:space="preserve" text-anchor="middle" x="134.99" y="-93.95" font-family="Times,serif" font-size="14.00">Switch</text>
</g>
<!-- C1&#45;&gt;Switch -->
<g id="edge1" class="edge">
<title>C1&#45;&gt;Switch</title>
<path fill="none" stroke="red" stroke-width="2" d="M56.78,-165.07C61.79,-161.19 67.13,-156.99 71.99,-153 82.59,-144.31 93.96,-134.54 104.03,-125.73"/>
<polygon fill="red" stroke="red" stroke-width="2" points="106.13,-128.55 111.32,-119.31 101.5,-123.29 106.13,-128.55"/>
</g>
<!-- C2 -->
<g id="node2" class="node">
<title>C2</title>
<ellipse fill="#cfe2f3" stroke="#4a90c4" cx="36" cy="-126" rx="36" ry="18"/>
<text xml:space="preserve" text-anchor="middle" x="36" y="-120.95" font-family="Times,serif" font-size="14.00">Cam 2</text>
</g>
<!-- C2&#45;&gt;Switch -->
<g id="edge2" class="edge">
<title>C2&#45;&gt;Switch</title>
<path fill="none" stroke="red" stroke-width="2" d="M67.95,-117.38C76.62,-114.97 86.15,-112.32 95.21,-109.8"/>
<polygon fill="red" stroke="red" stroke-width="2" points="95.96,-113.22 104.65,-107.17 94.08,-106.48 95.96,-113.22"/>
</g>
<!-- C3 -->
<g id="node3" class="node">
<title>C3</title>
<ellipse fill="#cfe2f3" stroke="#4a90c4" cx="36" cy="-72" rx="36" ry="18"/>
<text xml:space="preserve" text-anchor="middle" x="36" y="-66.95" font-family="Times,serif" font-size="14.00">Cam 3</text>
</g>
<!-- C3&#45;&gt;Switch -->
<g id="edge3" class="edge">
<title>C3&#45;&gt;Switch</title>
<path fill="none" stroke="red" stroke-width="2" d="M67.95,-80.62C76.62,-83.03 86.15,-85.68 95.21,-88.2"/>
<polygon fill="red" stroke="red" stroke-width="2" points="94.08,-91.52 104.65,-90.83 95.96,-84.78 94.08,-91.52"/>
</g>
<!-- C4 -->
<g id="node4" class="node">
<title>C4</title>
<ellipse fill="#cfe2f3" stroke="#4a90c4" cx="36" cy="-18" rx="36" ry="18"/>
<text xml:space="preserve" text-anchor="middle" x="36" y="-12.95" font-family="Times,serif" font-size="14.00">Cam 4</text>
</g>
<!-- C4&#45;&gt;Switch -->
<g id="edge4" class="edge">
<title>C4&#45;&gt;Switch</title>
<path fill="none" stroke="red" stroke-width="2" d="M56.78,-32.93C61.79,-36.81 67.13,-41.01 71.99,-45 82.59,-53.69 93.96,-63.46 104.03,-72.27"/>
<polygon fill="red" stroke="red" stroke-width="2" points="101.5,-74.71 111.32,-78.69 106.13,-69.45 101.5,-74.71"/>
</g>
</g>
</svg>
