<?xml version="1.0" encoding="UTF-8" standalone="no"?>
<!DOCTYPE svg PUBLIC "-//W3C//DTD SVG 1.1//EN"
 "http://www.w3.org/Graphics/SVG/1.1/DTD/svg11.dtd">
<!-- Title: G Pages: 1 -->
<svg width="408pt" height="46pt"
 viewBox="0.00 0.00 408.00 46.00" xmlns="http://www.w3.org/2000/svg" xmlns:xlink="http://www.w3.org/1999/xlink" font-family="Helvetica Neue, Helvetica, Arial, sans-serif">
<g id="graph0" class="graph" transform="scale(1 1) rotate(0) translate(4 42)">
<title>G</title>
<polygon fill="white" stroke="none" points="-4,4 -4,-42 404,-42 404,4 -4,4"/>
<!-- Cams -->
<g id="node1" class="node">
<title>Cams</title>
<polygon fill="#fdebd0" stroke="black" points="86.5,-38 0,-38 0,0 86.5,0 86.5,-38"/>
<text xml:space="preserve" text-anchor="middle" x="43.25" y="-20.7" font-family="Helvetica,sans-Serif" font-size="14.00">8x 1080p30</text>
<text xml:space="preserve" text-anchor="middle" x="43.25" y="-5.7" font-family="Helvetica,sans-Serif" font-size="14.00">(~12 Gbps)</text>
</g>
<!-- Switch -->
<g id="node2" class="node">
<title>Switch</title>
<polygon fill="#cfe2f3" stroke="#4a90c4" points="277.25,-38 174.25,-38 174.25,0 277.25,0 277.25,-38"/>
<text xml:space="preserve" text-anchor="middle" x="225.75" y="-20.7" font-family="Helvetica,sans-Serif" font-size="14.00">Gigabit Switch</text>
<text xml:space="preserve" text-anchor="middle" x="225.75" y="-5.7" font-family="Helvetica,sans-Serif" font-size="14.00">(1 Gbps)</text>
</g>
<!-- Cams&#45;&gt;Switch -->
<g id="edge1" class="edge">
<title>Cams&#45;&gt;Switch</title>
<path fill="none" stroke="#c87b2a" stroke-width="3" d="M86.57,-19C108.33,-19 135.33,-19 159.67,-19"/>
<polygon fill="#c87b2a" stroke="#c87b2a" stroke-width="3" points="159.48,-22.5 169.48,-19 159.48,-15.5 159.48,-22.5"/>
<text xml:space="preserve" text-anchor="middle" x="130.38" y="-22.2" font-family="Times,serif" font-size="14.00">Overflow</text>
</g>
<!-- Orin -->
<g id="node3" class="node">
<title>Orin</title>
<polygon fill="#d4edda" stroke="#3d9e5a" points="400,-37 314.25,-37 314.25,-1 400,-1 400,-37"/>
<text xml:space="preserve" text-anchor="middle" x="357.12" y="-13.2" font-family="Helvetica,sans-Serif" font-size="14.00">Jetson Orin</text>
</g>
<!-- Switch&#45;&gt;Orin -->
<g id="edge2" class="edge">
<title>Switch&#45;&gt;Orin</title>
<path fill="none" stroke="black" d="M277.51,-19C285.69,-19 294.18,-19 302.43,-19"/>
<polygon fill="black" stroke="black" points="302.35,-22.5 312.35,-19 302.35,-15.5 302.35,-22.5"/>
</g>
</g>
</svg>
