<?xml version="1.0" encoding="UTF-8" standalone="no"?>
<!-- Created with Inkscape (http://www.inkscape.org/) -->

<svg
   version="1.1"
   id="svg1"
   width="165.35333"
   height="156.492"
   viewBox="0 0 165.35333 156.492"
   xmlns="http://www.w3.org/2000/svg"
   xmlns:svg="http://www.w3.org/2000/svg">
  <defs
     id="defs1" />
  <g
     id="g1">
    <path
       id="path1"
       d="m 159.45082,-177.16762 c 0,29.35446 -23.79581,53.15027 -53.15027,53.15027 -29.35446,0 -53.15027,-23.79581 -53.15027,-53.15027 0,-29.35446 23.79581,-53.15027 53.15027,-53.15027 29.35446,0 53.15027,23.79581 53.15027,53.15027 z"
       style="fill:#00adef;fill-opacity:0.5;fill-rule:nonzero;stroke:none"
       transform="matrix(0.93333333,0,0,-0.93333333,-49.606667,-115.7492)" />
    <path
       id="path2"
       d="m 194.88432,-238.54044 c 0,29.35447 -23.7958,53.15027 -53.15027,53.15027 -29.35445,0 -53.15026,-23.7958 -53.15026,-53.15027 0,-29.35446 23.79581,-53.15026 53.15026,-53.15026 29.35447,0 53.15027,23.7958 53.15027,53.15026 z"
       style="fill:#d24c79;fill-opacity:0.5;fill-rule:nonzero;stroke:none"
       transform="matrix(0.93333333,0,0,-0.93333333,-49.606667,-115.7492)" />
    <path
       id="path3"
       d="m 230.31786,-177.16762 c 0,29.35446 -23.79581,53.15027 -53.15027,53.15027 -29.35446,0 -53.15027,-23.79581 -53.15027,-53.15027 0,-29.35446 23.79581,-53.15027 53.15027,-53.15027 29.35446,0 53.15027,23.79581 53.15027,53.15027 z"
       style="fill:#ff8000;fill-opacity:0.5;fill-rule:nonzero;stroke:none"
       transform="matrix(0.93333333,0,0,-0.93333333,-49.606667,-115.7492)" />
    <path
       id="path4"
       d="M 4.2538862,-1.9568304 4.923529,0.001875 h 0.9375 L 3.5675022,-6.5438839 H 2.4793326 L 0.15232366,0.001875 H 1.0396004 l 0.686384,-1.9587054 z m -0.234375,-0.703125 H 1.9436183 L 3.0150469,-5.6398661 Z M 7.3384286,-6.5438839 H 6.5850804 V 0.001875 h 0.7533482 z m 4.3317524,1.8415178 v 0.686384 c -0.385045,-0.5524554 -0.837054,-0.8203125 -1.439732,-0.8203125 -1.1886164,0 -1.9921878,1.0379464 -1.9921878,2.5613839 0,0.7700893 0.2008928,1.40624999 0.5859375,1.85825891 0.3515625,0.38504465 0.8537946,0.61941965 1.3392853,0.61941965 0.602679,0 1.004465,-0.25111607 1.439733,-0.83705357 v 0.234375 c 0,0.63616071 -0.08371,1.03794642 -0.284599,1.2890625 C 11.134467,1.17375 10.749422,1.3244196 10.280672,1.3244196 c -0.3348216,0 -0.6361608,-0.083705 -0.8537948,-0.251116 C 9.2594665,0.939375 9.1925022,0.8221875 9.142279,0.53758929 H 8.3889308 c 0.066964,0.88727681 0.7700893,1.42299111 1.8750002,1.42299111 0.686384,0 1.289062,-0.234375 1.607143,-0.6026786 0.351562,-0.43526787 0.485491,-1.02120537 0.485491,-2.12611609 V -4.7023661 Z m -1.356027,0.5524554 c 0.803571,0 1.289063,0.6863839 1.289063,1.8582589 0,1.1216518 -0.485492,1.80803573 -1.289063,1.80803573 -0.8035714,0 -1.3058036,-0.68638393 -1.3058036,-1.82477683 0,-1.1383928 0.5022322,-1.8415178 1.3058036,-1.8415178 z m 5.0851,-0.6863839 c -1.322544,0 -2.126116,0.9375 -2.126116,2.5279017 0,1.57366076 0.786831,2.51116076 2.126116,2.51116076 1.322545,0 2.126117,-0.9375 2.126117,-2.47767856 0,-1.6238839 -0.77009,-2.5613839 -2.126117,-2.5613839 z m 0,0.6863839 c 0.853795,0 1.356027,0.703125 1.356027,1.8582589 0,1.1049107 -0.518973,1.80803573 -1.356027,1.80803573 -0.837053,0 -1.339285,-0.68638393 -1.339285,-1.82477683 0,-1.1383928 0.502232,-1.8415178 1.339285,-1.8415178 z m 3.159878,-0.5524554 V 0.001875 h 0.753348 v -2.4441964 c 0,-0.6696429 0.167411,-1.1049107 0.535714,-1.3727679 0.234375,-0.1674107 0.452009,-0.2176339 0.970982,-0.234375 v -0.7533482 c -0.117187,-0.016741 -0.184151,-0.033482 -0.284598,-0.033482 -0.485491,0 -0.853795,0.2845982 -1.289062,0.9877232 V -4.702366 Z m 3.833705,0 H 21.65623 V 0.001875 h 0.736607 z m 0,-1.8415178 h -0.753348 v 0.954241 h 0.753348 z m 2.925502,1.8415178 H 24.54825 v -1.2890625 h -0.736607 v 1.2890625 h -0.636161 v 0.6194197 h 0.636161 v 3.54910711 c 0,0.46875 0.31808,0.73660715 0.904018,0.73660715 0.16741,0 0.351562,-0.0167411 0.602678,-0.0502232 v -0.63616071 c -0.100446,0.0334821 -0.217634,0.0334821 -0.351562,0.0334821 -0.334822,0 -0.418527,-0.0837054 -0.418527,-0.41852678 V -4.0829464 h 0.770089 z m 0.853795,-1.8415178 V 0.001875 h 0.736607 v -2.5948661 c 0,-0.954241 0.502232,-1.5904018 1.272321,-1.5904018 0.251117,0 0.485492,0.083705 0.669643,0.217634 0.217634,0.1506696 0.30134,0.3850446 0.30134,0.703125 V 0.001875 h 0.736607 v -3.5491071 c 0,-0.7868304 -0.552456,-1.2890625 -1.473215,-1.2890625 -0.669642,0 -1.071428,0.2008928 -1.506696,0.7868303 v -2.4944196 z m 4.984654,1.8415178 V 0.001875 h 0.753348 v -2.9464286 c 0,-0.6863839 0.485491,-1.2388393 1.08817,-1.2388393 0.569196,0 0.870536,0.3515625 0.870536,0.9542411 V 0.001875 h 0.753348 v -2.9464286 c 0,-0.6863839 0.502232,-1.2388393 1.10491,-1.2388393 0.552456,0 0.870536,0.3515625 0.870536,0.9542411 V 0.001875 h 0.753348 v -3.5323661 c 0,-0.8370535 -0.485491,-1.3058035 -1.356026,-1.3058035 -0.636161,0 -1.004465,0.1841517 -1.439733,0.719866 -0.284598,-0.5022321 -0.652901,-0.719866 -1.272321,-0.719866 -0.61942,0 -1.037946,0.234375 -1.439732,0.8035714 v -0.6696429 z m 8.173828,0 H 38.594009 V 0.001875 h 0.736607 z m 0,-1.8415178 h -0.753348 v 0.954241 h 0.753348 z m 4.867467,3.4151785 c -0.03348,-0.4520089 -0.133929,-0.7533482 -0.30134,-1.0044642 -0.334821,-0.4352679 -0.887276,-0.703125 -1.540178,-0.703125 -1.272322,0 -2.092634,1.0044642 -2.092634,2.5613839 0,1.52343749 0.803571,2.47767856 2.075893,2.47767856 1.121651,0 1.824776,-0.66964286 1.925223,-1.80803576 h -0.753348 c -0.133929,0.75334826 -0.518974,1.12165183 -1.155134,1.12165183 -0.820313,0 -1.322545,-0.66964283 -1.322545,-1.79129463 0,-1.171875 0.485491,-1.875 1.305804,-1.875 0.619419,0 1.021205,0.3683036 1.10491,1.0212053 z m 0,0"
       style="fill:#000000;fill-opacity:1;fill-rule:nonzero;stroke:none"
       aria-label="Algorithmic"
       transform="matrix(0.93333333,0,0,0.93333333,4.6508,46.592)" />
    <path
       id="path5"
       d="M 1.6403393,-2.9790045 H 5.2061875 V -3.7156116 H 1.6403393 V -5.8082455 H 5.3401161 V -6.5448527 H 0.80328571 V 9.0625e-4 H 5.5075268 V -0.73570089 H 1.6403393 Z M 8.2907299,-4.7033348 H 7.5206406 V -5.439942 c 0,-0.3180803 0.1674107,-0.46875 0.5189732,-0.46875 0.050223,0 0.083705,0 0.2511161,0 v -0.6194196 c -0.1674107,-0.033482 -0.2678571,-0.033482 -0.4185268,-0.033482 -0.6863839,0 -1.1049107,0.3850447 -1.1049107,1.0546875 v 0.8035715 H 6.1478728 V -4.083915 H 6.7672924 V 9.0625e-4 H 7.5206406 V -4.0839152 h 0.7700893 z m 2.4441961,0 H 9.948096 V -5.439942 c 0,-0.3180803 0.184152,-0.46875 0.535714,-0.46875 0.05022,0 0.08371,0 0.251116,0 v -0.6194196 c -0.16741,-0.033482 -0.267857,-0.033482 -0.418526,-0.033482 -0.6863844,0 -1.1049112,0.3850447 -1.1049112,1.0546875 v 0.8035715 H 8.5753281 V -4.083915 H 9.2114888 V 9.0625e-4 H 9.948096 V -4.0839152 h 0.78683 z m 1.657366,0 H 11.638944 V 9.0625e-4 h 0.753348 z m 0,-1.8415179 h -0.753348 v 0.9542411 h 0.753348 z m 4.783762,3.4151786 c -0.03348,-0.4520089 -0.133929,-0.7533482 -0.30134,-1.0044643 -0.334821,-0.4352679 -0.887277,-0.703125 -1.540178,-0.703125 -1.272322,0 -2.092634,1.0044643 -2.092634,2.5613839 0,1.52343754 0.803571,2.47767861 2.075893,2.47767861 1.121651,0 1.824776,-0.66964286 1.925223,-1.80803571 H 16.48967 c -0.133929,0.75334821 -0.518974,1.12165178 -1.155134,1.12165178 -0.820313,0 -1.322545,-0.66964288 -1.322545,-1.79129468 0,-1.171875 0.485491,-1.875 1.305804,-1.875 0.619419,0 1.021205,0.3683036 1.10491,1.0212054 z m 1.602957,-1.5736607 H 18.042404 V 9.0625e-4 h 0.736607 z m 0,-1.8415179 h -0.753348 v 0.9542411 h 0.753348 z m 5.256697,4.453125 c 0,-0.7198661 -0.05022,-1.1551339 -0.184152,-1.5066964 -0.318081,-0.7700893 -1.021206,-1.2388393 -1.908482,-1.2388393 -1.305804,0 -2.159599,1.0044643 -2.159599,2.5446429 0,1.55691961 0.820313,2.49441961 2.142858,2.49441961 1.071428,0 1.824776,-0.60267857 2.008928,-1.62388391 h -0.753348 c -0.200893,0.61941962 -0.61942,0.93749998 -1.222098,0.93749998 -0.485491,0 -0.887277,-0.21763393 -1.138393,-0.60267858 -0.184152,-0.2678571 -0.234375,-0.5524554 -0.251116,-1.0044643 z m -3.448661,-0.6194196 c 0.06696,-0.8705357 0.602678,-1.4397322 1.356027,-1.4397322 0.719866,0 1.289062,0.6194197 1.289062,1.389509 0,0.016741 0,0.033482 0,0.050223 z m 4.465681,-1.9921875 V 9.0625e-4 h 0.753348 V -2.5939598 c 0,-0.9542411 0.502232,-1.5904018 1.272321,-1.5904018 0.585938,0 0.970982,0.3683036 0.970982,0.9207589 V 9.0625e-4 h 0.736608 V -3.5482009 c 0,-0.7868304 -0.585938,-1.2890625 -1.489956,-1.2890625 -0.703125,0 -1.155134,0.2678571 -1.556919,0.9207589 v -0.7868303 z m 8.567243,1.5736607 c -0.03348,-0.4520089 -0.133929,-0.7533482 -0.301339,-1.0044643 -0.334822,-0.4352679 -0.887277,-0.703125 -1.540179,-0.703125 -1.272321,0 -2.092634,1.0044643 -2.092634,2.5613839 0,1.52343754 0.803572,2.47767861 2.075893,2.47767861 1.121652,0 1.824777,-0.66964286 1.925223,-1.80803571 h -0.753348 c -0.133929,0.75334821 -0.518973,1.12165178 -1.155134,1.12165178 -0.820312,0 -1.322545,-0.66964288 -1.322545,-1.79129468 0,-1.171875 0.485492,-1.875 1.305804,-1.875 0.61942,0 1.021205,0.3683036 1.104911,1.0212054 z m 3.745815,-1.5736607 -1.305804,3.6662946 -1.205357,-3.6662946 h -0.78683 l 1.590401,4.72098212 -0.301339,0.75334822 C 35.23967,1.0890759 35.072259,1.2230045 34.77092,1.2230045 c -0.117188,0 -0.234375,-0.016741 -0.401786,-0.050223 v 0.6696429 c 0.15067,0.083705 0.301339,0.1171875 0.502232,0.1171875 0.234375,0 0.502232,-0.083705 0.703125,-0.234375 0.234375,-0.1674107 0.368304,-0.3683036 0.502232,-0.73660714 l 2.092634,-5.69196426 z m 0,0"
       style="fill:#000000;fill-opacity:1;fill-rule:nonzero;stroke:none"
       aria-label="Effciency"
       transform="matrix(0.93333333,0,0,0.93333333,7.5002667,56.819467)" />
    <path
       id="path6"
       d="M 0.80368973,7.9464286e-4 H 3.3148504 c 1.6573661,0 2.6785715,-1.23883924286 2.6785715,-3.28125004286 0,-2.0256696 -1.0212054,-3.2645089 -2.6785715,-3.2645089 H 0.80368973 Z M 1.6407433,-0.7358125 v -5.0725446 h 1.5401786 c 1.2890625,0 1.9754464,0.8705357 1.9754464,2.5446428 0,1.6573661 -0.6863839,2.5279018 -1.9754464,2.5279018 z m 9.6386717,0.30133929 c -0.08371,0.0167411 -0.117187,0.0167411 -0.167411,0.0167411 -0.251116,0 -0.401785,-0.13392857 -0.401785,-0.36830357 V -3.5483125 c 0,-0.8370536 -0.602679,-1.2890625 -1.7745538,-1.2890625 -0.6696429,0 -1.2388393,0.2008929 -1.5569197,0.5524554 -0.2176339,0.234375 -0.3013393,0.5022321 -0.3180803,0.9709821 h 0.7533482 c 0.066964,-0.5691964 0.4017857,-0.8370536 1.1049107,-0.8370536 0.6696429,0 1.0546875,0.2511161 1.0546875,0.703125 v 0.2008929 c 0,0.3180803 -0.2008929,0.4520089 -0.7868304,0.5189732 -1.0546875,0.1339286 -1.2220982,0.1674107 -1.5066964,0.2845982 -0.5524553,0.234375 -0.8203125,0.6529018 -0.8203125,1.2555804 0,0.85379461 0.5859375,1.3895089 1.5401786,1.3895089 0.5859375,0 1.0546875,-0.20089285714 1.5904018,-0.68638393 0.050223,0.46875 0.2845983,0.68638393 0.7700893,0.68638393 0.15067,0 0.267857,-0.0167411 0.518973,-0.0669643 z M 9.9736116,-1.4724196 c 0,0.251116 -0.083705,0.4017857 -0.3013393,0.60267853 -0.3013393,0.28459821 -0.6696428,0.41852678 -1.1216518,0.41852678 -0.5691964,0 -0.9207589,-0.26785714 -0.9207589,-0.75334821 0,-0.4854911 0.3348214,-0.7366071 1.1383929,-0.8537946 0.7868303,-0.1171875 0.9375,-0.1506697 1.2053571,-0.2678572 z m 3.7625554,-3.2310268 h -0.770089 v -1.2890625 h -0.736607 v 1.2890625 H 11.59331 v 0.6194196 h 0.636161 v 3.54910716 c 0,0.46875 0.31808,0.73660714 0.904018,0.73660714 0.167411,0 0.351562,-0.0167411 0.602678,-0.0502232 v -0.63616072 c -0.100446,0.0334821 -0.217634,0.0334821 -0.351562,0.0334821 -0.334822,0 -0.418527,-0.0837054 -0.418527,-0.41852678 v -3.2142857 h 0.770089 z m 5.018137,4.26897319 c -0.08371,0.0167411 -0.117188,0.0167411 -0.167411,0.0167411 -0.251116,0 -0.401786,-0.13392857 -0.401786,-0.36830357 V -3.5483125 c 0,-0.8370536 -0.602678,-1.2890625 -1.774553,-1.2890625 -0.669643,0 -1.23884,0.2008929 -1.55692,0.5524554 -0.217634,0.234375 -0.301339,0.5022321 -0.31808,0.9709821 h 0.753348 c 0.06696,-0.5691964 0.401785,-0.8370536 1.10491,-0.8370536 0.669643,0 1.054688,0.2511161 1.054688,0.703125 v 0.2008929 c 0,0.3180803 -0.200893,0.4520089 -0.78683,0.5189732 -1.054688,0.1339286 -1.222099,0.1674107 -1.506697,0.2845982 -0.552455,0.234375 -0.820312,0.6529018 -0.820312,1.2555804 0,0.85379461 0.585937,1.3895089 1.540178,1.3895089 0.585938,0 1.054688,-0.20089285714 1.590402,-0.68638393 0.05022,0.46875 0.284598,0.68638393 0.770089,0.68638393 0.15067,0 0.267857,-0.0167411 0.518974,-0.0669643 z M 17.4485,-1.4724196 c 0,0.251116 -0.0837,0.4017857 -0.301339,0.60267853 -0.30134,0.28459821 -0.669643,0.41852678 -1.121652,0.41852678 -0.569197,0 -0.920759,-0.26785714 -0.920759,-0.75334821 0,-0.4854911 0.334821,-0.7366071 1.138393,-0.8537946 0.78683,-0.1171875 0.9375,-0.1506697 1.205357,-0.2678572 z m 0,0"
       style="fill:#000000;fill-opacity:1;fill-rule:nonzero;stroke:none"
       aria-label="Data"
       transform="matrix(0.93333333,0,0,0.93333333,73.839733,116.29613)" />
    <path
       id="path7"
       d="M 1.6417366,-2.9810848 H 5.2075848 V -3.717692 H 1.6417366 V -5.8103259 H 5.3415134 V -6.546933 H 0.80468304 v 6.54575889 H 5.5089241 V -0.73778125 H 1.6417366 Z M 8.2921272,-4.7054152 H 7.5220379 v -0.7366071 c 0,-0.3180804 0.1674108,-0.46875 0.5189733,-0.46875 0.050223,0 0.083705,0 0.251116,0 V -6.530192 C 8.1247165,-6.563674 8.0242701,-6.563674 7.8736004,-6.563674 c -0.6863839,0 -1.1049107,0.3850446 -1.1049107,1.0546875 v 0.8035714 H 6.1492701 v 0.6194197 h 0.6194196 v 4.08482139 H 7.5220379 V -4.0859955 h 0.7700893 z m 2.4400108,0 h -0.78683 v -0.7366071 c 0,-0.3180804 0.184152,-0.46875 0.535714,-0.46875 0.05022,0 0.08371,0 0.251116,0 V -6.530192 c -0.16741,-0.033482 -0.267857,-0.033482 -0.418526,-0.033482 -0.6863843,0 -1.1049111,0.3850446 -1.1049111,1.0546875 v 0.8035714 H 8.5725402 v 0.6194197 h 0.6361607 v 4.08482139 H 9.945308 V -4.0859955 h 0.78683 z m 1.657366,0 h -0.753348 v 4.70424109 h 0.753348 z m 0,-1.8415178 h -0.753348 v 0.954241 h 0.753348 z m 4.783762,3.4151785 c -0.03348,-0.4520089 -0.133929,-0.7533482 -0.30134,-1.0044643 -0.334821,-0.4352678 -0.887276,-0.703125 -1.540178,-0.703125 -1.272322,0 -2.092634,1.0044643 -2.092634,2.561384 0,1.52343748 0.803571,2.47767855 2.075893,2.47767855 1.121651,0 1.824776,-0.66964286 1.925223,-1.80803575 h -0.753348 c -0.133929,0.75334825 -0.518974,1.12165182 -1.155134,1.12165182 -0.820313,0 -1.322545,-0.66964282 -1.322545,-1.79129462 0,-1.171875 0.485491,-1.875 1.305804,-1.875 0.619419,0 1.021205,0.3683035 1.10491,1.0212053 z m 1.607142,-1.5736607 h -0.736607 v 4.70424109 h 0.736607 z m 0,-1.8415178 H 18.02706 v 0.954241 h 0.753348 z m 5.252512,4.453125 c 0,-0.7198661 -0.05022,-1.155134 -0.184152,-1.5066965 -0.318081,-0.7700893 -1.021206,-1.2388393 -1.908482,-1.2388393 -1.305804,0 -2.159599,1.0044643 -2.159599,2.5446429 0,1.55691965 0.820313,2.49441965 2.142858,2.49441965 1.071428,0 1.824776,-0.60267857 2.008928,-1.62388395 h -0.753348 c -0.200893,0.61941966 -0.61942,0.93750002 -1.222098,0.93750002 -0.485491,0 -0.887277,-0.21763393 -1.138393,-0.60267862 -0.184152,-0.2678571 -0.234375,-0.5524553 -0.251116,-1.0044642 z m -3.448661,-0.6194197 c 0.06696,-0.8705357 0.602678,-1.4397321 1.356027,-1.4397321 0.719866,0 1.289062,0.6194196 1.289062,1.3895089 0,0.016741 0,0.033482 0,0.050223 z m 4.465681,-1.9921875 v 4.70424109 h 0.753348 V -2.5960402 c 0,-0.9542411 0.502232,-1.5904018 1.272321,-1.5904018 0.585938,0 0.970983,0.3683036 0.970983,0.920759 v 3.26450889 h 0.736607 V -3.5502813 c 0,-0.7868303 -0.585938,-1.2890625 -1.489956,-1.2890625 -0.703125,0 -1.155134,0.2678572 -1.556919,0.920759 v -0.7868304 z m 8.571428,1.5736607 c -0.03348,-0.4520089 -0.133928,-0.7533482 -0.301339,-1.0044643 -0.334821,-0.4352678 -0.887277,-0.703125 -1.540179,-0.703125 -1.272321,0 -2.092633,1.0044643 -2.092633,2.561384 0,1.52343748 0.803571,2.47767855 2.075892,2.47767855 1.121652,0 1.824777,-0.66964286 1.925224,-1.80803575 h -0.753349 c -0.133928,0.75334825 -0.518973,1.12165182 -1.155134,1.12165182 -0.820312,0 -1.322544,-0.66964282 -1.322544,-1.79129462 0,-1.171875 0.485491,-1.875 1.305803,-1.875 0.61942,0 1.021206,0.3683035 1.104911,1.0212053 z m 3.745815,-1.5736607 -1.305804,3.6662947 -1.205357,-3.6662947 h -0.78683 l 1.590402,4.72098216 -0.30134,0.75334822 C 35.241067,1.0869955 35.073656,1.2209241 34.772317,1.2209241 c -0.117188,0 -0.234375,-0.016741 -0.401786,-0.050223 v 0.6696428 c 0.15067,0.083705 0.30134,0.1171875 0.502232,0.1171875 0.234375,0 0.502233,-0.083705 0.703125,-0.234375 0.234375,-0.1674107 0.368304,-0.3683035 0.502233,-0.73660709 L 38.170754,-4.705415 Z m 0,0"
       style="fill:#000000;fill-opacity:1;fill-rule:nonzero;stroke:none"
       aria-label="Effciency"
       transform="matrix(0.93333333,0,0,0.93333333,64.7724,126.52453)" />
    <path
       id="path8"
       d="m 5.9434375,-4.5207679 c -0.2678571,-1.422991 -1.0881696,-2.126116 -2.5279018,-2.126116 -0.8705357,0 -1.5904018,0.2678571 -2.0758928,0.8203125 -0.58593754,0.6361607 -0.9040179,1.5736607 -0.9040179,2.6283482 0,1.0881696 0.33482143,2.0089286 0.9542411,2.64508927 0.5022321,0.51897322 1.1383928,0.75334822 1.9921875,0.75334822 1.5904018,0 2.4944196,-0.85379465 2.6953125,-2.59486609 H 5.2068304 c -0.066964,0.4520089 -0.1506697,0.7533482 -0.2845983,1.0212054 -0.2678571,0.53571426 -0.8370535,0.83705354 -1.5234375,0.83705354 -1.3058035,0 -2.126116,-1.03794644 -2.126116,-2.66183034 0,-1.6908482 0.7868303,-2.7120536 2.0424107,-2.7120536 0.5357143,0 1.0212053,0.1506697 1.3058036,0.4017857 0.234375,0.234375 0.3683035,0.5022322 0.46875,0.9877232 z m 2.9757254,-0.3180803 c -1.3225446,0 -2.126116,0.9375 -2.126116,2.5279018 0,1.57366069 0.7868303,2.51116069 2.126116,2.51116069 1.3225451,0 2.1261161,-0.9375 2.1261161,-2.47767859 0,-1.6238839 -0.770089,-2.5613839 -2.1261161,-2.5613839 z m 0,0.6863839 c 0.8537947,0 1.3560271,0.703125 1.3560271,1.8582589 0,1.1049108 -0.5189735,1.80803576 -1.3560271,1.80803576 -0.8370535,0 -1.3392857,-0.68638396 -1.3392857,-1.82477676 0,-1.1383929 0.5022322,-1.8415179 1.3392857,-1.8415179 z m 3.1766181,-0.5524553 v 4.70424102857 h 0.753348 V -2.9471071 c 0,-0.686384 0.485492,-1.2388393 1.08817,-1.2388393 0.569197,0 0.870536,0.3515625 0.870536,0.954241 v 3.23102682857 h 0.753348 V -2.9471071 c 0,-0.686384 0.502232,-1.2388393 1.104911,-1.2388393 0.552455,0 0.870535,0.3515625 0.870535,0.954241 v 3.23102682857 h 0.753349 V -3.5330446 c 0,-0.8370536 -0.485491,-1.3058036 -1.356027,-1.3058036 -0.636161,0 -1.004464,0.1841518 -1.439732,0.7198661 -0.284598,-0.5022322 -0.652902,-0.7198661 -1.272322,-0.7198661 -0.619419,0 -1.037946,0.234375 -1.439732,0.8035714 v -0.6696428 z m 7.315848,6.6629464 h 0.753349 v -2.44419644 c 0.401785,0.46875 0.837053,0.68638393 1.439732,0.68638393 1.222098,0 2.008928,-0.97098215 2.008928,-2.47767859 0,-1.5736607 -0.770089,-2.5613839 -2.008928,-2.5613839 -0.636161,0 -1.155134,0.2845982 -1.506697,0.8370536 v -0.703125 h -0.686384 z m 2.059152,-6.09375 c 0.837054,0 1.372768,0.7198661 1.372768,1.8415178 0,1.0714286 -0.552455,1.80803576 -1.372768,1.80803576 -0.78683,0 -1.305803,-0.71986606 -1.305803,-1.82477676 0,-1.1049107 0.518973,-1.8247768 1.305803,-1.8247768 z m 6.763393,4.13504462857 V -4.7049196 h -0.736607 v 2.6618303 c 0,0.9709822 -0.502232,1.5904018 -1.289063,1.5904018 -0.585937,0 -0.970982,-0.3515625 -0.970982,-0.9207589 v -3.3314732 h -0.736607 v 3.6328125 c 0,0.77008924 0.585938,1.27232139 1.489956,1.27232139 0.703125,0 1.138392,-0.234375 1.57366,-0.85379465 V -6.7857143e-4 Z M 31.176417,-4.7049196 h -0.770089 v -1.2890625 h -0.736607 v 1.2890625 H 29.03356 V -4.0855 h 0.636161 v 3.54910714 c 0,0.46875 0.31808,0.73660715 0.904018,0.73660715 0.167411,0 0.351562,-0.0167411 0.602678,-0.0502232 v -0.63616071 c -0.100446,0.0334821 -0.217634,0.0334821 -0.351562,0.0334821 -0.334822,0 -0.418527,-0.0837054 -0.418527,-0.41852679 V -4.0855 h 0.770089 z m 4.817244,2.6116071 c 0,-0.7198661 -0.05022,-1.1551339 -0.184152,-1.5066964 -0.31808,-0.7700893 -1.021205,-1.2388393 -1.908482,-1.2388393 -1.305804,0 -2.159598,1.0044643 -2.159598,2.5446428 0,1.55691969 0.820312,2.49441969 2.142857,2.49441969 1.071428,0 1.824777,-0.60267858 2.008928,-1.62388389 h -0.753348 c -0.200893,0.6194196 -0.61942,0.93749996 -1.222098,0.93749996 -0.485491,0 -0.887277,-0.21763393 -1.138393,-0.60267856 C 32.595223,-1.3567054 32.545,-1.6413036 32.528259,-2.0933125 Z M 32.545,-2.7127321 c 0.06696,-0.8705358 0.602679,-1.4397322 1.356027,-1.4397322 0.719866,0 1.289062,0.6194197 1.289062,1.3895089 0,0.016741 0,0.033482 0,0.050223 z m 0,0"
       style="fill:#000000;fill-opacity:1;fill-rule:nonzero;stroke:none"
       aria-label="Compute"
       transform="matrix(0.93333333,0,0,0.93333333,120.12467,46.688133)" />
    <path
       id="path9"
       d="M 1.6398884,-2.9783728 H 5.2057366 V -3.7149799 H 1.6398884 V -5.8076138 H 5.3396652 V -6.544221 H 0.80283482 V 0.00153795 H 5.5070759 V -0.7350692 H 1.6398884 Z M 8.290279,-4.7027031 H 7.5201897 v -0.7366072 c 0,-0.3180803 0.1674107,-0.46875 0.5189732,-0.46875 0.050223,0 0.083705,0 0.2511161,0 v -0.6194196 c -0.1674107,-0.033482 -0.2678571,-0.033482 -0.4185268,-0.033482 -0.6863839,0 -1.1049107,0.3850447 -1.1049107,1.0546875 v 0.8035715 H 6.1474219 v 0.6194196 H 6.7668415 V 0.00153795 H 7.5201897 V -4.0832835 H 8.290279 Z m 2.444196,0 H 9.9476451 v -0.7366072 c 0,-0.3180803 0.1841519,-0.46875 0.5357139,-0.46875 0.05022,0 0.08371,0 0.251116,0 v -0.6194196 c -0.16741,-0.033482 -0.267857,-0.033482 -0.418526,-0.033482 -0.6863843,0 -1.1049111,0.3850447 -1.1049111,1.0546875 v 0.8035715 H 8.5748772 v 0.6194196 H 9.2110379 V 0.00153795 H 9.9476451 V -4.0832835 h 0.7868299 z m 1.657367,0 h -0.753349 v 4.70424105 h 0.753349 z m 0,-1.8415179 h -0.753349 v 0.9542411 h 0.753349 z m 4.783761,3.4151786 c -0.03348,-0.4520089 -0.133929,-0.7533482 -0.30134,-1.0044643 -0.334821,-0.4352679 -0.887276,-0.703125 -1.540178,-0.703125 -1.272322,0 -2.092634,1.0044643 -2.092634,2.5613839 0,1.52343753 0.803571,2.4776786 2.075893,2.4776786 1.121652,0 1.824777,-0.66964285 1.925223,-1.8080357 h -0.753348 c -0.133929,0.7533482 -0.518973,1.12165178 -1.155134,1.12165178 -0.820313,0 -1.322545,-0.66964288 -1.322545,-1.79129468 0,-1.171875 0.485491,-1.875 1.305804,-1.875 0.619419,0 1.021205,0.3683036 1.10491,1.0212054 z m 1.602957,-1.5736607 h -0.736607 v 4.70424105 h 0.736607 z m 0,-1.8415179 h -0.753348 v 0.9542411 h 0.753348 z m 5.256697,4.453125 c 0,-0.7198661 -0.05022,-1.1551339 -0.184152,-1.5066964 -0.31808,-0.7700893 -1.021205,-1.2388393 -1.908482,-1.2388393 -1.305804,0 -2.159598,1.0044643 -2.159598,2.5446429 0,1.5569196 0.820312,2.4944196 2.142857,2.4944196 1.071428,0 1.824776,-0.60267857 2.008928,-1.6238839 h -0.753348 c -0.200893,0.61941962 -0.61942,0.93749998 -1.222098,0.93749998 -0.485491,0 -0.887277,-0.21763393 -1.138393,-0.60267858 -0.184152,-0.2678571 -0.234375,-0.5524554 -0.251116,-1.0044643 z m -3.448661,-0.6194196 c 0.06696,-0.8705357 0.602679,-1.4397322 1.356027,-1.4397322 0.719866,0 1.289062,0.6194197 1.289062,1.389509 0,0.016741 0,0.033482 0,0.050223 z m 4.465681,-1.9921875 v 4.70424105 h 0.753348 V -2.5933281 c 0,-0.9542411 0.502232,-1.5904018 1.272321,-1.5904018 0.585938,0 0.970983,0.3683036 0.970983,0.9207589 v 3.26450895 h 0.736607 V -3.5475692 c 0,-0.7868304 -0.585938,-1.2890625 -1.489956,-1.2890625 -0.703125,0 -1.155134,0.2678571 -1.556919,0.9207589 v -0.7868303 z m 8.567243,1.5736607 c -0.03348,-0.4520089 -0.133928,-0.7533482 -0.301339,-1.0044643 -0.334822,-0.4352679 -0.887277,-0.703125 -1.540179,-0.703125 -1.272321,0 -2.092634,1.0044643 -2.092634,2.5613839 0,1.52343753 0.803572,2.4776786 2.075893,2.4776786 1.121652,0 1.824777,-0.66964285 1.925223,-1.8080357 h -0.753348 c -0.133928,0.7533482 -0.518973,1.12165178 -1.155134,1.12165178 -0.820312,0 -1.322544,-0.66964288 -1.322544,-1.79129468 0,-1.171875 0.485491,-1.875 1.305803,-1.875 0.61942,0 1.021206,0.3683036 1.104911,1.0212054 z m 3.745815,-1.5736607 -1.305804,3.6662946 -1.205357,-3.6662946 h -0.78683 l 1.590402,4.72098212 -0.30134,0.75334821 C 35.239219,1.0897076 35.071808,1.2236362 34.770469,1.2236362 c -0.117188,0 -0.234375,-0.016741 -0.401786,-0.050223 v 0.6696429 c 0.15067,0.083705 0.301339,0.1171875 0.502232,0.1171875 0.234375,0 0.502232,-0.083705 0.703125,-0.234375 0.234375,-0.1674107 0.368304,-0.3683036 0.502232,-0.73660714 l 2.092634,-5.69196426 z m 0,0"
       style="fill:#000000;fill-opacity:1;fill-rule:nonzero;stroke:none"
       aria-label="Effciency"
       transform="matrix(0.93333333,0,0,0.93333333,119.196,56.916533)" />
  </g>
</svg>
