<?xml version="1.0" encoding="UTF-8" standalone="no"?>
<!-- Created with Inkscape (http://www.inkscape.org/) -->

<svg
   version="1.1"
   id="svg1"
   width="458.28134"
   height="233.27467"
   viewBox="0 0 458.28134 233.27467"
   xmlns="http://www.w3.org/2000/svg"
   xmlns:svg="http://www.w3.org/2000/svg">
  <defs
     id="defs1" />
  <g
     id="g1">
    <path
       id="path1"
       d="M 0.3736,-11.33871 H 106.40725 V 11.33872 H 0.3736 Z"
       style="fill:#fde2f0;fill-opacity:1;fill-rule:nonzero;stroke:#c9146e;stroke-width:0.74721;stroke-linecap:butt;stroke-linejoin:miter;stroke-miterlimit:10;stroke-dasharray:none;stroke-opacity:1"
       transform="matrix(1.0666667,0,0,-1.0666667,172.1904,12.493867)" />
    <path
       id="path2"
       d="M 1.7420762,-6.5325801 H 0.8924668 V 6.2304687e-4 h 0.8496094 z m 1.3806152,1.8310547 V 6.2304687e-4 H 3.8697617 V -2.5921504 c 0,-0.9521484 0.5126953,-1.5820312 1.2744141,-1.5820312 0.6005859,0 0.9667969,0.3515625 0.9667969,0.9228515 V 6.2304687e-4 H 6.858043 V -3.5442988 c 0,-0.7910157 -0.5859375,-1.2890625 -1.4941407,-1.2890625 -0.6884765,0 -1.1425781,0.2636718 -1.5527343,0.9228515 v -0.7910156 z m 4.8376465,6.6503906 h 0.7470703 v -2.44628903 c 0.3955078,0.48339844 0.8349609,0.703125 1.4501958,0.703125 1.21582,0 2.006835,-0.98144531 2.006835,-2.47558597 0,-1.5820312 -0.776367,-2.5634765 -2.021484,-2.5634765 -0.6298827,0 -1.142578,0.2929687 -1.4941405,0.8496093 V -4.7015254 H 7.9603379 Z m 2.0654301,-6.0791015 c 0.820312,0 1.362304,0.7177734 1.362304,1.8457031 0,1.0693359 -0.55664,1.78710937 -1.362304,1.78710937 -0.791016,0 -1.3183598,-0.71777347 -1.3183598,-1.81640627 0,-1.0986328 0.5273438,-1.8164062 1.3183598,-1.8164062 z M 16.786021,6.2304687e-4 V -4.7015254 h -0.74707 v 2.6660156 c 0,0.9667969 -0.498047,1.58203128 -1.274414,1.58203128 -0.600586,0 -0.966797,-0.3515625 -0.966797,-0.92285158 v -3.3251953 h -0.74707 v 3.6328125 c 0,0.7763672 0.585937,1.27441407 1.494141,1.27441407 0.688476,0 1.127929,-0.234375 1.567382,-0.86425781 V 6.2304687e-4 Z M 19.719371,-4.7015254 h -0.761719 v -1.2890625 h -0.74707 v 1.2890625 h -0.629883 v 0.6152344 h 0.629883 v 3.54492186 c 0,0.48339844 0.322266,0.74707031 0.908203,0.74707031 0.175781,0 0.351563,-0.0146484 0.600586,-0.0585938 v -0.62988281 c -0.08789,0.0292969 -0.205078,0.0292969 -0.351562,0.0292969 -0.322266,0 -0.410157,-0.0878906 -0.410157,-0.41015625 V -4.086291 h 0.761719 z m 0,0"
       style="fill:#000000;fill-opacity:1;fill-rule:nonzero;stroke:none"
       aria-label="Input"
       transform="matrix(1.0666667,0,0,1.0666667,218.50507,14.893867)" />
    <path
       id="path3"
       d="m -118.4339,-46.79 h 106.03365 v 22.67743 H -118.4339 Z"
       style="fill:#d1f3ff;fill-opacity:1;fill-rule:nonzero;stroke:#2294bd;stroke-width:0.74721;stroke-linecap:butt;stroke-linejoin:miter;stroke-miterlimit:10;stroke-dasharray:none;stroke-opacity:1"
       transform="matrix(1.0666667,0,0,-1.0666667,172.1904,12.493867)" />
    <path
       id="path4"
       d="M 1.7433516,-6.5316309 H 0.89374219 V 0.00157227 H 1.7433516 Z m 1.3806152,1.8310547 V 0.00157227 H 3.8710371 V -2.9427637 c 0,-0.6884765 0.4980469,-1.2304687 1.1132813,-1.2304687 0.5419921,0 0.8642578,0.336914 0.8642578,0.9375 V 0.00157227 H 6.5956465 V -2.9427637 c 0,-0.6884765 0.4980469,-1.2304687 1.1132812,-1.2304687 0.5419922,0 0.8642578,0.3515625 0.8642578,0.9375 V 0.00157227 H 9.3202559 V -3.5287012 c 0,-0.8349609 -0.4833985,-1.3037109 -1.3623047,-1.3037109 -0.6298828,0 -0.9960938,0.1904297 -1.4355469,0.7177734 -0.2783203,-0.4980468 -0.6591797,-0.7177734 -1.2744141,-0.7177734 -0.6152343,0 -1.0253906,0.234375 -1.4355468,0.8056641 v -0.6738282 z m 11.6271972,4.26269534 c -0.07324,0.0146484 -0.117187,0.0146484 -0.161133,0.0146484 -0.249023,0 -0.395508,-0.13183594 -0.395508,-0.36621094 v -2.7539062 c 0,-0.8349609 -0.615234,-1.2890625 -1.772461,-1.2890625 -0.673828,0 -1.245117,0.2050781 -1.552734,0.5419922 -0.219726,0.2490234 -0.307617,0.5126953 -0.322266,0.9814453 h 0.747071 c 0.05859,-0.5712891 0.410156,-0.8349609 1.098633,-0.8349609 0.673828,0 1.054687,0.2490234 1.054687,0.703125 v 0.1904296 c 0,0.3222657 -0.19043,0.4541016 -0.776367,0.5273438 -1.054688,0.1318359 -1.21582,0.1757812 -1.508789,0.2929687 -0.541992,0.2197266 -0.820313,0.6445313 -0.820313,1.2451172 0,0.8496094 0.585938,1.39160159 1.538086,1.39160159 0.585938,0 1.069336,-0.20507812 1.59668,-0.68847656 0.05859,0.46875 0.27832,0.68847656 0.776367,0.68847656 0.146485,0 0.263672,-0.0146484 0.498047,-0.0732422 z M 13.447453,-1.4779199 c 0,0.2490234 -0.07324,0.4101562 -0.292969,0.61523435 -0.307617,0.27832032 -0.673828,0.41015625 -1.113281,0.41015625 -0.585937,0 -0.922851,-0.27832031 -0.922851,-0.7470703 0,-0.4980469 0.336914,-0.7470703 1.127929,-0.8642578 0.791016,-0.1025391 0.952149,-0.1464844 1.201172,-0.2636719 z m 5.189209,-3.2226563 v 0.6884766 c -0.380859,-0.5566406 -0.834961,-0.8203125 -1.435547,-0.8203125 -1.186523,0 -1.992187,1.0400391 -1.992187,2.5634766 0,0.7763671 0.205078,1.40624995 0.585937,1.84570308 0.351563,0.39550781 0.84961,0.62988281 1.347656,0.62988281 0.585938,0 0.996094,-0.24902344 1.420899,-0.83496094 v 0.234375 c 0,0.64453125 -0.07324,1.02539063 -0.263672,1.2890625 C 18.09467,1.1734473 17.713811,1.3345801 17.259709,1.3345801 16.922795,1.3345801 16.615178,1.232041 16.4101,1.0709082 16.234318,0.93907227 16.161076,0.82188477 16.117131,0.54356445 h -0.761719 c 0.08789,0.87890625 0.776367,1.40625005 1.875,1.40625005 0.703125,0 1.303711,-0.2197266 1.611328,-0.600586 0.351563,-0.42480467 0.483399,-1.01074217 0.483399,-2.12402342 V -4.7005762 Z m -1.347656,0.5566407 c 0.805664,0 1.274414,0.6884765 1.274414,1.8603515 0,1.1132813 -0.483399,1.80175783 -1.274414,1.80175783 -0.805664,0 -1.303711,-0.68847653 -1.303711,-1.83105473 0,-1.1279296 0.498047,-1.8310546 1.303711,-1.8310546 z m 7.243652,2.0507812 c 0,-0.7177734 -0.05859,-1.1572266 -0.190429,-1.4941406 -0.307618,-0.7763672 -1.025391,-1.2451172 -1.904297,-1.2451172 -1.303711,0 -2.153321,1.0107422 -2.153321,2.5488281 0,1.53808595 0.820313,2.49023439 2.138672,2.49023439 1.083985,0 1.816406,-0.61523437 2.006836,-1.62597659 h -0.74707 c -0.205078,0.6152344 -0.629883,0.93750003 -1.230469,0.93750003 -0.46875,0 -0.878906,-0.21972656 -1.12793,-0.61523433 -0.175781,-0.2636719 -0.249023,-0.5273438 -0.249023,-0.9960938 z m -3.442383,-0.6152344 c 0.05859,-0.8642578 0.585938,-1.4355468 1.347657,-1.4355468 0.732422,0 1.289062,0.6152343 1.289062,1.3916015 0,0.014648 0,0.029297 0,0.043945 z m 0,0"
       style="fill:#000000;fill-opacity:1;fill-rule:nonzero;stroke:none"
       aria-label="Image"
       transform="matrix(1.0666667,0,0,1.0666667,89.1248,52.650667)" />
    <path
       id="path5"
       d="m 119.1811,-46.79 h 106.03365 v 22.67743 H 119.1811 Z"
       style="fill:#d1f3ff;fill-opacity:1;fill-rule:nonzero;stroke:#2294bd;stroke-width:0.74721;stroke-linecap:butt;stroke-linejoin:miter;stroke-miterlimit:10;stroke-dasharray:none;stroke-opacity:1"
       transform="matrix(1.0666667,0,0,-1.0666667,172.1904,12.493867)" />
    <path
       id="path6"
       d="M 3.177582,-5.8019395 H 5.3162539 V -6.5343613 H 0.18930078 v 0.7324218 H 2.3426211 v 5.8007813 H 3.177582 Z m 5.8227539,3.7060547 c 0,-0.7177734 -0.058594,-1.1572265 -0.1904297,-1.4941406 -0.3076171,-0.7763672 -1.0253906,-1.2451172 -1.9042968,-1.2451172 -1.303711,0 -2.1533203,1.0107422 -2.1533203,2.5488281 0,1.53808598 0.8203125,2.49023442 2.1386718,2.49023442 1.0839844,0 1.8164063,-0.61523437 2.006836,-1.62597652 H 8.1507266 c -0.2050782,0.61523433 -0.6298829,0.93749996 -1.2304688,0.93749996 -0.46875,0 -0.8789062,-0.21972656 -1.1279297,-0.61523436 C 5.6165469,-1.3634629 5.5433047,-1.6271348 5.5433047,-2.0958848 Z M 5.5579531,-2.7111191 c 0.058594,-0.8642579 0.5859375,-1.4355469 1.3476563,-1.4355469 0.7324218,0 1.2890625,0.6152344 1.2890625,1.3916015 0,0.014648 0,0.029297 0,0.043945 z m 6.1816409,0.2783203 1.567383,-2.2705078 h -0.834961 l -1.12793,1.7138671 -1.12793,-1.7138671 H 9.3665469 l 1.5673831,2.3144531 -1.6699222,2.3876953 h 0.8642582 l 1.186523,-1.8017578 1.171875,1.8017578 h 0.864258 z m 4.134521,-2.2705078 h -0.761719 v -1.2890625 h -0.74707 v 1.2890625 h -0.629883 v 0.6152343 h 0.629883 v 3.54492191 c 0,0.48339844 0.322266,0.74707031 0.908203,0.74707031 0.175782,0 0.351563,-0.0146484 0.600586,-0.0585938 v -0.62988281 c -0.08789,0.0292969 -0.205078,0.0292969 -0.351562,0.0292969 -0.322266,0 -0.410157,-0.0878906 -0.410157,-0.41015625 V -4.0880723 h 0.761719 z m 4.368897,1.9335937 h 2.050781 c 0.512695,0 0.908203,-0.1611328 1.259766,-0.46875 0.395507,-0.3515625 0.571289,-0.7763672 0.571289,-1.3769531 0,-1.2304688 -0.732422,-1.9189453 -2.021485,-1.9189453 h -2.695312 v 6.5332031 h 0.834961 z m 0,-0.7324219 v -2.2998047 h 1.728515 c 0.805664,0 1.274414,0.4248047 1.274414,1.1425782 0,0.7177734 -0.46875,1.1572265 -1.274414,1.1572265 z m 4.940185,-1.2011718 v 4.7021484 h 0.761719 v -2.4316406 c 0,-0.6738282 0.161133,-1.1132813 0.527344,-1.3769532 0.234375,-0.1757812 0.454101,-0.2197265 0.966797,-0.234375 v -0.7617187 c -0.117188,-0.014648 -0.175782,-0.029297 -0.278321,-0.029297 -0.483398,0 -0.849609,0.2929688 -1.289062,0.9814453 v -0.8496093 z m 4.801026,-0.131836 c -1.31836,0 -2.109375,0.9375 -2.109375,2.5195313 0,1.58203122 0.791015,2.51953122 2.124023,2.51953122 1.318359,0 2.124024,-0.9375 2.124024,-2.47558592 0,-1.6259766 -0.776368,-2.5634766 -2.138672,-2.5634766 z m 0.01465,0.6884766 c 0.849609,0 1.347656,0.6884765 1.347656,1.8603515 0,1.0986329 -0.527343,1.80175786 -1.347656,1.80175786 -0.834961,0 -1.347656,-0.68847656 -1.347656,-1.83105466 0,-1.1279297 0.512695,-1.8310547 1.347656,-1.8310547 z m 3.171387,-0.5566406 v 4.7021484 h 0.74707 v -2.9443359 c 0,-0.6884766 0.498047,-1.2304688 1.113281,-1.2304688 0.541993,0 0.864258,0.3369141 0.864258,0.9375 v 3.2373047 h 0.74707 v -2.9443359 c 0,-0.6884766 0.498047,-1.2304688 1.113282,-1.2304688 0.541992,0 0.864258,0.3515625 0.864258,0.9375 v 3.2373047 h 0.74707 v -3.5302734 c 0,-0.834961 -0.483399,-1.303711 -1.362305,-1.303711 -0.629883,0 -0.996094,0.1904297 -1.435547,0.7177735 -0.27832,-0.4980469 -0.659179,-0.7177735 -1.274414,-0.7177735 -0.615234,0 -1.02539,0.234375 -1.435547,0.8056641 v -0.6738281 z m 7.320556,6.6503906 h 0.747071 v -2.44628908 c 0.395508,0.48339844 0.834961,0.703125 1.450195,0.703125 1.21582,0 2.006836,-0.98144531 2.006836,-2.47558592 0,-1.5820313 -0.776367,-2.5634766 -2.021484,-2.5634766 -0.629883,0 -1.142578,0.2929688 -1.494141,0.8496094 v -0.7177734 h -0.688477 z m 2.06543,-6.0791016 c 0.820313,0 1.362305,0.7177735 1.362305,1.8457031 0,1.069336 -0.556641,1.78710942 -1.362305,1.78710942 -0.791015,0 -1.318359,-0.71777342 -1.318359,-1.81640622 0,-1.0986328 0.527344,-1.8164063 1.318359,-1.8164063 z m 4.705811,-0.571289 h -0.761719 v -1.2890625 h -0.74707 v 1.2890625 h -0.629883 v 0.6152343 h 0.629883 v 3.54492191 c 0,0.48339844 0.322265,0.74707031 0.908203,0.74707031 0.175781,0 0.351562,-0.0146484 0.600586,-0.0585938 v -0.62988281 c -0.08789,0.0292969 -0.205078,0.0292969 -0.351563,0.0292969 -0.322265,0 -0.410156,-0.0878906 -0.410156,-0.41015625 V -4.0880723 h 0.761719 z m 0,0"
       style="fill:#000000;fill-opacity:1;fill-rule:nonzero;stroke:none"
       aria-label="TextPrompt"
       transform="matrix(1.0666667,0,0,1.0666667,330.54027,52.708267)" />
    <path
       id="path7"
       d="m -118.4339,-87.22289 h 106.03365 v 22.67743 H -118.4339 Z"
       style="fill:#d1f3ff;fill-opacity:1;fill-rule:nonzero;stroke:#2294bd;stroke-width:0.74721;stroke-linecap:butt;stroke-linejoin:miter;stroke-miterlimit:10;stroke-dasharray:none;stroke-opacity:1"
       transform="matrix(1.0666667,0,0,-1.0666667,172.1904,12.493867)" />
    <path
       id="path8"
       d="M 1.7444219,-6.5317422 H 0.8948125 V 0.00146094 H 1.7444219 Z M 3.121375,-4.7006875 V 0.00146094 H 3.8684453 V -2.942875 c 0,-0.6884766 0.4980469,-1.2304687 1.1132813,-1.2304687 0.5419921,0 0.8642578,0.336914 0.8642578,0.9375 V 0.00146094 H 6.5930547 V -2.942875 c 0,-0.6884766 0.4980469,-1.2304687 1.1132812,-1.2304687 0.5419922,0 0.8642578,0.3515625 0.8642578,0.9375 V 0.00146094 H 9.3176641 V -3.5288125 c 0,-0.8349609 -0.4833985,-1.3037109 -1.3623047,-1.3037109 -0.6298828,0 -0.9960938,0.1904297 -1.4355469,0.7177734 -0.2783203,-0.4980469 -0.6591797,-0.7177734 -1.2744141,-0.7177734 -0.6152343,0 -1.0253906,0.234375 -1.4355468,0.805664 v -0.6738281 z m 11.630859,4.26269531 c -0.07324,0.0146484 -0.117187,0.0146484 -0.161132,0.0146484 -0.249024,0 -0.395508,-0.13183594 -0.395508,-0.36621094 V -3.5434609 c 0,-0.834961 -0.615235,-1.2890625 -1.772461,-1.2890625 -0.673828,0 -1.245117,0.2050781 -1.552735,0.5419922 -0.219726,0.2490234 -0.307617,0.5126953 -0.322265,0.9814453 h 0.74707 c 0.05859,-0.5712891 0.410156,-0.834961 1.098633,-0.834961 0.673828,0 1.054687,0.2490235 1.054687,0.703125 v 0.1904297 c 0,0.3222656 -0.190429,0.4541016 -0.776367,0.5273438 -1.054687,0.1318359 -1.21582,0.1757812 -1.508789,0.2929687 -0.541992,0.2197266 -0.820312,0.6445313 -0.820312,1.2451172 0,0.84960938 0.585937,1.39160156 1.538086,1.39160156 0.585937,0 1.069336,-0.20507812 1.596679,-0.68847656 0.05859,0.46875 0.278321,0.68847656 0.776367,0.68847656 0.146485,0 0.263672,-0.0146484 0.498047,-0.0732422 z M 13.448523,-1.4780312 c 0,0.2490234 -0.07324,0.4101562 -0.292968,0.61523433 -0.307618,0.27832031 -0.673828,0.41015625 -1.113282,0.41015625 -0.585937,0 -0.922851,-0.27832032 -0.922851,-0.74707028 0,-0.4980469 0.336914,-0.7470703 1.12793,-0.8642578 0.791015,-0.1025391 0.952148,-0.1464844 1.201171,-0.2636719 z m 5.189209,-3.2226563 v 0.6884766 c -0.380859,-0.5566407 -0.834961,-0.8203125 -1.435546,-0.8203125 -1.186524,0 -1.992188,1.040039 -1.992188,2.5634765 0,0.7763672 0.205078,1.40625003 0.585938,1.84570315 0.351562,0.39550781 0.849609,0.62988281 1.347656,0.62988281 0.585937,0 0.996094,-0.24902343 1.420898,-0.83496093 v 0.234375 c 0,0.64453125 -0.07324,1.02539062 -0.263672,1.2890625 -0.205078,0.27832027 -0.585937,0.43945317 -1.040039,0.43945317 -0.336914,0 -0.644531,-0.1025391 -0.849609,-0.2636719 C 16.235389,0.93896094 16.162146,0.82177344 16.118201,0.54345313 h -0.761719 c 0.08789,0.87890627 0.776368,1.40624997 1.875,1.40624997 0.703125,0 1.303711,-0.2197265 1.611329,-0.6005859 0.351562,-0.4248047 0.483398,-1.0107422 0.483398,-2.12402345 V -4.7006875 Z m -1.347656,0.5566406 c 0.805664,0 1.274414,0.6884766 1.274414,1.8603516 0,1.1132812 -0.483398,1.8017578 -1.274414,1.8017578 -0.805664,0 -1.303711,-0.6884766 -1.303711,-1.8310547 0,-1.1279297 0.498047,-1.8310547 1.303711,-1.8310547 z m 7.23999,2.0507813 c 0,-0.7177735 -0.05859,-1.1572266 -0.190429,-1.4941406 -0.307617,-0.7763672 -1.025391,-1.2451172 -1.904297,-1.2451172 -1.303711,0 -2.15332,1.0107422 -2.15332,2.5488281 0,1.53808593 0.820312,2.49023436 2.138671,2.49023436 1.083985,0 1.816407,-0.61523437 2.006836,-1.62597656 h -0.74707 c -0.205078,0.61523438 -0.629883,0.9375 -1.230469,0.9375 -0.46875,0 -0.878906,-0.21972656 -1.127929,-0.6152344 -0.175782,-0.2636718 -0.249024,-0.5273437 -0.249024,-0.9960937 z M 21.087684,-2.7085 c 0.05859,-0.8642578 0.585937,-1.4355469 1.347656,-1.4355469 0.732422,0 1.289062,0.6152344 1.289062,1.3916016 0,0.014648 0,0.029297 0,0.043945 z m 7.954101,-0.2636719 h 3.55957 v -0.7324218 h -3.55957 v -2.0947266 h 3.691406 v -0.7324219 h -4.526367 v 6.53320314 h 4.6875 v -0.73242188 h -3.852539 z m 4.969483,-1.7285156 v 4.70214844 h 0.74707 V -2.5913125 c 0,-0.9521484 0.512695,-1.5820312 1.274414,-1.5820312 0.600586,0 0.966797,0.3515625 0.966797,0.9228515 v 3.25195314 h 0.74707 V -3.5434609 c 0,-0.7910157 -0.585937,-1.2890625 -1.49414,-1.2890625 -0.688477,0 -1.142579,0.2636718 -1.552735,0.9228515 v -0.7910156 z m 8.572998,1.5820313 c -0.0293,-0.4541016 -0.131836,-0.7470704 -0.307618,-1.0107422 -0.322265,-0.4394532 -0.893554,-0.703125 -1.538086,-0.703125 -1.274414,0 -2.094726,1.0107422 -2.094726,2.5634765 0,1.52343753 0.805664,2.47558596 2.080078,2.47558596 1.113281,0 1.831055,-0.67382812 1.918945,-1.81640626 h -0.74707 c -0.131836,0.74707033 -0.512695,1.1279297 -1.157227,1.1279297 -0.820312,0 -1.318359,-0.6738281 -1.318359,-1.7871094 0,-1.171875 0.483399,-1.875 1.303711,-1.875 0.629883,0 1.025391,0.366211 1.113281,1.0253907 z m 2.698974,-1.7138672 c -1.318359,0 -2.109375,0.9375 -2.109375,2.5195312 0,1.58203126 0.791016,2.51953126 2.124024,2.51953126 1.318359,0 2.124023,-0.9375 2.124023,-2.47558596 0,-1.6259765 -0.776367,-2.5634765 -2.138672,-2.5634765 z m 0.01465,0.6884765 c 0.849609,0 1.347656,0.6884766 1.347656,1.8603516 0,1.0986328 -0.527344,1.8017578 -1.347656,1.8017578 -0.834961,0 -1.347657,-0.6884766 -1.347657,-1.8310547 0,-1.1279297 0.512696,-1.8310547 1.347657,-1.8310547 z m 6.976318,-2.3876953 h -0.74707 v 2.4316406 C 51.21952,-4.5835 50.706824,-4.8325234 50.09159,-4.8325234 c -1.230469,0 -2.021485,0.9814453 -2.021485,2.4755859 0,1.58203125 0.776368,2.56347656 2.036133,2.56347656 0.65918,0 1.098633,-0.234375 1.508789,-0.8203125 v 0.61523438 h 0.65918 z m -2.06543,2.4023438 c 0.805664,0 1.31836,0.7177734 1.31836,1.8310547 0,1.0839843 -0.512696,1.80175776 -1.303711,1.80175776 -0.834961,0 -1.376953,-0.71777346 -1.376953,-1.81640626 0,-1.0986328 0.541992,-1.8164062 1.362304,-1.8164062 z m 7.210694,2.0361328 c 0,-0.7177735 -0.05859,-1.1572266 -0.19043,-1.4941406 -0.307617,-0.7763672 -1.025391,-1.2451172 -1.904297,-1.2451172 -1.303711,0 -2.15332,1.0107422 -2.15332,2.5488281 0,1.53808593 0.820312,2.49023436 2.138672,2.49023436 1.083984,0 1.816406,-0.61523437 2.006836,-1.62597656 h -0.747071 c -0.205078,0.61523438 -0.629882,0.9375 -1.230468,0.9375 -0.46875,0 -0.878907,-0.21972656 -1.12793,-0.6152344 C 54.035683,-1.3608437 53.96244,-1.6245156 53.96244,-2.0932656 Z M 53.977088,-2.7085 c 0.05859,-0.8642578 0.585937,-1.4355469 1.347656,-1.4355469 0.732422,0 1.289063,0.6152344 1.289063,1.3916016 0,0.014648 0,0.029297 0,0.043945 z m 4.445801,-1.9921875 v 4.70214844 h 0.761718 V -2.4301797 c 0,-0.6738281 0.161133,-1.1132812 0.527344,-1.3769531 0.234375,-0.1757813 0.454102,-0.2197266 0.966797,-0.234375 v -0.7617188 c -0.117187,-0.014648 -0.175781,-0.029297 -0.27832,-0.029297 -0.483399,0 -0.84961,0.2929687 -1.289063,0.9814453 v -0.8496094 z m 6.972656,-1.8310547 c -0.893555,1.171875 -1.450195,2.7978516 -1.450195,4.2041016 0,1.42089841 0.55664,3.06152341 1.450195,4.2333984 h 0.498047 c -0.791016,-1.28906249 -1.230469,-2.79785155 -1.230469,-4.2333984 0,-1.4208985 0.439453,-2.9296875 1.230469,-4.2041016 z m 1.66626,6.53320314 h 2.519531 c 1.655273,0 2.666016,-1.23046874 2.666016,-3.26660154 0,-2.0361328 -0.996094,-3.2666016 -2.666016,-3.2666016 h -2.519531 z m 0.834961,-0.73242188 V -5.7993203 H 69.4495 c 1.289062,0 1.962891,0.8642578 1.962891,2.5341797 0,1.6552734 -0.673829,2.53417966 -1.962891,2.53417966 z m 9.638671,0.29296875 c -0.07324,0.0146484 -0.117187,0.0146484 -0.161132,0.0146484 -0.249024,0 -0.395508,-0.13183594 -0.395508,-0.36621094 V -3.5434609 c 0,-0.834961 -0.615235,-1.2890625 -1.772461,-1.2890625 -0.673828,0 -1.245117,0.2050781 -1.552734,0.5419922 -0.219727,0.2490234 -0.307618,0.5126953 -0.322266,0.9814453 h 0.74707 c 0.05859,-0.5712891 0.410156,-0.834961 1.098633,-0.834961 0.673828,0 1.054688,0.2490235 1.054688,0.703125 v 0.1904297 c 0,0.3222656 -0.19043,0.4541016 -0.776368,0.5273438 -1.054687,0.1318359 -1.21582,0.1757812 -1.508789,0.2929687 -0.541992,0.2197266 -0.820312,0.6445313 -0.820312,1.2451172 0,0.84960938 0.585937,1.39160156 1.538086,1.39160156 0.585937,0 1.069336,-0.20507812 1.596679,-0.68847656 0.05859,0.46875 0.278321,0.68847656 0.776368,0.68847656 0.146484,0 0.263671,-0.0146484 0.498046,-0.0732422 z m -1.30371,-1.04003901 c 0,0.2490234 -0.07324,0.4101562 -0.292969,0.61523433 -0.307617,0.27832031 -0.673828,0.41015625 -1.113281,0.41015625 -0.585938,0 -0.922852,-0.27832032 -0.922852,-0.74707028 0,-0.4980469 0.336914,-0.7470703 1.12793,-0.8642578 0.791015,-0.1025391 0.952148,-0.1464844 1.201172,-0.2636719 z m 5.013427,1.47949214 2.270508,-6.53320314 h -0.893555 l -1.801757,5.522461 -1.918946,-5.522461 H 77.993201 L 80.3516,0.00146094 Z m 4.207764,-6.53320314 h -0.849609 v 6.53320314 h 0.849609 z m 3.929443,0.7324219 h 2.138672 V -6.5317422 H 86.39408 v 0.7324219 h 2.15332 v 5.80078124 h 0.834961 z m 3.134766,7.7050781 c 0.893555,-1.17187499 1.464844,-2.81249999 1.464844,-4.21875 0,-1.4208984 -0.571289,-3.046875 -1.464844,-4.21875 H 92.01908 c 0.791016,1.2744141 1.230469,2.7832031 1.230469,4.21875 0,1.42089845 -0.439453,2.94433595 -1.230469,4.21875 z m 0,0"
       style="fill:#000000;fill-opacity:1;fill-rule:nonzero;stroke:none"
       aria-label="ImageEncoder(DaVIT)"
       transform="matrix(1.0666667,0,0,1.0666667,51.920533,95.889067)" />
    <path
       id="path9"
       d="m 119.1811,-87.22289 h 106.03365 v 22.67743 H 119.1811 Z"
       style="fill:#d1f3ff;fill-opacity:1;fill-rule:nonzero;stroke:#2294bd;stroke-width:0.74721;stroke-linecap:butt;stroke-linejoin:miter;stroke-miterlimit:10;stroke-dasharray:none;stroke-opacity:1"
       transform="matrix(1.0666667,0,0,-1.0666667,172.1904,12.493867)" />
    <path
       id="path10"
       d="M 3.1783691,-5.7990352 H 5.317041 V -6.531457 H 0.19008789 v 0.7324218 H 2.3434082 v 5.80078129 h 0.8349609 z m 5.8227539,3.7060547 c 0,-0.7177734 -0.058594,-1.1572265 -0.1904296,-1.4941406 -0.3076172,-0.7763672 -1.0253907,-1.2451172 -1.9042969,-1.2451172 -1.303711,0 -2.1533203,1.0107422 -2.1533203,2.5488281 0,1.53808598 0.8203125,2.49023442 2.1386718,2.49023442 1.0839844,0 1.8164063,-0.61523438 2.006836,-1.62597652 H 8.1515137 c -0.2050782,0.61523433 -0.6298828,0.93749996 -1.2304688,0.93749996 -0.46875,0 -0.8789062,-0.21972657 -1.1279297,-0.61523436 C 5.617334,-1.3605586 5.5440918,-1.6242305 5.5440918,-2.0929805 Z M 5.5587402,-2.7082148 c 0.058594,-0.8642579 0.5859375,-1.4355469 1.3476563,-1.4355469 0.7324219,0 1.2890625,0.6152344 1.2890625,1.3916015 0,0.014648 0,0.029297 0,0.043945 z m 6.1816408,0.2783203 1.567383,-2.2705078 h -0.834961 l -1.12793,1.7138671 -1.12793,-1.7138671 H 9.367334 l 1.567383,2.3144531 -1.6699221,2.38769529 h 0.8642581 l 1.186523,-1.80175779 1.171875,1.80175779 h 0.864258 z m 4.130859,-2.2705078 h -0.761719 v -1.2890625 h -0.74707 v 1.2890625 h -0.629883 v 0.6152343 h 0.629883 v 3.54492191 c 0,0.48339843 0.322266,0.74707031 0.908203,0.74707031 0.175782,0 0.351563,-0.0146484 0.600586,-0.0585938 v -0.62988281 c -0.08789,0.0292969 -0.205078,0.0292969 -0.351562,0.0292969 -0.322266,0 -0.410157,-0.0878906 -0.410157,-0.41015625 V -4.085168 h 0.761719 z m 5.895996,-1.0986329 h 2.138672 V -6.531457 h -5.126953 v 0.7324218 h 2.15332 v 5.80078129 h 0.834961 z m 3.654785,0.9667969 c -1.318359,0 -2.109375,0.9375 -2.109375,2.5195313 0,1.58203122 0.791016,2.51953122 2.124024,2.51953122 1.318359,0 2.124023,-0.9375 2.124023,-2.47558592 0,-1.6259766 -0.776367,-2.5634766 -2.138672,-2.5634766 z m 0.01465,0.6884766 c 0.849609,0 1.347656,0.6884765 1.347656,1.8603515 0,1.0986329 -0.527344,1.80175786 -1.347656,1.80175786 -0.834961,0 -1.347656,-0.68847656 -1.347656,-1.83105466 0,-1.1279297 0.512695,-1.8310547 1.347656,-1.8310547 z m 3.797607,-2.3876953 h -0.74707 v 6.53320309 h 0.74707 V -1.8293086 L 29.9667,-2.547082 31.548731,0.00174609 h 0.922852 l -1.918945,-3.07617189 1.640625,-1.6259765 h -0.966797 l -1.992188,1.9921875 z m 7.642823,4.4384765 c 0,-0.7177734 -0.05859,-1.1572265 -0.19043,-1.4941406 -0.307617,-0.7763672 -1.025391,-1.2451172 -1.904297,-1.2451172 -1.303711,0 -2.15332,1.0107422 -2.15332,2.5488281 0,1.53808598 0.820312,2.49023442 2.138672,2.49023442 1.083984,0 1.816406,-0.61523438 2.006836,-1.62597652 H 36.02749 c -0.205078,0.61523433 -0.629883,0.93749996 -1.230469,0.93749996 -0.46875,0 -0.878906,-0.21972657 -1.127929,-0.61523436 -0.175781,-0.2636719 -0.249024,-0.5273438 -0.249024,-0.9960938 z m -3.442383,-0.6152343 c 0.05859,-0.8642579 0.585937,-1.4355469 1.347656,-1.4355469 0.732422,0 1.289063,0.6152344 1.289063,1.3916015 0,0.014648 0,0.029297 0,0.043945 z m 4.460449,-1.9921875 v 4.70214839 h 0.74707 V -2.5910273 c 0,-0.9521485 0.512696,-1.5820313 1.274414,-1.5820313 0.600586,0 0.966797,0.3515625 0.966797,0.9228516 v 3.25195309 h 0.747071 V -3.5431758 c 0,-0.7910156 -0.585938,-1.2890625 -1.494141,-1.2890625 -0.688477,0 -1.142578,0.2636719 -1.552734,0.9228516 v -0.7910156 z m 5.701904,0 H 42.85 v 4.70214839 h 0.74707 z m 0,-1.8310547 h -0.761718 v 0.9375 h 0.761718 z m 4.614258,1.8310547 h -3.500976 v 0.6591796 h 2.62207 l -2.8125,3.36914067 v 0.67382812 h 3.823242 v -0.65917968 h -2.915039 l 2.783203,-3.36914061 z m 4.976807,2.6074218 c 0,-0.7177734 -0.05859,-1.1572265 -0.19043,-1.4941406 -0.307617,-0.7763672 -1.025391,-1.2451172 -1.904297,-1.2451172 -1.303711,0 -2.15332,1.0107422 -2.15332,2.5488281 0,1.53808598 0.820312,2.49023442 2.138672,2.49023442 1.083984,0 1.816406,-0.61523438 2.006836,-1.62597652 h -0.747071 c -0.205078,0.61523433 -0.629882,0.93749996 -1.230468,0.93749996 -0.46875,0 -0.878907,-0.21972657 -1.12793,-0.61523436 -0.175781,-0.2636719 -0.249023,-0.5273438 -0.249023,-0.9960938 z m -3.442383,-0.6152343 c 0.05859,-0.8642579 0.585937,-1.4355469 1.347656,-1.4355469 0.732422,0 1.289063,0.6152344 1.289063,1.3916015 0,0.014648 0,0.029297 0,0.043945 z m 0,0"
       style="fill:#000000;fill-opacity:1;fill-rule:nonzero;stroke:none"
       aria-label="TextTokenize"
       transform="matrix(1.0666667,0,0,1.0666667,327.29333,96.7872)" />
    <path
       id="path11"
       d="m 0.3736,-119.14212 h 106.03365 v 25.8761 H 0.3736 Z"
       style="fill:#d1f3ff;fill-opacity:1;fill-rule:nonzero;stroke:#2294bd;stroke-width:0.74721;stroke-linecap:butt;stroke-linejoin:miter;stroke-miterlimit:10;stroke-dasharray:none;stroke-opacity:1"
       transform="matrix(1.0666667,0,0,-1.0666667,172.1904,12.493867)" />
    <path
       id="path12"
       d="M 4.1908301,2.7929688e-4 6.0365332,-5.4782363 V 2.7929688e-4 H 6.8275488 V -6.5329238 H 5.6703223 L 3.7660254,-0.84933008 1.8324316,-6.5329238 H 0.67520508 V 2.7929688e-4 H 1.4662207 V -5.4782363 L 3.3119238,2.7929688e-4 Z m 7.5988769,0 V -4.7018691 h -0.74707 v 2.6660156 c 0,0.9667969 -0.498047,1.58203123 -1.2744143,1.58203123 -0.600586,0 -0.9667969,-0.3515625 -0.9667969,-0.92285153 V -4.7018691 H 8.0543555 v 3.6328125 c 0,0.77636715 0.5859375,1.27441402 1.4941406,1.27441402 0.6884769,0 1.1279299,-0.234375 1.5673829,-0.86425781 V 2.7929688e-4 Z M 13.814854,-6.5329238 H 13.067783 V 2.7929688e-4 h 0.747071 z m 2.90039,1.8310547 h -0.761719 v -1.2890625 h -0.74707 v 1.2890625 h -0.629883 v 0.6152343 h 0.629883 v 3.54492191 c 0,0.48339844 0.322266,0.74707031 0.908203,0.74707031 0.175781,0 0.351563,-0.0146484 0.600586,-0.0585938 v -0.62988281 c -0.08789,0.0292969 -0.205078,0.0292969 -0.351562,0.0292969 -0.322266,0 -0.410157,-0.0878906 -0.410157,-0.41015625 V -4.0866348 h 0.761719 z m 1.571045,0 h -0.74707 V 2.7929688e-4 h 0.74707 z m 0,-1.8310547 H 17.52457 v 0.9375 h 0.761719 z m 1.270752,1.8310547 V 2.7929688e-4 h 0.74707 V -2.9440566 c 0,-0.6884766 0.498047,-1.2304688 1.113282,-1.2304688 0.541992,0 0.864257,0.3369141 0.864257,0.9375 V 2.7929688e-4 h 0.747071 V -2.9440566 c 0,-0.6884766 0.498047,-1.2304688 1.113281,-1.2304688 0.541992,0 0.864258,0.3515625 0.864258,0.9375 V 2.7929688e-4 h 0.74707 V -3.5299941 c 0,-0.834961 -0.483398,-1.303711 -1.362305,-1.303711 -0.629882,0 -0.996093,0.1904297 -1.435546,0.7177735 -0.278321,-0.4980469 -0.65918,-0.7177735 -1.274415,-0.7177735 -0.615234,0 -1.02539,0.234375 -1.435546,0.8056641 v -0.6738281 z m 9.272461,-0.131836 c -1.318359,0 -2.109375,0.9375 -2.109375,2.5195313 0,1.58203122 0.791016,2.51953122 2.124023,2.51953122 1.31836,0 2.124024,-0.9375 2.124024,-2.47558592 0,-1.6259766 -0.776367,-2.5634766 -2.138672,-2.5634766 z m 0.01465,0.6884766 c 0.84961,0 1.347657,0.6884765 1.347657,1.8603515 0,1.0986329 -0.527344,1.80175786 -1.347657,1.80175786 -0.834961,0 -1.347656,-0.68847656 -1.347656,-1.83105466 0,-1.1279297 0.512695,-1.8310547 1.347656,-1.8310547 z m 6.976319,-2.3876953 H 35.0734 v 2.4316406 c -0.307617,-0.4833984 -0.820312,-0.7324219 -1.435546,-0.7324219 -1.230469,0 -2.021485,0.9814453 -2.021485,2.475586 0,1.58203121 0.776367,2.56347652 2.036133,2.56347652 0.65918,0 1.098633,-0.234375 1.508789,-0.8203125 V 2.7929688e-4 h 0.65918 z m -2.06543,2.4023437 c 0.805664,0 1.318359,0.7177735 1.318359,1.8310547 0,1.0839844 -0.512695,1.80175782 -1.303711,1.80175782 -0.83496,0 -1.376953,-0.71777342 -1.376953,-1.81640622 0,-1.0986328 0.541993,-1.8164063 1.362305,-1.8164063 z m 7.401123,3.69140627 c -0.07324,0.0146484 -0.117187,0.0146484 -0.161133,0.0146484 -0.249023,0 -0.395508,-0.13183594 -0.395508,-0.36621094 V -3.5446426 c 0,-0.8349609 -0.615234,-1.2890625 -1.77246,-1.2890625 -0.673829,0 -1.245118,0.2050781 -1.552735,0.5419922 -0.219726,0.2490234 -0.307617,0.5126953 -0.322265,0.9814453 h 0.74707 c 0.05859,-0.571289 0.410156,-0.8349609 1.098633,-0.8349609 0.673828,0 1.054687,0.2490234 1.054687,0.703125 v 0.1904297 c 0,0.3222656 -0.19043,0.4541015 -0.776367,0.5273437 -1.054688,0.131836 -1.21582,0.1757813 -1.508789,0.2929688 -0.541992,0.2197265 -0.820313,0.6445312 -0.820313,1.2451172 0,0.84960933 0.585938,1.39160152 1.538086,1.39160152 0.585938,0 1.069336,-0.20507812312 1.59668,-0.68847656 0.05859,0.46875 0.27832,0.68847656 0.776367,0.68847656 0.146485,0 0.263672,-0.0146484 0.498047,-0.0732422 z M 39.852451,-1.4792129 c 0,0.2490234 -0.07324,0.4101563 -0.292969,0.61523438 -0.307617,0.27832032 -0.673828,0.41015625 -1.113281,0.41015625 -0.585937,0 -0.922851,-0.27832031 -0.922851,-0.74707033 0,-0.4980469 0.336914,-0.7470703 1.127929,-0.8642578 0.791016,-0.1025391 0.952149,-0.1464844 1.201172,-0.2636719 z m 2.86377,-5.0537109 H 41.96915 V 2.7929688e-4 h 0.747071 z m 1.973877,1.8310547 H 43.943027 V 2.7929688e-4 h 0.747071 z m 0,-1.8310547 h -0.761719 v 0.9375 h 0.761719 z m 2.915039,1.8310547 h -0.761719 v -1.2890625 h -0.74707 v 1.2890625 h -0.629883 v 0.6152343 h 0.629883 v 3.54492191 c 0,0.48339844 0.322265,0.74707031 0.908203,0.74707031 0.175781,0 0.351562,-0.0146484 0.600586,-0.0585938 v -0.62988281 c -0.08789,0.0292969 -0.205078,0.0292969 -0.351563,0.0292969 -0.322265,0 -0.410156,-0.0878906 -0.410156,-0.41015625 V -4.0866348 h 0.761719 z m 3.691406,0 -1.289063,3.6621093 -1.201171,-3.6621093 h -0.805664 l 1.596679,4.71679683 -0.292969,0.74707032 C 49.187168,1.0989121 49.011387,1.2160996 48.70377,1.2160996 c -0.10254,0 -0.234375,-0.014648 -0.395508,-0.043945 V 1.831334 c 0.146484,0.087891 0.307617,0.1171875 0.498047,0.1171875 0.249023,0 0.512695,-0.073242 0.703125,-0.2197266 0.234375,-0.1757812 0.366211,-0.3662109 0.512695,-0.74707029 l 2.094726,-5.68359371 z m 5.137939,1.7285156 h 3.559571 V -3.7057754 H 56.434482 V -5.800502 h 3.691407 V -6.5329238 H 55.599521 V 2.7929688e-4 h 4.6875 V -0.73214258 h -3.852539 z m 4.969483,-1.7285156 V 2.7929688e-4 h 0.74707 V -2.5924941 c 0,-0.9521485 0.512695,-1.5820313 1.274414,-1.5820313 0.600586,0 0.966797,0.3515625 0.966797,0.9228516 V 2.7929688e-4 h 0.74707 V -3.5446426 c 0,-0.7910156 -0.585937,-1.2890625 -1.49414,-1.2890625 -0.688477,0 -1.142578,0.2636719 -1.552735,0.9228516 v -0.7910156 z m 8.572998,1.5820312 c -0.0293,-0.4541016 -0.131836,-0.7470703 -0.307617,-1.0107422 -0.322266,-0.4394531 -0.893555,-0.703125 -1.538086,-0.703125 -1.274414,0 -2.094727,1.0107422 -2.094727,2.5634766 0,1.52343748 0.805664,2.47558592 2.080078,2.47558592 1.113282,0 1.831055,-0.67382812 1.918946,-1.81640622 h -0.747071 c -0.131836,0.74707028 -0.512695,1.12792966 -1.157226,1.12792966 -0.820313,0 -1.31836,-0.67382816 -1.31836,-1.78710936 0,-1.171875 0.483399,-1.875 1.303711,-1.875 0.629883,0 1.025391,0.3662109 1.113282,1.0253906 z m 2.698974,-1.7138672 c -1.318359,0 -2.109375,0.9375 -2.109375,2.5195313 0,1.58203122 0.791016,2.51953122 2.124024,2.51953122 1.318359,0 2.124023,-0.9375 2.124023,-2.47558592 0,-1.6259766 -0.776367,-2.5634766 -2.138672,-2.5634766 z m 0.01465,0.6884766 c 0.849609,0 1.347656,0.6884765 1.347656,1.8603515 0,1.0986329 -0.527344,1.80175786 -1.347656,1.80175786 -0.834961,0 -1.347656,-0.68847656 -1.347656,-1.83105466 0,-1.1279297 0.512695,-1.8310547 1.347656,-1.8310547 z m 6.976318,-2.3876953 h -0.74707 v 2.4316406 c -0.307617,-0.4833984 -0.820313,-0.7324219 -1.435547,-0.7324219 -1.230469,0 -2.021484,0.9814453 -2.021484,2.475586 0,1.58203121 0.776367,2.56347652 2.036133,2.56347652 0.659179,0 1.098632,-0.234375 1.508789,-0.8203125 V 2.7929688e-4 h 0.659179 z m -2.065429,2.4023437 c 0.805664,0 1.318359,0.7177735 1.318359,1.8310547 0,1.0839844 -0.512695,1.80175782 -1.303711,1.80175782 -0.834961,0 -1.376953,-0.71777342 -1.376953,-1.81640622 0,-1.0986328 0.541992,-1.8164063 1.362305,-1.8164063 z m 7.210693,2.0361328 c 0,-0.7177734 -0.05859,-1.1572265 -0.19043,-1.4941406 -0.307617,-0.7763672 -1.02539,-1.2451172 -1.904297,-1.2451172 -1.303711,0 -2.15332,1.0107422 -2.15332,2.5488281 0,1.53808598 0.820313,2.49023442 2.138672,2.49023442 1.083984,0 1.816406,-0.61523437 2.006836,-1.62597652 h -0.74707 c -0.205079,0.61523433 -0.629883,0.93749996 -1.230469,0.93749996 -0.46875,0 -0.878906,-0.21972656 -1.12793,-0.61523436 -0.175781,-0.2636719 -0.249023,-0.5273438 -0.249023,-0.9960938 z m -3.442383,-0.6152343 c 0.05859,-0.8642579 0.585938,-1.4355469 1.347656,-1.4355469 0.732422,0 1.289063,0.6152344 1.289063,1.3916015 0,0.014648 0,0.029297 0,0.043945 z m 4.445801,-1.9921875 V 2.7929688e-4 h 0.761719 V -2.4313613 c 0,-0.6738282 0.161132,-1.1132813 0.527343,-1.3769532 0.234375,-0.1757812 0.454102,-0.2197265 0.966797,-0.234375 v -0.7617187 c -0.117187,-0.014648 -0.175781,-0.029297 -0.27832,-0.029297 -0.483398,0 -0.849609,0.2929688 -1.289063,0.9814453 v -0.8496093 z m 0,0"
       style="fill:#000000;fill-opacity:1;fill-rule:nonzero;stroke:none"
       aria-label="MultimodalityEncoder"
       transform="matrix(1.0666667,0,0,1.0666667,182.104,122.33173)" />
    <path
       id="path13"
       d="m 2.1092187,-6.5348926 c -0.8935546,1.171875 -1.45019526,2.7978516 -1.45019526,4.2041016 0,1.42089842 0.55664066,3.06152342 1.45019526,4.2333984 H 2.6072656 C 1.81625,0.61354492 1.3767969,-0.89524414 1.3767969,-2.330791 c 0,-1.4208985 0.4394531,-2.9296875 1.2304687,-4.2041016 z m 4.0539551,0.7324219 H 8.3018457 V -6.5348926 H 3.1748926 v 0.7324219 h 2.1533203 v 5.80078125 h 0.8349609 z m 1.842041,1.0986328 v 4.70214845 H 8.7669336 V -2.4333301 c 0,-0.6738281 0.1611328,-1.1132812 0.5273437,-1.3769531 0.234375,-0.1757813 0.4541016,-0.2197266 0.9667967,-0.234375 V -4.806377 c -0.117187,-0.014648 -0.175781,-0.029297 -0.2783201,-0.029297 -0.4833984,0 -0.8496094,0.2929687 -1.2890625,0.9814453 v -0.8496094 z m 7.0678712,4.26269532 c -0.07324,0.0146484 -0.117188,0.0146484 -0.161133,0.0146484 -0.249023,0 -0.395508,-0.13183594 -0.395508,-0.36621094 V -3.5466113 c 0,-0.834961 -0.615234,-1.2890625 -1.772461,-1.2890625 -0.673828,0 -1.245117,0.2050781 -1.552734,0.5419922 -0.219727,0.2490234 -0.307617,0.5126953 -0.322266,0.9814453 h 0.747071 c 0.05859,-0.5712891 0.410156,-0.834961 1.098632,-0.834961 0.673829,0 1.054688,0.2490235 1.054688,0.703125 v 0.1904297 c 0,0.3222656 -0.19043,0.4541016 -0.776367,0.5273438 -1.054688,0.1318359 -1.215821,0.1757812 -1.508789,0.2929687 -0.541992,0.2197266 -0.820313,0.6445313 -0.820313,1.2451172 0,0.84960938 0.585938,1.39160157 1.538086,1.39160157 0.585938,0 1.069336,-0.20507812 1.59668,-0.68847656 0.05859,0.46875 0.27832,0.68847656 0.776367,0.68847656 0.146484,0 0.263672,-0.0146484 0.498047,-0.0732422 z M 13.769375,-1.4811816 c 0,0.2490234 -0.07324,0.4101562 -0.292969,0.61523433 -0.307617,0.27832032 -0.673828,0.41015625 -1.113281,0.41015625 -0.585938,0 -0.922852,-0.27832031 -0.922852,-0.74707028 0,-0.4980469 0.336914,-0.7470703 1.12793,-0.8642578 0.791016,-0.1025391 0.952149,-0.1464844 1.201172,-0.2636719 z m 2.131348,-3.2226563 v 4.70214845 h 0.74707 V -2.5944629 c 0,-0.9521484 0.512695,-1.5820312 1.274414,-1.5820312 0.600586,0 0.966797,0.3515625 0.966797,0.9228515 v 3.25195315 h 0.74707 V -3.5466113 c 0,-0.7910157 -0.585937,-1.2890625 -1.49414,-1.2890625 -0.688477,0 -1.142579,0.2636718 -1.552735,0.9228515 v -0.7910156 z m 8.280029,1.3183594 c -0.01465,-0.9228516 -0.615234,-1.4501953 -1.699219,-1.4501953 -1.098633,0 -1.801758,0.571289 -1.801758,1.4355468 0,0.7324219 0.366211,1.0839844 1.479493,1.3476563 l 0.703125,0.1757812 c 0.527343,0.131836 0.732421,0.3222657 0.732421,0.6591797 0,0.43945316 -0.439453,0.73242191 -1.098632,0.73242191 -0.410157,0 -0.747071,-0.1171875 -0.9375,-0.30761719 C 21.441494,-0.93918945 21.397549,-1.0710254 21.353604,-1.393291 h -0.791016 c 0.0293,1.08398436 0.644531,1.59667967 1.875,1.59667967 1.171875,0 1.933594,-0.5859375 1.933594,-1.49414067 0,-0.6884765 -0.395508,-1.0839843 -1.333008,-1.3037109 L 22.3204,-2.7555957 c -0.600586,-0.1464844 -0.864257,-0.3515625 -0.864257,-0.6738281 0,-0.4394532 0.380859,-0.7177735 0.996093,-0.7177735 0.600586,0 0.922852,0.2636719 0.9375,0.7617188 z m 2.871094,-1.3183594 h -0.776367 v -0.7324219 c 0,-0.3076172 0.175781,-0.46875 0.512695,-0.46875 0.05859,0 0.08789,0 0.263672,0 v -0.6152343 c -0.175782,-0.029297 -0.263672,-0.043945 -0.424805,-0.043945 -0.688477,0 -1.098633,0.3955079 -1.098633,1.069336 v 0.7910156 h -0.629883 v 0.6152344 h 0.629883 v 4.08691405 h 0.747071 V -4.0886035 h 0.776367 z m 2.340088,-0.1318359 c -1.31836,0 -2.109375,0.9375 -2.109375,2.5195312 0,1.58203127 0.791015,2.51953127 2.124023,2.51953127 1.318359,0 2.124023,-0.9375 2.124023,-2.47558597 0,-1.6259765 -0.776367,-2.5634765 -2.138671,-2.5634765 z m 0.01465,0.6884765 c 0.849609,0 1.347656,0.6884766 1.347656,1.8603516 0,1.0986328 -0.527343,1.80175781 -1.347656,1.80175781 -0.834961,0 -1.347656,-0.68847661 -1.347656,-1.83105471 0,-1.1279297 0.512695,-1.8310547 1.347656,-1.8310547 z m 3.156738,-0.5566406 v 4.70214845 h 0.761719 V -2.4333301 c 0,-0.6738281 0.161133,-1.1132812 0.527344,-1.3769531 0.234375,-0.1757813 0.454101,-0.2197266 0.966797,-0.234375 V -4.806377 c -0.117188,-0.014648 -0.175782,-0.029297 -0.278321,-0.029297 -0.483398,0 -0.849609,0.2929687 -1.289062,0.9814453 v -0.8496094 z m 3.215332,0 v 4.70214845 h 0.747071 V -2.9460254 c 0,-0.6884766 0.498047,-1.2304687 1.113281,-1.2304687 0.541992,0 0.864258,0.336914 0.864258,0.9375 v 3.23730465 h 0.74707 V -2.9460254 c 0,-0.6884766 0.498047,-1.2304687 1.113281,-1.2304687 0.541992,0 0.864258,0.3515625 0.864258,0.9375 v 3.23730465 h 0.74707 V -3.5319629 c 0,-0.8349609 -0.483398,-1.3037109 -1.362304,-1.3037109 -0.629883,0 -0.996094,0.1904297 -1.435547,0.7177734 -0.27832,-0.4980469 -0.65918,-0.7177734 -1.274414,-0.7177734 -0.615235,0 -1.025391,0.234375 -1.435547,0.805664 V -4.7038379 Z M 47.21542,-2.096416 c 0,-0.7177735 -0.05859,-1.1572266 -0.19043,-1.4941406 -0.307617,-0.7763672 -1.02539,-1.2451172 -1.904297,-1.2451172 -1.303711,0 -2.15332,1.0107422 -2.15332,2.5488281 0,1.53808593 0.820313,2.49023437 2.138672,2.49023437 1.083984,0 1.816406,-0.61523437 2.006836,-1.62597657 h -0.74707 c -0.205079,0.61523438 -0.629883,0.93750001 -1.230469,0.93750001 -0.46875,0 -0.878906,-0.21972656 -1.12793,-0.61523441 -0.175781,-0.2636718 -0.249023,-0.5273437 -0.249023,-0.9960937 z m -3.442383,-0.6152344 c 0.05859,-0.8642578 0.585938,-1.4355469 1.347656,-1.4355469 0.732422,0 1.289063,0.6152344 1.289063,1.3916016 0,0.014648 0,0.029297 0,0.043945 z m 4.445801,-1.9921875 v 4.70214845 h 0.761719 V -2.4333301 c 0,-0.6738281 0.161132,-1.1132812 0.527343,-1.3769531 0.234375,-0.1757813 0.454102,-0.2197266 0.966797,-0.234375 V -4.806377 c -0.117187,-0.014648 -0.175781,-0.029297 -0.27832,-0.029297 -0.483398,0 -0.849609,0.2929687 -1.289063,0.9814453 v -0.8496094 z m 3.204346,6.6064453 c 0.893554,-1.17187498 1.464843,-2.81249998 1.464843,-4.21875 0,-1.4208984 -0.571289,-3.046875 -1.464843,-4.21875 h -0.498047 c 0.791015,1.2744141 1.230468,2.7832031 1.230468,4.21875 0,1.42089846 -0.439453,2.94433596 -1.230468,4.21875 z m 0,0"
       style="fill:#000000;fill-opacity:1;fill-rule:nonzero;stroke:none"
       aria-label="(Transformer)"
       transform="matrix(1.0666667,0,0,1.0666667,200.56267,134.02133)" />
    <path
       id="path14"
       d="m 0.3736,-162.77368 h 106.03365 v 25.8761 H 0.3736 Z"
       style="fill:#d1f3ff;fill-opacity:1;fill-rule:nonzero;stroke:#2294bd;stroke-width:0.74721;stroke-linecap:butt;stroke-linejoin:miter;stroke-miterlimit:10;stroke-dasharray:none;stroke-opacity:1"
       transform="matrix(1.0666667,0,0,-1.0666667,172.1904,12.493867)" />
    <path
       id="path15"
       d="M 4.1888066,-3.4960937e-4 6.0345098,-5.4788652 V -3.4960937e-4 H 6.8255254 V -6.5335527 H 5.6682988 L 3.764002,-0.84995898 1.8304082,-6.5335527 H 0.67318164 V -3.4960937e-4 H 1.4641973 V -5.4788652 l 1.8457031,5.47851559063 z m 7.6025394,0 V -4.702498 h -0.747071 v 2.6660156 c 0,0.9667969 -0.498046,1.58203123 -1.2744137,1.58203123 -0.6005859,0 -0.9667968,-0.3515625 -0.9667968,-0.92285153 V -4.702498 H 8.0559941 v 3.6328125 c 0,0.77636714 0.5859375,1.27441402 1.4941407,1.27441402 0.6884762,0 1.1279292,-0.234375 1.5673832,-0.86425782 V -3.4960937e-4 Z M 13.816492,-6.5335527 h -0.74707 v 6.53320309063 h 0.74707 z m 2.900391,1.8310547 h -0.761719 v -1.2890625 h -0.74707 v 1.2890625 h -0.629883 v 0.6152343 h 0.629883 v 3.5449219 c 0,0.48339844 0.322265,0.74707032 0.908203,0.74707032 0.175781,0 0.351562,-0.0146484 0.600586,-0.0585938 V -0.4837481 c -0.08789,0.0292969 -0.205078,0.0292969 -0.351563,0.0292969 -0.322265,0 -0.410156,-0.0878906 -0.410156,-0.41015625 V -4.0872637 h 0.761719 z m 1.567383,0 h -0.747071 v 4.70214839063 h 0.747071 z m 0,-1.8310547 h -0.761719 v 0.9375 h 0.761719 z m 1.274414,1.8310547 v 4.70214839063 h 0.74707 V -2.9446855 c 0,-0.6884766 0.498047,-1.2304688 1.113281,-1.2304688 0.541992,0 0.864258,0.3369141 0.864258,0.9375 v 3.23730469063 h 0.74707 V -2.9446855 c 0,-0.6884766 0.498047,-1.2304688 1.113282,-1.2304688 0.541992,0 0.864257,0.3515625 0.864257,0.9375 v 3.23730469063 h 0.747071 V -3.530623 c 0,-0.834961 -0.483399,-1.303711 -1.362305,-1.303711 -0.629883,0 -0.996094,0.1904297 -1.435547,0.7177735 -0.27832,-0.4980469 -0.65918,-0.7177735 -1.274414,-0.7177735 -0.615234,0 -1.025391,0.234375 -1.435547,0.8056641 V -4.702498 Z m 9.268799,-0.131836 c -1.31836,0 -2.109375,0.9375 -2.109375,2.5195313 0,1.58203122 0.791015,2.51953122 2.124023,2.51953122 1.318359,0 2.124023,-0.9375 2.124023,-2.47558592 0,-1.6259766 -0.776367,-2.5634766 -2.138671,-2.5634766 z m 0.01465,0.6884766 c 0.849609,0 1.347656,0.6884765 1.347656,1.8603515 0,1.0986329 -0.527344,1.80175785 -1.347656,1.80175785 -0.834961,0 -1.347656,-0.68847655 -1.347656,-1.83105465 0,-1.1279297 0.512695,-1.8310547 1.347656,-1.8310547 z m 6.97998,-2.3876953 h -0.74707 v 2.4316406 C 34.76742,-4.5853105 34.254725,-4.834334 33.63949,-4.834334 c -1.230469,0 -2.021484,0.9814453 -2.021484,2.475586 0,1.5820312 0.776367,2.56347652 2.036133,2.56347652 0.659179,0 1.098632,-0.234375 1.508789,-0.8203125 v 0.61523437063 h 0.659179 z M 33.75668,-4.131209 c 0.805664,0 1.318359,0.7177735 1.318359,1.8310547 0,1.0839844 -0.512695,1.80175782 -1.303711,1.80175782 -0.834961,0 -1.376953,-0.71777342 -1.376953,-1.81640622 0,-1.0986328 0.541992,-1.8164063 1.362305,-1.8164063 z m 7.401123,3.69140627 c -0.07324,0.0146484 -0.117188,0.0146484 -0.161133,0.0146484 -0.249023,0 -0.395508,-0.13183593 -0.395508,-0.36621093 V -3.5452715 c 0,-0.8349609 -0.615234,-1.2890625 -1.772461,-1.2890625 -0.673828,0 -1.245117,0.2050781 -1.552734,0.5419922 -0.219727,0.2490234 -0.307617,0.5126953 -0.322266,0.9814453 h 0.747071 c 0.05859,-0.571289 0.410156,-0.8349609 1.098632,-0.8349609 0.673828,0 1.054688,0.2490234 1.054688,0.703125 v 0.1904297 c 0,0.3222656 -0.19043,0.4541015 -0.776367,0.5273437 -1.054688,0.131836 -1.215821,0.1757813 -1.508789,0.2929688 -0.541993,0.2197265 -0.820313,0.6445312 -0.820313,1.2451172 0,0.84960933 0.585938,1.39160152 1.538086,1.39160152 0.585938,0 1.069336,-0.20507812937 1.59668,-0.68847657 0.05859,0.46875 0.27832,0.68847657 0.776367,0.68847657 0.146484,0 0.263672,-0.0146484 0.498047,-0.0732422 z M 39.85409,-1.4798418 c 0,0.2490234 -0.07324,0.4101563 -0.292969,0.61523438 -0.307617,0.27832031 -0.673828,0.41015625 -1.113281,0.41015625 -0.585938,0 -0.922852,-0.27832031 -0.922852,-0.74707033 0,-0.4980469 0.336914,-0.7470703 1.12793,-0.8642578 0.791016,-0.1025391 0.952148,-0.1464844 1.201172,-0.2636719 z m 2.860107,-5.0537109 h -0.74707 v 6.53320309063 h 0.74707 z m 1.977539,1.8310547 h -0.74707 v 4.70214839063 h 0.74707 z m 0,-1.8310547 h -0.761718 v 0.9375 h 0.761718 z m 2.911377,1.8310547 h -0.761718 v -1.2890625 h -0.747071 v 1.2890625 h -0.629883 v 0.6152343 h 0.629883 v 3.5449219 c 0,0.48339844 0.322266,0.74707032 0.908203,0.74707032 0.175782,0 0.351563,-0.0146484 0.600586,-0.0585938 V -0.4837481 c -0.08789,0.0292969 -0.205078,0.0292969 -0.351562,0.0292969 -0.322266,0 -0.410156,-0.0878906 -0.410156,-0.41015625 V -4.0872637 h 0.761718 z m 3.695069,0 -1.289063,3.6621093 -1.201172,-3.6621093 h -0.805664 l 1.59668,4.71679683 -0.292969,0.74707031 C 49.188807,1.0982832 49.013025,1.2154707 48.705408,1.2154707 c -0.102539,0 -0.234375,-0.014648 -0.395508,-0.043945 v 0.6591797 c 0.146485,0.087891 0.307618,0.1171875 0.498047,0.1171875 0.249024,0 0.512696,-0.073242 0.703125,-0.2197266 0.234375,-0.1757812 0.366211,-0.3662109 0.512696,-0.7470703 l 2.094726,-5.6835937 z m 4.295654,4.70214839063 h 2.519531 c 1.655274,0 2.666016,-1.23046879063 2.666016,-3.26660159063 0,-2.0361328 -0.996094,-3.2666015 -2.666016,-3.2666015 H 55.593836 Z M 56.428797,-0.73277148 V -5.8011309 h 1.552734 c 1.289063,0 1.962891,0.8642579 1.962891,2.5341797 0,1.6552735 -0.673828,2.53417972 -1.962891,2.53417972 z m 9.448242,-1.36230472 c 0,-0.7177734 -0.05859,-1.1572265 -0.19043,-1.4941406 -0.307617,-0.7763672 -1.02539,-1.2451172 -1.904297,-1.2451172 -1.30371,0 -2.15332,1.0107422 -2.15332,2.5488281 0,1.53808598 0.820313,2.49023442 2.138672,2.49023442 1.083984,0 1.816406,-0.61523438 2.006836,-1.62597652 h -0.74707 c -0.205078,0.61523433 -0.629883,0.93749995 -1.230469,0.93749995 -0.46875,0 -0.878906,-0.21972656 -1.12793,-0.61523435 -0.175781,-0.2636719 -0.249023,-0.5273438 -0.249023,-0.9960938 z m -3.442383,-0.6152343 c 0.05859,-0.8642579 0.585938,-1.4355469 1.347656,-1.4355469 0.732422,0 1.289063,0.6152344 1.289063,1.3916015 0,0.014648 0,0.029297 0,0.043945 z m 8.045655,-0.4101563 c -0.0293,-0.4541016 -0.131836,-0.7470703 -0.307618,-1.0107422 -0.322265,-0.4394531 -0.893554,-0.703125 -1.538086,-0.703125 -1.274414,0 -2.094726,1.0107422 -2.094726,2.5634766 0,1.52343748 0.805664,2.47558592 2.080078,2.47558592 1.113281,0 1.831055,-0.67382813 1.918945,-1.81640622 h -0.74707 c -0.131836,0.74707028 -0.512695,1.12792965 -1.157227,1.12792965 -0.820312,0 -1.318359,-0.67382815 -1.318359,-1.78710935 0,-1.171875 0.483398,-1.875 1.303711,-1.875 0.629883,0 1.025391,0.3662109 1.113281,1.0253906 z m 2.695312,-1.7138672 c -1.318359,0 -2.109375,0.9375 -2.109375,2.5195313 0,1.58203122 0.791016,2.51953122 2.124023,2.51953122 1.31836,0 2.124024,-0.9375 2.124024,-2.47558592 0,-1.6259766 -0.776367,-2.5634766 -2.138672,-2.5634766 z m 0.01465,0.6884766 c 0.84961,0 1.347657,0.6884765 1.347657,1.8603515 0,1.0986329 -0.527344,1.80175785 -1.347657,1.80175785 -0.83496,0 -1.347656,-0.68847655 -1.347656,-1.83105465 0,-1.1279297 0.512696,-1.8310547 1.347656,-1.8310547 z m 6.979981,-2.3876953 h -0.74707 v 2.4316406 c -0.307618,-0.4833984 -0.820313,-0.7324219 -1.435547,-0.7324219 -1.230469,0 -2.021485,0.9814453 -2.021485,2.475586 0,1.5820312 0.776368,2.56347652 2.036133,2.56347652 0.65918,0 1.098633,-0.234375 1.508789,-0.8203125 v 0.61523437063 h 0.65918 z m -2.06543,2.4023437 c 0.805664,0 1.31836,0.7177735 1.31836,1.8310547 0,1.0839844 -0.512696,1.80175782 -1.303711,1.80175782 -0.834961,0 -1.376953,-0.71777342 -1.376953,-1.81640622 0,-1.0986328 0.541992,-1.8164063 1.362304,-1.8164063 z m 7.210694,2.0361328 c 0,-0.7177734 -0.05859,-1.1572265 -0.19043,-1.4941406 -0.307617,-0.7763672 -1.025391,-1.2451172 -1.904297,-1.2451172 -1.303711,0 -2.15332,1.0107422 -2.15332,2.5488281 0,1.53808598 0.820312,2.49023442 2.138672,2.49023442 1.083984,0 1.816406,-0.61523438 2.006836,-1.62597652 h -0.747071 c -0.205078,0.61523433 -0.629883,0.93749995 -1.230469,0.93749995 -0.46875,0 -0.878906,-0.21972656 -1.127929,-0.61523435 -0.175781,-0.2636719 -0.249024,-0.5273438 -0.249024,-0.9960938 z m -3.442383,-0.6152343 c 0.05859,-0.8642579 0.585937,-1.4355469 1.347656,-1.4355469 0.732422,0 1.289063,0.6152344 1.289063,1.3916015 0,0.014648 0,0.029297 0,0.043945 z M 86.315271,-4.702498 V -3.4960937e-4 H 87.07699 V -2.4319902 c 0,-0.6738282 0.161133,-1.1132813 0.527344,-1.3769532 0.234375,-0.1757812 0.454102,-0.2197265 0.966797,-0.234375 v -0.7617187 c -0.117188,-0.014648 -0.175781,-0.029297 -0.27832,-0.029297 -0.483399,0 -0.84961,0.2929688 -1.289063,0.9814453 V -4.702498 Z m 0,0"
       style="fill:#000000;fill-opacity:1;fill-rule:nonzero;stroke:none"
       aria-label="MultimodalityDecoder"
       transform="matrix(1.0666667,0,0,1.0666667,181.84053,168.87147)" />
    <path
       id="path16"
       d="m 2.1092187,-6.5318594 c -0.8935546,1.171875 -1.45019526,2.7978516 -1.45019526,4.2041016 0,1.42089843 0.55664066,3.06152343 1.45019526,4.2333984 H 2.6072656 C 1.81625,0.61657813 1.3767969,-0.89221094 1.3767969,-2.3277578 c 0,-1.4208984 0.4394531,-2.9296875 1.2304687,-4.2041016 z m 4.0539551,0.7324219 H 8.3018457 V -6.5318594 H 3.1748926 v 0.7324219 h 2.1533203 v 5.80078125 h 0.8349609 z m 1.842041,1.0986328 V 0.00134375 H 8.7669336 V -2.4302969 c 0,-0.6738281 0.1611328,-1.1132812 0.5273437,-1.3769531 0.234375,-0.1757812 0.4541016,-0.2197266 0.9667967,-0.234375 v -0.7617187 c -0.117187,-0.014648 -0.175781,-0.029297 -0.2783201,-0.029297 -0.4833984,0 -0.8496094,0.2929687 -1.2890625,0.9814453 v -0.8496094 z m 7.0678712,4.26269533 c -0.07324,0.0146484 -0.117188,0.0146484 -0.161133,0.0146484 -0.249023,0 -0.395508,-0.13183593 -0.395508,-0.36621093 v -2.7539062 c 0,-0.834961 -0.615234,-1.2890625 -1.772461,-1.2890625 -0.673828,0 -1.245117,0.2050781 -1.552734,0.5419922 -0.219727,0.2490234 -0.307617,0.5126953 -0.322266,0.9814453 h 0.747071 c 0.05859,-0.5712891 0.410156,-0.834961 1.098632,-0.834961 0.673829,0 1.054688,0.2490235 1.054688,0.703125 v 0.1904297 c 0,0.3222657 -0.19043,0.4541016 -0.776367,0.5273438 -1.054688,0.1318359 -1.215821,0.1757812 -1.508789,0.2929687 -0.541992,0.2197266 -0.820313,0.6445313 -0.820313,1.2451172 0,0.84960939 0.585938,1.39160158 1.538086,1.39160158 0.585938,0 1.069336,-0.20507813 1.59668,-0.68847657 0.05859,0.46875 0.27832,0.68847657 0.776367,0.68847657 0.146484,0 0.263672,-0.0146484 0.498047,-0.0732422 z M 13.769375,-1.4781484 c 0,0.2490234 -0.07324,0.4101562 -0.292969,0.61523434 -0.307617,0.27832031 -0.673828,0.41015625 -1.113281,0.41015625 -0.585938,0 -0.922852,-0.27832031 -0.922852,-0.74707029 0,-0.4980469 0.336914,-0.7470703 1.12793,-0.8642578 0.791016,-0.1025391 0.952149,-0.1464844 1.201172,-0.2636719 z m 2.131348,-3.2226563 v 4.70214845 h 0.74707 V -2.5914297 c 0,-0.9521484 0.512695,-1.5820312 1.274414,-1.5820312 0.600586,0 0.966797,0.3515625 0.966797,0.9228515 v 3.25195315 h 0.74707 V -3.5435781 c 0,-0.7910156 -0.585937,-1.2890625 -1.49414,-1.2890625 -0.688477,0 -1.142579,0.2636719 -1.552735,0.9228515 v -0.7910156 z m 8.280029,1.3183594 c -0.01465,-0.9228516 -0.615234,-1.4501953 -1.699219,-1.4501953 -1.098633,0 -1.801758,0.571289 -1.801758,1.4355469 0,0.7324218 0.366211,1.0839843 1.479493,1.3476562 l 0.703125,0.1757813 c 0.527343,0.1318359 0.732421,0.3222656 0.732421,0.6591796 0,0.43945316 -0.439453,0.73242191 -1.098632,0.73242191 -0.410157,0 -0.747071,-0.1171875 -0.9375,-0.30761718 -0.117188,-0.14648438 -0.161133,-0.27832033 -0.205078,-0.60058593 h -0.791016 c 0.0293,1.08398436 0.644531,1.59667968 1.875,1.59667968 1.171875,0 1.933594,-0.5859375 1.933594,-1.49414058 0,-0.6884766 -0.395508,-1.0839844 -1.333008,-1.303711 L 22.3204,-2.7525625 c -0.600586,-0.1464844 -0.864257,-0.3515625 -0.864257,-0.6738281 0,-0.4394531 0.380859,-0.7177735 0.996093,-0.7177735 0.600586,0 0.922852,0.2636719 0.9375,0.7617188 z m 2.871094,-1.3183594 h -0.776367 v -0.7324219 c 0,-0.3076171 0.175781,-0.46875 0.512695,-0.46875 0.05859,0 0.08789,0 0.263672,0 v -0.6152343 c -0.175782,-0.029297 -0.263672,-0.043945 -0.424805,-0.043945 -0.688477,0 -1.098633,0.3955078 -1.098633,1.0693359 v 0.7910156 H 24.898525 V -4.08557 h 0.629883 v 4.08691405 h 0.747071 V -4.0855703 h 0.776367 z m 2.340088,-0.1318359 c -1.31836,0 -2.109375,0.9375 -2.109375,2.5195312 0,1.58203128 0.791015,2.51953128 2.124023,2.51953128 1.318359,0 2.124023,-0.9375 2.124023,-2.47558598 0,-1.6259765 -0.776367,-2.5634765 -2.138671,-2.5634765 z m 0.01465,0.6884765 c 0.849609,0 1.347656,0.6884766 1.347656,1.8603516 0,1.0986328 -0.527343,1.80175781 -1.347656,1.80175781 -0.834961,0 -1.347656,-0.68847651 -1.347656,-1.83105471 0,-1.1279297 0.512695,-1.8310547 1.347656,-1.8310547 z m 3.156738,-0.5566406 v 4.70214845 h 0.761719 V -2.4302969 c 0,-0.6738281 0.161133,-1.1132812 0.527344,-1.3769531 0.234375,-0.1757812 0.454101,-0.2197266 0.966797,-0.234375 v -0.7617187 c -0.117188,-0.014648 -0.175782,-0.029297 -0.278321,-0.029297 -0.483398,0 -0.849609,0.2929687 -1.289062,0.9814453 v -0.8496094 z m 3.215332,0 v 4.70214845 h 0.747071 V -2.9429922 c 0,-0.6884765 0.498047,-1.2304687 1.113281,-1.2304687 0.541992,0 0.864258,0.336914 0.864258,0.9375 v 3.23730465 h 0.74707 V -2.9429922 c 0,-0.6884765 0.498047,-1.2304687 1.113281,-1.2304687 0.541992,0 0.864258,0.3515625 0.864258,0.9375 v 3.23730465 h 0.74707 V -3.5289297 c 0,-0.8349609 -0.483398,-1.3037109 -1.362304,-1.3037109 -0.629883,0 -0.996094,0.1904297 -1.435547,0.7177734 -0.27832,-0.4980469 -0.65918,-0.7177734 -1.274414,-0.7177734 -0.615235,0 -1.025391,0.234375 -1.435547,0.805664 v -0.6738281 z m 11.436768,2.6074219 c 0,-0.7177734 -0.05859,-1.1572266 -0.19043,-1.4941406 -0.307617,-0.7763672 -1.02539,-1.2451172 -1.904297,-1.2451172 -1.303711,0 -2.15332,1.0107422 -2.15332,2.5488281 0,1.53808594 0.820313,2.49023438 2.138672,2.49023438 1.083984,0 1.816406,-0.61523438 2.006836,-1.62597658 h -0.74707 c -0.205079,0.61523439 -0.629883,0.93750001 -1.230469,0.93750001 -0.46875,0 -0.878906,-0.21972656 -1.12793,-0.61523441 -0.175781,-0.2636718 -0.249023,-0.5273437 -0.249023,-0.9960937 z m -3.442383,-0.6152344 c 0.05859,-0.8642578 0.585938,-1.4355469 1.347656,-1.4355469 0.732422,0 1.289063,0.6152344 1.289063,1.3916016 0,0.014648 0,0.029297 0,0.043945 z m 4.445801,-1.9921875 v 4.70214845 h 0.761719 V -2.4302969 c 0,-0.6738281 0.161132,-1.1132812 0.527343,-1.3769531 0.234375,-0.1757812 0.454102,-0.2197266 0.966797,-0.234375 v -0.7617187 c -0.117187,-0.014648 -0.175781,-0.029297 -0.27832,-0.029297 -0.483398,0 -0.849609,0.2929687 -1.289063,0.9814453 v -0.8496094 z m 3.204346,6.6064453 c 0.893554,-1.17187497 1.464843,-2.81249997 1.464843,-4.21875 0,-1.4208984 -0.571289,-3.046875 -1.464843,-4.21875 h -0.498047 c 0.791015,1.2744141 1.230468,2.7832032 1.230468,4.21875 0,1.42089846 -0.439453,2.94433596 -1.230468,4.21875 z m 0,0"
       style="fill:#000000;fill-opacity:1;fill-rule:nonzero;stroke:none"
       aria-label="(Transformer)"
       transform="matrix(1.0666667,0,0,1.0666667,200.56267,180.56107)" />
    <path
       id="path17"
       d="m 0.3736,-206.61151 h 106.03365 v 26.08237 H 0.3736 Z"
       style="fill:#fde2f0;fill-opacity:1;fill-rule:nonzero;stroke:#c9146e;stroke-width:0.74721;stroke-linecap:butt;stroke-linejoin:miter;stroke-miterlimit:10;stroke-dasharray:none;stroke-opacity:1"
       transform="matrix(1.0666667,0,0,-1.0666667,172.1904,12.493867)" />
    <path
       id="path18"
       d="m 3.4869121,-6.6349805 c -1.875,0 -3.14941405,1.3769532 -3.14941405,3.413086 0,2.0507812 1.27441405,3.42773434 3.16406245,3.42773434 0.7910157,0 1.4941407,-0.234375 2.0214844,-0.68847656 0.703125,-0.60058598 1.1279297,-1.61132808 1.1279297,-2.68066408 0,-2.109375 -1.2451172,-3.4716797 -3.1640625,-3.4716797 z m 0,0.7324219 c 1.4208984,0 2.3291016,1.0693359 2.3291016,2.7246094 0,1.5673828 -0.9375,2.65136717 -2.3144532,2.65136717 -1.3916015,0 -2.3291015,-1.08398437 -2.3291015,-2.69531247 0,-1.6113282 0.9375,-2.6806641 2.3144531,-2.6806641 z M 11.298191,7.6171875e-4 V -4.7013867 h -0.74707 v 2.6660156 c 0,0.9667969 -0.498047,1.58203126 -1.274414,1.58203126 -0.6005859,0 -0.9667968,-0.3515625 -0.9667968,-0.92285156 V -4.7013867 H 7.5628398 v 3.6328125 c 0,0.77636717 0.5859375,1.27441404 1.4941407,1.27441404 0.6884765,0 1.1279295,-0.234375 1.5673825,-0.86425781 V 7.6171875e-4 Z M 14.231541,-4.7013867 h -0.761719 v -1.2890625 h -0.74707 v 1.2890625 h -0.629883 v 0.6152344 h 0.629883 v 3.54492183 c 0,0.48339844 0.322266,0.74707031 0.908203,0.74707031 0.175781,0 0.351563,-0.0146484 0.600586,-0.0585938 v -0.62988281 c -0.08789,0.0292969 -0.205078,0.0292969 -0.351562,0.0292969 -0.322266,0 -0.410157,-0.0878906 -0.410157,-0.41015625 V -4.0861523 h 0.761719 z m 0.706787,6.6503906 h 0.74707 v -2.44628906 c 0.395508,0.48339844 0.834961,0.703125 1.450196,0.703125 1.21582,0 2.006836,-0.98144531 2.006836,-2.47558594 0,-1.5820312 -0.776368,-2.5634766 -2.021485,-2.5634766 -0.629883,0 -1.142578,0.2929688 -1.49414,0.8496094 v -0.7177734 h -0.688477 z m 2.06543,-6.0791016 c 0.820312,0 1.362304,0.7177735 1.362304,1.8457032 0,1.0693359 -0.55664,1.78710934 -1.362304,1.78710934 -0.791016,0 -1.31836,-0.71777344 -1.31836,-1.81640624 0,-1.0986328 0.527344,-1.8164063 1.31836,-1.8164063 z M 23.76035,7.6171875e-4 V -4.7013867 h -0.747071 v 2.6660156 c 0,0.9667969 -0.498047,1.58203126 -1.274414,1.58203126 -0.600586,0 -0.966797,-0.3515625 -0.966797,-0.92285156 v -3.3251953 h -0.74707 v 3.6328125 c 0,0.77636717 0.585938,1.27441404 1.494141,1.27441404 0.688476,0 1.127929,-0.234375 1.567382,-0.86425781 V 7.6171875e-4 Z M 26.693699,-4.7013867 H 25.93198 v -1.2890625 h -0.74707 v 1.2890625 h -0.629883 v 0.6152344 h 0.629883 v 3.54492183 c 0,0.48339844 0.322266,0.74707031 0.908203,0.74707031 0.175782,0 0.351563,-0.0146484 0.600586,-0.0585938 v -0.62988281 c -0.08789,0.0292969 -0.205078,0.0292969 -0.351562,0.0292969 -0.322266,0 -0.410157,-0.0878906 -0.410157,-0.41015625 V -4.0861523 h 0.761719 z m 0,0"
       style="fill:#000000;fill-opacity:1;fill-rule:nonzero;stroke:none"
       aria-label="Output"
       transform="matrix(1.0666667,0,0,1.0666667,214.78453,215.632)" />
    <path
       id="path19"
       d="m 2.1092363,-6.5344102 c -0.8935547,1.171875 -1.45019528,2.7978516 -1.45019528,4.2041016 0,1.42089844 0.55664058,3.06152344 1.45019528,4.2333984 H 2.6072832 C 1.8162676,0.61402734 1.3768145,-0.89476172 1.3768145,-2.3303086 c 0,-1.4208984 0.4394531,-2.9296875 1.2304687,-4.2041016 z m 4.0539551,0.7324219 H 8.3018633 V -6.5344102 H 3.1749102 v 0.7324219 h 2.1533203 v 5.80078127 h 0.8349609 z m 5.8264156,3.7060547 c 0,-0.7177734 -0.05859,-1.1572266 -0.190429,-1.4941406 -0.307617,-0.7763672 -1.025391,-1.2451172 -1.9042971,-1.2451172 -1.303711,0 -2.1533204,1.0107422 -2.1533204,2.5488281 0,1.53808596 0.8203125,2.49023439 2.1386719,2.49023439 1.0839846,0 1.8164066,-0.61523437 2.0068356,-1.62597659 h -0.74707 c -0.205078,0.61523441 -0.629883,0.93750003 -1.2304687,0.93750003 -0.46875,0 -0.8789063,-0.21972656 -1.1279297,-0.61523433 C 8.6058184,-1.3635117 8.5325762,-1.6271836 8.5325762,-2.0959336 Z M 8.5472246,-2.711168 c 0.058594,-0.8642578 0.5859375,-1.4355468 1.3476563,-1.4355468 0.7324221,0 1.2890621,0.6152343 1.2890621,1.3916015 0,0.014649 0,0.029297 0,0.043945 z m 6.1779784,0.2783203 1.567383,-2.2705078 h -0.834961 l -1.12793,1.7138672 -1.127929,-1.7138672 h -0.84961 l 1.567383,2.3144532 -1.669922,2.38769527 h 0.864258 l 1.186523,-1.80175777 1.171875,1.80175777 h 0.864258 z m 4.134522,-2.2705078 H 18.098006 V -5.992418 h -0.74707 v 1.2890625 h -0.629883 v 0.6152344 h 0.629883 v 3.54492188 c 0,0.48339844 0.322265,0.74707031 0.908203,0.74707031 0.175781,0 0.351562,-0.0146484 0.600586,-0.0585938 v -0.62988281 c -0.08789,0.0292969 -0.205079,0.0292969 -0.351563,0.0292969 -0.322266,0 -0.410156,-0.0878906 -0.410156,-0.41015625 V -4.0881211 h 0.761719 z m 2.270507,-1.8310547 -2.124023,6.70898442 h 0.498047 l 2.124023,-6.70898442 z m 6.375733,2.0214844 c -0.263672,-1.4355469 -1.083985,-2.1240234 -2.519531,-2.1240234 -0.878907,0 -1.582032,0.2636719 -2.06543,0.805664 -0.600586,0.6445313 -0.922852,1.5820313 -0.922852,2.6367188 0,1.0839844 0.336914,2.0068359 0.952149,2.63671874 0.512695,0.52734375 1.157226,0.76171875 2.006836,0.76171875 1.596679,0 2.490234,-0.86425781 2.680664,-2.59277339 h -0.84961 c -0.07324,0.4541015 -0.161132,0.7617187 -0.307617,1.0107421 -0.263672,0.54199223 -0.820312,0.84960942 -1.523437,0.84960942 -1.289063,0 -2.124024,-1.04003902 -2.124024,-2.66601562 0,-1.6845703 0.791016,-2.7099609 2.050782,-2.7099609 0.541992,0 1.02539,0.1611328 1.30371,0.4101562 0.234375,0.2197266 0.366211,0.4980469 0.46875,0.9814453 z m 2.973633,-0.3222656 c -1.31836,0 -2.109375,0.9375 -2.109375,2.5195312 0,1.58203129 0.791015,2.51953129 2.124023,2.51953129 1.318359,0 2.124024,-0.9375 2.124024,-2.47558589 0,-1.6259766 -0.776368,-2.5634766 -2.138672,-2.5634766 z m 0.01465,0.6884766 c 0.849609,0 1.347656,0.6884765 1.347656,1.8603515 0,1.0986328 -0.527343,1.80175783 -1.347656,1.80175783 -0.834961,0 -1.347656,-0.68847653 -1.347656,-1.83105473 0,-1.1279296 0.512695,-1.8310546 1.347656,-1.8310546 z m 4.969483,-0.6884766 c -1.31836,0 -2.109375,0.9375 -2.109375,2.5195312 0,1.58203129 0.791015,2.51953129 2.124023,2.51953129 1.318359,0 2.124023,-0.9375 2.124023,-2.47558589 0,-1.6259766 -0.776367,-2.5634766 -2.138671,-2.5634766 z m 0.01465,0.6884766 c 0.849609,0 1.347656,0.6884765 1.347656,1.8603515 0,1.0986328 -0.527344,1.80175783 -1.347656,1.80175783 -0.834961,0 -1.347656,-0.68847653 -1.347656,-1.83105473 0,-1.1279296 0.512695,-1.8310546 1.347656,-1.8310546 z m 3.153076,-0.5566407 v 4.70214847 h 0.761719 V -2.4328477 c 0,-0.6738281 0.161133,-1.1132812 0.527344,-1.3769531 0.234375,-0.1757812 0.454101,-0.2197265 0.966796,-0.234375 v -0.7617187 c -0.117187,-0.014648 -0.175781,-0.029297 -0.27832,-0.029297 -0.483398,0 -0.849609,0.2929687 -1.289062,0.9814453 v -0.8496094 z m 6.811524,-1.8310547 H 44.69591 v 2.4316407 c -0.307617,-0.4833985 -0.820312,-0.7324219 -1.435547,-0.7324219 -1.230468,0 -2.021484,0.9814453 -2.021484,2.4755859 0,1.58203128 0.776367,2.56347659 2.036133,2.56347659 0.659179,0 1.098633,-0.234375 1.508789,-0.8203125 v 0.61523438 h 0.65918 z m -2.06543,2.4023438 c 0.805664,0 1.318359,0.7177734 1.318359,1.8310547 0,1.0839844 -0.512695,1.80175779 -1.303711,1.80175779 -0.834961,0 -1.376953,-0.71777339 -1.376953,-1.81640629 0,-1.0986328 0.541992,-1.8164062 1.362305,-1.8164062 z m 3.95874,-0.5712891 h -0.74707 v 4.70214847 h 0.74707 z m 0,-1.8310547 h -0.761719 v 0.9375 h 0.761719 z m 1.274414,1.8310547 v 4.70214847 h 0.74707 V -2.5939805 c 0,-0.9521484 0.512696,-1.5820312 1.274415,-1.5820312 0.600585,0 0.966796,0.3515625 0.966796,0.9228515 v 3.25195317 h 0.747071 V -3.5461289 c 0,-0.7910156 -0.585938,-1.2890625 -1.494141,-1.2890625 -0.688476,0 -1.142578,0.2636719 -1.552734,0.9228516 v -0.7910157 z m 9.144287,4.26269534 c -0.07324,0.0146484 -0.117187,0.0146484 -0.161133,0.0146484 -0.249023,0 -0.395507,-0.13183594 -0.395507,-0.36621094 v -2.7539062 c 0,-0.8349609 -0.615235,-1.2890625 -1.772461,-1.2890625 -0.673828,0 -1.245117,0.2050781 -1.552735,0.5419922 -0.219726,0.2490234 -0.307617,0.5126953 -0.322265,0.9814453 h 0.74707 c 0.05859,-0.5712891 0.410156,-0.8349609 1.098633,-0.8349609 0.673828,0 1.054687,0.2490234 1.054687,0.703125 v 0.1904296 c 0,0.3222657 -0.190429,0.4541016 -0.776367,0.5273438 -1.054687,0.1318359 -1.21582,0.1757812 -1.508789,0.2929687 -0.541992,0.2197266 -0.820312,0.6445313 -0.820312,1.2451172 0,0.84960941 0.585937,1.39160159 1.538086,1.39160159 0.585937,0 1.069335,-0.20507812 1.596679,-0.68847656 0.05859,0.46875 0.278321,0.68847656 0.776367,0.68847656 0.146485,0 0.263672,-0.0146484 0.498047,-0.0732422 z M 56.451277,-1.4806992 c 0,0.2490234 -0.07324,0.4101562 -0.292968,0.61523436 -0.307618,0.27832031 -0.673829,0.41015625 -1.113282,0.41015625 -0.585937,0 -0.922851,-0.27832032 -0.922851,-0.74707031 0,-0.4980469 0.336914,-0.7470703 1.127929,-0.8642578 0.791016,-0.1025391 0.952149,-0.1464844 1.201172,-0.2636719 z m 3.768311,-3.2226563 H 59.457869 V -5.992418 h -0.74707 v 1.2890625 h -0.629883 v 0.6152344 h 0.629883 v 3.54492188 c 0,0.48339844 0.322265,0.74707031 0.908203,0.74707031 0.175781,0 0.351562,-0.0146484 0.600586,-0.0585938 v -0.62988281 c -0.08789,0.0292969 -0.205078,0.0292969 -0.351563,0.0292969 -0.322265,0 -0.410156,-0.0878906 -0.410156,-0.41015625 V -4.0881211 h 0.761719 z m 4.822998,2.6074219 c 0,-0.7177734 -0.05859,-1.1572266 -0.19043,-1.4941406 -0.307617,-0.7763672 -1.02539,-1.2451172 -1.904297,-1.2451172 -1.303711,0 -2.15332,1.0107422 -2.15332,2.5488281 0,1.53808596 0.820313,2.49023439 2.138672,2.49023439 1.083984,0 1.816406,-0.61523437 2.006836,-1.62597659 h -0.74707 c -0.205079,0.61523441 -0.629883,0.93750003 -1.230469,0.93750003 -0.46875,0 -0.878906,-0.21972656 -1.12793,-0.61523433 -0.175781,-0.2636719 -0.249023,-0.5273438 -0.249023,-0.9960938 z M 61.600203,-2.711168 c 0.05859,-0.8642578 0.585938,-1.4355468 1.347656,-1.4355468 0.732422,0 1.289063,0.6152343 1.289063,1.3916015 0,0.014649 0,0.029297 0,0.043945 z m 7.752686,-0.6738281 c -0.01465,-0.9228516 -0.615235,-1.4501953 -1.699219,-1.4501953 -1.098633,0 -1.801758,0.5712891 -1.801758,1.4355469 0,0.7324218 0.366211,1.0839843 1.479492,1.3476562 l 0.703125,0.1757813 c 0.527344,0.1318359 0.732422,0.3222656 0.732422,0.6591797 0,0.43945308 -0.439453,0.73242183 -1.098633,0.73242183 -0.410156,0 -0.74707,-0.1171875 -0.9375,-0.30761719 C 66.613631,-0.93870703 66.569686,-1.070543 66.52574,-1.3928086 h -0.791015 c 0.0293,1.08398438 0.644531,1.59667969 1.875,1.59667969 1.171875,0 1.933593,-0.5859375 1.933593,-1.49414059 0,-0.6884766 -0.395507,-1.0839844 -1.333007,-1.303711 l -0.717774,-0.1611328 c -0.600586,-0.1464844 -0.864258,-0.3515625 -0.864258,-0.6738281 0,-0.4394531 0.38086,-0.7177734 0.996094,-0.7177734 0.600586,0 0.922852,0.2636718 0.9375,0.7617187 z m 1.391601,5.2880859 c 0.893555,-1.17187496 1.464844,-2.81249996 1.464844,-4.21875 0,-1.4208984 -0.571289,-3.046875 -1.464844,-4.21875 h -0.498047 c 0.791016,1.2744141 1.230469,2.7832032 1.230469,4.21875 0,1.42089848 -0.439453,2.94433598 -1.230469,4.21875 z m 0,0"
       style="fill:#000000;fill-opacity:1;fill-rule:nonzero;stroke:none"
       aria-label="(Text/Coordinates)"
       transform="matrix(1.0666667,0,0,1.0666667,190.26187,227.3216)" />
    <path
       id="path20"
       d="M 0,0 H -65.41707 V -18.53838"
       style="fill:none;stroke:#808080;stroke-width:0.99628;stroke-linecap:butt;stroke-linejoin:miter;stroke-miterlimit:10;stroke-dasharray:none;stroke-opacity:1"
       transform="matrix(1.0666667,0,0,-1.0666667,172.1904,12.493867)" />
    <path
       id="path21"
       d="M 5.20058,0 C 3.65962,0.28891 1.15567,1.15567 -0.57784,2.1669 V -2.1669 C 1.15567,-1.15567 3.65962,-0.28891 5.20058,0"
       style="fill:#808080;fill-opacity:1;fill-rule:nonzero;stroke:none"
       transform="matrix(0,1.0666667,1.0666667,0,102.41219,32.268139)" />
    <path
       id="path22"
       d="m 106.78085,0 h 65.41707 v -18.53838"
       style="fill:none;stroke:#808080;stroke-width:0.99628;stroke-linecap:butt;stroke-linejoin:miter;stroke-miterlimit:10;stroke-dasharray:none;stroke-opacity:1"
       transform="matrix(1.0666667,0,0,-1.0666667,172.1904,12.493867)" />
    <path
       id="path23"
       d="M 5.20058,0 C 3.65962,0.28891 1.15567,1.15567 -0.57784,2.1669 V -2.1669 C 1.15567,-1.15567 3.65962,-0.28891 5.20058,0"
       style="fill:#808080;fill-opacity:1;fill-rule:nonzero;stroke:none"
       transform="matrix(0,1.0666667,1.0666667,0,355.86818,32.268139)" />
    <path
       id="path24"
       d="M -65.41707,-47.1636 V -58.97127"
       style="fill:none;stroke:#808080;stroke-width:0.99628;stroke-linecap:butt;stroke-linejoin:miter;stroke-miterlimit:10;stroke-dasharray:none;stroke-opacity:1"
       transform="matrix(1.0666667,0,0,-1.0666667,172.1904,12.493867)" />
    <path
       id="path25"
       d="M 5.20058,0 C 3.65962,0.28891 1.15567,1.15567 -0.57784,2.1669 V -2.1669 C 1.15567,-1.15567 3.65962,-0.28891 5.20058,0"
       style="fill:#808080;fill-opacity:1;fill-rule:nonzero;stroke:none"
       transform="matrix(0,1.0666667,1.0666667,0,102.41219,75.396555)" />
    <path
       id="path26"
       d="M 172.19792,-47.1636 V -58.97127"
       style="fill:none;stroke:#808080;stroke-width:0.99628;stroke-linecap:butt;stroke-linejoin:miter;stroke-miterlimit:10;stroke-dasharray:none;stroke-opacity:1"
       transform="matrix(1.0666667,0,0,-1.0666667,172.1904,12.493867)" />
    <path
       id="path27"
       d="M 5.20058,0 C 3.65962,0.28891 1.15567,1.15567 -0.57784,2.1669 V -2.1669 C 1.15567,-1.15567 3.65962,-0.28891 5.20058,0"
       style="fill:#808080;fill-opacity:1;fill-rule:nonzero;stroke:none"
       transform="matrix(0,1.0666667,1.0666667,0,355.86818,75.396555)" />
    <path
       id="path28"
       d="m -65.41707,-87.59648 v -18.60759 h 60.21649"
       style="fill:none;stroke:#808080;stroke-width:0.99628;stroke-linecap:butt;stroke-linejoin:miter;stroke-miterlimit:10;stroke-dasharray:none;stroke-opacity:1"
       transform="matrix(1.0666667,0,0,-1.0666667,172.1904,12.493867)" />
    <path
       id="path29"
       d="M 5.20058,0 C 3.65962,0.28891 1.15567,1.15567 -0.57784,2.1669 V -2.1669 C 1.15567,-1.15567 3.65962,-0.28891 5.20058,0"
       style="fill:#808080;fill-opacity:1;fill-rule:nonzero;stroke:none"
       transform="matrix(1.0666667,0,0,-1.0666667,166.64311,125.77821)" />
    <path
       id="path30"
       d="m 172.19792,-87.59648 v -18.60759 h -60.21649"
       style="fill:none;stroke:#808080;stroke-width:0.99628;stroke-linecap:butt;stroke-linejoin:miter;stroke-miterlimit:10;stroke-dasharray:none;stroke-opacity:1"
       transform="matrix(1.0666667,0,0,-1.0666667,172.1904,12.493867)" />
    <path
       id="path31"
       d="M 5.20058,0 C 3.65962,0.28891 1.15567,1.15567 -0.57784,2.1669 V -2.1669 C 1.15567,-1.15567 3.65962,-0.28891 5.20058,0"
       style="fill:#808080;fill-opacity:1;fill-rule:nonzero;stroke:none"
       transform="matrix(-1.0666667,0,0,1.0666667,291.63726,125.77821)" />
    <path
       id="path32"
       d="M 53.39043,-119.51573 V -131.3234"
       style="fill:none;stroke:#808080;stroke-width:0.99628;stroke-linecap:butt;stroke-linejoin:miter;stroke-miterlimit:10;stroke-dasharray:none;stroke-opacity:1"
       transform="matrix(1.0666667,0,0,-1.0666667,172.1904,12.493867)" />
    <path
       id="path33"
       d="M 5.20058,0 C 3.65962,0.28891 1.15567,1.15567 -0.57784,2.1669 V -2.1669 C 1.15567,-1.15567 3.65962,-0.28891 5.20058,0"
       style="fill:#808080;fill-opacity:1;fill-rule:nonzero;stroke:none"
       transform="matrix(0,1.0666667,1.0666667,0,229.14019,152.57216)" />
    <path
       id="path34"
       d="m 53.39043,-163.1473 v -11.80766"
       style="fill:none;stroke:#808080;stroke-width:0.99628;stroke-linecap:butt;stroke-linejoin:miter;stroke-miterlimit:10;stroke-dasharray:none;stroke-opacity:1"
       transform="matrix(1.0666667,0,0,-1.0666667,172.1904,12.493867)" />
    <path
       id="path35"
       d="M 5.20058,0 C 3.65962,0.28891 1.15567,1.15567 -0.57784,2.1669 V -2.1669 C 1.15567,-1.15567 3.65962,-0.28891 5.20058,0"
       style="fill:#808080;fill-opacity:1;fill-rule:nonzero;stroke:none"
       transform="matrix(0,1.0666667,1.0666667,0,229.14019,199.11249)" />
  </g>
</svg>
