<?xml version="1.0" encoding="UTF-8" standalone="no"?>
<!-- Created with Inkscape (http://www.inkscape.org/) -->

<svg
   version="1.1"
   id="svg1"
   width="341.74533"
   height="182.52"
   viewBox="0 0 341.74533 182.52"
   xmlns="http://www.w3.org/2000/svg"
   xmlns:svg="http://www.w3.org/2000/svg">
  <defs
     id="defs1" />
  <g
     id="g1">
    <path
       id="path1"
       d="M 12.66847,0 C 12.66847,6.99669 6.99669,12.66847 0,12.66847 -6.99669,12.66847 -12.66847,6.99669 -12.66847,0 c 0,-6.99669 5.67178,-12.66847 12.66847,-12.66847 6.99669,0 12.66847,5.67178 12.66847,12.66847 z"
       style="fill:#dbfda6;fill-opacity:1;fill-rule:nonzero;stroke:#008f45;stroke-width:0.74721;stroke-linecap:butt;stroke-linejoin:miter;stroke-miterlimit:10;stroke-dasharray:none;stroke-opacity:1"
       transform="matrix(1.1333333,0,0,-1.1333333,95.702067,35.249)" />
    <path
       id="path2"
       d="m 4.6040588,-3.3765165 c 0.055147,-0.2205883 0.1516544,-0.5928309 0.1516544,-0.647978 0,-0.1792279 -0.1378676,-0.2757353 -0.289522,-0.2757353 -0.1240809,0 -0.3033088,0.082721 -0.3722427,0.2895221 -0.027573,0.068934 -0.4963235,1.9715073 -0.5652573,2.2334559 -0.068934,0.289522 -0.096507,0.46875 -0.096507,0.6479779 0,0.1102941 0,0.13786765 0.013787,0.17922794 -0.2205882,0.53768383 -0.5238971,0.84099265 -0.9099265,0.84099265 -0.7996323,0 -0.7996323,-0.73069853 -0.7996323,-0.90992649 0,-0.3170956 0.04136,-0.703125 0.5101103,-1.930147 C 2.3568162,-3.2524357 2.42575,-3.3903033 2.42575,-3.583318 c 0,-0.4549633 -0.3308824,-0.8272059 -0.8272059,-0.8272059 -0.93749998,0 -1.30974263,1.4476103 -1.30974263,1.5441176 0,0.096507 0.0965073,0.096507 0.12408088,0.096507 0.0965074,0 0.11029412,-0.013787 0.15165441,-0.1792279 0.2757353,-0.9237133 0.66176474,-1.2408089 1.00643384,-1.2408089 0.096507,0 0.2481618,0.013787 0.2481618,0.3308824 0,0.2481618 -0.1102942,0.5376838 -0.179228,0.703125 -0.4411765,1.171875 -0.5514706,1.6268382 -0.5514706,2.0128676 0,0.90992651 0.6617647,1.25459563 1.40625,1.25459563 0.179228,0 0.647978,0 1.0477941,-0.703125 0.2481618,0.64797794 0.9375,0.703125 1.2408089,0.703125 0.7444853,0 1.1856617,-0.63419118 1.4476103,-1.22702203 0.3308823,-0.7720589 0.6617647,-2.109375 0.6617647,-2.5919118 0,-0.5514706 -0.2757353,-0.703125 -0.4411765,-0.703125 -0.2481618,0 -0.4963235,0.2619485 -0.4963235,0.4825368 0,0.1378676 0.055147,0.1930147 0.1378676,0.2757353 0.1102941,0.1102941 0.3722427,0.3584558 0.3722427,0.8409926 0,0.3446691 -0.2895221,1.3235294 -0.5514706,1.81985295 -0.2619486,0.53768382 -0.6066177,0.88235294 -1.1029412,0.88235294 -0.46875,0 -0.7306985,-0.30330882 -0.7306985,-0.86856618 0,-0.27573531 0.068934,-0.59283091 0.1102941,-0.73069851 z m 0,0"
       style="fill:#000000;fill-opacity:1;fill-rule:nonzero;stroke:none"
       aria-label="w"
       transform="matrix(1.1333333,0,0,1.1333333,87.032067,36.065)" />
    <path
       id="path3"
       d="m 2.3422335,-4.4396801 c 0,-0.179228 -0.027574,-0.1930148 -0.2205883,-0.1930148 -0.4411765,0.4411765 -1.0753676,0.4411765 -1.36488969,0.4411765 v 0.2619485 c 0.16544118,0 0.63419119,0 1.02022059,-0.2068014 v 3.57077204 c 0,0.22058823 0,0.31709558 -0.703125,0.31709558 H 0.81190257 V -3.4191176e-4 C 0.93598346,-0.01412868 1.7907629,-0.02791544 2.0527114,-0.02791544 c 0.2068015,0 1.0891544,0.01378676 1.2408088,0.0275735282 V -0.24850368 H 3.0315717 c -0.6893382,0 -0.6893382,-0.0965073 -0.6893382,-0.31709558 z m 0,0"
       style="fill:#000000;fill-opacity:1;fill-rule:nonzero;stroke:none"
       aria-label="1"
       transform="matrix(1.1333333,0,0,1.1333333,95.115,37.7582)" />
    <path
       id="path4"
       d="m 3.0621801,-4.3569596 c 0,-0.1240808 -0.08272,-0.2619485 -0.2757352,-0.2619485 -0.2068015,0 -0.3860295,0.1930147 -0.3860295,0.3722427 0,0.1102941 0.082721,0.2757353 0.2757353,0.2757353 0.179228,0 0.3860294,-0.1930148 0.3860294,-0.3860295 z M 1.5869963,0.34432721 C 1.4629154,0.82686397 1.0906728,1.2266801 0.69085662,1.2266801 c -0.0965074,0 -0.17922794,-0.013787 -0.26194853,-0.04136 0.1930147,-0.082721 0.24816176,-0.24816181 0.24816176,-0.35845593 0,-0.16544118 -0.13786764,-0.26194853 -0.27573529,-0.26194853 -0.22058824,0 -0.39981618,0.19301471 -0.39981618,0.41360294 0,0.27573532 0.2757353,0.44117652 0.68933824,0.44117652 0.41360298,0 1.24080878,-0.2481618 1.44761028,-1.10294122 L 2.7726581,-2.1786507 c 0.013787,-0.068934 0.027573,-0.1378677 0.027573,-0.2481618 0,-0.3722426 -0.3170956,-0.6479779 -0.7444853,-0.6479779 -0.7720588,0 -1.21323527,0.9650735 -1.21323527,1.0615808 0,0.096507 0.0965073,0.096507 0.11029412,0.096507 0.0827205,0 0.0965073,-0.027573 0.13786765,-0.1240809 0.1792279,-0.4136029 0.5376838,-0.8409926 0.9512868,-0.8409926 0.1654411,0 0.234375,0.1240808 0.234375,0.3446691 0,0.068934 -0.013787,0.1654412 -0.027574,0.2068015 z m 0,0"
       style="fill:#000000;fill-opacity:1;fill-rule:nonzero;stroke:none"
       aria-label="j"
       transform="matrix(1.1333333,0,0,1.1333333,99.615467,37.7582)" />
    <path
       id="path5"
       d="m 12.66847,-31.75343 c 0,6.9967 -5.67178,12.66848 -12.66847,12.66848 -6.99669,0 -12.66847,-5.67178 -12.66847,-12.66848 0,-6.99669 5.67178,-12.66847 12.66847,-12.66847 6.99669,0 12.66847,5.67178 12.66847,12.66847 z"
       style="fill:#dbfda6;fill-opacity:1;fill-rule:nonzero;stroke:#008f45;stroke-width:0.74721;stroke-linecap:butt;stroke-linejoin:miter;stroke-miterlimit:10;stroke-dasharray:none;stroke-opacity:1"
       transform="matrix(1.1333333,0,0,-1.1333333,95.702067,35.249)" />
    <path
       id="path6"
       d="m 4.6040588,-3.3785974 c 0.055147,-0.2205883 0.1516544,-0.5928309 0.1516544,-0.647978 0,-0.1792279 -0.1378676,-0.2757353 -0.289522,-0.2757353 -0.1240809,0 -0.3033088,0.082721 -0.3722427,0.2895221 -0.027573,0.068934 -0.4963235,1.9715074 -0.5652573,2.2334559 -0.068934,0.289522 -0.096507,0.46875 -0.096507,0.6479779 0,0.1102941 0,0.13786767 0.013787,0.17922796 -0.2205882,0.53768383 -0.5238971,0.84099265 -0.9099265,0.84099265 -0.7996323,0 -0.7996323,-0.73069853 -0.7996323,-0.90992651 0,-0.3170955 0.04136,-0.703125 0.5101103,-1.930147 0.1102941,-0.3033088 0.1792279,-0.4411765 0.1792279,-0.6341912 0,-0.4549632 -0.3308824,-0.8272059 -0.8272059,-0.8272059 -0.93749998,0 -1.30974263,1.4476103 -1.30974263,1.5441177 0,0.096507 0.0965073,0.096507 0.12408088,0.096507 0.0965074,0 0.11029412,-0.013787 0.15165441,-0.1792279 0.2757353,-0.9237133 0.66176474,-1.2408088 1.00643384,-1.2408088 0.096507,0 0.2481618,0.013787 0.2481618,0.3308823 0,0.2481618 -0.1102942,0.5376838 -0.179228,0.703125 -0.4411765,1.171875 -0.5514706,1.6268382 -0.5514706,2.0128677 0,0.90992643 0.6617647,1.25459554 1.40625,1.25459554 0.179228,0 0.647978,0 1.0477941,-0.703125 0.2481618,0.64797795 0.9375,0.703125 1.2408089,0.703125 0.7444853,0 1.1856617,-0.63419117 1.4476103,-1.22702204 0.3308823,-0.7720588 0.6617647,-2.109375 0.6617647,-2.5919118 0,-0.5514706 -0.2757353,-0.703125 -0.4411765,-0.703125 -0.2481618,0 -0.4963235,0.2619486 -0.4963235,0.4825368 0,0.1378676 0.055147,0.1930147 0.1378676,0.2757353 0.1102941,0.1102941 0.3722427,0.3584559 0.3722427,0.8409926 0,0.3446691 -0.2895221,1.3235294 -0.5514706,1.81985297 -0.2619486,0.53768382 -0.6066177,0.88235294 -1.1029412,0.88235294 -0.46875,0 -0.7306985,-0.30330882 -0.7306985,-0.86856618 0,-0.27573533 0.068934,-0.59283083 0.1102941,-0.73069853 z m 0,0"
       style="fill:#000000;fill-opacity:1;fill-rule:nonzero;stroke:none"
       aria-label="w"
       transform="matrix(1.1333333,0,0,1.1333333,87.032067,72.051733)" />
    <path
       id="path7"
       d="M 3.5278952,-1.2673585 H 3.2797335 c -0.013787,0.1516545 -0.082721,0.5652574 -0.179228,0.63419122 -0.055147,0.0413603 -0.5928309,0.0413603 -0.6893382,0.0413603 H 1.1289982 C 1.8596967,-1.2397849 2.1078585,-1.4327996 2.5214614,-1.763682 c 0.5238971,-0.4136029 1.0064338,-0.8409926 1.0064338,-1.5027573 0,-0.8547794 -0.7444853,-1.3648897 -1.640625,-1.3648897 -0.8685662,0 -1.44761027,0.6066176 -1.44761027,1.2545955 0,0.3446692 0.30330882,0.3860295 0.37224264,0.3860295 0.16544118,0 0.37224263,-0.1240809 0.37224263,-0.3722427 0,-0.1240809 -0.055147,-0.3722426 -0.41360292,-0.3722426 0.20680147,-0.4963236 0.68933822,-0.647978 1.02022062,-0.647978 0.6893382,0 1.0477941,0.5514706 1.0477941,1.116728 0,0.6066176 -0.4273897,1.0891544 -0.647978,1.3373161 l -1.68198525,1.6544118 c -0.0689338,0.0689338 -0.0689338,0.0827206 -0.0689338,0.2757353 H 3.307307 Z m 0,0"
       style="fill:#000000;fill-opacity:1;fill-rule:nonzero;stroke:none"
       aria-label="2"
       transform="matrix(1.1333333,0,0,1.1333333,95.115,73.744933)" />
    <path
       id="path8"
       d="m 3.0621801,-4.3555937 c 0,-0.1240809 -0.08272,-0.2619486 -0.2757352,-0.2619486 -0.2068015,0 -0.3860295,0.1930147 -0.3860295,0.3722427 0,0.1102941 0.082721,0.2757353 0.2757353,0.2757353 0.179228,0 0.3860294,-0.1930147 0.3860294,-0.3860294 z M 1.5869963,0.34569301 C 1.4629154,0.82822978 1.0906728,1.228046 0.69085662,1.228046 c -0.0965074,0 -0.17922794,-0.013787 -0.26194853,-0.04136 0.1930147,-0.082721 0.24816176,-0.2481618 0.24816176,-0.35845592 0,-0.16544118 -0.13786764,-0.26194853 -0.27573529,-0.26194853 -0.22058824,0 -0.39981618,0.19301471 -0.39981618,0.41360294 0,0.27573531 0.2757353,0.44117651 0.68933824,0.44117651 0.41360298,0 1.24080878,-0.2481618 1.44761028,-1.10294121 L 2.7726581,-2.1772849 c 0.013787,-0.068934 0.027573,-0.1378677 0.027573,-0.2481618 0,-0.3722426 -0.3170956,-0.6479779 -0.7444853,-0.6479779 -0.7720588,0 -1.21323527,0.9650735 -1.21323527,1.0615809 0,0.096507 0.0965073,0.096507 0.11029412,0.096507 0.0827205,0 0.0965073,-0.027574 0.13786765,-0.1240809 0.1792279,-0.4136029 0.5376838,-0.8409926 0.9512868,-0.8409926 0.1654411,0 0.234375,0.1240809 0.234375,0.3446691 0,0.068934 -0.013787,0.1654412 -0.027574,0.2068015 z m 0,0"
       style="fill:#000000;fill-opacity:1;fill-rule:nonzero;stroke:none"
       aria-label="j"
       transform="matrix(1.1333333,0,0,1.1333333,99.615467,73.744933)" />
    <path
       id="path9"
       d="m 12.66847,-63.50687 c 0,6.99671 -5.67178,12.66847 -12.66847,12.66847 -6.99669,0 -12.66847,-5.67176 -12.66847,-12.66847 0,-6.99669 5.67178,-12.66847 12.66847,-12.66847 6.99669,0 12.66847,5.67178 12.66847,12.66847 z"
       style="fill:#dbfda6;fill-opacity:1;fill-rule:nonzero;stroke:#008f45;stroke-width:0.74721;stroke-linecap:butt;stroke-linejoin:miter;stroke-miterlimit:10;stroke-dasharray:none;stroke-opacity:1"
       transform="matrix(1.1333333,0,0,-1.1333333,95.702067,35.249)" />
    <path
       id="path10"
       d="m 4.6040588,-3.3772316 c 0.055147,-0.2205883 0.1516544,-0.5928309 0.1516544,-0.647978 0,-0.1792279 -0.1378676,-0.2757353 -0.289522,-0.2757353 -0.1240809,0 -0.3033088,0.082721 -0.3722427,0.2895221 -0.027573,0.068934 -0.4963235,1.9715074 -0.5652573,2.2334559 -0.068934,0.289522 -0.096507,0.46875 -0.096507,0.6479779 0,0.1102941 0,0.13786768 0.013787,0.17922797 -0.2205882,0.53768382 -0.5238971,0.84099265 -0.9099265,0.84099265 -0.7996323,0 -0.7996323,-0.73069853 -0.7996323,-0.90992652 0,-0.3170955 0.04136,-0.703125 0.5101103,-1.930147 0.1102941,-0.3033088 0.1792279,-0.4411765 0.1792279,-0.6341912 0,-0.4549632 -0.3308824,-0.8272059 -0.8272059,-0.8272059 -0.93749998,0 -1.30974263,1.4476103 -1.30974263,1.5441177 0,0.096507 0.0965073,0.096507 0.12408088,0.096507 0.0965074,0 0.11029412,-0.013787 0.15165441,-0.1792279 0.2757353,-0.9237132 0.66176474,-1.2408088 1.00643384,-1.2408088 0.096507,0 0.2481618,0.013787 0.2481618,0.3308823 0,0.2481618 -0.1102942,0.5376838 -0.179228,0.703125 -0.4411765,1.171875 -0.5514706,1.6268383 -0.5514706,2.0128677 0,0.90992644 0.6617647,1.25459555 1.40625,1.25459555 0.179228,0 0.647978,0 1.0477941,-0.703125 0.2481618,0.64797794 0.9375,0.703125 1.2408089,0.703125 0.7444853,0 1.1856617,-0.63419117 1.4476103,-1.22702205 0.3308823,-0.7720588 0.6617647,-2.109375 0.6617647,-2.5919118 0,-0.5514706 -0.2757353,-0.703125 -0.4411765,-0.703125 -0.2481618,0 -0.4963235,0.2619486 -0.4963235,0.4825368 0,0.1378676 0.055147,0.1930147 0.1378676,0.2757353 0.1102941,0.1102941 0.3722427,0.3584559 0.3722427,0.8409926 0,0.3446692 -0.2895221,1.3235294 -0.5514706,1.81985298 -0.2619486,0.53768382 -0.6066177,0.88235294 -1.1029412,0.88235294 -0.46875,0 -0.7306985,-0.30330883 -0.7306985,-0.86856618 0,-0.27573534 0.068934,-0.59283084 0.1102941,-0.73069854 z m 0,0"
       style="fill:#000000;fill-opacity:1;fill-rule:nonzero;stroke:none"
       aria-label="w"
       transform="matrix(1.1333333,0,0,1.1333333,87.032067,108.03847)" />
    <path
       id="path11"
       d="m 1.901057,-2.3310202 c 0.5514706,0 0.9375,0.3722426 0.9375,1.1167279 0,0.8685662 -0.4963235,1.13051473 -0.9099265,1.13051473 -0.2757353,0 -0.8961397,-0.08272059 -1.18566175,-0.48253677 0.33088235,-0.0275735 0.39981615,-0.24816176 0.39981615,-0.39981617 0,-0.22058829 -0.16544115,-0.38602939 -0.37224262,-0.38602939 -0.20680147,0 -0.39981618,0.1240809 -0.39981618,0.41360291 0,0.64797795 0.7306985,1.07536765 1.5716912,1.07536765 0.9788603,0 1.640625,-0.64797794 1.640625,-1.35110296 0,-0.5376838 -0.4411765,-1.0753676 -1.2132353,-1.2408088 0.7306985,-0.2619485 0.992647,-0.7858456 0.992647,-1.2132353 0,-0.5514706 -0.6341911,-0.9650735 -1.40625,-0.9650735 -0.7720588,0 -1.36488966,0.3722426 -1.36488966,0.9375 0,0.234375 0.15165441,0.3722426 0.35845588,0.3722426 0.22058828,0 0.35845588,-0.1654412 0.35845588,-0.3584559 0,-0.2068014 -0.1378676,-0.3446691 -0.35845588,-0.3584558 0.24816178,-0.3170956 0.73069848,-0.3860295 0.99264708,-0.3860295 0.3033088,0 0.7444853,0.1516545 0.7444853,0.7582721 0,0.2895221 -0.096507,0.6066176 -0.2757353,0.8272059 -0.234375,0.2619485 -0.4273897,0.2757353 -0.7720588,0.3033088 -0.179228,0.013787 -0.1930148,0.013787 -0.2205883,0.013787 -0.013787,0 -0.068934,0.013787 -0.068934,0.096507 0,0.096507 0.055147,0.096507 0.1792279,0.096507 z m 0,0"
       style="fill:#000000;fill-opacity:1;fill-rule:nonzero;stroke:none"
       aria-label="3"
       transform="matrix(1.1333333,0,0,1.1333333,95.115,109.73167)" />
    <path
       id="path12"
       d="m 3.0621801,-4.3576746 c 0,-0.1240809 -0.08272,-0.2619486 -0.2757352,-0.2619486 -0.2068015,0 -0.3860295,0.1930147 -0.3860295,0.3722427 0,0.1102941 0.082721,0.2757353 0.2757353,0.2757353 0.179228,0 0.3860294,-0.1930147 0.3860294,-0.3860294 z M 1.5869963,0.34361213 C 1.4629154,0.8261489 1.0906728,1.2259651 0.69085662,1.2259651 c -0.0965074,0 -0.17922794,-0.013787 -0.26194853,-0.04136 0.1930147,-0.082721 0.24816176,-0.24816179 0.24816176,-0.3584559 0,-0.16544118 -0.13786764,-0.26194853 -0.27573529,-0.26194853 -0.22058824,0 -0.39981618,0.1930147 -0.39981618,0.41360294 0,0.27573529 0.2757353,0.44117649 0.68933824,0.44117649 0.41360298,0 1.24080878,-0.2481618 1.44761028,-1.1029412 l 0.6341912,-2.4954044 c 0.013787,-0.068934 0.027573,-0.1378677 0.027573,-0.2481618 0,-0.3722426 -0.3170956,-0.6479779 -0.7444853,-0.6479779 -0.7720588,0 -1.21323527,0.9650735 -1.21323527,1.0615809 0,0.096507 0.0965073,0.096507 0.11029412,0.096507 0.0827205,0 0.0965073,-0.027573 0.13786765,-0.1240809 0.1792279,-0.4136029 0.5376838,-0.8409926 0.9512868,-0.8409926 0.1654411,0 0.234375,0.1240809 0.234375,0.3446691 0,0.068934 -0.013787,0.1654412 -0.027574,0.2068015 z m 0,0"
       style="fill:#000000;fill-opacity:1;fill-rule:nonzero;stroke:none"
       aria-label="j"
       transform="matrix(1.1333333,0,0,1.1333333,99.615467,109.73167)" />
    <path
       id="path13"
       d="m 12.15184,-117.42122 c 0,6.71138 -5.44048,12.15186 -12.15184,12.15186 -6.71136,0 -12.15184,-5.44048 -12.15184,-12.15186 0,-6.71136 5.44048,-12.15185 12.15184,-12.15185 6.71136,0 12.15184,5.44049 12.15184,12.15185 z"
       style="fill:#dbfda6;fill-opacity:1;fill-rule:nonzero;stroke:#008f45;stroke-width:0.74721;stroke-linecap:butt;stroke-linejoin:miter;stroke-miterlimit:10;stroke-dasharray:none;stroke-opacity:1"
       transform="matrix(1.1333333,0,0,-1.1333333,95.702067,35.249)" />
    <path
       id="path14"
       d="m 4.6036562,-3.3770882 c 0.055147,-0.2205883 0.1516545,-0.5928309 0.1516545,-0.647978 0,-0.1792279 -0.1378677,-0.2757353 -0.2895221,-0.2757353 -0.1240809,0 -0.3033088,0.082721 -0.3722426,0.2895221 -0.027574,0.068934 -0.4963236,1.9715073 -0.5652574,2.2334559 -0.068934,0.289522 -0.096507,0.46875 -0.096507,0.6479779 0,0.1102941 0,0.13786766 0.013787,0.17922795 -0.2205882,0.53768383 -0.523897,0.84099265 -0.9099265,0.84099265 -0.7996323,0 -0.7996323,-0.73069853 -0.7996323,-0.9099265 0,-0.3170956 0.04136,-0.703125 0.5101103,-1.930147 0.1102941,-0.3033089 0.1792279,-0.4411765 0.1792279,-0.6341912 0,-0.4549632 -0.3308823,-0.8272059 -0.8272059,-0.8272059 -0.93749996,0 -1.3097426,1.4476103 -1.3097426,1.5441177 0,0.096507 0.0965073,0.096507 0.12408088,0.096507 0.0965073,0 0.11029412,-0.013787 0.15165441,-0.1792279 0.2757353,-0.9237133 0.66176471,-1.2408089 1.00643381,-1.2408089 0.096507,0 0.2481618,0.013787 0.2481618,0.3308824 0,0.2481618 -0.1102941,0.5376838 -0.179228,0.703125 -0.4411764,1.171875 -0.5514706,1.6268382 -0.5514706,2.0128676 0,0.90992652 0.6617648,1.25459564 1.40625,1.25459564 0.179228,0 0.647978,0 1.0477942,-0.703125 0.2481617,0.64797794 0.9375,0.703125 1.2408088,0.703125 0.7444853,0 1.1856618,-0.63419118 1.4476103,-1.22702204 0.3308823,-0.7720588 0.6617647,-2.109375 0.6617647,-2.5919118 0,-0.5514706 -0.2757353,-0.703125 -0.4411765,-0.703125 -0.2481617,0 -0.4963235,0.2619485 -0.4963235,0.4825368 0,0.1378676 0.055147,0.1930147 0.1378676,0.2757353 0.1102942,0.1102941 0.3722427,0.3584559 0.3722427,0.8409926 0,0.3446691 -0.2895221,1.3235294 -0.5514706,1.81985296 -0.2619485,0.53768382 -0.6066177,0.88235294 -1.1029412,0.88235294 -0.46875,0 -0.7306985,-0.30330882 -0.7306985,-0.86856618 0,-0.27573532 0.068934,-0.59283092 0.1102941,-0.73069852 z m 0,0"
       style="fill:#000000;fill-opacity:1;fill-rule:nonzero;stroke:none"
       aria-label="w"
       transform="matrix(1.1333333,0,0,1.1333333,87.684867,169.13987)" />
    <path
       id="path15"
       d="m 2.262557,-4.3550846 c 0,-0.1102941 -0.082721,-0.2619485 -0.2757353,-0.2619485 -0.1930147,0 -0.3998162,0.179228 -0.3998162,0.3722427 0,0.1240808 0.096507,0.2757353 0.2895221,0.2757353 0.1930147,0 0.3860294,-0.2068015 0.3860294,-0.3860295 z m -1.42003678,3.54319857 c -0.0275735,0.0827206 -0.0689338,0.16544118 -0.0689338,0.28952206 0,0.33088235 0.27573528,0.59283088 0.66176468,0.59283088 0.703125,0 1.0064338,-0.96507353 1.0064338,-1.06158088 0,-0.0965073 -0.082721,-0.0965073 -0.1102941,-0.0965073 -0.096507,0 -0.1102941,0.04136 -0.1378676,0.12408089 -0.1516545,0.55147059 -0.46875,0.84099265 -0.7306986,0.84099265 -0.1378676,0 -0.1792279,-0.0965074 -0.1792279,-0.24816177 0,-0.15165441 0.055147,-0.28952206 0.1102941,-0.44117647 0.068934,-0.1930147 0.1516544,-0.3860294 0.2205882,-0.5652574 0.068934,-0.1654412 0.3170956,-0.7996323 0.3446692,-0.8823529 0.027573,-0.068934 0.04136,-0.1516544 0.04136,-0.2205883 0,-0.3308823 -0.2757353,-0.5928308 -0.6617648,-0.5928308 -0.68933817,0 -1.00643375,0.9512867 -1.00643375,1.0615808 0,0.096507 0.0965073,0.096507 0.11029411,0.096507 0.0965074,0 0.11029412,-0.04136 0.12408089,-0.1102941 0.1930147,-0.6066177 0.49632355,-0.8547794 0.75827205,-0.8547794 0.1102941,0 0.1654412,0.055147 0.1654412,0.2481617 0,0.1516544 -0.04136,0.2619486 -0.2068015,0.6893383 z M 5.878136,-4.3550846 c 0,-0.1240808 -0.082721,-0.2619485 -0.2757353,-0.2619485 -0.2068014,0 -0.3860294,0.1930147 -0.3860294,0.3722427 0,0.1102941 0.082721,0.2757353 0.2757353,0.2757353 0.179228,0 0.3860294,-0.1930148 0.3860294,-0.3860295 z M 4.4029522,0.34620221 C 4.2788713,0.82873897 3.9066287,1.2285551 3.5068125,1.2285551 c -0.096507,0 -0.1792279,-0.013787 -0.2619485,-0.04136 0.1930147,-0.082721 0.2481617,-0.24816181 0.2481617,-0.35845593 0,-0.16544118 -0.1378676,-0.26194853 -0.2757353,-0.26194853 -0.2205882,0 -0.3998161,0.19301471 -0.3998161,0.41360294 0,0.27573532 0.2757353,0.44117652 0.6893382,0.44117652 0.4136029,0 1.2408088,-0.2481618 1.4476103,-1.10294122 L 5.588614,-2.1767757 c 0.013787,-0.068934 0.027573,-0.1378677 0.027573,-0.2481618 0,-0.3722426 -0.3170956,-0.6479779 -0.7444853,-0.6479779 -0.7720588,0 -1.2132353,0.9650735 -1.2132353,1.0615808 0,0.096507 0.096507,0.096507 0.1102941,0.096507 0.082721,0 0.096507,-0.027574 0.1378677,-0.1240809 0.1792279,-0.4136029 0.5376838,-0.8409926 0.9512867,-0.8409926 0.1654412,0 0.234375,0.1240808 0.234375,0.3446691 0,0.068934 -0.013787,0.1654412 -0.027574,0.2068015 z m 0,0"
       style="fill:#000000;fill-opacity:1;fill-rule:nonzero;stroke:none"
       aria-label="ij"
       transform="matrix(1.1333333,0,0,1.1333333,95.7678,170.8342)" />
    <path
       id="path16"
       d="m 3.0456471,-1.2408529 c 0,-0.6755515 -0.5514706,-1.2132353 -1.2132353,-1.2132353 -0.6755515,0 -1.21323533,0.5376838 -1.21323533,1.2132353 0,0.66176466 0.53768383,1.19944849 1.21323533,1.19944849 0.6617647,0 1.2132353,-0.53768383 1.2132353,-1.19944849 z m 5.0528492,0 c 0,-0.6755515 -0.5514706,-1.2132353 -1.2132353,-1.2132353 -0.6755514,0 -1.2132353,0.5376838 -1.2132353,1.2132353 0,0.66176466 0.5376839,1.19944849 1.2132353,1.19944849 0.6617647,0 1.2132353,-0.53768383 1.2132353,-1.19944849 z m 5.0528497,0 c 0,-0.6755515 -0.551471,-1.2132353 -1.213236,-1.2132353 -0.675551,0 -1.213235,0.5376838 -1.213235,1.2132353 0,0.66176466 0.537684,1.19944849 1.213235,1.19944849 0.661765,0 1.213236,-0.53768383 1.213236,-1.19944849 z m 0,0"
       style="fill:#000000;fill-opacity:1;fill-rule:nonzero;stroke:none"
       aria-label="•••"
       transform="matrix(0,-1.1333333,1.1333333,0,97.0938,145.57673)" />
    <path
       id="path17"
       d="M -18.24266,0 H -56.69362"
       style="fill:none;stroke:#808080;stroke-width:0.99628;stroke-linecap:butt;stroke-linejoin:miter;stroke-miterlimit:10;stroke-dasharray:none;stroke-opacity:1"
       transform="matrix(1.1333333,0,0,-1.1333333,95.702067,35.249)" />
    <path
       id="path18"
       d="M 5.20058,0 C 3.65962,0.28891 1.15567,1.15567 -0.57784,2.1669 V -2.1669 C 1.15567,-1.15567 3.65962,-0.28891 5.20058,0"
       style="fill:#808080;fill-opacity:1;fill-rule:nonzero;stroke:none"
       transform="matrix(1.1333333,0,0,-1.1333333,75.027052,35.249)" />
    <path
       id="path19"
       d="m 3.3241415,-3.0067224 c 0.068934,-0.2619486 0.2895221,-1.1856618 0.9926471,-1.1856618 0.055147,0 0.2895221,0 0.4963235,0.1378677 -0.2757353,0.04136 -0.46875,0.289522 -0.46875,0.5376838 0,0.1516544 0.096507,0.3446691 0.3722427,0.3446691 0.2205882,0 0.5376838,-0.1792279 0.5376838,-0.5790441 0,-0.5101103 -0.5928309,-0.6617647 -0.9237132,-0.6617647 -0.5790442,0 -0.9237133,0.5376838 -1.0477942,0.758272 -0.2481617,-0.6479779 -0.7858455,-0.758272 -1.0753676,-0.758272 -1.0340074,0 -1.61305147,1.2959559 -1.61305147,1.5441176 0,0.096507 0.11029412,0.096507 0.12408088,0.096507 0.0827206,0 0.11029412,-0.013787 0.12408089,-0.1102941 0.3446691,-1.0615809 1.0064338,-1.3097427 1.3373162,-1.3097427 0.1930147,0 0.5376838,0.096507 0.5376838,0.6755515 0,0.3033088 -0.1654412,0.9788603 -0.5376838,2.3713235 -0.1516544,0.62040442 -0.5101103,1.03400736 -0.9375,1.03400736 -0.068934,0 -0.28952209,0 -0.49632356,-0.12408088 0.24816177,-0.0551471 0.45496326,-0.26194853 0.45496326,-0.53768382 0,-0.27573526 -0.20680149,-0.35845586 -0.3584559,-0.35845586 -0.30330883,0 -0.55147059,0.2619485 -0.55147059,0.57904409 0,0.45496324 0.49632353,0.66176471 0.93749999,0.66176471 0.6617647,0 1.0202206,-0.703125 1.0477941,-0.75827206 0.1240809,0.37224265 0.4825368,0.75827206 1.0753677,0.75827206 1.0202206,0 1.5992647,-1.2821691 1.5992647,-1.5303309 0,-0.1102941 -0.096507,-0.1102941 -0.1240809,-0.1102941 -0.096507,0 -0.1102941,0.04136 -0.1240809,0.1102941 -0.3308823,1.07536766 -1.0064338,1.30974266 -1.3373162,1.30974266 -0.3860294,0 -0.5376838,-0.31709559 -0.5376838,-0.6617647 0,-0.22058824 0.055147,-0.42738976 0.1654412,-0.86856616 z m 0,0"
       style="fill:#000000;fill-opacity:1;fill-rule:nonzero;stroke:none"
       aria-label="x"
       transform="matrix(1.1333333,0,0,1.1333333,15.603733,36.8334)" />
    <path
       id="path20"
       d="m 2.3452151,-4.438682 c 0,-0.1792279 -0.027574,-0.1930147 -0.2205883,-0.1930147 -0.4411764,0.4411765 -1.0753676,0.4411765 -1.36488967,0.4411765 v 0.2619485 c 0.16544118,0 0.63419117,0 1.02022057,-0.2068015 v 3.5707721 c 0,0.22058823 0,0.31709559 -0.703125,0.31709559 H 0.81488419 V 6.5625e-4 C 0.93896507,-0.01313051 1.7937445,-0.02691728 2.055693,-0.02691728 c 0.2068015,0 1.0891544,0.01378677 1.2408088,0.02757353 V -0.24750551 H 3.0345533 c -0.6893382,0 -0.6893382,-0.0965074 -0.6893382,-0.31709559 z m 0,0"
       style="fill:#000000;fill-opacity:1;fill-rule:nonzero;stroke:none"
       aria-label="1"
       transform="matrix(1.1333333,0,0,1.1333333,22.056933,38.5266)" />
    <path
       id="path21"
       d="M -18.24266,-31.75343 H -56.69362"
       style="fill:none;stroke:#808080;stroke-width:0.99628;stroke-linecap:butt;stroke-linejoin:miter;stroke-miterlimit:10;stroke-dasharray:none;stroke-opacity:1"
       transform="matrix(1.1333333,0,0,-1.1333333,95.702067,35.249)" />
    <path
       id="path22"
       d="M 5.20058,0 C 3.65962,0.28891 1.15567,1.15567 -0.57784,2.1669 V -2.1669 C 1.15567,-1.15567 3.65962,-0.28891 5.20058,0"
       style="fill:#808080;fill-opacity:1;fill-rule:nonzero;stroke:none"
       transform="matrix(1.1333333,0,0,-1.1333333,75.027052,71.236221)" />
    <path
       id="path23"
       d="m 3.3241415,-3.0053566 c 0.068934,-0.2619485 0.2895221,-1.1856618 0.9926471,-1.1856618 0.055147,0 0.2895221,0 0.4963235,0.1378677 -0.2757353,0.04136 -0.46875,0.289522 -0.46875,0.5376838 0,0.1516544 0.096507,0.3446691 0.3722427,0.3446691 0.2205882,0 0.5376838,-0.1792279 0.5376838,-0.5790441 0,-0.5101103 -0.5928309,-0.6617647 -0.9237132,-0.6617647 -0.5790442,0 -0.9237133,0.5376838 -1.0477942,0.758272 -0.2481617,-0.6479779 -0.7858455,-0.758272 -1.0753676,-0.758272 -1.0340074,0 -1.61305147,1.2959559 -1.61305147,1.5441176 0,0.096507 0.11029412,0.096507 0.12408088,0.096507 0.0827206,0 0.11029412,-0.013787 0.12408089,-0.1102941 0.3446691,-1.0615809 1.0064338,-1.3097427 1.3373162,-1.3097427 0.1930147,0 0.5376838,0.096507 0.5376838,0.6755515 0,0.3033088 -0.1654412,0.9788603 -0.5376838,2.3713235 -0.1516544,0.62040443 -0.5101103,1.03400737 -0.9375,1.03400737 -0.068934,0 -0.28952209,0 -0.49632356,-0.12408088 0.24816177,-0.0551471 0.45496326,-0.26194853 0.45496326,-0.53768383 0,-0.27573526 -0.20680149,-0.35845586 -0.3584559,-0.35845586 -0.30330883,0 -0.55147059,0.26194851 -0.55147059,0.5790441 0,0.45496324 0.49632353,0.66176471 0.93749999,0.66176471 0.6617647,0 1.0202206,-0.703125 1.0477941,-0.75827206 0.1240809,0.37224264 0.4825368,0.75827206 1.0753677,0.75827206 1.0202206,0 1.5992647,-1.28216911 1.5992647,-1.53033091 0,-0.1102941 -0.096507,-0.1102941 -0.1240809,-0.1102941 -0.096507,0 -0.1102941,0.04136 -0.1240809,0.1102941 -0.3308823,1.07536767 -1.0064338,1.30974267 -1.3373162,1.30974267 -0.3860294,0 -0.5376838,-0.31709559 -0.5376838,-0.66176471 0,-0.22058823 0.055147,-0.42738966 0.1654412,-0.86856616 z m 0,0"
       style="fill:#000000;fill-opacity:1;fill-rule:nonzero;stroke:none"
       aria-label="x"
       transform="matrix(1.1333333,0,0,1.1333333,15.603733,72.820133)" />
    <path
       id="path24"
       d="M 3.5308768,-1.269807 H 3.2827151 c -0.013787,0.1516544 -0.082721,0.56525737 -0.179228,0.63419119 -0.055147,0.0413603 -0.5928309,0.0413603 -0.6893382,0.0413603 H 1.1319798 C 1.8626783,-1.2422335 2.1108401,-1.4352482 2.524443,-1.7661305 c 0.5238971,-0.413603 1.0064338,-0.8409927 1.0064338,-1.5027574 0,-0.8547794 -0.7444853,-1.3648897 -1.640625,-1.3648897 -0.8685661,0 -1.44761026,0.6066177 -1.44761026,1.2545956 0,0.3446691 0.30330883,0.3860294 0.37224265,0.3860294 0.16544118,0 0.37224261,-0.1240809 0.37224261,-0.3722426 0,-0.1240809 -0.055147,-0.3722427 -0.4136029,-0.3722427 0.20680147,-0.4963235 0.6893382,-0.6479779 1.0202206,-0.6479779 0.6893382,0 1.0477941,0.5514706 1.0477941,1.1167279 0,0.6066177 -0.4273897,1.0891544 -0.6479779,1.3373162 l -1.68198533,1.65441177 c -0.0689338,0.0689338 -0.0689338,0.0827206 -0.0689338,0.2757353 H 3.3102886 Z m 0,0"
       style="fill:#000000;fill-opacity:1;fill-rule:nonzero;stroke:none"
       aria-label="2"
       transform="matrix(1.1333333,0,0,1.1333333,22.056933,74.513333)" />
    <path
       id="path25"
       d="M -18.24266,-63.50687 H -56.69362"
       style="fill:none;stroke:#808080;stroke-width:0.99628;stroke-linecap:butt;stroke-linejoin:miter;stroke-miterlimit:10;stroke-dasharray:none;stroke-opacity:1"
       transform="matrix(1.1333333,0,0,-1.1333333,95.702067,35.249)" />
    <path
       id="path26"
       d="M 5.20058,0 C 3.65962,0.28891 1.15567,1.15567 -0.57784,2.1669 V -2.1669 C 1.15567,-1.15567 3.65962,-0.28891 5.20058,0"
       style="fill:#808080;fill-opacity:1;fill-rule:nonzero;stroke:none"
       transform="matrix(1.1333333,0,0,-1.1333333,75.027052,107.22345)" />
    <path
       id="path27"
       d="m 3.3241415,-3.0039908 c 0.068934,-0.2619485 0.2895221,-1.1856618 0.9926471,-1.1856618 0.055147,0 0.2895221,0 0.4963235,0.1378677 -0.2757353,0.04136 -0.46875,0.289522 -0.46875,0.5376838 0,0.1516544 0.096507,0.3446691 0.3722427,0.3446691 0.2205882,0 0.5376838,-0.1792279 0.5376838,-0.5790441 0,-0.5101103 -0.5928309,-0.6617647 -0.9237132,-0.6617647 -0.5790442,0 -0.9237133,0.5376838 -1.0477942,0.758272 -0.2481617,-0.6479779 -0.7858455,-0.758272 -1.0753676,-0.758272 -1.0340074,0 -1.61305147,1.2959559 -1.61305147,1.5441176 0,0.096507 0.11029412,0.096507 0.12408088,0.096507 0.0827206,0 0.11029412,-0.013787 0.12408089,-0.1102941 0.3446691,-1.0615809 1.0064338,-1.3097427 1.3373162,-1.3097427 0.1930147,0 0.5376838,0.096507 0.5376838,0.6755515 0,0.3033088 -0.1654412,0.9788603 -0.5376838,2.3713235 -0.1516544,0.62040444 -0.5101103,1.03400738 -0.9375,1.03400738 -0.068934,0 -0.28952209,0 -0.49632356,-0.12408088 0.24816177,-0.0551471 0.45496326,-0.26194853 0.45496326,-0.53768383 0,-0.27573527 -0.20680149,-0.35845587 -0.3584559,-0.35845587 -0.30330883,0 -0.55147059,0.26194852 -0.55147059,0.57904411 0,0.45496323 0.49632353,0.6617647 0.93749999,0.6617647 0.6617647,0 1.0202206,-0.703125 1.0477941,-0.75827205 0.1240809,0.37224264 0.4825368,0.75827205 1.0753677,0.75827205 1.0202206,0 1.5992647,-1.28216911 1.5992647,-1.53033091 0,-0.1102941 -0.096507,-0.1102941 -0.1240809,-0.1102941 -0.096507,0 -0.1102941,0.04136 -0.1240809,0.1102941 -0.3308823,1.07536768 -1.0064338,1.30974268 -1.3373162,1.30974268 -0.3860294,0 -0.5376838,-0.31709559 -0.5376838,-0.66176471 0,-0.22058823 0.055147,-0.42738967 0.1654412,-0.86856617 z m 0,0"
       style="fill:#000000;fill-opacity:1;fill-rule:nonzero;stroke:none"
       aria-label="x"
       transform="matrix(1.1333333,0,0,1.1333333,15.603733,108.80687)" />
    <path
       id="path28"
       d="m 1.9040386,-2.3300221 c 0.5514706,0 0.9375,0.3722427 0.9375,1.116728 0,0.86856616 -0.4963235,1.13051469 -0.9099265,1.13051469 -0.2757353,0 -0.8961397,-0.08272059 -1.18566173,-0.48253677 0.33088233,-0.0275735 0.39981613,-0.24816176 0.39981613,-0.39981617 0,-0.22058825 -0.16544113,-0.38602945 -0.3722426,-0.38602945 -0.20680147,0 -0.39981618,0.1240809 -0.39981618,0.41360298 0,0.64797794 0.73069848,1.07536764 1.57169118,1.07536764 0.9788603,0 1.640625,-0.64797794 1.640625,-1.35110292 0,-0.5376838 -0.4411765,-1.0753677 -1.2132353,-1.2408088 0.7306985,-0.2619486 0.9926471,-0.7858456 0.9926471,-1.2132353 0,-0.5514706 -0.6341912,-0.9650736 -1.40625,-0.9650736 -0.7720589,0 -1.36488974,0.3722427 -1.36488974,0.9375 0,0.234375 0.15165441,0.3722427 0.35845588,0.3722427 0.22058826,0 0.35845586,-0.1654412 0.35845586,-0.3584559 0,-0.2068015 -0.1378676,-0.3446691 -0.35845586,-0.3584559 0.24816176,-0.3170956 0.73069856,-0.3860294 0.99264706,-0.3860294 0.3033088,0 0.7444853,0.1516544 0.7444853,0.7582721 0,0.289522 -0.096507,0.6066176 -0.2757353,0.8272058 -0.234375,0.2619486 -0.4273897,0.2757353 -0.7720588,0.3033089 -0.179228,0.013787 -0.1930147,0.013787 -0.2205883,0.013787 -0.013787,0 -0.068934,0.013787 -0.068934,0.096507 0,0.096507 0.055147,0.096507 0.179228,0.096507 z m 0,0"
       style="fill:#000000;fill-opacity:1;fill-rule:nonzero;stroke:none"
       aria-label="3"
       transform="matrix(1.1333333,0,0,1.1333333,22.056933,110.50007)" />
    <path
       id="path29"
       d="M 6.6735937,-7.2977941e-4 8.3280055,-6.5356563 h -0.9375 L 6.191057,-1.2277518 4.7020864,-6.5356563 H 3.8059467 L 2.3583364,-1.2277518 1.1313143,-6.5356563 H 0.19381434 L 1.8757996,-7.2977941e-4 H 2.7857261 L 4.2471232,-5.3637813 5.7498805,-7.2977941e-4 Z M 12.784577,-2.096318 c 0,-0.7169118 -0.04136,-1.1443015 -0.179228,-1.5027574 -0.303309,-0.7720588 -1.02022,-1.227022 -1.902573,-1.227022 -1.3097429,0 -2.1507356,0.992647 -2.1507356,2.5367647 0,1.54411763 0.8134192,2.49540439 2.1369486,2.49540439 1.075368,0 1.819853,-0.60661765 1.999081,-1.62683819 h -0.744485 c -0.206802,0.62040437 -0.634192,0.93749996 -1.227023,0.93749996 -0.482536,0 -0.8823524,-0.22058824 -1.1305142,-0.60661766 C 9.4068199,-1.3656195 9.337886,-1.627568 9.337886,-2.096318 Z M 9.3516728,-2.7029357 c 0.055147,-0.8685661 0.5928309,-1.4338235 1.3373162,-1.4338235 0.744485,0 1.309743,0.6066177 1.309743,1.3786765 0,0.013787 0,0.027573 -0.01379,0.055147 z m 5.1665902,-1.9990808 h -0.730699 v 4.70128672059 h 0.730699 z m 0,-1.8336398 h -0.744485 v 0.9375 h 0.744485 z m 4.346277,1.8336398 v 0.6893382 c -0.386029,-0.5514706 -0.840992,-0.8134191 -1.433823,-0.8134191 -1.199449,0 -1.999081,1.0340073 -1.999081,2.5643382 0,0.7582721 0.206801,1.39246324 0.592831,1.83363971 0.344669,0.39981618 0.840993,0.63419118 1.337316,0.63419118 0.592831,0 1.006434,-0.24816176 1.433824,-0.84099265 v 0.234375 c 0,0.64797795 -0.08272,1.02022059 -0.275736,1.28216912 -0.193014,0.27573534 -0.579044,0.44117644 -1.034007,0.44117644 -0.344669,0 -0.647978,-0.082721 -0.854779,-0.2481617 C 16.465643,0.93677022 16.382923,0.81268934 16.341562,0.53695404 H 15.58329 c 0.08272,0.88235296 0.772059,1.42003676 1.875,1.42003676 0.689339,0 1.295956,-0.234375 1.599265,-0.6066176 0.358456,-0.42738974 0.496324,-1.02022063 0.496324,-2.1231618 v -3.9292279 z m -1.351103,0.5652573 c 0.799633,0 1.28217,0.6755515 1.28217,1.8474265 0,1.1305147 -0.496324,1.80606616 -1.28217,1.80606616 -0.813419,0 -1.309742,-0.68933826 -1.309742,-1.83363976 0,-1.1305147 0.51011,-1.8198529 1.309742,-1.8198529 z m 3.264017,-2.3988971 v 6.53492652059 h 0.744485 V -2.5926415 c 0,-0.9512868 0.510111,-1.585478 1.282169,-1.585478 0.234375,0 0.482537,0.082721 0.661765,0.2205882 0.206802,0.1516545 0.303309,0.3722427 0.303309,0.703125 v 3.25367652059 h 0.744485 V -3.5439283 c 0,-0.7996324 -0.565257,-1.2821691 -1.475184,-1.2821691 -0.661764,0 -1.075367,0.2068014 -1.516544,0.7720588 v -2.4816177 z m 6.638327,1.8336398 h -0.772059 v -1.2821692 h -0.744485 v 1.2821692 h -0.634191 v 0.6204044 h 0.634191 v 3.5431985 c 0,0.46875 0.330882,0.74448529 0.909927,0.74448529 0.179228,0 0.358455,-0.0137868 0.606617,-0.0689338 v -0.62040441 c -0.09651,0.0275735 -0.220588,0.0413603 -0.358456,0.0413603 -0.317095,0 -0.413603,-0.0965074 -0.413603,-0.42738971 V -4.0816121 h 0.772059 z m 4.14637,1.3097426 c -0.01379,-0.9237132 -0.620405,-1.4338235 -1.709559,-1.4338235 -1.089155,0 -1.79228,0.5652573 -1.79228,1.4338235 0,0.7306985 0.372243,1.0753676 1.475184,1.3511029 l 0.703125,0.1654412 c 0.523897,0.1240809 0.730699,0.3170956 0.730699,0.6617647 0,0.42738973 -0.441177,0.73069856 -1.102941,0.73069856 -0.399817,0 -0.730699,-0.12408089 -0.923714,-0.31709559 -0.12408,-0.13786765 -0.165441,-0.26194857 -0.220588,-0.59283087 h -0.785845 c 0.04136,1.07536763 0.647978,1.59926469 1.875,1.59926469 1.185661,0 1.930147,-0.57904412 1.930147,-1.48897059 0,-0.703125 -0.38603,-1.0891544 -1.32353,-1.3097426 l -0.716912,-0.1654412 c -0.606617,-0.1516544 -0.868566,-0.3446691 -0.868566,-0.6755515 0,-0.4273897 0.38603,-0.703125 0.992647,-0.703125 0.606618,0 0.923714,0.2619485 0.9375,0.7444853 z m 0,0"
       style="fill:#000000;fill-opacity:1;fill-rule:nonzero;stroke:none"
       aria-label="Weights"
       transform="matrix(1.1333333,0,0,1.1333333,77.503,11.004733)" />
    <path
       id="path30"
       d="M 1.7374596,-6.5345092 H 0.89646691 V 4.1727941e-4 H 1.7374596 Z m 1.3752297,1.8336397 V 4.1727941e-4 H 3.8709614 V -2.5914945 c 0,-0.9512868 0.4963235,-1.5854779 1.2683823,-1.5854779 0.5928309,0 0.9788603,0.3584559 0.9788603,0.9237132 V 4.1727941e-4 H 6.8626893 V -3.5427813 c 0,-0.7858455 -0.5928308,-1.2821691 -1.4889706,-1.2821691 -0.703125,0 -1.1580882,0.2619486 -1.5579044,0.9237133 v -0.7996324 z m 4.8494945,6.6590074 h 0.7582721 v -2.45404415 c 0.3860294,0.48253676 0.8272059,0.703125 1.4338231,0.703125 1.213236,0 2.012868,-0.97886029 2.012868,-2.46783085 0,-1.585478 -0.772059,-2.5643383 -2.012868,-2.5643383 -0.6341908,0 -1.1580878,0.2757353 -1.5027569,0.8409927 V -4.7008695 H 7.9621838 Z m 2.0680152,-6.09375 c 0.813419,0 1.351102,0.7306985 1.351102,1.8474264 0,1.0753677 -0.537683,1.79227945 -1.351102,1.79227945 -0.7996328,0 -1.3097431,-0.71691175 -1.3097431,-1.81985295 0,-1.1029412 0.5101103,-1.8198529 1.3097431,-1.8198529 z M 16.77882,4.1727941e-4 V -4.7008695 h -0.744485 v 2.6608456 c 0,0.9650735 -0.496324,1.59926471 -1.28217,1.59926471 -0.59283,0 -0.965073,-0.35845588 -0.965073,-0.92371321 v -3.3363971 h -0.744485 v 3.6259191 c 0,0.78584562 0.579044,1.28216915 1.502757,1.28216915 0.689338,0 1.130515,-0.24816176 1.571691,-0.85477941 V 4.1727941e-4 Z M 19.722294,-4.7008695 H 18.950235 V -5.9830386 H 18.20575 v 1.2821691 h -0.634191 v 0.6204044 h 0.634191 v 3.54319856 c 0,0.46875 0.330882,0.74448529 0.909926,0.74448529 0.179228,0 0.358456,-0.0137868 0.606618,-0.0689338 v -0.62040442 c -0.09651,0.0275735 -0.220588,0.0413603 -0.358456,0.0413603 -0.317095,0 -0.413603,-0.0965073 -0.413603,-0.42738971 V -4.0804651 h 0.772059 z m 4.149816,1.3097427 c -0.01379,-0.9237133 -0.620404,-1.4338236 -1.709559,-1.4338236 -1.089154,0 -1.792279,0.5652574 -1.792279,1.4338236 0,0.7306985 0.372243,1.0753676 1.475184,1.3511029 l 0.703125,0.1654412 c 0.523897,0.1240809 0.730698,0.3170956 0.730698,0.6617647 0,0.42738969 -0.441176,0.73069851 -1.102941,0.73069851 -0.399816,0 -0.730698,-0.12408088 -0.923713,-0.31709558 C 21.128544,-0.93708272 21.087184,-1.0611636 21.032037,-1.392046 h -0.785846 c 0.04136,1.07536769 0.647978,1.59926475 1.875,1.59926475 1.185662,0 1.930147,-0.57904412 1.930147,-1.48897055 0,-0.703125 -0.386029,-1.0891545 -1.323529,-1.3097427 l -0.716912,-0.1654412 c -0.606618,-0.1516544 -0.868566,-0.3446691 -0.868566,-0.6755514 0,-0.4273897 0.386029,-0.703125 0.992647,-0.703125 0.606618,0 0.923713,0.2619485 0.9375,0.7444853 z m 0,0"
       style="fill:#000000;fill-opacity:1;fill-rule:nonzero;stroke:none"
       aria-label="Inputs"
       transform="matrix(1.1333333,0,0,1.1333333,7.5230667,11.065933)" />
    <path
       id="path31"
       d="M -17.72603,-117.42122 H -56.69362"
       style="fill:none;stroke:#808080;stroke-width:0.99628;stroke-linecap:butt;stroke-linejoin:miter;stroke-miterlimit:10;stroke-dasharray:none;stroke-opacity:1"
       transform="matrix(1.1333333,0,0,-1.1333333,95.702067,35.249)" />
    <path
       id="path32"
       d="M 5.20058,0 C 3.65962,0.28891 1.15567,1.15567 -0.57784,2.1669 V -2.1669 C 1.15567,-1.15567 3.65962,-0.28891 5.20058,0"
       style="fill:#808080;fill-opacity:1;fill-rule:nonzero;stroke:none"
       transform="matrix(1.1333333,0,0,-1.1333333,75.612566,168.32638)" />
    <path
       id="path33"
       d="m 3.3223364,-3.0038474 c 0.068934,-0.2619486 0.2895221,-1.1856618 0.9926471,-1.1856618 0.055147,0 0.289522,0 0.4963235,0.1378677 -0.2757353,0.04136 -0.46875,0.289522 -0.46875,0.5376838 0,0.1516544 0.096507,0.3446691 0.3722426,0.3446691 0.2205883,0 0.5376839,-0.1792279 0.5376839,-0.5790441 0,-0.5101103 -0.5928309,-0.6617647 -0.9237133,-0.6617647 -0.5790441,0 -0.9237132,0.5376838 -1.0477941,0.758272 -0.2481618,-0.6479779 -0.7858456,-0.758272 -1.0753676,-0.758272 -1.0340074,0 -1.61305151,1.2959559 -1.61305151,1.5441176 0,0.096507 0.11029411,0.096507 0.12408088,0.096507 0.0827206,0 0.11029412,-0.013787 0.12408088,-0.1102941 0.34466915,-1.0615809 1.00643385,-1.3097427 1.33731615,-1.3097427 0.1930147,0 0.5376838,0.096507 0.5376838,0.6755515 0,0.3033088 -0.1654411,0.9788603 -0.5376838,2.3713235 -0.1516544,0.62040442 -0.5101103,1.03400736 -0.9375,1.03400736 -0.068934,0 -0.28952203,0 -0.4963235,-0.12408088 0.24816176,-0.0551471 0.4549632,-0.26194853 0.4549632,-0.53768382 0,-0.27573526 -0.20680144,-0.35845586 -0.35845585,-0.35845586 -0.30330882,0 -0.55147059,0.2619485 -0.55147059,0.57904409 0,0.45496324 0.49632353,0.66176471 0.93750004,0.66176471 0.6617647,0 1.0202205,-0.703125 1.0477941,-0.75827206 0.1240809,0.37224265 0.4825367,0.75827206 1.0753676,0.75827206 1.0202206,0 1.5992647,-1.2821691 1.5992647,-1.5303309 0,-0.1102941 -0.096507,-0.1102941 -0.1240809,-0.1102941 -0.096507,0 -0.1102941,0.04136 -0.1240808,0.1102941 -0.3308824,1.07536766 -1.0064339,1.30974266 -1.3373162,1.30974266 -0.3860294,0 -0.5376838,-0.31709559 -0.5376838,-0.6617647 0,-0.22058824 0.055147,-0.42738976 0.1654411,-0.86856616 z m 0,0"
       style="fill:#000000;fill-opacity:1;fill-rule:nonzero;stroke:none"
       aria-label="x"
       transform="matrix(1.1333333,0,0,1.1333333,16.910467,169.90827)" />
    <path
       id="path34"
       d="m 2.2606893,-4.3575331 c 0,-0.1102941 -0.082721,-0.2619485 -0.2757353,-0.2619485 -0.1930147,0 -0.3998161,0.1792279 -0.3998161,0.3722426 0,0.1240809 0.096507,0.2757353 0.289522,0.2757353 0.1930147,0 0.3860294,-0.2068014 0.3860294,-0.3860294 z m -1.42003673,3.54319854 c -0.0275735,0.0827206 -0.0689338,0.16544118 -0.0689338,0.28952206 0,0.33088235 0.27573523,0.59283088 0.66176473,0.59283088 0.703125,0 1.0064338,-0.96507353 1.0064338,-1.06158088 0,-0.0965074 -0.082721,-0.0965074 -0.1102941,-0.0965074 -0.096507,0 -0.1102942,0.04136 -0.1378677,0.12408093 -0.1516544,0.55147059 -0.46875,0.84099265 -0.7306985,0.84099265 -0.1378677,0 -0.179228,-0.0965074 -0.179228,-0.24816177 0,-0.15165441 0.055147,-0.28952206 0.1102942,-0.44117647 0.068934,-0.19301474 0.1516544,-0.38602944 0.2205882,-0.56525734 0.068934,-0.1654412 0.3170956,-0.7996324 0.3446691,-0.882353 0.027574,-0.068934 0.04136,-0.1516544 0.04136,-0.2205882 0,-0.3308823 -0.2757353,-0.5928309 -0.6617647,-0.5928309 -0.68933821,0 -1.0064338,0.9512868 -1.0064338,1.0615809 0,0.096507 0.0965073,0.096507 0.11029412,0.096507 0.0965073,0 0.11029411,-0.04136 0.12408088,-0.1102942 0.19301471,-0.6066176 0.4963235,-0.8547794 0.758272,-0.8547794 0.1102942,0 0.1654412,0.055147 0.1654412,0.2481618 0,0.1516544 -0.04136,0.2619485 -0.2068015,0.6893382 z m 0,0"
       style="fill:#000000;fill-opacity:1;fill-rule:nonzero;stroke:none"
       aria-label="i"
       transform="matrix(1.1333333,0,0,1.1333333,23.363667,171.6026)" />
    <path
       id="path35"
       d="m 3.0456471,-1.2403107 c 0,-0.6755514 -0.5514706,-1.2132353 -1.2132353,-1.2132353 -0.6755515,0 -1.21323533,0.5376839 -1.21323533,1.2132353 0,0.66176474 0.53768383,1.19944857 1.21323533,1.19944857 0.6617647,0 1.2132353,-0.53768383 1.2132353,-1.19944857 z m 5.0528492,0 c 0,-0.6755514 -0.5514706,-1.2132353 -1.2132353,-1.2132353 -0.6755514,0 -1.2132353,0.5376839 -1.2132353,1.2132353 0,0.66176474 0.5376839,1.19944857 1.2132353,1.19944857 0.6617647,0 1.2132353,-0.53768383 1.2132353,-1.19944857 z m 5.0528497,0 c 0,-0.6755514 -0.551471,-1.2132353 -1.213236,-1.2132353 -0.675551,0 -1.213235,0.5376839 -1.213235,1.2132353 0,0.66176474 0.537684,1.19944857 1.213235,1.19944857 0.661765,0 1.213236,-0.53768383 1.213236,-1.19944857 z m 0,0"
       style="fill:#000000;fill-opacity:1;fill-rule:nonzero;stroke:none"
       aria-label="•••"
       transform="matrix(0,-1.1333333,1.1333333,0,23.081467,145.57673)" />
    <path
       id="path36"
       d="m 91.08337,-58.7106 c 0,9.39343 -7.61465,17.00809 -17.00807,17.00809 -9.39343,0 -17.00809,-7.61466 -17.00809,-17.00809 0,-9.39342 7.61466,-17.00807 17.00809,-17.00807 9.39342,0 17.00807,7.61465 17.00807,17.00807 z"
       style="fill:#fde2f0;fill-opacity:1;fill-rule:nonzero;stroke:#d9534f;stroke-width:0.74721;stroke-linecap:butt;stroke-linejoin:miter;stroke-miterlimit:10;stroke-dasharray:none;stroke-opacity:1"
       transform="matrix(1.1333333,0,0,-1.1333333,95.702067,35.249)" />
    <path
       id="path37"
       d="M 4.1917463,5.3215956 0.66233456,9.692 c -0.0827206,0.1102941 -0.0965073,0.1240809 -0.0965073,0.1654412 0,0.1102941 0.0965073,0.1102941 0.27573529,0.1102941 H 9.0998346 L 9.954614,7.4861176 H 9.7064522 C 9.4582904,8.2306029 8.7965257,8.8372206 7.9417463,9.1267426 7.7900919,9.1818897 7.1007537,9.4162647 5.6255699,9.4162647 H 1.3930331 L 4.853511,5.1423676 c 0.068934,-0.08272 0.096507,-0.1240808 0.096507,-0.1516544 0,-0.04136 -0.013787,-0.055147 -0.068934,-0.1516544 L 1.6411949,0.39972059 h 3.9430147 c 1.1305147,0 3.4329044,0.0689338 4.1222426,1.93014701 H 9.954614 L 9.0998346,-9.5588235e-5 H 0.8415625 C 0.56582721,-9.5588235e-5 0.55204044,0.01369118 0.55204044,0.317 Z m 0,0"
       style="fill:#000000;fill-opacity:1;fill-rule:nonzero;stroke:none"
       aria-label="P"
       transform="matrix(1.1333333,0,0,1.1333333,173.69467,96.140733)" />
    <path
       id="path38"
       d="M 10.22055,-8.10034 56.37881,-44.68457"
       style="fill:none;stroke:#808080;stroke-width:0.99628;stroke-linecap:butt;stroke-linejoin:miter;stroke-miterlimit:10;stroke-dasharray:none;stroke-opacity:1"
       transform="matrix(1.1333333,0,0,-1.1333333,95.702067,35.249)" />
    <path
       id="path39"
       d="M 5.20058,0 C 3.65962,0.28891 1.15567,1.15567 -0.57784,2.1669 V -2.1669 C 1.15567,-1.15567 3.65962,-0.28891 5.20058,0"
       style="fill:#808080;fill-opacity:1;fill-rule:nonzero;stroke:none"
       transform="matrix(0.88813667,0.70392467,0.70392467,-0.88813667,159.59805,85.891501)" />
    <path
       id="path40"
       d="M 12.2556,-36.21335 52.85483,-50.98828"
       style="fill:none;stroke:#808080;stroke-width:0.99628;stroke-linecap:butt;stroke-linejoin:miter;stroke-miterlimit:10;stroke-dasharray:none;stroke-opacity:1"
       transform="matrix(1.1333333,0,0,-1.1333333,95.702067,35.249)" />
    <path
       id="path41"
       d="M 5.20058,0 C 3.65962,0.28891 1.15567,1.15567 -0.57784,2.1669 V -2.1669 C 1.15567,-1.15567 3.65962,-0.28891 5.20058,0"
       style="fill:#808080;fill-opacity:1;fill-rule:nonzero;stroke:none"
       transform="matrix(1.0649933,0.38755467,0.38755467,-1.0649933,155.60418,93.035706)" />
    <path
       id="path42"
       d="m 13.0142,-62.66428 38.52708,2.49503"
       style="fill:none;stroke:#808080;stroke-width:0.99628;stroke-linecap:butt;stroke-linejoin:miter;stroke-miterlimit:10;stroke-dasharray:none;stroke-opacity:1"
       transform="matrix(1.1333333,0,0,-1.1333333,95.702067,35.249)" />
    <path
       id="path43"
       d="M 5.20058,0 C 3.65962,0.28891 1.15567,1.15567 -0.57784,2.1669 V -2.1669 C 1.15567,-1.15567 3.65962,-0.28891 5.20058,0"
       style="fill:#808080;fill-opacity:1;fill-rule:nonzero;stroke:none"
       transform="matrix(1.130908,-0.07321333,-0.07321333,-1.130908,154.11552,103.44084)" />
    <path
       id="path44"
       d="m 9.8157,-109.64174 46.56311,36.90512"
       style="fill:none;stroke:#808080;stroke-width:0.99628;stroke-linecap:butt;stroke-linejoin:miter;stroke-miterlimit:10;stroke-dasharray:none;stroke-opacity:1"
       transform="matrix(1.1333333,0,0,-1.1333333,95.702067,35.249)" />
    <path
       id="path45"
       d="M 5.20058,0 C 3.65962,0.28891 1.15567,1.15567 -0.57784,2.1669 V -2.1669 C 1.15567,-1.15567 3.65962,-0.28891 5.20058,0"
       style="fill:#808080;fill-opacity:1;fill-rule:nonzero;stroke:none"
       transform="matrix(0.88813667,-0.70392467,-0.70392467,-0.88813667,159.59805,117.68385)" />
    <path
       id="path46"
       d="m 128.68152,-74.30133 h 31.18147 v 31.18147 h -31.18147 z"
       style="fill:#d1f3ff;fill-opacity:1;fill-rule:nonzero;stroke:#006395;stroke-width:0.74721;stroke-linecap:butt;stroke-linejoin:miter;stroke-miterlimit:10;stroke-dasharray:none;stroke-opacity:1"
       transform="matrix(1.1333333,0,0,-1.1333333,95.702067,35.249)" />
    <path
       id="path47"
       d="m 10.492938,-7.7894706 c 0.275735,0 0.951286,0 0.951286,-0.6617647 0,-0.4549632 -0.386029,-0.4549632 -0.758272,-0.4549632 H 6.1225331 c -3.1020221,0 -5.33547795,3.4466911 -5.33547795,5.8869485 0,1.7647059 1.13051475,3.22610294 2.99172795,3.22610294 2.4402573,0 5.1148897,-2.61948534 5.1148897,-5.72150734 0,-0.8134191 -0.1930147,-1.5992647 -0.6893382,-2.2748162 z M 3.8063566,-0.20675 c -1.0615809,0 -1.8198529,-0.7996324 -1.8198529,-2.2334559 0,-1.2408088 0.7444853,-5.3492647 3.7775735,-5.3492647 0.8961397,0 1.8887868,0.4273897 1.8887868,2.0266544 0,0.7169118 -0.3308824,2.4540441 -1.0615809,3.6534927 C 5.8467978,-0.88230147 4.7300699,-0.20675 3.8063566,-0.20675 Z m 0,0"
       style="fill:#000000;fill-opacity:1;fill-rule:nonzero;stroke:none"
       aria-label="σ"
       transform="matrix(1.1333333,0,0,1.1333333,252.27207,106.82807)" />
    <path
       id="path48"
       d="m 91.45699,-58.7106 h 31.65034"
       style="fill:none;stroke:#808080;stroke-width:0.99628;stroke-linecap:butt;stroke-linejoin:miter;stroke-miterlimit:10;stroke-dasharray:none;stroke-opacity:1"
       transform="matrix(1.1333333,0,0,-1.1333333,95.702067,35.249)" />
    <path
       id="path49"
       d="M 5.20058,0 C 3.65962,0.28891 1.15567,1.15567 -0.57784,2.1669 V -2.1669 C 1.15567,-1.15567 3.65962,-0.28891 5.20058,0"
       style="fill:#808080;fill-opacity:1;fill-rule:nonzero;stroke:none"
       transform="matrix(1.1333333,0,0,-1.1333333,235.22371,101.78768)" />
    <path
       id="path50"
       d="M 1.3222132,-0.82876654 C 1.8598971,-1.4078107 2.1494191,-1.6559724 2.507875,-1.9592813 c 0,-0.013787 0.6204044,-0.5376838 0.9788603,-0.9099264 0.9512868,-0.9237133 1.171875,-1.3924633 1.171875,-1.4338236 0,-0.1102941 -0.096507,-0.1102941 -0.1102941,-0.1102941 -0.068934,0 -0.1102941,0.027574 -0.1516544,0.1102941 -0.3033089,0.4825368 -0.5101103,0.647978 -0.7444853,0.647978 -0.2481618,0 -0.3584559,-0.1516544 -0.5101103,-0.3170956 -0.1930147,-0.234375 -0.3584559,-0.4411765 -0.6893383,-0.4411765 -0.7444853,0 -1.2132353,0.9375 -1.2132353,1.1443015 0,0.04136 0.04136,0.1102941 0.1240809,0.1102941 0.096507,0 0.1102941,-0.055147 0.1240809,-0.1102941 0.1930147,-0.4549632 0.7720588,-0.46875 0.8547794,-0.46875 0.2068015,0 0.3998162,0.068934 0.6204044,0.1516544 0.3998162,0.1516544 0.5101103,0.1516544 0.7720589,0.1516544 -0.3584559,0.4273897 -1.1994486,1.1443015 -1.3786765,1.2959559 l -0.8961397,0.8409927 c -0.68933825,0.66176466 -1.03400737,1.24080878 -1.03400737,1.3097426 0,0.09650736 0.0965074,0.09650736 0.12408088,0.09650736 0.0827206,0 0.0965073,-0.01378677 0.15165441,-0.12408089 0.234375,-0.35845588 0.53768378,-0.62040441 0.85477938,-0.62040441 0.2205883,0 0.3308824,0.0827206 0.5790442,0.37224265 0.1654411,0.20680147 0.3446691,0.37224265 0.6341911,0.37224265 0.9926471,0 1.5716912,-1.26838236 1.5716912,-1.53033086 0,-0.055147 -0.04136,-0.1102941 -0.1240809,-0.1102941 -0.096507,0 -0.1102941,0.068934 -0.1378676,0.1378676 -0.234375,0.64797794 -0.8685662,0.84099265 -1.1994486,0.84099265 -0.2068014,0 -0.3860294,-0.0689338 -0.5928308,-0.13786765 C 1.9564044,-0.81497978 1.80475,-0.85634007 1.5979485,-0.85634007 c -0.027573,0 -0.1792279,0 -0.2757353,0.0275735 z m 0,0"
       style="fill:#000000;fill-opacity:1;fill-rule:nonzero;stroke:none"
       aria-label="z"
       transform="matrix(1.1333333,0,0,1.1333333,217.36087,97.4588)" />
    <path
       id="path51"
       d="M 74.0753,-81.29286 V -108.3175"
       style="fill:none;stroke:#808080;stroke-width:0.99628;stroke-linecap:butt;stroke-linejoin:miter;stroke-miterlimit:10;stroke-dasharray:none;stroke-opacity:1"
       transform="matrix(1.1333333,0,0,-1.1333333,95.702067,35.249)" />
    <path
       id="path52"
       d="M 5.20058,0 C 3.65962,0.28891 1.15567,1.15567 -0.57784,2.1669 V -2.1669 C 1.15567,-1.15567 3.65962,-0.28891 5.20058,0"
       style="fill:#808080;fill-opacity:1;fill-rule:nonzero;stroke:none"
       transform="matrix(0,-1.1333333,-1.1333333,0,179.65407,127.38091)" />
    <path
       id="path53"
       d="m 2.1366562,-5.9158419 c 0.04136,-0.1240809 0.04136,-0.1378677 0.04136,-0.179228 0,-0.08272 -0.055147,-0.1240808 -0.1378676,-0.1240808 -0.1240809,0 -0.9099265,0.068934 -1.08915441,0.082721 -0.0965074,0.013787 -0.19301471,0.027573 -0.19301471,0.1792279 0,0.1102941 0.0965073,0.1102941 0.24816172,0.1102941 0.413603,0 0.413603,0.068934 0.413603,0.1516544 0,0.055147 0,0.068934 -0.055147,0.3033088 l -0.48253674,1.9025736 c -0.12408088,0.4963235 -0.234375,0.9512867 -0.33088235,1.3786764 -0.0689338,0.2205883 -0.12408088,0.4825368 -0.12408088,0.7720589 0,0.77205879 0.4273897,1.4338235 1.19944857,1.4338235 1.0477941,0 2.1920955,-1.2545956 2.1920955,-2.6056985 0,-0.9099265 -0.5652573,-1.4476103 -1.2408088,-1.4476103 -0.4549632,0 -0.8547794,0.3033088 -1.0615809,0.5101103 z M 1.392171,-2.9379007 c 0.2619485,-0.3584559 0.7169117,-0.7996324 1.171875,-0.7996324 0.4136029,0 0.5928308,0.4273897 0.5928308,0.8409927 0,0.3998161 -0.2481617,1.5165441 -0.5376838,1.98529408 -0.3308823,0.57904411 -0.7169118,0.78584558 -0.992647,0.78584558 -0.4549633,0 -0.63419122,-0.45496323 -0.63419122,-0.90992646 0,-0.3033088 0.0689338,-0.5514706 0.27573532,-1.3648897 z m 0,0"
       style="fill:#000000;fill-opacity:1;fill-rule:nonzero;stroke:none"
       aria-label="b"
       transform="matrix(1.1333333,0,0,1.1333333,183.9808,143.27493)" />
    <path
       id="path54"
       d="M 0.70177022,-7.4816176e-4 H 3.6521379 c 0.6204044,0 1.0753676,-0.16544117824 1.4338235,-0.55147058824 0.3170956,-0.33088235 0.4963235,-0.79963235 0.4963235,-1.30974265 0,-0.7858456 -0.3584559,-1.2683824 -1.1994485,-1.5854779 0.5928309,-0.2757353 0.9099265,-0.7582721 0.9099265,-1.4338236 0,-0.46875 -0.179228,-0.8961397 -0.5238971,-1.1994485 -0.3308823,-0.3033088 -0.7858456,-0.4549632 -1.40625,-0.4549632 H 0.70177022 Z M 1.5427629,-3.7231746 v -2.0818015 h 1.6130514 c 0.46875,0 0.7169118,0.068934 0.9512868,0.234375 0.234375,0.1792279 0.3584559,0.4549632 0.3584559,0.8134191 0,0.3446691 -0.1240809,0.6204044 -0.3584559,0.7996324 -0.234375,0.1792279 -0.4825368,0.234375 -0.9512868,0.234375 z m 0,2.99172791 V -2.9786893 h 2.0266544 c 0.4136029,0 0.6755514,0.096507 0.8685662,0.3033088 0.2068014,0.2068015 0.3033088,0.4963235 0.3033088,0.8134191 0,0.3170956 -0.096507,0.6066176 -0.3033088,0.8134191 -0.1930148,0.22058826 -0.4549633,0.31709561 -0.8685662,0.31709561 z M 7.3194173,-4.7020349 H 6.5887187 v 4.70128673824 h 0.7306986 z m 0,-1.8336397 H 6.574932 v 0.9375 h 0.7444853 z m 5.4492187,6.09374997 c -0.08272,0.0137868 -0.124081,0.0137868 -0.165441,0.0137868 -0.261949,0 -0.399816,-0.12408088 -0.399816,-0.35845588 V -3.5439467 c 0,-0.8409926 -0.606618,-1.2821691 -1.764706,-1.2821691 -0.6893384,0 -1.2545958,0.1930147 -1.5579046,0.5376838 -0.2205883,0.2481618 -0.3033088,0.5101103 -0.3308824,0.9788603 h 0.7582721 c 0.055147,-0.5652573 0.3998162,-0.8272059 1.1029409,-0.8272059 0.675552,0 1.047794,0.2481618 1.047794,0.6893383 v 0.2068014 c 0,0.3033089 -0.193014,0.4411765 -0.785845,0.5101103 -1.0477943,0.1378677 -1.2132355,0.179228 -1.5027576,0.2895221 -0.5514705,0.2205882 -0.8272058,0.6479779 -0.8272058,1.2545956 0,0.85477939 0.5928308,1.39246321 1.5441176,1.39246321 0.5928308,0 1.0615808,-0.20680147176 1.5992648,-0.68933824 0.05515,0.46875 0.289522,0.68933824 0.772059,0.68933824 0.151654,0 0.261948,-0.0137868 0.51011,-0.0827206 z M 11.458893,-1.475932 c 0,0.2481618 -0.06893,0.3998162 -0.303308,0.60661766 -0.303309,0.2757353 -0.661765,0.42738971 -1.102942,0.42738971 -0.5790437,0 -0.9237129,-0.28952206 -0.9237129,-0.75827207 0,-0.4963235 0.3308824,-0.7444853 1.1305149,-0.8547794 0.785845,-0.1102941 0.951287,-0.1516544 1.199448,-0.2619485 z m 5.425092,-1.9163603 c -0.01379,-0.9237132 -0.620404,-1.4338235 -1.709559,-1.4338235 -1.089154,0 -1.792279,0.5652573 -1.792279,1.4338235 0,0.7306985 0.372243,1.0753677 1.475184,1.351103 l 0.703125,0.1654411 c 0.523897,0.1240809 0.730698,0.3170956 0.730698,0.6617647 0,0.42738975 -0.441176,0.73069857 -1.102941,0.73069857 -0.399816,0 -0.730698,-0.12408088 -0.923713,-0.31709558 C 14.140419,-0.93824816 14.099059,-1.062329 14.043912,-1.3932114 h -0.785846 c 0.04136,1.07536765 0.647978,1.59926471 1.875,1.59926471 1.185662,0 1.930147,-0.57904412 1.930147,-1.48897061 0,-0.703125 -0.386029,-1.0891544 -1.323529,-1.3097426 l -0.716912,-0.1654412 c -0.606618,-0.1516544 -0.868566,-0.3446691 -0.868566,-0.6755515 0,-0.4273897 0.386029,-0.703125 0.992647,-0.703125 0.606618,0 0.923713,0.2619486 0.9375,0.7444853 z m 0,0"
       style="fill:#000000;fill-opacity:1;fill-rule:nonzero;stroke:none"
       aria-label="Bias"
       transform="matrix(1.1333333,0,0,1.1333333,169.77107,169.57507)" />
    <path
       id="path55"
       d="m 160.2366,-58.7106 h 28.44199"
       style="fill:none;stroke:#808080;stroke-width:0.99628;stroke-linecap:butt;stroke-linejoin:miter;stroke-miterlimit:10;stroke-dasharray:none;stroke-opacity:1"
       transform="matrix(1.1333333,0,0,-1.1333333,95.702067,35.249)" />
    <path
       id="path56"
       d="M 5.20058,0 C 3.65962,0.28891 1.15567,1.15567 -0.57784,2.1669 V -2.1669 C 1.15567,-1.15567 3.65962,-0.28891 5.20058,0"
       style="fill:#808080;fill-opacity:1;fill-rule:nonzero;stroke:none"
       transform="matrix(1.1333333,0,0,-1.1333333,309.5378,101.78768)" />
    <path
       id="path57"
       d="m 2.4950956,-6.920625 -1.3373162,1.3648897 0.179228,0.1792279 1.1580882,-1.0202205 1.1443015,1.0202205 0.1792279,-0.1792279 z m 0,0"
       style="fill:#000000;fill-opacity:1;fill-rule:nonzero;stroke:none"
       aria-label="ˆ"
       transform="matrix(1.1333333,0,0,1.1333333,320.5316,104.609)" />
    <path
       id="path58"
       d="m 4.8394007,-3.7910294 c 0.04136,-0.1516544 0.04136,-0.1654412 0.04136,-0.234375 0,-0.179228 -0.1378676,-0.2757353 -0.289522,-0.2757353 -0.096507,0 -0.2481618,0.068934 -0.3446691,0.2205882 -0.013787,0.04136 -0.096507,0.3584559 -0.1378677,0.5376839 -0.068934,0.2481617 -0.1378676,0.523897 -0.2068015,0.7858455 L 3.460724,-0.95095588 c -0.04136,0.13786764 -0.46875,0.84099264 -1.1305147,0.84099264 -0.5101103,0 -0.6204045,-0.44117647 -0.6204045,-0.81341911 0,-0.45496325 0.179228,-1.07536765 0.5101103,-1.94393385 0.1654412,-0.4136029 0.2068015,-0.523897 0.2068015,-0.7169117 0,-0.4549633 -0.3170956,-0.8272059 -0.8272059,-0.8272059 -0.93749997,0 -1.30974262,1.4476103 -1.30974262,1.5441176 0,0.096507 0.0965074,0.096507 0.12408088,0.096507 0.0965074,0 0.11029412,-0.013787 0.15165442,-0.179228 0.27573529,-0.9375 0.67555142,-1.2408088 1.00643382,-1.2408088 0.082721,0 0.2481618,0 0.2481618,0.3170956 0,0.2619485 -0.096507,0.5101103 -0.1654412,0.703125 -0.3998162,1.0615809 -0.5790441,1.6268382 -0.5790441,2.0955882 0,0.88235298 0.6341911,1.1856618 1.2132353,1.1856618 0.3860294,0 0.7306985,-0.16544118 1.0064338,-0.45496324 C 3.1712022,0.17955882 3.0471213,0.66209559 2.6473051,1.1997794 2.3991434,1.5306618 2.013114,1.8201838 1.5581507,1.8201838 c -0.1378676,0 -0.59283085,-0.027573 -0.75827202,-0.4136029 0.15165441,0 0.28952202,0 0.42738972,-0.1240809 0.096507,-0.082721 0.1930147,-0.2205882 0.1930147,-0.39981618 0,-0.31709558 -0.2619485,-0.35845588 -0.3584559,-0.35845588 -0.23437499,0 -0.56525735,0.16544118 -0.56525735,0.64797796 0,0.4963235 0.44117647,0.8685662 1.06158085,0.8685662 1.0202206,0 2.054228,-0.9099265 2.3299633,-2.02665445 z m 0,0"
       style="fill:#000000;fill-opacity:1;fill-rule:nonzero;stroke:none"
       aria-label="y"
       transform="matrix(1.1333333,0,0,1.1333333,319.75753,104.609)" />
    <path
       id="path59"
       d="m 3.486454,-6.6468051 c -1.875,0 -3.14338231,1.3786764 -3.14338231,3.4329044 0,2.0404411 1.26838231,3.41911761 3.14338231,3.41911761 0.7996324,0 1.5027574,-0.24816176 2.0266545,-0.68933823 0.7169117,-0.60661768 1.1305147,-1.61305148 1.1305147,-2.67463238 0,-2.109375 -1.2408089,-3.4880514 -3.1571692,-3.4880514 z m 0,0.7444852 c 1.4200368,0 2.3299633,1.0753677 2.3299633,2.7159927 0,1.5854779 -0.9375,2.66084558 -2.3299633,2.66084558 -1.3786764,0 -2.3161764,-1.07536768 -2.3161764,-2.68841908 0,-1.6130515 0.9375,-2.6884192 2.3161764,-2.6884192 z m 7.803309,5.90073534 V -4.7028713 h -0.744485 v 2.6608456 c 0,0.9650735 -0.496324,1.59926467 -1.2821695,1.59926467 -0.5928309,0 -0.9650736,-0.35845588 -0.9650736,-0.92371327 v -3.336397 H 7.5535496 v 3.6259191 c 0,0.78584558 0.5790441,1.28216911 1.5027574,1.28216911 0.6893382,0 1.130515,-0.24816176 1.571691,-0.85477941 v 0.64797794 z M 14.236684,-4.7028713 H 13.464625 V -5.9850404 H 12.72014 v 1.2821691 h -0.634191 v 0.6204044 h 0.634191 v 3.54319852 c 0,0.46875 0.330882,0.74448529 0.909926,0.74448529 0.179228,0 0.358456,-0.0137868 0.606618,-0.0689338 V -0.4841213 c -0.09651,0.0275735 -0.220588,0.0413603 -0.358456,0.0413603 -0.317096,0 -0.413603,-0.0965073 -0.413603,-0.42738971 V -4.0824669 h 0.772059 z m 0.699678,6.6590073 h 0.758272 v -2.45404409 c 0.38603,0.48253677 0.827206,0.703125 1.433824,0.703125 1.213235,0 2.012867,-0.97886029 2.012867,-2.46783091 0,-1.5854779 -0.772058,-2.5643382 -2.012867,-2.5643382 -0.634191,0 -1.158089,0.2757353 -1.502758,0.8409926 v -0.7169117 h -0.689338 z m 2.068015,-6.09375 c 0.813419,0 1.351103,0.7306986 1.351103,1.8474265 0,1.0753676 -0.537684,1.79227941 -1.351103,1.79227941 -0.799633,0 -1.309743,-0.71691181 -1.309743,-1.81985291 0,-1.1029412 0.51011,-1.819853 1.309743,-1.819853 z m 6.748621,4.13602944 V -4.7028713 h -0.744485 v 2.6608456 c 0,0.9650735 -0.496324,1.59926467 -1.282169,1.59926467 -0.592831,0 -0.965074,-0.35845588 -0.965074,-0.92371327 v -3.336397 h -0.744485 v 3.6259191 c 0,0.78584558 0.579044,1.28216911 1.502757,1.28216911 0.689339,0 1.130515,-0.24816176 1.571691,-0.85477941 v 0.64797794 z M 26.699919,-4.7028713 H 25.92786 v -1.2821691 h -0.744485 v 1.2821691 h -0.634191 v 0.6204044 h 0.634191 v 3.54319852 c 0,0.46875 0.330882,0.74448529 0.909926,0.74448529 0.179228,0 0.358456,-0.0137868 0.606618,-0.0689338 V -0.4841213 c -0.09651,0.0275735 -0.220588,0.0413603 -0.358456,0.0413603 -0.317095,0 -0.413603,-0.0965073 -0.413603,-0.42738971 V -4.0824669 h 0.772059 z m 0,0"
       style="fill:#000000;fill-opacity:1;fill-rule:nonzero;stroke:none"
       aria-label="Output"
       transform="matrix(1.1333333,0,0,1.1333333,307.47447,73.462733)" />
    <path
       id="path60"
       d="M 4.2452592,-1.9580496 4.9208107,-3.2904412e-4 H 5.8445239 L 3.555921,-6.5352555 H 2.4805533 L 0.15059007,-3.2904412e-4 H 1.032943 L 1.7222813,-1.9580496 Z m -0.234375,-0.703125 H 1.9290827 l 1.0753677,-2.9779412 z m 6.1868108,-0.4549633 c -0.02757,-0.4549632 -0.137868,-0.758272 -0.3170957,-1.0202206 -0.3170956,-0.4273897 -0.882353,-0.6893382 -1.5303309,-0.6893382 -1.2683824,0 -2.0955883,0.9926471 -2.0955883,2.5643382 0,1.5027574 0.8134192,2.46783093 2.0818015,2.46783093 1.116728,0 1.8336394,-0.67555147 1.9163604,-1.81985293 H 9.4945699 c -0.1240809,0.75827204 -0.5101103,1.13051469 -1.1443015,1.13051469 -0.8272059,0 -1.3097427,-0.67555149 -1.3097427,-1.77849269 0,-1.1856617 0.4825368,-1.875 1.2959559,-1.875 0.6204044,0 1.0202206,0.3584559 1.116728,1.0202206 z m 2.540211,-1.5854779 h -0.772059 v -1.2821691 h -0.744485 v 1.2821691 h -0.634191 v 0.6204044 h 0.634191 v 3.54319853 c 0,0.46875 0.330882,0.7444853 0.909927,0.7444853 0.179228,0 0.358455,-0.0137868 0.606617,-0.0689338 v -0.62040441 c -0.09651,0.0275735 -0.220588,0.0413603 -0.358456,0.0413603 -0.317095,0 -0.413603,-0.0965074 -0.413603,-0.42738971 V -4.0812114 h 0.772059 z m 1.554458,0 h -0.730699 v 4.70128675588 h 0.730699 z m 0,-1.8336397 h -0.744485 v 0.9375 h 0.744485 z M 17.497787,-3.2904412e-4 19.303853,-4.7016158 H 18.46286 l -1.323529,3.81893381 -1.254596,-3.81893381 h -0.854779 l 1.654412,4.70128675588 z M 24.00514,-0.44150551 c -0.08272,0.0137868 -0.124081,0.0137868 -0.165441,0.0137868 -0.261949,0 -0.399817,-0.12408088 -0.399817,-0.35845588 V -3.5435276 c 0,-0.8409926 -0.606617,-1.2821691 -1.764706,-1.2821691 -0.689338,0 -1.254595,0.1930147 -1.557904,0.5376838 -0.220588,0.2481618 -0.303309,0.5101103 -0.330882,0.9788603 h 0.758272 c 0.05515,-0.5652573 0.399816,-0.8272059 1.102941,-0.8272059 0.675551,0 1.047794,0.2481618 1.047794,0.6893383 v 0.2068014 c 0,0.3033089 -0.193015,0.4411765 -0.785846,0.5101103 -1.047794,0.1378677 -1.213235,0.179228 -1.502757,0.2895221 -0.55147,0.2205882 -0.827206,0.6479779 -0.827206,1.2545956 0,0.8547794 0.592831,1.39246323 1.544118,1.39246323 0.592831,0 1.061581,-0.20680147412 1.599265,-0.68933824 0.05515,0.46875 0.289522,0.68933824 0.772058,0.68933824 0.151655,0 0.261949,-0.0137868 0.510111,-0.0827206 z M 22.695397,-1.4755129 c 0,0.2481618 -0.06893,0.3998162 -0.303309,0.60661768 -0.303309,0.27573529 -0.661764,0.42738971 -1.102941,0.42738971 -0.579044,0 -0.923713,-0.28952206 -0.923713,-0.75827209 0,-0.4963235 0.330882,-0.7444853 1.130515,-0.8547794 0.785845,-0.1102941 0.951286,-0.1516544 1.199448,-0.2619485 z m 3.77068,-3.2261029 h -0.772059 v -1.2821691 h -0.744485 v 1.2821691 h -0.634191 v 0.6204044 h 0.634191 v 3.54319853 c 0,0.46875 0.330882,0.7444853 0.909927,0.7444853 0.179228,0 0.358455,-0.0137868 0.606617,-0.0689338 v -0.62040441 c -0.09651,0.0275735 -0.220588,0.0413603 -0.358456,0.0413603 -0.317095,0 -0.413603,-0.0965074 -0.413603,-0.42738971 V -4.0812114 h 0.772059 z m 1.554458,0 h -0.730699 v 4.70128675588 h 0.730699 z m 0,-1.8336397 H 27.27605 v 0.9375 h 0.744485 z m 3.095129,1.7095588 c -1.32353,0 -2.123162,0.9375 -2.123162,2.5091912 0,1.58547793 0.799632,2.52297793 2.123162,2.52297793 1.323529,0 2.123161,-0.9375 2.123161,-2.48161763 0,-1.6268383 -0.772058,-2.5505515 -2.123161,-2.5505515 z m 0,0.6893382 c 0.854779,0 1.351103,0.6893383 1.351103,1.8474265 0,1.1029412 -0.523898,1.80606619 -1.351103,1.80606619 -0.827206,0 -1.337317,-0.68933819 -1.337317,-1.83363969 0,-1.1305147 0.510111,-1.819853 1.337317,-1.819853 z m 3.164062,-0.5652573 v 4.70128675588 h 0.758272 V -2.5922408 c 0,-0.9512868 0.496324,-1.585478 1.268383,-1.585478 0.59283,0 0.97886,0.3584559 0.97886,0.9237133 v 3.25367645588 h 0.744485 V -3.5435276 c 0,-0.7858456 -0.592831,-1.2821691 -1.48897,-1.2821691 -0.703125,0 -1.158089,0.2619485 -1.557905,0.9237132 v -0.7996323 z m 0,0"
       style="fill:#000000;fill-opacity:1;fill-rule:nonzero;stroke:none"
       aria-label="Activation"
       transform="matrix(1.1333333,0,0,1.1333333,237.3098,140.74647)" />
    <path
       id="path61"
       d="M 2.3145846,-4.7001379 H 1.528739 v -0.7306985 c 0,-0.3170956 0.1792279,-0.46875 0.523897,-0.46875 0.055147,0 0.082721,0 0.2619486,0 v -0.6204044 c -0.179228,-0.027573 -0.2757353,-0.04136 -0.4273897,-0.04136 -0.6893383,0 -1.10294122,0.3998162 -1.10294122,1.0753676 v 0.7858456 H 0.16384926 v 0.6204044 H 0.78425368 V 0.0011489 H 1.528739 V -4.0797335 H 2.3145846 Z M 6.8090699,0.0011489 V -4.7001379 H 6.0645846 v 2.6608456 c 0,0.9650736 -0.4963236,1.59926473 -1.2821692,1.59926473 -0.5928308,0 -0.9650735,-0.35845589 -0.9650735,-0.92371323 V -4.7001379 H 3.0728566 v 3.6259192 c 0,0.78584554 0.5790441,1.28216907 1.5027574,1.28216907 0.6893382,0 1.1305147,-0.24816177 1.5716911,-0.85477941 V 0.0011489 Z m 1.2890625,-4.7012868 v 4.7012868 h 0.758272 v -2.5919118 c 0,-0.9512867 0.4963235,-1.5854779 1.2683826,-1.5854779 0.592831,0 0.97886,0.3584559 0.97886,0.9237132 v 3.2536765 h 0.744485 v -3.5431985 c 0,-0.7858456 -0.592831,-1.2821691 -1.48897,-1.2821691 -0.7031252,0 -1.1580885,0.2619485 -1.5579046,0.9237132 v -0.7996324 z m 8.5822606,1.585478 c -0.02757,-0.4549633 -0.137867,-0.7582721 -0.317095,-1.0202206 -0.317096,-0.4273897 -0.882353,-0.6893382 -1.530331,-0.6893382 -1.268382,0 -2.095588,0.992647 -2.095588,2.5643382 0,1.50275734 0.813419,2.46783087 2.081801,2.46783087 1.116728,0 1.83364,-0.67555147 1.91636,-1.81985297 h -0.758272 c -0.12408,0.75827209 -0.51011,1.13051473 -1.144301,1.13051473 -0.827206,0 -1.309743,-0.67555143 -1.309743,-1.77849263 0,-1.1856618 0.482537,-1.875 1.295956,-1.875 0.620405,0 1.020221,0.3584559 1.116728,1.0202206 z m 2.540212,-1.585478 H 18.448546 V -5.982307 h -0.744485 v 1.2821691 h -0.634192 v 0.6204044 h 0.634192 v 3.54319857 c 0,0.46875 0.330882,0.7444853 0.909926,0.7444853 0.179228,0 0.358456,-0.0137868 0.606618,-0.0689338 v -0.62040441 c -0.09651,0.0275735 -0.220588,0.0413603 -0.358456,0.0413603 -0.317096,0 -0.413603,-0.0965074 -0.413603,-0.42738971 V -4.0797335 h 0.772059 z m 1.554458,0 h -0.730699 v 4.7012868 h 0.730699 z m 0,-1.8336397 h -0.744486 v 0.9375 h 0.744486 z m 3.095128,1.7095589 c -1.323529,0 -2.123162,0.9374999 -2.123162,2.5091911 0,1.58547797 0.799633,2.52297797 2.123162,2.52297797 1.32353,0 2.123162,-0.9375 2.123162,-2.48161767 0,-1.6268382 -0.772059,-2.5505514 -2.123162,-2.5505514 z m 0,0.6893382 c 0.85478,0 1.351103,0.6893382 1.351103,1.8474265 0,1.1029411 -0.523897,1.80606613 -1.351103,1.80606613 -0.827206,0 -1.337316,-0.68933823 -1.337316,-1.83363973 0,-1.1305147 0.51011,-1.8198529 1.337316,-1.8198529 z m 3.164063,-0.5652574 v 4.7012868 h 0.758272 v -2.5919118 c 0,-0.9512867 0.496323,-1.5854779 1.268382,-1.5854779 0.592831,0 0.97886,0.3584559 0.97886,0.9237132 v 3.2536765 h 0.744486 v -3.5431985 c 0,-0.7858456 -0.592831,-1.2821691 -1.488971,-1.2821691 -0.703125,0 -1.158088,0.2619485 -1.557904,0.9237132 v -0.7996324 z m 0,0"
       style="fill:#000000;fill-opacity:1;fill-rule:nonzero;stroke:none"
       aria-label="function"
       transform="matrix(1.1333333,0,0,1.1333333,241.41587,153.16667)" />
  </g>
</svg>
