<?xml version="1.0" encoding="UTF-8" standalone="no"?>
<!-- Created with Inkscape (http://www.inkscape.org/) -->

<svg
   version="1.1"
   id="svg1"
   width="229.99068"
   height="181.63867"
   viewBox="0 0 229.99068 181.63867"
   xmlns="http://www.w3.org/2000/svg"
   xmlns:svg="http://www.w3.org/2000/svg">
  <defs
     id="defs1" />
  <g
     id="g1">
    <path
       id="path1"
       d="M -14.17339,-14.17339 H 14.1734 V 14.1734 h -28.34679 z"
       style="fill:#ff3333;fill-opacity:1;fill-rule:nonzero;stroke:#ffffff;stroke-width:0.74721;stroke-linecap:butt;stroke-linejoin:miter;stroke-miterlimit:10;stroke-dasharray:none;stroke-opacity:1"
       transform="matrix(1.0666667,0,0,-1.0666667,90.340267,78.1144)" />
    <path
       id="path2"
       d="M 7.2651914,-7.8501562 C 7.1773008,-8.5239844 7.0454648,-8.84625 6.781793,-9.2124609 6.2544492,-9.9448828 5.3169492,-10.384336 4.2183164,-10.384336 c -1.2597656,0 -2.2998047,0.5566407 -2.9150391,1.5820313 -0.60058589,0.9814453 -0.84960933,2.1240235 -0.84960933,3.9697266 0,1.7578125 0.21972656,2.8417969 0.73242183,3.6621094 0.5859375,0.93749995 1.6552735,1.50878901 2.8564454,1.50878901 2.0214843,0 3.3984375,-1.52343751 3.3984375,-3.73535151 0,-1.9482422 -1.2011719,-3.2958985 -2.9589844,-3.2958985 -0.8203125,0 -1.3916016,0.234375 -2.0214844,0.8935547 0.043945,-1.0693359 0.043945,-1.0693359 0.1318359,-1.4941406 0.1904297,-0.9228516 0.7617188,-1.4648438 1.5673829,-1.4648438 0.6445312,0 0.9814453,0.2490235 1.2451171,0.9082032 z m -3.2666016,2.7246093 c 0.9375,0 1.538086,0.7324219 1.538086,1.8603516 0,1.0839844 -0.6591797,1.875 -1.5527344,1.875 -0.9082031,0 -1.5527344,-0.7617188 -1.5527344,-1.8310547 0,-1.1279297 0.6445313,-1.9042969 1.5673828,-1.9042969 z m 0,0"
       style="fill:#000000;fill-opacity:1;fill-rule:nonzero;stroke:none"
       aria-label="6"
       transform="matrix(1.0666667,0,0,1.0666667,86.0864,83.436)" />
    <path
       id="path3"
       d="M 14.9206,-14.17339 H 43.26739 V 14.1734 H 14.9206 Z"
       style="fill:#ff3333;fill-opacity:1;fill-rule:nonzero;stroke:#ffffff;stroke-width:0.74721;stroke-linecap:butt;stroke-linejoin:miter;stroke-miterlimit:10;stroke-dasharray:none;stroke-opacity:1"
       transform="matrix(1.0666667,0,0,-1.0666667,90.340267,78.1144)" />
    <path
       id="path4"
       d="M 7.3372305,-1.7878125 H 3.0452383 c 0.2490234,-0.5566406 0.571289,-0.8349609 2.0654297,-1.9335937 1.7578125,-1.2890625 2.2705078,-2.0654297 2.2705078,-3.4423829 0,-1.9628906 -1.3476563,-3.2226559 -3.4863281,-3.2226559 -2.109375,0 -3.33984379,1.2451169 -3.33984379,3.3984372 0,0.087891 0,0.2050781 0.0146484,0.3662109 H 2.4885977 v -0.336914 c 0,-1.1279297 0.5419921,-1.7871094 1.4501953,-1.7871094 0.8935547,0 1.4355468,0.6152344 1.4355468,1.6259766 0,1.1279296 -0.3515625,1.5673828 -2.5927734,3.1640625 -1.7285156,1.171875 -2.25585937,2.0800781 -2.35839843,3.955078075 H 7.3372305 Z m 0,0"
       style="fill:#000000;fill-opacity:1;fill-rule:nonzero;stroke:none"
       aria-label="2"
       transform="matrix(1.0666667,0,0,1.0666667,117.11893,83.532)" />
    <path
       id="path5"
       d="M 44.0146,-14.17339 H 72.36139 V 14.1734 H 44.0146 Z"
       style="fill:#ff3333;fill-opacity:1;fill-rule:nonzero;stroke:#ffffff;stroke-width:0.74721;stroke-linecap:butt;stroke-linejoin:miter;stroke-miterlimit:10;stroke-dasharray:none;stroke-opacity:1"
       transform="matrix(1.0666667,0,0,-1.0666667,90.340267,78.1144)" />
    <path
       id="path6"
       d="M 7.0164238,-10.164609 H 1.5818535 L 0.67365039,-4.4956641 H 2.4754082 c 0.2197266,-0.5126953 0.6738281,-0.7763671 1.2890625,-0.7763671 1.0253906,0 1.640625,0.7324218 1.640625,1.9628906 0,1.1865234 -0.6298828,1.9189453 -1.640625,1.9189453 -0.8642578,0 -1.3623047,-0.4394531 -1.3916016,-1.2597656 H 0.38068164 C 0.40997852,-0.8775 1.7576348,0.33832031 3.7498223,0.33832031 c 2.1679687,0 3.6621093,-1.49414061 3.6621093,-3.69140621 0,-2.0800782 -1.2890625,-3.515625 -3.1640625,-3.515625 -0.6738281,0 -1.171875,0.1757812 -1.7724609,0.6152343 L 2.8123223,-8.3775 h 4.2041015 z m 0,0"
       style="fill:#000000;fill-opacity:1;fill-rule:nonzero;stroke:none"
       aria-label="5"
       transform="matrix(1.0666667,0,0,1.0666667,148.15253,83.436)" />
    <path
       id="path7"
       d="M -14.17339,-43.2674 H 14.1734 v 28.34679 h -28.34679 z"
       style="fill:#ff3333;fill-opacity:1;fill-rule:nonzero;stroke:#ffffff;stroke-width:0.74721;stroke-linecap:butt;stroke-linejoin:miter;stroke-miterlimit:10;stroke-dasharray:none;stroke-opacity:1"
       transform="matrix(1.0666667,0,0,-1.0666667,90.340267,78.1144)" />
    <path
       id="path8"
       d="m 3.104998,-4.5418125 c 0.703125,0 0.834961,0.014648 1.1865235,0.1025391 0.6738281,0.1757812 1.0986328,0.7617187 1.0986328,1.508789 0,0.8935547 -0.6298828,1.538086 -1.5087891,1.538086 -0.9375,0 -1.4648437,-0.5419922 -1.508789,-1.5966797 H 0.40968555 c 0.0146484,2.03613279 1.34765625,3.32519529 3.42773435,3.32519529 2.1679688,0 3.5595703,-1.2890625 3.5595703,-3.26660159 0,-1.1865234 -0.5126953,-1.9628906 -1.6552734,-2.5195312 0.9375,-0.5859375 1.3330078,-1.2304688 1.3330078,-2.1679688 0,-1.6845703 -1.2744141,-2.7685546 -3.2373047,-2.7685546 -1.1572265,0 -2.1240234,0.4101562 -2.7099609,1.1572265 -0.39550783,0.4980469 -0.58593752,1.1865234 -0.58593752,2.0800781 v 0.1757813 H 2.401873 c 0.014648,-0.5419922 0.058594,-0.8203125 0.1611329,-1.069336 0.1904296,-0.4541015 0.6445312,-0.7177734 1.2304687,-0.7177734 0.8056641,0 1.2744141,0.4833984 1.2744141,1.3330078 0,1.0107422 -0.600586,1.538086 -1.7871094,1.538086 H 3.104998 Z m 12.209473,2.7539063 h -4.291992 c 0.249023,-0.5566407 0.571289,-0.834961 2.065429,-1.9335938 1.757813,-1.2890625 2.270508,-2.0654297 2.270508,-3.4423828 0,-1.9628906 -1.347656,-3.2226562 -3.486328,-3.2226562 -2.1093751,0 -3.3398439,1.2451171 -3.3398439,3.3984374 0,0.087891 0,0.2050782 0.014648,0.366211 h 1.9189449 v -0.3369141 c 0,-1.1279297 0.541993,-1.7871094 1.450196,-1.7871094 0.893554,0 1.435547,0.6152344 1.435547,1.6259766 0,1.1279297 -0.351562,1.5673828 -2.592774,3.1640625 C 9.030291,-2.784 8.5029473,-1.8757969 8.4004082,-7.96875e-4 h 6.9140628 z m 0,0"
       style="fill:#000000;fill-opacity:1;fill-rule:nonzero;stroke:none"
       aria-label="32"
       transform="matrix(1.0666667,0,0,1.0666667,81.832533,114.4696)" />
    <path
       id="path9"
       d="m 14.9206,-43.2674 h 28.34679 v 28.34679 H 14.9206 Z"
       style="fill:#ff3333;fill-opacity:1;fill-rule:nonzero;stroke:#ffffff;stroke-width:0.74721;stroke-linecap:butt;stroke-linejoin:miter;stroke-miterlimit:10;stroke-dasharray:none;stroke-opacity:1"
       transform="matrix(1.0666667,0,0,-1.0666667,90.340267,78.1144)" />
    <path
       id="path10"
       d="M 3.4114121,-7.0173984 V -7.96875e-4 H 5.418248 V -10.166812 H 4.0852402 c -0.3222656,1.2011714 -1.3623047,1.8164058 -3.10546872,1.8164058 v 1.3330078 z M 14.994664,-10.166812 H 9.5600937 l -0.9082031,5.6689448 h 1.8017574 c 0.219727,-0.5126953 0.673829,-0.7763672 1.289063,-0.7763672 1.025391,0 1.640625,0.7324219 1.640625,1.9628907 0,1.1865234 -0.629883,1.9189453 -1.640625,1.9189453 -0.864258,0 -1.362305,-0.4394532 -1.391602,-1.2597657 H 8.3589219 c 0.029297,1.77246098 1.3769531,2.98828129 3.3691401,2.98828129 2.167969,0 3.66211,-1.49414059 3.66211,-3.69140629 0,-2.0800781 -1.289063,-3.515625 -3.164063,-3.515625 -0.673828,0 -1.171875,0.1757813 -1.772461,0.6152344 l 0.336914,-2.1240234 h 4.204102 z m 0,0"
       style="fill:#000000;fill-opacity:1;fill-rule:nonzero;stroke:none"
       aria-label="15"
       transform="matrix(1.0666667,0,0,1.0666667,112.86507,114.4696)" />
    <path
       id="path11"
       d="m 44.0146,-43.2674 h 28.34679 v 28.34679 H 44.0146 Z"
       style="fill:#ff3333;fill-opacity:1;fill-rule:nonzero;stroke:#ffffff;stroke-width:0.74721;stroke-linecap:butt;stroke-linejoin:miter;stroke-miterlimit:10;stroke-dasharray:none;stroke-opacity:1"
       transform="matrix(1.0666667,0,0,-1.0666667,90.340267,78.1144)" />
    <path
       id="path12"
       d="M 7.4851738,-3.909377 H 6.4304863 V -10.16426 H 4.0574395 l -3.72070317,6.2255862 v 1.6845703 H 4.4236504 V 0.00175586 H 6.4304863 V -2.2541035 h 1.0546875 z m -3.0615234,0 H 1.7576348 l 2.6660156,-4.3505859 z m 0,0"
       style="fill:#000000;fill-opacity:1;fill-rule:nonzero;stroke:none"
       aria-label="4"
       transform="matrix(1.0666667,0,0,1.0666667,148.15253,114.56453)" />
    <path
       id="path13"
       d="M -14.17339,-72.36139 H 14.1734 v 28.34679 h -28.34679 z"
       style="fill:#ff3333;fill-opacity:1;fill-rule:nonzero;stroke:#ffffff;stroke-width:0.74721;stroke-linecap:butt;stroke-linejoin:miter;stroke-miterlimit:10;stroke-dasharray:none;stroke-opacity:1"
       transform="matrix(1.0666667,0,0,-1.0666667,90.340267,78.1144)" />
    <path
       id="path14"
       d="m 3.4126523,-7.0170488 v 7.01660153438 h 2.006836 V -10.166463 H 4.0864805 c -0.3222657,1.201172 -1.3623047,1.8164064 -3.10546878,1.8164064 v 1.3330078 z m 0,0"
       style="fill:#000000;fill-opacity:1;fill-rule:nonzero;stroke:none"
       aria-label="1"
       transform="matrix(1.0666667,0,0,1.0666667,86.0864,145.59813)" />
    <path
       id="path15"
       d="M 14.9206,-72.36139 H 43.26739 V -44.0146 H 14.9206 Z"
       style="fill:#ff3333;fill-opacity:1;fill-rule:nonzero;stroke:#ffffff;stroke-width:0.74721;stroke-linecap:butt;stroke-linejoin:miter;stroke-miterlimit:10;stroke-dasharray:none;stroke-opacity:1"
       transform="matrix(1.0666667,0,0,-1.0666667,90.340267,78.1144)" />
    <path
       id="path16"
       d="M 5.8577383,-5.5354473 C 6.2093008,-5.725877 6.3704336,-5.8137676 6.516918,-5.960252 c 0.4248047,-0.3955078 0.6591797,-1.0107421 0.6591797,-1.6699218 0,-1.5820313 -1.3769532,-2.7539062 -3.2519532,-2.7539062 -1.8896484,0 -3.26660153,1.1718749 -3.26660153,2.7685546 0,0.9814453 0.39550783,1.5966797 1.31835933,2.0800781 -1.17187496,0.6298828 -1.65527339,1.40625 -1.65527339,2.6074219 0,1.9189453 1.46484379,3.26660157 3.60351559,3.26660157 2.1240235,0 3.6035157,-1.34765627 3.6035157,-3.26660157 0,-1.2011719 -0.4833985,-1.9775391 -1.6699219,-2.6074219 z M 3.938793,-8.7581035 c 0.8935547,0 1.508789,0.5419922 1.508789,1.3330078 0,0.7763672 -0.6298828,1.3330078 -1.508789,1.3330078 -0.8789063,0 -1.5234375,-0.5566406 -1.5234375,-1.3476562 0,-0.7763672 0.6298828,-1.3183594 1.5234375,-1.3183594 z m -0.029297,4.0283203 c 0.9960937,0 1.6113281,0.6591797 1.6113281,1.7138672 0,0.9814453 -0.6298828,1.6259765 -1.6113281,1.6259765 -0.9667969,0 -1.5820313,-0.6445312 -1.5820313,-1.6552734 0,-1.0253906 0.6298829,-1.6845703 1.5820313,-1.6845703 z m 0,0"
       style="fill:#000000;fill-opacity:1;fill-rule:nonzero;stroke:none"
       aria-label="8"
       transform="matrix(1.0666667,0,0,1.0666667,117.11893,145.50213)" />
    <path
       id="path17"
       d="M 44.0146,-72.36139 H 72.36139 V -44.0146 H 44.0146 Z"
       style="fill:#ff3333;fill-opacity:1;fill-rule:nonzero;stroke:#ffffff;stroke-width:0.74721;stroke-linecap:butt;stroke-linejoin:miter;stroke-miterlimit:10;stroke-dasharray:none;stroke-opacity:1"
       transform="matrix(1.0666667,0,0,-1.0666667,90.340267,78.1144)" />
    <path
       id="path18"
       d="m 3.105291,-4.5393535 c 0.703125,0 0.834961,0.014648 1.1865235,0.102539 0.6738281,0.1757813 1.0986328,0.7617188 1.0986328,1.5087891 0,0.8935547 -0.6298828,1.5380859 -1.5087891,1.5380859 -0.9375,0 -1.4648437,-0.5419921 -1.5087891,-1.5966796 H 0.40997852 c 0.0146484,2.03613277 1.34765628,3.32519527 3.42773438,3.32519527 2.1679687,0 3.5595703,-1.2890625 3.5595703,-3.26660157 0,-1.1865234 -0.5126953,-1.9628906 -1.6552734,-2.5195312 0.9375,-0.5859375 1.3330078,-1.2304688 1.3330078,-2.1679688 0,-1.6845703 -1.2744141,-2.7685546 -3.2373047,-2.7685546 -1.1572266,0 -2.1240234,0.4101562 -2.7099609,1.1572265 -0.39550786,0.4980469 -0.58593755,1.1865234 -0.58593755,2.0800781 v 0.1757813 H 2.402166 c 0.014649,-0.5419922 0.058594,-0.8203125 0.1611328,-1.069336 0.1904297,-0.4541015 0.6445313,-0.7177734 1.2304688,-0.7177734 0.805664,0 1.274414,0.4833984 1.274414,1.3330078 0,1.0107422 -0.6005859,1.5380859 -1.7871093,1.5380859 H 3.105291 Z m 0,0"
       style="fill:#000000;fill-opacity:1;fill-rule:nonzero;stroke:none"
       aria-label="3"
       transform="matrix(1.0666667,0,0,1.0666667,148.15253,145.50213)" />
    <path
       id="path19"
       d="M 14.9206,14.9206 H 43.26739 V 43.26739 H 14.9206 Z"
       style="fill:#ada60a;fill-opacity:1;fill-rule:nonzero;stroke:#ffffff;stroke-width:0.74721;stroke-linecap:butt;stroke-linejoin:miter;stroke-miterlimit:10;stroke-dasharray:none;stroke-opacity:1"
       transform="matrix(1.0666667,0,0,-1.0666667,90.340267,78.1144)" />
    <path
       id="path20"
       d="m 5.8577383,-5.5371621 c 0.3515625,-0.1904297 0.5126953,-0.2783203 0.6591797,-0.4248047 0.4248047,-0.3955078 0.6591797,-1.0107422 0.6591797,-1.6699219 0,-1.5820312 -1.3769532,-2.7539063 -3.2519532,-2.7539063 -1.8896484,0 -3.26660153,1.1718751 -3.26660153,2.7685548 0,0.9814453 0.39550783,1.5966797 1.31835933,2.0800781 -1.17187496,0.6298828 -1.65527339,1.40625 -1.65527339,2.6074219 0,1.9189453 1.46484379,3.26660153 3.60351559,3.26660153 2.1240235,0 3.6035157,-1.34765623 3.6035157,-3.26660153 0,-1.2011719 -0.4833985,-1.9775391 -1.6699219,-2.6074219 z M 3.938793,-8.7598184 c 0.8935547,0 1.508789,0.5419922 1.508789,1.3330079 0,0.7763671 -0.6298828,1.3330078 -1.508789,1.3330078 -0.8789063,0 -1.5234375,-0.5566407 -1.5234375,-1.3476563 0,-0.7763672 0.6298828,-1.3183594 1.5234375,-1.3183594 z M 3.909496,-4.731498 c 0.9960937,0 1.6113281,0.6591796 1.6113281,1.7138671 0,0.9814454 -0.6298828,1.6259766 -1.6113281,1.6259766 -0.9667969,0 -1.5820313,-0.6445312 -1.5820313,-1.6552734 0,-1.0253907 0.6298829,-1.6845703 1.5820313,-1.6845703 z m 0,0"
       style="fill:#000000;fill-opacity:1;fill-rule:nonzero;stroke:none"
       aria-label="8"
       transform="matrix(1.0666667,0,0,1.0666667,117.11893,52.4024)" />
    <path
       id="path21"
       d="M 44.0146,14.9206 H 72.36139 V 43.26739 H 44.0146 Z"
       style="fill:#ada60a;fill-opacity:1;fill-rule:nonzero;stroke:#ffffff;stroke-width:0.74721;stroke-linecap:butt;stroke-linejoin:miter;stroke-miterlimit:10;stroke-dasharray:none;stroke-opacity:1"
       transform="matrix(1.0666667,0,0,-1.0666667,90.340267,78.1144)" />
    <path
       id="path22"
       d="M 7.5730645,-10.164516 H 0.40997852 v 1.7871098 H 5.4783379 C 4.8631035,-7.7182266 3.6472832,-5.857875 3.237127,-4.9789687 2.534002,-3.4994766 2.1824395,-2.1664687 1.9041191,0.0015 h 2.0214844 c 0.1904297,-3.2080078 1.2304688,-5.6835937 3.647461,-8.5839844 z m 0,0"
       style="fill:#000000;fill-opacity:1;fill-rule:nonzero;stroke:none"
       aria-label="7"
       transform="matrix(1.0666667,0,0,1.0666667,148.15253,52.4984)" />
    <path
       id="path23"
       d="m 73.1086,14.9206 h 28.34679 V 43.26739 H 73.1086 Z"
       style="fill:#ada60a;fill-opacity:1;fill-rule:nonzero;stroke:#ffffff;stroke-width:0.74721;stroke-linecap:butt;stroke-linejoin:miter;stroke-miterlimit:10;stroke-dasharray:none;stroke-opacity:1"
       transform="matrix(1.0666667,0,0,-1.0666667,90.340267,78.1144)" />
    <path
       id="path24"
       d="M 7.0178828,-10.166068 H 1.5833125 L 0.67510938,-4.497123 H 2.4768672 c 0.2197266,-0.5126954 0.6738281,-0.7763672 1.2890625,-0.7763672 1.0253906,0 1.640625,0.7324218 1.640625,1.9628906 0,1.1865234 -0.6298828,1.9189453 -1.640625,1.9189453 -0.8642578,0 -1.3623047,-0.4394531 -1.3916016,-1.2597656 H 0.38214063 c 0.0292969,1.77246092 1.37695317,2.98828123 3.36914067,2.98828123 2.1679687,0 3.6621093,-1.49414063 3.6621093,-3.69140623 0,-2.0800781 -1.2890625,-3.515625 -3.1640625,-3.515625 -0.6738281,0 -1.171875,0.1757812 -1.7724609,0.6152344 L 2.8137813,-8.378959 h 4.2041015 z m 0,0"
       style="fill:#000000;fill-opacity:1;fill-rule:nonzero;stroke:none"
       aria-label="5"
       transform="matrix(1.0666667,0,0,1.0666667,179.18613,52.4024)" />
    <path
       id="path25"
       d="m 73.1086,-14.17339 h 28.34679 V 14.1734 H 73.1086 Z"
       style="fill:#ada60a;fill-opacity:1;fill-rule:nonzero;stroke:#ffffff;stroke-width:0.74721;stroke-linecap:butt;stroke-linejoin:miter;stroke-miterlimit:10;stroke-dasharray:none;stroke-opacity:1"
       transform="matrix(1.0666667,0,0,-1.0666667,90.340267,78.1144)" />
    <path
       id="path26"
       d="M 3.4143672,-7.0173047 V -7.03125e-4 H 5.4212031 V -10.166719 H 4.0881953 c -0.3222656,1.2011721 -1.3623047,1.8164065 -3.10546874,1.8164065 v 1.3330078 z m 0,0"
       style="fill:#000000;fill-opacity:1;fill-rule:nonzero;stroke:none"
       aria-label="1"
       transform="matrix(1.0666667,0,0,1.0666667,179.18613,83.532)" />
    <path
       id="path27"
       d="m 73.1086,-43.2674 h 28.34679 v 28.34679 H 73.1086 Z"
       style="fill:#ada60a;fill-opacity:1;fill-rule:nonzero;stroke:#ffffff;stroke-width:0.74721;stroke-linecap:butt;stroke-linejoin:miter;stroke-miterlimit:10;stroke-dasharray:none;stroke-opacity:1"
       transform="matrix(1.0666667,0,0,-1.0666667,90.340267,78.1144)" />
    <path
       id="path28"
       d="M 7.3401484,-1.7853535 H 3.0481563 c 0.2490234,-0.5566406 0.571289,-0.834961 2.0654296,-1.9335938 1.7578125,-1.2890625 2.2705079,-2.0654297 2.2705079,-3.4423828 0,-1.9628906 -1.3476563,-3.2226559 -3.4863282,-3.2226559 -2.109375,0 -3.33984372,1.2451169 -3.33984372,3.3984372 0,0.087891 0,0.2050781 0.0146484,0.3662109 H 2.4915156 V -6.956252 c 0,-1.1279296 0.5419922,-1.7871093 1.4501953,-1.7871093 0.8935547,0 1.4355469,0.6152343 1.4355469,1.6259765 0,1.1279297 -0.3515625,1.5673828 -2.5927734,3.1640625 -1.7285156,1.171875 -2.2558594,2.0800782 -2.35839846,3.95507816 H 7.3401484 Z m 0,0"
       style="fill:#000000;fill-opacity:1;fill-rule:nonzero;stroke:none"
       aria-label="2"
       transform="matrix(1.0666667,0,0,1.0666667,179.18613,114.56453)" />
    <path
       id="path29"
       d="M 44.0146,44.0146 H 72.36139 V 72.36139 H 44.0146 Z"
       style="fill:#4ea9ca;fill-opacity:1;fill-rule:nonzero;stroke:#ffffff;stroke-width:0.74721;stroke-linecap:butt;stroke-linejoin:miter;stroke-miterlimit:10;stroke-dasharray:none;stroke-opacity:1"
       transform="matrix(1.0666667,0,0,-1.0666667,90.340267,78.1144)" />
    <path
       id="path30"
       d="M 7.3386895,-1.7870684 H 3.0466973 c 0.2490234,-0.5566406 0.571289,-0.8349609 2.0654297,-1.9335937 1.7578125,-1.2890625 2.2705078,-2.0654297 2.2705078,-3.4423828 0,-1.9628906 -1.3476563,-3.2226561 -3.4863282,-3.2226561 -2.109375,0 -3.33984371,1.245117 -3.33984371,3.3984373 0,0.087891 0,0.2050782 0.0146484,0.366211 H 2.4900566 v -0.3369141 c 0,-1.1279297 0.5419922,-1.7871094 1.4501954,-1.7871094 0.8935546,0 1.4355468,0.6152344 1.4355468,1.6259766 0,1.1279297 -0.3515625,1.5673828 -2.5927734,3.1640625 C 1.0545098,-2.7831621 0.52716602,-1.874959 0.42462695,4.1015625e-5 H 7.3386895 Z m 0,0"
       style="fill:#000000;fill-opacity:1;fill-rule:nonzero;stroke:none"
       aria-label="2"
       transform="matrix(1.0666667,0,0,1.0666667,148.15253,21.4648)" />
    <path
       id="path31"
       d="m 73.1086,44.0146 h 28.34679 V 72.36139 H 73.1086 Z"
       style="fill:#4ea9ca;fill-opacity:1;fill-rule:nonzero;stroke:#ffffff;stroke-width:0.74721;stroke-linecap:butt;stroke-linejoin:miter;stroke-miterlimit:10;stroke-dasharray:none;stroke-opacity:1"
       transform="matrix(1.0666667,0,0,-1.0666667,90.340267,78.1144)" />
    <path
       id="path32"
       d="M 3.4143672,-7.0165605 V 4.1015625e-5 H 5.4212031 V -10.165975 H 4.0881953 c -0.3222656,1.2011723 -1.3623047,1.8164066 -3.10546874,1.8164066 v 1.3330079 z m 0,0"
       style="fill:#000000;fill-opacity:1;fill-rule:nonzero;stroke:none"
       aria-label="1"
       transform="matrix(1.0666667,0,0,1.0666667,179.18613,21.4648)" />
    <path
       id="path33"
       d="m 102.2026,44.0146 h 28.34679 V 72.36139 H 102.2026 Z"
       style="fill:#4ea9ca;fill-opacity:1;fill-rule:nonzero;stroke:#ffffff;stroke-width:0.74721;stroke-linecap:butt;stroke-linejoin:miter;stroke-miterlimit:10;stroke-dasharray:none;stroke-opacity:1"
       transform="matrix(1.0666667,0,0,-1.0666667,90.340267,78.1144)" />
    <path
       id="path34"
       d="m 0.54207031,-2.3718965 c 0.0439453,1.56738283 1.36230469,2.70996095 3.12011719,2.70996095 1.3037109,0 2.2851563,-0.54199218 2.8857422,-1.56738285 0.5419922,-0.9082031 0.8496094,-2.446289 0.8496094,-4.0722656 0,-1.4794922 -0.234375,-2.6513672 -0.703125,-3.4130859 -0.6445313,-1.0986328 -1.640625,-1.6699221 -2.8710938,-1.6699221 -2.0361328,0 -3.42773436,1.464844 -3.42773436,3.5888674 0,2.0947266 1.24511716,3.5302734 3.04687496,3.5302734 0.5126954,0 0.9960938,-0.1464843 1.3183594,-0.3808593 0.1904297,-0.1171875 0.3076172,-0.2490235 0.6298828,-0.6298829 0,1.9335938 -0.5419922,2.9003907 -1.6699218,2.9003907 -0.703125,0 -1.2011719,-0.3808594 -1.2451172,-0.9960938 z M 3.7647266,-8.7439668 c 0.9814453,0 1.5820312,0.7617188 1.5820312,1.9482422 0,1.1132812 -0.6298828,1.8603516 -1.5527344,1.8603516 -0.9082031,0 -1.4794921,-0.7324219 -1.4794921,-1.8896485 0,-1.171875 0.571289,-1.9189453 1.4501953,-1.9189453 z m 0,0"
       style="fill:#000000;fill-opacity:1;fill-rule:nonzero;stroke:none"
       aria-label="9"
       transform="matrix(1.0666667,0,0,1.0666667,210.21867,21.369867)" />
    <path
       id="path35"
       d="m 102.2026,14.9206 h 28.34679 V 43.26739 H 102.2026 Z"
       style="fill:#4ea9ca;fill-opacity:1;fill-rule:nonzero;stroke:#ffffff;stroke-width:0.74721;stroke-linecap:butt;stroke-linejoin:miter;stroke-miterlimit:10;stroke-dasharray:none;stroke-opacity:1"
       transform="matrix(1.0666667,0,0,-1.0666667,90.340267,78.1144)" />
    <path
       id="path36"
       d="M 7.4854297,-3.9096328 H 6.4307422 V -10.164516 H 4.0576953 l -3.72070311,6.2255863 v 1.6845703 H 4.4239063 V 0.0015 h 2.0068359 v -2.2558594 h 1.0546875 z m -3.0615234,0 H 1.7578906 l 2.6660157,-4.3505859 z m 0,0"
       style="fill:#000000;fill-opacity:1;fill-rule:nonzero;stroke:none"
       aria-label="4"
       transform="matrix(1.0666667,0,0,1.0666667,210.21867,52.4984)" />
    <path
       id="path37"
       d="m 102.2026,-14.17339 h 28.34679 V 14.1734 H 102.2026 Z"
       style="fill:#4ea9ca;fill-opacity:1;fill-rule:nonzero;stroke:#ffffff;stroke-width:0.74721;stroke-linecap:butt;stroke-linejoin:miter;stroke-miterlimit:10;stroke-dasharray:none;stroke-opacity:1"
       transform="matrix(1.0666667,0,0,-1.0666667,90.340267,78.1144)" />
    <path
       id="path38"
       d="m 3.1055469,-4.5396094 c 0.703125,0 0.8349609,0.014648 1.1865234,0.1025391 0.6738281,0.1757812 1.0986328,0.7617187 1.0986328,1.5087891 0,0.8935546 -0.6298828,1.5380859 -1.508789,1.5380859 -0.9375,0 -1.4648438,-0.5419922 -1.5087891,-1.5966797 H 0.41023438 c 0.0146484,2.03613281 1.34765622,3.32519531 3.42773442,3.32519531 2.1679687,0 3.5595703,-1.2890625 3.5595703,-3.26660151 0,-1.1865235 -0.5126953,-1.9628907 -1.6552735,-2.5195313 0.9375,-0.5859375 1.3330078,-1.2304687 1.3330078,-2.1679687 0,-1.6845704 -1.274414,-2.7685548 -3.2373046,-2.7685548 -1.1572266,0 -2.1240235,0.4101563 -2.709961,1.1572266 C 0.7325,-8.7290625 0.54207031,-8.0405859 0.54207031,-7.1470312 V -6.97125 H 2.4024219 c 0.014648,-0.5419922 0.058594,-0.8203125 0.1611328,-1.0693359 0.1904297,-0.4541016 0.6445312,-0.7177735 1.2304687,-0.7177735 0.8056641,0 1.2744141,0.4833985 1.2744141,1.3330078 0,1.0107422 -0.6005859,1.538086 -1.7871094,1.538086 H 3.1055469 Z m 0,0"
       style="fill:#000000;fill-opacity:1;fill-rule:nonzero;stroke:none"
       aria-label="3"
       transform="matrix(1.0666667,0,0,1.0666667,210.21867,83.436)" />
    <path
       id="path39"
       d="M -9.3464,-81.23903 H 67.53442"
       style="fill:none;stroke:#4c4c4c;stroke-width:0.99628;stroke-linecap:butt;stroke-linejoin:miter;stroke-miterlimit:10;stroke-dasharray:2.98883, 2.98883;stroke-dashoffset:0;stroke-opacity:1"
       transform="matrix(1.0666667,0,0,-1.0666667,90.340267,78.1144)" />
    <path
       id="path40"
       d="M 5.20058,0 C 3.65962,0.28891 1.15567,1.15567 -0.57784,2.1669 V -2.1669 C 1.15567,-1.15567 3.65962,-0.28891 5.20058,0"
       style="fill:#4c4c4c;fill-opacity:1;fill-rule:nonzero;stroke:none"
       transform="matrix(-1.0666667,0,0,1.0666667,80.370773,164.76937)" />
    <path
       id="path41"
       d="M 5.20058,0 C 3.65962,0.28891 1.15567,1.15567 -0.57784,2.1669 V -2.1669 C 1.15567,-1.15567 3.65962,-0.28891 5.20058,0"
       style="fill:#4c4c4c;fill-opacity:1;fill-rule:nonzero;stroke:none"
       transform="matrix(1.0666667,0,0,-1.0666667,162.37698,164.76937)" />
    <path
       id="path42"
       d="M 5.9308438,-4.921875e-4 7.3956875,-5.8159219 H 6.575375 L 5.5060391,-1.099125 4.1876797,-5.8159219 H 3.3820156 L 2.0929531,-1.099125 1.0089688,-5.8159219 H 0.17400781 L 1.6681484,-4.921875e-4 H 2.4738125 L 3.7775234,-4.7758828 5.1105313,-4.921875e-4 Z M 8.7250332,-4.1752969 H 8.0512051 v 4.1748047125 h 0.6738281 z m 0,-1.640625 H 8.0512051 v 0.8496094 h 0.6738281 z m 4.5080568,0 h -0.65918 v 2.1679688 c -0.27832,-0.4248047 -0.717773,-0.6445313 -1.274414,-0.6445313 -1.083984,0 -1.8017577,0.8642578 -1.8017577,2.1972657 0,1.40624995 0.6884767,2.2851562 1.8164067,2.2851562 0.571289,0 0.981445,-0.21972656 1.333007,-0.74707031 V -4.921875e-4 H 13.23309 Z M 11.402035,-3.67725 c 0.717774,0 1.171875,0.6445313 1.171875,1.640625 0,0.9667969 -0.454101,1.59667969 -1.157226,1.59667969 -0.732422,0 -1.230469,-0.64453129 -1.230469,-1.61132809 0,-0.9814453 0.498047,-1.6259766 1.21582,-1.6259766 z m 4.343262,-0.4980469 H 15.05682 V -5.317875 h -0.659179 v 1.1425781 H 13.841 v 0.5419922 h 0.556641 v 3.14941408 c 0,0.42480468 0.292968,0.67382812 0.805664,0.67382812 0.161133,0 0.322265,-0.0292969 0.541992,-0.0585938 v -0.55664062 c -0.08789,0.0146484 -0.19043,0.0292969 -0.322266,0.0292969 -0.27832,0 -0.366211,-0.0878906 -0.366211,-0.38085937 V -3.6333047 h 0.688477 z m 0.750732,-1.640625 v 5.8154297125 h 0.65918 V -2.3002969 c 0,-0.8496093 0.454102,-1.4208984 1.12793,-1.4208984 0.219726,0 0.439453,0.073242 0.600586,0.2050781 0.190429,0.131836 0.263671,0.3222656 0.263671,0.6298828 v 2.8857422125 h 0.65918 V -3.1499062 c 0,-0.703125 -0.498047,-1.1425782 -1.303711,-1.1425782 -0.600586,0 -0.952148,0.1757813 -1.347656,0.6884766 v -2.2119141 z m 5.573731,4.98046878 h -0.820313 v 0.8349609325 h 0.820313 z m 0,-3.33984378 h -0.820313 v 0.834961 h 0.820313 z m 5.009765,1.5820313 h 0.38086 c 0.776367,0 1.171875,0.3515625 1.171875,1.0253906 0,0.703125 -0.439453,1.12792969 -1.171875,1.12792969 -0.761719,0 -1.12793,-0.38085938 -1.186524,-1.20117189 h -0.703125 c 0.04395,0.4541016 0.117188,0.74707033 0.249024,0.99609376 0.292969,0.54199219 0.849609,0.83496094 1.625976,0.83496094 1.157227,0 1.904297,-0.703125 1.904297,-1.7724609 0,-0.7177735 -0.27832,-1.1132813 -0.952148,-1.3476563 0.527344,-0.2050781 0.791015,-0.6005859 0.791015,-1.171875 0,-0.9667969 -0.644531,-1.5527344 -1.728515,-1.5527344 -1.12793,0 -1.743164,0.6298829 -1.757813,1.8310547 h 0.688477 c 0.01465,-0.3515625 0.04395,-0.5419922 0.131836,-0.7177734 0.161133,-0.3076172 0.512695,-0.4980469 0.952148,-0.4980469 0.615235,0 0.996094,0.366211 0.996094,0.9667969 0,0.3955078 -0.146484,0.6445312 -0.454102,0.7617187 -0.190429,0.087891 -0.439453,0.1171875 -0.9375,0.1171875 z m 6.35376,0.1318359 h 1.831055 c 0.454101,0 0.805664,-0.1318359 1.113281,-0.4101562 0.351563,-0.3222657 0.512695,-0.703125 0.512695,-1.2304688 0,-1.0986328 -0.644531,-1.7138672 -1.801757,-1.7138672 h -2.387696 v 5.8154297125 h 0.732422 z m 0,-0.6591797 v -2.0361328 h 1.552735 c 0.703125,0 1.127929,0.3808594 1.127929,1.0253906 0,0.6298829 -0.424804,1.0107422 -1.127929,1.0107422 z m 5.053711,-1.0546875 h -0.673828 v 4.1748047125 h 0.673828 z m 0,-1.640625 h -0.673828 v 0.8496094 h 0.673828 z m 2.896729,3.6621094 1.40625,-2.0214844 h -0.761719 l -0.996094,1.5087891 -1.010742,-1.5087891 h -0.74707 l 1.391601,2.0507813 -1.479492,2.1240234125 h 0.761719 L 41.002865,-1.5971719 42.057553,-4.921875e-4 h 0.761718 z m 5.511474,0.2929688 c 0,-0.6445313 -0.04395,-1.0253907 -0.161133,-1.3330079 -0.27832,-0.6884765 -0.908203,-1.0986328 -1.699218,-1.0986328 -1.157227,0 -1.904297,0.8935547 -1.904297,2.2558594 0,1.37695313 0.717773,2.2265625 1.889648,2.2265625 0.966797,0 1.625977,-0.54199219 1.78711,-1.4501953 H 46.13348 c -0.175781,0.54199218 -0.55664,0.83496093 -1.083984,0.83496093 -0.424805,0 -0.776367,-0.19042969 -1.010742,-0.54199219 C 43.877621,-1.2163125 43.833676,-1.4506875 43.819027,-1.8608437 Z m -3.061523,-0.5419922 c 0.05859,-0.7763672 0.527344,-1.2744141 1.201172,-1.2744141 0.644531,0 1.157226,0.5419922 1.157226,1.2158203 0,0.029297 0,0.043945 -0.01465,0.058594 z m 4.621582,-3.413086 H 47.78143 v 5.8154297125 h 0.673828 z m 0,0"
       style="fill:#4c4c4c;fill-opacity:1;fill-rule:nonzero;stroke:none"
       aria-label="Width:3Pixel"
       transform="matrix(1.0666667,0,0,1.0666667,95.236267,177.9224)" />
    <path
       id="path43"
       d="M -25.88571,-67.53442 V 9.3464"
       style="fill:none;stroke:#4c4c4c;stroke-width:0.99628;stroke-linecap:butt;stroke-linejoin:miter;stroke-miterlimit:10;stroke-dasharray:2.98883, 2.98883;stroke-dashoffset:0;stroke-opacity:1"
       transform="matrix(1.0666667,0,0,-1.0666667,90.340267,78.1144)" />
    <path
       id="path44"
       d="M 5.20058,0 C 3.65962,0.28891 1.15567,1.15567 -0.57784,2.1669 V -2.1669 C 1.15567,-1.15567 3.65962,-0.28891 5.20058,0"
       style="fill:#4c4c4c;fill-opacity:1;fill-rule:nonzero;stroke:none"
       transform="matrix(0,1.0666667,1.0666667,0,62.728843,150.15111)" />
    <path
       id="path45"
       d="M 5.20058,0 C 3.65962,0.28891 1.15567,1.15567 -0.57784,2.1669 V -2.1669 C 1.15567,-1.15567 3.65962,-0.28891 5.20058,0"
       style="fill:#4c4c4c;fill-opacity:1;fill-rule:nonzero;stroke:none"
       transform="matrix(0,-1.0666667,-1.0666667,0,62.728843,68.144907)" />
    <path
       id="path46"
       d="M 4.3950645,-2.6510527 V 3.1445313e-4 H 5.1274863 V -5.8151152 H 4.3950645 V -3.295584 H 1.4067832 V -5.8151152 H 0.65971289 V 3.1445313e-4 H 1.4067832 V -2.6510527 Z m 5.4455566,0.7910156 c 0,-0.6445313 -0.043945,-1.0253906 -0.1611328,-1.3330078 -0.2783203,-0.6884766 -0.9082031,-1.0986328 -1.6992188,-1.0986328 -1.1572265,0 -1.9042968,0.8935547 -1.9042968,2.2558593 0,1.37695317 0.7177734,2.22656254 1.8896484,2.22656254 0.9667969,0 1.6259766,-0.54199219 1.7871094,-1.45019534 H 9.0789023 c -0.1757812,0.54199222 -0.5566406,0.83496097 -1.0839843,0.83496097 -0.4248047,0 -0.7763672,-0.19042969 -1.0107422,-0.54199219 C 6.823043,-1.2155059 6.7790977,-1.4498809 6.7644492,-1.8600371 Z M 6.7790977,-2.4020293 c 0.058594,-0.7763672 0.5273437,-1.2744141 1.2011718,-1.2744141 0.6445313,0 1.1572266,0.5419922 1.1572266,1.2158204 0,0.029297 0,0.043945 -0.014648,0.058594 z M 11.386031,-4.1744902 H 10.712203 V 3.1445313e-4 h 0.673828 z m 0,-1.640625 h -0.673828 v 0.8496093 h 0.673828 z m 3.848877,1.640625 v 0.6005859 c -0.336914,-0.4833984 -0.732422,-0.7177734 -1.274414,-0.7177734 -1.054687,0 -1.772461,0.9228515 -1.772461,2.2705078 0,0.6884765 0.175781,1.24511717 0.527344,1.64062498 0.307617,0.3515625 0.74707,0.57128906 1.186523,0.57128906 0.527344,0 0.893555,-0.234375 1.274414,-0.76171875 v 0.21972656 c 0,0.57128907 -0.07324,0.90820313 -0.249023,1.14257813 -0.175781,0.24902342 -0.512695,0.39550782 -0.922852,0.39550782 -0.292968,0 -0.571289,-0.087891 -0.74707,-0.23437501 -0.161133,-0.1171875 -0.219726,-0.21972656 -0.263672,-0.46875 h -0.673828 c 0.07324,0.77636721 0.688477,1.25976561 1.669922,1.25976561 0.615234,0 1.157227,-0.2050781 1.420898,-0.5419922 0.322266,-0.38085935 0.439454,-0.9082031 0.439454,-1.88964841 V -4.1744902 Z m -1.201172,0.4980468 c 0.717774,0 1.142578,0.600586 1.142578,1.640625 0,0.9960938 -0.439453,1.61132817 -1.127929,1.61132817 -0.732422,0 -1.171875,-0.61523437 -1.171875,-1.62597657 0,-1.0107422 0.454101,-1.6259766 1.157226,-1.6259766 z m 2.907715,-2.1386718 V 3.1445313e-4 h 0.65918 V -2.2994902 c 0,-0.8496094 0.454101,-1.4208985 1.12793,-1.4208985 0.219726,0 0.439453,0.073242 0.600585,0.2050782 0.19043,0.1318359 0.263672,0.3222656 0.263672,0.6298828 V 3.1445313e-4 h 0.65918 V -3.1490996 c 0,-0.703125 -0.498047,-1.1425781 -1.303711,-1.1425781 -0.600586,0 -0.952148,0.1757812 -1.347656,0.6884765 v -2.211914 z m 5.899658,1.640625 h -0.688476 v -1.1425782 h -0.65918 v 1.1425782 h -0.556641 v 0.5419922 h 0.556641 v 3.14941402 c 0,0.42480468 0.292969,0.67382812 0.805664,0.67382812 0.161133,0 0.322266,-0.0292969 0.541992,-0.0585938 v -0.55664062 c -0.08789,0.0146484 -0.190429,0.0292969 -0.322265,0.0292969 -0.278321,0 -0.366211,-0.0878906 -0.366211,-0.38085937 V -3.632498 h 0.688476 z m 1.893311,3.33984372 H 23.914107 V 3.1445313e-4 h 0.820313 z m 0,-3.33984372 h -0.820313 v 0.8349609 h 0.820313 z m 5.006103,1.5820312 h 0.38086 c 0.776367,0 1.171875,0.3515625 1.171875,1.0253906 0,0.70312504 -0.439453,1.12792973 -1.171875,1.12792973 -0.761719,0 -1.12793,-0.38085938 -1.186524,-1.20117183 h -0.703125 c 0.04395,0.4541015 0.117188,0.74707027 0.249024,0.9960937 0.292969,0.54199219 0.849609,0.83496094 1.625976,0.83496094 1.157227,0 1.904297,-0.703125 1.904297,-1.77246094 0,-0.7177734 -0.27832,-1.1132812 -0.952148,-1.3476562 0.527344,-0.2050782 0.791015,-0.600586 0.791015,-1.171875 0,-0.9667969 -0.644531,-1.5527344 -1.728515,-1.5527344 -1.12793,0 -1.743164,0.6298828 -1.757813,1.8310547 h 0.688477 c 0.01465,-0.3515625 0.04394,-0.5419922 0.131836,-0.7177735 0.161133,-0.3076172 0.512695,-0.4980468 0.952148,-0.4980468 0.615235,0 0.996094,0.3662109 0.996094,0.9667968 0,0.3955078 -0.146484,0.6445313 -0.454102,0.7617188 -0.190429,0.087891 -0.439453,0.1171875 -0.9375,0.1171875 z m 6.35376,0.131836 h 1.831055 c 0.454101,0 0.805664,-0.131836 1.113281,-0.4101563 0.351563,-0.3222656 0.512695,-0.703125 0.512695,-1.2304687 0,-1.0986329 -0.644531,-1.7138672 -1.801757,-1.7138672 H 35.361861 V 3.1445313e-4 h 0.732422 z m 0,-0.6591797 v -2.0361328 h 1.552735 c 0.703125,0 1.127929,0.3808593 1.127929,1.0253906 0,0.6298828 -0.424804,1.0107422 -1.127929,1.0107422 z m 5.053711,-1.0546875 H 40.474166 V 3.1445313e-4 h 0.673828 z m 0,-1.640625 h -0.673828 v 0.8496093 h 0.673828 z m 2.896729,3.6621093 1.40625,-2.0214843 h -0.761719 l -0.996094,1.508789 -1.010742,-1.508789 h -0.74707 l 1.391601,2.0507812 -1.479492,2.12402345313 h 0.761719 L 43.663863,-1.5963652 44.718551,3.1445313e-4 h 0.761719 z m 5.511474,0.2929688 c 0,-0.6445313 -0.04395,-1.0253906 -0.161133,-1.3330078 -0.27832,-0.6884766 -0.908203,-1.0986328 -1.699218,-1.0986328 -1.157227,0 -1.904297,0.8935547 -1.904297,2.2558593 0,1.37695317 0.717773,2.22656254 1.889648,2.22656254 0.966797,0 1.625977,-0.54199219 1.78711,-1.45019534 h -0.673828 c -0.175782,0.54199222 -0.556641,0.83496097 -1.083985,0.83496097 -0.424805,0 -0.776367,-0.19042969 -1.010742,-0.54199219 C 46.538619,-1.2155059 46.494674,-1.4498809 46.480025,-1.8600371 Z m -3.061523,-0.5419922 c 0.05859,-0.7763672 0.527344,-1.2744141 1.201172,-1.2744141 0.644531,0 1.157226,0.5419922 1.157226,1.2158204 0,0.029297 0,0.043945 -0.01465,0.058594 z m 4.621582,-3.4130859 H 50.442428 V 3.1445313e-4 h 0.673828 z m 0,0"
       style="fill:#4c4c4c;fill-opacity:1;fill-rule:nonzero;stroke:none"
       aria-label="Height:3Pixel"
       transform="matrix(1.0666667,0,0,1.0666667,3.5424,111.23013)" />
    <path
       id="path47"
       d="M -18.19951,22.23318 28.62492,69.05763"
       style="fill:none;stroke:#4c4c4c;stroke-width:0.99628;stroke-linecap:butt;stroke-linejoin:miter;stroke-miterlimit:10;stroke-dasharray:2.98883, 2.98883;stroke-dashoffset:0;stroke-opacity:1"
       transform="matrix(1.0666667,0,0,-1.0666667,90.340267,78.1144)" />
    <path
       id="path48"
       d="M 5.20058,0 C 3.65962,0.28891 1.15567,1.15567 -0.57784,2.1669 V -2.1669 C 1.15567,-1.15567 3.65962,-0.28891 5.20058,0"
       style="fill:#4c4c4c;fill-opacity:1;fill-rule:nonzero;stroke:none"
       transform="matrix(-0.75424,0.75424,0.75424,0.75424,70.927467,54.398987)" />
    <path
       id="path49"
       d="M 5.20058,0 C 3.65962,0.28891 1.15567,1.15567 -0.57784,2.1669 V -2.1669 C 1.15567,-1.15567 3.65962,-0.28891 5.20058,0"
       style="fill:#4c4c4c;fill-opacity:1;fill-rule:nonzero;stroke:none"
       transform="matrix(0.75424,-0.75424,-0.75424,-0.75424,120.8735,4.4529387)" />
    <path
       id="path50"
       d="m 1.7581348,-2.5914883 h 0.3808593 c 0.7763672,0 1.171875,0.3515625 1.171875,1.0253906 0,0.70312504 -0.4394531,1.12792973 -1.171875,1.12792973 -0.7617187,0 -1.1279296,-0.38085937 -1.1865234,-1.20117183 h -0.703125 c 0.0439453,0.4541015 0.1171875,0.74707027 0.24902344,0.99609371 0.29296875,0.54199218 0.84960936,0.83496093 1.62597656,0.83496093 1.1572266,0 1.9042969,-0.703125 1.9042969,-1.77246094 0,-0.7177734 -0.2783203,-1.1132812 -0.9521485,-1.3476562 0.5273438,-0.2050782 0.7910157,-0.600586 0.7910157,-1.171875 0,-0.9667969 -0.6445313,-1.5527344 -1.7285157,-1.5527344 -1.1279296,0 -1.74316402,0.6298828 -1.75781246,1.8310547 H 1.0696582 c 0.014648,-0.3515625 0.043945,-0.5419922 0.1318359,-0.7177735 0.1611329,-0.3076172 0.5126954,-0.4980468 0.9521485,-0.4980468 0.6152344,0 0.9960937,0.3662109 0.9960937,0.9667968 0,0.3955078 -0.1464843,0.6445313 -0.4541015,0.7617188 -0.1904297,0.087891 -0.4394532,0.1171875 -0.9375,0.1171875 z M 11.920488,-4.0123867 c -0.234375,-1.2744141 -0.966797,-1.8896485 -2.2412107,-1.8896485 -0.7763671,0 -1.40625,0.2490235 -1.8310546,0.7177735 -0.5273438,0.5859375 -0.8203125,1.40625 -0.8203125,2.34375 0,0.9667969 0.2929687,1.7871094 0.8496093,2.34374998 0.4394532,0.46875 1.0107422,0.68847656 1.772461,0.68847656 1.4208985,0 2.2119145,-0.77636718 2.3876955,-2.31445314 h -0.761719 c -0.05859,0.3955078 -0.146484,0.6738281 -0.263672,0.9082031 -0.234375,0.46875004 -0.732422,0.74707036 -1.3476561,0.74707036 -1.1572266,0 -1.8896484,-0.92285156 -1.8896484,-2.37304686 0,-1.4941406 0.703125,-2.4169922 1.8164062,-2.4169922 0.4687503,0 0.9082033,0.1464844 1.1572263,0.3808594 0.205078,0.1904297 0.322266,0.4394531 0.410157,0.8642578 z m 2.647705,-0.2783203 c -1.171875,0 -1.875,0.8349609 -1.875,2.2412109 0,1.39160157 0.688477,2.24121094 1.889649,2.24121094 1.157226,0 1.875,-0.84960937 1.875,-2.21191404 0,-1.4501953 -0.688477,-2.2705078 -1.889649,-2.2705078 z m 0.01465,0.6152343 c 0.74707,0 1.186523,0.6152344 1.186523,1.640625 0,0.9814454 -0.454101,1.61132817 -1.186523,1.61132817 -0.747071,0 -1.201172,-0.61523437 -1.201172,-1.62597657 0,-1.0107422 0.454101,-1.6259766 1.201172,-1.6259766 z m 3.464355,-2.1386718 H 17.37337 v 5.81542966 h 0.673828 z m 2.72461,1.5234375 c -1.171875,0 -1.875,0.8349609 -1.875,2.2412109 0,1.39160157 0.688476,2.24121094 1.889648,2.24121094 1.157227,0 1.875,-0.84960937 1.875,-2.21191404 0,-1.4501953 -0.688476,-2.2705078 -1.889648,-2.2705078 z m 0.01465,0.6152343 c 0.74707,0 1.186524,0.6152344 1.186524,1.640625 0,0.9814454 -0.454102,1.61132817 -1.186524,1.61132817 -0.74707,0 -1.201172,-0.61523437 -1.201172,-1.62597657 0,-1.0107422 0.454102,-1.6259766 1.201172,-1.6259766 z m 2.805176,-0.4980468 v 4.17480466 h 0.65918 V -2.1666836 c 0,-0.6005859 0.161132,-0.9814453 0.46875,-1.2158203 0.205078,-0.1611328 0.410156,-0.2050781 0.878906,-0.2050781 v -0.6884766 c -0.117188,-0.014648 -0.175781,-0.014648 -0.263672,-0.014648 -0.424805,0 -0.74707,0.2490234 -1.142578,0.8789062 v -0.7617187 z m 9.58374,0.1611328 c -0.234375,-1.2744141 -0.966797,-1.8896485 -2.241211,-1.8896485 -0.776367,0 -1.40625,0.2490235 -1.831055,0.7177735 -0.527343,0.5859375 -0.820312,1.40625 -0.820312,2.34375 0,0.9667969 0.292969,1.7871094 0.849609,2.34374998 0.439453,0.46875 1.010743,0.68847656 1.772461,0.68847656 1.420899,0 2.211914,-0.77636718 2.387696,-2.31445314 H 32.53084 c -0.05859,0.3955078 -0.146485,0.6738281 -0.263672,0.9082031 -0.234375,0.46875004 -0.732422,0.74707036 -1.347656,0.74707036 -1.157227,0 -1.889649,-0.92285156 -1.889649,-2.37304686 0,-1.4941406 0.703125,-2.4169922 1.816407,-2.4169922 0.46875,0 0.908203,0.1464844 1.157226,0.3808594 0.205078,0.1904297 0.322266,0.4394531 0.410156,0.8642578 z m 1.040039,-1.8017578 v 5.81542966 h 0.65918 V -2.2985195 c 0,-0.8496094 0.454101,-1.4208985 1.12793,-1.4208985 0.219726,0 0.439453,0.073242 0.600585,0.2050782 0.19043,0.1318359 0.263672,0.3222656 0.263672,0.6298828 v 2.88574216 h 0.65918 V -3.1481289 c 0,-0.703125 -0.498047,-1.1425781 -1.303711,-1.1425781 -0.600586,0 -0.952148,0.1757812 -1.347656,0.6884765 v -2.211914 z m 8.137207,5.41992184 c -0.07324,0.0146484 -0.102539,0.0146484 -0.146484,0.0146484 -0.234375,0 -0.351563,-0.1171875 -0.351563,-0.32226562 V -3.1481289 c 0,-0.7470703 -0.541992,-1.1425781 -1.567382,-1.1425781 -0.615235,0 -1.113282,0.1757812 -1.391602,0.4833984 -0.19043,0.2197266 -0.27832,0.4541016 -0.292969,0.8642578 h 0.673828 c 0.05859,-0.5126953 0.366211,-0.7324219 0.981446,-0.7324219 0.600586,0 0.9375,0.2197266 0.9375,0.6152344 v 0.1757813 c 0,0.2783203 -0.175782,0.3955078 -0.703125,0.46875 -0.9375,0.1171875 -1.083985,0.1464843 -1.333008,0.2490234 -0.483399,0.2050781 -0.732422,0.5712891 -0.732422,1.1132813 0,0.76171871 0.527344,1.24511714 1.362305,1.24511714 0.527343,0 0.952148,-0.19042968 1.420898,-0.61523437 0.05859,0.41015625 0.263672,0.61523437 0.688477,0.61523437 0.131836,0 0.234375,-0.0292969 0.454101,-0.0732422 z M 41.195391,-1.3170742 c 0,0.2197265 -0.07324,0.36621092 -0.263672,0.54199217 -0.278321,0.24902344 -0.600586,0.38085937 -0.996094,0.38085937 -0.512695,0 -0.820312,-0.24902343 -0.820312,-0.67382814 0,-0.4394531 0.292968,-0.6591797 1.010742,-0.7617187 0.703125,-0.1025391 0.834961,-0.131836 1.069336,-0.234375 z m 1.882324,-2.8564453 v 4.17480466 h 0.673828 V -2.2985195 c 0,-0.8496094 0.439453,-1.4208985 1.12793,-1.4208985 0.527343,0 0.864257,0.3222657 0.864257,0.834961 v 2.88574216 h 0.65918 V -3.1481289 c 0,-0.703125 -0.512695,-1.1425781 -1.318359,-1.1425781 -0.629883,0 -1.025391,0.234375 -1.391602,0.8203125 v -0.703125 z m 4.431152,0 v 4.17480466 h 0.673828 V -2.2985195 c 0,-0.8496094 0.439453,-1.4208985 1.12793,-1.4208985 0.527344,0 0.864258,0.3222657 0.864258,0.834961 v 2.88574216 h 0.65918 V -3.1481289 c 0,-0.703125 -0.512696,-1.1425781 -1.31836,-1.1425781 -0.629883,0 -1.02539,0.234375 -1.391601,0.8203125 v -0.703125 z m 7.961426,2.3144531 c 0,-0.6445313 -0.04395,-1.0253906 -0.161133,-1.3330078 -0.27832,-0.6884766 -0.908203,-1.0986328 -1.699219,-1.0986328 -1.157226,0 -1.904296,0.8935547 -1.904296,2.2558593 0,1.37695317 0.717773,2.22656254 1.889648,2.22656254 0.966797,0 1.625977,-0.54199218 1.787109,-1.45019534 h -0.673828 c -0.175781,0.54199222 -0.55664,0.83496097 -1.083984,0.83496097 -0.424805,0 -0.776367,-0.19042969 -1.010742,-0.54199219 C 52.452715,-1.2145352 52.40877,-1.4489102 52.394121,-1.8590664 Z M 52.40877,-2.4010586 c 0.05859,-0.7763672 0.527343,-1.2744141 1.201171,-1.2744141 0.644532,0 1.157227,0.5419922 1.157227,1.2158204 0,0.029297 0,0.043945 -0.01465,0.058594 z m 4.621582,-3.4130859 h -0.673829 v 5.81542966 h 0.673829 z m 4.039306,2.7978515 c 0,-0.8203125 -0.541992,-1.274414 -1.508789,-1.274414 -0.966797,0 -1.59668,0.4980468 -1.59668,1.274414 0,0.6445313 0.322266,0.9667969 1.31836,1.2011719 l 0.615234,0.1464844 c 0.46875,0.1171875 0.644531,0.2783203 0.644531,0.5859375 0,0.39550779 -0.380859,0.65917967 -0.966796,0.65917967 -0.351563,0 -0.65918,-0.10253906 -0.834961,-0.27832031 -0.102539,-0.13183594 -0.146485,-0.24902344 -0.19043,-0.54199216 h -0.703125 c 0.04394,0.96679684 0.585937,1.43554684 1.669922,1.43554684 1.054687,0 1.728515,-0.52734375 1.728515,-1.33300784 0,-0.6152343 -0.351562,-0.9667968 -1.186523,-1.1572265 l -0.629883,-0.1611328 c -0.541992,-0.1171875 -0.776367,-0.2929688 -0.776367,-0.5859375 0,-0.3808594 0.336914,-0.6298829 0.878906,-0.6298829 0.541992,0 0.820313,0.2197266 0.834961,0.6591797 z m 0,0"
       style="fill:#4c4c4c;fill-opacity:1;fill-rule:nonzero;stroke:none"
       aria-label="3ColorChannels"
       transform="matrix(1.0666667,0,0,1.0666667,21.152,28.397067)" />
  </g>
</svg>
