<?xml version="1.0" encoding="UTF-8" standalone="no"?>
<!-- Created with Inkscape (http://www.inkscape.org/) -->

<svg
   version="1.1"
   id="svg1"
   width="501.52267"
   height="124.088"
   viewBox="0 0 501.52267 124.088"
   xmlns="http://www.w3.org/2000/svg"
   xmlns:svg="http://www.w3.org/2000/svg">
  <defs
     id="defs1" />
  <g
     id="g1">
    <path
       id="path1"
       d="m 21.10724,19.92555 h -42.21448 v -39.8511 h 42.21448 z"
       style="fill:#ccccff;fill-opacity:1;fill-rule:nonzero;stroke:#000000;stroke-width:0.49814;stroke-linecap:butt;stroke-linejoin:miter;stroke-miterlimit:10;stroke-dasharray:none;stroke-opacity:1"
       transform="matrix(1.3333333,0,0,-1.3333333,160.70133,97.189333)" />
    <path
       id="path2"
       d="m 2.3382344,-4.4348867 c 0,-0.1875 -0.017578,-0.1933594 -0.2109375,-0.1933594 -0.4453125,0.4394531 -1.078125,0.4453125 -1.3652344,0.4453125 v 0.2519531 c 0.1640625,0 0.6269531,0 1.0078125,-0.1933593 v 3.55078121 c 0,0.234375 0,0.32226562 -0.6972656,0.32226562 H 0.8089375 V 6.6015625e-4 C 0.93198438,-0.00519922 1.7933125,-0.02863672 2.051125,-0.02863672 c 0.2167969,0 1.0957031,0.0234375 1.2480469,0.0292968763 V -0.25129297 H 3.0355 c -0.6972656,0 -0.6972656,-0.0878906 -0.6972656,-0.32226562 z m 0,0"
       style="fill:#000000;fill-opacity:1;fill-rule:nonzero;stroke:none"
       aria-label="1"
       transform="matrix(2.6666667,0,0,2.6666667,155.40533,93.369333)" />
    <path
       id="path3"
       d="M 0,0 H 12.075"
       style="fill:none;stroke:#000000;stroke-width:0.398;stroke-linecap:butt;stroke-linejoin:miter;stroke-miterlimit:10;stroke-dasharray:none;stroke-opacity:1"
       transform="matrix(2.6666667,0,0,-2.6666667,144.6,97.188)" />
    <path
       id="path4"
       d="m 2.8775391,-4.2709141 c 0.052734,-0.1992187 0.064453,-0.2167968 0.2167968,-0.2402343 h 0.4511719 c 0.6445313,0 1.4472656,0 1.4472656,0.7207031 0,0.28125 -0.1347656,0.7207031 -0.4570312,0.9726562 -0.2871094,0.2226563 -0.7207031,0.3339844 -1.2011719,0.3339844 H 2.4322266 Z m 1.265625,1.8984375 c 0.8261718,-0.1933593 1.5703125,-0.6972656 1.5703125,-1.3183593 0,-0.5976563 -0.7148438,-1.0722657 -1.7226563,-1.0722657 H 1.8462891 c -0.1289063,0 -0.2226563,0 -0.2226563,0.1523438 0,0.099609 0.087891,0.099609 0.2226563,0.099609 0.011719,0 0.140625,0 0.2695312,0.011719 0.1464844,0.017578 0.1582031,0.029297 0.1582031,0.099609 0,0.011719 0,0.046875 -0.029297,0.1523437 l -0.9257813,3.70312504 c -0.058594,0.24023437 -0.070312,0.29296875 -0.61523436,0.29296875 -0.1171875,0 -0.2109375,0 -0.2109375,0.14648437 0,0.0703125 0.0527344,0.1054687525 0.1171875,0.1054687525 0.12890625,0 0.29296875,-0.0234375025 0.42773436,-0.0234375025 0.1347656,0 0.3339844,-0.0058594 0.4628906,-0.0058594 0.140625,0 0.2988282,0.0058594 0.4453125,0.0058594 0.1464844,0 0.3222657,0.0234375025 0.46875,0.0234375025 0.035156,0 0.1464844,0 0.1464844,-0.1464843725 0,-0.10546875 -0.070312,-0.10546875 -0.234375,-0.10546875 -0.1113281,0 -0.1347656,0 -0.2636719,-0.0117188 -0.1523437,-0.0234375 -0.1523437,-0.0351563 -0.1523437,-0.10546875 0,-0.005859 0,-0.046875 0.029297,-0.15234375 L 2.3794922,-2.2845859 h 0.9492187 c 0.5976563,0 0.8554688,0.2988281 0.8554688,0.6269531 0,0.087891 -0.064453,0.328125 -0.099609,0.4863281 -0.082031,0.32226564 -0.1113281,0.42773439 -0.1113281,0.54492189 0,0.55078125 0.5097656,0.76757812 1.0253906,0.76757812 0.6445313,0 0.9199219,-0.68554687 0.9199219,-0.80859375 0,-0.0234375 -0.011719,-0.0996094 -0.1171875,-0.0996094 -0.087891,0 -0.1054688,0.046875 -0.1230469,0.1171875 -0.099609,0.31054687 -0.3574219,0.59179687 -0.6503906,0.59179687 -0.1816406,0 -0.3164063,-0.07617187 -0.3164063,-0.45117187 0,-0.17578125 0.046875,-0.53906246 0.070312,-0.72656246 0.029297,-0.1875 0.029297,-0.2578125 0.029297,-0.328125 0,-0.082031 0,-0.3046875 -0.1933594,-0.515625 -0.1347656,-0.1464844 -0.3222656,-0.234375 -0.4746093,-0.2929688 z m 4.7709961,-1.8984375 c 0.052734,-0.1992187 0.064453,-0.2167968 0.2167968,-0.2402343 h 0.4511719 c 0.6445311,0 1.4472661,0 1.4472661,0.7207031 0,0.28125 -0.134766,0.7207031 -0.457032,0.9726562 -0.287109,0.2226563 -0.7207028,0.3339844 -1.2011716,0.3339844 H 8.4688477 Z m 1.2656248,1.8984375 c 0.826172,-0.1933593 1.570313,-0.6972656 1.570313,-1.3183593 0,-0.5976563 -0.714844,-1.0722657 -1.722657,-1.0722657 H 7.8829102 c -0.1289063,0 -0.2226563,0 -0.2226563,0.1523438 0,0.099609 0.087891,0.099609 0.2226563,0.099609 0.011719,0 0.140625,0 0.2695312,0.011719 0.1464844,0.017578 0.1582031,0.029297 0.1582031,0.099609 0,0.011719 0,0.046875 -0.029297,0.1523437 l -0.9257813,3.70312504 c -0.058594,0.24023437 -0.070312,0.29296875 -0.6152344,0.29296875 -0.1171875,0 -0.2109375,0 -0.2109375,0.14648437 0,0.0703125 0.052734,0.1054687525 0.1171875,0.1054687525 0.1289063,0 0.2929688,-0.0234375025 0.4277344,-0.0234375025 0.1347656,0 0.3339844,-0.0058594 0.4628906,-0.0058594 0.140625,0 0.2988282,0.0058594 0.4453125,0.0058594 0.1464844,0 0.3222657,0.0234375025 0.46875,0.0234375025 0.035156,0 0.1464844,0 0.1464844,-0.1464843725 0,-0.10546875 -0.070312,-0.10546875 -0.234375,-0.10546875 -0.1113281,0 -0.1347656,0 -0.2636719,-0.0117188 -0.1523437,-0.0234375 -0.1523437,-0.0351563 -0.1523437,-0.10546875 0,-0.005859 0,-0.046875 0.029297,-0.15234375 L 8.4161133,-2.2845859 H 9.365332 c 0.5976563,0 0.855469,0.2988281 0.855469,0.6269531 0,0.087891 -0.06445,0.328125 -0.09961,0.4863281 -0.08203,0.32226564 -0.111328,0.42773439 -0.111328,0.54492189 0,0.55078125 0.509766,0.76757812 1.025391,0.76757812 0.644531,0 0.919922,-0.68554687 0.919922,-0.80859375 0,-0.0234375 -0.01172,-0.0996094 -0.117188,-0.0996094 -0.08789,0 -0.105468,0.046875 -0.123047,0.1171875 -0.09961,0.31054687 -0.357421,0.59179687 -0.65039,0.59179687 -0.181641,0 -0.316406,-0.07617187 -0.316406,-0.45117187 0,-0.17578125 0.04687,-0.53906246 0.07031,-0.72656246 0.0293,-0.1875 0.0293,-0.2578125 0.0293,-0.328125 0,-0.082031 0,-0.3046875 -0.193359,-0.515625 -0.134766,-0.1464844 -0.322266,-0.234375 -0.47461,-0.2929688 z m 0,0"
       style="fill:#000000;fill-opacity:1;fill-rule:nonzero;stroke:none"
       aria-label="RR"
       transform="matrix(2.6666667,0,0,2.6666667,144.6,112.99067)" />
    <g
       id="g4"
       aria-label="v&#10;0"
       transform="matrix(2.6666667,0,0,2.6666667,148.30267,21.473333)">
      <path
         id="path5"
         d="m 4.6633555,-3.7033789 c 0,-0.5390625 -0.2636719,-0.6972656 -0.4394532,-0.6972656 -0.2519531,0 -0.4921875,0.2578125 -0.4921875,0.4746093 0,0.1289063 0.052734,0.1933594 0.1640625,0.2988282 0.2050782,0.1992187 0.3339844,0.4570312 0.3339844,0.8203125 0,0.4160156 -0.6035156,2.69531247 -1.7695312,2.69531247 -0.5097657,0 -0.7382813,-0.34570313 -0.7382813,-0.8671875 0,-0.55664067 0.2695313,-1.28320317 0.5800781,-2.10937497 0.070312,-0.1699219 0.1171875,-0.3105469 0.1171875,-0.4980469 0,-0.4453125 -0.3164062,-0.8144531 -0.8144531,-0.8144531 -0.93749998,0 -1.31835936,1.4414062 -1.31835936,1.5292968 0,0.099609 0.0996094,0.099609 0.12304688,0.099609 0.0996094,0 0.10546875,-0.017578 0.15820312,-0.1757812 0.28710938,-1.0078125 0.71484376,-1.2363282 1.00781246,-1.2363282 0.076172,0 0.2460938,0 0.2460938,0.3164063 0,0.2519531 -0.099609,0.5214844 -0.1699219,0.6972656 -0.4394531,1.1601563 -0.5683594,1.6171875 -0.5683594,2.0449219 0,1.07812499 0.8789063,1.23632812 1.3359375,1.23632812 1.6757813,0 2.2441407,-3.29882812 2.2441407,-3.81445272 z m 0,0"
         style="fill:#000000;fill-opacity:1;fill-rule:nonzero;stroke:none" />
      <path
         id="path6"
         d="m 8.4265391,-0.73121094 c 0,-0.76757816 -0.087891,-1.31835936 -0.4101563,-1.80468746 -0.2167969,-0.3222657 -0.6503906,-0.5976563 -1.2070312,-0.5976563 -1.6171875,0 -1.6171875,1.9042969 -1.6171875,2.40234376 0,0.50390625 0,2.36718754 1.6171875,2.36718754 1.6171875,0 1.6171875,-1.86328129 1.6171875,-2.36718754 z M 6.8093516,1.4367578 c -0.3222657,0 -0.7441407,-0.1875 -0.8847657,-0.75585936 -0.099609,-0.41015625 -0.099609,-0.984375 -0.099609,-1.5 0,-0.50976564 0,-1.03710934 0.1054687,-1.42382814 0.1464844,-0.5507812 0.5917969,-0.6972656 0.8789063,-0.6972656 0.375,0 0.7382812,0.2285156 0.8671875,0.6328125 0.1113281,0.3808594 0.1171875,0.8789062 0.1171875,1.48828124 0,0.515625 0,1.03125 -0.09375,1.47070312 C 7.5593516,1.2844141 7.0906016,1.4367578 6.8093516,1.4367578 Z m 0,0"
         style="fill:#000000;fill-opacity:1;fill-rule:nonzero;stroke:none" />
    </g>
    <path
       id="path7"
       d="M 0,21.2556 V 46.16077"
       style="fill:none;stroke:#000000;stroke-width:0.99628;stroke-linecap:butt;stroke-linejoin:miter;stroke-miterlimit:10;stroke-dasharray:none;stroke-opacity:1"
       transform="matrix(1.3333333,0,0,-1.3333333,160.70133,97.189333)" />
    <path
       id="path8"
       d="M -1.73352,2.31136 C -1.58905,1.4446 0,0.14444 0.43336,0 0,-0.14444 -1.58905,-1.4446 -1.73352,-2.31136"
       style="fill:none;stroke:#000000;stroke-width:0.79701;stroke-linecap:round;stroke-linejoin:round;stroke-miterlimit:10;stroke-dasharray:none;stroke-opacity:1"
       transform="matrix(0,1.3333333,1.3333333,0,160.70133,68.848533)" />
    <path
       id="path9"
       d="m 161.65965,19.92555 h -39.85113 v -39.8511 h 39.85113 z"
       style="fill:#ccccff;fill-opacity:1;fill-rule:nonzero;stroke:#000000;stroke-width:0.49814;stroke-linecap:butt;stroke-linejoin:miter;stroke-miterlimit:10;stroke-dasharray:none;stroke-opacity:1"
       transform="matrix(1.3333333,0,0,-1.3333333,160.70133,97.189333)" />
    <path
       id="path10"
       d="m 2.3384453,-4.4348867 c 0,-0.1875 -0.017578,-0.1933594 -0.2109375,-0.1933594 -0.4453125,0.4394531 -1.078125,0.4453125 -1.36523436,0.4453125 v 0.2519531 c 0.1640625,0 0.62695316,0 1.00781246,-0.1933593 v 3.55078121 c 0,0.234375 0,0.32226562 -0.6972656,0.32226562 H 0.80914844 V 6.6015625e-4 C 0.93219531,-0.00519922 1.7935234,-0.02863672 2.0513359,-0.02863672 c 0.2167969,0 1.0957032,0.0234375 1.2480469,0.0292968763 V -0.25129297 H 3.0357109 c -0.6972656,0 -0.6972656,-0.0878906 -0.6972656,-0.32226562 z m 0,0"
       style="fill:#000000;fill-opacity:1;fill-rule:nonzero;stroke:none"
       aria-label="1"
       transform="matrix(2.6666667,0,0,2.6666667,344.38133,93.369333)" />
    <path
       id="path11"
       d="M 0,0 H 3.971"
       style="fill:none;stroke:#000000;stroke-width:0.398;stroke-linecap:butt;stroke-linejoin:miter;stroke-miterlimit:10;stroke-dasharray:none;stroke-opacity:1"
       transform="matrix(2.6666667,0,0,-2.6666667,344.38133,97.188)" />
    <path
       id="path12"
       d="m 3.0058828,-2.6185703 c -0.1816406,0.041016 -0.2929687,0.1875 -0.2929687,0.3222656 0,0.1640625 0.140625,0.2285156 0.2285156,0.2285156 0.070312,0 0.3339844,-0.046875 0.3339844,-0.3984375 0,-0.4570312 -0.4980469,-0.609375 -0.9257813,-0.609375 -1.0898437,0 -1.2832031,0.8027344 -1.2832031,1.0195313 0,0.2578125 0.1464844,0.4277344 0.2460937,0.5097656 0.1816407,0.140625 0.3046875,0.1640625 0.7851563,0.2519531 0.1464844,0.023437 0.5917969,0.1113282 0.5917969,0.45703129 0,0.1171875 -0.076172,0.38671875 -0.3691407,0.55664062 -0.2695312,0.15820313 -0.609375,0.15820313 -0.6972656,0.15820313 -0.2753906,0 -0.67382811,-0.0644531 -0.83789061,-0.29296875 0.23437501,-0.0292969 0.38671871,-0.20507813 0.38671871,-0.3984375 0,-0.17578125 -0.1230468,-0.25781249 -0.26953121,-0.25781249 -0.20507813,0 -0.41015625,0.15820311 -0.41015625,0.46289061 0,0.421875 0.45117187,0.6796875 1.12499996,0.6796875 1.2832032,0 1.5234375,-0.87890625 1.5234375,-1.14843751 0,-0.6445312 -0.7089843,-0.7675781 -0.9667968,-0.8203125 -0.058594,-0.011719 -0.234375,-0.041016 -0.2753907,-0.052734 -0.2578125,-0.052734 -0.3867187,-0.1992187 -0.3867187,-0.3515625 0,-0.1582031 0.1289062,-0.3457031 0.28125,-0.4453125 0.1875,-0.1171875 0.4335937,-0.1289062 0.5507812,-0.1289062 0.1464844,0 0.5097657,0.017578 0.6621094,0.2578121 z m 0,0"
       style="fill:#000000;fill-opacity:1;fill-rule:nonzero;stroke:none"
       aria-label="s"
       transform="matrix(2.6666667,0,0,2.6666667,344.664,112.99067)" />
    <g
       id="g12"
       aria-label="p&#10;0"
       transform="matrix(2.6666667,0,0,2.6666667,337.03467,20.293333)">
      <path
         id="path13"
         d="m 0.44549609,1.2127539 c -0.0761719,0.3398438 -0.0996094,0.4101563 -0.53320312,0.4101563 -0.12304688,0 -0.22851563,0 -0.22851563,0.1875 0,0.082031 0.046875,0.1230468 0.12890625,0.1230468 0.26953125,0 0.55664063,-0.029297 0.83203125,-0.029297 0.33398438,0 0.66796876,0.029297 0.99023436,0.029297 0.046875,0 0.1757813,0 0.1757813,-0.1992187 0,-0.1113281 -0.099609,-0.1113281 -0.234375,-0.1113281 -0.4980469,0 -0.4980469,-0.070312 -0.4980469,-0.1582032 0,-0.1230468 0.4160156,-1.74609372 0.4863281,-1.99218747 0.1289063,0.28710938 0.4101563,0.63867188 0.9140625,0.63867188 1.1542969,0 2.4023438,-1.45312501 2.4023438,-2.91796871 0,-0.9375 -0.5683594,-1.59375 -1.3242188,-1.59375 -0.4980469,0 -0.9785156,0.3574218 -1.3066406,0.7441406 -0.099609,-0.5390625 -0.5273438,-0.7441406 -0.8964844,-0.7441406 -0.45703123,0 -0.64453123,0.3867187 -0.73828123,0.5683593 -0.17578125,0.3339844 -0.3046875,0.9316407 -0.3046875,0.9609375 0,0.099609 0.0996094,0.099609 0.1171875,0.099609 0.0996094,0 0.11132812,-0.00586 0.16992187,-0.2285156 0.16992188,-0.703125 0.36914063,-1.1835938 0.72656246,-1.1835938 0.1699219,0 0.3105469,0.082031 0.3105469,0.4570313 0,0.2285156 -0.029297,0.3398437 -0.070312,0.5097656 z M 2.2033086,-3.1056055 c 0.070312,-0.2695312 0.3339844,-0.5507812 0.515625,-0.6972656 0.3515625,-0.3105469 0.6386719,-0.3808594 0.8085937,-0.3808594 0.3984375,0 0.6386719,0.3515625 0.6386719,0.9375 0,0.5859375 -0.3339844,1.734375 -0.5097656,2.109375 -0.3398438,0.69726566 -0.8203125,1.02539066 -1.1835938,1.02539066 -0.6621093,0 -0.7910156,-0.82617188 -0.7910156,-0.88476563 0,-0.0175781 0,-0.0410156 0.029297,-0.15820313 z m 0,0"
         style="fill:#000000;fill-opacity:1;fill-rule:nonzero;stroke:none" />
      <path
         id="path14"
         d="m 8.6105352,-0.73255859 c 0,-0.76757811 -0.087891,-1.31835941 -0.4101563,-1.80468751 -0.2167969,-0.3222656 -0.6503906,-0.5976562 -1.2070312,-0.5976562 -1.6171875,0 -1.6171875,1.9042968 -1.6171875,2.40234371 0,0.50390625 0,2.36718749 1.6171875,2.36718749 1.6171875,0 1.6171875,-1.86328124 1.6171875,-2.36718749 z M 6.9933477,1.4354102 c -0.3222657,0 -0.7441407,-0.1875 -0.8847657,-0.75585942 -0.099609,-0.41015625 -0.099609,-0.984375 -0.099609,-1.5 0,-0.50976558 0,-1.03710938 0.1054687,-1.42382808 0.1464844,-0.5507813 0.5917969,-0.6972657 0.8789063,-0.6972657 0.375,0 0.7382812,0.2285157 0.8671875,0.6328125 0.1113281,0.3808594 0.1171875,0.8789063 0.1171875,1.48828128 0,0.515625 0,1.03125 -0.09375,1.47070313 C 7.7433477,1.2830664 7.2745977,1.4354102 6.9933477,1.4354102 Z m 0,0"
         style="fill:#000000;fill-opacity:1;fill-rule:nonzero;stroke:none" />
    </g>
    <path
       id="path15"
       d="M 141.73409,21.2556 V 46.16077"
       style="fill:none;stroke:#000000;stroke-width:0.99628;stroke-linecap:butt;stroke-linejoin:miter;stroke-miterlimit:10;stroke-dasharray:none;stroke-opacity:1"
       transform="matrix(1.3333333,0,0,-1.3333333,160.70133,97.189333)" />
    <path
       id="path16"
       d="M -1.73352,2.31136 C -1.58905,1.4446 0,0.14444 0.43336,0 0,-0.14444 -1.58905,-1.4446 -1.73352,-2.31136"
       style="fill:none;stroke:#000000;stroke-width:0.79701;stroke-linecap:round;stroke-linejoin:round;stroke-miterlimit:10;stroke-dasharray:none;stroke-opacity:1"
       transform="matrix(0,1.3333333,1.3333333,0,349.68012,68.848533)" />
    <path
       id="path17"
       d="m -113.38727,0 h 84.80795"
       style="fill:none;stroke:#000000;stroke-width:0.99628;stroke-linecap:butt;stroke-linejoin:miter;stroke-miterlimit:10;stroke-dasharray:none;stroke-opacity:1"
       transform="matrix(1.3333333,0,0,-1.3333333,160.70133,97.189333)" />
    <path
       id="path18"
       d="M 4.92007,0 C 4.31586,0.15076 1.65996,1.00505 0,1.93475 v -3.8695 C 1.65996,-1.00505 4.31586,-0.15076 4.92007,0 Z"
       style="fill:#000000;fill-opacity:1;fill-rule:nonzero;stroke:#000000;stroke-width:0.99628;stroke-linecap:butt;stroke-linejoin:miter;stroke-miterlimit:10;stroke-dasharray:none;stroke-opacity:1"
       transform="matrix(1.3333333,0,0,-1.3333333,122.59557,97.189333)" />
    <path
       id="path19"
       d="m 3.7141914,-3.7681133 c -0.1816406,-0.3632812 -0.46875,-0.6328125 -0.9140625,-0.6328125 -1.1660156,0 -2.40234374,1.4648438 -2.40234374,2.9179688 0,0.93749997 0.54492187,1.59374997 1.32421874,1.59374997 0.1992188,0 0.6972656,-0.04101563 1.2949219,-0.75 0.082031,0.421875 0.4277344,0.75 0.9082031,0.75 0.3457031,0 0.5742188,-0.22851563 0.7382813,-0.55078125 0.1640625,-0.35742188 0.2988281,-0.96679692 0.2988281,-0.98437502 0,-0.099609 -0.09375,-0.099609 -0.1230469,-0.099609 -0.099609,0 -0.1113281,0.041016 -0.140625,0.1816407 -0.1699219,0.64453122 -0.3457031,1.23046872 -0.7558594,1.23046872 -0.2695312,0 -0.2988281,-0.2578125 -0.2988281,-0.45703125 0,-0.21679688 0.023437,-0.29882813 0.1289063,-0.73828127 0.1113281,-0.4160156 0.1289062,-0.515625 0.2226562,-0.8964844 L 4.3528633,-3.598191 c 0.070312,-0.2753906 0.070312,-0.2988281 0.070312,-0.3339844 0,-0.1699219 -0.1230469,-0.2695312 -0.2929688,-0.2695312 -0.234375,0 -0.3867187,0.2167968 -0.4160151,0.4335933 z m -0.6445312,2.5839844 c -0.052734,0.1757812 -0.052734,0.19921874 -0.1992188,0.36914062 -0.4394531,0.54492187 -0.8496094,0.703125 -1.1308594,0.703125 -0.4980468,0 -0.6328125,-0.54492188 -0.6328125,-0.93164062 0,-0.4980469 0.3164063,-1.7285156 0.5449219,-2.1855469 0.3105469,-0.5859375 0.7558594,-0.9550781 1.1542969,-0.9550781 0.6503906,0 0.7910156,0.8144531 0.7910156,0.8789062 0,0.058594 -0.023437,0.1171875 -0.029297,0.1699219 z m 0,0"
       style="fill:#000000;fill-opacity:1;fill-rule:nonzero;stroke:none"
       aria-label="a"
       transform="matrix(2.6666667,0,0,2.6666667,63.685333,87.005333)" />
    <path
       id="path20"
       d="m 21.60538,0 h 92.73106"
       style="fill:none;stroke:#000000;stroke-width:0.99628;stroke-linecap:butt;stroke-linejoin:miter;stroke-miterlimit:10;stroke-dasharray:none;stroke-opacity:1"
       transform="matrix(1.3333333,0,0,-1.3333333,160.70133,97.189333)" />
    <path
       id="path21"
       d="M 4.92007,0 C 4.31586,0.15076 1.65996,1.00505 0,1.93475 v -3.8695 C 1.65996,-1.00505 4.31586,-0.15076 4.92007,0 Z"
       style="fill:#000000;fill-opacity:1;fill-rule:nonzero;stroke:#000000;stroke-width:0.99628;stroke-linecap:butt;stroke-linejoin:miter;stroke-miterlimit:10;stroke-dasharray:none;stroke-opacity:1"
       transform="matrix(1.3333333,0,0,-1.3333333,313.14992,97.189333)" />
    <path
       id="path22"
       d="m 4.6645,-3.7036602 c 0,-0.5390625 -0.2636719,-0.6972656 -0.4394531,-0.6972656 -0.2519531,0 -0.4921875,0.2578125 -0.4921875,0.4746094 0,0.1289062 0.052734,0.1933594 0.1640625,0.2988281 0.2050781,0.1992188 0.3339844,0.4570313 0.3339844,0.8203125 0,0.4160156 -0.6035157,2.69531252 -1.7695313,2.69531252 -0.5097656,0 -0.7382812,-0.34570313 -0.7382812,-0.8671875 0,-0.55664062 0.2695312,-1.28320312 0.5800781,-2.10937502 0.070312,-0.1699219 0.1171875,-0.3105469 0.1171875,-0.4980469 0,-0.4453125 -0.3164063,-0.8144531 -0.8144531,-0.8144531 -0.93750005,0 -1.31835942,1.4414063 -1.31835942,1.5292969 0,0.099609 0.0996094,0.099609 0.12304687,0.099609 0.0996094,0 0.10546875,-0.017578 0.15820313,-0.1757813 0.28710937,-1.0078125 0.71484372,-1.2363281 1.00781252,-1.2363281 0.076172,0 0.2460937,0 0.2460937,0.3164062 0,0.2519532 -0.099609,0.5214844 -0.1699218,0.6972657 -0.4394532,1.1601562 -0.5683594,1.6171875 -0.5683594,2.0449218 0,1.07812504 0.8789062,1.23632817 1.3359375,1.23632817 1.6757812,0 2.2441406,-3.29882817 2.2441406,-3.81445277 z m 0,0"
       style="fill:#000000;fill-opacity:1;fill-rule:nonzero;stroke:none"
       aria-label="v"
       transform="matrix(2.6666667,0,0,2.6666667,249.06133,87.005333)" />
    <path
       id="path23"
       d="m 162.15779,0 h 85.98963"
       style="fill:none;stroke:#000000;stroke-width:0.99628;stroke-linecap:butt;stroke-linejoin:miter;stroke-miterlimit:10;stroke-dasharray:none;stroke-opacity:1"
       transform="matrix(1.3333333,0,0,-1.3333333,160.70133,97.189333)" />
    <path
       id="path24"
       d="M 4.92007,0 C 4.31586,0.15076 1.65996,1.00505 0,1.93475 v -3.8695 C 1.65996,-1.00505 4.31586,-0.15076 4.92007,0 Z"
       style="fill:#000000;fill-opacity:1;fill-rule:nonzero;stroke:#000000;stroke-width:0.99628;stroke-linecap:butt;stroke-linejoin:miter;stroke-miterlimit:10;stroke-dasharray:none;stroke-opacity:1"
       transform="matrix(1.3333333,0,0,-1.3333333,491.56456,97.189333)" />
    <path
       id="path25"
       d="m 0.44501953,1.212832 c -0.0761719,0.3398438 -0.0996094,0.4101563 -0.53320312,0.4101563 -0.12304688,0 -0.22851563,0 -0.22851563,0.1875 0,0.082031 0.046875,0.1230469 0.12890625,0.1230469 0.26953125,0 0.55664063,-0.029297 0.83203125,-0.029297 0.33398438,0 0.66796872,0.029297 0.99023442,0.029297 0.046875,0 0.1757812,0 0.1757812,-0.1992188 0,-0.1113281 -0.099609,-0.1113281 -0.234375,-0.1113281 -0.4980469,0 -0.4980469,-0.070312 -0.4980469,-0.1582031 0,-0.1230469 0.4160157,-1.74609379 0.4863282,-1.99218754 0.1289062,0.28710937 0.4101562,0.63867187 0.9140625,0.63867187 1.1542968,0 2.4023437,-1.45312503 2.4023437,-2.91796873 0,-0.9375 -0.5683594,-1.59375 -1.3242187,-1.59375 -0.4980469,0 -0.9785157,0.3574219 -1.3066407,0.7441406 -0.099609,-0.5390625 -0.5273437,-0.7441406 -0.8964843,-0.7441406 -0.45703129,0 -0.64453129,0.3867187 -0.73828129,0.5683594 -0.17578125,0.3339843 -0.3046875,0.9316406 -0.3046875,0.9609375 0,0.099609 0.0996094,0.099609 0.1171875,0.099609 0.0996094,0 0.11132812,-0.00586 0.16992187,-0.2285156 0.16992188,-0.703125 0.36914063,-1.1835937 0.72656252,-1.1835937 0.1699219,0 0.3105469,0.082031 0.3105469,0.4570312 0,0.2285156 -0.029297,0.3398438 -0.070312,0.5097656 z M 2.202832,-3.1055273 c 0.070312,-0.2695313 0.3339844,-0.5507813 0.515625,-0.6972657 0.3515625,-0.3105468 0.6386719,-0.3808593 0.8085938,-0.3808593 0.3984375,0 0.6386719,0.3515625 0.6386719,0.9375 0,0.5859375 -0.3339844,1.734375 -0.5097657,2.109375 -0.3398437,0.69726558 -0.8203125,1.02539058 -1.1835937,1.02539058 -0.6621094,0 -0.7910156,-0.82617187 -0.7910156,-0.88476562 0,-0.0175782 0,-0.0410157 0.029297,-0.15820316 z m 0,0"
       style="fill:#000000;fill-opacity:1;fill-rule:nonzero;stroke:none"
       aria-label="p"
       transform="matrix(2.6666667,0,0,2.6666667,432.2,81.84)" />
  </g>
</svg>
