<?xml version="1.0" encoding="UTF-8" standalone="no"?>
<!-- Created with Inkscape (http://www.inkscape.org/) -->

<svg
   version="1.1"
   id="svg1"
   width="320.79468"
   height="196.92799"
   viewBox="0 0 320.79468 196.92799"
   xmlns="http://www.w3.org/2000/svg"
   xmlns:svg="http://www.w3.org/2000/svg">
  <defs
     id="defs1" />
  <g
     id="g1">
    <path
       id="path1"
       d="M 18.42567,-26.92937 V 12.75597 L 6.42091,0.75122 v -39.68535 z"
       style="fill:#64b4d1;fill-opacity:1;fill-rule:nonzero;stroke:#000000;stroke-width:0.69739;stroke-linecap:round;stroke-linejoin:round;stroke-miterlimit:10;stroke-dasharray:none;stroke-opacity:1"
       transform="matrix(0.88769333,0,0,-0.88769333,132.66311,66.991888)" />
    <path
       id="path2"
       d="M -38.93413,-38.93413 V 0.75122 H 6.42091 v -39.68535 h -45.35504"
       style="fill:#a7d4e5;fill-opacity:1;fill-rule:nonzero;stroke:#000000;stroke-width:0.69739;stroke-linecap:round;stroke-linejoin:round;stroke-miterlimit:10;stroke-dasharray:none;stroke-opacity:1"
       transform="matrix(0.88769333,0,0,-0.88769333,132.66311,66.991888)" />
    <path
       id="path3"
       d="M -26.92937,12.75597 -38.93413,0.75122 H 6.42091 l 12.00476,12.00475 z"
       style="fill:#d3eaf2;fill-opacity:1;fill-rule:nonzero;stroke:#000000;stroke-width:0.69739;stroke-linecap:round;stroke-linejoin:round;stroke-miterlimit:10;stroke-dasharray:none;stroke-opacity:1"
       transform="matrix(0.88769333,0,0,-0.88769333,132.66311,66.991888)" />
    <path
       id="path4"
       d="m -8.5037,-53.85875 v 39.68536 l -12.00475,-12.00476 v -39.68536 z"
       style="fill:#64b4d1;fill-opacity:1;fill-rule:nonzero;stroke:#000000;stroke-width:0.69739;stroke-linecap:round;stroke-linejoin:round;stroke-miterlimit:10;stroke-dasharray:none;stroke-opacity:1"
       transform="matrix(0.88769333,0,0,-0.88769333,132.66311,66.991888)" />
    <path
       id="path5"
       d="m -65.86351,-65.86351 v 39.68536 h 45.35506 v -39.68536 h -45.35506"
       style="fill:#a7d4e5;fill-opacity:1;fill-rule:nonzero;stroke:#000000;stroke-width:0.69739;stroke-linecap:round;stroke-linejoin:round;stroke-miterlimit:10;stroke-dasharray:none;stroke-opacity:1"
       transform="matrix(0.88769333,0,0,-0.88769333,132.66311,66.991888)" />
    <path
       id="path6"
       d="m -53.85875,-14.17339 -12.00476,-12.00476 h 45.35506 l 12.00475,12.00476 z"
       style="fill:#d3eaf2;fill-opacity:1;fill-rule:nonzero;stroke:#000000;stroke-width:0.69739;stroke-linecap:round;stroke-linejoin:round;stroke-miterlimit:10;stroke-dasharray:none;stroke-opacity:1"
       transform="matrix(0.88769333,0,0,-0.88769333,132.66311,66.991888)" />
    <path
       id="path7"
       d="m -35.43309,-80.78815 v 39.68537 L -47.43784,-53.10754 V -92.7929 Z"
       style="fill:#64b4d1;fill-opacity:1;fill-rule:nonzero;stroke:#000000;stroke-width:0.69739;stroke-linecap:round;stroke-linejoin:round;stroke-miterlimit:10;stroke-dasharray:none;stroke-opacity:1"
       transform="matrix(0.88769333,0,0,-0.88769333,132.66311,66.991888)" />
    <path
       id="path8"
       d="m -92.7929,-92.7929 v 39.68536 h 45.35506 V -92.7929 H -92.7929"
       style="fill:#a7d4e5;fill-opacity:1;fill-rule:nonzero;stroke:#000000;stroke-width:0.69739;stroke-linecap:round;stroke-linejoin:round;stroke-miterlimit:10;stroke-dasharray:none;stroke-opacity:1"
       transform="matrix(0.88769333,0,0,-0.88769333,132.66311,66.991888)" />
    <path
       id="path9"
       d="M -80.78815,-41.10278 -92.7929,-53.10754 h 45.35506 l 12.00475,12.00476 z"
       style="fill:#d3eaf2;fill-opacity:1;fill-rule:nonzero;stroke:#000000;stroke-width:0.69739;stroke-linecap:round;stroke-linejoin:round;stroke-miterlimit:10;stroke-dasharray:none;stroke-opacity:1"
       transform="matrix(0.88769333,0,0,-0.88769333,132.66311,66.991888)" />
    <path
       id="path10"
       d="m -62.36246,-107.71751 v 39.68534 l -12.00476,-12.00476 v -39.68534 z"
       style="fill:#64b4d1;fill-opacity:1;fill-rule:nonzero;stroke:#000000;stroke-width:0.69739;stroke-linecap:round;stroke-linejoin:round;stroke-miterlimit:10;stroke-dasharray:none;stroke-opacity:1"
       transform="matrix(0.88769333,0,0,-0.88769333,132.66311,66.991888)" />
    <path
       id="path11"
       d="m -119.72227,-119.72227 v 39.68534 h 45.35505 v -39.68534 h -45.35505"
       style="fill:#a7d4e5;fill-opacity:1;fill-rule:nonzero;stroke:#000000;stroke-width:0.69739;stroke-linecap:round;stroke-linejoin:round;stroke-miterlimit:10;stroke-dasharray:none;stroke-opacity:1"
       transform="matrix(0.88769333,0,0,-0.88769333,132.66311,66.991888)" />
    <path
       id="path12"
       d="m -107.71751,-68.03217 -12.00476,-12.00476 h 45.35505 l 12.00476,12.00476 z"
       style="fill:#d3eaf2;fill-opacity:1;fill-rule:nonzero;stroke:#000000;stroke-width:0.69739;stroke-linecap:round;stroke-linejoin:round;stroke-miterlimit:10;stroke-dasharray:none;stroke-opacity:1"
       transform="matrix(0.88769333,0,0,-0.88769333,132.66311,66.991888)" />
    <path
       id="path13"
       d="M 80.78856,-26.92937 V 12.75597 L 68.78381,0.75122 v -39.68535 z"
       style="fill:#d95a9a;fill-opacity:1;fill-rule:nonzero;stroke:#000000;stroke-width:0.69739;stroke-linecap:round;stroke-linejoin:round;stroke-miterlimit:10;stroke-dasharray:none;stroke-opacity:1"
       transform="matrix(0.88769333,0,0,-0.88769333,132.66311,66.991888)" />
    <path
       id="path14"
       d="M 23.42876,-38.93413 V 0.75122 H 68.78381 V -38.93413 H 23.42876"
       style="fill:#e9a1c5;fill-opacity:1;fill-rule:nonzero;stroke:#000000;stroke-width:0.69739;stroke-linecap:round;stroke-linejoin:round;stroke-miterlimit:10;stroke-dasharray:none;stroke-opacity:1"
       transform="matrix(0.88769333,0,0,-0.88769333,132.66311,66.991888)" />
    <path
       id="path15"
       d="M 35.4335,12.75597 23.42876,0.75122 h 45.35505 l 12.00475,12.00475 z"
       style="fill:#f4d0e2;fill-opacity:1;fill-rule:nonzero;stroke:#000000;stroke-width:0.69739;stroke-linecap:round;stroke-linejoin:round;stroke-miterlimit:10;stroke-dasharray:none;stroke-opacity:1"
       transform="matrix(0.88769333,0,0,-0.88769333,132.66311,66.991888)" />
    <path
       id="path16"
       d="m 53.85919,-53.85875 v 39.68536 L 41.85443,-26.17815 v -39.68536 z"
       style="fill:#d95a9a;fill-opacity:1;fill-rule:nonzero;stroke:#000000;stroke-width:0.69739;stroke-linecap:round;stroke-linejoin:round;stroke-miterlimit:10;stroke-dasharray:none;stroke-opacity:1"
       transform="matrix(0.88769333,0,0,-0.88769333,132.66311,66.991888)" />
    <path
       id="path17"
       d="m -3.50061,-65.86351 v 39.68536 H 41.85443 V -65.86351 H -3.50061"
       style="fill:#e9a1c5;fill-opacity:1;fill-rule:nonzero;stroke:#000000;stroke-width:0.69739;stroke-linecap:round;stroke-linejoin:round;stroke-miterlimit:10;stroke-dasharray:none;stroke-opacity:1"
       transform="matrix(0.88769333,0,0,-0.88769333,132.66311,66.991888)" />
    <path
       id="path18"
       d="M 8.50414,-14.17339 -3.50061,-26.17815 h 45.35504 l 12.00476,12.00476 z"
       style="fill:#f4d0e2;fill-opacity:1;fill-rule:nonzero;stroke:#000000;stroke-width:0.69739;stroke-linecap:round;stroke-linejoin:round;stroke-miterlimit:10;stroke-dasharray:none;stroke-opacity:1"
       transform="matrix(0.88769333,0,0,-0.88769333,132.66311,66.991888)" />
    <path
       id="path19"
       d="m 26.9298,-80.78815 v 39.68537 L 14.92503,-53.10754 V -92.7929 Z"
       style="fill:#d95a9a;fill-opacity:1;fill-rule:nonzero;stroke:#000000;stroke-width:0.69739;stroke-linecap:round;stroke-linejoin:round;stroke-miterlimit:10;stroke-dasharray:none;stroke-opacity:1"
       transform="matrix(0.88769333,0,0,-0.88769333,132.66311,66.991888)" />
    <path
       id="path20"
       d="m -30.43001,-92.7929 v 39.68536 H 14.92503 V -92.7929 h -45.35504"
       style="fill:#e9a1c5;fill-opacity:1;fill-rule:nonzero;stroke:#000000;stroke-width:0.69739;stroke-linecap:round;stroke-linejoin:round;stroke-miterlimit:10;stroke-dasharray:none;stroke-opacity:1"
       transform="matrix(0.88769333,0,0,-0.88769333,132.66311,66.991888)" />
    <path
       id="path21"
       d="M -18.42525,-41.10278 -30.43001,-53.10754 H 14.92503 L 26.9298,-41.10278 Z"
       style="fill:#f4d0e2;fill-opacity:1;fill-rule:nonzero;stroke:#000000;stroke-width:0.69739;stroke-linecap:round;stroke-linejoin:round;stroke-miterlimit:10;stroke-dasharray:none;stroke-opacity:1"
       transform="matrix(0.88769333,0,0,-0.88769333,132.66311,66.991888)" />
    <path
       id="path22"
       d="m 4.1e-4,-107.71751 v 39.68534 l -12.00473,-12.00476 v -39.68534 z"
       style="fill:#d95a9a;fill-opacity:1;fill-rule:nonzero;stroke:#000000;stroke-width:0.69739;stroke-linecap:round;stroke-linejoin:round;stroke-miterlimit:10;stroke-dasharray:none;stroke-opacity:1"
       transform="matrix(0.88769333,0,0,-0.88769333,132.66311,66.991888)" />
    <path
       id="path23"
       d="m -57.35939,-119.72227 v 39.68534 h 45.35507 v -39.68534 h -45.35507"
       style="fill:#e9a1c5;fill-opacity:1;fill-rule:nonzero;stroke:#000000;stroke-width:0.69739;stroke-linecap:round;stroke-linejoin:round;stroke-miterlimit:10;stroke-dasharray:none;stroke-opacity:1"
       transform="matrix(0.88769333,0,0,-0.88769333,132.66311,66.991888)" />
    <path
       id="path24"
       d="m -45.35463,-68.03217 -12.00476,-12.00476 h 45.35507 L 4.1e-4,-68.03217 Z"
       style="fill:#f4d0e2;fill-opacity:1;fill-rule:nonzero;stroke:#000000;stroke-width:0.69739;stroke-linecap:round;stroke-linejoin:round;stroke-miterlimit:10;stroke-dasharray:none;stroke-opacity:1"
       transform="matrix(0.88769333,0,0,-0.88769333,132.66311,66.991888)" />
    <path
       id="path25"
       d="M 143.15146,-26.92937 V 12.75597 L 131.1467,0.75122 v -39.68535 z"
       style="fill:#808b74;fill-opacity:1;fill-rule:nonzero;stroke:#000000;stroke-width:0.69739;stroke-linecap:round;stroke-linejoin:round;stroke-miterlimit:10;stroke-dasharray:none;stroke-opacity:1"
       transform="matrix(0.88769333,0,0,-0.88769333,132.66311,66.991888)" />
    <path
       id="path26"
       d="M 85.79164,-38.93413 V 0.75122 H 131.1467 V -38.93413 H 85.79164"
       style="fill:#b6bdaf;fill-opacity:1;fill-rule:nonzero;stroke:#000000;stroke-width:0.69739;stroke-linecap:round;stroke-linejoin:round;stroke-miterlimit:10;stroke-dasharray:none;stroke-opacity:1"
       transform="matrix(0.88769333,0,0,-0.88769333,132.66311,66.991888)" />
    <path
       id="path27"
       d="M 97.7964,12.75597 85.79164,0.75122 h 45.35506 l 12.00476,12.00475 z"
       style="fill:#dbded7;fill-opacity:1;fill-rule:nonzero;stroke:#000000;stroke-width:0.69739;stroke-linecap:round;stroke-linejoin:round;stroke-miterlimit:10;stroke-dasharray:none;stroke-opacity:1"
       transform="matrix(0.88769333,0,0,-0.88769333,132.66311,66.991888)" />
    <path
       id="path28"
       d="m 116.22208,-53.85875 v 39.68536 l -12.00476,-12.00476 v -39.68536 z"
       style="fill:#808b74;fill-opacity:1;fill-rule:nonzero;stroke:#000000;stroke-width:0.69739;stroke-linecap:round;stroke-linejoin:round;stroke-miterlimit:10;stroke-dasharray:none;stroke-opacity:1"
       transform="matrix(0.88769333,0,0,-0.88769333,132.66311,66.991888)" />
    <path
       id="path29"
       d="m 58.86226,-65.86351 v 39.68536 h 45.35506 V -65.86351 H 58.86226"
       style="fill:#b6bdaf;fill-opacity:1;fill-rule:nonzero;stroke:#000000;stroke-width:0.69739;stroke-linecap:round;stroke-linejoin:round;stroke-miterlimit:10;stroke-dasharray:none;stroke-opacity:1"
       transform="matrix(0.88769333,0,0,-0.88769333,132.66311,66.991888)" />
    <path
       id="path30"
       d="M 70.86702,-14.17339 58.86226,-26.17815 h 45.35506 l 12.00476,12.00476 z"
       style="fill:#dbded7;fill-opacity:1;fill-rule:nonzero;stroke:#000000;stroke-width:0.69739;stroke-linecap:round;stroke-linejoin:round;stroke-miterlimit:10;stroke-dasharray:none;stroke-opacity:1"
       transform="matrix(0.88769333,0,0,-0.88769333,132.66311,66.991888)" />
    <path
       id="path31"
       d="m 89.2927,-80.78815 v 39.68537 L 77.28793,-53.10754 V -92.7929 Z"
       style="fill:#808b74;fill-opacity:1;fill-rule:nonzero;stroke:#000000;stroke-width:0.69739;stroke-linecap:round;stroke-linejoin:round;stroke-miterlimit:10;stroke-dasharray:none;stroke-opacity:1"
       transform="matrix(0.88769333,0,0,-0.88769333,132.66311,66.991888)" />
    <path
       id="path32"
       d="m 31.93288,-92.7929 v 39.68536 H 77.28793 V -92.7929 H 31.93288"
       style="fill:#b6bdaf;fill-opacity:1;fill-rule:nonzero;stroke:#000000;stroke-width:0.69739;stroke-linecap:round;stroke-linejoin:round;stroke-miterlimit:10;stroke-dasharray:none;stroke-opacity:1"
       transform="matrix(0.88769333,0,0,-0.88769333,132.66311,66.991888)" />
    <path
       id="path33"
       d="M 43.93764,-41.10278 31.93288,-53.10754 h 45.35505 l 12.00477,12.00476 z"
       style="fill:#dbded7;fill-opacity:1;fill-rule:nonzero;stroke:#000000;stroke-width:0.69739;stroke-linecap:round;stroke-linejoin:round;stroke-miterlimit:10;stroke-dasharray:none;stroke-opacity:1"
       transform="matrix(0.88769333,0,0,-0.88769333,132.66311,66.991888)" />
    <path
       id="path34"
       d="m 62.36331,-107.71751 v 39.68534 L 50.35855,-80.03693 v -39.68534 z"
       style="fill:#808b74;fill-opacity:1;fill-rule:nonzero;stroke:#000000;stroke-width:0.69739;stroke-linecap:round;stroke-linejoin:round;stroke-miterlimit:10;stroke-dasharray:none;stroke-opacity:1"
       transform="matrix(0.88769333,0,0,-0.88769333,132.66311,66.991888)" />
    <path
       id="path35"
       d="m 5.0035,-119.72227 v 39.68534 h 45.35505 v -39.68534 H 5.0035"
       style="fill:#b6bdaf;fill-opacity:1;fill-rule:nonzero;stroke:#000000;stroke-width:0.69739;stroke-linecap:round;stroke-linejoin:round;stroke-miterlimit:10;stroke-dasharray:none;stroke-opacity:1"
       transform="matrix(0.88769333,0,0,-0.88769333,132.66311,66.991888)" />
    <path
       id="path36"
       d="M 17.00826,-68.03217 5.0035,-80.03693 h 45.35505 l 12.00476,12.00476 z"
       style="fill:#dbded7;fill-opacity:1;fill-rule:nonzero;stroke:#000000;stroke-width:0.69739;stroke-linecap:round;stroke-linejoin:round;stroke-miterlimit:10;stroke-dasharray:none;stroke-opacity:1"
       transform="matrix(0.88769333,0,0,-0.88769333,132.66311,66.991888)" />
    <path
       id="path37"
       d="M 205.51436,-26.92937 V 12.75597 L 193.5096,0.75122 v -39.68535 z"
       style="fill:#ffa582;fill-opacity:1;fill-rule:nonzero;stroke:#000000;stroke-width:0.69739;stroke-linecap:round;stroke-linejoin:round;stroke-miterlimit:10;stroke-dasharray:none;stroke-opacity:1"
       transform="matrix(0.88769333,0,0,-0.88769333,132.66311,66.991888)" />
    <path
       id="path38"
       d="M 148.15454,-38.93413 V 0.75122 h 45.35506 v -39.68535 h -45.35506"
       style="fill:#ffccb7;fill-opacity:1;fill-rule:nonzero;stroke:#000000;stroke-width:0.69739;stroke-linecap:round;stroke-linejoin:round;stroke-miterlimit:10;stroke-dasharray:none;stroke-opacity:1"
       transform="matrix(0.88769333,0,0,-0.88769333,132.66311,66.991888)" />
    <path
       id="path39"
       d="M 160.1593,12.75597 148.15454,0.75122 h 45.35506 l 12.00476,12.00475 z"
       style="fill:#ffe5db;fill-opacity:1;fill-rule:nonzero;stroke:#000000;stroke-width:0.69739;stroke-linecap:round;stroke-linejoin:round;stroke-miterlimit:10;stroke-dasharray:none;stroke-opacity:1"
       transform="matrix(0.88769333,0,0,-0.88769333,132.66311,66.991888)" />
    <path
       id="path40"
       d="m 178.58498,-53.85875 v 39.68536 l -12.00476,-12.00476 v -39.68536 z"
       style="fill:#ffa582;fill-opacity:1;fill-rule:nonzero;stroke:#000000;stroke-width:0.69739;stroke-linecap:round;stroke-linejoin:round;stroke-miterlimit:10;stroke-dasharray:none;stroke-opacity:1"
       transform="matrix(0.88769333,0,0,-0.88769333,132.66311,66.991888)" />
    <path
       id="path41"
       d="m 121.22516,-65.86351 v 39.68536 h 45.35506 v -39.68536 h -45.35506"
       style="fill:#ffccb7;fill-opacity:1;fill-rule:nonzero;stroke:#000000;stroke-width:0.69739;stroke-linecap:round;stroke-linejoin:round;stroke-miterlimit:10;stroke-dasharray:none;stroke-opacity:1"
       transform="matrix(0.88769333,0,0,-0.88769333,132.66311,66.991888)" />
    <path
       id="path42"
       d="m 133.22992,-14.17339 -12.00476,-12.00476 h 45.35506 l 12.00476,12.00476 z"
       style="fill:#ffe5db;fill-opacity:1;fill-rule:nonzero;stroke:#000000;stroke-width:0.69739;stroke-linecap:round;stroke-linejoin:round;stroke-miterlimit:10;stroke-dasharray:none;stroke-opacity:1"
       transform="matrix(0.88769333,0,0,-0.88769333,132.66311,66.991888)" />
    <path
       id="path43"
       d="m 151.65558,-80.78815 v 39.68537 L 139.65082,-53.10754 V -92.7929 Z"
       style="fill:#ffa582;fill-opacity:1;fill-rule:nonzero;stroke:#000000;stroke-width:0.69739;stroke-linecap:round;stroke-linejoin:round;stroke-miterlimit:10;stroke-dasharray:none;stroke-opacity:1"
       transform="matrix(0.88769333,0,0,-0.88769333,132.66311,66.991888)" />
    <path
       id="path44"
       d="m 94.29576,-92.7929 v 39.68536 h 45.35506 V -92.7929 H 94.29576"
       style="fill:#ffccb7;fill-opacity:1;fill-rule:nonzero;stroke:#000000;stroke-width:0.69739;stroke-linecap:round;stroke-linejoin:round;stroke-miterlimit:10;stroke-dasharray:none;stroke-opacity:1"
       transform="matrix(0.88769333,0,0,-0.88769333,132.66311,66.991888)" />
    <path
       id="path45"
       d="M 106.30052,-41.10278 94.29576,-53.10754 h 45.35506 l 12.00476,12.00476 z"
       style="fill:#ffe5db;fill-opacity:1;fill-rule:nonzero;stroke:#000000;stroke-width:0.69739;stroke-linecap:round;stroke-linejoin:round;stroke-miterlimit:10;stroke-dasharray:none;stroke-opacity:1"
       transform="matrix(0.88769333,0,0,-0.88769333,132.66311,66.991888)" />
    <path
       id="path46"
       d="m 124.72621,-107.71751 v 39.68534 l -12.00476,-12.00476 v -39.68534 z"
       style="fill:#ffa582;fill-opacity:1;fill-rule:nonzero;stroke:#000000;stroke-width:0.69739;stroke-linecap:round;stroke-linejoin:round;stroke-miterlimit:10;stroke-dasharray:none;stroke-opacity:1"
       transform="matrix(0.88769333,0,0,-0.88769333,132.66311,66.991888)" />
    <path
       id="path47"
       d="m 67.3664,-119.72227 v 39.68534 h 45.35505 v -39.68534 H 67.3664"
       style="fill:#ffccb7;fill-opacity:1;fill-rule:nonzero;stroke:#000000;stroke-width:0.69739;stroke-linecap:round;stroke-linejoin:round;stroke-miterlimit:10;stroke-dasharray:none;stroke-opacity:1"
       transform="matrix(0.88769333,0,0,-0.88769333,132.66311,66.991888)" />
    <path
       id="path48"
       d="M 79.37115,-68.03217 67.3664,-80.03693 h 45.35505 l 12.00476,12.00476 z"
       style="fill:#ffe5db;fill-opacity:1;fill-rule:nonzero;stroke:#000000;stroke-width:0.69739;stroke-linecap:round;stroke-linejoin:round;stroke-miterlimit:10;stroke-dasharray:none;stroke-opacity:1"
       transform="matrix(0.88769333,0,0,-0.88769333,132.66311,66.991888)" />
    <path
       id="path49"
       d="M 18.42567,35.4335 V 75.11887 L 6.42091,63.1141 V 23.42876 Z"
       style="fill:#c6c153;fill-opacity:1;fill-rule:nonzero;stroke:#000000;stroke-width:0.69739;stroke-linecap:round;stroke-linejoin:round;stroke-miterlimit:10;stroke-dasharray:none;stroke-opacity:1"
       transform="matrix(0.88769333,0,0,-0.88769333,132.66311,66.991888)" />
    <path
       id="path50"
       d="M -38.93413,23.42876 V 63.1141 H 6.42091 V 23.42876 h -45.35504"
       style="fill:#dedb9d;fill-opacity:1;fill-rule:nonzero;stroke:#000000;stroke-width:0.69739;stroke-linecap:round;stroke-linejoin:round;stroke-miterlimit:10;stroke-dasharray:none;stroke-opacity:1"
       transform="matrix(0.88769333,0,0,-0.88769333,132.66311,66.991888)" />
    <path
       id="path51"
       d="M -26.92937,75.11887 -38.93413,63.1141 H 6.42091 l 12.00476,12.00477 z"
       style="fill:#efedce;fill-opacity:1;fill-rule:nonzero;stroke:#000000;stroke-width:0.69739;stroke-linecap:round;stroke-linejoin:round;stroke-miterlimit:10;stroke-dasharray:none;stroke-opacity:1"
       transform="matrix(0.88769333,0,0,-0.88769333,132.66311,66.991888)" />
    <path
       id="path52"
       d="M -8.5037,8.50414 V 48.18948 L -20.50845,36.18472 V -3.50061 Z"
       style="fill:#c6c153;fill-opacity:1;fill-rule:nonzero;stroke:#000000;stroke-width:0.69739;stroke-linecap:round;stroke-linejoin:round;stroke-miterlimit:10;stroke-dasharray:none;stroke-opacity:1"
       transform="matrix(0.88769333,0,0,-0.88769333,132.66311,66.991888)" />
    <path
       id="path53"
       d="m -65.86351,-3.50061 v 39.68533 h 45.35506 V -3.50061 h -45.35506"
       style="fill:#dedb9d;fill-opacity:1;fill-rule:nonzero;stroke:#000000;stroke-width:0.69739;stroke-linecap:round;stroke-linejoin:round;stroke-miterlimit:10;stroke-dasharray:none;stroke-opacity:1"
       transform="matrix(0.88769333,0,0,-0.88769333,132.66311,66.991888)" />
    <path
       id="path54"
       d="M -53.85875,48.18948 -65.86351,36.18472 h 45.35506 L -8.5037,48.18948 Z"
       style="fill:#efedce;fill-opacity:1;fill-rule:nonzero;stroke:#000000;stroke-width:0.69739;stroke-linecap:round;stroke-linejoin:round;stroke-miterlimit:10;stroke-dasharray:none;stroke-opacity:1"
       transform="matrix(0.88769333,0,0,-0.88769333,132.66311,66.991888)" />
    <path
       id="path55"
       d="M -35.43309,-18.42525 V 21.2601 L -47.43784,9.25534 v -39.68535 z"
       style="fill:#c6c153;fill-opacity:1;fill-rule:nonzero;stroke:#000000;stroke-width:0.69739;stroke-linecap:round;stroke-linejoin:round;stroke-miterlimit:10;stroke-dasharray:none;stroke-opacity:1"
       transform="matrix(0.88769333,0,0,-0.88769333,132.66311,66.991888)" />
    <path
       id="path56"
       d="M -92.7929,-30.43001 V 9.25534 h 45.35506 V -30.43001 H -92.7929"
       style="fill:#dedb9d;fill-opacity:1;fill-rule:nonzero;stroke:#000000;stroke-width:0.69739;stroke-linecap:round;stroke-linejoin:round;stroke-miterlimit:10;stroke-dasharray:none;stroke-opacity:1"
       transform="matrix(0.88769333,0,0,-0.88769333,132.66311,66.991888)" />
    <path
       id="path57"
       d="M -80.78815,21.2601 -92.7929,9.25534 h 45.35506 l 12.00475,12.00476 z"
       style="fill:#efedce;fill-opacity:1;fill-rule:nonzero;stroke:#000000;stroke-width:0.69739;stroke-linecap:round;stroke-linejoin:round;stroke-miterlimit:10;stroke-dasharray:none;stroke-opacity:1"
       transform="matrix(0.88769333,0,0,-0.88769333,132.66311,66.991888)" />
    <path
       id="path58"
       d="M -62.36246,-45.35463 V -5.66927 L -74.36722,-17.67403 V -57.35939 Z"
       style="fill:#c6c153;fill-opacity:1;fill-rule:nonzero;stroke:#000000;stroke-width:0.69739;stroke-linecap:round;stroke-linejoin:round;stroke-miterlimit:10;stroke-dasharray:none;stroke-opacity:1"
       transform="matrix(0.88769333,0,0,-0.88769333,132.66311,66.991888)" />
    <path
       id="path59"
       d="m -119.72227,-57.35939 v 39.68536 h 45.35505 v -39.68536 h -45.35505"
       style="fill:#dedb9d;fill-opacity:1;fill-rule:nonzero;stroke:#000000;stroke-width:0.69739;stroke-linecap:round;stroke-linejoin:round;stroke-miterlimit:10;stroke-dasharray:none;stroke-opacity:1"
       transform="matrix(0.88769333,0,0,-0.88769333,132.66311,66.991888)" />
    <path
       id="path60"
       d="m -107.71751,-5.66927 -12.00476,-12.00476 h 45.35505 l 12.00476,12.00476 z"
       style="fill:#efedce;fill-opacity:1;fill-rule:nonzero;stroke:#000000;stroke-width:0.69739;stroke-linecap:round;stroke-linejoin:round;stroke-miterlimit:10;stroke-dasharray:none;stroke-opacity:1"
       transform="matrix(0.88769333,0,0,-0.88769333,132.66311,66.991888)" />
    <path
       id="path61"
       d="M 80.78856,35.4335 V 75.11887 L 68.78381,63.1141 V 23.42876 Z"
       style="fill:#ffd2d2;fill-opacity:1;fill-rule:nonzero;stroke:#000000;stroke-width:0.69739;stroke-linecap:round;stroke-linejoin:round;stroke-miterlimit:10;stroke-dasharray:none;stroke-opacity:1"
       transform="matrix(0.88769333,0,0,-0.88769333,132.66311,66.991888)" />
    <path
       id="path62"
       d="M 23.42876,23.42876 V 63.1141 H 68.78381 V 23.42876 H 23.42876"
       style="fill:#ffe6e6;fill-opacity:1;fill-rule:nonzero;stroke:#000000;stroke-width:0.69739;stroke-linecap:round;stroke-linejoin:round;stroke-miterlimit:10;stroke-dasharray:none;stroke-opacity:1"
       transform="matrix(0.88769333,0,0,-0.88769333,132.66311,66.991888)" />
    <path
       id="path63"
       d="M 35.4335,75.11887 23.42876,63.1141 h 45.35505 l 12.00475,12.00477 z"
       style="fill:#fff2f2;fill-opacity:1;fill-rule:nonzero;stroke:#000000;stroke-width:0.69739;stroke-linecap:round;stroke-linejoin:round;stroke-miterlimit:10;stroke-dasharray:none;stroke-opacity:1"
       transform="matrix(0.88769333,0,0,-0.88769333,132.66311,66.991888)" />
    <path
       id="path64"
       d="M 53.85919,8.50414 V 48.18948 L 41.85443,36.18472 V -3.50061 Z"
       style="fill:#ffd2d2;fill-opacity:1;fill-rule:nonzero;stroke:#000000;stroke-width:0.69739;stroke-linecap:round;stroke-linejoin:round;stroke-miterlimit:10;stroke-dasharray:none;stroke-opacity:1"
       transform="matrix(0.88769333,0,0,-0.88769333,132.66311,66.991888)" />
    <path
       id="path65"
       d="M -3.50061,-3.50061 V 36.18472 H 41.85443 V -3.50061 H -3.50061"
       style="fill:#ffe6e6;fill-opacity:1;fill-rule:nonzero;stroke:#000000;stroke-width:0.69739;stroke-linecap:round;stroke-linejoin:round;stroke-miterlimit:10;stroke-dasharray:none;stroke-opacity:1"
       transform="matrix(0.88769333,0,0,-0.88769333,132.66311,66.991888)" />
    <path
       id="path66"
       d="M 8.50414,48.18948 -3.50061,36.18472 h 45.35504 l 12.00476,12.00476 z"
       style="fill:#fff2f2;fill-opacity:1;fill-rule:nonzero;stroke:#000000;stroke-width:0.69739;stroke-linecap:round;stroke-linejoin:round;stroke-miterlimit:10;stroke-dasharray:none;stroke-opacity:1"
       transform="matrix(0.88769333,0,0,-0.88769333,132.66311,66.991888)" />
    <path
       id="path67"
       d="M 26.9298,-18.42525 V 21.2601 L 14.92503,9.25534 v -39.68535 z"
       style="fill:#ffd2d2;fill-opacity:1;fill-rule:nonzero;stroke:#000000;stroke-width:0.69739;stroke-linecap:round;stroke-linejoin:round;stroke-miterlimit:10;stroke-dasharray:none;stroke-opacity:1"
       transform="matrix(0.88769333,0,0,-0.88769333,132.66311,66.991888)" />
    <path
       id="path68"
       d="M -30.43001,-30.43001 V 9.25534 h 45.35504 v -39.68535 h -45.35504"
       style="fill:#ffe6e6;fill-opacity:1;fill-rule:nonzero;stroke:#000000;stroke-width:0.69739;stroke-linecap:round;stroke-linejoin:round;stroke-miterlimit:10;stroke-dasharray:none;stroke-opacity:1"
       transform="matrix(0.88769333,0,0,-0.88769333,132.66311,66.991888)" />
    <path
       id="path69"
       d="M -18.42525,21.2601 -30.43001,9.25534 H 14.92503 L 26.9298,21.2601 Z"
       style="fill:#fff2f2;fill-opacity:1;fill-rule:nonzero;stroke:#000000;stroke-width:0.69739;stroke-linecap:round;stroke-linejoin:round;stroke-miterlimit:10;stroke-dasharray:none;stroke-opacity:1"
       transform="matrix(0.88769333,0,0,-0.88769333,132.66311,66.991888)" />
    <path
       id="path70"
       d="M 4.1e-4,-45.35463 V -5.66927 L -12.00432,-17.67403 V -57.35939 Z"
       style="fill:#ffd2d2;fill-opacity:1;fill-rule:nonzero;stroke:#000000;stroke-width:0.69739;stroke-linecap:round;stroke-linejoin:round;stroke-miterlimit:10;stroke-dasharray:none;stroke-opacity:1"
       transform="matrix(0.88769333,0,0,-0.88769333,132.66311,66.991888)" />
    <path
       id="path71"
       d="m -57.35939,-57.35939 v 39.68536 h 45.35507 v -39.68536 h -45.35507"
       style="fill:#ffe6e6;fill-opacity:1;fill-rule:nonzero;stroke:#000000;stroke-width:0.69739;stroke-linecap:round;stroke-linejoin:round;stroke-miterlimit:10;stroke-dasharray:none;stroke-opacity:1"
       transform="matrix(0.88769333,0,0,-0.88769333,132.66311,66.991888)" />
    <path
       id="path72"
       d="m -45.35463,-5.66927 -12.00476,-12.00476 h 45.35507 L 4.1e-4,-5.66927 Z"
       style="fill:#fff2f2;fill-opacity:1;fill-rule:nonzero;stroke:#000000;stroke-width:0.69739;stroke-linecap:round;stroke-linejoin:round;stroke-miterlimit:10;stroke-dasharray:none;stroke-opacity:1"
       transform="matrix(0.88769333,0,0,-0.88769333,132.66311,66.991888)" />
    <path
       id="path73"
       d="M 143.15146,35.4335 V 75.11887 L 131.1467,63.1141 V 23.42876 Z"
       style="fill:#82ff82;fill-opacity:1;fill-rule:nonzero;stroke:#000000;stroke-width:0.69739;stroke-linecap:round;stroke-linejoin:round;stroke-miterlimit:10;stroke-dasharray:none;stroke-opacity:1"
       transform="matrix(0.88769333,0,0,-0.88769333,132.66311,66.991888)" />
    <path
       id="path74"
       d="M 85.79164,23.42876 V 63.1141 H 131.1467 V 23.42876 H 85.79164"
       style="fill:#b8ffb8;fill-opacity:1;fill-rule:nonzero;stroke:#000000;stroke-width:0.69739;stroke-linecap:round;stroke-linejoin:round;stroke-miterlimit:10;stroke-dasharray:none;stroke-opacity:1"
       transform="matrix(0.88769333,0,0,-0.88769333,132.66311,66.991888)" />
    <path
       id="path75"
       d="M 97.7964,75.11887 85.79164,63.1141 h 45.35506 l 12.00476,12.00477 z"
       style="fill:#dbffdb;fill-opacity:1;fill-rule:nonzero;stroke:#000000;stroke-width:0.69739;stroke-linecap:round;stroke-linejoin:round;stroke-miterlimit:10;stroke-dasharray:none;stroke-opacity:1"
       transform="matrix(0.88769333,0,0,-0.88769333,132.66311,66.991888)" />
    <path
       id="path76"
       d="M 116.22208,8.50414 V 48.18948 L 104.21732,36.18472 V -3.50061 Z"
       style="fill:#82ff82;fill-opacity:1;fill-rule:nonzero;stroke:#000000;stroke-width:0.69739;stroke-linecap:round;stroke-linejoin:round;stroke-miterlimit:10;stroke-dasharray:none;stroke-opacity:1"
       transform="matrix(0.88769333,0,0,-0.88769333,132.66311,66.991888)" />
    <path
       id="path77"
       d="m 58.86226,-3.50061 v 39.68533 h 45.35506 V -3.50061 H 58.86226"
       style="fill:#b8ffb8;fill-opacity:1;fill-rule:nonzero;stroke:#000000;stroke-width:0.69739;stroke-linecap:round;stroke-linejoin:round;stroke-miterlimit:10;stroke-dasharray:none;stroke-opacity:1"
       transform="matrix(0.88769333,0,0,-0.88769333,132.66311,66.991888)" />
    <path
       id="path78"
       d="M 70.86702,48.18948 58.86226,36.18472 h 45.35506 l 12.00476,12.00476 z"
       style="fill:#dbffdb;fill-opacity:1;fill-rule:nonzero;stroke:#000000;stroke-width:0.69739;stroke-linecap:round;stroke-linejoin:round;stroke-miterlimit:10;stroke-dasharray:none;stroke-opacity:1"
       transform="matrix(0.88769333,0,0,-0.88769333,132.66311,66.991888)" />
    <path
       id="path79"
       d="M 89.2927,-18.42525 V 21.2601 L 77.28793,9.25534 v -39.68535 z"
       style="fill:#82ff82;fill-opacity:1;fill-rule:nonzero;stroke:#000000;stroke-width:0.69739;stroke-linecap:round;stroke-linejoin:round;stroke-miterlimit:10;stroke-dasharray:none;stroke-opacity:1"
       transform="matrix(0.88769333,0,0,-0.88769333,132.66311,66.991888)" />
    <path
       id="path80"
       d="M 31.93288,-30.43001 V 9.25534 H 77.28793 V -30.43001 H 31.93288"
       style="fill:#b8ffb8;fill-opacity:1;fill-rule:nonzero;stroke:#000000;stroke-width:0.69739;stroke-linecap:round;stroke-linejoin:round;stroke-miterlimit:10;stroke-dasharray:none;stroke-opacity:1"
       transform="matrix(0.88769333,0,0,-0.88769333,132.66311,66.991888)" />
    <path
       id="path81"
       d="M 43.93764,21.2601 31.93288,9.25534 H 77.28793 L 89.2927,21.2601 Z"
       style="fill:#dbffdb;fill-opacity:1;fill-rule:nonzero;stroke:#000000;stroke-width:0.69739;stroke-linecap:round;stroke-linejoin:round;stroke-miterlimit:10;stroke-dasharray:none;stroke-opacity:1"
       transform="matrix(0.88769333,0,0,-0.88769333,132.66311,66.991888)" />
    <path
       id="path82"
       d="M 62.36331,-45.35463 V -5.66927 L 50.35855,-17.67403 v -39.68536 z"
       style="fill:#82ff82;fill-opacity:1;fill-rule:nonzero;stroke:#000000;stroke-width:0.69739;stroke-linecap:round;stroke-linejoin:round;stroke-miterlimit:10;stroke-dasharray:none;stroke-opacity:1"
       transform="matrix(0.88769333,0,0,-0.88769333,132.66311,66.991888)" />
    <path
       id="path83"
       d="m 5.0035,-57.35939 v 39.68536 H 50.35855 V -57.35939 H 5.0035"
       style="fill:#b8ffb8;fill-opacity:1;fill-rule:nonzero;stroke:#000000;stroke-width:0.69739;stroke-linecap:round;stroke-linejoin:round;stroke-miterlimit:10;stroke-dasharray:none;stroke-opacity:1"
       transform="matrix(0.88769333,0,0,-0.88769333,132.66311,66.991888)" />
    <path
       id="path84"
       d="M 17.00826,-5.66927 5.0035,-17.67403 h 45.35505 l 12.00476,12.00476 z"
       style="fill:#dbffdb;fill-opacity:1;fill-rule:nonzero;stroke:#000000;stroke-width:0.69739;stroke-linecap:round;stroke-linejoin:round;stroke-miterlimit:10;stroke-dasharray:none;stroke-opacity:1"
       transform="matrix(0.88769333,0,0,-0.88769333,132.66311,66.991888)" />
    <path
       id="path85"
       d="M 205.51436,35.4335 V 75.11887 L 193.5096,63.1141 V 23.42876 Z"
       style="fill:#ff4c4c;fill-opacity:1;fill-rule:nonzero;stroke:#000000;stroke-width:0.69739;stroke-linecap:round;stroke-linejoin:round;stroke-miterlimit:10;stroke-dasharray:none;stroke-opacity:1"
       transform="matrix(0.88769333,0,0,-0.88769333,132.66311,66.991888)" />
    <path
       id="path86"
       d="M 148.15454,23.42876 V 63.1141 H 193.5096 V 23.42876 h -45.35506"
       style="fill:#ff9999;fill-opacity:1;fill-rule:nonzero;stroke:#000000;stroke-width:0.69739;stroke-linecap:round;stroke-linejoin:round;stroke-miterlimit:10;stroke-dasharray:none;stroke-opacity:1"
       transform="matrix(0.88769333,0,0,-0.88769333,132.66311,66.991888)" />
    <path
       id="path87"
       d="M 160.1593,75.11887 148.15454,63.1141 h 45.35506 l 12.00476,12.00477 z"
       style="fill:#ffcccc;fill-opacity:1;fill-rule:nonzero;stroke:#000000;stroke-width:0.69739;stroke-linecap:round;stroke-linejoin:round;stroke-miterlimit:10;stroke-dasharray:none;stroke-opacity:1"
       transform="matrix(0.88769333,0,0,-0.88769333,132.66311,66.991888)" />
    <path
       id="path88"
       d="M 178.58498,8.50414 V 48.18948 L 166.58022,36.18472 V -3.50061 Z"
       style="fill:#ff4c4c;fill-opacity:1;fill-rule:nonzero;stroke:#000000;stroke-width:0.69739;stroke-linecap:round;stroke-linejoin:round;stroke-miterlimit:10;stroke-dasharray:none;stroke-opacity:1"
       transform="matrix(0.88769333,0,0,-0.88769333,132.66311,66.991888)" />
    <path
       id="path89"
       d="m 121.22516,-3.50061 v 39.68533 h 45.35506 V -3.50061 h -45.35506"
       style="fill:#ff9999;fill-opacity:1;fill-rule:nonzero;stroke:#000000;stroke-width:0.69739;stroke-linecap:round;stroke-linejoin:round;stroke-miterlimit:10;stroke-dasharray:none;stroke-opacity:1"
       transform="matrix(0.88769333,0,0,-0.88769333,132.66311,66.991888)" />
    <path
       id="path90"
       d="M 133.22992,48.18948 121.22516,36.18472 h 45.35506 l 12.00476,12.00476 z"
       style="fill:#ffcccc;fill-opacity:1;fill-rule:nonzero;stroke:#000000;stroke-width:0.69739;stroke-linecap:round;stroke-linejoin:round;stroke-miterlimit:10;stroke-dasharray:none;stroke-opacity:1"
       transform="matrix(0.88769333,0,0,-0.88769333,132.66311,66.991888)" />
    <path
       id="path91"
       d="M 151.65558,-18.42525 V 21.2601 L 139.65082,9.25534 v -39.68535 z"
       style="fill:#ff4c4c;fill-opacity:1;fill-rule:nonzero;stroke:#000000;stroke-width:0.69739;stroke-linecap:round;stroke-linejoin:round;stroke-miterlimit:10;stroke-dasharray:none;stroke-opacity:1"
       transform="matrix(0.88769333,0,0,-0.88769333,132.66311,66.991888)" />
    <path
       id="path92"
       d="M 94.29576,-30.43001 V 9.25534 h 45.35506 V -30.43001 H 94.29576"
       style="fill:#ff9999;fill-opacity:1;fill-rule:nonzero;stroke:#000000;stroke-width:0.69739;stroke-linecap:round;stroke-linejoin:round;stroke-miterlimit:10;stroke-dasharray:none;stroke-opacity:1"
       transform="matrix(0.88769333,0,0,-0.88769333,132.66311,66.991888)" />
    <path
       id="path93"
       d="M 106.30052,21.2601 94.29576,9.25534 h 45.35506 l 12.00476,12.00476 z"
       style="fill:#ffcccc;fill-opacity:1;fill-rule:nonzero;stroke:#000000;stroke-width:0.69739;stroke-linecap:round;stroke-linejoin:round;stroke-miterlimit:10;stroke-dasharray:none;stroke-opacity:1"
       transform="matrix(0.88769333,0,0,-0.88769333,132.66311,66.991888)" />
    <path
       id="path94"
       d="M 124.72621,-45.35463 V -5.66927 L 112.72145,-17.67403 V -57.35939 Z"
       style="fill:#ff4c4c;fill-opacity:1;fill-rule:nonzero;stroke:#000000;stroke-width:0.69739;stroke-linecap:round;stroke-linejoin:round;stroke-miterlimit:10;stroke-dasharray:none;stroke-opacity:1"
       transform="matrix(0.88769333,0,0,-0.88769333,132.66311,66.991888)" />
    <path
       id="path95"
       d="m 67.3664,-57.35939 v 39.68536 h 45.35505 V -57.35939 H 67.3664"
       style="fill:#ff9999;fill-opacity:1;fill-rule:nonzero;stroke:#000000;stroke-width:0.69739;stroke-linecap:round;stroke-linejoin:round;stroke-miterlimit:10;stroke-dasharray:none;stroke-opacity:1"
       transform="matrix(0.88769333,0,0,-0.88769333,132.66311,66.991888)" />
    <path
       id="path96"
       d="M 79.37115,-5.66927 67.3664,-17.67403 h 45.35505 l 12.00476,12.00476 z"
       style="fill:#ffcccc;fill-opacity:1;fill-rule:nonzero;stroke:#000000;stroke-width:0.69739;stroke-linecap:round;stroke-linejoin:round;stroke-miterlimit:10;stroke-dasharray:none;stroke-opacity:1"
       transform="matrix(0.88769333,0,0,-0.88769333,132.66311,66.991888)" />
    <path
       id="path97"
       d="M 6.3541022,-3.4486774 H 3.6258233 v 0.7392756 h 1.9890034 v 0.176018 c 0,1.1617188 -0.8624882,2.00660514 -2.0418088,2.00660514 -0.6688684,0 -1.2673295,-0.24642519 -1.6545691,-0.66886834 -0.440045,-0.4576468 -0.6864702,-1.232126 -0.6864702,-2.0418088 0,-1.6017637 0.9152936,-2.6578717 2.2882339,-2.6578717 1.0033026,0 1.7073746,0.5104522 1.8833926,1.3377368 h 0.8624881 c -0.2288234,-1.320135 -1.2321259,-2.0770124 -2.7282789,-2.0770124 -0.8096828,0 -1.4433475,0.2112216 -1.9537997,0.616063 -0.75687739,0.6336648 -1.19692238,1.6545692 -1.19692238,2.8162879 0,2.0066052 1.23212598,3.41474911 2.99230588,3.41474911 0.8976918,0 1.6017638,-0.33443419 2.2354286,-1.03850616 l 0.2112215,0.86248817 h 0.528054 z m 2.2750326,0.6864702 h 2.0418092 c 0.510452,0 0.915293,-0.1584162 1.267329,-0.4752486 0.38724,-0.352036 0.563258,-0.7744791 0.563258,-1.3729403 0,-1.232126 -0.721674,-1.9185962 -2.006605,-1.9185962 H 7.7842484 v 6.53026762 h 0.8448864 z m 0,-0.7392756 v -2.2882339 h 1.7249762 c 0.809683,0 1.284932,0.4224432 1.284932,1.144117 0,0.7216737 -0.475249,1.1441169 -1.284932,1.1441169 z m 9.2717482,-3.0275095 v 4.5940697 c 0,0.8624882 -0.633665,1.40814394 -1.689773,1.40814394 -0.475249,0 -0.88009,-0.1232126 -1.179321,-0.33443419 C 14.697355,-1.1252398 14.556541,-1.4420722 14.556541,-1.9349226 v -4.5940697 h -0.844887 v 4.5940697 c 0,1.32013494 0.950498,2.14741951 2.499456,2.14741951 1.531356,0 2.517057,-0.84488637 2.517057,-2.14741951 v -4.5940697 z m 8.563275,5.75578845 h -3.344342 c 0.07041,-0.52805395 0.369638,-0.86248815 1.144117,-1.32013495 l 0.897692,-0.4752486 c 0.88009,-0.4928504 1.337737,-1.144117 1.337737,-1.9185961 0,-0.528054 -0.211222,-1.0209044 -0.58086,-1.3553386 -0.387239,-0.352036 -0.844886,-0.5104522 -1.443347,-0.5104522 -0.809683,0 -1.408144,0.2816288 -1.76018,0.8272846 -0.228824,0.3344342 -0.334434,0.7392756 -0.352036,1.3729404 h 0.792081 c 0.0352,-0.4224432 0.08801,-0.6864702 0.19362,-0.8976918 0.211221,-0.3696378 0.616063,-0.616063 1.091311,-0.616063 0.721674,0 1.249728,0.5104522 1.249728,1.1969224 0,0.5104522 -0.299231,0.9328953 -0.862488,1.2497277 l -0.809683,0.4752486 c -1.337737,0.7392756 -1.724976,1.3553386 -1.795384,2.74588072 h 4.242034 z m 3.947204,-2.56986275 c 0.651266,-0.3872396 0.862488,-0.7216737 0.862488,-1.3201349 0,-0.9857008 -0.774479,-1.6897728 -1.900995,-1.6897728 -1.126515,0 -1.900994,0.704072 -1.900994,1.6897728 0,0.5984612 0.211222,0.9152935 0.844886,1.3201349 -0.721673,0.352036 -1.073709,0.88009 -1.073709,1.584162 0,1.16171874 0.88009,1.97140151 2.129817,1.97140151 1.249728,0 2.129818,-0.80968277 2.129818,-1.97140151 0,-0.704072 -0.352036,-1.232126 -1.091311,-1.584162 z m -1.038507,-2.3058357 c 0.668869,0 1.108914,0.3872396 1.108914,1.0033026 0,0.5984612 -0.440045,0.9857007 -1.108914,0.9857007 -0.668868,0 -1.108913,-0.3872395 -1.108913,-0.9857007 0,-0.616063 0.440045,-1.0033026 1.108913,-1.0033026 z m 0,2.6578717 c 0.792081,0 1.320135,0.4928504 1.320135,1.2497278 0,0.75687735 -0.528054,1.24972774 -1.337736,1.24972774 -0.77448,0 -1.302534,-0.51045214 -1.302534,-1.24972774 0,-0.7568774 0.528054,-1.2497278 1.320135,-1.2497278 z m 0,0"
       style="fill:#000000;fill-opacity:1;fill-rule:nonzero;stroke:none"
       aria-label="GPU28"
       transform="matrix(0.88769333,0,0,0.88769333,198.43763,158.49887)" />
    <path
       id="path98"
       d="m 6.3526313,-3.4498527 h -2.728279 v 0.7392756 h 1.9890034 v 0.176018 c 0,1.1617187 -0.8624882,2.00660509 -2.0418088,2.00660509 -0.6688683,0 -1.2673295,-0.24642519 -1.6545691,-0.66886839 -0.440045,-0.4576468 -0.6864702,-1.2321259 -0.6864702,-2.0418087 0,-1.6017638 0.9152936,-2.6578717 2.288234,-2.6578717 1.0033025,0 1.7073745,0.5104522 1.8833925,1.3377367 H 6.2646223 C 6.0357989,-5.878901 5.0324963,-6.6357784 3.5363434,-6.6357784 c -0.8096828,0 -1.4433476,0.2112216 -1.9537998,0.616063 -0.75687736,0.6336648 -1.19692235,1.6545691 -1.19692235,2.8162879 0,2.0066051 1.23212595,3.41474907 2.99230595,3.41474907 0.8976917,0 1.6017637,-0.33443419 2.2354285,-1.03850617 l 0.2112216,0.86248817 h 0.528054 z m 2.279433,0.6864702 h 2.0418087 c 0.510452,0 0.915294,-0.1584162 1.26733,-0.4752486 0.387239,-0.352036 0.563257,-0.7744792 0.563257,-1.3729404 0,-1.2321259 -0.721674,-1.9185961 -2.006605,-1.9185961 H 7.7871779 V 9.9974466e-5 h 0.8448864 z m 0,-0.7392756 V -5.790892 h 1.7249767 c 0.809682,0 1.284931,0.4224432 1.284931,1.1441169 0,0.7216738 -0.475249,1.144117 -1.284931,1.144117 z m 9.2717477,-3.0275095 v 4.5940696 c 0,0.8624882 -0.633665,1.40814399 -1.689773,1.40814399 -0.475248,0 -0.88009,-0.12321259 -1.17932,-0.33443419 -0.334434,-0.264027 -0.475249,-0.5808594 -0.475249,-1.0737098 v -4.5940696 h -0.844886 v 4.5940696 c 0,1.32013499 0.950497,2.14741957 2.499455,2.14741957 1.531357,0 2.517058,-0.84488637 2.517058,-2.14741957 v -4.5940696 z m 6.473062,0.176018 c -0.598461,0 -1.126515,0.264027 -1.460949,0.704072 -0.404842,0.5456557 -0.616063,1.4081439 -0.616063,2.5698627 0,2.14741951 0.721673,3.29153647 2.077012,3.29153647 1.337737,0 2.077012,-1.14411696 2.077012,-3.23873107 0,-1.232126 -0.19362,-2.0594106 -0.616063,-2.6226681 -0.334434,-0.4576468 -0.862488,-0.704072 -1.460949,-0.704072 z m 0,0.704072 c 0.844886,0 1.267329,0.8624881 1.267329,2.5522609 0,1.8129853 -0.404841,2.65787169 -1.284931,2.65787169 -0.827285,0 -1.249728,-0.88008999 -1.249728,-2.62266809 0,-1.7425782 0.422443,-2.5874645 1.26733,-2.5874645 z m 0,0"
       style="fill:#000000;fill-opacity:1;fill-rule:nonzero;stroke:none"
       aria-label="GPU0"
       transform="matrix(0.88769333,0,0,0.88769333,34.575655,103.14054)" />
    <path
       id="path99"
       d="M 6.3538066,-3.4498527 H 3.6255277 v 0.7392756 H 5.614531 v 0.176018 c 0,1.1617187 -0.8624881,2.00660509 -2.0418087,2.00660509 -0.6688684,0 -1.2673296,-0.24642519 -1.6545692,-0.66886839 C 1.4781082,-1.6544692 1.231683,-2.4289483 1.231683,-3.2386311 c 0,-1.6017638 0.9152935,-2.6578717 2.2882339,-2.6578717 1.0033026,0 1.7073745,0.5104522 1.8833925,1.3377367 H 6.2657976 C 6.0369742,-5.878901 5.0336716,-6.6357784 3.5375187,-6.6357784 c -0.8096828,0 -1.4433476,0.2112216 -1.9537997,0.616063 -0.75687741,0.6336648 -1.1969224,1.6545691 -1.1969224,2.8162879 0,2.0066051 1.232126,3.41474907 2.9923059,3.41474907 0.8976918,0 1.6017637,-0.33443419 2.2354285,-1.03850617 l 0.2112216,0.86248817 h 0.528054 z m 2.2750326,0.6864702 h 2.0418088 c 0.510452,0 0.915293,-0.1584162 1.267329,-0.4752486 0.38724,-0.352036 0.563258,-0.7744792 0.563258,-1.3729404 0,-1.2321259 -0.721674,-1.9185961 -2.006605,-1.9185961 H 7.7839528 V 9.9974466e-5 h 0.8448864 z m 0,-0.7392756 V -5.790892 h 1.7249768 c 0.809682,0 1.284931,0.4224432 1.284931,1.1441169 0,0.7216738 -0.475249,1.144117 -1.284931,1.144117 z m 9.2717478,-3.0275095 v 4.5940696 c 0,0.8624882 -0.633665,1.40814399 -1.689773,1.40814399 -0.475248,0 -0.88009,-0.12321259 -1.17932,-0.33443419 -0.334434,-0.264027 -0.475249,-0.5808594 -0.475249,-1.0737098 v -4.5940696 h -0.844886 v 4.5940696 c 0,1.32013499 0.950497,2.14741957 2.499455,2.14741957 1.531357,0 2.517058,-0.84488637 2.517058,-2.14741957 v -4.5940696 z m 7.515968,3.1859257 c 0.651267,-0.3872396 0.862489,-0.7216738 0.862489,-1.320135 0,-0.9857007 -0.77448,-1.6897727 -1.900995,-1.6897727 -1.126515,0 -1.900994,0.704072 -1.900994,1.6897727 0,0.5984612 0.211221,0.9152936 0.844886,1.320135 -0.721674,0.352036 -1.07371,0.88009 -1.07371,1.5841619 0,1.16171879 0.88009,1.97140157 2.129818,1.97140157 1.249728,0 2.129818,-0.80968278 2.129818,-1.97140157 0,-0.7040719 -0.352036,-1.2321259 -1.091312,-1.5841619 z m -1.038506,-2.3058357 c 0.668869,0 1.108914,0.3872395 1.108914,1.0033025 0,0.5984612 -0.440045,0.9857008 -1.108914,0.9857008 -0.668868,0 -1.108913,-0.3872396 -1.108913,-0.9857008 0,-0.616063 0.440045,-1.0033025 1.108913,-1.0033025 z m 0,2.6578717 c 0.792081,0 1.320135,0.4928504 1.320135,1.2497277 0,0.75687741 -0.528054,1.24972779 -1.337737,1.24972779 -0.774479,0 -1.302533,-0.51045219 -1.302533,-1.24972779 0,-0.7568773 0.528054,-1.2497277 1.320135,-1.2497277 z m 0,0"
       style="fill:#000000;fill-opacity:1;fill-rule:nonzero;stroke:none"
       aria-label="GPU8"
       transform="matrix(0.88769333,0,0,0.88769333,89.933987,103.14054)" />
    <path
       id="path100"
       d="M 6.3529269,-3.4498527 H 3.624648 v 0.7392756 h 1.9890033 v 0.176018 c 0,1.1617187 -0.8624882,2.00660509 -2.0418087,2.00660509 -0.6688684,0 -1.2673296,-0.24642519 -1.6545692,-0.66886839 -0.440045,-0.4576468 -0.6864701,-1.2321259 -0.6864701,-2.0418087 0,-1.6017638 0.9152935,-2.6578717 2.2882339,-2.6578717 1.0033025,0 1.7073745,0.5104522 1.8833925,1.3377367 H 6.2649179 C 6.0360945,-5.878901 5.0327919,-6.6357784 3.536639,-6.6357784 c -0.8096828,0 -1.4433476,0.2112216 -1.9537998,0.616063 -0.75687734,0.6336648 -1.19692232,1.6545691 -1.19692232,2.8162879 0,2.0066051 1.23212592,3.41474907 2.99230592,3.41474907 0.8976918,0 1.6017637,-0.33443419 2.2354285,-1.03850617 l 0.2112216,0.86248817 h 0.528054 z m 2.279433,0.6864702 h 2.0418091 c 0.510452,0 0.915293,-0.1584162 1.267329,-0.4752486 0.38724,-0.352036 0.563258,-0.7744792 0.563258,-1.3729404 0,-1.2321259 -0.721674,-1.9185961 -2.006605,-1.9185961 H 7.7874735 V 9.9974466e-5 h 0.8448864 z m 0,-0.7392756 V -5.790892 h 1.7249761 c 0.809683,0 1.284932,0.4224432 1.284932,1.1441169 0,0.7216738 -0.475249,1.144117 -1.284932,1.144117 z m 9.2717481,-3.0275095 v 4.5940696 c 0,0.8624882 -0.633665,1.40814399 -1.689773,1.40814399 -0.475249,0 -0.88009,-0.12321259 -1.179321,-0.33443419 -0.334434,-0.264027 -0.475248,-0.5808594 -0.475248,-1.0737098 v -4.5940696 h -0.844887 v 4.5940696 c 0,1.32013499 0.950498,2.14741957 2.499456,2.14741957 1.531357,0 2.517057,-0.84488637 2.517057,-2.14741957 v -4.5940696 z m 6.341048,2.0066051 V 9.9974466e-5 h 0.792081 V -6.3541496 h -0.528054 c -0.281629,0.9857008 -0.457647,1.1089133 -1.672171,1.2673295 v 0.5632576 z m 7.115527,-0.176018 c -0.140814,-1.0385061 -0.827284,-1.6545691 -1.795383,-1.6545691 -0.704072,0 -1.320135,0.3344342 -1.707375,0.9152936 -0.387239,0.6160629 -0.563257,1.3905421 -0.563257,2.5522609 0,1.0561079 0.158416,1.7425781 0.528054,2.30583569 0.352036,0.51045219 0.897691,0.79208098 1.601763,0.79208098 1.214525,0 2.077013,-0.89769177 2.077013,-2.14741957 0,-1.1793205 -0.809683,-2.0066051 -1.936198,-2.0066051 -0.633665,0 -1.126515,0.2288234 -1.460949,0.704072 0,-1.5489584 0.510452,-2.4114465 1.408143,-2.4114465 0.563258,0 0.950498,0.3520359 1.07371,0.9504971 z m -1.900994,1.4433476 c 0.756877,0 1.232126,0.528054 1.232126,1.3905421 0,0.792081 -0.528054,1.37294039 -1.249728,1.37294039 -0.739275,0 -1.302533,-0.61606299 -1.302533,-1.42574579 0,-0.7920809 0.545656,-1.3377367 1.320135,-1.3377367 z m 0,0"
       style="fill:#000000;fill-opacity:1;fill-rule:nonzero;stroke:none"
       aria-label="GPU16"
       transform="matrix(0.88769333,0,0,0.88769333,143.0793,103.14054)" />
    <path
       id="path101"
       d="M 6.3541022,-3.4498527 H 3.6258233 v 0.7392756 h 1.9890034 v 0.176018 c 0,1.1617187 -0.8624882,2.00660509 -2.0418088,2.00660509 -0.6688684,0 -1.2673295,-0.24642519 -1.6545691,-0.66886839 -0.440045,-0.4576468 -0.6864702,-1.2321259 -0.6864702,-2.0418087 0,-1.6017638 0.9152936,-2.6578717 2.2882339,-2.6578717 1.0033026,0 1.7073746,0.5104522 1.8833926,1.3377367 H 6.2660932 C 6.0372698,-5.878901 5.0339673,-6.6357784 3.5378143,-6.6357784 c -0.8096828,0 -1.4433475,0.2112216 -1.9537997,0.616063 -0.75687739,0.6336648 -1.19692238,1.6545691 -1.19692238,2.8162879 0,2.0066051 1.23212598,3.41474907 2.99230588,3.41474907 0.8976918,0 1.6017638,-0.33443419 2.2354286,-1.03850617 l 0.2112215,0.86248817 h 0.528054 z m 2.2750326,0.6864702 h 2.0418092 c 0.510452,0 0.915293,-0.1584162 1.267329,-0.4752486 0.38724,-0.352036 0.563258,-0.7744792 0.563258,-1.3729404 0,-1.2321259 -0.721674,-1.9185961 -2.006605,-1.9185961 H 7.7842484 V 9.9974466e-5 h 0.8448864 z m 0,-0.7392756 V -5.790892 h 1.7249762 c 0.809683,0 1.284932,0.4224432 1.284932,1.1441169 0,0.7216738 -0.475249,1.144117 -1.284932,1.144117 z m 9.2717482,-3.0275095 v 4.5940696 c 0,0.8624882 -0.633665,1.40814399 -1.689773,1.40814399 -0.475249,0 -0.88009,-0.12321259 -1.179321,-0.33443419 -0.334434,-0.264027 -0.475248,-0.5808594 -0.475248,-1.0737098 v -4.5940696 h -0.844887 v 4.5940696 c 0,1.32013499 0.950498,2.14741957 2.499456,2.14741957 1.531356,0 2.517057,-0.84488637 2.517057,-2.14741957 v -4.5940696 z m 8.563275,5.7557884 h -3.344342 c 0.07041,-0.528054 0.369638,-0.8624882 1.144117,-1.320135 l 0.897692,-0.4752485 c 0.88009,-0.4928504 1.337737,-1.144117 1.337737,-1.9185962 0,-0.528054 -0.211222,-1.0209043 -0.58086,-1.3553385 -0.387239,-0.352036 -0.844886,-0.5104522 -1.443347,-0.5104522 -0.809683,0 -1.408144,0.2816288 -1.76018,0.8272846 -0.228824,0.3344341 -0.334434,0.7392755 -0.352036,1.3729403 h 0.792081 c 0.0352,-0.4224432 0.08801,-0.6864702 0.19362,-0.8976918 0.211221,-0.3696377 0.616063,-0.6160629 1.091311,-0.6160629 0.721674,0 1.249728,0.5104521 1.249728,1.1969223 0,0.5104522 -0.299231,0.9328954 -0.862488,1.2497278 l -0.809683,0.4752486 c -1.337737,0.7392755 -1.724976,1.3553385 -1.795384,2.745880674466 h 4.242034 z m 3.366344,-0.7568774 V 9.9974466e-5 h 0.792081 V -1.5312566 h 0.950497 v -0.704072 h -0.950497 v -4.118821 h -0.580859 l -2.886695,3.9956085 v 0.8272845 z m 0,-0.704072 h -1.989003 l 1.989003,-2.7810843 z m 0,0"
       style="fill:#000000;fill-opacity:1;fill-rule:nonzero;stroke:none"
       aria-label="GPU24"
       transform="matrix(0.88769333,0,0,0.88769333,198.43763,103.14054)" />
    <path
       id="path102"
       d="m 6.3526313,-3.4486774 h -2.728279 v 0.7392756 h 1.9890034 v 0.176018 c 0,1.1617188 -0.8624882,2.00660514 -2.0418088,2.00660514 -0.6688683,0 -1.2673295,-0.24642519 -1.6545691,-0.66886834 -0.440045,-0.4576468 -0.6864702,-1.232126 -0.6864702,-2.0418088 0,-1.6017637 0.9152936,-2.6578717 2.288234,-2.6578717 1.0033025,0 1.7073745,0.5104522 1.8833925,1.3377368 h 0.8624882 c -0.2288234,-1.320135 -1.232126,-2.0770124 -2.7282789,-2.0770124 -0.8096828,0 -1.4433476,0.2112216 -1.9537998,0.616063 -0.75687736,0.6336648 -1.19692235,1.6545692 -1.19692235,2.8162879 0,2.0066052 1.23212595,3.41474911 2.99230595,3.41474911 0.8976917,0 1.6017637,-0.33443419 2.2354285,-1.03850616 l 0.2112216,0.86248817 h 0.528054 z m 2.279433,0.6864702 h 2.0418087 c 0.510452,0 0.915294,-0.1584162 1.26733,-0.4752486 0.387239,-0.352036 0.563257,-0.7744791 0.563257,-1.3729403 0,-1.232126 -0.721674,-1.9185962 -2.006605,-1.9185962 H 7.7871779 v 6.53026762 h 0.8448864 z m 0,-0.7392756 v -2.2882339 h 1.7249767 c 0.809682,0 1.284931,0.4224432 1.284931,1.144117 0,0.7216737 -0.475249,1.1441169 -1.284931,1.1441169 z m 9.2717477,-3.0275095 v 4.5940697 c 0,0.8624882 -0.633665,1.40814394 -1.689773,1.40814394 -0.475248,0 -0.88009,-0.1232126 -1.17932,-0.33443419 C 14.700285,-1.1252398 14.55947,-1.4420722 14.55947,-1.9349226 v -4.5940697 h -0.844886 v 4.5940697 c 0,1.32013494 0.950497,2.14741951 2.499455,2.14741951 1.531357,0 2.517058,-0.84488637 2.517058,-2.14741951 v -4.5940697 z m 6.930709,4.9989111 v 1.53135652 h 0.792081 V -1.5300812 h 0.950497 v -0.704072 h -0.950497 v -4.1188211 h -0.58086 l -2.886695,3.9956085 v 0.8272846 z m 0,-0.704072 h -1.989004 l 1.989004,-2.7810843 z m 0,0"
       style="fill:#000000;fill-opacity:1;fill-rule:nonzero;stroke:none"
       aria-label="GPU4"
       transform="matrix(0.88769333,0,0,0.88769333,34.575655,158.49887)" />
    <path
       id="path103"
       d="M 6.356152,-3.4486774 H 3.6278731 v 0.7392756 h 1.9890033 v 0.176018 c 0,1.1617188 -0.8624882,2.00660514 -2.0418087,2.00660514 -0.6688684,0 -1.2673296,-0.24642519 -1.6545692,-0.66886834 -0.440045,-0.4576468 -0.6864701,-1.232126 -0.6864701,-2.0418088 0,-1.6017637 0.9152935,-2.6578717 2.2882339,-2.6578717 1.0033025,0 1.7073745,0.5104522 1.8833925,1.3377368 H 6.268143 c -0.2288234,-1.320135 -1.232126,-2.0770124 -2.7282789,-2.0770124 -0.8096828,0 -1.4433476,0.2112216 -1.9537998,0.616063 -0.75687733,0.6336648 -1.19692232,1.6545692 -1.19692232,2.8162879 0,2.0066052 1.23212592,3.41474911 2.99230592,3.41474911 0.8976918,0 1.6017637,-0.33443419 2.2354285,-1.03850616 L 5.828098,0.03647892 h 0.528054 z m 2.2750326,0.6864702 h 2.0418084 c 0.510452,0 0.915294,-0.1584162 1.26733,-0.4752486 0.387239,-0.352036 0.563257,-0.7744791 0.563257,-1.3729403 0,-1.232126 -0.721673,-1.9185962 -2.006605,-1.9185962 H 7.7862982 v 6.53026762 h 0.8448864 z m 0,-0.7392756 v -2.2882339 h 1.7249764 c 0.809683,0 1.284931,0.4224432 1.284931,1.144117 0,0.7216737 -0.475248,1.1441169 -1.284931,1.1441169 z m 9.2717474,-3.0275095 v 4.5940697 c 0,0.8624882 -0.633664,1.40814394 -1.689772,1.40814394 -0.475249,0 -0.88009,-0.1232126 -1.179321,-0.33443419 C 14.699405,-1.1252398 14.558591,-1.4420722 14.558591,-1.9349226 v -4.5940697 h -0.844887 v 4.5940697 c 0,1.32013494 0.950497,2.14741951 2.499456,2.14741951 1.531356,0 2.517057,-0.84488637 2.517057,-2.14741951 v -4.5940697 z m 6.345449,2.0066052 v 4.52366242 h 0.792081 V -6.3529743 h -0.528054 c -0.281629,0.9857008 -0.457647,1.1089134 -1.672171,1.2673296 v 0.5632576 z m 7.199136,3.74918325 h -3.344342 c 0.07041,-0.52805395 0.369638,-0.86248815 1.144117,-1.32013495 l 0.897692,-0.4752486 c 0.88009,-0.4928504 1.337737,-1.144117 1.337737,-1.9185961 0,-0.528054 -0.211222,-1.0209044 -0.58086,-1.3553386 -0.387239,-0.352036 -0.844886,-0.5104522 -1.443347,-0.5104522 -0.809683,0 -1.408144,0.2816288 -1.76018,0.8272846 -0.228824,0.3344342 -0.334434,0.7392756 -0.352036,1.3729404 h 0.792081 c 0.0352,-0.4224432 0.08801,-0.6864702 0.19362,-0.8976918 0.211221,-0.3696378 0.616063,-0.616063 1.091311,-0.616063 0.721674,0 1.249728,0.5104522 1.249728,1.1969224 0,0.5104522 -0.299231,0.9328953 -0.862488,1.2497277 l -0.809683,0.4752486 c -1.337737,0.7392756 -1.724976,1.3553386 -1.795384,2.74588072 h 4.242034 z m 0,0"
       style="fill:#000000;fill-opacity:1;fill-rule:nonzero;stroke:none"
       aria-label="GPU12"
       transform="matrix(0.88769333,0,0,0.88769333,87.720968,158.49887)" />
    <path
       id="path104"
       d="M 6.3529269,-3.4486774 H 3.624648 v 0.7392756 h 1.9890033 v 0.176018 c 0,1.1617188 -0.8624882,2.00660514 -2.0418087,2.00660514 -0.6688684,0 -1.2673296,-0.24642519 -1.6545692,-0.66886834 -0.440045,-0.4576468 -0.6864701,-1.232126 -0.6864701,-2.0418088 0,-1.6017637 0.9152935,-2.6578717 2.2882339,-2.6578717 1.0033025,0 1.7073745,0.5104522 1.8833925,1.3377368 h 0.8624882 c -0.2288234,-1.320135 -1.232126,-2.0770124 -2.7282789,-2.0770124 -0.8096828,0 -1.4433476,0.2112216 -1.9537998,0.616063 -0.75687734,0.6336648 -1.19692232,1.6545692 -1.19692232,2.8162879 0,2.0066052 1.23212592,3.41474911 2.99230592,3.41474911 0.8976918,0 1.6017637,-0.33443419 2.2354285,-1.03850616 l 0.2112216,0.86248817 h 0.528054 z m 2.279433,0.6864702 h 2.0418091 c 0.510452,0 0.915293,-0.1584162 1.267329,-0.4752486 0.38724,-0.352036 0.563258,-0.7744791 0.563258,-1.3729403 0,-1.232126 -0.721674,-1.9185962 -2.006605,-1.9185962 H 7.7874735 v 6.53026762 h 0.8448864 z m 0,-0.7392756 v -2.2882339 h 1.7249761 c 0.809683,0 1.284932,0.4224432 1.284932,1.144117 0,0.7216737 -0.475249,1.1441169 -1.284932,1.1441169 z m 9.2717481,-3.0275095 v 4.5940697 c 0,0.8624882 -0.633665,1.40814394 -1.689773,1.40814394 -0.475249,0 -0.88009,-0.1232126 -1.179321,-0.33443419 C 14.70058,-1.1252398 14.559766,-1.4420722 14.559766,-1.9349226 v -4.5940697 h -0.844887 v 4.5940697 c 0,1.32013494 0.950498,2.14741951 2.499456,2.14741951 1.531357,0 2.517057,-0.84488637 2.517057,-2.14741951 v -4.5940697 z m 8.558875,5.75578845 h -3.344342 c 0.07041,-0.52805395 0.369638,-0.86248815 1.144117,-1.32013495 l 0.897692,-0.4752486 c 0.88009,-0.4928504 1.337736,-1.144117 1.337736,-1.9185961 0,-0.528054 -0.211221,-1.0209044 -0.580859,-1.3553386 -0.38724,-0.352036 -0.844886,-0.5104522 -1.443348,-0.5104522 -0.809682,0 -1.408144,0.2816288 -1.76018,0.8272846 -0.228823,0.3344342 -0.334434,0.7392756 -0.352036,1.3729404 h 0.792081 c 0.0352,-0.4224432 0.08801,-0.6864702 0.19362,-0.8976918 0.211222,-0.3696378 0.616063,-0.616063 1.091312,-0.616063 0.721674,0 1.249728,0.5104522 1.249728,1.1969224 0,0.5104522 -0.299231,0.9328953 -0.862489,1.2497277 l -0.809682,0.4752486 c -1.337737,0.7392756 -1.724977,1.3553386 -1.795384,2.74588072 h 4.242034 z M 29.37168,-6.3529743 c -0.598461,0 -1.126515,0.264027 -1.460949,0.704072 -0.404842,0.5456558 -0.616063,1.408144 -0.616063,2.5698627 0,2.14741955 0.721674,3.29153651 2.077012,3.29153651 1.337737,0 2.077012,-1.14411696 2.077012,-3.23873111 0,-1.2321259 -0.193619,-2.0594105 -0.616063,-2.6226681 -0.334434,-0.4576468 -0.862488,-0.704072 -1.460949,-0.704072 z m 0,0.704072 c 0.844886,0 1.26733,0.8624882 1.26733,2.5522609 0,1.8129854 -0.404842,2.65787173 -1.284932,2.65787173 -0.827284,0 -1.249727,-0.88008993 -1.249727,-2.62266813 0,-1.7425781 0.422443,-2.5874645 1.267329,-2.5874645 z m 0,0"
       style="fill:#000000;fill-opacity:1;fill-rule:nonzero;stroke:none"
       aria-label="GPU20"
       transform="matrix(0.88769333,0,0,0.88769333,143.0793,158.49887)" />
    <path
       id="path105"
       d="m -119.72227,-125.39163 c 0.74717,-1.49443 2.49069,-2.49069 4.98138,-2.49069 H -8.4818 c 2.4907,0 4.23421,-0.99627 4.98139,-2.4907 0.74718,1.49443 2.49069,2.4907 4.98137,2.4907 h 106.25911 c 2.49069,0 4.2342,0.99626 4.98138,2.49069"
       style="fill:none;stroke:#000000;stroke-width:0.79701;stroke-linecap:round;stroke-linejoin:round;stroke-miterlimit:10;stroke-dasharray:none;stroke-opacity:1"
       transform="matrix(0.88769333,0,0,-0.88769333,132.66311,66.991888)" />
    <path
       id="path106"
       d="M 1.6524262,-2.7637141 H 3.694235 c 0.5104522,0 0.9152935,-0.1584162 1.2673295,-0.4752486 0.3872396,-0.352036 0.5632576,-0.7744792 0.5632576,-1.3729404 0,-1.2321259 -0.7216738,-1.9185961 -2.0066051,-1.9185961 H 0.80753987 V -2.3163405e-4 H 1.6524262 Z m 0,-0.7392756 v -2.2882339 h 1.7249764 c 0.8096828,0 1.2849313,0.4224431 1.2849313,1.1441169 0,0.7216738 -0.4752485,1.144117 -1.2849313,1.144117 z M 7.3202057,-4.6999121 H 6.5809301 v 4.69968046595 h 0.7392756 z m 0,-1.8305871 H 6.5809301 v 0.9328954 h 0.7392756 z m 1.1265151,8.4840673 h 0.7568774 v -2.44665012 c 0.4048414,0.47524859 0.8448868,0.70407198 1.4433478,0.70407198 1.214524,0 2.006605,-0.98570077 2.006605,-2.48185376 0,-1.5665601 -0.774479,-2.5522609 -2.006605,-2.5522609 -0.633665,0 -1.1441172,0.2816288 -1.4961532,0.8272846 v -0.704072 h -0.704072 z m 2.0770122,-6.0902226 c 0.809683,0 1.355339,0.7392756 1.355339,1.8481889 0,1.0737098 -0.545656,1.79538358 -1.355339,1.79538358 -0.7920808,0 -1.3201348,-0.72167378 -1.3201348,-1.81298538 0,-1.1089133 0.528054,-1.8305871 1.3201348,-1.8305871 z m 7.027519,2.0418087 c 0,-0.7216737 -0.05281,-1.1441169 -0.19362,-1.4961529 -0.299231,-0.7744792 -1.020905,-1.232126 -1.883393,-1.232126 -1.320135,0 -2.165021,1.0033026 -2.165021,2.5346591 0,1.54895839 0.827284,2.49945556 2.147419,2.49945556 1.07371,0 1.812986,-0.61606298 2.006606,-1.63696736 h -0.756878 c -0.211221,0.61606299 -0.633665,0.95049718 -1.232126,0.95049718 -0.475248,0 -0.88009,-0.22882339 -1.126515,-0.61606298 -0.176018,-0.264027 -0.246425,-0.5456558 -0.246425,-1.0033026 z m -3.432351,-0.6160629 c 0.05281,-0.8624882 0.580859,-1.4257458 1.337736,-1.4257458 0.739276,0 1.302534,0.5984612 1.302534,1.3729404 0,0.017602 0,0.035204 -0.0176,0.052805 z m 5.179329,-3.8195905 h -0.739275 v 6.53026756595 h 0.739275 z m 1.971402,1.8305871 h -0.739276 v 4.69968046595 h 0.739276 z m 0,-1.8305871 h -0.739276 v 0.9328954 h 0.739276 z m 1.284931,1.8305871 v 4.69968046595 h 0.739276 V -2.5876961 c 0,-0.968099 0.510452,-1.584162 1.284931,-1.584162 0.580859,0 0.968099,0.352036 0.968099,0.9152936 v 3.25633286595 h 0.739276 V -3.5557951 c 0,-0.7744792 -0.58086,-1.2673296 -1.496153,-1.2673296 -0.686471,0 -1.144117,0.264027 -1.548959,0.9152936 v -0.792081 z m 8.946115,2.6050663 c 0,-0.7216737 -0.05281,-1.1441169 -0.19362,-1.4961529 -0.299231,-0.7744792 -1.020905,-1.232126 -1.883393,-1.232126 -1.320135,0 -2.165021,1.0033026 -2.165021,2.5346591 0,1.54895839 0.827285,2.49945556 2.147419,2.49945556 1.07371,0 1.812986,-0.61606298 2.006606,-1.63696736 h -0.756878 c -0.211221,0.61606299 -0.633665,0.95049718 -1.232126,0.95049718 -0.475248,0 -0.88009,-0.22882339 -1.126515,-0.61606298 -0.176018,-0.264027 -0.246425,-0.5456558 -0.246425,-1.0033026 z m -3.432351,-0.6160629 c 0.0528,-0.8624882 0.580859,-1.4257458 1.337736,-1.4257458 0.739276,0 1.302534,0.5984612 1.302534,1.3729404 0,0.017602 0,0.035204 -0.0176,0.052805 z m 7.973615,-0.052805 h 2.041809 c 0.510452,0 0.915293,-0.1584162 1.267329,-0.4752486 0.38724,-0.352036 0.563258,-0.7744792 0.563258,-1.3729404 0,-1.2321259 -0.721674,-1.9185961 -2.006605,-1.9185961 h -2.710678 v 6.53026756595 h 0.844887 z m 0,-0.7392756 v -2.2882339 h 1.724976 c 0.809683,0 1.284932,0.4224431 1.284932,1.1441169 0,0.7216738 -0.475249,1.144117 -1.284932,1.144117 z m 8.752495,3.06271308 c -0.07041,0.0176018 -0.105611,0.0176018 -0.158417,0.0176018 -0.264027,0 -0.404841,-0.1408144 -0.404841,-0.36963779 V -3.5557951 c 0,-0.8272846 -0.598461,-1.2673296 -1.76018,-1.2673296 -0.68647,0 -1.249728,0.1936198 -1.56656,0.5456558 -0.211222,0.2288234 -0.299231,0.5104522 -0.316832,0.968099 h 0.756877 c 0.0528,-0.5632576 0.404841,-0.8272846 1.091311,-0.8272846 0.686471,0 1.056108,0.2464252 1.056108,0.704072 v 0.1936198 c 0,0.3168324 -0.193619,0.440045 -0.774479,0.5104522 -1.056108,0.1408144 -1.232126,0.176018 -1.513754,0.2992305 -0.545656,0.2112216 -0.827285,0.6336648 -0.827285,1.2497278 0,0.84488638 0.598461,1.39054216 1.548958,1.39054216 0.598461,0 1.056108,-0.21122159405 1.601764,-0.68647018 0.0528,0.45764679 0.281629,0.68647018 0.756877,0.68647018 0.158417,0 0.281629,-0.0176018 0.510453,-0.088009 z M 43.491903,-1.4787828 c 0,0.2464252 -0.07041,0.4048414 -0.29923,0.61606299 -0.299231,0.264027 -0.668869,0.42244319 -1.108913,0.42244319 -0.58086,0 -0.915294,-0.28162879 -0.915294,-0.75687738 0,-0.4928504 0.316832,-0.7392756 1.126515,-0.8624882 0.792081,-0.1056108 0.950497,-0.1408144 1.196922,-0.264027 z m 2.116617,-3.2211293 v 4.69968046595 h 0.756877 V -2.42928 c 0,-0.6864701 0.176018,-1.1265151 0.528054,-1.3729403 0.228824,-0.176018 0.457647,-0.2288234 0.968099,-0.2464252 v -0.7568774 c -0.123212,-0.017602 -0.176018,-0.017602 -0.281629,-0.017602 -0.475248,0 -0.844886,0.2816288 -1.284931,0.9857008 v -0.8624882 z m 7.067122,4.25963548 c -0.07041,0.0176018 -0.10561,0.0176018 -0.158416,0.0176018 -0.264027,0 -0.404841,-0.1408144 -0.404841,-0.36963779 V -3.5557951 c 0,-0.8272846 -0.598461,-1.2673296 -1.76018,-1.2673296 -0.68647,0 -1.249728,0.1936198 -1.56656,0.5456558 -0.211222,0.2288234 -0.299231,0.5104522 -0.316833,0.968099 h 0.756878 c 0.0528,-0.5632576 0.404841,-0.8272846 1.091311,-0.8272846 0.68647,0 1.056108,0.2464252 1.056108,0.704072 v 0.1936198 c 0,0.3168324 -0.19362,0.440045 -0.774479,0.5104522 -1.056108,0.1408144 -1.232126,0.176018 -1.513755,0.2992305 -0.545656,0.2112216 -0.827284,0.6336648 -0.827284,1.2497278 0,0.84488638 0.598461,1.39054216 1.548958,1.39054216 0.598461,0 1.056108,-0.21122159405 1.601764,-0.68647018 0.0528,0.45764679 0.281629,0.68647018 0.756877,0.68647018 0.158416,0 0.281629,-0.0176018 0.510452,-0.088009 z M 51.373109,-1.4787828 c 0,0.2464252 -0.07041,0.4048414 -0.29923,0.61606299 -0.299231,0.264027 -0.668869,0.42244319 -1.108914,0.42244319 -0.580859,0 -0.915293,-0.28162879 -0.915293,-0.75687738 0,-0.4928504 0.316832,-0.7392756 1.126515,-0.8624882 0.792081,-0.1056108 0.950497,-0.1408144 1.196922,-0.264027 z m 2.855892,-5.0517164 h -0.739275 v 6.53026756595 h 0.739275 z m 1.993404,0 h -0.739276 v 6.53026756595 h 0.739276 z m 5.227734,4.4356534 c 0,-0.7216737 -0.0528,-1.1441169 -0.193619,-1.4961529 -0.299231,-0.7744792 -1.020905,-1.232126 -1.883393,-1.232126 -1.320135,0 -2.165021,1.0033026 -2.165021,2.5346591 0,1.54895839 0.827284,2.49945556 2.147419,2.49945556 1.07371,0 1.812986,-0.61606298 2.006605,-1.63696736 h -0.756877 c -0.211222,0.61606299 -0.633665,0.95049718 -1.232126,0.95049718 -0.475249,0 -0.88009,-0.22882339 -1.126515,-0.61606298 -0.176018,-0.264027 -0.246425,-0.5456558 -0.246425,-1.0033026 z m -3.432351,-0.6160629 c 0.05281,-0.8624882 0.58086,-1.4257458 1.337737,-1.4257458 0.739276,0 1.302533,0.5984612 1.302533,1.3729404 0,0.017602 0,0.035204 -0.0176,0.052805 z m 5.17933,-3.8195905 h -0.739276 v 6.53026756595 h 0.739276 z m 0,0"
       style="fill:#000000;fill-opacity:1;fill-rule:nonzero;stroke:none"
       aria-label="PipelineParallel"
       transform="matrix(0.88769333,0,0,0.88769333,101.22456,192.30489)" />
    <path
       id="path107"
       d="m -125.39163,-119.72227 c -1.49443,0.74717 -2.49069,2.49069 -2.49069,4.98138 v 41.06134 c 0,2.49069 -0.99627,4.23421 -2.4907,4.98138 1.49443,0.7472 2.4907,2.4907 2.4907,4.98139 v 41.06137 c 0,2.49069 0.99626,4.23421 2.49069,4.98138"
       style="fill:none;stroke:#000000;stroke-width:0.79701;stroke-linecap:round;stroke-linejoin:round;stroke-miterlimit:10;stroke-dasharray:none;stroke-opacity:1"
       transform="matrix(0.88769333,0,0,-0.88769333,132.66311,66.991888)" />
    <path
       id="path108"
       d="M 5.2080249,-6.531936 H 0.50834447 v 0.7392756 H 4.1695188 L 0.24431748,-0.740944 v 0.73927557 H 5.2256267 V -0.740944 H 1.3004254 l 3.9075995,-5.0341146 z m 4.8624971,4.4356534 c 0,-0.7216737 -0.05281,-1.1441169 -0.1936198,-1.4961529 -0.2992306,-0.7744792 -1.0209044,-1.232126 -1.8833925,-1.232126 -1.320135,0 -2.1650214,1.0033026 -2.1650214,2.5346591 0,1.5489584 0.8272846,2.49945556 2.1474196,2.49945556 1.0737097,0 1.8129853,-0.61606298 2.0066051,-1.63696736 H 9.2256356 c -0.2112216,0.616063 -0.6336647,0.95049719 -1.2321259,0.95049719 -0.4752486,0 -0.88009,-0.2288234 -1.1265152,-0.61606299 C 6.6909765,-1.357007 6.6205693,-1.6386358 6.6205693,-2.0962826 Z M 6.6381711,-2.7123455 c 0.052805,-0.8624882 0.5808594,-1.4257458 1.3377368,-1.4257458 0.7392756,0 1.3025331,0.5984612 1.3025331,1.3729404 0,0.017602 0,0.035204 -0.017602,0.052805 z m 4.4400539,-1.9890034 v 4.69968047 h 0.756877 V -2.4307167 c 0,-0.6864702 0.176018,-1.1265152 0.528054,-1.3729404 0.228824,-0.176018 0.457647,-0.2288234 0.968099,-0.2464252 v -0.7568774 c -0.123212,-0.017602 -0.176018,-0.017602 -0.281628,-0.017602 -0.475249,0 -0.844887,0.2816288 -1.284932,0.9857008 v -0.8624882 z m 4.800891,-0.1232126 c -1.302533,0 -2.112216,0.9328954 -2.112216,2.5170573 0,1.5665602 0.792081,2.51705736 2.129818,2.51705736 1.320135,0 2.129817,-0.95049716 2.129817,-2.48185376 0,-1.6193655 -0.792081,-2.5522609 -2.147419,-2.5522609 z m 0.0176,0.6864702 c 0.844886,0 1.337736,0.6864702 1.337736,1.8481889 0,1.1089134 -0.510452,1.81298539 -1.337736,1.81298539 -0.827285,0 -1.337737,-0.70407199 -1.337737,-1.83058719 0,-1.1265151 0.510452,-1.8305871 1.337737,-1.8305871 z m 5.812994,4.13642287 h 2.517057 c 1.654569,0 2.675474,-1.23212597 2.675474,-3.27393467 0,-2.024207 -1.020905,-3.2563329 -2.675474,-3.2563329 H 21.709712 Z M 22.554598,-0.740944 v -5.0517164 h 1.531357 c 1.284931,0 1.971401,0.8624881 1.971401,2.5346591 0,1.6369673 -0.68647,2.5170573 -1.971401,2.5170573 z m 9.623784,0.29923059 c -0.07041,0.0176018 -0.105611,0.0176018 -0.158416,0.0176018 -0.264027,0 -0.404842,-0.14081439 -0.404842,-0.36963778 V -3.5572319 c 0,-0.8272846 -0.598461,-1.2673296 -1.760179,-1.2673296 -0.686471,0 -1.249728,0.1936198 -1.566561,0.5456558 -0.211221,0.2288234 -0.29923,0.5104522 -0.316832,0.968099 h 0.756877 c 0.05281,-0.5632576 0.404842,-0.8272846 1.091312,-0.8272846 0.68647,0 1.056108,0.2464252 1.056108,0.704072 v 0.1936198 c 0,0.3168324 -0.19362,0.440045 -0.774479,0.5104522 -1.056108,0.1408144 -1.232126,0.176018 -1.513755,0.2992306 -0.545656,0.2112215 -0.827285,0.6336647 -0.827285,1.2497277 0,0.84488639 0.598462,1.39054217 1.548959,1.39054217 0.598461,0 1.056108,-0.21122159 1.601764,-0.68647017 0.0528,0.45764678 0.281628,0.68647017 0.756877,0.68647017 0.158416,0 0.281629,-0.0176018 0.510452,-0.088009 z M 30.875849,-1.4802196 c 0,0.2464252 -0.07041,0.4048414 -0.299231,0.616063 -0.29923,0.26402699 -0.668868,0.42244319 -1.108913,0.42244319 -0.580859,0 -0.915294,-0.2816288 -0.915294,-0.75687739 0,-0.4928504 0.316833,-0.7392756 1.126516,-0.8624882 0.792081,-0.1056108 0.950497,-0.1408144 1.196922,-0.264027 z m 3.771185,-3.2211293 H 33.890157 V -5.9862802 H 33.13328 v 1.2849313 h -0.633665 v 0.616063 h 0.633665 v 3.53796169 c 0,0.47524858 0.334434,0.75687737 0.915293,0.75687737 0.176018,0 0.352036,-0.0176018 0.598461,-0.0704072 v -0.61606298 c -0.08801,0.0176018 -0.211221,0.0352036 -0.352036,0.0352036 -0.316832,0 -0.404841,-0.1056108 -0.404841,-0.42244319 V -4.0852859 h 0.756877 z m 5.012113,4.25963549 c -0.07041,0.0176018 -0.105611,0.0176018 -0.158416,0.0176018 -0.264027,0 -0.404842,-0.14081439 -0.404842,-0.36963778 V -3.5572319 c 0,-0.8272846 -0.598461,-1.2673296 -1.76018,-1.2673296 -0.68647,0 -1.249727,0.1936198 -1.56656,0.5456558 -0.211221,0.2288234 -0.29923,0.5104522 -0.316832,0.968099 h 0.756877 c 0.05281,-0.5632576 0.404842,-0.8272846 1.091312,-0.8272846 0.68647,0 1.056108,0.2464252 1.056108,0.704072 v 0.1936198 c 0,0.3168324 -0.19362,0.440045 -0.774479,0.5104522 -1.056108,0.1408144 -1.232126,0.176018 -1.513755,0.2992306 -0.545656,0.2112215 -0.827285,0.6336647 -0.827285,1.2497277 0,0.84488639 0.598461,1.39054217 1.548959,1.39054217 0.598461,0 1.056107,-0.21122159 1.601763,-0.68647017 0.05281,0.45764678 0.281629,0.68647017 0.756878,0.68647017 0.158416,0 0.281628,-0.0176018 0.510452,-0.088009 z M 38.356614,-1.4802196 c 0,0.2464252 -0.07041,0.4048414 -0.299231,0.616063 -0.299231,0.26402699 -0.668868,0.42244319 -1.108913,0.42244319 -0.58086,0 -0.915294,-0.2816288 -0.915294,-0.75687739 0,-0.4928504 0.316833,-0.7392756 1.126515,-0.8624882 0.792081,-0.1056108 0.950497,-0.1408144 1.196923,-0.264027 z m 5.645777,-1.2849313 H 46.0442 c 0.510452,0 0.915293,-0.1584162 1.267329,-0.4752486 0.38724,-0.352036 0.563258,-0.7744792 0.563258,-1.3729404 0,-1.2321259 -0.721674,-1.9185961 -2.006605,-1.9185961 h -2.710678 v 6.53026757 h 0.844887 z m 0,-0.7392756 v -2.2882339 h 1.724976 c 0.809683,0 1.284932,0.4224431 1.284932,1.1441169 0,0.7216738 -0.475249,1.144117 -1.284932,1.144117 z m 8.765696,3.06271309 c -0.07041,0.0176018 -0.105611,0.0176018 -0.158416,0.0176018 -0.264027,0 -0.404842,-0.14081439 -0.404842,-0.36963778 V -3.5572319 c 0,-0.8272846 -0.598461,-1.2673296 -1.76018,-1.2673296 -0.68647,0 -1.249727,0.1936198 -1.56656,0.5456558 -0.211221,0.2288234 -0.29923,0.5104522 -0.316832,0.968099 h 0.756877 c 0.05281,-0.5632576 0.404842,-0.8272846 1.091312,-0.8272846 0.68647,0 1.056108,0.2464252 1.056108,0.704072 v 0.1936198 c 0,0.3168324 -0.19362,0.440045 -0.774479,0.5104522 -1.056108,0.1408144 -1.232126,0.176018 -1.513755,0.2992306 -0.545656,0.2112215 -0.827285,0.6336647 -0.827285,1.2497277 0,0.84488639 0.598461,1.39054217 1.548959,1.39054217 0.598461,0 1.056108,-0.21122159 1.601763,-0.68647017 0.05281,0.45764678 0.281629,0.68647017 0.756878,0.68647017 0.158416,0 0.281629,-0.0176018 0.510452,-0.088009 z M 51.465554,-1.4802196 c 0,0.2464252 -0.07041,0.4048414 -0.299231,0.616063 -0.29923,0.26402699 -0.668868,0.42244319 -1.108913,0.42244319 -0.58086,0 -0.915294,-0.2816288 -0.915294,-0.75687739 0,-0.4928504 0.316833,-0.7392756 1.126515,-0.8624882 0.792081,-0.1056108 0.950498,-0.1408144 1.196923,-0.264027 z m 2.116616,-3.2211293 v 4.69968047 h 0.756878 V -2.4307167 c 0,-0.6864702 0.176018,-1.1265152 0.528054,-1.3729404 0.228823,-0.176018 0.457646,-0.2288234 0.968099,-0.2464252 v -0.7568774 c -0.123213,-0.017602 -0.176018,-0.017602 -0.281629,-0.017602 -0.475249,0 -0.844887,0.2816288 -1.284932,0.9857008 v -0.8624882 z m 7.067123,4.25963549 c -0.07041,0.0176018 -0.105611,0.0176018 -0.158417,0.0176018 -0.264027,0 -0.404841,-0.14081439 -0.404841,-0.36963778 V -3.5572319 c 0,-0.8272846 -0.598461,-1.2673296 -1.76018,-1.2673296 -0.68647,0 -1.249728,0.1936198 -1.56656,0.5456558 -0.211222,0.2288234 -0.299231,0.5104522 -0.316832,0.968099 h 0.756877 c 0.0528,-0.5632576 0.404841,-0.8272846 1.091312,-0.8272846 0.68647,0 1.056107,0.2464252 1.056107,0.704072 v 0.1936198 c 0,0.3168324 -0.193619,0.440045 -0.774479,0.5104522 -1.056108,0.1408144 -1.232126,0.176018 -1.513754,0.2992306 -0.545656,0.2112215 -0.827285,0.6336647 -0.827285,1.2497277 0,0.84488639 0.598461,1.39054217 1.548958,1.39054217 0.598462,0 1.056108,-0.21122159 1.601764,-0.68647017 0.0528,0.45764678 0.281629,0.68647017 0.756877,0.68647017 0.158417,0 0.281629,-0.0176018 0.510453,-0.088009 z M 59.346759,-1.4802196 c 0,0.2464252 -0.07041,0.4048414 -0.29923,0.616063 -0.299231,0.26402699 -0.668868,0.42244319 -1.108913,0.42244319 -0.58086,0 -0.915294,-0.2816288 -0.915294,-0.75687739 0,-0.4928504 0.316832,-0.7392756 1.126515,-0.8624882 0.792081,-0.1056108 0.950497,-0.1408144 1.196922,-0.264027 z m 2.855892,-5.0517164 h -0.739275 v 6.53026757 h 0.739275 z m 1.989004,0 h -0.739276 v 6.53026757 h 0.739276 z m 5.227734,4.4356534 c 0,-0.7216737 -0.0528,-1.1441169 -0.19362,-1.4961529 -0.29923,-0.7744792 -1.020904,-1.232126 -1.883392,-1.232126 -1.320135,0 -2.165021,1.0033026 -2.165021,2.5346591 0,1.5489584 0.827284,2.49945556 2.147419,2.49945556 1.07371,0 1.812985,-0.61606298 2.006605,-1.63696736 h -0.756877 c -0.211222,0.616063 -0.633665,0.95049719 -1.232126,0.95049719 -0.475249,0 -0.88009,-0.2288234 -1.126515,-0.61606299 -0.176018,-0.264027 -0.246425,-0.5456558 -0.246425,-1.0033026 z m -3.432351,-0.6160629 c 0.05281,-0.8624882 0.58086,-1.4257458 1.337737,-1.4257458 0.739276,0 1.302533,0.5984612 1.302533,1.3729404 0,0.017602 0,0.035204 -0.0176,0.052805 z m 5.17933,-3.8195905 h -0.739276 v 6.53026757 h 0.739276 z m 0,0"
       style="fill:#000000;fill-opacity:1;fill-rule:nonzero;stroke:none"
       aria-label="ZeroDataParallel"
       transform="matrix(0,-0.88769333,0.88769333,0,11.563981,158.77938)" />
    <path
       id="path109"
       d="m 118.3908,-119.72227 c 1.58505,-0.5284 3.52236,0 5.28355,1.7612 l 39.26419,39.26417 c 1.7612,1.7612 3.6985,2.2896 5.28356,1.76119 -0.5284,1.58506 -1e-5,3.52236 1.76119,5.28356 l 39.26419,39.26421 c 1.7612,1.76119 2.2896,3.6985 1.7612,5.28355"
       style="fill:none;stroke:#000000;stroke-width:0.79701;stroke-linecap:round;stroke-linejoin:round;stroke-miterlimit:10;stroke-dasharray:none;stroke-opacity:1"
       transform="matrix(0.88769333,0,0,-0.88769333,132.66311,66.991888)" />
    <path
       id="path110"
       d="M 4.1822162,-3.8871756e-4 6.0491868,-5.476836 V -3.8871756e-4 H 6.820868 V -6.5223396 H 5.6757927 L 3.7590362,-0.84674875 1.8422796,-6.5223396 H 0.67231132 V -3.8871756e-4 H 1.4688855 V -5.476836 L 3.3109632,-3.8871756e-4 Z M 9.9075929,-4.8296195 c -1.319326,0 -2.1159001,0.9459318 -2.1159001,2.5141872 0,1.56825532 0.7965741,2.51418712 2.1159001,2.51418712 1.3193261,0 2.1407931,-0.9459318 2.1407931,-2.46440132 0,-1.6180412 -0.796574,-2.563973 -2.1407931,-2.563973 z m 0,0.6970024 c 0.8463601,0 1.3442191,0.6721094 1.3442191,1.8420777 0,1.1201824 -0.497859,1.81718478 -1.3442191,1.81718478 -0.8214671,0 -1.319326,-0.69700238 -1.319326,-1.84207768 0,-1.1201824 0.4978589,-1.8171848 1.319326,-1.8171848 z M 16.88384,-6.5223396 h -0.746788 v 2.4146154 c -0.298716,-0.4729659 -0.821467,-0.7218953 -1.418898,-0.7218953 -1.219754,0 -2.041221,0.9708247 -2.041221,2.4644013 0,1.59314827 0.796574,2.56397302 2.041221,2.56397302 0.647216,0 1.095289,-0.22403648 1.493576,-0.82146709 v 0.62232355244 h 0.67211 z m -2.066114,2.3897225 c 0.821467,0 1.319326,0.7218953 1.319326,1.8420777 0,1.0703965 -0.522752,1.79229184 -1.319326,1.79229184 -0.796574,0 -1.344219,-0.72189534 -1.344219,-1.81718474 0,-1.0703966 0.547645,-1.8171848 1.344219,-1.8171848 z m 7.225176,2.0412212 c 0,-0.7218953 -0.07468,-1.1450753 -0.199143,-1.4935765 -0.298716,-0.7716812 -1.020611,-1.2446471 -1.891864,-1.2446471 -1.319326,0 -2.165686,1.0206106 -2.165686,2.5390801 0,1.54336242 0.821467,2.48929422 2.140793,2.48929422 1.09529,0 1.817185,-0.59743061 2.016328,-1.61804122 h -0.746788 c -0.224036,0.59743059 -0.647216,0.94593178 -1.244647,0.94593178 -0.472966,0 -0.871253,-0.22403648 -1.120182,-0.62232358 -0.174251,-0.2489294 -0.24893,-0.5476447 -0.24893,-0.9957177 z m -3.435226,-0.6223235 c 0.04979,-0.871253 0.572538,-1.4188977 1.319326,-1.4188977 0.746788,0 1.319326,0.5974306 1.319326,1.3691118 0,0.024893 0,0.024893 -0.02489,0.049786 z m 5.159062,-3.8086202 h -0.721895 v 6.52195088244 h 0.721895 z m 4.773222,3.7588343 h 2.041221 c 0.522752,0 0.921039,-0.1493577 1.26954,-0.4729659 0.398287,-0.3485012 0.572538,-0.7716812 0.572538,-1.3691118 0,-1.2446471 -0.721895,-1.9167566 -2.016328,-1.9167566 h -2.688438 v 6.52195088244 h 0.821467 z m 0,-0.7467883 v -2.2901506 h 1.742506 c 0.796574,0 1.26954,0.42318 1.26954,1.1450753 0,0.7218953 -0.472966,1.1450753 -1.26954,1.1450753 z m 8.768539,3.06183192 c -0.04979,0.0248929 -0.09957,0.0248929 -0.149358,0.0248929 -0.273822,0 -0.398287,-0.14935766 -0.398287,-0.37339414 V -3.5600795 c 0,-0.821467 -0.59743,-1.26954 -1.767399,-1.26954 -0.697002,0 -1.244647,0.1991435 -1.568255,0.5476447 -0.199144,0.2240365 -0.298715,0.5227518 -0.323608,0.9708248 h 0.771681 c 0.04979,-0.5725377 0.398287,-0.8214671 1.095289,-0.8214671 0.67211,0 1.045504,0.2489294 1.045504,0.6970024 v 0.1991435 c 0,0.3236082 -0.199144,0.448073 -0.771681,0.4978588 -1.070397,0.1493577 -1.244647,0.1742506 -1.51847,0.2987153 -0.547644,0.2240365 -0.821467,0.6472165 -0.821467,1.2695401 0,0.84636003 0.597431,1.36911182 1.543363,1.36911182 0.59743,0 1.045503,-0.19914353756 1.593148,-0.67210944 0.07468,0.44807296 0.298715,0.67210944 0.771681,0.67210944 0.149358,0 0.273823,0 0.497859,-0.0746788 z M 36.014066,-1.4690723 c 0,0.2489294 -0.07468,0.3982871 -0.298715,0.59743061 -0.298716,0.27382236 -0.67211,0.42318001 -1.120183,0.42318001 -0.572537,0 -0.896146,-0.27382236 -0.896146,-0.74678822 0,-0.4978589 0.298716,-0.7467883 1.120183,-0.871253 0.796574,-0.099572 0.945932,-0.1244647 1.194861,-0.2489294 z m 2.122123,-3.2360825 v 4.70476608244 h 0.746789 V -2.4398971 c 0,-0.6721094 0.17425,-1.1201824 0.522751,-1.3691118 0.24893,-0.1742506 0.472966,-0.2240365 0.970825,-0.2489294 v -0.7467883 c -0.124465,-0.024893 -0.17425,-0.024893 -0.273822,-0.024893 -0.472966,0 -0.84636,0.2987153 -1.294433,0.9957177 v -0.871253 z m 7.057149,4.25669312 c -0.04978,0.0248929 -0.09957,0.0248929 -0.149357,0.0248929 -0.273823,0 -0.398287,-0.14935766 -0.398287,-0.37339414 V -3.5600796 c 0,-0.821467 -0.597431,-1.26954 -1.767399,-1.26954 -0.697003,0 -1.244647,0.1991435 -1.568256,0.5476448 -0.199143,0.2240365 -0.298715,0.5227517 -0.323608,0.9708247 h 0.771681 c 0.04979,-0.5725377 0.398287,-0.821467 1.09529,-0.821467 0.672109,0 1.045503,0.2489294 1.045503,0.6970024 v 0.1991435 c 0,0.3236082 -0.199143,0.448073 -0.771681,0.4978588 -1.070396,0.1493577 -1.244647,0.1742506 -1.518469,0.2987153 -0.547645,0.2240365 -0.821467,0.6472165 -0.821467,1.2695401 0,0.84635998 0.59743,1.36911177 1.543362,1.36911177 0.597431,0 1.045504,-0.19914353756 1.593148,-0.67210944 0.07468,0.44807296 0.298716,0.67210944 0.771682,0.67210944 0.149357,0 0.273822,0 0.497858,-0.0746788 z M 43.898905,-1.4690723 c 0,0.2489294 -0.07468,0.3982871 -0.298715,0.59743061 -0.298715,0.27382236 -0.672109,0.42318001 -1.120182,0.42318001 -0.572538,0 -0.896146,-0.27382236 -0.896146,-0.74678822 0,-0.4978589 0.298715,-0.7467883 1.120182,-0.871253 0.796574,-0.099572 0.945932,-0.1244647 1.194861,-0.2489294 z m 2.844019,-5.0532673 h -0.721895 v 6.52195088244 h 0.721895 z m 1.988324,0.00311 h -0.721895 v 6.5219509 h 0.721895 z m 5.249299,4.4278321 c 0,-0.7218953 -0.07468,-1.1450753 -0.199144,-1.4935765 -0.298715,-0.7716812 -1.02061,-1.2446471 -1.891863,-1.2446471 -1.319326,0 -2.165686,1.0206106 -2.165686,2.5390801 0,1.54336242 0.821467,2.48929422 2.140793,2.48929422 1.095289,0 1.817185,-0.59743061 2.016328,-1.61804122 h -0.746788 c -0.224036,0.59743059 -0.647217,0.94593178 -1.244647,0.94593178 -0.472966,0 -0.871253,-0.22403648 -1.120183,-0.62232358 -0.17425,-0.2489294 -0.248929,-0.5476447 -0.248929,-0.9957177 z M 50.545321,-2.713721 c 0.04979,-0.871253 0.572538,-1.4188977 1.319326,-1.4188977 0.746788,0 1.319326,0.5974306 1.319326,1.3691118 0,0.024893 0,0.024893 -0.02489,0.049786 z m 5.162174,-3.805507 H 54.9856 v 6.5219509 h 0.721895 z m 0,0"
       style="fill:#000000;fill-opacity:1;fill-rule:nonzero;stroke:none"
       aria-label="ModelParallel"
       transform="matrix(0.62768796,-0.62768796,0.62768796,0.62768796,269.77355,159.43006)" />
  </g>
</svg>
