<?xml version="1.0" encoding="UTF-8" standalone="no"?>
<!-- Created with Inkscape (http://www.inkscape.org/) -->

<svg
   version="1.1"
   id="svg1"
   width="729.08801"
   height="174.33867"
   viewBox="0 0 729.08801 174.33867"
   xmlns="http://www.w3.org/2000/svg"
   xmlns:svg="http://www.w3.org/2000/svg">
  <defs
     id="defs1" />
  <g
     id="g1">
    <path
       id="path1"
       d="M -8.50403,-36.85085 H 537.52171 V 93.10797 H -8.50403 Z"
       style="fill:#fffee6;fill-opacity:1;fill-rule:nonzero;stroke:#b7b752;stroke-width:0.79701;stroke-linecap:butt;stroke-linejoin:miter;stroke-miterlimit:10;stroke-dasharray:none;stroke-opacity:1"
       transform="matrix(1.3333333,0,0,-1.3333333,11.869333,124.67333)" />
    <path
       id="path2"
       d="M 0,-14.17339 H 43.67062 V 14.1734 H 0 Z"
       style="fill:#e6e6ff;fill-opacity:1;fill-rule:nonzero;stroke:#b49cde;stroke-width:0.3985;stroke-linecap:butt;stroke-linejoin:miter;stroke-miterlimit:10;stroke-dasharray:none;stroke-opacity:1"
       transform="matrix(1.3333333,0,0,-1.3333333,11.869333,124.67333)" />
    <path
       id="path3"
       d="m 4.5941094,-1.7117031 c 0,-1.0195313 -0.8320313,-1.6757813 -1.5,-1.8398438 L 2.1917656,-3.7624844 c -0.4570312,-0.1054687 -0.9140625,-0.46875 -0.9140625,-0.984375 0,-0.515625 0.4921875,-1.03125 1.3007813,-1.03125 0.6445312,0 1.1015625,0.1875 1.5585937,0.5742188 L 4.2894219,-5.9773281 C 3.8323906,-6.1999844 3.4105156,-6.4226406 2.5902031,-6.4226406 c -1.2773437,0 -2.07421873,0.890625 -2.07421873,1.78125 0,0.234375 0.0351563,0.5859375 0.33984375,0.9960937 0.42187498,0.5390625 0.99609378,0.6796875 1.37109378,0.7617188 l 0.75,0.1992187 c 0.4101562,0.1171875 0.8554687,0.515625 0.8554687,1.0664063 0,0.5976562 -0.5039062,1.14843748 -1.3007812,1.14843748 -0.7265625,0 -1.40625,-0.26953125 -1.98046878,-0.73828128 l -0.140625,0.78515628 C 1.2894219,0.12814063 2.1097344,0.19845313 2.5316094,0.19845313 c 1.2304687,0 2.0625,-0.9140625 2.0625,-1.91015623 z m 3.5947265,1.47656248 -0.1523437,-0.5625 c -0.234375,0.17578125 -0.5507813,0.28125 -0.8320313,0.28125 -0.3515625,0 -0.46875,-0.3046875 -0.46875,-0.77343748 v -2.1328125 h 1.3007813 v -0.5625 H 6.7357109 v -1.1367188 h -0.65625 v 1.1367188 H 5.2943047 v 0.5625 h 0.7617187 v 2.296875 c 0,0.52734373 0.1171875,1.21874998 0.7617188,1.21874998 0.3984375,0 0.8671875,-0.0703125 1.3710937,-0.328125 z M 12.231805,-7.65625e-4 V -2.5906094 c 0,-0.890625 -0.65625,-1.546875 -1.546875,-1.546875 -0.574219,0 -1.0078128,0.1523438 -1.4414066,0.3984375 l 0.058594,0.6328125 c 0.4453125,-0.328125 0.8789056,-0.4570312 1.3710936,-0.4570312 0.503906,0 0.808594,0.3984375 0.808594,0.984375 v 0.375 c -1.5351564,0.035156 -2.5546876,0.4335937 -2.5546876,1.1601562 0,0.42187503 0.28125,1.13671878 1.0664062,1.13671878 0.1757814,0 0.9492184,-0.01171875 1.5234374,-0.43359375 v 0.339843745 z m -0.75,-1.253906275 c 0,0.1875 0,0.41015628 -0.316407,0.59765628 -0.222656,0.140625 -0.527343,0.17578125 -0.703125,0.17578125 -0.457031,0 -0.8437496,-0.22265625 -0.8437496,-0.57421873 0,-0.6445313 1.7460936,-0.6679688 1.8632816,-0.6679688 z m 4.145507,-2.1796875 v -0.6445312 c -0.644531,0.011719 -1.242187,0.328125 -1.605468,0.8554687 v -0.8085937 h -0.667969 v 4.031249975 h 0.726562 V -1.9109219 c 0,-0.9375 0.726563,-1.5117187 1.546875,-1.5234375 z m 3.205079,3.19921878 -0.152344,-0.5625 c -0.234375,0.17578125 -0.550781,0.28125 -0.832031,0.28125 -0.351563,0 -0.46875,-0.3046875 -0.46875,-0.77343748 v -2.1328125 h 1.300781 v -0.5625 h -1.300781 v -1.1367188 h -0.65625 v 1.1367188 h -0.785157 v 0.5625 h 0.761719 v 2.296875 c 0,0.52734373 0.117188,1.21874998 0.761719,1.21874998 0.398437,0 0.867187,-0.0703125 1.371094,-0.328125 z m 0,0"
       style="fill:#000000;fill-opacity:1;fill-rule:nonzero;stroke:none"
       aria-label="Start"
       transform="matrix(1.3333333,0,0,1.3333333,28.257333,128.82133)" />
    <path
       id="path4"
       d="m 86.19084,-14.17339 h 53.85893 V 14.1734 H 86.19084 Z"
       style="fill:#ffc0cb;fill-opacity:1;fill-rule:nonzero;stroke:#ff0000;stroke-width:0.3985;stroke-linecap:butt;stroke-linejoin:miter;stroke-miterlimit:10;stroke-dasharray:none;stroke-opacity:1"
       transform="matrix(1.3333333,0,0,-1.3333333,11.869333,124.67333)" />
    <path
       id="path5"
       d="m 6.2816172,-3.0823047 c 0,-1.8984375 -1.3359375,-3.3398437 -2.8828125,-3.3398437 -1.546875,0 -2.88281251,1.4414062 -2.88281251,3.3398437 0,1.8632813 1.33593751,3.28125001 2.88281251,3.28125001 1.546875,0 2.8828125,-1.41796871 2.8828125,-3.28125001 z m -0.8554688,-0.140625 c 0,1.6875 -0.9609375,2.78906251 -2.0273437,2.78906251 -1.0664063,0 -2.0273438,-1.10156251 -2.0273438,-2.78906251 0,-1.640625 1.0078125,-2.5898437 2.0273438,-2.5898437 1.0195312,0 2.0273437,0.9609375 2.0273437,2.5898437 z m 5.8095706,1.21875 c 0,-1.0664062 -0.5625,-2.0742187 -1.4296877,-2.0742187 -0.2578125,0 -0.9257813,0.046875 -1.5351563,0.5273437 V -3.9846484 H 7.5443125 v 5.71875 h 0.75 v -2.14453129 c 0.328125,0.31640625 0.7851563,0.50390625 1.2421875,0.50390625 0.914063,0 1.699219,-0.87890625 1.699219,-2.09765626 z m -0.75,0.011719 c 0,0.8671875 -0.621094,1.51171871 -1.324219,1.51171871 -0.28125,0 -0.609375,-0.1171875 -0.8671875,-0.56250001 V -2.9768359 C 8.4115,-3.1408984 8.739625,-3.4690234 9.25525,-3.4690234 c 0.6679688,0 1.230469,0.6328125 1.230469,1.4765627 z m 5.173828,0.023437 c 0,-0.2695313 -0.01172,-0.9492188 -0.363281,-1.4882813 -0.375,-0.5625 -0.949219,-0.6796875 -1.289063,-0.6796875 -1.042969,0 -1.863281,0.9609375 -1.863281,2.109375 0,1.18359376 0.878906,2.12109376 1.992187,2.12109376 0.433594,0 0.949219,-0.10546875 1.476563,-0.43359375 l -0.05859,-0.62109375 c -0.5625,0.41015625 -1.089844,0.48046875 -1.40625,0.48046875 -0.738281,0 -1.3125,-0.65625001 -1.347656,-1.48828121 z m -0.539063,-0.5273438 h -2.261718 c 0.140625,-0.5742187 0.585937,-1.0546875 1.148437,-1.0546875 0.328125,0 0.9375,0.1523438 1.113281,1.0546875 z m 3.814454,-0.9375 v -0.6445312 c -0.644532,0.011719 -1.242188,0.328125 -1.605469,0.8554687 V -4.0315234 H 16.6615 v 4.0312499625 h 0.726563 V -1.9104297 c 0,-0.9375 0.726562,-1.5117187 1.546875,-1.5234378 z m 3.922851,3.4335937625 V -2.5901172 c 0,-0.890625 -0.65625,-1.546875 -1.546875,-1.546875 -0.574219,0 -1.007812,0.1523438 -1.441406,0.3984375 l 0.05859,0.6328125 c 0.445312,-0.328125 0.878906,-0.4570312 1.371093,-0.4570312 0.503907,0 0.808594,0.3984375 0.808594,0.984375 v 0.375 c -1.535156,0.035156 -2.554687,0.4335937 -2.554687,1.1601562 0,0.42187501 0.28125,1.13671876 1.066406,1.13671876 0.175781,0 0.949219,-0.01171875 1.523437,-0.43359375 V -2.734375e-4 Z M 22.107789,-1.25418 c 0,0.1875 0,0.41015626 -0.316406,0.59765626 -0.222656,0.140625 -0.527344,0.17578125 -0.703125,0.17578125 -0.457031,0 -0.84375,-0.22265625 -0.84375,-0.57421871 0,-0.6445313 1.746094,-0.6679688 1.863281,-0.6679688 z m 4.464844,1.01953126 -0.152344,-0.5625 c -0.234375,0.17578125 -0.550781,0.28125 -0.832031,0.28125 -0.351563,0 -0.46875,-0.3046875 -0.46875,-0.77343746 v -2.1328125 h 1.300781 v -0.5625 h -1.300781 v -1.1367188 h -0.65625 v 1.1367188 h -0.785156 v 0.5625 h 0.761718 v 2.296875 c 0,0.52734371 0.117188,1.21874996 0.761719,1.21874996 0.398438,0 0.867188,-0.0703125 1.371094,-0.328125 z m 1.708008,0.2343750025 V -3.9846484 H 27.565797 V -2.734375e-4 Z M 28.362672,-5.0510547 v -0.8554687 h -0.867188 v 0.8554687 z M 33.349,-1.9690234 c 0,-1.1835938 -0.890625,-2.1679688 -2.027344,-2.1679688 -1.113281,0 -2.027343,0.9726563 -2.027343,2.1679688 0,1.18359371 0.9375,2.06249996 2.027343,2.06249996 1.113282,0 2.027344,-0.90234375 2.027344,-2.06249996 z m -0.738281,-0.09375 c 0,1.0429687 -0.632813,1.54687496 -1.277344,1.54687496 -0.691406,0 -1.300781,-0.53906246 -1.300781,-1.54687496 0,-1.0429688 0.679687,-1.4882813 1.289062,-1.4882813 0.644532,0 1.289063,0.4570313 1.289063,1.4882813 z m 5.041992,2.0624999625 V -2.6604297 c 0,-0.6679687 -0.175781,-1.4179687 -1.253906,-1.4179687 -0.714844,0 -1.148438,0.4101562 -1.347657,0.6796875 v -0.6328125 h -0.691406 v 4.0312499625 h 0.738281 V -2.1916797 c 0,-0.5859375 0.234375,-1.3007812 0.914063,-1.3007812 0.902344,0 0.902344,0.6328125 0.902344,0.890625 v 2.6015624625 z m 7.640625,0 V -0.55105469 H 44.144898 V -6.0588672 h -0.1875 c -0.597656,0.5859375 -1.453125,0.5859375 -1.769531,0.5859375 v 0.5507813 c 0.246094,0 0.703125,0 1.195313,-0.2109375 v 4.58203121 h -1.148438 v 0.5507812525 z m 0,0"
       style="fill:#000000;fill-opacity:1;fill-rule:nonzero;stroke:none"
       aria-label="Operation1"
       transform="matrix(1.3333333,0,0,1.3333333,132.03467,127.79333)" />
    <path
       id="path6"
       d="m 182.57,-19.84276 h 60.67873 V 19.84276 H 182.57 Z"
       style="fill:#e6e6ff;fill-opacity:1;fill-rule:nonzero;stroke:#b49cde;stroke-width:0.3985;stroke-linecap:butt;stroke-linejoin:miter;stroke-miterlimit:10;stroke-dasharray:none;stroke-opacity:1"
       transform="matrix(1.3333333,0,0,-1.3333333,11.869333,124.67333)" />
    <path
       id="path7"
       d="m 6.2827031,-3.0815078 c 0,-1.8984375 -1.3359375,-3.3398438 -2.8828125,-3.3398438 -1.546875,0 -2.88281247,1.4414063 -2.88281247,3.3398438 0,1.8632812 1.33593747,3.28124999 2.88281247,3.28124999 1.546875,0 2.8828125,-1.41796879 2.8828125,-3.28124999 z m -0.8554687,-0.140625 c 0,1.6875 -0.9609375,2.78906249 -2.0273438,2.78906249 -1.0664062,0 -2.0273437,-1.10156249 -2.0273437,-2.78906249 0,-1.640625 1.0078125,-2.5898438 2.0273437,-2.5898438 1.0195313,0 2.0273438,0.9609375 2.0273438,2.5898438 z m 5.8066406,1.21875 c 0,-1.0664063 -0.5625,-2.0742188 -1.4296875,-2.0742188 -0.2578125,0 -0.9257812,0.046875 -1.5351562,0.5273438 V -3.9838516 H 7.5424688 v 5.71875 h 0.75 v -2.14453121 c 0.328125,0.31640625 0.7851562,0.50390625 1.2421875,0.50390625 0.9140627,0 1.6992187,-0.87890625 1.6992187,-2.09765624 z m -0.75,0.011719 c 0,0.8671875 -0.6210937,1.51171879 -1.3242187,1.51171879 -0.28125,0 -0.609375,-0.1171875 -0.8671875,-0.56249999 v -1.9335938 c 0.1171875,-0.1640625 0.4453125,-0.4921875 0.9609375,-0.4921875 0.6679687,0 1.2304687,0.6328125 1.2304687,1.4765625 z m 5.173828,0.023437 c 0,-0.2695312 -0.01172,-0.9492187 -0.363281,-1.4882812 -0.375,-0.5625 -0.949219,-0.6796875 -1.289063,-0.6796875 -1.042968,0 -1.863281,0.9609375 -1.863281,2.109375 0,1.18359374 0.878906,2.12109374 1.992188,2.12109374 0.433593,0 0.949218,-0.10546875 1.476562,-0.43359375 l -0.05859,-0.62109375 c -0.5625,0.41015625 -1.089843,0.48046875 -1.40625,0.48046875 -0.738281,0 -1.3125,-0.65624999 -1.347656,-1.48828129 z m -0.539062,-0.5273437 h -2.261719 c 0.140625,-0.5742188 0.585937,-1.0546875 1.148437,-1.0546875 0.328125,0 0.9375,0.1523437 1.113282,1.0546875 z m 3.817382,-0.9375 v -0.6445313 c -0.644531,0.011719 -1.242187,0.328125 -1.605468,0.8554688 V -4.0307266 H 16.662586 V 5.234375e-4 h 0.726562 V -1.9096328 c 0,-0.9375 0.726563,-1.5117188 1.546875,-1.5234377 z M 22.855945,5.234375e-4 V -2.5893203 c 0,-0.890625 -0.65625,-1.546875 -1.546875,-1.546875 -0.574218,0 -1.007812,0.1523437 -1.441406,0.3984375 l 0.05859,0.6328125 c 0.445312,-0.328125 0.878906,-0.4570313 1.371094,-0.4570313 0.503906,0 0.808593,0.3984375 0.808593,0.984375 v 0.375 c -1.535156,0.035156 -2.554687,0.4335938 -2.554687,1.1601563 0,0.42187499 0.28125,1.13671874 1.066406,1.13671874 0.175781,0 0.949219,-0.01171875 1.523438,-0.43359375 V 5.234375e-4 Z m -0.75,-1.2539062375 c 0,0.1875 0,0.41015624 -0.316406,0.59765624 -0.222656,0.140625 -0.527344,0.17578125 -0.703125,0.17578125 -0.457031,0 -0.84375,-0.22265625 -0.84375,-0.57421879 0,-0.6445312 1.746094,-0.6679687 1.863281,-0.6679687 z m 4.464844,1.01953124 -0.152344,-0.5625 c -0.234375,0.17578125 -0.550781,0.28125 -0.832031,0.28125 -0.351562,0 -0.46875,-0.3046875 -0.46875,-0.77343754 v -2.1328125 h 1.300781 v -0.5625 h -1.300781 v -1.1367187 h -0.65625 v 1.1367187 h -0.785156 v 0.5625 h 0.761719 v 2.296875 c 0,0.52734379 0.117187,1.21875004 0.761718,1.21875004 0.398438,0 0.867188,-0.0703125 1.371094,-0.328125 z M 28.281727,5.234375e-4 V -3.9838516 H 27.566883 V 5.234375e-4 Z M 28.363758,-5.0502578 V -5.9057266 H 27.49657 v 0.8554688 z m 4.983398,3.0820312 c 0,-1.1835937 -0.890625,-2.1679687 -2.027343,-2.1679687 -1.113282,0 -2.027344,0.9726562 -2.027344,2.1679687 0,1.18359379 0.9375,2.06250004 2.027344,2.06250004 1.113281,0 2.027343,-0.90234375 2.027343,-2.06250004 z m -0.738281,-0.09375 c 0,1.0429688 -0.632812,1.54687504 -1.277344,1.54687504 -0.691406,0 -1.300781,-0.53906254 -1.300781,-1.54687504 0,-1.0429687 0.679688,-1.4882812 1.289063,-1.4882812 0.644531,0 1.289062,0.4570312 1.289062,1.4882812 z M 37.653797,5.234375e-4 V -2.6596328 c 0,-0.6679688 -0.175781,-1.4179688 -1.253906,-1.4179688 -0.714844,0 -1.148438,0.4101563 -1.347657,0.6796875 V -4.0307266 H 34.360828 V 5.234375e-4 h 0.738281 V -2.1908828 c 0,-0.5859375 0.234375,-1.3007813 0.914063,-1.3007813 0.902344,0 0.902344,0.6328125 0.902344,0.890625 V 5.234375e-4 Z m 7.640625,0 V -0.55025781 H 44.145984 V -6.0580703 h -0.1875 c -0.597656,0.5859375 -1.453125,0.5859375 -1.769531,0.5859375 v 0.5507812 c 0.246094,0 0.703125,0 1.195313,-0.2109375 v 4.58203129 H 42.235828 V 5.234375e-4 Z m 0,0"
       style="fill:#000000;fill-opacity:1;fill-rule:nonzero;stroke:none"
       aria-label="Operation1"
       transform="matrix(1.3333333,0,0,1.3333333,265.084,121.58133)" />
    <path
       id="path8"
       d="m 5.1315156,-0.00144531 v -0.6796875 h -0.890625 l -2.53125,0.0117188 V -2.9311328 H 4.7447969 V -3.5170703 H 1.7096406 v -2.0742188 h 0.3398438 l 2.1914062,0.023437 h 0.7734375 v -0.632812 H 0.85417187 v 6.19921879 z m 4.6435547,0 -1.8398437,-2.05078129 1.6875,-1.9335937 H 8.8375703 L 7.6305391,-2.5209766 6.3649141,-3.9858203 H 5.5914766 l 1.7226562,1.9335937 -1.78125,2.05078129 h 0.7851563 l 1.3125,-1.67578129 1.359375,1.67578129 z M 13.612961,-1.9701953 c 0,-0.2695313 -0.01172,-0.9492188 -0.363281,-1.4882813 -0.375,-0.5625 -0.949219,-0.6796875 -1.289063,-0.6796875 -1.042969,0 -1.863281,0.9609375 -1.863281,2.109375 0,1.18359379 0.878906,2.12109379 1.992187,2.12109379 0.433594,0 0.949219,-0.10546875 1.476563,-0.43359375 l -0.05859,-0.62109375 c -0.5625,0.41015625 -1.089844,0.48046875 -1.40625,0.48046875 -0.738281,0 -1.3125,-0.65625004 -1.347656,-1.48828124 z M 13.073898,-2.4975391 H 10.81218 c 0.140625,-0.5742187 0.585937,-1.0546875 1.148437,-1.0546875 0.328125,0 0.9375,0.1523438 1.113281,1.0546875 z m 4.637696,2.16796879 -0.05859,-0.64453125 c -0.433594,0.3046875 -0.902344,0.45703125 -1.441406,0.45703125 -0.761719,0 -1.265625,-0.63281249 -1.265625,-1.48828129 0,-0.6796875 0.339843,-1.5234375 1.300781,-1.5234375 0.5625,0 0.855469,0.1171875 1.300781,0.421875 l 0.117188,-0.6328125 c -0.503907,-0.28125 -0.785157,-0.3984375 -1.429688,-0.3984375 -1.265625,0 -2.027344,1.078125 -2.027344,2.1445313 0,1.11328124 0.832032,2.08593749 1.992188,2.08593749 0.632812,0 1.101562,-0.1875 1.511719,-0.421875 z m 4.286133,0.328125 V -3.9858203 h -0.738282 v 2.5898437 c 0,0.72656254 -0.5625,0.96093754 -1.101562,0.96093754 -0.644531,0 -0.714844,-0.19921875 -0.714844,-0.58593754 v -2.9648437 h -0.738281 v 3.01171874 c 0,0.76171875 0.304687,1.06640625 0.9375,1.06640625 0.527344,0 1.21875,-0.15234375 1.640625,-0.52734375 v 0.43359375 z m 3.811523,-0.234375 -0.152344,-0.5625 c -0.234375,0.17578125 -0.550781,0.28125 -0.832031,0.28125 -0.351563,0 -0.46875,-0.3046875 -0.46875,-0.77343749 v -2.1328125 h 1.300781 v -0.5625 h -1.300781 v -1.1367188 h -0.65625 v 1.1367188 h -0.785156 v 0.5625 h 0.761718 v 2.296875 c 0,0.52734374 0.117188,1.21874999 0.761719,1.21874999 0.398438,0 0.867188,-0.0703125 1.371094,-0.328125 z m 4.086914,-1.73437499 c 0,-0.2695313 -0.01172,-0.9492188 -0.363281,-1.4882813 -0.375,-0.5625 -0.949219,-0.6796875 -1.289063,-0.6796875 -1.042968,0 -1.863281,0.9609375 -1.863281,2.109375 0,1.18359379 0.878906,2.12109379 1.992188,2.12109379 0.433593,0 0.949218,-0.10546875 1.476562,-0.43359375 l -0.05859,-0.62109375 c -0.5625,0.41015625 -1.089843,0.48046875 -1.40625,0.48046875 -0.738281,0 -1.3125,-0.65625004 -1.347656,-1.48828124 z m -0.539062,-0.5273438 h -2.261719 c 0.140625,-0.5742187 0.585937,-1.0546875 1.148437,-1.0546875 0.328125,0 0.9375,0.1523438 1.113282,1.0546875 z m 4.813476,2.49609379 V -6.2241016 h -0.714844 v 2.6367188 c -0.503906,-0.421875 -1.078125,-0.4921875 -1.371093,-0.4921875 -0.902344,0 -1.59375,0.9375 -1.59375,2.0859375 0,1.16015624 0.679687,2.08593749 1.558593,2.08593749 0.269532,0 0.84375,-0.05859375 1.371094,-0.5625 v 0.46875 z m -0.75,-1.26562499 c 0,0.1757812 0,0.1875 -0.09375,0.31640624 -0.246094,0.31640625 -0.550781,0.46875 -0.867187,0.46875 -0.585938,0 -1.230469,-0.421875 -1.230469,-1.50000004 0,-1.1484375 0.761719,-1.5117187 1.324219,-1.5117187 0.410156,0 0.703125,0.234375 0.867187,0.4570312 z m 0,0"
       style="fill:#000000;fill-opacity:1;fill-rule:nonzero;stroke:none"
       aria-label="Executed"
       transform="matrix(1.3333333,0,0,1.3333333,272.46267,136.19333)" />
    <path
       id="path9"
       d="m 285.76895,-14.17339 h 53.85893 V 14.1734 h -53.85893 z"
       style="fill:#ffc0cb;fill-opacity:1;fill-rule:nonzero;stroke:#ff0000;stroke-width:0.3985;stroke-linecap:butt;stroke-linejoin:miter;stroke-miterlimit:10;stroke-dasharray:none;stroke-opacity:1"
       transform="matrix(1.3333333,0,0,-1.3333333,11.869333,124.67333)" />
    <path
       id="path10"
       d="m 6.2798594,-3.0823047 c 0,-1.8984375 -1.3359375,-3.3398437 -2.8828125,-3.3398437 -1.546875,0 -2.88281252,1.4414062 -2.88281252,3.3398437 0,1.8632813 1.33593752,3.28125001 2.88281252,3.28125001 1.546875,0 2.8828125,-1.41796871 2.8828125,-3.28125001 z m -0.8554688,-0.140625 c 0,1.6875 -0.9609375,2.78906251 -2.0273437,2.78906251 -1.0664063,0 -2.0273438,-1.10156251 -2.0273438,-2.78906251 0,-1.640625 1.0078125,-2.5898437 2.0273438,-2.5898437 1.0195312,0 2.0273437,0.9609375 2.0273437,2.5898437 z m 5.8095704,1.21875 c 0,-1.0664062 -0.5625,-2.0742187 -1.4296876,-2.0742187 -0.2578125,0 -0.9257812,0.046875 -1.5351562,0.5273437 V -3.9846484 H 7.5425547 v 5.71875 h 0.75 v -2.14453129 c 0.328125,0.31640625 0.7851562,0.50390625 1.2421875,0.50390625 0.9140628,0 1.6992188,-0.87890625 1.6992188,-2.09765626 z m -0.75,0.011719 c 0,0.8671875 -0.6210938,1.51171871 -1.3242188,1.51171871 -0.28125,0 -0.609375,-0.1171875 -0.8671875,-0.56250001 v -1.9335937 c 0.1171875,-0.1640625 0.4453125,-0.4921875 0.9609375,-0.4921875 0.6679687,0 1.2304688,0.6328125 1.2304688,1.4765625 z m 5.173828,0.023437 c 0,-0.2695313 -0.01172,-0.9492188 -0.363281,-1.4882813 -0.375,-0.5625 -0.949219,-0.6796875 -1.289063,-0.6796875 -1.042968,0 -1.863281,0.9609375 -1.863281,2.109375 0,1.18359376 0.878906,2.12109376 1.992188,2.12109376 0.433593,0 0.949218,-0.10546875 1.476562,-0.43359375 l -0.05859,-0.62109375 c -0.5625,0.41015625 -1.089843,0.48046875 -1.40625,0.48046875 -0.738281,0 -1.3125,-0.65625001 -1.347656,-1.48828121 z m -0.539062,-0.5273438 h -2.261719 c 0.140625,-0.5742187 0.585937,-1.0546875 1.148437,-1.0546875 0.328125,0 0.9375,0.1523438 1.113282,1.0546875 z m 3.817382,-0.9375 v -0.6445312 c -0.644531,0.011719 -1.242187,0.328125 -1.605468,0.8554687 v -0.8085937 h -0.667969 v 4.0312499625 h 0.726562 V -1.9104297 c 0,-0.9375 0.726563,-1.5117187 1.546875,-1.5234378 z m 3.919922,3.4335937625 V -2.5901172 c 0,-0.890625 -0.65625,-1.546875 -1.546875,-1.546875 -0.574219,0 -1.007812,0.1523438 -1.441406,0.3984375 l 0.05859,0.6328125 c 0.445312,-0.328125 0.878906,-0.4570312 1.371093,-0.4570312 0.503907,0 0.808594,0.3984375 0.808594,0.984375 v 0.375 c -1.535156,0.035156 -2.554687,0.4335937 -2.554687,1.1601562 0,0.42187501 0.28125,1.13671876 1.066406,1.13671876 0.175781,0 0.949219,-0.01171875 1.523437,-0.43359375 V -2.734375e-4 Z M 22.106031,-1.25418 c 0,0.1875 0,0.41015626 -0.316406,0.59765626 -0.222656,0.140625 -0.527344,0.17578125 -0.703125,0.17578125 -0.457031,0 -0.84375,-0.22265625 -0.84375,-0.57421871 0,-0.6445313 1.746094,-0.6679688 1.863281,-0.6679688 z m 4.464844,1.01953126 -0.152344,-0.5625 c -0.234375,0.17578125 -0.550781,0.28125 -0.832031,0.28125 -0.351563,0 -0.46875,-0.3046875 -0.46875,-0.77343746 v -2.1328125 h 1.300781 v -0.5625 H 25.11775 V -5.1213672 H 24.4615 v 1.1367188 h -0.785156 v 0.5625 h 0.761718 v 2.296875 c 0,0.52734371 0.117188,1.21874996 0.761719,1.21874996 0.398438,0 0.867188,-0.0703125 1.371094,-0.3281253 z m 1.710937,0.2343750025 V -3.9846484 H 27.566969 V -2.734375e-4 Z M 28.363844,-5.0510547 v -0.8554687 h -0.867188 v 0.8554687 z m 4.983398,3.0820313 c 0,-1.1835938 -0.890625,-2.1679688 -2.027344,-2.1679688 -1.113281,0 -2.027343,0.9726563 -2.027343,2.1679688 0,1.18359371 0.9375,2.06249996 2.027343,2.06249996 1.113282,0 2.027344,-0.90234375 2.027344,-2.06249996 z m -0.738281,-0.09375 c 0,1.0429687 -0.632813,1.54687496 -1.277344,1.54687496 -0.691406,0 -1.300781,-0.53906246 -1.300781,-1.54687496 0,-1.0429688 0.679687,-1.4882813 1.289062,-1.4882813 0.644532,0 1.289063,0.4570313 1.289063,1.4882813 z m 5.044922,2.0624999625 V -2.6604297 c 0,-0.6679687 -0.175781,-1.4179687 -1.253906,-1.4179687 -0.714844,0 -1.148438,0.4101562 -1.347657,0.6796875 v -0.6328125 h -0.691406 v 4.0312499625 h 0.738281 V -2.1916797 c 0,-0.5859375 0.234375,-1.3007812 0.914063,-1.3007812 0.902344,0 0.902344,0.6328125 0.902344,0.890625 v 2.6015624625 z m 7.863281,0 V -0.66824219 h -1.675781 c -0.117188,0 -0.222656,0 -0.328125,0 h -0.984375 l 1.464844,-1.33593751 c 0.949218,-0.7617187 1.523437,-1.2539062 1.523437,-2.1210937 0,-1.03125 -0.738281,-1.9335938 -1.957031,-1.9335938 -0.949219,0 -1.511719,0.5507813 -1.792969,1.4296875 l 0.410156,0.5273438 c 0.234375,-1.0546875 0.703125,-1.3476563 1.253907,-1.3476563 0.796875,0 1.300781,0.609375 1.300781,1.3476563 0,0.8085937 -0.574219,1.3359375 -1.230469,1.921875 l -1.664062,1.57031246 v 0.6093750025 z m 0,0"
       style="fill:#000000;fill-opacity:1;fill-rule:nonzero;stroke:none"
       aria-label="Operation2"
       transform="matrix(1.3333333,0,0,1.3333333,398.13467,127.79333)" />
    <path
       id="path11"
       d="m 382.14812,-19.84276 h 60.67873 v 39.68552 h -60.67873 z"
       style="fill:#e6e6ff;fill-opacity:1;fill-rule:nonzero;stroke:#b49cde;stroke-width:0.3985;stroke-linecap:butt;stroke-linejoin:miter;stroke-miterlimit:10;stroke-dasharray:none;stroke-opacity:1"
       transform="matrix(1.3333333,0,0,-1.3333333,11.869333,124.67333)" />
    <path
       id="path12"
       d="m 6.2799453,-3.0815078 c 0,-1.8984375 -1.3359375,-3.3398438 -2.8828125,-3.3398438 -1.546875,0 -2.88281249,1.4414063 -2.88281249,3.3398438 0,1.8632812 1.33593749,3.28124999 2.88281249,3.28124999 1.546875,0 2.8828125,-1.41796879 2.8828125,-3.28124999 z m -0.8554687,-0.140625 c 0,1.6875 -0.9609375,2.78906249 -2.0273438,2.78906249 -1.0664062,0 -2.0273437,-1.10156249 -2.0273437,-2.78906249 0,-1.640625 1.0078125,-2.5898438 2.0273437,-2.5898438 1.0195313,0 2.0273438,0.9609375 2.0273438,2.5898438 z m 5.8095704,1.21875 c 0,-1.0664063 -0.5625,-2.0742188 -1.4296876,-2.0742188 -0.2578125,0 -0.9257813,0.046875 -1.5351563,0.5273438 V -3.9838516 H 7.5426406 v 5.71875 h 0.75 v -2.14453121 c 0.328125,0.31640625 0.7851563,0.50390625 1.2421875,0.50390625 0.9140629,0 1.6992189,-0.87890625 1.6992189,-2.09765624 z m -0.75,0.011719 c 0,0.8671875 -0.6210939,1.51171879 -1.3242189,1.51171879 -0.28125,0 -0.609375,-0.1171875 -0.8671875,-0.56249999 v -1.9335938 c 0.1171875,-0.1640625 0.4453125,-0.4921875 0.9609375,-0.4921875 0.6679688,0 1.2304689,0.6328125 1.2304689,1.4765625 z m 5.173828,0.023437 c 0,-0.2695312 -0.01172,-0.9492187 -0.363281,-1.4882812 -0.375,-0.5625 -0.949219,-0.6796875 -1.289063,-0.6796875 -1.042969,0 -1.863281,0.9609375 -1.863281,2.109375 0,1.18359374 0.878906,2.12109374 1.992187,2.12109374 0.433594,0 0.949219,-0.10546875 1.476563,-0.43359375 l -0.05859,-0.62109375 c -0.5625,0.41015625 -1.089844,0.48046875 -1.40625,0.48046875 -0.738281,0 -1.3125,-0.65624999 -1.347656,-1.48828129 z m -0.539063,-0.5273437 h -2.261718 c 0.140625,-0.5742188 0.585937,-1.0546875 1.148437,-1.0546875 0.328125,0 0.9375,0.1523437 1.113281,1.0546875 z m 3.817383,-0.9375 v -0.6445313 c -0.644531,0.011719 -1.242187,0.328125 -1.605468,0.8554688 V -4.0307266 H 16.662758 V 5.234375e-4 H 17.38932 V -1.9096328 c 0,-0.9375 0.726563,-1.5117188 1.546875,-1.5234377 z M 22.856117,5.234375e-4 V -2.5893203 c 0,-0.890625 -0.65625,-1.546875 -1.546875,-1.546875 -0.574219,0 -1.007812,0.1523437 -1.441406,0.3984375 l 0.05859,0.6328125 c 0.445312,-0.328125 0.878906,-0.4570313 1.371093,-0.4570313 0.503907,0 0.808594,0.3984375 0.808594,0.984375 v 0.375 c -1.535156,0.035156 -2.554687,0.4335938 -2.554687,1.1601563 0,0.42187499 0.28125,1.13671874 1.066406,1.13671874 0.175781,0 0.949219,-0.01171875 1.523437,-0.43359375 V 5.234375e-4 Z m -0.75,-1.2539062375 c 0,0.1875 0,0.41015624 -0.316406,0.59765624 -0.222656,0.140625 -0.527344,0.17578125 -0.703125,0.17578125 -0.457031,0 -0.84375,-0.22265625 -0.84375,-0.57421879 0,-0.6445312 1.746094,-0.6679687 1.863281,-0.6679687 z m 4.464844,1.01953124 -0.152344,-0.5625 c -0.234375,0.17578125 -0.550781,0.28125 -0.832031,0.28125 -0.351563,0 -0.46875,-0.3046875 -0.46875,-0.77343754 v -2.1328125 h 1.300781 v -0.5625 h -1.300781 v -1.1367187 h -0.65625 v 1.1367187 H 23.67643 v 0.5625 h 0.761718 v 2.296875 c 0,0.52734379 0.117188,1.21875004 0.761719,1.21875004 0.398438,0 0.867188,-0.0703125 1.371094,-0.328125 z M 28.281898,5.234375e-4 V -3.9838516 H 27.567055 V 5.234375e-4 Z M 28.36393,-5.0502578 v -0.8554688 h -0.867188 v 0.8554688 z m 4.983398,3.0820312 c 0,-1.1835937 -0.890625,-2.1679687 -2.027344,-2.1679687 -1.113281,0 -2.027343,0.9726562 -2.027343,2.1679687 0,1.18359379 0.9375,2.06250004 2.027343,2.06250004 1.113282,0 2.027344,-0.90234375 2.027344,-2.06250004 z m -0.738281,-0.09375 c 0,1.0429688 -0.632813,1.54687504 -1.277344,1.54687504 -0.691406,0 -1.300781,-0.53906254 -1.300781,-1.54687504 0,-1.0429687 0.679687,-1.4882812 1.289062,-1.4882812 0.644532,0 1.289063,0.4570312 1.289063,1.4882812 z M 37.651039,5.234375e-4 V -2.6596328 c 0,-0.6679688 -0.175781,-1.4179688 -1.253906,-1.4179688 -0.714844,0 -1.148438,0.4101563 -1.347656,0.6796875 V -4.0307266 H 34.35807 V 5.234375e-4 h 0.738282 V -2.1908828 c 0,-0.5859375 0.234375,-1.3007813 0.914062,-1.3007813 0.902344,0 0.902344,0.6328125 0.902344,0.890625 V 5.234375e-4 Z m 7.866211,0 V -0.66744531 h -1.675781 c -0.117188,0 -0.222657,0 -0.328125,0 h -0.984375 l 1.464843,-1.33593749 c 0.949219,-0.7617188 1.523438,-1.2539063 1.523438,-2.1210938 0,-1.03125 -0.738281,-1.9335937 -1.957031,-1.9335937 -0.949219,0 -1.511719,0.5507812 -1.792969,1.4296875 l 0.410156,0.5273437 c 0.234375,-1.0546875 0.703125,-1.3476562 1.253906,-1.3476562 0.796875,0 1.300782,0.609375 1.300782,1.3476562 0,0.8085938 -0.574219,1.3359375 -1.230469,1.921875 l -1.664063,1.57031254 V 5.234375e-4 Z m 0,0"
       style="fill:#000000;fill-opacity:1;fill-rule:nonzero;stroke:none"
       aria-label="Operation2"
       transform="matrix(1.3333333,0,0,1.3333333,531.18533,121.58133)" />
    <path
       id="path13"
       d="m 5.1316875,-0.00144531 v -0.6796875 h -0.890625 l -2.53125,0.0117188 V -2.9311328 H 4.7449688 V -3.5170703 H 1.7098125 v -2.0742188 h 0.3398438 l 2.1914062,0.023437 H 5.0145 v -0.632812 H 0.85434375 v 6.19921879 z m 4.6435547,0 -1.8398438,-2.05078129 1.6875,-1.9335937 H 8.8377422 L 7.6307109,-2.5209766 6.3650859,-3.9858203 H 5.5916484 l 1.7226563,1.9335937 -1.78125,2.05078129 h 0.7851562 l 1.3125,-1.67578129 1.359375,1.67578129 z M 13.613133,-1.9701953 c 0,-0.2695313 -0.01172,-0.9492188 -0.363281,-1.4882813 -0.375,-0.5625 -0.949219,-0.6796875 -1.289063,-0.6796875 -1.042969,0 -1.863281,0.9609375 -1.863281,2.109375 0,1.18359379 0.878906,2.12109379 1.992187,2.12109379 0.433594,0 0.949219,-0.10546875 1.476563,-0.43359375 l -0.05859,-0.62109375 c -0.5625,0.41015625 -1.089844,0.48046875 -1.40625,0.48046875 -0.738281,0 -1.3125,-0.65625004 -1.347656,-1.48828124 z M 13.07407,-2.4975391 h -2.261718 c 0.140625,-0.5742187 0.585937,-1.0546875 1.148437,-1.0546875 0.328125,0 0.9375,0.1523438 1.113281,1.0546875 z m 4.637696,2.16796879 -0.05859,-0.64453125 c -0.433594,0.3046875 -0.902344,0.45703125 -1.441406,0.45703125 -0.761719,0 -1.265625,-0.63281249 -1.265625,-1.48828129 0,-0.6796875 0.339843,-1.5234375 1.300781,-1.5234375 0.5625,0 0.855469,0.1171875 1.300781,0.421875 l 0.117188,-0.6328125 c -0.503907,-0.28125 -0.785157,-0.3984375 -1.429688,-0.3984375 -1.265625,0 -2.027344,1.078125 -2.027344,2.1445313 0,1.11328124 0.832032,2.08593749 1.992188,2.08593749 0.632812,0 1.101562,-0.1875 1.511719,-0.421875 z m 4.286132,0.328125 V -3.9858203 h -0.738281 v 2.5898437 c 0,0.72656254 -0.5625,0.96093754 -1.101562,0.96093754 -0.644532,0 -0.714844,-0.19921875 -0.714844,-0.58593754 V -3.9858203 H 18.70493 v 3.01171874 c 0,0.76171875 0.304687,1.06640625 0.9375,1.06640625 0.527343,0 1.21875,-0.15234375 1.640625,-0.52734375 v 0.43359375 z m 3.811524,-0.234375 -0.152344,-0.5625 c -0.234375,0.17578125 -0.550781,0.28125 -0.832031,0.28125 -0.351563,0 -0.46875,-0.3046875 -0.46875,-0.77343749 v -2.1328125 h 1.300781 v -0.5625 h -1.300781 v -1.1367188 h -0.65625 v 1.1367188 h -0.785156 v 0.5625 h 0.761718 v 2.296875 c 0,0.52734374 0.117188,1.21874999 0.761719,1.21874999 0.398438,0 0.867188,-0.0703125 1.371094,-0.328125 z m 4.086914,-1.73437499 c 0,-0.2695313 -0.01172,-0.9492188 -0.363281,-1.4882813 -0.375,-0.5625 -0.949219,-0.6796875 -1.289063,-0.6796875 -1.042969,0 -1.863281,0.9609375 -1.863281,2.109375 0,1.18359379 0.878906,2.12109379 1.992187,2.12109379 0.433594,0 0.949219,-0.10546875 1.476563,-0.43359375 l -0.05859,-0.62109375 c -0.5625,0.41015625 -1.089844,0.48046875 -1.40625,0.48046875 -0.738281,0 -1.3125,-0.65625004 -1.347656,-1.48828124 z m -0.539063,-0.5273438 h -2.261718 c 0.140625,-0.5742187 0.585937,-1.0546875 1.148437,-1.0546875 0.328125,0 0.9375,0.1523438 1.113281,1.0546875 z m 4.813477,2.49609379 V -6.2241016 h -0.714844 v 2.6367188 c -0.503906,-0.421875 -1.078125,-0.4921875 -1.371093,-0.4921875 -0.902344,0 -1.59375,0.9375 -1.59375,2.0859375 0,1.16015624 0.679687,2.08593749 1.558593,2.08593749 0.269532,0 0.84375,-0.05859375 1.371094,-0.5625 v 0.46875 z m -0.75,-1.26562499 c 0,0.1757812 0,0.1875 -0.09375,0.31640624 -0.246094,0.31640625 -0.550781,0.46875 -0.867187,0.46875 -0.585938,0 -1.230469,-0.421875 -1.230469,-1.50000004 0,-1.1484375 0.761719,-1.5117187 1.324219,-1.5117187 0.410156,0 0.703125,0.234375 0.867187,0.4570312 z m 0,0"
       style="fill:#000000;fill-opacity:1;fill-rule:nonzero;stroke:none"
       aria-label="Executed"
       transform="matrix(1.3333333,0,0,1.3333333,538.564,136.19333)" />
    <path
       id="path14"
       d="m 485.34706,-14.17339 h 43.67062 V 14.1734 h -43.67062 z"
       style="fill:#e6e6ff;fill-opacity:1;fill-rule:nonzero;stroke:#b49cde;stroke-width:0.3985;stroke-linecap:butt;stroke-linejoin:miter;stroke-miterlimit:10;stroke-dasharray:none;stroke-opacity:1"
       transform="matrix(1.3333333,0,0,-1.3333333,11.869333,124.67333)" />
    <path
       id="path15"
       d="m 5.1316172,0.00135938 v -0.6796875 h -0.890625 l -2.53125,0.0117188 V -2.9283281 H 4.7448984 V -3.5142656 H 1.7097422 v -2.0742188 h 0.3398437 l 2.1914063,0.023437 h 0.7734375 v -0.632812 H 0.85427344 v 6.19921878 z m 4.4208984,0 V -2.6587969 c 0,-0.6679687 -0.1757812,-1.4179687 -1.2539062,-1.4179687 -0.7148438,0 -1.1484375,0.4101562 -1.3476563,0.6796875 V -4.0298906 H 6.2595469 V 0.00135938 H 6.9978281 V -2.1900469 c 0,-0.5859375 0.234375,-1.3007812 0.9140625,-1.3007812 0.9023438,0 0.9023438,0.6328125 0.9023438,0.890625 v 2.60156248 z m 4.7490234,0 V -6.2212969 h -0.714844 v 2.6367188 c -0.503906,-0.421875 -1.078125,-0.4921875 -1.371093,-0.4921875 -0.902344,0 -1.59375,0.9375 -1.59375,2.0859375 0,1.16015623 0.679687,2.08593748 1.558593,2.08593748 0.269532,0 0.84375,-0.05859375 1.371094,-0.5625 v 0.46875 z m -0.75,-1.26562498 c 0,0.1757812 0,0.1875 -0.09375,0.31640623 -0.246094,0.31640625 -0.550781,0.46875 -0.867187,0.46875 -0.585938,0 -1.230469,-0.421875 -1.230469,-1.50000003 0,-1.1484375 0.761719,-1.5117187 1.324219,-1.5117187 0.410156,0 0.703125,0.234375 0.867187,0.4570312 z m 0,0"
       style="fill:#000000;fill-opacity:1;fill-rule:nonzero;stroke:none"
       aria-label="End"
       transform="matrix(1.3333333,0,0,1.3333333,678.068,128.756)" />
    <path
       id="path16"
       d="M 43.67062,0 H 81.52837"
       style="fill:none;stroke:#000000;stroke-width:0.79701;stroke-linecap:butt;stroke-linejoin:miter;stroke-miterlimit:10;stroke-dasharray:none;stroke-opacity:1"
       transform="matrix(1.3333333,0,0,-1.3333333,11.869333,124.67333)" />
    <path
       id="path17"
       d="M 4.66248,0 C 3.28098,0.25902 1.0361,1.0361 -0.51805,1.94269 V -1.94269 C 1.0361,-1.0361 3.28098,-0.25902 4.66248,0"
       style="fill:#000000;fill-opacity:1;fill-rule:nonzero;stroke:none"
       transform="matrix(1.3333333,0,0,-1.3333333,120.57383,124.67333)" />
    <path
       id="path18"
       d="m 140.04979,0 h 37.85774"
       style="fill:none;stroke:#000000;stroke-width:0.79701;stroke-linecap:butt;stroke-linejoin:miter;stroke-miterlimit:10;stroke-dasharray:none;stroke-opacity:1"
       transform="matrix(1.3333333,0,0,-1.3333333,11.869333,124.67333)" />
    <path
       id="path19"
       d="M 4.66248,0 C 3.28098,0.25902 1.0361,1.0361 -0.51805,1.94269 V -1.94269 C 1.0361,-1.0361 3.28098,-0.25902 4.66248,0"
       style="fill:#000000;fill-opacity:1;fill-rule:nonzero;stroke:none"
       transform="matrix(1.3333333,0,0,-1.3333333,249.07937,124.67333)" />
    <path
       id="path20"
       d="m 243.24873,0 h 37.85775"
       style="fill:none;stroke:#000000;stroke-width:0.79701;stroke-linecap:butt;stroke-linejoin:miter;stroke-miterlimit:10;stroke-dasharray:none;stroke-opacity:1"
       transform="matrix(1.3333333,0,0,-1.3333333,11.869333,124.67333)" />
    <path
       id="path21"
       d="M 4.66248,0 C 3.28098,0.25902 1.0361,1.0361 -0.51805,1.94269 V -1.94269 C 1.0361,-1.0361 3.28098,-0.25902 4.66248,0"
       style="fill:#000000;fill-opacity:1;fill-rule:nonzero;stroke:none"
       transform="matrix(1.3333333,0,0,-1.3333333,386.67797,124.67333)" />
    <path
       id="path22"
       d="m 339.6279,0 h 37.85774"
       style="fill:none;stroke:#000000;stroke-width:0.79701;stroke-linecap:butt;stroke-linejoin:miter;stroke-miterlimit:10;stroke-dasharray:none;stroke-opacity:1"
       transform="matrix(1.3333333,0,0,-1.3333333,11.869333,124.67333)" />
    <path
       id="path23"
       d="M 4.66248,0 C 3.28098,0.25902 1.0361,1.0361 -0.51805,1.94269 V -1.94269 C 1.0361,-1.0361 3.28098,-0.25902 4.66248,0"
       style="fill:#000000;fill-opacity:1;fill-rule:nonzero;stroke:none"
       transform="matrix(1.3333333,0,0,-1.3333333,515.18352,124.67333)" />
    <path
       id="path24"
       d="m 442.82684,0 h 37.85775"
       style="fill:none;stroke:#000000;stroke-width:0.79701;stroke-linecap:butt;stroke-linejoin:miter;stroke-miterlimit:10;stroke-dasharray:none;stroke-opacity:1"
       transform="matrix(1.3333333,0,0,-1.3333333,11.869333,124.67333)" />
    <path
       id="path25"
       d="M 4.66248,0 C 3.28098,0.25902 1.0361,1.0361 -0.51805,1.94269 V -1.94269 C 1.0361,-1.0361 3.28098,-0.25902 4.66248,0"
       style="fill:#000000;fill-opacity:1;fill-rule:nonzero;stroke:none"
       transform="matrix(1.3333333,0,0,-1.3333333,652.78212,124.67333)" />
    <path
       id="path26"
       d="M 64.93073,0 V 42.52022"
       style="fill:none;stroke:#000000;stroke-width:0.79701;stroke-linecap:butt;stroke-linejoin:miter;stroke-miterlimit:10;stroke-dasharray:none;stroke-opacity:1"
       transform="matrix(1.3333333,0,0,-1.3333333,11.869333,124.67333)" />
    <path
       id="path27"
       d="m 43.97206,30.8887 h 41.91731 v 23.263 H 43.97206 Z"
       style="fill:#d9d9d9;fill-opacity:1;fill-rule:nonzero;stroke:none"
       transform="matrix(1.3333333,0,0,-1.3333333,11.869333,124.67333)" />
    <path
       id="path28"
       d="m 5.6353359,-2.7176406 c 0,-1.5585938 -1.171875,-2.8125 -2.5898437,-2.8125 H 0.78377344 V 0.00110938 H 3.0454922 c 1.4296875,0 2.5898437,-1.20703128 2.5898437,-2.71874998 z m -0.7851562,-0.011719 c 0,1.4882813 -0.9726563,2.26171878 -2.0273438,2.26171878 H 1.5572109 V -5.0613906 h 1.265625 c 1.1015625,0 2.0273438,0.8671875 2.0273438,2.332031 z m 4.7666015,0.984375 c 0,-0.3632812 -0.035156,-0.9023437 -0.3515625,-1.359375 -0.28125,-0.3984375 -0.7617187,-0.5507812 -1.1484375,-0.5507812 -0.9726562,0 -1.7226562,0.8554687 -1.7226562,1.8632812 0,1.01953128 0.796875,1.87500003 1.8515625,1.87500003 0.4570312,0 0.9375,-0.140625 1.3359375,-0.38671875 l -0.046875,-0.5625 c -0.4453125,0.31640625 -0.9492188,0.421875 -1.2890625,0.421875 -0.6914063,0 -1.21875,-0.56249998 -1.2421875,-1.30078128 z M 9.1363125,-2.2254531 H 7.0620937 c 0.1875,-0.6328125 0.65625,-0.9023438 1.0546875,-0.9023438 0.3515625,0 0.8671875,0.1640625 1.0195313,0.9023438 z m 4.6054685,-2.5898438 v -0.7265625 h -0.714844 v 0.7265625 z m -0.02344,4.81640628 V -3.5379531 H 13.050375 V 0.00110938 Z M 12.370687,-3.0340469 v -0.5039062 h -1.007812 v -0.9257813 c 0,-0.515625 0.304687,-0.6210937 0.492187,-0.6210937 0.140625,0 0.339844,0.035156 0.515625,0.1523437 v -0.5976562 c -0.02344,-0.011719 -0.246093,-0.082031 -0.515625,-0.082031 -0.609375,0 -1.136718,0.5507813 -1.136718,1.3710938 v 0.703125 h -0.609375 v 0.5039062 h 0.609375 v 3.03515628 h 0.667968 V -3.0340469 Z m 5.742188,3.03515628 V -2.3543594 c 0,-0.6210937 -0.175781,-1.265625 -1.160156,-1.265625 -0.457032,0 -0.890625,0.1875 -1.242188,0.609375 V -3.5965469 H 15.066 v 3.59765628 h 0.703125 V -1.9324844 c 0,-0.5273437 0.222656,-1.1601562 0.832031,-1.1601562 0.820313,0 0.820313,0.5625 0.820313,0.7851562 v 2.30859378 z m 4.177734,-1.74609378 c 0,-0.3632812 -0.03516,-0.9023437 -0.351562,-1.359375 -0.28125,-0.3984375 -0.761719,-0.5507812 -1.148438,-0.5507812 -0.972656,0 -1.722656,0.8554687 -1.722656,1.8632812 0,1.01953128 0.796875,1.87500003 1.851563,1.87500003 0.457031,0 0.9375,-0.140625 1.335937,-0.38671875 l -0.04687,-0.5625 c -0.445312,0.31640625 -0.949219,0.421875 -1.289062,0.421875 -0.691407,0 -1.21875,-0.56249998 -1.242188,-1.30078128 z m -0.480468,-0.4804687 h -2.074219 c 0.1875,-0.6328125 0.65625,-0.9023438 1.054687,-0.9023438 0.351563,0 0.867188,0.1640625 1.019532,0.9023438 z m 0,0"
       style="fill:#000000;fill-opacity:1;fill-rule:nonzero;stroke:none"
       aria-label="Defne"
       transform="matrix(1.3333333,0,0,1.3333333,83.412,64.381333)" />
    <path
       id="path29"
       d="m 5.7776797,-2.7421875 c 0,-1.6523437 -1.2070313,-2.953125 -2.6484375,-2.953125 -1.453125,0 -2.66015626,1.3007813 -2.66015626,2.953125 0,1.6523438 1.23046876,2.90625 2.66015626,2.90625 1.4296875,0 2.6484375,-1.265625 2.6484375,-2.90625 z M 4.9690859,-2.8710937 c 0,1.5117187 -0.8789062,2.4726562 -1.8398437,2.4726562 -0.9726563,0 -1.8515625,-0.9609375 -1.8515625,-2.4726562 0,-1.40625 0.890625,-2.2734375 1.8515625,-2.2734375 0.9492187,0 1.8398437,0.8671875 1.8398437,2.2734375 z M 10.333344,-1.78125 c 0,-0.9492187 -0.527344,-1.8398437 -1.3125003,-1.8398437 -0.3632812,0 -0.9609375,0.1054687 -1.4179687,0.46875 V -3.5390625 H 6.9349062 V 1.546875 H 7.6263125 V -0.375 c 0.421875,0.38671875 0.8789062,0.45703125 1.1484375,0.45703125 0.84375,0 1.558594,-0.80859375 1.558594,-1.86328125 z m -0.6914065,0 c 0,0.796875 -0.5976563,1.3359375 -1.21875,1.3359375 -0.1171875,0 -0.3164063,-0.0117188 -0.5273438,-0.1875 C 7.6614687,-0.80859375 7.6263125,-0.9375 7.6263125,-1.078125 v -1.5703125 c 0.1875,-0.2226562 0.4921875,-0.421875 0.8789062,-0.421875 0.6328125,0 1.1367188,0.5976563 1.1367188,1.2890625 z m 4.7343745,0.035156 c 0,-0.3632813 -0.03516,-0.9023438 -0.351562,-1.359375 -0.28125,-0.3984372 -0.761719,-0.550781 -1.148438,-0.550781 -0.972656,0 -1.722656,0.8554688 -1.722656,1.8632813 0,1.0195312 0.796875,1.87499995 1.851563,1.87499995 0.457031,0 0.9375,-0.140625 1.335937,-0.38671875 l -0.04687,-0.5625 c -0.445312,0.31640625 -0.949219,0.421875 -1.289062,0.421875 -0.691407,0 -1.21875,-0.5625 -1.242188,-1.3007812 z m -0.480468,-0.4804688 h -2.074219 c 0.1875,-0.6328125 0.65625,-0.9023437 1.054687,-0.9023437 0.351563,0 0.867188,0.1640625 1.019532,0.9023437 z m 3.503906,-0.796875 V -3.6210937 C 16.731781,-3.609375 16.239594,-3.28125 15.923187,-2.859375 V -3.5976562 H 15.313812 V 0 h 0.667969 v -1.6992187 c 0,-0.8554688 0.714844,-1.3242188 1.417969,-1.3242191 z M 20.994477,0 v -2.296875 c 0,-0.8085937 -0.621094,-1.359375 -1.40625,-1.359375 -0.503907,0 -0.878907,0.1054688 -1.324219,0.3398438 l 0.04687,0.5859375 c 0.257812,-0.1757813 0.644531,-0.421875 1.277344,-0.421875 0.351562,0 0.714843,0.2695312 0.714843,0.8671875 V -1.96875 c -1.171875,0.035156 -2.34375,0.2929688 -2.34375,1.03125 0,0.3984375 0.28125,1.01953125 0.972657,1.01953125 0.351562,0 0.972656,-0.0703125 1.394531,-0.38671875 V 0 Z M 20.30307,-1.1367187 c 0,0.16406245 0,0.37499995 -0.269531,0.53906245 -0.257812,0.140625 -0.574219,0.15234375 -0.65625,0.15234375 -0.445312,0 -0.773437,-0.19921875 -0.773437,-0.50390625 0,-0.50390625 1.347656,-0.56249995 1.699218,-0.57421875 z m 4.113282,0.9257812 -0.140625,-0.515625 c -0.257813,0.1875 -0.539063,0.2578125 -0.761719,0.2578125 -0.339844,0 -0.421875,-0.328125 -0.421875,-0.6914062 v -1.875 h 1.171875 V -3.5390625 H 23.092133 V -4.546875 h -0.621094 v 1.0078125 h -0.714844 v 0.5039063 h 0.691407 v 2.015625 c 0,0.53906245 0.140625,1.10156245 0.714843,1.10156245 0.574219,0 1.007813,-0.1875 1.253907,-0.29296875 z M 25.986664,0 V -3.5390625 H 25.318695 V 0 Z m 0.07031,-4.4648437 v -0.796875 h -0.796875 v 0.796875 z m 4.596679,2.71875 c 0,-1.0546875 -0.832031,-1.9101563 -1.875,-1.9101563 -1.03125,0 -1.875,0.8671875 -1.875,1.9101563 0,1.00781245 0.84375,1.82812495 1.875,1.82812495 1.042969,0 1.875,-0.8203125 1.875,-1.82812495 z M 29.96225,-1.828125 c 0,0.90234375 -0.5625,1.359375 -1.183594,1.359375 -0.632812,0 -1.171875,-0.46875 -1.171875,-1.359375 0,-0.9023437 0.585938,-1.3007812 1.171875,-1.3007812 0.597656,0 1.183594,0.4101562 1.183594,1.3007812 z M 34.602875,0 v -2.3554687 c 0,-0.6210938 -0.175781,-1.265625 -1.160156,-1.265625 -0.457032,0 -0.890625,0.1875 -1.242188,0.609375 V -3.5976562 H 31.556 V 0 h 0.703125 v -1.9335937 c 0,-0.5273438 0.222656,-1.1601563 0.832031,-1.1601563 0.820313,0 0.820313,0.5625 0.820313,0.7851563 V 0 Z m 0,0"
       style="fill:#000000;fill-opacity:1;fill-rule:nonzero;stroke:none"
       aria-label="Operation"
       transform="matrix(1.3333333,0,0,1.3333333,74.925333,77)" />
    <path
       id="path30"
       d="M 161.30989,0 V 42.52022"
       style="fill:none;stroke:#000000;stroke-width:0.79701;stroke-linecap:butt;stroke-linejoin:miter;stroke-miterlimit:10;stroke-dasharray:none;stroke-opacity:1"
       transform="matrix(1.3333333,0,0,-1.3333333,11.869333,124.67333)" />
    <path
       id="path31"
       d="m 140.35123,30.94052 h 41.91731 V 54.0999 h -41.91731 z"
       style="fill:#d9d9d9;fill-opacity:1;fill-rule:nonzero;stroke:none"
       transform="matrix(1.3333333,0,0,-1.3333333,11.869333,124.67333)" />
    <path
       id="path32"
       d="M 4.7220781,3.75e-4 V -0.62071875 H 3.9955156 L 1.9916094,-0.609 H 1.5814531 V -2.6011875 H 4.3587969 V -3.1285312 H 1.5814531 v -1.828125 h 1.1601563 c 0.09375,0 0.1875,0.011719 0.28125,0.011719 h 1.5703125 v -0.5625 H 0.77285937 V 3.75e-4 Z m 4.256836,0 -1.6992188,-1.828125 1.546875,-1.7109375 h -0.703125 l -1.125,1.3125 -1.1601562,-1.3125 H 5.1234453 l 1.59375,1.7109375 -1.640625,1.828125 h 0.7148438 l 1.2070312,-1.5 1.2539063,1.5 z M 12.48575,-1.7457187 c 0,-0.3632813 -0.03516,-0.9023438 -0.351563,-1.359375 -0.28125,-0.3984375 -0.761718,-0.5507813 -1.148437,-0.5507813 -0.972656,0 -1.7226563,0.8554688 -1.7226563,1.8632813 0,1.0195312 0.7968753,1.87499995 1.8515623,1.87499995 0.457031,0 0.9375,-0.140625 1.335938,-0.38671875 l -0.04687,-0.5625 c -0.445313,0.31640625 -0.949219,0.421875 -1.289063,0.421875 -0.691406,0 -1.2187498,-0.5625 -1.2421873,-1.3007812 z M 12.005281,-2.2261875 H 9.9310625 C 10.118562,-2.859 10.587312,-3.1285312 10.98575,-3.1285312 c 0.351562,0 0.867187,0.1640625 1.019531,0.9023437 z m 4.253906,1.9453125 -0.04687,-0.5859375 C 15.813875,-0.609 15.380281,-0.468375 14.888094,-0.468375 c -0.738282,0 -1.160157,-0.5859375 -1.160157,-1.3125 0,-0.609375 0.316407,-1.3242187 1.183594,-1.3242187 0.539063,0 0.796875,0.1054687 1.207031,0.3632812 l 0.09375,-0.5742187 c -0.46875,-0.234375 -0.679687,-0.3398438 -1.300781,-0.3398438 -1.195312,0 -1.886719,0.9609375 -1.886719,1.8867188 0,0.9726562 0.773438,1.85156245 1.851563,1.85156245 0.5625,0 1.042969,-0.1640625 1.382812,-0.36328125 z m 3.949219,0.28125 V -3.5386875 H 19.517 v 2.3085938 c 0,0.6445312 -0.539063,0.84374995 -1.007813,0.84374995 -0.585937,0 -0.644531,-0.1640625 -0.644531,-0.52734375 v -2.625 h -0.703125 v 2.671875 c 0,0.703125 0.316406,0.94921875 0.878906,0.94921875 0.316407,0 1.019532,-0.0703125 1.5,-0.4453125 V 3.75e-4 Z m 3.498047,-0.2109375 -0.140625,-0.515625 c -0.257812,0.1875 -0.539062,0.2578125 -0.761719,0.2578125 -0.339843,0 -0.421875,-0.328125 -0.421875,-0.6914062 v -1.875 h 1.171875 V -3.5386875 H 22.382234 V -4.5465 h -0.621093 v 1.0078125 h -0.714844 v 0.5039063 h 0.691406 v 2.015625 c 0,0.53906245 0.140625,1.10156245 0.714844,1.10156245 0.574219,0 1.007812,-0.1875 1.253906,-0.29296875 z m 3.738281,-1.5351562 c 0,-0.3632813 -0.03516,-0.9023438 -0.351562,-1.359375 -0.28125,-0.3984375 -0.761719,-0.5507813 -1.148438,-0.5507813 -0.972656,0 -1.722656,0.8554688 -1.722656,1.8632813 0,1.0195312 0.796875,1.87499995 1.851563,1.87499995 0.457031,0 0.9375,-0.140625 1.335937,-0.38671875 l -0.04687,-0.5625 c -0.445312,0.31640625 -0.949219,0.421875 -1.289062,0.421875 -0.691407,0 -1.21875,-0.5625 -1.242188,-1.3007812 z m -0.480468,-0.4804688 h -2.074219 c 0.1875,-0.6328125 0.65625,-0.9023437 1.054687,-0.9023437 0.351563,0 0.867188,0.1640625 1.019532,0.9023437 z m 0,0"
       style="fill:#000000;fill-opacity:1;fill-rule:nonzero;stroke:none"
       aria-label="Execute"
       transform="matrix(1.3333333,0,0,1.3333333,208.47733,64.312)" />
    <path
       id="path33"
       d="m 5.7776094,-2.7429219 c 0,-1.6523437 -1.2070313,-2.953125 -2.6484375,-2.953125 -1.453125,0 -2.66015628,1.3007813 -2.66015628,2.953125 0,1.6523438 1.23046878,2.90625002 2.66015628,2.90625002 1.4296875,0 2.6484375,-1.26562502 2.6484375,-2.90625002 z M 4.9690156,-2.8718281 c 0,1.5117187 -0.8789062,2.47265622 -1.8398437,2.47265622 -0.9726563,0 -1.8515625,-0.96093752 -1.8515625,-2.47265622 0,-1.40625 0.890625,-2.2734375 1.8515625,-2.2734375 0.9492187,0 1.8398437,0.8671875 1.8398437,2.2734375 z m 5.3642574,1.0898437 c 0,-0.9492187 -0.5273433,-1.8398437 -1.3124996,-1.8398437 -0.3632812,0 -0.9609375,0.1054687 -1.4179687,0.46875 V -3.5397969 H 6.9348359 v 5.0859375 h 0.6914063 v -1.92187498 c 0.421875,0.38671875 0.8789062,0.45703125 1.1484375,0.45703125 0.84375,0 1.5585933,-0.80859375 1.5585933,-1.86328127 z m -0.6914058,0 c 0,0.79687502 -0.5976563,1.33593752 -1.21875,1.33593752 -0.1171875,0 -0.3164063,-0.0117188 -0.5273438,-0.1875 -0.234375,-0.17578125 -0.2695312,-0.3046875 -0.2695312,-0.44531252 v -1.5703125 c 0.1875,-0.2226562 0.4921875,-0.421875 0.8789062,-0.421875 0.6328125,0 1.1367188,0.5976563 1.1367188,1.2890625 z m 4.7343748,0.035156 c 0,-0.3632813 -0.03516,-0.9023438 -0.351562,-1.359375 -0.28125,-0.3984375 -0.761719,-0.5507813 -1.148438,-0.5507813 -0.972656,0 -1.722656,0.8554688 -1.722656,1.8632813 0,1.01953122 0.796875,1.87499997 1.851562,1.87499997 0.457032,0 0.9375,-0.140625 1.335938,-0.38671875 l -0.04687,-0.5625 c -0.445313,0.31640625 -0.949219,0.421875 -1.289063,0.421875 -0.691406,0 -1.21875,-0.56250002 -1.242187,-1.30078122 z m -0.480469,-0.4804688 h -2.074218 c 0.1875,-0.6328125 0.65625,-0.9023437 1.054687,-0.9023437 0.351563,0 0.867188,0.1640625 1.019531,0.9023437 z m 3.503907,-0.796875 v -0.5976562 c -0.667969,0.011719 -1.160157,0.3398437 -1.476563,0.7617187 v -0.7382812 h -0.609375 v 3.597656225 h 0.667969 V -1.6999531 c 0,-0.8554688 0.714844,-1.3242188 1.417969,-1.3242191 z m 3.594726,3.023437525 V -2.2976094 c 0,-0.8085937 -0.621094,-1.359375 -1.40625,-1.359375 -0.503906,0 -0.878906,0.1054688 -1.324219,0.3398438 l 0.04687,0.5859375 c 0.257813,-0.1757813 0.644532,-0.421875 1.277344,-0.421875 0.351563,0 0.714844,0.2695312 0.714844,0.8671875 v 0.3164062 c -1.171875,0.035156 -2.34375,0.2929688 -2.34375,1.03125002 0,0.3984375 0.28125,1.01953125 0.972656,1.01953125 0.351563,0 0.972656,-0.0703125 1.394531,-0.38671875 V -7.34375e-4 Z M 20.303,-1.1374531 c 0,0.16406247 0,0.37499997 -0.269531,0.53906247 -0.257813,0.140625 -0.574219,0.15234375 -0.65625,0.15234375 -0.445313,0 -0.773438,-0.19921875 -0.773438,-0.50390625 0,-0.50390627 1.347656,-0.56249997 1.699219,-0.57421877 z m 4.113281,0.92578122 -0.140625,-0.515625 c -0.257812,0.1875 -0.539062,0.2578125 -0.761719,0.2578125 -0.339843,0 -0.421875,-0.328125 -0.421875,-0.69140622 v -1.875 h 1.171875 v -0.5039063 h -1.171875 v -1.0078125 h -0.621093 v 1.0078125 h -0.714844 v 0.5039063 h 0.691406 v 2.015625 c 0,0.53906247 0.140625,1.10156247 0.714844,1.10156247 0.574219,0 1.007812,-0.1875 1.253906,-0.29296875 z m 1.570313,0.210937505 V -3.5397969 h -0.667969 v 3.539062525 z m 0.07031,-4.464843725 v -0.796875 h -0.796875 v 0.796875 z m 4.59668,2.71875 c 0,-1.0546875 -0.832031,-1.9101563 -1.875,-1.9101563 -1.03125,0 -1.875,0.8671875 -1.875,1.9101563 0,1.00781247 0.84375,1.82812497 1.875,1.82812497 1.042969,0 1.875,-0.8203125 1.875,-1.82812497 z m -0.691406,-0.082031 c 0,0.90234377 -0.5625,1.35937502 -1.183594,1.35937502 -0.632813,0 -1.171875,-0.46875 -1.171875,-1.35937502 0,-0.9023437 0.585937,-1.3007812 1.171875,-1.3007812 0.597656,0 1.183594,0.4101562 1.183594,1.3007812 z m 4.640625,1.828125025 V -2.3562031 c 0,-0.6210938 -0.175782,-1.265625 -1.160157,-1.265625 -0.457031,0 -0.890625,0.1875 -1.242187,0.609375 V -3.5983906 H 31.55593 v 3.597656225 h 0.703125 V -1.9343281 c 0,-0.5273438 0.222656,-1.1601563 0.832031,-1.1601563 0.820312,0 0.820312,0.5625 0.820312,0.7851563 v 2.308593725 z m 0,0"
       style="fill:#000000;fill-opacity:1;fill-rule:nonzero;stroke:none"
       aria-label="Operation"
       transform="matrix(1.3333333,0,0,1.3333333,203.42933,76.930667)" />
    <path
       id="path34"
       d="M 264.50883,0 V 42.52022"
       style="fill:none;stroke:#000000;stroke-width:0.79701;stroke-linecap:butt;stroke-linejoin:miter;stroke-miterlimit:10;stroke-dasharray:none;stroke-opacity:1"
       transform="matrix(1.3333333,0,0,-1.3333333,11.869333,124.67333)" />
    <path
       id="path35"
       d="m 240.1509,30.8887 h 48.71588 v 23.263 H 240.1509 Z"
       style="fill:#d9d9d9;fill-opacity:1;fill-rule:nonzero;stroke:none"
       transform="matrix(1.3333333,0,0,-1.3333333,11.869333,124.67333)" />
    <path
       id="path36"
       d="m 5.6377891,-2.7176406 c 0,-1.5585938 -1.171875,-2.8125 -2.5898438,-2.8125 H 0.78622656 V 0.00110938 H 3.0479453 c 1.4296875,0 2.5898438,-1.20703128 2.5898438,-2.71874998 z m -0.7851563,-0.011719 c 0,1.4882813 -0.9726562,2.26171878 -2.0273437,2.26171878 H 1.5596641 V -5.0613906 h 1.265625 c 1.1015625,0 2.0273437,0.8671875 2.0273437,2.332031 z m 4.7636719,0.984375 c 0,-0.3632812 -0.035156,-0.9023437 -0.3515625,-1.359375 -0.28125,-0.3984375 -0.7617188,-0.5507812 -1.1484375,-0.5507812 -0.9726563,0 -1.7226563,0.8554687 -1.7226563,1.8632812 0,1.01953128 0.796875,1.87500003 1.8515625,1.87500003 0.4570313,0 0.9375,-0.140625 1.3359375,-0.38671875 l -0.046875,-0.5625 c -0.4453125,0.31640625 -0.9492187,0.421875 -1.2890625,0.421875 -0.6914062,0 -1.21875,-0.56249998 -1.2421875,-1.30078128 z M 9.1358359,-2.2254531 H 7.0616172 c 0.1875,-0.6328125 0.65625,-0.9023438 1.0546875,-0.9023438 0.3515625,0 0.8671875,0.1640625 1.0195312,0.9023438 z m 4.6054691,-2.5898438 v -0.7265625 h -0.714844 v 0.7265625 z m -0.02344,4.81640628 V -3.5379531 H 13.049898 V 0.00110938 Z M 12.370211,-3.0340469 v -0.5039062 h -1.007813 v -0.9257813 c 0,-0.515625 0.304688,-0.6210937 0.492188,-0.6210937 0.140625,0 0.339844,0.035156 0.515625,0.1523437 v -0.5976562 c -0.02344,-0.011719 -0.246094,-0.082031 -0.515625,-0.082031 -0.609375,0 -1.136719,0.5507813 -1.136719,1.3710938 v 0.703125 h -0.609375 v 0.5039062 h 0.609375 v 3.03515628 h 0.667969 V -3.0340469 Z m 5.742187,3.03515628 V -2.3543594 c 0,-0.6210937 -0.175781,-1.265625 -1.160156,-1.265625 -0.457031,0 -0.890625,0.1875 -1.242187,0.609375 v -0.5859375 h -0.644532 v 3.59765628 h 0.703125 V -1.9324844 c 0,-0.5273437 0.222657,-1.1601562 0.832032,-1.1601562 0.820312,0 0.820312,0.5625 0.820312,0.7851562 v 2.30859378 z m 4.177735,-1.74609378 c 0,-0.3632812 -0.03516,-0.9023437 -0.351563,-1.359375 -0.28125,-0.3984375 -0.761718,-0.5507812 -1.148437,-0.5507812 -0.972656,0 -1.722656,0.8554687 -1.722656,1.8632812 0,1.01953128 0.796875,1.87500003 1.851562,1.87500003 0.457031,0 0.9375,-0.140625 1.335938,-0.38671875 l -0.04687,-0.5625 c -0.445313,0.31640625 -0.949219,0.421875 -1.289063,0.421875 -0.691406,0 -1.21875,-0.56249998 -1.242187,-1.30078128 z m -0.480469,-0.4804687 h -2.074219 c 0.1875,-0.6328125 0.65625,-0.9023438 1.054688,-0.9023438 0.351562,0 0.867187,0.1640625 1.019531,0.9023438 z m 8.727539,2.22656248 V -5.5301406 h -0.667969 v 4.89843748 l -2.625,-4.89843748 h -1.078125 v 5.53124998 h 0.667969 V -4.8973281 h 0.01172 l 2.613281,4.89843748 z m 4.3125,-1.74609378 c 0,-0.3632812 -0.03516,-0.9023437 -0.351562,-1.359375 -0.28125,-0.3984375 -0.761719,-0.5507812 -1.148438,-0.5507812 -0.972656,0 -1.722656,0.8554687 -1.722656,1.8632812 0,1.01953128 0.796875,1.87500003 1.851562,1.87500003 0.457032,0 0.9375,-0.140625 1.335938,-0.38671875 l -0.04687,-0.5625 c -0.445313,0.31640625 -0.949219,0.421875 -1.289063,0.421875 -0.691406,0 -1.21875,-0.56249998 -1.242187,-1.30078128 z m -0.480469,-0.4804687 h -2.074218 c 0.1875,-0.6328125 0.65625,-0.9023438 1.054687,-0.9023438 0.351563,0 0.867188,0.1640625 1.019531,0.9023438 z m 4.640625,2.22656248 -1.699218,-1.82812498 1.546875,-1.7109375 h -0.703125 l -1.125,1.3125 -1.160157,-1.3125 h -0.714843 l 1.59375,1.7109375 -1.640625,1.82812498 h 0.714843 l 1.207032,-1.49999998 1.253906,1.49999998 z m 2.827149,-0.2109375 -0.140625,-0.515625 c -0.257813,0.1875 -0.539063,0.2578125 -0.761719,0.2578125 -0.339844,0 -0.421875,-0.328125 -0.421875,-0.69140628 v -1.875 h 1.171875 v -0.5039062 h -1.171875 v -1.0078125 h -0.621094 v 1.0078125 h -0.714843 v 0.5039062 h 0.691406 v 2.015625 c 0,0.53906253 0.140625,1.10156253 0.714844,1.10156253 0.574218,0 1.007812,-0.1875 1.253906,-0.29296875 z m 0,0"
       style="fill:#000000;fill-opacity:1;fill-rule:nonzero;stroke:none"
       aria-label="DefneNext"
       transform="matrix(1.3333333,0,0,1.3333333,336.49467,64.381333)" />
    <path
       id="path37"
       d="m 5.7778516,-2.7421875 c 0,-1.6523437 -1.2070313,-2.953125 -2.6484375,-2.953125 -1.453125,0 -2.66015629,1.3007813 -2.66015629,2.953125 0,1.6523438 1.23046879,2.90625 2.66015629,2.90625 1.4296875,0 2.6484375,-1.265625 2.6484375,-2.90625 z M 4.9692578,-2.8710937 c 0,1.5117187 -0.8789062,2.4726562 -1.8398437,2.4726562 -0.9726563,0 -1.8515625,-0.9609375 -1.8515625,-2.4726562 0,-1.40625 0.890625,-2.2734375 1.8515625,-2.2734375 0.9492187,0 1.8398437,0.8671875 1.8398437,2.2734375 z M 10.333516,-1.78125 c 0,-0.9492187 -0.5273441,-1.8398437 -1.3125004,-1.8398437 -0.3632812,0 -0.9609375,0.1054687 -1.4179687,0.46875 V -3.5390625 H 6.9350781 V 1.546875 H 7.6264844 V -0.375 c 0.421875,0.38671875 0.8789062,0.45703125 1.1484375,0.45703125 0.84375,0 1.5585941,-0.80859375 1.5585941,-1.86328125 z m -0.6914066,0 c 0,0.796875 -0.5976563,1.3359375 -1.21875,1.3359375 -0.1171875,0 -0.3164063,-0.0117188 -0.5273438,-0.1875 C 7.6616406,-0.80859375 7.6264844,-0.9375 7.6264844,-1.078125 v -1.5703125 c 0.1875,-0.2226562 0.4921875,-0.421875 0.8789062,-0.421875 0.6328125,0 1.1367188,0.5976563 1.1367188,1.2890625 z m 4.7343746,0.035156 c 0,-0.3632813 -0.03516,-0.9023438 -0.351562,-1.359375 -0.28125,-0.3984375 -0.761719,-0.5507813 -1.148438,-0.5507813 -0.972656,0 -1.722656,0.8554688 -1.722656,1.8632813 0,1.0195312 0.796875,1.87499995 1.851563,1.87499995 0.457031,0 0.9375,-0.140625 1.335937,-0.38671875 l -0.04687,-0.5625 c -0.445312,0.31640625 -0.949219,0.421875 -1.289062,0.421875 -0.691407,0 -1.21875,-0.5625 -1.242188,-1.3007812 z m -0.480468,-0.4804688 h -2.074219 c 0.1875,-0.6328125 0.65625,-0.9023437 1.054687,-0.9023437 0.351563,0 0.867188,0.1640625 1.019532,0.9023437 z m 3.503906,-0.796875 V -3.6210937 C 16.731953,-3.609375 16.239766,-3.28125 15.923359,-2.859375 V -3.5976562 H 15.313984 V 0 h 0.667969 v -1.6992187 c 0,-0.8554688 0.714844,-1.3242188 1.417969,-1.3242191 z M 20.994648,0 v -2.296875 c 0,-0.8085937 -0.621093,-1.359375 -1.40625,-1.359375 -0.503906,0 -0.878906,0.1054688 -1.324218,0.3398438 l 0.04687,0.5859375 c 0.257812,-0.1757813 0.644531,-0.421875 1.277343,-0.421875 0.351563,0 0.714844,0.2695312 0.714844,0.8671875 V -1.96875 c -1.171875,0.035156 -2.34375,0.2929688 -2.34375,1.03125 0,0.3984375 0.28125,1.01953125 0.972656,1.01953125 0.351563,0 0.972657,-0.0703125 1.394532,-0.38671875 V 0 Z m -0.691406,-1.1367187 c 0,0.16406245 0,0.37499995 -0.269531,0.53906245 -0.257813,0.140625 -0.574219,0.15234375 -0.65625,0.15234375 -0.445313,0 -0.773438,-0.19921875 -0.773438,-0.50390625 0,-0.50390625 1.347657,-0.56249995 1.699219,-0.57421875 z m 4.113281,0.9257812 -0.140625,-0.515625 c -0.257812,0.1875 -0.539062,0.2578125 -0.761718,0.2578125 -0.339844,0 -0.421875,-0.328125 -0.421875,-0.6914062 v -1.875 H 24.26418 V -3.5390625 H 23.092305 V -4.546875 h -0.621094 v 1.0078125 h -0.714844 v 0.5039063 h 0.691406 v 2.015625 c 0,0.53906245 0.140625,1.10156245 0.714844,1.10156245 0.574219,0 1.007813,-0.1875 1.253906,-0.29296875 z M 25.986836,0 V -3.5390625 H 25.318867 V 0 Z m 0.07031,-4.4648437 v -0.796875 h -0.796875 v 0.796875 z m 4.59375,2.71875 c 0,-1.0546875 -0.832031,-1.9101563 -1.875,-1.9101563 -1.03125,0 -1.875,0.8671875 -1.875,1.9101563 0,1.00781245 0.84375,1.82812495 1.875,1.82812495 1.042969,0 1.875,-0.8203125 1.875,-1.82812495 z m -0.691406,-0.082031 c 0,0.90234375 -0.5625,1.359375 -1.183594,1.359375 -0.632812,0 -1.171875,-0.46875 -1.171875,-1.359375 0,-0.9023437 0.585938,-1.3007812 1.171875,-1.3007812 0.597657,0 1.183594,0.4101562 1.183594,1.3007812 z M 34.603047,0 v -2.3554687 c 0,-0.6210938 -0.175781,-1.265625 -1.160156,-1.265625 -0.457032,0 -0.890625,0.1875 -1.242188,0.609375 V -3.5976562 H 31.556172 V 0 h 0.703125 v -1.9335937 c 0,-0.5273438 0.222656,-1.1601563 0.832031,-1.1601563 0.820313,0 0.820313,0.5625 0.820313,0.7851563 V 0 Z m 0,0"
       style="fill:#000000;fill-opacity:1;fill-rule:nonzero;stroke:none"
       aria-label="Operation"
       transform="matrix(1.3333333,0,0,1.3333333,341.02667,77)" />
    <path
       id="path38"
       d="M 360.888,0 V 42.52022"
       style="fill:none;stroke:#000000;stroke-width:0.79701;stroke-linecap:butt;stroke-linejoin:miter;stroke-miterlimit:10;stroke-dasharray:none;stroke-opacity:1"
       transform="matrix(1.3333333,0,0,-1.3333333,11.869333,124.67333)" />
    <path
       id="path39"
       d="m 339.92934,30.94052 h 41.91731 V 54.0999 h -41.91731 z"
       style="fill:#d9d9d9;fill-opacity:1;fill-rule:nonzero;stroke:none"
       transform="matrix(1.3333333,0,0,-1.3333333,11.869333,124.67333)" />
    <path
       id="path40"
       d="M 4.72225,3.75e-4 V -0.62071875 H 3.9956875 L 1.9917813,-0.609 H 1.581625 V -2.6011875 H 4.3589688 V -3.1285312 H 1.581625 v -1.828125 h 1.1601563 c 0.09375,0 0.1875,0.011719 0.28125,0.011719 h 1.5703125 v -0.5625 H 0.77303125 V 3.75e-4 Z m 4.2568359,0 -1.6992187,-1.828125 1.546875,-1.7109375 h -0.703125 l -1.125,1.3125 -1.1601563,-1.3125 H 5.1236172 l 1.59375,1.7109375 -1.640625,1.828125 h 0.7148437 l 1.2070313,-1.5 1.2539062,1.5 z m 3.5068361,-1.7460937 c 0,-0.3632813 -0.03516,-0.9023438 -0.351563,-1.359375 -0.28125,-0.3984375 -0.761718,-0.5507813 -1.148437,-0.5507813 -0.972656,0 -1.7226564,0.8554688 -1.7226564,1.8632813 0,1.0195312 0.7968754,1.87499995 1.8515624,1.87499995 0.457031,0 0.9375,-0.140625 1.335938,-0.38671875 l -0.04687,-0.5625 c -0.445313,0.31640625 -0.949219,0.421875 -1.289063,0.421875 -0.691406,0 -1.2187499,-0.5625 -1.2421874,-1.3007812 z M 12.005453,-2.2261875 H 9.9312344 C 10.118734,-2.859 10.587484,-3.1285312 10.985922,-3.1285312 c 0.351562,0 0.867187,0.1640625 1.019531,0.9023437 z m 4.253906,1.9453125 -0.04687,-0.5859375 C 15.814047,-0.609 15.380453,-0.468375 14.888266,-0.468375 c -0.738282,0 -1.160157,-0.5859375 -1.160157,-1.3125 0,-0.609375 0.316407,-1.3242187 1.183594,-1.3242187 0.539063,0 0.796875,0.1054687 1.207031,0.3632812 l 0.09375,-0.5742187 c -0.46875,-0.234375 -0.679687,-0.3398438 -1.300781,-0.3398438 -1.195312,0 -1.886719,0.9609375 -1.886719,1.8867188 0,0.9726562 0.773438,1.85156245 1.851563,1.85156245 0.5625,0 1.042969,-0.1640625 1.382812,-0.36328125 z m 3.949219,0.28125 v -3.5390625 h -0.691406 v 2.3085938 c 0,0.6445312 -0.539063,0.84374995 -1.007813,0.84374995 -0.585937,0 -0.644531,-0.1640625 -0.644531,-0.52734375 v -2.625 h -0.703125 v 2.671875 c 0,0.703125 0.316406,0.94921875 0.878906,0.94921875 0.316407,0 1.019532,-0.0703125 1.5,-0.4453125 V 3.75e-4 Z M 23.706625,-0.2105625 23.566,-0.7261875 c -0.257812,0.1875 -0.539062,0.2578125 -0.761719,0.2578125 -0.339843,0 -0.421875,-0.328125 -0.421875,-0.6914062 v -1.875 h 1.171875 V -3.5386875 H 22.382406 V -4.5465 h -0.621093 v 1.0078125 h -0.714844 v 0.5039063 h 0.691406 v 2.015625 c 0,0.53906245 0.140625,1.10156245 0.714844,1.10156245 0.574219,0 1.007812,-0.1875 1.253906,-0.29296875 z m 3.738281,-1.5351562 c 0,-0.3632813 -0.03516,-0.9023438 -0.351562,-1.359375 -0.28125,-0.3984375 -0.761719,-0.5507813 -1.148438,-0.5507813 -0.972656,0 -1.722656,0.8554688 -1.722656,1.8632813 0,1.0195312 0.796875,1.87499995 1.851563,1.87499995 0.457031,0 0.9375,-0.140625 1.335937,-0.38671875 l -0.04687,-0.5625 c -0.445312,0.31640625 -0.949219,0.421875 -1.289062,0.421875 -0.691407,0 -1.21875,-0.5625 -1.242188,-1.3007812 z m -0.480468,-0.4804688 h -2.074219 c 0.1875,-0.6328125 0.65625,-0.9023437 1.054687,-0.9023437 0.351563,0 0.867188,0.1640625 1.019532,0.9023437 z m 0,0"
       style="fill:#000000;fill-opacity:1;fill-rule:nonzero;stroke:none"
       aria-label="Execute"
       transform="matrix(1.3333333,0,0,1.3333333,474.57867,64.312)" />
    <path
       id="path41"
       d="m 5.7777813,-2.7429219 c 0,-1.6523437 -1.2070313,-2.953125 -2.6484375,-2.953125 -1.453125,0 -2.6601563,1.3007813 -2.6601563,2.953125 0,1.6523438 1.2304688,2.90625002 2.6601563,2.90625002 1.4296875,0 2.6484375,-1.26562502 2.6484375,-2.90625002 z M 4.9691875,-2.8718281 c 0,1.5117187 -0.8789062,2.47265622 -1.8398437,2.47265622 -0.9726563,0 -1.8515625,-0.96093752 -1.8515625,-2.47265622 0,-1.40625 0.890625,-2.2734375 1.8515625,-2.2734375 0.9492187,0 1.8398437,0.8671875 1.8398437,2.2734375 z m 5.3642575,1.0898437 c 0,-0.9492187 -0.5273434,-1.8398437 -1.3124997,-1.8398437 -0.3632812,0 -0.9609375,0.1054687 -1.4179687,0.46875 V -3.5397969 H 6.9350078 v 5.0859375 h 0.6914063 v -1.92187498 c 0.421875,0.38671875 0.8789062,0.45703125 1.1484375,0.45703125 0.84375,0 1.5585934,-0.80859375 1.5585934,-1.86328127 z m -0.6914059,0 c 0,0.79687502 -0.5976563,1.33593752 -1.21875,1.33593752 -0.1171875,0 -0.3164063,-0.0117188 -0.5273438,-0.1875 -0.234375,-0.17578125 -0.2695312,-0.3046875 -0.2695312,-0.44531252 v -1.5703125 c 0.1875,-0.2226562 0.4921875,-0.421875 0.8789062,-0.421875 0.6328125,0 1.1367188,0.5976563 1.1367188,1.2890625 z m 4.7343749,0.035156 c 0,-0.3632813 -0.03516,-0.9023438 -0.351562,-1.359375 -0.28125,-0.3984375 -0.761719,-0.5507813 -1.148438,-0.5507813 -0.972656,0 -1.722656,0.8554688 -1.722656,1.8632813 0,1.01953122 0.796875,1.87499997 1.851562,1.87499997 0.457032,0 0.9375,-0.140625 1.335938,-0.38671875 l -0.04687,-0.5625 c -0.445313,0.31640625 -0.949219,0.421875 -1.289063,0.421875 -0.691406,0 -1.21875,-0.56250002 -1.242187,-1.30078122 z m -0.480469,-0.4804688 h -2.074218 c 0.1875,-0.6328125 0.65625,-0.9023437 1.054687,-0.9023437 0.351563,0 0.867188,0.1640625 1.019531,0.9023437 z m 3.503907,-0.796875 v -0.5976562 c -0.667969,0.011719 -1.160157,0.3398437 -1.476563,0.7617187 v -0.7382812 h -0.609375 v 3.597656225 h 0.667969 V -1.6999531 c 0,-0.8554688 0.714844,-1.3242188 1.417969,-1.3242191 z m 3.594726,3.023437525 V -2.2976094 c 0,-0.8085937 -0.621094,-1.359375 -1.40625,-1.359375 -0.503906,0 -0.878906,0.1054688 -1.324219,0.3398438 l 0.04687,0.5859375 c 0.257813,-0.1757813 0.644532,-0.421875 1.277344,-0.421875 0.351563,0 0.714844,0.2695312 0.714844,0.8671875 v 0.3164062 c -1.171875,0.035156 -2.34375,0.2929688 -2.34375,1.03125002 0,0.3984375 0.28125,1.01953125 0.972656,1.01953125 0.351563,0 0.972656,-0.0703125 1.394531,-0.38671875 V -7.34375e-4 Z M 20.303172,-1.1374531 c 0,0.16406247 0,0.37499997 -0.269531,0.53906247 -0.257813,0.140625 -0.574219,0.15234375 -0.65625,0.15234375 -0.445313,0 -0.773438,-0.19921875 -0.773438,-0.50390625 0,-0.50390627 1.347656,-0.56249997 1.699219,-0.57421877 z m 4.113281,0.92578122 -0.140625,-0.515625 c -0.257812,0.1875 -0.539062,0.2578125 -0.761719,0.2578125 -0.339843,0 -0.421875,-0.328125 -0.421875,-0.69140622 v -1.875 h 1.171875 v -0.5039063 h -1.171875 v -1.0078125 h -0.621093 v 1.0078125 h -0.714844 v 0.5039063 h 0.691406 v 2.015625 c 0,0.53906247 0.140625,1.10156247 0.714844,1.10156247 0.574219,0 1.007812,-0.1875 1.253906,-0.29296875 z m 1.570313,0.210937505 V -3.5397969 h -0.667969 v 3.539062525 z m 0.07031,-4.464843725 v -0.796875 h -0.796875 v 0.796875 z m 4.59668,2.71875 c 0,-1.0546875 -0.832031,-1.9101563 -1.875,-1.9101563 -1.03125,0 -1.875,0.8671875 -1.875,1.9101563 0,1.00781247 0.84375,1.82812497 1.875,1.82812497 1.042969,0 1.875,-0.8203125 1.875,-1.82812497 z m -0.691406,-0.082031 c 0,0.90234377 -0.5625,1.35937502 -1.183594,1.35937502 -0.632813,0 -1.171875,-0.46875 -1.171875,-1.35937502 0,-0.9023437 0.585937,-1.3007812 1.171875,-1.3007812 0.597656,0 1.183594,0.4101562 1.183594,1.3007812 z m 4.640625,1.828125025 V -2.3562031 c 0,-0.6210938 -0.175782,-1.265625 -1.160157,-1.265625 -0.457031,0 -0.890625,0.1875 -1.242187,0.609375 V -3.5983906 H 31.5561 v 3.597656225 h 0.703125 V -1.9343281 c 0,-0.5273438 0.222656,-1.1601563 0.832031,-1.1601563 0.820312,0 0.820312,0.5625 0.820312,0.7851563 v 2.308593725 z m 0,0"
       style="fill:#000000;fill-opacity:1;fill-rule:nonzero;stroke:none"
       aria-label="Operation"
       transform="matrix(1.3333333,0,0,1.3333333,469.53067,76.930667)" />
    <path
       id="path42"
       d="M 464.08694,0 V 42.52022"
       style="fill:none;stroke:#000000;stroke-width:0.79701;stroke-linecap:butt;stroke-linejoin:miter;stroke-miterlimit:10;stroke-dasharray:none;stroke-opacity:1"
       transform="matrix(1.3333333,0,0,-1.3333333,11.869333,124.67333)" />
    <path
       id="path43"
       d="M 441.47447,31.61798 H 486.6994 V 53.42244 H 441.47447 Z"
       style="fill:#d9d9d9;fill-opacity:1;fill-rule:nonzero;stroke:none"
       transform="matrix(1.3333333,0,0,-1.3333333,11.869333,124.67333)" />
    <path
       id="path44"
       d="M 5.2396094,-4.296875e-4 3.5755469,-2.5785547 c 1.1484375,-0.3398437 1.4296875,-1.03125 1.4296875,-1.4648437 0,-0.8203125 -0.9726563,-1.4882813 -2.1328125,-1.4882813 H 0.78648437 V -4.296875e-4 H 1.5599219 V -2.5082422 h 1.3125 L 4.4310156,-4.296875e-4 Z M 4.2786719,-4.0433984 c 0,0.5625 -0.5507813,1.0195312 -1.5,1.0195312 h -1.21875 v -2.0390625 h 1.21875 c 0.9140625,0 1.5,0.4335938 1.5,1.0195313 z m 4.7080078,2.296875 c 0,-0.3632813 -0.035156,-0.9023438 -0.3515625,-1.359375 -0.28125,-0.3984375 -0.7617188,-0.5507813 -1.1484375,-0.5507813 -0.9726563,0 -1.7226563,0.8554688 -1.7226563,1.8632813 0,1.01953121 0.796875,1.87499996 1.8515625,1.87499996 0.4570313,0 0.9375,-0.140625 1.3359375,-0.38671875 l -0.046875,-0.5625 c -0.4453125,0.31640625 -0.9492187,0.421875 -1.2890625,0.421875 -0.6914062,0 -1.21875,-0.56250001 -1.2421875,-1.30078121 z M 8.5062109,-2.2269922 H 6.4319922 c 0.1875,-0.6328125 0.65625,-0.9023437 1.0546875,-0.9023437 0.3515625,0 0.8671875,0.1640625 1.0195312,0.9023437 z m 4.8164061,0.4453125 c 0,-0.9492187 -0.527344,-1.8398437 -1.3125,-1.8398437 -0.363281,0 -0.960937,0.1054687 -1.417969,0.46875 V -3.5394922 H 9.9241797 v 5.0859375 h 0.6914063 v -1.92187499 c 0.421875,0.38671875 0.878906,0.45703125 1.148437,0.45703125 0.84375,0 1.558594,-0.80859375 1.558594,-1.86328126 z m -0.691406,0 c 0,0.79687501 -0.597656,1.33593751 -1.21875,1.33593751 -0.117188,0 -0.316406,-0.0117188 -0.527344,-0.1875 -0.234375,-0.17578125 -0.269531,-0.3046875 -0.269531,-0.44531251 v -1.5703125 c 0.1875,-0.2226562 0.492187,-0.421875 0.878906,-0.421875 0.632813,0 1.136719,0.5976563 1.136719,1.2890625 z m 4.731445,0.035156 c 0,-0.3632813 -0.03516,-0.9023438 -0.351562,-1.359375 C 16.729844,-3.5043362 16.249375,-3.65668 15.862656,-3.65668 14.89,-3.65668 14.14,-2.8012112 14.14,-1.7933987 c 0,1.01953121 0.796875,1.87499996 1.851562,1.87499996 0.457032,0 0.9375,-0.140625 1.335938,-0.38671875 l -0.04687,-0.5625 c -0.445313,0.31640625 -0.949219,0.421875 -1.289063,0.421875 -0.691406,0 -1.21875,-0.56250001 -1.242187,-1.30078121 z m -0.480469,-0.4804688 h -2.074218 c 0.1875,-0.6328125 0.65625,-0.9023437 1.054687,-0.9023437 0.351563,0 0.867188,0.1640625 1.019531,0.9023437 z m 4.207032,2.2265625125 V -2.2973047 c 0,-0.8085937 -0.621094,-1.359375 -1.40625,-1.359375 -0.503907,0 -0.878907,0.1054688 -1.324219,0.3398438 l 0.04687,0.5859375 c 0.257812,-0.1757813 0.644531,-0.421875 1.277344,-0.421875 0.351562,0 0.714843,0.2695312 0.714843,0.8671875 v 0.3164062 c -1.171875,0.035156 -2.34375,0.2929688 -2.34375,1.03125001 0,0.3984375 0.28125,1.01953125 0.972657,1.01953125 0.351562,0 0.972656,-0.0703125 1.394531,-0.38671875 V -4.296875e-4 Z M 20.397812,-1.1371484 c 0,0.16406246 0,0.37499996 -0.269531,0.53906246 -0.257812,0.140625 -0.574219,0.15234375 -0.65625,0.15234375 -0.445312,0 -0.773437,-0.19921875 -0.773437,-0.50390625 0,-0.50390626 1.347656,-0.56249996 1.699218,-0.57421876 z m 4.113282,0.92578121 -0.140625,-0.515625 c -0.257813,0.1875 -0.539063,0.2578125 -0.761719,0.2578125 -0.339844,0 -0.421875,-0.328125 -0.421875,-0.69140621 v -1.875 h 1.171875 v -0.5039063 h -1.171875 v -1.0078125 h -0.621094 v 1.0078125 h -0.714844 v 0.5039063 h 0.691407 v 2.015625 c 0,0.53906246 0.140625,1.10156246 0.714843,1.10156246 0.574219,0 1.007813,-0.1875 1.253907,-0.29296875 z m 0,0"
       style="fill:#000000;fill-opacity:1;fill-rule:nonzero;stroke:none"
       aria-label="Repeat"
       transform="matrix(1.3333333,0,0,1.3333333,614.14667,65.246667)" />
    <path
       id="path45"
       d="M 5.02675,-1.8628906 V -5.5308594 H 4.3353438 v 3.6796875 c 0,1.06640628 -0.7148438,1.54687503 -1.40625,1.54687503 -0.6796875,0 -1.3476563,-0.4921875 -1.3476563,-1.54687503 V -5.5308594 H 0.77284375 v 3.6679688 c 0,1.17187498 1.00781255,2.02734373 2.15625005,2.02734373 1.1367187,0 2.0976562,-0.8671875 2.0976562,-2.02734373 z M 9.5121016,3.90625e-4 V -2.3550781 c 0,-0.6210938 -0.1757813,-1.265625 -1.1601563,-1.265625 -0.4570312,0 -0.890625,0.1875 -1.2421875,0.609375 V -3.5972656 H 6.4652266 V 3.90625e-4 h 0.703125 V -1.9332031 c 0,-0.5273438 0.2226562,-1.1601563 0.8320312,-1.1601563 0.8203125,0 0.8203125,0.5625 0.8203125,0.7851563 V 3.90625e-4 Z m 3.4980464,-0.210937495 -0.140625,-0.515625 c -0.257812,0.1875 -0.539062,0.2578125 -0.761718,0.2578125 -0.339844,0 -0.421875,-0.328125 -0.421875,-0.69140623 v -1.875 h 1.171875 V -3.5386719 H 11.68593 v -1.0078125 h -0.621094 v 1.0078125 h -0.714844 v 0.5039063 h 0.691406 v 2.015625 c 0,0.53906248 0.140625,1.10156248 0.714844,1.10156248 0.574219,0 1.007813,-0.1875 1.253906,-0.29296875 z M 14.583391,3.90625e-4 V -3.5386719 H 13.915422 V 3.90625e-4 Z m 0.07031,-4.464843725 v -0.796875 h -0.796875 v 0.796875 z M 16.599016,3.90625e-4 V -5.5308594 H 15.931047 V 3.90625e-4 Z M 25.736711,-2.7183594 c 0,-1.5585937 -1.171875,-2.8125 -2.589844,-2.8125 H 20.885148 V 3.90625e-4 h 2.261719 c 1.429688,0 2.589844,-1.207031225 2.589844,-2.718750025 z m -0.785156,-0.011719 c 0,1.4882812 -0.972657,2.26171873 -2.027344,2.26171873 H 21.658586 V -5.0621094 h 1.265625 c 1.101562,0 2.027344,0.8671875 2.027344,2.332031 z m 5.24707,0.984375 c 0,-1.0546875 -0.832031,-1.9101563 -1.875,-1.9101563 -1.03125,0 -1.875,0.8671875 -1.875,1.9101563 0,1.00781248 0.84375,1.82812498 1.875,1.82812498 1.042969,0 1.875,-0.8203125 1.875,-1.82812498 z m -0.691406,-0.082031 c 0,0.90234378 -0.5625,1.35937503 -1.183594,1.35937503 -0.632812,0 -1.171875,-0.46875 -1.171875,-1.35937503 0,-0.9023437 0.585938,-1.3007812 1.171875,-1.3007812 0.597656,0 1.183594,0.4101562 1.183594,1.3007812 z M 34.147844,3.90625e-4 V -2.3550781 c 0,-0.6210938 -0.175781,-1.265625 -1.160156,-1.265625 -0.457032,0 -0.890625,0.1875 -1.242188,0.609375 V -3.5972656 H 31.100969 V 3.90625e-4 h 0.703125 V -1.9332031 c 0,-0.5273438 0.222656,-1.1601563 0.832031,-1.1601563 0.820313,0 0.820313,0.5625 0.820313,0.7851563 V 3.90625e-4 Z M 38.325578,-1.7457031 c 0,-0.3632813 -0.03516,-0.9023438 -0.351562,-1.359375 -0.28125,-0.3984375 -0.761719,-0.5507813 -1.148438,-0.5507813 -0.972656,0 -1.722656,0.8554688 -1.722656,1.8632813 0,1.01953123 0.796875,1.87499998 1.851562,1.87499998 0.457032,0 0.9375,-0.140625 1.335938,-0.38671875 l -0.04687,-0.5625 c -0.445313,0.31640625 -0.949219,0.421875 -1.289063,0.421875 -0.691406,0 -1.21875,-0.56250003 -1.242187,-1.30078123 z m -0.480469,-0.4804688 h -2.074218 c 0.1875,-0.6328125 0.65625,-0.9023437 1.054687,-0.9023437 0.351563,0 0.867188,0.1640625 1.019531,0.9023437 z m 0,0"
       style="fill:#000000;fill-opacity:1;fill-rule:nonzero;stroke:none"
       aria-label="UntilDone"
       transform="matrix(1.3333333,0,0,1.3333333,604.92267,77.866667)" />
    <path
       id="path46"
       d="M 5.7068047,0.00130469 3.8903984,-2.9166641 c 0.9140625,-0.2460937 1.5585938,-0.890625 1.5585938,-1.6289062 0,-0.9257813 -1.0429688,-1.6757813 -2.3203125,-1.6757813 H 0.86696094 V 0.00130469 H 1.6989922 V -2.8229141 h 1.4414062 l 1.6992188,2.82421879 z m -1.03125,-4.54687499 c 0,0.5859375 -0.5507813,1.1367187 -1.6523438,1.1367187 H 1.6989922 v -2.2851562 h 1.3242187 c 1.0429688,0 1.6523438,0.5039062 1.6523438,1.1484375 z M 9.7409844,0.00130469 V -3.9830703 H 9.0027031 v 2.5898437 c 0,0.72656254 -0.5625,0.96093754 -1.1015625,0.96093754 -0.6445312,0 -0.7148437,-0.19921875 -0.7148437,-0.58593754 V -3.9830703 H 6.4480156 v 3.01171874 c 0,0.76171875 0.3046875,1.06640625 0.9375,1.06640625 0.5273438,0 1.21875,-0.15234375 1.640625,-0.52734375 v 0.43359375 z m 4.7607426,0 V -2.6588516 c 0,-0.6679687 -0.175782,-1.4179687 -1.253907,-1.4179687 -0.714843,0 -1.148437,0.4101562 -1.347656,0.6796875 v -0.6328125 h -0.691406 v 4.03124999 h 0.738281 V -2.1901016 c 0,-0.5859375 0.234375,-1.3007812 0.914063,-1.3007812 0.902343,0 0.902343,0.6328125 0.902343,0.890625 v 2.60156249 z m 3.811523,-0.234375 -0.152344,-0.5625 c -0.234375,0.17578125 -0.550781,0.28125 -0.832031,0.28125 -0.351562,0 -0.46875,-0.3046875 -0.46875,-0.77343749 v -2.1328125 h 1.300781 v -0.5625 h -1.300781 v -1.1367188 h -0.65625 v 1.1367188 h -0.785156 v 0.5625 h 0.761719 v 2.296875 c 0,0.52734374 0.117187,1.21874999 0.761718,1.21874999 0.398438,0 0.867188,-0.0703125 1.371094,-0.328125 z m 1.708008,0.234375 V -3.9830703 h -0.714844 v 3.98437499 z m 0.08203,-5.05078129 v -0.8554687 h -0.867187 v 0.8554687 z m 7.248047,5.05078129 V -2.6588516 c 0,-0.6679687 -0.1875,-1.4179687 -1.265625,-1.4179687 -0.761719,0 -1.183594,0.4570312 -1.394531,0.7382812 -0.05859,-0.1875 -0.246094,-0.7382812 -1.160157,-0.7382812 -0.714843,0 -1.148437,0.4101562 -1.347656,0.6796875 V -4.0299453 H 21.49196 v 4.03124999 h 0.738281 V -2.1901016 c 0,-0.5859375 0.234375,-1.3007812 0.914063,-1.3007812 0.902343,0 0.902343,0.6328125 0.902343,0.890625 V 0.00130469 H 24.78493 V -2.1901016 c 0,-0.5859375 0.234375,-1.3007812 0.925781,-1.3007812 0.890625,0 0.890625,0.6328125 0.890625,0.890625 v 2.60156249 z m 4.564453,-1.96874999 c 0,-0.2695313 -0.01172,-0.9492188 -0.363281,-1.4882813 -0.375,-0.5625 -0.949219,-0.6796875 -1.289063,-0.6796875 -1.042968,0 -1.863281,0.9609375 -1.863281,2.109375 0,1.18359379 0.878906,2.12109379 1.992188,2.12109379 0.433593,0 0.949218,-0.10546875 1.476562,-0.43359375 l -0.05859,-0.62109375 c -0.5625,0.41015625 -1.089843,0.48046875 -1.40625,0.48046875 -0.738281,0 -1.3125,-0.65625004 -1.347656,-1.48828124 z m -0.539062,-0.5273438 h -2.261719 c 0.140625,-0.5742187 0.585937,-1.0546875 1.148437,-1.0546875 0.328125,0 0.9375,0.1523438 1.113282,1.0546875 z m 9.002929,2.49609379 v -0.6796875 H 39.48903 l -2.53125,0.0117188 V -2.9283828 h 3.035157 V -3.5143203 H 36.95778 v -2.0742188 h 0.339844 l 2.191406,0.023437 h 0.773438 v -0.6328125 h -4.160156 v 6.19921879 z m 4.640625,0 -1.839843,-2.05078129 1.6875,-1.9335937 H 44.08278 l -1.207031,1.4648437 -1.265625,-1.4648437 h -0.773437 l 1.722656,1.9335937 -1.78125,2.05078129 h 0.785156 l 1.3125,-1.67578129 1.359375,1.67578129 z m 3.840821,-1.96874999 c 0,-0.2695313 -0.01172,-0.9492188 -0.363282,-1.4882813 -0.375,-0.5625 -0.949218,-0.6796875 -1.289062,-0.6796875 -1.042969,0 -1.863281,0.9609375 -1.863281,2.109375 0,1.18359379 0.878906,2.12109379 1.992187,2.12109379 0.433594,0 0.949219,-0.10546875 1.476563,-0.43359375 l -0.05859,-0.62109375 c -0.5625,0.41015625 -1.089844,0.48046875 -1.40625,0.48046875 -0.738281,0 -1.3125,-0.65625004 -1.347656,-1.48828124 z M 48.322039,-2.4947891 H 46.06032 c 0.140625,-0.5742187 0.585938,-1.0546875 1.148438,-1.0546875 0.328125,0 0.9375,0.1523438 1.113281,1.0546875 z m 4.637695,2.16796879 -0.05859,-0.64453125 c -0.433594,0.3046875 -0.902344,0.45703125 -1.441407,0.45703125 -0.761718,0 -1.265625,-0.63281249 -1.265625,-1.48828129 0,-0.6796875 0.339844,-1.5234375 1.300782,-1.5234375 0.5625,0 0.855468,0.1171875 1.300781,0.421875 l 0.117187,-0.6328125 c -0.503906,-0.28125 -0.785156,-0.3984375 -1.429687,-0.3984375 -1.265625,0 -2.027344,1.078125 -2.027344,2.1445313 0,1.11328124 0.832031,2.08593749 1.992188,2.08593749 0.632812,0 1.101562,-0.1875 1.511718,-0.421875 z m 4.283204,0.328125 V -3.9830703 h -0.738282 v 2.5898437 c 0,0.72656254 -0.5625,0.96093754 -1.101562,0.96093754 -0.644531,0 -0.714844,-0.19921875 -0.714844,-0.58593754 v -2.9648437 h -0.738281 v 3.01171874 c 0,0.76171875 0.304687,1.06640625 0.9375,1.06640625 0.527344,0 1.21875,-0.15234375 1.640625,-0.52734375 v 0.43359375 z m 3.811523,-0.234375 -0.152344,-0.5625 c -0.234375,0.17578125 -0.550781,0.28125 -0.832031,0.28125 -0.351563,0 -0.46875,-0.3046875 -0.46875,-0.77343749 v -2.1328125 h 1.300781 v -0.5625 h -1.300781 v -1.1367188 h -0.65625 v 1.1367188 H 58.15993 v 0.5625 h 0.761718 v 2.296875 c 0,0.52734374 0.117188,1.21874999 0.761719,1.21874999 0.398438,0 0.867188,-0.0703125 1.371094,-0.328125 z m 1.710937,0.234375 V -3.9830703 h -0.714843 v 3.98437499 z m 0.08203,-5.05078129 V -5.9049453 H 61.98024 v 0.8554687 z m 4.986328,3.0820313 c 0,-1.1835938 -0.890625,-2.1679688 -2.027344,-2.1679688 -1.113281,0 -2.027344,0.9726563 -2.027344,2.1679688 0,1.18359374 0.9375,2.06249999 2.027344,2.06249999 1.113281,0 2.027344,-0.90234375 2.027344,-2.06249999 z m -0.738281,-0.09375 c 0,1.0429687 -0.632813,1.54687499 -1.277344,1.54687499 -0.691406,0 -1.300781,-0.53906249 -1.300781,-1.54687499 0,-1.0429688 0.679687,-1.4882813 1.289062,-1.4882813 0.644531,0 1.289063,0.4570313 1.289063,1.4882813 z m 5.041992,2.06249999 V -2.6588516 c 0,-0.6679687 -0.175781,-1.4179687 -1.253906,-1.4179687 -0.714844,0 -1.148438,0.4101562 -1.347657,0.6796875 V -4.0299453 H 68.8445 v 4.03124999 h 0.738281 V -2.1901016 c 0,-0.5859375 0.234375,-1.3007812 0.914063,-1.3007812 0.902344,0 0.902344,0.6328125 0.902344,0.890625 v 2.60156249 z m 0,0"
       style="fill:#000000;fill-opacity:1;fill-rule:nonzero;stroke:none"
       aria-label="RuntimeExecution"
       transform="matrix(1.3333333,0,0,1.3333333,315.95733,20.814667)" />
  </g>
</svg>
